<svg id="圖層_1" data-name="圖層 1" xmlns="http://www.w3.org/2000/svg" viewBox="0 0 531.5 531.5"><defs><style>.cls-1{fill:#b7cbce;}.cls-2{fill:#e9d08e;}.cls-3{opacity:0.34;}.cls-4{fill:#222;}.cls-5{fill:#fff;}.cls-6{fill:#f14900;opacity:0.81;}</style></defs><title>公視圖檔 [已復原]</title><g id="TWN1156"><polygon class="cls-1" points="237.22 292.27 238.06 294.84 236.73 297.06 234.24 298.12 233.62 299.54 234.07 301.32 236.55 302.91 239.35 305.22 240.59 308.59 240.72 309.7 233.8 311.39 230.96 313.21 229.19 314.94 225.72 317.2 225.32 319.73 226.35 322.39 225.15 324.57 221.86 326.34 221.51 329.4 222.44 333.8 221.11 339.65 221.07 344.62 219.16 347.24 215.39 350.43 214.37 354.78 214.94 358.38 216.27 360.42 219.03 363.25 219.56 365.43 217.83 365.65 215.52 365.25 213.61 365.34 209.84 368.31 207.22 365.87 203.85 361.92 200.66 362.72 197.73 365.34 191.92 362.41 187.75 364.41 184.91 367.56 181.36 368.8 173.46 368.31 172.7 370.49 172.13 373.68 170.97 377.19 171.19 380.29 171.15 384.51 168.62 393.91 168.58 397.06 169.78 400.39 169.95 404.03 166.36 413.13 165.21 412.64 164.5 412.68 163.7 412.99 162.72 412.99 156.95 408.47 151.59 400.88 157.22 407.71 156.55 404.43 154.87 401.24 152.52 398.57 148.52 394.85 146.97 392.98 146.26 390.85 147.24 388.81 147.72 386.99 147.06 384.42 145.86 381.94 143.69 378.52 141.65 373.99 141.2 372 141.25 370.67 141.91 369.07 142.04 368 141.82 367.47 140.63 366.45 140.4 365.43 139.12 363.26 138.81 362.37 137.88 356.33 140.58 354.69 140.67 354.91 142.4 358.73 144.53 359.84 151.5 360.81 155.13 360.42 158.86 360.86 160.72 360.19 162.28 359.04 165.16 357.89 167.96 355.94 169.02 353.49 170.35 351.19 172.7 348.04 175.41 345.2 178.29 342.8 181.58 339.61 184.46 335.88 188.9 328.34 193.51 321.64 194.53 318.71 194.09 315.74 193.47 313.74 193.51 311.52 195.11 309.97 198.17 310.28 200.75 310.01 206.2 306.77 208.2 304.38 211.7 301.67 215.12 299.76 216.98 297.55 218.58 294.53 222.35 291.51 230.56 287.34 232.47 287.79 235.04 288.76 236.91 291.38 237.22 292.27 237.22 292.27"/></g><g id="TWN1158"><path class="cls-1" d="M217.83,365.65l1.55,2.93.31,2.17,2.4.58,2.44,1.6-1.25,6.12,0,2.31-.89,2.22L218,385.4l-2.13,1.19-3.37.71-2.39,2L209,392.23l-1.64,2.93-1.33,3.32-.36,6.53.54,2.88.88,2.71.49,3.15v2.39l1.16,2.22,2,2.49-1.11,1.68L207.36,424l-.94,1.73-.22,2,1.2,1.73,1.51.75,1.37,2,0,2.52.27,2.71,1.42,2.62,2,2.17,4.52,2.09,2-.14.4,22.9-.71,3.24-1.11,2.66L217.56,474l-1.77,1.64,0,3.68.67,4.09-.18,2.61-2-3-3-2.31-3.46-1.55-3.55-.85-.13,2.93-1,1-1.51-.35L200,480.52l-.09-1.06.58-3.11L198,472.27l-.22-1.07,0-.93.18-1.42v-4.79l.22-1.37,1.11-1.6.22-1.33-8.83-22.9-.71-1.28-2.44-3-2-4.39-.89-1.25L181.13,424l-2.39-1.33-.4-1.64-.31-.58-1.95-1.29-4.44-2.13-2-1.37-2.13-1.86-1.15-.71L170,404l-.17-3.64-1.2-3.33,0-3.15,2.53-9.4,0-4.22-.23-3.1,1.16-3.51.57-3.19.76-2.18,7.9.49,3.55-1.24,2.83-3.15,4.18-2,5.81,2.93,2.93-2.62,3.19-.8,3.37,3.95,2.62,2.44,3.77-3,1.91-.09,2.31.4Z"/></g><g id="TWN1160"><path class="cls-1" d="M125.41,323.59,127,319.2l.22-.05.09.85Zm2.79-10-.18,1.06.27-4.7.22.09-.31,3.55Zm66.33,5.1-1,2.93-4.61,6.7-4.44,7.54-2.88,3.73-3.29,3.19-2.88,2.4L172.7,348l-2.35,3.15-1.33,2.3L168,355.93l-2.8,2L162.28,359l-1.56,1.15-1.86.67-3.73-.44-3.63.4-7-1-2.13-1.11-1.73-3.82-.09-.22-2.71,1.64-.44-2.79-.8-1.6-1.73-1.73-.53-6.12-3.11-1.47-.35-1.06-1.82-.8.93-5.37-.62-.66-4.17-1.07v-.84l3.5-.05-.35-1.15L126.47,330l-1.24-1.42.31-1.78,1.11-.66,1.2-.4.62-1.11-.36-1.73-.62-1.42.4-1.33.62-1.64,1-1.16-.22-1,.22-1,1.47-4,.71-.75,1.15-.27-1.64-1.11.71-1.82,2.31.89,3.95.58,3.19.79,2.75-1.24,1.11-2.17,2.57-1.6,2.93-2.26,2.09-2.13,2.7-2,3.46-1.56,6.75-1.24,3.77-.22,3.19,1.06,1.78,1.07.93,1.86.75,2.27,4.4,4.48.44,3.32-.8,6.3.71,2.05,2,1.55h1.68L187,318l2.21-.26,1.65.49,3.72.44Z"/></g><g id="TWN1161"><polygon class="cls-1" points="230.34 128.86 230.25 128.94 228.21 129.43 226.26 128.68 225.06 126.99 223.15 125.84 220.09 124.64 220.62 122.82 223.06 117.76 224.04 116.43 224.35 115.77 224.35 115.01 224.04 114.17 223.55 113.19 224.22 111.86 225.01 111.06 228.7 112.66 235.4 114.79 237.79 116.03 239.48 117.76 240.32 119.41 239.88 121 238.81 121.62 236.55 122.02 233.93 123.09 232.42 125 231.4 127.48 230.34 128.86 230.34 128.86"/></g><g id="TWN1162"><polygon class="cls-1" points="283.05 144.21 282.03 147.09 281.41 149.18 281.67 151.13 279.99 153.7 273.78 160 271.87 164.66 270.63 164.31 265.92 164.75 265.57 165.02 265.3 162.84 263.26 159.38 261.8 157.92 261.22 155.97 259 154.19 253.46 155.61 251.32 155.39 248.31 155.61 244.89 156.54 243.07 156.1 243.47 153.84 244.05 151.79 243.6 150.02 243.16 148.73 243.6 147.36 243.96 145.81 244.09 144.07 243.78 141.77 242.05 140.26 236.68 137.73 234.02 135.73 232.29 133.78 230.34 128.86 231.4 127.48 232.42 125 233.93 123.09 236.55 122.02 238.81 121.62 239.88 121 240.32 119.41 239.48 117.76 237.79 116.03 235.4 114.79 228.7 112.66 225.01 111.06 225.68 110.04 225.95 108.31 226.35 107.03 227.23 105.74 228.43 104.81 229.54 104.41 229.45 103.88 229.76 102.59 230.74 99.88 231.67 98.42 233.04 98.91 239.12 98.46 241.16 99.84 242.94 103.7 245.16 104.59 247.07 105.12 248.88 106.01 251.9 106.98 253.5 108.85 253.01 111.42 254.56 113.06 257.45 113.99 259.31 115.37 260.69 116.74 262.37 117.05 264.1 116.92 265.61 118.47 266.76 120.47 268.67 121.45 270.18 122.6 270.36 124.82 271.07 128.06 270.23 131.52 268.19 134.4 268.41 136.31 270.71 138.04 273.46 139.73 275.9 140.13 277.68 141.41 280.92 143.23 283.05 144.21 283.05 144.21"/></g><g id="TWN1163"><path class="cls-2" d="M324,178.77h-.49l-4.92-.75-8.21-4.93-1.69.4-1.06,2.66-2.18,2h-2.88l-3.68-1.42L292.23,175l-2.88-1.37-1.11-.93-2.62-2.09h-2.17l-2.09,1-1.77.27L278,170.83l-2-1.15-2.17-.45-.62-1.68.26-2.44-1.59-.45,1.91-4.66,6.21-6.3,1.68-2.57-.26-1.95.62-2.09,1-2.88.22-.67,1.73-.71,1.46.27,1.51-.58,1-1.68-1.38-5.51,2.4-1.73,1.38-.4,2.52-.71,2.18-.79,1.68-1.47,2.22-1.55,2.93-1.42,1.73-1.24-.18-.89-.44-1.42-.09-1.86.89-2.18,2.08-1.77,1.69-1,5.77-2.35,6-3.6,2.75-.84,2.22-1.6,1.37-2.22,1.47-1.82,1.64-.88,1.55-.54,2-1.28.71-1.69L333,98.46l.62-1.28,5-1,1.65-1.11,3.72-2,2.62-.58,1.46.84.36.49L343,96.51l-2.44,2.09-8.29,10.11L331,110.84l-1,3-.71,3.42-.22,3.37.13,3.28,1.47,6.88-.09,1.77-.67,1.73.09,3.6,1.55,2.79,2.89,1.78,3.37.62v.8l-1.42-.14-1.38.14-1.15.35-.84.62,1.2,2.22.57,2.89-.35,2.48L331.77,154l-.18,1.11.31,1.33.75,1.2.27,1.24-1.11,1.06-2.75,1.6L326,165.06l-.13,1.42.22,3.11-.53,1.15-.58,1-.35,1.42-.22,2.84-.27.71-.44.58-.23.62.58.84Z"/></g><g id="TWN1164"><polygon class="cls-1" points="323.74 73.84 323.6 79.12 323.69 80.45 325.33 82.18 325.15 83.29 324.05 84.09 322.27 84.75 320.01 84.49 315.31 82.54 313.97 81.56 312.33 80.05 311.09 78.5 310.33 76.94 309.05 75.3 308.78 74.02 310.2 73.04 313.4 71.67 315.35 70.38 315.97 70.78 317.04 71.98 318.76 72.6 323.74 73.84 323.74 73.84"/></g><g id="TWN1165"><polygon class="cls-2" points="230.34 128.86 232.29 133.78 234.02 135.73 236.68 137.73 242.05 140.26 243.78 141.77 244.09 144.07 243.96 145.81 243.6 147.36 243.16 148.73 243.6 150.02 244.05 151.79 243.47 153.84 243.07 156.1 244.89 156.54 248.31 155.61 251.32 155.39 253.46 155.61 259 154.19 261.22 155.97 261.8 157.92 263.26 159.38 265.3 162.84 265.57 165.02 263.93 166.17 263.13 168.66 260.95 169.54 258.6 169.5 256.74 170.83 254.7 172.78 252.08 174.2 246.93 178.28 243.91 179.57 239.97 181.66 237.57 180.72 235.35 178.24 232.69 177.17 228.3 176.82 225.86 178.28 225.46 181.57 223.15 182.81 217.78 183.12 212.64 180.15 209.71 179.61 206.47 178.02 199.77 173.09 196.97 170.65 194.89 168.43 190.81 162.09 194 158.5 194.84 156.72 195.24 153.79 196.22 151.31 198.84 146.69 199.55 143.9 200.21 142.7 203.23 141.81 204.07 140.88 204.56 139.73 205.18 138.62 207.04 136.71 209.09 135.2 211.57 134.54 214.72 135.11 214.32 132.72 215.52 131.07 217.16 129.39 218 126.86 218.36 126.02 219.96 125.22 220.09 124.64 223.15 125.84 225.06 126.99 226.26 128.68 228.21 129.43 230.25 128.94 230.34 128.86 230.34 128.86"/></g><g id="TWN1166"><polygon class="cls-1" points="307.14 95.22 305.28 95.98 302.7 95.94 300.57 95.49 298.93 94.03 297.25 92.12 294.67 90.08 292.94 87.11 293.61 83.82 293.08 81.03 290.55 78.59 288.86 76.72 289.57 75.39 290.37 74.33 291.3 72.29 292.9 70.51 297.74 67.67 299.02 66.56 300.8 65.68 302.48 66.21 303.41 67.18 303.19 68.78 303.37 70.33 304.79 73.35 305.9 77.79 307.63 79.34 308.34 81.29 307.63 84.22 307.67 86.48 309.71 87.64 311.4 89.06 310.51 90.97 307.14 95.22 307.14 95.22"/></g><g id="TWN1167"><path class="cls-1" d="M315.35,70.38l-2,1.29L310.2,73l-1.42,1,.27,1.28L310.34,77l.75,1.55,1.24,1.55L314,81.56l1.33,1L320,84.49l2.26.26,1.78-.66,1.1-.8.18-1.11-1.64-1.73-.09-1.33.13-5.28,15.36,3.73,1.42.88-.71,1.65-.18,1.28.31,2.31L341,87.55l1.16,1.82,1,.4,3.11-.45,1.6.18,1.86.49,1.64.84.89,1.11-3.86,1.91-.36-.49-1.46-.84-2.62.58-3.72,2-1.65,1.11-5,1L333,98.46l1.11,1.6-.71,1.69-2,1.28-1.55.54-1.64.88-1.47,1.82-1.37,2.22-2.22,1.6-2.75.84-6,3.6-5.77,2.35-1.69,1-2.08,1.77-.89,2.18.09,1.86.44,1.42.18.89-1.73,1.24L300,128.68l-2.22,1.55-1.68,1.47-2.18.79-2.52.71-1.11-2.39L286.29,127l-.62-2.49-.36-2.3,1.38-1.65.66-2.35-3.77-5.45-2.22-.89-3.28.18-2.26-1.29.57-3-.44-2.27-2.4-2.26-.44-2.26.44-2.58-.09-2.75,1.65-1.77,5.81-1.73,1.46-1.51.45-1.86L282.6,87l-2.26-3.33-1.86-1-1.82-.44L275.24,81l-2.09-1.38-2.79-1.33-1.86-2,5-.93,2.13-.8,2.71-2.31.84-.4,1-.17h1.38l1.55.48.84,1.2.53,1.2.67.71,1.55-.62-1.59-2.53-2.58-2.62-1.37-.84.4-1.2.79-.67.85-.39.35-.45.93-2.26,1.42-2.62,2.93-2.62L293,56.27l4.88-1.11,4.79.53,2,1.51,4.44,6.3,1.59,3.28.54-.22,1.19-.31,1.34-.18,1,.27,0,.4-.49.58-.44.8,0,1,.49.53,1,.76Zm-8.21,24.85L310.51,91l.89-1.91-1.69-1.42-2-1.16,0-2.26.71-2.93-.71-2-1.73-1.55-1.11-4.44-1.42-3-.18-1.55.22-1.6-.93-1-1.68-.53-1.78.88-1.29,1.11-4.83,2.84-1.6,1.78-.93,2-.8,1.06-.71,1.33,1.69,1.87L293.08,81l.53,2.79-.67,3.29,1.73,3,2.58,2L298.93,94l1.64,1.46,2.13.44,2.58,0,1.86-.75Z"/></g><g id="TWN1168"><polygon class="cls-1" points="291.35 133.21 289.97 133.6 287.57 135.33 288.95 140.84 287.97 142.52 286.46 143.1 285 142.83 283.27 143.54 283.05 144.21 280.92 143.23 277.68 141.41 275.9 140.13 273.46 139.73 270.71 138.04 268.41 136.31 268.19 134.4 270.23 131.52 271.07 128.06 270.36 124.82 270.18 122.6 268.67 121.45 266.76 120.47 265.61 118.47 264.1 116.92 262.37 117.05 260.69 116.74 259.31 115.37 257.45 113.99 254.56 113.06 253.01 111.42 253.5 108.85 251.9 106.98 248.88 106.01 247.07 105.12 245.16 104.59 242.94 103.7 241.16 99.84 239.12 98.46 233.04 98.91 231.67 98.42 235.62 92.12 238.68 88.44 241.88 85.73 250.04 83.02 251.95 81.83 253.59 80.41 255.58 79.3 259.58 77.88 268.5 76.28 270.36 78.32 273.15 79.65 275.24 81.03 276.66 82.27 278.48 82.71 280.34 83.69 282.61 87.02 282.83 88.84 282.38 90.7 280.92 92.21 275.11 93.94 273.46 95.71 273.55 98.46 273.11 101.04 273.55 103.3 275.95 105.56 276.39 107.83 275.82 110.8 278.08 112.08 281.36 111.91 283.58 112.8 287.35 118.25 286.69 120.6 285.31 122.25 285.67 124.55 286.29 127.04 290.24 130.81 291.35 133.2 291.35 133.21"/></g><g id="TWN1169"><polygon class="cls-1" points="196.13 217.86 196.18 219.46 194.27 220.17 193.74 221.45 193.96 223.23 193.07 225.27 192.36 227.66 192.31 230.19 191.78 233.12 191.38 239.07 192.31 241.86 193.91 243.33 195.64 243.95 198.13 245.24 197.68 246.79 196 247.45 194.89 248.47 193.82 249.18 193.38 249.49 188.06 248.43 185.48 248.47 180.07 245.81 171.33 244.79 166.18 242.84 163.25 242.04 159.88 241.86 150.12 243.02 146.75 241.06 147.1 240.44 147.81 237.29 148.35 235.96 151.5 232.94 152.38 231.7 153.58 228.24 155.44 224.83 157.97 217.68 159.17 215.6 160.5 214.27 161.61 213.51 162.59 213.02 163.3 212.4 163.56 211.07 164.1 209.83 166.36 208.05 166.89 206.72 167.16 202.24 167.56 201 168.75 199.85 173.77 193.99 176.34 194.83 178.12 196.38 179.31 199.18 179.76 202.55 181.75 204.95 187.03 206.5 188.94 208.1 190.36 210.32 191.25 212.09 191.29 213.87 191.83 215.33 193.74 215.69 196.13 217.24 196.13 217.86 196.13 217.86"/></g><g id="TWN1170"><path class="cls-1" d="M130.64,308.19l-.8.63-.17-.49,1.06-1.38.4-1.06.49-.67.26.22.05.49-.62.89-.67,1.37Zm1-5.59-.31-.31.89-1.68.39-.18-.22.84-.75,1.33Zm2.17-4,0-1.95.22.18,0,1.28Zm.62-4.3-.35.71-.22-.89Zm-.57-2.71-.22.58-.58-.93Zm70.85-22.23,2.71.31,3,1.16,1.82.53,2.26,1.24-.13,2.35L213,277.22l.54,2.13,1.2,2.89.17,2.62.49,1.68,3.37.62,11.36.09.4.09-8.21,4.17-3.77,3-1.6,3-1.86,2.21-3.42,1.91-3.5,2.71-2,2.39L200.74,310l-2.57.27-3.06-.31-1.6,1.55,0,2.22.62,2,.44,3-3.72-.44-1.65-.49L187,318l-2.36,1.07h-1.68l-2-1.55-.71-2.05.8-6.3-.44-3.32-4.4-4.48-.75-2.27-.93-1.86-1.78-1.07-3.19-1.06-3.77.22L159,296.61l-3.46,1.56-2.7,2-2.09,2.13-2.93,2.26-2.57,1.6-1.11,2.17-2.75,1.24-3.19-.79-3.95-.58-2.31-.89,1.69-.13,1.46-.62.62.22-.4-1.42-1,.71-.8-.22-1.11-.05v-1.46l1.06-2.49,1.64-.13,2.4.05-1.64-4.66-1.82-3.55.84-1.64v-.85l-1.37-.66.17-.8.8-.89.4-1.15,1.78-2.31-3.77.22-.09-3.86L138,281l3.69,2.09,2.7,0,1.73-1.42.76-2.17.93-1.33,2.35-.36,3.11-2.53,2-1.06,1.68-1.69,7.24-4.17,3.19-.89,5.59-1,3.06-.18,2.35,2,2.22,2.61,5.59,2,1.64-.22,3.69-1.06,2.08,1.51,1.07,1.73,2.79-.27,5.19-1.06,1.78-.58v-1.51l.13-2.22ZM163.56,283l-1.68,1.82.4,2.48,2.7,1.07,3.11,2,3.24.76,3-1.2,2-.27,1.33-1-1.11-3-1.11-1.78-1.81-1-2.49-.93-3.46.31-4.13.71Z"/></g><g id="TWN1171"><polygon class="cls-1" points="163.56 283.04 167.69 282.33 171.15 282.02 173.64 282.95 175.46 283.92 176.56 285.7 177.67 288.72 176.34 289.69 174.35 289.96 171.33 291.16 168.09 290.4 164.98 288.41 162.28 287.34 161.88 284.86 163.56 283.04 163.56 283.04"/></g><g id="TWN1172"><polygon class="cls-2" points="324 178.77 324.27 179.13 324.98 180.41 325.07 180.9 324.44 181.97 321.87 184.5 319.12 188.31 317.04 189.95 316.41 190.84 316.72 191.77 316.32 192.44 313.4 194.7 312.29 195.76 311.05 198.43 309.76 203.84 306.48 208.68 305.81 210.63 305.9 212.71 306.7 215.02 307.36 216.04 307.94 216.48 308.29 217.1 308.34 218.53 307.85 220.12 306.21 222.7 305.9 224.25 305.72 227.09 304.3 234.32 301.46 241.86 297.91 259.65 295.78 264 290.9 292.44 289.35 292 284.56 294.31 282.83 296.7 283.58 299.76 283.85 302.83 282.25 305.89 280.74 308.19 279.54 311.12 278.48 314.85 276.84 318.27 274.71 324.12 273.33 326.83 273.38 329.8 272.98 332.55 270.09 334.19 266.45 333.71 261.26 329.4 257.18 322.3 254.65 321.64 251.86 321.24 249.64 319.11 246.93 317.82 243.47 316.58 241.25 312.99 240.72 309.7 240.59 308.59 239.34 305.22 236.55 302.91 234.07 301.32 233.62 299.54 234.24 298.12 236.73 297.06 238.06 294.84 237.22 292.27 239.88 290.71 241.25 289.47 240.5 286.72 241.16 285.52 241.83 283.75 244.14 282.02 247.42 281.31 250.7 281.17 253.06 279.09 253.63 275.32 255.41 273.01 258.78 271.77 260.77 270.39 261.49 268.13 262.9 262.54 263.44 258.81 263.04 255.62 262.51 253.22 261.09 251.4 260.15 249.63 262.68 245.46 262.77 243.81 263.88 240.71 265.61 236.94 266.94 233.03 267.65 228.64 267.92 225.27 267.12 223.27 266.23 221.81 267.25 218.44 269.52 213.69 273.07 209.07 273.2 207.34 272.53 205.35 270.23 203.84 268.94 202.46 268.85 198.07 270.49 196.78 273.42 195.81 275.73 194.74 275.64 193.1 275.02 190.35 276.26 189.46 276.79 188.53 278.3 187.78 279.68 186.09 280.25 183.83 281.58 181.61 284.91 179.53 285.98 176.77 286.15 174.91 288.24 172.74 289.35 173.67 292.23 175.04 298.89 176.73 302.57 178.15 305.45 178.15 307.63 176.15 308.69 173.49 310.38 173.09 318.59 178.02 323.51 178.77 324 178.77 324 178.77"/></g><g id="TWN1173"><polygon class="cls-1" points="275.02 190.35 275.64 193.1 275.73 194.74 273.42 195.81 270.49 196.78 268.85 198.07 268.94 202.46 270.23 203.84 272.53 205.35 273.2 207.34 273.07 209.07 269.52 213.69 267.25 218.44 266.23 221.81 267.12 223.27 267.92 225.27 267.65 228.64 266.94 233.03 265.61 236.94 263.88 240.71 262.77 243.81 262.68 245.46 260.15 249.63 261.09 251.4 262.51 253.22 263.04 255.62 263.44 258.81 262.9 262.54 261.49 268.13 260.78 270.39 258.78 271.77 255.41 273.01 253.63 275.32 253.06 279.09 250.7 281.17 247.42 281.31 244.14 282.02 241.83 283.75 241.16 285.52 240.5 286.72 241.25 289.47 239.88 290.71 237.22 292.27 236.91 291.38 235.04 288.76 232.47 287.79 230.56 287.34 230.16 287.25 218.8 287.16 215.43 286.54 214.94 284.86 214.76 282.24 213.57 279.36 213.03 277.23 214.37 274.96 214.5 272.61 212.24 271.37 210.42 270.84 207.4 269.68 204.69 269.37 203.54 267.82 199.9 268.22 196.88 269.11 194.31 268 192.54 265.91 192.94 263.38 193.78 261.07 193.34 257.66 193.78 254.46 194.67 252.38 193.82 249.18 194.89 248.47 196 247.45 197.68 246.79 198.13 245.24 195.64 243.95 193.91 243.33 192.31 241.86 191.38 239.07 191.78 233.12 192.31 230.19 192.36 227.66 193.07 225.27 193.96 223.23 193.74 221.45 194.27 220.17 196.18 219.46 196.13 217.86 198.04 217.95 205.98 219.06 207.84 218.79 210.06 216.66 213.43 210.27 215.08 206.5 217.92 205.17 222.4 205.79 225.06 205.7 227.63 202.29 228.96 201.44 232.91 204.42 234.47 204.02 235.62 201.58 237.7 199.85 240.63 199.89 242.85 199.05 246.36 195.68 248.62 194.39 250.57 194.03 254.47 191.95 257.23 191.86 260.02 191.42 264.95 189.46 266.99 189.33 269.07 189.77 275.02 190.35 275.02 190.35"/></g><g id="TWN1174"><polygon class="cls-1" points="265.57 165.02 265.92 164.75 270.63 164.31 271.87 164.66 273.46 165.11 273.2 167.55 273.82 169.23 275.99 169.68 277.95 170.83 279.59 171.94 281.36 171.67 283.45 170.65 285.62 170.65 288.24 172.74 286.15 174.91 285.98 176.77 284.91 179.53 281.58 181.61 280.25 183.83 279.68 186.09 278.3 187.78 276.79 188.53 276.26 189.46 275.02 190.35 269.07 189.77 266.99 189.33 264.95 189.46 260.02 191.42 257.23 191.86 254.47 191.95 250.57 194.03 248.62 194.39 246.36 195.68 242.85 199.05 240.63 199.89 237.7 199.85 235.62 201.58 234.47 204.02 232.91 204.42 228.96 201.44 227.63 202.29 225.06 205.7 222.4 205.79 217.92 205.17 215.08 206.5 213.43 210.27 210.06 216.66 207.84 218.79 205.98 219.06 198.04 217.95 196.13 217.86 196.13 217.24 193.74 215.69 191.83 215.33 191.29 213.87 191.25 212.09 190.36 210.32 188.94 208.1 187.03 206.5 181.75 204.95 179.76 202.55 179.31 199.18 178.12 196.38 176.34 194.83 173.77 193.99 174.03 193.63 174.39 192.17 175.85 190.97 176.83 188.09 178.03 182.63 182.16 175.49 183.4 171.09 184.91 168.66 190.81 162.09 194.89 168.43 196.97 170.65 199.77 173.09 206.47 178.02 209.71 179.61 212.64 180.15 217.78 183.12 223.15 182.81 225.46 181.57 225.86 178.28 228.3 176.82 232.69 177.17 235.35 178.24 237.57 180.72 239.97 181.66 243.92 179.57 246.93 178.28 252.08 174.2 254.7 172.78 256.74 170.83 258.6 169.5 260.95 169.54 263.13 168.66 263.93 166.17 265.57 165.02 265.57 165.02"/></g><g id="TWN1176"><polygon class="cls-1" points="193.82 249.18 194.67 252.38 193.78 254.46 193.34 257.66 193.78 261.07 192.94 263.38 192.54 265.91 194.31 268 196.88 269.11 199.9 268.22 203.54 267.82 204.69 269.37 204.47 269.37 204.34 271.59 204.34 273.1 202.56 273.68 197.37 274.74 194.58 275.01 193.51 273.28 191.43 271.77 187.75 272.83 186.1 273.05 180.51 271.01 178.29 268.4 175.94 266.36 172.88 266.53 167.29 267.55 164.1 268.44 156.86 272.61 155.18 274.3 153.23 275.36 150.12 277.89 147.77 278.25 146.84 279.58 146.08 281.75 144.35 283.17 141.65 283.13 137.96 281.04 132.82 281.66 134.86 279.36 134.77 272.08 135.08 266.62 136.32 262.27 138.23 258.86 138.81 254.42 139.83 250.51 140.4 249.18 143.11 245.59 143.6 244.35 143.91 243.68 146.39 241.77 146.75 241.06 150.12 243.02 159.88 241.86 163.25 242.04 166.18 242.84 171.33 244.79 180.07 245.81 185.48 248.47 188.06 248.43 193.38 249.5 193.82 249.18 193.82 249.18"/></g><g id="TWN1177"><path class="cls-1" d="M220.49,444.09l-2,.14L214,442.14l-2-2.17-1.42-2.62-.27-2.71,0-2.52-1.37-2-1.51-.75-1.2-1.73.22-2,.94-1.73,2.35-1.42,1.11-1.68-2-2.49-1.16-2.22v-2.39l-.49-3.15-.88-2.71-.54-2.88.36-6.53,1.33-3.32,1.64-2.93,1.07-2.93,2.39-2,3.37-.71L218,385.4l4.35-1.82.89-2.22,0-2.31,1.25-6.12-2.44-1.6-2.4-.58-.31-2.17-1.55-2.93,1.73-.22-.54-2.17-2.75-2.84-1.33-2-.57-3.6,1-4.35,3.77-3.19,1.91-2.62,0-5,1.33-5.86-.93-4.39.35-3.06,3.29-1.77,1.2-2.18-1-2.66.39-2.53,3.47-2.26,1.77-1.73,2.84-1.82,6.92-1.69.53,3.29,2.22,3.59,3.46,1.24,2.71,1.29,2.22,2.13,2.79.4,2.53.66,4.08,7.1,5.19,4.31,3.64.48,2.89-1.64.4-2.75-.05-3,1.38-2.71,2.13-5.85,1.64-3.42,1.06-3.73,1.2-2.93,1.51-2.3,1.6-3.06-.27-3.07-.75-3.06,1.73-2.39,4.79-2.31,1.55.44-2,11.72-1,2.17-3.15,4.17-1.15,2.18-.93,2.7-.67,5.06.09,4.53-.44,4.3-2.18,4.39-.93.93-2.08,1.56-1,1-.44,1-.76,2.58-2.13,3.72-1.28,5.82-.93,2.61-4.57,6.57-.58,1.2-6.17,5.23-1.46,1.69-.18,1.2.27,2.75-.09,1.24-.54,1.42-1,1.55-2.09,2.71-2.08,2-7.15,4.74-4.79,5.28-1.19.62-.94,1.2-2.3,6-1.16,2.22-3.55,4.44-1.46,2.66-.84,5.46L226,420.49l-4.22,7.41-.62,2.53-.75,7.14.13,6.52Z"/></g><g class="cls-3"><g id="TWN1156-2" data-name="TWN1156"><path class="cls-4" d="M235.67,292.68a5.41,5.41,0,0,1,.49,2.75c-.31,1.65-.89.73-2.32,1.75a3.14,3.14,0,0,0-1.54,3.66c.52,1.83,2.32,2.39,3.77,3.52a7.62,7.62,0,0,1,3.11,5.76l1.28-1.4c-3.15.77-6.35,1.16-9.09,2.94-1.28.84-2.19,1.82-3.38,2.77s-3,1.41-3.73,2.63-.2,2.74-.12,4c.16,2.42.7,2.47-1.3,3.54-2.92,1.56-3.08,3.25-2.6,6.5.3,2,.6,2.91.17,4.88a37.56,37.56,0,0,0-.87,4.57c-.2,2.41.34,3.49-1,5.35-1.08,1.52-2.88,2.3-4,3.74a9.8,9.8,0,0,0-1.29,8.2c.92,3.2,4,4.76,4.76,8l1.7-1.46c-2,.25-4.18-.64-6.15-.06-1.78.54-3.28,2.22-4.73,3.36l2.43,0a76.86,76.86,0,0,1-6-6.38,1.68,1.68,0,0,0-1.68-.32c-3.42.85-4.49,1.63-7.14,4l2.48-.45c-5-2.5-7.36-4.34-12.33-.6-.94.71-1.53,1.86-2.41,2.65-1.46,1.29,1.49-.61-.47.36a10.66,10.66,0,0,1-2.36.83c1-.17-.58-.06-.69-.06-.89,0-1.82-.11-2.71-.17l-4-.24c-.63,0-1.77.21-2,.92-1.06,3.05-2.42,7-2.51,10.13-.06,2.06.38,4.15.11,6.22a47,47,0,0,1-1.64,6.21,16.62,16.62,0,0,0-.92,5.35c.1,1.75.85,3,1.2,4.71.86,4.19-1.83,8.39-3.34,12.19l2.38-.85c-1.52-.64-2.27,0-3.64-.21-.06,0,.4.07-.49-.4a25.49,25.49,0,0,1-3.25-2.55c-2.91-2.29-4.75-5.74-6.89-8.76l-2.83,1.32,5.63,6.83c.73.88,3.23.23,3-1.07-1.22-6-4.59-8.72-8.68-13a6.31,6.31,0,0,1-1.92-2.81c-.29-1.33.44-2,.76-3.3.61-2.47-.43-4.74-1.64-6.92-1.39-2.51-3.1-4.74-4-7.51-.75-2.3.9-4.46.2-6.45s-2.49-3.26-3.13-5.37a24.91,24.91,0,0,1-.73-4.73c-.1-1.15.07-1.16-.46-.42.43-.6,1.78-1.08,2.43-1.47l-2.55-.22c.73,1.83,1.31,3.69,2.86,4.84,2,1.46,5,1.39,7.36,1.68,2.15.27,4.15-.13,6.29-.05,2.62.11,3.95.34,6.38-.9,2-1,4.56-2,6.31-3.6s2.27-3.74,3.56-5.73c2.94-4.48,7.33-7.26,10.87-11.17,3.17-3.49,5.13-7.65,7.63-11.6,2.26-3.58,5.86-6.86,5.62-11.33a23.77,23.77,0,0,0-.6-2.93c-.12-.72-.41-1.05-.27-1.83-.36,2,.23-3.68.54-1.35l.55-.53c-1.53.34-1.7.51-.51.52a6.45,6.45,0,0,0,1.67.17A11.86,11.86,0,0,0,201,311c4.87-1.6,7.48-5.82,11.51-8.53,2.27-1.53,4.14-2.15,5.74-4.51,1.76-2.61,2.05-3.75,4.94-5.67,1.84-1.23,5.54-3.56,7.9-4-2,.41,1.3.64,2.13,1.16a6.49,6.49,0,0,1,2.44,3.28l3.09-.83h0c-.52-1.3-3.58-.41-3.09.83h0c.51,1.28,3.54.46,3.09-.83-1.27-3.62-5.08-6.26-9-5.28-3.57.89-10,4.54-12.48,7.56-1.11,1.39-2.1,4.1-3.1,4.94-2.06,1.74-4.76,2.64-6.81,4.52a28.44,28.44,0,0,1-4.92,4.17,18.86,18.86,0,0,1-2.16,1.28c-1.32.56,1.72,0-.69,0a35.37,35.37,0,0,0-4-.17c-5.56.83-2.87,5.6-2.83,9.16.06,4.3-4.14,8.06-6.28,11.62-2.79,4.64-5.29,8.86-9.35,12.53-3.61,3.26-7.14,6.36-9.44,10.77-1.64,3.15-2.66,3.4-5.85,5.09a13.72,13.72,0,0,1-2.83,1.62c-.9.23-2.6-.35-3.79-.35-3.12,0-5.76.35-8.94-.4-2.53-.59-3.09-1.86-4.22-4.68-.41-1-1.85-.65-2.55-.22l-2.71,1.64a1,1,0,0,0-.54,1.05c.36,2.35.42,5,1.37,7.16.81,1.89,2.57,3.61,2.57,5.44,0,1.1-.7,2-.58,3.22a11.39,11.39,0,0,0,1.06,3.27,58.1,58.1,0,0,0,3.63,6.67,11.59,11.59,0,0,1,1.47,3.61c.31,1.89-.59,2.57-.9,4.28-.38,2.05.81,3.68,2.22,5.17,4,4.2,7.3,6.62,8.51,12.56l3-1.08L153,400.22c-.8-1-3.72.07-2.83,1.32,2.16,3.06,4,6.53,7,8.87,1.37,1.09,3.12,3.17,4.84,3.6,1.44.37,2.28-.4,3.46.1a2.13,2.13,0,0,0,2.37-.85c1.36-3.42,3.54-7.07,3.62-10.75s-1.76-6.55-.82-10.38c1-4.17,2.26-7.67,2.13-12a33.61,33.61,0,0,1,2.17-11.7l-2,.92c3.93.24,7.62,1,11.34-.51a7.7,7.7,0,0,0,3.35-2.48c1.43-1.61,2.56-2,5-3.13h-1.87l5.82,2.93a2.23,2.23,0,0,0,2.48-.45c2.56-2.29,2-2.05,5.1-2.84l-1.68-.32a73.86,73.86,0,0,0,6,6.39,2,2,0,0,0,2.43,0l1.88-1.49a11.67,11.67,0,0,1,1.3-1c1.11-.62-.86,0,.38-.09,1.71-.13,3.24.36,5,.13.65-.08,1.92-.56,1.7-1.46-.78-3.19-3.54-4.37-4.66-7.33-.78-2.06-.18-3.66.1-5.68,0-.3.74-2.23,0-1.08a13,13,0,0,1,2.42-2c2.36-2.1,3.65-3.7,3.68-6.89,0-2.92,1.28-5.63,1.34-8.48,0-1.52-.84-3-.89-4.57,0-.27.41-3.09,0-2.17-.3.65,1.32-.57,1.88-.92,1.21-.76,2.27-1.43,2.66-3,.34-1.34-.47-1.89-.64-3.28-.28-2.27.12-1.93,1.85-3.13,1.23-.85,2.17-1.83,3.35-2.75,2.54-2,5-2.1,8.8-3,.64-.16,1.37-.66,1.29-1.39a10.38,10.38,0,0,0-1.93-5.09c-1.32-1.63-4.13-2.4-5-4.18s1.42-1.42,2.8-2.83c1.85-1.87,1.28-3.17.57-5.34C238.33,290.53,235.25,291.39,235.67,292.68Z"/></g><g id="TWN1158-2" data-name="TWN1158"><path class="cls-4" d="M216.28,366.07a14.22,14.22,0,0,1,1.87,5.1.41.41,0,0,0,.29.25c1.22.29,2.89.48,3.78,1.51s.5,1.59.15,3.3c-.43,2.13-.29,5.42-1.41,7.24.38-.62.53-.41-.55.21-.71.4-1.55.62-2.29,1s-1.39.68-2.1,1c-.41.21-3.47.74-5.27,1.94-2.21,1.48-2.29,2.77-3.36,5.06-1,2.06-2.42,3.94-2.86,6.22-1.1,5.53,1,9.64,1.5,14.93.18,2.19.21,3.45,1.51,5.35,1.1,1.6,2,1.46.93,3.14-.38.57-1.7.88-2.32,1.49a5.23,5.23,0,0,0-1.39,4.43c.27.95,1.18,1.44,1.78,2,1.68,1.64,2,1.93,2.16,4.39.27,4.84,2.67,7.8,7.11,9.57a6,6,0,0,0,2.36.71c2,.07.52-.79.79.22.71,2.74.11,6.51.16,9.33.09,5.16,1.71,13-1.19,17.7-1.2,1.95-3.22,2.51-3.68,4.82-.59,3,.74,6.23.54,9.25l3.07-.65c-3.15-4.76-6.8-6.66-12.31-8-.73-.17-2.75.06-2.8,1.08-.07,1.64.13,2.43-1,3.58l2.66-.71c-3.88-.92-2-2.44-2.41-5.32-.27-1.77-2.09-3.15-2.51-4.95-.37-1.57.1-4.09.11-5.72,0-2.3,1.36-3.69,1.49-5.74.07-1.22-.68-2.45-1.12-3.59l-3.41-8.84c-1.53-4-2.64-8.66-4.94-12.27-1.3-2-2.59-3.39-3.6-5.61a10.49,10.49,0,0,0-3.21-4.32c-.89-.74-1.83-1.39-2.76-2.05a7,7,0,0,1-2.1-2.31,8.78,8.78,0,0,0-3.3-2.66,35.87,35.87,0,0,1-6-3.5c-2.45-2-2.79-1.62-1.61-4.6.79-2,2.12-4.28,2.5-6.41.43-2.41-.66-4.28-1.17-6.49-1.08-4.7,2-9.32,2.38-13.95.22-2.79-.31-5.36.38-8.06.61-2.39,1.1-4.79,1.91-7.12l-2.51,1c3.9.24,7.51.93,11.22-.38a7.59,7.59,0,0,0,3.74-2.39c1.74-1.87,2.9-2.35,5.4-3.54l-2.18.35,5.82,2.92a2.92,2.92,0,0,0,2.45-.52c.62-.55,3.17-2.71,2.22-2.23a6.49,6.49,0,0,1,2.14-.54s-.53-.59-.09.71c.64,1.87,3.79,4.15,5.19,5.45.6.56,2.14,0,2.66-.42,1.12-.88,2.21-1.88,3.39-2.68-.27.19-1.73-.18.2.25.46.1,2,.62,1.64.05.53.87,3.45-.24,3.09-.83-.59-1-4.37-.83-5.31-.61-2.15.48-3.72,2.2-5.43,3.55l2.66-.43a73.86,73.86,0,0,1-6-6.39c-.31-.35-1.26-.13-1.61,0a13.33,13.33,0,0,0-7.17,3.88l2.46-.52c-1.85-.93-4.33-2.9-6.43-3-1.75-.09-4.69,1.64-6,2.59-1,.71-1.59,1.92-2.49,2.72-1.1,1,1-.4-.63.42a12.3,12.3,0,0,1-2.37.82c2.34-.6-1.2-.3-2.18-.36l-4.44-.28c-.69,0-2.22.15-2.5,1-1.12,3.21-2.48,7.24-2.39,10.6a40.69,40.69,0,0,1-1.79,12.56c-1,3.68-.19,5.78.49,9.37.81,4.22-1.91,8.47-3.41,12.28a.28.28,0,0,0,.08.33c2.41,1.48,4.32,3.44,6.88,4.72,1.35.68,3.69,1.36,4.67,2.61,1.21,1.56.65,1.88,2.38,3.11,3.32,2.35,4.82,3.86,6.61,7.45,1.13,2.26,3,4,4,6.28,1.74,3.82,3,7.88,4.55,11.79,1.13,2.92,3.82,7.18,4,10.33.07,1.33-.92,2.12-1.3,3.3-.44,1.37-.14,3.08-.18,4.47a28,28,0,0,0-.22,3.87c.24,1.77,1.75,2.87,2.28,4.51.92,2.82-1.51,6.32,3.34,6.79,3.43.32,3.83-2.35,4-5L203,479c5.15,1.22,8.76,3,11.73,7.47.45.67,3,.21,3.08-.65.2-2.88-1.62-7.83-.44-10.37.62-1.36,2.62-2.06,3.44-3.37a13.6,13.6,0,0,0,1.58-5.39c.72-7.47-.27-15.46-.4-23,0-.32-.73-.33-.9-.32a9.28,9.28,0,0,1-7.55-3.73c-2.1-2.86-.85-4.95-1.75-7.93-.84-2.77-4.48-2.57-3.91-5.94.36-2.08,3-3,4.31-5,.13-.2.19-.32,0-.51-2.09-2.55-2.86-3.92-3.12-7.12-.2-2.49-1.21-4.7-1.62-7.14-.94-5.62,1-9.45,3.16-14.34a12.31,12.31,0,0,1,2.19-3.55c1.17-1.41-1.15.11.25-.32.73-.23,1.52-.26,2.25-.48a54.24,54.24,0,0,0,6.17-2.71c4.32-1.89,3.67-7.75,4.52-11.94a.28.28,0,0,0-.09-.32c-.79-.52-4.13-1.64-4.65-2.19s-.19-1.44-.4-2a22.18,22.18,0,0,0-1.55-2.93C218.9,364.35,215.94,365.41,216.28,366.07Z"/></g><path class="cls-4" d="M127.87,321.52l.77-1.49a2,2,0,0,0,.09-1.29c0-.38-1.1-.23-1.27-.19-.64.12-1.7.28-2,.93a5.59,5.59,0,0,0-.28.78l-.39,1.1c0,.1-.08.21-.11.31s0,.32.15.53c.45.79,3.37-.33,3.09-.83-.08-.14-.18-.13-.19-.22a1,1,0,0,1,.09-.24l.28-.79.42-1.18-1.81.86.22,0-1.26-.19a4.51,4.51,0,0,0,.07.73c.06.19.07-.08,0,0s-.11.22-.17.32l-.73,1.41c-.27.52,1.07.38,1.25.35C126.62,322.29,127.58,322.08,127.87,321.52Z"/><path class="cls-4" d="M191.75,317.41c-3.12-.93-4.53.54-7.4.87.73-.08-.38-.1-.66-.29a3.9,3.9,0,0,1-1.47-1.52c-.81-1.6-.17-3.53.05-5.22.27-2.19.52-4.57-.74-6.44-.95-1.42-2.71-2.29-3.64-3.72-.71-1.09-.8-2.52-1.56-3.61-3-4.31-9.31-3.19-13.76-2.37-5.89,1.09-9.11,3.53-13.56,7.33-1.37,1.18-3.14,1.93-4.47,3.11a17,17,0,0,0-2,2.6,4.2,4.2,0,0,1-1.16.52c-.79.26,1.69.4-.19-.19a18.89,18.89,0,0,0-2.22-.54,32.44,32.44,0,0,1-5.83-1.35,2.3,2.3,0,0,0-2.77,1l-.71,1.82c-.1.25.15.45.32.57l1.65,1.11,1-1.56c-4.27,1-3.82,5.08-4.87,8.16-.47,1.36-1.91,2.55-1.83,4.23,0,.89,1,1.72.88,2.71s-.25.52-1.41,1.22c-.28.17-.68.51-.58.89l-.29,2.69a.53.53,0,0,0,0,.66c.94,1.08,2.19,1.71,2.63,3.15l2.14-1.31-1.92,0c-.68,0-2.25.34-2.13,1.31l.15,1.31c0,.26.41.4.6.44,1.77.45,2,.2,2.27,1.65.21,1.14-.55,3.16-.76,4.34a.54.54,0,0,0,.32.57c1.32.58,1.87,1.46,3,2.24,2.36,1.66,2,.89,2.29,4.26s2.64,5.18,3.2,8.73c.15.95,2.08.33,2.51.06l2.71-1.64-2.51-.06c1,2.44,1.49,4.47,4.1,5.4a26.56,26.56,0,0,0,7.59,1.18c1.31,0,2.62-.36,3.93-.36a27.68,27.68,0,0,0,3.61.43c2.48-.18,5.2-2.05,7.36-3.15,5.06-2.61,6.32-8.46,10.32-12.4,3.66-3.61,7.5-6.55,10.34-10.94,3.37-5.21,7.76-10.92,9.79-16.75.12-.35-.32-.63-.61-.67l-3.72-.44c-1-.12-3.63,1.51-1.88,1.71a11.4,11.4,0,0,1,2.76.33c.82.22.91.14.25-.25l-.55,1.59c-1,1.46-1.82,3.07-2.83,4.54-2,2.93-3.73,6-5.6,9-3.39,5.5-8.54,8.82-12.64,13.65-1.93,2.28-3.56,6.52-5,8-1.23,1.24-2.83,1.54-4.31,2.3a16.55,16.55,0,0,0-1.8,1.15,4.92,4.92,0,0,1-1.43.62c1,0,1.06-.07.11-.14a89.3,89.3,0,0,1-9.41-.35c-4.38-.62-5.61-1-7.3-5.26-.36-.9-1.94-.42-2.51-.07l-2.71,1.64,2.51.07a11.21,11.21,0,0,0-1-4c-.57-1.05-1.58-1.69-2-2.78-.54-1.45.21-3.45-.42-4.85s-.6-.76-1.93-1.71a9.37,9.37,0,0,1-2.14-1.9c-.77-.92-.88-.08-1.15-.8a10,10,0,0,1,.43-2.46c.21-1.18.67-2.05,0-3-1-1.35-2.55-.15-2.78-2.07l-2.14,1.32,1.92,0c.55,0,2.43-.38,2.14-1.31-.63-2-3.54-3.53-2.45-5.53.7-1.28,2.22-1.43,1.83-4.36-.16-1.21-.51-1.68-.06-3,.32-.9,1.26-1.54,1.48-2.37.45-1.67,0-5.61,2-6.07.61-.14,1.93-.93,1-1.56-1.41-.95-1.21-.84-.61-2.36l-2.78.95c4,1.55,11.33,4.09,14.87.31,1.15-1.23,1.1-2,2.62-3a35.78,35.78,0,0,0,3.58-2.67c2-1.75,3.78-3.59,5.69-4.54,3.18-1.57,12.47-4.14,15.78.06.8,1,.75,2.45,1.38,3.52.78,1.31,2.28,2.25,3.26,3.41,2.17,2.56,1.38,5.48,1,8.68-.29,2.5.27,5.17,3.09,6.06,3,.94,5-1.72,7.9-.85C190.88,319.42,193.49,317.93,191.75,317.41Z"/><g id="TWN1161-2" data-name="TWN1161"><path class="cls-4" d="M229,129c1.14-1.14.28-.25-.85,0l1.57-.1c-2.17-.84-3-2.57-5.06-3.6-.63-.31-2.67-.65-2.91-1.2s.65-2,.89-2.52c.81-1.89,2.53-3.9,3.12-5.8.66-2.1-1.28-2.92.69-4.9l-2.85.66a90.68,90.68,0,0,0,8.75,3.21c2.22.7,6.13,2.17,6.39,5,.06.65-.41,1.14-.51,1.57s1.33-.26.14-.06c-.41.07-.83.12-1.23.22a14,14,0,0,0-3.84,1.39c-2.33,1.43-2.82,4.2-4.43,6.28a.14.14,0,0,0,.06.21h0c.77.39,3.16-.89,2.92-1,.75.37,2-3.38,2.22-3.74s1.56-1.9,1-1.46c.36-.27,2.66-1,1.86-.78s1.38-.15,1.86-.29a6.62,6.62,0,0,0,1.54-.62,2.47,2.47,0,0,0,1.54-2.6c-.34-2.51-3.72-4.08-5.73-4.83-3.23-1.2-6.43-2.1-9.6-3.47a3.44,3.44,0,0,0-2.84.66c-.67.66-1.6,1.54-1.56,2.51.06,1.61,1,1.7.13,3.43-1.29,2.58-2.81,5-3.63,7.77a.15.15,0,0,0,.06.22,30.73,30.73,0,0,1,3.5,1.46c1.3.71,1.85,1.93,3,2.69,1.64,1.12,5.24.79,6.63-.6C232.29,128.15,229.46,128.5,229,129Z"/></g><g id="TWN1162-2" data-name="TWN1162"><path class="cls-4" d="M281.49,144.37c-1.27,3.6-1.2,7.18-3.75,10-1.6,1.75-3.77,3.28-5.14,5.21a25.69,25.69,0,0,0-2.19,5l2.38-.83c-2.31-.66-6.22-.78-8.21.71l2.53.16a9.19,9.19,0,0,0-1.62-4.5c-.91-1.41-1.75-3.15-2.68-4.4-2.88-3.85-4.91-1.62-8.9-1.18-.71.08-9.19.72-9,.87-.75-.61-.25.8-.14-.19a7.81,7.81,0,0,1,.27-1.52,8.87,8.87,0,0,0,.57-2c.05-1.81-.6-3-.35-4.84.49-3.55.68-5.72-2.66-7.68-4.5-2.63-7.75-3.55-9.91-8.67-.88-2.08-.42-2.06.69-4.11s1.83-3,3.36-3.39c2.85-.8,6.78-1.76,4.29-5.6-2.32-3.58-7.14-4.11-10.82-5.44a15.08,15.08,0,0,1-2.53-1c-1.89-1.11-.56.42-.44-1,.19-2.17.78-3.93,3-4.71.46-.17,1-.65.89-1.18-.29-1.74,1.17-4.1,2-5.48l-2.38.83c2.69,1,5.45-.6,8,.11-1.4-.38.81.85.9,1,.4.65.68,1.44,1,2.14.73,1.51.71,1.57,2.05,2.34,2.21,1.26,6,1.32,7.95,2.94s.26,1.91.76,3.84a5.12,5.12,0,0,0,2.18,2.29c1.27.74,2.62.82,3.85,1.73,1.43,1.06,1.76,1.85,3.53,2.18.48.09.93.06,1.4.11,1.65.17,0-.64,1,.32s1.24,2.15,2.12,3,2.5.86,3.12,2.07a21.42,21.42,0,0,1,.78,4.94c-.06,2.94-3.11,4.81-2.7,7.47.38,2.44,4.22,4.19,6.34,5,3,1.11,5.72,2.88,8.75,4.27.6.28,3.34-.05,2.75-1.23h0c-.59-1.18-3.62-.24-3.09.83h0l2.76-1.23c-2.52-1.15-4.81-3.09-7.29-4.14-1.93-.82-6.37-1.37-7.08-3.85-.54-1.91,2.7-5.08,2.73-7.5s-.53-5.77-2.54-7.12a9.58,9.58,0,0,1-2.95-2.79,5.39,5.39,0,0,0-2.46-2.06c-1.58-.5-2,.17-3.58-.85a25.49,25.49,0,0,0-2.87-2.07c-1.2-.57-3-.52-3.56-2.06-.63-1.8.8-2-.54-3.68s-4.45-2.41-6.63-3.22c-2.38-.89-2.91-.48-3.89-2.69-.69-1.56-1-2.45-2.6-3.26-2.63-1.36-6.23.16-8.41-.62a2.3,2.3,0,0,0-2.38.84c-1.12,1.76-2.57,4.35-2.21,6.5l.89-1.18c-4.12,1.49-3.34,4.27-5.33,7.32a.63.63,0,0,0,.24.92c2.52,1.09,17.06,4.63,14.64,8.87-.11.18-4.67,1.07-5.77,2a16.31,16.31,0,0,0-3.88,6.27c-.39,2.08,2.31,6,3.81,7.36,2.4,2.25,5.43,2.82,8.06,4.62,3.11,2.12,1.21,4.61,1.06,7.54-.05,1.13.63,2.08.67,3.22.05,1.38-.63,3.12-.87,4.51a.72.72,0,0,0,.63.77c2.72.67,4.33-.22,7-.51s4.95-.11,7.74-.83a8.92,8.92,0,0,1,2.12-.54c-2.4-.27-.05.45.18,1a23,23,0,0,0,1.37,2.63c1.47,2.37,3.06,3.65,3.42,6.64.13,1,2.08.5,2.54.16.64-.48-1.28.27-.35.1.61-.11,1.28-.12,1.89-.18a7,7,0,0,1,2.85.09c.68.19,2.06-.08,2.37-.84a22.41,22.41,0,0,1,2.45-5.15c1.54-2,3.78-3.51,5.39-5.47,2.48-3,2.16-6.46,3.44-10.09C285,142.84,281.91,143.2,281.49,144.37Z"/></g><g id="TWN1163-2" data-name="TWN1163"><path class="cls-4" d="M324.16,177.71c-3.42,0-4.58-.67-7.26-2.28-2-1.21-4.36-3.37-6.78-3.32-2.76,0-3.43,2.33-4.53,4.34l-1.19,1.09c1.05-.35,1.24-.5.55-.45-.42,0-2-.08-1.75,0-1.28-.26-2.52-1-3.77-1.41-3-.92-6.2-1.14-8.88-2.84-1.85-1.16-2.9-2.88-5.11-3.22-1.57-.24-2.3.34-3.7.73-1.59.45-1.07.43-2.59-.34a35.19,35.19,0,0,1-3.34-1.51c-1.08-.81-1-1.46-.79-3.5a.81.81,0,0,0-.65-.85l-1.6-.45.56,1.13c1.2-2.92,2-4.65,4.17-6.87,1.72-1.75,4.62-3.93,5.46-6.39.77-2.26.17-4.84,1.55-7.19.53-.88-.05-.12,1-.26a6.18,6.18,0,0,0,2.91-.65c2.25-1.41,2-3.06,1.48-5.31a24.42,24.42,0,0,1-.63-2.52c-.09-.68-1,.44.49-.5a10.19,10.19,0,0,1,3.09-1.28c4.51-1.34,8.92-4.43,12.75-7.17a1.1,1.1,0,0,0,.54-1.06c-.61-3-1.12-5,1.61-7,2.29-1.61,5.1-2.19,7.57-3.46s5.21-3.14,7-3.8a10.11,10.11,0,0,0,5.08-3.85c1.83-2.49,3.53-2.8,5.91-4.49s2.33-2.68,1.24-4.76c.54-.81.36-.86-.53-.15l1-.2c1-.27,2.05-.31,3-.62A13.81,13.81,0,0,0,340.78,96a23.17,23.17,0,0,1,3.68-2,7.55,7.55,0,0,1,2.07-.46c-1.79-.22,0,.45.41,1l.75-1.5c-9.45,4.73-18.67,14-20,25a25.62,25.62,0,0,0,.24,7.62c.3,1.75,1.13,3.7,1.16,5.46,0,1.31-.57,2.3-.73,3.52-.83,6.2,3.64,8.61,8.9,9.58l-1-.92V144l2.11-1.19a8.62,8.62,0,0,0-6.35,1.39,1,1,0,0,0-.41,1.3c1,1.91,2.2,4.45,1.33,6.68.15-.39.75-.8-.09-.06-.45.39-1.15.5-1.59.9-.62.57-.8.5-1.08,1.33-.58,1.72,1.32,2.9,1.08,4.26-.17,1-3,2.12-3.94,3-1.28,1.2-2.62,2.57-3,4.25-.39,1.85,0,3.38-.58,5.2s-.51,3.45-1,5.13-1.29,1.56-.18,3.19c.72,1,2.67.15,3-.8h0c.44-1.32-2.7-1-3.12.28h0l3-.8c-.46-.67.39-2,.57-3.23.31-1.94,1.15-3.44,1.56-5.29.36-1.59-.48-3.4.17-4.68,1.11-2.19,3.29-3,5.1-4.35,1.52-1.16,1.76-1.71,1.31-3.49-.22-.9-.85-1.34-.91-2.37s-1.13.91.15-.42c.37-.39,1-.47,1.45-.82,2.78-2.44,1.14-6.41-.39-9.25l-.42,1.3a4.21,4.21,0,0,1,3.24-.55c.62,0,2.11-.32,2.11-1.2V143c0-.62-.47-.82-1-.92-2.58-.48-4.34-.66-5.93-3s-.72-4.21-.29-6.61c.45-2.57-.7-5.19-1.13-7.68a24.63,24.63,0,0,1-.2-7.07c1.18-10,9.61-18.7,18.22-23,.52-.26,1.21-.88.76-1.5-2.33-3.2-6.45-1-9.15.44a15.81,15.81,0,0,1-5.28,2.15c-2.13.43-2.9.56-3.85,2.54a.75.75,0,0,0,0,.8c2.09,3-2.17,3.11-4.08,4.49-2.16,1.57-2.76,4.4-5.17,5.67-4,2.11-10.29,4.49-15,7.09-2.14,1.19-4.48,2.88-4.94,5.48-.24,1.31.42,2.3.44,3.51,0,1.4,1.08-.59-.09.64a7.53,7.53,0,0,1-2,1.13c-2.36,1.26-4.41,3.25-6.83,4.26-2.84,1.2-4.78,1.45-7.35,3.3a1.07,1.07,0,0,0-.54,1.06c.33,1.33,1.63,4,1.33,5.31-.41,1.78-.93.53-2.41.75-3.27.49-3.76,3-4.58,5.75-.45,1.52-.21,3-.76,4.34-.61,1.51-2.24,2.76-3.35,3.88a22.9,22.9,0,0,0-5.86,8.74.79.79,0,0,0,.56,1.13c1.81.5.51-.42.81.81.16.66-.15,1.25.05,1.94.53,1.84.74,1.38,2.18,2,2.6,1.19,4.63,3.11,7.63,2.22.76-.23,1.4-.77,2.16-1-.17,0,2,.55.83,0,1.21.55,2.12,1.89,3.24,2.62,2.78,1.82,5.76,2.23,8.91,3.13,5.25,1.5,11.31,3.81,13.28-3.5-.92.53-.87.62.16.27l-.93-.17a11.22,11.22,0,0,0,2,1.21,58.48,58.48,0,0,0,5.68,3.41,17.31,17.31,0,0,0,6.85,1.2C325.55,179.83,326.26,177.71,324.16,177.71Z"/></g><g id="TWN1164-2" data-name="TWN1164"><path class="cls-4" d="M322.19,74.25c0,1.74-.17,3.5-.13,5.23a4.08,4.08,0,0,0,.18,1.53c.28.62,1.44,1,1.51,1.7a1.12,1.12,0,0,1-.17.7c-.18.51-.52.36-.51.35a6.69,6.69,0,0,1-1.18.45c1.87-.81,1.11,0,.23-.31a52.25,52.25,0,0,1-5-1.8c-2.72-1.39-4.2-3.82-5.77-6.29-.52-.81-1-1.53-.87-2s1-.61,1.91-1a27.14,27.14,0,0,0,4.19-2.31l-2.66.42c1.4.9,1.92,1.81,3.61,2.32s3.32.83,5,1.24l.69-1.14h0c-2.07.69-.15,1.38,1.13,1h0c.24-.09,1.61-.91.69-1.14-1.62-.41-3.28-.74-4.88-1.22s-2.05-1.33-3.32-2.14c-.75-.49-2,0-2.65.42a11.47,11.47,0,0,1-3.2,1.76,18.75,18.75,0,0,0-3.36,1.88c-.16.11-.39.33-.34.55.57,2.74,3,5.78,5.17,7.58a15.64,15.64,0,0,0,8,3.37c1.71.15,6.92-.79,6.43-3.44-.1-.59-.76-.9-1.1-1.39a2.73,2.73,0,0,1-.61-1.84,49,49,0,0,1,.13-5.28C325.3,72.75,322.22,73.22,322.19,74.25Z"/></g><g id="TWN1165-2" data-name="TWN1165"><path class="cls-4" d="M228.79,129.27c1.11,2.8,1.81,5.25,4.08,7.29s5.5,2.7,8,4.55c3.12,2.29.66,4.94.72,7.8,0,1.15.84,2.18.8,3.38a31.74,31.74,0,0,1-.89,4c-.07.4.28.62.62.7,3.14.77,5.51-.72,8.68-.66a29.11,29.11,0,0,0,8.4-1.3l-1.65-.21c2.61,2.09,4.66,5.76,6.23,8.79,1,1.87-.52,1.2-1.55,3.14-.77,1.45.47,1.85-1.58,2,1.25-.07-1.39-.23-1.87-.12-1.62.37-2.79,1.6-4,2.63s-2.82,1.95-4.28,3c-2.11,1.46-3.91,3.24-5.69,4.06-2,.9-3.88,1.89-5.8,2.91l2.19-.27c-3.19-1.24-4.62-3.95-8.16-4.65-2.6-.52-6.55-.69-8.42,1.76-.4.52-.31,1-.44,1.63-.41,1.94.11,1.07-.84,2.06s.09.14-1.37.3a14.34,14.34,0,0,1-3.8.22c1.59.33-1-.93-1.3-1.1a26.57,26.57,0,0,0-2.83-1.63c-1.26-.5-2.66-.56-3.94-1.05-6.48-2.45-12.41-8.48-16.07-14.17a10.36,10.36,0,0,1-1.59-2.48c-.14-.78-.35,1.13-.06.25a3.18,3.18,0,0,1,.7-.77,12.36,12.36,0,0,0,3.22-4.47c.43-1.31.39-2.72.84-4,.69-2,2-3.63,2.89-5.53.26-.57.4-1.08.62-1.68s1.34-3,.11-2.09c1.55-1.19,3.22-.56,4.57-2.27,1.12-1.4,1.52-3,3-4.19,2.31-1.88,2.74-1.48,5.45-1,.73.14,2.66-.2,2.48-1.29-.52-3.12,1.27-3.37,2.57-5.88.33-.64.34-1.52.71-2.14.52-.84-.32.45.62-.56.7-.76,1.2-.48,1.47-1.66l-2.77,1c1.5.58,3.42,1.07,4.67,2.17s1.29,2.06,3.14,2.5c1,.23,5.21.25,5.21-1.41,0-1.35-3.1-.73-3.1.35,1.11-.73,1.29-1,.57-.75l-.7.16c-.36-.43.93.63-.21-.16a19.61,19.61,0,0,1-2-1.91c-1.4-1.25-3.48-1.84-5.18-2.5-.8-.32-2.53-.09-2.77.95-.16.44,0,.42.38-.08l-1.19.59c-.24.25-.57.33-.82.63-.73.88-.68,2.44-1.25,3.4-1.69,2.81-3.09,2.52-2.48,6.17l2.48-1.3c-3.84-.7-6.62-.59-9.72,2.08a16,16,0,0,0-2.93,3.6c-.94,1.39,0,.78-1.51,1.52-.76.37-1.72.31-2.4.87-1.17,1-1.18,2.63-1.65,3.93-.67,1.86-1.95,3.46-2.78,5.26s-.81,3.32-1.33,5.1c-.63,2.13-2.34,3.59-3.78,5.2-.26.3-.42.56-.18.92,1.91,3,3.6,6.09,6.16,8.56a73.37,73.37,0,0,0,8.19,6.41c2.72,1.95,5.41,2.38,8.33,3.62,1.6.67,3.08,2.33,4.79,2.7a17.31,17.31,0,0,0,4.71-.2,7.5,7.5,0,0,0,3.72-1.11c2.4-1.47.83-2,2.08-4.24-.3.54,1.15-.77,1.66-1-1.89.74.26.34,1.35.48A7.26,7.26,0,0,1,235,180.1c2.65,2.36,4.29,2.92,7.46,1.24a64.92,64.92,0,0,0,9.38-5.69c1.37-1,2.94-1.73,4.29-2.78a16.77,16.77,0,0,0,2.16-2c.2-.24,1.7-1,.51-.58s1,.16,1.17.14c1.23-.1,3.16-.41,4.1-1.3,1.48-1.41.8-2.49,2.44-3.64a1,1,0,0,0,.57-.92c-.36-3-1.89-4.38-3.4-6.82-1.2-1.93-1.82-4.18-4.51-4.5-1.38-.16-3.19.9-4.53,1.13a11.56,11.56,0,0,1-3.15.07,19.08,19.08,0,0,0-3.69.37c-.76.15-1.51.53-2.27.62-.4.05-.9-.06-.88.1-.23-1.29.88-2.7.92-3.95s-.81-2.27-.78-3.42c.08-2.28,1.69-4.72.39-7s-5.34-3-7.37-4.25c-3.47-2.1-4.52-4.83-6-8.46C231.43,127.31,228.38,128.21,228.79,129.27Z"/></g><g id="TWN1166-2" data-name="TWN1166"><path class="cls-4" d="M306.56,94.7c-.42.17-.82.37-1.25.51-1.08.34,1.13-.08-.25,0a7.71,7.71,0,0,1-3.19-.39c-1.47-.74-2.56-2.64-3.77-3.72-1.49-1.34-3.29-2.6-3.51-4.75-.21-2,1.08-3.34.09-5.43-.61-1.27-2-2.09-2.95-3.18-1.56-1.81-.53-2.73.64-4.64,1.88-3.06,6-5.37,9.36-7l-2.18.33c2.77.88,2.28,4,3.33,6.62.62,1.55.63,3.56,1.41,5,.65,1.17,1.91,1.67,2.27,3.11s-.4,2.58-.47,3.92c-.11,2.27.19,1.73,1.71,3s2.14,1.15,1.17,3.19c-.69,1.46-2.24,2.84-3.25,4.11-.82,1,2.31.48,2.84,0h0c.81-.81-2.21-.58-2.84,0h0l2.84,0a32.35,32.35,0,0,0,4.38-6.37.32.32,0,0,0-.1-.35c-1.76-1.48-3.65-1.92-3.66-4.32,0-2.2,1.25-3.3-.11-5.39-.84-1.3-1.53-1.6-2.06-3.14-.33-.95-.44-2-.78-2.92a20.66,20.66,0,0,1-1.36-3.19c-.16-.83.34-2.13,0-2.83-1.81-4.16-7-.16-9,1.17s-4,2-5.47,3.87A35.21,35.21,0,0,0,287.33,77a.3.3,0,0,0,.09.35c2.24,2.47,4.75,4,4.48,7.6-.21,2.93-.07,4.3,2.24,6.47,1.71,1.61,3.62,4.13,5.8,4.95a10.69,10.69,0,0,0,7.78-.57C309.73,94.94,307.88,94.17,306.56,94.7Z"/></g><g id="TWN1167-2" data-name="TWN1167"><path class="cls-4" d="M314.17,70.36c-2.12,1.4-4.47,2.2-6.56,3.64-.11.07-.41.24-.37.43,1.14,5.51,8,11.06,13.76,10.91,1.44,0,5.13-.84,5.7-2.46s-1.24-2.45-1.54-4,.08-3.75.12-5.45l-2.82,1,13,3.15c2.07.5,2.95.41,3,2.38.07,1.54-.3,3,.06,4.64.72,3.29,1.41,5.83,5,5.61,2.26-.13,3-.3,5.51.73a3.42,3.42,0,0,1,1.18.87c.78.8.91-.51.34.35-.44.66-2.36,1.16-3.09,1.53l2.42-.24c-2.18-3-6.46-.73-9,.61-1.06.56-2,1.22-3.08,1.8,1.6-.88-1.89.36-2.75.55-1.91.42-2.73.53-3.61,2.34l0,.14c2.22,3.19-1,3.63-3.25,4.9s-3.4,3.51-5.06,5.41c-.42.49-1.91,1.21-.45.54-.72.34-1.57.42-2.32.71a18,18,0,0,0-2.29,1.13,75.52,75.52,0,0,1-8.34,4.3c-2.13.87-4.6,1.91-6.1,3.75a5.85,5.85,0,0,0-1.23,2.51c-.17,1.05.71,2.55.51,3.41-.47,2.08-3.72,2.81-5.55,4.12a14.69,14.69,0,0,1-6.11,3.1l1.66,0c-1.27-2.74-3.85-4-5.16-6.55A9.06,9.06,0,0,1,287,122c.38-1.33,2-2.13,1.84-3.79-.16-1.86-2.85-5.2-4.51-6.17-2.21-1.31-6.1.57-6.84-2.15-.28-1,.55-2.35.25-3.56-.42-1.67-1.62-1.83-2.46-3.26-1.31-2.22-.23-6.28.42-8.33.36-1.14-.28-.27.15-.49a16.83,16.83,0,0,1,2.73-.81,14.33,14.33,0,0,0,3.53-1.16,4.88,4.88,0,0,0,2-5.72c-1.27-3.41-3.63-3.6-6.34-5.08a30.9,30.9,0,0,1-7.8-5.67l-1.75,1.06c3-.57,6.36-.86,9-2.57,1.59-1,1.73-2.25,3.19-1.93,1.91.43,2.05,2.18,3.25,3.46.34.36,1.67-.08,2-.2l1.56-.62c.11,0,1.2-.45,1-.74a20.13,20.13,0,0,0-3.59-4.57c-2-1.77-1.63-1.54-.18-3.32,2.5-3.08,3.09-6.34,6.58-8.4,2.54-1.49,2.92-1.37,5.88-2.06.67-.16,1.73,0,0-.11a14.64,14.64,0,0,1,1.75.2,11.19,11.19,0,0,1,3,.49c3.53,1.58,6,7.42,7.63,10.75.3.61,2-.08,2.43-.24,2.47-1,.63.79.64,1.81a2.39,2.39,0,0,0,2.79,2.15c1.21-.2,2.78-1.44.59-1.08.43-.07,0-1.74,0-2.6,0-.37.61-.82.67-1.31a.31.31,0,0,0-.27-.17,9.76,9.76,0,0,0-6.2.85l2.43-.24c-1.7-3.49-3.78-7.67-6.78-10.18s-7.56-1.54-11-.72A18.94,18.94,0,0,0,284.67,61c-1.26,1.47-1.51,3.57-2.63,5-.8,1.06-1.92,1.26-2.46,2.88a.15.15,0,0,0,.06.24,17,17,0,0,1,5.46,5.88l1-.73-1.56.62,2-.2c-1.48-1.57-1.31-3-3.58-3.59a8.37,8.37,0,0,0-4.35.37c-1.76.64-2.69,2-4.22,3,.83-.54-1,.36-1.13.4.74-.23-.51.08-.68.12-1.25.29-2.54.47-3.8.71-.26.05-2.22.54-1.75,1.06,2.69,2.94,6.71,5,10.27,6.58a7.26,7.26,0,0,1,3.81,4.52c.39,1.61-.32,2.41-.86,3.69s.6,0-.06.35a12,12,0,0,1-1.88.56c-1.56.47-3.4.75-4.74,1.71-2.06,1.49-1.41,2.48-1.57,4.67-.14,1.92-.74,3.44.34,5.17.9,1.47,2,1.57,2.35,3.45a10.15,10.15,0,0,1-.4,3.58.15.15,0,0,0,.06.24,8.87,8.87,0,0,0,3,1.36c1.38.21,2.45-.34,3.61.19,2.37,1.06,5.45,5.23,4.21,7.83-.44.92-1.22,1.36-1.4,2.32a10.93,10.93,0,0,0,.87,4.24c1.3,2.42,3.87,3.68,5.11,6.36.2.43,1.39.11,1.66,0,5.37-1.51,10-4.53,14.55-7.77a.31.31,0,0,0,.15-.28c-1-5.09.42-7.38,5.31-9.38a43.1,43.1,0,0,0,5.13-2.33c1.28-.73,2.54-1.51,3.8-2.28.18-.11,1.87-1,.32-.32.59-.25,1.24-.35,1.84-.57a10.3,10.3,0,0,0,4-2.28c1.36-1.39,1.83-3.31,3.55-4.41,1.4-.88,3.35-1,4.53-2.34,1.77-2-.48-2.87.45-4.79l-1.81.82c3-.62,5.3-1,7.87-2.51.55-.32,1.12-.6,1.68-.91.24-.13,2.89-1.39,1.56-.9s1.29-.34,1.57-.28c-1.26-.27.65.88.84,1.14.42.57,2,0,2.43-.24l3.86-1.9c.07,0,.82-.39.66-.59a6.71,6.71,0,0,0-4.18-2.48c-1.83-.43-3.8.46-5.45.08-1-.23-1.91-3-2.34-4.71-.57-2.34-.75-4,.24-6.25a.15.15,0,0,0-.07-.23c-4.71-3-11.58-3.38-16.95-4.68-.56-.14-2.8.2-2.82,1,0,1.66-.43,3.66-.13,5.28.26,1.41,1.21,1.71,1.56,2.9.27.92-.43,1.29-.56,1.51-1.18.37-1.14.44.13.19L321.63,84a41.49,41.49,0,0,1-4.77-1.89c-2.23-1.29-5-4.14-5.85-6.63-.65-2-.37-1.93,1.67-2.9a30.67,30.67,0,0,0,3.84-2.13C317.77,69.58,314.71,70,314.17,70.36Z"/><path class="cls-4" d="M308.66,94.94a31.07,31.07,0,0,0,4.26-6.16.17.17,0,0,0-.06-.24c-1.9-1.59-4-2.13-3.64-4.9.26-2.22,1-3.09-.4-5.06-1-1.42-1.47-1.57-1.93-3.42a22.24,22.24,0,0,0-.92-3,12.05,12.05,0,0,1-1.15-3c-.09-.72.33-1.91.05-2.47-1.89-3.89-6.93,0-8.92,1.34s-4,2-5.52,3.83A32.62,32.62,0,0,0,287.34,77a.17.17,0,0,0,.06.24c2.3,2.54,4.79,4,4.52,7.71-.12,1.62-.52,2-.07,3.34a7.56,7.56,0,0,0,2.65,3.33c2.15,1.87,3.64,4.4,6.6,4.83a12.28,12.28,0,0,0,6.92-1l-2.27,0h0c-.6.6,2.26.25,2.78-.27h0c.76-.76-2-.13-2.27,0a16.16,16.16,0,0,1-1.57.64c2-.58.35-.22-.81-.38a5.46,5.46,0,0,1-3.49-1.8c-1.77-1.74-5.22-4-5.77-6.6-.49-2.21,1.17-4.08-.09-6.4-1.5-2.76-4.75-2.56-3-5.93,1.61-3.18,3.19-4.3,6.17-6.15a13.52,13.52,0,0,0,2.56-1.82,3.55,3.55,0,0,1,1-.53c-.85.39-1.19-.13-.85.44s1.11.64,1.44,1.49-.07,2.26.25,3.24c.44,1.32,1.12,2.48,1.51,3.83a12.77,12.77,0,0,0,1,3.35c1,1.5,2.14,1.74,2.08,3.81,0,1.28-1,2.58-.55,3.92s1.34,1.21,2.41,2.22c1.29,1.22,1.32,1.42.36,3a42.71,42.71,0,0,1-3.26,4.12C305.47,95.7,308.09,95.66,308.66,94.94Z"/></g><g id="TWN1168-2" data-name="TWN1168"><path class="cls-4" d="M291.24,132.79a15,15,0,0,0-5.05,2.69.3.3,0,0,0-.16.27,33.82,33.82,0,0,1,1.2,4.81c0,.44-.27,2.16-.16,1.82-1.07.36-1,.39.29.08l-.89-.16c-1.63.14-4.34.41-4.94,2.2l3-.8c-2.49-1.14-4.78-3.09-7.24-4.11-2.09-.87-7.11-1.64-7.43-4.65-.17-1.62,1.34-2.46,1.94-3.84a10.5,10.5,0,0,0,.76-3.79,19.26,19.26,0,0,0-.79-4.78c-.49-1.09-1.66-1.35-2.57-2.08a16.14,16.14,0,0,1-2.34-2.73c-1.39-1.65-1.28-.87-2.92-1.3a9.23,9.23,0,0,1-3.76-2c-1.28-1-2.93-1-4.14-1.86-1.86-1.32-.68-2.22-1-3.92-.27-1.31-1.62-2-2.71-2.5-2.26-1-6.46-1.51-8-3.33-1.82-2.1-1.24-4.42-4.54-4.89-1.61-.24-3.39.48-5,.36s-1.41-.06-.49-1.77a36.55,36.55,0,0,1,5.51-7.78,19.15,19.15,0,0,1,3.37-3c-1,.63.18,0,.77-.2,1.19-.37,2.36-.78,3.54-1.17a22,22,0,0,0,6.47-3.15,16.31,16.31,0,0,1,3.41-2A10.53,10.53,0,0,1,261,78.07c2-.33,4.11-1.07,6.1-1.09,1.51,0,.19.1.09,0,.63.5,1,1.36,1.67,1.83a48.21,48.21,0,0,0,7.39,4.23c2,.91,3,1.33,4.1,3.39s.49,2.81.12,4.89c0,.21-.61.62-.75.78.38-.44,1.25-.47.12-.05s-2.16.65-3.23,1a9.34,9.34,0,0,0-3.06,1.19c-2.16,1.57-2.24,5.54-1.88,8,.31,2.11,1.69,2.11,2.65,3.89.87,1.63.24,3.47-.09,5.13l.09.1a9,9,0,0,0,3.05,1.34c1.58.27,2.88-.44,4.36.51,2.08,1.34,4.67,5.32,3.4,7.73-.44.84-1.19,1.21-1.35,2.13a12.06,12.06,0,0,0,.92,4.43,13,13,0,0,0,2.39,2.29c.58.56,2.91,3.56,3.05,3.47-1.23.81,1.82.34,2.34,0h0c.05,0,.44-.25.37-.41-1.92-4.15-7.29-6.61-5.37-11.65,1-2.62,1.79-2.7.05-5.22-1.41-2-2.16-4-4.75-4.52-1.66-.34-4.53.86-5.4-1.32-.35-.89.58-2.64.3-3.8-.37-1.47-.9-1.45-1.86-2.69-1.53-2-.89-3.48-.77-5.83a11.1,11.1,0,0,1,.58-3.08c.42-1.43-.42-.21.15-.51a15.63,15.63,0,0,1,2.73-.81c3.25-1,7.17-2.66,5.47-6.94a7.65,7.65,0,0,0-4.08-4.22c-2-.89-3.64-2.1-5.62-3.2a19,19,0,0,1-2.69-1.4c-.8-.63-1.15-1.62-2.12-1.9-1.71-.5-5.38.91-7,1.2a26.66,26.66,0,0,0-10.54,3.88,21.58,21.58,0,0,1-7,3.47,16.21,16.21,0,0,0-5.74,2.69c-4,3.2-6.41,7.51-9.08,11.77a.15.15,0,0,0,.06.22c2.6.92,5-.45,7.6.14,1.93.45,2.41,4.1,4.4,5.43,2.27,1.51,5.59,1.48,7.92,2.89,3.09,1.86.08,4.46,3.27,6.28,1.3.74,2.59.83,3.84,1.76s1.69,1.66,3,2c.79.23,2.27,0,2.63.21,1.28.65,1.62,2.48,2.57,3.39s2.53.9,3.22,2.3a19.33,19.33,0,0,1,.78,4.77c.08,3-2.71,4.73-2.75,7.18s3.86,4.34,5.87,5c3.14,1.1,5.91,2.94,9,4.37.57.26,2.75-.11,3-.8s-.05-.07.44-.59c.73-.76-1.28.12-.55.2a6.47,6.47,0,0,0,1.7.08,6.05,6.05,0,0,0,3.46-1.6c1.54-1.73.25-3.23,0-5.23-.21-1.48-.17-1.12.23-2.2.09-.25,1-.8,1.3-1-1.34.76-.11.12.35,0C293.21,133.11,293,132.27,291.24,132.79Z"/></g><g id="TWN1169-2" data-name="TWN1169"><path class="cls-4" d="M194.59,218.27l0,1.6.93-1.06c-1.95.73-2.83,1-3.37,3.06-.3,1.18-.24,2.3-.67,3.59a17.09,17.09,0,0,0-.74,4.53c-.35,4.19-2.5,9.83.9,13.21,1.36,1.35,5.12,1.69,4.57,3.38.24-.74-.85.21-1.49.61a6.47,6.47,0,0,0-1.37,1.17q-.37.24-.75.51c1.66-.1,2-.22,1-.36-1.29-1.39-5.68-.58-7.09-.86-2.1-.42-3.91-2.23-6-2.74-2.64-.64-5.53-.29-8.15-.94s-5.11-2.2-7.88-2.69a20.5,20.5,0,0,0-4.89-.23c-1.63.11-3.27.39-4.89.58-.89.11-1.79.19-2.68.32-.73.1-2.13-.19-.94.17-3.15-1-2.92-1.75-1.82-4.69.87-2.29,3-3.31,4.31-5.37,2.61-4.23,3.75-9.49,5.74-14,1.25-2.84,3.57-3.2,5.21-5.35.6-.79.41-1.87,1-2.71s1.75-1.07,2.3-1.87c1.58-2.3.3-5.34,1.89-7.68a74,74,0,0,1,5.52-6.38l-2.38.81c4.16,1.36,4.14,3.51,5.27,7.25.92,3.07,2.9,3.76,5.79,4.61,3.65,1.08,4.94,3.64,5.85,7.12.42,1.6.42,1.7,1.64,2.45.9.55,3.21.69,3.21,1.78,0,1.29,3.09.65,3.09-.38,0-2.61-4-2.27-4.84-4.22-.32-.75-.16-1.81-.49-2.66a10.76,10.76,0,0,0-1-1.81,8.53,8.53,0,0,0-3.44-3.35c-1.46-.71-3.84-.77-4.91-1.54-2-1.41-1.55-3.17-2.1-5.2-1-3.52-2.93-4.69-6.17-5.75a2.52,2.52,0,0,0-2.38.81c-1.77,2.07-3.76,4.06-5.41,6.21s-.6,4.29-1.57,6.75c-.64,1.63-2.38,2.79-3.33,4.35s-2.52,2.27-3.92,3.9c-1.54,1.8-2.16,4.09-2.94,6.28-.88,2.5-2,4.59-3.12,7a27.1,27.1,0,0,1-1.33,3.56c-.77,1.24-2.06,2-3,3.11-1.52,1.83-1.28,3.93-2.42,5.93a.52.52,0,0,0,.21.79c2.41,1.39,3.42,2.16,6.11,1.86a83.63,83.63,0,0,1,8.53-.88c3.11,0,5.73,1.24,8.61,2.24a34.15,34.15,0,0,0,7.36,1.27c3,.35,4.72,1.71,7.56,2.64,2.15.7,4.66.59,6.95,1,3.43.67,8-1.46,9-4.94a.52.52,0,0,0-.32-.56c-2.16-1.12-4.74-1.72-5.82-4s-.44-5.66-.08-8.21.35-5,1.23-7.34a7.59,7.59,0,0,0,.71-3c.09-2-.48-1.13,1.4-1.83.46-.17.94-.53.93-1.06l-.05-1.59C197.65,216.46,194.55,217.07,194.59,218.27Z"/></g><path class="cls-4" d="M133.92,301.09l.22-.85c.27-1-1.76-.65-2.16-.47a2.6,2.6,0,0,0-1.23.79c-.08.13-.15.29-.22.42l-.66,1.27a.53.53,0,0,0,0,.66l.31.31c.66.66,2.43.2,2.87-.57l.75-1.33c.36-.62-.3-.93-.84-.95a2.44,2.44,0,0,0-2,.85l-.75,1.34,2.87-.57-.31-.31v.66l.89-1.69-.83.62.4-.18-2.16-.47-.22.84c-.18.68.93.75,1.34.7C132.78,302.07,133.74,301.78,133.92,301.09Z"/><path class="cls-4" d="M133.32,304.85l-.27-.23c-.73-.61-2.34-.14-2.87.58a6,6,0,0,0-.54.78,2,2,0,0,0-.19.48,6,6,0,0,0,.09,1c0,.67.83.71,1.32.64a2.23,2.23,0,0,0,1.76-1l.12-.23.09-.19c0-.08-.1.15-.07.15s.33-.48.37-.54a1.86,1.86,0,0,0,.34-.55,2.36,2.36,0,0,0,0-.7c0-.24-.42-.37-.59-.41a2.68,2.68,0,0,0-1.16.08c-.51.15-1.4.49-1.34,1.16l0,.48.1-.43a11,11,0,0,0-1,1.58l3.08-.4c0-.35-.07-.71-.05-1.06,0,.08,0-.06,0-.1l.06-.16c0-.09,0-.08,0,0s-.06.09,0,0a1.77,1.77,0,0,0,.16-.22l.24-.33-2.87.58.27.22a2.11,2.11,0,0,0,2,0C132.79,305.93,133.86,305.29,133.32,304.85Z"/><path class="cls-4" d="M135.32,298.34a2,2,0,0,0,.22-1.08,4.42,4.42,0,0,0,0-.73c0-.2-.16-.27-.32-.4-.4-.32-1.38,0-1.78.12s-1.23.35-1.22.82l.05,1.95c0,.51,3.11.05,3.09-.82l-.05-2-3,.94a1.08,1.08,0,0,1,.2.16c-.11-.17-.05,0-.06,0a4.1,4.1,0,0,0,0,.7c0,.11,0,.22,0,.32s-.05.17,0,0c-.06.16-.14.32-.21.47-.23.51,1.06.33,1.24.3C134,299.08,135.07,298.88,135.32,298.34Z"/><path class="cls-4" d="M231.17,286.65l-8-.07c-1.52,0-5.37.34-6.34-.89-.7-.89-.31-2.65-.53-3.66s-.9-2-1.21-3.09c-.69-2.38.79-4.25.93-6.74l-.08-.11c-3.14-1.72-6.84-3.32-10.48-3.32-.56,0-2.51.23-2.55,1-.08,1.24-.14,2.47-.14,3.72l1-.73c-1.6.52-5.86,2.26-7.92,1.57a5.89,5.89,0,0,0-1.08-1.71,4.51,4.51,0,0,0-2.71-1.46c-2.9-.29-3.86,1.48-6.43.67-3.17-1-3.91-2-6.16-4.18-3.55-3.52-9.54-1.33-13.94-.12-4.89,1.35-8.82,4.65-12.88,7.44a16.15,16.15,0,0,0-3,2.29c-1.16,1.29,1,.21-.41.25a5.78,5.78,0,0,0-1.79.33c-2.36,1.07-2.53,3.83-4.49,5.44l2.4-.74c-2.67,0-3.51-1.41-5.94-2-1.76-.45-4.15.34-5.93.55-.45.05-2.23.31-2.22,1l.09,3.86c0,.26.76.18.87.17A11,11,0,0,1,135,286c.95,0,.93-.06-.05-.13l-1,1.26a8.85,8.85,0,0,0-2,3.65.15.15,0,0,0,.06.23c1.86.9.64,1.06.69,2.49a5.9,5.9,0,0,0,.88,2.76,56.19,56.19,0,0,1,2.34,6l2.55-1a42.43,42.43,0,0,0-4.37.1c-.51,0-1.95.29-2.2.87a9.35,9.35,0,0,0-1.09,4.09c0,.17.48.19.54.19,2.31.09,3.31.25,5.28-1.18l-2.93.54.4,1.42,3-.93a4.33,4.33,0,0,0-2.2-.15,6.52,6.52,0,0,0-1.14.43c-1.53.42,1,0-1.21.18-.3,0-2.65.91-2.14,1.11,4,1.55,11.48,4.06,15.12.29,1.24-1.28,1.19-2.1,2.81-3.17a33.47,33.47,0,0,0,3.52-2.62c2.42-2.13,4.14-3.95,7.06-5.18,1.48-.63-1.06.15.63-.21,1-.2,1.95-.36,2.92-.53a22.25,22.25,0,0,1,4.87-.62c2.74.08,5.43,1.18,6.58,4.08s4.2,4.47,5.15,7.25c1,3-.84,6-.42,8.93s3.32,4.12,6,3.46a11.32,11.32,0,0,0,1.94-.8c1.75-.77.4-.21,0-.16a6.07,6.07,0,0,1,1.52-.18c1.71.33,3.36.67,5.12.88.47.06,2.94-.2,2.82-1-.47-3.15-2.09-6,.42-8.46l-2.66.71c3.37.34,6.25.49,9.26-1.22,3.89-2.2,6.25-5.27,9.92-7.71,1.55-1,3-1.58,4.28-2.92s1.82-3.23,3-4.61c2.8-3.12,7-4.51,11.09-6.58.22-.11,1.09-.6.39-.75l-.4-.09c-.7-.15-3.35,1-2.54,1.16.48.11,1-.92.33-.43a19.22,19.22,0,0,1-2.35,1.2c-1.56.78-3.17,1.51-4.69,2.38a18.76,18.76,0,0,0-5,3.68c-1.38,1.65-1.73,3.81-3.5,5.22-2.15,1.73-4.73,2.59-6.79,4.56-.74.71-1.24,1.72-2,2.39-1.19,1-2.89,1.49-4.13,2.46-.88.69-1.92.38.27.17a10.41,10.41,0,0,1-1.89.21,14,14,0,0,0-3.34-.29c-5.58.79-3.36,6-2.8,9.74l2.82-1c-2.74-.33-5.45-1.25-8.19-.68-1.28.27-2.3,1-3.54,1.32,1.73-.5.43,0-.37-.69a4.19,4.19,0,0,1-1.73-2.31c-.82-2.87,1.06-6,.29-9-.72-2.84-3.65-4.24-4.94-6.88s-1.87-3.8-5-4.76c-2.53-.78-5-.46-7.58,0a26.65,26.65,0,0,0-15.34,7.3,44.72,44.72,0,0,1-4.11,3c-1.43,1-1.53,2.1-2.39,2.95-.32.31-1.31.29-1.49.67-.58,1.2-.43-.62.85-.05a14.44,14.44,0,0,0-2.86-.72,34.93,34.93,0,0,1-6.07-1.4l-2.14,1.11a13.71,13.71,0,0,0,4.71-1.17l-2.34.34.62.23c.43.15,3.23-.15,3-.94l-.39-1.42c-.22-.75-2.61.31-2.94.55l-1,.71,2.67-.71c-.93-.26-1.35-.06-1.64-.83s.73-2.37,1-3.09l-2.19.88a35.09,35.09,0,0,1,3.7-.08c.36,0,2.78-.38,2.55-1-.62-1.76-1.17-3.55-1.94-5.25-.5-1.09-1.29-2.06-1.32-3.25,0-.65.65-1.4.65-2.19l-.09-.1c-2.24-1.09.67-4.06,1.84-5.58.27-.36-.8-.31-.85-.31-1,.06-3.17.19-3.2.16s.22-3.06.21-3.62l-2.22,1c1.16-.14,2.35-.38,3.52-.42,1.7-.07.76-.26,2.3.55,1.94,1,2.83,1.58,5.1,1.39,3.92-.32,4.29-3,6.23-5.81l-1.82.82c4.36-.66,7.19-3.32,10.52-6a36.65,36.65,0,0,1,6.82-4c1.26-.61-1.91.57.53-.16.61-.18,1.23-.38,1.85-.52,1.41-.32,2.89-.58,4.32-.78,2.82-.41,3.39-.33,5.41,1.74a12.49,12.49,0,0,0,6.28,4,7.48,7.48,0,0,0,4.66.24c.62-.13,1.25-.36,1.84-.54,2-.6,1.11.08.6-.22a7.53,7.53,0,0,1,2.73,2.9c.16.26.62.2.87.18a51.17,51.17,0,0,0,11-2.18c.29-.1,1-.34,1-.74,0-1.25.06-2.47.14-3.72l-2.56,1a16.46,16.46,0,0,1,5.68,1.44c2.79,1,4.39,1.41,3.27,4.57-.75,2.1-.82,2.53,0,4.79.78,2.07.84,4.06,1.45,6.18a.28.28,0,0,0,.27.16c5,.92,9.94.7,15,.74C229.79,287.86,232.64,286.66,231.17,286.65Z"/><path class="cls-4" d="M177,289.1a19,19,0,0,0-4.71,1.14s-1.38.52-1.38.55c-.2-1.46,2.69.41.65-.45-.78-.33-1.66-.35-2.42-.71-.93-.43-1.7-1.2-2.61-1.67a12.92,12.92,0,0,1-2.28-.92c-1.64-1.42-.48-2.88.69-4.14l-2.4.74a36.51,36.51,0,0,0,4.72-.76s1.56-.12,2-.17c.22,0,1.44,0,.79-.11s.66.32.85.4c1.7.69,3.08,1.19,4,2.93a8.29,8.29,0,0,1,.88,2.25c.16,1.17.37.76-.83,1.65-.6.43,2.19.17,2.79-.27l1.33-1a.32.32,0,0,0,.15-.28c-.55-1.49-1.06-3.77-2.31-4.89a11.19,11.19,0,0,0-4.75-2,18.9,18.9,0,0,0-5.06.53c-.78.13-1.58.24-2.35.41s-1,.26-.18.08a5.78,5.78,0,0,0-2.46.81c-1.41,1-2.55,2.85-1.33,4.57.41.58,2,.76,2.67,1.08.91.46,1.69,1.16,2.58,1.64a9.36,9.36,0,0,0,4.81,1.19,10,10,0,0,0,2.8-1c.47-.21,2.11-.63.24-.25.58-.12,1.19-.16,1.79-.24C176.43,290.18,179,288.84,177,289.1Z"/><g id="TWN1171-2" data-name="TWN1171"><path class="cls-4" d="M163.27,283.56c1.34-.23,3.31-.59,4.18-.69a15.87,15.87,0,0,1,2.74-.25c.5,0-.88-.16,0,.1a12.67,12.67,0,0,1,1.49.56,5.62,5.62,0,0,1,3.34,2.83,8,8,0,0,1,.76,2.07c.16,1.16.33.8-.83,1.65l2.07-.72a19.06,19.06,0,0,0-4.71,1.14s-1.38.52-1.37.55c-.21-1.47,2.68.41.64-.46-.78-.33-1.65-.34-2.42-.7-.93-.44-1.7-1.21-2.61-1.68a13.24,13.24,0,0,1-2.28-.92c-1.64-1.42-.48-2.89.69-4.14l-2.41.74h0c.63,0,3.48-1.2,2-1.2-2.09,0-4.24,1.73-4.08,3.77s.78,1.7,2.5,2.5c1.2.55,2.2,1.49,3.39,2.05a7.86,7.86,0,0,0,6.43.32c.38-.14,2.51-1,1.5-.67s1-.06,1.35-.14a7.63,7.63,0,0,0,3.4-1.69.31.31,0,0,0,.16-.28c-.54-1.47-1-3.43-2.11-4.6a9.91,9.91,0,0,0-4.19-2.08c-2.72-.69-6.33.42-9.06.89C162.67,282.72,161.08,283.94,163.27,283.56Z"/></g><g id="TWN1172-2" data-name="TWN1172"><path class="cls-4" d="M322.57,179.39c1.52,2,.23,2.55-1.28,4.16-1.34,1.43-2.26,3.24-3.62,4.64-.6.61-1.61,1-2.08,1.71s-.35,1.44-.57,1.82c-.85,1.52-2.95,2.33-4.08,3.87a13.51,13.51,0,0,0-1.78,4.42,22.86,22.86,0,0,1-3.28,7.36c-2.17,3.49-1.61,5.7.05,9.29.93,2,.78,2.46-.34,4.69a14.33,14.33,0,0,0-1.4,5.62,49.32,49.32,0,0,1-3,11.74,75.9,75.9,0,0,0-3,12.23c-.52,2.61-.85,5.35-1.58,7.91-.49,1.74-1.53,3.21-2.13,4.91-1.49,4.22-1.71,9.27-2.47,13.68l-2.61,15.18,2.49-1.05c-3.29-.94-7.74,1-9.59,3.88-1.29,2-.64,2.24-.21,4.73s-.13,3.77-1.39,5.89c-2.25,3.79-3.38,7.87-5.14,11.89-1.36,3.12-3.35,7-3.71,10.33s.52,3.52-2.38,5.24c2-1.16,1.52.14.67-.33-.67-.37-1.73,0-2.43-.33-.2-.09-1.77-1.44-2.37-1.93a13.22,13.22,0,0,1-3.52-3.76c-1-1.69-2-4.68-3.65-5.75s-3.84-.41-5.34-1.29c-1.79-1.06-2.82-2.33-4.88-3.18-2.48-1-4.06-1.6-5.09-4.39-.71-1.92-.6-4.11-1.3-6.08-.75-2.13-2-3.1-3.87-4.43-1.26-.91-2-1-2.36-2.47s.35-.78,1.81-1.74a4.88,4.88,0,0,0,2.43-3.69c0-2.69-2.1-1,.39-2.4a14.68,14.68,0,0,0,2.59-2,.78.78,0,0,0,.3-.7c-1.21-4.4,1.13-6.45,4.37-6.85,2-.25,3.32.08,5-1,2.51-1.54,2-2.69,2.83-5.13,1-3.05,1.38-2.23,4.12-3.57a7.09,7.09,0,0,0,3.28-2.68c1.68-3,2.59-8.4,2.51-11.79a13.57,13.57,0,0,0-1.23-5.75c-.45-.83-1.55-1.54-1.71-2.52s.74-1.85,1.33-3c1.62-3.08,2.58-6.93,3.9-10.29s2.85-8.17,2.23-11.68c-.33-1.89-1.51-2.62-1.29-4.51.24-2.14,1.69-4.82,2.79-6.61,2.1-3.4,6-6.14,2-9.69-1.9-1.7-3.4-3.75-2.59-5.89.43-1.12,1.33-.81,3-1.43,1-.39,2-.85,3-1.31.46-.21.95-.53.92-1.09-.17-3.13-1.43-3.61.7-5.28a10.09,10.09,0,0,0,3.44-3.88c.65-1.46.83-2.53,2-3.6.85-.78,2.22-1,2.94-2a11.06,11.06,0,0,0,1.16-3c.61-1.79.45-2,2-3.57l-2.68.33c3.69,3.11,9.68,4.29,14.26,5.46,4.86,1.25,7.47-1.24,9.17-5.5l-1.33,1c1.86-.44.42-.32.65-.21.59.29,1.15.7,1.72,1a50.51,50.51,0,0,0,5.46,3.27c1.91.83,4.66,1,6.32,1.23,1,.15,3.64-1.49,1.88-1.74a21.64,21.64,0,0,1-9.64-3.36c-2.52-1.51-5.49-3.79-8.1-1-.57.61-.54,1.83-1,2.51-.26.38-2.68,2.09-1.1,1.39s-1.19-.1-1.57-.17a28.32,28.32,0,0,1-3.27-1.27c-3.61-1.18-7.57-1.36-10.58-3.89a2.25,2.25,0,0,0-2.68.33,7.78,7.78,0,0,0-2.67,4.79c-.73,2.87-2,2-4.08,4.2-1.51,1.59-1.43,3.82-2.7,5.44a27.6,27.6,0,0,1-3.49,3c-.29.21-.67.5-.58.91a25.37,25.37,0,0,1,.71,4.4l.93-1.09c-3.39,1.56-7.74,1.84-7.77,6.14,0,2.77.27,2.94,2.19,4.74s2.63,2.68,1.17,5.27c-1.75,3.1-6.53,7.73-6,11.77.26,2.08,1.68,3.16,1.52,5.55a31.38,31.38,0,0,1-.89,5.89,52.27,52.27,0,0,1-2.66,6.75c-.74,1.75-.89,3.74-1.53,5.4-.74,1.92-2.62,3.07-2.21,5s2.19,3.22,2.57,5.41c.68,3.89,0,10.3-2,13.8-.86,1.46-3.15,1.38-4.85,2.59a7.06,7.06,0,0,0-2.74,4.51,9.23,9.23,0,0,1-.32,2.06c-.15.31-1.17.79-1.27,1.16l-.58.52c1.53-.36,1.68-.49.44-.36a9.59,9.59,0,0,0-2.13.08,12.55,12.55,0,0,0-5.65,1.74c-1.51,1-3.24,2.89-3.41,4.77-.07.76.84,2.24.7,2.61-.39,1-2.58,1.78-3.4,2.26-.27.16-.7.54-.58.91,1,2.94.49,3.12-1.17,4.39-1.16.88-2.34,1-2.42,2.89-.1,2.17,1.8,2.68,3.25,3.74A8.37,8.37,0,0,1,239,309c1.1,4.44,1.1,7.44,5.77,9.26a19.91,19.91,0,0,1,4.84,2.84c1.72,1.27,3.46.81,5.33,1.73,1.69.83,2.46,3,3.51,4.84a14.07,14.07,0,0,0,3.94,4.49c2.72,2.25,5.38,3.73,8.93,2.35,4.7-1.83,2.85-5.55,4.31-9.39,1.36-3.6,3.13-7.12,4.43-10.74.87-2.4,1.33-4.71,2.62-6.95.89-1.56,2.36-3.25,2.67-5,.39-2.21-.94-4.48-.51-6.5.31-1.47.92-1.23,2.69-2.08a15.64,15.64,0,0,1,1.65-.79c1.11-.36-1.35-.32.74.27.71.21,2.34-.16,2.49-1.05,1.57-9.18,2.22-19.12,4.81-28.06.45-1.55,1.56-2.94,2.1-4.49a41.38,41.38,0,0,0,1.13-5.42c.87-4.32,1.41-8.88,2.7-13.09,1.42-4.64,3.19-8.6,3.91-13.46.24-1.57.06-3.32.58-4.82.61-1.82,2.32-3.08,2.19-5.18-.11-1.81-1.44-2.55-2-4.29a6,6,0,0,1,.49-5.33c1-1.81,2.46-3.21,3.14-5.15.82-2.35.73-5.15,2.35-7.2,1.23-1.55,3.39-2.18,4.35-3.94.57-1.06.19-1.17,1.15-2.41.61-.79,1.48-1.44,2.11-2.26,2.17-2.8,6.67-5.45,4-9C324.77,177.28,321.79,178.35,322.57,179.39Z"/></g><g id="TWN1173-2" data-name="TWN1173"><path class="cls-4" d="M273.47,190.76a11.78,11.78,0,0,1,.65,3.29c-.09,1.17,1.6-1-.22.37a8.43,8.43,0,0,1-1.78.73c-1.46.54-4,1.15-4.74,2.77a9.33,9.33,0,0,0,.14,5.21c1,2.14,3.78,2,4.06,4.56.22,2.15-2.18,3.75-3.35,5.58a29.6,29.6,0,0,0-2.61,5.55c-1.09,2.93-.77,2.92.22,5.52.84,2.21.25,4.79-.18,7.1-.8,4.36-3.16,8-4.36,12.22a16.93,16.93,0,0,1-.68,2.63c-.43,1-1.81,2.15-1.94,3.19-.2,1.74,1.72,3.06,2.37,4.53,1.9,4.32.1,9.91-1.1,14.15-.79,2.79-1.68,2.28-4.34,3.67a7.18,7.18,0,0,0-3.54,3.62c-.26.64-.57,3.77-.27,3.19-1.05,2-1.37,1.45-3.07,1.54a13.71,13.71,0,0,0-5.84,1.36c-1.72.94-3.62,3-3.86,5-.1.87.72,2.55.59,2.92-.18.54-2.39,1.51-3.07,1.92l2.21.44c-2.49-7.11-11.27-5.7-17.27-5.75a27.24,27.24,0,0,1-3.83-.33c-1.69-.23-.89.29-1.11-1.11-.13-.86-.05-1.78-.23-2.63-.3-1.44-1.83-3.32-1.66-4.89.09-.75,1-1.43,1.22-2.17a10.87,10.87,0,0,0,.18-2.49.76.76,0,0,0-.36-.73,35.62,35.62,0,0,0-6.34-2.67c-.89-.29-1.9-.34-2.77-.63-1.25-.43-.56-.8-1.85-1.5s-3.86,0-5.26.31c-.61.12-1.19.41-1.8.53-1.71.31.66.55-.8-.08-1-.43-2.09-.8-2.52-2-.6-1.64.83-3.6.93-5.31.07-1.19-.35-2.41-.29-3.61.06-1.47.81-2.59,1-3.94a5.15,5.15,0,0,0-.09-2c-.35-2-.92-1.11.55-2.21,1.84-1.38,2.54-1.11,3.23-3.53a.75.75,0,0,0-.37-.73c-1.91-1-4.58-1.65-5.67-3.56-1.3-2.26-.58-5.69-.25-8.12s.39-5.17,1.28-7.59a8.66,8.66,0,0,0,.76-2.75c.16-2-.61-1.28,1.41-2,.34-.13.9-.57.89-1l-.05-1.6-2.11,1.21c3.75.17,8,1.81,11.63,1,3.85-.85,5.46-5.17,7.08-8.35.72-1.42,1.18-3.56,2.16-4.73-.75.9,2.7-.72,1.17-.58,1.17-.11,2.49.42,3.66.51,1.48.12,3.48.4,4.79-.43,1.6-1,2.22-3.19,3.91-4.26l-2.21.21c1.67,1.26,3.26,3.16,5.41,3.11,2.71-.06,2.62-2,3.67-3.36a7.09,7.09,0,0,1,1.65-1.37c-1.43.91-.62.27.56.26a8.69,8.69,0,0,0,2.59-.33c2.64-.73,3.85-3,5.78-4.33,1-.75,2.28-.85,3.61-1.32s2.34-1.47,3.61-1.9c.71-.23,4-.22,5.84-.72,2.69-.75,4.39-2.11,6.28-1.87,2.56.33,5.11.7,7.7,1l.7-2.16h0c-1.64.27-2.4,2.51-.3,2.16h0c1.15-.19,2.74-2,.69-2.16-5-.48-9-1.57-13.75.31-2.4.95-3.63.83-6.56,1.27-2.28.34-4.49,1.69-6.65,2.49a14.83,14.83,0,0,0-5.28,3.6c-2.7,2.6-2,1-5.47,1.83a6.81,6.81,0,0,0-4.11,3.51c-.29.59-.42,2.35,0,.83l-.74.2c.92.27,1.15.25.67-.06a22.51,22.51,0,0,0-3.56-2.67,2.13,2.13,0,0,0-2.21.2,8.81,8.81,0,0,0-3.41,3.49c-.51,1.08-.87.64.25.37a6.6,6.6,0,0,1-1.83.06c-1.05-.14-2.11-.33-3.17-.42-3.58-.34-5.78,1.21-7.18,4.36s-2.87,7.73-5.82,9.51c1.28-.77-.26-.19-1-.28-1.22-.13-2.43-.34-3.64-.51-1.82-.25-3.59-.49-5.42-.58-.62,0-2.14.3-2.11,1.21.06,2.17.88-.09-.35,1.08-.43.42-1,.41-1.42,1-.91,1.17-.48,2.79-.76,4.08a87.4,87.4,0,0,0-1.9,10.3c-.32,3.38-.9,7.57,2.47,9.69,1.41.9,3.69,1.19,3.73,2s.44-.24-.17.12c-.37.22-.81.31-1.18.53-.78.46-1.42,1.22-2.18,1.73a1.09,1.09,0,0,0-.53,1.08,7.58,7.58,0,0,1,.32,4,22.4,22.4,0,0,0-.78,3.83,23.14,23.14,0,0,1-.44,6.05c-.62,2.45-.24,3.88,1.88,5.42,2.42,1.76,4,.94,6.6.39.56-.12,1.15-.11,1.71-.22,1.29-.26,1.59.26.85-.21,1.07.68.82,1.16,2,1.59,1.86.67,7.38.81,8.52,2.8.49.86-.87,2.33-1.18,3.44a4.15,4.15,0,0,0,.17,2.72c.77,2.54,1.21,5,1.95,7.52.13.45.58.58,1,.66,6.05,1.11,18.29-2.08,20.79,5.06.29.82,1.59.81,2.22.45a26.86,26.86,0,0,0,4.65-3.24.94.94,0,0,0,.26-.83c-1.3-4.75,1.46-6.37,5.63-6.72,2.32-.19,3.84-.27,5.39-2.37,1.06-1.43.66-3.05,1.28-4.47,1.48-3.42,6.5-2.55,7.84-7.15,1.12-3.88,2.38-8,1.78-12a11.73,11.73,0,0,0-1.51-4.68c-1.73-3-1.28-1.63.35-5.06,1.48-3.12,2.51-6.92,3.79-10.27s2.71-8,2.11-11.46c-.36-2.18-1.66-2.62-1.16-4.87a21.66,21.66,0,0,1,2.62-6c2.25-3.65,5.94-6.12,2-10-1-1-2-1.2-2.44-2.49-.15-.43.14-3.93-.36-2.93.66-1.33,4.56-2.13,6.28-2.93.33-.15.91-.55.89-1a27.49,27.49,0,0,0-.73-4.67C276.25,188.58,273.16,189.38,273.47,190.76Z"/></g><g id="TWN1174-2" data-name="TWN1174"><path class="cls-4" d="M267,164.89c.73-.54-1.79-.08-1.24.42a8.07,8.07,0,0,0,1.88-.17,6.25,6.25,0,0,1,2.69,0c3,1,.07,2.59,2,4.49.78.77,3.28,1.18,4.42,1.84,1.81,1.06,2.39,1.29,4.58.69a7.36,7.36,0,0,0,2-.83c1.53-1,.06,0-.51-.08.28.06,1.29-.11,1.54,0s2.23,1.46,2.27,1.8-1.66,1.55-1.89,2c-.74,1.45-.34,3.41-1.52,4.73-1.73,1.93-3.23,1.51-4.34,4.09-.86,2-1.07,2.81-2.54,4.22-.28.26-.73.39-1,.66a9,9,0,0,1-.81,1.06c-.78.5-.33.45,1.36-.16l-.94-.09a21.7,21.7,0,0,0-10.68-.41c-2.44.69-3.9,1.7-5.7,1.94a25.12,25.12,0,0,0-4.55.46,10.63,10.63,0,0,0-1.43.72c-.54.26-4,1.79-2.16,1.24-1.93.59-3.46.83-5.18,2.07-1.89,1.36-3.2,3.16-4.35,3.64s1.93,0-.22,0a13.42,13.42,0,0,0-1.9,0,6.18,6.18,0,0,0-1.89.43,7.53,7.53,0,0,0-3.47,3.77c-.47.88,1,.46.4,0-1.08-.87-2.22-1.67-3.33-2.51-.6-.45-2.11.15-2.64.49-1.89,1.2-2.88,2.76-4.24,4.57l2.52-.9c-3.54.12-6.71-1.06-10,.37s-4.11,5.09-5.8,8.29a21.09,21.09,0,0,1-3.55,4.95c.82-.9.77-.11-.22-.33-1.32-.3-2.74-.39-4.08-.57-1.13-.16-3.67-.06-4.75-.53-.4-.17-2-1.74-2.87-2.21-2.22-1.2-1.48-1.51-2.2-3.83a9.83,9.83,0,0,0-3.77-5c-1.44-.85-3.24-.85-4.75-1.57-2.34-1.13-2.56-2.67-3.07-5a9.59,9.59,0,0,0-1.54-3.9c-.57-.74-4-2.16-4-2.2-.44-1,1.74-2.69,2.18-3.5,1-1.88,1.05-4.26,1.64-6.27,1.17-4,4-7.2,5.19-11.22,1.32-4.3,4.82-7.3,7.77-10.59l-2.94.54c4.24,6.59,8.63,11.45,15.33,15.73,2.94,1.88,6.18,2.2,9.16,3.92a11.32,11.32,0,0,0,9.11,1.22,9,9,0,0,0,3.78-1.77c.78-.91.84-2.9,1.26-3.8.24-.52,2.58-.94.48-.57-1.93.35-.22.2.21.31.92.25,2,0,2.89.25,2.49.6,2.72,2.13,4.63,3.46,3.14,2.17,5.59,0,8.47-1.37,3.41-1.64,5.69-3.66,8.85-5.74a21,21,0,0,0,4.49-3.23c.21-.22.81-.46.93-.71,1.11-.68.81-.7-.89-.08l.81,0a6.66,6.66,0,0,0,2.31-.13,6.16,6.16,0,0,0,3.69-2,29.17,29.17,0,0,0,1.44-2.56c.15-.34.9-.36.9-.83s-3.09,0-3.09.83c0-.92-1.64,1.48-1.88,1.83-1,1.52.22.56-.63,1.5-1,.36-1,.41.08.16l-1.62,0c-2.29.2-3.62,1.31-5.35,2.75-4.88,4.07-10,6.89-15.54,9.82l2.34-.33c-2.9-1.12-4.2-3.74-7.27-4.48a13.26,13.26,0,0,0-6.38-.17,7.9,7.9,0,0,0-3,1.69c-.73.88-.3,1.55-.75,2.65s-.74.64-1.32,1.55c-.21.32,1.82,0-.3-.09-.85-.05-1.73.18-2.58.15-1.36-.05-.75,0-1-.07-1.62-.62-3-2-4.56-2.63-1.07-.42-2.26-.38-3.35-.76-2.8-1-5.14-3.05-7.48-4.77-4.85-3.57-7.84-7.48-11.09-12.53-.43-.66-2.54.1-2.94.54a92.44,92.44,0,0,0-6.18,7c-1.83,2.51-2,5.53-3.53,8.2a34.71,34.71,0,0,0-4.08,9.57,17,17,0,0,1-1.54,4.46c-.37.64-1,.73-1.3,1.42-.25.54-.18,1-.53,1.44-.14.18.15.28.25.31,3.66,1.2,4.78,3.08,5.49,6.7.61,3.11,2.15,4.16,5.13,5a9.06,9.06,0,0,1,6.6,6.65c.28,1-.08,2.23.84,2.95s4,.39,4,2.35c0,.18.47.21.54.21,3.94.18,8.28,1.88,12.18.9s5.69-5.44,7.35-8.83a32.5,32.5,0,0,1,2.3-4.33c.34-.4,2.78-.83.74-.57s.25.26.71.36a19.77,19.77,0,0,0,3,.4c1.46.08,3.68.15,5-.75,1.54-1.1,2.11-3.12,3.79-4.18l-2.63.49c2.42,1.82,3.63,3.65,6.68,2.61,2.44-.83,2.9-3.19,4.91-4.86l-2.4.75c2.7,0,5.19,0,7.55-1.55,1.34-.88,2.4-2.37,3.64-3.41l1.55-.89q-1.37.47.33.06c.56-.18,1.13-.23,1.69-.46a18.85,18.85,0,0,0,1.83-1l1.59-.85c1.09-.53.71-.48-1.12.16a20,20,0,0,0,4.16-.3,17.32,17.32,0,0,0,4.19-1.13,31.25,31.25,0,0,1,3.15-1.25c-1.74.44.46,0,.76.1,2.69.48,6,1.44,8.71.93,2-.38,3.69-2.22,5.09-3.41s1.3-2.4,2-3.95c.94-2.25,2.53-2.25,4.07-3.84a8.17,8.17,0,0,0,1.65-3.21c.65-1.84.66-2.35,2.14-3.89.11-.12.22-.26.06-.4-1.56-1.23-2.26-2-4.16-2.18s-3,1-4.74,1.29c.19,0-.38-.37-1.4-1a13.91,13.91,0,0,0-2-1.19c-1.05-.45-1.7-.1-2.31-1.14s-.15-2.26,0-3.29a.34.34,0,0,0-.27-.18c-3.18-.88-7.72-1.5-10.57.63C263.55,165.61,266.36,165.34,267,164.89Z"/></g><g id="TWN1176-2" data-name="TWN1176"><path class="cls-4" d="M192.28,249.6a7.42,7.42,0,0,1,.08,4.49,21.33,21.33,0,0,0-.57,4,23.81,23.81,0,0,1,.08,3.94c-.2,1.27-1.17,2.65-.9,4,.37,1.91,3.14,3.93,5,4.19,1.39.19,2.53-.47,3.88-.76a9.52,9.52,0,0,1,2.59-.31c.91,0,.9-.11,0-.21l.86,1.15,1.52-1.9h-.22c-.68,0-1.64.55-1.69,1.3-.07,1.25-.13,2.48-.13,3.73L204,272a40.65,40.65,0,0,1-4.38,1.1c-.8.17-1.6.37-2.41.49-.64.1-2.55-.08-1.85.35s-1.17-1.89-1.75-2.32a3.18,3.18,0,0,0-3.14-.78c-1.29.19-3.13,1.08-4,1a23.76,23.76,0,0,1-4.77-1.68c-2.12-1.48-2.94-4.36-5.7-5-2.52-.55-6.58.71-9,1.25-3.26.74-5.65,2.19-8.53,3.85-2.23,1.29-4,2.76-6,4.13a38,38,0,0,1-3.27,2.6c1.17-.62-2,.13-2.66.63-1.14.85-1.33,2.46-1.85,3.59,0,0-.5.42-.56.49-1.11,1.3.28.11-.33.27a3.3,3.3,0,0,1-1.13,0c-2-.66.73.42-.36,0-1.4-.55-2.58-1.83-4.08-2.08s-3.77.42-5.35.61l1.19,1.71c1.3-1.47,2-2.08,2.3-3.89.29-2.09-.13-4.37-.07-6.49a33.31,33.31,0,0,1,.58-6.24c.54-2.42,1.8-4,2.64-6.23,1.23-3.26.64-6.94,2.48-10.08a48.6,48.6,0,0,1,3-4.68c.89-1.13,2.42-1.81,3.15-3.28l-2.66.71c1.65,1,3,2.07,4.91,2.17,2.88.16,5.92-.87,8.81-1,4.27-.24,7.56,1.94,11.65,2.87,2.64.61,5.51.28,8.13.95,1.64.42,3.64,2.15,5.53,2.63s4.38.37,6.46.75c1.33.25,3.12.79,4.07-.63,1.1-1.65-1.77-2.28-2.61-1,.14-.23,1.6-.33.95-.46l-1.79-.36c-1-.2-2.08-.52-3.11-.62a11.82,11.82,0,0,1-5.72-1.58c-3.55-1.75-7.74-1.25-11.29-2.21-4-1.07-7.13-2.89-11.36-2.78-2.32.06-4.68.52-7,.79-.52.06-3.06.28-2.51.41,1,.24-.9-.64-1.1-.76-.55-.34-1.12-.65-1.68-1a1.94,1.94,0,0,0-2.67.71c-.6,1.21-2.26,1.9-3.07,3.12-1,1.46-2.12,3.08-3,4.61-1.87,3.19-1.44,6.85-2.52,10.22-.61,1.9-1.87,3.45-2.44,5.43a24,24,0,0,0-.88,5.67c-.1,1.82-.11,3.6-.09,5.42,0,3.3.33,3.5-1.73,5.83-.78.88.25,1.83,1.19,1.71l2.57-.31c.41-.05,3.34-.07,1.72-.46,1.48.35,2.63,1.86,4.14,2.22a5.76,5.76,0,0,0,6.56-2.68,22,22,0,0,1,1.14-2.53c-1.08.33-1.08.39,0,.17l1.17-.18a10.11,10.11,0,0,0,3.05-2,64.29,64.29,0,0,1,6.9-4.91,28.91,28.91,0,0,1,10-4,18.23,18.23,0,0,1,4.82-.64c.92,0,1,0,.26-.12l1.28,1.11c.52.6,1.16,1.19,1.71,1.79a12.44,12.44,0,0,0,8,3.86c1.66.1,3.19-.86,4.79-1.08,1-.2.9-.29-.21-.25l1.44,1c.38.57.79,1.14,1.16,1.74a1.43,1.43,0,0,0,1.29.5,47,47,0,0,0,10.18-2c.51-.16,1.27-.59,1.27-1.23,0-1.25.06-2.48.13-3.73l-1.69,1.3h.23c.82,0,2.22-1,1.52-1.9-1.88-2.53-3.43-2.23-6.5-1.59-2.06.43-4.86,1.39-5.36-2.1-.21-1.41,1-2.67,1.11-4s-.43-2.52-.4-3.75c.05-1.75,1-3,1.2-4.64.17-1.26-.46-2.6-.78-3.82C195,247.26,191.88,248.08,192.28,249.6Z"/></g><g id="TWN1177-2" data-name="TWN1177"><path class="cls-4" d="M220.69,443.2c-.38,0-2.45-.13-1.17.17a12.92,12.92,0,0,1-2.07-.95,8.56,8.56,0,0,1-3.88-2.84c-2-2.76-.91-4.78-1.74-7.76-.69-2.48-4-2.77-4-5.32s3.11-3.65,4.4-5.6a.55.55,0,0,0,0-.67c-2-2.42-2.84-3.81-3.08-6.9-.2-2.4-1.1-4.54-1.57-6.87-1.13-5.72.82-9.58,3-14.57a9.41,9.41,0,0,1,1.91-3.31c.89-1,.69-.57.73-.58.71-.27,1.53-.25,2.25-.48a46.84,46.84,0,0,0,6.41-2.84c3.8-1.85,3.36-8.15,4.13-11.94.06-.27-.11-.44-.32-.58a21.28,21.28,0,0,0-2.31-1.51c-.59-.28-2.08-.28-2.44-.67.13.14,0-1.48-.08-1.81a16.46,16.46,0,0,0-1.55-2.93l-1.74,1.3,1.73-.22c.51-.07,1.94-.5,1.74-1.3-.78-3.19-3.55-4.36-4.66-7.32a7.72,7.72,0,0,1,2.08-8.58c2.56-2.17,4.08-3.78,4.11-7.17,0-2.92,1.29-5.61,1.36-8.45,0-1.53-.85-3.06-.9-4.6-.07-2.67.16-2,2.17-3.38,2.82-1.95,2.32-3.18,1.69-6.15-.48-2.3.7-2.16,2.52-3.49,1-.71,1.73-1.58,2.67-2.32,2.49-2,5-2.12,8.8-3.05l-1.76-.39c.38,2.38.66,4.5,2.42,6.36,1.35,1.42,3.26,1.69,5.06,2.56s2.87,2.48,4.55,3.11c3.16,1.18,4.09,0,5.89,3.11,2,3.52,4.41,7.65,8.42,9.31,3.5,1.46,8.77.05,9.26-4,.24-2,.16-3.58.89-5.46.85-2.2,1.66-4.48,2.57-6.66,1.73-4.14,3-8.44,5.3-12.29a9.32,9.32,0,0,0,1.76-4.85c.07-2.7-1.75-4.53.52-6.72-.79.76,2.08-.88,2.63-1.21,1.56-.93,1.24,0,.36-.42.91.44.4.1.53-.25-1,2.72-1.07,6.15-1.57,9-.79,4.57-4,7-5.74,11.14s-1.32,8.67-1.59,13.14a13.39,13.39,0,0,1-2.09,6.92c-1.13,1.72-3.2,2.46-4.33,4.15s-1.51,4.05-2.49,5.85c-1.19,2.2-1.42,4.37-2.07,6.79-1,3.89-3.74,8-6.33,11s-7.49,4.55-7.69,8.77c-.13,2.83.31,3.92-1.41,6.41a19.57,19.57,0,0,1-4.5,4.71c-2,1.45-4.31,2.52-6.18,4.1s-3.42,4.07-4.86,5.32a9.21,9.21,0,0,0-3.14,3.75c-1.07,2.48-1.77,5-3.31,7.24s-3.64,4-4.56,6.54c-.71,2-.63,4.21-1.11,6.24a37.65,37.65,0,0,1-2.44,7.67c-1.14,2.4-3,4.54-3.84,7-1.75,4.92-1.25,10.9-1.15,16l2.14-1.32h0c-1.2,0-3.26,1.81-1.18,1.81h0c.77,0,2.15-.34,2.13-1.32-.12-6.08-.55-12.74,2.54-18.17a33.86,33.86,0,0,0,3.6-7.57c.91-3.18,1.33-6.32,2.13-9.49s2.88-4.86,4.63-7.36,2.29-5.1,3.51-7.71c1-2.21,2.36-2.68,4.4-4.93a39.14,39.14,0,0,1,8-6.46c3.58-2.4,7.89-6.44,7.95-11,0-1.57-.44-2.61.35-3.95.67-1.13,2.17-2.06,3.12-2.87a23.38,23.38,0,0,0,5.18-5.53c1.63-2.53,3.72-4.71,4.66-7.61s1.26-5.95,2.8-8.75c1.16-2.13,1.42-4.45,3.22-6.11,2.24-2.07,4-3.57,4.94-6.71,1.92-6.2-.61-12.77,3.06-18.7,1.52-2.46,3.59-4.3,4.39-7.15,1-3.62,1.32-7.6,2-11.31.07-.41-.28-.59-.61-.68-2.78-.8-5.76.35-8.08,2.15-2.83,2.19-2.21,3.54-1.71,6.61.57,3.48-1.37,5.14-2.86,8s-2.32,6.46-3.67,9.58a73,73,0,0,0-3.56,8.68,19,19,0,0,0-.17,3.63c0,.45-.26,2.17-.2,2.07-.48.79-3.63.77-.83,1-3.27-.21-5.7-1.79-8.07-4.5-1.77-2-2.29-5.9-4.57-7.35-1.46-.93-3.59-.33-5.06-1s-2.55-2.29-4.29-3c-1.5-.66-3.19-1-4.31-2.1-1.6-1.65-1.85-3.82-2.19-6-.11-.67-1.38-.49-1.77-.4-3.14.77-6.34,1.16-9.09,2.92a37.31,37.31,0,0,0-3.38,2.76c-1,.79-2.83,1.31-3.55,2.35-2,2.85,1.47,5.38-1.15,7.62-1.17,1-2.37.94-3.05,2.3s-.23,3,0,4.28c.29,2,.61,2.95.19,4.92a36.41,36.41,0,0,0-.87,4.57c-.2,2.34.35,3.75-1.17,5.66-1.1,1.36-2.85,2.19-3.87,3.56a9.68,9.68,0,0,0-1.27,8c.93,3.19,4,4.75,4.76,8l1.75-1.3-1.73.22c-.34,0-2.14.57-1.75,1.31a14.22,14.22,0,0,1,1.87,5.1c0,.25.4.4.6.45,1.48.36,3.92,1.22,4.15,1.9.46,1.36-1,4.23-1.16,5.71a22.08,22.08,0,0,1-.05,2.31c-.08.39-.34.73-.44,1.11-.45,1.78.4.14.05.44-1.13.94-3.22,1.34-4.6,2-2.38,1.14-6.06,1.28-8,4.16-.89,1.3-1.33,3.3-2.08,4.74a20.34,20.34,0,0,0-2,4.43,22.27,22.27,0,0,0,.08,9.88c.81,3.16.68,7.42,2.35,10.13,1,1.57,2.39,2.07,1.58,3.5-.6,1-2.41,1.49-3.18,2.83-2.09,3.62.6,4.29,2.48,6.66,1.28,1.61.55,3.48.94,5.39a10.11,10.11,0,0,0,2.09,4.27,10.9,10.9,0,0,0,9.33,3.91C221.84,444.88,222.83,443.06,220.69,443.2Z"/></g><g id="_0" data-name="0"><path class="cls-4" d="M305.05,71.68c1.25,0,3.25-1.89,1.16-1.89C305,69.79,303,71.68,305.05,71.68Z"/></g><g id="_1" data-name="1"><path class="cls-4" d="M205.21,146c.68,0,3.5-1.3,2-1.3C206.51,144.67,203.7,146,205.21,146Z"/></g><g id="_2" data-name="2"><path class="cls-4" d="M160.75,365.71c.66,0,3.49-1.27,2-1.27C162.08,364.44,159.25,365.71,160.75,365.71Z"/></g></g><path class="cls-4" d="M144.08,241.56c-.39.78-1.68,1.25-2.27,2a18,18,0,0,0-1.44,2.44c-1.13,1.87-2.54,3.34-3.28,5.43-1,2.76-1,5.76-2,8.51-.91,2.5-2.14,4.7-2.58,7.38-.75,4.65,0,10.29-1.67,13.93s-.07,5.35,3.65,6.26l-1.33-1.3c-.14,1.5-2.06,2.75-2.12,4.14,0,.79.36,1,.47,1.63.29,1.77.45,6.4,2.28,8,.62.53,4,0,3.24,0a10.34,10.34,0,0,0-1.84.18,8.18,8.18,0,0,0-3.6,1.65c-1.8,1.63-1.67,3.91-2.36,6.06s6.35,1.23,7.07-1c.21-.64.84-2.06.57-2.69-.36-.82-2.64-.24-1.68-.53.55-.18,1.32-.05,1.91-.17,2.45-.52,4.44-1.7,4.11-4.36-.18-1.48-1.09-2.89-1.65-4.25-.67-1.67-.28-2.61-.27-4.28,0-.64-1-.89-1.07-1.4-.05-1.26,1.88-2.59,2-4,.08-.9-.57-1.12-1.33-1.3-1.87-.46-1.67-1.45-1.71-3.17l-.74,1.4c2.18-2.18,2.63-4.25,2.74-7.35.16-4.7,0-9.11,1.88-13.53,1.68-4,1.73-8.68,3.78-12.42,1.67-3.06,4.77-5.25,6.26-8.24.89-1.78-6-1.14-7.07,1Z"/><path class="cls-4" d="M217.42,125.14c.21-.94-.7.2-1.29.9a9.34,9.34,0,0,0-1,2.07c-.73,1.39-1.85,2.47-2.59,3.81-.6,1.09-.51,2.15-1,3.25l4.07-2.28c-5.63.79-9.46,1.49-13.15,6.3-1.43,1.88-3.61,2.28-5,4.13s-2.24,5.34-3.33,7.51c-1.64,3.25-1.74,6.65-4.14,9.48-2.23,2.63-4.69,5.07-6.86,7.76a22.24,22.24,0,0,0-3.33,6.59c-1.26,3.29-3.34,6.19-4.52,9.52-1.11,3.13-1.63,5.69-3.4,8.53a50.91,50.91,0,0,1-5,6.47c-2,2.22-2,2.87-2.55,5.8-.45,2.37-1.31,2.92-2.42,4.79-.2.34-1.11,2.49-1.15,2.53-1.4,1.6-3.39,2.32-4.62,4.36-1.5,2.48-2.16,5.46-3.29,8.11s-2.35,6.06-4.12,8.46c-1,1.38-2.59,2.27-3.34,3.89-.57,1.22-.42,2.81-1.08,4-1.53,2.69,5.5,1.82,6.56,0a14.41,14.41,0,0,0,1-2.67c.84-2.37,1.92-3.24,3.45-5.18,1.85-2.36,2.81-5.37,4.07-8.1,1.47-3.21,2.09-7.82,4.77-10.29.89-.82,2.1-1.2,2.94-2.11,1-1.11,1.77-2.89,2.69-4.12,1.92-2.56,1-5.55,2.52-8.17,1.43-2.44,4.13-4.25,5.75-6.61a23.71,23.71,0,0,0,3.41-7.35c1-3.78,2.7-6.9,4.37-10.41s2.47-6.38,5-9.31c2.36-2.76,5.42-5.34,7.34-8.44,1.74-2.81,2-6.3,3.53-9.3.7-1.32,1.17-2.93,1.92-4.18.94-1.55.57-1.11,2.35-2.1,2.6-1.46,3.05-5,5.86-6.08,2.09-.79,4.9.3,6.55-2,.8-1.11.69-2.4,1.38-3.61s1.56-2.38,2.26-3.42c.55-.54.61-.91.19-1.12.42-.26.84-.53,1.24-.81.38-.6.9-.8,1.07-1.55.54-2.35-6.56-1.25-7.07,1Z"/><path class="cls-4" d="M223.07,110.61c-.82.82-1.87,1.8-2,3s.74,2,.28,3.2c-1,2.84-3,5.31-3.91,8.3-.65,2.22,6.42,1.24,7.07-1a31.53,31.53,0,0,1,3.4-7.36,3.84,3.84,0,0,0,.83-2.74c-.15-1-.89-1.67,0-2.54,2.83-2.83-4.11-2.41-5.62-.9Z"/><path class="cls-4" d="M236.76,97.28c-2.51-.89-5.89-.45-7.74,1.66-1.5,1.7-1.35,4.1-2.33,6l1.38-1.39a10.06,10.06,0,0,0-3.88,3.23c-.86,1.36-.74,3-1.59,4.35-1.66,2.54,5.39,1.76,6.56,0,1.29-2,.94-4.32,3-5.65A3.29,3.29,0,0,0,234,103c.3-1,.59-3.12,1.45-3.84l-4.23,1.4q-.59-.19-.12,0a6.32,6.32,0,0,0,5-.73c.79-.47,2.31-1.94.69-2.52Z"/><path class="cls-4" d="M135.19,357.29c.36,2.32.48,4.92,1.38,7.11.67,1.62,2.48,3.47,2.59,5.24s-.79,2.75-.3,4.71a27.74,27.74,0,0,0,3.23,6.83c1.22,2.11,3.08,4.63,2.72,7.22s-1.63,3.28-.16,5.88c1.8,3.21,10.61,8.17,9.47,12.65l6.39-2.11c-1.34-.57-2.06-2.25-3.13-3.16-1.27-1.08-7.93.26-6.87,2.29,2,3.7,6.49,9.43,10.71,10.67a9.07,9.07,0,0,0,2.32.16c.62-.1,1.23-.22,1.85-.35-1.29.11-1.35.42-.18.91,1.09,2,4.82,3.47,6.66,4.42a11.57,11.57,0,0,1,4.47,3.86c1.55,2,4.31,2.8,6,4.75s2.56,4.82,4.09,7a28.3,28.3,0,0,1,3.12,6.19c1.44,3.66,2.87,7.31,4.25,11,.87,2.31,2.61,5.31,2.77,7.77.1,1.49-.82,2.65-1.11,4.18a26,26,0,0,0-.27,7.15,11.55,11.55,0,0,0,1.42,3.57c.76,1.65.55,2.62.76,4.39s.3,2.75,2.3,3.72a7.18,7.18,0,0,0,5.66,0c2.63-1,2.32-2.36,3.65-4.49l-3.81,1.8c3.33-.35,6.39,4,8.47,5.9,1.53,1.41,5.49.13,6.6-1.36,1.57-2.14-.06-5,.08-7.44.21-3.43,3.56-5.29,4.4-8.63,1.61-6.37.43-14,.32-20.52-.11-6.16-.56-12.47.58-18.56.6-3.18,2.51-5.81,3.87-8.71a46,46,0,0,0,3.26-10.46c.86-4.17,2.61-6.58,5-10.05,2-3,2.57-6.87,4.9-9.6,4.37-5.11,10.72-8,15.09-12.91,1.64-1.86,3.53-4.12,3.89-6.67.17-1.15-.4-2.5-.14-3.6.5-2,3.05-3.54,4.53-4.86,4.28-3.79,8.09-9.1,9.54-14.67a54.72,54.72,0,0,1,3.37-9.11c1.29-2.87,3.61-4.15,5.2-6.77,3.5-5.79,1.43-12.37,3.3-18.57,1-3.43,3.67-5.67,5.14-8.83s1.75-7.33,2.37-10.87c1.07-6.19,2.09-12.38,3.19-18.57,2.58-14.38,6.74-28.5,10.6-42.57.84-3.07,1-6.18,1.64-9.27.45-2.32,2.77-4.6,2.41-7.08-.42-2.9-3.14-4.23-2.18-7.7.42-1.55,1.78-2.9,2.53-4.31a34.94,34.94,0,0,0,2.13-5.76c1.15-3.48,4-5.43,5.76-8.28s4.64-5.47,6.83-8.12c.71-.86,1.74-1.74,1.64-3-.08-.93-1.26-1.63-1.34-2.5-.2-2.15,1.55-5.39,2.08-7.54.38-1.56-.12-3.16.39-4.65.78-2.25,3-3.16,4.68-4.58.8-.67,1.73-1.29,1.9-2.41.3-1.89-1.43-2.47-.38-4.37.65-1.15,1.82-1.52,2.24-2.94.36-1.23.06-4.9-1-5.69.29.22-2.22,0-1,.62.34.18,1.54-.2,1.9-.3a5.75,5.75,0,0,0,3.07-1.87c.26-.34.46-1,0-1.32-2-1.52-4.77-1.16-6.45-3.37-2-2.61-.58-5.23-.5-8s-1.13-5.67-1.4-8.49a24.58,24.58,0,0,1,.66-8.24c1.4-5.74,6.35-11.2,10.49-15.26,2.94-2.88,9.88-3.84,11.4-7.86a.78.78,0,0,0-.23-.84,10.87,10.87,0,0,0-8.1-2.45c-2.23.14-2,0-2.8-2.38a14.12,14.12,0,0,1-.77-5.67c.17-3.31-.88-3.3-4.2-4.21-4.4-1.2-8.84-2.22-13.27-3.3l1.33,1.3h0c.22-.87-.68-1.13-1.33-1.3a26.22,26.22,0,0,1-7-2.8c-.26-.14-1.29-.54-1.42-.66-1.24-.09-1-.07.6.08a1.65,1.65,0,0,1-.12-2.14c.19-.36.51-1,0-1.32-2.15-1.53-5.13-.84-7.49-.11l3.74.24c-3.88-3.7-4.47-10.1-10.45-11.46-4.73-1.08-10,.16-14.32,2.21a20.19,20.19,0,0,0-5.94,4.11c-1.73,1.81-2.14,4.09-3.57,6-.8,1.07-2.74,1.47-2.23,3.38.45,1.67,5.69,3.7,4.52,5.89l4.07-2.28c2-.35-.53-2.48-.93-2.7a7.08,7.08,0,0,0-2.84-.62,11.62,11.62,0,0,0-7.41,2.23c-6.05,4.24-14.82,3.05-21.61,6.32-3.17,1.53-5.62,3.46-9,4.71a23.63,23.63,0,0,0-8.3,4.62c-1.88,1.75-10.68,11.19-6.11,12.81,2,.7,8.41-2.28,5.7-3.25-.23-.08,3.53-5.74,4-6.28a14.08,14.08,0,0,1,6.1-4.85c2.26-.94,4.7-1.48,6.86-2.66,1.75-1,3.14-2.4,5-3.19,5.07-2.17,11-2,16.28-3.5A15.88,15.88,0,0,0,280,74.31c.59-.42,1.16-.86,1.71-1.34-1.68.09-2,.5-.88,1.25a18.46,18.46,0,0,0,1.72,2.17c2,1.18,6.79.39,7.73-1.94.66-1.65-.49-2.89-1.58-4.16-.62-.72-1.94-1.45-2.3-2.22-.58-1.27-.4.07.3-1.25,2.22-4.13,5.05-8.78,10.25-9.52,7-1,7.7,7,11.61,10.71.85.81,2.76.55,3.74.25.31-.09-.4-1.89-.94-.05a2.49,2.49,0,0,0,0,2.1c.75,1.62,2.4,1.14,3.39,1.92-1.56-1.24-1.52,0-.1,1a8.63,8.63,0,0,0,2,.92,53.6,53.6,0,0,0,5.7,1.48l-1.33-1.3h0c-.22.88.68,1.15,1.33,1.31l5.92,1.43c1.6.39,8.57,1.12,9.13,2.41.3.68-.46,3-.35,4a14.94,14.94,0,0,0,1.79,5.92c2.33,3.63,7.45-.1,9.34,2.53.62.86-.32.64-1.34,1.11s-2.05,1-3,1.54a21.24,21.24,0,0,0-4.68,3.21c-7,6.61-13,14.43-12.74,24.38.07,2.74.83,5.29,1.18,8,.31,2.42-.49,4.48-.34,6.88a7.36,7.36,0,0,0,2.05,4.82c1,1,4.5,3.62,5.86,1.9L339,142c-2.31.32-5.78.15-7.51,2.13-2.18,2.51,1.47,4.73.45,7.6-.45,1.29-2.11,1.61-2.67,2.83-.46,1,0,1.75.06,2.79.21,3.77-4.05,4.5-5.6,7.86-1,2.05-.51,4.4-1.17,6.56-.58,1.9-1.86,5.27-1.61,7.19.09.68.93,1.15,1,1.78.2,1.89-1.91,3.25-3,4.57a74.75,74.75,0,0,0-5.05,6.51c-1.24,1.9-3.77,3.35-4.91,5.79a39.88,39.88,0,0,0-1.45,4.66c-.8,2.44-2.33,4.32-3.42,6.6a7.45,7.45,0,0,0-.32,6.45c.43,1,1.38,2,1.6,3,.39,1.9-1.06,3-1.67,4.72-1,2.69-.89,5.89-1.51,8.71-.7,3.18-1.89,6.21-2.79,9.33-2.11,7.28-3.29,14.76-5.52,22-2.42,7.83-3.35,16.26-4.73,24.31-1,5.7-1.23,12.36-3.27,17.71-1.07,2.77-3.42,4.88-4.7,7.57-1.47,3.09-1.73,6.53-1.86,9.91-.14,3.58,0,7-1.94,10.21-1.38,2.23-3.82,3.26-5,5.71a60.08,60.08,0,0,0-3.28,8.07,38.46,38.46,0,0,1-5.24,11.52c-2.62,3.94-9.29,6.86-9.57,11.85-.22,3.84-.71,6-3.59,8.82-2.7,2.67-6.26,4.39-9.08,6.95-2.13,1.93-4.78,4-6.42,6.34-2,2.84-2.49,6.52-4.54,9.4-2.42,3.42-4.14,5.7-5,9.88A47.45,47.45,0,0,1,222.07,423c-1.69,3.47-3.36,6.18-3.84,10.06a81.58,81.58,0,0,0-.44,11.59c.15,7.7,1,15.74.17,23.41a11,11,0,0,1-.68,3.15c-.79,1.87-2.34,2.59-3.33,4.24a7,7,0,0,0-.77,4.24c0,1,1.09,4.71.45,5.58l6.6-1.36c-3.86-3.59-8.16-7.91-14-6.79-1.92.37-3.95,1.15-4.64,3.19q-1.08,3.38,3.43-.39a2.2,2.2,0,0,1-.4-2.46,15.18,15.18,0,0,0-.34-2.81c-.86-2.73-1.9-3.66-1.84-6.68,0-1.59-.25-3.51.14-5,.27-1.05,1.18-1.89,1.33-2.95.22-1.53-.93-3.54-1.42-4.91-1.32-3.69-2.74-7.34-4.15-11-1-2.66-1.92-5.53-3.2-8.09-1.14-2.3-2.86-4.23-4.06-6.53a14.06,14.06,0,0,0-4.46-5.68c-1-.77-2.57-1.41-3.38-2.41-.59-.72-.57-1.57-1.25-2.27-1.73-1.83-4.71-2.48-6.8-3.79-1.93-1.22-3.48-3.18-5.66-4-1.13-.43-2.15-.19-3.25-.38q-1.67.28-.51.15c.84,0,.65-.23-.57-.76-2.26-2.95-5.71-4.73-7.55-8.22l-6.87,2.29c1.43,1.21,2.27,3,4.06,3.72,1.61.69,5.87-.07,6.39-2.12,1.07-4.26-5.11-9.13-7.62-11.64-.9-.9-2.3-2-2.55-3.33s.61-2.29.85-3.56c.49-2.54-.84-5-2.06-7.1a40.75,40.75,0,0,1-3.5-6.87c-.78-2.22,0-3.35.06-5.4s-1.89-3.6-2.7-5.55c-.92-2.21-1-4.75-1.39-7.11-.33-2.13-7.47-.51-7.1,1.91Z"/><path class="cls-4" d="M129.26,307.85c-.77,2-.89,4-1.67,5.94s-1.41,4-2.06,6-.1,3.75,0,5.86c.05,2.38-.23,4.75.32,7.14s1.14,3.33,1.07,5.77,0,2.92,1.56,4.61c1,1.06,2.51,2,3.16,3.28s.35,3.25,1,4.71c1,2.19,2.17,3.57,2.58,6.12.34,2.13,7.48.5,7.1-1.91a14.12,14.12,0,0,0-2.1-5.45c-1.43-2.63-.93-5.7-3.2-7.91-.66-.66-1.53-1-2.12-1.76-1.06-1.39-.74-2.22-.72-4.08s-.56-2.72-1.06-4.59c-.7-2.57-.38-5-.36-7.57,0-1.94-.75-3.21-.12-5.21s1.33-4.07,2.06-6,.91-4,1.66-5.94-6.22-1.21-7.07,1Z"/><path class="cls-4" d="M323,180.62c2.46,0,7.61-3.7,2.85-3.7-2.46,0-7.61,3.7-2.85,3.7Z"/><circle class="cls-5" cx="304.34" cy="318.14" r="56.03"/><ellipse class="cls-6" cx="308.98" cy="321.4" rx="51.38" ry="52.77"/><path class="cls-4" d="M359.6,318.3c-.27,22.63-14.06,43.52-35.63,51.27s-46.26.33-60.43-17.57a55.4,55.4,0,0,1-4.67-61.33,53.93,53.93,0,0,1,57-26c25.36,5.07,43.4,28.06,43.71,53.63,0,2.13,4.14,1.53,4.12-.31-.3-24.09-15.3-46-38.2-54.05a59.32,59.32,0,0,0-64.29,17.34,57.71,57.71,0,0,0-5.49,66.6c12.41,20.64,37,31.17,60.56,26.75A58.63,58.63,0,0,0,363.72,318C363.74,315.86,359.63,316.45,359.6,318.3Z"/><path class="cls-5" d="M297.87,307.87h-6.53c-.92-4.31-3.57-6.41-8-6.41-3.08,0-5.48,1.48-7.27,4.5a19.56,19.56,0,0,0-2.65,10.65,4.5,4.5,0,0,0,.06.8h.25a11.23,11.23,0,0,1,4.68-4.31,12.77,12.77,0,0,1,6.1-1.35,13.62,13.62,0,0,1,10.34,4.06,15.28,15.28,0,0,1,3.82,10.65,14.59,14.59,0,0,1-4.37,10.84,15.37,15.37,0,0,1-11,4.31c-5.42,0-9.49-2-12.32-5.91Q267,330.06,267,320c0-7.14,1.41-12.93,4.37-17.37a13.79,13.79,0,0,1,12.07-6.71C291.89,295.92,296.76,299.86,297.87,307.87Zm-21.25,11.88a9.69,9.69,0,0,0-2.4,6.9,9.37,9.37,0,0,0,2.47,6.83,9.13,9.13,0,0,0,12.86-.12,9.9,9.9,0,0,0,2.53-6.9,9.14,9.14,0,0,0-2.4-6.71,9.55,9.55,0,0,0-13.06,0Z"/><path class="cls-5" d="M337.64,301.77c2.71,3.76,4.13,9,4.13,15.76,0,7.15-1.48,12.93-4.37,17.37s-7,6.71-12.07,6.71c-8.56,0-13.36-4-14.47-11.95h6.53c.86,4.25,3.57,6.41,8,6.41,3,0,5.42-1.54,7.27-4.5a20.25,20.25,0,0,0,2.64-10.65c0-.25-.06-.49-.06-.8H335a12.5,12.5,0,0,1-4.68,4.31,13.92,13.92,0,0,1-6.1,1.36,13.62,13.62,0,0,1-10.4-4.19,14.79,14.79,0,0,1-3.76-10.53,14.29,14.29,0,0,1,4.37-10.84,15,15,0,0,1,11-4.31C330.75,295.92,334.81,297.83,337.64,301.77Zm-18.53,2.4a9.69,9.69,0,0,0-2.46,6.9,9,9,0,0,0,2.46,6.71,8.25,8.25,0,0,0,6.47,2.59,8.53,8.53,0,0,0,6.52-2.59,9.79,9.79,0,0,0,2.4-6.9,9.47,9.47,0,0,0-2.46-6.83,8.55,8.55,0,0,0-6.4-2.59A8.23,8.23,0,0,0,319.11,304.17Z"/><circle class="cls-5" cx="341.31" cy="162.16" r="32.55"/><ellipse class="cls-6" cx="344.02" cy="164.06" rx="29.85" ry="30.66"/><path class="cls-4" d="M373.05,162.28c-.26,12.77-7.62,24.52-19.71,29.22a31.16,31.16,0,0,1-35.42-9.88c-17.27-21.9,1.61-55.7,29.68-50.31,14.82,2.85,25.15,16.12,25.45,31,0,1.62,3.16,1.16,3.13-.23-.29-14.26-9-27.07-22.69-31.74a35,35,0,0,0-37.05,9.77,33.79,33.79,0,0,0-3.89,39.19,34.28,34.28,0,0,0,63.63-17.22C376.22,160.43,373.08,160.87,373.05,162.28Z"/><path class="cls-5" d="M336.11,151.11a6.39,6.39,0,0,1,2.29,5.15,5.55,5.55,0,0,1-4.23,5.62,7.1,7.1,0,0,1,3.44,2.11,5.42,5.42,0,0,1,1.29,3.72,7.58,7.58,0,0,1-2.44,5.79,9.79,9.79,0,0,1-6.68,2.29,9.5,9.5,0,0,1-6.3-2,9,9,0,0,1-3-6.55h3.93a5.24,5.24,0,0,0,1.68,4,5.17,5.17,0,0,0,3.65,1.29,5.61,5.61,0,0,0,4-1.43,4.3,4.3,0,0,0,1.32-3.18,3.94,3.94,0,0,0-1.39-3.33,5.93,5.93,0,0,0-3.83-1.07H328v-2.93h1.83a5.3,5.3,0,0,0,3.54-1,3.76,3.76,0,0,0,1.21-3,3.83,3.83,0,0,0-1.11-2.93,5,5,0,0,0-3.47-1,5.17,5.17,0,0,0-3.61,1.18,5.31,5.31,0,0,0-1.54,3.54H321a8.31,8.31,0,0,1,2.82-5.94,8.73,8.73,0,0,1,6.12-2.11A9.63,9.63,0,0,1,336.11,151.11Z"/><path class="cls-5" d="M362.26,149.75v3.15l-9.05,22.39h-4.15l9.26-22H345.09v-3.55Z"/><circle class="cls-5" cx="176.26" cy="141.24" r="32.55"/><ellipse class="cls-6" cx="178.97" cy="143.13" rx="29.85" ry="30.66"/><path class="cls-4" d="M208,141.36c-.26,12.77-7.62,24.51-19.72,29.22a31.17,31.17,0,0,1-35.41-9.88c-17.27-21.9,1.61-55.7,29.68-50.31,14.82,2.85,25.14,16.11,25.45,31,0,1.62,3.16,1.16,3.13-.24-.29-14.25-9-27.06-22.69-31.73a35,35,0,0,0-37.05,9.77,33.79,33.79,0,0,0-3.89,39.19,34.28,34.28,0,0,0,63.63-17.23C211.17,139.51,208,140,208,141.36Z"/><path class="cls-5" d="M170.18,130.19a6.38,6.38,0,0,1,2.29,5.15,5.54,5.54,0,0,1-4.22,5.62,7.11,7.11,0,0,1,3.43,2.11,5.4,5.4,0,0,1,1.29,3.72,7.57,7.57,0,0,1-2.43,5.79,9.87,9.87,0,0,1-6.69,2.29,9.53,9.53,0,0,1-6.3-2,9,9,0,0,1-3-6.55h3.93a5.29,5.29,0,0,0,1.68,4,5.17,5.17,0,0,0,3.65,1.29,5.61,5.61,0,0,0,4-1.43,4.32,4.32,0,0,0,1.33-3.18,3.94,3.94,0,0,0-1.4-3.33,5.85,5.85,0,0,0-3.83-1.07H162v-2.94h1.83a5.3,5.3,0,0,0,3.54-1,3.74,3.74,0,0,0,1.22-3,3.86,3.86,0,0,0-1.11-2.93,5,5,0,0,0-3.47-1,5.18,5.18,0,0,0-3.62,1.18,5.3,5.3,0,0,0-1.53,3.54h-3.83a8.28,8.28,0,0,1,2.83-5.94,8.71,8.71,0,0,1,6.11-2.11A9.59,9.59,0,0,1,170.18,130.19Z"/><path class="cls-5" d="M195.22,130.19a6.38,6.38,0,0,1,2.29,5.15,5.54,5.54,0,0,1-4.22,5.62,7.07,7.07,0,0,1,3.43,2.11,5.4,5.4,0,0,1,1.29,3.72,7.57,7.57,0,0,1-2.43,5.79,9.87,9.87,0,0,1-6.69,2.29,9.49,9.49,0,0,1-6.29-2,9,9,0,0,1-3-6.55h3.93a5.26,5.26,0,0,0,1.69,4,5.14,5.14,0,0,0,3.64,1.29,5.61,5.61,0,0,0,4-1.43,4.32,4.32,0,0,0,1.33-3.18,3.94,3.94,0,0,0-1.4-3.33,5.84,5.84,0,0,0-3.82-1.07h-1.86v-2.94h1.82a5.3,5.3,0,0,0,3.54-1,3.74,3.74,0,0,0,1.22-3,3.86,3.86,0,0,0-1.11-2.93,5,5,0,0,0-3.47-1,5.13,5.13,0,0,0-3.61,1.18,5.26,5.26,0,0,0-1.54,3.54h-3.83a8.36,8.36,0,0,1,2.83-5.94,8.71,8.71,0,0,1,6.11-2.11A9.59,9.59,0,0,1,195.22,130.19Z"/><path class="cls-4" d="M389.89,304.83l-1.11-3.64a33.35,33.35,0,0,0,9.47-12.55l3.26,1.54a33.23,33.23,0,0,1-2.91,5.41v18.49h-3.68V300.19A49.82,49.82,0,0,1,389.89,304.83Zm7.71-23.09v-3.26h3.57v3.26h4.26v3.45h-4.26v3H397.6v-3h-8v-3.45ZM410,313.39c-2.68,0-4-1.38-4-4.15v-20h3.73v7.4l12.39-.8v3.45l-12.39.73v8.44c0,1,.46,1.53,1.38,1.53h6.67a2.11,2.11,0,0,0,1.77-.76c.46-.54.76-2.27.92-5.11l3.45,1.12c-.35,3.95-1,6.32-1.8,7.09a5.43,5.43,0,0,1-3.69,1.08Zm5-34.91v3.26h8v3.45h-8v3h-3.57v-3h-4.29v-3.45h4.29v-3.26Z"/><path class="cls-4" d="M439.84,280.63v-2.08h3.49v2.08h4.25v3.14h-4.25V286h-3.49v-2.19h-8v-3.14Zm.72,12v2.69a41.16,41.16,0,0,1-2.76,4.41h3.84V302a25.93,25.93,0,0,1-1.69,5.41l.73.46a12.83,12.83,0,0,0,3.3,1.84,24.29,24.29,0,0,0,4.6.5c1.92,0,4.18.08,6.72.08,2.72,0,6.29-.12,10.7-.31l-.77,3.34h-9.47c-2.54,0-4.95,0-7.33-.12a22.07,22.07,0,0,1-5.6-.73,12.4,12.4,0,0,1-4.11-2.34,1,1,0,0,0-.8-.3c-.73,0-1.84,1.42-3.38,4.29L432,311.74c1.61-2.69,3.22-4.3,4.8-4.76a23.24,23.24,0,0,0,1.57-4.33h-4.6V300a39.47,39.47,0,0,0,3-4.26h-4.49v-3.15Zm-.11-3.14-2.34,2.38a29.83,29.83,0,0,0-5.1-4.61l2.3-2.26A36.28,36.28,0,0,1,440.45,289.49ZM452,286.92v-1.81h1.69v-1.34h-4.3v-3.14h4.3v-2h3.49v2h8v3.14h-8v2.11h-1.69v1h9v2.91h-9v1.5h7.71v11.39h-7.71v1.5h9.44v3h-9.44v2.19H452v-2.19h-9.32v-3H452v-1.5h-7.6V291.33H452v-1.5h-9v-2.91Zm.08,8.86V294h-4.49v1.77Zm0,2.45h-4.49V300H452Zm3.37-2.45h4.53V294h-4.53Zm4.53,2.45h-4.53V300h4.53Z"/><path class="cls-4" d="M412,174.38h5.14V177H391.23v-2.6h5v-16H412Zm4-14.81h-2.68v-3.8H394.73v3.8H392v-6.31h10.52a15.66,15.66,0,0,0-1.08-2.33l2.89-.47c.35.85.7,1.78,1,2.8H416Zm-6.74,4.23v-2.86h-10.2v2.86Zm0,5.26v-2.8h-10.2v2.8Zm0,5.32v-2.86h-10.2v2.86Z"/><path class="cls-4" d="M429.48,152v-1.52h2.63V152h3.33v2.24h-3.33v1.35h3v7.56h2v-7.56h3.1v-1.35h-3.36V152h3.36v-1.52h2.63V152h6.07v2.24h-6.07v1.35H448v19.45a2.07,2.07,0,0,1-2.34,2.31q-1.14,0-2.19-.09l-.61-2.25c.67.06,1.28.12,1.87.12s.7-.3.7-.85V163.4h-8.12v1h6.36v1.69h-6.36v1h5.58v6h-5.61v.15c1.72.61,3.5,1.31,5.31,2.13l-1.14,1.7c-1.63-1-3-1.79-4.17-2.34v2.54h-2.22v-3.13a17.27,17.27,0,0,1-5.58,3.1l-1.11-1.81a18.21,18.21,0,0,0,5.7-2.34H429.6v-6H435v-1H428.6v-1.69H435v-1h-8.27v14.16h-2.57v-21.9h5.29v-1.35h-6.07V152Zm3.15,5.43h-5.87v1.25h5.87Zm-5.87,4.17h5.87v-1.22h-5.87Zm8.59,6.87h-3.68v3h3.68Zm-.79,2.42-1,.24a11.2,11.2,0,0,0-.94-1.9l1-.35A12.57,12.57,0,0,1,434.56,170.93Zm6.28-2.42H437v3h3.85Zm-1,.67a9.06,9.06,0,0,1-1.05,2l-1-.35a9.07,9.07,0,0,0,1-2Zm5.58-11.65h-5.87v1.19h5.87Zm-5.87,4.11h5.87v-1.22h-5.87Z"/><path class="cls-4" d="M75.42,124v-2.42H78.2V124h3.21v2.57H78.2v2.34H75.42v-2.34h-6V124Zm17.73,24.27H90.44v-1.61H74v1.61H71.31V129.87H93.15ZM80.83,137v-4.5H74V137Zm0,7.09v-4.58H74v4.58Zm7.88-22.51V124h6.05v2.57H88.71v2.34H85.94v-2.34H82.7V124h3.24v-2.42ZM83.43,137h7v-4.5h-7Zm7,7.09v-4.58h-7v4.58Z"/><path class="cls-4" d="M110.49,143a29.07,29.07,0,0,1-7.73,5l-1.67-2.19a31.64,31.64,0,0,0,7.68-4.27Zm2.37-5.14v-2h2.72v2h11.65v2.49H115.58v8.14h-2.72v-8.14H101.15v-2.49Zm13.9-15.36V125h-8.09v2.14H125v8H103.34v-8h6.4V125h-8.15v-2.51Zm-17,7H106v3.3h3.74Zm6.39-4.5h-3.88v2.14h3.88Zm0,4.5h-3.88v3.3h3.88Zm11.22,16.56-1.79,2a52,52,0,0,0-7.53-4.88l1.49-1.7A57.66,57.66,0,0,1,127.35,146.05Zm-5-16.56h-3.68v3.3h3.68Z"/><path d="M399.45,337.29c.13-1.17.22-2.41.24-3.68v-1.92h2.12v1.43a32.75,32.75,0,0,1-.26,4.17h8.95v2h-8.42A19.38,19.38,0,0,0,411,350.25l-1.3,1.7A20.72,20.72,0,0,1,400.77,341a17.48,17.48,0,0,1-8.9,11.11l-1.35-1.77a15.43,15.43,0,0,0,8.58-11.06H391v-2Z"/><path d="M417.54,339.67V335H415v-2h7.12v2h-2.49v4.72h2.22v2h-2.22v4.42c.75-.27,1.47-.53,2.18-.84v2a49.17,49.17,0,0,1-6.51,2l-.5-2c.92-.16,1.83-.35,2.71-.58v-5.05h-2.18v-2Zm16.58-7.25V343H429.6v2.21h4.81v1.94H429.6v2.29h5.58v2H421.84v-2h5.69V347.1H422.7v-1.94h4.83V343H423V332.42Zm-6.59,4.36v-2.51H425v2.51Zm0,1.81H425v2.51h2.56Zm2.07-1.81h2.51v-2.51H429.6Zm2.51,1.81H429.6v2.51h2.51Z"/><path d="M459,332.77v2H448.81a26.2,26.2,0,0,1-2.62,5.46h11.27v11.51h-2.14v-1.06h-8.69v1.06h-2.16v-9.12a27.83,27.83,0,0,1-4.19,4.07l-1.3-2.09a21.86,21.86,0,0,0,7.56-9.83h-7v-2Zm-3.72,15.92v-6.4h-8.69v6.4Z"/><path d="M396.3,361.51v3.66h2.87v9.39h-2.94v3.73l1.59-.47c-.18-.61-.37-1.19-.55-1.76l1.67-.53a41.83,41.83,0,0,1,1.59,5.69l-1.78.42c-.14-.71-.29-1.39-.47-2.05a59.93,59.93,0,0,1-7,1.87l-.49-2c1.17-.17,2.32-.39,3.44-.64v-4.25h-2.89v-9.39h3v-3.66ZM393.1,367v5.69h1.24V367Zm4.26,5.69V367H396.1v5.69ZM410.43,369h-1.94v-2.73h-6.57v1.85h1.5v4.39a26.76,26.76,0,0,0,5.58-2.69l1.19,1.63a38.27,38.27,0,0,1-6.77,3v4.12c0,.62.31.93,1,.93h2.91a.91.91,0,0,0,.8-.48,9.3,9.3,0,0,0,.41-3.22l1.9.61c-.15,2.43-.46,3.91-.9,4.39a2.34,2.34,0,0,1-1.83.66h-3.91a2.15,2.15,0,0,1-2.38-2.47v-10H400v-4.68h4.17a23.46,23.46,0,0,0-.95-2.42l2.16-.33c.31.79.59,1.72.9,2.75h4.19Z"/><path d="M423.38,374.56l-1.65.4c-.07-.36-.13-.71-.2-1a37.2,37.2,0,0,1-6,1.39l-.55-1.9a3,3,0,0,0,.95-.59,18.66,18.66,0,0,0,2.49-3.35l-3,.51-.5-1.92a2.29,2.29,0,0,0,.86-.78,34.07,34.07,0,0,0,2.62-5.73l1.92.75a31.7,31.7,0,0,1-3,5.6c.75-.09,1.5-.22,2.25-.35.44-.79.92-1.65,1.41-2.56l1.83.66A50.28,50.28,0,0,1,418,373.1a28.65,28.65,0,0,0,3.16-.72c-.16-.6-.31-1.17-.47-1.72l1.57-.51A38.62,38.62,0,0,1,423.38,374.56Zm-5.95,1.83a27.31,27.31,0,0,1-.68,5.07l-1.79-.55a20.74,20.74,0,0,0,.75-4.74Zm3.24,3.95-1.83.41c-.2-1.71-.42-3.24-.68-4.56l1.63-.37C420.1,377.21,420.41,378.7,420.67,380.34Zm2.78-1.55-1.63.73a38.24,38.24,0,0,0-1.06-3.77l1.52-.53A33.23,33.23,0,0,1,423.45,378.79ZM430,364.53h4.8v2h-1.54a24.65,24.65,0,0,1-3.28,9.33,19.86,19.86,0,0,0,5.37,4.3L434,381.92a20.65,20.65,0,0,1-5.34-4.3,15.51,15.51,0,0,1-5.6,4.24l-1.14-1.79a14.33,14.33,0,0,0,5.44-4.14,19.16,19.16,0,0,1-3-8.1l1.88-.55a16.37,16.37,0,0,0,2.42,6.79,22.88,22.88,0,0,0,2.63-7.54h-8.1v-2h4.88a20.79,20.79,0,0,0-.93-2.67l2-.31C429.42,362.43,429.73,363.42,430,364.53Z"/><path d="M459,362.61v2H448.81a26.2,26.2,0,0,1-2.62,5.46h11.27v11.51h-2.14v-1.05h-8.69v1.05h-2.16v-9.12a27.89,27.89,0,0,1-4.19,4.08l-1.3-2.1a21.86,21.86,0,0,0,7.56-9.83h-7v-2Zm-3.72,15.92v-6.4h-8.69v6.4Z"/><path d="M394.84,393.15V391.3H397v1.85h7.54V391.3h2.14v1.85h3.64v2h-3.64v9.57h4.06v1.94H390.81v-1.94h4v-9.57h-3.63v-2Zm4.13,15a26.8,26.8,0,0,1-6.53,3.46L391.12,410a28,28,0,0,0,6.37-3.09Zm5.55-11.11v-2H397v2Zm0,3.75v-2H397v2Zm0,3.86v-2.08H397v2.08Zm5.87,5.16-1.15,1.8a31.76,31.76,0,0,0-6.55-3.11l1.06-1.58A35.93,35.93,0,0,1,410.39,409.85Z"/><path d="M421.29,392.05a27,27,0,0,1-1.94,4.63v15.06H417.3V399.92c-.62.82-1.28,1.61-2,2.41l-.66-2.14a25,25,0,0,0,4.74-9ZM432.47,404l-1.94-.59a46.68,46.68,0,0,0,1.08-6.16l-2.78.84v8.76h-2.07v-8.14l-2.76.84v8.71a.91.91,0,0,0,1,1h6.63a1.28,1.28,0,0,0,1.08-.44,9.37,9.37,0,0,0,.4-3.15l2,.66c-.15,2.32-.41,3.73-.81,4.21a3,3,0,0,1-2.29.73h-7.5c-1.76,0-2.62-.93-2.62-2.74v-8.37l-1.81.55v-2l1.81-.55v-4.76H424v4.14l2.76-.84v-5.36h2.07v4.75l4.78-1.46A49.94,49.94,0,0,1,432.47,404Z"/></svg>