<?xml version="1.0" encoding="utf-8"?>
<!-- Generator: Adobe Illustrator 18.0.0, SVG Export Plug-In . SVG Version: 6.00 Build 0)  -->
<!DOCTYPE svg PUBLIC "-//W3C//DTD SVG 1.1//EN" "http://www.w3.org/Graphics/SVG/1.1/DTD/svg11.dtd">
<svg version="1.1" xmlns="http://www.w3.org/2000/svg" xmlns:xlink="http://www.w3.org/1999/xlink" x="0px" y="0px"
	 viewBox="0 0 1464 524" enable-background="new 0 0 1464 524" xml:space="preserve">
<style>
	#title {
		filter:url(#dropshadow)
	}
</style>
<filter id="dropshadow" height="130%">
  <feGaussianBlur in="SourceAlpha" stdDeviation="8"/> <!-- stdDeviation is how much to blur -->
  <feOffset dx="2" dy="4" result="offsetblur"/> <!-- how much to offset -->
  <feComponentTransfer>
    <feFuncA type="linear" slope="0.2"/> <!-- slope is the opacity of the shadow -->
  </feComponentTransfer>
  <feMerge> 
    <feMergeNode/> <!-- this contains the offset blurred image -->
    <feMergeNode in="SourceGraphic"/> <!-- this contains the element that the filter is applied to -->
  </feMerge>
</filter>
<g id="title">
	<g>
		<path fill="#ffffff" d="M637.6,199.9c0.2-2.8,0.5-6.8,0.8-10.9c0-0.7,0.4-1.5-0.3-2c-0.7-0.5-1.4,0.2-2,0.6
			c-9.3,5.2-19.3,7.5-29.8,7.8c-16.5,0.5-27.5-10.5-26.9-26.9c0.4-10.5,3.7-20.1,9.7-28.8c1.7-2.5,3.9-4.6,7-5.3
			c1.3-0.3,2.8-0.6,3.7,0.9c0.9,1.6-0.3,2.5-1.4,3.4c-1.4,1-2.3,2.4-2.8,3.9c-2.9,8.7-4.6,17.6-3.7,26.8c0.9,8.6,6.7,14,14.8,14.3
			c1.9,0.1,2.8-0.5,3-2.5c0.7-5.5,1.6-11,2.3-16.5c1.8-13.5,5.4-26.5,11-39c2.4-5.3,4.2-10.9,7-16c1.2-2.2,3.1-3.6,5.4-4.3
			c2.3-0.7,4.1,0.9,3.5,3c-2.6,9.5-3.7,19.3-5.9,28.8c-3,13.2-6.4,26.3-8.8,39.7c-0.2,1.3-1.1,3,0.1,3.8c1.1,0.8,2.5-0.5,3.8-0.9
			c0.9-0.3,1.6-0.8,2.5-1.1c6.1-2.7,9.9-6.5,10.1-14.1c0.2-9.3,2.4-18.5,5.3-27.5c1.2-3.8,2.9-7.5,4.9-10.9c0.9-1.6,2-3,3.5-4.1
			c1.9-1.3,3.9-1.6,5.9-0.4c2.1,1.2,2.1,3.2,1.7,5.3c-3.8,19.1-6.6,38.3-9.3,57.6c-0.5,3.6-0.7,7.2-0.9,10.9c-0.2,3.3,0,3.4,3.1,2.5
			c3.1-0.9,6.3-1.9,9.5-2.6c2.3-0.5,3-1.5,3.1-3.9c0.7-24.6,4.5-48.7,11.9-72.1c2.4-7.6,5.4-15.1,9.4-22c2-3.4,4.3-6.5,7.3-9.1
			c1.3-1.2,2.8-2,4.5-2.4c1.1-0.3,2.2-0.2,3,0.7c0.9,1,0.4,2-0.1,3c-4.6,9.5-7.3,19.6-9.9,29.7c-0.6,2.2,0.3,2.6,2.2,2.2
			c2.1-0.4,4.3-0.8,6.5-0.1c3.7,1.1,5.3,4.8,3.4,8c-1.3,2.2-3.3,2.6-5.2,0.9c-1.1-1-2-1.1-3.2-0.6c-0.6,0.2-1.2,0.4-1.8,0.6
			c-4.7,1.7-6.3,4-6.2,9.1c0.1,2.1,1.3,1.3,2.3,0.9c4.2-1.6,8.5-2.8,12.8-3.9c2.1-0.6,4.3-0.9,5.6,1.3c1.4,2.4-0.2,4.1-1.8,5.7
			c-2.6,2.5-5.9,3.9-9.3,4.9c-3.1,0.9-6.3,1.9-9.4,2.8c-1.5,0.4-2.3,1.3-2.5,2.8c-1.1,10.4-3.2,20.7-4.1,31.1c-0.1,1-0.1,2,0.1,3
			c0.9,3.6,1,3.6,4.6,3c24.3-3.6,48.6-6.5,73.3-6.2c2.3,0,5-1.9,5.7-4.2c2.8-9.6,5.5-19.2,8.3-28.8c0.6-2-0.2-2.4-2-2.4
			c-3.6,0-7.3,0.5-10.9,0.1c-3.9-0.4-5.9-1.7-6-4c-0.1-2.3,1.9-3.8,6-4.2c2.2-0.2,4.4-0.2,6.5-0.2c1.6,0,2.8,0.1,3.2-2
			c0.3-1.6,2.1-2.1,3.2-3.2c0.5-0.6,1.5-1,1-2c-0.4-0.7-1.2-0.7-2-0.7c-2.7,0.2-5.4,0.4-8.1,0.7c-1.8,0.2-3.6,0.3-4.4-1.7
			c-0.9-2.2,0.5-3.7,2.2-4.8c4.7-2.9,9.8-3.1,15-1.3c2.2,0.8,3.1,0.4,3.4-1.9c0.9-5.5,1.9-10.9,1.5-16.5c-0.4-6.6-3-8.8-9.5-7.9
			c-3.3,0.4-6.7,1-9.5,3.1c-1,0.8-2.2,0.9-3.3,0.1c-1.1-0.8-1.3-1.9-1.1-3.2c0.3-2,1.5-3.5,3-4.7c6.5-4.8,13.7-6.4,21.3-3.7
			c6.4,2.3,9.1,7.5,9.8,13.9c0.6,5.3,0.1,10.5-0.7,15.8c-0.9,6.2-2,12.4-3.4,18.5c-0.5,2.3-1.3,4.5-0.4,7c0.4,1,0.1,2.3-0.8,3
			c-1.6,1.3-2,3.2-2.4,5c-2.4,9.4-5.4,18.5-8.8,27.5c-1.4,3.7-1.4,3.8,2.4,4.5c4.4,0.8,8.6,2.2,12.5,4.4c1.7,0.9,3.3,2,4.5,3.5
			c3.3,3.9,1.8,8.9-3,10.4c-2.3,0.7-4.7,0.8-7,0.6c-1.2-0.1-2.6-0.5-3-1.6c-0.8-2.3-2.6-2.4-4.6-2.6c-16.9-1.9-33.8-1.1-50.7-0.1
			c-14.4,0.9-28.8,2.1-43.2,3.6c-2,0.2-3.2,0.8-4.3,2.7c-2.3,4.1-7.6,4.7-10.9,1.3c-1.5-1.6-3-1.8-4.8-1.4c-1.8,0.3-3.6,0.7-5.4,0.8
			c-3.7,0.3-6.9,0.9-8.1,5.4c-0.8,2.9-3.6,4.3-6.7,4.1c-3.2-0.2-5.2-2-6.4-4.8c-0.4-1-0.7-2.1-0.9-3.1
			C637.5,206.9,637.7,204,637.6,199.9z"/>
		<path fill="#ffffff" d="M1080.9,169.9c-1.3,0.3-1.7,1.2-2.2,1.9c-13.5,16.6-25.1,34.5-35.6,53.1c-2.9,5.1-5.9,10.2-9.3,15.1
			c-2.8,4-5.9,4.8-10.4,3c-2.4-1-3.6-3.4-2.9-6.3c0.8-3.6,2.8-6.7,4.6-9.8c6.6-11.6,14.9-22.2,22.6-33.1c8-11.4,16.1-22.7,24.1-34.1
			c0.5-0.7,1.5-1.4,1-2.4c-0.5-0.9-1.7-0.4-2.5-0.3c-8.5,0.9-17,1.9-25.5,2.9c-1.9,0.2-3.8,0.3-5.7-0.2c-3.9-1.1-5.2-4.9-2.6-8.1
			c1.7-2.2,4.1-3.5,6.6-4.7c6.1-2.8,12.6-4.8,19-6.6c3.3-0.9,3.4-1.1,0.8-3.6c-4.6-4.6-9.2-9.3-11.7-15.6c-1.1-2.6-1.9-5.3-2-8.2
			c0-2.1,0.4-4.1,2.4-5.2c2.1-1.1,4.3-0.9,6.2,0.4c2.6,1.7,4.7,4,6.4,6.6c3.6,5.5,8.5,9.7,12.9,14.4c1.6,1.7,1.9,0.1,2.2-1
			c1.1-5,2.2-9.9,3.1-14.9c1.3-7.1,3.5-13.9,6.7-20.4c2-4.1,4.4-5.6,7.2-4.9c2.8,0.8,4.3,3.4,4,7.8c-0.5,7-2.3,13.8-4.8,20.4
			c-0.9,2.4-2,4.8-2.3,7.5c1.4,0.1,1.9-0.9,2.6-1.5c5.7-5.3,11.4-10.7,17.1-16.1c2.7-2.6,5.5-5.1,8.8-6.9c2.8-1.6,5.4-1.5,7.1,0.2
			c2.1,2.1,1.6,4.5,0.4,6.8c-2.7,5.2-6.6,9.6-10.6,13.8c-3.1,3.3-6.4,6.4-9.6,9.6c-0.5,0.5-1.6,1-1.1,1.9c0.4,0.7,1.3,0.3,2,0.2
			c9.2-1.3,18.5-1.6,27.7-1.6c5.4,0,8.1,1.3,8.9,4.6c0.7,3.3-1.3,5.7-6.4,7.9c-13.1,5.7-26.9,8.1-40.9,10.3
			c-3.1,0.5-4.3,1.7-4.8,4.7c-1.1,5.9-2.5,11.7-2.8,17.8c-0.1,2.5-0.1,5.1,0.3,7.6c0.9,7.2,4.6,12.3,11.3,15.2
			c2.1,0.9,4.2,1.8,6.4,2.4c13.4,3.8,27.1,6.1,41,7.5c10.4,1,17.6-2.7,21.9-12.2c1.8-4.1,3.5-8.2,4.9-12.4c0.9-3,1.8-6.1,3.3-9
			c1.3-2.5,3.2-4.1,6.1-3.7c3,0.3,4.4,2.4,5,5.1c1.2,5.5,0.8,11-0.6,16.5c-1.7,6.6-4.4,12.7-7.4,18.7c-4.6,9.3-12.2,13.9-22.3,14.6
			c-5.5,0.4-10.9,0.1-16.3-0.6c-11.3-1.6-22.3-4.1-33.2-7.4c-3.7-1.1-7.2-2.4-10.7-4c-16.8-7.7-23.6-20.7-20.5-38.9
			C1080.6,173.1,1081.2,171.6,1080.9,169.9z"/>
		<path fill="#ffffff" d="M1375.8,124.3c-1.6,0.2-2.1,0.9-2.8,1.5c-1.8,1.4-3.8,2.5-6,3.3c-8.6,3-15.7-2.3-15.5-11.4
			c0.1-4.5,0.1-4.4-4.4-5.4c-2.3-0.5-4.6-1.3-6.7-2.3c-2.6-1.2-3.7-3.6-4.1-6.4c-0.4-3.5,0.6-6.7,2.3-9.7c5-8.7,12.2-15,21-19.6
			c1.7-0.9,3.5-1.5,5.5-1.2c1.8,0.2,3.3,1,4.1,2.7c0.8,1.7,0,3.1-1.1,4.5c-4.2,5-7.9,10.5-10.8,16.4c-0.5,0.9-1.8,2.2-0.5,3.1
			c1.4,0.9,2.7,0,3.8-1.2c3.1-3.9,6.5-7.4,10.5-10.3c2.1-1.5,4.3-2.8,6.8-3.5c1.5-0.4,3-0.6,4.6-0.2c2.7,0.7,3.6,3,1.8,5.1
			c-4,4.5-7.1,9.7-10.5,14.6c-2.9,4.2-5,8.8-6.7,13.7c-0.8,2.2,0.2,2.5,1.9,1.9c5-1.8,9.4-4.4,11.2-9.9c0.7-2.2,1.6-4.3,3.1-6
			c2.1-2.4,5.1-3.1,7.6-1.9c2.5,1.1,3.8,3.7,3.3,6.9c-0.2,1.5-0.7,3-1.3,4.4c-3.7,8.7-7.4,17.4-11.1,26.1c-1.1,2.6-2.4,5.1-4.2,7.3
			c-0.9,1.1-0.9,1.7,0.8,1.8c1.1,0.1,2.2,0.2,3.2,0.6c4.3,1.6,5.2,6.6,1.6,9.6c-1.8,1.5-4,2.2-6.1,2.9c-7.6,2.5-15.5,4-23.3,5.6
			c-2.5,0.5-3.2,1.3-2.2,3.8c1.9,4.5,3.6,9.1,5.3,13.7c0.8,2.1,1.5,2.4,3,0.6c4.2-4.8,8.7-9.3,14-12.9c1.3-0.9,2.6-1.7,4.1-2.1
			c1-0.3,2-0.2,2.7,0.7c0.8,0.9,0.5,1.9-0.1,2.8c-5.1,8.2-9.3,16.9-14.7,24.9c-1.3,1.9-1.3,3.5-0.2,5.5c2.8,5.2,5.4,10.5,8.6,15.5
			c0.4,0.6,0.7,1.8,1.6,1.6c0.9-0.2,0.7-1.4,0.9-2.1c0.5-1.6,0.9-3.3,1.5-4.9c0.8-1.8,2.3-2.9,4.3-2.7c2.1,0.2,3.4,1.5,3.7,3.5
			c0.8,5.3,1.5,10.7,0.6,16c-1.1,6.8-7.4,10.4-14.4,8.5c-3.8-1-6.8-3.4-9.1-6.5c-3.1-4.1-5.7-8.6-8.1-13.3c-1-1.9-1.7-2-2.9-0.2
			c-7.2,11.1-15.7,21.2-23.3,31.9c-2.3,3.2-6.4,4.2-9.7,2.6c-3.3-1.6-4.6-5-3.5-9.1c0.9-3,2.4-5.7,4-8.3c7-11.9,15.2-23.1,24.3-33.5
			c1.7-2,2-3.6,1-6.1c-3.2-7.8-6-15.8-8.4-23.9c-0.6-1.9-1.4-2.4-3.3-2c-19,4-38.2,7.5-56.9,13c-2.2,0.6-4.3,1.2-6.2,2.6
			c-1.9,1.4-4,1.1-5.7-0.5c-1.8-1.7-1.7-3.7-0.5-5.7c1.3-2.1,3.1-3.5,5.1-4.9c4.6-3.2,9.7-5.4,14.8-7.4c14.5-5.8,29.5-9.8,44.8-12.8
			c2.5-0.5,3-1.3,2.5-3.8c-2.3-10.7-4.5-21.5-5.7-32.5c-0.9-7.9-0.4-15.8,2.3-23.4c0.7-2.1,1.7-4.1,3.6-5.3c2-1.3,3-0.8,3.3,1.5
			c0.1,0.5,0.1,1.1,0.1,1.6c-0.9,10.7,1.6,20.9,3.9,31.2c1.9,8.3,4.1,16.6,6.1,24.9c0.5,2.1,1.4,2.8,3.6,2.4c4.3-0.8,8.6-1.2,13-1.8
			c1.3-0.2,2.4-0.5,3.4-1.5C1371.5,142.1,1373.5,133.3,1375.8,124.3z"/>
		<path fill="#ffffff" d="M144.8,168.5c2.7,0.9,2.9,2.7,2.5,5.2c-1.4,9.2-0.8,9.7,8,7.8c4.6-1,9.2-1.4,13.5-4
			c2.8-1.7,6.2-1.2,9.2,0.2c3.8,1.9,4.5,6.2,1.5,9.3c-1.5,1.6-3.4,2.4-5.3,3.2c-8,3.1-16.1,5.9-24.2,8.3c-2.3,0.7-3.2,1.9-3.2,4.2
			c0.2,13.6-0.4,27.3-1.2,40.9c-0.7,11.6-2,23.2-4,34.6c-0.7,4-2.5,6-5.4,6.4c-1.9,0.3-3.7-0.2-5-1.6c-2.2-2.4-4.3-4.9-6.4-7.5
			c-1.5-1.9-2.3-4-0.8-6.3c1.4-2.2,3.6-2.7,6-1.9c2.2,0.7,2.2-0.6,2.3-2.1c0.8-7.7-0.1-15.4,0.5-23.1c0.5-7.2,0.6-14.3,0.8-21.5
			c0-0.9,0.6-2.3-0.6-2.6c-0.9-0.3-1.4,1-1.9,1.7c-12.7,15.5-27.2,29.2-42.9,41.7c-1.4,1.1-2.9,2.2-4.6,2.9c-3.3,1.3-6.7,0.5-8.3-2
			c-1.5-2.3-0.9-4.8,1.9-7.5c15.6-15.1,31-30.4,45.5-46.6c0.8-0.9,2.5-1.9,1.9-3c-0.7-1.3-2.5-0.3-3.7-0.1
			c-8.9,1.4-17.7,3.2-26.8,3.1c-3.4,0-6.7-0.5-9.8-1.9c-5.7-2.8-7.4-8.2-4.1-13.6c2.4-4,5.8-7.3,9.4-10.2c2.5-2,4.7-4.3,6.9-6.6
			c1.1-1.2,1.4-1.8-0.3-2.8c-3-1.8-2.9-4.6,0-6.5c2.1-1.4,4.6-2.2,7-3c14.6-4.8,29.5-7.6,44.8-8.8c3.6-0.3,7.2-0.8,10.9-1.1
			c1.2-0.1,2.4-0.1,3.5,0.1c2.2,0.4,4,1.5,4.3,3.9c0.3,2.3-1,3.9-2.9,4.7c-3.2,1.5-6.7,2.2-10.2,3.1c-2.9,0.7-5.8,1.5-8.6,2.2
			C144.9,168,144.9,168.3,144.8,168.5z M141.5,169.4c-0.7-0.6-1.2-0.5-1.7-0.4c-7.6,1.8-15.4,2.8-23.1,3.8c-0.8,0.1-1.7,0.4-2.2,0.9
			c-6.2,5.7-13.3,10.5-17.4,18.2c-0.4,0.7-1.3,1.4-0.7,2.2c0.5,0.9,1.5,0.3,2.3,0.2c12-2.2,23.8-5.2,35.6-8.2
			c1.3-0.3,2.1-0.9,2.4-2.3C137.4,178.7,138.1,173.5,141.5,169.4z"/>
		<path fill="#ffffff" d="M458.1,162.8c0.6-28.4,5.2-56.1,16.4-82.4c3.4-7.9,7.5-15.3,13.2-21.9c2.9-3.4,6.3-6.3,10.7-7.7
			c5.4-1.7,10.6,0.4,12.4,4.9c0.6,1.5,1.1,3-0.2,4.3c-1.2,1.3-2.7,1-4,0.4c-2-0.9-3.5-0.3-4.9,1.2c-2.9,3.1-5.1,6.7-7,10.4
			c-6.6,12.6-10,26.3-12.6,40.2c-1.4,7.1-2.2,14.4-2.9,21.6c-1.9,19-3.8,38-5.5,57c-0.2,1.7-1,4.1,0.5,5.1c1.2,0.8,2.8-1.2,4.2-1.9
			c16.5-9.2,34-15.7,52.8-18.1c4.8-0.6,9.6-0.7,14.4,0.2c10.3,1.9,16.2,9,16.2,19.5c0,6.6-1.5,12.8-4.1,18.8
			c-4.7,11-10.7,21.3-18.1,30.7c-2.1,2.7-4.4,5.1-7.5,6.7c-4.6,2.4-10,1.6-13-1.9c-1.3-1.5-2.1-3.3-1.1-5.3c1-2,2.8-2.5,4.9-2.1
			c1.7,0.3,2.8-0.2,3.8-1.4c0.8-1,1.7-1.9,2.4-3c6.7-10.3,12.6-21.1,16.4-32.8c1-3.1,1.7-6.3,1.9-9.6c0.2-4.9-1.6-7.1-6.4-7.7
			c-4.7-0.6-9.3,0-13.8,0.9c-11.8,2.4-23.2,6.2-34.2,11c-6.1,2.7-12.3,5.4-18.5,8.2c-0.8,0.4-1.7,0.7-2.2,1.5
			c-1.4,2.3-3.4,3.2-6,2.6c-2.8-0.6-4.3-2.7-4.7-5.4c-0.5-3-0.7-6-1-8.9C459.8,186.2,458,174.6,458.1,162.8z"/>
		<path fill="#ffffff" d="M261.1,159.5c-0.9,0.1-1.2,0.8-1.5,1.3c-6.5,10.3-14.2,19.8-21.1,29.8c-0.7,1-1.4,1.9-2.4,2.6
			c-2,1.3-4.1,1.5-6.2,0.2c-2.1-1.4-2.5-3.5-1.9-5.8c0.8-2.6,1.9-5.2,3.4-7.4c3.8-5.6,7-11.5,10.3-17.3c4.5-7.9,9.7-15.4,15.6-22.3
			c0.5-0.6,1.2-1.1,1.3-2.2c-0.9-0.7-1.9-0.1-2.7,0.2c-6.7,1.6-13.4,3.3-20.1,4.9c-2.2,0.5-4.5,0.7-6.8,0.6
			c-2.3-0.1-4.4-0.8-5.2-3.2c-0.8-2.5,0.6-4.3,2.5-5.5c2.3-1.5,4.6-2.9,7-4.2c9-4.7,18.3-8.6,28-11.5c2.2-0.6,3-1.7,3.2-4
			c0.9-10.3,2.4-20.6,5.5-30.5c0.8-2.4,1.6-4.9,3.1-6.9c1.3-1.8,2.9-2.9,5.2-2c2.3,0.9,2.1,2.7,1.8,4.8c-1.6,10.5-2.6,21.1-3.3,31.7
			c-0.1,2,0.5,2.7,2.5,2.3c6.7-1.3,13.6-1.3,20.1-3.5c0.6-0.2,1.3-0.2,1.9-0.2c4.1-0.2,7.1,1.7,7.7,4.7c0.6,2.9-1.1,5.7-5,7.2
			c-8.3,3.1-16.6,6-24.9,8.9c-1.4,0.5-3.1,0.6-3.3,2.7c-0.2,2.2,1.2,3,2.8,3.8c6.6,3.3,12.1,7.9,17.4,13c1.5,1.4,2.9,2.7,5,3.1
			c1.7,0.4,3,1.4,3.3,3.2c0.4,2-0.4,3.6-1.9,4.8c-3.2,2.5-6.8,2.2-10.1,0.6c-4.6-2.2-9-4.7-13.5-7.2c-3.6-2-3.7-2-3.8,2.3
			c-0.8,26.1-3.4,52-9,77.6c-0.9,4-1.8,8-3.3,11.8c-0.6,1.5-1.2,2.9-2.3,4c-2.5,2.4-6.4,1.9-7.7-1.3c-2-4.9-2.6-10.2-2.1-15.5
			c0.2-1.9,1.4-3.1,3.3-2.9c2.3,0.2,2.5-1,2.7-2.7c1.2-9.7,1.6-19.4,2.3-29.1c0.9-12.6,1.7-25.2,2.5-37.8
			C261.5,161.4,261.8,160.5,261.1,159.5z"/>
		<path fill="#ffffff" d="M1221,138.2c-1.1,0.1-1.6,0.9-2.1,1.5c-4.2,5.1-9.4,9.4-12.7,15.2c-1.4,2.4-4.7,3-7,1.6
			c-2.2-1.3-2.8-3.9-1.3-6.5c1.7-3,3.7-5.9,5.7-8.6c5.9-7.9,11.5-16.2,18.7-23c0.6-0.5,1.2-1.3,1.4-2c0.8-3.4,0.6-3.9-2.6-3.5
			c-9.2,1.2-18.4,2.2-27.3,4.8c-2.4,0.7-4.6,0.6-6-1.8c-1.4-2.3-0.3-4.4,1.3-6.2c2.8-2.9,6.5-4.7,10.2-6.2c7.8-3.3,16-5.4,24.4-6.5
			c2.6-0.3,3.7-1.4,4.1-4c1.3-6.8,2.9-13.5,5.5-19.9c0.8-1.9,1.6-3.7,3.1-5.1c1.6-1.4,3.4-1.9,5.3-0.8c2,1.1,2.6,3.2,3.2,5.2
			c0,0.1,0,0.4-0.1,0.5c-3.5,2.6-2,6.7-2.8,10c-0.8,3.2-0.9,6.5-1.4,9.7c-0.2,1.5,0.2,2.2,1.9,2.1c3-0.1,6,0,9,0
			c0.6,0,1.4,0.3,1.7-0.4c0.3-0.7-0.3-1.2-0.7-1.7c-0.6-1-1.3-2-1.9-3c-0.6-1.1-0.6-2.3,0.4-3.3c1-0.9,2.3-1.2,3.3-0.5
			c4,2.8,8,5.8,10.7,9.9c1.8,2.8,0.6,6.3-2.6,8.5c-3,2.1-6.3,3.6-9.9,4.5c-2.6,0.7-5.3,1.3-8,1.6c-2.2,0.2-3.4,1-3.7,3.3
			c-0.1,0.9-0.2,1.5,0.7,2c2.6,1.5,4.3,3.9,6.1,6.2c2.8,3.5,5.2,7.3,8.7,10.1c1.2,1,1.7,2.4,1.1,3.9c-0.6,1.5-1.8,2.3-3.3,2.5
			c-3.9,0.6-7.2-0.8-10-3.4c-1.8-1.7-3.4-3.8-5.2-5.6c-0.5-0.6-0.9-1.6-1.9-1.2c-0.8,0.3-0.5,1.3-0.6,2c-0.9,12.1-1.8,24.1-2.5,36.2
			c-1.6,26.4-3.5,52.8-9.4,78.7c-0.9,3.8-1.9,7.6-3.3,11.2c-0.6,1.6-1.4,3.2-2.7,4.3c-3.4,2.9-8.5,1.5-9.1-2.9
			c-0.9-6.3-1.2-12.7-1.6-19c-0.1-2.2,1.4-3.6,3.5-3c2.3,0.7,2.4-0.5,2.6-2.1c1.2-9.8,1.8-19.7,2.5-29.6c1.5-21,2.8-42.1,4.8-63.1
			C1221.2,140.1,1221.5,139.2,1221,138.2z"/>
		<path fill="#ffffff" d="M293.6,436.4c-4.6,3.3-8.6,6.1-11.9,9.5c-1.8,1.9-3.8,2.3-5.5,1c-2-1.5-1.9-3.4-0.9-5.4
			c1-2,2.6-3.5,4.3-4.8c4-3.3,8.4-6,13-8.5c1.3-0.7,2.1-1.5,2.3-3.1c0.4-6,0.9-12,1.5-17.9c0.2-2.4-0.7-2.5-2.6-1.9
			c-9.6,3.1-19.1,6.6-28.4,10.5c-1.4,0.6-2.9,1.1-4.4,1.5c-1.5,0.4-3-0.1-3.8-1.5c-0.8-1.4-0.3-2.7,0.7-3.8c2.4-2.7,5.4-4.6,8.5-6.4
			c8.6-5.1,17.6-9,27.1-12.1c2.9-0.9,4.3-2.2,4.1-5.3c-0.1-1.6,0.2-3.3,0.4-4.9c0.2-1.6,0.6-3.1,2.6-3.3c2.1-0.2,2.9,1.2,3.4,2.9
			c0.4,1.6,0.8,3.2,1,4.8c0.2,1.4,0.8,1.9,2.2,1.5c10.9-3.1,22-5.1,33.1-6.5c1.6-0.2,1.9-1.1,1.9-2.4c0.2-5.3,2.4-10,3.7-15
			c0.1-0.4,0.3-0.9,0.5-1.3c0.8-1.3,1.3-3.3,3.2-2.6c1.7,0.6,0.7,2.3,0.8,3.6c0.2,4.7-0.7,9.4-0.3,14.1c0.2,1.8,0.8,2.3,2.5,2.1
			c3.1-0.4,6.1-0.7,9.2-0.9c2.3-0.2,4.6-0.3,6.7,0.6c3.2,1.2,3.8,4.6,1,6.6c-2.3,1.8-5,2.8-7.9,1.8c-3.4-1.1-6.4,0.7-9.6,1.1
			c-0.9,0.1-0.9,1.1-0.7,1.8c1.1,7.3,2.8,14.4,5.2,21.4c0.6,1.7,1.2,1.4,2.2,0.4c3.3-3.6,6.8-7.1,10.9-9.9c0.6-0.4,1.2-0.9,1.8-1.2
			c1-0.4,2-0.2,2.7,0.6c0.7,0.8,0.5,1.7,0,2.5c-3.8,6.4-6.7,13.3-10.9,19.5c-0.7,1.1-1,2-0.4,3.3c4.3,8.4,9.2,16.3,15.8,23.1
			c0.5,0.5,1,1.6,1.9,1.2c0.7-0.3,0.5-1.3,0.7-2c0.4-2.3,0.7-4.7,1.1-7c0.3-1.7,1.3-2.8,3.1-2.9c2-0.1,3,1.1,3.3,2.9
			c0.7,4.1,1.1,8.3,0.5,12.5c-0.7,5.1-4.7,7.6-9.7,6.5c-3-0.7-5.5-2.4-7.8-4.3c-6.3-5.1-11.2-11.4-15.2-18.4c-1.2-2-1.8-2.2-3.3-0.2
			c-4.2,5.9-9.4,11.1-12.8,17.6c-0.8,1.6-2.3,2.6-4,3.1c-2.7,0.7-5.6-0.1-7.1-2.2c-1.7-2.3-1.4-4.7,0.2-6.9
			c6.1-8.3,11.1-17.3,17.9-25c1.2-1.3,1.5-2.4,0.8-4.1c-3.3-8.9-5.2-18.2-6.1-27.6c-0.2-2-0.7-2.5-2.7-2c-10.7,2.5-21.4,5.2-32,8.1
			c-1.4,0.4-2.1,1-2.1,2.6c-0.1,5.3-0.4,10.5-0.7,15.8c-0.1,2.2,0.5,2.4,2.4,1.7c4.9-2,9.9-3.6,14.6-6c0.6-0.3,1.2-0.5,1.8-0.7
			c1-0.2,1.8,0,2.3,0.9c0.4,0.9,0,1.6-0.7,2.1c-1.5,1.1-2.9,2.2-4.5,3.1c-4.6,2.6-9.2,5.1-13.9,7.5c-2.2,1.1-3.1,2.6-3.4,5
			c-0.8,7.5-2,15-3.9,22.3c-0.6,2.2-1.2,4.4-2.5,6.3c-1.6,2.4-4,3.4-6.6,2.7c-2.1-0.6-3.4-2.1-3.7-4.2c-0.3-2.1,0.5-3.8,2.7-4.5
			c0.7-0.2,1.3-0.5,1.5-1.4C292.1,448.7,293,443,293.6,436.4z"/>
		<path fill="#ffffff" d="M831.4,176c0.8-21.4,2.9-42.6,9.6-63.1c0.7-2.1,0.9-4.3,1.6-6.3c1.4-3.8,7.1-5.6,10.2-3
			c1.6,1.3,2.4,0.9,3.6-0.2c4.6-4,9.8-6.5,15.9-7.2c7.2-0.8,13.2,1.6,17.8,7.3c4,5,6,10.9,6.3,17.1c0.9,17.1-3.3,33.1-11.3,48.2
			c-1.2,2.3-2.8,4.5-4.8,6.2c-4.6,4.1-10.7,3.4-14.1-1.8c-1-1.5-1.7-1.6-3-0.6c-1.6,1.2-3.2,2.4-4.8,3.6c-2,1.4-4.1,2.5-6.6,2.2
			c-1.8-0.2-2.3,0.5-2.2,2.1c0,1.9-0.2,3.8,0,5.7c0.4,5.5-2.5,10.4-3.5,15.6c-0.4,2-2.2,3.1-4.3,3.2c-2.5,0.1-3.8-1.4-5.2-3.3
			C830.7,193.9,830.6,185.1,831.4,176z M850.2,159.1c0,0.8,0,1.6-0.1,2.4c-0.3,2.3,0.4,2.8,2.5,1.7c3-1.6,5.9-3.4,9-4.5
			c3.9-1.4,5.8-5.5,9.8-6.6c0.4-0.1,0.7-1,0.9-1.6c1.5-4.2,3-8.4,4.3-12.6c0.5-1.5,1.9-3.4,0.6-4.5c-1.2-1-3,0.6-4.4,1.2
			c-3.4,1.4-6.7,2.8-10.3,3.3c-1.8,0.2-3.5-0.1-4.6-1.7c-1.1-1.6-1-3.2-0.2-4.9c1-2,2.7-3.4,4.6-4.6c3.7-2.2,7.7-3.1,11.9-3.6
			c6.5-0.9,6.8-1.2,5.6-7.8c-0.1-0.7-0.3-1.4-0.5-2.1c-1.4-4.5-4-6.2-8.6-5.6c-4.9,0.7-9.1,2.7-12.9,6c-5.4,4.6-5.9,10.9-6.1,17.2
			C851.2,140.2,850.9,149.7,850.2,159.1z"/>
		<path fill="#ffffff" d="M1132.2,359.5c6.7-1.8,13-3,19.3-3.7c11.7-1.2,23.2-1.2,34.4,3c2,0.8,4.1,1.6,5.8,3
			c4.1,3.3,3.9,8.3-0.5,11.2c-2.1,1.4-4.5,2.4-6.9,3.1c-1.3,0.4-2.7,0.5-3.8-0.6c-1.1-1.2-0.9-2.5-0.1-3.8c0.7-1.1,0.3-1.4-0.8-1.5
			c-6.2-0.6-12.3-0.9-18.5-0.9c-1.3,0-1.4,0.8-1.4,1.8c0.1,5.4,0.2,10.7,0.2,16.1c0,1.9,1.1,1.8,2.4,1.6c4.3-0.5,8.5-0.4,12.8-0.4
			c0.7,0,1.5,0,2.2,0.1c2.1,0.3,3.9,1.1,4.2,3.5c0.3,2.4-1,3.8-3.1,4.6c-4.7,1.7-9.6,2.9-14.5,3.8c-0.4,0.1-0.7,0.1-1.1,0.2
			c-2.3,0.1-3.4,1.1-3.1,3.6c0.2,2.2,0,4.4,0,6.5c0,1.3,0.5,1.8,1.8,1.6c4.9-0.6,9.8-1,14.7-0.9c0.5,0,1.3-0.1,1.5-0.4
			c1.8-2.5,3.7-1.5,5.6-0.1c1,0.7,2.1,1,3.3,1.3c2.1,0.5,3.7,1.7,3.7,4.1c0.1,2.5-1.5,3.8-3.7,4.4c-5,1.5-10.1,2.5-15.2,3.2
			c-3.1,0.5-6.3,1-9.4,1.3c-2,0.2-2.5,1-2.5,3c-0.1,12.3-0.7,24.5-2.5,36.7c-0.6,4-1.2,7.9-2.8,11.6c-1.2,2.8-3.1,4.9-6.3,5.4
			c-1.4,0.2-2.8,0.1-3.6-1.3c-0.8-1.4-0.3-2.7,0.9-3.6c1.6-1.3,1.9-3,2.1-4.9c1.2-13,1.2-26,1.2-38.9c0-6.1,0-6-6.1-5.5
			c-4.1,0.3-8.2,0.6-12.2-0.4c-5.8-1.4-8.6-5.3-7.7-11.2c0.6-4.5,2.4-8.6,5-12.2c0.7-1,1.1-1.7,0.4-3.1c-1-2.1,0.1-3.8,2.9-4.9
			c5.3-2.1,10.7-3.5,16.3-4.5c2.5-0.4,3.4-1.4,3.6-4c0.5-5.1,1.3-10.3,2.2-15.4c0.5-2.4-0.3-2.6-2.3-2.5c-7,0.3-13.9,1.4-20.8,2.4
			c-1.5,0.2-3.1,0.4-4.6,0.1c-4.8-0.9-6.8-4.8-4.6-9.1c1.1-2.1,2.5-4,3.7-6c2.8-4.3,5.4-8.6,7.5-13.3c0.8-1.7,1.6-3.6,3.9-2.9
			c2.4,0.7,2,2.9,1.8,4.8c-0.4,3.4-1.7,6.5-3.1,9.6C1133.7,356,1133.1,357.4,1132.2,359.5z M1141.1,402.7c-2.2,1.1-5.7-1.7-7.9,1.5
			c-1.7,2.5-2.3,5.5-2.8,8.5c-0.1,0.5-0.1,1.1-0.2,1.6c-0.3,2.1,0.6,2.8,2.6,2.5c4.7-0.8,9.5-1.6,14.2-2.4c1.3-0.2,1.8-0.9,1.9-2.2
			c0-2.6,0.1-5.3,0.3-7.9c0.1-1.8-0.6-2.2-2.2-2C1145.2,402.5,1143.4,402.5,1141.1,402.7z"/>
		<path fill="#ffffff" d="M391.8,191.8c-0.1,3.3-1.3,6.2-2.8,8.9c-3.6,6.5-7.5,12.7-12,18.5c-1.7,2.3-1.6,3.8,0.1,5.9
			c5.1,6.3,9.4,13.1,13.1,20.4c2.1,4.1,1.8,7.4-1.1,9.5c-3,2.3-7.4,1.8-10.4-1.3c-4.7-5-9-10.4-12.9-16.2c-1.8-2.7-2-2.7-4.5-0.5
			c-8.4,7.5-17.4,14.3-26.8,20.6c-2,1.3-4,2.6-6.5,2.6c-2.5,0.1-4.5-0.8-5.6-3.1c-1.1-2.4-0.3-4.4,1.5-6.2c0.3-0.3,0.5-0.6,0.8-0.7
			c10.4-5.4,17.6-14.6,26.2-22c6.3-5.4,5.9-3.6,1.2-10.3c-2.6-3.6-5.3-7.2-7.9-10.8c-1.3-1.8-2.5-1.9-4.2-0.4
			c-3.1,2.7-5.6,5.9-8.2,9.1c-1.5,1.9-3.1,3.8-5.9,2.7c-1.8-0.7-3.8-4.7-3.4-7c0.2-1.2,0.6-2.3,1-3.4c5.8-15.2,15.1-28.1,26.6-39.5
			c1.4-1.4,3-2.7,5.1-3c2.5-0.4,3.8,1.2,3,3.6c-1,3-2,6-3.5,8.8c-0.5,0.9-1.7,2.1-0.9,2.9c0.9,1,2.2-0.1,3.2-0.5
			c6.1-2.2,12.4-3.8,19-2.8c4.5,0.7,8.6,2.3,12,5.5C390.4,185.6,391.7,188.5,391.8,191.8z M370.9,189.5c-5.9,0.4-12,3.7-17.9,7.4
			c-1.2,0.7-1.1,1.5-0.1,2.4c4.4,3.5,8.4,7.4,12.3,11.5c0.8,0.8,1.7,1.2,2.5,0.2c3.7-4.8,7.5-9.6,9.2-15.6
			C378,191.4,376.4,189.5,370.9,189.5z"/>
		<path fill="#ffffff" d="M72.6,110.3c13.2-13.5,29.1-20.4,46.3-24.7c-0.1-1.4-1.2-1.2-1.8-1.6c-1.3-0.9-2.3-1.9-2.3-3.5
			c0.2-8-1.2-16,0.2-23.9c0.7-4,2.5-6.2,5.6-6.4c3.2-0.2,7.5,2.9,8.2,6c0.7,3.1,0.8,6.3,0.2,9.5c-1,5-2.1,10-4,14.7
			c-0.5,1.3-1.4,2.5-2.2,3.8c1.2,0.6,2.2,0.1,3.2-0.1c17-3.3,34.1-5.1,51.5-4.6c5,0.1,10,0.5,14.8,2c3.6,1.2,6.9,2.9,9.5,5.7
			c5,5.4,4.9,13.1-0.5,18.1c-5.1,4.7-11.3,6.8-18.2,7c-2.9,0.1-5.4-1.1-6.8-3.8c-1.4-2.8-0.5-5.3,1.2-7.6c1.8-2.3,1.7-2.7-1.4-3.3
			c-12.5-2.4-25.1-2.4-37.8-1.1c-17.4,1.8-34.5,5.2-50.6,12.6c-5.9,2.7-11.4,6.1-16.4,10.2c-1.9,1.5-3.3,3.3-4,5.7
			c-0.8,2.7-1.8,5.3-3.3,7.8c-1.8,3-4.5,4.2-7.3,3.5c-2.7-0.7-4.3-3-4.1-6.6c0.4-7.4,3-14.2,6.5-20.6c1.6-2.9,3.5-5.7,5.4-8.5
			c1.1-1.7,2.6-2.9,4.8-2.3c2.2,0.6,3.4,2.3,3.7,4.6C73.3,104.9,72.5,107.2,72.6,110.3z"/>
		<path fill="#ffffff" d="M934.5,238.8c0.1-0.7,0.1-1.6,0.3-2.5c0.4-1.5,1.3-2.6,3-2.8c1.6-0.3,2.9,0.4,3.7,1.8
			c0.8,1.5,1.4,3.1,2,4.7c1.6,4,1.9,4.1,4.8,0.8c2.9-3.2,5.4-6.6,7.6-10.3c8.7-14.4,14-30.1,18-46.3c0.7-3-1.1-2.4-2.8-2.2
			c-22.3,3-44.7,6-67,9c-5.5,0.7-11,1.2-16.5,1.7c-2.3,0.2-4.6,0.2-6.8-0.5c-1.8-0.6-3.2-1.8-3.5-3.8c-0.3-2.1,0.8-3.5,2.5-4.4
			c1.4-0.7,3-1.4,4.5-1.8c28.9-8.5,58.3-14.2,88.4-15.4c2.8-0.1,4.7-0.6,5.1-3.8c0.2-1.5,1-3.1,3-2.9c2,0.2,2.2,1.9,2.3,3.5
			c0.1,2.2,1.2,2.7,3.2,2.7c5-0.2,10-0.2,15-0.3c2,0,4-0.1,5.9,0.6c1.9,0.7,3.2,2,3.4,4.2c0.1,2-0.9,3.5-2.6,4.5
			c-1.4,0.8-2.9,1.2-4.4,1.4c-5.4,1-10.9,2.1-16.4,3c-2,0.3-2.9,1-3,3.2c-1,16-4.9,31.2-11.9,45.6c-4,8.3-9.5,15.4-16.6,21.3
			c-2.5,2-5.2,3.7-8.3,4.5c-5,1.2-9.3-0.9-11.3-5.7C935,245.5,934.8,242.3,934.5,238.8z"/>
		<path fill="#ffffff" d="M977,485.6c-3.1,0.1-6.2,0.2-9.3-0.3c-8.2-1.2-11.5-7.2-7.8-14.6c1.7-3.5,3.9-6.8,5.9-10.1
			c2.2-3.7,4.4-7.3,5.9-11.3c1.4-3.9,1.1-7.5-1.7-10.7c-1-1.2-1.9-2.5-2.6-3.8c-2-3.6-1.2-7.2,0.5-10.7c2.7-5.6,5.9-11.1,8.1-17
			c2-5.2,1.1-6.2-4.4-5.4c-1.2,0.2-2.3,0.5-3.5,0.7c-1.1,0.2-2,0-2.7-0.9c-0.8-1-0.5-2.1,0-3.1c0.6-1,1.4-1.6,2.4-2.2
			c3.4-1.8,7.1-2.3,10.9-1.4c4.3,1,6.7,4.7,6.1,9.3c-0.5,3.3-1.8,6.3-3.1,9.3c-1.9,4.3-3.8,8.7-5.7,13c-0.7,1.7-0.6,3.1,0.9,4.4
			c7.2,6.7,8.1,14.7,4.6,23.4c-2.5,6.2-6.3,11.6-9.8,17.3c-0.5,0.8-1.6,1.7-1,2.6c0.6,0.8,1.9,0.3,2.8,0.2c11-1,22-2.6,33.1-3.4
			c12.2-0.8,24.3-1.2,36.5-1.1c18.9,0.2,36.8-4.1,54.2-10.9c2.7-1,5.3-2.4,7.8-3.8c2.6-1.4,4.8-3.2,6.3-5.9c0.8-1.6,2.1-2.6,4-1.9
			c1.9,0.7,2.2,2.3,2,4c-0.3,3.3-1.7,6.1-4,8.5c-1.8,2-3.9,3.6-6.2,4.8c-15.2,8.2-31.1,14.5-48.4,16.9c-3.4,0.5-6.9,0.7-10.3,0.7
			C1024.7,482.4,1000.8,483.7,977,485.6z"/>
		<path fill="#ffffff" d="M939,112.1c-4.3,0.5-9.7,0.5-15,1.7c-3.9,0.9-6.5-2.5-5-6.3c0.8-2.1,2.5-3.6,4.2-4.9
			c3.6-2.9,7.9-4.4,12.2-5.8c7-2.2,14.2-3.3,21.4-4.1c2.1-0.2,3.2-1.1,4-3c1-2.5,2.3-4.9,3.6-7.3c0.7-1.4,1.8-2.5,3.4-3
			c2.4-0.8,4.2,0.4,4.3,2.9c0,2.2,0,4.4-0.3,6.5c-0.3,2,0.4,2.6,2.3,2.7c5.6,0.4,11.2,1,16.8,1.6c1.3,0.1,2.7,0.4,4,0.9
			c2.4,0.9,3.9,2.7,4,5.3c0.1,2.6-1.2,4.5-3.5,5.7c-0.8,0.4-1.7,0.8-2.6,0.9c-8.6,1.3-17,3.8-25.8,4.3c-1.5,0.1-2.5,0.7-3.2,2.1
			c-3.8,7.1-8.2,13.7-13.8,19.5c-0.4,0.4-1.2,0.9-0.8,1.6c0.5,0.7,1.3,0.3,2,0.2c7.5-0.8,15.1-0.7,22.6-1c2.1-0.1,4.2,0.1,6.2,0.9
			c4.6,1.8,5.6,7,1.6,9.9c-2.9,2.2-6.1,4.2-9.9,1.3c-0.9-0.7-1.9-0.3-2.9-0.1c-3.5,0.8-6.9,1.5-10.4,2.4c-5.6,1.5-11.3,1.8-17,1.5
			c-2.3-0.1-4.5-0.5-6.5-1.8c-3.5-2.4-3.8-7-0.2-9.1c9.2-5.3,13.5-14.2,17.3-23.4c1.2-2.9,0.9-3.1-2.2-2.9
			C946.5,111.4,943.2,111.7,939,112.1z"/>
		<path fill="#ffffff" d="M329,107.7c0.6-8.1,4.2-16.1,10.4-22.6c6.6-6.9,13.9-13.3,21.9-18.7c1.9-1.2,4.2-3.2,6.4-1.1
			c2.3,2.3,0.2,4.6-1.1,6.6c-3,4.4-6.2,8.5-9.2,12.8c-4,5.8-7.5,11.8-9.7,18.5c-0.3,0.8-0.8,1.6-0.3,2.3c0.7,0.9,1.7,0.2,2.5,0
			c8.2-2.4,16.3-4.9,24.5-7.3c2-0.6,1.5-1.9,1.3-3.2c-0.5-3-0.6-5.8,2.1-8c3.5-2.8,9.8-1.7,12.6,2.5c4.7,7.2,9.9,14.1,12.7,22.4
			c0.8,2.5,1.8,4.9,2.3,7.5c0.8,4.5-1.4,7.8-4.3,10.7c-1.8,1.8-4.1,1.6-6,0.1c-1.9-1.4-4-2.8-5.2-4.7c-3.5-5.2-7.4-10.1-9.1-16.3
			c-0.9-3.2-1.2-3.1-3.8-1.2c-8.3,6-16.3,12.6-27.1,13.8c-3.7,0.4-7.4,0.3-11.1-0.5C332.6,119.7,329,115.1,329,107.7z"/>
		<path fill="#ffffff" d="M549.6,112.7c-0.1,7.4-2.7,16.6-7.4,25.2c-3.1,5.8-6.7,7.3-13.1,5.7c-1-0.3-2-0.2-2.9,0
			c-3.9,0.8-7.7,2-11.4,3.7c-5.2,2.4-10.5,4.5-16.1,5.9c-1.2,0.3-2.5,0.5-3.8,0.2c-3-0.7-4.1-3.7-2.2-6.1c0.8-1,1.8-1.8,2.8-2.5
			c9.2-6.1,19.3-10.1,30.3-11.5c0.5-0.1,0.9-0.1,1.4-0.1c4.9-0.3,5-0.3,6.1-5.2c0.6-2.7,1.1-5.3,1.6-8c0.3-1.6-0.1-2.2-1.8-1.6
			c-3.9,1.2-7.8,2.5-11.6,4.1c-6.9,2.9-13.8,5.7-20.7,8.5c-0.6,0.2-1.2,0.5-1.8,0.7c-2,0.6-3.9,0.5-5.2-1.3
			c-1.4-1.9-0.9-3.8,0.3-5.6c1-1.5,2.5-2.7,4-3.7c3.4-2.4,7.1-4.4,11-5.9c5.9-2.3,12-4.2,18.2-5.8c1.8-0.5,3.7-0.9,5.7-0.7
			c3.2,0.3,3.2,0.3,2.9-3.1c-0.3-2.4-0.6-4.9-1.5-7.2c-1.7-4.1-4.3-5.8-8.7-5.5c-2.9,0.2-5.5,1-8.1,2.2c-8.1,3.5-15.4,8.2-21.5,14.6
			c-1,1-2,1.6-3.4,1c-1.5-0.6-1.9-1.9-1.7-3.4c0.2-2.1,1.2-3.8,2.4-5.4c7.7-9.8,17.5-16.4,29.7-18.9c10.4-2.1,19,2.5,23.4,12.1
			C548.9,99.9,549.7,105,549.6,112.7z"/>
		<path fill="#ffffff" d="M515.5,217.3c-0.3,7.7-1.4,15.4-2.9,23c-1.5,7.4-2.9,14.8-4.4,22.2c-0.4,1.9-0.7,3.8-1.6,5.5
			c-1.4,2.6-4.1,3.9-6.9,3.2c-2.7-0.6-4.4-2.6-4.6-5.7c-0.2-4.3,0.9-8.5,1.3-12.7c0.2-2.3,0.5-4.5,0.8-6.8c0.3-2-0.4-2.2-2.1-1.4
			c-7.1,3.6-14.5,6.3-22.1,8.5c-4.4,1.2-8.9,1.8-13.5,1c-10.9-1.9-16.2-11-12.3-21.3c1.7-4.5,4.2-8.6,7.6-12.1c2-2,4.3-3.3,7.2-3.5
			c1.3-0.1,2.4,0.2,2.9,1.6c0.4,1.3-0.4,2-1.3,2.7c-5.6,4.4-6.1,10.6-6,17c0,1.9,1.6,2.9,3.4,3.4c3,0.8,6.1,0.6,9.2,0.2
			c1.4-0.2,1.6-1,1.8-2.3c0.9-7.8,3.6-15,7.3-21.8c1-1.8,2.3-3.5,3.9-4.8c1.8-1.4,3.7-1.8,5.9-1.1c2.8,1,3.5,2.2,3.1,5.1
			c-0.8,5.6-3.3,10.7-5,16.1c-0.4,1.2-1.7,2.7-0.5,3.7c0.9,0.8,2.3-0.5,3.5-0.8c6.2-1.4,9.9-4.6,10.5-11.4c0.3-4.2,2.3-8.2,4.5-11.9
			c0.9-1.5,1.9-2.9,3.5-3.7c3.4-1.7,6.5,0,6.6,3.9C515.6,214.4,515.5,215.8,515.5,217.3z"/>
		<path fill="#ffffff" d="M751.7,138.9c-0.2,7.3-2.2,14.2-5.3,20.7c-3.2,6.8-7.3,13.2-12.1,19.1c-1.5,1.9-3.2,3.7-5.4,4.9
			c-3.1,1.7-6.5,0.8-7.9-2.2c-1.6-3.3-0.4-6.6,3-7.9c1-0.4,1.6-1.1,2.1-2c4.5-8.2,8.6-16.6,11.7-25.5c1.2-3.4,2-6.8,1.8-10.4
			c-0.1-0.9,0-2-1-2.3c-1-0.3-1.3,0.8-1.7,1.4c-7.2,12-16.3,22.5-24.2,34c-0.6,0.9-1.4,1.7-2.2,2.4c-1.7,1.3-3.6,1.3-5.3,0
			c-1.7-1.3-1.9-3-1.2-4.9c0.4-1,0.9-2,1.5-2.9c5.1-7.7,10.1-15.5,15.3-23.2c1-1.5,1.2-2.3-0.6-3.4c-2.3-1.4-3.2-3.7-3-6.3
			c0.1-1.1,0.2-2.2,0.5-3.2c3-9.8,6.9-19.3,11.8-28.4c1.3-2.4,2.9-4.7,5.6-5.7c1.8-0.7,3.6-0.8,5,0.8c1.3,1.5,0.6,3-0.3,4.5
			c-2,3.6-2.9,7.6-4.2,11.5c-0.6,1.6,0.4,1.9,1.7,1.7c2.1-0.3,4.2-0.6,6.2-0.3c1.8,0.2,3.9,0.4,4.1,2.8c0.2,2.4-1.8,2.9-3.6,3.3
			c-3,0.7-6.2,0.5-9.1,1.8c-0.8,0.4-1.7,0.7-2.4,1.3c-0.6,0.4-0.9,1.2-0.5,2c0.4,0.7,1.1,0.3,1.7,0.2
			C745.6,120.9,751.9,126.7,751.7,138.9z"/>
		<path fill="#ffffff" d="M1275.2,126.6c0.1-2.7,1.1-5.1,2.4-7.4c1.8-3.1,4.1-6,6.5-8.7c1-1.1,1.1-1.8-0.4-2.7
			c-7.6-4.5-9-10.7-4.3-18.2c3.4-5.4,7.7-10.1,12.9-13.9c1.7-1.3,3.5-2.3,5.7-2.4c3.9-0.2,6.1,2.8,4.9,6.5c-0.6,1.9-1.8,3.6-2.9,5.3
			c-2.4,3.8-4.8,7.5-6.5,11.6c-0.3,0.8-1.2,1.7-0.1,2.4c0.8,0.6,1.8,0.2,2.5-0.4c1.1-0.9,2.1-1.7,3.1-2.6c3.3-2.8,6.7-5.3,10.5-7.3
			c1.5-0.8,3.1-1.5,4.9-1.7c1.5-0.2,3-0.4,3.9,1.1c0.9,1.5-0.3,2.5-1.2,3.6c-6.5,8-13,15.9-19.4,23.9c-2.5,3.1-4.7,6.5-7,9.7
			c-0.4,0.6-1,1.2-0.5,1.9c0.5,0.7,1.3,0.5,2,0.4c3.1-0.3,6-1.3,8.6-3.1c0.9-0.6,1.8-1.6,2.9-1.5c3.2,0.3,3.4-1.8,3.7-4
			c0.5-3.1,1.3-6.2,2.9-9c0.9-1.5,1.9-2.9,3.5-3.8c1.4-0.8,2.9-1,4.4-0.1c1.4,0.9,1.2,2.3,1,3.7c-1,6.9-3.6,13.3-4.9,20.1
			c-0.5,2.6-1.3,5,0.9,7.4c1.4,1.5-0.3,3.4-2.6,3.3c-2.8-0.2-5.3-2.6-6-5.9c-0.7-3-0.6-2.9-3.2-1.1c-5.8,4.2-12.2,6-19.3,3.9
			C1278.4,136,1275.1,131.7,1275.2,126.6z"/>
		<path fill="#ffffff" d="M1074.5,381.5c-0.6,15.7-2.1,32.2-5.4,48.4c-1.3,6.2-3.4,12.1-6,17.8c-0.5,1.2-1.1,2.3-1.7,3.4
			c-2.6,4.5-5.3,6.4-8.4,5.7c-2.9-0.7-5.7-4.8-6.2-9c-0.2-1.3-0.1-2.6,1.4-3.2c1.5-0.7,2.6,0.1,3.5,1.3c0.5,0.6,0.7,1.8,1.5,1.7
			c1-0.1,1-1.4,1.3-2.2c3.4-10.3,4.9-21,6.3-31.7c1.6-11.6,2.9-23.3,3.3-35c0.2-4.7,0.2-9.5-0.7-14.1c-1-5.6-2.2-6.7-7.9-6.8
			c-7.3-0.2-14.5,1-21.6,2.7c-5.4,1.3-10.8,2.5-15.2,6.2c-0.6,0.5-1.3,0.7-2,0.3c-0.8-0.5-1-1.2-0.8-2.1c0.6-3.1,2.5-5.2,4.9-6.9
			c4.9-3.6,10.4-5.8,16.3-7.3c6.8-1.7,13.7-2.6,20.8-2.2c8.1,0.5,12.7,4.2,14.8,12C1074.5,367,1074.6,373.8,1074.5,381.5z"/>
		<path fill="#ffffff" d="M919.1,380.1c0,3.4,0.1,6.7,0,10.1c-0.1,1.8,0.4,2.6,2.4,2.5c3.9-0.2,7.8-0.2,11.7-0.5
			c2.6-0.2,5.1-1.3,7.7,0c1.7,0.8,3.1,1.5,3.2,3.6c0.1,2.1-1,3.5-2.7,4.3c-4,1.8-8.2,3-12.5,3.8c-2.6,0.5-5.2,1-7.8,1.1
			c-2.4,0.1-2.5,1.4-2.6,3.2c-0.4,15.1-2.8,30-5.6,44.8c-0.4,2-0.9,3.9-1.8,5.7c-1.4,2.8-4,4-6.5,2.9c-2.3-1-3-3.5-2-6.5
			c1.6-4.9,1.7-10,2.4-15c1.3-10.6,1.5-21.2,2.4-31.8c0.2-1.9-0.6-2.3-2.3-2.2c-6.3,0.2-12.5,0.3-18.8,0.3c-1.7,0-3.7,0.2-4.2-2
			c-0.5-2.1,1.1-3.1,2.7-3.9c6.6-3.6,13.8-4.9,21.1-6.1c2-0.3,2.7-1,2.9-3c0.5-5.9,1.1-11.8,2.6-17.5c0.5-1.9,1.1-3.9,2.3-5.5
			c0.9-1.3,2.1-2.1,3.7-1.6c1.7,0.6,1.8,1.9,1.7,3.5C919,373.5,919.2,376.8,919.1,380.1C919.1,380.1,919.1,380.1,919.1,380.1z"/>
		<path fill="#ffffff" d="M432.4,463c1.3-0.2,1.3-1,1.7-1.5c0.9-0.8,1.9-1.1,3-0.8c1.2,0.3,1.9,1.2,1.9,2.4
			c0.3,4.2-0.3,8.2-2.5,11.8c-2.3,3.9-7.7,3.5-10-0.7c-2.1-3.8-2.9-8-3.9-12.2c-3.2-14-3.3-28.1-2.5-42.3
			c0.8-12.9,1.8-25.8,4.8-38.4c0.4-1.5,0.7-3,0.4-4.5c-0.7-0.2-1,0.3-1.4,0.7c-6.4,7-12.8,13.9-18.3,21.7c-1.3,1.8-2.8,3.1-5,1.8
			c-2.2-1.3-1.7-3.4-0.5-5c9-12.9,17.5-26.2,30-36.2c2-1.6,4-3.2,6.6-3.7c1.4-0.3,3-0.5,4,1c1.1,1.6-0.5,2.5-1.3,3.4
			c-2.6,3-5.3,6-8,9c-0.9,1-1.3,1.9-0.6,3.1c1,1.8,0.6,3.7,0.2,5.6c-1.3,6.4-1.5,12.8-1.2,19.3c0.9,17.6,0.3,35.3,1.4,52.9
			C431.5,454.5,432,458.7,432.4,463z"/>
		<path fill="#ffffff" d="M747,421.9c15.3,0,23.2,7.2,24.1,21.3c0.7,11.3-1.8,22-7.4,32c-2.3,4.1-5.7,7.3-9.5,10
			c-6.4,4.4-13.3,2.3-16.3-4.9c-0.9-2.1-1.5-4.3-1.6-6.6c-0.1-1.7,0.5-3.1,2-3.9c1.5-0.8,3.1-0.6,4.4,0.4c1.1,0.9,2.2,1.9,3.2,3
			c1,1.1,1.9,1.2,2.9,0c0.3-0.4,0.7-0.8,1-1.3c4.7-8.4,8.5-17.1,9.2-26.8c0.1-0.9,0-1.8,0-2.7c-0.6-7.2-3.5-9.8-10.7-9.6
			c-6.7,0.2-13.1,1.9-19.5,3.8c-4.1,1.2-8.2,2.4-12.3,3.5c-1,0.3-2.2,0.5-3.2,0.4c-2.9-0.2-4-2.8-2.3-5.1c0.9-1.3,2.3-2.1,3.5-3
			C724.9,425.5,736.6,422.8,747,421.9z"/>
		<path fill="#ffffff" d="M569.8,398.3c4.1-4.9,8.7-7.4,14.1-8.6c8.2-1.9,14.1,2.7,14.3,11.1c0.1,4.3-1.2,8.4-2.3,12.5
			c-0.3,1.2-1,2.2,0.7,3.2c1.5,0.9,0.6,2.2-0.2,3.2c-2.7,3.2-5.9,5.9-9.5,8.1c-4.8,3-9.9,5.3-15,7.7c-2.2,1-4.4,1.2-6.1-1.1
			c-0.2-0.3-0.6-0.5-0.9-0.5c-4.7-0.2-6-3.6-6.7-7.3c-1.6-8.2-1.8-16.4-1.4-24.7c0.5-8.3,1.7-16.4,4-24.4c0.5-1.7,1-3.3,1.8-4.9
			c1-2.2,2.7-3.5,5.2-3c2.6,0.5,3.4,2.5,3.5,4.9c0.1,6-0.4,12-0.9,18C570.1,394.1,570,395.8,569.8,398.3z M569.6,399.2
			c-0.5,4.2-0.9,7.7-1.4,11.2c-0.2,1.8,0.1,2.4,2.1,1.9c5.3-1.1,10.6-2.4,16.1-1.3c1,0.2,1.3-0.2,1.5-1c0.9-3.3,1.6-6.7,1.2-10.2
			c-0.3-2.9-1.5-3.8-4.4-3.3c-3.4,0.6-6.6,1.8-9.7,3.5C573.4,400.9,571.6,401.4,569.6,399.2z M567.5,421.1c-0.7,2.8,1.9,4.8,1.4,7.5
			c-0.3,1.5,0.5,1.8,1.7,1.2c2.7-1.3,5.4-2.6,8.1-3.8c0.7-0.3,1.3-0.7,1.2-1.6c-0.2-1.6,0.8-2.5,2.1-3.2c1.1-0.6,2.1-1.5,2.7-2.6
			c0.5-0.9,1.6-1.8,0.9-2.9c-0.7-1.2-2.1-1-3.2-0.7c-3.8,0.8-7.6,2.1-11.4,2.3C567.8,417.4,567.1,418.6,567.5,421.1z"/>
		<path fill="#ffffff" d="M732.1,313.4c3.2-0.1,5.3,0.7,6.6,2.9c1.1,1.9,0.2,3.8-1.8,3.7c-5.9-0.3-10.2,2.9-14.3,6.4
			c-10.9,9.1-15.8,21.1-17.3,35c-1.6,15.4-0.7,30.7,0.3,46c0.8,12.3,1,24.7,2.4,37c0.3,3.1-0.9,4.9-3,5.3c-2.2,0.4-4.2-1.1-4.6-4.3
			c-1.9-12.5-3.8-25-4.7-37.6c-1.1-16.5-1.5-33.1,1-49.5c2.2-14.5,7.5-27.3,19.1-36.9c4.1-3.4,8.4-6.3,13.7-7.5
			C730.5,313.6,731.7,313.5,732.1,313.4z"/>
		<path fill="#ffffff" d="M625.2,409.3c-3.3-2.6-3.4-3.3-1.9-7c3.5-8.9,7.4-17.6,10.4-26.6c0.3-0.8,0.5-1.6,1-2.2
			c1.4-2.1,3.8-2,4.9,0.3c0.9,2,0.8,4.1,0.5,6.2c-0.4,3.2-1.1,6.3-2,9.3c-0.6,1.8-0.4,2.6,1.8,1.8c2.2-0.9,4.6-1.2,6.9-1.3
			c8.6-0.1,14.7,5.4,15.3,14c0.2,2.4,0.2,4.8-0.5,7c-2.8,9.1-6.5,17.7-12.5,25.2c-3,3.7-6.7,6.2-11.7,5.8c-0.8,0-1.6-0.2-2.4-0.4
			c-1.4-0.4-2.5-1.1-2.8-2.7c-0.2-1.6,0.6-2.7,1.9-3.3c6.5-2.8,8.4-9.2,11.6-14.6c0.6-1,0-1.3-0.9-1.8c-3.8-2.1-7.8-2.8-12.1-2.9
			c-1.7,0-3.5,0-5.2-0.2c-1.8-0.2-3.5-0.7-4.2-2.6C622.8,411.7,623.9,410.6,625.2,409.3z M630.2,408.1c6.5,0.6,12.8,0.6,17.6,5.4
			c0.6,0.6,1,0,1.2-0.5c0.9-3.7,2.1-7.4,1.2-11.3c-0.6-2.4-2.2-3.7-4.6-3.4C639,398.9,633.3,401.3,630.2,408.1z"/>
		<path fill="#ffffff" d="M536.8,387.1c-0.1,12.7-2.6,25.1-6.2,37.3c-0.7,2.5-1.6,5-3.4,7.1c-1.8,2.1-4.1,2.7-6.7,1.7
			c-2.5-0.9-3.6-3-3.5-5.6c0.1-1.9,0.9-3.5,2.8-3.9c1.5-0.3,1.8-1.2,2.1-2.4c1.3-5.9,2.4-11.7,3.2-17.7c0.3-2.1-0.3-2.5-2.3-2.2
			c-2.5,0.3-5.1,0.4-7.6,0.4c-1.1,0-2.2-0.3-3.2-0.6c-1.3-0.5-2.2-1.4-2-2.9c0.3-1.6,1.6-2.3,3-2.1c3.8,0.5,7.4-0.6,11-1.4
			c1.8-0.4,3.5-5.9,2.4-7.4c-0.5-0.6-1.2-0.4-1.8-0.3c-2.4,0.3-4.8,0.7-7.3,1c-1,0.1-1.4,0.6-1.7,1.5c-0.2,0.7-0.5,1.4-0.8,2
			c-0.7,1.4-1.9,2.2-3.5,2c-1.6-0.2-2.6-1.2-2.7-2.6c-0.8-6.3-0.9-12.7,1.3-18.8c0.9-2.6,2.3-5.2,3.7-7.6c1.6-2.5,3-2.8,5.7-1.4
			c0.8,0.5,1.5,0.3,2.3,0.2c6-0.9,10.5,1.7,12.8,7.3C536.6,376,536.9,381.6,536.8,387.1z M522,381c1.1,0,2.2,0,3.3,0
			c0.6,0,1.2-0.1,1.5-0.9c0.4-1.3-1.2-7.6-2.2-8.5c-0.7-0.6-1.5-0.5-2.3-0.5c-3.8,0.4-3.4,3.4-3.9,5.9
			C517.6,381.3,517.6,381.3,522,381z"/>
		<path fill="#ffffff" d="M750.7,361.5c0.1,8.5-2.8,16.7-5.5,24.9c-0.9,2.6-2.7,4.3-5.8,4.7c-2.1,0.3-4.2,1.2-6.1,2.2
			c-4.2,2.1-8.8,2.9-13.3,4c-0.7,0.2-1.4,0.2-2.2,0.2c-1.6,0.1-3.1-0.2-3.8-2c-0.6-1.7,0-3.1,1.2-4.1c3.6-3.1,7.9-4.8,12.4-6
			c1.7-0.5,3.4-0.8,5.1-0.9c1.8-0.1,2.7-0.9,3.1-2.7c0.7-2.7,1-5.5,1.5-8.3c0.3-1.9-0.4-2.3-2-1.6c-4.9,1.9-9.8,3.9-14.8,5.6
			c-2.6,0.9-5.2,1.7-7.9,2.2c-2,0.4-4.5,1.2-5.5-1.4c-1.1-2.5,1-3.8,2.8-5c5.5-3.6,11.6-5.6,17.9-7c3-0.6,6.1-1.2,9.1-1.6
			c1-0.1,1.7-0.4,1.8-1.5c0.3-3.1,0.9-6.1,0.6-9.2c-0.3-2.4-1.6-3.4-3.9-3c-1.9,0.3-3.7,0.8-5.4,1.7c-4.5,2.4-8.9,4.8-13.2,7.6
			c-1,0.6-2.1,1.6-3.2,0.5c-1.1-1.1-0.2-2.3,0.4-3.2c2.4-3.8,5.4-7,9.5-9.2c1.7-0.9,3.4-1.8,5-2.7c2.4-1.4,4.9-2.3,7.7-2.6
			c6-0.6,10.9,2.6,13.1,8.5C750.5,354.7,750.8,358,750.7,361.5z"/>
		<path fill="#ffffff" d="M1011.9,365.3c-1.3,20.4-4.1,39.7-6.1,59.2c-0.8,7.4-1.5,14.9-2.8,22.2c-0.2,1.3-0.6,2.7-1.1,3.9
			c-0.9,2.1-2.5,3.3-4.9,3.1c-2.3-0.2-3.6-1.7-4.1-3.8c-0.3-1.4-0.4-2.9-0.4-4.3c-0.5-12.3,1.2-24.5,2.9-36.6
			c2.2-15.7,4-31.5,7.1-47.1c0.5-2.3,1-4.6,2.2-6.7c1-1.8,2.5-2.9,4.7-2.4c2.2,0.5,2.5,2.3,2.5,4.2
			C1011.9,360,1011.9,363.1,1011.9,365.3z"/>
		<path fill="#ffffff" d="M487.6,383c0.2,1.5-0.9,3.7,1.4,5.1c0.5,0.3,0.2,1.2-0.2,1.8c-2.3,3.5-3.9,7.4-8.3,9.6
			c-5.4,2.6-10,6.9-14.9,10.5c-0.9,0.6-0.8,1.6-0.8,2.5c-0.1,4.5-0.3,9.1-0.4,13.6c-0.1,2.4-0.3,4.7-3.2,5.2
			c-2.3,0.4-4.3-1.2-5.2-4.2c-1.2-4.4-1.5-9-1.6-13.5c-0.4-11.7,0.3-23.3,3.4-34.6c0.8-2.8,1.4-6,4.2-7.4c5-2.6,9.7-6.3,15.9-5.3
			c4.5,0.8,7.4,3.3,8.8,7.6C487.4,376.7,487.5,379.7,487.6,383z M465.4,402.4c0,0.1,0,0.9,0.3,1.1c0.6,0.4,1.2-0.2,1.7-0.5
			c2-1.3,4-2.5,6-3.8c3.4-2.2,4.8-5.6,5.6-9.4c0.4-1.9-0.2-2.4-2.2-1.9c-3.4,0.9-6.2,3.4-10,3.3c-0.9,0-0.7,1.1-0.8,1.8
			C465.8,396,465.6,399,465.4,402.4z M466.8,383.6c-0.1,0.8-0.1,1.2-0.1,1.5c0,0.6-0.2,1.5,0.1,1.8c0.7,0.7,1.2-0.3,1.8-0.6
			c1.8-0.7,3.5-1.5,5.3-2c5.4-1.6,5.4-1.6,3.7-7.1c-0.1-0.3-0.2-0.7-0.3-1c-0.6-1.6-1.7-2.1-3.2-1.4
			C470.2,376.8,466.1,378.6,466.8,383.6z"/>
		<path fill="#ffffff" d="M1307.1,195.3c-1.3,0.7-1.5,1.7-1.9,2.5c-3.8,7.5-7.8,14.8-11.2,22.4c-0.7,1.6-1.5,3.1-2.7,4.4
			c-2.1,2.3-5.2,3-7.6,1.8c-2.4-1.2-3.5-3.8-2.6-7c1.6-5.8,3.6-11.5,6.7-16.6c3.6-5.8,6.9-11.8,11.2-17.1c2.7-3.4,6-5.7,10.2-6.9
			c1.6-0.4,3.1-0.7,4.2,0.9c1,1.6,0.1,2.7-1.1,3.7c-0.7,0.6-1.7,1.5,0,1.9c4.5,1.2,5.8,4.9,6.9,8.7c1,3.6,1.8,7.2,3.6,10.6
			c0.6,1.1,1.1,1.9,2.5,2.2c3.8,0.9,4.9,4.3,2.7,7.5c-2.7,3.9-8.4,4.3-12.3,0.8c-2.5-2.2-3.6-5.2-4.6-8.2
			C1309.7,203.1,1308.4,199.3,1307.1,195.3z"/>
		<path fill="#ffffff" d="M713.8,468.4c4.3-1.9,7.9-3.4,11.4-4.9c0.8-0.4,1.2-1.1,1.3-2c0.2-1.4,0.5-2.9,0.6-4.3
			c0.1-1.7,0-3.7,2.3-4c2.4-0.2,3.1,1.7,3.7,3.6c1,3.1-0.7,5.9-1.2,8.8c-0.9,5.2-2.5,10.2-4.9,14.9c-1,1.9-2.3,3.4-4.5,3.4
			c-1.2,0-2.4-0.4-2.9-1.6c-0.5-1.2,0.1-2.1,1.1-2.8c1.6-1.2,1.7-3,2.3-5c-1.3,0-2.2,0.8-3.1,1.2c-6.7,3.2-13,7.5-20.6,8.1
			c-0.8,0.1-1.6,0.2-2.4,0.2c-6.2,0.1-11.9-1.2-15.4-6.9c-3.6-6-2.5-12.2,0.1-18.3c0.4-0.9,1.1-1.7,1.9-2.2c0.9-0.5,1.8-1,2.8-0.3
			c0.9,0.6,0.9,1.5,0.7,2.4c-0.6,2.6-0.4,5.2,0.2,7.8c0.9,4.1,2.6,5.5,6.8,5.8c3.4,0.3,6.7-0.6,9.9-1.3c1.4-0.3,1.5-1.4,1.6-2.5
			c0.7-4.7,1.8-9.3,3.9-13.6c0.8-1.6,1.6-3.1,3.1-4.1c1.1-0.7,2.4-1,3.6-0.3c1.2,0.7,1.3,1.9,1,3.1
			C716.3,458.5,715.6,463.1,713.8,468.4z"/>
		<path fill="#ffffff" d="M764.2,242.5c0,2.7-0.1,5.5-0.8,8.1c-1.1,3.8-3.9,6.3-7.5,6.4c-3.5,0.2-6.5-1.8-8-5.4
			c-0.6-1.4-1-2.9-1.4-4.4c-2.5-10.2-3.4-20.6-3.9-31c0-0.9,0-1.8,0.2-2.7c0.7-4.2,4.2-6.1,8.1-4.3c3,1.4,5,3.9,6.6,6.7
			C762.2,224.1,763.8,233.2,764.2,242.5z"/>
		<path fill="#ffffff" d="M344.4,134.7c1.8,0.1,3.8,0.3,4.9,2.4c1,1.9-0.2,3.4-1.1,5c-7.9,14.9-20.2,26.2-31.6,38.3
			c-1.1,1.2-2.5,2.2-4.1,2.5c-2.3,0.5-4.4,0-5.9-1.8c-1.5-1.8-1.5-3.8-0.6-5.9c0.3-0.7,0.7-1.5,1.2-2.1c6.9-9,13.7-18.1,20.7-27
			c2.5-3.2,5.5-6,8.8-8.5C338.8,135.9,341.3,134.8,344.4,134.7z"/>
		<path fill="#ffffff" d="M1059.1,393.3c-0.1,2.3-2.1,4.3-4.4,3.8c-2.1-0.5-3.9,0.1-5.8,0.6c-8.7,2.5-17.4,5.1-26.4,6.5
			c-1.6,0.2-3.3,0.3-4.9,0.2c-1.6-0.1-3-0.8-3.5-2.5c-0.6-1.8,0.2-3.2,1.7-4.3c3-2.2,6.5-3.1,10-4.3c3-1,4.9-4.5,4.2-7.5
			c-0.3-1.2-1-0.7-1.6-0.6c-2.1,0.5-4.3,1-6.5,0.9c-1.7-0.1-3.3-0.5-3.9-2.4c-0.5-1.8,0.4-3.2,1.9-4.2c2.7-1.9,5.8-3,9-3.8
			c2-0.5,3.2-1.2,3.4-3.4c0.2-2.1,1.2-4,2.8-5.5c1-0.9,2.1-1.5,3.5-0.8c1.3,0.7,1.2,1.9,1,3.1c0,0.2-0.1,0.3-0.1,0.5
			c-0.7,3.7-0.7,3.7,3,3.2c1.2-0.1,2.4-0.2,3.5-0.3c1.5,0,2.7,0.4,3.1,2c0.4,1.6-0.3,2.7-1.7,3.4c-2.5,1.2-5.1,2.6-7.7,3.3
			c-2.7,0.8-3.6,2.6-4.1,5c-1.1,4.5-1.2,4.5,3.3,3.6c4.9-0.9,9.9-1.2,14.9-1.3C1057,388.8,1059.2,390.8,1059.1,393.3z"/>
		<path fill="#ffffff" d="M403.5,162.3c-3-0.1-5.3-0.6-7.7-1.5c-5.6-2-11.3-4.1-16.9-6.1c-2.2-0.8-4.4-1.8-6.2-3.3
			c-3-2.7-2.8-6.3,0.6-8.4c1.1-0.7,2.4-1.3,3.7-1.6c8.6-2,17.2-2.2,25.8,0.5c2.9,0.9,5.6,2.2,7.8,4.3c2.8,2.7,4.5,5.8,3.3,9.8
			c-1.2,3.8-4.3,5.4-8,6.1C405,162.2,404,162.2,403.5,162.3z"/>
		<path fill="#ffffff" d="M1039.9,430.5c3,0,5.5-0.1,8,0c1.7,0.1,3.4,0.5,4.9,1.6c1.6,1.2,2.4,2.7,2.2,4.7c-0.3,1.9-1.5,3.1-3.2,3.7
			c-2.1,0.8-4.3,1-6.4,1c-4,0-8,0.3-12,0.7c-10.2,1-13.9-2.7-13.2-13c0.2-2.5,0.5-5.1,1.3-7.5c0.7-2.1,1.6-4,4.2-4.4
			c0.6-0.1,1.2-0.8,1.8-1.1c1.2-0.7,2.3-1.6,3.5-2.1c4.2-1.9,8.5-1.1,11,1.8c2.5,2.9,2.7,7,0.5,10.9
			C1041.7,427.9,1040.8,429,1039.9,430.5z M1026.9,428.6c0,1.4,0,1.5,0.9,1.4c2.1-0.3,6.7-4.8,7-6.8c0.1-0.9,0.1-1.4-1-1.3
			C1030.9,422,1027,425.8,1026.9,428.6z"/>
		<path fill="#ffffff" d="M682.6,256.7c-4.2-0.1-6.5-3.3-5-7.2c1.8-4.8,4.4-9.2,7-13.6c4.4-7.6,8.8-15.3,13.8-22.5
			c3.1-4.5,5.5-5,10.1-2.2c0.9,0.6,1.8,1.3,0.9,2.4c-2.7,3.3-3.8,7.4-5.4,11.1c-4.5,10.1-9.8,19.7-16,28.8
			C686.6,255.3,685.1,256.7,682.6,256.7z"/>
		<path fill="#ffffff" d="M817.8,429c-3.6,0.2-7.3,0.4-10.9,0.5c-2,0.1-4,0.1-6-0.1c-2-0.2-4.6,0.1-5-2.7c-0.4-2.7,2-3.4,3.9-4.1
			c8.8-3.5,18-4.9,27.4-5.5c6-0.4,12-0.1,18,0.2c1.9,0.1,3.8,0.4,5.7,0c1.6-0.3,3.2-0.3,4,1.4c0.8,1.7,0.5,3.4-0.7,4.8
			c-1.3,1.6-3.1,2.2-5,2.5C838.9,427.8,828.4,428.7,817.8,429z"/>
		<path fill="#ffffff" d="M493.8,177.5c-2.5-0.1-4.7-0.7-5.5-3.2c-0.8-2.3,0.4-4.1,2.1-5.4c8.3-6.4,17.5-11,27.9-12.7
			c2.2-0.3,4.3-0.6,6.5-0.2c3.3,0.6,5.5,2.4,5.8,4.9c0.3,2.4-1.2,4.7-4.2,6.1c-1.2,0.6-2.5,1.1-3.9,1.3c-6.1,1-11.9,3-17.5,5.8
			C501.5,175.7,497.8,177.1,493.8,177.5z"/>
		<path fill="#ffffff" d="M158.7,114.1c-0.6,7.2,1.5,12.1,7.7,15.1c3.6,1.7,4.8,4.8,3.9,7.5c-1,2.9-4.3,4.4-8.1,3.9
			c-7.9-1-19.4-14.4-17-23.7c0.8-3.1,1.7-6.1,3.9-8.6c1.7-2,3.9-3.1,6.6-2.1c2.7,1,3.1,3.3,3.1,5.8
			C158.7,113,158.7,113.9,158.7,114.1z"/>
		<path fill="#ffffff" d="M936.8,194.5c4.5,0.4,8.7,2.4,12.5,5.5c3.5,2.9,6.4,6.4,10.1,9.1c3.2,2.4,2.5,7.1-1.1,9.1
			c-2.4,1.3-4.9,1.1-7.4,0.1c-8.4-3.2-15-8.8-20.2-16c-1-1.4-1.4-3-0.5-4.6C931.6,195.3,933.9,194.6,936.8,194.5z"/>
		<path fill="#ffffff" d="M98.9,143.3c-4.1,0-6.8-3.7-5-7c4.9-9.1,10.4-17.7,18.7-24.1c2-1.5,4.3-2.4,6.5-0.7c2.3,1.7,1.8,4.1,1,6.4
			c-1.4,3.8-3.7,7.1-6.2,10.2c-3.1,3.9-6.3,7.7-9.5,11.6C102.9,141.6,101.2,143.2,98.9,143.3z"/>
		<path fill="#ffffff" d="M837,375.7c2.8,0.4,5,0.3,7.2,0.9c1.9,0.6,3.3,1.7,3.5,3.7c0.2,2.2-0.9,3.7-2.8,4.5
			c-3.1,1.4-6.3,2.3-9.7,2.7c-6.6,0.8-13.2,1.5-19.8,2.1c-1.1,0.1-2.2,0.1-3.3,0.1c-1.9-0.1-3.7-0.5-4.3-2.7
			c-0.6-2.2,0.7-3.6,2.4-4.7c0.4-0.3,0.8-0.5,1.2-0.7C819.6,377.5,828.5,375.9,837,375.7z"/>
		<path fill="#ffffff" d="M276.1,381.7c2.1-9.7,5.7-19.6,15.2-26.1c0.7-0.5,1.4-0.8,2.2-1.1c2-0.7,4.2-1.5,5.6,0.8
			c1.8,2.9,1.1,6.3-1.5,7.6c-3.4,1.7-5.3,4.5-6.7,7.9c-1.3,3.1-2.3,6.3-3.1,9.6c-0.5,1.8-1,3.5-2.1,5c-1.7,2.4-4,3.4-6.3,2.6
			C276.9,387.1,276.3,385,276.1,381.7z"/>
		<path fill="#ffffff" d="M1395.5,134.6c0.2-1.6,0.4-3.2,0.7-4.8c0.5-2.3,1.9-3,4-1.8c0.8,0.4,1.5,1,2.1,1.7
			c3.3,4.2,5.9,8.7,8.5,13.3c1.5,2.6,0.7,5.5-1.5,7c-2.4,1.7-6.2,1.5-7.9-1C1398.6,144.8,1396,140.2,1395.5,134.6z"/>
		<path fill="#ffffff" d="M985.2,374.9c-0.1,2.2-0.2,4.2-0.4,6.2c-0.1,1.1-0.7,2.2-2,2.1c-1.3,0-1.9-0.9-2-2.1
			c-0.8-10.9-3.7-21.4-6-32c-0.2-1.2-0.4-2.3,0-3.5c0.5-1.3,1.4-2.1,2.9-2c1.4,0.1,2.2,0.8,2.4,2.2c1.2,7.7,4,15.1,4.7,22.9
			C984.9,370.8,985.1,372.9,985.2,374.9z"/>
		<path fill="#ffffff" d="M717.9,416.4c-1.3-0.1-2.6-0.3-3.2-1.7c-0.5-1.3-0.4-2.5,0.5-3.6c1-1.2,2.3-2,3.8-2.6
			c6.5-2.7,13.3-4.3,20.4-4.4c1.3,0,3.1-0.6,3.5,1.5c0.4,2.1-1.3,2.6-2.7,3.1c-2,0.7-4.2,1.3-6.3,1.7c-4.6,0.9-9,2.3-12.9,4.8
			C720,415.8,719.1,416.3,717.9,416.4z"/>
		<path fill="#ffffff" d="M375.5,357.3c-0.1-1.8,1.1-3.9,2.2-5.9c0.9-1.8,3.7-1.8,5.2-0.2c1.1,1.3,2.2,2.8,2.5,4.4
			c0.5,2.3,0.7,4.7,0.8,7c0.2,2.3-0.8,4.2-3,4.9c-2.3,0.8-4-0.4-5.4-2.2C376.1,363.2,375.6,360.7,375.5,357.3z"/>
	</g>
</g>
</svg>
