<?xml version="1.0" encoding="utf-8"?>
<!-- Generator: Adobe Illustrator 18.0.0, SVG Export Plug-In . SVG Version: 6.00 Build 0)  -->
<!DOCTYPE svg PUBLIC "-//W3C//DTD SVG 1.1//EN" "http://www.w3.org/Graphics/SVG/1.1/DTD/svg11.dtd">
<svg version="1.1" xmlns="http://www.w3.org/2000/svg" xmlns:xlink="http://www.w3.org/1999/xlink" x="0px" y="0px"
	 viewBox="0 0 336 342" enable-background="new 0 0 336 342" xml:space="preserve">
<g id="Color_New_xA0_影像_1_">
	<g>
		<path fill="#B7CBCE" d="M164.2,146.6c-6.2,0.4-11.9-0.4-17.6,0.6c-1.7,0.3-3.4,0.7-5.1,1c-2.7,0.5-4.5-0.9-4.5-3.6
			c0-10.4-0.1-20.9,0.1-31.3c0-2.6,0.4-5.2,0.5-7.9c0.1-1.8,0.9-3.3,3.6-3.4c-2.9,2.2-2.2,5-2.1,7.7c0.1,10.1,0,20.2,0,30.2
			c0,0.7,0,1.5,0,2.2c0,1.7,0.7,2.9,2.5,2.9c1.8,0,2.9-1.1,3-2.9c0.1-2.8,0-5.6,0-8.4c0-7.4,0-14.7-0.1-22.1c0-2,0.6-2.5,2.6-2.6
			c10.2-0.5,20.5-0.5,30.7-0.5c3.4,0,4.4-1.8,2.9-4.9c2.1,1.3,2.3,1.9,1.9,5.4c-1.1,9.6-0.5,19.2-0.4,28.8c0.1,6.1-1.1,8.1-7.2,8.8
			c-2.1,0.3-4.2,0.1-6.2,0.5c-1.5,0.3-2,0.1-1.2-1.9c1-2.5,0.2-5.4,0.3-8.1c0-1.1,0-2.2,0-3.3c0-1.1,0.1-1.9,1.5-2
			c1.6-0.1,2.8-1.1,2.8-2.8c0-1.5-1.2-2.5-2.6-2.6c-1.4-0.1-1.7-0.7-1.6-1.9c0.1-1.9,0.2-3.8,1.5-5.4c0.9-1.1,0.9-2.1-0.1-3.2
			c-1-1.1-2.1-1.3-3.4-0.6c-2,1-2.4,2.9-2.9,4.7c-0.3,1.4-0.6,2.9-0.5,4.3c0.1,2.1-0.7,2.7-2.7,2.6c-2.7-0.2-5.4,0.1-8.1,0.5
			c-1.8,0.3-2.5,1.3-2.4,3c0.1,1.7,1.2,2,2.6,2c2.8,0,5.6,0,8.4-0.1c1.5-0.1,2.1,0.5,2.1,2c-0.1,2.6,0.1,5.3,0,7.9
			C162.6,143.8,163.2,145.1,164.2,146.6z"/>
		<path fill="#E9D08D" d="M234.2,272.9c0.1,2.9-1.6,4.2-3.4,5.5c-5.7,4.4-11.5,8.6-17.1,13.1c-6.4,5.2-12.3,11-17.8,17.2
			c-2.6,3-4.8,2.8-7.4-0.2c-1-1.2-2.2-2.2-3.2-3.3c-1.5-1.7-1.7-3.3-0.2-5.3c3.1-4.2,7.3-7.2,11.4-9.9c8.8-5.8,16.1-13.2,23.6-20.5
			c1.2-1.2,2.4-2.5,3.7-3.6c2-1.7,7.5-1.5,8.6,0.6C233.5,268.4,233.7,270.9,234.2,272.9z"/>
		<path fill="#B7CBCE" d="M173.4,102.9c-9-0.5-17.9,1.1-27.4,0.6C149.4,101.6,163.6,101.4,173.4,102.9z"/>
	</g>
</g>
<g id="CTA_Frame_New_xA0_影像_1_">
	<g>
		<path fill="#222222" d="M159.1,66.3c32.9,0,65.8,0,98.7,0c0.5,0,0.9,0,1.4,0c6.4-0.5,6.5,0.6,6.5,6.5c-0.2,21-0.2,42-0.7,63
			c-0.5,20,0.8,40,0.2,60c-0.1,4.3-0.5,4.9-4.9,4.9c-17.3,0.2-34.5-0.1-51.8-0.5c-3.9-0.1-7.8,0-11.7-0.1c-1.7,0-1.7,0.6-1.1,1.9
			c4.5,10.2,8.7,20.5,13.1,30.8c4.3,10.2,11.3,18.3,18.6,26.3c3.1,3.4,7.1,6,9.9,9.8c2,2.8,2,4.2-0.5,6.6
			c-5.2,5.3-11.3,9.6-16.7,14.8c-1.9,1.8-2.1,3.2-0.6,5.1c0.9,1.1,1.8,2.2,2.7,3.4c0.9,1.2,1.3,2.4,0.5,3.8
			c-0.8,1.4-2.1,1.5-3.6,1.4c-3-0.3-5.4-2.1-8.2-2.9c-1.7-0.5-2.9-0.3-4.1,0.9c-4,3.8-8.2,7.5-12.3,11.2c-2.6,2.3-4.9,2.3-7.1-0.3
			c-9.7-11.7-20.6-22.3-30.5-33.8c-8.3-9.6-15.7-19.8-22.4-30.5c-1-1.7-1.8-2.3-3.7-1c-2.1,1.4-4.6,2.2-7.2,1.8
			c-2.2-0.4-3.9-1.6-4.8-3.7c-0.6-1.6-1.3-2.2-3.2-2c-3.4,0.3-5.7-1.5-6.4-4.9c-0.3-1.5-0.8-1.9-2.3-1.7c-4.1,0.3-6-1-7.4-4.9
			c-0.3-0.8-0.4-1.4-1.5-1.6c-3.9-0.7-5.5-2.4-5.9-6.3c-0.6-7.2,1.1-14.1,3.2-20.9c1-3.2,1.1-3.1-2.4-3.1c-12.5,0-25.1-0.2-37.6-0.2
			c-2.5,0-3.7-1.3-3.9-3.6c-0.1-1.1-0.1-2.2-0.1-3.3c-0.1-20,0.1-40-0.2-60c-0.3-20.3-0.1-40.5-0.3-60.8c0-0.9-0.1-1.8,0.1-2.7
			c0.4-3,1.8-4.1,5.3-4.1c12.5,0,25.1,0.1,37.6,0.1c21.7,0,43.4,0,65.2,0C159.1,65.9,159.1,66.1,159.1,66.3z M258.8,135.7
			c0.2,0,0.3,0,0.5,0c0-4.3,0-8.5,0-12.8c0-14.6,0.1-29.3,0.2-43.9c0-2,0-3-2.4-1.6c-23.6,13.7-47.3,27.4-71,41.1
			c-1.6,0.9-2.1,1.9-2,3.7c0.2,7.5,0.2,14.9,0.2,22.4c0,3.6-0.7,4.3-4.3,4.4c-13.1,0.2-26.2,0.4-39.3,0.6c-3.6,0-4.5-0.9-4.6-4.5
			c-0.1-7.3-0.3-14.5-0.3-21.8c0-2.2-0.8-3.4-2.7-4.4C108.7,105,84.3,91.2,60,77.4c-2.9-1.6-2.9-1.6-2.9,1.8
			c-0.1,26.2-0.3,52.5,0.3,78.7c0.3,11.2,0.1,22.4,0,33.5c0,2,0.5,2.6,2.6,2.6c10.2-0.1,20.4,0,30.5,0.1c8.1,0,16.2,0.1,24.3,0.2
			c1.9,0,2.7-0.6,2.4-2.5c-0.4-2.4-0.6-4.9-1-7.3c-0.7-3.9-0.3-7.7,0.9-11.3c1.9-6,8.1-7.6,13-3.8c7.3,5.7,11.3,13.4,13.5,22.2
			c0.5,2,1.4,2.5,3.4,2.5c36.4,0.2,72.7,0.5,109.1,0.9c2.3,0,2.9-0.7,2.9-2.9C258.7,173.3,258.8,154.5,258.8,135.7z M199.5,266.9
			c0.1-0.2,0.3-0.5,0.5-0.8c1.9-3.4,3.8-3.7,6.2-0.8c1.1,1.2,2,2.6,2.9,4c1.8,2.9,1.8,2.9,4.3,0.8c2.6-2.2,5.2-4.6,7.9-6.7
			c1.6-1.2,1.8-2.1,0.3-3.6c-3-2.9-5.9-6-8.7-9c-8.2-8.5-12.4-19.1-16.3-29.9c-2.3-6.3-3.8-12.9-7.1-18.8c-0.6-1.2-1.4-2-2.9-2
			c-12.8,0-25.6-0.1-38.4-0.2c-1.8,0-1.7,0.8-1.2,2c0.9,2.2,1.8,4.3,2.7,6.6c0.3,0.8,1.4,1.8,0.3,2.6c-1,0.7-2.3,0.5-3.4-0.1
			c-0.9-0.5-1.5-1.3-1.9-2.2c-2.2-4.6-4.7-9-6.4-13.8c-2.2-6.3-5.7-11.9-9.1-17.6c-0.5-0.8-1.1-1.4-1.8-2c-2.4-2-4.3-1.4-4.9,1.6
			c-0.4,1.6-0.3,3.2-0.2,4.9c0.3,8,1.8,15.9,2.1,23.9c0.4,11.3,3.7,22,9.6,31.7c4,6.5,8.2,12.9,12.5,19.2
			c9.5,14.1,21.3,26.2,32.6,38.8c1.1,1.2,1.9,1.3,3,0c2.7-3.2,6-5.8,9.2-8.5c1.4-1.2,2-2.4,1.8-4.2c-0.3-4.4-1.1-8.9-0.6-13.3
			c0.2-1.9,0.2-4.2,2.5-5c2.4-0.8,3,1.4,4.2,2.6C199.1,266.9,199.2,266.8,199.5,266.9z M135.6,113.6c0-3.4,0-6.2,0-9
			c0-2.2,1.2-3.3,3.4-3.4c13.7-0.2,27.4-0.4,41.2-0.5c2.2,0,3.3,1.1,3.4,3.3c0.1,2.1,0.3,4.2,0.2,6.3c-0.1,2.2,0.3,2.8,2.5,1.5
			c22-12.8,44-25.5,66-38.2c0.6-0.4,1.6-0.5,1.8-1.9c-64.1,0-128.1,0-192.7,0C86.2,85.6,110.6,99.4,135.6,113.6z M178.5,125
			c-0.2,0-0.5-11.1-0.5-16.6c0-1.4-0.3-2.2-1.9-2.1c-11,0.2-22,0.4-33,0.5c-1.3,0-2,0.3-2,1.8c0.2,11.1,0.3,22.2,0.4,33.2
			c0,1.4,0.5,2,1.9,1.9c2.2-0.1,4.4,0,6.5-0.2c2.8-0.2,6.6,1.1,8-0.8c1.3-1.8,0.2-5.4,0-8.2c-0.3-3.8-0.3-3.8-4.1-3.9
			c-1.8,0-3.5-0.3-3.5-2.5c-0.1-2.1,1.3-3.3,3.4-3.6c4.1-0.6,4.1-0.6,4.6-4.7c0.1-0.6,0.2-1.3,0.3-1.9c0.9-5.3,5.1-6.1,9.3-5.4
			c1.9,0.3,2.7,1.8,2.7,3.6c0,1.4-0.8,2.4-2.2,2.3c-2.6-0.1-2.3,1.7-2.3,3.3c-0.1,2.5,1.8,1.5,2.9,1.6c2,0.2,3.8,0.7,3.6,3.1
			c-0.2,2.2-1.4,3.8-3.9,3.5c-2.3-0.3-2.8,0.7-2.7,2.8c0.1,3,0.4,6-0.3,9c-0.3,1.5,0.6,1.4,1.6,1.4c2.9,0,5.8-0.2,8.7,0
			c2.1,0.1,2.8-0.5,2.8-2.7C178.4,135.4,178.5,130.2,178.5,125z M109.9,200.3C109.9,200.3,109.9,200.3,109.9,200.3
			c-2.1,0-4.2,0-6.3-0.1c-1.2,0-1.7,0.4-2.3,1.6c-2.4,6.1-3.1,12.6-4.3,19.1c-0.3,1.5-0.2,3.1,1.3,3.9c1.5,0.8,3,0.2,4.2-0.9
			c0.6-0.6,1.3-1.3,1.8-2c2-2.8,3.8-5.7,5.8-8.5c2.3-3.2,4.7-6.2,7.1-9.3c0.7-0.9,1.1-2,0.6-3c-0.4-0.9-1.4-0.6-2.2-0.6
			C113.7,200.3,111.8,200.3,109.9,200.3z M227.4,266.3c-0.6,0.5-1.1,0.8-1.5,1.1c-2.4,1.9-4.9,3.8-7.2,5.8
			c-5.1,4.3-5.1,4.3-3.1,10.5c0.6,1.7,1.1,2,2.5,0.8c4-3.7,8.1-7.2,12.2-10.9c0.7-0.7,2.3-1.3,1.6-2.5
			C230.6,269.3,228.9,267.9,227.4,266.3z M121.4,219c-0.4-1.8-0.8-3.5-1.2-5.3c-0.4-2.1-1.6-1.8-2.5-0.6c-4,4.9-7.8,10-12.4,14.4
			c-1,1-1.1,2.6-0.2,3.8c0.8,1,2,0.5,3,0c1.1-0.5,2.2-1,3-1.8c3.2-2.8,6.3-5.7,9.5-8.5C121.2,220.3,121.5,219.8,121.4,219z
			 M201.4,298.4c0-0.6-0.3-0.7-0.6-0.9c-6-4.3-6-4.3-11.7,0.5c-0.1,0.1-0.3,0.2-0.4,0.3c-3.5,2.9-3.5,2.9-0.7,6.4
			c0.6,0.8,1.3,1.5,1.9,2.3c0.8,1.1,1.5,1,2.4,0.1c2.8-2.6,5.6-5.2,8.3-7.8C200.9,299,201.2,298.7,201.4,298.4z M125,231.3
			c-0.3-0.8-0.7-2-1.1-3.2c-0.5-1.8-1.3-1.8-2.6-0.6c-2.4,2.2-4.8,4.4-7.3,6.5c-1.8,1.4,0.1,2.4,0.3,3.5c0.2,1.2,1.2,1.1,2.2,0.7
			c2.9-1.3,5.5-3.1,8-5.1C124.9,232.8,125.2,232.3,125,231.3z M125.3,244.2c1.5-0.1,5.1-2.1,4.8-2.8c-0.6-1.3-0.9-3-2.5-3.6
			c-0.7-0.3-4.8,3.3-4.7,4C123.2,243,123.6,244.3,125.3,244.2z"/>
		<path fill="#222222" d="M286.6,221.2c0,1.7-1.1,2.6-2.4,3.3c-2.6,1.4-5,3-7.1,5c-2.5,2.3-4.2,4.9-3.9,8.6c0.2,1.8-0.3,3.6-2.5,3.9
			c-2.2,0.3-3-1.3-3.6-3c-0.7-2.2-1.3-4.3-2.1-6.5c-1-3-2.7-5.5-5.2-7.5c-3-2.4-2.7-4.8,0.8-6.4c2.5-1.2,4.9-2.3,7.1-4
			c2.2-1.7,4.1-3.6,4.2-6.7c0-1,0.6-1.9,1.2-2.7c0.7-1.1,1.7-1.6,3-1.3c1.4,0.3,1.9,1.4,1.9,2.6c0,1.6,0.2,3.1,0.6,4.6
			c0.8,3,2.5,5.4,5.5,6.7C285.6,218.4,286.7,219.4,286.6,221.2z M269.9,228.8c2.2-2.6,4.6-4.8,7.3-6.7c0.5-0.3,1.4-0.7,0.6-1.4
			c-1.2-1.2-2.3-2.5-3.2-4c-0.5-0.7-0.9-0.2-1.3,0.1c-0.7,0.6-1.4,1.2-2,1.8c-1.6,1.7-5.2,2.1-5.2,4.2
			C266,224.6,268.4,226.6,269.9,228.8z"/>
		<path fill="#222222" d="M58.6,23.8c2.6-0.3,3.6,0.7,3.8,3.2c0.3,3.3,1.3,6.4,5.3,7.3c1.2,0.3,2.1,1.1,2.3,2.4
			c0.2,1.4-0.4,2.5-1.7,3.2c-5,2.5-8.3,6.3-9.4,11.9c-0.3,1.4-1.3,2.4-2.9,2.4c-1.6-0.1-2.5-1.1-2.8-2.6c-0.5-2.5-1-5-2.1-7.3
			c-0.9-1.9-2-3.4-4.5-3.2c-1.5,0.1-2.7-0.5-3.1-2.1c-0.4-1.6,0.5-2.6,1.9-3.3c4.4-2.3,8-5.3,9.6-10.2
			C55.5,23.8,57.2,23.7,58.6,23.8z M58,33c-1.4,1.2-2.8,2.5-4.2,3.7c-0.6,0.5-0.6,0.9-0.1,1.6c1,1.2,1.9,2.6,2.9,3.9
			c4.4-4,4.4-4,1.7-8.8C58.1,33.1,57.9,32.9,58,33z"/>
	</g>
</g>
</svg>
