<?xml version="1.0" encoding="utf-8"?>
<!-- Generator: Adobe Illustrator 18.0.0, SVG Export Plug-In . SVG Version: 6.00 Build 0)  -->
<!DOCTYPE svg PUBLIC "-//W3C//DTD SVG 1.1//EN" "http://www.w3.org/Graphics/SVG/1.1/DTD/svg11.dtd">
<svg version="1.1" xmlns="http://www.w3.org/2000/svg" xmlns:xlink="http://www.w3.org/1999/xlink" x="0px" y="0px"
	 viewBox="0 0 808 360" enable-background="new 0 0 808 360" xml:space="preserve">
<g id="_xFFFD__x83__x8C__xFFFD__x99__xA0_影像_1_">
</g>
<g id="_xFFFD__x9C__x96_撅_xFFFD__4_xA0_影像_9_">
</g>
<g id="_xFFFD__x9C__x96_撅_xFFFD__2_xA0_影像_1_">
</g>
<g id="敺_x9E__xFFFD__xF880_詨_x8F__x96_蝭_x84__xFFFD__x9C__x8D__xA0_影像_1_">
</g>
<g id="_xFFFD__x9C__x96_撅_xFFFD__3_xA0_影像_1_">
</g>
<g id="_xFFFD__x9C__x96_撅_xFFFD__4_xA0_影像_7_">
</g>
<g id="_xFFFD__x9C__x96_撅_xFFFD__4_xA0_影像_5_">
</g>
<g id="_xFFFD__x9C__x96_撅_xFFFD__4_xA0_影像_3_">
</g>
<g id="_xFFFD__x9C__x96_撅_xFFFD__7_xA0_影像_1_">
	<g>
		<g>
			<g>
				
					<path fill="#369EBB" stroke="#FFFFFF" stroke-width="20" stroke-linecap="round" stroke-linejoin="round" stroke-miterlimit="10" d="
					M480.9,305.5c-15.6-8.9-26.3-22.5-35.1-37.8c-0.9-1.6-1.7-3.4-2.3-5.2c-0.5-1.4-0.2-2.8,1.4-3.3c15.2-5.2,30-11.5,45.4-15.9
					c2.1-0.6,4.1-1.5,6-2.6c2.1-1.3,4.1-0.8,4.7,1.3c1.1,4.2,4.4,6,7.8,7.9c3.1,1.7,6.3,3.3,9.3,5.1c3.5,2.1,3.4,5,0,7.2
					c-1.3,0.8-2.8,1.3-4.2,1.9c-3.5,1.4-5.7,4-6.8,7.6c-0.2,0.8-0.5,1.9-1,2.1c-4.2,1.6-3.3,5.8-4.7,8.9c-1.2,2.6-2.3,4.9-5.4,5.5
					c-0.4,0.1-0.8,0.1-0.8,0.5c0.2,4.2-4.9,6.3-4.3,10.7c0.2,1.2-0.8,2.7-2,2.6c-2.9-0.1-4,2.2-5.8,3.6
					C482.4,305.5,481.6,305.5,480.9,305.5z"/>
				
					<path fill="#369EBB" stroke="#FFFFFF" stroke-width="20" stroke-linecap="round" stroke-linejoin="round" stroke-miterlimit="10" d="
					M375.9,104.3c-1.5,1.9-3.1,3.1-5.3,1.1c-0.4-0.3-0.8-0.4-1.2-0.1c-1.4,0.7-2.5,0.2-3.8-0.4c-1.5-0.8-3.3-0.8-5-0.6
					c-2.4,0.2-3.5-1-3.5-3.4c0-3.4,1.3-6.2,3.6-8.5c0.5-0.6,0.9-1,1-1.8c0.1-0.7,0.2-1.7,0.7-2c1.8-1.3,2.4-3.8,3.7-4.8
					c2-1.5,3.8-3.2,5.9-4.5c1.3-0.8,2.3-1.6,3.2-2.9c2.6-3.9,6.2-6.9,9.8-9.8c9.7-7.7,19.7-14.9,30.3-21.4c2.2-1.4,4.6-2.6,7.1-3.4
					c1.7-0.5,3.5-0.9,4.7,0.9c1.2,1.6,0.4,3.1-0.5,4.5c-2.2,3.4-4.1,6.8-5.6,10.6c-1.1,2.6-1.3,5,0.3,7.5c1.4,2.2,1.3,4.7,0.9,7.1
					c-0.2,1.3-0.5,2.7-0.9,4c-1.4,4.3-1.1,7.9,0.8,12.4c3.1,7.4,3.9,15.6,2.5,23.8c-0.5,2.5-2.3,3.5-5.4,3.3
					c-4.5-0.4-9-1.4-13.4-2.5c-2.6-0.7-5.3-1.3-8-1.8c-1.8-0.4-3.6-0.9-5.3,0.7c-1.3,1.1-2.8,0.3-3.7-1.1c-0.6-1-1.2-2-1.7-3.1
					c-0.3-0.7-0.4-1.1-1.4-1.1c-2.4,0.1-4.5-2.3-7.2-0.9C377.4,106.5,376.5,105.2,375.9,104.3z"/>
				
					<path fill="#369EBB" stroke="#FFFFFF" stroke-width="20" stroke-linecap="round" stroke-linejoin="round" stroke-miterlimit="10" d="
					M341.3,262.9c1.7-0.8,3.4-0.6,5,0.2c2.8,1.3,5.5,2.8,8.2,4.2c1.3,0.7,2.4,1.8,2.1,3.5c-0.2,1.1,0.4,1.7,1.1,2.3
					c0.8,0.6,1.4,1.4,1.6,2.4c0.3,1.6,1.2,3.2-0.2,4.6c-1.4,1.4-3.1,0.8-4.6,0.3c-4.3-1.4-8.2-3.8-12.4-5.6c-1-0.4-1.9-1.2-3.1-0.9
					c0-0.9-0.7-1.3-1.4-1.4c-5.8-1.6-11.1-4.4-16.5-6.8c-2.1-0.9-4.5-1.7-4.5-4.7c0-0.6-0.4-1-1-1.1c-2.9-0.8-5.9-1.5-8.9-2.2
					c-3.4-1.3-3.5-1.8-1.7-5c0.4-0.7,0.4-1.5,0.6-2.3c0.3-1.1,1.1-1.6,2.2-1.6c1.1,0,2.3,0.5,2.3,1.5c-0.1,3.1,2,2.8,3.9,3.2
					c1.4,0.3,2.8,0.5,4.3,0.4c2.2,0.7,4.1,2.2,6.1,3.1c4.9,2.1,9.8,4.1,14.4,6.8C340,264.3,340.8,264,341.3,262.9z"/>
				
					<path fill="#369EBB" stroke="#FFFFFF" stroke-width="20" stroke-linecap="round" stroke-linejoin="round" stroke-miterlimit="10" d="
					M306.8,257.6c3,0.7,5.9,1.5,8.9,2.2c0.6,0.1,1,0.6,1,1.1c0,3,2.4,3.7,4.5,4.7c5.4,2.4,10.7,5.2,16.5,6.8
					c0.7,0.2,1.4,0.5,1.4,1.4c-0.9,1.1-2.2,1-3.2,0.5c-8.9-4.8-18.5-8.1-26.9-13.9C308,259.7,306.9,259,306.8,257.6z"/>
				
					<path fill="#369EBB" stroke="#FFFFFF" stroke-width="20" stroke-linecap="round" stroke-linejoin="round" stroke-miterlimit="10" d="
					M341.3,262.9c-0.5,1.1-1.2,1.4-2.4,0.7c-4.6-2.7-9.5-4.7-14.4-6.8c-2-0.9-3.9-2.3-6.1-3.1c1.2-0.6,2.3-0.1,3.4,0.2
					C328.8,255.7,335.4,258.5,341.3,262.9z"/>
			</g>
			<g>
				
					<path fill="#222222" stroke="#FFFFFF" stroke-width="20" stroke-linecap="round" stroke-linejoin="round" stroke-miterlimit="10" d="
					M738.3,218.9c2.3,2,4.7,3.8,3.5,7c-1.2,3.3-4.3,3.3-7.2,3.8c-7.1,1.3-13.8-0.4-20.6-2.1c-17.4-4.3-34-11-51.7-14.3
					c-14.7-2.7-29.5-5.4-44.5-5.7c-20.2-0.5-39.8,3.3-58.9,9.3c-16.3,5.1-32.4,10.9-48.2,17.2c-1.6,0.6-3.2,1.1-4,2.9
					c-0.3,0.8-1.3,1-2,1.3c-2.6,1-2.8,1.7-0.4,3.4c2.4,1.7,5.1,3.2,7.6,4.7c3.7,2.2,7.1,4.8,9.3,8.6c3,5.1,1,9.5-4.9,10.3
					c-1.7,0.2-2.7,0.8-3.2,2.4c-0.1,0.2-0.1,0.3-0.3,0.5c-2.5,2.9-5.1,5.6-5.9,9.6c-0.3,1.4-2.1,2-3.5,2.2c-1.6,0.3-2.1,1.2-2,2.7
					c0.1,1.5,0.1,3.1,0,4.6c-0.2,3.4-1.6,4.8-5,4.8c-1.9,0-2.4,0.6-2.3,2.3c0.1,2.3,0,4.5-0.4,6.8c-0.6,2.8-2,4.1-4.9,4.1
					c-1.4,0-2.2,0.1-2.5,1.8c-0.5,2.6-2.7,3.2-5.3,1.7c-4.9-2.8-9.6-5.8-13.9-9.6c-7.8-7-15.2-14.4-21.3-22.9
					c-2.9-4-5.4-8.3-5.7-13.4c-0.1-2-1.3-1.3-2.3-1.1c-10.3,2.5-20.8,4.2-31.3,5.8c-15.2,2.3-30.5,4-45.9,2.6c-0.4,0-0.9,0-2.1,0
					c3.6,3.2,6.6,6,9.7,8.7c1.5,1.4,3.2,2.6,2.1,5c-1.1,2.4-3,2.9-5.6,2.7c-12.7-1-24-5.9-35.3-11.4c-5.5-2.7-11-5.1-16.6-7.6
					c-0.6-0.3-1.4-0.5-2.1-0.5c-15.3-0.7-30.4-2.8-45.3-5.9c-25.2-5.2-50.5-10.3-75.2-17.7c-16-4.8-31.5-10.7-45.2-20.6
					c-6.4-4.6-12.6-9.6-18.5-14.8c-10-8.6-21.4-14.2-33.8-18.4c-3.1-1-6.1-2.3-9-4c-3.7-2.2-7-4.9-8.7-8.8
					c-4.5-10.5-9.9-20.7-11.6-32.2c-0.5-3.5-0.7-7.1,0.4-10.5c1.1-3.4,2.7-6.5,6.8-6.8c0.9-0.1,1.2-0.6,1.5-1.3
					c1.1-2.6,3.2-3.6,5.8-3.8c6.4-0.6,12.7,0.5,19,1.5c0.8,0.1,1.6,0.3,2.4,0.3c13.5,0.3,26.9,0,40.3-0.8
					c15.1-0.8,29.5-4.6,43.5-10.2c21.2-8.3,43.3-12.8,65.7-16.3c23.8-3.8,47.8-3.9,71.8-2.6c8.5,0.4,17,1.6,25.4,3.2
					c2.5,0.5,4.2-0.1,5.8-1.9c0.8-0.9,1.7-1.7,2.4-2.6c10.7-14,23.6-25.6,37.3-36.5c10.1-8,20.3-15.6,32.3-20.6
					c1.2-0.5,2.3-1.1,3.6-0.8c3.5,0.9,4.9,3.2,3.3,6.5c-1.7,3.7-3.8,7.3-5.8,10.8c-2.2,3.9-2.2,7.8-0.6,11.7
					c1.1,2.8,1.4,5.6,0.5,8.5c-0.5,1.7-1,3.5-1.6,5.2c-0.8,2.2-0.6,4.1,1.1,6c2.1,2.3,2.4,5.3,1.8,8.2c-0.6,2.8-0.4,5.4,0.9,7.9
					c1.8,3.6,1.4,7.4,0.9,11.2c-0.3,2.1,0.5,3.1,2.5,3.5c11.6,2.6,23.3,4.6,35,6.9c14.2,2.8,28.2,6,42.4,8.6
					c17.8,3.3,35.7,5.5,53.8,6.4c12,0.6,24,0.9,36,0.9c9.1,0.1,17.8-1.5,26.3-5c18.9-7.8,36.6-17.8,53.7-28.8
					c7.4-4.8,15.1-9.1,22.7-13.6c2.5-1.5,5.3-2.5,8.2-2.9c2.6-0.4,4.7,1.1,5,3.4c0.1,1.3-0.1,2.7-1.3,3c-3.5,0.9-5.1,4.3-8.5,5.9
					c1.8,1.4,3,2.8,2.2,4.9c-0.6,1.9-2.2,3.1-3.3,4.6c0.3,0.6,0.9,0.6,1.4,0.7c2.6,1,3.3,3.1,1.6,5.4c-1.5,2-3.6,3.3-5.6,4.8
					c-0.5,0.4-1.3,0.5-0.7,1.6c1.9,3.4,1.7,4.7-0.8,7.4c-1.6,1.8-3.8,3-2.8,6.3c0.7,2.3-1.9,3.9-3.7,5.3c-1,0.8-2,1.3-1.3,3
					c0.6,1.4-0.1,2.9-1.1,4c-1.2,1.3-2.5,2.4-3.8,3.5c-0.8,0.7-1.6,1.2-0.9,2.6c0.9,1.8-0.1,3.3-1.3,4.7c-1.9,2-4.5,3.1-6.8,4.9
					c3.3,0,6.7-0.1,10,0c3.8,0.1,4.7,1,4.9,4.8c0,1.5,1.1,1,1.7,1c3.5,0.1,6.9,0.4,10.2,1.4c2.5,0.7,4.6,1.9,4.6,5
					c0,1.2,0.7,1.3,1.6,1.4c1.5,0.2,3.1,0.5,4.5,0.9c1.4,0.4,2.7,1.3,2.6,2.8c-0.1,2.2,1,2.5,2.7,2.7c1.8,0.3,3.5,0.8,5.3,1.2
					c1.5,0.4,2.7,1.3,2.7,3c0,1.8-1.2,2.8-2.8,3.2c-2.3,0.6-4.7,1.2-7.9,2c4.4,1.3,8,2.3,11.6,3.3c2.9,0.8,5.7,1.7,8.6,2.6
					c1.7,0.5,2.9,1.5,2.9,3.5c0,2-1.3,2.9-2.9,3.5c-1.4,0.5-2.8,0.8-4.3,1.2c0.9,1.1,2.3,0.9,3.4,1.3c1.8,0.6,3.6,1.1,5.4,1.8
					c1.7,0.6,2.8,1.7,2.9,3.5c0.1,1.9-1,3.1-2.5,3.9C741,217.8,739.8,218.2,738.3,218.9z M303.2,260.9c-2-2.3-3.8-4.1-5.1-6.2
					c-1.8-2.9-1-5.1,2.3-5.8c5.7-1.1,11.4-0.8,17.1-0.2c11.7,1.3,22,6.1,31.2,13.2c0.9,0.7,1.8,1.6,3.1,1.7
					c7.9,0.7,15.7,1.8,23.6,1.4c11.3-0.5,22.5-1.6,33.6-3.5c13.5-2.3,27.3-3.9,40-9.3c11.9-5.1,24.3-9.1,36.3-14
					c22-8.9,43.9-17.7,66.5-25.1c24.7-8.1,49.7-12.9,75.8-10.7c0.8,0.1,1.6,0.3,2.3-0.3c2.5-2.2,5.6-3.8,7.9-6.3
					c1.6-1.7,2.9-3.6,3-6c0.4-11.4,2.4-23-2.6-34.1c-0.2-0.4,0-1,0.1-1.6c0.1-1.1-3.7-9.2-4.7-9.8c-0.7-0.4-1.4-0.8-2.1-1.3
					c-1.3-0.8-2.6-1.8-3.3-3.2c-0.7-1.5-1.4-1.2-2.5-0.6c-5.6,3.2-11.7,4.9-17.9,6.5c-18.6,4.9-37.5,6.4-56.7,5.8
					c-11.5-0.3-22.8-2.2-34.2-2.9c-18.2-1.2-36.3-3.8-54.3-7c-8.7-1.5-17.1-4.3-25.8-5.5c-6.3-0.9-12.7-0.8-18.9-2.1
					c-15.4-3.3-30.8-6-46.4-8c-14-1.8-27.9-3.5-41.6-7.1c-8.2-2.1-16.5-2.5-24.9-2c-7.5,0.5-15.1,0.2-22.5-1.3
					c-3.1-0.6-6.1-0.7-9.2-0.5c-3.4,0.1-7.1,1-10.3-0.3c-6-2.3-11.9-1.1-17.7-0.3c-3.4,0.5-6.6,0.6-9.6-0.8
					c-4.5-2.1-8.8-1.8-13.5-0.5c-4.6,1.2-9.5,2.8-14.2-0.3c-0.5-0.3-1.3-0.4-1.8-0.2c-5.3,1.3-10.7,2.1-15.8,3.7
					c-13.2,4.4-26.2,9.4-40.7,10.9c1.4,1.1,2.4,1.8,3.4,2.6c4.9,3.6,9.6,7.5,13.8,11.9c5.9,6,10.1,12.9,11.8,21.1
					c1.9,9.5,2.4,19.1,1.3,28.7c-0.6,5.1-2.8,9.8-5,14.3c-0.8,1.7-2.2,2.5-4,1.6c-1.7-0.9-1.6-2.5-1.1-4c0.4-1,0.8-2,1.3-3
					c2.3-4.8,3.5-9.9,3.6-15.3c0.1-4.2,0-8.4-0.3-12.5c-0.8-11.3-4.7-21.2-13.2-29c-4.1-3.8-8.2-7.4-12.7-10.7
					c-1.8-1.3-3.3-2.7-1.8-5.5c-9.3,1.2-18.3,1.3-27.3,1.6c-8.7,0.3-17.4,1.2-26.1-0.4c-4.5-0.9-9-1.2-13.6-1.1
					c-1.8,0-2.8,0.6-2.7,2.5c0.4,6.3,0,12.8,4.6,18.1c1.3,1.5,1.9,3.4-0.1,4.7c-1.9,1.3-3.3,0-4.6-1.5c-4.4-4.8-4.8-10.8-5.5-16.8
					c-0.1-0.7,0.4-1.9-0.8-2c-0.9-0.1-1.2,1-1.5,1.7c-1.3,3.4-1,6.7-0.3,10.2c1.6,8.5,5.9,16,8.7,24c2.9,8.3,8.7,12.8,16.7,15.4
					c5.2,1.6,10.2,3.8,15.2,6c10.5,4.7,19.2,12.1,27.8,19.5c11.7,9.9,24.6,17.5,39,23c20.9,8.1,43,12,64.5,17.9
					c8.6,2.4,17.5,3.4,26.3,5.5C278.6,258.7,290.6,260,303.2,260.9z M486,299.3c2.1,0.9,2.2-0.6,2.2-2.2c0-1.9,0.1-3.8,0.3-5.7
					c0.3-2.5,1.5-4.6,4.1-4.7c3.1-0.1,3.1-1.7,3-4c-0.1-4.9,0.8-6.3,5.3-8c1.2-0.5,1.4-1.2,1.6-2.2c0.7-2.3,1.4-4.5,3.8-5.7
					c0.8-0.4,1.2-1.1,1.5-1.8c1.2-3.2,3.3-5.1,6.9-5.2c1.7,0,2-0.9,1.1-2.3c-1.8-2.6-4.2-4.5-6.9-6c-2.1-1.2-4-2.5-5.8-4
					c-2.4-2-3.8-5.7-6.7-6c-2.8-0.3-5.9,1.5-8.8,2.5c-13.4,4.6-26.8,9-39.8,14.6c-2.5,1.1-3.1,2.4-2.6,4.7c0.8,3.7,2.5,7,4.9,10
					c8.2,10.4,17.3,19.8,28.3,27.4c1.4,1,2.4,1.5,3.7-0.2C482.9,299.2,484.4,299.1,486,299.3z M422.7,44.1c-1.1,0.6-1.5,0.8-1.8,1
					c-10.9,7-21.7,14.2-32.3,21.8c-12.1,8.8-22.3,19.3-30,32.3c0.8,0.1,1.7,0.1,2.7,0.2c6.9,0.6,13.8,1.1,20.5,2.8
					c12.5,3.1,25.2,5.5,37.5,9.2c2.5,0.7,3.1,0,3.2-2.4c0.1-2.7-0.1-5.2-1.4-7.6c-1.4-2.5-2-5.2-1.3-8.1c0.4-1.8,0.2-3.6-1-5.2
					c-2.4-3.3-2.5-6.8-1.4-10.6c0.6-2,1.7-4.2,0.9-6.1c-1.6-3.9-1.7-7.7-0.5-11.6c0.2-0.7,0.1-1.5,0-2.2c-0.3-2.8,0.5-5.4,1.9-7.8
					C420.5,48.2,421.4,46.5,422.7,44.1z M355.3,279.1c-13.8-12.4-29.4-21.4-47.9-24.5C321.3,266.9,338.9,271.8,355.3,279.1z
					 M670,180.2c-1.7-0.1-3.5-0.1-3.7,2.1c-0.2,2.1,1.3,2.7,3.1,3c8.7,1.1,16.9,3.8,24.5,8.4c0.5,0.3,1.1,0.6,1.7,0.8
					c1.5,0.6,3,0.5,3.8-1c0.9-1.6,0.2-3-1.3-3.9C689.4,184.4,680.2,180.9,670,180.2z M661.7,140.1c1.1,0,2.1-0.6,3-1.1
					c5.5-2.9,10.8-6.3,15.9-10.1c0.4-0.3,0.9-0.7,1.2-1c0.9-1,1.2-2.1,0.5-3.2c-0.8-1.3-2-1.5-3.3-1.1c-0.8,0.3-1.6,0.8-2.3,1.4
					c-4.8,3.6-9.8,6.9-15.1,9.7c-0.7,0.4-1.4,0.9-1.9,1.5c-0.7,0.8-0.7,1.8-0.3,2.8C659.9,139.8,660.8,140.1,661.7,140.1z
					 M669.7,193.3c-1.5,0.1-2.4,0.7-2.7,2.1c-0.3,1.5,0.5,2.5,1.8,3c6.1,2.3,12.2,4.7,18.3,6.8c2,0.7,3.8-0.8,3.6-2.8
					c-0.2-1.5-1.2-2.1-2.5-2.6c-5.7-2-11.4-4.1-17.1-6.1C670.6,193.5,670.1,193.4,669.7,193.3z"/>
				
					<path fill="#222222" stroke="#FFFFFF" stroke-width="20" stroke-linecap="round" stroke-linejoin="round" stroke-miterlimit="10" d="
					M127,144.9c-0.6,7.8-2.6,14.8-10.6,18.4c-5.2,2.3-10,1.3-13.2-3.4c-5.6-8.3-5.5-20.4,5.5-26.9c8.3-4.9,17.4-0.2,18.3,9.5
					C127.1,143.3,127,144.1,127,144.9z M110.8,138.7c2.2,0.1,4.4,0.1,4.6,2.8c0.2,2.3,0.3,4.7-0.3,7c-0.6,2-1.8,3.5-4,3.4
					c-2.4-0.1-3-2-3.2-4.1c-0.2-2.3,0.2-4.6,0.6-7c-1.2,0.2-1.7,1-2.2,1.7c-2.4,3.8-1.2,11.9,2.1,15c1.6,1.5,3.3,1.7,5.3,0.9
					c5.6-2.3,9.2-10.2,7.5-16.7C119.7,136.6,115.3,135.2,110.8,138.7z"/>
				
					<path fill="#222222" stroke="#FFFFFF" stroke-width="20" stroke-linecap="round" stroke-linejoin="round" stroke-miterlimit="10" d="
					M157.5,153c0,1.9,0,3.8,0,5.7c0,2.7-0.8,5.4,3.3,6.4c2.3,0.6,2.7,3.5,2.6,5.8c-0.1,3.6-1,7-1.9,10.4c-0.5,1.6-1.5,2.6-3.2,2.2
					c-1.8-0.4-2.1-1.8-1.9-3.4c0.5-3,1.6-5.8,1.7-8.8c0-0.7,0.4-1.9-0.7-2c-0.9-0.1-0.9,1-1.2,1.6c-4,6.9-9.5,12.6-15,18.3
					c-2.6,2.7-5.3,5.2-7.9,7.9c-1.3,1.3-2.9,2.3-4.5,0.8c-1.7-1.6-0.9-3.3,0.5-4.7c5.5-5.5,10.9-11.1,16.3-16.8
					c4.8-5.1,7.2-10.7,6.7-17.7c-0.3-4.8-0.2-9.6,0.3-14.4c0.2-1.8,0.6-3.4,2.8-3.3c2,0.1,2.3,1.6,2.3,3.3
					C157.5,147.2,157.6,150.1,157.5,153C157.6,153,157.5,153,157.5,153z"/>
				
					<path fill="#222222" stroke="#FFFFFF" stroke-width="20" stroke-linecap="round" stroke-linejoin="round" stroke-miterlimit="10" d="
					M250.6,187c1.7,0.2,3.1,0.8,3.1,2.7c0,1.7-1.1,2.5-2.7,2.4c-1.6-0.1-3.1-0.7-3.1-2.7C247.9,187.7,249.1,187.2,250.6,187z"/>
				
					<path fill="#222222" stroke="#FFFFFF" stroke-width="20" stroke-linecap="round" stroke-linejoin="round" stroke-miterlimit="10" d="
					M267.7,195.8c-1.6-0.1-3.1-0.6-3.1-2.6c0-1.6,1.1-2.5,2.6-2.5c1.7,0,3.1,0.7,3.2,2.6C270.4,195.1,269.2,195.7,267.7,195.8z"/>
				
					<path fill="#222222" stroke="#FFFFFF" stroke-width="20" stroke-linecap="round" stroke-linejoin="round" stroke-miterlimit="10" d="
					M237,182.4c1.6,0.2,3,0.9,3.1,2.8c0.1,1.7-1,2.5-2.6,2.4c-1.7-0.1-3.1-0.7-3.1-2.7C234.3,183.2,235.4,182.5,237,182.4z"/>
				
					<path fill="#222222" stroke="#FFFFFF" stroke-width="20" stroke-linecap="round" stroke-linejoin="round" stroke-miterlimit="10" d="
					M314.8,195.6c-1.8-0.1-3.2-0.7-3.4-2.5c-0.1-1.6,0.9-2.5,2.5-2.5c1.7,0,3.1,0.7,3.3,2.5C317.4,194.7,316.3,195.5,314.8,195.6z"
					/>
				
					<path fill="#222222" stroke="#FFFFFF" stroke-width="20" stroke-linecap="round" stroke-linejoin="round" stroke-miterlimit="10" d="
					M313.3,218.5c-1.7-0.1-2.7-0.9-2.6-2.6c0.1-2,1.5-2.5,3.2-2.5c1.5,0,2.5,0.7,2.4,2.3C316.2,217.6,314.9,218.3,313.3,218.5z"/>
				
					<path fill="#222222" stroke="#FFFFFF" stroke-width="20" stroke-linecap="round" stroke-linejoin="round" stroke-miterlimit="10" d="
					M195.3,172.5c-1.6-0.2-2.5-1.1-2.5-2.7c0-1.6,1-2.6,2.6-2.5c1.6,0.1,2.5,1,2.5,2.7C197.9,171.6,196.9,172.4,195.3,172.5z"/>
				
					<path fill="#222222" stroke="#FFFFFF" stroke-width="20" stroke-linecap="round" stroke-linejoin="round" stroke-miterlimit="10" d="
					M302.4,188.5c1.6,0.2,2.5,1.1,2.5,2.7c0,1.6-0.9,2.6-2.6,2.5c-1.6,0-2.5-1-2.5-2.6C299.9,189.5,300.8,188.6,302.4,188.5z"/>
				
					<path fill="#222222" stroke="#FFFFFF" stroke-width="20" stroke-linecap="round" stroke-linejoin="round" stroke-miterlimit="10" d="
					M313.3,206.9c-1.8-0.2-2.7-1.1-2.7-2.7c0-1.6,1-2.5,2.6-2.5c1.6,0.1,2.5,1,2.5,2.6C315.7,206,314.6,206.7,313.3,206.9z"/>
				
					<path fill="#222222" stroke="#FFFFFF" stroke-width="20" stroke-linecap="round" stroke-linejoin="round" stroke-miterlimit="10" d="
					M324.2,208.5c-1.6-0.1-2.6-0.9-2.7-2.5c-0.1-1.6,0.7-2.6,2.3-2.8c1.7-0.1,2.8,0.8,2.8,2.5C326.6,207.4,325.6,208.2,324.2,208.5z
					"/>
				
					<path fill="#222222" stroke="#FFFFFF" stroke-width="20" stroke-linecap="round" stroke-linejoin="round" stroke-miterlimit="10" d="
					M315.6,171.4c-0.2,1.7-1.1,2.7-2.7,2.6c-1.6,0-2.6-0.9-2.6-2.5c0-1.7,1-2.7,2.7-2.6C314.7,168.9,315.4,170,315.6,171.4z"/>
				
					<path fill="#222222" stroke="#FFFFFF" stroke-width="20" stroke-linecap="round" stroke-linejoin="round" stroke-miterlimit="10" d="
					M335.9,222.8c1.6,0.2,2.6,1,2.7,2.6c0,1.7-1,2.7-2.7,2.6c-1.6,0-2.4-1.1-2.4-2.7C333.5,223.8,334.5,223,335.9,222.8z"/>
				
					<path fill="#222222" stroke="#FFFFFF" stroke-width="20" stroke-linecap="round" stroke-linejoin="round" stroke-miterlimit="10" d="
					M274,182.5c1.5,0.3,2.5,1.1,2.4,2.7c-0.1,1.6-1.1,2.5-2.7,2.5c-1.6,0-2.5-1.1-2.4-2.7C271.3,183.4,272.3,182.6,274,182.5z"/>
				
					<path fill="#222222" stroke="#FFFFFF" stroke-width="20" stroke-linecap="round" stroke-linejoin="round" stroke-miterlimit="10" d="
					M322.7,228.1c-1.5-0.1-2.6-0.9-2.6-2.5c-0.1-1.7,0.9-2.7,2.6-2.7c1.6,0,2.5,1,2.5,2.6C325.2,227,324.3,227.9,322.7,228.1z"/>
				
					<path fill="#222222" stroke="#FFFFFF" stroke-width="20" stroke-linecap="round" stroke-linejoin="round" stroke-miterlimit="10" d="
					M265,181c-0.2,1.5-1,2.5-2.7,2.5c-1.6,0-2.5-1-2.5-2.6c0-1.6,1-2.5,2.6-2.5C264.1,178.4,264.9,179.4,265,181z"/>
				
					<path fill="#222222" stroke="#FFFFFF" stroke-width="20" stroke-linecap="round" stroke-linejoin="round" stroke-miterlimit="10" d="
					M274.6,216.8c1.7,0.2,2.8,0.9,2.7,2.5c0,1.5-1.1,2.3-2.5,2.3c-1.6,0-2.6-0.8-2.6-2.5C272.3,217.6,273.3,217,274.6,216.8z"/>
				
					<path fill="#222222" stroke="#FFFFFF" stroke-width="20" stroke-linecap="round" stroke-linejoin="round" stroke-miterlimit="10" d="
					M300,228c-1.6,0-2.6-0.8-2.6-2.3c0-1.6,1-2.5,2.5-2.7c1.5-0.1,2.5,0.7,2.5,2.2C302.4,226.9,301.4,227.8,300,228z"/>
				
					<path fill="#222222" stroke="#FFFFFF" stroke-width="20" stroke-linecap="round" stroke-linejoin="round" stroke-miterlimit="10" d="
					M300.2,211.8c1.5,0.1,2.4,0.8,2.5,2.3c0,1.8-1.1,2.6-2.8,2.6c-1.5,0-2.4-0.9-2.3-2.4C297.6,212.7,298.7,211.9,300.2,211.8z"/>
				
					<path fill="#222222" stroke="#FFFFFF" stroke-width="20" stroke-linecap="round" stroke-linejoin="round" stroke-miterlimit="10" d="
					M261.8,206.1c0,1.6-0.8,2.6-2.4,2.7c-1.6,0.1-2.6-0.8-2.6-2.4c-0.1-1.6,0.8-2.6,2.4-2.7C260.8,203.6,261.6,204.5,261.8,206.1z"
					/>
				
					<path fill="#222222" stroke="#FFFFFF" stroke-width="20" stroke-linecap="round" stroke-linejoin="round" stroke-miterlimit="10" d="
					M289.3,173c1.5,0.2,2.6,0.9,2.6,2.6c0,1.5-1,2.3-2.4,2.3c-1.6,0-2.8-0.9-2.7-2.7C286.8,173.6,287.8,173,289.3,173z"/>
				
					<path fill="#222222" stroke="#FFFFFF" stroke-width="20" stroke-linecap="round" stroke-linejoin="round" stroke-miterlimit="10" d="
					M217.6,177.5c-0.2,1.6-1.2,2.3-2.8,2.2c-1.5-0.1-2.3-0.9-2.3-2.4c0-1.6,1-2.3,2.5-2.3C216.5,175,217.6,175.8,217.6,177.5z"/>
				
					<path fill="#222222" stroke="#FFFFFF" stroke-width="20" stroke-linecap="round" stroke-linejoin="round" stroke-miterlimit="10" d="
					M292.1,201.2c-1.5-0.1-2.6-0.7-2.6-2.4c0-1.7,1.1-2.4,2.6-2.4c1.5,0,2.6,0.9,2.5,2.5C294.5,200.4,293.5,201.1,292.1,201.2z"/>
				
					<path fill="#222222" stroke="#FFFFFF" stroke-width="20" stroke-linecap="round" stroke-linejoin="round" stroke-miterlimit="10" d="
					M280.4,208.1c1.5,0.1,2.4,1,2.4,2.4c0,1.4-0.9,2.2-2.3,2.2c-1.4,0-2.3-0.7-2.3-2.1C278.1,209.1,279,208.3,280.4,208.1z"/>
				
					<path fill="#222222" stroke="#FFFFFF" stroke-width="20" stroke-linecap="round" stroke-linejoin="round" stroke-miterlimit="10" d="
					M488.8,280.9c0,2.1-1.6,3.4-3.3,2.9c-0.8-0.2-1.5-0.7-2.1-1.2c-6.4-5.6-12.7-11.4-17.9-18.2c-0.4-0.5-0.8-1-1.1-1.6
					c-0.9-1.5-1.2-3,0.4-4.1c1.6-1.1,2.9-0.2,3.9,1.1c3.5,4.8,7.7,8.9,12.1,12.9c2.1,2,4.4,3.8,6.6,5.7
					C488.1,279.3,488.8,280,488.8,280.9z"/>
				
					<path fill="#222222" stroke="#FFFFFF" stroke-width="20" stroke-linecap="round" stroke-linejoin="round" stroke-miterlimit="10" d="
					M491.4,265.3c-0.3-0.1-1-0.4-1.6-0.8c-2.7-1.9-5.3-3.8-7.9-5.7c-1.5-1.1-2.7-2.5-1.3-4.3c1.3-1.6,2.9-1,4.3,0.1
					c2.8,2,5.6,3.9,8.4,6c1.1,0.8,1.7,2,1.1,3.3C493.9,265,493,265.5,491.4,265.3z"/>
				
					<path fill="#222222" stroke="#FFFFFF" stroke-width="20" stroke-linecap="round" stroke-linejoin="round" stroke-miterlimit="10" d="
					M376.7,93.6c0-1.1,0.5-1.9,1.1-2.7c6.9-8.1,14.2-15.7,23.1-21.8c0.9-0.6,1.8-1.2,2.8-1.7c1.4-0.7,2.9-0.8,3.9,0.6
					c1,1.6,0.2,2.9-1.3,3.9c-5.8,3.6-10.9,8.1-15.6,13c-3.1,3.2-5.9,6.6-8.9,9.9c-0.9,1-2,1.6-3.4,1.2
					C377.3,95.8,376.7,94.9,376.7,93.6z"/>
				
					<path fill="#222222" stroke="#FFFFFF" stroke-width="20" stroke-linecap="round" stroke-linejoin="round" stroke-miterlimit="10" d="
					M415.6,78.2c0.1,1.1-0.5,1.9-1.2,2.6c-5.4,5.5-10.4,11.4-15.2,17.4c-0.3,0.4-0.7,0.8-1.1,1.2c-1.2,1.1-2.6,1.4-3.9,0.3
					c-1.4-1.1-1.2-2.5-0.3-3.9c0.4-0.5,0.8-1,1.2-1.5c4.7-5.6,9.5-11.2,14.7-16.4c0.6-0.6,1.3-1.3,2.1-1.7
					C413.6,75.3,415.5,76.3,415.6,78.2z"/>
			</g>
		</g>
		
			<polygon fill="#FFFFFF" stroke="#FFFFFF" stroke-width="20" stroke-linecap="round" stroke-linejoin="round" stroke-miterlimit="10" points="
			70.6,127.4 90.2,182 166.2,230 338.9,263.6 457.2,253 569.2,209 637.2,209 738.2,233 741.7,209.8 692.2,181 676.2,152 
			704.1,109.8 705.2,91 664.2,117 619.2,151 529.2,147 416.2,107 281.2,94 154.2,127 		"/>
	</g>
	<g>
		<g>
			<path fill="#369EBB" d="M480.2,305.3c-15.6-8.9-26.3-22.5-35.1-37.8c-0.9-1.6-1.7-3.4-2.3-5.2c-0.5-1.4-0.2-2.8,1.4-3.3
				c15.2-5.2,30-11.5,45.4-15.9c2.1-0.6,4.1-1.5,6-2.6c2.1-1.3,4.1-0.8,4.7,1.3c1.1,4.2,4.4,6,7.8,7.9c3.1,1.7,6.3,3.3,9.3,5.1
				c3.5,2.1,3.4,5,0,7.2c-1.3,0.8-2.8,1.3-4.2,1.9c-3.5,1.4-5.7,4-6.8,7.6c-0.2,0.8-0.5,1.9-1,2.1c-4.2,1.6-3.3,5.8-4.7,8.9
				c-1.2,2.6-2.3,4.9-5.4,5.5c-0.4,0.1-0.8,0.1-0.8,0.5c0.2,4.2-4.9,6.3-4.3,10.7c0.2,1.2-0.8,2.7-2,2.6c-2.9-0.1-4,2.2-5.8,3.6
				C481.7,305.3,480.9,305.3,480.2,305.3z"/>
			<path fill="#369EBB" d="M375.2,104c-1.5,1.9-3.1,3.1-5.3,1.1c-0.4-0.3-0.8-0.4-1.2-0.1c-1.4,0.7-2.5,0.2-3.8-0.4
				c-1.5-0.8-3.3-0.8-5-0.6c-2.4,0.2-3.5-1-3.5-3.4c0-3.4,1.3-6.2,3.6-8.5c0.5-0.6,0.9-1,1-1.8c0.1-0.7,0.2-1.7,0.7-2
				c1.8-1.3,2.4-3.8,3.7-4.8c2-1.5,3.8-3.2,5.9-4.5c1.3-0.8,2.3-1.6,3.2-2.9c2.6-3.9,6.2-6.9,9.8-9.8c9.7-7.7,19.7-14.9,30.3-21.4
				c2.2-1.4,4.6-2.6,7.1-3.4c1.7-0.5,3.5-0.9,4.7,0.9c1.2,1.6,0.4,3.1-0.5,4.5c-2.2,3.4-4.1,6.8-5.6,10.6c-1.1,2.6-1.3,5,0.3,7.5
				c1.4,2.2,1.3,4.7,0.9,7.1c-0.2,1.3-0.5,2.7-0.9,4c-1.4,4.3-1.1,7.9,0.8,12.4c3.1,7.4,3.9,15.6,2.5,23.8c-0.5,2.5-2.3,3.5-5.4,3.3
				c-4.5-0.4-9-1.4-13.4-2.5c-2.6-0.7-5.3-1.3-8-1.8c-1.8-0.4-3.6-0.9-5.3,0.7c-1.3,1.1-2.8,0.3-3.7-1.1c-0.6-1-1.2-2-1.7-3.1
				c-0.3-0.7-0.4-1.1-1.4-1.1c-2.4,0.1-4.5-2.3-7.2-0.9C376.7,106.2,375.8,104.9,375.2,104z"/>
			<path fill="#369EBB" d="M340.6,262.7c1.7-0.8,3.4-0.6,5,0.2c2.8,1.3,5.5,2.8,8.2,4.2c1.3,0.7,2.4,1.8,2.1,3.5
				c-0.2,1.1,0.4,1.7,1.1,2.3c0.8,0.6,1.4,1.4,1.6,2.4c0.3,1.6,1.2,3.2-0.2,4.6c-1.4,1.4-3.1,0.8-4.6,0.3c-4.3-1.4-8.2-3.8-12.4-5.6
				c-1-0.4-1.9-1.2-3.1-0.9c0-0.9-0.7-1.3-1.4-1.4c-5.8-1.6-11.1-4.4-16.5-6.8c-2.1-0.9-4.5-1.7-4.5-4.7c0-0.6-0.4-1-1-1.1
				c-2.9-0.8-5.9-1.5-8.9-2.2c-3.4-1.3-3.5-1.8-1.7-5c0.4-0.7,0.4-1.5,0.6-2.3c0.3-1.1,1.1-1.6,2.2-1.6c1.1,0,2.3,0.5,2.3,1.5
				c-0.1,3.1,2,2.8,3.9,3.2c1.4,0.3,2.8,0.5,4.3,0.4c2.2,0.7,4.1,2.2,6.1,3.1c4.9,2.1,9.8,4.1,14.4,6.8
				C339.4,264.1,340.1,263.8,340.6,262.7z"/>
			<path fill="#369EBB" d="M306.1,257.3c3,0.7,5.9,1.5,8.9,2.2c0.6,0.1,1,0.6,1,1.1c0,3,2.4,3.7,4.5,4.7c5.4,2.4,10.7,5.2,16.5,6.8
				c0.7,0.2,1.4,0.5,1.4,1.4c-0.9,1.1-2.2,1-3.2,0.5c-8.9-4.8-18.5-8.1-26.9-13.9C307.3,259.5,306.2,258.8,306.1,257.3z"/>
			<path fill="#369EBB" d="M340.6,262.7c-0.5,1.1-1.2,1.4-2.4,0.7c-4.6-2.7-9.5-4.7-14.4-6.8c-2-0.9-3.9-2.3-6.1-3.1
				c1.2-0.6,2.3-0.1,3.4,0.2C328.1,255.5,334.7,258.3,340.6,262.7z"/>
		</g>
		<g>
			<path fill="#222222" d="M737.6,218.6c2.3,2,4.7,3.8,3.5,7c-1.2,3.3-4.3,3.3-7.2,3.8c-7.1,1.3-13.8-0.4-20.6-2.1
				c-17.4-4.3-34-11-51.7-14.3c-14.7-2.7-29.5-5.4-44.5-5.7c-20.2-0.5-39.8,3.3-58.9,9.3c-16.3,5.1-32.4,10.9-48.2,17.2
				c-1.6,0.6-3.2,1.1-4,2.9c-0.3,0.8-1.3,1-2,1.3c-2.6,1-2.8,1.7-0.4,3.4c2.4,1.7,5.1,3.2,7.6,4.7c3.7,2.2,7.1,4.8,9.3,8.6
				c3,5.1,1,9.5-4.9,10.3c-1.7,0.2-2.7,0.8-3.2,2.4c-0.1,0.2-0.1,0.3-0.3,0.5c-2.5,2.9-5.1,5.6-5.9,9.6c-0.3,1.4-2.1,2-3.5,2.2
				c-1.6,0.3-2.1,1.2-2,2.7c0.1,1.5,0.1,3.1,0,4.6c-0.2,3.4-1.6,4.8-5,4.8c-1.9,0-2.4,0.6-2.3,2.3c0.1,2.3,0,4.5-0.4,6.8
				c-0.6,2.8-2,4.1-4.9,4.1c-1.4,0-2.2,0.1-2.5,1.8c-0.5,2.6-2.7,3.2-5.3,1.7c-4.9-2.8-9.6-5.8-13.9-9.6c-7.8-7-15.2-14.4-21.3-22.9
				c-2.9-4-5.4-8.3-5.7-13.4c-0.1-2-1.3-1.3-2.3-1.1c-10.3,2.5-20.8,4.2-31.3,5.8c-15.2,2.3-30.5,4-45.9,2.6c-0.4,0-0.9,0-2.1,0
				c3.6,3.2,6.6,6,9.7,8.7c1.5,1.4,3.2,2.6,2.1,5c-1.1,2.4-3,2.9-5.6,2.7c-12.7-1-24-5.9-35.3-11.4c-5.5-2.7-11-5.1-16.6-7.6
				c-0.6-0.3-1.4-0.5-2.1-0.5c-15.3-0.7-30.4-2.8-45.3-5.9c-25.2-5.2-50.5-10.3-75.2-17.7c-16-4.8-31.5-10.7-45.2-20.6
				c-6.4-4.6-12.6-9.6-18.5-14.8c-10-8.6-21.4-14.2-33.8-18.4c-3.1-1-6.1-2.3-9-4c-3.7-2.2-7-4.9-8.7-8.8
				c-4.5-10.5-9.9-20.7-11.6-32.2c-0.5-3.5-0.7-7.1,0.4-10.5c1.1-3.4,2.7-6.5,6.8-6.8c0.9-0.1,1.2-0.6,1.5-1.3
				c1.1-2.6,3.2-3.6,5.8-3.8c6.4-0.6,12.7,0.5,19,1.5c0.8,0.1,1.6,0.3,2.4,0.3c13.5,0.3,26.9,0,40.3-0.8
				c15.1-0.8,29.5-4.6,43.5-10.2c21.2-8.3,43.3-12.8,65.7-16.3c23.8-3.8,47.8-3.9,71.8-2.6c8.5,0.4,17,1.6,25.4,3.2
				c2.5,0.5,4.2-0.1,5.8-1.9c0.8-0.9,1.7-1.7,2.4-2.6c10.7-14,23.6-25.6,37.3-36.5c10.1-8,20.3-15.6,32.3-20.6
				c1.2-0.5,2.3-1.1,3.6-0.8c3.5,0.9,4.9,3.2,3.3,6.5c-1.7,3.7-3.8,7.3-5.8,10.8c-2.2,3.9-2.2,7.8-0.6,11.7c1.1,2.8,1.4,5.6,0.5,8.5
				c-0.5,1.7-1,3.5-1.6,5.2c-0.8,2.2-0.6,4.1,1.1,6c2.1,2.3,2.4,5.3,1.8,8.2c-0.6,2.8-0.4,5.4,0.9,7.9c1.8,3.6,1.4,7.4,0.9,11.2
				c-0.3,2.1,0.5,3.1,2.5,3.5c11.6,2.6,23.3,4.6,35,6.9c14.2,2.8,28.2,6,42.4,8.6c17.8,3.3,35.7,5.5,53.8,6.4c12,0.6,24,0.9,36,0.9
				c9.1,0.1,17.8-1.5,26.3-5c18.9-7.8,36.6-17.8,53.7-28.8c7.4-4.8,15.1-9.1,22.7-13.6c2.5-1.5,5.3-2.5,8.2-2.9
				c2.6-0.4,4.7,1.1,5,3.4c0.1,1.3-0.1,2.7-1.3,3c-3.5,0.9-5.1,4.3-8.5,5.9c1.8,1.4,3,2.8,2.2,4.9c-0.6,1.9-2.2,3.1-3.3,4.6
				c0.3,0.6,0.9,0.6,1.4,0.7c2.6,1,3.3,3.1,1.6,5.4c-1.5,2-3.6,3.3-5.6,4.8c-0.5,0.4-1.3,0.5-0.7,1.6c1.9,3.4,1.7,4.7-0.8,7.4
				c-1.6,1.8-3.8,3-2.8,6.3c0.7,2.3-1.9,3.9-3.7,5.3c-1,0.8-2,1.3-1.3,3c0.6,1.4-0.1,2.9-1.1,4c-1.2,1.3-2.5,2.4-3.8,3.5
				c-0.8,0.7-1.6,1.2-0.9,2.6c0.9,1.8-0.1,3.3-1.3,4.7c-1.9,2-4.5,3.1-6.8,4.9c3.3,0,6.7-0.1,10,0c3.8,0.1,4.7,1,4.9,4.8
				c0,1.5,1.1,1,1.7,1c3.5,0.1,6.9,0.4,10.2,1.4c2.5,0.7,4.6,1.9,4.6,5c0,1.2,0.7,1.3,1.6,1.4c1.5,0.2,3.1,0.5,4.5,0.9
				c1.4,0.4,2.7,1.3,2.6,2.8c-0.1,2.2,1,2.5,2.7,2.7c1.8,0.3,3.5,0.8,5.3,1.2c1.5,0.4,2.7,1.3,2.7,3c0,1.8-1.2,2.8-2.8,3.2
				c-2.3,0.6-4.7,1.2-7.9,2c4.4,1.3,8,2.3,11.6,3.3c2.9,0.8,5.7,1.7,8.6,2.6c1.7,0.5,2.9,1.5,2.9,3.5c0,2-1.3,2.9-2.9,3.5
				c-1.4,0.5-2.8,0.8-4.3,1.2c0.9,1.1,2.3,0.9,3.4,1.3c1.8,0.6,3.6,1.1,5.4,1.8c1.7,0.6,2.8,1.7,2.9,3.5c0.1,1.9-1,3.1-2.5,3.9
				C740.3,217.5,739.1,218,737.6,218.6z M302.5,260.6c-2-2.3-3.8-4.1-5.1-6.2c-1.8-2.9-1-5.1,2.3-5.8c5.7-1.1,11.4-0.8,17.1-0.2
				c11.7,1.3,22,6.1,31.2,13.2c0.9,0.7,1.8,1.6,3.1,1.7c7.9,0.7,15.7,1.8,23.6,1.4c11.3-0.5,22.5-1.6,33.6-3.5
				c13.5-2.3,27.3-3.9,40-9.3c11.9-5.1,24.3-9.1,36.3-14c22-8.9,43.9-17.7,66.5-25.1c24.7-8.1,49.7-12.9,75.8-10.7
				c0.8,0.1,1.6,0.3,2.3-0.3c2.5-2.2,5.6-3.8,7.9-6.3c1.6-1.7,2.9-3.6,3-6c0.4-11.4,2.4-23-2.6-34.1c-0.2-0.4,0-1,0.1-1.6
				c0.1-1.1-3.7-9.2-4.7-9.8c-0.7-0.4-1.4-0.8-2.1-1.3c-1.3-0.8-2.6-1.8-3.3-3.2c-0.7-1.5-1.4-1.2-2.5-0.6
				c-5.6,3.2-11.7,4.9-17.9,6.5c-18.6,4.9-37.5,6.4-56.7,5.8c-11.5-0.3-22.8-2.2-34.2-2.9c-18.2-1.2-36.3-3.8-54.3-7
				c-8.7-1.5-17.1-4.3-25.8-5.5c-6.3-0.9-12.7-0.8-18.9-2.1c-15.4-3.3-30.8-6-46.4-8c-14-1.8-27.9-3.5-41.6-7.1
				c-8.2-2.1-16.5-2.5-24.9-2c-7.5,0.5-15.1,0.2-22.5-1.3c-3.1-0.6-6.1-0.7-9.2-0.5c-3.4,0.1-7.1,1-10.3-0.3
				c-6-2.3-11.9-1.1-17.7-0.3c-3.4,0.5-6.6,0.6-9.6-0.8c-4.5-2.1-8.8-1.8-13.5-0.5c-4.6,1.2-9.5,2.8-14.2-0.3
				c-0.5-0.3-1.3-0.4-1.8-0.2c-5.3,1.3-10.7,2.1-15.8,3.7c-13.2,4.4-26.2,9.4-40.7,10.9c1.4,1.1,2.4,1.8,3.4,2.6
				c4.9,3.6,9.6,7.5,13.8,11.9c5.9,6,10.1,12.9,11.8,21.1c1.9,9.5,2.4,19.1,1.3,28.7c-0.6,5.1-2.8,9.8-5,14.3
				c-0.8,1.7-2.2,2.5-4,1.6c-1.7-0.9-1.6-2.5-1.1-4c0.4-1,0.8-2,1.3-3c2.3-4.8,3.5-9.9,3.6-15.3c0.1-4.2,0-8.4-0.3-12.5
				c-0.8-11.3-4.7-21.2-13.2-29c-4.1-3.8-8.2-7.4-12.7-10.7c-1.8-1.3-3.3-2.7-1.8-5.5c-9.3,1.2-18.3,1.3-27.3,1.6
				c-8.7,0.3-17.4,1.2-26.1-0.4c-4.5-0.9-9-1.2-13.6-1.1c-1.8,0-2.8,0.6-2.7,2.5c0.4,6.3,0,12.8,4.6,18.1c1.3,1.5,1.9,3.4-0.1,4.7
				c-1.9,1.3-3.3,0-4.6-1.5c-4.4-4.8-4.8-10.8-5.5-16.8c-0.1-0.7,0.4-1.9-0.8-2c-0.9-0.1-1.2,1-1.5,1.7c-1.3,3.4-1,6.7-0.3,10.2
				c1.6,8.5,5.9,16,8.7,24c2.9,8.3,8.7,12.8,16.7,15.4c5.2,1.6,10.2,3.8,15.2,6c10.5,4.7,19.2,12.1,27.8,19.5
				c11.7,9.9,24.6,17.5,39,23c20.9,8.1,43,12,64.5,17.9c8.6,2.4,17.5,3.4,26.3,5.5C277.9,258.5,289.9,259.7,302.5,260.6z
				 M485.3,299.1c2.1,0.9,2.2-0.6,2.2-2.2c0-1.9,0.1-3.8,0.3-5.7c0.3-2.5,1.5-4.6,4.1-4.7c3.1-0.1,3.1-1.7,3-4
				c-0.1-4.9,0.8-6.3,5.3-8c1.2-0.5,1.4-1.2,1.6-2.2c0.7-2.3,1.4-4.5,3.8-5.7c0.8-0.4,1.2-1.1,1.5-1.8c1.2-3.2,3.3-5.1,6.9-5.2
				c1.7,0,2-0.9,1.1-2.3c-1.8-2.6-4.2-4.5-6.9-6c-2.1-1.2-4-2.5-5.8-4c-2.4-2-3.8-5.7-6.7-6c-2.8-0.3-5.9,1.5-8.8,2.5
				c-13.4,4.6-26.8,9-39.8,14.6c-2.5,1.1-3.1,2.4-2.6,4.7c0.8,3.7,2.5,7,4.9,10c8.2,10.4,17.3,19.8,28.3,27.4c1.4,1,2.4,1.5,3.7-0.2
				C482.2,299,483.7,298.9,485.3,299.1z M422,43.9c-1.1,0.6-1.5,0.8-1.8,1c-10.9,7-21.7,14.2-32.3,21.8c-12.1,8.8-22.3,19.3-30,32.3
				c0.8,0.1,1.7,0.1,2.7,0.2c6.9,0.6,13.8,1.1,20.5,2.8c12.5,3.1,25.2,5.5,37.5,9.2c2.5,0.7,3.1,0,3.2-2.4c0.1-2.7-0.1-5.2-1.4-7.6
				c-1.4-2.5-2-5.2-1.3-8.1c0.4-1.8,0.2-3.6-1-5.2c-2.4-3.3-2.5-6.8-1.4-10.6c0.6-2,1.7-4.2,0.9-6.1c-1.6-3.9-1.7-7.7-0.5-11.6
				c0.2-0.7,0.1-1.5,0-2.2c-0.3-2.8,0.5-5.4,1.9-7.8C419.8,48,420.7,46.3,422,43.9z M354.6,278.9c-13.8-12.4-29.4-21.4-47.9-24.5
				C320.6,266.6,338.2,271.6,354.6,278.9z M669.3,179.9c-1.7-0.1-3.5-0.1-3.7,2.1c-0.2,2.1,1.3,2.7,3.1,3c8.7,1.1,16.9,3.8,24.5,8.4
				c0.5,0.3,1.1,0.6,1.7,0.8c1.5,0.6,3,0.5,3.8-1c0.9-1.6,0.2-3-1.3-3.9C688.7,184.2,679.5,180.7,669.3,179.9z M661,139.8
				c1.1,0,2.1-0.6,3-1.1c5.5-2.9,10.8-6.3,15.9-10.1c0.4-0.3,0.9-0.7,1.2-1c0.9-1,1.2-2.1,0.5-3.2c-0.8-1.3-2-1.5-3.3-1.1
				c-0.8,0.3-1.6,0.8-2.3,1.4c-4.8,3.6-9.8,6.9-15.1,9.7c-0.7,0.4-1.4,0.9-1.9,1.5c-0.7,0.8-0.7,1.8-0.3,2.8
				C659.2,139.6,660.1,139.8,661,139.8z M669,193.1c-1.5,0.1-2.4,0.7-2.7,2.1c-0.3,1.5,0.5,2.5,1.8,3c6.1,2.3,12.2,4.7,18.3,6.8
				c2,0.7,3.8-0.8,3.6-2.8c-0.2-1.5-1.2-2.1-2.5-2.6c-5.7-2-11.4-4.1-17.1-6.1C670,193.3,669.4,193.2,669,193.1z"/>
			<path fill="#222222" d="M126.3,144.7c-0.6,7.8-2.6,14.8-10.6,18.4c-5.2,2.3-10,1.3-13.2-3.4c-5.6-8.3-5.5-20.4,5.5-26.9
				c8.3-4.9,17.4-0.2,18.3,9.5C126.4,143.1,126.3,143.9,126.3,144.7z M110.1,138.5c2.2,0.1,4.4,0.1,4.6,2.8c0.2,2.3,0.3,4.7-0.3,7
				c-0.6,2-1.8,3.5-4,3.4c-2.4-0.1-3-2-3.2-4.1c-0.2-2.3,0.2-4.6,0.6-7c-1.2,0.2-1.7,1-2.2,1.7c-2.4,3.8-1.2,11.9,2.1,15
				c1.6,1.5,3.3,1.7,5.3,0.9c5.6-2.3,9.2-10.2,7.5-16.7C119,136.4,114.6,135,110.1,138.5z"/>
			<path fill="#222222" d="M156.9,152.8c0,1.9,0,3.8,0,5.7c0,2.7-0.8,5.4,3.3,6.4c2.3,0.6,2.7,3.5,2.6,5.8c-0.1,3.6-1,7-1.9,10.4
				c-0.5,1.6-1.5,2.6-3.2,2.2c-1.8-0.4-2.1-1.8-1.9-3.4c0.5-3,1.6-5.8,1.7-8.8c0-0.7,0.4-1.9-0.7-2c-0.9-0.1-0.9,1-1.2,1.6
				c-4,6.9-9.5,12.6-15,18.3c-2.6,2.7-5.3,5.2-7.9,7.9c-1.3,1.3-2.9,2.3-4.5,0.8c-1.7-1.6-0.9-3.3,0.5-4.7
				c5.5-5.5,10.9-11.1,16.3-16.8c4.8-5.1,7.2-10.7,6.7-17.7c-0.3-4.8-0.2-9.6,0.3-14.4c0.2-1.8,0.6-3.4,2.8-3.3
				c2,0.1,2.3,1.6,2.3,3.3C156.9,147,156.9,149.9,156.9,152.8C156.9,152.8,156.9,152.8,156.9,152.8z"/>
			<path fill="#222222" d="M249.9,186.8c1.7,0.2,3.1,0.8,3.1,2.7c0,1.7-1.1,2.5-2.7,2.4c-1.6-0.1-3.1-0.7-3.1-2.7
				C247.3,187.5,248.4,186.9,249.9,186.8z"/>
			<path fill="#222222" d="M267,195.6c-1.6-0.1-3.1-0.6-3.1-2.6c0-1.6,1.1-2.5,2.6-2.5c1.7,0,3.1,0.7,3.2,2.6
				C269.7,194.8,268.5,195.5,267,195.6z"/>
			<path fill="#222222" d="M236.3,182.2c1.6,0.2,3,0.9,3.1,2.8c0.1,1.7-1,2.5-2.6,2.4c-1.7-0.1-3.1-0.7-3.1-2.7
				C233.7,183,234.7,182.3,236.3,182.2z"/>
			<path fill="#222222" d="M314.2,195.4c-1.8-0.1-3.2-0.7-3.4-2.5c-0.1-1.6,0.9-2.5,2.5-2.5c1.7,0,3.1,0.7,3.3,2.5
				C316.7,194.5,315.6,195.3,314.2,195.4z"/>
			<path fill="#222222" d="M312.6,218.2c-1.7-0.1-2.7-0.9-2.6-2.6c0.1-2,1.5-2.5,3.2-2.5c1.5,0,2.5,0.7,2.4,2.3
				C315.5,217.4,314.2,218,312.6,218.2z"/>
			<path fill="#222222" d="M194.6,172.3c-1.6-0.2-2.5-1.1-2.5-2.7c0-1.6,1-2.6,2.6-2.5c1.6,0.1,2.5,1,2.5,2.7
				C197.2,171.3,196.2,172.1,194.6,172.3z"/>
			<path fill="#222222" d="M301.7,188.3c1.6,0.2,2.5,1.1,2.5,2.7c0,1.6-0.9,2.6-2.6,2.5c-1.6,0-2.5-1-2.5-2.6
				C299.2,189.2,300.1,188.4,301.7,188.3z"/>
			<path fill="#222222" d="M312.6,206.7c-1.8-0.2-2.7-1.1-2.7-2.7c0-1.6,1-2.5,2.6-2.5c1.6,0.1,2.5,1,2.5,2.6
				C315,205.8,313.9,206.5,312.6,206.7z"/>
			<path fill="#222222" d="M323.5,208.2c-1.6-0.1-2.6-0.9-2.7-2.5c-0.1-1.6,0.7-2.6,2.3-2.8c1.7-0.1,2.8,0.8,2.8,2.5
				C326,207.2,325,208,323.5,208.2z"/>
			<path fill="#222222" d="M314.9,171.2c-0.2,1.7-1.1,2.7-2.7,2.6c-1.6,0-2.6-0.9-2.6-2.5c0-1.7,1-2.7,2.7-2.6
				C314,168.7,314.7,169.8,314.9,171.2z"/>
			<path fill="#222222" d="M335.2,222.6c1.6,0.2,2.6,1,2.7,2.6c0,1.7-1,2.7-2.7,2.6c-1.6,0-2.4-1.1-2.4-2.7
				C332.8,223.6,333.8,222.8,335.2,222.6z"/>
			<path fill="#222222" d="M273.3,182.3c1.5,0.3,2.5,1.1,2.4,2.7c-0.1,1.6-1.1,2.5-2.7,2.5c-1.6,0-2.5-1.1-2.4-2.7
				C270.7,183.2,271.6,182.3,273.3,182.3z"/>
			<path fill="#222222" d="M322,227.9c-1.5-0.1-2.6-0.9-2.6-2.5c-0.1-1.7,0.9-2.7,2.6-2.7c1.6,0,2.5,1,2.5,2.6
				C324.5,226.8,323.6,227.7,322,227.9z"/>
			<path fill="#222222" d="M264.3,180.8c-0.2,1.5-1,2.5-2.7,2.5c-1.6,0-2.5-1-2.5-2.6c0-1.6,1-2.5,2.6-2.5
				C263.4,178.2,264.2,179.2,264.3,180.8z"/>
			<path fill="#222222" d="M273.9,216.6c1.7,0.2,2.8,0.9,2.7,2.5c0,1.5-1.1,2.3-2.5,2.3c-1.6,0-2.6-0.8-2.6-2.5
				C271.6,217.4,272.6,216.7,273.9,216.6z"/>
			<path fill="#222222" d="M299.3,227.8c-1.6,0-2.6-0.8-2.6-2.3c0-1.6,1-2.5,2.5-2.7c1.5-0.1,2.5,0.7,2.5,2.2
				C301.7,226.7,300.7,227.5,299.3,227.8z"/>
			<path fill="#222222" d="M299.5,211.6c1.5,0.1,2.4,0.8,2.5,2.3c0,1.8-1.1,2.6-2.8,2.6c-1.5,0-2.4-0.9-2.3-2.4
				C296.9,212.4,298,211.7,299.5,211.6z"/>
			<path fill="#222222" d="M261.1,205.8c0,1.6-0.8,2.6-2.4,2.7c-1.6,0.1-2.6-0.8-2.6-2.4c-0.1-1.6,0.8-2.6,2.4-2.7
				C260.1,203.4,260.9,204.3,261.1,205.8z"/>
			<path fill="#222222" d="M288.6,172.8c1.5,0.2,2.6,0.9,2.6,2.6c0,1.5-1,2.3-2.4,2.3c-1.6,0-2.8-0.9-2.7-2.7
				C286.1,173.4,287.2,172.8,288.6,172.8z"/>
			<path fill="#222222" d="M217,177.3c-0.2,1.6-1.2,2.3-2.8,2.2c-1.5-0.1-2.3-0.9-2.3-2.4c0-1.6,1-2.3,2.5-2.3
				C215.8,174.8,216.9,175.5,217,177.3z"/>
			<path fill="#222222" d="M291.4,200.9c-1.5-0.1-2.6-0.7-2.6-2.4c0-1.7,1.1-2.4,2.6-2.4c1.5,0,2.6,0.9,2.5,2.5
				C293.8,200.2,292.9,200.8,291.4,200.9z"/>
			<path fill="#222222" d="M279.7,207.8c1.5,0.1,2.4,1,2.4,2.4c0,1.4-0.9,2.2-2.3,2.2c-1.4,0-2.3-0.7-2.3-2.1
				C277.4,208.8,278.3,208,279.7,207.8z"/>
			<path fill="#222222" d="M488.1,280.7c0,2.1-1.6,3.4-3.3,2.9c-0.8-0.2-1.5-0.7-2.1-1.2c-6.4-5.6-12.7-11.4-17.9-18.2
				c-0.4-0.5-0.8-1-1.1-1.6c-0.9-1.5-1.2-3,0.4-4.1c1.6-1.1,2.9-0.2,3.9,1.1c3.5,4.8,7.7,8.9,12.1,12.9c2.1,2,4.4,3.8,6.6,5.7
				C487.4,279,488.1,279.8,488.1,280.7z"/>
			<path fill="#222222" d="M490.7,265.1c-0.3-0.1-1-0.4-1.6-0.8c-2.7-1.9-5.3-3.8-7.9-5.7c-1.5-1.1-2.7-2.5-1.3-4.3
				c1.3-1.6,2.9-1,4.3,0.1c2.8,2,5.6,3.9,8.4,6c1.1,0.8,1.7,2,1.1,3.3C493.3,264.8,492.3,265.3,490.7,265.1z"/>
			<path fill="#222222" d="M376,93.4c0-1.1,0.5-1.9,1.1-2.7C384,82.6,391.3,75,400.2,69c0.9-0.6,1.8-1.2,2.8-1.7
				c1.4-0.7,2.9-0.8,3.9,0.6c1,1.6,0.2,2.9-1.3,3.9c-5.8,3.6-10.9,8.1-15.6,13c-3.1,3.2-5.9,6.6-8.9,9.9c-0.9,1-2,1.6-3.4,1.2
				C376.6,95.5,376,94.6,376,93.4z"/>
			<path fill="#222222" d="M414.9,78c0.1,1.1-0.5,1.9-1.2,2.6c-5.4,5.5-10.4,11.4-15.2,17.4c-0.3,0.4-0.7,0.8-1.1,1.2
				c-1.2,1.1-2.6,1.4-3.9,0.3c-1.4-1.1-1.2-2.5-0.3-3.9c0.4-0.5,0.8-1,1.2-1.5c4.7-5.6,9.5-11.2,14.7-16.4c0.6-0.6,1.3-1.3,2.1-1.7
				C413,75,414.8,76.1,414.9,78z"/>
		</g>
	</g>
</g>
<g id="_xFFFD__x9C__x96_撅_xFFFD__4_xA0_影像_1_">
</g>
<g id="_xFFFD__x9C__x96_撅_xFFFD__9_xA0_影像_1_">
</g>
</svg>
