<?xml version="1.0" encoding="utf-8"?>
<!-- Generator: Adobe Illustrator 21.1.0, SVG Export Plug-In . SVG Version: 6.00 Build 0)  -->
<svg version="1.1"
	 id="svg3875" inkscape:version="0.48.5 r10040" sodipodi:docname="Google_Fonts_2015.svg" xmlns:cc="http://creativecommons.org/ns#" xmlns:dc="http://purl.org/dc/elements/1.1/" xmlns:inkscape="http://www.inkscape.org/namespaces/inkscape" xmlns:rdf="http://www.w3.org/1999/02/22-rdf-syntax-ns#" xmlns:sodipodi="http://sodipodi.sourceforge.net/DTD/sodipodi-0.dtd" xmlns:svg="http://www.w3.org/2000/svg"
	 xmlns="http://www.w3.org/2000/svg" xmlns:xlink="http://www.w3.org/1999/xlink" x="0px" y="0px" viewBox="0 0 1000 186.9"
	 style="enable-background:new 0 0 1000 186.9;" xml:space="preserve">
<style type="text/css">
	.st0{fill:#FFFFFF;}
</style>
<sodipodi:namedview  bordercolor="#666666" borderopacity="1.0" fit-margin-bottom="0.5" fit-margin-left="0.5" fit-margin-right="0.5" fit-margin-top="0.5" id="base" inkscape:current-layer="g4000" inkscape:cx="771.97689" inkscape:cy="14.479215" inkscape:document-units="px" inkscape:guide-bbox="true" inkscape:pageopacity="0.0" inkscape:pageshadow="2" inkscape:window-height="1025" inkscape:window-maximized="0" inkscape:window-width="1059" inkscape:window-x="859" inkscape:window-y="-8" inkscape:zoom="1.2945052" pagecolor="#ffffff" showgrid="false" showguides="true">
	</sodipodi:namedview>
<g id="layer1" transform="translate(-1976.9069,-912.0163)" inkscape:groupmode="layer" inkscape:label="Layer 1">
	<g id="g4000" transform="matrix(4.5872377,0,0,4.5872377,-781.28404,-1096.2973)">
		<g id="g3062" transform="matrix(1.6912884,0,0,1.6912884,26.345861,-174.25805)">
			<path id="path3064" inkscape:connector-curvature="0" sodipodi:nodetypes="cccccccccccccc" class="st0" d="M358,370.4h-8.5v2.5h6
				c-0.3,3.5-3.3,5.1-6,5.1c-3.6,0-6.7-2.8-6.7-6.7c0-3.8,3-6.8,6.7-6.8c2.9,0,4.6,1.8,4.6,1.8l1.8-1.8c0,0-2.3-2.5-6.4-2.5
				c-5.3,0-9.4,4.5-9.4,9.3c0,4.7,3.8,9.3,9.5,9.3c5,0,8.6-3.4,8.6-8.4C358.1,371,358,370.4,358,370.4L358,370.4z"/>
			<path id="path3066" inkscape:connector-curvature="0" class="st0" d="M365,368.6c-3.5,0-6,2.7-6,5.9c0,3.2,2.4,6,6,6
				c3.3,0,6-2.5,6-6C370.9,370.6,367.8,368.6,365,368.6z M365,370.9c1.7,0,3.4,1.4,3.4,3.6c0,2.2-1.6,3.6-3.4,3.6
				c-1.9,0-3.4-1.5-3.4-3.6C361.6,372.5,363.1,370.9,365,370.9z"/>
			<path id="path3068" inkscape:connector-curvature="0" class="st0" d="M378,368.6c-3.5,0-6,2.7-6,5.9c0,3.2,2.4,6,6,6
				c3.3,0,6-2.5,6-6C384,370.6,380.9,368.6,378,368.6z M378,370.9c1.7,0,3.4,1.4,3.4,3.6c0,2.2-1.6,3.6-3.4,3.6
				c-1.9,0-3.4-1.5-3.4-3.6C374.6,372.5,376.1,370.9,378,370.9z"/>
			<path id="path3070" inkscape:connector-curvature="0" class="st0" d="M390.8,368.6c-3.2,0-5.7,2.8-5.7,6c0,3.6,2.9,6,5.7,6
				c1.7,0,2.6-0.7,3.3-1.5v1.2c0,2.1-1.3,3.3-3.1,3.3c-1.8,0-2.7-1.4-3.1-2.1l-2.3,1c0.8,1.7,2.5,3.5,5.4,3.5c3.2,0,5.6-2,5.6-6.2
				V369H394v1C393.3,369.1,392.2,368.6,390.8,368.6L390.8,368.6z M391.1,370.9c1.6,0,3.2,1.3,3.2,3.6c0,2.3-1.6,3.6-3.2,3.6
				c-1.7,0-3.3-1.4-3.3-3.6C387.7,372.3,389.4,370.9,391.1,370.9z"/>
			<path id="path3072" inkscape:connector-curvature="0" class="st0" d="M407.7,368.6c-3,0-5.6,2.4-5.6,6c0,3.8,2.8,6,5.9,6
				c2.5,0,4.1-1.4,5-2.6l-2.1-1.4c-0.5,0.8-1.4,1.6-2.9,1.6c-1.7,0-2.5-0.9-2.9-1.8l8-3.3l-0.4-1
				C411.9,370.2,410.1,368.6,407.7,368.6L407.7,368.6z M407.8,370.9c1.1,0,1.9,0.6,2.2,1.3l-5.3,2.2
				C404.4,372.7,406.1,370.9,407.8,370.9L407.8,370.9z"/>
			<path id="path3074" inkscape:connector-curvature="0" class="st0" d="M398.3,380.2h2.6v-17.6h-2.6V380.2z"/>
		</g>
		<g id="flowRoot3148" transform="matrix(0.94357449,0,0,0.94357449,267.29812,143.30045)">
			<path id="path3157" inkscape:connector-curvature="0" class="st0" d="M514,319.6h-13v9.1h11.8v3.4H501v9.1h13v3.5h-16.7v-28.6
				H514V319.6z"/>
			<path id="path3159" inkscape:connector-curvature="0" class="st0" d="M524.6,345.4c-2.1,0-3.8-0.6-5.2-1.8s-2.1-2.8-2.1-4.8
				c0-2.1,0.8-3.8,2.5-5s3.7-1.8,6.1-1.8c2.2,0,3.9,0.4,5.3,1.2v-0.6c0-1.4-0.5-2.6-1.5-3.5c-1-0.9-2.2-1.3-3.6-1.3
				c-1.1,0-2,0.3-2.9,0.8c-0.9,0.5-1.5,1.2-1.8,2.1l-3.4-1.4c0.5-1.2,1.3-2.3,2.7-3.3c1.3-1,3.1-1.5,5.3-1.5c2.5,0,4.6,0.7,6.2,2.2
				c1.7,1.5,2.5,3.5,2.5,6.2v11.8h-3.5V342H531C529.5,344.3,527.4,345.4,524.6,345.4z M525.2,342c1.5,0,2.9-0.6,4.1-1.7
				c1.2-1.1,1.9-2.5,1.9-4c-1-0.9-2.6-1.3-4.7-1.3c-1.8,0-3.1,0.4-4,1.2c-0.9,0.8-1.4,1.7-1.4,2.7c0,1,0.4,1.7,1.2,2.3
				S524.1,342,525.2,342z"/>
			<path id="path3161" inkscape:connector-curvature="0" class="st0" d="M542.5,344.8h-3.7v-19.6h3.5v3.2h0.2
				c0.4-1.1,1.1-1.9,2.3-2.6c1.2-0.7,2.3-1,3.4-1c1.1,0,2,0.2,2.8,0.5l-1.4,3.4c-0.5-0.2-1.1-0.3-2-0.3c-1.3,0-2.5,0.5-3.5,1.6
				c-1,1.1-1.5,2.4-1.5,4.1V344.8z"/>
			<path id="path3163" inkscape:connector-curvature="0" class="st0" d="M561.8,345.1c-2.1,0-3.6-0.5-4.7-1.6s-1.6-2.6-1.6-4.6
				v-10.3h-3.4v-3.4h3.4v-6h3.7v6h4.8v3.4h-4.8v10c0,2.1,0.9,3.2,2.6,3.2c0.7,0,1.2-0.1,1.7-0.3l1.3,3.2
				C564,344.9,563,345.1,561.8,345.1z"/>
			<path id="path3165" inkscape:connector-curvature="0" class="st0" d="M571.2,316.1v9l-0.2,2.7h0.2c0.5-0.9,1.4-1.7,2.5-2.4
				c1.1-0.7,2.4-1,3.7-1c2.4,0,4.3,0.7,5.6,2.2c1.3,1.5,1.9,3.5,1.9,6v12h-3.7v-11.4c0-3.6-1.6-5.4-4.8-5.4c-1.5,0-2.8,0.6-3.7,1.8
				c-1,1.2-1.4,2.6-1.4,4.2v10.8h-3.7v-28.6H571.2z"/>
		</g>
	</g>
</g>
</svg>
