<?xml version="1.0" encoding="utf-8"?>
<!-- Generator: Adobe Illustrator 18.0.0, SVG Export Plug-In . SVG Version: 6.00 Build 0)  -->
<!DOCTYPE svg PUBLIC "-//W3C//DTD SVG 1.1//EN" "http://www.w3.org/Graphics/SVG/1.1/DTD/svg11.dtd">
<svg version="1.1" xmlns="http://www.w3.org/2000/svg" xmlns:xlink="http://www.w3.org/1999/xlink" x="0px" y="0px"
	 viewBox="0 0 193.3 212" enable-background="new 0 0 193.3 212" xml:space="preserve">
<g id="Machine_White_xA0_影像_1_">
</g>
<g id="Machine_Color_xA0_影像_1_">
</g>
<g id="Time_Machine_xA0_影像_1_">
</g>
<g id="圖層_10">
	<g id="Hand1_xA0_影像_1_">
	</g>
</g>
<g id="Hand2_xA0_影像_1_">
</g>
<g id="Hand3_xA0_影像_1_">
	<g>
		<path fill="#FFFFFF" d="M142,184c-19.6,0-39.3,0-58.9,0c-1.5-7.1-2.8-14.2-4.4-21.3c-3.4-15.8-6.5-31.7-10.4-47.4
			c-2.3-9.5-4.6-19.1-9.7-27.6c-2.8-4.7-5.4-9.4-8.2-14.1c-2-3.5-3.1-7.2-2.6-11.2c0.1-1.2,1-2.9,1.8-3.1c1.6-0.4,3.6-0.8,4.8,1.6
			c1.1,2.2,3.1,4,5.1,6.5c1.4-1.9,3-3.2,3.3-4.7c0.9-5.2,1.5-10.5,2-15.8c0.3-3.5-0.5-6.6-4.6-8c2.1-1,4.1-1.9,6.2-2.3
			c3.8-0.9,7.4,1.6,7.9,5.5c0.4,3.2,0.3,6.5,0.3,9.8c0,2.3-0.3,4.5-0.1,6.8c0,0.6,0.9,1.4,1.6,1.6c0.3,0.1,1.5-0.8,1.5-1.4
			c0.7-7.8,2.1-15.7-2.1-23c3.5-1.1,6.9,0.8,8.4,4.5C86,45.4,87,50.8,87,56.4c0,0.9,1,1.8,1.5,2.6c0.3-0.2,0.6-0.3,0.8-0.5
			c1.4-7.9-0.3-15.4-3.1-22.7c4.6-1,8.6,1.1,9.9,5.3c0.8,2.9,1.3,6,1.7,9c0.3,2.4,0.2,4.9,0.6,7.3c0.1,0.8,1.4,1.4,2.1,2.1
			c0.4-0.8,1.2-1.6,1.1-2.4c-0.5-4.9-1.3-9.9-2-14.8c-0.2-1.5-0.6-2.9-1.1-5.3c2.5,0.9,4.7,1.1,5.8,2.3c2.2,2.4,4.3,5.2,5.6,8.1
			c2.8,6.5,2.2,13.3,1.2,20.1c-1.1,8-2.9,15.7,0.2,23.8c4.2,11,7.2,22.4,11.1,33.6c4.6,13.4,9.8,26.7,14.4,40.2
			C139,171.2,140.3,177.7,142,184z"/>
		<path d="M79.3,31.8c1.9,1.2,3.7,1.6,6,0.8c1.7-0.6,4.3-1,5.6-0.1c4.8,3.5,11.2,0.2,15.8,4.1c0.1,0.1,0.2,0.1,0.2,0.2
			c2.7,4.3,7,3.8,11.1,3.7c2.7-0.1,5.5,0,8.2,0c3.6,0.1,6.9,1.2,8.4,4.5c1.4,3.2,0.2,6.4-1.4,9.6c-1,1.9-1.2,4.3-1.4,6.4
			c-0.3,3-0.4,6-0.7,9c-0.1,0.7-0.7,1.9-1.1,1.9c-2.6,0.1-5.2,0.1-7.7-0.4c-0.8-0.2-1.8-2.1-1.9-3.2c-0.2-3.5-0.1-7-0.1-10.7
			c-1.8,0-3.1,0-4.8,0c0,1.5,0.1,2.9,0,4.3c-0.4,5.1-0.8,10.1-1.5,15.1c-0.8,4.9-0.1,9.6,1.5,14.2c7.9,22.7,15.9,45.3,23.8,68
			c2.8,8.2,5.4,16.5,8.1,24.8c-1.8,0-3.6,0-5.5,0c-1.7-6.3-3.1-12.7-5.2-18.9c-4.6-13.4-9.7-26.7-14.4-40.2
			c-3.9-11.1-6.9-22.6-11.1-33.6c-3.1-8.1-1.3-15.9-0.2-23.8c1-6.8,1.6-13.6-1.2-20.1c-1.3-3-3.4-5.7-5.6-8.1
			c-1.1-1.2-3.3-1.4-5.8-2.3c0.5,2.4,0.9,3.8,1.1,5.3c0.7,4.9,1.4,9.8,2,14.8c0.1,0.7-0.7,1.6-1.1,2.4c-0.7-0.7-2-1.3-2.1-2.1
			c-0.4-2.4-0.2-4.9-0.6-7.3c-0.4-3-0.9-6.1-1.7-9c-1.2-4.2-5.2-6.3-9.9-5.3c2.8,7.3,4.5,14.8,3.1,22.7c-0.3,0.2-0.6,0.3-0.8,0.5
			C88,58.2,87,57.3,87,56.4c0-5.6-1-11-3.1-16.2c-1.5-3.7-4.9-5.6-8.4-4.5c4.3,7.3,2.8,15.2,2.1,23c0,0.5-1.2,1.5-1.5,1.4
			c-0.7-0.2-1.6-1-1.6-1.6c-0.1-2.3,0.2-4.5,0.1-6.8c0-3.3,0.1-6.5-0.3-9.8c-0.4-3.9-4.1-6.3-7.9-5.5c-2.1,0.5-4.1,1.3-6.2,2.3
			c4.1,1.4,4.9,4.5,4.6,8c-0.5,5.3-1.1,10.6-2,15.8c-0.3,1.5-1.9,2.7-3.3,4.7c-2-2.5-4-4.3-5.1-6.5c-1.2-2.4-3.2-2-4.8-1.6
			c-0.8,0.2-1.6,2-1.8,3.1c-0.5,4,0.6,7.7,2.6,11.2c2.8,4.7,5.4,9.4,8.2,14.1c5.1,8.6,7.3,18.2,9.7,27.6c3.9,15.7,7,31.6,10.4,47.4
			c1.5,7.1,2.9,14.2,4.4,21.3c-1.3,0-2.5,0-3.8,0c-2.9-12.8-5.9-25.6-8.7-38.5c-2.7-12.3-4.9-24.8-8.3-36.9
			c-2.3-8-6.2-15.6-9.7-23.2c-2.3-5-5.5-9.6-7.6-14.7c-1.3-3.3-1.1-7.1-1.6-10.7c0.3,0,0.5-0.1,0.8-0.1c-0.2,0-0.3-0.1-0.5-0.1
			c-7.9,0-7.3-0.8-7.4,7c0,0.6-0.1,1.3-0.1,1.9c-0.2,3.7-1.4,4.9-5.1,5c-3.5,0.1-5.2-1.5-5.7-5.1c-0.5-4.5-1.6-8.9-1.9-13.3
			c-0.2-2.9-0.1-6,0.6-8.9c0.8-3.4,3.6-4.7,8.2-4.8c7-0.1,14-0.2,20.9-0.5c0.9,0,2.3-0.6,2.6-1.3c2.6-5.8,7.7-6.9,13.1-6.8
			c2.6,0.1,4.9-0.3,7.2-1.2C77.1,31.8,78.2,31.8,79.3,31.8z"/>
	</g>
</g>
<g id="Phone3_xA0_影像_1_">
</g>
<g id="Phone2_xA0_影像_1_">
</g>
<g id="Phone1_xA0_影像_1_">
</g>
</svg>
