<?xml version="1.0" encoding="utf-8"?>
<!-- Generator: Adobe Illustrator 21.1.0, SVG Export Plug-In . SVG Version: 6.00 Build 0)  -->
<svg version="1.1" id="圖層_1" xmlns="http://www.w3.org/2000/svg" xmlns:xlink="http://www.w3.org/1999/xlink" x="0px" y="0px"
	 viewBox="0 0 480 480" style="enable-background:new 0 0 480 480;" xml:space="preserve">
<style type="text/css">
	.st0{fill:#00C300;}
	.st1{fill:#FFFFFF;}
</style>
<rect class="st0" width="480" height="480"/>
<g id="surface1">
	<path class="st1" d="M414.8,218.9c0-78.2-78.4-141.8-174.7-141.8c-96.4,0-174.8,63.6-174.8,141.8c0,70.1,62.2,128.8,146.1,139.9
		c5.7,1.2,13.4,3.8,15.4,8.6c1.8,4.4,1.1,11.3,0.6,15.8c0,0-2.1,12.3-2.5,14.9c-0.8,4.4-3.5,17.3,15.1,9.4
		c18.6-7.8,100.7-59.2,137.3-101.5h-0.1C402.7,278.4,414.8,250.2,414.8,218.9z M171.7,265.4h-34.7c-5.1,0-9.1-4.1-9.1-9.2v-69.4
		c0-5.1,4.1-9.2,9.1-9.2c5.1,0,9.2,4.1,9.2,9.2v60.3h25.6c5.1,0,9.2,4.1,9.2,9.2C180.8,261.3,176.7,265.4,171.7,265.4z M207.6,256.2
		c0,5.1-4.1,9.2-9.1,9.2s-9.2-4.1-9.2-9.2v-69.4c0-5.1,4.1-9.2,9.2-9.2s9.1,4.1,9.1,9.2V256.2z M291.2,256.2c0,4-2.6,7.4-6.3,8.7
		c-0.9,0.3-1.9,0.5-2.9,0.5c-2.9,0-5.6-1.4-7.3-3.6l-35.6-48.5v43c0,5.1-4.1,9.2-9.2,9.2c-5.1,0-9.2-4.1-9.2-9.2v-69.4
		c0-4,2.6-7.4,6.3-8.7c0.9-0.3,1.9-0.5,2.9-0.5c2.9,0,5.6,1.4,7.3,3.6l35.6,48.5v-43c0-5.1,4.1-9.2,9.2-9.2s9.2,4.1,9.2,9.2V256.2z
		 M347.3,212.3c5.1,0,9.2,4.1,9.2,9.2c0,5.1-4.1,9.2-9.2,9.2h-25.5v16.4h25.5c5.1,0,9.2,4.1,9.2,9.2c0,5.1-4.1,9.2-9.2,9.2h-34.7
		c-5.1,0-9.2-4.1-9.2-9.2v-34.7c0-0.1,0-0.1,0-0.1v-34.7c0-5.1,4.1-9.2,9.2-9.2h34.7c5.1,0,9.2,4.1,9.2,9.2c0,5.1-4.1,9.2-9.2,9.2
		h-25.5v16.4L347.3,212.3L347.3,212.3z"/>
</g>
</svg>
