<?xml version="1.0" encoding="utf-8"?>
<!-- Generator: Adobe Illustrator 18.0.0, SVG Export Plug-In . SVG Version: 6.00 Build 0)  -->
<!DOCTYPE svg PUBLIC "-//W3C//DTD SVG 1.1//EN" "http://www.w3.org/Graphics/SVG/1.1/DTD/svg11.dtd">
<svg version="1.1" xmlns="http://www.w3.org/2000/svg" xmlns:xlink="http://www.w3.org/1999/xlink" x="0px" y="0px"
	 viewBox="0 0 114 165" enable-background="new 0 0 114 165" xml:space="preserve">
<g id="_xFFFD__x83__x8C__xFFFD__x99__xA0_影像_1_">
</g>
<g id="Color_New_xA0_影像_1_">
</g>
<g id="CTA_Frame_New_xA0_影像_1_">
</g>
<g id="_xFFFD__x9C__x96_撅_xFFFD__9_xA0_影像_1_">
	<g>
		<path fill="#FEFEFE" d="M58.4,156.3c-14,0-27.9,0-41.9,0c-1.5,0-1.8-0.3-1.8-1.8c0.1-15.4,0-30.8,0-46.2c0.3-0.2,0.6-0.1,0.8,0.2
			c0.7,1.3,0.5,2.8,0.5,4.2c0,2-0.3,4.1,0.4,6.1c1.1,6.5,1.4,13,1.3,19.5c-0.1,3,0,6,0,9c0,2.1,0.8,3.4,3,3.2
			c6.1-0.4,11.9,1.1,17.8,2.2c5.8,1,11.8,0.7,17.5,2.2c0.7,0.2,1.4,0.2,2.1,0.6C58.5,155.7,58.6,156,58.4,156.3z"/>
		<path fill="#E8EEEF" d="M15.3,108.4c-0.2,0-0.3,0-0.5,0c0-4.2,0-8.4,0-12.5c0.2,0,0.3,0,0.5,0c0.9,0.7,1,1.8,0.9,2.8
			C15.9,101.8,17.1,105.2,15.3,108.4z"/>
		<path fill="#EBF0F1" d="M58.4,156.3c0-0.2,0-0.3,0-0.5c3.3-1.4,6.6-1.4,9.9,0c0,0.2,0,0.3,0,0.5C65,156.3,61.7,156.3,58.4,156.3z"
			/>
		<path fill="#B7CBCE" d="M68.3,155.8c-3.3,0-6.6,0-9.9,0c-9.7-1.4-19.6-1.7-29.2-4.1c-2.9-0.7-5.8-0.2-8.7-0.3
			c-3-0.1-3.6-0.7-3.6-3.8c0-3.3,0-6.5,0.1-9.8c0.2-6.4-0.6-12.8-1.2-19.2c-0.6-2,0.2-4.1-0.5-6c0-1.4,0-2.9-0.1-4.3
			c0-4.2,0-8.4,0-12.6c0-3.8,0-7.6,0.1-11.4c0.6-3.5,0.1-7,0.3-10.5c0.1-1.1-0.2-2.2,0.2-3.2c1.3-2.5,2.9-3.1,4.3-1.4
			c3.8,4.4,8.9,5.5,14.1,5.6c8.1,0.2,16.3-0.8,24.3-2.3c4.3-0.8,8.5-0.2,12.7,0.4c5.2,0.6,10.3,0.4,15.4-0.4
			c0.6-0.1,1.2-0.3,1.9-0.3c4.9-0.3,6,1.6,5.7,6.1c-1,14.1-2,28.2-1.3,42.4c0.5,9.3-1,18.4-2.4,27.5c-0.6,4-4.3,5.1-7.5,5.7
			C78.1,154.8,73.3,155.9,68.3,155.8z"/>
		<path fill="#E8EEEF" d="M15.8,70.7c0,3.8,0,7.6,0,11.4c0,0.8,0.2,1.6-0.5,2.3c0-3.8,0-7.6,0-11.4C15.3,72.2,15.1,71.3,15.8,70.7z"
			/>
		<path fill="#E8EEEF" d="M15.3,112.7c1,1.9,0.3,4,0.5,6C14.8,116.8,15.6,114.7,15.3,112.7z"/>
	</g>
</g>
<g id="_xFFFD__x9C__x96_撅_xFFFD__8_xA0_影像_1_">
	<g>
		<path fill="#222222" d="M11.6,104.7c-0.8-9.8,0.3-22.2-0.1-34.6c-0.2-6.1,2.2-10.8,4.9-15.7c2.5-4.5,7.3-6.1,11.7-7.9
			c2.8-1.1,5.7-1.8,8.7-2.3c2.4-0.4,3-1.5,2.9-3.8c-0.3-4.6-0.6-9.2,0.3-13.8c1.3-7.2,4.7-12.2,12.3-13.9c8.7-2,16.7-1.3,23,5.8
			c2.2,2.5,3.2,5.8,3.1,9.1c-0.1,4.4,0.5,8.7,0.4,13.1c0,1.6,0.6,2.2,2.1,2.4c6.3,1,12.3,3,17.7,6.6c1.5,1,2.6,2.4,3.6,4
			c4.5,7.5,5.4,15.6,4.5,24.1c-0.5,4.4-0.5,8.9-0.4,13.3c0.3,17.3-0.7,34.5-1.1,51.8c-0.1,4.7-1.5,7.7-6.3,9.2
			c-5.9,1.9-12,2.7-18.1,3.6c-13.8,2.1-27.7,2.5-41.5,0.3c-8-1.3-15.9-3.1-23.8-4.6c-2.2-0.4-3.3-1.8-3.4-4
			c-0.1-2.4-0.2-4.7-0.1-7.1C12.4,129.4,11.9,118.4,11.6,104.7z M100.5,70.3c-2,0.7-3.7,1.3-5.4,1.8c-10.7,2.6-21.4,4.8-32.5,5.2
			c-14.6,0.6-29.1,0.1-43-4.8c-2.9-1-2.8-1-2.9,2.1c-0.4,16.7,1.1,33.4,1,50.1c0,6.2-0.2,12.3-0.3,18.5c0,1.8,0.5,2.8,2.5,3
			c2.2,0.2,4.3,0.8,6.4,1.3c21.8,5.7,43.7,5.1,65.6,0.3c8.9-1.9,7.2-1.2,7.5-9.2c0.7-17.2,1.3-34.5,1.4-51.8
			C100.8,81.6,101,76,100.5,70.3z M53.4,71.8c13.4,0.3,26.4-1.8,39.3-5.1c6.2-1.6,6.2-1.6,4.5-7.7c-0.6-2.1-0.8-4.4-2.9-5.7
			c-4.2-2.4-8.6-4.1-13.4-4.9c-1.3-0.2-1.8,0.1-1.8,1.5c0,2-0.3,4-0.5,6c-0.2,2.3-2.2,3.8-4.6,3.6c-2.3-0.2-3-1.7-2.9-3.8
			c0.1-2.2,0-4.4,0-6.5c0-1,0-1.8-1.3-1.9C62.9,47,56,46.9,49.1,47.8c-1.5,0.2-2,0.9-1.8,2.4c0.3,2.4,0.4,4.9,0.2,7.3
			c-0.2,2.5-1.5,3.6-4.3,3.5c-2.2-0.1-3.7-1.5-3.7-3.8c0-2,0.1-4,0.2-6c0.1-1.4-0.4-2-1.9-1.6c-1.7,0.6-3.4,1.2-5.2,1.6
			c-6.9,1.6-11.6,5.5-13.9,12.4c-0.7,2.2-0.6,2.9,1.6,3.6C31.2,71,42.2,71.9,53.4,71.8z M62.7,41.1c2.1,0.1,4.2,0.2,6.2,0.4
			c1.4,0.1,2-0.4,1.9-1.8c-0.1-2.1-0.1-4.2-0.2-6.2c-0.6-10.8-4.3-15.5-16.1-13.3c-3.6,0.7-5.5,2.3-6.3,5.8
			c-1.1,4.7-1.1,9.5-1.1,14.3c0,1.6,0.6,1.8,2,1.6C53.6,41.2,58.2,40.9,62.7,41.1z"/>
		<path fill="#222222" d="M69.4,113.1c-0.2,8.5-6.1,13.1-13.9,11.3c-5.3-1.2-8.7-8.1-6.9-14.4c0.6-2.1,1.4-4.2,3.3-5.1
			c2.2-1.1,2.4-2.8,2.3-4.9c-0.3-4.7,1.6-6.5,6.3-6.1c2.1,0.1,3.4,1.2,3.8,3.2c0.1,0.6,0.3,1.3,0.3,1.9c0,2.8,0.3,5.4,2.8,7.5
			C69.3,108.1,69.4,110.9,69.4,113.1z"/>
	</g>
</g>
<g id="Square_xA0_影像_1_" opacity="0.1098">
</g>
</svg>
