<?xml version="1.0" encoding="utf-8"?>
<!-- Generator: Adobe Illustrator 18.0.0, SVG Export Plug-In . SVG Version: 6.00 Build 0)  -->
<!DOCTYPE svg PUBLIC "-//W3C//DTD SVG 1.1//EN" "http://www.w3.org/Graphics/SVG/1.1/DTD/svg11.dtd">
<svg version="1.1" xmlns="http://www.w3.org/2000/svg" xmlns:xlink="http://www.w3.org/1999/xlink" x="0px" y="0px"
	 viewBox="0 0 298 304" enable-background="new 0 0 298 304" xml:space="preserve">
<g id="_xFFFD__x83__x8C__xFFFD__x99__xA0_影像_1_">
</g>
<g id="_xFFFD__x9C__x96_撅_xFFFD__3_xA0_影像_1_">
	<g>
		<polygon fill="#FFFFFF" points="26,136.7 38,91.3 70,60.7 100,46.7 130,40 158.7,42 180.7,48.7 199.3,58 209.5,73.4 222.7,82 
			228,92.7 232,96 251.3,88 272.7,92 286,99.3 276,115.3 282.7,121.3 258,155.3 237.3,173.3 222,212 192.7,236.7 156.7,246 
			108.7,247.3 73.3,236.7 53.3,219.3 36,192 29.3,168.7 26,155.3 20,150 20.7,140.7 		"/>
		<polygon fill="#C5C5C5" points="35.7,174 238.3,171.3 223,210 197.7,232.7 148.3,245.3 105,245.3 74.3,234.7 47.3,213.2 34.3,182 
			33,174 		"/>
		<g>
			<path fill="#222222" d="M142.4,35.1c7.9,0.7,17.2,3,24.4,5.1c26.6,7.9,46,21.3,61.7,44.3c1,1.5,2.5,4.1,3.2,5.7
				c0.5,1.2,1,1.5,2.1,0.9c19.3-9.7,37.2-4.6,54.6,5.4c2.8,1.6,3,4,0.6,6.3c-3.3,3.2-5.8,6.9-8.7,10.4c-1,1.2-0.7,1.7,0.4,2.5
				c6.4,4.5,6.2,4.4,2,10.9c-4.9,7.6-9.7,15.9-16.4,23.6c-7.3,7.7-10.7,12-18.3,18.3c-1.6,1.5-6.8,4.5-8.8,10.7
				c-4.7,14-11,27.3-19.6,39.3c-3.1,4.4-7.1,8.1-11.8,10.8c-6.5,3.7-12.2,8.5-19.1,11.5c-1.2,0.5-1.3,1.4-1.2,2.4
				c0.8,7.7,1.8,15.3,3,23c0.2,1.4,0.8,1.8,2.1,1.8c2.5,0.1,5.1,0.2,7.6,0.4c1.9,0.2,7.7,1.4,7.9,3.5c0.2,2-4.7,3.1-6.3,3.6
				c-3.9,1.3-8.8,1.3-12.9,1.1c-2.3-0.1-3.3-1.6-3.5-3.8c-1-8.7-2.1-17.3-3.1-26c-0.3-2.4-0.5-3.2-3.4-2.6
				c-14.8,3.3-29.6,6.4-45,5.9c-8.7-0.3-17.4,0.5-26.1-0.7c-4.6-0.6-9.1-1.5-13.6-2.7c-1.7-0.5-2.1-0.1-2.4,1.7c-1,8-2.1,16-3.2,24
				c-0.2,1.7-0.9,3.3-0.7,5.1c0.1,1.5-1,2.2-2.3,2.7c-4.9,1.9-10,2.5-15.2,2.9c-1.7,0.1-3.2-0.7-3.7-2.6c-0.4-1.8,0.7-2.9,2.1-3.7
				c3.8-2,7.5-4.1,11.6-5.4c1.6-0.6,2.5-1.4,2.6-3.3c0.3-7.4,1.3-14.8,3.1-21.9c0.5-1.8-0.7-1.9-1.7-2.3
				c-10.2-3.9-19.4-9.5-27.6-16.7c-4.1-3.5-7.6-7.6-10.5-12.1c-11.1-16.9-18.7-35-20.9-55.2c-0.1-1,0-1.9-1.5-2.1
				c-3.6-0.6-5.5-3.1-6.1-6.5c-0.9-4.5-0.7-8.9,1.3-13c1.1-2.3,2.7-4.2,5.3-4.6c1.1-0.2,1.4-0.8,1.5-1.9c0.7-8.4,2.7-16.7,4.5-24.9
				c0.8-3.7,2.1-7.3,3.9-10.6c6.9-12.8,16-23.6,27.3-32.6c2.7-2.1,5.2-4.5,8-6.5c16.2-11.6,34.3-18.6,54.1-21
				C130,35.4,136.6,35.5,142.4,35.1z M141.4,42.8c-9.1-0.3-19.1,1.2-28.1,2.8c-8.2,1.5-16.3,3.5-23.8,7.5c-6,3.1-11.6,6.7-17.2,10.5
				c-18.1,12-31.6,27.4-37.1,49c-0.9,3.5-0.9,3.5,2.7,2.9c6.2-0.9,12.5-1.4,18.7-1.2c3.8,0.1,5.1,1.2,5.8,4.8
				c0.4,2.2,0.6,4.5,0.8,6.8c0.4,7.3,0.8,14.5,1.2,21.8c0.1,2.1,2.7,4.3,4.8,4.1c0.6-0.1,0.8-0.4,0.7-0.9c-0.5-2.6,0.5-5.3-1.5-7.8
				c-1.7-2-0.8-5.3,1.2-7.1c1.7-1.6,3.5-2.7,5.7-0.9c2.1,1.6,3.1,5,1.4,7.4c-1.7,2.4-1.3,4.9-1.6,7.5c-0.4,3.2,0.5,5.1,3.8,5.8
				c2.5,0.5,3.7,2.4,3.7,5c0,2.7,0.2,5.4,0.3,8.2c0,1.3,0.2,1.9,1.8,1.8c8.1-0.5,16.1-0.9,24.2-1.2c1,0,1.8-0.8,1.9-1.7
				c0.5-2.7,1-5.4,1.6-8.1c0.8-3.8,3.8-6.8,7.6-7.4c3.6-0.6,7.2-0.4,10.7-0.4c6.7,0.1,6.7,0.2,7.1-6.6c0.1-2-0.6-2.3-2.3-2.1
				c-3.4,0.3-6.9,0.4-10.3,0.6c-1.6,0.1-3-0.5-3-2.4c-0.1-1.8,1.1-2.6,2.7-2.7c3.4-0.3,6.9-0.8,10.3-0.7c2.7,0.1,3.6-0.9,3.9-3.5
				c0.4-4.7,1.3-9.4,3.2-13.8c1.8-4.2,4.7-6.1,9.4-5.9c3.9,0.1,6,1.8,7.6,6.3c0.4,1.3,0.8,2.6,1.1,3.9c2.2,11.7,1.9,23.7,2.8,35.6
				c0.6,8,0.2,7.9,8.1,7.3c1.4-0.1,1.4-0.5,1.3-1.8c-1.5-13.1,1.8-24.5,11.8-33.5c7-6.4,15.2-10.4,24.3-12.9c1.2-0.3,2.2-0.6,2.6-2
				c2-8.3,7.2-14.6,13.4-20.1c1.9-1.7,1.7-2.8,0.6-4.7c-4.3-7.3-10.3-13.1-15.9-19.4c-3.8-4.3-7.4-8.9-12.3-11.9
				C179.7,51,162.1,43.2,141.4,42.8z M127.4,244.6c10.3-0.1,20.7,0.2,30.9-2c8.7-1.8,17.6-2.8,25.9-6.1c6.9-2.7,12.4-7.4,18.8-11
				c5.7-3.2,10.2-7.6,13.7-13c7.3-11.4,13.2-23.4,17.3-36.3c0.7-2.3,0.1-2.7-2.1-2.7c-11.8-0.2-23.6,0.8-35.4,0.4
				c-7.7-0.3-15.4-0.4-23.2-0.3c-16.4,0.2-32.7,1.4-49,1.4c-8.1,0-16.2,0.2-24.2,0.5c-15.3,0.5-30.6,2.3-46,2.4
				c-5.5,0.1-11.1,0.3-16.6,0.4c-2.2,0-2.2,0.9-1.7,2.6c2.4,7.7,6.1,14.7,9.7,21.9c8.4,16.5,21.6,27.6,38.4,34.6
				C97.8,243.2,112.4,245.4,127.4,244.6z M177.5,161.6c0,0.6-0.1,1.5-0.2,2.4c-0.1,2.5,1.1,3.9,3.6,3.9c15.4,0.3,30.7,0.7,46.1-0.2
				c5.2-0.3,10.3,2.2,12,0.7c4.5-4.3,13.2-11,18-16.7c7.3-10.7,14.2-17,19.6-26.2c2.3-3.9,2.4-3.9-1.6-6.2c-3.2-1.9-3.6-3.9-1.2-6.9
				c2.7-3.5,5.4-7.1,8.3-10.5c1.1-1.3,0.9-1.8-0.5-2.5c-4.8-2.4-9.7-4.5-14.9-5.9c-22.3-5.8-42.8,5.2-49.9,26.7
				c-0.8,2.4-2.3,3.9-4.8,4.6c-2.7,0.7-5.3,1.4-7.8,2.5C186.3,134.6,177.8,145.2,177.5,161.6z M30.8,145.2
				c-0.2,7.5,0.1,15.4,1.7,23.2c1,4.8,1,4.8,5.7,4.7c12.3-0.4,24.7-0.6,37-1.7c1.8-0.2,2.5-0.5,2-3c-0.3-1.5-0.4-3-0.2-4.5
				c0.3-2-0.3-2.9-1.8-3.4c-3.9-1.4-7.8-3.1-11.7-4.5c-3.1-1.1-4.6-3.1-4.7-6.5c-0.4-8.9-1-17.8-1.4-26.7c-0.1-2.3-0.9-3-3.1-2.9
				c-6.4,0.1-12.7,0.7-19,1.4c-1.8,0.2-2.1,1.3-2.4,2.7C31.7,130.7,31.1,137.7,30.8,145.2z M130.3,169.5c0-0.1,0-0.2,0-0.2
				c8.6-0.3,17.2-0.7,25.9-0.9c1.7,0,2.2-0.6,2.1-2.2c-0.6-8.4-1.1-16.8-1.7-25.3c-0.4-5.8-0.6-11.6-2.4-17.2
				c-0.5-1.4-0.7-3.1-2.8-3.1c-2,0-3.1,1.1-3.8,2.9c-1.2,3.4-1.8,6.8-2.4,10.3c-0.6,3.4-0.6,3.4,2.9,3.7c1.4,0.1,2.5,0.7,2.7,2.2
				c0.2,1.6-0.6,2.6-2.1,3c-0.7,0.2-1.5,0.4-2.1,0.3c-2.1-0.3-2.7,0.8-2.8,2.6c-0.2,2.6-0.4,5.3-0.7,7.9c-0.4,3.2-1.7,4.2-4.9,4.2
				c-3.5,0-7.1-0.3-10.6-0.3c-8.6,0-9,0.4-10.5,8.8c0,0.2,0,0.4-0.1,0.5c-0.4,1.7,0,2.5,2,2.5C122.7,169.2,126.5,169.4,130.3,169.5z
				 M25,139.5c-2.8,3.5-3,9.1-0.7,12.3C25.4,147.8,25.2,143.9,25,139.5z"/>
		</g>
	</g>
</g>
</svg>
