<?xml version="1.0" encoding="utf-8"?>
<!-- Generator: Adobe Illustrator 23.0.1, SVG Export Plug-In . SVG Version: 6.00 Build 0)  -->
<svg version="1.1" id="Layer_1" xmlns="http://www.w3.org/2000/svg" xmlns:xlink="http://www.w3.org/1999/xlink" x="0px" y="0px"
	 viewBox="0 0 328 308" style="enable-background:new 0 0 328 308;" xml:space="preserve">
<style type="text/css">
	.st0{fill:#B7CBCE;}
	.st1{fill:#E9D08D;}
	.st2{fill:#FEFEFE;}
	.st3{fill:#F9F9F9;}
	.st4{opacity:0.1098;}
</style>
<g id="_xFFFD__x83__x8C__xFFFD__x99__xA0_影像_1_">
</g>
<g>
	<g id="_xFFFD__x9C__x96_撅_xFFFD__6_xA0_影像_1_">
		<g>
			<path class="st0" d="M219.1,219.9c-1.1,2.5-2.2,5.1-3.3,7.6c-1.1,1.8-2.6,3.3-4.4,4.4c-10.8,4.1-18,1.2-21.8-8.7
				c-0.8-3.3-0.8-6.5,0-9.8c0.6-4.8,3.2-8.1,7.7-9.9c1.4-0.8,2.9-0.8,4.3,0l0,0c2.4,1.5,5.2-0.4,7.6,1.1c4.8,1.8,8.1,5,9.8,9.8
				C219.9,216.3,219.9,218.1,219.1,219.9z"/>
			<path class="st0" d="M97.8,206.9c1.1-1.6,2.6-2.9,4.6-3.4c1.4-0.7,2.9-0.8,4.3,0c0.3,0,0.7,0.1,1,0c1.3,1.1,3.1-0.1,4.4,1
				c5.4-0.1,8.4,2.8,9.9,7.7c0.7,2.6,1.1,5.1-0.2,7.6c-1.8,4.6-4.4,8.5-9.7,9.8c-1.3,1.2-3.1-0.1-4.4,1.1l0,0
				c-2.2,0.9-4.3,0.8-6.5,0.1c-5-2-7.6-5.9-8.8-11c-0.9-1.5-0.9-2.9,0-4.4c0.1-2.1,0.8-3.9,2.2-5.5
				C95.5,208.8,96.5,207.7,97.8,206.9z"/>
			<path class="st1" d="M77.2,98c0.3,0.7,0.6,1.3,0.9,2c1.7,6.6,0.6,13.3,0.7,19.9c0,6.1,1.1,12.2-0.7,18.3c-0.3,0.6-0.6,1.3-1,1.8
				c-2.3,3.1-5,3-6.9-0.4c-0.4-0.7-0.4-1.7-0.6-2.5c-1.5-3.5,0.4-7.4-1.1-11l0,0c-1-8-0.9-16,0-24c0-0.7,0-1.4,0-2
				c1.1-1.3-0.2-3.2,1.1-4.5l-0.1,0.1c1.5-0.9,2.9-0.9,4.4,0h-0.1C74.5,97,76.3,97,77.2,98z"/>
			<path class="st2" d="M78.1,138.1c0.5-12.7,0.1-25.4,0-38.2c1.2,1.5,1.3,3.3,1.3,5.2c0,9.3,0,18.5,0,27.8
				C79.4,134.8,79.3,136.6,78.1,138.1z"/>
			<path class="st2" d="M68.5,102.1c0,8,0,16,0,24c-0.3-1-1-2-1-3.1C67.8,116.1,66.3,109,68.5,102.1z"/>
			<path class="st2" d="M68.5,126.1c1.6,3.5,0.8,7.3,1.1,11C67.8,133.5,68.8,129.8,68.5,126.1z"/>
			<path class="st2" d="M189.6,213.4c0,3.3,0,6.5,0,9.8C188.1,219.9,188.1,216.7,189.6,213.4z"/>
			<path class="st2" d="M211.4,231.9c1.2-1.7,2.7-3.1,4.4-4.4C215.3,230,213.8,231.4,211.4,231.9z"/>
			<path class="st2" d="M121.8,219.9c0.1-2.5,0.1-5.1,0.2-7.6C123.4,214.9,123.5,217.4,121.8,219.9z"/>
			<path class="st2" d="M209.3,204.7c-2.6-0.1-5.3,0.5-7.6-1.1C204.2,203.7,206.9,203.2,209.3,204.7z"/>
			<path class="st2" d="M101.3,230.9c2.2,0,4.3-0.1,6.5-0.1C105.7,232.2,103.5,232.2,101.3,230.9z"/>
			<path class="st2" d="M97.8,206.9c-0.7,1.4-1.8,2.4-3.1,3.2C95.1,208.4,96.1,207.3,97.8,206.9z"/>
			<path class="st2" d="M219.1,219.9c0-1.8,0-3.6,0-5.4C220.3,216.3,220.3,218.1,219.1,219.9z"/>
			<path class="st2" d="M107.8,230.8c1.3-0.9,2.8-1.1,4.4-1.1C110.8,230.7,109.3,230.9,107.8,230.8z"/>
			<path class="st2" d="M92.5,215.6c0,1.5,0,2.9,0,4.4C91.5,218.5,91.5,217,92.5,215.6z"/>
			<path class="st2" d="M74,95.7c-1.5,0-2.9,0-4.4,0C71.1,94.5,72.5,94.5,74,95.7z"/>
			<path class="st2" d="M69.7,95.6c-0.1,1.6-0.3,3.1-1.1,4.5C68.5,98.5,68.7,96.9,69.7,95.6z"/>
			<path class="st2" d="M77.2,98c-1.4-0.3-2.8-0.8-3.3-2.3C75.2,96.2,76.4,96.8,77.2,98z"/>
			<path class="st2" d="M112.1,204.6c-1.6,0-3.1-0.2-4.4-1C109.3,203.6,110.8,203.7,112.1,204.6z"/>
			<path class="st2" d="M106.7,203.6c-1.4,0-2.9,0-4.3,0C103.8,202.5,105.3,202.5,106.7,203.6z"/>
			<path class="st2" d="M201.6,203.6c-1.4,0-2.9,0-4.3,0C198.7,202.5,200.2,202.5,201.6,203.6z"/>
			<path class="st3" d="M109.4,213.7c0.5,0.4,0.7,0.5,0.8,0.6c0.7,1.3,1.1,2.7,0,3.9c-0.4,0.5-1,0.3-1.3-0.2
				C107.9,216.7,107.8,215.2,109.4,213.7z"/>
		</g>
	</g>
	<g id="_xFFFD__x9C__x96_撅_xFFFD__5_xA0_影像_1_">
		<g>
			<path d="M168.1,105c1.2,1.3,2,2.2,2.9,3.1c2.9,3.1,4.4,6.6,3,10.9c-0.2,0.7-0.7,1.6-0.4,2.1c3.2,4.8,1.2,10.2,1.9,15.3
				c0.2,1.6,0.2,3.3,0.1,4.9c-0.1,5.7-2.5,9.3-8.1,10.9c-4,1.1-8.2,1.5-12.3,1.9c-5.1,0.4-10.1,0.2-15.2,0.6
				c-12.6,0.8-25.1,0.7-37.5-1.7c-6.5-1.3-12.8-3.9-19.1-6.2c-2.8-1-5.3-1.8-8.3-1.5c-5.9,0.7-6.8-0.1-7.6-6.2
				c-0.6-4.9-1-9.7-1.6-14.7c-1.3-0.4-2.5-0.8-3.6-1.3c-2.6-1.2-2.9-3-0.9-5c0.6-0.6,1.4-1.2,2.2-1.6c2.1-1,2.7-2.8,2.7-4.9
				c0.1-3.8,0.2-7.6,0.5-11.4c0.5-5.3,1.9-6.6,7.2-6.7c2.9,0,5.2-0.9,7.5-2.5c6.8-4.5,13.7-9,20.6-13.2c2.9-1.8,6.1-3.2,9.3-4.4
				c7.6-2.9,14.4-1.5,19.5,5.1c2.4,3.1,4.7,3.6,8.6,3.4c22.3-1,44.6-3.3,66.9-0.3c2.9,0.4,5.8,0.9,8.4,2c2,0.9,3.9,2.7,5.2,4.5
				c1.9,2.9,1,5.8-2.1,7.3c-2.4,1.2-5.1,1.9-7.8,2.4c-12.7,2.3-25.4,4.4-38.1,6.5C171,104.2,169.8,104.6,168.1,105z M137.8,86.9
				c1.2,2.2,2,3.8,2.8,5.4s1.6,3.3,2.1,5c1.6,6.5-2.1,10.1-8.4,8.2c-3.6-1.1-7.2-2.7-10.5-4.4c-3.1-1.6-5.5-1.5-8.3,0.8
				c-2.7,2.3-6,4-9.3,5.5c-3.6,1.7-5.7,1.3-6.2-0.6c-0.7-3,2-3.4,3.8-4.4c1.9-1,4.2-1.6,5.8-3c9.2-8.3,10.3-6.1,20.3-1.5
				c2.2,1,4.5,1.6,7.4,2.6c-0.7-5.5-3.6-8.9-5.9-12.4c-7.5-11.9-11.8-13.7-25.6-6.3c-7,3.8-13.5,8.5-20.5,12.5
				c-3.5,2-4.8,4.5-3.9,8.4c0.5,1.9,0.5,4,0.4,6c-0.2,3.5,1.6,5.8,4.3,7.6c1.4,1,2.8,2,4.1,2.9c-0.7,2.3-0.9,4.3-1.9,5.6
				c-1,1.4-2.8,2.2-4.4,3.2c0,4.1,0,8.4,0,12.9c17.5,9.2,36.1,8.9,55.4,8.3c-2.3-4.8-2-8.9,0.5-12.6c-3.3-5.3-3.3-5.5-1.6-12
				c-4.2-5.3-3.9-8,1.5-12.1c3.7-2.8,8-4.1,12.5-4.9c2.5-0.4,4.9-0.8,7.3-1.2c-0.2-5.7-0.2-5.7,4.6-6.5c14.9-2.5,29.7-5,44.6-7.5
				c2-0.3,3.9-1.1,6.3-1.8c-2.5-3.1-5.3-3.2-7.9-3.6c-5.2-0.7-10.5-1.3-15.7-1.3c-16.2,0.1-32.3,0.4-48.5,0.7
				C141.6,86.3,140.2,86.6,137.8,86.9z M169.1,124.5c-7,0.5-13.6,0.9-20.3,1.4c-0.9,0.1-2.1-0.2-2.6,0.2c-1.3,1.1-2.4,2.4-3.1,3.9
				c-0.2,0.3,1.8,2.2,2.9,2.4c5.7,0.9,11.4,2,17.1,2C169.3,134.5,171.4,130.5,169.1,124.5z M169.8,138.5c-5.3,1.8-10.6,1.5-16,0.7
				c-2.3-0.3-4.7-0.4-6.9,0.2c-1.3,0.3-3,2-3.1,3.2c-0.2,1.2,1.3,2.7,2.3,3.8c0.5,0.6,1.6,0.9,2.4,1.1c5.3,1.1,10.6,1.6,16,0.2
				C169.5,146.5,170.8,144.2,169.8,138.5z M165.9,110.5c-8.3,3-17.8,0.9-24.5,8.3c1.3,0.6,1.9,1.1,2.5,1.1
				c7.4-0.2,14.8-0.2,22.1-0.9c3.5-0.3,4.2-2.9,2.3-6C167.7,112.1,166.8,111.4,165.9,110.5z M78.1,139c0.9-10.7,0.8-11.1-6.5-13.9
				c0.5,5,0.9,9.7,1.4,14.8C75.3,139.4,76.8,139.2,78.1,139z M76.3,110.4c0-3.5,0.2-6.4-0.1-9.2c-0.1-0.9-1.1-2.2-2-2.5
				c-1.5-0.5-2.3,0.8-2.3,2.3c-0.1,3.4,0,6.8,0,10.6C73.4,111.1,74.8,110.7,76.3,110.4z"/>
			<path d="M107.5,199c0-5.2,0-10.3,0-15.4c0-1.5,0-2.9,0.2-4.3c0.5-2.6,1.9-3.4,4.3-2.3c3.8,1.7,7.6,3.5,11.3,5.4
				c4.1,2.2,4.1,4.8,0.1,7.1c-2.7,1.5-5.5,2.8-8.2,4.3c-2.1,1.1-2,1.2-2.1,5.3c7.7,1.9,12.8,6.9,14.7,15.1c20.7,0,41.1,0,61.8,0
				c0.7-1.4,1.4-2.8,2.2-4.2c3.5-6,8.7-9.2,15.7-9.1c6.7,0.1,12.2,3,15,9.1c1.7,3.8,4,4.5,7.6,4.4c7.8-0.2,15.6-0.3,23.4,0
				c2.8,0.1,8-2,7.9,2.7c-0.1,4.3-5.2,2.5-8.2,2.6c-7.4,0.3-14.9,0.1-22.3,0.1c-1.8,0-3.6,0-5.2,0c-4.7,11.9-10.3,16.6-18.9,16.3
				c-8.5-0.3-14.1-5.3-17.4-15.8c-20.3,0-40.8,0-61.4,0c-3.1,8.3-8.3,14.1-17.9,14.1c-9.3-0.1-14.5-5.7-17.6-14.1
				c-6.6,0-13.1,0-19.6,0c-1.6,0-3.3,0.1-4.9-0.4c-0.8-0.2-1.9-1.4-1.9-2.2c-0.1-0.8,0.8-2.1,1.6-2.4c1.3-0.5,2.8-0.5,4.3-0.5
				c6.7,0,13.4,0,20.4,0C94.3,206.5,99,201.1,107.5,199z M195.3,218.3c0,6.8,5.4,12.2,12.1,12.1c6.4-0.1,12-5.6,12-11.8
				c0-6.9-5.2-12.2-11.9-12.3C200.5,206.3,195.3,211.4,195.3,218.3z M113.2,205.4c-0.2,3.3-0.3,3.5,1.7,4.5c3.5,1.9,4.2,5.3,4.7,8.7
				c0.3,1.8-0.8,3.2-2.8,3.2c-4.2,0.1-8.4,0.3-12.5,0.1c-3.2-0.1-4.5-1.8-3.3-4.7c1-2.3,2.4-4.5,4.2-6.2c1.9-1.7,2.6-3.2,1.4-5.5
				c-6.3,2.1-9.9,7.1-9,12.5c1.1,6.4,6,10.6,12.6,10.5c6.2-0.1,11-4.3,12-10.5C123,212.3,119.9,207.6,113.2,205.4z"/>
			<path d="M187.2,136.6c0.1,2.8,0.3,5.6,0.4,8.4c0.1,1.6-0.2,3.3-2.1,3c-1.1-0.1-2.7-1.6-2.8-2.6c-0.7-6.3-1.2-12.6-1.6-18.9
				c-0.1-1,0.9-2.6,1.8-2.9c0.9-0.3,2.6,0.2,3.4,0.9c1.4,1.3,2.5,3.1,3.7,4.7c1.3,1.7,2.5,3.4,4.4,6c0.5-2.3,0.8-3.6,1-4.9
				c0.5-2.5,0.7-5,1.5-7.4c0.3-0.9,1.8-2,2.7-2c1.8-0.1,2.4,1.5,2.3,3c-0.7,6.3-1.5,12.6-2.4,18.8c-0.2,1-1.4,2.5-2.2,2.6
				c-1.2,0.1-2.8-0.6-3.6-1.5c-2-2.3-3.6-5-5.3-7.5C187.9,136.4,187.5,136.5,187.2,136.6z"/>
			<path d="M210.9,130.6c2.9,0,5.4-0.2,7.9,0.1c1.1,0.2,2.1,1.5,3.1,2.3c-1,0.9-1.8,2.3-2.9,2.5c-2.1,0.4-4.3,0.2-6.5,0.3
				c-1.8,0.1-2.7,0.9-2.2,3.4c1.2,0,2.6,0,3.9,0c1.5,0,3-0.4,4.3,0c1,0.3,2.4,1.4,2.5,2.3c0.1,0.8-1.2,2.5-2,2.6
				c-3.4,0.6-6.8,0.8-10.3,0.9c-2.2,0-3.9-1.4-3.8-3.7c0.2-5.1,0.5-10.2,1.3-15.2c0.6-3.8,1.5-4.1,5.6-4.6c2.3-0.2,4.7-0.7,7-1
				c1.6-0.2,3.3,0.2,3.2,2c-0.1,1.1-1.4,2.5-2.4,2.9c-2,0.7-4.3,0.8-6.4,1.1C210.7,126.9,210.4,128.3,210.9,130.6z"/>
			<path d="M239.5,132.2c1.4,1.7,2.5,3.1,3.6,4.5c1,1.3,2,2.8,0.4,4.3s-3,0.5-4.2-0.8c-0.8-0.9-1.5-2-2.7-3.7c-2,2.9-3.3,5-4.7,7
				c-1,1.4-2.2,2.7-4,1.6c-1.8-1.1-1.3-2.8-0.5-4.3c1.5-2.6,3.2-5.2,4.9-7.9c-1.3-1.8-2.6-3.6-3.7-5.4c-0.9-1.5-2.1-3.4,0.1-4.7
				c1.8-1.1,3,0.3,4,1.7c0.8,1.1,1.8,2.2,3,3.7c1.8-2.3,3.3-4.2,4.9-6.1c1.1-1.3,2.5-2.5,4.2-1.3s0.9,2.8-0.1,4.3
				C242.9,127.5,241.3,129.8,239.5,132.2z"/>
			<path d="M255,129.4c-2-0.1-3.4,0.1-4.5-0.4c-1-0.4-1.9-1.4-2.3-2.4c-0.2-0.4,1.2-1.9,2-2c2.8-0.6,5.7-0.8,8.6-1.2
				c2-0.2,4-0.7,5.9-0.5c0.9,0.1,2.4,1.3,2.5,2c0.1,0.9-1,2.3-1.9,2.7c-1.4,0.7-3.1,0.7-5.1,1.1c-0.2,2.2-0.4,4.4-0.7,6.5
				c-0.2,2-0.5,4-0.7,5.9c-0.3,2-0.5,4.4-3.3,3.9c-2.3-0.4-2-2.5-1.8-4.4C254.3,137.1,254.6,133.5,255,129.4z"/>
			<path d="M199.8,190.2c0.1-3,0.3-5.1,2.8-4.9c2.3,0.2,2.3,2.4,2.3,4.2c0,1.9-0.4,4.1-2.7,3.6C201,193,200.2,190.8,199.8,190.2z"/>
			<path d="M224.4,198.5c-1.2-1.6-2.3-2.4-2.5-3.4c-0.3-1.4,3-4.7,4.7-4.4c0.9,0.1,2.4,1.9,2.3,2.1
				C227.7,194.6,226.3,196.3,224.4,198.5z"/>
			<path d="M217.9,188.1c0,3.2-1.9,5.8-3.5,5.2c-0.9-0.3-1.8-1.7-1.9-2.6c-0.2-2.6,1.6-5,3.3-4.5
				C216.8,186.5,217.5,187.6,217.9,188.1z"/>
			<path d="M235.5,200.1c-1.2,3.1-5.6,5.4-7.5,4.1c-0.6-0.4-1-2.5-0.8-2.6c1.7-1.1,3.6-2.1,5.5-2.7
				C233.5,198.7,234.6,199.7,235.5,200.1z"/>
			<path d="M191.7,199.5c-1.3-2.1-2.3-3.5-3-5.2c-0.1-0.3,1.5-1.8,2.4-1.9c1.8-0.1,3.6,2.5,3.1,4.2
				C193.9,197.5,193,198.1,191.7,199.5z"/>
		</g>
	</g>
	<g id="Square_xA0_影像_1_" class="st4">
	</g>
</g>
</svg>
