<?xml version="1.0" encoding="utf-8"?>
<!-- Generator: Adobe Illustrator 22.1.0, SVG Export Plug-In . SVG Version: 6.00 Build 0)  -->
<svg version="1.1" xmlns="http://www.w3.org/2000/svg" xmlns:xlink="http://www.w3.org/1999/xlink" x="0px" y="0px"
	 viewBox="0 0 225 240" style="enable-background:new 0 0 225 240;" xml:space="preserve">
<style type="text/css">
	.st0{fill:#FFFFFF;}
	#t01 {
		animation: switch 1s linear infinite;
	}
	#t02 {
		animation: switch 1s linear infinite .2s;
	}
	#t03 {
		animation: switch 1s linear infinite .3s;
	}
	@keyframes switch {
	  0% {
	  	opacity: 1;
	  }
	  20% {
	  	opacity: 1;
	  }
	  21% {
	  	opacity: 0;
	  }
	  59% {
	  	opacity: 0;
	  }
	  60% {
	  	opacity: 1;
	  }
	  100% {
	  	opacity: 1;
	  }
	}
</style>
<g id="t01">
	<g id="Machine_White_xA0_影像_1_">
	</g>
	<g id="Machine_Color_xA0_影像_1_">
	</g>
	<g id="Time_Machine_xA0_影像_1_">
	</g>
	<g id="圖層_10">
		<g id="Hand1_xA0_影像_1_">
		</g>
	</g>
	<g id="Hand2_xA0_影像_1_">
	</g>
	<g id="Hand3_xA0_影像_1_">
	</g>
	<g id="Phone3_xA0_影像_1_">
		<g>
			<path d="M30.2,108.2c1.5-6,2.5-12.1,4.6-17.8c3.5-9.5,7.2-19.1,14.1-26.8c11.9-13.1,25.3-24,42.9-28.4c8.6-2.1,17.3-4.5,26.3-3.8
				c5.5,0.4,11,1.1,16.3,2.4c14.3,3.6,27,10.4,38.4,19.8c7.2,5.9,11.5,14,16.1,21.8c2.3,3.9,4,8.2,6,12.2c4,8.2,4.7,17,5.6,25.9
				c1.4,13-1.8,25.1-6.9,36.8c-1.4,3.3-3.7,6.2-5.8,9.2c-3.8,5.3-7.8,10.5-11.6,15.8c-0.5,0.6-0.7,1.7-0.5,2.4
				c0.6,3.8,1.6,7.5,2.1,11.2c0.2,1.5,0,3.5-0.9,4.4c-0.7,0.7-3,0.4-4.2-0.2c-3.5-1.8-6.8-3.8-10.1-5.9c-1.3-0.9-2.3-1-3.7-0.2
				c-10.7,5.5-21.6,10.4-33.5,12.6c-11.2,2.1-22.5,3.4-33.7,0.5c-11.5-3-21.7-8.5-31-16c-12-9.7-20.8-21.6-25.2-36.4
				c-2.3-7.7-3.1-15.8-4.7-23.7c-0.2-0.9-0.4-1.7-0.6-2.6C30.2,116.9,30.2,112.5,30.2,108.2z M173.5,188.5
				c-0.9-4.5-1.7-8.3-2.2-12.1c-0.2-1,0-2.5,0.6-3.2c2.2-2.7,4.7-5,6.9-7.7c6.3-7.4,11.6-15.4,13.9-25c2.4-10.1,3.3-20.4,3-30.8
				c-0.2-6.9-1.2-13.6-4.2-19.8c-3.6-7.2-7.1-14.5-11.2-21.5c-3.4-5.9-8.5-10.4-14.2-14c-6.2-3.8-12.3-7.8-18.7-11.2
				c-4.6-2.4-9.5-4.9-14.5-5.9c-9.3-1.9-18.8-2.5-28.2-0.8c-5.9,1.1-11.8,2.1-17.4,4.3C79.2,44,72,48.9,65.1,54.3
				C53.8,63.2,45.6,74,40.7,87.6c-5.1,14.2-4.6,28.5-3.1,43c0.8,8.2,4.1,15.5,7.3,23c6.1,14,15.3,25.3,28.6,32.9
				c11.6,6.6,23.7,11.5,37.5,10.1c4-0.4,8.1-1.1,12.1-1.5c13.3-1.5,25.2-7,36.9-13c0.7-0.4,2-0.2,2.8,0.2
				C166.2,184.1,169.6,186.2,173.5,188.5z"/>
			<path class="st0" d="M173.5,188.5c-3.9-2.3-7.3-4.3-10.8-6.2c-0.8-0.4-2.1-0.6-2.8-0.2c-11.7,6.1-23.6,11.5-36.9,13
				c-4,0.5-8.1,1.1-12.1,1.5c-13.8,1.4-25.9-3.5-37.5-10.1c-13.3-7.6-22.4-18.9-28.6-32.9c-3.3-7.4-6.5-14.8-7.3-23
				c-1.4-14.5-2-28.8,3.1-43C45.6,74,53.7,63.2,65,54.3c6.9-5.4,14.1-10.4,22.2-13.5c5.5-2.1,11.5-3.2,17.4-4.3
				c9.4-1.7,18.9-1.1,28.2,0.8c5,1,9.9,3.5,14.5,5.9c6.4,3.4,12.5,7.3,18.7,11.2c5.8,3.6,10.8,8.2,14.2,14
				c4.1,6.9,7.7,14.2,11.2,21.5c3,6.2,4,12.9,4.2,19.8c0.3,10.4-0.6,20.7-3,30.8c-2.3,9.7-7.6,17.6-13.9,25c-2.2,2.6-4.7,5-6.9,7.7
				c-0.6,0.8-0.8,2.2-0.6,3.2C171.8,180.2,172.6,183.9,173.5,188.5z M139.5,156.7c1.2-3,2.8-5.6,3.1-8.3c0.8-7.3-2.1-13.5-7.2-18.6
				c-2.4-2.5-6.2-2-9.1,0.5c-0.7,0.7-1.3,1.5-2,2.2c-1.6,1.8-2.8,1.8-4.1-0.2c-4.3-6.7-8.5-13.5-12.6-20.4c-1.4-2.3-2.3-5-3-7.6
				c-0.3-1,0-2.6,0.7-3.4c4.9-5.9,5.1-12,1.4-18.7c-4.2-7.5-11.4-9.6-18.3-7.5c-8.2,2.6-13.1,10.4-10.9,18c2.4,8.5,4.7,17.4,9.1,25
				c7.8,13.5,17,26.1,25.8,39.1c1.2,1.8,3.1,3.3,4.8,4.8c2,1.8,4.5,2.9,7,2.1c3.7-1.1,7.3-2.7,10.7-4.3c1.3-0.6,2.1-0.7,3.4,0
				c4.9,2.6,11.1,1.5,15.1-2.4c0.9-0.8,2-1.5,3.1-1.9c3.5-1.2,6-3.3,7.1-6.9c0.2-0.7,0.7-1.5,1.3-1.9c4-2.6,5.6-8.1,3.5-12.4
				c-0.3-0.6-1.2-0.8-1.8-1.2c-0.3,0.7-0.9,1.3-0.9,2c0,1.7,0.4,3.4,0.3,5.1c-0.1,1.1-0.9,2.2-1.7,3.9c-0.8-2.2-1-3.7-1.8-4.6
				c-0.8-0.9-2.5-1.9-3.5-1.7c-1,0.3-2.3,2.2-2.2,3.1c0.4,1.8,1.4,3.6,2.7,4.9c1.1,1.1,1.5,1.9,0.7,3c-1.1,1.4-2.5,2.6-4.1,4.1
				c-0.6-2.6-0.8-4.5-1.6-6.2c-0.8-1.9-2.1-3.9-4.7-3c-2.5,0.9-3.1,3.2-2.5,5.4c0.6,2.3,2,4.3,3.1,6.6
				C147.8,158.4,142.6,159,139.5,156.7z M103.1,67c0.2,1.6,0.3,3.3,0.8,4.8c0.3,0.9,1.3,1.6,2,2.4c0.5-0.9,1.3-1.7,1.4-2.6
				c0.8-5.2,0.7-5.2,6.2-5.7c0.5,0,1.3,0.1,1.6-0.1c0.8-0.7,2.1-1.7,2-2.3c-0.8-4.2-1.9-8.5-3-12.6c-0.2-0.6-1.2-1.3-1.8-1.2
				c-0.5,0.1-1.2,1.1-1.3,1.7c-0.2,2.1-0.2,4.2,0,6.2c0.2,2.3-0.2,3.4-2.9,3.5C103.7,61.2,102.8,62.5,103.1,67z M121.2,76.5
				c2.2,0,4.3,0.3,4.9-2.3c0.6-2.5,1.1-5,1.4-7.5c0.1-0.6-0.6-1.7-1-1.8c-0.6-0.1-1.6,0.4-2,0.9c-0.9,1.2-1.3,2.8-2.2,4
				c-0.5,0.7-1.5,1.3-2.3,1.4c-4,0.2-6.8,3.9-5.8,7.9c0.2,0.7,1.1,1.3,1.6,1.9c0.5-0.5,1.4-1,1.5-1.6
				C117.9,77.2,119,75.9,121.2,76.5z"/>
			<path d="M139.5,156.7c3.2,2.3,8.3,1.7,10.9-1.3c-1.1-2.3-2.4-4.4-3.1-6.6c-0.6-2.2,0-4.5,2.5-5.4c2.6-0.9,3.9,1.1,4.7,3
				c0.7,1.7,0.9,3.6,1.6,6.2c1.6-1.5,3-2.7,4.1-4.1c0.8-1,0.4-1.9-0.7-3c-1.3-1.3-2.4-3.2-2.7-4.9c-0.2-0.9,1.2-2.9,2.2-3.1
				c1-0.3,2.6,0.7,3.5,1.7c0.8,0.9,1,2.4,1.8,4.6c0.8-1.8,1.6-2.8,1.7-3.9c0.1-1.7-0.3-3.4-0.3-5.1c0-0.7,0.6-1.3,0.9-2
				c0.6,0.4,1.6,0.6,1.8,1.2c2.1,4.3,0.4,9.8-3.5,12.4c-0.6,0.4-1.1,1.2-1.3,1.9c-1.1,3.6-3.6,5.7-7.1,6.9c-1.1,0.4-2.3,1-3.1,1.9
				c-4,3.9-10.2,5-15.1,2.4c-1.3-0.7-2.1-0.6-3.4,0c-3.5,1.7-7.1,3.2-10.7,4.3c-2.6,0.8-5-0.3-7-2.1c-1.7-1.5-3.5-3-4.8-4.8
				c-8.8-12.9-18-25.6-25.8-39.1c-4.4-7.6-6.7-16.5-9.1-25c-2.2-7.6,2.8-15.4,10.9-18c6.9-2.2,14.1,0,18.3,7.5
				c3.8,6.6,3.6,12.7-1.4,18.7c-0.7,0.8-1,2.4-0.7,3.4c0.8,2.6,1.6,5.2,3,7.6c4.1,6.9,8.3,13.6,12.6,20.4c1.3,2,2.5,2,4.1,0.2
				c0.7-0.8,1.3-1.6,2-2.2c2.9-2.5,6.7-3,9.1-0.5c5.1,5.1,8,11.3,7.2,18.6C142.2,151.1,140.6,153.7,139.5,156.7z M82.1,91.7
				c0.4,0,0.8-0.1,1.1-0.1c1.2,0.5,2.9,0.6,3.6,1.5c2.2,2.5,4.4,5.2,6,8.1c8.5,15.5,17,30.9,27,45.4c2.4,3.4,5.6,7.5,1.2,12.3
				c1.3,0.2,2.9,0.6,3.5,0.1c1.1-1.1,2.5-3.1,2.2-4.3c-1-3.8-2.3-7.7-4.3-11c-6.4-11-13.2-21.7-19.8-32.6c-2.8-4.6-5.1-9.4-8.1-13.9
				c-1.9-2.9-4.5-5.5-6.9-7.9c-0.6-0.6-2.4-0.9-3.1-0.5C83.4,89.3,82.8,90.6,82.1,91.7z M151.4,151.7c0.5-0.2,1-0.3,1.5-0.5
				c-0.5-1.6-1-3.1-1.4-4.7c-0.5,0.1-0.9,0.3-1.4,0.4C150.4,148.5,150.9,150.1,151.4,151.7z"/>
			<path d="M103.1,67c-0.3-4.4,0.7-5.8,5-5.9c2.7-0.1,3.1-1.2,2.9-3.5c-0.2-2.1-0.1-4.2,0-6.2c0-0.6,0.8-1.6,1.3-1.7
				c0.6-0.1,1.7,0.6,1.8,1.2c1.1,4.2,2.2,8.4,3,12.6c0.1,0.6-1.2,1.7-2,2.3c-0.3,0.3-1.1,0.1-1.6,0.1c-5.4,0.4-5.4,0.4-6.2,5.7
				c-0.1,0.9-0.9,1.8-1.4,2.6c-0.7-0.8-1.7-1.5-2-2.4C103.3,70.2,103.3,68.6,103.1,67z"/>
			<path d="M121.2,76.5c-2.2-0.7-3.3,0.6-3.9,2.9c-0.2,0.6-1,1.1-1.5,1.6c-0.6-0.6-1.4-1.2-1.6-1.9c-1-4,1.8-7.7,5.8-7.9
				c0.8-0.1,1.8-0.7,2.3-1.4c0.9-1.2,1.4-2.8,2.2-4c0.4-0.5,1.4-1,2-0.9c0.5,0.1,1.1,1.2,1,1.8c-0.3,2.5-0.8,5-1.4,7.5
				C125.5,76.8,123.4,76.6,121.2,76.5z"/>
			<path class="st0" d="M82.1,91.7c0.8-1,1.4-2.4,2.4-3c0.8-0.4,2.5-0.2,3.1,0.5c2.5,2.5,5,5,6.9,7.9c2.9,4.5,5.3,9.3,8.1,13.9
				c6.6,10.9,13.4,21.6,19.8,32.6c2,3.4,3.3,7.2,4.3,11c0.3,1.2-1.1,3.1-2.2,4.3c-0.6,0.6-2.2,0.2-3.5-0.1c4.3-4.8,1.1-8.9-1.2-12.3
				c-10.1-14.5-18.6-29.9-27-45.4c-1.6-2.9-3.8-5.5-6-8.1c-0.8-0.9-2.4-1-3.6-1.5C82.8,91.6,82.4,91.6,82.1,91.7z"/>
			<path class="st0" d="M151.4,151.7c-0.5-1.6-0.9-3.2-1.4-4.8c0.5-0.1,0.9-0.3,1.4-0.4c0.5,1.6,1,3.1,1.4,4.7
				C152.3,151.4,151.8,151.5,151.4,151.7z"/>
		</g>
	</g>
	<g id="Phone2_xA0_影像_1_">
	</g>
	<g id="Phone1_xA0_影像_1_">
	</g>
</g>
<g id="t02">
	<g id="Phone2_xA0_影像_2_">
		<g>
			<path d="M30.2,108.2c1.5-6,2.5-12.1,4.6-17.8c3.5-9.5,7.2-19.1,14.1-26.8c11.9-13.1,25.3-24,42.9-28.4c8.6-2.1,17.3-4.5,26.3-3.8
				c5.5,0.4,11,1.1,16.3,2.4c14.3,3.6,27,10.4,38.4,19.8c7.2,5.9,11.5,14,16.1,21.8c2.3,3.9,4,8.2,6,12.2c4,8.2,4.7,17,5.6,25.9
				c1.4,13-1.8,25.1-6.9,36.8c-1.4,3.3-3.7,6.2-5.8,9.2c-3.8,5.3-7.8,10.5-11.6,15.8c-0.5,0.6-0.7,1.7-0.5,2.4
				c0.6,3.8,1.6,7.5,2.1,11.2c0.2,1.5,0,3.5-0.9,4.4c-0.7,0.7-3,0.4-4.2-0.2c-3.5-1.8-6.8-3.8-10.1-5.9c-1.3-0.9-2.3-1-3.7-0.2
				c-10.7,5.5-21.6,10.4-33.5,12.6c-11.2,2.1-22.5,3.4-33.7,0.5c-11.5-3-21.7-8.5-31-16c-12-9.7-20.8-21.6-25.2-36.4
				c-2.3-7.7-3.1-15.8-4.7-23.7c-0.2-0.9-0.4-1.7-0.6-2.6C30.2,117,30.2,112.6,30.2,108.2z M173.6,188.5c-0.9-4.7-1.7-8.5-2.3-12.3
				c-0.2-1,0-2.3,0.6-3c2.1-2.5,4.4-4.8,6.5-7.3c6.5-7.5,12-15.5,14.3-25.4c2.2-9.3,3.1-18.7,3.1-28.3c0-9.3-1.8-18-6-26.3
				c-2.7-5.2-5.5-10.4-8.3-15.6c-3.7-6.7-9-11.9-15.3-15.9c-6.2-4-12.4-7.9-18.9-11.3c-4.5-2.4-9.3-4.8-14.3-5.8
				c-9.3-1.9-18.9-2.6-28.4-0.8c-5.9,1.1-11.8,2.2-17.3,4.3c-8.1,3.1-15.1,8.1-22,13.4c-11.5,9-19.6,19.7-24.6,33.4
				c-5.2,14.2-4.6,28.5-3.2,43c0.8,8.4,4.2,15.9,7.5,23.5c6.3,14.4,16,25.6,29.7,33.3c15,8.4,30.7,11.4,48,8
				c13.3-2.6,25.6-7.2,37.4-13.4c0.6-0.3,1.8-0.1,2.6,0.3C166.2,184.2,169.6,186.2,173.6,188.5z"/>
			<path class="st0" d="M173.6,188.5c-4-2.3-7.4-4.4-10.9-6.3c-0.7-0.4-1.9-0.6-2.6-0.3c-11.8,6.2-24.1,10.8-37.4,13.4
				c-17.3,3.4-33,0.4-48-8C61,179.6,51.3,168.3,45,154c-3.3-7.6-6.7-15.1-7.5-23.5c-1.4-14.5-2-28.8,3.2-43
				c5-13.6,13.1-24.4,24.4-33.2C72,48.9,79,44,87.1,40.9c5.5-2.1,11.5-3.2,17.3-4.3c9.5-1.8,19.1-1.1,28.4,0.8c5,1,9.7,3.4,14.3,5.8
				c6.5,3.4,12.7,7.4,18.9,11.3c6.3,4.1,11.7,9.2,15.3,15.9c2.8,5.2,5.6,10.4,8.3,15.6c4.3,8.2,6,17,6,26.3c0,9.6-1,19-3.1,28.3
				c-2.3,9.8-7.8,17.9-14.3,25.4c-2.1,2.5-4.5,4.7-6.5,7.3c-0.6,0.7-0.7,2-0.6,3C171.9,180.1,172.7,183.9,173.6,188.5z M107.6,164.7
				c3-1.3,5.9-2,8.1-3.8c5.6-4.5,7.8-10.8,8-17.8c0.1-3.7-2.8-6.2-6.7-6.4c-1-0.1-2,0.1-3,0.1c-2.4,0.1-3.3-0.7-2.8-3
				c1.8-8.1,3.7-16.1,5.7-24.1c0.6-2.3,1.8-4.6,3-6.7c0.5-0.9,1.9-1.9,2.9-2c8-0.7,12.4-5.2,14.3-12.7c2-8.1-1.4-14.8-7.9-17.6
				c-8.2-3.5-15.4-3.3-20.3,5c-4.6,7.7-9.1,16-11.4,24.6c-4,14.9-6.3,30.2-9.2,45.4c-0.4,2.1-0.1,4.3,0,6.5c0.1,2.9,1.3,5.5,3.8,6.8
				c3.3,1.7,6.8,2.8,10.2,4.3c1,0.5,2.1,1.4,2.5,2.3c1.6,4.5,4.8,7.2,9.2,8.5c3.2,0.9,6.3,2,9.6,2.4c2.2,0.3,4.6-0.5,6.9-0.8
				c0.9-0.1,1.7-0.5,2.5-0.4c4.5,0.8,9.5-1.9,11.1-6.3c0.2-0.6-0.2-1.3-0.2-2c-0.7,0.2-1.6,0.1-2.1,0.6c-1.2,1.2-2.1,2.7-3.4,3.8
				c-0.9,0.7-2.2,1-3.3,1.4c0.2-1.9,1.1-3.1,1.1-4.3c0.1-1.2-0.4-3.1-1.3-3.6c-0.9-0.5-3.2-0.1-3.7,0.7c-1,1.4-1.1,3.4-1.6,5.2
				c-0.3,0.9-0.3,2.1-0.9,2.5c-2,1.1-4.1,1-6.1-0.5c1-1.4,2-2.6,2.7-4c1.4-2.7,1-5.1-0.7-6.2c-1.9-1.1-4.8-0.2-6.1,2.5
				c-1,1.9-1.3,4-2,6.2C112.5,172,108,168.5,107.6,164.7z M149.6,72.6c-1.3,0.7-2.4,1.1-3.2,1.9c-1.4,1.4-2.7,2.9-3.8,4.6
				c-0.5,0.9-0.4,2.2-0.5,3.4c1-0.3,2.3-0.4,3.1-1c3.8-3,3.8-3.1,7.6,0.1c0.5,0.4,0.9,0.8,1.4,1.3c1.3,1.2,2.7,1.3,3.7-0.2
				c2.2-3.4,4.4-6.9,6.4-10.4c0.3-0.6-0.1-1.6-0.2-2.5c-0.8,0.2-1.9,0.1-2.4,0.5c-1.6,1.4-3.2,3-4.6,4.6c-1.3,1.5-2.3,1.7-3.7,0.3
				C152.3,74.2,150.9,73.5,149.6,72.6z M163.7,90.8c-1-0.3-2-0.9-2.8-0.7c-1.4,0.2-2.8,1-4.2,1.2c-0.9,0.1-2-0.1-2.7-0.7
				c-3.1-2.5-7.4-2-9.6,1.4c-0.4,0.6-0.3,1.5-0.4,2.3c0.8,0.1,1.9,0.5,2.4,0.1c2.3-1.6,3.7-0.5,5.3,1.2c0.9,0.9,2.8,2,3.6,1.6
				c2.7-1.3,5-3.1,7.5-4.8C163.2,92.2,163.3,91.7,163.7,90.8z"/>
			<path d="M107.6,164.7c0.4,3.9,4.8,7.4,8.7,6.8c0.7-2.2,1.1-4.3,2-6.2c1.4-2.7,4.2-3.6,6.1-2.5c1.7,1,2.1,3.5,0.7,6.2
				c-0.7,1.3-1.7,2.5-2.7,4c2,1.5,4.1,1.5,6.1,0.5c0.6-0.3,0.7-1.6,0.9-2.5c0.5-1.8,0.6-3.8,1.6-5.2c0.6-0.8,2.8-1.2,3.7-0.7
				c0.9,0.5,1.3,2.4,1.3,3.6c-0.1,1.2-1,2.4-1.1,4.3c1.1-0.5,2.4-0.7,3.3-1.4c1.3-1.1,2.2-2.6,3.4-3.8c0.5-0.4,1.4-0.4,2.1-0.6
				c0.1,0.7,0.4,1.4,0.2,2c-1.5,4.4-6.5,7.1-11.1,6.3c-0.8-0.1-1.7,0.3-2.5,0.4c-2.3,0.3-4.6,1.1-6.9,0.8c-3.2-0.4-6.4-1.5-9.6-2.4
				c-4.5-1.3-7.6-4-9.2-8.5c-0.3-1-1.5-1.9-2.5-2.3c-3.4-1.5-6.9-2.6-10.2-4.3c-2.6-1.3-3.7-3.9-3.8-6.8c-0.1-2.2-0.4-4.4,0-6.5
				c2.9-15.2,5.2-30.5,9.2-45.4c2.3-8.6,6.8-16.9,11.4-24.6c5-8.3,12.1-8.5,20.3-5c6.5,2.7,9.9,9.5,7.9,17.6
				c-1.9,7.6-6.3,12-14.3,12.7c-1,0.1-2.3,1-2.9,2c-1.2,2.1-2.4,4.4-3,6.7c-2.1,8-3.9,16-5.7,24.1c-0.5,2.3,0.4,3.1,2.8,3
				c1-0.1,2-0.2,3-0.1c4,0.3,6.8,2.7,6.7,6.4c-0.2,7-2.4,13.3-8,17.8C113.6,162.6,110.6,163.4,107.6,164.7z M113.8,78.2
				c0.7,2.1,1.6,3.6,1.5,5c-0.2,3.1-0.6,6.3-1.5,9.4c-5,16.9-9.9,33.8-12.9,51.2c-0.4,2.3-1.4,4.5-2.6,6.5c-0.6,1-2.1,1.6-3.3,2.3
				c-0.5,0.3-1.1,0.5-1.6,0.7c0.3,0.6,0.4,1.4,0.9,1.9c1.5,1.5,5,1.1,6.2-1.1c1.9-3.6,3.6-7.3,4.6-11.2c2.2-8.7,3.7-17.6,5.9-26.3
				c2.1-8.3,4.9-16.4,6.9-24.6c0.9-3.8,1-7.9,0.9-11.8C118.5,77.2,115.5,76.6,113.8,78.2z M123.5,165.4c-3.3,1.3-3.8,2.4-2.7,5.4
				C121.7,168.8,122.4,167.4,123.5,165.4z"/>
			<path d="M149.6,72.6c1.3,0.9,2.7,1.6,3.8,2.6c1.5,1.5,2.5,1.2,3.7-0.3c1.4-1.7,2.9-3.2,4.6-4.6c0.5-0.5,1.6-0.4,2.4-0.5
				c0.1,0.8,0.6,1.9,0.2,2.5c-2,3.5-4.1,7-6.4,10.4c-1,1.5-2.4,1.4-3.7,0.2c-0.5-0.4-0.9-0.9-1.4-1.3c-3.8-3.1-3.8-3.1-7.6-0.1
				c-0.8,0.6-2,0.7-3.1,1c0.1-1.1,0-2.5,0.5-3.4c1-1.7,2.4-3.2,3.8-4.6C147.2,73.7,148.4,73.3,149.6,72.6z"/>
			<path d="M163.7,90.8c-0.4,0.9-0.5,1.4-0.7,1.6c-2.5,1.7-4.8,3.6-7.5,4.8c-0.8,0.4-2.7-0.7-3.6-1.6c-1.6-1.7-3-2.8-5.3-1.2
				c-0.5,0.4-1.6-0.1-2.4-0.1c0.1-0.8,0-1.7,0.4-2.3c2.1-3.4,6.5-3.9,9.6-1.4c0.7,0.5,1.8,0.8,2.7,0.7c1.4-0.2,2.8-1,4.2-1.2
				C161.8,89.9,162.7,90.5,163.7,90.8z"/>
			<path class="st0" d="M113.8,78.2c1.7-1.6,4.7-1,4.8,1.8c0.2,3.9,0,8-0.9,11.8c-2,8.3-4.8,16.4-6.9,24.6
				c-2.2,8.7-3.7,17.6-5.9,26.3c-1,3.9-2.7,7.6-4.6,11.2c-1.2,2.2-4.7,2.6-6.2,1.1c-0.5-0.5-0.6-1.2-0.9-1.9
				c0.5-0.2,1.1-0.4,1.6-0.7c1.2-0.7,2.7-1.2,3.3-2.3c1.2-2,2.2-4.3,2.6-6.5c3-17.4,8-34.3,12.9-51.2c0.9-3,1.3-6.2,1.5-9.4
				C115.4,81.8,114.5,80.3,113.8,78.2z"/>
			<path class="st0" d="M123.5,165.4c-1.1,2.1-1.8,3.5-2.7,5.4C119.6,167.7,120.1,166.7,123.5,165.4z"/>
		</g>
	</g>
	<g id="Phone1_xA0_影像_4_">
	</g>
</g>
<g id="t03">
	<g id="Phone1_xA0_影像_3_">
		<g>
			<path d="M30.2,108.2c1.5-6,2.5-12.1,4.6-17.8c3.5-9.5,7.2-19.1,14.1-26.8c11.9-13.1,25.3-24,42.9-28.4c8.6-2.1,17.3-4.5,26.3-3.8
				c5.5,0.4,11,1.1,16.3,2.4c14.3,3.6,27,10.4,38.4,19.8c7.2,5.9,11.5,14,16.1,21.8c2.3,3.9,4,8.2,6,12.2c4,8.2,4.7,17,5.6,25.9
				c1.4,13-1.8,25.1-6.9,36.8c-1.4,3.3-3.7,6.2-5.8,9.2c-3.8,5.3-7.8,10.5-11.6,15.8c-0.5,0.6-0.7,1.7-0.5,2.4
				c0.6,3.8,1.6,7.5,2.1,11.2c0.2,1.5,0,3.5-0.9,4.4c-0.7,0.7-3,0.4-4.2-0.2c-3.5-1.8-6.8-3.8-10.1-5.9c-1.3-0.9-2.3-1-3.7-0.2
				c-10.7,5.5-21.6,10.4-33.5,12.6c-11.2,2.1-22.5,3.4-33.7,0.5c-11.5-3-21.7-8.5-31-16c-12-9.7-20.8-21.6-25.2-36.4
				c-2.3-7.7-3.1-15.8-4.7-23.7c-0.2-0.9-0.4-1.7-0.6-2.6C30.2,117,30.2,112.6,30.2,108.2z M173.5,188.5c-0.9-4.6-1.7-8.4-2.3-12.2
				c-0.2-1,0.1-2.4,0.7-3.2c2.4-2.9,5.1-5.4,7.4-8.3c4.9-5.9,9.4-12.1,11.8-19.5c2.8-9,4.5-18.1,4.5-27.6c0-9,0.3-18.1-3.7-26.5
				c-3.4-7-7-14-10.6-20.8s-9.1-12-15.5-16.1c-6-3.8-12-7.6-18.2-10.9c-4.8-2.5-9.8-5-15-6.1c-9.1-1.9-18.4-2.5-27.6-0.9
				c-6,1.1-12.2,2.2-17.9,4.4c-8.1,3.1-15.1,8-22,13.4C53.7,63.1,45.5,74,40.5,87.7c-5.1,14.2-4.5,28.5-3,43
				c0.8,8.2,4.1,15.5,7.3,23c6.2,14.1,15.5,25.3,28.9,33c15.2,8.8,31.2,12.1,48.9,8.6c13.3-2.6,25.6-7.2,37.4-13.4
				c0.7-0.3,1.9-0.2,2.6,0.2C166.1,184.1,169.5,186.2,173.5,188.5z"/>
			<path class="st0" d="M173.5,188.5c-4-2.3-7.4-4.4-10.9-6.3c-0.7-0.4-1.9-0.6-2.6-0.2c-11.9,6.2-24.1,10.8-37.4,13.4
				c-17.7,3.5-33.7,0.2-48.9-8.6c-13.3-7.7-22.7-18.9-28.9-33c-3.2-7.4-6.5-14.8-7.3-23c-1.4-14.5-2.1-28.8,3-43
				c4.9-13.7,13.1-24.6,24.6-33.5C72,48.9,79,44,87.1,40.9c5.7-2.2,11.8-3.3,17.9-4.4c9.2-1.6,18.6-1,27.6,0.9
				c5.2,1.1,10.2,3.6,15,6.1c6.3,3.3,12.2,7.1,18.2,10.9c6.4,4.1,11.9,9.3,15.5,16.1c3.7,6.9,7.3,13.8,10.6,20.8
				c4,8.4,3.7,17.5,3.7,26.5c0,9.4-1.7,18.6-4.5,27.6c-2.3,7.4-6.9,13.6-11.8,19.5c-2.4,2.9-5.1,5.4-7.4,8.3
				c-0.6,0.8-0.9,2.2-0.7,3.2C171.9,180.1,172.7,183.9,173.5,188.5z M75.3,144.6c2.9,1.1,5.5,2.8,8.3,3.1c7.2,0.8,13.4-2.1,18.5-7
				c2.6-2.5,2.2-6.1-0.3-9.1c-0.6-0.7-1.5-1.3-2.2-2c-1.8-1.6-1.8-2.8,0.1-4.2c2.7-1.9,5.3-3.9,8.1-5.6c5.8-3.3,11.6-6.4,17.5-9.4
				c1.8-0.9,4-1.9,6.1,0c5.7,5.1,11.9,5,18.4,1.3c7.5-4.2,9.9-11.8,7.3-18.3c-3.3-8.1-8.6-12.9-18.3-10.7
				c-11.3,2.5-22.2,6.6-31.9,13c-10.2,6.7-20.2,13.7-30.1,20.7c-2.3,1.7-4.3,3.9-6.3,6c-1.9,2-2.9,4.7-2,7.3
				c1.1,3.5,2.8,6.8,4.1,10.3c0.4,1,0.6,2.5,0.1,3.4c-2.4,5.3-1.5,11,2.4,15.1c0.8,0.9,1.4,2,1.8,3.2c1.2,3.4,3.2,5.8,6.7,7
				c0.7,0.2,1.6,0.7,1.9,1.3c2,4.1,5.6,4.6,9.5,4.1c1.4-0.2,3.9-1.6,3.8-1.9c-0.6-2.3-2.5-0.8-3.8-0.8c-2.2,0-4.5,0.4-6.3-2
				c1.6-0.6,3-0.9,3.9-1.7c0.9-0.9,1.9-2.5,1.7-3.5c-0.3-1-2.2-2.2-3.2-2.1c-1.6,0.2-3.1,1.6-4.6,2.4c-0.9,0.5-1.9,1.4-2.6,1.2
				c-2-0.7-3.5-2-3.7-4.3c2.3-0.8,4.6-1.2,6.4-2.4c1-0.6,2-2.6,1.8-3.7c-0.3-1.1-2.2-2.7-3.3-2.6c-2.3,0.2-4.6,1.2-6.7,2.2
				c-1,0.5-1.6,1.4-2.7,0.1C73.4,152.4,73.2,147.3,75.3,144.6z M164.9,108.4c-1,0.1-2.8,0.2-4.4,0.6c-1,0.3-1.8,1.2-2.6,1.9
				c0.9,0.5,1.8,1.4,2.8,1.5c4.8,0.6,4.8,0.5,5.3,5.3c0.1,0.7,0.1,1.4,0.1,2.2c0.1,1.6,1,2.7,2.6,2.4c4.1-0.8,8.1-1.8,12.1-2.9
				c0.6-0.2,1.3-1.2,1.2-1.8c-0.1-0.5-1.1-1.2-1.7-1.3c-2-0.2-4-0.3-6,0c-2.6,0.3-3.6-0.5-3.7-3.2
				C170.6,109.3,169.2,108.2,164.9,108.4z M153.4,119c-0.7,0.5-1.6,1.1-2.4,1.6c0.7,0.7,1.3,1.7,2.1,2c1.6,0.6,2.3,1.4,2.3,3.2
				c0,5.1,0.1,5.1,5.2,6.1c0.6,0.1,1.3,0.3,1.9,0.3c1.4-0.1,3.9,0.1,4.1-0.4c0.8-2.2-1.5-2.5-2.8-3.1c-2.3-1-3.7-2.4-3.4-5.2
				c0.1-0.9-0.8-2.3-1.7-2.7C157.2,119.9,155.4,119.6,153.4,119z"/>
			<path d="M75.3,144.6c-2,2.7-1.9,7.8,0.4,10.5c1.1,1.3,1.6,0.4,2.7-0.1c2.1-1,4.4-2,6.7-2.2c1.1-0.1,3,1.4,3.3,2.6
				c0.3,1.1-0.7,3.1-1.8,3.7c-1.8,1.1-4.1,1.6-6.4,2.4c0.2,2.2,1.7,3.6,3.7,4.3c0.7,0.2,1.7-0.7,2.6-1.2c1.5-0.8,3-2.1,4.6-2.4
				c1-0.2,2.9,1.1,3.2,2.1c0.3,0.9-0.7,2.6-1.7,3.5c-0.9,0.8-2.4,1.1-3.9,1.7c1.9,2.4,4.1,2,6.3,2c1.4,0,3.2-1.4,3.8,0.8
				c0.1,0.3-2.4,1.7-3.8,1.9c-3.9,0.5-7.5,0-9.5-4.1c-0.3-0.6-1.2-1-1.9-1.3c-3.5-1.1-5.5-3.6-6.7-7c-0.4-1.1-1-2.3-1.8-3.2
				c-3.9-4.2-4.8-9.8-2.4-15.1c0.4-0.9,0.2-2.4-0.1-3.4c-1.3-3.5-3-6.8-4.1-10.3c-0.8-2.7,0.1-5.3,2-7.3c2-2.1,3.9-4.4,6.3-6
				c9.9-7,19.9-14,30.1-20.7c9.8-6.4,20.6-10.4,31.9-13c9.7-2.2,15,2.6,18.3,10.7c2.7,6.5,0.2,14.1-7.3,18.3
				c-6.5,3.7-12.6,3.8-18.4-1.3c-2.1-1.9-4.2-1-6.1,0c-5.9,3-11.8,6.1-17.5,9.4c-2.8,1.6-5.4,3.6-8.1,5.6c-1.9,1.4-1.9,2.6-0.1,4.2
				c0.7,0.7,1.6,1.3,2.2,2c2.6,3,2.9,6.6,0.3,9.1c-5.1,4.9-11.2,7.8-18.5,7C80.8,147.4,78.2,145.7,75.3,144.6z M140.7,87.8
				c-1.1,2-1.6,3.9-2.8,5c-2.2,2-4.7,3.8-7.3,5.2c-15.5,8.4-30.9,16.8-45.3,27c-1.9,1.3-4.2,2.2-6.5,2.8c-1.2,0.3-2.6-0.4-4-0.7
				c-0.6-0.1-1.4-0.7-1.6-0.6c-0.4,0.5-0.8,1.2-0.8,1.9c0,2.1,2.8,4.3,5.2,3.6c3.8-1.2,7.7-2.7,11.2-4.7c10-5.9,19.8-12.2,29.7-18.2
				c5.3-3.2,10.9-5.9,16.1-9.2c3-1.9,5.7-4.4,8.1-7.1C144.8,90.5,143.3,88,140.7,87.8z M80.6,157c0.1,0.3,0.2,0.7,0.3,1
				c1.4-0.4,2.8-0.9,4.3-1.3C83.1,154.8,81.7,155.3,80.6,157z"/>
			<path d="M164.9,108.4c4.3-0.2,5.7,0.9,5.8,4.7c0.1,2.6,1.1,3.5,3.7,3.2c2-0.3,4-0.2,6,0c0.6,0.1,1.6,0.8,1.7,1.3
				c0.1,0.5-0.7,1.6-1.2,1.8c-4,1.1-8,2.1-12.1,2.9c-1.6,0.3-2.5-0.7-2.6-2.4c-0.1-0.7-0.1-1.5-0.1-2.2c-0.5-4.7-0.5-4.7-5.3-5.3
				c-1-0.1-1.9-1-2.8-1.5c0.9-0.6,1.6-1.6,2.6-1.9C162.1,108.5,163.9,108.5,164.9,108.4z"/>
			<path d="M153.4,119c2,0.6,3.8,0.9,5.3,1.7c0.8,0.5,1.8,1.9,1.7,2.7c-0.3,2.8,1.1,4.2,3.4,5.2c1.4,0.6,3.6,1,2.8,3.1
				c-0.2,0.6-2.7,0.4-4.1,0.4c-0.6,0-1.3-0.2-1.9-0.3c-5.1-0.9-5.2-1-5.2-6.1c0-1.8-0.8-2.6-2.3-3.2c-0.8-0.3-1.4-1.3-2.1-2
				C151.8,120.1,152.6,119.5,153.4,119z"/>
			<path class="st0" d="M140.7,87.8c2.5,0.2,4.1,2.7,2,5c-2.4,2.7-5.1,5.2-8.1,7.1c-5.2,3.3-10.8,6-16.1,9.2
				c-9.9,6-19.7,12.3-29.7,18.2c-3.5,2-7.3,3.5-11.2,4.7c-2.4,0.8-5.2-1.5-5.2-3.6c0-0.6,0.4-1.4,0.8-1.9c0.1-0.2,1,0.4,1.6,0.6
				c1.3,0.3,2.8,1,4,0.7c2.2-0.6,4.6-1.4,6.5-2.8c14.4-10.2,29.9-18.6,45.3-27c2.6-1.4,5.1-3.2,7.3-5.2
				C139.1,91.7,139.6,89.9,140.7,87.8z"/>
			<path class="st0" d="M80.6,157c1.1-1.7,2.5-2.2,4.6-0.4c-1.4,0.4-2.8,0.9-4.3,1.3C80.8,157.7,80.7,157.3,80.6,157z"/>
		</g>
	</g>
</g>
</svg>
