<?xml version="1.0" encoding="utf-8"?>
<!-- Generator: Adobe Illustrator 18.0.0, SVG Export Plug-In . SVG Version: 6.00 Build 0)  -->
<!DOCTYPE svg PUBLIC "-//W3C//DTD SVG 1.1//EN" "http://www.w3.org/Graphics/SVG/1.1/DTD/svg11.dtd">
<svg version="1.1" xmlns="http://www.w3.org/2000/svg" xmlns:xlink="http://www.w3.org/1999/xlink" x="0px" y="0px"
	 viewBox="0 0 222 243" enable-background="new 0 0 222 243" xml:space="preserve">
<g id="Machine_White_xA0_影像_1_">
</g>
<g id="Machine_Color_xA0_影像_1_">
</g>
<g id="Time_Machine_xA0_影像_1_">
</g>
<g id="圖層_10">
	<g id="Hand1_xA0_影像_1_">
	</g>
</g>
<g id="Hand2_xA0_影像_1_">
</g>
<g id="Hand3_xA0_影像_1_">
</g>
<g id="Phone3_xA0_影像_1_">
</g>
<g id="Phone2_xA0_影像_1_">
	<g>
		<path d="M18.1,116.6c1.5-6,2.5-12.1,4.6-17.8c3.5-9.5,7.2-19.1,14.1-26.8c11.9-13.1,25.3-24,42.9-28.4c8.6-2.1,17.3-4.5,26.3-3.8
			c5.5,0.4,11,1.1,16.3,2.4c14.3,3.6,27,10.4,38.4,19.8c7.2,5.9,11.5,14,16.1,21.8c2.3,3.9,4,8.2,6,12.2c4,8.2,4.7,17,5.6,25.9
			c1.4,13-1.8,25.1-6.9,36.8c-1.4,3.3-3.7,6.2-5.8,9.2c-3.8,5.3-7.8,10.5-11.6,15.8c-0.5,0.6-0.7,1.7-0.5,2.4
			c0.6,3.8,1.6,7.5,2.1,11.2c0.2,1.5,0,3.5-0.9,4.4c-0.7,0.7-3,0.4-4.2-0.2c-3.5-1.8-6.8-3.8-10.1-5.9c-1.3-0.9-2.3-1-3.7-0.2
			c-10.7,5.5-21.6,10.4-33.5,12.6c-11.2,2.1-22.5,3.4-33.7,0.5c-11.5-3-21.7-8.5-31-16c-12-9.7-20.8-21.6-25.2-36.4
			c-2.3-7.7-3.1-15.8-4.7-23.7c-0.2-0.9-0.4-1.7-0.6-2.6C18.1,125.4,18.1,121,18.1,116.6z M161.5,196.9c-0.9-4.7-1.7-8.5-2.3-12.3
			c-0.2-1,0-2.3,0.6-3c2.1-2.5,4.4-4.8,6.5-7.3c6.5-7.5,12-15.5,14.3-25.4c2.2-9.3,3.1-18.7,3.1-28.3c0-9.3-1.8-18-6-26.3
			c-2.7-5.2-5.5-10.4-8.3-15.6c-3.7-6.7-9-11.9-15.3-15.9c-6.2-4-12.4-7.9-18.9-11.3c-4.5-2.4-9.3-4.8-14.3-5.8
			c-9.3-1.9-18.9-2.6-28.4-0.8c-5.9,1.1-11.8,2.2-17.3,4.3c-8.1,3.1-15.1,8.1-22,13.4C41.7,71.6,33.6,82.3,28.6,96
			c-5.2,14.2-4.6,28.5-3.2,43c0.8,8.4,4.2,15.9,7.5,23.5c6.3,14.4,16,25.6,29.7,33.3c15,8.4,30.7,11.4,48,8
			c13.3-2.6,25.6-7.2,37.4-13.4c0.6-0.3,1.8-0.1,2.6,0.3C154.1,192.6,157.5,194.6,161.5,196.9z"/>
		<path fill="#FFFFFF" d="M161.5,196.9c-4-2.3-7.4-4.4-10.9-6.3c-0.7-0.4-1.9-0.6-2.6-0.3c-11.8,6.2-24.1,10.8-37.4,13.4
			c-17.3,3.4-33,0.4-48-8c-13.7-7.7-23.4-19-29.7-33.3c-3.3-7.6-6.7-15.1-7.5-23.5c-1.4-14.5-2-28.8,3.2-43
			c5-13.6,13.1-24.4,24.4-33.2c6.9-5.4,13.9-10.3,22-13.4c5.5-2.1,11.5-3.2,17.3-4.3c9.5-1.8,19.1-1.1,28.4,0.8
			c5,1,9.7,3.4,14.3,5.8c6.5,3.4,12.7,7.4,18.9,11.3c6.3,4.1,11.7,9.2,15.3,15.9c2.8,5.2,5.6,10.4,8.3,15.6c4.3,8.2,6,17,6,26.3
			c0,9.6-1,19-3.1,28.3c-2.3,9.8-7.8,17.9-14.3,25.4c-2.1,2.5-4.5,4.7-6.5,7.3c-0.6,0.7-0.7,2-0.6,3
			C159.8,188.5,160.6,192.3,161.5,196.9z M95.5,173.1c3-1.3,5.9-2,8.1-3.8c5.6-4.5,7.8-10.8,8-17.8c0.1-3.7-2.8-6.2-6.7-6.4
			c-1-0.1-2,0.1-3,0.1c-2.4,0.1-3.3-0.7-2.8-3c1.8-8.1,3.7-16.1,5.7-24.1c0.6-2.3,1.8-4.6,3-6.7c0.5-0.9,1.9-1.9,2.9-2
			c8-0.7,12.4-5.2,14.3-12.7c2-8.1-1.4-14.8-7.9-17.6c-8.2-3.5-15.4-3.3-20.3,5c-4.6,7.7-9.1,16-11.4,24.6
			c-4,14.9-6.3,30.2-9.2,45.4c-0.4,2.1-0.1,4.3,0,6.5c0.1,2.9,1.3,5.5,3.8,6.8c3.3,1.7,6.8,2.8,10.2,4.3c1,0.5,2.1,1.4,2.5,2.3
			c1.6,4.5,4.8,7.2,9.2,8.5c3.2,0.9,6.3,2,9.6,2.4c2.2,0.3,4.6-0.5,6.9-0.8c0.9-0.1,1.7-0.5,2.5-0.4c4.5,0.8,9.5-1.9,11.1-6.3
			c0.2-0.6-0.2-1.3-0.2-2c-0.7,0.2-1.6,0.1-2.1,0.6c-1.2,1.2-2.1,2.7-3.4,3.8c-0.9,0.7-2.2,1-3.3,1.4c0.2-1.9,1.1-3.1,1.1-4.3
			c0.1-1.2-0.4-3.1-1.3-3.6c-0.9-0.5-3.2-0.1-3.7,0.7c-1,1.4-1.1,3.4-1.6,5.2c-0.3,0.9-0.3,2.1-0.9,2.5c-2,1.1-4.1,1-6.1-0.5
			c1-1.4,2-2.6,2.7-4c1.4-2.7,1-5.1-0.7-6.2c-1.9-1.1-4.8-0.2-6.1,2.5c-1,1.9-1.3,4-2,6.2C100.4,180.4,95.9,176.9,95.5,173.1z
			 M137.5,81c-1.3,0.7-2.4,1.1-3.2,1.9c-1.4,1.4-2.7,2.9-3.8,4.6c-0.5,0.9-0.4,2.2-0.5,3.4c1-0.3,2.3-0.4,3.1-1
			c3.8-3,3.8-3.1,7.6,0.1c0.5,0.4,0.9,0.8,1.4,1.3c1.3,1.2,2.7,1.3,3.7-0.2c2.2-3.4,4.4-6.9,6.4-10.4c0.3-0.6-0.1-1.6-0.2-2.5
			c-0.8,0.2-1.9,0.1-2.4,0.5c-1.6,1.4-3.2,3-4.6,4.6c-1.3,1.5-2.3,1.7-3.7,0.3C140.2,82.6,138.8,81.9,137.5,81z M151.6,99.2
			c-1-0.3-2-0.9-2.8-0.7c-1.4,0.2-2.8,1-4.2,1.2c-0.9,0.1-2-0.1-2.7-0.7c-3.1-2.5-7.4-2-9.6,1.4c-0.4,0.6-0.3,1.5-0.4,2.3
			c0.8,0.1,1.9,0.5,2.4,0.1c2.3-1.6,3.7-0.5,5.3,1.2c0.9,0.9,2.8,2,3.6,1.6c2.7-1.3,5-3.1,7.5-4.8
			C151.1,100.6,151.2,100.1,151.6,99.2z"/>
		<path d="M95.5,173.1c0.4,3.9,4.8,7.4,8.7,6.8c0.7-2.2,1.1-4.3,2-6.2c1.4-2.7,4.2-3.6,6.1-2.5c1.7,1,2.1,3.5,0.7,6.2
			c-0.7,1.3-1.7,2.5-2.7,4c2,1.5,4.1,1.5,6.1,0.5c0.6-0.3,0.7-1.6,0.9-2.5c0.5-1.8,0.6-3.8,1.6-5.2c0.6-0.8,2.8-1.2,3.7-0.7
			c0.9,0.5,1.3,2.4,1.3,3.6c-0.1,1.2-1,2.4-1.1,4.3c1.1-0.5,2.4-0.7,3.3-1.4c1.3-1.1,2.2-2.6,3.4-3.8c0.5-0.4,1.4-0.4,2.1-0.6
			c0.1,0.7,0.4,1.4,0.2,2c-1.5,4.4-6.5,7.1-11.1,6.3c-0.8-0.1-1.7,0.3-2.5,0.4c-2.3,0.3-4.6,1.1-6.9,0.8c-3.2-0.4-6.4-1.5-9.6-2.4
			c-4.5-1.3-7.6-4-9.2-8.5c-0.3-1-1.5-1.9-2.5-2.3c-3.4-1.5-6.9-2.6-10.2-4.3c-2.6-1.3-3.7-3.9-3.8-6.8c-0.1-2.2-0.4-4.4,0-6.5
			c2.9-15.2,5.2-30.5,9.2-45.4c2.3-8.6,6.8-16.9,11.4-24.6c5-8.3,12.1-8.5,20.3-5c6.5,2.7,9.9,9.5,7.9,17.6
			c-1.9,7.6-6.3,12-14.3,12.7c-1,0.1-2.3,1-2.9,2c-1.2,2.1-2.4,4.4-3,6.7c-2.1,8-3.9,16-5.7,24.1c-0.5,2.3,0.4,3.1,2.8,3
			c1-0.1,2-0.2,3-0.1c4,0.3,6.8,2.7,6.7,6.4c-0.2,7-2.4,13.3-8,17.8C101.5,171,98.5,171.8,95.5,173.1z M101.7,86.6
			c0.7,2.1,1.6,3.6,1.5,5c-0.2,3.1-0.6,6.3-1.5,9.4c-5,16.9-9.9,33.8-12.9,51.2c-0.4,2.3-1.4,4.5-2.6,6.5c-0.6,1-2.1,1.6-3.3,2.3
			c-0.5,0.3-1.1,0.5-1.6,0.7c0.3,0.6,0.4,1.4,0.9,1.9c1.5,1.5,5,1.1,6.2-1.1c1.9-3.6,3.6-7.3,4.6-11.2c2.2-8.7,3.7-17.6,5.9-26.3
			c2.1-8.3,4.9-16.4,6.9-24.6c0.9-3.8,1-7.9,0.9-11.8C106.4,85.6,103.4,85,101.7,86.6z M111.4,173.8c-3.3,1.3-3.8,2.4-2.7,5.4
			C109.6,177.2,110.3,175.8,111.4,173.8z"/>
		<path d="M137.5,81c1.3,0.9,2.7,1.6,3.8,2.6c1.5,1.5,2.5,1.2,3.7-0.3c1.4-1.7,2.9-3.2,4.6-4.6c0.5-0.5,1.6-0.4,2.4-0.5
			c0.1,0.8,0.6,1.9,0.2,2.5c-2,3.5-4.1,7-6.4,10.4c-1,1.5-2.4,1.4-3.7,0.2c-0.5-0.4-0.9-0.9-1.4-1.3c-3.8-3.1-3.8-3.1-7.6-0.1
			c-0.8,0.6-2,0.7-3.1,1c0.1-1.1,0-2.5,0.5-3.4c1-1.7,2.4-3.2,3.8-4.6C135.1,82.1,136.3,81.7,137.5,81z"/>
		<path d="M151.6,99.2c-0.4,0.9-0.5,1.4-0.7,1.6c-2.5,1.7-4.8,3.6-7.5,4.8c-0.8,0.4-2.7-0.7-3.6-1.6c-1.6-1.7-3-2.8-5.3-1.2
			c-0.5,0.4-1.6-0.1-2.4-0.1c0.1-0.8,0-1.7,0.4-2.3c2.1-3.4,6.5-3.9,9.6-1.4c0.7,0.5,1.8,0.8,2.7,0.7c1.4-0.2,2.8-1,4.2-1.2
			C149.7,98.3,150.6,98.9,151.6,99.2z"/>
		<path fill="#FFFFFF" d="M101.7,86.6c1.7-1.6,4.7-1,4.8,1.8c0.2,3.9,0,8-0.9,11.8c-2,8.3-4.8,16.4-6.9,24.6
			c-2.2,8.7-3.7,17.6-5.9,26.3c-1,3.9-2.7,7.6-4.6,11.2c-1.2,2.2-4.7,2.6-6.2,1.1c-0.5-0.5-0.6-1.2-0.9-1.9c0.5-0.2,1.1-0.4,1.6-0.7
			c1.2-0.7,2.7-1.2,3.3-2.3c1.2-2,2.2-4.3,2.6-6.5c3-17.4,8-34.3,12.9-51.2c0.9-3,1.3-6.2,1.5-9.4C103.3,90.2,102.4,88.7,101.7,86.6
			z"/>
		<path fill="#FFFFFF" d="M111.4,173.8c-1.1,2.1-1.8,3.5-2.7,5.4C107.5,176.1,108,175.1,111.4,173.8z"/>
	</g>
</g>
<g id="Phone1_xA0_影像_1_">
</g>
</svg>
