<?xml version="1.0" encoding="utf-8"?>
<!-- Generator: Adobe Illustrator 18.0.0, SVG Export Plug-In . SVG Version: 6.00 Build 0)  -->
<!DOCTYPE svg PUBLIC "-//W3C//DTD SVG 1.1//EN" "http://www.w3.org/Graphics/SVG/1.1/DTD/svg11.dtd">
<svg version="1.1" xmlns="http://www.w3.org/2000/svg" xmlns:xlink="http://www.w3.org/1999/xlink" x="0px" y="0px"
	 viewBox="0 0 225 240" enable-background="new 0 0 225 240" xml:space="preserve">
<g id="Machine_White_xA0_影像_1_">
</g>
<g id="Machine_Color_xA0_影像_1_">
</g>
<g id="Time_Machine_xA0_影像_1_">
</g>
<g id="圖層_10">
	<g id="Hand1_xA0_影像_1_">
	</g>
</g>
<g id="Hand2_xA0_影像_1_">
</g>
<g id="Hand3_xA0_影像_1_">
</g>
<g id="Phone3_xA0_影像_1_">
	<g>
		<path d="M12.2,116.8c1.5-6,2.5-12.1,4.6-17.8c3.5-9.5,7.2-19.1,14.1-26.8c11.9-13.1,25.3-24,42.9-28.4c8.6-2.1,17.3-4.5,26.3-3.8
			c5.5,0.4,11,1.1,16.3,2.4c14.3,3.6,27,10.4,38.4,19.8c7.2,5.9,11.5,14,16.1,21.8c2.3,3.9,4,8.2,6,12.2c4,8.2,4.7,17,5.6,25.9
			c1.4,13-1.8,25.1-6.9,36.8c-1.4,3.3-3.7,6.2-5.8,9.2c-3.8,5.3-7.8,10.5-11.6,15.8c-0.5,0.6-0.7,1.7-0.5,2.4
			c0.6,3.8,1.6,7.5,2.1,11.2c0.2,1.5,0,3.5-0.9,4.4c-0.7,0.7-3,0.4-4.2-0.2c-3.5-1.8-6.8-3.8-10.1-5.9c-1.3-0.9-2.3-1-3.7-0.2
			c-10.7,5.5-21.6,10.4-33.5,12.6c-11.2,2.1-22.5,3.4-33.7,0.5c-11.5-3-21.7-8.5-31-16c-12-9.7-20.8-21.6-25.2-36.4
			c-2.3-7.7-3.1-15.8-4.7-23.7c-0.2-0.9-0.4-1.7-0.6-2.6C12.2,125.5,12.2,121.1,12.2,116.8z M155.5,197.1c-0.9-4.5-1.7-8.3-2.2-12.1
			c-0.2-1,0-2.5,0.6-3.2c2.2-2.7,4.7-5,6.9-7.7c6.3-7.4,11.6-15.4,13.9-25c2.4-10.1,3.3-20.4,3-30.8c-0.2-6.9-1.2-13.6-4.2-19.8
			c-3.6-7.2-7.1-14.5-11.2-21.5c-3.4-5.9-8.5-10.4-14.2-14c-6.2-3.8-12.3-7.8-18.7-11.2c-4.6-2.4-9.5-4.9-14.5-5.9
			c-9.3-1.9-18.8-2.5-28.2-0.8c-5.9,1.1-11.8,2.1-17.4,4.3c-8.1,3.2-15.3,8.1-22.2,13.5c-11.3,8.9-19.5,19.7-24.4,33.3
			c-5.1,14.2-4.6,28.5-3.1,43c0.8,8.2,4.1,15.5,7.3,23c6.1,14,15.3,25.3,28.6,32.9c11.6,6.6,23.7,11.5,37.5,10.1
			c4-0.4,8.1-1.1,12.1-1.5c13.3-1.5,25.2-7,36.9-13c0.7-0.4,2-0.2,2.8,0.2C148.2,192.7,151.6,194.8,155.5,197.1z"/>
		<path fill="#FFFFFF" d="M155.5,197.1c-3.9-2.3-7.3-4.3-10.8-6.2c-0.8-0.4-2.1-0.6-2.8-0.2c-11.7,6.1-23.6,11.5-36.9,13
			c-4,0.5-8.1,1.1-12.1,1.5c-13.8,1.4-25.9-3.5-37.5-10.1c-13.3-7.6-22.4-18.9-28.6-32.9c-3.3-7.4-6.5-14.8-7.3-23
			c-1.4-14.5-2-28.8,3.1-43C27.6,82.6,35.7,71.8,47,62.9c6.9-5.4,14.1-10.4,22.2-13.5c5.5-2.1,11.5-3.2,17.4-4.3
			c9.4-1.7,18.9-1.1,28.2,0.8c5,1,9.9,3.5,14.5,5.9c6.4,3.4,12.5,7.3,18.7,11.2c5.8,3.6,10.8,8.2,14.2,14
			c4.1,6.9,7.7,14.2,11.2,21.5c3,6.2,4,12.9,4.2,19.8c0.3,10.4-0.6,20.7-3,30.8c-2.3,9.7-7.6,17.6-13.9,25c-2.2,2.6-4.7,5-6.9,7.7
			c-0.6,0.8-0.8,2.2-0.6,3.2C153.8,188.8,154.6,192.5,155.5,197.1z M121.5,165.3c1.2-3,2.8-5.6,3.1-8.3c0.8-7.3-2.1-13.5-7.2-18.6
			c-2.4-2.5-6.2-2-9.1,0.5c-0.7,0.7-1.3,1.5-2,2.2c-1.6,1.8-2.8,1.8-4.1-0.2c-4.3-6.7-8.5-13.5-12.6-20.4c-1.4-2.3-2.3-5-3-7.6
			c-0.3-1,0-2.6,0.7-3.4c4.9-5.9,5.1-12,1.4-18.7c-4.2-7.5-11.4-9.6-18.3-7.5c-8.2,2.6-13.1,10.4-10.9,18c2.4,8.5,4.7,17.4,9.1,25
			c7.8,13.5,17,26.1,25.8,39.1c1.2,1.8,3.1,3.3,4.8,4.8c2,1.8,4.5,2.9,7,2.1c3.7-1.1,7.3-2.7,10.7-4.3c1.3-0.6,2.1-0.7,3.4,0
			c4.9,2.6,11.1,1.5,15.1-2.4c0.9-0.8,2-1.5,3.1-1.9c3.5-1.2,6-3.3,7.1-6.9c0.2-0.7,0.7-1.5,1.3-1.9c4-2.6,5.6-8.1,3.5-12.4
			c-0.3-0.6-1.2-0.8-1.8-1.2c-0.3,0.7-0.9,1.3-0.9,2c0,1.7,0.4,3.4,0.3,5.1c-0.1,1.1-0.9,2.2-1.7,3.9c-0.8-2.2-1-3.7-1.8-4.6
			c-0.8-0.9-2.5-1.9-3.5-1.7c-1,0.3-2.3,2.2-2.2,3.1c0.4,1.8,1.4,3.6,2.7,4.9c1.1,1.1,1.5,1.9,0.7,3c-1.1,1.4-2.5,2.6-4.1,4.1
			c-0.6-2.6-0.8-4.5-1.6-6.2c-0.8-1.9-2.1-3.9-4.7-3c-2.5,0.9-3.1,3.2-2.5,5.4c0.6,2.3,2,4.3,3.1,6.6
			C129.8,167,124.6,167.6,121.5,165.3z M85.1,75.6c0.2,1.6,0.3,3.3,0.8,4.8c0.3,0.9,1.3,1.6,2,2.4c0.5-0.9,1.3-1.7,1.4-2.6
			c0.8-5.2,0.7-5.2,6.2-5.7c0.5,0,1.3,0.1,1.6-0.1c0.8-0.7,2.1-1.7,2-2.3c-0.8-4.2-1.9-8.5-3-12.6c-0.2-0.6-1.2-1.3-1.8-1.2
			c-0.5,0.1-1.2,1.1-1.3,1.7c-0.2,2.1-0.2,4.2,0,6.2c0.2,2.3-0.2,3.4-2.9,3.5C85.7,69.8,84.8,71.1,85.1,75.6z M103.2,85.1
			c2.2,0,4.3,0.3,4.9-2.3c0.6-2.5,1.1-5,1.4-7.5c0.1-0.6-0.6-1.7-1-1.8c-0.6-0.1-1.6,0.4-2,0.9c-0.9,1.2-1.3,2.8-2.2,4
			c-0.5,0.7-1.5,1.3-2.3,1.4c-4,0.2-6.8,3.9-5.8,7.9c0.2,0.7,1.1,1.3,1.6,1.9c0.5-0.5,1.4-1,1.5-1.6C99.9,85.8,101,84.5,103.2,85.1z
			"/>
		<path d="M121.5,165.3c3.2,2.3,8.3,1.7,10.9-1.3c-1.1-2.3-2.4-4.4-3.1-6.6c-0.6-2.2,0-4.5,2.5-5.4c2.6-0.9,3.9,1.1,4.7,3
			c0.7,1.7,0.9,3.6,1.6,6.2c1.6-1.5,3-2.7,4.1-4.1c0.8-1,0.4-1.9-0.7-3c-1.3-1.3-2.4-3.2-2.7-4.9c-0.2-0.9,1.2-2.9,2.2-3.1
			c1-0.3,2.6,0.7,3.5,1.7c0.8,0.9,1,2.4,1.8,4.6c0.8-1.8,1.6-2.8,1.7-3.9c0.1-1.7-0.3-3.4-0.3-5.1c0-0.7,0.6-1.3,0.9-2
			c0.6,0.4,1.6,0.6,1.8,1.2c2.1,4.3,0.4,9.8-3.5,12.4c-0.6,0.4-1.1,1.2-1.3,1.9c-1.1,3.6-3.6,5.7-7.1,6.9c-1.1,0.4-2.3,1-3.1,1.9
			c-4,3.9-10.2,5-15.1,2.4c-1.3-0.7-2.1-0.6-3.4,0c-3.5,1.7-7.1,3.2-10.7,4.3c-2.6,0.8-5-0.3-7-2.1c-1.7-1.5-3.5-3-4.8-4.8
			c-8.8-12.9-18-25.6-25.8-39.1c-4.4-7.6-6.7-16.5-9.1-25c-2.2-7.6,2.8-15.4,10.9-18c6.9-2.2,14.1,0,18.3,7.5
			c3.8,6.6,3.6,12.7-1.4,18.7c-0.7,0.8-1,2.4-0.7,3.4c0.8,2.6,1.6,5.2,3,7.6c4.1,6.9,8.3,13.6,12.6,20.4c1.3,2,2.5,2,4.1,0.2
			c0.7-0.8,1.3-1.6,2-2.2c2.9-2.5,6.7-3,9.1-0.5c5.1,5.1,8,11.3,7.2,18.6C124.2,159.7,122.6,162.3,121.5,165.3z M64.1,100.3
			c0.4,0,0.8-0.1,1.1-0.1c1.2,0.5,2.9,0.6,3.6,1.5c2.2,2.5,4.4,5.2,6,8.1c8.5,15.5,17,30.9,27,45.4c2.4,3.4,5.6,7.5,1.2,12.3
			c1.3,0.2,2.9,0.6,3.5,0.1c1.1-1.1,2.5-3.1,2.2-4.3c-1-3.8-2.3-7.7-4.3-11c-6.4-11-13.2-21.7-19.8-32.6c-2.8-4.6-5.1-9.4-8.1-13.9
			c-1.9-2.9-4.5-5.5-6.9-7.9c-0.6-0.6-2.4-0.9-3.1-0.5C65.4,97.9,64.8,99.2,64.1,100.3z M133.4,160.3c0.5-0.2,1-0.3,1.5-0.5
			c-0.5-1.6-1-3.1-1.4-4.7c-0.5,0.1-0.9,0.3-1.4,0.4C132.4,157.1,132.9,158.7,133.4,160.3z"/>
		<path d="M85.1,75.6c-0.3-4.4,0.7-5.8,5-5.9c2.7-0.1,3.1-1.2,2.9-3.5c-0.2-2.1-0.1-4.2,0-6.2c0-0.6,0.8-1.6,1.3-1.7
			c0.6-0.1,1.7,0.6,1.8,1.2c1.1,4.2,2.2,8.4,3,12.6c0.1,0.6-1.2,1.7-2,2.3c-0.3,0.3-1.1,0.1-1.6,0.1c-5.4,0.4-5.4,0.4-6.2,5.7
			c-0.1,0.9-0.9,1.8-1.4,2.6c-0.7-0.8-1.7-1.5-2-2.4C85.3,78.8,85.3,77.2,85.1,75.6z"/>
		<path d="M103.2,85.1c-2.2-0.7-3.3,0.6-3.9,2.9c-0.2,0.6-1,1.1-1.5,1.6c-0.6-0.6-1.4-1.2-1.6-1.9c-1-4,1.8-7.7,5.8-7.9
			c0.8-0.1,1.8-0.7,2.3-1.4c0.9-1.2,1.4-2.8,2.2-4c0.4-0.5,1.4-1,2-0.9c0.5,0.1,1.1,1.2,1,1.8c-0.3,2.5-0.8,5-1.4,7.5
			C107.5,85.4,105.4,85.2,103.2,85.1z"/>
		<path fill="#FFFFFF" d="M64.1,100.3c0.8-1,1.4-2.4,2.4-3c0.8-0.4,2.5-0.2,3.1,0.5c2.5,2.5,5,5,6.9,7.9c2.9,4.5,5.3,9.3,8.1,13.9
			c6.6,10.9,13.4,21.6,19.8,32.6c2,3.4,3.3,7.2,4.3,11c0.3,1.2-1.1,3.1-2.2,4.3c-0.6,0.6-2.2,0.2-3.5-0.1c4.3-4.8,1.1-8.9-1.2-12.3
			c-10.1-14.5-18.6-29.9-27-45.4c-1.6-2.9-3.8-5.5-6-8.1c-0.8-0.9-2.4-1-3.6-1.5C64.8,100.2,64.4,100.2,64.1,100.3z"/>
		<path fill="#FFFFFF" d="M133.4,160.3c-0.5-1.6-0.9-3.2-1.4-4.8c0.5-0.1,0.9-0.3,1.4-0.4c0.5,1.6,1,3.1,1.4,4.7
			C134.3,160,133.8,160.1,133.4,160.3z"/>
	</g>
</g>
<g id="Phone2_xA0_影像_1_">
</g>
<g id="Phone1_xA0_影像_1_">
</g>
</svg>
