<?xml version="1.0" encoding="utf-8"?>
<!-- Generator: Adobe Illustrator 18.0.0, SVG Export Plug-In . SVG Version: 6.00 Build 0)  -->
<!DOCTYPE svg PUBLIC "-//W3C//DTD SVG 1.1//EN" "http://www.w3.org/Graphics/SVG/1.1/DTD/svg11.dtd">
<svg version="1.1" xmlns="http://www.w3.org/2000/svg" xmlns:xlink="http://www.w3.org/1999/xlink" x="0px" y="0px"
	 viewBox="0 0 243 264" enable-background="new 0 0 243 264" xml:space="preserve">
<g id="Machine_White_xA0_影像_1_">
</g>
<g id="Machine_Color_xA0_影像_1_">
</g>
<g id="Time_Machine_xA0_影像_1_">
</g>
<g id="圖層_10">
	<g id="Hand1_xA0_影像_1_">
	</g>
</g>
<g id="Hand2_xA0_影像_1_">
</g>
<g id="Hand3_xA0_影像_1_">
</g>
<g id="Phone3_xA0_影像_1_">
</g>
<g id="Phone2_xA0_影像_1_">
</g>
<g id="Phone1_xA0_影像_1_">
	<g>
		<path d="M36.2,128.6c1.5-6,2.5-12.1,4.6-17.8c3.5-9.5,7.2-19.1,14.1-26.8c11.9-13.1,25.3-24,42.9-28.4c8.6-2.1,17.3-4.5,26.3-3.8
			c5.5,0.4,11,1.1,16.3,2.4c14.3,3.6,27,10.4,38.4,19.8c7.2,5.9,11.5,14,16.1,21.8c2.3,3.9,4,8.2,6,12.2c4,8.2,4.7,17,5.6,25.9
			c1.4,13-1.8,25.1-6.9,36.8c-1.4,3.3-3.7,6.2-5.8,9.2c-3.8,5.3-7.8,10.5-11.6,15.8c-0.5,0.6-0.7,1.7-0.5,2.4
			c0.6,3.8,1.6,7.5,2.1,11.2c0.2,1.5,0,3.5-0.9,4.4c-0.7,0.7-3,0.4-4.2-0.2c-3.5-1.8-6.8-3.8-10.1-5.9c-1.3-0.9-2.3-1-3.7-0.2
			c-10.7,5.5-21.6,10.4-33.5,12.6c-11.2,2.1-22.5,3.4-33.7,0.5c-11.5-3-21.7-8.5-31-16c-12-9.7-20.8-21.6-25.2-36.4
			c-2.3-7.7-3.1-15.8-4.7-23.7c-0.2-0.9-0.4-1.7-0.6-2.6C36.2,137.4,36.2,133,36.2,128.6z M179.5,208.9c-0.9-4.6-1.7-8.4-2.3-12.2
			c-0.2-1,0.1-2.4,0.7-3.2c2.4-2.9,5.1-5.4,7.4-8.3c4.9-5.9,9.4-12.1,11.8-19.5c2.8-9,4.5-18.1,4.5-27.6c0-9,0.3-18.1-3.7-26.5
			c-3.4-7-7-14-10.6-20.8c-3.6-6.8-9.1-12-15.5-16.1c-6-3.8-12-7.6-18.2-10.9c-4.8-2.5-9.8-5-15-6.1c-9.1-1.9-18.4-2.5-27.6-0.9
			c-6,1.1-12.2,2.2-17.9,4.4c-8.1,3.1-15.1,8-22,13.4c-11.4,8.9-19.6,19.8-24.6,33.5c-5.1,14.2-4.5,28.5-3,43
			c0.8,8.2,4.1,15.5,7.3,23c6.2,14.1,15.5,25.3,28.9,33c15.2,8.8,31.2,12.1,48.9,8.6c13.3-2.6,25.6-7.2,37.4-13.4
			c0.7-0.3,1.9-0.2,2.6,0.2C172.1,204.5,175.5,206.6,179.5,208.9z"/>
		<path fill="#FFFFFF" d="M179.5,208.9c-4-2.3-7.4-4.4-10.9-6.3c-0.7-0.4-1.9-0.6-2.6-0.2c-11.9,6.2-24.1,10.8-37.4,13.4
			c-17.7,3.5-33.7,0.2-48.9-8.6c-13.3-7.7-22.7-18.9-28.9-33c-3.2-7.4-6.5-14.8-7.3-23c-1.4-14.5-2.1-28.8,3-43
			c4.9-13.7,13.1-24.6,24.6-33.5c6.9-5.4,13.9-10.3,22-13.4c5.7-2.2,11.8-3.3,17.9-4.4c9.2-1.6,18.6-1,27.6,0.9
			c5.2,1.1,10.2,3.6,15,6.1c6.3,3.3,12.2,7.1,18.2,10.9c6.4,4.1,11.9,9.3,15.5,16.1c3.7,6.9,7.3,13.8,10.6,20.8
			c4,8.4,3.7,17.5,3.7,26.5c0,9.4-1.7,18.6-4.5,27.6c-2.3,7.4-6.9,13.6-11.8,19.5c-2.4,2.9-5.1,5.4-7.4,8.3
			c-0.6,0.8-0.9,2.2-0.7,3.2C177.9,200.5,178.7,204.3,179.5,208.9z M81.3,165c2.9,1.1,5.5,2.8,8.3,3.1c7.2,0.8,13.4-2.1,18.5-7
			c2.6-2.5,2.2-6.1-0.3-9.1c-0.6-0.7-1.5-1.3-2.2-2c-1.8-1.6-1.8-2.8,0.1-4.2c2.7-1.9,5.3-3.9,8.1-5.6c5.8-3.3,11.6-6.4,17.5-9.4
			c1.8-0.9,4-1.9,6.1,0c5.7,5.1,11.9,5,18.4,1.3c7.5-4.2,9.9-11.8,7.3-18.3c-3.3-8.1-8.6-12.9-18.3-10.7c-11.3,2.5-22.2,6.6-31.9,13
			c-10.2,6.7-20.2,13.7-30.1,20.7c-2.3,1.7-4.3,3.9-6.3,6c-1.9,2-2.9,4.7-2,7.3c1.1,3.5,2.8,6.8,4.1,10.3c0.4,1,0.6,2.5,0.1,3.4
			c-2.4,5.3-1.5,11,2.4,15.1c0.8,0.9,1.4,2,1.8,3.2c1.2,3.4,3.2,5.8,6.7,7c0.7,0.2,1.6,0.7,1.9,1.3c2,4.1,5.6,4.6,9.5,4.1
			c1.4-0.2,3.9-1.6,3.8-1.9c-0.6-2.3-2.5-0.8-3.8-0.8c-2.2,0-4.5,0.4-6.3-2c1.6-0.6,3-0.9,3.9-1.7c0.9-0.9,1.9-2.5,1.7-3.5
			c-0.3-1-2.2-2.2-3.2-2.1c-1.6,0.2-3.1,1.6-4.6,2.4c-0.9,0.5-1.9,1.4-2.6,1.2c-2-0.7-3.5-2-3.7-4.3c2.3-0.8,4.6-1.2,6.4-2.4
			c1-0.6,2-2.6,1.8-3.7c-0.3-1.1-2.2-2.7-3.3-2.6c-2.3,0.2-4.6,1.2-6.7,2.2c-1,0.5-1.6,1.4-2.7,0.1C79.4,172.8,79.2,167.7,81.3,165z
			 M170.9,128.8c-1,0.1-2.8,0.2-4.4,0.6c-1,0.3-1.8,1.2-2.6,1.9c0.9,0.5,1.8,1.4,2.8,1.5c4.8,0.6,4.8,0.5,5.3,5.3
			c0.1,0.7,0.1,1.4,0.1,2.2c0.1,1.6,1,2.7,2.6,2.4c4.1-0.8,8.1-1.8,12.1-2.9c0.6-0.2,1.3-1.2,1.2-1.8c-0.1-0.5-1.1-1.2-1.7-1.3
			c-2-0.2-4-0.3-6,0c-2.6,0.3-3.6-0.5-3.7-3.2C176.6,129.7,175.2,128.6,170.9,128.8z M159.4,139.4c-0.7,0.5-1.6,1.1-2.4,1.6
			c0.7,0.7,1.3,1.7,2.1,2c1.6,0.6,2.3,1.4,2.3,3.2c0,5.1,0.1,5.1,5.2,6.1c0.6,0.1,1.3,0.3,1.9,0.3c1.4-0.1,3.9,0.1,4.1-0.4
			c0.8-2.2-1.5-2.5-2.8-3.1c-2.3-1-3.7-2.4-3.4-5.2c0.1-0.9-0.8-2.3-1.7-2.7C163.2,140.3,161.4,140,159.4,139.4z"/>
		<path d="M81.3,165c-2,2.7-1.9,7.8,0.4,10.5c1.1,1.3,1.6,0.4,2.7-0.1c2.1-1,4.4-2,6.7-2.2c1.1-0.1,3,1.4,3.3,2.6
			c0.3,1.1-0.7,3.1-1.8,3.7c-1.8,1.1-4.1,1.6-6.4,2.4c0.2,2.2,1.7,3.6,3.7,4.3c0.7,0.2,1.7-0.7,2.6-1.2c1.5-0.8,3-2.1,4.6-2.4
			c1-0.2,2.9,1.1,3.2,2.1c0.3,0.9-0.7,2.6-1.7,3.5c-0.9,0.8-2.4,1.1-3.9,1.7c1.9,2.4,4.1,2,6.3,2c1.4,0,3.2-1.4,3.8,0.8
			c0.1,0.3-2.4,1.7-3.8,1.9c-3.9,0.5-7.5,0-9.5-4.1c-0.3-0.6-1.2-1-1.9-1.3c-3.5-1.1-5.5-3.6-6.7-7c-0.4-1.1-1-2.3-1.8-3.2
			c-3.9-4.2-4.8-9.8-2.4-15.1c0.4-0.9,0.2-2.4-0.1-3.4c-1.3-3.5-3-6.8-4.1-10.3c-0.8-2.7,0.1-5.3,2-7.3c2-2.1,3.9-4.4,6.3-6
			c9.9-7,19.9-14,30.1-20.7c9.8-6.4,20.6-10.4,31.9-13c9.7-2.2,15,2.6,18.3,10.7c2.7,6.5,0.2,14.1-7.3,18.3
			c-6.5,3.7-12.6,3.8-18.4-1.3c-2.1-1.9-4.2-1-6.1,0c-5.9,3-11.8,6.1-17.5,9.4c-2.8,1.6-5.4,3.6-8.1,5.6c-1.9,1.4-1.9,2.6-0.1,4.2
			c0.7,0.7,1.6,1.3,2.2,2c2.6,3,2.9,6.6,0.3,9.1c-5.1,4.9-11.2,7.8-18.5,7C86.8,167.8,84.2,166.1,81.3,165z M146.7,108.2
			c-1.1,2-1.6,3.9-2.8,5c-2.2,2-4.7,3.8-7.3,5.2c-15.5,8.4-30.9,16.8-45.3,27c-1.9,1.3-4.2,2.2-6.5,2.8c-1.2,0.3-2.6-0.4-4-0.7
			c-0.6-0.1-1.4-0.7-1.6-0.6c-0.4,0.5-0.8,1.2-0.8,1.9c0,2.1,2.8,4.3,5.2,3.6c3.8-1.2,7.7-2.7,11.2-4.7c10-5.9,19.8-12.2,29.7-18.2
			c5.3-3.2,10.9-5.9,16.1-9.2c3-1.9,5.7-4.4,8.1-7.1C150.8,110.9,149.3,108.4,146.7,108.2z M86.6,177.4c0.1,0.3,0.2,0.7,0.3,1
			c1.4-0.4,2.8-0.9,4.3-1.3C89.1,175.2,87.7,175.7,86.6,177.4z"/>
		<path d="M170.9,128.8c4.3-0.2,5.7,0.9,5.8,4.7c0.1,2.6,1.1,3.5,3.7,3.2c2-0.3,4-0.2,6,0c0.6,0.1,1.6,0.8,1.7,1.3
			c0.1,0.5-0.7,1.6-1.2,1.8c-4,1.1-8,2.1-12.1,2.9c-1.6,0.3-2.5-0.7-2.6-2.4c-0.1-0.7-0.1-1.5-0.1-2.2c-0.5-4.7-0.5-4.7-5.3-5.3
			c-1-0.1-1.9-1-2.8-1.5c0.9-0.6,1.6-1.6,2.6-1.9C168.1,128.9,169.9,128.9,170.9,128.8z"/>
		<path d="M159.4,139.4c2,0.6,3.8,0.9,5.3,1.7c0.8,0.5,1.8,1.9,1.7,2.7c-0.3,2.8,1.1,4.2,3.4,5.2c1.4,0.6,3.6,1,2.8,3.1
			c-0.2,0.6-2.7,0.4-4.1,0.4c-0.6,0-1.3-0.2-1.9-0.3c-5.1-0.9-5.2-1-5.2-6.1c0-1.8-0.8-2.6-2.3-3.2c-0.8-0.3-1.4-1.3-2.1-2
			C157.8,140.5,158.6,139.9,159.4,139.4z"/>
		<path fill="#FFFFFF" d="M146.7,108.2c2.5,0.2,4.1,2.7,2,5c-2.4,2.7-5.1,5.2-8.1,7.1c-5.2,3.3-10.8,6-16.1,9.2
			c-9.9,6-19.7,12.3-29.7,18.2c-3.5,2-7.3,3.5-11.2,4.7c-2.4,0.8-5.2-1.5-5.2-3.6c0-0.6,0.4-1.4,0.8-1.9c0.1-0.2,1,0.4,1.6,0.6
			c1.3,0.3,2.8,1,4,0.7c2.2-0.6,4.6-1.4,6.5-2.8c14.4-10.2,29.9-18.6,45.3-27c2.6-1.4,5.1-3.2,7.3-5.2
			C145.1,112.1,145.6,110.3,146.7,108.2z"/>
		<path fill="#FFFFFF" d="M86.6,177.4c1.1-1.7,2.5-2.2,4.6-0.4c-1.4,0.4-2.8,0.9-4.3,1.3C86.8,178.1,86.7,177.7,86.6,177.4z"/>
	</g>
</g>
</svg>
