<?xml version="1.0" encoding="utf-8"?>
<!-- Generator: Adobe Illustrator 22.0.1, SVG Export Plug-In . SVG Version: 6.00 Build 0)  -->
<svg version="1.1" id="圖層_1" xmlns="http://www.w3.org/2000/svg" xmlns:xlink="http://www.w3.org/1999/xlink" x="0px" y="0px"
	 viewBox="0 0 75.5 65.4" style="enable-background:new 0 0 75.5 65.4;" xml:space="preserve">
<style type="text/css">
	.st0{fill:#ACD15E;}
	.st1{enable-background:new    ;}
	.st2{fill:#B7CBCE;}
	.st3{fill:#E9D08E;}
	.st4{fill:#F14900;}
	.st5{fill:#FFFFFF;stroke:#000000;stroke-miterlimit:10;}
	.st6{fill:#ffffff;}
	.st7{fill:#FFFFFF;}
	.st8{fill:#2E313A;}
	.st9{fill:#F3F9F9;}
	.st10{fill:#141F2A;}
	.st11{fill:#17212C;}
	.st12{fill:#18222D;}
	.st13{fill:#E3EAEB;}
	.st14{fill:#DAE0E1;}
	.st15{fill:#FEFEFD;}
	.st16{fill:#FEFEFB;}
	.st17{fill:none;stroke:#FFFFFF;stroke-miterlimit:10;}
	.st18{fill:#628E94;}
	.st19{fill:#8CACB1;}
	.st20{fill:#B7CBCE;enable-background:new    ;}
	
		.st21{fill:none;stroke:#ffffff;stroke-width:12;stroke-linecap:round;stroke-linejoin:round;stroke-miterlimit:10;stroke-dasharray:10;}
	
		.st22{fill:none;stroke:#ffffff;stroke-width:4;stroke-linecap:round;stroke-linejoin:round;stroke-miterlimit:10;stroke-dasharray:10,20;}
	.st23{opacity:0.46;}
	.st24{fill:none;stroke:#F14900;stroke-width:4;stroke-linecap:round;stroke-miterlimit:10;}
	.st25{fill:#FFFFFF;enable-background:new    ;}
	.st26{fill:#B6CACD;}
	.st27{fill:#CDDBDD;}
	.st28{fill:#ffffff;stroke:#000000;stroke-width:4;stroke-miterlimit:10;}
	.st29{fill:#ffffff;stroke:#000000;stroke-width:5;stroke-miterlimit:10;}
</style>
<path class="st6" d="M48.4,51.3c8.5-5.2,13.7-15,13.8-25.6c0-0.3,0-0.6-0.1-0.9c0.1-0.9,0-1.8-0.4-2.8c-1.5-4.1-4.1-7.2-8.2-7.9
	c-4.9-0.9-8.4,2.6-9,7.8c-0.6,4.8,2,8.8,5.5,10.6c-0.2,3.4-2.1,7.8-5.4,9.9C38.3,46,42.2,55.1,48.4,51.3z"/>
<path class="st6" d="M20.1,51.3c8.5-5.2,13.7-15,13.8-25.6c0-0.3,0-0.6-0.1-0.9c0.1-0.9,0-1.8-0.4-2.8c-1.5-4.1-4.1-7.2-8.2-7.9
	c-4.9-0.9-8.4,2.6-9,7.8c-0.6,4.8,2,8.8,5.5,10.6c-0.2,3.4-2.1,7.8-5.4,9.9C10.1,46,13.9,55.1,20.1,51.3z"/>
</svg>
