<?xml version="1.0" encoding="utf-8"?>
<!-- Generator: Adobe Illustrator 21.1.0, SVG Export Plug-In . SVG Version: 6.00 Build 0)  -->
<svg version="1.1" id="圖層_1" xmlns="http://www.w3.org/2000/svg" xmlns:xlink="http://www.w3.org/1999/xlink" x="0px" y="0px"
	 viewBox="0 0 106.5 81.6" style="enable-background:new 0 0 106.5 81.6;" xml:space="preserve">
<path class="st0" fill="#FFFFFF" d="M64.4,18.5c-2.5-0.3-4.9-0.6-7.4-1c-2.5-0.4-5-0.6-7.4-1.3c-2.6-0.7-3.6-2.7-3-5.2c0.6-2.4,1.4-4.8,2.3-7.1
	c1.3-3.2,3.7-4.4,7.8-3.7c8,1.3,16,2.6,23.8,4.4c7.1,1.6,14,3.7,20.9,5.9c4.8,1.5,6.2,5.4,3.5,9.7c-6.4,10.5-12.9,21-19.4,31.5
	c-0.8,1.3-1.9,2.6-2.9,3.7c-1.7,1.8-3.8,2.2-6.2,1.4c-1.3-0.5-2.7-1-3.9-1.6c-3.6-1.6-4.3-4.1-2.1-7.5c2.8-4.2,5.6-8.5,8.4-12.7
	c0.5-0.7,0.8-1.6,1.5-2.9c-1.5,0.3-2.3,0.4-3.2,0.6c-13.7,3.2-25.6,10.1-37,18.1C29.5,58.3,20.3,67,14.1,78.6
	c-1.5,2.9-3.4,3.5-6.5,2.7c-1.1-0.3-2.3-0.6-3.4-0.9c-4-1.1-5.4-3.8-3.3-7.4c2.4-4.2,5.1-8.2,8.2-11.9c9.6-11.7,20.7-21.7,33.5-29.7
	c6.3-3.9,13-7.2,19.4-10.8c0.8-0.5,1.7-0.9,2.5-1.4C64.5,19,64.5,18.8,64.4,18.5z"/>
</svg>
