<svg xmlns="http://www.w3.org/2000/svg" viewBox="0 0 572.13 137.12">
	<style>.cls-1,.cls-2{fill:#fff}.cls-1{fill-rule:evenodd}
	#title {
		filter:url(#dropshadow)
	}
</style>
<filter id="dropshadow" height="130%">
  <feGaussianBlur in="SourceAlpha" stdDeviation="8"/> <!-- stdDeviation is how much to blur -->
  <feOffset dx="2" dy="4" result="offsetblur"/> <!-- how much to offset -->
  <feComponentTransfer>
    <feFuncA type="linear" slope="0.2"/> <!-- slope is the opacity of the shadow -->
  </feComponentTransfer>
  <feMerge> 
    <feMergeNode/> <!-- this contains the offset blurred image -->
    <feMergeNode in="SourceGraphic"/> <!-- this contains the element that the filter is applied to -->
  </feMerge>
</filter>
	<g id="Layer_2" data-name="Layer 2"><g id="title" data-name="Layer 1"><path class="cls-1" d="M155.41 40.32c3.38.68 6.36-2.39 9.36.33-.88 3.3-3.94 3.85-6.2 4.82-4.32 1.84-5.45 4.76-4.43 9.37l12-.84.41 1.44c-3.07 4.22-9 3.37-12.91 6.42l-3.41 25.75 27.24-4.16c-1.18-3.65.27-6.63 1.82-9.69 2.46-4.86 4.7-9.83 6.88-14.82a10.6 10.6 0 00-.11-9.4 49.79 49.79 0 00-2.27 4.85 56.77 56.77 0 01-10.1 18c-1.19 1.45-2.37 3.82-4.76 2.34s-1.14-3.62-.25-5.36c4-7.74 8.11-15.42 12.42-23.59-6.3-7.17-3.45-15.18-.69-23.16a10.66 10.66 0 011.88-3.25 2.1 2.1 0 011.91-.46 2.17 2.17 0 011.19 1.59c0 1.78-.31 3.56-.57 6 2.54-.4 4.78-.88 7-1.08 2.07-.18 4.4-.86 6.1 2.11-3.41 4.68-9.63 4.17-14 7-1 2.88.52 4.75 2.63 5.94 9 5.14 10.4 14 6.42 23.81-2 4.81-5.12 9.14-7.84 13.62-.91 1.5-2.13 2.81-4 5.24l7.75-.7c3.8-.34 7.6-.84 11.4-1 3.22-.1 5-1.3 5.52-4.63.61-4.29 1.49-8.54 2.34-13.26-1.81-.17-3.19-.28-4.56-.42-2.27-.23-5.06.29-5.62-2.95-.35-2 1.76-3.21 5.82-3.47 1.62-.1 3.25-.19 4.87-.32.15 0 .29-.2 1-.7l2-10.07c-3.38.67-6 1.16-8.59 1.72-1.93.42-3.76.46-4.47-1.81-.65-2.11.64-3.61 2.34-4.39a27.48 27.48 0 016.2-1.85 43 43 0 015.56-.39 17.68 17.68 0 001.39-12.49l-8.55 1.5c-.23-.26-.7-.58-.65-.78.93-3.84 4.52-6.27 9.38-6.44 3.8-.13 6.58 1.79 7.41 5.81a28.87 28.87 0 01.47 8.65c-1.57 14.61-2.76 29.31-7.82 43.3a6.58 6.58 0 000 1.88c2 .34 3.93.55 5.82 1 3.56.88 5.46 2.78 5.48 5.21s-1.88 4.38-5.46 5.15a37.84 37.84 0 01-5.41.54c-19.39 1.19-38.78 2.47-58.19 3.49-7.06.37-14.16.32-21.23.07-2.46-.09-6.63.39-6.73-2.86-.11-3.43 4-2.63 6.5-3.12s5.32-.73 8-1.08c-3.9-18.72-2-36.8 2.5-54.67a48.08 48.08 0 015.31-11.84 14.06 14.06 0 015.2-4.57A4.12 4.12 0 01160 18c.69.65.56 2.62.22 3.84-1.47 5.16-3.22 10.33-4.72 15.52a11.28 11.28 0 00-.09 2.96zM13.14 92.83c-3.41-6.73-3-13.38-2.5-19.81 1-13.76 2.63-27.48 4-41.22.2-2 .75-3.92 1.11-5.89C18.38 11.45 27.42 3.43 41.42.46A14.82 14.82 0 0146.81.1C48 .3 49 1.53 50.14 2.3c-.82 1-1.44 2.42-2.51 3-3 1.59-6.34 2.69-9.41 4.24-5.17 2.61-8.59 6.8-9.54 12.54-1.27 7.69-2.25 15.44-3.23 23.18-.4 3.18-.49 6.4-.77 10.24 3.82-1.47 7-2.82 10.19-3.88 4.14-1.36 8.34-2.51 12.53-3.7s4.13-1.15 4.78-6.82c-4 .7-7.86 1.47-11.76 2a63.15 63.15 0 01-8.12.74c-.9 0-2.39-.75-2.57-1.43a3.87 3.87 0 01.7-3.35 13.22 13.22 0 015.13-2.9C41 34.75 46.49 33.57 52 32.52c3.58-.68 4.49-1.59 4.3-5.42-.15-3.11-1.47-4.53-5.13-3.89a140.2 140.2 0 00-14.68 3.86A54.42 54.42 0 0031 29.42c.41-2.09.24-3.74 1-4.45 1.93-1.85 4-3.89 6.46-4.75a60.16 60.16 0 0114.19-3.45c7.44-.68 12 3.92 12.27 11.36.19 5.58-1.48 10.74-3.69 15.78-.55 1.27-1.43 2.92-1 4 1.39 3.85-.85 5.56-3.66 6.71a103.24 103.24 0 01-12.31 4.21c-4.91 1.3-10 2.1-14.91 3.2-6.17 1.37-6.16 1.4-5.92 8.71 3.18-.59 6.32-1.26 9.5-1.71a38.77 38.77 0 016-.26c1.73 0 4.08-.46 4.33 2s-2.23 2.65-3.84 3c-5.8 1.45-11.66 2.66-18.19 4.12L18.75 85a31.06 31.06 0 004.06-.6c10.45-3.2 21.06-5.65 32-6.32a49.32 49.32 0 0110.3.36c8.72 1.3 14 7 13.41 15.67-1 14.94-7.13 27.67-18.89 37.27a14.7 14.7 0 01-6.86 2.89c-3.45.5-5.83-2.45-5.29-5.88.3-1.92 1-3.32 3.45-3.4a5.48 5.48 0 003.59-1.6c6.46-7.52 11.61-15.8 14-25.55a18.79 18.79 0 00.64-4.84c-.08-3.26-1.41-5.3-4.64-5.83a38.05 38.05 0 00-11.32-.46C42.6 88.26 32.08 90.32 21.51 92a55 55 0 01-8.37.83z"/><path class="cls-2" d="M514.71 52.8l-2.18-4.46c-2.54 1.49-5.14 3.06-7.77 4.56-2.35 1.34-4.86 1.93-7.16.15-2.53-1.95-2.62-4.83-1.6-7.46 1.43-3.69 3.33-7.19 5.23-11.22-4.13-.56-8.29-1-10.54-5.47-4.33 4.82-10.08 5.58-15.7 7.41-.32 1.54-.63 3.1-1 4.65-.47 2.21.4 3.61 2.15 5.08 4 3.38 7.78 7.1 11.62 10.69a6.54 6.54 0 011.81 2 23.89 23.89 0 01.88 3.92c-1.34.27-2.93 1.14-4 .7a42 42 0 01-7-4.11c-2.06-1.38-4-3-6.69-5-.43 4.88-.89 8.81-1.1 12.76a336.3 336.3 0 01-7.85 58.24 36.24 36.24 0 01-2.05 6.75 3.53 3.53 0 01-2.88 1.72c-.87-.16-1.91-1.6-2.12-2.63a15.91 15.91 0 01.1-4.87c1.93-17.7 3.92-35.39 5.84-53.08a33.26 33.26 0 00-.26-10.3c-1.3 1.35-2.57 2.73-3.89 4a102.91 102.91 0 01-7.47 7.17 4.13 4.13 0 01-3.86.25 4.23 4.23 0 01-1.14-3.71 16.85 16.85 0 012.59-5.34c4.85-7.25 9.81-14.42 14.72-21.62 1-1.45 1.92-2.94 3.47-5.31-3.17.51-5.26.82-7.34 1.18-1.25.21-2.49.57-3.74.73-2 .26-4.26.59-5.16-1.79s1-3.7 2.82-4.56A83.06 83.06 0 01464 29.37c3.2-1 4.65-2.82 5.21-6a80.12 80.12 0 012.68-10 18.55 18.55 0 012-4.45c2.65-4.18 5.81-3.93 8.07.56 1.88 3.71 3.66 7.48 5.65 11.13a16.15 16.15 0 002.51 2.91c4.15-4.85 8-9.57 12.14-14.07a13.68 13.68 0 015-3.23 3.91 3.91 0 013.3.86c.47.41.28 2.1-.16 2.91-1.12 2.07-2.65 3.91-3.85 5.94-1.84 3.11-3.54 6.3-5.28 9.42 4.12 2.64 5 2.61 7.74.09 2.28-2.07 4.48-4.26 6.94-6.09 1.66-1.24 3.68-2.45 6.43-.23-5.78 9.13-13.68 16.89-17.56 27.17 5 .32 8.16-1.8 9.71-6.14a15.18 15.18 0 012.85-5.1c1.37-1.5 3.66-.61 3.44 1.3-.66 5.67-1.52 11.35-4.34 16.38zm-29.63-29.52c-1.16-4.54-2.4-8.17-6.06-11.48-1.29 4.69-2.52 8.66-2.17 13.33z"/><path class="cls-1" d="M396.32 46.32c1.45-1.8 2.8-3.7 4.38-5.39 2.6-2.77 5.25-5.52 8.08-8 1.59-1.42 3.64-3 5.84-1.23 2.35 1.86.88 4.13-.3 5.83a113.3 113.3 0 01-7.41 9.37c-2.1 2.42-4.49 4.58-6.75 6.86l.54 1c3.67-.52 7.32-1.22 11-1.49a69.79 69.79 0 0110.82 0c2.2.18 4.22 1.32 4.59 4a4.76 4.76 0 01-3 5.17 45 45 0 01-9.22 3.07c-5.69 1.08-11.47 1.69-17.42 2.53A17.15 17.15 0 00399 80.68c2 3.88 5.79 5 9.78 4.28 3.52-.67 6.9-2.15 10.3-3.36 2.37-.84 4.76-2.38 7 .11 1.57 1.75.85 4.25-2.16 7-5.75 5.29-12.33 8.29-20.37 6.71-6.08-1.23-10.62-4.52-13.25-10.25-.38-.82-.79-1.62-1.22-2.4-.07-.13-.31-.16-.8-.4-.83 1.49-1.58 3.06-2.52 4.51q-6.09 9.33-12.28 18.6a17.44 17.44 0 01-1.76 2.08c-1.34 1.44-3.14 2.58-4.66 1-.78-.83-.83-3.18-.24-4.34 2.54-5 5.49-9.83 8.21-14.76 3.41-6.17 6.75-12.38 10.77-19.77-2.89.43-4.56.64-6.21.93-3.94.68-7.86 1.45-11.8 2.09a18.09 18.09 0 01-4.87.33c-2.92-.35-3.94-3.06-1.86-5.1a15.83 15.83 0 015-3.22c5.36-2.21 10.81-4.18 16.51-6.35-2.77-2.58-5.62-5-8.2-7.73a16.17 16.17 0 01-3.61-5.34 4.76 4.76 0 011-4.24c1.5-1.36 3 0 4.07 1.36q4.88 6.19 9.72 12.43a11.28 11.28 0 011 1.92l1-.61c.48-5.72.9-11.44 1.45-17.14.3-3.07.76-6.12 1.26-9.16a16.63 16.63 0 011.11-3.64c.72-1.73 1.71-3.38 3.94-3.1 2.58.33 3 2.47 3 4.49a25.88 25.88 0 01-.49 5.41c-.78 4.25-1.71 8.47-2.57 12.7zM535.29 58.63l12.94-2c.72-.11 1.43-.3 2.14-.39 2.06-.27 4.17-.3 5.14 2s-.5 3.87-2.29 4.93c-2.81 1.66-5.71 3.15-8.63 4.61-1.43.72-3 1.21-5.11 2.06l5.52 9.55c2.17-2.35 3.81-4.2 5.55-6a13.43 13.43 0 013.34-2.71 3.27 3.27 0 012.94.08 3.16 3.16 0 01.53 2.86c-1.17 2.85-2.64 5.57-4 8.33-.8 1.6-1.66 3.16-2.6 5l5.17 5.92c3.08-2.76 3.06-7.66 7.48-8.59 2.19 1.07 2.22 2.92 1.83 4.7a119.59 119.59 0 01-2.87 11.63c-1.66 5.12-5.79 6.56-10.3 3.56-2.69-1.79-5-4.16-7.85-6.6-2.15 3-4.19 6-6.29 8.87a28 28 0 01-3.77 4.63c-.78.69-2.64 1.15-3.34.69a4.75 4.75 0 01-1.92-3.44 10.51 10.51 0 011.5-4.59c2.4-4.68 4.94-9.28 7.53-14.11l-9.8-17.45-9.83 1.88C517 79 516 83.53 514.66 88c-.69 2.23-.53 3.78 1.35 5.24s3.41 3.24 5.31 4.59a3.84 3.84 0 011.38 5.17 3.33 3.33 0 01-4.67 1.56c-2.73-1.31-5.23-3.09-8.48-5.07a34.88 34.88 0 01-3.18 4.08 105.55 105.55 0 01-8.07 7.18 3 3 0 01-2.89-.15 3.57 3.57 0 01-.46-2.9 10 10 0 011.59-2.82l18.89-30.2c-5.89.91-10.43 1.7-15 2.28a51.27 51.27 0 01-8.12.41 3.12 3.12 0 01-2.23-1.82 3.18 3.18 0 011.1-2.72 17.43 17.43 0 014.8-2.5c7.91-2.67 15.86-5.21 23.8-7.78 1.54-.5 3.12-.89 5.09-1.45-.31-3.14-.75-6.15-.86-9.17a81.22 81.22 0 01.22-9.23c.13-1.7 1-3.49 3-3.16a4.63 4.63 0 012.85 2.64c1.42 3.92 2.46 8 3.67 12 .41 1.34.92 2.68 1.54 4.45z"/><path class="cls-2" d="M277.52 47c-2.5-10.61-12-13.74-20.5-7-2.31 1.82-4.23 2.89-6.88 1.62-2.64 2.82-2.73 6.17-3.13 9.51-1.36 10.61-2.52 21.28-.68 32 .66 3.89 1.8 5.22 5.66 5.08 3.2-.12 6.37-1.18 9.56-1.82 1.91-.39 3.86-1.21 5.73-1.07a5.31 5.31 0 005.65-3.32c5.52-11.18 7.42-22.92 4.59-35zm-12.44 31.17l-10 2.2V67.8l11.54-4.8zm2.84-25.31c-.05 1.41-.28 2.81-.43 4.22l-12.3 2.6c-2.83-6.55-.11-13 6.53-14.91 3.85-1.1 5.51-.11 6.06 3.76a25 25 0 01.14 4.33z"/><path class="cls-1" d="M318.73 79.27c-5.35.76-10 1.49-14.59 2-5.4.66-10.81 1.21-16.23 1.71a9.74 9.74 0 01-3.76-.34 2.57 2.57 0 01-.9-4.66 15.26 15.26 0 014.83-2.35q14.6-4.35 29.26-8.46c1.94-.55 3.9-.69 4.59-3.12.51-1.78 1.56-3.86 3.62-3.26 1.33.39 2.19 2.4 3.5 4 2.94.19 6.36.37 9.76.65 1.91.16 3.64.84 4.13 2.93.54 2.32-.74 3.94-2.69 4.8-3.79 1.67-7.69 3.1-11.86 4.76-.57 4.82-.8 9.91-1.84 14.82a114.56 114.56 0 01-4.68 16.14c-1.81 4.85-5.38 8.64-9.61 11.58a11 11 0 01-5.51 1.76c-2.24.1-3.92-2.07-3.85-4.44.06-2 .39-4.2 3.15-4.15s3.25-2 4.21-3.68c4.53-7.65 6.17-16.22 7.7-24.81.32-1.61.45-3.23.77-5.88zM123.23 74.22a57.12 57.12 0 01-6.15 2.46 34.59 34.59 0 01-8.48 1.64c-8.54 0-14.23-5.6-13.74-14.1.3-5.19 1.9-10.3 3-15.43a4.39 4.39 0 011.36-2.3 3 3 0 012.38-.78 2.86 2.86 0 011.42 2 31.42 31.42 0 01.06 4.34c0 3.27-.18 6.55.1 9.79.44 5.11 1.92 6.07 8.25 5.48v-5.19A79.39 79.39 0 01114.89 38a12.22 12.22 0 011.56-4c.78-1 2.33-2.16 3.35-2s2.33 1.75 2.56 2.91a23.21 23.21 0 01.13 6.5c-.57 6.33-1.28 12.64-1.95 19-.2 1.91-.43 3.82-.66 5.85 3.38.16 4.85-1 5.51-3.85a134.2 134.2 0 013.78-13.05c.66-1.9 2.09-3.54 3.08-5.14 3.37.88 3.2 3 3.1 5a108.88 108.88 0 01-5 27.25 8.83 8.83 0 01-1.14 2.45c-1.61 2.22-4 2-5.06-.49a24 24 0 01-.92-4.21zM319.08 21.5c3.57-.45 6.77-.88 10-1.23a23.08 23.08 0 013.81-.1c2.29.12 4.44.7 5 3.32a4.24 4.24 0 01-2.65 4.89 105.76 105.76 0 01-13 5.47c-6.78 2.08-7 2-7.43 9.92 2.52-.42 5-.91 7.43-1.2a10.11 10.11 0 014.31.12c1.21.42 2.74 1.48 3 2.56a4.7 4.7 0 01-1.24 3.8 12.39 12.39 0 01-5 3.14c-6.29 1.72-12.67 3.11-19 4.57a8 8 0 01-2.18 0c-2.11-.1-4.11-.6-4.73-2.9-.66-2.49 1.18-3.56 3.06-4.46a4 4 0 011-.41C308 47.93 309 43.27 309 37.1l-10.22 1.48a34.93 34.93 0 01-5.93.72c-1.27 0-3.39-.77-3.57-1.55a5.63 5.63 0 011.16-4.28 12.31 12.31 0 014.41-3.1c3.62-1.67 7.25-3.53 11.08-4.5 4.18-1.06 6.13-3.29 6.44-7.44a9.91 9.91 0 011.17-4.15c.55-.93 1.92-2.09 2.74-2s2 1.57 2.21 2.6a47.34 47.34 0 01.59 6.62zM28.13 117c5.65-1.11 10.33-2.73 11.71-9a14.05 14.05 0 012.85-5.19 3.15 3.15 0 012.83-.87 3.09 3.09 0 011.54 2.47c-.48 10.41-2 20.62-7 30a5 5 0 01-1.74 2c-.88.48-2.27 1-3 .61a4.56 4.56 0 01-2-2.85 10.53 10.53 0 01.44-3.74c.34-1.91.72-3.81 1.24-6.54-2.33 1.1-3.89 1.87-5.48 2.59-5.7 2.57-11.61 4.26-17.94 3.74-6-.49-10.11-3.38-11.26-7.85-1.27-4.94 1.44-13 5.31-15.68.25-.17.69-.06 1.6-.12a19.15 19.15 0 01.61 3.28A20.82 20.82 0 017.3 113c-1.13 7.32.89 9.26 8.31 7.92 1.24-.22 2.45-.64 4-1.06.48-3 .75-6 1.52-9a53.66 53.66 0 013.43-9.69 4.85 4.85 0 013.76-2.35c2.14.16 1.84 2.38 1.63 4-.55 4-1.27 7.88-1.89 11.83a15.8 15.8 0 00.07 2.35zM536.76 26c6.19-.39 10.43-1.6 13.47-6a27.2 27.2 0 016.3-6c1.43-1.07 3.39-1.43 5-2.08 1.56 2.59-.12 3.64-1 4.89-3.86 5.72-7.84 11.35-11.6 17.13a75.75 75.75 0 00-3.8 7.66c6-1.48 11-1.94 12.82-8 .59-1.94 1.59-4.14 5.12-4-.17 7.79-2.69 14.63-5.48 22-4.45-3-1.23-6.77-2.63-9.82-1.35.67-2.63 1.27-3.88 1.93-1.44.76-2.85 1.61-4.29 2.36-2.19 1.15-4.51 1.75-6.68.14-2.44-1.82-2.13-4.47-1.5-7 .47-1.9 1.28-3.72 2.19-6.31l-5 1.1c-6.51 1.42-10.81-2.85-9.22-9.29a17.8 17.8 0 012.07-5c2.44-4 5-8 7.66-11.9a14.56 14.56 0 013-3.12c1.32-1.06 3.09-1.94 4.35-.39a4.69 4.69 0 01.34 3.89c-1.24 3.4-2.91 6.65-4.33 10-.85 2.37-1.67 4.7-2.91 7.81zM199.14 121.75c-.07 1 .16 2.11-.27 2.78-.9 1.42-2 3.41-3.3 3.67s-3.21-1.06-4.36-2.19a7.54 7.54 0 01-1.63-3.94c-.84-4.61-1.67-9.23-2.13-13.88-.14-1.35.88-4 1.49-4 1.54-.1 4 .49 4.6 1.61a91.12 91.12 0 015.09 11.79 17.17 17.17 0 01.51 4.16zM170.35 102.92c-1.82 7.17-4.26 14.56-10.6 19.8a4.31 4.31 0 01-3.91.45c-1-.53-1.61-2.31-1.66-3.57a7.82 7.82 0 011.24-4.1c2.7-4.49 5.54-8.9 8.42-13.28a7.2 7.2 0 012.38-2.18c2.11-1.23 4-.04 4.13 2.88zM560.68 52.68c.72-1 1.45-3 2.43-3.17a4.58 4.58 0 013.72 2.17 94.16 94.16 0 015 12.48 4.41 4.41 0 01-2.65 5.77c-2.44.84-4.93-.34-5.74-3.41-1.18-4.36-1.8-8.84-2.76-13.84z"/><path class="cls-1" d="M298.27 88.34c4.18-.1 11.37 5.73 12 9.74.41 2.54-1.29 4.4-3.89 3.64a21 21 0 01-11.63-8.45c-1.67-2.41.25-4.85 3.52-4.93z"/></g></g></svg>