<svg id="圖層_1" data-name="圖層 1" xmlns="http://www.w3.org/2000/svg" viewBox="0 0 800 400"><defs><style>.cls-1{opacity:0.5;}.cls-2{fill:#b5b5b6;}.cls-3{font-size:28.4px;fill:#666;font-family:PingFangTC-Semibold-B5pc-H, PingFang TC;font-weight:700;}</style></defs><title>UI</title><g class="cls-1"><path class="cls-2" d="M774.87,203.4c-36.56.34-69.39-18.54-102.4-31.75-16.58-6.63-33.74-12.07-51.64-13.47a111.18,111.18,0,0,0-44.45,5.89c-27.87,9.49-51.82,27.36-75.21,44.72-22.88,17-46.4,35.53-73.86,44.4-31.54,10.19-64.06,1.44-92-14.9-15.45-9-29.52-20.19-43.47-31.36-15.13-12.11-30.1-24.94-47.68-33.4-14.74-7.1-30.89-11.16-47.32-10.1-14.92,1-29.05,5.61-42.63,11.64-31.52,14-60.36,35.78-94.57,43-40.22,8.51-81.21-2.13-121.73.25-30.78,1.81-64.95,10.51-86.15,34.49a73.18,73.18,0,0,0-12.3,19.2c-2.69,6.14,6.36,11.5,9.08,5.3,13.08-29.87,45.09-42.86,75.55-47.14,38.47-5.4,77.24,3.9,115.84,1.11,20-1.44,38.31-6.73,56.45-15,15.2-7,29.73-15.24,44.53-23,26.92-14.11,55.47-25.28,85.86-15.5,18.53,6,34.06,17.81,49.1,29.77,14,11.13,27.76,22.59,42.61,32.57,27.11,18.22,60.33,31.94,93.55,27.35,27.83-3.84,52.4-19.22,74.84-35.23,24.06-17.16,47-36.41,73.43-49.93,12.28-6.28,25.46-11.15,39.18-13.06,16.64-2.33,33.36.26,49.31,5.11,34.26,10.41,65.3,30.2,100.68,37.13a125.7,125.7,0,0,0,25.38,2.44c6.76-.07,6.78-10.58,0-10.52Z"/><circle class="cls-2" cx="566.25" cy="174.05" r="19.74"/><circle class="cls-2" cx="211.07" cy="168.4" r="19.74"/><text class="cls-3" transform="translate(547.9 233.84)">Lushan</text><text class="cls-3" transform="translate(164.01 125.52)">Lishan</text></g></svg>