<?xml version="1.0" encoding="utf-8"?>
<!-- Generator: Adobe Illustrator 18.0.0, SVG Export Plug-In . SVG Version: 6.00 Build 0)  -->
<!DOCTYPE svg PUBLIC "-//W3C//DTD SVG 1.1//EN" "http://www.w3.org/Graphics/SVG/1.1/DTD/svg11.dtd">
<svg version="1.1" xmlns="http://www.w3.org/2000/svg" xmlns:xlink="http://www.w3.org/1999/xlink" x="0px" y="0px"
	 viewBox="0 0 1012 364" enable-background="new 0 0 1012 364" xml:space="preserve">
<g id="_xFFFD__x83__x8C__xFFFD__x99__xA0_影像_1_">
</g>
<g id="瘙_x22A5__x9F__x93__xFFFD__x89__xA0_影像_1_">
</g>
<g id="瘞渲_x89__xA0_影像_1_">
</g>
<g id="撅梯_x89__xA0_影像_1_">
</g>
<g id="瘙_x22A5__x9F__x93__xA0_影像_1_">
</g>
<g id="瘞_xA0_影像_1_">
</g>
<g id="撅_xA0_影像_1_">
	<g>
		<polygon fill="#85A48C" points="151.6,248.3 185.6,245.6 214.3,245.6 275.6,248.3 361.6,252.3 393,251.6 422.9,253.4 436.3,269 
			337,272.3 166.3,269.6 145.6,268.3 		"/>
		<g>
			<path d="M213,175.1c3.9-5.2,7.6-9.9,11.2-14.9c4.7-6.5,9.3-13,14.9-18.8c3-3.1,6-6,10.6-6.7c3.7-0.6,7.1,0,10.2,2.1
				c4.6,3.2,9.4,6.3,11.7,11.8c1.2-0.5,1.7-1.6,2.4-2.4c5.7-7.1,11.4-14.1,17.7-20.7c3.5-3.7,7.3-7.1,11.8-9.7
				c10.2-5.9,20-5.1,29.1,2.3c4.1,3.4,7.5,7.4,10.2,12c6.2,10.1,11.9,20.4,16.3,31.4c0.7,1.8,1.3,1.9,2.8,0.7
				c6.4-5.2,13.6-8.7,21.8-10.1c6.5-1.1,11.8,1,15.9,6.2c1.3,1.7,2.6,3.6,3.5,5.5c5.4,11.2,12.3,21.7,17.9,32.8
				c1.4,2.7,2.7,5.4,3.7,8.2c0.8,2.2,1.2,4.4,1.1,6.7c-0.1,3.5-1.4,6.3-4.8,7.5c-3.4,1.3-6.2,0-8.6-2.5c-1.8-1.9-3-4.1-4.1-6.4
				c-6-11.9-11.9-23.9-18.1-35.8c-3.4-6.5-2.4-6.9-10.6-3.9c-4.6,1.7-8.4,4.7-11.6,8.4c-0.9,1-1.7,2.1-2.5,3.2
				c-6.1,7.8-14.5,7.1-19.2-1.7c-1.2-2.2-2.1-4.6-2.9-7c-4.1-11.9-9.4-23.2-15.5-34.3c-1.9-3.5-4.2-6.8-7.3-9.4
				c-2.3-2-4.8-2.3-7.6-1.1c-1.8,0.8-3.4,1.8-4.9,3c-2.7,2.1-5.1,4.4-7.3,6.9c-15.3,17.3-30.5,34.7-44.4,53.1
				c-0.9,1.2-1.7,2.4-2.5,3.6c-1.5,2.4-4.2,2.7-6,0.5c-1.5-1.8-1.8-3.9-1.4-6.2c0.7-4.3,2.7-8.1,4.8-11.8
				c3.7-6.5,7.8-12.7,12.4-18.6c1.3-1.7,1.3-2.4-0.9-3.1c-3.5-1.2-5.5-4.4-8.1-6.7c-3.1-2.7-3.2-2.7-5.8,0.3c-3,3.4-5.9,7-8.4,10.8
				c-5.6,8.5-11.9,16.5-17.7,24.9c-1.2,1.8-2.7,3.4-4.2,5c-5.8,6.3-17.4,4.2-20.4-4.3c-1.5-4.2-3.6-8.2-5.2-12.3
				c-0.9-2.2-1.7-1.8-3-0.5c-3.6,3.5-6.7,7.4-9.7,11.4c-5,6.6-9.2,13.7-13.6,20.8c-1.4,2.2-2.8,4.5-4.4,6.6c-1.6,2.2-3.9,3-6.5,2
				c-2.2-0.8-3.4-3.2-3-6.1c0.2-1.3,0.5-2.7,1-4c5.7-14.9,13.9-28.4,25.1-39.9c3.2-3.3,6.9-5.9,10.8-8.3c5.1-3.1,9.9-2.3,14,2.1
				c2.4,2.6,4.1,5.8,5.6,9C210.2,169.4,211.5,172.1,213,175.1z"/>
			<path d="M670,202.5c0.7-4.4,1.3-8.5,1.9-12.6c0.9-5.7,1.8-11.3,3.2-16.9c0.6-2.3,1.3-4.6,4.2-4.7c2.9-0.1,4,2.2,4.8,4.5
				c1.2,3.6,1.5,7.3,1.6,11c0.5,22.7,0,45.4-0.9,68.1c-0.3,6.8-0.7,13.6-1.8,20.4c-0.8,5-2.8,9.6-5.7,13.7c-2.2,3.1-5.2,4.9-9.1,4.1
				c-4-0.8-6.1-4-6.4-9c-0.5-8.3,0.6-16.5,1.7-24.7c1.8-14.1,3.4-28.1,5.1-42.2c0-0.3,0-0.7-0.2-1.2c-2.1,4.2-5.5,7.4-8.2,11.2
				c-4.4,6.2-10.2,10.8-17.1,14c-15.5,7.1-31.9,10.5-48.9,10.4c-4.7,0-9.3-0.8-13.5-2.8c-8.1-3.8-12.7-10.2-12.2-19.2
				c0.5-11.8,4.1-22.8,9.1-33.4c1.1-2.3,3-4,5.9-3.5c2.4,0.4,3.7,2.5,3.8,5.9c0.1,7.8-1.3,15.6-1.5,23.4c-0.2,7,0.2,7.5,7.2,7.1
				c5.3-0.3,10.4-1.3,15.6-2.3c1.8-0.3,2.6-2.5,4.1-2.5c3.5,0.1,3.1-2.2,3.3-4.4c1.2-14.9,2.5-29.9,5.4-44.6c0.5-2.5,1-5,2.4-7.2
				c1.5-2.5,3.7-4.1,6.7-3.8c3,0.3,4.9,2.3,5.8,5.1c0.8,2.4,0.9,4.8,1,7.3c0.5,13.1,0.6,26.2-0.1,39.2c-0.1,2.2,0.3,2.9,2.5,2
				c1.6-0.7,3.2-1.2,4.9-1.6c7.3-1.5,12.9-5.3,17.1-11.5C664.4,197.7,667.1,197.9,670,202.5z"/>
			<path d="M219.9,270.9c-15.3-0.7-30.5,1-45.7,2.8c-7.7,0.9-15.6,1-23.4,1.1c-7.3,0.1-10.6-4.7-8.3-11.6
				c2.9-8.9,6.8-17.4,10.2-26.1c0.7-1.8,1.9-3.2,4.1-2.8c2.2,0.4,2.8,2.3,2.8,4.1c0.1,3.9-0.8,7.8-1.8,11.5
				c-0.8,3.2-1.6,6.4-2.5,9.5c-0.6,1.9-0.1,2.2,1.8,2.1c9.5-0.5,19-1.6,28.5-2.8c16.7-2.3,33.6-1.4,50.4-0.9
				c16.3,0.5,32.4,3,48.6,4.3c12.2,1,24.5,0.7,36.8,1.3c5.7,0.3,11.4,0.4,17.1,1.2c9,1.2,17.9,0.7,26.9,0.4
				c14.1-0.4,28.2-1.3,42.2-0.4c6.8,0.4,13.6,1.1,20.4,1.8c2.2,0.2,2.6-0.4,1.6-2.3c-1.9-3.8-4.1-7.5-6.8-10.9
				c-2.1-2.7-4.1-5.6-4.8-9.1c-0.7-3.5,0.6-6.7,3.3-7.9c2.6-1.2,5.9-0.4,7.9,2.6c5.6,8.7,10.7,17.8,13.9,27.7c2,6-1.2,10.6-7.5,11.8
				c-5.1,1-10.3,0.8-15.5,0.3c-20-2.1-40.1-1.6-60.2-0.7c-8.9,0.4-17.8-0.1-26.7-0.6c-18.1-1.1-36.2-0.6-54.2-2.1
				c-13.1-1.1-26.2-2.9-39.4-3.5C233.2,271.5,226.5,271.2,219.9,270.9z"/>
			<path d="M842.4,200.4c-5.6,1.9-11.5,6.3-16.3-1.7c-0.5,1.1-0.9,2.2-1.4,3.3c-1.6,3.6-4.3,5.4-7.3,4.9c-3.1-0.5-5.1-2.9-5.4-6.9
				c-0.9-9.9,0.3-19.6,1.9-29.3c2.1-12.9,4.9-25.7,8.1-38.4c0.3-1.2,0.7-2.5,1.1-3.7c1.2-3.3,3-4.8,5.6-4.7c2.5,0.1,4.3,1.9,5.1,5.3
				c0.6,2.3,0.8,4.7,0.7,7c-0.2,4.8-0.5,9.6-0.7,14.4c-0.1,1.7-0.3,3.4-0.4,5.1c1.3,0.1,1.7-0.7,2.3-1.2c2.9-2.3,6-4.4,9.6-5.7
				c8.8-3.3,16.4,0,20,8.7c2.3,5.5,2.4,11.3,1.5,17.2c-1.1,6.9-3.2,13.4-6.4,19.6c-1.8,3.4-4.1,5.8-8.4,5c-1.7-0.3-1.5,1-1.4,1.9
				c0.2,9.8-1.1,19.6-2.3,29.3c-1,8.3-2.3,16.6-4.8,24.6c-1.1,3.7-2.5,7.2-4.9,10.3c-5.1,6.9-12.9,6.9-18-0.1
				c-2.6-3.6-4.6-7.6-6.5-11.6c-1-2-1.6-2.6-3-0.3c-1.8,3-4.3,5.4-7.2,7.3c-2,1.4-4.2,2-6.3,0.4c-2.1-1.5-2.4-3.7-1.9-6.1
				c0.8-3.8,2.8-7.1,4.9-10.3c2.9-4.5,5.9-9,7.7-14.1c-1.3-0.7-2.2,0.2-3.1,0.5c-1.6,0.6-3.1,0.7-4.3-0.6c-1.3-1.5-1.1-3.2-0.2-4.8
				c2.2-3.8,9.2-6.4,13.5-5.1c4,1.2,6.5,5.5,6.2,10.7c-0.1,1.4-0.9,2.8,1.9,2.6c1.8-0.2,1.7,1.8,0.8,3.1c-1.7,2.2-3.6,4.3-5.5,6.4
				c-1.1,1.2-1.3,2.1-0.2,3.5c2.1,2.7,4.1,5.5,6.4,8.6C828.1,236.3,832.4,217.5,842.4,200.4z M827.4,194.8c1.5-1.4,3.2-2,4.8-2.7
				c4.5-2,9.4-2.6,14.2-3.7c1-0.2,2.3-0.2,2.5-1.7c0.3-2.1,0.6-4.3,0.9-6.5c-1.8,0.3-2.9,1.3-4.2,1.9c-2.9,1.4-5.7,2.8-8.9,3.2
				c-2.2,0.2-4.1-0.4-5.4-2.5c-1.2-2.1-0.7-4,0.6-5.8c1.1-1.6,2.7-2.7,4.3-3.7c3.7-2.3,7.6-4,11.8-5c3.1-0.7,3.7-2.4,3.5-5.2
				c-0.4-4.1-1.4-4.9-5.2-3.3c-6,2.6-10.6,6.9-14.4,12.1c-0.4,0.5-0.6,1.1-0.7,1.8C830.2,180.7,828.8,187.7,827.4,194.8z"/>
			<path d="M746,204.5c2.9-1.3,5.3-3.2,7.8-5c1.3-1,2.6-2,4-2.9c1.3-0.8,2.8-0.9,4,0.2c1.2,1.2,1.1,2.6,0.5,4
				c-0.3,0.6-0.6,1.1-1,1.6c-4.3,5.5-9.3,10.2-15.3,13.9c-1.7,1.1-3.5,1.9-5.5,2.4c-6.4,1.6-12.2-2.4-12.9-9
				c-0.6-5.2,1.3-9.8,3.2-14.5c0.4-0.9,0.8-1.8,1.3-3c-2.1,0.1-3.6,1.1-5.2,1.8c-10,4.4-18-2.8-19.3-11.3c-0.4-2.6-0.4-5.3,0-7.9
				c1.4-8.7,4-17,8.1-24.7c0.8-1.6,1.8-3.2,3.2-4.4c2-1.8,4.2-2.6,6.8-1.4c2.5,1.1,3.5,3.2,3.3,5.8c-0.5,5.2-1.4,10.4-1.9,15.7
				c-0.4,3.7-0.5,7.4-0.8,11.1c-0.1,1.8,0.5,2.4,2.4,1.8c4.8-1.6,9.2-3.8,13.1-7c1.3-1.1,2.5-2.1,4.3-2.2c1.2,0,1.7-1,2.3-1.7
				c3-3.6,6-7.1,9.8-9.8c2.6-1.8,5.3-2.7,8.5-2c3.6,0.8,4.5,3.7,2.2,6.5c-2.3,2.8-3.5,6.2-5.3,9.1c-6.1,9.8-11.6,20-16.6,30.4
				C746.5,202.7,745.9,203.3,746,204.5z"/>
			<path d="M879.4,279.1c0,2.4,0,4.7,0,7.1c0,0.6-0.1,1.3-0.2,1.9c-0.6,4.5-2.9,7.3-6.1,7.7c-3.2,0.4-6.6-2-7.7-6.4
				c-2.2-8.6-4.9-17.1-7.2-25.7c-2-7.7-4.4-15.4-5.9-23.2c-1.3-7.1,0.4-13.3,4.6-19c3.1-4.2,6.7-7.9,10.4-11.5
				c0.6-0.6,1.4-1.2,2.2-1.6c1.6-0.9,3.3-1.2,4.9-0.1c1.6,1.1,1.7,2.7,1.5,4.4c-0.4,3-1.7,5.7-3.1,8.4c-7.1,13.4-6.8,8.8-1.4,23.1
				C875.8,255.3,880,266.7,879.4,279.1z"/>
			<path d="M701.3,287.3c-0.3-11.1,2.6-22.5,6.8-33.6c0.8-2.2,1.8-4.4,3.6-6c1.2-1.1,2.6-1.7,4.2-1.1c1.5,0.5,1.6,1.9,1.9,3.3
				c1.7,8.6,0.6,17-1.1,25.4c-1.4,7.2-1.6,14.7-5.4,21.3c-0.5,0.9-0.8,1.8-1.3,2.7c-1.1,1.8-2.7,2.7-4.8,2.3
				c-2.1-0.4-3.3-1.8-3.8-3.8C700.7,294.5,701.3,291.3,701.3,287.3z"/>
			<path d="M786.1,195.8c0,2.4-0.1,4.6-0.7,6.7c-1.9,6.9-4.1,13.8-6.9,20.4c-2,4.6-5.4,7.7-10,9.5c-1.6,0.7-3.5,1.1-4.7-0.6
				c-1.3-1.8-0.4-3.3,0.9-4.6c2.5-2.6,3.3-5.8,3.8-9.1c0.9-6.4,1.8-12.8,2.7-19.2c0.4-2.9,1.2-5.7,2.3-8.4c0.9-2.2,2.2-4.2,4.3-5.5
				c3.6-2.2,7-0.7,7.6,3.5C785.8,191,786.4,193.5,786.1,195.8z"/>
			<path d="M127.5,228.2c-5.1-0.5-10.1-1-15.2-1.5c-0.8-0.1-1.6-0.2-2.4-0.4c-3.4-0.8-5.2-2.7-5.4-5.3c-0.2-2.8,1.4-5.1,4.9-6
				c8.8-2.3,17.8-3.4,26.9-3.1c4.5,0.2,7.8,3.5,8.1,7.4c0.3,3.9-2.7,7.3-7.2,8.3C134,228.4,130.8,228.3,127.5,228.2z"/>
			<path d="M178.6,111.8c6.3,0.1,10.6,2.3,13.9,6.6c1,1.3,1.6,1.5,2.9,0.3c7.1-6.6,15.9-7.3,25-6.7c2,0.1,3.4,1.3,3.8,3.3
				c0.4,2.1-1,5.8-2.5,6.6c-0.9,0.5-2,0.5-2.4-0.5c-0.8-2-2.3-1.6-3.8-1.5c-4.1,0.3-8.2,0.5-11.7,2.9c-2.2,1.4-4,3.1-5.1,5.5
				c-1,2-2.3,3.5-4.8,3.4c-2.5-0.1-3.7-1.7-4.6-3.7c-0.6-1.2-1.2-2.4-1.9-3.6c-3.4-5.7-7.1-7.2-13.5-5.5c-2.3,0.6-4.5,1.5-6.5,2.8
				c-1.1,0.8-2.4,1.8-3.6,0.4c-1.2-1.4-0.5-2.8,0.5-3.9C168.3,113.9,173.6,112.2,178.6,111.8z"/>
			<path d="M463.9,227.7c-4.2,0-8.4,0.5-12.5-0.3c-4-0.8-6.2-2.8-6.3-5.7c-0.1-2.9,1.7-5.2,5.5-6.1c7.3-1.9,14.7-3.4,22.3-3.8
				c1.1,0,2.2,0,3.3,0.1c4.5,0.4,7.6,3.4,7.7,7.4c0.1,3.9-2.7,7.2-7.1,8c-2.9,0.5-5.8,0.5-8.7,0.5
				C466.6,227.7,465.3,227.7,463.9,227.7z"/>
			<path d="M767.7,262.5c-0.2,2.9-0.5,5.8-0.7,8.7c-0.2,2.2-0.3,4.2,0.7,6.4c1.1,2.3-0.3,5.2-2.4,6.3c-2.2,1-4.7,0.4-6.2-1.8
				c-0.7-0.9-1.2-2-1.5-3.2c-1.9-7.5-3.6-15-3.8-22.8c0-1.6,0.1-3.3,0.4-4.9c0.5-2.5,1.8-4.4,4.5-4.9c2.6-0.5,4.6,0.8,6.1,2.8
				c1.9,2.6,2.5,5.6,2.8,8.7c0.1,1.5,0,3.1,0,4.6C767.5,262.5,767.6,262.5,767.7,262.5z"/>
			<path d="M732.4,272.2c0-5.3,1-11.1,2.5-16.8c0.5-1.9,1.4-3.5,3.6-3.5c2.2,0,3.2,1.4,3.8,3.3c1.6,4.8,2.4,9.6,2.5,14.7
				c0.1,6.3-0.1,12.4-2.3,18.4c-0.8,2.2-1.6,4.4-4.5,4.4c-2.2,0-3.9-1.7-4.2-4.9C733.2,282.8,732.2,277.9,732.4,272.2z"/>
		</g>
	</g>
</g>
</svg>
