<?xml version="1.0" encoding="utf-8"?>
<!-- Generator: Adobe Illustrator 23.0.2, SVG Export Plug-In . SVG Version: 6.00 Build 0)  -->
<svg version="1.1" id="Layer_1" xmlns="http://www.w3.org/2000/svg" xmlns:xlink="http://www.w3.org/1999/xlink" x="0px" y="0px"
	 viewBox="0 0 1392.7 324" style="enable-background:new 0 0 1392.7 324;" xml:space="preserve">
<style type="text/css">
	.st0{fill:#CF9479;}
	.st1{fill:#222222;}
</style>
<g id="_xFFFD__x83__x8C__xFFFD__x99__xA0_影像_1_">
</g>
<g id="瘙_x22A5__x9F__x93__xFFFD__x89__xA0_影像_1_">
</g>
<g id="瘞渲_x89__xA0_影像_1_">
</g>
<g id="撅梯_x89__xA0_影像_1_">
</g>
<g id="瘙_x22A5__x9F__x93__xA0_影像_1_">
	<g>
		<path class="st0" d="M307.8,217.4c1.3,0,2.5,0,3.8,0c2.6,0.4,5.3,0.5,7.9,0.5c22.2,0.3,44.2,2.2,65.7,7.7
			c6.5,1.7,12.9,3.9,18.7,7.4c2.4,1.5,4.5,3.3,6.6,5.2c2.5,2.4,3.5,5.2,3.4,8.6c-0.1,4.7-3.5,7.2-8,7.3c-4.4,0.1-8.8-0.6-13.1-0.5
			c-14.9,0.3-29.8,0.5-44.8,0.2c-11-0.2-22.1-0.7-33.1-1.1c-6.3-0.3-12.7-0.5-19.1-0.8c-24.9-0.8-49.8-0.2-74.7-0.6
			c-11.3-0.2-22.7-0.8-34-1.9c-8.3-0.9-16.4-0.5-24.4,2.4c-4.6,1.7-9.4,2.4-14.3,2c-2.9-0.3-5.2-2.3-5.3-5.1
			c-0.2-3.8-0.5-7.8,3.1-10.6c0.6-0.4,1-1.1,1.2-1.8c1.5-4.4,5.2-6.1,9.3-7.2c4.9-1.3,10-1.8,15.1-2.2c13.8-1.1,27.5-2.2,41.3-2.3
			c11.5-0.1,22.7-2.8,34-4.6c8-1.2,16-1.6,24-1.9c5.9-0.2,11.8-0.4,17.6-0.5c5.5,0,11,0,16.5,0C306,217.6,307,217.9,307.8,217.4z"/>
		<g>
			<path d="M335.5,162.4c1.3-0.1,1.6-1,2.2-1.6c6.9-7,14-13.7,21.8-19.8c8.5-6.6,14.3-4.2,16.2,6.4c0.8,4.5,0.9,9,1.2,13.5
				c1.3,0.1,1.7-0.9,2.2-1.5c7.5-8,16.1-14.7,25.5-20.3c7-4.1,12.3-1.8,13.6,6.2c0.5,3.1,0.5,6.2,0.7,9.2
				c0.5,11.6,1.3,23.2,0.9,34.9c0,1.4-0.1,2.7-0.5,4c-1.1,4.4-4.7,7.2-8.9,7c-4.3-0.2-7.7-3.5-8.2-8.1c-0.5-4.8,0.1-9.6,0.7-14.4
				c0.8-6.7,0.9-13.4,1.2-20.1c0-0.4-0.1-0.8-0.2-1.3c-1.3,0.1-1.8,1-2.6,1.6c-7.8,6.7-15,14-22.4,21.1c-1.1,1.1-2.2,2.2-3.4,3.1
				c-2.3,1.8-4.9,2.4-7.7,1c-2.6-1.3-3.9-3.6-3.9-6.4c-0.1-6-0.1-12-0.2-18c0-1.5-0.1-3-0.2-4.5c-1.3,0-1.7,0.8-2.2,1.4
				c-7.3,7-14.4,14.1-20.7,22c-1.5,1.9-3.1,3.8-5.1,5.3c-2.8,2.1-5.9,3-9.2,1.5c-3.4-1.5-4.7-4.6-4.6-8c0.1-6.1,0.3-12.2,0.7-18.3
				c0.7-11.7,0.8-23.4,0.1-35.2c-0.1-2.2-0.7-3.1-3-2.9c-3.3,0.3-6.7,0.4-10.1,0.5c-1.8,0-2.5,0.8-2.7,2.6c-1.6,11-3.1,22-3.4,33.1
				c-0.2,7-0.6,14-1.1,21c-0.5,6.8-3.6,9.7-10.3,10.5c-5.4,0.6-10.9,1.1-16.3,0.7c-5-0.4-7.5-2.8-7.5-7.9
				c-0.2-22.3-1.3-44.5,0.5-66.8c0.3-4.1,0.3-8.2,0.3-12.3c0-2.2-0.9-2.7-2.9-2.8c-5,0-10-0.2-15-0.4c-2-0.1-2.7,0.5-2.8,2.5
				c-0.6,8.2-1,16.3-2,24.5c-1.6,13.9-3.8,27.7-4.8,41.7c-0.3,4-0.5,8-0.8,12c-0.7,8.5-4.1,11.6-12.6,11.5c-5.5,0-10.9,0-16.4-0.2
				c-6.1-0.2-8.3-2.6-8.2-8.7c0.2-13.7,1.5-27.4,2.4-41.1c0.4-5.7,0.3-11.4,0.2-17.2c0-1.9-0.5-2.8-2.6-2.7c-2.9,0.2-5.8,0.1-8.7,0
				c-2.2-0.1-2.9,0.6-3.1,2.8c-0.9,10.9-0.9,21.8-1.6,32.7c-0.1,1.4-0.2,2.9-0.5,4.3c-1.1,5.7-4.7,8.6-10.5,8
				c-7.3-0.9-14.7-0.6-22.1-1c-2.1-0.1-2.6,0.7-2.9,2.5c-0.7,4.8-0.8,9.6-1,14.4c-0.1,1.7-0.2,3.5-0.7,5.1c-0.7,2.2-2,3.7-4.5,3.7
				c-2.4,0-3.8-1.6-4.4-3.8c-0.4-1.3-0.6-2.7-0.7-4c-0.6-7.5,0-14.9,1-22.3c0.7-5.1,3.3-7.7,8.4-8.7c6.9-1.4,13.9-1.2,20.9-1.1
				c2.2,0.1,2.9-0.6,3.2-2.8c1.3-10.6,2.8-21.3,4.3-31.9c0.9-6.3,3.4-8.9,9.6-10.2c6.4-1.3,12.8-1.3,19.3-0.8c6,0.5,8.9,3.7,8.8,10
				c-0.2,11.6-0.7,23.3-1.7,34.9c-0.7,8.1-1,16.3-1.6,24.5c-0.1,1.8,0.4,2.4,2.2,2.4c2.9-0.1,5.8-0.2,8.7,0c2.2,0.1,3-0.7,3.1-2.9
				c0.6-10.4,1.4-20.9,2.9-31.2c2.3-15.9,3.7-32,4.8-48c0-0.5,0.1-0.9,0.1-1.4c1-8.7,3.4-10.9,12.1-11.4c7.3-0.4,14.7-1.1,22,0
				c8.9,1.3,11.6,4,11.2,13.1c-1.2,25.2-1.7,50.5-2,75.8c0,2.9,0.8,3.5,3.4,3.5c7.3-0.1,7.3,0,7.6-7.3c0.6-17.1,2-34.1,5.5-50.9
				c1.1-5.5,4.1-8.4,9.5-9.3c6.2-1,12.5-1.4,18.7-0.9c5.5,0.4,8.5,3.2,9.1,8.7c0.9,8.9,0.7,17.8,0.9,26.7
				C334.7,150.3,335,156.4,335.5,162.4z"/>
			<path d="M138.7,242.8c0-3.9,0-7.8,0-11.7c0-1.3,0-2.6,0.2-3.8c0.3-2.1,0.3-4.9,3.1-5c3-0.2,3,2.6,3.5,4.7
				c1.6,7.7,3.8,15.3,4.9,23.2c0.3,2,1.3,1.5,2.5,1.2c10.2-2.2,20.5-4.1,30.8-5.5c12.9-1.7,25.9-1.9,38.8-3.2
				c25.6-2.6,51.3-2.5,77.1-2.4c10.3,0.1,20.4,1.8,30.6,2.8c12.1,1.2,24.3,1.6,36.4,2.4c10.3,0.7,20.4,2.2,30.4,4.5
				c4,0.9,4.1,0.9,3.8-3.3c-0.3-5.1-0.2-10.2,0.2-15.3c0.1-1.7,0.4-3.4,0.8-5.1c1.2-4.9,4.9-7.8,9.1-7.3s7.3,4.2,7,9.3
				c-0.6,8.4-0.6,16.9-2,25.3c-1.2,7.5-5.3,10.6-12.9,10.2c-6.4-0.3-12.5-2.1-18.8-3.2c-11.4-2.1-23-2.4-34.5-2.9
				c-13.9-0.6-27.7-2-41.6-3.3c-1-0.1-2-0.2-3-0.2c-18.5,0.4-37.1-0.5-55.6,1.1c-23.4,2-46.8,2.6-70.1,5.9
				c-10,1.4-19.9,3.1-29.9,4.7c-7.1,1.1-11-2.3-10.8-9.5c0.1-2.2,0.1-4.4,0.1-6.5c0-2.4,0-4.7,0-7.1
				C139,242.8,138.9,242.8,138.7,242.8z"/>
			<path d="M294.4,33.1c6.7-0.1,13.4,0.2,19.9,2.1c4.1,1.2,7.6,3.2,11.1,5.6c4.6,3.1,6.3,7.6,6.7,12.7c0.4,4.7-2.3,8.4-7.2,10
				c-3.8,1.3-7.8,1.5-11.8,1.5c-7-0.1-13.8-1.7-20.7-3.2c-8.5-1.9-17-3-25.4,0.8c-3.4,1.6-6.8,3-6.7,7.8c0,1.9-1.3,3.3-3.3,3.9
				c-1.9,0.5-3.4-0.2-4.7-1.5c-0.8-0.9-1.4-1.9-1.7-3c-1.8-6.7-1.9-13.3,0.6-19.8c2-5.1,6.3-7.9,10.9-10.1c8-3.8,16.5-6.1,25.4-6.7
				C289.9,33,292.2,33.1,294.4,33.1z"/>
			<path d="M165.8,88.1c-5.7-0.2-11.3-0.3-16.6-2.5c-4.4-1.8-7.5-4.9-7.7-9.9s2.6-8.3,6.9-10.5c1.9-1,3.9-1.6,5.9-2
				c7.9-1.8,15.7-1.1,23.6,0.3c4.2,0.8,8.3,1.8,12.3,3.5c7.7,3.3,11.2,8.8,11.2,17.3c0,4.1,0.4,8.1-2.4,11.7c-2.6,3.3-6.1,4.2-8.8,1
				C183.7,88.9,174.8,88.6,165.8,88.1z"/>
			<path d="M108.5,217.7c-4.7-0.3-9.9-0.7-14.9-1.7c-0.9-0.2-1.8-0.4-2.6-0.6c-2.9-0.9-5.3-2.5-5.7-5.8c-0.4-3.4,1.4-5.8,4.3-7.2
				c8.3-3.8,17-4.9,26-4.2c0.8,0.1,1.6,0.4,2.3,0.7c3.9,1.6,6.6,4.2,6.8,8.7c0.2,3.8-2.5,7.3-6.6,9.1
				C115.1,217.8,112,217.8,108.5,217.7z"/>
			<path d="M452.5,197.8c2.5-0.2,5.5,0.2,8.5-0.3c2.7-0.5,5.8,1.7,7.1,4.5c1.3,2.7,0.9,5.6-1.2,7.8c-1.9,2-4.3,3-7,3.3
				c-8.7,1.2-17.4,0.5-26-1.3c-4.6-1-7-3.2-7-6.1c0-2.9,2.3-5.1,6.9-6.2C439.9,198.3,445.9,197.8,452.5,197.8z"/>
			<g>
				<path class="st1" d="M1002.2,155.1c0,14.4,0,28.7,0,43.1c0,6.9-0.8,13.6-3.9,19.9c-1.3,2.7-2.9,5-5.6,6.5
					c-4.7,2.6-9.5,0.5-10.6-4.5c-0.1-0.7-0.4-1.7,0.3-2c2.7-1.1,2.3-3.7,2.7-5.7c0.9-4.4,1.1-8.8,1.1-13.3
					c0.1-13.2,0.2-26.3,0.4-39.5c0-1.9-0.4-2.3-2.3-1.9c-5.5,1.4-11.1,1.7-16.8,1.6c-1.9,0-3.8-0.3-5.7-0.8
					c-6.3-1.6-8.5-4.1-9.1-10.6c-0.9-9.3,0.6-18.5,1.6-27.7c0.5-5.1,1.2-10.1,2.4-15.1c1.5-5.9,3.4-7.2,9.4-6.6
					c1,0.1,1.5-0.4,2.1-0.9c6.1-5.4,13.5-6.9,21.3-6.9c6.5,0,10.9,3.7,12.5,10.1c1.8,7.3,1.8,14.8,1.5,22.2
					C1003.2,133.7,1002.7,144.4,1002.2,155.1C1002.3,155.1,1002.3,155.1,1002.2,155.1z M987.7,132.3c0.5-2.4-0.2-2.9-2.2-2.3
					c-4.1,1.2-8.3,2.1-12.6,2.1c-1.9,0-2.3,0.7-2.3,2.4c0,2.8-0.1,5.6-0.4,8.4c-0.2,2,0.5,2.3,2.3,1.9c4.1-1,8.4-1.7,12.7-1.4
					c1.8,0.1,2.2-0.7,2.2-2.2C987.3,138.1,987.5,135,987.7,132.3z M988.5,110.7c-0.4-7.4,0.9-7.6-7.8-5.3c-0.3,0.1-0.5,0.2-0.8,0.3
					c-5,2.1-8,5.9-9,11.2c-0.3,1.6,0.1,2.5,2,1.6c3.4-1.5,7.1-2.3,10.8-2.6C988.5,115.4,988.5,115.4,988.5,110.7z"/>
				<path class="st1" d="M707.5,209c-4.6,6.8-9.8,13.1-15.3,19.2c-4.6,5.1-9.5,9.8-15,13.8c-2,1.4-4.1,2.7-6.6,3
					c-4.7,0.6-7.7-2.9-6.4-7.5c0.8-2.9,2.7-5.1,4.8-7.2c10.1-10.2,20.3-20.3,30.4-30.5c0.6-0.6,1.5-1.1,1.8-2.2
					c-1.9,0-3.6,0.7-5.2,1.1c-5.6,1.5-11.2,3.1-16.8,4.5c-4.3,1.1-6.6,0.3-7.7-2.1c-1-2.3,0.1-4.4,3.5-6.9
					c5.7-4.2,12.2-6.8,18.8-9.1c4.3-1.5,8.6-2.8,13-4c1.9-0.5,2.6-1.4,2.7-3.4c0.2-4.2,0.4-8.4,1.3-12.5c0.2-1.1,0.5-2.1,1.2-3
					c1-1.4,2.4-1.9,4.1-1.5c1.6,0.4,2.1,1.6,2.2,3.1c0.3,3.9,0.7,7.8,0.9,11.7c0.1,2,0.7,2.4,2.7,2c8.9-1.7,17.9-3.2,27-3.1
					c1.7,0,3.5,0.1,5.1,0.7c2.2,0.8,3.8,2.2,4.1,4.7c0.3,2.4-0.8,4.2-2.7,5.6c-1.6,1.2-3.4,1.7-5.3,2.2c-7.6,2.2-15.5,3-23.3,4.3
					c-1.1,0.2-2.3,0.4-3.6,0.7c0.8,1.3,2,1.6,3,2.2c10.1,6.5,20,13.3,29.6,20.5c3,2.2,5.9,4.6,8,7.8c2.8,4.2,3.1,8.6,0.7,11.4
					c-2,2.4-6.6,2.7-11,0.8c-3.3-1.4-6.1-3.7-8.8-5.9c-7.2-5.9-14.4-11.9-21.6-17.9c-0.7-0.6-1.2-1.4-2.3-1.4
					c-0.7,1-0.4,2.1-0.4,3.2c-0.1,9.2-0.4,18.4-2.4,27.4c-0.5,2.3-1.1,4.6-2.4,6.6c-1.9,3.1-5,4.5-7.8,3.6c-2.4-0.8-3.7-3.4-3.3-7.1
					c0.8-7.1,1.9-14.2,2.8-21.4c0.5-4.4,0.6-8.8,1-13.2C708,209.1,707.7,209.1,707.5,209z"/>
				<path class="st1" d="M872.2,179.7c-0.1-20.3,0-39.2,2.9-58c0.4-2.5,0.9-5,1.9-7.4c1.4-3.4,3.4-4.6,7-4.2
					c1.2,0.2,1.8-0.2,2.4-1.2c3.4-5,8.2-8.2,13.9-9.9c7.3-2.2,13.4,0.4,16.9,7.1c2.7,5.2,3.6,10.9,3.9,16.6
					c0.7,11.3,0.4,22.5-2.8,33.5c-1.3,4.3-3.6,7.1-7.9,9.5c-6,3.4-12,5.7-18.8,6.7c-1.9,0.3-1.3,1.7-1.3,2.7c0.5,11,0.9,22,1.4,32.9
					c0.2,3.8,0.1,7.6-0.2,11.4c-0.3,2.6-0.9,5-1.9,7.4c-1.2,2.9-3.2,4.9-6.5,5s-5.4-1.7-6.8-4.5c-1.8-3.6-2.6-7.5-2.8-11.6
					C872.5,203.3,872.4,190.8,872.2,179.7z M905.7,119.1c-0.1-2.4-0.1-4.7-0.5-6.9c-0.5-3.4-1.3-3.8-4.6-2.8
					c-8.2,2.7-13.2,11.2-11.5,19.3c0.3,1.3,0.9,1.1,1.7,0.8c2.5-0.9,5.1-1.4,7.6-2.1c2.2-0.6,5.3,0.8,6.4-1.5
					C906,124,905.6,121.3,905.7,119.1z M889.8,151c0,2.4,0.1,4.7,0,7.1c-0.1,1.7,0.3,2.5,2.3,2c2.8-0.6,5.7-1.1,8.6-1.3
					c2-0.2,2.4-0.9,2.2-2.7c-0.3-3.7-0.2-7.4,0.1-11.2c0.2-1.9,1.4-4.4,0.2-5.5c-1.4-1.3-3.7,0.5-5.5,1c-2.7,0.7-6.4,0-7.9,2.1
					C888.3,144.6,889.8,148.1,889.8,151z"/>
				<path class="st1" d="M1063.5,111.8c-4.9,11.4-11.3,21.2-18.7,30.4c-3.2,4-6.7,7.7-10.7,10.9c-1.6,1.3-3.4,2.5-5.6,2.5
					c-3.7,0-6.1-2.9-5.4-6.5c0.4-1.7,1.3-3.2,2.1-4.7c3.4-5.8,7.5-11.2,11.5-16.6c0.6-0.8,1.1-1.6,1.9-2.8c-1.9-0.2-3.4-0.3-5-0.6
					c-2.9-0.6-4.5-2.3-4.4-4.7c0-2.3,1.7-4.1,4.6-4.6c3.1-0.5,6.2-0.4,9.2,0.4c1,0.2,2,0.6,2.7-0.6c2.1-3.4,4.2-6.8,6.5-10.6
					c-2.6,0.3-4,1.6-5.5,2.5c-3.2,1.9-5.2,1.9-6.9,0.1c-1.8-2-1.7-5.1,0.5-7.7c2-2.5,4.7-3.9,7.6-5.2c2.8-1.2,5.6-2,8.6-2.5
					c5.7-0.9,9.8,2.5,10,8.3c0.1,2.8-0.8,5.3-1.4,8.2c12.5-5.1,24-1.3,35.3,3.6c2.1,0.9,2.9,1.1,3.4-1.7c0.9-5.2,3.5-9.9,6.8-14.1
					c0.7-0.8,1.6-1.5,2.5-2c2-1,4.1-1.1,5.8,0.5c1.8,1.6,1.9,3.7,0.7,5.7c-2.8,4.8-5.9,9.4-9.7,13.5c-1.4,1.5-1.5,2.1,0.4,3
					c1.7,0.8,3.3,1.8,5.2,2.8c0.7-7.3,4.5-12.8,8.9-18c2.6-3.1,5-3.9,7-2.7c2.1,1.2,2.8,4,1.4,7.6c-2.5,6.3-5.7,12.2-11.9,16
					c0.4,1.1,1.4,1.3,2.2,1.8c7.2,4.6,14.1,9.6,20.5,15.4c1.8,1.7,3.6,3.4,4.9,5.5c1.8,3,1.8,6-0.1,8.1c-1.9,2.1-4.8,2.5-8,0.8
					c-3-1.6-5.6-3.7-8.3-5.7c-12.1-9.3-25.1-17-38.5-24.2c-7.2-3.8-14.7-6.8-22.8-7.8C1068,115.6,1065.2,115.2,1063.5,111.8z"/>
				<path class="st1" d="M937.2,222.5c0.2-3.5,0.3-7.1,0.6-10.6c0.1-1.6-0.4-1.8-2-1.7c-4.7,0.4-7.4,2.2-8.5,7.2
					c-1.1,5.2-3.8,9.8-7.2,13.9c-1.5,1.8-3.1,3.3-5.6,2.2c-2.4-1.1-2.5-3.3-2.1-5.6c0.6-3.9,1.6-7.6,2.9-11.3c1-2.9,1-2.9-2-2.6
					c-1.5,0.1-3.1,0.2-4.6,0.1c-1.7-0.1-3.3-0.7-3.7-2.6c-0.4-1.9,0.5-3.2,1.9-4.2c3.3-2.2,6.9-3.6,10.6-4.9
					c2.1-0.7,3.2-1.8,3.6-3.9c0.6-3,1.4-6,2.2-9c0.4-1.5-0.2-1.9-1.6-1.8c-2.9,0.2-5.8,0.3-8.7-0.6c-2-0.6-3.8-1.6-3.8-4
					c0-2.3,1.6-3.4,3.5-4c12-3.8,24.1-7.7,36.6-9.7c2.4-0.4,4.7-0.3,7,0.4c2.4,0.7,4.2,2.1,4.7,4.7c0.5,2.6-0.6,4.6-2.6,6.2
					c-2.6,2.1-5.7,2.9-8.8,3.4c-1.8,0.3-2.4,0.8-1.4,2.5c0.9,1.6,0.2,4.2,1.7,4.9c1.4,0.6,3.5-0.5,5.2-0.6c1.6-0.2,3.3-0.2,4.9-0.1
					c2.4,0.2,4.1,1.3,5,3.6c0.9,2.4,0.1,4.5-1.7,6.2c-2.8,2.6-6.2,4.1-9.9,5c-2.5,0.6-3.2,1.8-3.2,4.3c0.2,7.8,0.4,15.6-1.1,23.4
					c-0.3,1.7-0.7,3.4-1.6,4.9c-1.1,1.9-2.8,3.1-5.1,3c-2.4-0.2-3.8-1.7-4.6-3.7c-1-2.6-0.9-5.3-1-8.1c0-2.3,0-4.5,0-6.8
					C937.1,222.5,937.1,222.5,937.2,222.5z M932.4,193.2L932.4,193.2c-0.1,0.7,0,1.5-0.1,2.2c-0.2,1.7,0.6,1.7,1.9,1.4
					c4.5-1.2,4.5-1.2,5.1-5.9c0.2-1.3,0.5-2.7,0.8-4c0.1-0.5,0.4-1.3-0.5-1.2c-2.5,0.3-5.2,0.3-7.4,1.3c-1.3,0.6,0.2,2.8,0,4.3
					C932.3,191.9,932.4,192.5,932.4,193.2z"/>
				<path class="st1" d="M1235.8,141.1c0.2-10,1-19.9,4.2-29.5c1.8-5.3,4.2-10.2,7.9-14.5c2.2-2.5,4.7-4.6,8.1-5.2
					c3-0.5,5.6,0.5,7.3,3.1c1.6,2.5,1.4,5-0.3,7.4c-2.9,4.1-4.5,8.7-5.6,13.5c-0.4,1.7,0,2.1,1.7,1.6c10.9-3.4,19.3,3.4,20.7,15.3
					c1,7.9-1,15.3-4.9,22.2c-0.7,1.2-1.3,2,0.3,3c1.3,0.9,1,2.2,0.1,3.4c-1.3,1.6-2.9,2.7-4.8,3.5c-7.6,3.2-15.5,5-23.7,5.8
					c-1.5,0.1-3.1,0.1-4.5-0.8c-0.4-0.3-1-0.7-1.1-1.2c-1-5.7-5.7-10.3-5.4-16.5C1235.9,148.6,1235.8,144.8,1235.8,141.1z
					 M1268.7,144.3c0.1-0.7-0.3-1.2-1.7-0.6c-3.6,1.6-7.4,2.6-11.2,3.5c-1.5,0.4-2.1,1.2-2.1,2.6c0,2.8-0.3,5.6-1,8.4
					c-0.4,1.7,0.4,1.6,1.6,1.2c3.7-1.2,7.4-2.4,11.3-2.9c0.9-0.1,1.5-0.5,1.6-1.5C1267.6,151.6,1268.1,148.3,1268.7,144.3z
					 M1254.7,135.3c-0.3,1.7,0.1,2.6,2.6,1.7c3.3-1.2,6.7-2,10.3-2.5c0.6-0.1,1.3,0,1.6-0.7c1.2-2.4-1.9-8.2-4.7-8.4
					c-3-0.3-5.8,0.6-8.2,2.2c-1.8,1.2-0.9,3.3-1.3,5C1254.8,133.4,1254.8,134.1,1254.7,135.3z"/>
				<path class="st1" d="M582.9,168.6c-2.9,0.6-5.4,1.6-8,1.8c-1.8,0.1-3.6,0.1-5.3-0.8c-3.3-1.8-3.8-5.9-1.1-8.5
					c0.6-0.5,1.3-1,2-1.4c11.3-5.3,22.4-10.9,34.4-14.3c3.2-0.9,6.3-1.7,9.6-0.8c2.9,0.8,3.5,2.3,1.7,4.7c-1.5,2.1-3.5,3.6-5.8,4.9
					c-3.9,2.3-7.8,4.6-11.8,6.8c-1.1,0.6-2,1.2-2.4,2.5c-1,3.2-2,6.4-3,9.6c-0.6,1.9,0,2,1.6,1.6c3-0.8,6-1.2,9.2-1.3
					c9.4-0.3,15.3,5.3,15.6,14.7c0.1,4.5-1,8.9-2.9,12.9c-5.3,11.6-13.4,20.6-24.1,27.4c-2.4,1.5-5.1,2.5-8,2.3
					c-4.9-0.3-7.3-3.8-5.7-8.5c0.8-2.5,2.5-4.4,4.3-6.2c5.3-5,10.6-10,15.3-15.6c2.8-3.3,5.3-6.7,6.8-10.8c0.3-0.9,0.9-2,0.3-2.9
					c-0.7-0.9-1.9-0.3-2.8,0c-3.2,0.9-6.4,1.9-9.6,3c-2.1,0.7-4.2,1.3-6.4,1.4c-6.2,0.3-10-4.4-8.3-10.3
					C579.8,176.9,581.4,173,582.9,168.6z"/>
				<path class="st1" d="M706.6,126.1c-2.4,0.6-4.2,1.1-6.1,1.5c-3.1,0.6-5.2-0.4-6.2-2.7c-0.9-2.2-0.1-4.7,2.4-6.4
					c4.1-2.8,8.8-4.4,13.5-5.5c2.3-0.6,3.5-1.8,4.2-4c1.5-4.5,2.8-9,3.5-13.7c0.6-3.8,1.9-5.6,4-5.3c3.1,0.4,2.8,3.2,3.2,5.3
					c0.9,4.2,0.4,8.3-0.4,12.5c-0.3,1.7,0.1,2.1,1.8,1.9c3.1-0.5,6.3-0.9,9.5-0.6c7,0.6,11,5.4,10.1,12.4c-0.4,3.2-1.4,6.2-2.3,9.3
					c-1,3.5-2,7-2.8,10.5c-0.9,3.7-0.5,4.1,3.4,3.8c3.3-0.2,6.5-0.8,9.7-1.1c1.5-0.2,2.9-0.2,4.3,0.1c4.1,1,5.9,5.1,3.8,8.7
					c-0.4,0.8-1.1,1.5-1.7,2.1c-6.7,6-20.7,7.1-28.2,2.2c-4-2.6-6.1-6.4-6.3-11.2c-0.2-4.2,0.8-8.1,1.9-12.1
					c0.8-2.8,1.8-5.5,2.7-8.3c1.8-5.1,1.8-4.9-3.5-4.5c-4.4,0.3-6.9,1.8-8.4,6.3c-2.8,8.3-6.9,16-12.3,23c-1.7,2.2-3.5,4.2-6,5.4
					c-2,0.9-4.1,1.2-5.9-0.4c-1.7-1.4-1.9-3.4-1.5-5.5c0.5-2.6,1.8-4.7,3.2-6.9C699.8,137.5,703.5,132.3,706.6,126.1z"/>
				<path class="st1" d="M1187.1,165.5c2.2,0.4,3.9-0.2,5.7-0.5c3.6-0.6,7.1-1.4,10.7-2c1.8-0.3,2.9-1.1,3.2-3
					c0.3-2.2,1.1-4.2,2.4-6c1.1-1.5,2.5-2.3,4.5-2c1.8,0.3,2.7,1.6,3.1,3.4c0.2,0.9,0.4,1.8,0.5,2.7c0.8,8.7-0.8,17-3.4,25.2
					c-1,3-2.6,5.6-5.6,7.1c-0.6,0.3-1.1,0.8-1.8,0.4c-0.8-0.4-0.3-1.2-0.2-1.7c0.6-1.9,0.4-3.8-0.1-5.6c-1.1-4.6-0.7-9.3-1-14.4
					c-4.5,2.8-8.9,4.9-13.3,6.9c-3,1.3-6.1,2.5-9.4,2.6c-8.2,0.2-12.6-6.1-9.6-13.7c1.8-4.4,4.5-8.3,7.3-12.1
					c0.6-0.8,1.1-1.6,1.7-2.4c-0.8-0.7-1.6-0.4-2.2-0.4c-7.5-0.2-11.9-5.3-10.9-12.8c0.2-1.4,0.6-2.9,1.1-4.2
					c4.2-9.3,9.6-17.7,16.7-25c1.1-1.2,2.4-2.3,4-2.9c2.1-0.8,4.1-0.9,5.9,0.7c1.7,1.6,2.1,3.6,1.2,5.7c-0.9,2.3-2,4.5-3.1,6.7
					c-2.9,5.5-5.4,11.1-7.8,16.8c-0.8,1.9-0.3,2.5,1.7,2.7c2.6,0.4,4.5,0,6.2-2.2c1.5-2,3.5-3.7,5.3-5.4c1.1-1,2.3-1.8,3.7-2.2
					c1.5-0.4,2.9-0.4,4.1,0.8c1.2,1.2,1,2.7,0.3,4.1c-1.7,3.8-3.8,7.5-6.1,10.9c-4.2,6.2-8.5,12.4-12.8,18.7
					C1188.3,163.3,1187.8,164.3,1187.1,165.5z"/>
				<path class="st1" d="M1057.8,204.1c-1.3-0.2-2.2,0.6-3.2,0.9c-1.8,0.7-3.6,1.4-5.5,1.6c-5.7,0.7-9.8-3.1-9.5-8.8
					c0.2-3.6,1.4-6.9,2.4-10.3c0.3-1.1,0.5-1.9-0.6-2.8c-2.8-2.4-2.5-5.6,0.7-7.6c3.2-2,6.7-3.9,10.4-4.8c4.1-1,6.4-3.2,7.5-7.1
					c0.3-0.9,1.4-1.9,0.7-2.7c-0.6-0.8-1.9-0.1-2.8,0.1c-1.9,0.3-3.7,0.8-5.6,1.1c-2,0.3-3.6-0.5-4.6-2.3c-0.9-1.8-0.6-3.5,0.5-5.1
					c0.9-1.3,2.2-2.2,3.6-2.9c3.4-1.8,7.1-2.8,10.9-3.3c9.7-1.2,16,6.9,12.2,15.9c-2.5,5.9-5.4,11.7-12.3,13.8
					c-2.7,0.8-5.1,2.4-7.8,3.2c-2.1,0.7-3,1.8-2.8,3.9c0.2,1.9-1.1,4.4,0.2,5.4c1.2,0.9,3.3-0.9,5-1.4c8.7-2.7,15.1,1.6,14.7,10.7
					c-0.5,12.7-5.8,23.3-15.6,31.5c-3.3,2.7-7.3,4.1-11.7,3.6c-6-0.7-9-6.6-5.7-11.1c0.6-0.8,1.3-1.7,2.4-1.5
					c1.9,0.4,3.1-0.7,4.4-1.7c5.8-4.5,9.4-10.5,11.9-17.3C1057.9,204.8,1057.8,204.5,1057.8,204.1z"/>
				<path class="st1" d="M1114.5,192.4c5.6,0,8.5,3.4,7.9,8s-3,8.4-5.6,12c-1.3,1.8-1,2.6,0.8,3.8c6.1,4.1,11.9,8.7,17.1,13.9
					c1.5,1.5,2.9,3.1,3.5,5.1c0.7,2.1,0.5,4.2-1.1,5.8c-1.5,1.5-3.4,1.9-5.5,1.4c-2-0.5-3.6-1.6-5.2-2.8
					c-5.7-4.3-11.4-8.7-17.1-13.1c-1.5-1.2-2.4-1.2-3.8,0.3c-3.5,4.1-7.7,7.5-12.3,10.3c-2,1.2-4.2,2.2-6.6,2.3
					c-1.4,0-2.7-0.3-3.5-1.6c-0.8-1.4-0.5-2.9,0.5-4.1c1.5-1.8,3.1-3.5,4.7-5.3c2.6-2.8,5.2-5.6,7.9-8.2c1.2-1.2,1.3-1.9-0.2-2.9
					c-1.4-0.9-2.8-2-4.1-3.2c-3.2-3-3.4-4.8-0.9-8.4C1097.1,197.2,1106.6,195.2,1114.5,192.4z M1111.8,201.2
					c-4.5,1.5-8.3,3.1-12.2,5.4c2,0.9,3.5,1.5,5,2.2c0.8,0.4,1.6,0.3,2.2-0.4C1108.4,206.2,1110.3,204.2,1111.8,201.2z"/>
				<path class="st1" d="M1315.4,235.5c-2.3-0.4-4-1.7-5.5-3.3c-4-4.3-7.6-9-11.2-13.7c-4.3-5.4-8.2-11.1-13.1-16
					c-3.5-3.5-7.2-6.8-12.3-8.1c-3.1-0.8-4.3-3.7-3.3-6.7c0.3-0.8,0.7-1.7,1.3-2.4c5.8-7.1,11.2-14.5,17.7-21c1-1,2.2-2,3.4-2.7
					c1.9-1.1,3.8-1.2,5.6,0.3c1.8,1.5,1.9,3.5,1.2,5.5c-0.7,2-1.9,3.7-3.1,5.4c-3.1,4.6-6.6,8.9-10.2,13.1c-0.8,1-1.2,1.6,0.2,2.5
					c5.2,3.3,9.4,7.7,13,12.7c6,8.1,12.1,16.1,17.4,24.7c1.2,2,2.3,4.1,2.1,6.6C1318.4,234.3,1317.3,235.3,1315.4,235.5z"/>
				<path class="st1" d="M1117.1,165.9c-0.4,6.5-0.4,6.5,6.1,5.7c1.9-0.2,3.8-0.2,5.7,0.4c1.9,0.5,2.5,1.6,1.4,3.5
					c-2.7,4.8-15,8.1-19.7,5.2c-3.2-2-4.3-5-4-8.6c0.3-3.3,0.8-6.5,1-9.8c0.2-2.7-0.4-3-3.1-2.3c-2.5,0.6-3.7,1.7-4,4.6
					c-0.5,6.4-2.2,12.5-4.4,18.5c-0.8,2.2-1.7,5.1-4.8,4.6c-3.2-0.5-3-3.6-3-6c0.1-8.2,1.6-16.3,4.2-24.1c0.8-2.5,2.3-4.3,5.3-4.1
					c0.8,0,1.6-0.4,2.3-0.7c1.8-0.8,3.7-1.5,5.7-1.8c5.4-0.8,9.5,1.8,10.8,7.1C1117.3,160.6,1117.3,163.2,1117.1,165.9z"/>
				<path class="st1" d="M1267.6,208.3c0.3,3.8,0.3,7.6-0.9,11.3c-1.4,4.6-4.5,7.4-9.3,8.1c-3.1,0.5-5.8-1-7.2-3.7
					c-1.3-2.5-1.8-5.3-2.3-8.1c-0.3-1.3,0.4-2.4,1.8-1.6c2.5,1.4,2.3-0.4,2.4-1.8c0.5-8.3,1-16.7,1.5-25c0.2-3.4,0.4-6.7,1.2-10
					c0.2-0.8,0.4-1.6,0.6-2.4c0.8-2,2-3.5,4.4-3.3c2.3,0.2,3.3,1.8,3.6,3.8c0.8,4.4,1.6,8.8,2.2,13.2
					C1266.6,195.2,1267.2,201.7,1267.6,208.3z"/>
				<path class="st1" d="M578.9,135.2c-2.7-0.1-5-1.2-6.3-3.8s-0.8-5.1,0.9-7.4c1.1-1.6,2.7-2.7,4.3-3.7c8.8-5.5,18.5-8.3,28.7-9.6
					c2.6-0.4,5.3-0.1,7.6,1.5c2.3,1.5,2.7,3.5,1.3,5.8c-1.1,1.7-2.5,3.1-4.3,4.1c-8.5,4.6-16.9,9.1-26.2,12.1
					C583,134.6,581,135.2,578.9,135.2z"/>
				<path class="st1" d="M1247.6,193.6c-1.5,11.1-5.6,21.5-12.9,30.6c-1.3,1.6-3.1,2.8-5.1,3.5c-3.8,1.3-6.9-0.9-6.6-4.9
					c0.2-3.1,1.6-5.7,3.3-8.3c3.8-5.9,7.5-11.8,10-18.4c0.6-1.6,1.4-3.1-1.5-3.1c-1.8,0-2.9-1.5-3.2-3.2c-0.4-2,0.3-3.7,1.9-4.8
					c2.7-2,5.8-3.1,9.2-1.9c3.1,1.1,4.2,3.8,4.6,6.8C1247.4,191,1247.4,192.1,1247.6,193.6z"/>
				<path class="st1" d="M811.3,153.2c7.2,0,17.3,7.3,19.5,14.1c1.2,3.8,0.3,7.6-2.5,9.9c-3.1,2.5-6.5,2.5-9.9,0.8
					c-1-0.5-2.1-1.2-2.9-2c-3.7-3.6-6.9-7.7-10-11.8c-1.8-2.3-2-5.1-0.5-7.7C806.3,154.2,808.6,153.2,811.3,153.2z"/>
				<path class="st1" d="M514.7,218.2c-3.4-0.1-5.7-3.2-4.9-6.7c0.5-1.9,1.6-3.5,2.8-5c7.6-9.7,16.9-17.4,26.7-24.8
					c0.5-0.4,1.2-1.1,1.9-0.5c0.9,0.7,0.2,1.3-0.2,1.9c-6.7,10.3-13.3,20.6-20,30.9C519.6,216.3,517.8,218.3,514.7,218.2z"/>
				<path class="st1" d="M513.8,121.9c0-2.9,2-5.2,4.8-5.7c1.3-0.2,2.6-0.2,3.8,0.2c4.5,1.7,8.8,3.8,12.6,6.9c2,1.6,3.3,3.6,3.9,6.1
					c0.2,0.9,0.2,2.2-1.1,1.9c-5.4-1.2-11.1-0.3-16.4-2c-1.6-0.5-3.3-1-4.7-2.1C514.9,125.9,513.8,124.2,513.8,121.9z"/>
				<path class="st1" d="M1175.1,202.8c-0.4,5.1-1.4,10.6-5.7,14.8c-2.8,2.8-5.9,2.1-7-1.7c-1.9-6.6-0.2-12.8,3.1-18.5
					c1.3-2.2,3.5-2.9,5.9-2.2C1173.8,196.1,1175.1,198.5,1175.1,202.8z"/>
				<path class="st1" d="M646.9,187.6c-2.3,0-4.1-0.9-5.2-2.8c-1.3-2.2-1.2-4.5,0.1-6.7s3.2-3.7,5.3-5c4.3-2.7,9.1-4,13.9-5.5
					c0.7-0.2,1.4-0.4,2,0.3c0.7,0.7,0.1,1.4-0.2,2c-3.4,5.2-6.8,10.5-10.8,15.3C650.7,186.7,649,187.6,646.9,187.6z"/>
				<path class="st1" d="M661.9,134.6c3.6,0.1,6.3,0.6,8.8,1.7c1.7,0.7,1.9,1.7,0.4,2.8c-5.1,3.5-10.6,6.4-16.6,7.9
					c-2.8,0.7-5.5-1.1-6.3-3.6c-0.8-2.6,0.4-5.3,3.1-6.5C655,135.3,658.9,134.8,661.9,134.6z"/>
				<path class="st1" d="M658.8,107.2c5.1,0,14.2,6.2,16.2,10.8c0.6,1.6,0.5,2.7-1.4,2.4c-4.3-0.7-8.7,0.1-13-1
					c-1.8-0.5-3.8-0.8-5.3-2.1c-2-1.7-2.8-3.9-1.9-6.4C654.2,108.4,656.1,107.3,658.8,107.2z"/>
				<path class="st1" d="M530,155.3c2,0.3,4.8-0.5,5.5,1.4c0.8,2.2-2,3.3-3.5,4.6c-3,2.7-6.6,4.5-10.1,6.5c-1,0.6-2.2,0.9-3.4,1
					c-2.7,0.2-5-1.3-5.7-3.7c-0.7-2.6,0.3-5.2,3-6.3C520.4,156.8,525.1,155.4,530,155.3z"/>
				<path class="st1" d="M1192.5,212.1c-0.2,1.7,0.1,3.2-1.3,4c-1.5,0.9-3.1,0.4-4.3-0.7c-4.7-4.1-7.1-9.3-6.8-15.6
					c0.1-1.9,1.1-3.5,3.1-4s3.6,0.4,4.7,2C1191.2,202.2,1191.6,207.4,1192.5,212.1z"/>
				<path class="st1" d="M1215,213c-0.1,2.7-1.9,4.2-4.2,3.3c-5.8-2.3-10.5-6.1-13.1-11.9c-1.3-3,0.8-5.5,3.8-5.1
					c4.7,0.7,12.4,7.9,13.4,12.6C1215,212.3,1215,212.7,1215,213z"/>
			</g>
		</g>
	</g>
</g>
<g id="瘞_xA0_影像_1_">
</g>
<g id="撅_xA0_影像_1_">
</g>
</svg>
