<?xml version="1.0" encoding="utf-8"?>
<!-- Generator: Adobe Illustrator 22.0.1, SVG Export Plug-In . SVG Version: 6.00 Build 0)  -->
<svg version="1.1" id="圖層_1" xmlns="http://www.w3.org/2000/svg" xmlns:xlink="http://www.w3.org/1999/xlink" x="0px" y="0px"
	 viewBox="0 0 521.7 576.8" style="enable-background:new 0 0 521.7 576.8;" xml:space="preserve">
<style type="text/css">
	.st0{fill:#B7CBCE;enable-background:new    ;}
	.st1{fill:#FFFFFF;enable-background:new    ;}
	.st2{fill:#FFFFFF;}
	.st3{filter:url(#Adobe_OpacityMaskFilter);}
	.st4{opacity:0.75;fill:url(#SVGID_2_);}
	.st5{mask:url(#SVGID_1_);}
	.st6{clip-path:url(#SVGID_4_);}
	.st7{clip-path:url(#SVGID_6_);}
	.st8{fill:#222222;stroke:#FFFFFF;stroke-width:20;stroke-miterlimit:10;}
	.st9{fill:#222222;}
	.st10{fill:#606060;}
	.st11{fill:#E9D08D;}
	.st12{fill:#B7CBCE;}
	.st13{filter:url(#Adobe_OpacityMaskFilter_1_);}
	.st14{opacity:0.75;fill:url(#SVGID_8_);}
	.st15{mask:url(#SVGID_7_);}
	.st16{clip-path:url(#SVGID_10_);}
	.st17{clip-path:url(#SVGID_12_);}
	.st18{filter:url(#Adobe_OpacityMaskFilter_2_);}
	.st19{opacity:0.75;fill:url(#SVGID_14_);}
	.st20{mask:url(#SVGID_13_);}
	.st21{clip-path:url(#SVGID_16_);}
	.st22{clip-path:url(#SVGID_18_);}
	.st23{fill:#399EBB;}
	.st24{filter:url(#Adobe_OpacityMaskFilter_3_);}
	.st25{opacity:0.75;fill:url(#SVGID_20_);}
	.st26{mask:url(#SVGID_19_);}
	.st27{clip-path:url(#SVGID_22_);}
	.st28{clip-path:url(#SVGID_24_);}
	.st29{filter:url(#Adobe_OpacityMaskFilter_4_);}
	.st30{opacity:0.75;fill:url(#SVGID_26_);}
	.st31{mask:url(#SVGID_25_);}
	.st32{clip-path:url(#SVGID_28_);}
	.st33{clip-path:url(#SVGID_30_);}
	.st34{filter:url(#Adobe_OpacityMaskFilter_5_);}
	.st35{opacity:0.75;fill:url(#SVGID_32_);}
	.st36{mask:url(#SVGID_31_);}
	.st37{clip-path:url(#SVGID_34_);}
	.st38{clip-path:url(#SVGID_36_);}
	.st39{filter:url(#Adobe_OpacityMaskFilter_6_);}
	.st40{opacity:0.75;fill:url(#SVGID_38_);}
	.st41{mask:url(#SVGID_37_);}
	.st42{clip-path:url(#SVGID_40_);}
	.st43{clip-path:url(#SVGID_42_);}
	.st44{stroke:#FFFFFF;stroke-width:17.7494;stroke-linecap:round;stroke-linejoin:round;stroke-miterlimit:10;}
	.st45{fill:#B6CACD;}
	.st46{fill:#CDDBDD;}
	.st47{fill:#0A4704;}
	.st48{fill:#81A053;}
	.st49{opacity:0.9765;}
	.st50{fill:#222222;stroke:#FFFFFF;stroke-width:20;stroke-linecap:round;stroke-linejoin:round;stroke-miterlimit:10;}
	.st51{stroke:#FFFFFF;stroke-width:20;stroke-miterlimit:10;}
	.st52{fill:#FFFFFF;stroke:#000000;stroke-width:5;stroke-miterlimit:10;}
	.st53{fill:none;stroke:#000000;stroke-width:6;stroke-linecap:round;stroke-miterlimit:10;stroke-dasharray:20.2316,20.2316;}
	.st54{fill:#F1E2B9;}
</style>
<circle class="st1" cx="410.3" cy="126.3" r="32.9"/>
<path class="st2" d="M63.9,93l235.5-5c0,0-29.9-76.8-125-65.8S66.8,72.4,63.9,93z"/>
<polygon class="st1" points="48.6,185.2 45.6,328.4 72.3,328.4 47.4,437.4 31.8,538.7 330.6,548.5 382.3,333.7 466.7,328.4 
	478.6,182.4 "/>
<path class="st0" d="M187,530c3.1-2,6-3.9,8.8-5.7c5.2-3.4,10.8-4.4,16.9-2.9c2.2,0.6,4.6,1.2,6.9,1.1c21.4-0.3,42.9-0.5,64.3-1.2
	c9.3-0.3,18.5-1.2,27.7,0.1c4.1,0.6,4.4,0,5.8-4.6c4.9-15.6,9.1-31.4,11.5-47.6c2.5-16.6,8.1-32.4,13.1-48.4
	c10.5-33.9,20.7-67.8,31.7-101.5c4.9-15,11.4-29.5,17.3-44.2c2.3-5.6,5.4-10.7,11-13.8c2.1-1.2,9.3-0.6,10.3,1.4
	c0.7,1.4,0.8,3.6,0.3,5.1c-1.4,3.7-3.2,7.3-4.9,10.9c-8.5,18.3-17,36.6-25.4,54.9c-1.3,2.8-2.5,5.6-1.7,8.9c0.3,1.3-0.3,2.9-0.8,4.2
	c-11.1,31.9-17.7,64.8-24.9,97.7c-3.1,14-5.8,28.1-8.6,42.2c-0.6,2.9-1.2,5.6-3.4,7.9c-1.1,1.2-1.6,3.2-2,4.9c-3,13.5-6,27-9,40.4
	c-0.2,0.9-0.4,1.8-0.7,2.6c-1.6,4.8-3,5.2-7.4,2.8c-2.3-1.2-5.1-2.1-7.7-2c-9.4,0.2-18.9,1.2-28.3,1.3c-15.1,0.2-30.2,0.7-45.2-0.2
	c-14.2-0.9-28.3-1-42.5-1.5c-23.1-0.7-46.1-2-69.1-2.7c-12.2-0.3-24.3,0.1-36.5,0.3c-6.7,0.1-13.4,0.5-20.2,0.5
	c-11.1,0.1-22.2,0-33.3,0c-1.6,0-3.3,0-4.9-0.2c-5.5-0.6-7.2-3.1-6-8.5c0.2-0.9,0.4-1.8,0.8-2.6c4.9-9.7,5.5-20.2,6.5-30.7
	c0.8-8.9,1.2-17.8,2.1-26.6c0.9-7.9,1.6-16,3.5-23.7c6.3-25.6,13.3-51,19.7-76.5c5.5-22,13.8-42.9,22.1-63.8
	c4.9-12.3,10.9-24.2,16.5-36.2c1.1-2.4,2.5-4.1,5.1-5.2c2.3-1,4.1-3.4,5.9-5.4c1.4-1.6,2.4-3.6,3.9-5.2c0.5-0.6,2-0.6,2.9-0.3
	c0.5,0.2,0.9,1.6,0.7,2.3c-0.4,1.5-1.2,3-2.2,5.1c2.3,0.7,4.3,1.3,6.2,1.9c2.3,0.7,3.8-0.1,5.1-2c1.4-1.9,2.9-3.7,4.6-5.3
	c0.5-0.4,2.1-0.1,2.8,0.4c0.4,0.3,0.1,1.6,0.1,2.4c0,0.3-0.4,0.6-0.6,0.9c-14.2,20.8-23.8,44.1-34.4,66.8
	c-12.7,27.3-22.1,55.7-29.8,84.7c-3,11.4-4.7,23.1-7.3,34.7c-0.9,4.2-2.4,8.4-3.9,12.4c-5.1,13.3-9.6,26.6-10.4,41
	c-0.3,5.7,2.7,9.5,5.2,13.8c0.4,0.8,1.8,1.2,2.8,1.4c1.4,0.3,2.9,0.3,4.3,0.3c9.9-0.4,19.6,0.5,29.2,2.7c2.4,0.5,4.4,0.5,6.6-1.3
	c1.3-1,3.9-1.3,5.5-0.7c12.1,4.2,24.6,4.2,37.2,4c11.3-0.2,22.5,0,33.8-0.5c5.4-0.2,9.3,0.8,10.4,6.7
	C185.5,528.5,186.1,528.9,187,530z"/>
<path class="st11" d="M463.2,55.2c0.4-0.3,0.8-0.6,1.2-0.9c-21.1-1.1-41.5,7.1-62.8,2.5c-7-2-12,5-18,3c-2,0-3-4-5-7
	c-0.4-0.7-0.9-1.1-1.4-1.2c0.1,1.5-0.3,2.8-1.1,4.2c-0.1-1.4-0.6-2.8-1-4.1c-0.2,0-0.4,0.1-0.5,0.1c-10.3,8.4-19.8,5.4-30.8,6.7
	c0.2,0.2,0.5,0.4,0.8,0.7c-0.9,0.5-1.4,1-2.1,1.1c-0.3,0-0.6-0.6-1-1c0.2-0.2,0.4-0.4,0.7-0.5c-0.2,0-0.4,0.1-0.6,0.1
	c-1.1,0-2.3,0.3-3.4,0.7c0,0.3-0.1,0.6-0.1,0.9c-0.2,3.6-0.6,7.2-0.5,10.8c0.1,6.5,1.2,7.4,7.8,7.3c15.6-0.3,31.2-0.9,46.8-0.8
	c18.3,0,36.7,0.6,55,0.7c3.2,0,6.5-0.6,9.8-0.8c2.9-0.2,4.7-1.7,5.5-4.4c0.9-3.3,1.9-6.6,2.9-9.9C466.2,60.2,466.9,57.2,463.2,55.2z
	"/>
<path class="st1" d="M342.3,58.7c0.3-0.2,0.6-0.5,0.9-0.6c0.1,0,0.4,0.1,0.7,0.4c11-1.2,20.5,1.7,30.8-6.7c0.2,0,0.3,0,0.5-0.1
	c-0.6-1.8-1-3.6,0.1-5.7c1.2,2.1,1.8,3.9,1.9,5.6c0.5,0.1,1.1,0.4,1.4,1.2c2,3,3,7,5,7c6,2,11-5,18-3c21.3,4.6,41.7-3.6,62.8-2.5
	c3.5-2.9,4.2-6.6,3.8-10.7c-0.2-1.6-0.6-3.2-0.9-4.8c-0.8-5.2-1.2-5.8-6.4-6.4c-4.9-0.5-9.8-0.7-14.7-0.9
	c-10.9-0.4-21.8-0.7-32.6-0.8c-1.9,0-4.2,0.5-5.5,1.7c-2.3,2.1-4.7,2.6-7.5,2.4c-12.9-0.7-25.7-1.6-38.6-2.3
	c-3.9-0.2-7.9,0.1-11.9,0.2c-1.8,0.1-3.6,0.5-5.4,0.5c-4.9,0.2-6.6,1.1-7.4,5.9c-1.1,6.2-2.5,12.5,0.6,18.6c0.2,0.5,0.2,1.1,0.1,1.7
	c1.2-0.4,2.3-0.7,3.4-0.7C341.9,58.7,342.1,58.7,342.3,58.7z M426.5,52.6c0,0.5,0.1,1,0.1,1.5c-2.9,0-5.7,0-9.8,0
	C420.6,51.6,423.6,52.6,426.5,52.6z"/>
<path class="st1" d="M283,150.7c-18.1-0.7-32.4,0.4-46.6,2.5c-5,0.7-5.9,0.2-8-4.3c-0.6-1.3-1.5-2.4-2.4-3.5c-2.5-3-2.9-4.8-0.4-7.6
	c2.8-3.1,2.8-6.4,2.2-10.2c-0.6-3.9,0.6-6,4.3-6.8c2.8-0.6,5.8-0.6,8.7-0.7c14.1-0.6,28.3-1.1,42.4-1.6c1.1,0,2.3-0.3,3.2,0.1
	c4.7,2.1,9.6,1.3,14.5,1.5c8.2,0.4,16.3,0.7,24.5,1.3c5.2,0.4,7.2,2.4,7.2,7.6c0,4.5-0.5,9.1-1,13.5c-0.4,3.1-2.5,5.2-5.7,5.8
	c-2.1,0.4-4.3,0.9-6.4,1C306.2,149.8,292.8,150.3,283,150.7z M283.2,138c1.8,0.9,2.7,1.7,3.6,1.7c9.8,0,19.6,0,29.4-0.2
	c0.8,0,1.5-1,2.5-1.7C313,135.1,291.2,135,283.2,138z"/>
<path class="st11" d="M258.2,375.7c2.7,2.9,5.1,5.3,7.6,8c-1,1.2-1.8,2.4-2.8,3.4c-12.6,12-25.3,23.9-37.9,36
	c-10.2,9.8-20.9,19.2-29.2,30.8c-0.8,1.2-1.9,2.3-3,3.1c-0.6,0.5-1.9,0.9-2.5,0.6c-2-1.1-4.1-2.4-5.6-4.1c-0.8-0.8-0.4-2.7-0.5-4.1
	c-0.3-2.5-0.5-5-0.8-7.6c-1-8.6-2-17.3-3-25.9c-0.2-1.4-0.3-2.9-0.5-4.3c-0.3-2.1-1.5-3.2-3.6-3.5c-2.5-0.4-5-0.7-7.5-1.2
	c-2.9-0.6-3.5-1.7-2.9-4.7c1.1-4.9,2.9-6,8-5.7c2.1,0.2,4.3-0.3,6.5-0.4c5-0.2,7.4,1.6,8.2,6.6c0.4,2.3,0.3,4.7,0.4,7.1
	c0.2,4,0.3,7.7,2.2,11.6c1.4,2.8,0.7,6.7,0.9,10.1c0.1,1.5,0,3.1,0,5.5c1.8-1.2,2.9-1.7,3.7-2.5c11.5-10.8,23.1-21.5,34.4-32.6
	c6.6-6.5,12.6-13.5,18.8-20.4C251.5,378.8,254.3,376.6,258.2,375.7z"/>
<path class="st11" d="M239.7,347.8c-3.9-0.8-4.5-1.3-4.1-4.8c1.1-12.2,5-23.4,12.7-33.1c2.4-3,5-5,9.1-5.2c2.5-0.1,5-1.2,7.5-1.3
	c5.8-0.4,8.8,1.8,10.4,7.3c2.1,7.3,4.8,14.4,4.4,22.3c-0.5,12.1-10.4,24.1-22.4,26.1c-5.5,0.9-10.4-1.3-14.7-4.5
	C241.1,353.5,240.9,350.7,239.7,347.8z M268.4,325.9c-0.8-3.3-1-6.3-2.2-8.8c-1.6-3.5-4.9-4.2-8.2-2.1c-1.2,0.8-2.3,1.8-3.2,2.9
	c-7.5,8.3-7.7,18-4.7,28c1.2,4,4.9,5.3,8.2,2.8c2.5-1.9,4.9-4.6,6-7.4C266.3,336.3,267.2,330.9,268.4,325.9z"/>
<path class="st11" d="M181.5,335.6c1.3-13,4.9-24.3,15.9-31.9c7.8-5.3,12.4-4.1,18.3,3.2c7.9,9.7,4.4,19.5,1.5,29.4
	c-1.2,4.1-3.6,7.9-5.4,11.9c-3.3,7-9.4,10.3-16.4,12.4c-3.4,1-6.7-0.5-8.7-4c-1.4-2.5-2.6-5.2-3.2-8
	C182.6,344.1,182.1,339.6,181.5,335.6z M211.5,321.6c-0.4-2.5-0.5-5.1-1.3-7.4c-1.3-3.9-4-4.9-7.7-3.1c-1.1,0.5-2.3,1.2-3.1,2.1
	c-6.1,6.5-8.1,14.4-7,23.1c0.1,1,0.6,2.1,1.2,3c3.8,6.8,8.7,7,12.8,0.5C209.8,334.4,210.9,328.1,211.5,321.6z"/>
<path class="st11" d="M146.8,355c-2.2-1.3-2.7,0.9-3.9,1.8c-0.7,0.6-2.1,1.1-2.8,0.8c-0.8-0.3-1.6-1.7-1.6-2.5
	c0.1-2.7,0.3-5.4,0.9-8.1c2.8-13.3,5.5-26.6,8.6-39.9c1.6-6.8,6.7-9.8,13.4-8.6c2,0.4,4,0.3,5.9,0.7c2.4,0.5,3.2,2.3,1.6,3.9
	c-8,7.9-9.9,18.3-12.5,28.5c-1.7,6.5-3.2,13-5,19.5C150.8,353.4,150.2,356,146.8,355z"/>
<path class="st11" d="M407.3,107.8c0.1-2,0.4-3.9,0.4-5.8c0-3.9,1.2-5.2,5.3-4.7c5.4,0.6,10,3,14.2,6.3c7.9,6.1,11.6,14.6,13.7,24
	c0.3,1.2,0.2,2.5,0.1,3.8c-0.2,2.3-1.7,3.5-3.9,3.8c-2.4,0.2-3.8-1-4.3-3.2c-2.8-13.2-11.2-20.6-24.2-23.1
	C408.1,108.6,407.8,108.1,407.3,107.8z"/>
<path class="st1" d="M76.2,125.1c1.4,0.1,2.8,0.3,4.3,0.4c3.2,0.3,4.8,2.3,5.6,5.1c1.2,4.2-1.6,10.7-5.4,12.7
	c-3.1,1.7-9,0.2-10.5-3.3c-2.5-5.8-3.5-12,0.3-17.7c1.2-1.7,3.6-2.8,5.6-3.8c0.8-0.4,2.2,0.6,3.3,1c-0.4,1.1-0.6,2.2-1.3,3.2
	c-0.4,0.6-1.4,0.9-2.2,1.3C76,124.4,76.1,124.8,76.2,125.1z"/>
<path class="st11" d="M123.9,125.4c0.5,0.1,2.2,0.2,3.7,0.7c1.4,0.5,2.7,2,1.6,3.4c-1.5,2-0.7,3.6-0.3,5.6c0.7,3.6,0,6.9-3.1,9.3
	c-3.8,2.9-7.7,1.3-11.3-0.3c-3.5-1.6-4-4.9-3.8-8.3C111,129.2,115.4,125.5,123.9,125.4z"/>
<path class="st1" d="M162.3,143.9c-4.5,0-7.7-3.3-7.7-8c0-4.7,4.4-9.4,8.7-9.3c4.3,0.1,8,4.1,8.1,8.7
	C171.4,140.4,167.6,144,162.3,143.9z"/>
<path class="st11" d="M95.4,45.3c3.4,2.8,4.8,6.8,5.9,10.8c0.2,0.6-0.7,1.6-1.3,2.1c-0.4,0.3-1.4,0.1-2-0.2
	c-2.1-1.3-4.7-9.2-3.9-11.7C94.1,46,94.6,45.8,95.4,45.3z"/>
<path class="st11" d="M188.8,22.4c3,1.1,2.5,3.1,2.4,4.8c-0.1,2.7-0.5,5.3-1,7.9c-0.1,0.6-1.3,1.2-2,1.3c-0.5,0.1-1.6-0.7-1.6-1.1
	c0-3.2,0.2-6.4,0.5-9.6C187.4,24.5,188.3,23.4,188.8,22.4z"/>
<path class="st11" d="M283.2,57.1c-0.1,0.3-0.1,1-0.5,1.3c-2.1,2-4.1,4.1-6.4,5.8c-0.7,0.5-2.2-0.1-3.4-0.2c0.2-1.1,0.1-2.6,0.7-3.3
	c1.9-1.9,4-3.6,6.2-5.2C281.5,54.5,283.2,55.3,283.2,57.1z"/>
<path d="M70.5,334.3c-2.7,0-4.7,0-6.6,0c-6.5-0.1-13.1,0-19.6-0.2c-3.5-0.1-4.1-0.9-4.2-4.3c-0.1-4.2,0-8.4,0.1-12.5
	c0.7-30.9,1.3-61.8,2-92.7c0.3-12.5,0.6-25.1,0.9-37.6c0.2-6.9,0.3-7.1,7.1-7.2c21.6-0.2,43.3-0.4,64.9-0.6
	c114.9-0.8,229.8-1.5,344.7-2.3c4.5,0,9.1-0.1,13.6,0c4.7,0.1,5.3,0.7,5.2,5.5c-0.5,15.6-1.2,31.2-1.8,46.9
	c-0.6,14.5-1.3,29.1-2,43.6c-0.8,17.8-1.6,35.6-2.4,53.4c-0.1,1.3-0.3,2.5-0.3,3.8c-0.1,3-1.7,4.2-4.5,4.2c-2.5,0-5.1,0.1-7.6,0.1
	c-22,0-44,0-66,0c-5.4,0-5.4,0-7.5,5c-8.3,20.6-13.7,42.1-18.5,63.8c-6.5,29.8-13,59.6-19.7,89.4c-3.1,13.6-6.8,27.1-10.1,40.7
	c-0.9,3.5-1.1,7.2-1.8,10.7c-0.8,4.2-1.6,4.7-5.9,4.6c-18-0.4-36-0.9-54-1.3c-7.1-0.2-14.2-0.1-21.3-0.2
	c-38.4-0.5-76.7-1.2-115.1-1.6c-26.5-0.3-53.1-0.3-79.6-0.5c-9.1-0.1-18.2-0.2-27.3-0.3c-6-0.1-7.6-1.6-6.9-7.6
	c1.4-10.4,3.3-20.8,4.6-31.3c3-24.9,7.4-49.6,12.6-74.1c6.5-30.8,15.4-60.9,24.8-90.9C69,338.9,69.6,337.2,70.5,334.3z M310.9,520
	c0.6-1.8,1.1-3.1,1.5-4.5c2.9-10.1,5.8-20.3,8.5-30.4c2.8-10.2,5.6-20.3,8-30.6c6.8-29,13.4-58.1,23.1-86.3
	c7.1-20.4,14.3-40.8,21.7-61.1c5-13.6,9.5-27.5,17.1-40c0.3-0.5,0.2-1.3,0.4-2.4c-2.2,0-4,0-5.8,0c-14.4,0.1-28.7,0.1-43.1,0.2
	c-67.3,0.2-134.5,0.5-201.8,0.4c-5.5,0-8.3,1.8-11.2,6.3c-11.6,18.2-19.9,38-28.6,57.5c-13.8,31-22.9,63.5-30.5,96.5
	c-5.7,25.1-11.4,50.3-17,75.5c-0.7,3.3-0.7,6.7-1.1,10.7c42.4,0.7,83.8,7.3,125.9,5.1c0.1-1.1,0.1-1.9,0.1-2.8
	c0.3-10.2,8.8-21.8,18.5-25.4c5.2-1.9,6.1-1.3,6.6,4.5c0,0.3,0.4,0.6,0.5,0.9c6.7,1,7.4,2.6,3.6,8.3c-1.8,2.7-3.5,5.5-5.1,8.4
	c-0.8,1.4-1.2,3.1-1.9,4.9C237.9,517.2,274.3,519.6,310.9,520z M473.2,182.3c-142,1-283,1.9-424.6,2.9c-1,48.1-2.1,95.6-3.1,143.2
	c9.5,0,18.1,0,26.8,0c3.2-8.2,6.1-16.2,9.5-24c3.3-7.7,7.1-15.3,10.8-23.4c-2.4,0-4,0-5.6,0c-1.6,0-3.3-0.1-4.9-0.2
	c-5.5-0.3-5.9-0.7-5.7-6.1c0.5-17.3,1.1-34.5,1.6-51.8c0.2-5.1,0.7-5.6,5.7-5.6c8.5,0,17.1,0.1,25.6,0.2c39.1,0.4,78.2,1.2,117.3,1
	c68.4-0.3,136.7-1.3,205.1-2c7.9-0.1,9.4,1.4,9.1,9.1c-0.4,12.2-0.7,24.3-1.1,36.5c-0.2,6.4-0.5,12.7-0.8,19.1
	c-0.2,3.6-1,4.4-4.7,4.6c-2,0.1-4,0-6,0c-6,0-11.9,0-18.5,0c-6,13.8-12.9,27.8-18.7,42.9c25.6,0,50.3,0,75.6,0
	C468.9,279.8,471,231.4,473.2,182.3z M179.8,522.7c-3.2,0-6.1,0-9,0c-13.6-0.2-27.2,0-40.8-0.6c-24.3-1-48.5-4.6-72.9-4.1
	c-8.3,0.1-11.5-3.5-10-11.6c2.4-13,5-26,8-38.9c6.3-26.9,12.4-53.8,19.6-80.4c11.3-41.8,28.1-81.3,50.4-118.5
	c0.4-0.7,0.5-1.5,0.9-2.8c-5.1,0-9.6,0.1-14.1-0.1c-2.9-0.1-4.6,1-6.1,3.5c-8.5,14.8-16.7,29.9-22.4,46c-6.4,18.1-12.3,36.5-18,54.9
	c-11.1,36-19.2,72.7-25.2,109.9c-2.7,16.5-4.8,33.1-7.2,49.6c-0.4,3-0.8,6-1.3,9.2c100,1.3,199.3,2.6,299,3.9
	c0.4-1.9,0.8-3.6,1.2-5.4c1.1-5.3,1.9-10.7,3.2-16c5.8-24.2,12.3-48.2,17.6-72.5c7.5-34.4,12.9-69.3,25.7-102.4
	c3-7.8,5.5-15.8,8.8-23.4c7-16.2,14.4-32.2,21.6-48.2c1.4-3,2.5-6.1,4.1-9.9c-4.3,0-7.5,0.1-10.8,0c-2.8-0.2-4.4,1-5.6,3.4
	c-3.4,7-7.2,13.9-10.1,21.1c-4.5,11.3-8.3,22.9-12.6,34.3c-12.5,33.9-24.6,68-32.8,103.3c-6.1,26.4-12.1,52.8-20.3,78.6
	c-1.7,5.5-2.3,11.3-3.7,16.9c-0.3,1.1-1.7,2.5-2.9,2.7c-3,0.6-6.1,0.8-9.2,0.7c-30-1.1-59.9-2.3-89.9-3.4
	c-5.6-0.2-11.2,0.3-17.2,0.5c-0.2,2.3-0.4,4-0.6,5.8c-0.5,5.3-1.9,6-6.9,3.3c-3.7,4.4-5.3,4.2-7.6-0.9
	C182,528.5,181.1,525.9,179.8,522.7z M196.9,495.6c-10.7,1.9-16.2,16.6-10.2,28.1c1.8-0.6,3.7-1.2,5-1.6c3.3-7.3,6.4-14.2,9.5-21.2
	C199.8,499.3,198.4,497.5,196.9,495.6z"/>
<path d="M180,92.8c-36.2,0-72.3,0-108.5,0c-2.5,0-5.1,0-7.6,0.2c-3.9,0.2-5-0.8-4.2-4.7c0.9-4.1,2-8.1,3.6-12
	c4.7-11.3,12.5-20.3,22-28c15.6-12.5,33.5-20.3,52.8-24.7c37-8.6,73.5-7.1,109.1,7c12.8,5,24.4,12,34.4,21.5
	c8.7,8.3,15.4,17.9,18.6,29.6c2.5,9.3,2.1,9.8-7.6,9.8c-37.6,0-75.2,0-112.8,0C180,92.1,180,92.4,180,92.8z M88.8,53
	c-11.2,9.4-19.5,19.8-23,33.9c35.5,0,70.5,0,105.1,0c3.1-3.6,3.4-6.8,0.9-10.3c-0.8-1.2-1.6-2.6-1.8-3.9c-0.3-2.1-0.6-4.5,0.2-6.3
	c2.7-6.1,5.9-12.1,8.9-18.1c1-2,2.7-3.6,5.1-3.4c2.5,0.2,2.9,2.6,3.4,4.4c1.7,5.6,2.9,11.3,5,16.7c1.8,4.7,1.6,8.8-1.7,12.6
	c-1.9,2.2-2.6,4.7-0.9,7.4c35,0,69.9,0,105.4,0c-2.5-12-8.6-20.9-16.6-28.9c-2,1.5-3.5,2.8-5.3,3.7c-0.7,0.4-2.4,0.1-2.9-0.5
	c-0.5-0.5-0.4-2.1,0.1-2.9c0.9-1.5,2.3-2.7,3.5-4c-7.5-7.9-25.9-17.9-38-20.6c-1.1,2.3-2.2,4.7-3.4,7.1c-0.8,1.5-1.9,3-3.8,2.2
	c-2.1-0.8-1.5-2.6-0.8-4.2c1-2.3,1.9-4.6,2.8-6.8c-10.6-4.3-35.9-8-42.8-6.3c-0.3,2.8-0.6,5.7-1,8.6c-0.2,1.2-0.3,2.6-1,3.6
	c-0.5,0.7-1.8,1.5-2.6,1.3c-0.7-0.2-1.5-1.4-1.7-2.3c-0.2-1.2,0.3-2.5,0.4-3.8c0.2-2.6,0.3-5.3,0.5-8.3c-17.2,0-33.4,2-49.4,6.8
	c0,2.9,0.1,5.2,0,7.6c-0.1,1.9-0.3,4-2.6,4.1c-2.6,0.1-2.4-2.2-2.4-4c-0.1-1.9-0.2-3.8-0.3-6.2c-12.9,4.3-24.3,9.5-34.7,17.2
	c1.1,2.8,2.3,5.3,3,7.9c0.3,1-0.4,2.3-0.6,3.5c-1.2-0.5-2.9-0.6-3.6-1.5C90.9,57.7,90.1,55.6,88.8,53z"/>
<path d="M422.1,79.7c-18.7,0.9-37.3,1.8-56,2.6c-7.6,0.4-15.2,0.9-22.8,0.9c-7.6,0-10.2-2.7-10.2-10.2c0-4.7,0.4-9.4,0.7-14.1
	c0.2-4.5,0.3-9.1,0.7-13.6c0.3-3.2,0.7-6.5,1.6-9.6c1.5-5,3.3-6.1,8.5-5.5c16.5,1.7,33.1,1.6,49.5,0.3c19.6-1.6,39.2-1.5,58.8-1.5
	c3.8,0,7.6,0.2,11.4,0.7c4.5,0.6,6.4,2.7,6.4,7.3c0.1,12-1.2,23.9-3.7,35.6c-1.4,6.7-4.5,9-11.7,8.9c-11.1-0.2-22.1-0.5-33.2-0.8
	C422.1,80.2,422.1,79.9,422.1,79.7z M338.7,65.4c-0.1,2-0.3,3.6-0.3,5.2c-0.1,6.7,0.3,7.3,7,7.1c12.2-0.5,24.3-1.4,36.4-1.8
	c16.1-0.5,32.3-0.6,48.4-0.7c8.5-0.1,17.1,0.4,25.6,0.4c3.8,0,4.9-0.8,5.7-4.4c0.9-3.8,1.4-7.8,2.1-12.2c-5.6-0.2-10.6-0.1-15.6-0.6
	c-15.3-1.4-30.5,0-45.7,0.6c-2.9,0.1-5.2,1-6.7,3.8c-2.2,3.9-7.6,2.9-10.2,6.3c-0.1,0.1-0.8,0-1-0.1c-1.7-1.2-2.7-0.2-4.1,0.9
	c-2.4,1.8-4.5,0.9-5.2-2.1c-0.4-1.7-0.4-3.6-0.6-5.4c-0.2-1.9-0.4-3.8-0.7-5.7c-1.2,0.7-1.6,1.5-2,2.3c-0.5,1-0.8,2-1.4,3
	c-2.1,3.7-4.2,4-7.3,1.2c-0.5-0.4-0.9-1-2-2.1c-0.7,1.1-1.1,2-1.7,2.6c-4.5,5-6.9,4.8-10.2-1c-0.4-0.8-0.9-1.5-1.4-2.3
	C343.4,65.6,343.4,65.6,338.7,65.4z M465.5,34.9c-30-1.2-58.9-0.4-87.1,2.1c0.5,6.4,1,12.5,1.5,18.1c2.3,0.2,4.3,0.5,6.3,0.4
	c3.5-0.2,7.2,1.8,10.7-1c1.1-0.9,3.1-0.9,4.7-1c10.3-0.4,20.7-1,31-1.1c8.5-0.1,17.1,0.4,25.6,0.7c1.9,0.1,3.9,0,6.4,0
	C464.8,47,465.1,41.4,465.5,34.9z M373.3,37.2c-9.8-0.5-19.2-1-28.6-1.5c-2.7-0.2-3.4,1.4-3.9,3.6c-1.1,5.8-0.1,11.4,1.8,17.5
	c1.1-1,1.7-1.6,2.3-2.1c3.3-2.8,5.2-2.5,7.4,1.1c0.8,1.3,1.4,2.8,2.4,4.6c1.9-2,3.3-3.9,5.1-5.4c2.5-2.1,4.7-0.1,7,1.4
	C368.9,50,371,43.8,373.3,37.2z"/>
<path d="M265.8,153.8c-9.8,0-19.6,0.1-29.4,0c-11.4-0.2-13.2-2.4-12.6-13.7c0.3-4.9,0.3-9.8,0.5-14.7c0.2-5.8,3.7-9.7,9.4-9.7
	c11.6,0,23.2,0.5,34.8,0.7c11.2,0.2,22.5,0.2,33.7,0.6c8.1,0.3,16.3,1,24.4,1.9c6,0.7,7.3,2.2,7.6,7.9c0.2,5.4,0.2,10.9-0.2,16.3
	c-0.5,6.2-2.8,8.3-9,8.6c-19.7,1-39.5,1.8-59.3,2.7C265.8,154.3,265.8,154,265.8,153.8z M265.7,148.4c0,0.2,0,0.4,0,0.6
	c19.4-0.9,38.8-1.8,58.2-2.7c3.8-0.2,4.5-0.6,4.8-4.4c0.3-3.8,0.4-7.6,0.3-11.4c0-5.6-0.1-6.1-5.5-6.5c-9.7-0.8-19.5-1.1-29.3-1.6
	c-10.7-0.5-21.4-0.9-32.1-1.2c-8.9-0.2-17.8-0.3-26.7-0.2c-3.5,0-5.8,1.6-5.9,4.3c-0.4,6.3-0.5,12.7-0.7,19
	c-0.1,2.2,1.1,3.4,3.2,3.6c2.2,0.2,4.3,0.4,6.5,0.4C247.5,148.4,256.6,148.4,265.7,148.4z"/>
<path d="M411,92.9c19.4,0,35.3,16,35.1,35.5c-0.2,19.3-16,34.9-35.2,34.8c-19.7-0.1-35.1-15.9-35.1-36.1
	C375.8,108.6,391.9,92.9,411,92.9z M439.6,119.2c-2.4,0.7-3.6,1-4.8,1.4c-1.7,0.5-3.5,0.5-4.2-1.4c-0.8-2.1,0.8-2.8,2.5-3.4
	c1.3-0.5,2.5-1.1,4.5-2.1c-3.5-3.8-6.5-7-9.9-10.8c-1.3,2.4-1.9,4.2-3,5.5c-0.6,0.8-2,1-3.1,1.5c-0.4-1.1-1.3-2.2-1.2-3.2
	c0.3-1.9,1.1-3.7,1.8-5.7c-3.3-1.9-6.5-2.4-10.3-2.2c-0.2,2.6-0.3,4.9-0.5,7.3c-0.1,1.6-0.4,3.1-2.3,3.1c-2.1,0.1-2.7-1.5-2.8-3.3
	c0-2.1,0-4.3,0-6.4c-12.9,0-24.5,13-25.1,28c-0.7,15.2,11.4,28.5,27.1,30c14.4,1.4,28.8-9,30.5-22.2c-1.2-0.1-2.5,0-3.7-0.4
	c-1-0.4-1.9-1.4-2.8-2.1c0.9-0.9,1.6-2.3,2.7-2.7c1.4-0.6,3.1-0.4,5.3-0.7C440.3,126.1,439.9,123,439.6,119.2z"/>
<path d="M117.3,147.3c-7.1-0.1-12.3-5.7-12.1-13.1c0.2-8,6.7-14.7,14.4-14.8c7-0.1,12.6,5.7,12.5,12.9
	C132,140.4,125.2,147.4,117.3,147.3z M126.4,132.5c0.1-4.1-2.5-7.2-6.3-7.4c-4.8-0.3-9.3,4.2-9.5,9.2c-0.1,4.2,2.9,7.5,6.9,7.5
	C122.1,141.8,126.3,137.3,126.4,132.5z"/>
<path d="M162,148.4c-7.1-0.1-12.3-5.7-12.1-13.1c0.2-8,6.7-14.7,14.4-14.7c7-0.1,12.6,5.7,12.5,12.9
	C176.7,141.6,169.9,148.5,162,148.4z M171.2,133.5c0.1-4.1-2.6-7.1-6.4-7.3c-4.8-0.2-9.3,4.3-9.3,9.4c0,4,2.7,7.1,6.5,7.3
	C166.5,143.2,171.1,138.5,171.2,133.5z"/>
<path d="M74.7,147.3c-7.1-0.1-12.3-5.7-12.1-13.2c0.2-8,6.8-14.6,14.5-14.7c7-0.1,12.6,5.8,12.5,12.9
	C89.4,140.5,82.6,147.4,74.7,147.3z M74.8,141.8c4.5,0.1,8.8-4.2,9.1-9.1c0.2-4.4-2.5-7.6-6.6-7.6c-4.6-0.1-8.9,4.2-9.1,9
	C67.9,138.4,70.8,141.7,74.8,141.8z"/>
<path d="M174.2,412.1c-3.3,0.2-6.5,0.3-9.6,0.6c-5.3,0.4-7-1.7-5.2-6.8c0.9-2.5,1.9-5.3,3.5-7.3c1.6-2,4-4,6.4-4.4
	c5.5-1,11.2-1.1,16.8-1.3c4.1-0.1,5.5,1.1,6.1,5.3c0.6,4.5,0.8,9,1.2,13.6c0.5,5.2,0.9,10.5,1.5,15.7c0.1,0.8,0.5,1.6,0.9,3.2
	c1.9-1.8,3.3-3.1,4.6-4.5c9.8-10.4,19.5-21,29.5-31.3c5.9-6.1,12.1-12,18.4-17.7c5-4.5,7.5-4.5,13.2-1.2c3,1.7,6,3.5,8.7,5.5
	c3.2,2.3,3.3,4.4,0.5,7.2c-1.5,1.5-3.3,2.9-5,4.2c-24.7,17.6-46.3,38.5-66.5,61c-2.7,3-5.4,5.9-8.2,8.8c-1.4,1.5-3.1,3.2-5.1,2
	c-1.3-0.8-2.3-2.7-2.6-4.3c-1.1-6.1-1.7-12.2-2.8-18.3C178.7,432.1,176.4,422.5,174.2,412.1z M188.8,456.2
	c12.5-12.8,24.2-25.7,36.9-37.5c12.7-11.8,26.4-22.4,39.9-33.9c-2.1-1.3-3.9-2.5-5.7-3.6c-4.6-2.6-5.1-2.8-9,0.9
	c-6.5,6.1-12.9,12.3-19.1,18.7c-10.9,11.2-21.5,22.7-32.3,34c-1.7,1.8-3.4,4.2-6.4,3.4c-3.3-1-3.1-4.3-3.4-6.9
	c-1-9.4-1.7-18.8-2.5-28.2c-0.1-1.6-0.4-3.1-0.6-4.7c-1.1-0.2-1.8-0.3-2.5-0.3c-3.3,0.1-6.5,0.1-9.8,0.4c-6.5,0.5-7.1,1.3-8.5,8.1
	c1.6,0,3.2,0,4.9,0c7.2-0.1,8.6,1.3,10,8.5C183.2,428.5,186,442,188.8,456.2z"/>
<path d="M233.5,340.1c0-12.5,2.5-21.4,8.2-29c2.8-3.7,6.3-7.1,10.2-9.5c9.6-5.9,20.4-2.8,26.2,6.9c3.2,5.3,4.3,11.2,4.2,17.2
	c-0.1,9.3-2.6,17.9-7.9,25.6c-2.9,4.2-6.5,7.8-11,10.3c-9.7,5.2-19.7,2.4-25.5-6.8C235,350.1,233.5,344.3,233.5,340.1z M276.8,325
	c-0.1-1.2,0-3.2-0.4-5.2c-1.3-6.7-3.8-12.9-10.9-15c-7.2-2.2-12.7,1.6-17.2,6.8c-7.9,9.2-10.7,20.1-8.7,32c0.6,3.4,2.3,6.9,4.3,9.8
	c3.5,5.1,9.3,6.8,14.9,4.1c3.5-1.7,6.8-4.2,9.4-7.2C274.2,343.5,276.8,335,276.8,325z"/>
<path d="M176.1,334.6c0.7-9.9,3.4-18.7,9.1-26.7c3-4.2,6.7-7.6,11.4-9.9c9-4.3,18.3-1.8,23.9,6.4c3.2,4.6,4.6,9.8,5,15.3
	c0.8,11.5-2.3,21.9-9.3,31c-1.7,2.1-3.6,4.1-5.8,5.7c-11.7,9.1-25.6,5.4-31-8.3C177.7,343.9,177.2,339.2,176.1,334.6z M182.3,335.1
	c-0.1,5.1,1,10.5,4.5,15.3c3.9,5.4,9.8,6.9,15.9,4.4c4.3-1.8,7.6-4.9,10.2-8.7c6.1-8.7,8.2-18.5,6.7-28.9c-0.4-2.5-1.2-5-2.3-7.2
	c-4.2-8.5-12.5-10.9-20.4-5.5c-2.9,2-5.5,4.7-7.6,7.6C184.5,318.6,182.3,326.2,182.3,335.1z"/>
<path d="M157.6,294.8c2.4,0,4.7-0.2,7.1,0.1c5,0.6,6.6,3.1,5.4,7.9c-0.4,1.8-1.1,3.5-1.6,5.2c-4.3,13.4-8.7,26.9-13,40.3
	c-0.7,2.2-1.3,4.5-2.1,6.7c-1.4,3.7-2.8,4.6-6.5,4.6c-3.4,0-6.9,0-10.3-0.1c-4,0-5.2-1.3-4.3-5.4c2.3-10.8,4.7-21.6,7.3-32.3
	c1.7-7,3.8-14,5.9-20.9c1.7-5.8,2.4-6.2,8.4-6.2c1.3,0,2.5,0,3.8,0C157.6,294.7,157.6,294.8,157.6,294.8z M150.8,300.3
	c-5.4,17.2-9,34.9-12.9,53.1c3.6,0,6.7,0,9.9,0c0.4-0.8,0.7-1.4,0.9-2.1c5-15.7,10.1-31.4,15.1-47.1c0.3-1.1,0.2-2.4,0.4-3.9
	C159.6,300.3,155.5,300.3,150.8,300.3z"/>
<path d="M296.3,347.9c-2.5,0.2-3.9-1.5-3.2-3.2c0.4-1.1,1.3-2.2,2.2-3.1c9.6-9.1,19.2-18.2,28.9-27.2c0.9-0.9,2-1.8,3.1-2.1
	c1-0.3,2.4,0.1,3.3,0.7c0.4,0.3-0.1,1.9-0.5,2.9c-0.1,0.4-0.8,0.7-1.2,1.1c-9.8,9.4-19.6,18.8-29.4,28.2
	C298.3,346.3,297.1,347.3,296.3,347.9z"/>
<path d="M306,306.7c4.2,0,7.2,2.9,7.1,6.6c-0.1,4.8-4.8,9.5-9.4,9.6c-4.2,0-6.9-2.9-6.7-7.4C297.1,310.2,300.8,306.7,306,306.7z
	 M307.7,313.3c-0.3-0.4-0.5-0.8-0.8-1.2c-1.3,0.3-3,0.1-3.7,0.9c-0.8,0.8-1.2,2.8-0.7,3.7c0.9,1.7,2.6,0.7,3.6-0.3
	C306.8,315.6,307.2,314.4,307.7,313.3z"/>
<path d="M320.5,336.1c4.8,0.1,8.2,3.1,7.9,7.1c-0.2,3.8-3.5,6.9-7.1,6.9c-4.2,0-7-3.1-6.9-7.4C314.7,338.3,316.7,336.1,320.5,336.1z
	 M323.6,342.8c-1.3-0.6-2-1.2-2.7-1.2c-0.4,0-1.3,1.2-1.2,1.4c0.4,0.7,1.1,1.5,1.7,1.6C321.9,344.6,322.5,343.7,323.6,342.8z"/>
<path d="M421.1,311.1c0.1,2.2-1.7,4.2-3.9,4.3c-1.9,0-3.7-1.6-3.9-3.6c-0.2-2.2,1.5-4.5,3.5-4.6C418.9,307.1,421,309,421.1,311.1z"
	/>
<path d="M434.6,311.1c0.1,2.1-1.3,3.9-3.3,4.2c-2.2,0.3-4.2-1.4-4.3-3.7c-0.2-2.3,1-3.8,3.2-4C432.6,307.3,434.4,308.8,434.6,311.1z
	"/>
<path d="M278.8,133.5c12.1,0,24.3,0,36.4,0c1.6,0,3.3,0,4.8,0.5c0.8,0.3,1.7,1.5,1.7,2.3c0,0.8-1,1.8-1.8,2.3
	c-0.9,0.5-2.1,0.5-3.2,0.4c-24.5-0.2-48.9-0.4-73.4-0.6c-1.8,0-3.7-0.2-5.4-0.7c-0.7-0.2-1.4-1.5-1.5-2.4c-0.1-0.6,0.9-1.6,1.6-1.8
	c1.4-0.3,2.9-0.3,4.3-0.3c12.1,0.3,24.3,0.7,36.4,1C278.8,134,278.8,133.7,278.8,133.5z"/>
<path d="M269.7,325.1c-0.6,6.1-1.9,11.9-5.3,17c-1.4,2.1-3.1,4.1-5.1,5.5c-4.6,3.3-9.8,1.9-12.2-3.3c-1-2.3-1.7-4.8-1.8-7.3
	c-0.3-6.8,1.3-13.3,5-19.1c1-1.7,2.4-3.2,3.9-4.4c5.4-4.5,11.3-3,13.8,3.7C269,319.7,269.1,322.5,269.7,325.1z M260.8,316.4
	c-7.9,3.8-12.8,18.2-9,25.3c1.3,2.4,2.9,2.6,5.3,0.7c5.3-4.3,8.4-17.4,5.5-23.7C262.3,317.9,261.6,317.3,260.8,316.4z"/>
<path d="M188.6,333.5c0.7-6.8,2.2-13.1,6.2-18.5c1.6-2.1,3.8-4,6-5.3c3.3-1.9,6.9-1,9.2,2.1c1.3,1.9,2.5,4.1,2.8,6.4
	c1.3,9-0.8,17.3-6.4,24.5c-1,1.3-2.3,2.4-3.6,3.2c-4.4,2.7-9.3,1.6-11.5-3.1C189.8,339.9,189.4,336.6,188.6,333.5z M194.5,333.7
	c0.1,0.9,0,2.4,0.5,3.7c0.5,1.4,1.5,3.7,2.5,3.8c1.5,0.1,3.6-0.9,4.5-2.1c4.7-6,6.7-12.8,5.2-20.4c-0.3-1.5-1.7-3.4-3-4
	c-0.9-0.4-3,1.1-3.9,2.3C196.5,321.6,194.7,327.1,194.5,333.7z"/>
</svg>
