<?xml version="1.0" encoding="utf-8"?>
<!-- Generator: Adobe Illustrator 22.0.1, SVG Export Plug-In . SVG Version: 6.00 Build 0)  -->
<svg version="1.1" id="圖層_1" xmlns="http://www.w3.org/2000/svg" xmlns:xlink="http://www.w3.org/1999/xlink" x="0px" y="0px"
	 viewBox="0 0 459 170.1" style="enable-background:new 0 0 459 170.1;" xml:space="preserve">
<style type="text/css">
	.st0{fill:#B7CBCE;enable-background:new    ;}
	.st1{fill:#FFFFFF;enable-background:new    ;}
	.st2{fill:#FFFFFF;}
	.st3{filter:url(#Adobe_OpacityMaskFilter);}
	.st4{opacity:0.75;fill:url(#SVGID_2_);}
	.st5{mask:url(#SVGID_1_);}
	.st6{clip-path:url(#SVGID_4_);}
	.st7{clip-path:url(#SVGID_6_);}
	.st8{fill:#222222;stroke:#FFFFFF;stroke-width:20;stroke-miterlimit:10;}
	.st9{fill:#222222;}
	.st10{fill:#606060;}
	.st11{fill:#E9D08D;}
	.st12{fill:#B7CBCE;}
	.st13{filter:url(#Adobe_OpacityMaskFilter_1_);}
	.st14{opacity:0.75;fill:url(#SVGID_8_);}
	.st15{mask:url(#SVGID_7_);}
	.st16{clip-path:url(#SVGID_10_);}
	.st17{clip-path:url(#SVGID_12_);}
	.st18{filter:url(#Adobe_OpacityMaskFilter_2_);}
	.st19{opacity:0.75;fill:url(#SVGID_14_);}
	.st20{mask:url(#SVGID_13_);}
	.st21{clip-path:url(#SVGID_16_);}
	.st22{clip-path:url(#SVGID_18_);}
	.st23{fill:#399EBB;}
	.st24{filter:url(#Adobe_OpacityMaskFilter_3_);}
	.st25{opacity:0.75;fill:url(#SVGID_20_);}
	.st26{mask:url(#SVGID_19_);}
	.st27{clip-path:url(#SVGID_22_);}
	.st28{clip-path:url(#SVGID_24_);}
	.st29{filter:url(#Adobe_OpacityMaskFilter_4_);}
	.st30{opacity:0.75;fill:url(#SVGID_26_);}
	.st31{mask:url(#SVGID_25_);}
	.st32{clip-path:url(#SVGID_28_);}
	.st33{clip-path:url(#SVGID_30_);}
	.st34{filter:url(#Adobe_OpacityMaskFilter_5_);}
	.st35{opacity:0.75;fill:url(#SVGID_32_);}
	.st36{mask:url(#SVGID_31_);}
	.st37{clip-path:url(#SVGID_34_);}
	.st38{clip-path:url(#SVGID_36_);}
	.st39{filter:url(#Adobe_OpacityMaskFilter_6_);}
	.st40{opacity:0.75;fill:url(#SVGID_38_);}
	.st41{mask:url(#SVGID_37_);}
	.st42{clip-path:url(#SVGID_40_);}
	.st43{clip-path:url(#SVGID_42_);}
	.st44{stroke:#FFFFFF;stroke-width:17.7494;stroke-linecap:round;stroke-linejoin:round;stroke-miterlimit:10;}
	.st45{fill:#B6CACD;}
	.st46{fill:#CDDBDD;}
	.st47{fill:#0A4704;}
	.st48{fill:#81A053;}
	.st49{opacity:0.9765;}
	.st50{fill:#222222;stroke:#FFFFFF;stroke-width:20;stroke-linecap:round;stroke-linejoin:round;stroke-miterlimit:10;}
	.st51{stroke:#FFFFFF;stroke-width:20;stroke-miterlimit:10;}
	.st52{fill:#FFFFFF;stroke:#000000;stroke-width:5;stroke-miterlimit:10;}
	.st53{fill:none;stroke:#000000;stroke-width:6;stroke-linecap:round;stroke-miterlimit:10;stroke-dasharray:20.2316,20.2316;}
	.st54{fill:#F4E8C8;}
</style>
<g>
	<g>
		<path class="st2" d="M422.4,167.6H41.6C21.5,167.6,5,151.1,5,131V39.1C5,19,21.5,2.5,41.6,2.5h380.8C442.5,2.5,459,19,459,39.1
			V131C459,151.1,442.5,167.6,422.4,167.6z"/>
		<path d="M422.4,170.1H41.6C20,170.1,2.5,152.6,2.5,131V39.1C2.5,17.5,20,0,41.6,0h380.8c21.6,0,39.1,17.5,39.1,39.1V131
			C461.5,152.6,444,170.1,422.4,170.1z M41.6,5C22.8,5,7.5,20.3,7.5,39.1V131c0,18.8,15.3,34.1,34.1,34.1h380.8
			c18.8,0,34.1-15.3,34.1-34.1V39.1c0-18.8-15.3-34.1-34.1-34.1H41.6z"/>
	</g>
	<g>
		<path class="st54" d="M404.1,147.9H57.7c-16.6,0-30.1-13.6-30.1-30.1V53c0-16.6,13.6-30.1,30.1-30.1h346.4
			c16.6,0,30.1,13.6,30.1,30.1v64.7C434.3,134.3,420.7,147.9,404.1,147.9z"/>
		<path d="M404.3,150.9h-20.4c-1.7,0-3-1.3-3-3s1.3-3,3-3h20.4c1.7,0,3,1.3,3,3S405.9,150.9,404.3,150.9z M363.7,150.9h-20.2
			c-1.7,0-3-1.3-3-3s1.3-3,3-3h20.2c1.7,0,3,1.3,3,3S365.3,150.9,363.7,150.9z M323.2,150.9H303c-1.7,0-3-1.3-3-3s1.3-3,3-3h20.2
			c1.7,0,3,1.3,3,3S324.9,150.9,323.2,150.9z M282.7,150.9h-20.2c-1.7,0-3-1.3-3-3s1.3-3,3-3h20.2c1.7,0,3,1.3,3,3
			S284.4,150.9,282.7,150.9z M242.3,150.9H222c-1.7,0-3-1.3-3-3s1.3-3,3-3h20.2c1.7,0,3,1.3,3,3S243.9,150.9,242.3,150.9z
			 M201.8,150.9h-20.2c-1.7,0-3-1.3-3-3s1.3-3,3-3h20.2c1.7,0,3,1.3,3,3S203.5,150.9,201.8,150.9z M161.4,150.9h-20.2
			c-1.7,0-3-1.3-3-3s1.3-3,3-3h20.2c1.7,0,3,1.3,3,3S163,150.9,161.4,150.9z M120.9,150.9h-20.2c-1.7,0-3-1.3-3-3s1.3-3,3-3h20.2
			c1.7,0,3,1.3,3,3S122.5,150.9,120.9,150.9z M80.4,150.9H60.2c-1.7,0-3-1.3-3-3s1.3-3,3-3h20.2c1.7,0,3,1.3,3,3
			S82.1,150.9,80.4,150.9z M41,145.8c-0.6,0-1.2-0.2-1.7-0.5c-6.2-4.2-10.9-10.3-13.2-17.4c-0.5-1.6,0.4-3.3,1.9-3.8
			c1.6-0.5,3.3,0.4,3.8,1.9c1.9,5.8,5.7,10.9,10.8,14.3c1.4,0.9,1.7,2.8,0.8,4.2C42.9,145.4,41.9,145.8,41,145.8z M423,144.3
			c-0.9,0-1.7-0.4-2.3-1.1c-1-1.3-0.8-3.2,0.5-4.2c4.8-3.8,8.2-9.2,9.5-15.1c0.4-1.6,2-2.6,3.6-2.3c1.6,0.4,2.6,2,2.3,3.6
			c-1.7,7.2-5.8,13.8-11.6,18.5C424.3,144,423.6,144.3,423,144.3z M27.5,109.9c-1.7,0-3-1.3-3-3V86.7c0-1.7,1.3-3,3-3s3,1.3,3,3
			v20.2C30.5,108.6,29.2,109.9,27.5,109.9z M434.3,107.3c-1.7,0-3-1.3-3-3V84.1c0-1.7,1.3-3,3-3s3,1.3,3,3v20.2
			C437.3,105.9,435.9,107.3,434.3,107.3z M27.5,69.5c-1.7,0-3-1.3-3-3V53c0-2.5,0.3-5,0.8-7.4c0.4-1.6,2-2.6,3.6-2.2
			c1.6,0.4,2.6,2,2.2,3.6c-0.5,2-0.7,4-0.7,6.1v13.4C30.5,68.1,29.2,69.5,27.5,69.5z M434.3,66.8c-1.7,0-3-1.3-3-3V53
			c0-2.9-0.4-5.7-1.3-8.4c-0.5-1.6,0.3-3.3,1.9-3.8c1.6-0.5,3.3,0.3,3.8,1.9c1.1,3.3,1.6,6.7,1.6,10.2v10.8
			C437.3,65.5,435.9,66.8,434.3,66.8z M38.9,32.5c-0.9,0-1.8-0.4-2.3-1.1c-1-1.3-0.8-3.2,0.5-4.2c5.8-4.7,13.1-7.2,20.6-7.3
			c0,0,0,0,0,0c1.7,0,3,1.3,3,3c0,1.7-1.3,3-3,3c-6.2,0-12,2.1-16.8,5.9C40.2,32.3,39.6,32.5,38.9,32.5z M420.8,30.9
			c-0.6,0-1.2-0.2-1.7-0.5c-4.5-3-9.6-4.5-15-4.5h-2.6c-1.7,0-3-1.3-3-3s1.3-3,3-3h2.6c6.5,0,12.9,1.9,18.3,5.6
			c1.4,0.9,1.8,2.8,0.8,4.2C422.7,30.5,421.8,30.9,420.8,30.9z M381.3,25.9h-20.2c-1.7,0-3-1.3-3-3s1.3-3,3-3h20.2c1.7,0,3,1.3,3,3
			S383,25.9,381.3,25.9z M340.9,25.9h-20.2c-1.7,0-3-1.3-3-3s1.3-3,3-3h20.2c1.7,0,3,1.3,3,3S342.5,25.9,340.9,25.9z M300.4,25.9
			h-20.2c-1.7,0-3-1.3-3-3s1.3-3,3-3h20.2c1.7,0,3,1.3,3,3S302.1,25.9,300.4,25.9z M259.9,25.9h-20.2c-1.7,0-3-1.3-3-3s1.3-3,3-3
			h20.2c1.7,0,3,1.3,3,3S261.6,25.9,259.9,25.9z M219.5,25.9h-20.2c-1.7,0-3-1.3-3-3s1.3-3,3-3h20.2c1.7,0,3,1.3,3,3
			S221.1,25.9,219.5,25.9z M179,25.9h-20.2c-1.7,0-3-1.3-3-3s1.3-3,3-3H179c1.7,0,3,1.3,3,3S180.7,25.9,179,25.9z M138.6,25.9h-20.2
			c-1.7,0-3-1.3-3-3s1.3-3,3-3h20.2c1.7,0,3,1.3,3,3S140.2,25.9,138.6,25.9z M98.1,25.9H77.9c-1.7,0-3-1.3-3-3s1.3-3,3-3h20.2
			c1.7,0,3,1.3,3,3S99.7,25.9,98.1,25.9z"/>
	</g>
	<g>
		<path d="M74.4,97.3c-0.2,3.8-0.7,7.3-1.5,10.3l-4.4-1.4c0.9-2.8,1.6-6,1.8-9.5L74.4,97.3z M78.5,83.2v-2.5h-8.4V61.2h21.4v19.6
			h-8.4v2.5H91v4.3h-7.7V90h8.9v4.8H69.6V90h9v-2.5h-7.8v-4.3H78.5z M78.9,65.2h-4.4v3.2l2.5-0.9c0.6,2.1,1.2,4.4,1.8,7.1L76,75.3
			c-0.4-2.1-0.9-4.2-1.5-6.1v7.5h4.4V65.2z M80.4,106.5l-4.4,0.6c-0.1-4-0.2-7.2-0.3-9.5l3.9-0.5C80,99.4,80.3,102.6,80.4,106.5z
			 M86.9,105.4l-4.3,1c-0.4-3.3-0.8-6.2-1.4-8.8l3.8-0.8C85.8,99.4,86.4,102.3,86.9,105.4z M87.3,65.2h-4.6v11.5h4.6V65.2z
			 M87.2,67.8c-0.3,2.6-0.8,5.1-1.5,7.6L83,74.5c0.6-2.3,1.1-4.8,1.4-7.4L87.2,67.8z M92.8,104.1l-3.9,1.5c-0.6-2.9-1.2-5.7-2-8.4
			l3.8-1.1C91.5,99,92.3,101.7,92.8,104.1z M106.2,59.9v9h10.2v4.9h-10.2v7.9h8.4v25.9h-5.1v-2.4H99.1v2.4H94V81.7h7V59.9H106.2z
			 M109.5,100.3V86.6H99.1v13.7H109.5z"/>
		<path d="M143.5,60.1v15.6h7.2V81h-7.2v16c2.7-0.7,5.2-1.5,7.6-2.2v5.4c-7.6,2.5-16.2,4.5-25.9,6.1l-0.7-5.5
			c1.2-0.2,2.3-0.4,3.5-0.5V69.8h5.3v29.4c1.7-0.4,3.2-0.7,4.8-1V60.1H143.5z M158.3,106.1c-3.9,0-5.9-2.2-5.9-6.5v-40h5.4v16.5
			l12.8-0.9v5.1l-12.8,0.9v17.2c0,1.7,0.7,2.5,2.1,2.5h4.9c0.7,0,1.2-0.5,1.6-1.4c0.4-1,0.6-4.1,0.7-9.2l5.1,1.7
			c-0.4,6.9-1.1,10.9-2.1,12.2c-0.9,1.2-2.3,1.9-4.3,1.9H158.3z"/>
		<path d="M194.4,72.1v4.2c-1.6,2.6-3.4,5.1-5.5,7.7h6.2v3.5c-0.8,3.8-1.7,6.9-2.8,9.4c0.3,0.2,0.5,0.5,0.8,0.7
			c1.6,1.5,3,2.6,4.3,3.2c1.4,0.6,3.4,0.9,6,1c2.6,0,5.6,0.1,8.9,0.1c4.2,0,9.6-0.2,16.2-0.4l-1.2,5.1H213c-3.3,0-6.6-0.1-9.8-0.2
			c-3.3-0.1-5.8-0.5-7.4-1.2c-2-0.8-3.8-2.1-5.5-3.9c-0.3-0.4-0.7-0.5-1.1-0.5c-0.9,0-2.5,2.2-4.8,6.8l-3.9-3.6
			c2.4-4.6,4.7-7.3,7-8.2c1-2.2,1.8-4.7,2.4-7.3h-7.4v-4.1c2.4-2.7,4.3-5.2,5.9-7.5h-7.3v-4.9H194.4z M193.8,67.1l-3.5,3.5
			c-1.8-2.3-4.3-4.7-7.6-7.4l3.6-3.5C189.2,62.2,191.7,64.7,193.8,67.1z M204.2,77c-0.2,9-2,16.3-5.5,21.7l-4.1-3.6
			c2.9-4.3,4.3-10.3,4.4-18.1V61.2H226v5h-21.8v5.5h21.3v3.8c-1.3,4.6-3.2,8.7-5.7,12.3c2.8,2.5,5.4,5.1,7.8,7.8l-3.6,4.3
			c-2.2-2.8-4.7-5.5-7.4-8c-3.1,3.4-6.8,6.3-11.2,8.8l-3.3-4.4c4.2-2.3,7.7-4.9,10.6-7.9c-2.5-2.2-5.2-4.2-8-6.2l3.2-3.8
			c2.9,1.9,5.6,3.9,8.1,6c1.8-2.5,3.2-5.3,4.3-8.2h-15.9V77z"/>
		<path d="M281.6,106.6h-5.2v-1.7H244v1.7h-5.2V62.4h42.9V106.6z M276.4,100.2v-33H244v33H276.4z M270.7,73.8v19.5h-21V73.8H270.7z
			 M265.7,78.4h-10.9v10.4h10.9V78.4z"/>
		<path d="M299.1,69.4l-4,1.8c-1-3-2-5.7-3.2-8l4.2-1.4C297.2,64.1,298.2,66.6,299.1,69.4z M304.6,59.9v12.2h2.5V59.9h4.9v12.2h6
			v5.1h-3.5l-1.6,5h4.6v4.7h-9v4.2h8v4.7h-8v4.8c3.5-0.3,6.6-0.7,9.2-1v4.8c-4.6,0.8-12.6,1.5-24,2.1l-0.8-5.1
			c3.7-0.1,7.1-0.3,10.2-0.4v-5.1h-8v-4.7h8v-4.2h-9.3v-4.7h4.7l-1.4-5h-4.4v-5.1h7V59.9H304.6z M307.9,82.2l1.7-5h-7.4l1.4,5H307.9
			z M319.7,62.7c-0.8,3.2-1.8,6-3.1,8.5l-4.2-1.6c1.1-2.1,2-4.8,2.8-8.2L319.7,62.7z M328.1,92l-4.6,2c-1.5-4.9-3.1-9.2-4.9-12.9
			l4.6-1.5C325.1,83.4,326.7,87.6,328.1,92z M330.4,69.7V59.6h5.3v10.1h4.2v5.2h-4.2V102c0,3.6-1.8,5.5-5.4,5.5h-6.5l-1.2-5.2
			c2.1,0.2,4.1,0.4,5.9,0.4c1.3,0,2-0.7,2-2.1V74.9h-11.1v-5.2H330.4z"/>
		<path d="M355.3,65.6c-0.7-1.6-1.4-3.2-2.2-4.7l5.2-1.4c0.9,2.2,1.7,4.3,2.2,6.1h6.4v5h-18.8v-5H355.3z M354.6,107.6h-5.2V88.3
			h16.3v18.5h-5.2v-2.1h-5.9V107.6z M365.2,73.4v4.7h-15.3v-4.7H365.2z M365.2,80.6v4.8h-15.3v-4.8H365.2z M360.5,93.3h-5.9v6.5h5.9
			V93.3z M378.3,74.2V68c-2.8,0.2-5.7,0.4-8.7,0.4l-1.6-4.8c9.1,0,16.9-1.2,23.3-3.5l2.6,4.5c-3,1.2-6.5,2.2-10.4,2.9v6.8h11.8v5.2
			h-11.8v6.8h9.2v21.3h-5.2v-2.2h-13v2.2h-5.3V86.2h9v-6.8h-10.9v-5.2H378.3z M387.6,100.3v-9.2h-13v9.2H387.6z"/>
	</g>
</g>
</svg>
