<?xml version="1.0" encoding="utf-8"?>
<!-- Generator: Adobe Illustrator 22.0.1, SVG Export Plug-In . SVG Version: 6.00 Build 0)  -->
<svg version="1.1" id="圖層_1" xmlns="http://www.w3.org/2000/svg" xmlns:xlink="http://www.w3.org/1999/xlink" x="0px" y="0px"
	 viewBox="0 0 80 80" style="enable-background:new 0 0 80 80;" xml:space="preserve">
<style type="text/css">
	.st0{fill:#ADB0AE;}
	.st1{clip-path:url(#SVGID_2_);}
	.st2{fill:#FFFFFF;}
	.st3{fill:#B5B5B6;}
	.st4{fill:#404040;}
	.st5{fill:#888888;}
	.st6{fill:#DCDDDD;}
	.st7{opacity:0.29;fill:#606060;}
	.st8{fill:none;stroke:#AFAFB0;stroke-miterlimit:10;}
	.st9{fill:#EFEFEF;stroke:#AFAFB0;stroke-miterlimit:10;}
	.st10{fill:#AFAFB0;stroke:#AFAFB0;stroke-miterlimit:10;}
	.st11{fill:#FFFFFF;stroke:#D1D1D2;stroke-width:5;stroke-miterlimit:10;}
	.st12{fill:#7AB852;}
	.st13{fill:#35A8BF;}
	.st14{fill:#976B41;}
	.st15{fill:#FFFFFF;stroke:#AFAFB0;stroke-width:0.5;stroke-miterlimit:10;}
	.st16{fill:#606060;}
	.st17{fill:#2364A4;}
	.st18{fill:none;stroke:#E4E4E5;stroke-width:0.7925;stroke-miterlimit:10;}
	.st19{clip-path:url(#SVGID_4_);}
	.st20{clip-path:url(#SVGID_6_);}
	.st21{clip-path:url(#SVGID_8_);}
	.st22{clip-path:url(#SVGID_10_);}
	.st23{fill:#4A4A4A;}
	.st24{clip-path:url(#SVGID_12_);}
	.st25{clip-path:url(#SVGID_14_);}
	.st26{clip-path:url(#SVGID_16_);}
	.st27{clip-path:url(#SVGID_18_);}
	.st28{clip-path:url(#SVGID_20_);}
	.st29{clip-path:url(#SVGID_22_);}
	.st30{opacity:0.39;}
	.st31{fill:#FFFFFF;stroke:#FFFFFF;stroke-width:5.2481;stroke-miterlimit:10;}
	.st32{fill:#FFFFFF;stroke:#FFFFFF;stroke-width:6.5602;stroke-miterlimit:10;}
	.st33{fill:#848B91;}
	.st34{clip-path:url(#SVGID_24_);}
	.st35{clip-path:url(#SVGID_26_);}
	.st36{clip-path:url(#SVGID_28_);}
	.st37{clip-path:url(#SVGID_30_);}
	.st38{clip-path:url(#SVGID_32_);}
	.st39{fill:#84A48C;}
	.st40{fill:#90C0E5;}
	.st41{fill:#C6AC9E;}
	.st42{fill:#E4E1E0;}
	.st43{stroke:#FFFFFF;stroke-width:5;stroke-linecap:round;stroke-linejoin:round;stroke-miterlimit:10;}
	.st44{fill:#B6CACD;}
	.st45{fill:#CDDBDD;}
	.st46{opacity:0.5;}
	.st47{fill:#666666;}
	.st48{fill:#F4F4F4;}
	.st49{fill:#B7CBCE;enable-background:new    ;}
	.st50{fill:#E9D08E;}
	.st51{fill:none;stroke:#000000;stroke-miterlimit:10;}
	.st52{fill:#DFDFDF;stroke:#000000;stroke-width:0.5;stroke-miterlimit:10;}
	.st53{stroke:#000000;stroke-width:0.5;stroke-miterlimit:10;}
	.st54{fill:#628E94;enable-background:new    ;}
	.st55{fill:#8CACB1;enable-background:new    ;}
	.st56{fill:#222222;}
	.st57{fill:none;stroke:#808080;stroke-width:3.098;stroke-linecap:round;stroke-linejoin:round;stroke-miterlimit:10;}
	.st58{fill:#1F2721;}
	.st59{fill:#2E313A;}
	.st60{fill:#F3F9F9;}
	.st61{fill:#141F2A;}
	.st62{fill:#17212C;}
	.st63{fill:#18222D;}
	.st64{fill:#E3EAEB;}
	.st65{fill:#DAE0E1;}
	.st66{fill:#FEFEFD;}
	.st67{fill:#FEFEFB;}
	.st68{fill:#0C0C0D;}
	.st69{opacity:0.25;fill:#606060;}
	.st70{enable-background:new    ;}
	.st71{fill:#628E94;}
	.st72{fill:#8CACB1;}
	.st73{fill:#B7CBCE;}
	.st74{fill:#F14900;}
	.st75{fill:none;stroke:#FFFFFF;stroke-miterlimit:10;}
	.st76{opacity:0.78;fill:#3E85A3;}
	.st77{opacity:0.78;fill:#3E8543;}
</style>
<g>
	<g>
		<path class="st43" d="M13,36.1c0,0.5,0,1.1,0,1.6c0,0.7,0.1,1.4,0.2,2.1c0.1,0.7,0.6,1,1.2,0.7c0.4-0.1,0.7-0.4,1.2-0.6
			c-0.2,2.8,1,5.1,1.9,7.5c0.8,2.2,2,4.2,3.5,5.9c1.6,1.8,3.3,3.4,5.6,4.3c0.7,0.3,1.9,1,3.8,1.5c0.2,0.1,0.3,0.2,0.2,0.4
			c-0.3,1.4-0.5,2.8-0.7,4.2c0,0.4-0.2,0.6-0.7,0.5c-0.6-0.1-1.2-0.1-1.9,0c-0.4,0-0.8,0.2-0.8,0.7c-0.1,0.5,0.3,0.7,0.7,0.8
			c1,0.3,2,0.3,3,0.1c0.7-0.1,0.9-0.4,0.9-1.2c0-0.7,0.2-1.3,0.4-1.9c0.2-0.9,0.6-1.8,0.8-2.7c0.1-0.5,0.3-0.6,0.8-0.6
			c1.6,0.1,3.2,0.2,4.7,0.2c2.3-0.1,4.6-0.1,6.9-0.2c0.5,0,0.7,0.2,0.8,0.6c0.3,1.3,0.6,2.6,0.8,3.9c0,0.2,0.1,0.5,0,0.7
			c-0.1,0.7,0.2,1.1,0.9,1.3c1,0.2,1.9,0.2,2.9,0.1c0.5-0.1,0.8-0.3,0.8-0.8c0-0.5-0.4-0.7-0.8-0.8c-0.6-0.1-1.3-0.1-1.9-0.1
			c-0.3,0-0.5-0.1-0.5-0.4c-0.1-1.4-0.2-2.9-0.4-4.3c0-0.3,0.1-0.4,0.3-0.4c4.5-1,8-3.5,10.7-7.2c1.7-2.3,2.9-4.8,3.5-7.6
			c0.2-1,0.2-1,1.2-1c0.6,0,1.1-0.1,1.7,0c0.5,0,0.9-0.1,1.1-0.6c0.6-1.3,1.5-2.6,2.1-3.9c0.4-1,0.9-1.9,1.5-2.7
			c0.6-0.9,0.4-1.5-0.7-1.8c-0.9-0.3-1-0.3-0.6-1.2c0.2-0.4,0.4-0.9,0.6-1.3c0.3-0.7,0.2-1.2-0.5-1.4c-0.5-0.2-0.4-0.4-0.3-0.7
			c0.3-0.7,0.7-1.5,1.1-2.1c0.4-0.6,0.3-0.9-0.3-1.2c-2.8-1.4-5.8-1.8-8.7-0.5c-0.3,0.2-0.5,0.1-0.7-0.2c-2-3-4.6-5.5-7.6-7.6
			c-0.9-0.6-2-0.8-2.9-1.3c-1.8-1-3.7-1.6-5.7-2c-3-0.5-6-0.6-9,0.1c-3.8,1-7.4,2.4-10.3,5.1c-3.1,2.8-5.7,6-7,10.1
			c-0.5,1.6-0.5,3.3-0.8,5c-0.1,0.4-0.2,0.4-0.5,0.3c-0.3-0.1-0.6-0.2-0.9-0.3C13.5,34.9,13,35.2,13,36.1z M61.7,26.6
			c0.6-0.2,1.3-0.2,1.9-0.2C63,26.4,62.3,26.5,61.7,26.6z M39.9,15.7c-0.4,0-0.9,0-1.3,0C39.1,15.7,39.5,15.7,39.9,15.7z M41.3,15.8
			c-0.4,0-0.9-0.1-1.3-0.1C40.4,15.7,40.8,15.7,41.3,15.8z M42.2,15.9c0.1,0,0.1,0,0.2,0c-0.2,0-0.4-0.1-0.6-0.1
			C41.9,15.9,42.1,15.9,42.2,15.9z"/>
		<g>
			<path class="st2" d="M13.6,36.8c0,1.5-0.3,4.2,0.7,3.2c2.2-2.1,2.2,3.8,2.5,4.8c3.1,8.7,10.8,14.6,21.6,14.6
				c17.3-0.1,19.1-9,23.4-16.1c0.5-0.8,1.5,0.3,1.9-0.5c0.9-2.2,4.3-4.9,4.4-7.4c0-0.6-2.1-0.7-1.8-1.5c1.1-3.2,2-4.8,0.8-7.2
				c-0.7-1.4-7.2,0.8-8.2-0.4c-4.4-5.3-11-10.3-19-10.6c-11.1-0.4-19.5,6-22.9,14.7c-0.5,1.2,0.2,6.3-2.7,5.6
				C13.4,35.8,13.6,35.9,13.6,36.8z"/>
			<g>
				<path class="st44" d="M44,39.8c0.1-1.2,0-2.5,0.3-3.7c0.2-0.6-0.2-1-0.8-1.2c-0.1,0-0.3-0.1-0.4-0.1c-0.7-0.3-1.3-0.1-1.5,0.6
					c-0.3,0.8-0.4,1.7-0.5,2.6c0,0.1,0,0.3,0,0.4c-0.2,1.1-0.3,1.2-1.3,1.3c-1.2,0.1-2.3,0.5-3.4,0.8c-0.2,0-0.3,0.2-0.5,0
					c-0.7-0.6-1.4-0.5-1.8,0.3c-0.2,0.5-0.4,1-0.9,1.4c-0.3,0.2-0.4,0.6-0.3,0.9c0.1,0.2,0,0.3-0.2,0.3c-2,0.2-3.9,0.4-5.9,0.5
					c-0.5,0-0.9-0.1-1.4-0.2c-1.6-0.3-3.3-0.5-5-0.4c-0.3,0-0.5,0.1-0.7,0.3c-0.3,0.2-0.4,0.4-0.8,0.4c-0.4,0-0.6-0.2-0.9-0.3
					c-0.3-0.2-0.7-0.2-1.1,0.1c-0.4,0.3-0.4,0.6-0.3,1c0.3,0.7,0.7,1.4,1,2.1c0.1,0.1,0.1,0.2,0.2,0.3c0.6,0.3,0.9,0.9,1.3,1.5
					c0.1,0.2,0.3,0.3,0.6,0.3c1.1-0.1,2.2-0.1,3.3-0.2c0.6,0,1.1,0,1.6,0.3c0.1,0,0.1,0,0.2,0c1.5,0.1,3,0.1,4.4-0.1
					c0.4,0,0.7,0,1.1-0.1c0.5-0.1,0.9-0.3,1-0.8c0.1-0.3,0.2-0.3,0.4-0.3c2,0,3.9,0,5.9-0.2c4.2-0.4,8.4-0.3,12.6-0.2
					c1.8,0.1,3.7-0.3,5.5-0.1c1,0.1,2,0.1,3-0.1c0.4-0.1,0.9-0.2,1.3-0.5c0.7-0.4,1.1-1,1-1.8c-0.1-0.5,0.2-1,0.2-1.5
					c0-0.5-0.1-0.9-0.6-1c-0.4-0.2-0.9-0.1-1.2,0.3c-0.3,0.4-0.9,0.3-1.4,0.3c-1.5,0-3,0-4.6,0.1c-2,0.1-4,0.3-6.1,0.4
					c-0.5,0-1,0.2-1.3-0.6c-0.2-0.4-0.8-0.4-1.3-0.4c-1,0-1,0-0.9-1c0-0.3,0-0.7,0-1C44,40.5,44,40.1,44,39.8z"/>
				<path class="st45" d="M39.9,42.9c-0.1-0.1-0.3-0.1-0.4-0.1C39.6,43,39.7,42.9,39.9,42.9z"/>
				<path d="M14.4,40.5c-0.6,0.2-1.1-0.1-1.2-0.7c-0.1-0.7-0.1-1.4-0.2-2.1c0-0.5-0.1-1.1,0-1.6c0-0.9,0.5-1.2,1.3-1
					c0.3,0.1,0.6,0.2,0.9,0.3c0.3,0.1,0.4,0.1,0.5-0.3c0.3-1.6,0.3-3.3,0.8-5c1.3-4.1,3.9-7.3,7-10.1c2.9-2.7,6.5-4.1,10.3-5.1
					c3-0.8,6-0.7,9-0.1c2,0.3,3.9,1,5.7,2c0.9,0.5,2,0.7,2.9,1.3c3,2.1,5.5,4.6,7.6,7.6c0.2,0.3,0.4,0.4,0.7,0.2
					c3-1.3,5.9-0.9,8.7,0.5c0.6,0.3,0.7,0.6,0.3,1.2c-0.4,0.7-0.8,1.4-1.1,2.1c-0.2,0.4-0.2,0.5,0.3,0.7c0.7,0.3,0.8,0.8,0.5,1.4
					c-0.2,0.4-0.4,0.8-0.6,1.3c-0.3,0.9-0.3,0.9,0.6,1.2c1,0.3,1.3,0.9,0.7,1.8c-0.6,0.9-1.1,1.8-1.5,2.7c-0.6,1.4-1.4,2.6-2.1,3.9
					c-0.2,0.5-0.6,0.6-1.1,0.6c-0.6,0-1.1,0-1.7,0c-1,0.1-1,0.1-1.2,1c-0.6,2.8-1.8,5.3-3.5,7.6c-2.7,3.7-6.2,6.2-10.7,7.2
					c-0.2,0.1-0.4,0.1-0.3,0.4c0.2,1.4,0.4,2.9,0.4,4.3c0,0.4,0.2,0.4,0.5,0.4c0.6,0,1.3,0,1.9,0.1c0.4,0.1,0.8,0.2,0.8,0.8
					c0,0.5-0.4,0.8-0.8,0.8c-1,0.2-1.9,0.2-2.9-0.1c-0.7-0.2-0.9-0.5-0.9-1.3c0-0.2,0-0.5,0-0.7c-0.2-1.3-0.5-2.6-0.8-3.9
					c-0.1-0.5-0.3-0.6-0.8-0.6c-2.3,0.1-4.6,0.1-6.9,0.2c-1.6,0.1-3.2,0-4.7-0.2c-0.5,0-0.7,0.1-0.8,0.6c-0.2,0.9-0.5,1.8-0.8,2.7
					C31.2,63.4,31,64,31,64.7c0,0.7-0.2,1-0.9,1.2c-1,0.2-2,0.1-3-0.1c-0.4-0.1-0.7-0.4-0.7-0.8c0.1-0.5,0.4-0.6,0.8-0.7
					c0.6-0.1,1.3-0.1,1.9,0c0.5,0,0.6-0.1,0.7-0.5c0.1-1.4,0.4-2.8,0.7-4.2c0.1-0.2,0-0.4-0.2-0.4c-1.9-0.5-3.1-1.2-3.8-1.5
					c-2.2-0.9-4-2.5-5.6-4.3c-1.5-1.7-2.7-3.7-3.5-5.9c-0.9-2.4-2.1-4.8-1.9-7.5C15.1,40.1,14.8,40.4,14.4,40.5z M22,31.7
					c1-0.1,1.8,0.2,1.8,1.4c0,1.4,0.2,2.8,0.1,4.3c0,0.6,0.1,0.9,0.7,1.1c1,0.4,1,0.4,1-0.7c0-0.4,0-0.8-0.3-1.2
					c-0.5-0.7-0.2-1.7,0.5-2.1c0.7-0.4,1.6-0.1,2.1,0.6c0.4,0.7,0.1,1.5-0.7,1.6c-0.5,0.1-0.5,0.3-0.5,0.7c0,0.2,0,0.5,0,0.7
					c-0.1,0.8-0.1,1.4,0.9,1.6c0.4,0.1,0.5,0.5,0.5,0.9c0,0.6,0.1,1.3,0,1.9c-0.1,0.3,0,0.5,0.4,0.5c1.3-0.1,2.7-0.1,4-0.1
					c0.2,0,0.4-0.1,0.3-0.3c0-0.2,0-0.4,0-0.6c0.1-1.1,0.7-1.8,1.9-2c1.6-0.3,3.2-0.4,4.8-0.3c0.3,0,0.5,0,0.6-0.4
					c0.2-0.7,0.2-0.7-0.5-0.7c-0.9,0-1.9,0-2.8,0.1c-0.4,0.1-0.9,0-1-0.6c-0.1-0.5,0.2-0.7,0.8-0.9c1-0.2,1.9,0,2.9,0
					c0.9,0,0.9,0,1.2-0.9c0.2-0.7,0.5-1.3,0.9-1.9c0.4-0.5,1-0.8,1.7-0.7c0.7,0.1,0.9,0.7,1.1,1.3c0.3,0.9,0.3,1.9,0.3,2.8
					c0,1.5,0.2,3,0,4.4c0,0.2,0.1,0.3,0.3,0.3c0.9,0,1.8,0,2.7,0c0.1,0,0.3,0,0.3-0.2c-0.3-2.3,0.2-4.3,1.5-6.2
					c1-1.5,2.3-2.8,3.9-3.8c0.3-0.2,0.5-0.4,0.6-0.8c0.2-0.8,0.7-1.5,1.2-2.1c0.7-0.9,1.5-1.7,2.5-2.3c0.3-0.2,0.3-0.4,0.1-0.7
					c-1.6-2.8-3.9-5-6.6-6.8c-2.8-1.8-5.7-3.2-9-3.7c-2-0.3-4-0.3-6.1,0c-1.5,0.2-3,0.6-4.4,1c-1.8,0.5-3.3,1.6-4.9,2.5
					c-2.9,1.6-5,4.1-6.9,6.7c-1.3,1.8-2,3.8-2.5,6.1C18.9,31.7,20.5,31.9,22,31.7z M56.7,48.4c-2,0.2-4-0.1-6-0.1
					c-1.7,0-3.5,0.3-5.2,0.3c-3.6,0.1-7.2,0.3-10.8,0.5c-4.7,0.2-9.3,0.3-14,0.4c-0.2,0-0.4-0.1-0.5,0.1c-0.1,0.2,0.1,0.3,0.2,0.5
					c1.6,2.2,3.3,4.3,5.6,5.9c1.2,0.8,2.6,1.1,3.9,1.5c1.8,0.6,3.6,0.8,5.4,0.8c3.4,0.1,6.8-0.1,10.2-0.3c2.9-0.2,5.5-1.3,7.9-3
					c2-1.4,3.4-3.2,4.6-5.2c0.3-0.5,0.5-0.9,0.9-1.5C58.1,48.3,57.4,48.4,56.7,48.4z M17.3,42.9c0.1,0.4,0.2,0.5,0.6,0.4
					c2.8-0.1,5.5-0.2,8.3-0.2c0.4,0,0.6-0.2,0.6-0.5c0.1-0.5,0.1-1,0-1.5c0-0.3-0.1-0.4-0.4-0.5c-1.2-0.5-2.5-1-3.6-1.6
					c-0.3-0.1-0.5-0.1-0.8-0.1c-0.6,0-0.8-0.3-0.8-0.8c-0.1-1.5-0.2-3.1-0.2-4.6c0-0.4-0.1-0.5-0.5-0.5c-1.1,0-2.1,0.2-3.2,0.3
					c-0.3,0-0.2,0.3-0.3,0.4c0,0.7-0.1,1.5-0.1,2.2C16.7,38.3,17,40.6,17.3,42.9z M62.7,42.1c0.1,0,0.2,0,0.2,0
					c0.8,0.1,1.1-0.3,1.4-0.9c0.8-1.9,1.7-3.7,2.6-5.5c0.2-0.4,0.2-0.5-0.3-0.6c-1.6-0.1-3.2,0.1-4.6,0.9c-1.5,0.8-2.8,1.9-3.7,3.4
					c-0.4,0.5-0.8,0.8-1.4,0.8c-1.6,0.1-3.2,0.3-4.7,1c-0.6,0.3-1.2,0.6-1.7,1.1c-0.1,0.1-0.3,0.2-0.2,0.4c0.1,0.2,0.3,0.1,0.4,0.1
					c0.3,0,0.5,0,0.8,0C55.1,42.5,58.9,42.4,62.7,42.1z M50.8,37.7c1.3-1.5,2.8-2.4,4.8-2.8c0.3-0.1,0.5-0.2,0.7-0.5
					c1.9-2.9,4.6-4.5,8.1-4.6c0.3,0,0.5-0.1,0.6-0.3c0.4-0.8,0.8-1.5,1.3-2.2c0.3-0.3,0-0.4-0.2-0.4c-2.2-0.8-4.3-0.6-6.3,0.4
					c-1.4,0.7-2.6,1.6-3.6,2.8c-0.6,0.7-1.1,1.5-1.4,2.5c-0.1,0.4-0.4,0.6-0.7,0.8c-2,1.3-3.6,2.9-4.6,5c-0.1,0.3-0.2,0.6-0.3,0.9
					c0,0.1-0.1,0.2-0.1,0.3C49.8,38.9,50.3,38.3,50.8,37.7z M56.5,38.9c0.3,0,0.6-0.1,0.8-0.4c1.9-2.5,4.3-4.4,7.6-4.7
					c0.2,0,0.3-0.1,0.4-0.3c0.2-0.6,0.3-1.2,0.5-1.8c0.2-0.5,0-0.6-0.4-0.6c-2.5-0.1-4.8,0.5-6.7,2.4c-0.6,0.6-1.1,1.2-1.5,1.9
					c-0.3,0.4-0.6,0.7-1.1,0.8c-2.8,0.4-4.5,2.3-6,4.5c0,0.1-0.1,0.2-0.1,0.3C52,39.5,54.2,39.1,56.5,38.9z M41.3,39.3
					c0,0.2-0.1,0.5-0.2,0.7c-0.2,0.6-0.6,0.8-1.2,0.8c-1.6-0.1-3.2-0.1-4.8,0.2c-0.8,0.1-1.1,0.4-1.2,1.2c-0.1,0.4,0.1,0.6,0.5,0.6
					c1.8-0.1,3.6-0.2,5.4-0.2c0.9,0,1.9,0,2.8,0c0.7,0,0.9-0.1,0.9-0.8c0-0.9,0-1.9,0-2.8c0-0.2-0.1-0.3-0.3-0.4
					c-0.3,0-0.6-0.1-0.9-0.1C41.6,38.4,41.4,38.6,41.3,39.3z M55,46.8c0,0.3,0.1,0.4,0.4,0.4c1.3-0.1,2.6-0.2,3.8-0.3
					c0.2,0,0.3-0.2,0.4-0.3c0.4-0.9,0.7-1.9,0.9-2.8c0.1-0.3,0-0.5-0.4-0.4c-1.6,0.1-3.1,0.3-4.7,0.3c-0.3,0-0.4,0.2-0.4,0.4
					c0,0.4,0,0.9,0,1.3c0,0,0,0,0,0C55,45.9,55,46.4,55,46.8z M37.2,44.4c0-0.3-0.1-0.4-0.4-0.4c-1.2,0.1-2.5,0.1-3.7,0.1
					c-0.3,0-0.3,0.1-0.3,0.4c0,1,0.1,2,0.1,3c0,0.4,0.1,0.5,0.5,0.4c1.1-0.1,2.2-0.2,3.3-0.2c0.5,0,0.6-0.1,0.6-0.6
					c0-0.2,0-0.4,0-0.6c0,0,0,0,0,0C37.2,45.8,37.2,45.1,37.2,44.4z M42.7,44.3c0-0.3-0.1-0.4-0.5-0.4c-1.1,0-2.3,0-3.5,0.1
					c-0.3,0-0.5,0.1-0.4,0.5c0.1,0.9,0.1,1.9,0.1,2.8c0,0.4,0.2,0.5,0.5,0.5c1-0.1,2.1-0.2,3.1-0.2c0.6,0,0.8-0.2,0.7-0.7
					C42.7,45.9,42.7,45.1,42.7,44.3z M48.3,44.3c0-0.4-0.1-0.4-0.4-0.4c-1.2,0-2.4,0-3.6,0c-0.3,0-0.4,0.1-0.4,0.4
					c0,0.9,0.1,1.9,0.1,2.8c0,0.3,0.1,0.4,0.4,0.4c1.2,0,2.4-0.1,3.7-0.3c0.3,0,0.3-0.1,0.3-0.4c0-0.3,0-0.5,0-0.8c0,0,0,0,0,0
					C48.3,45.5,48.2,44.9,48.3,44.3z M22.1,44.8c0-0.3-0.1-0.4-0.4-0.4c-1.2,0-2.5,0.1-3.7,0.1c-0.2,0-0.3,0.1-0.2,0.3
					c0.4,1.2,1,2.4,1.6,3.5c0.1,0.2,0.2,0.2,0.4,0.2c0.7,0,1.4-0.1,2.2-0.1c0.3,0,0.4-0.1,0.4-0.4C22.2,46.9,22.2,45.8,22.1,44.8z
					 M53.3,47.1c0.3,0,0.5-0.1,0.5-0.4c0-0.8,0-1.7,0.1-2.5c0-0.4-0.1-0.4-0.4-0.4c-1.2,0-2.3,0.1-3.5,0.1c-0.4,0-0.5,0.1-0.5,0.5
					c0,0.8,0.1,1.6,0.1,2.4c0,0.3,0.2,0.4,0.4,0.4c0.6,0,1.1,0,1.6,0C52.2,47.1,52.7,47.1,53.3,47.1z M31.4,48.1
					c0.3,0,0.4-0.1,0.4-0.5c0-1-0.1-2-0.1-3c0-0.3-0.1-0.5-0.4-0.4c-0.9,0-1.9,0.1-2.8,0.1c-0.3,0-0.4,0.2-0.4,0.5c0,1,0,2,0.1,3
					c0,0.3,0.1,0.3,0.3,0.3c0.3,0,0.5,0,0.8,0c0,0,0,0,0,0C30,48.1,30.7,48.1,31.4,48.1z M26.7,48.2c0.2,0,0.3-0.1,0.3-0.4
					c0-1-0.1-2-0.1-3c0-0.3-0.1-0.5-0.4-0.5c-0.9,0-1.8,0-2.8,0c-0.4,0-0.5,0.1-0.5,0.5c0.1,0.9,0.1,1.8,0.2,2.6c0.1,1,0,0.8,1,0.8
					C25.1,48.2,25.9,48.2,26.7,48.2z M14.3,38.8c0,0.1,0,0.3,0.1,0.2c0.4-0.1,0.6-0.4,1.1-0.4c0.2,0,0.1-0.3,0.1-0.4
					c0-0.2,0-0.3,0-0.5c0-1.1,0-1.1-1-1.4c-0.4-0.1-0.4-0.1-0.4,0.4C14.2,37.4,14.3,38.1,14.3,38.8z M43.4,36.4
					c0-0.4-0.1-0.7-0.2-1.1c-0.1-0.3-0.3-0.4-0.5-0.1c-0.5,0.5-0.7,1.1-0.8,1.8c0,0.2,0,0.3,0.2,0.3c0.2,0,0.4,0,0.5,0
					C43.6,37.3,43.5,37.3,43.4,36.4z M22.6,34.3c0-0.4,0-0.7,0-1.1c0-0.2-0.1-0.3-0.2-0.3c-0.1,0-0.2,0.1-0.2,0.2
					c0.1,1.4,0.1,2.8,0.3,4.3c0,0,0.1,0.1,0.1,0.1c0,0,0.1,0,0.1,0C22.6,36.5,22.6,35.4,22.6,34.3z"/>
			</g>
		</g>
	</g>
	<path d="M33.9,37.8c-0.9,0.2-2.6-0.3-2.9-1.3c-0.1-0.4,0-0.9,0.4-1.1c0.4-0.2,0.7,0.1,1,0.3c1.6,1,2.5-1.1,4.1-1.2c0,0,0,0,0.1,0
		c0,0,0-0.1,0-0.1c-0.2,0-0.5-0.1-0.7-0.3c-0.9-0.9-1.3-2.3-0.9-3.5c0.1-0.4,0.2-0.7,0.4-1c0.9-1.2,2.1-1.4,2.2-1.4
		c2.4-0.7,4.3,1.8,3.7,4.2c-0.2,0.8-0.9,1.6-1.6,1.9c0.2,1.6,0.5,3.3,0.4,4.8c-0.1,1.9-1.9,1.5-3.3,1.5c-0.3,0-0.7-0.1-1-0.2
		c-0.1,0.2-0.3,0.4-0.6,0.3c-0.3-0.1-0.6-0.2-1-0.3c-0.4-0.1-0.6-0.3-0.8,0.1c-0.4,0.6-0.6,1.4-0.6,2.1c0,0.4-0.4,0.5-0.7,0.4
		c-0.2,0.3-0.9,0.2-0.9-0.3c0.1-1.7,1.6-4.5,3.6-4c0,0,0,0,0,0c0.2-0.7,0.7-1.4,1-2.2c0,0,0-0.1,0.1-0.1c-0.1,0.1-0.2,0.2-0.3,0.2
		C35.2,37.1,34.6,37.6,33.9,37.8z"/>
	<path class="st2" d="M36.1,30.4c0.5,0,1.1,0,1.6,0c0.4,0,1,0,1.3,0.3c0.6,0.7-0.1,1.5-0.8,1.7c-0.4,0.2-1.4,0.3-1.8,0
		c-0.1,0-0.1,0-0.2,0C35.7,32.3,35.6,30.4,36.1,30.4z"/>
</g>
</svg>
