<svg id="圖層_1" data-name="圖層 1" xmlns="http://www.w3.org/2000/svg" viewBox="0 0 800 400"><defs><style>.cls-1{opacity:0.5;}.cls-2{fill:#b5b5b6;}.cls-3{font-size:28.4px;fill:#666;font-family:PingFangTC-Semibold-B5pc-H, PingFang TC;font-weight:700;}</style></defs><title>UI</title><g class="cls-1"><path class="cls-2" d="M22.87,213.92c36.37.33,68.87-17.23,101.62-30.68,16-6.58,32.81-12.63,50.18-14.34a103.43,103.43,0,0,1,43.9,5.31c55.26,18.83,92.52,70.25,148,88.76,30.47,10.17,62.19,4.27,90.5-9.81,15.86-7.89,30.23-18.33,44.17-29.19,14.88-11.6,29.1-24.43,45.14-34.43,14.37-9,30.48-15.41,47.59-15.75,14.72-.29,29,3.8,42.47,9.57,31,13.35,59.05,34.34,92,43.22,40,10.77,81.23,1.56,121.81,1.95,30.44.3,65.39,7.11,87,30.31a65.12,65.12,0,0,1,11.95,18.49c2.71,6.19,11.77.84,9.08-5.3-13-29.67-43.89-45-74.27-50.72-38.36-7.27-76.88.81-115.47,0-20.73-.45-40.2-4.42-59.15-12.86-15.35-6.84-30-15.1-44.82-22.95-27-14.28-55.81-26.71-86.95-20.33-37.1,7.6-64.31,37.32-93.73,58.89-26.88,19.71-59.66,36.91-94.05,33.42-28-2.84-52.92-19.41-75.21-35.41-24.15-17.33-47.29-36.69-74.08-49.93C227.84,165.84,214.39,161,200.34,159c-16.77-2.37-33.59-.54-49.86,4-34.83,9.62-66,29.71-101.34,37.62a115.53,115.53,0,0,1-26.27,2.83c-6.77-.06-6.77,10.45,0,10.52Z"/><circle class="cls-2" cx="231.49" cy="174.05" r="19.74"/><circle class="cls-2" cx="586.67" cy="168.4" r="19.74"/><text class="cls-3" transform="translate(128.56 242.09)">Hengchun</text><text class="cls-3" transform="translate(508.33 127.58)">Kinmen</text></g></svg>