<svg id="圖層_1" data-name="圖層 1" xmlns="http://www.w3.org/2000/svg" viewBox="0 0 800 400"><defs><style>.cls-1{opacity:0.5;}.cls-2{fill:#b5b5b6;}.cls-3{font-size:28.4px;fill:#666;font-family:PingFangTC-Semibold-B5pc-H, PingFang TC;font-weight:700;}</style></defs><title>UI</title><g class="cls-1"><path class="cls-2" d="M-4.78,199.91c26.63,17.16,55.16,34,86.55,40.54,14.81,3.07,30.13,3.62,44.94.23s27.88-10.81,39.72-20.06,22.52-20.28,34.25-29.89a158.6,158.6,0,0,1,35.94-21.95,170.9,170.9,0,0,1,83.23-14,147,147,0,0,1,40.94,9.45c6.76,2.64,13.4,5.73,18.95,10.49s10.23,10.4,14.79,16.08c18.53,23.13,39.72,43.23,66.05,57.3,50.95,27.21,116.89,28.3,163.9-8.08,23.36-18.07,35.25-48.19,62-62,22.68-11.75,51.79-12.33,74.87-1.33a73.07,73.07,0,0,1,16,10.31c5.12,4.37,12.6-3,7.44-7.44-20-17.07-46.94-23.7-72.81-20.22a91.71,91.71,0,0,0-36.17,12.64c-12.55,7.8-21.81,19-30.71,30.62-9.41,12.24-19,23.92-31.86,32.72a125.94,125.94,0,0,1-38.62,17.6c-28.41,7.64-58.37,5.91-86-3.82-28.31-10-53.52-27.91-73.61-50.05-9.76-10.75-17.66-23.48-29-32.72-11-8.95-25.21-14-38.79-17.47-55.3-14.25-116,1.49-158.85,38.64-11.28,9.77-21.76,20.6-34,29.17-12.72,8.89-27.11,14.72-42.69,15.73C79.25,234.44,48.14,219.45,21,203.48,14,199.42,7.26,195.17.53,190.83c-5.71-3.68-11,5.42-5.31,9.08Z"/><circle class="cls-2" cx="170.21" cy="208.91" r="19.74"/><circle class="cls-2" cx="487.38" cy="254.69" r="19.74"/><text class="cls-3" transform="translate(153.88 276.45)">Changhua</text><text class="cls-3" transform="translate(451.72 212.61)">Yunlin</text></g></svg>