<?xml version="1.0" encoding="utf-8"?>
<!-- Generator: Adobe Illustrator 18.0.0, SVG Export Plug-In . SVG Version: 6.00 Build 0)  -->
<!DOCTYPE svg PUBLIC "-//W3C//DTD SVG 1.1//EN" "http://www.w3.org/Graphics/SVG/1.1/DTD/svg11.dtd">
<svg version="1.1" id="_xFFFD__x9C__x96_撅_xFFFD__7_xA0_影像_1_"
	 xmlns="http://www.w3.org/2000/svg" xmlns:xlink="http://www.w3.org/1999/xlink" x="0px" y="0px" viewBox="0 0 849.1 240"
	 enable-background="new 0 0 849.1 240" xml:space="preserve">
<g>
	<path fill="#222222" d="M516.5,106.7c0,14.4,0,28.7,0,43.1c0,6.9-0.8,13.6-3.9,19.9c-1.3,2.7-2.9,5-5.6,6.5
		c-4.7,2.6-9.5,0.5-10.6-4.5c-0.1-0.7-0.4-1.7,0.3-2c2.7-1.1,2.3-3.7,2.7-5.7c0.9-4.4,1.1-8.8,1.1-13.3c0.1-13.2,0.2-26.3,0.4-39.5
		c0-1.9-0.4-2.3-2.3-1.9c-5.5,1.4-11.1,1.7-16.8,1.6c-1.9,0-3.8-0.3-5.7-0.8c-6.3-1.6-8.5-4.1-9.1-10.6c-0.9-9.3,0.6-18.5,1.6-27.7
		c0.5-5.1,1.2-10.1,2.4-15.1c1.5-5.9,3.4-7.2,9.4-6.6c1,0.1,1.5-0.4,2.1-0.9c6.1-5.4,13.5-6.9,21.3-6.9c6.5,0,10.9,3.7,12.5,10.1
		c1.8,7.3,1.8,14.8,1.5,22.2c-0.3,10.7-0.8,21.4-1.2,32.1C516.6,106.7,516.6,106.7,516.5,106.7z M502,83.9c0.5-2.4-0.2-2.9-2.2-2.3
		c-4.1,1.2-8.3,2.1-12.6,2.1c-1.9,0-2.3,0.7-2.3,2.4c0,2.8-0.1,5.6-0.4,8.4c-0.2,2,0.5,2.3,2.3,1.9c4.1-1,8.4-1.7,12.7-1.4
		c1.8,0.1,2.2-0.7,2.2-2.2C501.6,89.7,501.8,86.6,502,83.9z M502.8,62.3c-0.4-7.4,0.9-7.6-7.8-5.3c-0.3,0.1-0.5,0.2-0.8,0.3
		c-5,2.1-8,5.9-9,11.2c-0.3,1.6,0.1,2.5,2,1.6c3.4-1.5,7.1-2.3,10.8-2.6C502.8,67,502.8,67,502.8,62.3z"/>
	<path fill="#222222" d="M221.8,160.6c-4.6,6.8-9.8,13.1-15.3,19.2c-4.6,5.1-9.5,9.8-15,13.8c-2,1.4-4.1,2.7-6.6,3
		c-4.7,0.6-7.7-2.9-6.4-7.5c0.8-2.9,2.7-5.1,4.8-7.2c10.1-10.2,20.3-20.3,30.4-30.5c0.6-0.6,1.5-1.1,1.8-2.2c-1.9,0-3.6,0.7-5.2,1.1
		c-5.6,1.5-11.2,3.1-16.8,4.5c-4.3,1.1-6.6,0.3-7.7-2.1c-1-2.3,0.1-4.4,3.5-6.9c5.7-4.2,12.2-6.8,18.8-9.1c4.3-1.5,8.6-2.8,13-4
		c1.9-0.5,2.6-1.4,2.7-3.4c0.2-4.2,0.4-8.4,1.3-12.5c0.2-1.1,0.5-2.1,1.2-3c1-1.4,2.4-1.9,4.1-1.5c1.6,0.4,2.1,1.6,2.2,3.1
		c0.3,3.9,0.7,7.8,0.9,11.7c0.1,2,0.7,2.4,2.7,2c8.9-1.7,17.9-3.2,27-3.1c1.7,0,3.5,0.1,5.1,0.7c2.2,0.8,3.8,2.2,4.1,4.7
		c0.3,2.4-0.8,4.2-2.7,5.6c-1.6,1.2-3.4,1.7-5.3,2.2c-7.6,2.2-15.5,3-23.3,4.3c-1.1,0.2-2.3,0.4-3.6,0.7c0.8,1.3,2,1.6,3,2.2
		c10.1,6.5,20,13.3,29.6,20.5c3,2.2,5.9,4.6,8,7.8c2.8,4.2,3.1,8.6,0.7,11.4c-2,2.4-6.6,2.7-11,0.8c-3.3-1.4-6.1-3.7-8.8-5.9
		c-7.2-5.9-14.4-11.9-21.6-17.9c-0.7-0.6-1.2-1.4-2.3-1.4c-0.7,1-0.4,2.1-0.4,3.2c-0.1,9.2-0.4,18.4-2.4,27.4
		c-0.5,2.3-1.1,4.6-2.4,6.6c-1.9,3.1-5,4.5-7.8,3.6c-2.4-0.8-3.7-3.4-3.3-7.1c0.8-7.1,1.9-14.2,2.8-21.4c0.5-4.4,0.6-8.8,1-13.2
		C222.3,160.7,222,160.7,221.8,160.6z"/>
	<path fill="#222222" d="M386.5,131.3c-0.1-20.3,0-39.2,2.9-58c0.4-2.5,0.9-5,1.9-7.4c1.4-3.4,3.4-4.6,7-4.2
		c1.2,0.2,1.8-0.2,2.4-1.2c3.4-5,8.2-8.2,13.9-9.9c7.3-2.2,13.4,0.4,16.9,7.1c2.7,5.2,3.6,10.9,3.9,16.6c0.7,11.3,0.4,22.5-2.8,33.5
		c-1.3,4.3-3.6,7.1-7.9,9.5c-6,3.4-12,5.7-18.8,6.7c-1.9,0.3-1.3,1.7-1.3,2.7c0.5,11,0.9,22,1.4,32.9c0.2,3.8,0.1,7.6-0.2,11.4
		c-0.3,2.6-0.9,5-1.9,7.4c-1.2,2.9-3.2,4.9-6.5,5c-3.3,0.1-5.4-1.7-6.8-4.5c-1.8-3.6-2.6-7.5-2.8-11.6
		C386.8,154.9,386.7,142.4,386.5,131.3z M420,70.7c-0.1-2.4-0.1-4.7-0.5-6.9c-0.5-3.4-1.3-3.8-4.6-2.8c-8.2,2.7-13.2,11.2-11.5,19.3
		c0.3,1.3,0.9,1.1,1.7,0.8c2.5-0.9,5.1-1.4,7.6-2.1c2.2-0.6,5.3,0.8,6.4-1.5C420.3,75.6,419.9,72.9,420,70.7z M404.1,102.6
		c0,2.4,0.1,4.7,0,7.1c-0.1,1.7,0.3,2.5,2.3,2c2.8-0.6,5.7-1.1,8.6-1.3c2-0.2,2.4-0.9,2.2-2.7c-0.3-3.7-0.2-7.4,0.1-11.2
		c0.2-1.9,1.4-4.4,0.2-5.5c-1.4-1.3-3.7,0.5-5.5,1c-2.7,0.7-6.4,0-7.9,2.1C402.6,96.2,404.1,99.7,404.1,102.6z"/>
	<path fill="#222222" d="M577.8,63.4c-4.9,11.4-11.3,21.2-18.7,30.4c-3.2,4-6.7,7.7-10.7,10.9c-1.6,1.3-3.4,2.5-5.6,2.5
		c-3.7,0-6.1-2.9-5.4-6.5c0.4-1.7,1.3-3.2,2.1-4.7c3.4-5.8,7.5-11.2,11.5-16.6c0.6-0.8,1.1-1.6,1.9-2.8c-1.9-0.2-3.4-0.3-5-0.6
		c-2.9-0.6-4.5-2.3-4.4-4.7c0-2.3,1.7-4.1,4.6-4.6c3.1-0.5,6.2-0.4,9.2,0.4c1,0.2,2,0.6,2.7-0.6c2.1-3.4,4.2-6.8,6.5-10.6
		c-2.6,0.3-4,1.6-5.5,2.5c-3.2,1.9-5.2,1.9-6.9,0.1c-1.8-2-1.7-5.1,0.5-7.7c2-2.5,4.7-3.9,7.6-5.2c2.8-1.2,5.6-2,8.6-2.5
		c5.7-0.9,9.8,2.5,10,8.3c0.1,2.8-0.8,5.3-1.4,8.2c12.5-5.1,24-1.3,35.3,3.6c2.1,0.9,2.9,1.1,3.4-1.7c0.9-5.2,3.5-9.9,6.8-14.1
		c0.7-0.8,1.6-1.5,2.5-2c2-1,4.1-1.1,5.8,0.5c1.8,1.6,1.9,3.7,0.7,5.7c-2.8,4.8-5.9,9.4-9.7,13.5c-1.4,1.5-1.5,2.1,0.4,3
		c1.7,0.8,3.3,1.8,5.2,2.8c0.7-7.3,4.5-12.8,8.9-18c2.6-3.1,5-3.9,7-2.7c2.1,1.2,2.8,4,1.4,7.6c-2.5,6.3-5.7,12.2-11.9,16
		c0.4,1.1,1.4,1.3,2.2,1.8c7.2,4.6,14.1,9.6,20.5,15.4c1.8,1.7,3.6,3.4,4.9,5.5c1.8,3,1.8,6-0.1,8.1c-1.9,2.1-4.8,2.5-8,0.8
		c-3-1.6-5.6-3.7-8.3-5.7c-12.1-9.3-25.1-17-38.5-24.2c-7.2-3.8-14.7-6.8-22.8-7.8C582.3,67.2,579.5,66.8,577.8,63.4z"/>
	<path fill="#222222" d="M451.5,174.1c0.2-3.5,0.3-7.1,0.6-10.6c0.1-1.6-0.4-1.8-2-1.7c-4.7,0.4-7.4,2.2-8.5,7.2
		c-1.1,5.2-3.8,9.8-7.2,13.9c-1.5,1.8-3.1,3.3-5.6,2.2c-2.4-1.1-2.5-3.3-2.1-5.6c0.6-3.9,1.6-7.6,2.9-11.3c1-2.9,1-2.9-2-2.6
		c-1.5,0.1-3.1,0.2-4.6,0.1c-1.7-0.1-3.3-0.7-3.7-2.6c-0.4-1.9,0.5-3.2,1.9-4.2c3.3-2.2,6.9-3.6,10.6-4.9c2.1-0.7,3.2-1.8,3.6-3.9
		c0.6-3,1.4-6,2.2-9c0.4-1.5-0.2-1.9-1.6-1.8c-2.9,0.2-5.8,0.3-8.7-0.6c-2-0.6-3.8-1.6-3.8-4c0-2.3,1.6-3.4,3.5-4
		c12-3.8,24.1-7.7,36.6-9.7c2.4-0.4,4.7-0.3,7,0.4c2.4,0.7,4.2,2.1,4.7,4.7c0.5,2.6-0.6,4.6-2.6,6.2c-2.6,2.1-5.7,2.9-8.8,3.4
		c-1.8,0.3-2.4,0.8-1.4,2.5c0.9,1.6,0.2,4.2,1.7,4.9c1.4,0.6,3.5-0.5,5.2-0.6c1.6-0.2,3.3-0.2,4.9-0.1c2.4,0.2,4.1,1.3,5,3.6
		c0.9,2.4,0.1,4.5-1.7,6.2c-2.8,2.6-6.2,4.1-9.9,5c-2.5,0.6-3.2,1.8-3.2,4.3c0.2,7.8,0.4,15.6-1.1,23.4c-0.3,1.7-0.7,3.4-1.6,4.9
		c-1.1,1.9-2.8,3.1-5.1,3c-2.4-0.2-3.8-1.7-4.6-3.7c-1-2.6-0.9-5.3-1-8.1c0-2.3,0-4.5,0-6.8C451.4,174.1,451.4,174.1,451.5,174.1z
		 M446.7,144.8C446.7,144.8,446.7,144.8,446.7,144.8c-0.1,0.7,0,1.5-0.1,2.2c-0.2,1.7,0.6,1.7,1.9,1.4c4.5-1.2,4.5-1.2,5.1-5.9
		c0.2-1.3,0.5-2.7,0.8-4c0.1-0.5,0.4-1.3-0.5-1.2c-2.5,0.3-5.2,0.3-7.4,1.3c-1.3,0.6,0.2,2.8,0,4.3
		C446.6,143.5,446.7,144.1,446.7,144.8z"/>
	<path fill="#222222" d="M750.1,92.7c0.2-10,1-19.9,4.2-29.5c1.8-5.3,4.2-10.2,7.9-14.5c2.2-2.5,4.7-4.6,8.1-5.2
		c3-0.5,5.6,0.5,7.3,3.1c1.6,2.5,1.4,5-0.3,7.4c-2.9,4.1-4.5,8.7-5.6,13.5c-0.4,1.7,0,2.1,1.7,1.6c10.9-3.4,19.3,3.4,20.7,15.3
		c1,7.9-1,15.3-4.9,22.2c-0.7,1.2-1.3,2,0.3,3c1.3,0.9,1,2.2,0.1,3.4c-1.3,1.6-2.9,2.7-4.8,3.5c-7.6,3.2-15.5,5-23.7,5.8
		c-1.5,0.1-3.1,0.1-4.5-0.8c-0.4-0.3-1-0.7-1.1-1.2c-1-5.7-5.7-10.3-5.4-16.5C750.2,100.2,750.1,96.4,750.1,92.7z M783,95.9
		c0.1-0.7-0.3-1.2-1.7-0.6c-3.6,1.6-7.4,2.6-11.2,3.5c-1.5,0.4-2.1,1.2-2.1,2.6c0,2.8-0.3,5.6-1,8.4c-0.4,1.7,0.4,1.6,1.6,1.2
		c3.7-1.2,7.4-2.4,11.3-2.9c0.9-0.1,1.5-0.5,1.6-1.5C781.9,103.2,782.4,99.9,783,95.9z M769,86.9c-0.3,1.7,0.1,2.6,2.6,1.7
		c3.3-1.2,6.7-2,10.3-2.5c0.6-0.1,1.3,0,1.6-0.7c1.2-2.4-1.9-8.2-4.7-8.4c-3-0.3-5.8,0.6-8.2,2.2c-1.8,1.2-0.9,3.3-1.3,5
		C769.1,85,769.1,85.7,769,86.9z"/>
	<path fill="#222222" d="M97.2,120.2c-2.9,0.6-5.4,1.6-8,1.8c-1.8,0.1-3.6,0.1-5.3-0.8c-3.3-1.8-3.8-5.9-1.1-8.5
		c0.6-0.5,1.3-1,2-1.4c11.3-5.3,22.4-10.9,34.4-14.3c3.2-0.9,6.3-1.7,9.6-0.8c2.9,0.8,3.5,2.3,1.7,4.7c-1.5,2.1-3.5,3.6-5.8,4.9
		c-3.9,2.3-7.8,4.6-11.8,6.8c-1.1,0.6-2,1.2-2.4,2.5c-1,3.2-2,6.4-3,9.6c-0.6,1.9,0,2,1.6,1.6c3-0.8,6-1.2,9.2-1.3
		c9.4-0.3,15.3,5.3,15.6,14.7c0.1,4.5-1,8.9-2.9,12.9c-5.3,11.6-13.4,20.6-24.1,27.4c-2.4,1.5-5.1,2.5-8,2.3
		c-4.9-0.3-7.3-3.8-5.7-8.5c0.8-2.5,2.5-4.4,4.3-6.2c5.3-5,10.6-10,15.3-15.6c2.8-3.3,5.3-6.7,6.8-10.8c0.3-0.9,0.9-2,0.3-2.9
		c-0.7-0.9-1.9-0.3-2.8,0c-3.2,0.9-6.4,1.9-9.6,3c-2.1,0.7-4.2,1.3-6.4,1.4c-6.2,0.3-10-4.4-8.3-10.3
		C94.1,128.5,95.7,124.6,97.2,120.2z"/>
	<path fill="#222222" d="M220.9,77.7c-2.4,0.6-4.2,1.1-6.1,1.5c-3.1,0.6-5.2-0.4-6.2-2.7c-0.9-2.2-0.1-4.7,2.4-6.4
		c4.1-2.8,8.8-4.4,13.5-5.5c2.3-0.6,3.5-1.8,4.2-4c1.5-4.5,2.8-9,3.5-13.7c0.6-3.8,1.9-5.6,4-5.3c3.1,0.4,2.8,3.2,3.2,5.3
		c0.9,4.2,0.4,8.3-0.4,12.5c-0.3,1.7,0.1,2.1,1.8,1.9c3.1-0.5,6.3-0.9,9.5-0.6c7,0.6,11,5.4,10.1,12.4c-0.4,3.2-1.4,6.2-2.3,9.3
		c-1,3.5-2,7-2.8,10.5c-0.9,3.7-0.5,4.1,3.4,3.8c3.3-0.2,6.5-0.8,9.7-1.1c1.5-0.2,2.9-0.2,4.3,0.1c4.1,1,5.9,5.1,3.8,8.7
		c-0.4,0.8-1.1,1.5-1.7,2.1c-6.7,6-20.7,7.1-28.2,2.2c-4-2.6-6.1-6.4-6.3-11.2c-0.2-4.2,0.8-8.1,1.9-12.1c0.8-2.8,1.8-5.5,2.7-8.3
		c1.8-5.1,1.8-4.9-3.5-4.5c-4.4,0.3-6.9,1.8-8.4,6.3c-2.8,8.3-6.9,16-12.3,23c-1.7,2.2-3.5,4.2-6,5.4c-2,0.9-4.1,1.2-5.9-0.4
		c-1.7-1.4-1.9-3.4-1.5-5.5c0.5-2.6,1.8-4.7,3.2-6.9C214.1,89.1,217.8,83.9,220.9,77.7z"/>
	<path fill="#222222" d="M701.4,117.1c2.2,0.4,3.9-0.2,5.7-0.5c3.6-0.6,7.1-1.4,10.7-2c1.8-0.3,2.9-1.1,3.2-3c0.3-2.2,1.1-4.2,2.4-6
		c1.1-1.5,2.5-2.3,4.5-2c1.8,0.3,2.7,1.6,3.1,3.4c0.2,0.9,0.4,1.8,0.5,2.7c0.8,8.7-0.8,17-3.4,25.2c-1,3-2.6,5.6-5.6,7.1
		c-0.6,0.3-1.1,0.8-1.8,0.4c-0.8-0.4-0.3-1.2-0.2-1.7c0.6-1.9,0.4-3.8-0.1-5.6c-1.1-4.6-0.7-9.3-1-14.4c-4.5,2.8-8.9,4.9-13.3,6.9
		c-3,1.3-6.1,2.5-9.4,2.6c-8.2,0.2-12.6-6.1-9.6-13.7c1.8-4.4,4.5-8.3,7.3-12.1c0.6-0.8,1.1-1.6,1.7-2.4c-0.8-0.7-1.6-0.4-2.2-0.4
		c-7.5-0.2-11.9-5.3-10.9-12.8c0.2-1.4,0.6-2.9,1.1-4.2c4.2-9.3,9.6-17.7,16.7-25c1.1-1.2,2.4-2.3,4-2.9c2.1-0.8,4.1-0.9,5.9,0.7
		c1.7,1.6,2.1,3.6,1.2,5.7c-0.9,2.3-2,4.5-3.1,6.7c-2.9,5.5-5.4,11.1-7.8,16.8c-0.8,1.9-0.3,2.5,1.7,2.7c2.6,0.4,4.5,0,6.2-2.2
		c1.5-2,3.5-3.7,5.3-5.4c1.1-1,2.3-1.8,3.7-2.2c1.5-0.4,2.9-0.4,4.1,0.8c1.2,1.2,1,2.7,0.3,4.1c-1.7,3.8-3.8,7.5-6.1,10.9
		c-4.2,6.2-8.5,12.4-12.8,18.7C702.6,114.9,702.1,115.9,701.4,117.1z"/>
	<path fill="#222222" d="M572.1,155.7c-1.3-0.2-2.2,0.6-3.2,0.9c-1.8,0.7-3.6,1.4-5.5,1.6c-5.7,0.7-9.8-3.1-9.5-8.8
		c0.2-3.6,1.4-6.9,2.4-10.3c0.3-1.1,0.5-1.9-0.6-2.8c-2.8-2.4-2.5-5.6,0.7-7.6c3.2-2,6.7-3.9,10.4-4.8c4.1-1,6.4-3.2,7.5-7.1
		c0.3-0.9,1.4-1.9,0.7-2.7c-0.6-0.8-1.9-0.1-2.8,0.1c-1.9,0.3-3.7,0.8-5.6,1.1c-2,0.3-3.6-0.5-4.6-2.3c-0.9-1.8-0.6-3.5,0.5-5.1
		c0.9-1.3,2.2-2.2,3.6-2.9c3.4-1.8,7.1-2.8,10.9-3.3c9.7-1.2,16,6.9,12.2,15.9c-2.5,5.9-5.4,11.7-12.3,13.8
		c-2.7,0.8-5.1,2.4-7.8,3.2c-2.1,0.7-3,1.8-2.8,3.9c0.2,1.9-1.1,4.4,0.2,5.4c1.2,0.9,3.3-0.9,5-1.4c8.7-2.7,15.1,1.6,14.7,10.7
		c-0.5,12.7-5.8,23.3-15.6,31.5c-3.3,2.7-7.3,4.1-11.7,3.6c-6-0.7-9-6.6-5.7-11.1c0.6-0.8,1.3-1.7,2.4-1.5c1.9,0.4,3.1-0.7,4.4-1.7
		c5.8-4.5,9.4-10.5,11.9-17.3C572.2,156.4,572.1,156.1,572.1,155.7z"/>
	<path fill="#222222" d="M628.8,144c5.6,0,8.5,3.4,7.9,8c-0.6,4.6-3,8.4-5.6,12c-1.3,1.8-1,2.6,0.8,3.8c6.1,4.1,11.9,8.7,17.1,13.9
		c1.5,1.5,2.9,3.1,3.5,5.1c0.7,2.1,0.5,4.2-1.1,5.8c-1.5,1.5-3.4,1.9-5.5,1.4c-2-0.5-3.6-1.6-5.2-2.8c-5.7-4.3-11.4-8.7-17.1-13.1
		c-1.5-1.2-2.4-1.2-3.8,0.3c-3.5,4.1-7.7,7.5-12.3,10.3c-2,1.2-4.2,2.2-6.6,2.3c-1.4,0-2.7-0.3-3.5-1.6c-0.8-1.4-0.5-2.9,0.5-4.1
		c1.5-1.8,3.1-3.5,4.7-5.3c2.6-2.8,5.2-5.6,7.9-8.2c1.2-1.2,1.3-1.9-0.2-2.9c-1.4-0.9-2.8-2-4.1-3.2c-3.2-3-3.4-4.8-0.9-8.4
		C611.4,148.8,620.9,146.8,628.8,144z M626.1,152.8c-4.5,1.5-8.3,3.1-12.2,5.4c2,0.9,3.5,1.5,5,2.2c0.8,0.4,1.6,0.3,2.2-0.4
		C622.7,157.8,624.6,155.8,626.1,152.8z"/>
	<path fill="#222222" d="M829.7,187.1c-2.3-0.4-4-1.7-5.5-3.3c-4-4.3-7.6-9-11.2-13.7c-4.3-5.4-8.2-11.1-13.1-16
		c-3.5-3.5-7.2-6.8-12.3-8.1c-3.1-0.8-4.3-3.7-3.3-6.7c0.3-0.8,0.7-1.7,1.3-2.4c5.8-7.1,11.2-14.5,17.7-21c1-1,2.2-2,3.4-2.7
		c1.9-1.1,3.8-1.2,5.6,0.3c1.8,1.5,1.9,3.5,1.2,5.5c-0.7,2-1.9,3.7-3.1,5.4c-3.1,4.6-6.6,8.9-10.2,13.1c-0.8,1-1.2,1.6,0.2,2.5
		c5.2,3.3,9.4,7.7,13,12.7c6,8.1,12.1,16.1,17.4,24.7c1.2,2,2.3,4.1,2.1,6.6C832.7,185.9,831.6,186.9,829.7,187.1z"/>
	<path fill="#222222" d="M631.4,117.5c-0.4,6.5-0.4,6.5,6.1,5.7c1.9-0.2,3.8-0.2,5.7,0.4c1.9,0.5,2.5,1.6,1.4,3.5
		c-2.7,4.8-15,8.1-19.7,5.2c-3.2-2-4.3-5-4-8.6c0.3-3.3,0.8-6.5,1-9.8c0.2-2.7-0.4-3-3.1-2.3c-2.5,0.6-3.7,1.7-4,4.6
		c-0.5,6.4-2.2,12.5-4.4,18.5c-0.8,2.2-1.7,5.1-4.8,4.6c-3.2-0.5-3-3.6-3-6c0.1-8.2,1.6-16.3,4.2-24.1c0.8-2.5,2.3-4.3,5.3-4.1
		c0.8,0,1.6-0.4,2.3-0.7c1.8-0.8,3.7-1.5,5.7-1.8c5.4-0.8,9.5,1.8,10.8,7.1C631.6,112.2,631.6,114.8,631.4,117.5z"/>
	<path fill="#222222" d="M781.9,159.9c0.3,3.8,0.3,7.6-0.9,11.3c-1.4,4.6-4.5,7.4-9.3,8.1c-3.1,0.5-5.8-1-7.2-3.7
		c-1.3-2.5-1.8-5.3-2.3-8.1c-0.3-1.3,0.4-2.4,1.8-1.6c2.5,1.4,2.3-0.4,2.4-1.8c0.5-8.3,1-16.7,1.5-25c0.2-3.4,0.4-6.7,1.2-10
		c0.2-0.8,0.4-1.6,0.6-2.4c0.8-2,2-3.5,4.4-3.3c2.3,0.2,3.3,1.8,3.6,3.8c0.8,4.4,1.6,8.8,2.2,13.2
		C780.9,146.8,781.5,153.3,781.9,159.9z"/>
	<path fill="#222222" d="M93.2,86.8c-2.7-0.1-5-1.2-6.3-3.8c-1.3-2.6-0.8-5.1,0.9-7.4c1.1-1.6,2.7-2.7,4.3-3.7
		c8.8-5.5,18.5-8.3,28.7-9.6c2.6-0.4,5.3-0.1,7.6,1.5c2.3,1.5,2.7,3.5,1.3,5.8c-1.1,1.7-2.5,3.1-4.3,4.1
		c-8.5,4.6-16.9,9.1-26.2,12.1C97.3,86.2,95.3,86.8,93.2,86.8z"/>
	<path fill="#222222" d="M761.9,145.2c-1.5,11.1-5.6,21.5-12.9,30.6c-1.3,1.6-3.1,2.8-5.1,3.5c-3.8,1.3-6.9-0.9-6.6-4.9
		c0.2-3.1,1.6-5.7,3.3-8.3c3.8-5.9,7.5-11.8,10-18.4c0.6-1.6,1.4-3.1-1.5-3.1c-1.8,0-2.9-1.5-3.2-3.2c-0.4-2,0.3-3.7,1.9-4.8
		c2.7-2,5.8-3.1,9.2-1.9c3.1,1.1,4.2,3.8,4.6,6.8C761.7,142.6,761.7,143.7,761.9,145.2z"/>
	<path fill="#222222" d="M325.6,104.8c7.2,0,17.3,7.3,19.5,14.1c1.2,3.8,0.3,7.6-2.5,9.9c-3.1,2.5-6.5,2.5-9.9,0.8
		c-1-0.5-2.1-1.2-2.9-2c-3.7-3.6-6.9-7.7-10-11.8c-1.8-2.3-2-5.1-0.5-7.7C320.6,105.8,322.9,104.8,325.6,104.8z"/>
	<path fill="#222222" d="M29,169.8c-3.4-0.1-5.7-3.2-4.9-6.7c0.5-1.9,1.6-3.5,2.8-5c7.6-9.7,16.9-17.4,26.7-24.8
		c0.5-0.4,1.2-1.1,1.9-0.5c0.9,0.7,0.2,1.3-0.2,1.9c-6.7,10.3-13.3,20.6-20,30.9C33.9,167.9,32.1,169.9,29,169.8z"/>
	<path fill="#222222" d="M28.1,73.5c0-2.9,2-5.2,4.8-5.7c1.3-0.2,2.6-0.2,3.8,0.2c4.5,1.7,8.8,3.8,12.6,6.9c2,1.6,3.3,3.6,3.9,6.1
		c0.2,0.9,0.2,2.2-1.1,1.9c-5.4-1.2-11.1-0.3-16.4-2c-1.6-0.5-3.3-1-4.7-2.1C29.2,77.5,28.1,75.8,28.1,73.5z"/>
	<path fill="#222222" d="M689.4,154.4c-0.4,5.1-1.4,10.6-5.7,14.8c-2.8,2.8-5.9,2.1-7-1.7c-1.9-6.6-0.2-12.8,3.1-18.5
		c1.3-2.2,3.5-2.9,5.9-2.2C688.1,147.7,689.4,150.1,689.4,154.4z"/>
	<path fill="#222222" d="M161.2,139.2c-2.3,0-4.1-0.9-5.2-2.8c-1.3-2.2-1.2-4.5,0.1-6.7c1.3-2.2,3.2-3.7,5.3-5
		c4.3-2.7,9.1-4,13.9-5.5c0.7-0.2,1.4-0.4,2,0.3c0.7,0.7,0.1,1.4-0.2,2c-3.4,5.2-6.8,10.5-10.8,15.3
		C165,138.3,163.3,139.2,161.2,139.2z"/>
	<path fill="#222222" d="M176.2,86.2c3.6,0.1,6.3,0.6,8.8,1.7c1.7,0.7,1.9,1.7,0.4,2.8c-5.1,3.5-10.6,6.4-16.6,7.9
		c-2.8,0.7-5.5-1.1-6.3-3.6c-0.8-2.6,0.4-5.3,3.1-6.5C169.3,86.9,173.2,86.4,176.2,86.2z"/>
	<path fill="#222222" d="M173.1,58.8c5.1,0,14.2,6.2,16.2,10.8c0.6,1.6,0.5,2.7-1.4,2.4c-4.3-0.7-8.7,0.1-13-1
		c-1.8-0.5-3.8-0.8-5.3-2.1c-2-1.7-2.8-3.9-1.9-6.4C168.5,60,170.4,58.9,173.1,58.8z"/>
	<path fill="#222222" d="M44.3,106.9c2,0.3,4.8-0.5,5.5,1.4c0.8,2.2-2,3.3-3.5,4.6c-3,2.7-6.6,4.5-10.1,6.5c-1,0.6-2.2,0.9-3.4,1
		c-2.7,0.2-5-1.3-5.7-3.7c-0.7-2.6,0.3-5.2,3-6.3C34.7,108.4,39.4,107,44.3,106.9z"/>
	<path fill="#222222" d="M706.8,163.7c-0.2,1.7,0.1,3.2-1.3,4c-1.5,0.9-3.1,0.4-4.3-0.7c-4.7-4.1-7.1-9.3-6.8-15.6
		c0.1-1.9,1.1-3.5,3.1-4c2-0.5,3.6,0.4,4.7,2C705.5,153.8,705.9,159,706.8,163.7z"/>
	<path fill="#222222" d="M729.3,164.6c-0.1,2.7-1.9,4.2-4.2,3.3c-5.8-2.3-10.5-6.1-13.1-11.9c-1.3-3,0.8-5.5,3.8-5.1
		c4.7,0.7,12.4,7.9,13.4,12.6C729.3,163.9,729.3,164.3,729.3,164.6z"/>
</g>
</svg>
