<?xml version="1.0" encoding="utf-8"?>
<!-- Generator: Adobe Illustrator 23.0.1, SVG Export Plug-In . SVG Version: 6.00 Build 0)  -->
<svg version="1.1" xmlns="http://www.w3.org/2000/svg" xmlns:xlink="http://www.w3.org/1999/xlink" x="0px" y="0px"
	 viewBox="0 0 1113.3 640" style="enable-background:new 0 0 1113.3 640;" xml:space="preserve">
<style type="text/css">
	.st0{fill:#85A48C;}
	.st1{fill:#222222;}
	.st2{fill:#FFFFFF;}
	.st3{fill:#CCD9CF;}

	#smoke {
		animation: fade 3s ease-in-out infinite;
	}

	#bird1 {
		animation: fly1 3s ease-in-out infinite;
	}
	#bird2 {
		animation: fly2 3s ease-in-out infinite;
	}
	#bird3 {
		animation: fly3 3s ease-in-out infinite;
	}
	#bird4 {
		animation: fly4 3s ease-in-out infinite;
	}
	#bird5 {
		animation: fly5 3s ease-in-out infinite;
	}

	#hand {
		animation: enter 3s ease-in-out infinite;
	}
	@keyframes enter {
	  0% {
	  	transform: translate(280px, -460px) rotateZ(22deg);
	  	opacity: 0;
	  }
	  10% {
	  	transform: translate(280px, -460px) rotateZ(22deg);
	  	opacity: 0;
	  }
	  30% {
	  	transform: translate(0px, 0) rotateZ(0deg);
	  	opacity: 1;
	  }
	  80% {
	  	transform: translate(0px, 0) rotateZ(0deg);
	  	opacity: 1;
	  }
	  99% {
	  	transform: translate(280px, -460px) rotateZ(22deg);
	  	opacity: 0;
	  }
	  100% {
	  	transform: translate(280px, -460px) rotateZ(22deg);
	  	opacity: 0;
	  }
	}

	@keyframes fade {
	  0% {
	  	opacity: 0;
	  }
	  30% {
	  	opacity: 0;
	  }
	  40% {
	  	opacity: 1;
		
	  }
	  90% {
	  	opacity: 1;
	  	
	  }
	  100% {
	    opacity: 0;
	    
	  }
	}
	@keyframes fly1 {
	  0% {
	  	opacity: 0;
	  	transform: translate(-30px, 20px) rotateZ(1deg);
	  }
	  40% {
	  	opacity: 0;
	  	transform: translate(-30px, 20px) rotateZ(1deg);
	  }
	  50% {
	  	opacity: 1;
	  	transform: translate(0px, 0px) rotateZ(0deg);
	  }
	  90% {
	  	opacity: 1;
	  	transform: translate(0px, 0px) rotateZ(0deg);
	  }
	  100% {
	    opacity: 0;
	    transform: translate(0px, 0px) rotateZ(0deg);
	  }
	}
	@keyframes fly2 {
	  0% {
	  	opacity: 0;
	  	transform: translate(-30px, 40px) rotateZ(-1deg);
	  }
	  43% {
	  	opacity: 0;
	  	transform: translate(-30px, 40px) rotateZ(-1deg);
	  }
	  53% {
	  	opacity: 1;
	  	transform: translate(0px, 0px) rotateZ(0deg);
	  }
	  90% {
	  	opacity: 1;
	  	transform: translate(0px, 0px) rotateZ(0deg);
	  }
	  100% {
	    opacity: 0;
	    transform: translate(0px, 0px) rotateZ(0deg);
	  }
	}
	@keyframes fly3 {
	  0% {
	  	opacity: 0;
	  	transform: translate(0px, 40px) rotateZ(0deg);
	  }
	  46% {
	  	opacity: 0;
	  	transform: translate(0px, 40px) rotateZ(0deg);
	  }
	  56% {
	  	opacity: 1;
	  	transform: translate(0px, 0px) rotateZ(0deg);
	  }
	  90% {
	  	opacity: 1;
	  	transform: translate(0px, 0px) rotateZ(0deg);
	  }
	  100% {
	    opacity: 0;
	    transform: translate(0px, 0px) rotateZ(0deg);
	  }
	}
	@keyframes fly4 {
	  0% {
	  	opacity: 0;
	  	transform: translate(30px, 40px) rotateZ(-1deg);
	  }
	  49% {
	  	opacity: 0;
	  	transform: translate(30px, 40px) rotateZ(-1deg);
	  }
	  59% {
	  	opacity: 1;
	  	transform: translate(0px, 0px) rotateZ(0deg);
	  }
	  90% {
	  	opacity: 1;
	  	transform: translate(0px, 0px) rotateZ(0deg);
	  }
	  100% {
	    opacity: 0;
	    transform: translate(0px, 0px) rotateZ(0deg);
	  }
	}
	@keyframes fly5 {
	  0% {
	  	opacity: 0;
	  	transform: translate(30px, 20px) rotateZ(-1deg);
	  }
	  52% {
	  	opacity: 0;
	  	transform: translate(30px, 20px) rotateZ(-1deg);
	  }
	  62% {
	  	opacity: 1;
	  	transform: translate(0px, 0px) rotateZ(0deg);
	  }
	  90% {
	  	opacity: 1;
	  	transform: translate(0px, 0px) rotateZ(0deg);
	  }
	  100% {
	    opacity: 0;
	    transform: translate(0px, 0px) rotateZ(0deg);
	  }
	}
</style>
<g id="background">
	<g id="_xFFFD__x83__x8C__xFFFD__x99__xA0_影像_1_">
	</g>
	<g id="Background_Color_xA0_影像_1_">
	</g>
	<g id="Background_xA0_影像_1_">
		<g>
			<g>
				<path class="st0" d="M910.1,586.4c-4.6-0.5-9.1-0.9-13.7-1.4c-11.7-1.4-23.4-2.8-35.1-4.1c-9.8-1.1-19.6-2.3-29.5-3
					c-9-0.7-18-1.2-26.9-1.3c-30.1-0.1-60.2-0.3-90.3,0.1c-33.6,0.5-67,3.7-99.9,11.1c-3.8,0.9-7.8,0.9-11.6,1.1
					c-14.5,0.8-28.9,2.2-43.4,3.8c-14,1.5-28,3-41.9,4.6c-16.3,1.8-32.7,3.4-49,4.7c-11.6,0.9-23.2,1.6-34.8,2
					c-15.8,0.5-31.6,0.4-47.4,0.3c-9.8-0.1-19.4-2.4-29.2-3.4c-17.9-1.9-34.6-8.9-51.9-13.1c-24.9-6.1-50-11.6-75.3-16
					c-13.5-2.3-27.1-3.8-40.7-5.2c-10.7-1.1-21.4-2.5-32.2-3.6c-7.9-0.8-15.7-1.3-23.6-1.8c-13.9-0.8-27.7-1.6-41.6-2.3
					c-3.2-0.2-1-1.9-0.6-2.6c6-10.3,12.2-20.6,17.4-31.4c10.4-21.7,25.5-39.9,41.7-57.2c10.8-11.4,24.2-19.7,37.5-27.9
					c19.1-11.6,40.1-17.8,62.1-20.3c24-2.8,46.7,1.7,68.3,12.7c20.4,10.4,38.8,23.5,56.3,38c24.5,20.2,48.9,40.6,74.3,59.7
					c5,3.8,10.2,7.3,16.6,8.4c6,1.1,11.8,0.5,17.5-2.2c3.2-1.5,6.7-3.4,10.6-2.7c0.9,0.2,1.3-0.6,1.8-1.1
					c21.2-20.7,41.5-42.3,60.6-64.9c11.8-14,26.4-24.5,41-35.3c18.9-14,40.7-19.9,63-24.9c18.2-4.1,34.6,1.2,50.8,8.6
					c13.4,6.2,24.8,15.4,36.1,24.7c23.3,19.2,45.6,39.4,68.1,59.6c24.8,22.3,49.4,44.8,73.9,67.4c6.8,6.3,13.8,12.3,21.2,17.9
					C910.2,585.9,910.2,586.2,910.1,586.4z"/>
				<path class="st0" d="M949.5,223.1c-3.9-0.2-7.3-0.4-10.7-0.5c-11-0.5-21.2,2.2-31,7c-10.8,5.3-21.8,10.5-32.5,16
					c-10.3,5.3-20.9,6.1-32,4c-10.1-1.9-20.3-2.9-30.6-2c-11.3,1-21.5,5.1-31.3,10.4c-2.5,1.4-5.2,2.7-7.5,4.4
					c-5.9,4.3-12.9,5-19.7,6.6c-15.1,3.6-30.7,8.7-43.9,16.6c-5.8,3.5-9.6,9.2-16.6,10c-9.4,1.1-18.7,0.3-27.9-1.3
					c-15.9-2.9-30.8-9-46-14.1c-18.4-6.2-37.3-10-56.8-10.3c-9.1-0.2-18.2-0.4-27.2,0c-6.3,0.3-12.7-0.4-19.1-0.1
					c-12.7,0.6-25.3,2.5-37.9,4.2c-14.6,2-29,4.5-43.3,8.1c-13.3,3.3-26.3,7.6-39.2,12.4c-2.7,1-4.3,0.7-6.2-1.6
					c-12.4-15-25.3-29.5-37.2-44.9c-0.6-0.8-1.2-1.6-1.8-2.4c-3.2-4.5-3.3-4.6,0.8-8c8.5-7,16.8-14.2,25.3-21.2
					c7.3-5.9,15.5-10.7,23.5-15.8c18.3-11.7,35.4-25.1,53.4-37.3c32.5-22,67.3-39.6,105.4-49.9c10.9-3,22.2-3.2,33.5-2.8
					c28.4,1,52.2,13.3,74.4,29.8c10.3,7.7,19.1,17.1,29.3,24.9c19.7,15.1,37.2,32.5,54.2,50.4c2.5,2.7,4.2,3.1,5.7,1.7
					c1.5-1.5,1.1-3.2-1.5-5.8c-9.6-9.2-18.4-19.2-28.2-28c-7.4-6.7-14.7-13.6-22.7-19.6c-0.6-0.5-1.7-0.9-1.4-1.8
					c0.6-2.5-1.1-3.3-2.7-4.4c-8-5.6-14.7-12.7-21.7-19.4c-0.8-0.8-0.7-0.9-0.7-4c4,2.7,7.7,5.3,11.1,8.4c5.2,4.7,10.7,9,15.2,14.4
					c2.2,2.7,5.5,2.6,7.8-0.1c1.3-1.6,2.9-2.7,4.6-3.8c12.7-8.3,25.4-16.7,38.1-24.9c3.1-2,6.5-3.5,9.8-5.3c1.1-0.6,2.2-0.7,3.4-0.8
					c15.1-0.9,29.1,2.9,42.6,9.5c13.6,6.7,26.2,14.9,38.4,23.8c18.2,13.2,37.5,24.6,56.3,36.8c10.9,7.1,20.9,15.5,31.8,22.6
					C940.9,217.6,945,220.2,949.5,223.1z"/>
				<path class="st0" d="M369.5,315.4c-6.7-1.3-12.5-2.5-18.4-3.6c-14.7-2.8-29.4-2.9-44.2-1.6c-3.2,0.3-6.4,0.3-9.5,0.2
					c-11.8-0.3-23.4,1.1-34.9,3c-5.6,0.9-11.4,1-17.1,1.4c-9.3,0.7-18.6,2-27.9,3c-8.4,0.9-16.8,1.8-25.2,2.4
					c-11.1,0.8-22.3,1.5-33.5,1.1c-14.3-0.5-28.6-2.1-42.3-6.6c-11.6-3.8-23.4-4-35.2-1.9c-17.5,3-34.8,7.2-51.7,12.8
					c-1.7,0.6-2.5,0.6-2.8-1.6c-1.8-12.3-0.4-24.2,2.7-36.1c5.6-22,15.4-42.2,27.4-61.5c8-12.9,16.1-25.7,26.3-37
					c6.4-7.1,14.5-11.8,23.5-14.8c6.6-2.2,12.9,0,18.9,2.9c8.7,4.1,16.4,9.7,24.1,15.4c5.3,3.9,5.2,3.9,9.9-0.7
					c9-8.9,19-16.6,29.5-23.7c2.8-1.9,6.1-1.5,9.2-2c11.2-1.7,20.8,2.8,30.2,8c15.3,8.6,28.8,19.7,41.9,31.1
					c23.1,20,43.2,42.9,62.5,66.4c9,10.9,18.6,21.4,27.8,32.2C363.7,307.6,366.3,311.3,369.5,315.4z"/>
				<path class="st0" d="M1089.1,460.4c-6,2.9-12.2,4.3-18.6,5.1c-16.2,2.1-32.5,3.2-48.7,4.9c-8.2,0.9-15.7,3.5-22,9.1
					c-8.2,7.3-18,10.4-28.9,11.2c-13,0.9-25.7-1.4-38.3-3.7c-9.9-1.8-19.8-2.7-29.8-2.4c-5.2,0.2-10.1,2-15,3.8
					c-3.1,1.2-6.2,2.5-9.4,3.6c-4.7,1.7-6.8,1.2-9.7-2.9c-5.4-7.5-11.2-14.6-17.3-21.3c-9.6-10.5-20.7-19.4-31.1-28.9
					c-3.6-3.2-6.9-6.7-10.4-10.1c-3.7-3.6-7.3-7.4-11.5-10.4c-1.5-1-3-2.2-2.7-4.4c0.1-0.4-0.1-0.6-0.3-0.9
					c-2.4-2.6-2.4-2.5,0.6-4.2c22.1-12.1,43-26.1,62.4-42.3c11.3-9.4,22.5-18.9,33.8-28.4c13.3-11.2,28.5-12,43.2-3.8
					c10.8,6,19.3,14.3,27.2,23.6c14.1,16.9,30,32.1,45.8,47.4c12.4,12,25.9,22.8,40.5,32.1c11.8,7.4,24,14,36.4,20.3
					C1086.4,458.7,1087.9,459.1,1089.1,460.4z"/>
				<path class="st0" d="M643.5,109.2c-2.6-1.5-4.5-4.2-8-3.9c-0.2,0-0.6-0.2-0.7-0.4c-1.4-3.3-4.8-4.1-7.4-5.9
					C633.9,100.7,639.5,103.6,643.5,109.2z"/>
				<path class="st0" d="M644.4,391.5"/>
			</g>
			<g>
				<path class="st1" d="M111.7,158.7c-7.6,0-15,4.2-21.9,10c-12.1,10.3-23,22-34.2,33.2c-1.7,1.7-3.3,3.4-5.1,4.9
					c-1.2,1.1-2.6,1.6-3.9,0.2c-1.3-1.3-0.8-2.8,0.3-3.9c13.9-13.8,26.4-28.9,41.8-41c13.6-10.7,28.2-12.6,43.7-3.9
					c1,0.6,1.9,1.3,2.9-0.3c7.9-13.6,18.3-25.3,28.3-37.3c12.5-15,25.7-29.4,39.9-42.9c6.7-6.4,14.3-11.7,22.4-16.3
					c17.9-10.2,36.3-10.9,55.3-3.3c11.8,4.7,22.1,11.7,32.4,18.9c36,25,71,51.3,105.2,78.7c2,1.6,3.1,1.4,5-0.1
					c23-19,46.4-37.4,71.5-53.6c20.8-13.5,43.3-22.3,67.8-26.4c19.2-3.2,36.8,0.7,53.5,10c8.6,4.8,16.6,10.4,24.2,16.7
					c16.1,13.3,33,25.7,48.5,39.7c5.4,4.9,10.6,10,15.7,15.1c1.4,1.4,2.2,1.4,3.7,0.2c16.6-13,33.6-25.1,53-33.6
					c7.8-3.4,15.8-5.9,24.2-7.4c11.8-2.1,23.2-0.4,34.2,4.1c19.6,8.1,38.2,17.8,54.8,31.1c2,1.6,3.4,1.5,5.4,0
					c9.2-6.9,18.2-13.9,28.1-19.7c9.9-5.8,20.5-7.8,31.7-4.6c6.1,1.8,11.4,5.2,16.3,9.1c12.3,10,26.3,17.1,41,22.9
					c3.1,1.2,6,2.6,8.3,5c1.2,1.3,2.5,2.7,1.1,4.5c-1.5,1.8-3.1,0.8-4.5-0.3c-2-1.6-4.2-2.8-6.6-3.7c-15.8-6-30.6-13.9-43.8-24.6
					c-4.7-3.8-9.9-6.8-15.9-8.1c-8.6-1.8-16.6,0.1-24.2,4.3c-10.1,5.6-19.2,12.7-28.7,19.4c-1,0.7-1.2,1.2-0.1,2
					c18.4,13.7,35.3,29.3,54.2,42.2c8.9,6,18.3,11.2,27.5,16.7c2.5,1.5,4.9,3.1,7.3,4.8c1.3,0.9,2.3,2.3,1.2,3.9
					c-1.1,1.7-2.7,1.3-4.1,0.5c-19.4-11.5-39-22.5-56.4-37.1c-17.9-15-36-29.8-55.4-42.8c-12.3-8.3-25.8-14.5-39.4-20.3
					c-16-6.8-31.7-5.1-47.5,0.7c-16.3,6.1-30.9,15.2-45.1,25.2c-4.3,3-8.5,6.3-12.8,9.3c-2,1.4-1.7,2.3-0.2,3.9
					c9,9.5,18.6,18.4,28,27.6c4.6,4.5,9.1,9.2,12.7,14.5c1.1,1.6,2,3.2,2.9,4.9c0.8,1.5,0.9,3.1-0.8,4.1c-1.6,0.9-2.8,0-3.7-1.3
					c-6.9-11.1-16.7-19.6-26-28.6c-8-7.8-15.5-16.2-23.4-24c-9-8.9-18-17.8-27.9-25.6c-16-12.5-31.4-26-47.9-37.9
					c-11.3-8.2-23.6-14.6-37.6-17.3c-11-2.2-21.9-0.6-32.7,1.6c-24.1,4.8-45.6,15.5-65.7,29.4c-36.7,25.3-71,53.4-103.3,84
					c-3.9,3.7-7.8,7.4-11.7,11.1c-0.8,0.7-1.6,1.5-2.1,2.5c-0.8,1.7-2.2,2.6-4.1,2.5c-1,0-1.7-0.6-2-1.6c-0.7-1.9,0.5-3.2,1.7-4.3
					c12-11.9,24.1-23.7,36.7-35c3.2-2.9,6.5-5.9,9.9-8.6c1.7-1.4,1.7-2.1-0.1-3.4c-12.3-9.3-24.6-18.7-36.9-28.1
					c-26.7-20.3-53.6-40.3-81.7-58.7c-11.3-7.4-23.5-12.6-37.2-13.9c-9.3-0.9-18,1.6-26.4,5.5c-10.1,4.7-18.9,11.1-26.9,18.8
					c-19.9,19-37.5,40-54.8,61.4c-4,4.9-7.2,10.5-10.8,15.7c-1.2,1.7-1.2,2.7,0.7,4.1c7.2,5.4,14.2,11.1,21.1,16.8
					c1.5,1.2,2.2,1.2,3.5-0.2c9-9.8,18.6-18.9,29.7-26.4c6.9-4.7,14.5-7.4,22.7-8.6c11.3-1.5,20.6,2.4,28.5,10.1
					c5.9,5.8,11.3,12.1,16.9,18.2c16.5,17.8,33.3,35.4,48.6,54.2c10.5,12.8,19.7,26.6,29.9,39.6c10.5,13.5,20.8,27.1,32.2,39.9
					c0.5,0.6,1.1,1.2,1.5,2c0.6,1.1,0.6,2.3-0.5,3.2c-1,0.9-2.2,0.9-3.2,0.1c-1.4-1.2-2.8-2.6-4.1-4c-14.5-16.8-28.2-34.2-41.2-52.2
					c-17-23.6-36-45.4-55.9-66.5c-8.5-9.1-16.7-18.4-25.2-27.5c-6.5-7-14-12.3-24.2-11.5c-6.8,0.5-13.2,2.3-19.1,5.8
					c-11,6.4-20.3,15-29,24.2c-18,19.3-34.1,40.2-49.8,61.3c-3.4,4.6-7.1,9-10.2,13.8c-1.2,1.8-2.4,3.6-2.9,5.8
					c-0.3,1.4-1.2,2-2.6,1.8c-1.3-0.1-2.1-1-2.3-2.3c-0.3-1.6,0.4-3,1.2-4.4c4.1-7.7,9.7-14.2,14.7-21.3
					c11.8-16.5,24.5-32.2,37.7-47.7c1.2-1.4,1-2.2-0.3-3.2c-8.9-7.1-17.4-14.6-27-20.8C125.3,160.4,118.7,158.4,111.7,158.7z"/>
				<path class="st1" d="M710.1,374.2c18.2,0.1,32,5.5,45.3,12.5c7.1,3.8,13.9,8.2,20.6,12.8c1.5,1,2.6,1.1,4.1-0.1
					c19.8-16.4,41.4-30.5,61-47.2c11.6-9.8,23-19.8,35.7-28.2c7.4-5,14.9-9.8,23.8-11.7c11.1-2.3,21.5-0.1,31.2,5.6
					c8.5,5,15.6,11.8,22.8,18.5c3.2,3,6.4,6,9.6,8.9c6.9,6.4,15,10.8,24,13.6c2.5,0.8,5,1.5,7.3,3c1.4,0.9,2.3,2.2,1.4,3.9
					c-0.9,1.5-2.2,1.5-3.8,1c-15.8-4.5-29.3-12.7-40.8-24.6c-6-6.3-12.5-12.1-19.8-17.1c-7.2-4.9-15-8.2-23.9-8.1
					c-6.9,0.1-13.2,2.4-19.1,5.8c-11.2,6.4-21.3,14.2-31.2,22.4c-7.2,6-14.5,11.8-21.6,18c-11.9,10.4-25.5,18.7-37.8,28.6
					c-4.7,3.8-9.4,7.5-14.1,11.2c-1.1,0.9-1.7,1.4-0.1,2.5c26.9,18.7,49.3,42.1,70.6,66.6c26.5,30.6,56.6,57.5,88.8,81.9
					c4.1,3.1,8.4,5.8,12.8,8.3c1.7,1,3.3,2.2,2.1,4.3c-1.1,2-3,1.3-4.6,0.5c-9-4.2-16.5-10.5-24.2-16.6
					c-33.3-26-63.2-55.5-90.7-87.5c-23.8-27.7-51.7-50.8-83.2-69.3c-12-7-24.7-12.4-38.7-13.7c-10.3-1-20.3,1.3-30,4.3
					c-21.2,6.6-40.3,17.5-58.6,29.8c-32.2,21.7-61.4,47.1-89.4,74c-19.7,18.9-38.7,38.4-58.1,57.6c-6.5,6.4-13.4,12.3-21.2,17
					c-1.2,0.8-2.5,1.4-3.9,2c-1.5,0.6-3,0.4-3.7-1.3c-0.6-1.5,0.2-2.6,1.6-3.3c8.7-4.6,16.1-11,22.9-17.9
					c22.8-23.4,45.8-46.5,69.6-68.8c30.9-28.8,63.2-55.9,100-77c15.4-8.8,31.5-16.2,49-20.1C701.4,375,707.1,374.1,710.1,374.2z"/>
				<path class="st1" d="M280.4,378.6c7.7-0.2,14.7,2.2,21.5,5.2c15.5,6.8,29.4,16.3,43,26.1c23.9,17.2,46,36.4,68.4,55.4
					c16.7,14.1,32.7,28.9,49.9,42.4c5,3.9,10.4,7,16.2,9.3c2.6,1,5.2,1.4,7.9,1.8c1.7,0.2,3,1,2.9,2.9c-0.1,1.8-1.6,2.4-3.1,2.4
					c-3.2,0.2-6.3-0.5-9.3-1.7c-7.5-2.8-14.1-7-20.3-12c-17.1-13.8-33.4-28.6-50.2-42.8c-24.2-20.5-48.2-41.3-74.4-59.2
					c-11.3-7.7-22.9-15-35.6-20.5c-11.4-4.9-22.6-4.5-34-0.8c-26.4,8.4-50.1,21.6-71.3,39.4c-20.2,17-38.1,35.9-52.5,58
					c-10.9,16.7-22.4,33.1-32,50.7c-4.1,7.6-7.6,15.5-11.4,23.2c-0.8,1.7-1.5,4-4,2.9c-2.5-1.2-1.4-3.4-0.7-5.2
					c7.6-17.6,16.5-34.4,27.3-50.2c8.4-12.3,15.8-25.3,24.8-37.1c18.3-24,39.7-44.8,64.7-61.6c17.6-11.8,36.6-21.2,57.3-26.6
					C270.5,379.4,275.4,378.4,280.4,378.6z"/>
			</g>
		</g>
	</g>
	<g id="Hands_White_xA0_影像_1_">
	</g>
	<g id="圖層_10">
	</g>
	<g id="Hands_N_Watergate_Color_xA0_影像_1_">
	</g>
	<g id="Hands_N_Watergate_xA0_影像_1_">
	</g>
	<g id="Birds_Away_White_xA0_影像_1_">
	</g>
	<g id="Birds_Away_Color_xA0_影像_1_">
	</g>
	<g id="Birds_Away_xA0_影像_1_">
	</g>
</g>
<g id="hand">
	<g>
		<g id="Hands_N_Watergate_xA0_影像_2_">
			<g>
				<polygon class="st2" points="421.1,57.2 409.1,63.8 381.8,97.8 357.8,139.8 337.1,219.2 331.8,247.2 335.1,293.8 343.8,317.8 
					346.5,346.5 357.8,345.3 407.1,328.5 469.1,322.5 511.8,324.5 553.7,330.3 589.8,340.5 629.1,353.8 661,366 675.7,371.7 
					679.8,355.2 713.1,344.5 739.1,305.2 747.8,270.5 745.8,226.5 736.5,182.5 739.1,126.5 740.5,73.2 665.8,80.5 634.5,79.8 
					603.8,67.2 575.1,66.5 532.5,75.2 501.1,77.8 487.1,65.2 				"/>
				<path class="st2" d="M669.8,27.8"/>
				<g>
					<path class="st0" d="M681.4,397.8c2.4,5,1.9,6.6-2.8,8.7c-9.5,4.2-17.3,10.6-23.3,19.1c-1.4,2-2.9,4-4.7,5.7
						c-8.1,7.9-14.8,17.3-19.9,27.1c-5.6,10.6-9.8,22.8-16,33c-5.9,9.6-8,19.7-11.3,30.4c-2.8,9.2-4.9,18.6-5.7,28.2
						c-0.4,4.8-3,9.1-3.6,13.9c-0.4,3.6-0.5,7.3-1.8,10.7c-0.4,0.9,0.3,1.2,1,1.6c1.9,1.1-2.3,3.4-2.9,5.6c-0.7,2.4,2.9,3.2,0.4,3.4
						c-2,0.2-4.1,0.5-6-0.3c-6.1-2.5-12.6-2.4-19-2.9c-10.6-0.8-21.1-2.6-31.6-4.2c-8.2-1.2-16.4-2.1-24.6-2.6
						c-16.6-0.9-33.2,0.1-49.8,1.3c-11,0.8-22.1,1.6-32.9,4c-2.1,0.5-3.6,2.5-4,0c-0.2-1.5-1.8-0.7-2.8-0.2c-2.7,1.2-5-0.7-7.7,0.6
						c-5.2,2.3-9.7,0.4-11-5c-3.8-15.7-9.8-30.8-13.9-46.4c-4.9-18.7-9.5-37.5-14.5-56.1c-5.5-20.6-13.7-40.2-22.4-59.6
						c-4.3-9.5-9.4-11.9-13.9-21.4c-1.5-3.2-5.4-11-8-13.3c-2.8-2.5-3.1-6.2-3.2-9.2c-0.3-10.3,2.2-20.3,4.2-30.3
						c1.6-8.2,0-7.5,1.5-7.8c0.9-0.2,1.5-1.4,1.7-2.2c3.8-16.3,9.2-31.6,16.3-46.7c4-8.4,9.2-18.6,13.7-26.7
						c1.8-3.3,5.6-7.4,7.2-10.8c0.6-1.4,3.7,0.5,5.3,1.3c1.5,0.7,1.7,2.2,1.1,3.5c-1,2.5-0.5,5-0.2,7.5c0.3,3.2,0.6,5.9-1.6,8.9
						c-2.2,2.9-3.7,6.4-4.4,10.4c-0.6,3.6-2.8,6.9-4.4,10.2c-5.4,11.7-9.4,24-13.2,36.3c-1,3.3,0.1,6.4-0.3,9.7
						c-0.7,5-0.7,10.1-1,15.7c2.4-1.5,4.4-2.7,6.3-3.9c8.9-5.4,18.7-8.3,28.6-11.1c14-4.1,28-8.4,42.4-10.9c7.4-1.3,15-1.8,22.5-2.4
						c9.4-0.9,18.9-0.7,28.3-0.6c17.7,0.2,35.2,2.6,52.4,6.8c7.2,1.8,14.5,2.4,21.8,3.2c12,1.4,23.6,4.8,35.3,8
						c24.9,6.9,49.1,15.6,72,27.7c4,2.1,8,4.4,11.9,6.7c1.6,1,2.2,0.7,2.8-1c5-13.9,5.4-28,8.4-42.5c1.1-5.1,4.5-10.4,4.7-15.6
						c0.3-6.6,1.9-12.9,3-19.3c1.6-9.7-0.8-19-0.9-28.8c0-3.9-1.3-6.1-1-10c0.3-4.1,5.7-7.3,9.7-6.2c2.3,0.6,0.8,0.4,3,1.2
						c2.6,1,4.8,3.1,3.5,5.5c-0.5,1,1.7,1.5,2,2.4c3.8,10.7-0.1,21.6,0.7,32.9c0.4,5.5,3.5,12.2,0.8,16.8c-2.7,4.6,0.4,8.5-0.1,13.1
						c-0.5,5.2-2.3,10.1-3,15.2c-1.9,12.8-6.7,24.9-9.5,37.4c-1.4,6.3-4.9,11.9-8.2,17.4c-0.8,1.4-1.6,2.6-0.9,4.5
						c0.8,2-1.1,3.7-3.3,3.3C683.6,398.6,682.6,398.2,681.4,397.8z"/>
					<path class="st0" d="M653.9,99.2c-7.6,0.2-14.6-4-21.5-6.5c-8.7-3.1-16.5-4.2-25.1-7.7c-10.3-4.2-21-7.2-32.3-6.7
						c-11.6,0.6-23,1.9-34.3,5.4c-9.1,2.8-18.6,4.3-28.2,2.7c-3-0.5-6-1-8.7-2.1s-5.8-0.7-8.3-2.2c-0.2-0.1-0.8-0.1-1,0.1
						c-3.4,2.4-7.5,1.7-11.3,2.3c-1.3,0.2-2.4,0.6-3.3,1.6c-13.6,15-27,30.2-39.7,46c-1.4,1.8-3,3.1-5.2,1.2c-1-0.8-1.3,0.1-1.6,0.7
						c-4.8,7.9-9.8,15.7-12.7,24.6c-0.3,0.8-0.5,1.6-0.9,2.3c-0.6,1.1-1.6,1.8-3,1.5s-2.2-1.2-2.3-2.6c-0.1-1.1,0.1-2.1,0.4-3.2
						c8.9-31.8,27-57.4,52.6-77.9c4.5-3.6,8.8-7.4,13.7-10.3c2.4-1.4,4.5-2.6,7.2,0.2c1.5,1.6,4.7,1.6,6.5,3.2
						c3.9,3.5,8.5,3.3,13.2,3.3c13.3-0.1,26.3-3.1,39.4-4.8c11.8-1.6,23.4-4.2,35.1-6.2c10.2-1.7,19.6,1.3,28.9,4.9
						c4.4,1.7,8.7,3.8,12.9,5.9c11.2,5.5,23,5.2,34.9,3.7c1.3-0.2,2.6-0.6,3.5,0.6c0.9,1.1,0.8,2.4-0.1,3.5
						c-0.4,0.5-0.3,0.9,0.1,1.4c1,1.2,0.6,2.7,0.7,4.1c0.3,2.9-0.7,5.7-0.8,8.5c-0.1,3.3-1,4.4-4.3,4.8
						C657,101.4,655.4,99.1,653.9,99.2z"/>
					<path class="st0" d="M651.6,288.1c0.2-1.9,0.4-4,0.8-6.2c0.4-2.4,2-3.6,4.4-3.5c2.3,0.1,4.7,0.3,7,0.7c3,0.5,4.2,2.4,3.2,5.3
						c-1.1,3.1-2.4,6.1-4.8,8.4c-2.1,2-4.4,3.4-7.3,2.2C652.1,293.8,651.7,291.1,651.6,288.1z"/>
					<path class="st0" d="M405.5,282c0,1.3-0.2,3.3-1.1,5.1c-1.9,3.6-6.1,3.7-8.3,0.3c-1.8-2.6-1.8-5.8-2.9-8.7
						c-0.5-1.3,0.7-2.2,1.9-2.6c1-0.4,2.1-0.6,3.1-0.8C404.2,274.2,405.5,275.2,405.5,282z"/>
					<path class="st2" d="M489.8,561.1c-7.7,0-15.4-2.8-23.1-2.7c-16.3,0.2-31.9,2.7-47.8,6.5c-1.2,0.3-3,1.8-4.2,2
						c-0.8,0.1-1.8,2.2-2.2,0.9c-0.2-0.7-0.8-1.4-0.3-2.1c0.7-0.9,1.5-0.1,2.2,0.1c0.6,0.1,1.5,0.2,1.8-0.1c2.1-2.2,5-1.4,7.5-1.7
						c2.7-0.4,5.1-1.1,7.5-2.4c6.5-3.5,7-10.2,1.1-14.7c-0.9-0.7-1.5-1.5-2-2.5c-1.8-4.3-4.3-5.5-8.9-4.4
						c-5.9,1.5-10.4,4.6-12.2,10.8c-0.1,0.5-0.4,1-0.8,2.1c-1.3-6.3-2.2-12-3.8-17.6c-3.7-13.2-7.4-26.4-9.7-39.9
						c-2.4-14.4-8.1-27.6-12.6-41.3c-4.2-12.6-8.5-25.1-14.6-37.1c6.9,0.7,11.9-3,17-6.1c5.4-3.2,9.2-7.9,11.5-13.8
						c0.6-1.7,2.4-5.7,0.6-6.7c-1.7-0.9-3.7-1.1-4.5,0.5c-0.4,0.7-2.5,0.7-3.2,0.8c-7.6,1.2-14.7,4.1-22.3,5
						c-1.9,0.2-2.7,4.6-4.4,5.4c-1.9,0.9-2.1,0.3-2.6-1.1c-1.7-5.3-3.4-10.6-5.6-15.6c-1.2-2.7,2.4-5.9-1.6-5.6
						c-0.8,0.1-3.5-2-3.7-2.7c-0.4-1.5-2.7-1.6-3.1-3.1c-1.4-5.1-1.4-5.1,3.7-7c20-7.5,39.8-15.3,60.4-20.9
						c11.7-3.2,23.6-4.9,35.6-6.4c5-0.6,10.3-0.5,15.1-1.9c11.4-3.3,22.7-0.5,33.8,0.6c17.6,1.8,35,5,52.5,7.2
						c15.6,2,30.7,5.7,45.4,10.9c13.8,4.9,27.7,9.9,41.3,15.4c11.4,4.6,22.4,10.6,32.6,17.5c2.6,1.8-6.4,0.6-3.3,2.2
						c-1.6,1.4-2.6,4.5-4.2,4c-2.7-0.9,1.1-0.6-1.5,1.8c-9.5,8.4-15.1,17.7-23,27.7c-0.4,0.6-0.9,1.1-1.9,1.4c0-0.9,0-1.7,0-2.6
						c-0.1-1.4-0.9-2.4-2.3-2.6c-1.3-0.2-2.4,0.3-2.8,1.6c-0.3,1.4-1.2,1.9-2.5,2.5c-3.7,1.7-6.6,4.2-7.7,8.3c-0.5,1.8-1.6,3-3,4
						c-1.5,1.1-2.3,2.6-1,4.2c1.3,1.5,3,1,4.4-0.1c2.1-1.6,3.8-3.5,4.6-6.2c1-3.5,3.8-5.4,7.4-5.4c-1.4,2.6-3.4,4.7-5.3,6.8
						c-4.1,4.5-7.1,9.6-9.9,14.9c-3.8,7.1-7.8,14.1-11.5,21.3c-4.2,8.3-8.9,16.4-12.4,25.1c-2,4.9-4.5,9.5-6.8,14.3
						c-1.4,2.8-2.1,5.8-2.1,8.9c-0.1,8.4-1.7,16.4-4.9,24.1c-1.3,3-1.7,6.2-2.5,9.7c-3.3-2.9-6.4-2.2-9.4,0.2
						c-1.3,1.1-2.9,1.4-4.6,1.4c-2.6,0-5.3-0.1-7.9,0.1c-3.3,0.1-5.7,4.8-2.8,5.3c2.3,0.4,4.4-0.1,3.8,1.3c1.8-2,6.3-1.6,7.5,0.7
						c1.3,2.5,8.3,3.7,10.8,2.7c1.6-0.6,1.6-1.1,0.6-2.3c-1.7-2.3-0.4-3.1,1.8-4.5c-0.2,3-0.7,5.6-0.2,8.2c0.1,0.6-0.5,0.6-0.9,0.7
						c-0.5,0.1,0.4-3.9,0.2-3.6c-2.2,2.8-5.1,0.7-7.4-0.1c-7.9-2.7-12.9-2.7-21.2-3.8c-1-0.6-3.7-0.8-4.9-1.8c1.3-1.5,0.5,2.8,2,2.2
						c1.7-0.7,2.8-1.9,3.4-3.7c0.7-2.1,1.9-3.9,2.7-6c3.2-8.3-2.7-12-8.8-12c-2.9,0-4.8,1.8-5.6,4.4c-0.9,2.8-2.9,4.1-5.6,4.9
						c-5.1,1.5-6.6,4.7-4.6,9.6c0.3,0.8-0.6-1.3-1-0.3c-1.1,0.6-0.5,0.9-1.6,0.6c-0.7,0-1.7-0.1-2.4-0.1c-0.6-0.3-0.9,1.7-0.9,1.1
						c1.4-4.6,1-8.6-3.3-11.6c-1.2-0.8-1.5-2.2-1.3-3.7c0.1-0.8,0.5-1.6,0.7-2.4c1.3-5.3-1.2-8.5-6.6-8.6c-5.8-0.2-10.1,2.3-13.3,7
						c-0.8,1.2-1.3,2.5-0.7,3.9c2.1,5,1.2,10,0.4,15C491.9,561.7,490.8,561.4,489.8,561.1z"/>
					<path class="st0" d="M491.8,560.1c0.9-0.2,2.1,0.3,2.3-1.2c3.1-0.2,6.3,0.3,9.3-1c0.6-0.3,1.2-0.1,1.8,0.2
						c2.4,1.2,4.9,1,7.4,0.1c0.7-0.3,1.5-0.7,2,0c1.1,1.8,2.9,1.6,4.5,1.8c0.2,0.4,0.4,0.7,0.6,1.1c-8.9-0.2-17.7-0.4-26.6-0.6
						C492.6,560.5,492.2,560.2,491.8,560.1z"/>
					<path class="st0" d="M543.7,561.8c-1.3,1.1-3,0-4.4,0.7c0.8,0.7,2-0.1,2.8,0.8c-6.8-0.3-13.5-1.2-20.3-2
						c1.1-0.3,2.4,0.4,3.4-0.6c2.7-0.6,5.5-1,8.3-0.3c2.3,0.6,4.6,0.6,7,0.6C541.5,560.9,542.8,560.7,543.7,561.8z"/>
					<path class="st3" d="M752.1,105.7c-1,0.5-1.9,1.1-2.9,1.6C749.7,105.8,750.9,105.8,752.1,105.7z"/>
					<path class="st0" d="M482.6,543.3c-2.8,0.1-5.1-1.5-5.6-4.3c-1-6.3-4.3-8.8-10.6-8.1c-1.4,0.2-3.1-0.1-4.5-0.7
						c-2.5-1.1-3.5-2.9-2.7-5.2c0.9-2.5,3.5-4.2,5.7-3.4c1.7,0.6,3.6,0.8,5.1,0.2c3.8-1.4,7.7-1.1,11.6-1c4.7,0.1,9.4-0.7,14.1-0.1
						c2.5,0.3,4.9,0.9,5.9,3.6s-0.5,4.7-2.1,6.6c-0.2,0.3-0.5,0.6-0.8,0.8c-3.7,2.1-6.9,4.5-8.9,8.7
						C488.7,542.7,485.7,543.3,482.6,543.3z"/>
					<path class="st0" d="M519.1,560c-1.9,1-3.6,1.2-4.7-1.2c-0.5-1.2-1-0.3-1.6-0.1c-2.7,1.1-5.3,1.4-8-0.2
						c-0.2-0.1-0.6-0.5-0.6-0.4c-1.9,1.7-4.3,0.5-6.2,1.3c-1.7,0.6-2.7,0.3-3.9-0.5c0.8-5.4,1-10.7-0.9-15.9
						c-0.3-0.8,0.3-1.7,0.8-2.5c3.3-5.5,10.3-8.7,16.5-7.6c4.3,0.8,6.7,5.1,5,9.7c-1.1,2.8-1,4.5,1.8,6.3
						C520.8,551,521.3,555.9,519.1,560z"/>
					<path class="st0" d="M517.9,389.2c0,0.1,0,0.2,0,0.3c-2.2,4.2,0.6,6.5,3.1,9.3c3.4,3.8,3,8.7-0.5,11.7c-0.9,0.7-1.8,1.4-3,1.1
						c-5.6-1.7-11.5-0.9-17.1-1.9c-1.1-0.2-2.2-0.2-3.2-0.5c-1.4-0.4-2.7-0.7-3.9,0.7c-1,1.1-2.4,1.3-3.6,0.1
						c-1.1-1.1-1-2.3-0.2-3.4c0.9-1.2,1.5-2.5,2.1-3.8c1-2.4,3.3-3.2,5.5-3.5c2.7-0.4,3.6-1.8,3.8-4.3c0.6-6.3,8.7-11.2,14.7-8.9
						C517.3,386.5,517.9,387.6,517.9,389.2z"/>
					<path class="st0" d="M473.9,543.1c-0.1,2.5-0.3,5.8-1.6,8.8c-1.2,2.8-3.2,4.3-6.5,4.6c-5.6,0.4-11.2,0.4-16.3,3.6
						c-1.9,1.2-4.5,0.2-6.7,0.7c-1.4,0.3-2.1-1.5-2-3c0.4-5.2,3.5-8.7,8.6-9.6c4.5-0.8,6-2.4,6.5-6.9c0.7-5.3,4-8.9,8.4-9.1
						C471.1,531.8,473.9,534.8,473.9,543.1z"/>
					<path class="st0" d="M447.3,402.6c-4.4,0-6.1-1.3-7.2-4.8c-0.7-2.2-1.4-4.3-2.1-6.5c-0.5-1.5-1.2-2.8-2.6-3.6
						c-1.4-0.8-2.2-2.1-1.2-3.7s2.6-1.5,3.8-0.7c1.7,1.1,3.1,0.8,4.9,0.4c6-1.1,12.2-2.1,18.4-1.8c5.2,0.3,7.4,3.7,5.7,8.6
						c-1.4,4.2-4.2,7.2-8.1,9.1C455.1,401.6,450.9,402.2,447.3,402.6z"/>
					<path class="st0" d="M563.8,395.3c2.5-0.1,4.6,0.4,6.6,1.7c2.9,1.8,6.1,2.7,9.2,4c2.4,1,3.3,3,4.1,5.1c0.4,1.1,0,2.2-1.1,2.8
						c-1,0.6-2.1,0.4-3-0.3c-3-2.3-6.8-1.1-8.2,2.6c-2.1,5.4-3.1,6-9,4.6c-1.4-0.3-2.5-0.6-4,0.6c-2,1.7-5.2-0.1-5.8-3.2
						c-0.3-1.9-1.2-3-2.7-4.1c-2.6-2-2.7-4.8-0.3-6.7c2.8-2.2,5.7-4.1,8.7-6C560,395.3,562,395.2,563.8,395.3z"/>
					<path class="st0" d="M608.5,434.6c-3-0.3-6.4-0.5-8.4-4.1c-0.3-0.5-0.6-0.8-1.3-0.8c-3.6,0.1-5.6-1.8-5.3-5.2
						c0.3-3.4,3-7.9,7.8-7.4c3.7,0.3,6.9-0.9,9.6-3.5c2-1.9,4.3-3.7,7.4-3.7c1.6,0,2.9,0.5,3.5,2c0.6,1.6,1.7,2.3,3.2,2.6
						c1.4,0.3,2.3,1.1,2.3,2.6c0,1.6-0.8,2.6-2.4,2.7c-1,0.1-1.4,0.8-1.9,1.4c-1,1.1-2,2.4-3.2,3.3c-2.1,1.5-3.7,3-4,5.9
						C615.4,433.4,612.9,434.7,608.5,434.6z"/>
					<path class="st0" d="M543.7,561.8c-4.4-0.1-8.9-0.1-13.2-1.2c-1.7-0.4-3.5,1.6-5.3,0c-4-5.9-2.3-10.8,4.5-12.6
						c2.2-0.6,3.6-1.7,4.4-3.9c1.9-5,5.8-6.5,11-4.6c4.7,1.7,7,6,5.4,10.6c-1.1,3.2-2.5,6.2-3.9,9.3
						C546,560.7,545,561.4,543.7,561.8z"/>
					<path class="st0" d="M536.8,403.6c-1.1,0-2.2-0.1-3.3,0c-2.5,0.3-4.2-0.7-5.5-2.7c-1.4-2.2-2.9-4.4-4.9-6.2
						c-1.5-1.3-2.1-3.2-1.9-5.2c0.3-3.8,2.4-5.1,6.1-4.1c5.1,1.4,10.3,2.1,15.5,2.2c2.4,0.1,4.7,0.4,6.8,1.7c3.3,2.1,3.7,5.5,1,8.2
						C546.8,401.3,543,405.1,536.8,403.6z"/>
					<path class="st0" d="M526.1,544.8c-4.8-0.1-8.8-3.7-9.2-8.5c-0.1-1.8-1.1-2.8-2.6-3.5c-1.5-0.6-3.1-1-4.6-1.6
						c-2.3-1-3.2-2.8-2.5-5c0.7-2.3,2.1-3,4.9-2.4c1,0.2,2.2,0.2,3.2,0.2c5.6-0.1,11.1,0.3,16.4,1.7c1.2,0.3,2.5,0.7,3.5,1.3
						c2.7,1.6,3.3,4.3,1.2,6.6c-1.8,1.9-2.9,4.1-3.8,6.5C531.5,543.3,529.2,544.8,526.1,544.8z"/>
					<path class="st0" d="M561.9,554.7c-2.8,0-5.1-0.7-7.2-2.2c-2.2-1.5-3.2-3.5-2.6-6.3c1.2-5.6,0.7-6.4-4.8-8.6
						c-1.3-0.5-2.7-1.1-3.5-2.4c-0.9-1.4-1.1-2.9,0.3-4.2c1.4-1.3,2.5-0.5,3.8,0.5c2.8,2.1,6.5,1.3,8.9,4c0.5,0.6,0.8,1.7,1.2,1.4
						c2.1-1.4,4.4-1.3,6.5-0.2c3.4,1.8,6.7,3.6,9.9,5.6c1.8,1.1,3.1,2.8,2.5,5c-0.6,2.2-2.6,3-4.7,3c-2.4-0.1-4.4,0.6-5.9,2.6
						C565.1,554.4,563.5,554.8,561.9,554.7z"/>
					<path class="st0" d="M436.2,402.8c0.5,6.4-2.3,9.1-9.2,9.8c-1.7,0.2-3.1,0.5-4.5,1.5c-2.2,1.6-5.3,1.9-6.8,0.6
						c-2-1.8-1.6-4.1-1-6.3c0.2-0.8,0.5-1.6,1-2.2c2.3-2.9,3.8-6,3.7-9.9c0-2.4,1.2-4.6,3.9-5.4c3.5-1,6.7-0.4,9.5,1.8
						C436.2,395.3,436.3,399,436.2,402.8z"/>
					<path class="st0" d="M478.1,392.1c0.7,0,1.5,0,2.2,0c2.2,1,4.2,2.3,6.2,3.8c1.6,3,0.9,6,0,9c-0.6,2.2-2.6,2.9-4.6,1.7
						c-1.4-0.9-2.4-0.6-3.7,0c-3.2,1.6-6.5,2.5-10.2,1.5c-3.5-0.9-6.6,0.8-9.7,2c-2.1,0.8-4.1,1.5-6.3,1.3c-1.8-0.2-3.2-0.9-3.3-2.9
						c-0.1-1.9,1.1-2.7,2.8-3.2c3.1-0.7,5.9-2.2,9.2-2.2c3.5-0.1,6.2-1.9,8.2-4.5C471.2,395.3,474.4,393.4,478.1,392.1z"/>
					<path class="st0" d="M490.5,392.5c-0.8-0.2-2.3-0.5-3.6-1c-2.8-0.9-5.5-1.3-8.5-0.8c-3.5,0.7-5.8-1.3-6-4.9
						c-0.1-1.7-1.5-3.3-0.2-5c1.3-1.7,3.1-0.1,4.5-0.6c4.8-1.6,9.7-0.7,14.6-0.7c1.3,0,2.7,0.2,4,0.5c2.4,0.5,3.6,2,3.7,4.4
						C499.3,388.2,495,392.6,490.5,392.5z"/>
					<path class="st0" d="M402.8,407.2c1.9,0,3.7,0.1,5.3,1.1c2,1.2,2.9,3,2.4,5.3c-0.5,2.2-2.3,2.5-4.2,2.6
						c-6.6,0.2-12.5,2.8-18.3,5.7c-0.4,0.2-0.7,0.5-0.9,0.9c-0.8,1.3-1.8,1.8-3.2,1.3s-2.2-1.6-2.3-3.1c-0.1-2.1,0.7-3.8,2.1-5.1
						C389,410.6,395.4,407.6,402.8,407.2z"/>
					<path class="st0" d="M407.4,405.3c-2.3,0.4-4.8-1-7.4-1.3c-2-0.2-2.6-2.6-1.3-4.3c0.7-0.9,1.3-1.6,1.4-2.8
						c0.4-4.6,4.6-8.3,8.9-7.9c4.8,0.4,7.9,4.2,7.6,9.2C416.4,402.7,412.9,405.4,407.4,405.3z"/>
					<path class="st0" d="M491.3,552.9c0,5-4.4,7.9-9,5.8c-2.1-0.9-4.4,0.3-6.4-1.3c-1.2-0.9-1.8-1.7-1.6-3.1
						c0.9-4.8,5.2-8.7,9.9-9.2C489,544.8,491.3,547.4,491.3,552.9z"/>
					<path class="st0" d="M604.7,412.2c-7.1,0.5-13.1-2.1-18.6-6.4c-1.7-1.3-3-2.9-2.8-5.3c0.1-1.3,0.7-2.3,2-2.5s2.4,0.3,2.8,1.5
						c0.8,2.6,2.6,2.5,5,2.8c4.8,0.5,9.6,1.8,13.8,4.4c1.2,0.8,1.6,2.2,1.1,3.6C607.5,412.1,606.2,412.5,604.7,412.2z"/>
					<path class="st0" d="M534.6,405.7c5.3-0.4,9.1,3,13.3,5.4c1.2,0.7,1.6,2.2,0.8,3.6c-0.8,1.4-2.1,1.7-3.5,1.2
						c-1.2-0.4-2.3-1.1-3.4-1.7c-3.8-1.9-7.8-2.2-11.9-1c-1.8,0.5-3.4,0.5-4.2-1.3c-0.7-1.7,0-3.3,1.6-4.1
						C529.7,406.7,531.9,405.3,534.6,405.7z"/>
					<path class="st0" d="M524,354c-0.9,4.7-1.8,9.7-2.4,14.9c-0.2,1.6-1.2,2.9-3.1,2.7c-2-0.3-2.4-1.8-2.2-3.4
						c1.8-8.4,3.1-14.2,2.6-15.5c0.4-1.6,1.3-2.7,3.1-2.3C523.8,350.6,524.1,352,524,354z"/>
					<path class="st0" d="M565,378c1-5.1,1.8-10.2,3.6-15c0.6-1.6,1.9-2.5,3.7-1.9s1.7,2.3,1.2,3.7c-1.5,4.6-2.2,9.3-3.1,14
						c-0.3,1.7-1.3,2.6-3,2.4C565.6,381,565.2,379.5,565,378z"/>
					<path class="st0" d="M493.3,366.1c0.9-4.7,1.8-9.4,2.8-14.1c0.3-1.4,1.3-2.2,2.8-1.9c1.7,0.3,2.4,1.5,2.1,3
						c-0.8,4.7-1.6,9.5-2.6,14.2c-0.3,1.5-1.5,2.3-3.1,2C493.8,368.9,493.3,367.7,493.3,366.1z"/>
					<path class="st0" d="M550.2,359.7c-1.1,4-2.3,8.5-3.7,12.9c-0.4,1.3-1.7,1.9-3.2,1.5c-1.6-0.5-2.1-1.8-1.7-3.3
						c1.1-4.1,2.2-8.2,3.4-12.3c0.4-1.5,1.6-2.2,3.2-1.9C549.6,356.8,550,358,550.2,359.7z"/>
					<path class="st0" d="M424,535.2c-2.4,0-4.4-0.3-6.3-1.3c-1.5-0.8-2.1-2.1-1.4-3.7c0.6-1.5,2-1.6,3.2-1.2c3.2,1,6.2,0.9,9.1-0.7
						c1.5-0.8,3.1-0.6,4,1.1c0.9,1.8-0.2,2.9-1.7,3.7C428.6,534.4,426.3,535.5,424,535.2z"/>
					<path class="st0" d="M596.9,369.6c-1,4.2-1.8,8.2-2.8,12.1c-0.4,1.4-1.6,1.9-3,1.7c-1.4-0.2-2.1-1.3-2-2.5
						c0.5-4.2,1.3-8.4,3-12.3c0.5-1.2,1.6-1.8,2.9-1.4C596.4,367.5,596.8,368.6,596.9,369.6z"/>
					<path class="st0" d="M478.7,394.2c-0.1,0.6-0.4,0.9-1,1.1c-2.5,1.1-5,2-6.6,4.5c-1.5,2.2-3.9,3.7-6.1,5.1
						c-1.4,0.9-2.6,0.1-3.9,0.2c4-1.1,6.6-4,9.3-6.8C472.7,396.1,475.3,394.3,478.7,394.2z"/>
					<path class="st0" d="M487.1,398c-2.5-0.5-4.5-1.9-6.2-3.8C483.8,394.2,485.9,395.3,487.1,398z"/>
				</g>
				<g>
					<path class="st1" d="M338.6,296c0.5-1,0.8-1.4,0.9-1.8c6.5-18.1,17.4-33.7,28.2-49.3c2.3-3.4,3.5-6.2,3.4-10.1
						c-0.1-4.5,0.5-9.1,0.8-13.6c0-0.2,0-0.4,0.1-0.5c0.2-2,0.8-3.8,3.2-3.5c2.2,0.2,2.6,2,2.5,3.9c-0.2,2.4-0.2,4.7-0.5,7.1
						c-1.2,8.7-0.1,17.4,0.8,26.1c0.4,4.1,1.1,8.1,1.5,12.2c1,9.2,5.7,17,9.9,24.9c1.8,3.5,5.1,4.7,8.2,3.8c1.6-0.4,1.8-0.6,3.2-2.8
						c-3.2,0.9-6,0.6-8.6-1.4c-2.5-1.9-3.3-4.7-4-7.5c0-0.1,0-0.2-0.1-0.3c-2.2-8.8,0.6-12.4,9.7-12.8c4.3-0.2,4.2-0.2,4.1-4.5
						c-0.3-8.6-1.5-17.2-2.4-25.8c-1.2-11.6-0.1-23,2.7-34.3c4.3-17.8,7.9-35.8,9.9-54.1c0.8-7,3.3-13.4,6.9-19.4
						c11.1-18.5,24.1-35.4,40.2-49.9c5.3-4.8,10.2-9.9,16-13.9c3.4-2.4,7.4-3.7,11.2-5.3c3-1.2,5.2,0.6,6.9,3c1.2,1.6,2.1,3.5,4.6,3
						c0.4-0.1,1.1,0.3,1.5,0.6c5.9,5.1,12.9,5.1,19.9,3.8c17.1-3.1,34.1-6.5,51.1-9.7c13.8-2.6,27.3-2.7,40.2,3.9
						c3.1,1.6,6.6,2.5,9.9,3.8c11.3,4.7,23.1,6.1,35.2,6.1c3,0,6,0,9,0c1.4,0,2.8,0.3,3.3,1.8c0.5,1.4,0.1,2.6-1.1,3.3
						c-1.3,0.8-0.7,2-0.6,2.9c1.8,17,2.9,34.1,2.5,51.2c-0.4,20.2-0.3,40.4-1.5,60.5c-1.3,20.3-3.6,40.5-7.2,60.6
						c-1,5.6-1.7,11.3-2.7,16.9c-0.3,1.5,0.1,1.9,1.6,2c2.2,0.1,4.3,0.3,6.5,0.5c3.9,0.3,5.3,2.2,4.5,6c-0.6,2.9-1.6,5.6-3.2,8.1
						c-2.2,3.4-5.3,5.4-9.5,5.5c-0.6,0-1.4-0.4-1.7,0.3c-0.3,0.7,0.3,1.4,0.9,1.8c1.4,1.2,3,1.7,4.8,0.8c3.2-1.5,5.5-3.7,7.1-6.8
						c4.2-8.4,7.2-17.2,9.3-26.4c1.3-5.4,2.8-10.7,4.5-16c1.3-4.2,2.2-4.4,6.5-4.2c3,0.2,6-0.2,9,0.1c2.9,0.3,5.6,1.5,8.4,2
						c1.6,0.3,1.8,2,2.2,3.5c3.1,12,3.6,24.2,3.8,36.5c0.2,11.3,1.3,22.5,0.1,33.8c-0.7,6.6-1.7,13.1-3.1,19.6c0.3,0,0.6,0.1,0.6,0
						c9.8-12.1,19.5-24.2,26-38.5c4-8.9,7.5-18,8.1-27.9c0.4-7.6,0.7-15.3,0-22.9c-0.9-11.2-1.3-22.5-3.3-33.6c-0.5-2.7-1-5.4-1.8-8
						c-2.6-8.1-3.5-16.5-3.6-25c-0.5-28.7,0.9-57.4,1.7-86.1c0.2-8.1,1-16.1,1.5-24.2c0-0.7,0.2-1.4,0.3-2.2
						c0.3-1.7,0.9-3.1,2.9-2.8c2,0.3,2.3,1.8,2.2,3.5c-0.4,6.5-0.8,13.1-1.1,19.6c-0.3,7.6-0.6,15.3-0.8,22.9
						c-0.4,19.3-0.7,38.5-1.3,57.8c-0.4,15.1,1.7,29.9,5.6,44.4c1.8,6.9,1.9,14,2.8,21c1.7,13.4,2,26.9,0,40.2
						c-2.2,14.5-8,27.7-16,39.9c-6.5,10-13.8,19.4-21.4,28.6c-0.2,0.2-0.3,0.5-0.5,0.6c-6,3.4-6.7,9.8-8.2,15.5
						c-3.8,14-10.1,26.8-16.8,39.5c-1.6,3-4.4,4.7-7.2,6.4c-15.3,9.2-28,21.1-37.9,35.9c-20.8,31.1-35.7,64.6-41.7,101.8
						c-2.1,12.8-4.3,25.6-6.5,38.4c-0.4,2.2-1.9,3.3-4,2.7c-11.3-2.9-22.9-4.1-34.4-5.7c-8.1-1.1-16.1-2.8-24.3-3.5
						c-19.3-1.6-38.7-1.6-58-1.7c-17.2-0.1-34.3,1.8-51.3,4.5c-4.3,0.7-8.5,2-12.7,2.9c-2.5,0.6-5,0.8-7.6,0.2
						c-2.2-0.5-3.6-1.7-4.2-4.1c-7.5-29.7-13.7-59.8-23.7-88.9c-6.8-19.9-11.4-40.6-19.9-59.9c-3.9-8.9-7.7-17.8-11.5-26.8
						c-4-9.5-9-18.5-15.2-26.7c-3.6-4.7-4.6-9.8-3.7-15.4c2.7-17.4,5.1-34.9,10.9-51.6c0.5-1.5,1.1-3.1,1.6-4.6
						c0.8-2.6,2.3-5.2-0.6-7.7c-1.3-1.1-1.2-3.2-1.5-4.9c-3.2-17.2-4.3-34.5-2.9-51.8c1.7-21,5.7-41.5,11.1-61.9
						c4.5-16.9,9.1-33.6,16.5-49.6c3.2-6.9,6.8-13.5,10.3-20.2c8-15.5,19.6-28.1,31.8-40.3c4.1-4.1,8-8.5,11.5-13.1
						c2.6-3.5,6.4-3.7,10-4.7c1-0.3,2,0.3,2.4,1.3s0.3,2-0.5,2.8c-0.3,0.3-0.5,0.5-0.9,0.7c-11.2,4.8-18.4,14-25.6,23.1
						c-15.6,20.1-29.2,41.1-38.4,64.7c-7.9,20.3-12.9,41.4-17.2,62.7c-3.8,18.7-6.3,37.6-5.5,56.8
						C335.6,275.9,336.7,285.7,338.6,296z M374.3,271.2c-10.6,23.6-21.1,47-22.4,73.4c0.4-0.1,0.8-0.1,1.1-0.3
						c8.4-4,17-7.3,25.7-10.5c15.3-5.5,30.7-10.8,46.8-13.4c22.8-3.6,45.7-2.2,68.6-0.8c16.9,1.1,33.6,3.8,50.2,6.7
						c30.2,5.4,59.7,13.3,88.2,24.7c12.8,5.1,26.2,8.9,37.5,17.1c2.1,1.5,3,0.9,3.9-1.2c3.1-7.4,4.5-15.1,5.9-22.9
						c2.8-15.7,4.9-31.6,6.5-47.5c1-10.7,2.3-21.3,1.9-32.1c-0.1-2.7-0.2-5.4-1.4-8.1c-0.2,0.4-0.4,0.6-0.5,0.8
						c-0.3,1-0.7,2.1-1,3.1c-2.9,11-5.3,22.1-10.5,32.3c-2.3,4.5-5,8.3-8.9,11.5c-5.4,4.4-15.8,1-16.2-6.4c-0.1-1.9-0.2-3.8-0.1-5.7
						c0.6-11,2.6-21.8,4.4-32.6c3.2-18.8,6-37.7,7.1-56.7c1.9-32.9,2.5-65.7,1.3-98.7c-0.1-2.2-0.7-2.8-2.8-2.7
						c-10.3,0.6-20-1.9-29.3-6.1c-5.9-2.6-11.9-5-17.9-7.4c-11.3-4.6-22.9-7.7-35.3-6.7c-9.9,0.8-19.6,2.8-29.1,5.6
						c-7.1,2.1-14.3,4.2-21.8,4.6c-9.7,0.5-19.3-0.4-28.3-4.1c-4.8-2-9-1.5-13,1.8c-0.6,0.5-1.2,0.8-1.8,1.3
						c-27.2,22.1-49.1,48.7-65.6,79.6c-1.1,2.1-3,3.8-3.4,6.3c-1.7,9-3.1,18.1-5.5,26.9c-3.9,14.4-4.9,28.9-2.7,43.7
						c1.8,12.5,2.2,25.2,1.9,37.8c-0.1,2.6-0.3,5.3-1.1,7.8c-1.4,4.8-5,7.2-9.5,8.5c-4.4,1.2-7.6-0.9-10.2-4.1
						c-1.1-1.4-2.2-2.9-3.1-4.5C379.9,285.6,376.1,278.9,374.3,271.2z M485.2,411.2c-27.3,0.2-48.9,1.9-70.3,5.9
						c-12.3,2.3-24.4,5.5-36,10.4c-2,0.8-2.5,1.8-1.6,3.9c2.6,6.3,5.4,12.5,8.4,18.6c3.8,8,7,16.1,9.1,24.7
						c4.4,18.1,8.9,36.1,13.4,54.2c0.3,1.3,0.6,1.8,2.1,1.3c5.5-1.9,11-3.7,16.6-5.4c1.5-0.5,2.3-1.1,2.4-2.7
						c0.2-2.5,0.6-5.1,0.9-7.6c0.5-3.4,3.5-6.2,6.8-6.6c5-0.6,10-0.1,15,0.4c4.7,0.5,5.8,2.2,5.2,7c-0.4,3.4-0.4,3.3,3.1,3
						c18-1.5,35.9-1.5,53.8,1c20.3,2.8,39.3,9.3,57.7,18.2c1.4,0.7,2,0.8,2.3-1.1c4-22.3,12.3-43,22.8-63c5.1-9.8,11-19.2,16.6-28.8
						c0.5-0.8,1.5-1.6-0.1-2.4c-7.2-3.6-14.3-7.5-21.8-10.6c-1.8-0.8-2.1-0.2-2.4,1.5c-0.6,3.1-1.3,6.2-2.1,9.3
						c-0.5,2.4-2.1,3.3-4.4,2.9c-5-0.9-10-1.7-15-2.7c-3.8-0.8-4.9-2.5-4.4-6.2s0.9-7.4,1.4-11.1c0.3-2.2-0.2-3.3-2.6-4
						C535.1,414.5,507.5,411.6,485.2,411.2z M482,339.4c-28.6,0.6-56.9,3.2-84.6,10.9c-15.7,4.4-30.9,10.5-46.4,15.9
						c-2.5,0.9-2.6,2.3-1.9,4.3c0.4,0.9,0.9,1.8,1.4,2.7c4.2,6.9,8.2,13.9,10.8,21.6c0.5,1.5,1.2,1.4,2.4,1
						c32.7-11.1,66.5-15.8,100.8-18c20.5-1.3,40.8-0.4,61.2,2.6c25.9,3.8,51.2,9.7,75.5,19.5c10.7,4.3,21.3,9,31.1,15.1
						c2.5,1.5,3.4,1.2,5.1-0.8c6.9-7.9,13.7-15.8,21.8-22.5c1.9-1.6,1.4-2.3-0.3-3.4c-19.2-11.9-38.6-22.8-61.1-27.9
						c-27.1-6.2-53.5-15.1-81.3-18C505,341.2,493.6,339.3,482,339.4z M586.2,583.2c1.1,0.3,1.4-0.5,1.6-1.7
						c0.7-3.9,1.5-7.8,2.2-11.8c2.4-14.3,4.4-28.7,7.9-42.8c5.2-21.1,14.2-40.7,24.2-60c12.9-25,29.7-46.3,54.4-60.6
						c1.4-0.8,1.5-1.4,0.4-2.6c-2.6-2.9-5.4-5.7-8.4-8.2c-2.8-2.3-2.9-2.4-5.4,0.4c-6.1,7-12.8,13.4-19.1,20.2
						c-5.8,6.3-12,12.2-17.3,18.9c-6.2,7.8-10.9,16.5-15.8,25.1c-10,17.1-18.5,34.7-25,53.5c-5.9,17.2-7.6,35.1-10.5,52.8
						c-0.6,3.4-0.9,3.8-4.3,3.1c-1.8-0.4-3.5-1-5.2-1.7c-2.8-1.1-5.7-1.9-8.6-2.5c-12.3-2.4-24.6-3.5-37.1-3.3
						c-15,0.3-30-0.2-45-1.2c-11.7-0.8-23.3-0.5-34.7,1.7c-8.5,1.7-16.9,3.4-25.2,5.8c-3.5,1-5.1,0-5.8-3.4
						c-3.6-17.1-6.3-34.5-10.9-51.4c-4-14.7-6.6-29.9-11.5-44.3c-6.6-19.5-15.9-38-24.2-56.8c-1.8-4.2-4.1-8.2-5.4-12.5
						c-3.1-10.1-8.6-19-13.4-28.2c-0.6-1.2-1.2-1.5-2.6-0.9c-3.4,1.5-6.8,3.1-10.5,3.8c-1.7,0.3-1.8,0.9-0.8,2.3
						c4,5.6,8.1,11.2,11.1,17.4c12.2,24.7,23.1,49.9,30.5,76.6c5.8,21.1,13.5,41.6,18.8,62.9c3.6,14.3,6.1,29,10.6,43.1
						c1.7,5.2,1.6,5.3,7,4c0.2,0,0.4-0.1,0.5-0.1c16.7-5.1,34-5.6,51.2-7.1c10.2-0.9,20.4,0.2,30.5,0c24.1-0.5,47.9,1.9,71.6,5.8
						C569.9,580.6,577.9,581.6,586.2,583.2z M371.7,249.1c-1.2,0.7-1.5,1.7-1.9,2.5c-3.6,6.4-7.3,12.8-10.8,19.3
						c-9.2,17-17.6,34.4-22.8,53.2c-3.7,13.4-5.6,27.2-7.8,40.9c-0.8,4.8-0.6,5.1,4.1,3.4c3.9-1.4,7.7-3.5,11.7-4.5
						c7-1.8,14-3.8,20.7-6.7c20.1-8.7,40.6-16.3,62.6-19c13.7-1.7,27.3-3.8,41.1-4.6c22.3-1.3,44.2,2.2,66.1,5.8
						c22.2,3.7,44,9.6,65.8,15.2c13.8,3.5,27,8.5,40,14.1c14.4,6.1,26.5,15.7,38.1,26c2.6,2.3,4.7,1.9,6.2-1.3
						c1-2.1,2.2-4.2,2.9-6.4c4.5-12.8,8.6-25.8,11.5-39.1c2.3-10.6,5.6-21.1,6.4-32c1.4-19.1,0.5-38.1-2-57.1
						c-0.7-5.3-2.9-7-8.2-6.8c-0.8,0-1.5-0.1-1.4,1.1c0.5,4.1-0.6,8.2-0.4,12.2c0.7,14.1-1.2,28-3.2,41.8c-2.3,16-4.9,32-7.4,47.9
						c-1.1,6.6-2.2,13.3-5.5,19.3c-1.5,2.8-2.1,3.1-4.9,1.5c-15.1-8.4-31.4-14.3-47.4-20.6c-20.4-8.1-41.5-13.8-62.7-18.9
						c-34.2-8.1-69-12.3-104.3-12c-13.5,0.1-26.9,0.4-40.1,3.7c-22.4,5.6-44.3,12.7-65.3,22.5c-3.3,1.6-7.6-0.9-7.1-4.3
						c1.3-8.7,1.9-17.5,4-26.1c4.5-17.8,12-34.4,19.6-51c0.8-1.8,1.5-3.7,3.4-4.9c0.8-0.5,0.6-1.2,0.5-2
						C372.7,257.8,372.2,253.6,371.7,249.1z M489.5,382.9c-28.8,0.1-51.4,2.4-73.8,5.9c-16.7,2.6-33.1,6.5-49.3,11.5
						c-1.9,0.6-2.4,1.2-1.5,3.2c3,6.2,5.9,12.5,8.8,18.8c0.6,1.4,1.3,1.4,2.5,0.8c10.3-4.8,21.1-8,32.1-10.4c19.8-4.3,39.8-6,60-6.9
						c22-1,43.7,1,65.5,4c10,1.4,19.8,3.7,29.6,6.1c1.5,0.4,2.7,0.8,2.9-1.6c0.2-2.3,0.8-4.6,1.3-6.9c0.4-1.6,1.3-2.7,3-2.5
						c6.2,0.6,12.2,2,18,4c2.6,0.9,3.9,2.8,3.8,5.6c-0.1,2.9-0.5,5.8-1.1,8.6c-0.3,1.3,0,2.2,1.4,2.8c8.2,3.3,16.1,7.2,23.7,11.6
						c1.3,0.8,1.9,0.6,2.8-0.6c3.5-4.5,7.1-9,10.8-13.3c1.5-1.7,1.3-2.6-0.6-3.7c-6.2-3.8-12.8-6.9-19.4-9.9
						C569.7,391.8,527.3,383.9,489.5,382.9z M437.8,546c-1.8,0.1-3.6,0.2-5.4,0.3c-3.2,0-4.5-1.2-4.4-4.5c0.1-3.4,0.3-6.7,0.5-10.1
						c0.1-1,0.1-1.8-1.4-1.4c-5.2,1.6-10.5,3-15.6,4.9c-1.2,0.5-1.8,1.1-1.5,2.4c1.5,7.8,2.9,15.5,4.4,23.3c0.3,1.4,0.9,1.7,2.3,1.3
						c5.4-1.7,11-2.5,16.4-3.8c12.5-2.9,25.1-4.3,37.8-3.5c17.3,1.1,34.7,1.5,52,1.5c15.4,0,30.9,0.9,45.6,6.4
						c1.2,0.5,1.6,0.1,1.8-1.1c0.8-5.5,1.6-11,2.4-16.4c0.1-0.7,0.3-1.3-0.7-1.8c-4-1.7-7.8-3.8-11.9-5.4
						c-17.1-6.8-34.5-12.3-53-14.1c-16.3-1.6-32.5-1.3-48.7,0c-1.9,0.2-2.8,0.9-3.1,2.9c-0.8,4.9-1.9,9.8-2.8,14.7
						c-0.4,2-1.4,2.9-3.4,3.2C445.4,545.5,441.6,545.8,437.8,546z M417,159.2c1.3-0.7,1.6-1.7,2-2.5c10.5-19.7,24.4-36.7,40.1-52.4
						c7.2-7.2,14.5-14.2,22.8-20.3c5.4-4,11.1-5.1,17.4-2.4c0.8,0.4,1.7,0.7,2.6,0.9c9.5,3.2,19.2,4,29,2.5c8-1.2,15.7-3.9,23.5-6
						c21-5.5,41.5-5.2,61.5,3.9c7.4,3.3,14.9,6.2,22.4,9.3c6.9,2.9,14.2,3.6,21.6,3.6c1.6,0,2.1-0.6,1.9-2.1
						c-0.3-2.6-0.7-5.2-0.8-7.9c-0.1-2.3-1.2-2.6-3.1-2.6c-7.8,0.1-15.6-0.1-23.3-1.5c-10-1.9-19.4-5.5-28.6-9.7
						c-9.9-4.5-20-5-30.4-3.2c-17.6,3.1-35.2,6.5-52.8,9.7c-8.5,1.5-17,2.1-24.7-3.1c-0.2-0.1-0.5-0.3-0.7-0.3
						c-4,0.2-6.3-2.4-8.2-5.4c-0.9-1.5-2-1.8-3.4-0.8c-6,4-12.9,6.6-17.7,12.3c-1.6,1.9-3.4,3.5-5.2,5.2
						c-15.3,14.3-28,30.7-38.9,48.6C419.6,142.2,417.3,150.3,417,159.2z M441.5,513c-1.3,0-2.5,0.1-3.8,0c-1.6-0.1-2.2,0.6-2.4,2.1
						c-1.2,7.9-1.5,15.9-1.9,23.9c0,1.1,0.3,1.7,1.6,1.6c3.4-0.3,6.9-0.6,10.3-0.8c1.5-0.1,2.2-0.8,2.4-2.4c1.1-7.1,4-13.9,3.9-21.3
						c0-0.8,0.7-1.9-0.2-2.2c-1.2-0.5-2.7-0.5-4-0.6c-0.4,0-0.4,0.5-0.4,0.8c-0.7,6.4-2.2,12.7-2.5,19.1c-0.1,1.8-0.6,3.4-2.8,3.2
						c-2.1-0.2-2.8-1.8-2.6-3.5C439.7,526.3,439.8,519.6,441.5,513z M569.1,434.8c-0.6,1.8,0.5,2.6,2.6,2.9c2.6,0.3,5.2,0.8,7.8,1.2
						c1.2,0.2,1.9,0,2.1-1.3c1.3-7.3,2.6-14.6,3.9-21.9c0.3-1.8-0.4-2.6-2.1-3c-2.9-0.6-5.9-1.3-8.7-2.2c-2.4-0.8-2.8,0.2-3.2,2.3
						C570.1,419.9,570.1,427.1,569.1,434.8z M398.7,275.3c-1.8,0.2-3.6,0.8-5.3,1.7c-0.5,0.2-0.9,0.7-0.8,1.3
						c0.6,2.5,0.9,5.2,2.4,7.4c1.5,2.1,3.1,1.9,4.2-0.6c1-2.4,1.3-4.9,1.8-7.4C401.3,275.7,400.3,275.4,398.7,275.3z M655.3,288.5
						c-0.1,2.5,1.2,3.5,3.7,2.7c2.3-0.7,5.3-5.1,5.5-7.6c0-1.1-0.7-1.1-1.4-1.2c-6.5-1.2-7.3-0.6-7.7,5.9
						C655.3,288.3,655.3,288.4,655.3,288.5z"/>
					<path class="st1" d="M607.9,256.6c-2.4,0-4.5,0.5-6,2.5c-1.1,1.4-2.5,2.1-4,0.8c-1.5-1.3-0.9-2.8,0.1-4.1c3-4,7.3-4.8,11.9-4.4
						c3,0.3,5.8,1.4,8.4,3c4.6,2.9,8.7,2.4,12.6-1.2c0.5-0.5,1.1-1,1.7-1.3c1.2-0.6,2.5-0.6,3.5,0.6c1,1.2,0.9,2.6-0.2,3.7
						c-4.1,4.1-10.3,8-17.7,4.3c-1.5-0.8-3.1-1.6-4.6-2.4C611.8,257.2,609.9,256.5,607.9,256.6z"/>
					<path class="st1" d="M537.2,282.4c-3.9,0-7.5-1.3-10.8-3.3c-6.4-3.9-10.8-3.5-16.6,1.3c-1.4,1.1-2.8,1.7-4,0.2
						c-1.2-1.4-0.5-2.9,0.6-4.1c5.1-5.5,14.3-6.9,21-3.1c2.2,1.2,4.4,2.6,6.9,3.2c2.1,0.5,4.1,0.4,6.2-0.1c1.9-0.5,4.1-0.9,4.6,1.8
						c0.5,2.5-1.5,3.2-3.4,3.7C540.2,282.3,538.7,282.3,537.2,282.4z"/>
					<path class="st1" d="M466.5,240.3c-5.1,0-9.1-1.5-12.7-4.2c-5-3.9-7.3-3.8-12.3-0.2c-1.6,1.2-3.4,3.4-5.3,0.9
						c-1.8-2.4,0.6-3.8,2.2-5c6.4-4.8,12.3-5.5,18.5-0.3c3.6,3,7.8,4,12.5,2.7c1.9-0.5,3.8-0.7,4.4,1.7c0.6,2.3-1.1,3.2-3,3.7
						C469.2,240.1,467.6,240.4,466.5,240.3z"/>
					<path class="st1" d="M562.4,202.6c-3.3-0.2-6.5-1.5-9.6-3c-4.3-2.2-8.5-3-12.7,0.4c-1.1,0.9-2.6,1-3.6-0.4
						c-1-1.3-0.5-2.6,0.6-3.6c4.4-3.9,9.4-4.5,14.7-2.6c2.4,0.8,4.7,1.9,7,2.9c2.7,1.2,5.3,1.1,7.7-0.6c1.6-1.1,3.5-1.8,4.7,0.3
						c1.3,2.2-0.3,3.5-2.1,4.6C567.3,201.7,565.1,202.6,562.4,202.6z"/>
					<path class="st1" d="M595.9,130.8c2.8,0.1,5.3,1,7.8,2c3.8,1.5,7.5,3.3,11.6,0.7c1.1-0.7,2.6-0.3,3.3,1
						c0.7,1.3,0.4,2.7-0.8,3.7c-2.4,1.9-5.2,2.6-8.2,2.1c-3.2-0.5-6.2-1.5-9-2.9c-4.2-2.1-8.2-1.6-12.1,1c-0.8,0.5-1.5,1.1-2.4,1.1
						c-1,0-1.8-0.3-2.2-1.2c-0.6-1.4-0.1-2.5,0.9-3.4C588,132,591.8,131,595.9,130.8z"/>
					<path class="st1" d="M507,139.1c-3.1,0-5.6-0.6-7.8-1.8c-3.3-1.8-6.4-1.4-9.5,0.5c-1.6,1-3.3,1.8-4.5-0.2
						c-1.2-2,0.2-3.2,1.8-4.2c4.3-2.7,8.9-3.5,13.7-1.3c2.8,1.3,5.6,2,8.7,1.2c1.6-0.4,3.4-0.3,3.9,1.8c0.5,2.2-1.2,3.1-2.9,3.5
						C509,139,507.7,139,507,139.1z"/>
					<path class="st1" d="M555.6,373.8c0.8-4.2,1.7-9.6,2.7-14.9c0.4-1.9,1.6-2.6,3.6-2.3c3.1,0.6,6.2,1,9.4,1.5
						c4.2,0.6,5.5,2.4,4.7,6.5c-1.1,5.2-2.4,10.4-3.5,15.6c-0.4,2-1.6,2.8-3.5,2.5c-3.4-0.5-6.8-1-10.2-1.7
						C556.7,380.7,555.4,378.2,555.6,373.8z M561,373.7c-0.1,1.4-0.4,2.3,0.8,2.6c1.6,0.3,3.2,0.6,4.8,0.8c0.8,0.1,1.1-0.5,1.2-1.2
						c0.9-3.7,1.8-7.4,2.7-11.1c0.3-1.1-0.1-1.6-1.1-1.7c-1.7-0.3-3.4-0.5-5.1-0.7c-1.2-0.2-1.6,0.3-1.7,1.4
						C562.1,367.3,561.5,370.8,561,373.7z"/>
					<path class="st1" d="M552.3,359.3c-0.8,4.1-1.8,9.4-2.9,14.7c-0.4,1.9-1.9,2.8-3.9,2.5c-3.5-0.6-7-1.1-10.4-1.8
						c-3.2-0.7-4.2-2.6-3.7-5.8c0.7-4.4,1.3-8.8,2-13.2c0.6-3.8,1.4-4.2,5.2-3.6c3.1,0.5,6.3,0.7,9.4,1
						C551.3,353.5,552.4,354.7,552.3,359.3z M539.8,357.6c-1.1-0.4-1.7,0.2-1.8,1.6c-0.3,3-0.7,6.1-1.2,9.1
						c-0.2,1.2,0.3,1.6,1.4,1.8c6.3,1.3,6.3,1.3,7.6-5.1c0-0.1,0-0.2,0-0.3C547.2,357.8,547.2,357.8,539.8,357.6z"/>
					<path class="st1" d="M528,354.3c-0.9,4.9-1.7,9.8-2.7,14.7c-0.5,2.2-2.2,3.3-4.5,3.1c-3.6-0.2-7.2-0.7-10.8-0.9
						c-2.1-0.1-3.1-1.3-2.9-3.2c0.4-5.3,1-10.7,2.3-15.9c0.6-2.3,2.8-3.6,5.1-3.8c3.5-0.4,7.1,0.2,10.5,1
						C527.6,350,528,352,528,354.3z M516.4,366.4c3.9,0.3,3.9,0.3,4.6-3.4c0.2-1.1,0.5-2.1,0.6-3.2c1.1-6.9,2-5.4-4.8-6.5
						c-1.7-0.3-2.7,0-2.9,2.1c-0.2,2.3-0.7,4.6-0.9,7C512.6,366.1,512.6,366.1,516.4,366.4z"/>
					<path class="st1" d="M586.7,362.5c3.3,0.2,6.5,0.9,9.6,1.9c2.5,0.8,3.2,2.8,2.8,5.2c-0.6,3.3-1.5,6.5-2.2,9.8
						c-0.3,1.4-0.7,2.8-0.8,4.3c-0.2,2.4-1.6,3.2-3.7,2.9c-3.8-0.6-7.7-1.4-11.5-2.2c-1.9-0.4-2.7-1.6-2.4-3.4
						c0.9-5.6,2.5-11.1,4.2-16.6C583.2,362.5,585,362.5,586.7,362.5z M589.4,380.7c1,0.3,1.5-0.1,1.7-1.1c0.7-3,1.7-5.9,2.3-8.9
						c0.6-3.1-2.4-1.9-3.7-2.5c-1.8-0.9-3-0.4-3.3,1.9c-0.2,1.7-0.8,3.3-1.2,5c-1.2,5-1.2,5,4,5.6
						C589.2,380.7,589.3,380.7,589.4,380.7z"/>
					<path class="st1" d="M484.5,362.8c0.5-4.1,0.8-8.1,1.4-12.2c0.4-2.8,1.8-3.8,5.2-4.1c3.1-0.2,6.2,0.2,9.2,0.9
						c3,0.7,4.2,2.5,3.7,5.6c-0.6,3.7-1.4,7.3-2.3,10.9c-1.3,5-3.6,6.4-8.7,5.8c-1-0.1-2-0.2-3-0.2c-4.1,0.2-5.3-1-5.4-5.2
						c0-0.5,0-1.1,0-1.6C484.6,362.8,484.5,362.8,484.5,362.8z M490,360.1c-0.1,4.6-0.1,4.5,4,4.6c1.7,0.1,2.2-0.5,2.5-2
						c0.3-1.6,0.8-3.2,1.1-4.8c1.3-6.7,2.4-5.2-4.8-6.3c-1.3-0.2-2,0.3-2.1,1.7C490.5,355.6,490.2,357.8,490,360.1z"/>
					<path class="st1" d="M582.2,417.5c-0.8,4.6-1.6,9.5-2.4,14.4c-0.2,1.4-1,2.4-2.5,2.5c-1.7,0.2-2.4-1.1-3-2.3
						c-0.4-0.9-0.4-2-0.3-2.9c0.5-3.5,1.1-7,1.6-10.5c0.2-1.6,1.4-2.5,2.3-3.6c0.7-0.8,1.8-1,2.7-0.6
						C581.8,414.9,582.2,415.9,582.2,417.5z"/>
				</g>
			</g>
		</g>
		<g id="Birds_Away_xA0_影像_6_">
		</g>
	</g>
</g>
<g id="bird5">
	<polygon class="st2" points="173.3,126.5 133.8,117.5 146.3,141 170.3,156.5 178.8,157.5 206.8,189.5 207.3,154 227.3,145.5 
		241.3,111.5 200.8,122.5 196.3,103.5 188.8,98.5 178.3,104.5 180.3,116.5 	"/>
	<path class="st0" d="M210.4,140.7c-1.9,0.1-3.2-0.1-3.3-1.1c-0.3-2.4-1.4-4.7-1.3-7c0.1-2.1,2.4-2.8,4.1-3.6
		c8.6-4.5,17.4-8.7,25.6-13.8c1.4-0.9,2.5-2.1,3.9-3c1.5-1,3.2-1.2,4.4,0.4s0.2,2.9-1,4c-5.2,5.2-12.4,7.2-18.3,11.1
		c-0.7,0.4-1.5,0.7-2.2,1.1c-0.8,0.4-1.2,0.9-0.7,1.9c0.9,1.9,0.2,3.5-1.3,4.8C217.1,138.2,213.6,139.8,210.4,140.7z"/>
	<path class="st0" d="M168.3,144.3c-4-0.6-8.1-1.2-11.7-3.3c-2-1.2-3.5-2.8-2.3-5.4c0.7-1.5-0.5-1.5-1.2-1.8
		c-4.3-1.8-8.2-4.3-11.8-7.2c-1.2-0.9-2.3-2.1-2.9-3.5c-0.5-1.3-0.2-2.4,0.8-3.1c0.9-0.7,2.3-0.5,3.1,0.3c6.9,7,15.9,9.7,24.9,12.4
		c1.4,0.4,2.9,0.6,3.9,1.8c0.3,0.4,0.8,1.2,0.7,1.4c-1.7,2.4,1.2,4.7,0.1,6.9C171.2,144.2,169.8,144.4,168.3,144.3z"/>
	<path d="M207.1,184.8c2.7,3.3,5.2,6.2,7.6,9.3c0.9,1.2,1.1,2.5,0.1,3.7c-1,1.1-2.2,1.3-3.4,0.5c-0.8-0.5-1.5-1.3-2.2-2
		c-2.9-3.4-5.7-6.8-8.6-10.2c-1-1.2-2-2.3-3.1-3.5c-1.4,1.8-2.6,3.3-2.8,5.5c-0.1,1.5-1.1,2.5-2.7,2.7c-1.6,0.2-2.4-1-3.2-2.2
		s-0.8-2.5,0.3-3.5c1.8-1.6,2.4-4.1,4.4-5.5c1-0.7,0.4-1.2-0.1-1.7c-1.2-1.3-2.4-2.7-3.8-4.2c-2,3-4.9,5.2-5.8,8.7
		c-0.3,1.2-1.4,1.8-2.6,1.6c-1.8-0.4-3.1-1.5-3.8-3.2c-0.4-1.1,0.1-2.3,1.2-2.8c3.4-1.6,4.2-5.7,7.5-7.3c0.7-0.4,0-0.9-0.3-1.3
		c-1.8-2.6-3.8-5.1-5.6-7.7c-0.7-1-1.8-1.2-2.8-1.4c-4.5-0.8-8.8-2.1-13-4c-1.9-0.8-3.9-1.7-4.5-4c-0.3-1.1-1.4-1-2.2-1.2
		c-5.2-1.5-10.1-3.6-14.1-7.4c-1.6-1.5-2.9-3.1-2-5.5c0.4-0.9-0.2-1.3-0.8-1.8c-2.8-2.3-4.7-5-4.8-8.8c0-1.2-0.8-1.7-1.7-2.1
		c-3.1-1.4-5.8-3.4-8.1-5.9c-1.6-1.8-3.1-3.7-2-6.4c0.6-1.5,4.5-2.5,7-1.7c2.5,0.8,5,1.7,7.4,2.8c9.4,4.2,19.2,6.7,29.5,7.1
		c1.9,0.1,3.8,0.1,5.7,0c2.2-0.2,2.3-2.3,2.4-3.7c0.1-1.5-1.4-1.5-2.7-1.3c-4.1,0.6-8.1,0.6-12.2-0.1c-1.9-0.3-3.4-1.2-3.4-3.3
		c0-2.1,1.6-2.6,3.4-2.9c4.2-0.8,8.3-1.8,12.4-3c1.1-0.3,1.8-0.7,2.2-1.9c2.4-6.1,9.2-9.8,15.7-8.6c3.8,0.7,6,3.3,7.4,6.6
		c1.7,4.1,3.2,8.3,4.5,12.5c0.6,1.8,1.3,2.1,3.1,1.9c11-1.1,21.3-4.5,31.1-9.3c2.8-1.4,5.6-2.6,8.7-3.2c2.2-0.4,4.3-0.3,5.3,2.1
		s-0.2,4.3-2.2,5.2c-2.6,1.1-3,3.5-4.2,5.5c-0.3,0.4-0.3,0.8,0,1.2c1.9,2.7,0.3,4.8-1.4,6.8c-1.4,1.7-3.7,2.8-2.9,5.8
		c0.3,1.2-1.1,2.2-2.1,3c-2.7,2-5.5,3.9-8.2,5.9c-0.9,0.6-1.9,0.9-0.6,2.4c1.6,1.8,0.2,3.4-1.2,4.6c-3.9,3.3-8.2,6.2-12.8,8.1
		c-3.6,1.5-4.8,3.5-4.4,7.4c0.6,6.1-0.8,12.3-0.8,18.4C210.9,183.6,209.3,184.3,207.1,184.8z M181.2,151.4c0.2,0.3,0.3,0.6,0.5,0.9
		c4.1,8.4,10.1,15.5,16.8,22c-1.3-3.7-2.9-7.2-4.4-10.8c-0.6-1.5-0.8-3.1,1.1-3.9c1.7-0.7,2.8,0.3,3.5,1.7c0.7,1.5,1.4,3,2.1,4.4
		c1.1,2.5,2.2,5,3.4,7.6c0.5-4.7-0.1-9.3-0.8-13.8c-2-12.6-5.6-24.8-10-36.7c-1.4-3.9-0.5-5.3,3.3-5.1c0.7,0,1.7,0.6,1.9-0.3
		c0.2-1.3-0.4-2.7-1-3.9c-0.5-0.9-1.3-0.2-1.9,0.1c-2.2,1-4.3,2.1-6.6,2.4c-5.3,0.6-7.9,3.7-9.7,8.5
		C175.9,133.9,175.9,142.8,181.2,151.4z M149.6,141.5c0.4,0.3,0.8,0.7,1.3,0.9c6.5,3.8,13.7,4.4,21,5c1.5,0.1,1-0.8,0.8-1.6
		c-0.7-2.5-1.2-5.1-1.4-7.7c-0.2-2,1.2-4.4-0.4-5.9c-1.6-1.4-4.1-1.3-6.2-1.9c-0.2-0.1-0.5,0-0.8,0c0.8,3.8-0.2,4.9-4.1,4.7
		c-0.7,0-1.4-0.2-2.2-0.3c-4.5-0.6-8.6-2.5-13.1-4.1c1.4,4,4.7,4.6,7.6,5.4c3.9,1.1,8,1.4,12.1,1.8c1.6,0.1,2.6,0.9,2.6,2.6
		c0.1,1.5-0.9,2.3-2.3,2.7c-1.1,0.3-2.2,0.1-3.2,0C157.4,142.5,153.6,141.9,149.6,141.5z M218.1,148.1c-2.2,0.6-4,0.8-4.7-1.3
		c-0.7-2.3,1-3.2,2.6-4.1c2.6-1.4,5.3-2.6,7.6-4.5c-1.8,0.6-3.5,1.4-5.3,2c-1.5,0.6-3,0.5-3.8-1.1c-0.8-1.7-0.1-3,1.5-3.8
		c0.9-0.5,1.8-0.8,2.7-1.2c3.1-1.4,6.3-2.6,9.1-4.7c-1.7,0.4-3.5,0.6-4.9,1.4c-3,1.8-6.4,0.8-8.5-0.4c-2.5-1.4-4.5-1-6.8-0.7
		c-2,0.2-2.7,0.8-1.6,2.9c2.3,4.2,3.5,8.7,4.4,13.4C211.9,152.6,211.8,152.6,218.1,148.1z M205.2,178c-0.9,0.6-2.6,0.2-2.4,1.3
		c0.2,1.1,1.2,2,2.4,2.6C205.2,180.5,205.2,179.2,205.2,178z M175.7,154c-1.1-2.6-1.1-2.6-3.3-0.6
		C173.4,153.7,174.4,154.3,175.7,154z"/>
	<path d="M271.5,205.2c-6.4-1.3-12.9-2.9-19-5.9c-6.5-3.2-12.5-7.1-18.2-11.4c-0.8-0.6-1.5-1.3-2.2-2c-0.7-0.9-0.8-2,0-3
		c0.9-1.1,2-1.2,3.2-0.6c0.5,0.2,0.9,0.6,1.3,0.9c10.1,7.5,20.8,13.5,33.3,16.1c1,0.2,2,0.5,2.9,0.8c1.3,0.5,2,1.5,1.8,3
		C274.2,204.7,273,205.1,271.5,205.2z"/>
	<path d="M181.2,151.4c-0.7-3.1-1.4-6.2-2-9.3c-0.4-1.8-0.4-3.7,1.9-4.2c2.3-0.5,2.9,1.4,3.2,3.2c0.6,2.7,1.1,5.5,2,8.2
		c0.5,1.5,1.1,3.1-0.4,4.2c-1.7,1.3-3,0-4.2-1.2C181.5,152,181.4,151.7,181.2,151.4z"/>
	<path d="M194.9,152c0.1,1.6-0.3,2.5-1.4,2.9c-1.2,0.5-2.2,0.1-2.9-0.9c-2-3.3-2.5-7.1-2.8-10.9c-0.1-1.1,0.7-1.8,1.8-2.1
		c1.2-0.3,2.4,0.2,2.7,1.3C193.4,145.6,194.2,149.1,194.9,152z"/>
</g>
<g id="bird4">
	<polygon class="st2" points="197.8,243 218.8,228.5 226.8,232.5 225.3,237.5 	"/>
	<polygon class="st2" points="244.3,246 256.3,239.5 265.3,240.5 266.8,246 	"/>
	<polygon class="st2" points="164.3,271.5 148.3,279.5 120.3,281 157.3,293 182.8,348.5 202.8,364.5 220.8,373 230.8,371 
		249.3,376.5 246.8,368 280.3,377 271.3,351 276.8,275 243.3,274 215.3,288.5 188.3,273 172.8,267.5 	"/>
	<path class="st0" d="M269.6,336.3c-1-2.5-0.8-4.3,1.8-5.2c-4-3.4-4-5.1,0-7.2c-0.9-1.2-2.2-2.3-1.3-4.1c0.7-1.4,1.5-1.5,7.6-1.2
		c-1.4-0.4-2.3-0.7-3.3-1c-4.9-1.5-4.9-1.5-7.1-6.1c-0.8-1.7-0.3-3,1.1-4.1c1.3-1,2.1-2.1,2.2-3.9c0-1.6,1.2-2.4,2.5-2.9
		c1-0.4,2-0.7,3.8-1.3c-1.5-0.4-2.4-0.6-3.3-0.8c-1.7-0.5-3-1.5-3-3.4s1.2-2.8,2.8-3.3c3.3-1,6.7-1.7,10-2.6
		c1.2-0.3,2.4-0.7,3.5-1.2c-4-0.1-8-0.5-12.1-0.1c-2.2,0.2-4.3-0.9-6.1-2c-1.7-1.1-1.1-3.8,0.7-4.7c10.9-5.1,23-6,34.4-9.5
		c3.2-1,5.2,0.9,5.4,4.3c0.1,1.1-0.1,1.8,1.4,1.9c1.3,0-0.5,1-0.3,2.5c0.2,1.5,0.9,2.3-0.2,3.4c-2.3,2.2,1.1,0.6,0.8,0.6
		c-6.9,0.6-11,7.3-17.7,8.3c-0.1,0-1.1-2.9-1.3-2.6c3.2-0.1,8.3-0.8,11.2-2.8c1.9-1.3,2.9,4.1,4.3,5.8c1.4,1.8-6.5,2.6-7.9,4
		c-1.5,1.4,4.1,3.4,1.8,2.7c-1.5-0.5,3.9,1.8,1.9,2.7c2.3,0.1-2.5-0.5-2.1,1.2c0.4,1.8-0.8,2.9-2.1,3.8c-3,2-6.6,2.5-10,3.4
		c-3.2,0.8-6.4,1.4-10.4,2.2c5.3,1.5,8.1,5.1,12.7,6.2c5.8,1.3,10.2,6.1,15.6,8.5c1.3,0.6,4.4-1.5,4.2,0.2c-0.1,1.3,1-1,1.9-0.7
		c1.9,0.6,3.7,1.4,5.4,2.6c1,0.8,1.6,1.8,1.2,3.2c-0.3,1-1.2,1.6-2.2,1.8c-7.2,1.4-12.9,4.8-16,11.6c-1.2,2.6-3,3.7-6.1,3.1
		c0.6,1.2,1,2,1.3,2.8c0.5,1.3,0.6,2.7-0.5,3.8c-1.1,1.1-2.4,1.3-3.8,0.7c-4-1.8-7.9-3.6-11.9-5.4c-5.1-2.3-10.3-4.6-15.4-7
		c-2.2-1-4.1-2.3-5.7-4.1c-0.9-1.1-1.5-2.3-0.9-3.7c0.6-1.6,1.9-1.7,3.4-1.7C264.3,335.1,266.7,336,269.6,336.3z"/>
	<path class="st0" d="M299.8,331.6c-1.1,2.3-2.1,3.6-4.6,2.1c-1.7-1-3.6-1.6-5.3-2.5C293.1,331.6,296.2,331.4,299.8,331.6z"/>
	<path d="M241.4,371.8c-1-1.6-2.7-2.4-3.9-3.8s-2.2-3-0.6-4.5c1.5-1.5,3-0.5,4.2,0.8c1.2,1.1,2.4,2.1,4,3.5c0.4-1.6,0.3-3.2,2-3.6
		c1.5-0.3,2.6,0.6,3.8,1.2c4.4,2.2,9,3.8,13.7,5.2c0-0.3,0.1-0.5,0.1-0.6c-13.8-15.8-26.5-32.5-41.2-47.6c-3.2-3.3-6.4-6.4-10.2-9
		c-4-2.7-7.6-5.9-11-9.3c-2.8-2.9-6.3-4.4-10.3-4.2c-9.8,0.5-19.4-1.3-28.9-3.1c-0.5-0.1-1.1-0.2-1.6-0.2c-0.1,0-0.3,0.1-0.7,0.3
		c3.1,3.6,5.8,7.5,7.6,11.9c4.1,10.1,8.3,20.1,12.8,30c1.6,3.6,3.5,7.2,5.6,10.6c1.9,2.9,4.4,5.3,7.5,7.5c0.1-1.8,0-3.4,1.9-3.9
		c1.9-0.4,2.7,1.1,3.7,2.2c3.9,4.3,8,8.3,12.8,12.2c-0.1-1.6-1-2.3-1.4-3.3c-0.6-1.4-0.6-2.8,0.8-3.6c1.4-0.8,2.7-0.4,3.5,0.9
		c2,3.1,4.1,6,6.7,8.6c0.9,0.9,1,2.2,0.2,3.2c-0.8,1.1-2.1,1.4-3.1,0.7c-1.4-1-1.8-0.4-2.8,0.7c-3.6,3.8-7.8,6.7-13.3,6.9
		c-2.2,0.1-3.3,1-3.1,3.3c0.1,1,0,2,0,3c0,1.5-0.4,2.8-2.2,3s-2.7-1-3-2.5c-0.2-1.3,0-2.7,0-4.3c-1.5,0.7-1.9,1.9-2.5,2.8
		c-1.1,1.7-2.4,3.4-4.6,2.1c-2.3-1.4-0.8-3.3,0.1-5c0.4-0.8,0.9-1.5,1.5-2.5c-1.3-0.2-2,0.7-2.9,1c-1.4,0.5-2.8,0.5-3.5-1
		c-0.8-1.4-0.2-2.7,1.1-3.5c1-0.7,2.1-1.3,3.4-2c-0.4-0.5-0.7-0.8-1-1.1c-1.1-1-1.5-2.2-0.6-3.4c0.9-1.3,2.3-1.3,3.7-0.7
		c2,1,3.8,2.3,5.3,3.8c2.1,2,4.5,2.6,7.2,1.9c1.5-0.4,3-0.6,4.5-0.9c2.5-0.6,3.2-2.4,1.6-4.3c-1.1-1.3-2.2-3.5-4.8-2.1
		c-0.9,0.5-2-0.2-2.8-0.7c-8.8-5.3-16.6-11.4-21.7-20.8c-5.5-10-9.7-20.5-14.3-30.8c-1.7-3.8-3.4-7.6-5.3-11.3
		c-3.6-7.1-9.3-11.3-17.3-12.6c-6.6-1.1-13.2-2.7-19.4-5.4c-1.4-0.6-2.8-1.3-4.2-2c-1.5-0.8-2.5-1.8-2.3-3.7
		c0.2-1.9,1.6-2.7,3.3-3.1c2.9-0.7,6-0.7,8.9-0.8c5.6-0.1,11.3-0.1,16.9,0c1.7,0,3-0.4,4.2-1.8c10.6-12.1,29.9-14.1,42.7-4.6
		c3.6,2.7,7,5.5,10.5,8.3c6.8,5.6,14,5.9,21.5,1.5c3.7-2.1,7.2-4.6,10.6-7.1c5.5-4.1,11.7-6.1,18.5-6.3c8-0.3,16,0.1,24,0.8
		c9.8,0.9,19.6,0,29.4-0.5c1.9-0.1,3.8-0.1,5.7,0.2c2.6,0.4,4.3,2,4.9,4.5c0.6,2.3-0.5,4.1-2.4,5.3c-1.2,0.7-1.7,1.6-1.9,3
		c-0.5,2.6-2.2,4.5-4.1,6.3c-0.5,0.5-1.5,0.8-0.3,1.8c1.7,1.5,1,3.1-0.1,4.6c-1.8,2.3-4.1,3.9-6.8,4.8c-9.2,3.1-18.8,4.1-28.5,3
		c-1.7-0.2-3.3-1-4.7-2c-1.2-0.8-1.6-2-1-3.4s1.9-1.8,3.2-1.3c8.3,3.3,16.7,1.3,25,0c3-0.4,5.9-1.6,8-4.1
		c-8.7,2.7-17.4,2.2-26.2,1.4c-0.9-0.1-1.8-0.2-2.6-0.5c-1.2-0.5-1.8-1.5-1.6-2.8c0.2-1.3,1.1-2.2,2.4-2.2c2.2,0,4.4,0.2,6.5,0.3
		c5.8,0.4,11.6,0.6,17.3-0.8c2.7-0.7,5.2-1.6,7.2-4.3c-2.9,0.5-5.4,0.9-8,1.2c-5.6,0.7-11.1,0.1-16.5-0.8c-1.3-0.2-2.8-0.7-3-2
		c-0.4-2.4-2-2.2-3.6-2.3c-9.1-0.1-18.2-0.5-27.2,0.8c-4.5,0.7-8.5,2.4-12.1,5.1c-5.3,4-11.2,6.7-17.9,7.4c-5,0.5-9.7-0.4-14.8-2.4
		c0.8,2.9,1.9,5.4,3.3,7.6c1.9,2.9,4,5.7,6.5,8.1c8.5,8.3,16.7,16.8,24.8,25.4c8.1,8.7,16,17.7,23,27.3c3.5,4.7,7.6,8.8,12.2,12.4
		c1.1,0.9,2.3,1.8,4.2,2.3c-0.8-1.8-1.5-3.3-2.2-4.9c-2-4.5-4.1-9-4.3-14c-0.1-1.3-0.9-1.6-1.8-2.1c-3.2-1.8-6.5-3.7-9.7-5.5
		c-3.9-2.1-6.4-5.6-9.4-8.6c-0.9-0.9-1.1-2.1-0.3-3.2c0.8-1.2,2.1-1.5,3.4-0.9c1.6,0.8,3.1,2,4.7,2.8c11.6,6,23.9,9.6,36.6,12
		c1.1,0.2,2.4,0.1,3.5,0c1.4-0.1,2.6-0.5,2.6-2.4c0-2-1.4-1.6-2.4-1.8c-12.7-1.8-24.7-5.9-36.3-11.3c-4.7-2.2-9-5.2-12.6-9
		c-0.7-0.7-1.4-1.4-1.6-2.5c-0.4-2,1.2-3.4,3.1-2.9c0.6,0.2,1.2,0.5,1.6,0.9c12.1,10.6,27,14.9,42.2,18.6c3.2,0.8,6.4,1.4,9.7,1.2
		c-0.2-1.1-1-1-1.6-1.2c-13.9-4-26.8-10.1-39.2-17.4c-3.5-2.1-6.8-4.6-9-8.2c-0.3-0.4-0.7-0.8-1.2-1.1c-5.5-2.5-11-4.8-17.1-5
		c-2.1-0.1-3.6-1.1-5.2-2c-0.9-0.5-1.2-1.4-1-2.4c0.3-1.2,1.1-2,2.3-2.1c10.2-1,20.5-2.2,30.2,2.8c2.9,1.5,5.8,3,8.7,4.4
		c3.8,1.9,7.6,1.5,11.3,1.1c6.4-0.7,12.8-1.9,17.8-6.6c1-0.9,2.2-1,3.2-0.1c1.1,1,1.2,2.2,0.4,3.4c-1.5,2.3-3.8,3.6-6.2,4.7
		c-4.1,1.9-8.4,2.9-12.8,3.8c0.2,1.1,1.2,1.1,1.9,1.4c8.7,4,17.3,8.1,26.2,11.5c2.2,0.8,4.4,1.7,6.3,3.2c3.2,2.4,3,5.9-0.5,8
		c-0.8,0.5-1.6,0.8-2.5,1c-2.3,0.6-4.9,0.2-5.7,3.7c-0.4,1.9-3.7,1.3-4.8,2.6c-1,1.3,0.8,4-0.8,5.3c-2.8,2.3-4.9,5-6.9,8
		c-2.1,3.1-6.5,2-10,1.4c-3.9-0.7-7.4-2.4-11.1-3.9c-0.8,1.2,0,2.2,0.4,3.1c2.7,7.6,6.7,14.7,10.5,21.9c0.6,1,1.1,2.1,1.6,3.2
		c0.6,1.3,0.4,2.5-0.9,3.3s-2.5,0.4-3.4-0.6c-1.3-1.4-2.1-3.1-3-4.9c-0.6-1.2-1.2-2.3-2.8-1.9c-0.2,0.1-0.6,0-0.8-0.1
		c-4.3-3.3-9.6-1.5-14.3-2.8c-4.8-1.3-9.4-3.2-14.6-5.3c2.2,2.2,4.4,3.1,6.5,4.2c1.6,0.9,3.2,1.9,2.2,4s-2.9,1.5-4.5,0.8
		c-3.8-1.6-7-4.2-10.3-6.6C242.8,372.6,242.2,371.9,241.4,371.8L241.4,371.8z M195,293.1c-7.6-7.1-15.9-11.3-25.7-12.9
		c1.2,1.1,3.1,1.7,2.5,3.7c-0.5,1.7-2.1,2-4.4,2.4C176.7,289.8,185.1,292.9,195,293.1z M163.6,290.6c-3.9-2.3-7.8-4.6-11.7-6.9
		c-0.4-0.2-0.8-0.5-1.3-0.5c-6.8,0-13.6,0-20.4,0c0,0.2-0.1,0.4-0.1,0.7C141.1,287.2,152.4,288.7,163.6,290.6z M166.3,285.7
		c-0.7-1.4-1-2.3-0.9-3.4c0.1-1.2,1.3-1.5,1.7-2.4c-3.6,0-7.1,0-11.4,0C159.4,282.1,162.5,284,166.3,285.7z M281.7,350.8
		c3.4,1.9,7,3.3,10.9,3.5c0.6,0,1.5,0.2,1.6-0.6c0.2-0.9-0.8-0.8-1.3-0.9C289.2,352.4,285.5,351.3,281.7,350.8z"/>
	<path d="M241.3,371.7c0.7,3.9-0.1,4.6-5,4.2c2.5,4.7,0.4,7.9-3.4,10.4c-1.1,0.7-0.7,1.4-0.1,2.2c1.5,2.1,1.9,4.5,1.9,7
		c0,1.8-0.2,3.7-2.5,3.9c-2.4,0.2-2.6-1.7-2.8-3.5c-0.2-1.9,0.1-4.1-2.1-5.3c-0.8,1.3-1.1,2.7-1.3,4.2c-0.3,2.2-2,3.7-3.9,3.2
		c-2.3-0.6-2.1-2.4-1.6-4.2c0.2-0.7,0.4-1.4,0.7-2.5c-1.9,0.4-3.2,1.3-4.6,2c-1.5,0.8-3.1,1.1-4.1-0.6c-1-1.8,0-3.1,1.6-4
		c1.3-0.8,2.7-1.5,4.1-2.3c-0.1-0.7-0.7-0.7-1.1-0.9c-1.3-0.7-1.9-1.7-1.4-3.2c0.5-1.4,1.8-1.8,3.1-1.6c2.4,0.4,4.9,0.8,7,2.1
		c2.5,1.5,3.5-1,5-1.9s0.9-2.3,0.2-3.4c-2.4-3.4-3.8-7.5-7.5-10.2c-2.1-1.5-3.9-3.6-5.3-5.8c-0.9-1.3-1.2-2.8,0.3-3.9
		c1.4-1.1,2.8-0.5,3.8,0.8C227.5,364.9,233.7,369.4,241.3,371.7C241.4,371.8,241.3,371.7,241.3,371.7z"/>
	<path d="M229.7,234.6c-0.2,2.9-2.1,5.1-4.9,6.6c-4.4,2.4-9.3,3.2-14.1,3.8c-6.3,0.7-12.2,2.5-17.8,5.6c-1.3,0.7-2.6,1.2-3.7-0.1
		c-1.1-1.3-0.8-2.9,0.3-4c8.4-8.7,17.5-16.4,29.6-19.6C224.6,225.5,229.7,229.2,229.7,234.6z M206.2,239.6
		c5.2-0.4,10.4-1.1,15.3-3.1c1.2-0.5,2.8-1.1,2.1-2.9c-0.6-1.5-2.1-1.6-3.5-1.2C215,233.7,210.4,236.2,206.2,239.6z"/>
	<path d="M261,237c3.1,0.1,6,0.9,8.1,3.5c2.1,2.5,1.5,5.6-1.3,7.1c-2.3,1.3-5,1.7-7.6,1.8c-5.4,0.3-10.9,0.1-16.2,1.6
		c-2.5,0.7-4.5-1.3-6.7-2c-1.6-0.6-1.1-2.9,0.9-4.4c4.7-3.2,9.9-5.3,15.4-6.6C256,237.6,258.4,237.1,261,237z M254.2,243.8
		c2.9,0.4,5.8,0.3,9.5-0.6C259.9,241.9,257.1,243,254.2,243.8z"/>
	<path d="M316,419.5c-10-0.6-19.1-4.1-27.8-8.7c-5.3-2.8-10.4-5.9-15.4-9.2c-0.8-0.5-1.7-1.1-2.4-1.8c-1.1-1-1.5-2.3-0.5-3.6
		c1-1.3,2.3-1.2,3.6-0.4c3.2,2,6.4,4.1,9.7,6.1c10.5,6.2,21.4,11.1,33.7,12.1c0.4,0,0.9,0.2,1.3,0.2c1.7,0.2,2.8,1,2.7,2.8
		c-0.1,1.9-1.4,2.3-3,2.5C317.2,419.5,316.6,419.5,316,419.5z"/>
</g>
<g id="bird3">
	<polygon class="st2" points="451.3,424 376.8,453 318.8,508 321.8,509.5 368.3,484 352.8,499.5 351.8,507 359.3,504.5 389.3,485 
		389.3,498 394.3,500 419.3,478.5 421.3,487.5 428.3,488 439.8,469.5 445.3,483 463.8,494.5 493.8,493 511.8,484.5 523.3,466.5 
		532.3,483 537.3,474.5 544.8,481.5 549.8,473.5 558.3,488 565.3,475 578.8,494 584.3,493.5 584.3,482.5 597.3,496 605.8,498.5 
		603.8,485.5 621.8,501 631.3,503.5 631.8,497 614.8,486.5 610.3,478 662.3,489.5 668.8,480.5 525.8,430 490.8,420 	"/>
	<path class="st0" d="M609.6,478.2c1.4,1.3,2.4,2.2,3.4,3.1c1.5,1.5,2.4,3.3,1,5.3s-3.4,1.5-5.1,0.6c-5.4-2.8-10.7-5.8-16.1-8.7
		c-7-3.8-14.3-7.2-21.5-10.5c-0.3-0.1-0.7-0.2-1.3-0.4c0.4,1.2,1.2,1.7,1.9,2.4c1.8,1.8,3.5,3.7,4.5,6.1c1.7,3.9-0.6,6.9-4.8,6.2
		c-1.5-0.2-3-0.8-4.3-1.4c-14.3-6.4-26.4-15.5-35.2-28.7c-1-1.4-1.8-3-2.3-4.6c-0.7-2.3,1.2-8.7,3-10.2c1.6-1.3,3.2-0.8,4.4,0.5
		c1.5,1.7,2.9,3.5,4.2,5.3c1,1.4,2.1,2.3,4.1,2.2c2-0.2,3.9,0.8,5.8,1.5c3.9,1.4,7.9,1.8,12.1,2.2c14.3,1.3,27.4,6.7,40.4,12.4
		c11,4.9,22,10,33.1,14.6c6.5,2.7,13.4,4.4,20.6,4.8c0.4,0,0.9,0.1,1.3,0.2c1.7,0.4,2.9,1.2,2.7,3.2c-0.3,1.8-1.6,2.6-3.3,2.5
		c-4.8-0.4-9.5-1.2-14.2-2.1c-3.6-0.7-7.3-1.3-11.1-1.2c-3.9,0.1-7.6-1.5-11.4-2.3C617.5,480.4,613.8,479.3,609.6,478.2z"/>
	<path class="st0" d="M366.3,484.9c-3.4,1-6.1,3-9.3,4.2c-0.7,0.3-1.4,0.5-2.1,0.7c-1.7,0.3-3.3,0-4.3-1.6c-1-1.5-0.4-3,0.5-4.3
		c2.2-3.1,5.2-5.3,8.1-7.6c13.8-10.9,29.1-19.5,44.7-27.5c1.4-0.7,2.7-1.4,4.1-2.1c0.9-0.5,2.2-0.9,2.8-0.3c1.9,2.1,3.2,0.4,4.6-0.5
		c1.7-1,3.4-2.1,5.1-3.1c1.3-0.7,2.8-1,4,0.3c1.3,1.4,0.9,2.9,0,4.3c-1.2,1.9-3.1,3.1-4.9,4.3c-10,7.3-20,14.5-30.1,21.8
		c0.9,0.6,1.3-0.1,1.8-0.4c7.8-4.8,15.6-9.7,23.3-14.6c0.8-0.5,1.5-1,2.3-1.5c1.6-0.8,3.2-1.7,4.7,0s1.2,3.6,0,5.2
		c-2,2.6-4.1,5.1-6.2,7.6c-1.1,1.4-2.2,2.8-2.9,4.6c1.9-1.8,3.9-3.5,5.8-5.3c3.6-3.4,7.2-6.9,10.8-10.4c1.5-1.4,3.1-2.1,4.7-0.3
		c1.5,1.7,0.6,3.3-0.7,4.5c-8.6,8.1-16.8,16.7-26.1,24.1c-0.5,0.4-1.1,0.9-1.7,1.2c-1.9,1.2-4.5,2.7-6.5,0.9
		c-1.5-1.4-1.3-3.2-0.6-4.8c1.7-3.6,4-6.9,6.3-10.2c0.8-1.1,1.6-2.2,2.2-3.6c-3.3,2-6.6,4-10,6c-8.4,5-16.8,10.2-25.4,14.8
		c-1,0.6-2.1,1.1-3.2,1.6c-2.1,1-4.4,1.6-5.9-0.6c-1.5-2.1-0.2-3.9,1.5-5.4C364.8,486.2,365.5,485.5,366.3,484.9z"/>
	<path class="st0" d="M567.6,474.6c-11.8-5.4-22-12.8-29.4-23.7c5.7,2.9,9.6,8,14.7,11.7C558,466.2,563.2,469.9,567.6,474.6z"/>
	<path class="st0" d="M585,462.3c-2.1,0.5-3.5,0.2-4.9-1.5C582,461.1,583.4,461.3,585,462.3z"/>
	<path d="M616,483.5c2.8,1.6,5.6,3.2,8.4,4.8c3.4,1.9,6.8,3.9,9.4,6.9c2,2.2,3.5,4.7,2,7.6c-1.4,2.9-4.1,3.3-7,3.1
		c-4.7-0.3-8.6-2.7-12.4-5.2c-2.5-1.7-4.9-3.6-7.5-5.5c-0.6,6.7-4.3,8.4-9.8,4.8c-4.7-3.1-8.3-7.3-12.3-11.4
		c-0.8,1.1-0.3,2.2-0.4,3.2c-0.2,4.8-4,7-8.1,4.6c-2.7-1.6-4.7-4-6.5-6.5c-2-2.8-3.9-5.7-5.9-8.7c-0.7,2-1,3.9-1.9,5.5
		c-2.2,3.8-6.1,4.2-8.9,0.7c-2-2.5-3-5.5-4.6-8.6c-1.4,2.4-2.1,5.3-5.2,5.5c-3.3,0.3-4.4-2.3-5.9-4.4c-0.2,0.1-0.4,0.2-0.4,0.3
		c-2.4,6.3-8.4,5.8-11.9,0.5c-1.8-2.6-3.1-5.4-4.8-8.5c-1.4,2.2-2.7,4.1-4,6.1c-5.6,9.1-13.8,14.5-23.9,17.3
		c-13.2,3.5-26.2,3.7-38.9-2.1c-3.8-1.7-6.9-4.4-10-7c-1.4-1.2-2.2-2.6-0.8-4.2c1.3-1.5,2.9-0.8,4.1,0.3c5.8,5.4,12.6,8.6,20.4,9.5
		c13.2,1.5,25.8-0.4,36.9-8.3c5.2-3.7,8.3-9.3,11.3-14.9c1.3-2.5,3.4-3.6,5.5-4.9c1.5-1,3.2,0.2,3.6,2.4c0.8,4.1,2.7,7.7,4.9,11.1
		c0.5,0.7,0.9,1.9,1.9,1.6c0.8-0.2,1-1.3,1-2.1c0.1-4.2,2.2-8.2,1.1-12.6c-0.4-1.7,0.2-3.4,2.2-3.7c2.1-0.3,3,1,3.3,2.8
		c0.8,4.6,1.7,9.2,3.5,13.8c1.2-2,1.4-4.5,1.1-8.5c-0.2-2.8-1.9-5.3-1-8.3c0.3-1-1.1-1-1.8-1.3c-6.8-3-13.3-6.6-19.4-11
		c-1.8-1.4-3.4-3-4.7-4.9c-1-1.5-1.4-3.1,0.3-4.4c1.6-1.1,2.9-0.2,4.1,1c7.6,7.8,16.9,12.7,27.2,16c0.6,0.2,1.2,0.3,1.9,0.4
		c0.5,0.1,1.1,0,1.6,0c0.1-0.2,0.2-0.5,0.1-0.5c-6-5.9-11.7-12.1-19.9-15.4c-3.1-1.2-5.9-3.2-8.8-4.9c-5.4-3-11-5.3-17.2-5.6
		c-1.6-0.1-2.4-0.4-1.9,2.3c1,5.1,2.8,10.1,2.5,15.5c-0.5,9.2-10.6,14.4-16.9,13.2c-2.6-0.5-3.6-1.1-6-4c-1.8,2.9-2.7,5.9-3.5,9
		c-0.5,2.1-0.5,4.8-3.5,5.1c-3,0.3-3.5-2.4-4.5-4.4c-1.3-2.6-2.6-5.2-3.8-7.8c-0.6-1.3-1.4-1.7-3-1.4c-7.7,1.5-15.3-4-14.9-11.1
		c0.3-4.5-0.8-9.5,3.4-13.1c2-1.7,4-3.3,6-4.9c0.5-0.4,1-0.9,1.8-1.6c-2.4,0-4.1,0.6-5.8,1.5c-3.3,1.6-6.5,3.4-9.4,5.5
		c-7.2,5.3-14.9,9.8-22.9,13.7c-1.3,0.7-2.6,1.1-2.2,3.1c0.2,1.3-0.9,2.2-1.8,2.9c-7.7,6.2-16,11.6-25.3,15.3
		c-0.2,0.1-0.3,0.1-0.5,0.2c-7.1,2-10.4-0.5-10.1-7.9c-2.1,0.4-3.9,1.4-5.6,2.6c-16.7,11.4-32.9,23.4-47.8,37
		c-0.3,0.2-0.5,0.5-0.9,1c1.2,0.1,1.8-0.6,2.5-1c15.2-9.8,30.3-19.7,45.5-29.5c1.6-1,3.3-1.7,4.6,0.1c1.3,1.8,0.2,3.3-1.3,4.4
		c-5.5,4.2-11.6,7.5-17.3,11.4c-1,0.7-2,1.3-3,1.9c-1.2,0.7-2.3,1.3-1.2,3.1c0.7,1.1-0.2,2.2-1.1,3.1c-2.1,1.9-3.8,4.2-5,6.8
		c-0.3,0.6-0.7,1.2-0.3,1.8c0.5,0.7,1.2,0.1,1.7-0.1c2.6-1,4.9-2.4,7.1-4c9.8-6.6,19.4-13.5,29.4-19.8c1.3-0.8,2.6-1.7,4-2.3
		c1.3-0.6,2.8-0.6,3.6,0.8c0.8,1.3,0.4,2.6-0.7,3.7c-0.4,0.4-0.8,0.7-1.3,1c-11.1,7.3-22.1,14.7-33.2,22c-2.8,1.8-5.7,3.5-9.1,4.3
		c-5.3,1.2-8.7-2.4-7-7.5c0.6-1.9,1.7-3.7,2.9-6.2c-1.5,1-2.6,1.6-3.6,2.3c-8,5.2-16,10.3-24.1,15.4c-1.7,1.1-3.4,2.1-5.4,2.5
		c-4.3,0.9-6.8-1.8-5.4-6c1.3-3.8,3.9-6.8,6.5-9.7c10.4-11.5,22.5-21.1,34.7-30.7c4.5-3.5,9.2-6.8,13.8-10.1c-1.2-1.1-2.5-2-3.5-3.1
		c-1.5-1.6-2.5-3.5-1.5-5.7c0.9-2.1,2.9-2.5,5-2.6c10.8-0.5,21.3-2.1,31.6-5.5c11.9-3.9,23.5-8.5,33.9-16c8.4-6.1,18.1-8.6,28.5-8.6
		c0.8,0,1.7,0,2.4-0.2c10.6-3.1,21.4-2.1,32.2-1.1c23.6,2,45.2,10.3,66.1,20.8c8.4,4.2,17.2,7.7,26.2,10.6
		c7.5,2.5,14.6,6.4,21.9,9.6c15.9,7,32.2,13,48.9,17.6c5,1.4,9.8,3.3,14.5,5.5c2,0.9,4.1,1.9,4,4.6c-0.1,2.9-2.3,4-4.7,4.7
		c-7.8,2.3-15.8,2.7-23.7,1.3c-10.8-1.8-21.5-4.6-32-7.7c-0.8-0.2-1.5-0.4-2.3-0.6C616.1,483.3,616.1,483.4,616,483.5z M602.9,495.4
		c-1.1-2.7-2.3-4.8-3.7-6.8c-2.1-3-4.2-5.9-6.3-8.9c-0.9-1.3-1.5-2.6-0.2-4c1.3-1.3,2.5-0.7,3.9,0.2c2,1.4,3.8,3.1,5.5,4.9
		c5.4,5.6,11.3,10.5,17.6,15c2.7,1.9,5.5,3.6,8.7,4.3c0.7,0.2,1.5,0.6,1.9-0.2c0.3-0.7-0.5-1.1-0.9-1.5c-2.3-2.4-5.2-4-8-5.7
		c-4.4-2.6-8.9-4.9-13-7.9c-1.2-0.9-2.5-1.9-1.8-3.6c0.6-1.6-0.3-1.8-1.3-2.3c-3.2-1.4-6.5-3-9-5.5c-2-2-4.8-3.6-4.2-7.1
		c0.1-0.7-0.5-0.9-1-1c-5.6-0.9-11.1-2.4-16.8-4.2C580.3,471.4,595.9,492.2,602.9,495.4z M596.8,465.7c3.1,4.2,6.9,6.3,10.9,8
		c13,5.6,26.8,8.4,40.5,11.5c3.1,0.7,6.3,1.4,9.9,0.9c-0.6-0.3-0.7-0.5-1-0.6c-15.4-6-31-11.3-46.8-16.1c-4.8-1.5-5.5-3.3-2.5-7.3
		C604.8,464.9,601.3,466,596.8,465.7z M559.9,460.7c3.5-0.9,4.4,1.3,5.2,3.7c2.6,8.3,6.8,15.8,12,22.7c1,1.4,1.9,2.9,3.9,3.6
		c0-1.9-0.7-3.5-1.3-4.9c-2.9-6.8-6.5-13.2-10.1-19.6c-0.7-1.2-1.6-2.2-1.2-3.8c0.4-1.5,1.8-1.7,3.4-2.3c-3.9-1.7-7.3-3.1-10.9-4.7
		C561,457.5,560.9,459,559.9,460.7z M559.2,461.1c-2.2,0.7-3.9,0.8-5.6,0.7c-1.9-0.2-2.1,0.4-1.6,2.2c1.6,5.5,3.2,11,5.7,16.1
		c0.4,0.9,0.7,2,2,2.7C561.8,475.5,557,468.6,559.2,461.1z M497,444.7c3.5,1.7,3.7,3.1,1.2,6.8c-0.8,1.1-1.7,2-3.1,1.8
		c-1.3-0.2-2.2-0.9-2.5-2.2c-0.3-1.8-1.2-1.1-2.1-0.6c-1,0.6-2,1.2-1.1,2.7c1.8,2.7,3.3,3.2,6.5,2.2c6.8-2,9.2-8.9,5.6-17.3
		C501.3,441.6,497.9,442.2,497,444.7z M411.6,453.9c-1.7,0.1-3.5,0.2-4.9,1.2c-3.4,2.4-7.2,3.7-11.2,4.6c-1.3,0.3-2.6,0.8-3.5,1.9
		c-0.5,0.7-1.5,1.5-0.9,2.4c0.5,0.9,1.6,0.4,2.5,0.1C400.3,462,405.9,457.8,411.6,453.9z M477.5,460.9c1.3-2.9,2.5-5.5,3.7-8
		c0.3-0.6,0.8-1.2,0.2-2c-1.9-2.4-3.5-2.4-5.2,0.1c-0.5,0.7-1.1,1.5-1.7,2.1c-0.5,0.6-0.8,1.1-0.3,1.9
		C475.3,456.9,476.3,458.8,477.5,460.9z M482.9,435.5c-0.1,1.3,0.2,2.4,1.4,2.8c1.2,0.5,2.4,0.3,3.1-0.8c1.1-1.8,2.1-3.6,2.9-5.5
		c0.5-1.2,0.1-2.3-1-3.1c-1.2-0.7-2.3-0.5-3.2,0.5C484.6,431.2,483.7,433.4,482.9,435.5z M477.2,436.9c-0.4-1.7-0.6-3.4-1.1-5
		c-0.4-1.4-1.5-2.1-3-1.8c-1.4,0.3-1.9,1.3-1.9,2.6c0,1.8,0.3,3.6,1,5.3c0.5,1.3,1.5,2.1,3,1.8C476.6,439.5,477.1,438.3,477.2,436.9
		z M471.7,447.8c-2.6,0.6-4.9-1.6-7,0.6c-1.3,1.4-2.9,2-4.6,0.9c-1.9-1.2-1.6-3-0.9-4.8c0.3-0.8,1.3-1.5,0.3-2.6
		c-2.9,3.3-2.6,6.7,0.7,9.1C463.5,453.5,468.9,452.2,471.7,447.8z"/>
	<path d="M391.3,496.9c7.5-3.2,12.8-9.1,18.9-15.1c-1.4,0.3-2,0.5-2.6,0.6c-3.2,0.5-5.3-1.6-4.7-4.9c0.4-2.1,1.4-3.9,2.6-5.6
		c2.3-3.3,5.2-6.1,8.2-8.7c1.3-1.1,2.8-1.6,4.1-0.1c1.4,1.5,0.5,2.9-0.7,4c-2.1,2-4.3,4-5.9,6.5c3.3-1.9,5.9-4.7,8.4-7.5
		c4-4.7,8-9.4,11.9-14.2c1.5-1.8,3.4-3.2,5.3-4.7c1.1-0.9,2.6-1.2,3.7,0.1c1.1,1.2,0.7,2.6-0.3,3.7c-5.6,5.9-10.6,12.2-15.9,18.3
		c-1.1,1.3-2.3,2.6-3.5,3.8c-1,1-2.1,1.6-0.3,3.1c1.1,0.9,0.6,2.6-0.4,3.7c-7.5,7.4-14.5,15.3-23.6,20.9c-2,1.2-4.2,2.2-6.5,2.6
		c-4,0.5-6.3-2.3-5-6.1c0.6-1.6,1.5-3.1,2.7-4.4c1.1-1.2,2.4-1.8,3.9-0.8c1.5,1.1,1.2,2.5,0.3,3.9
		C391.5,496.3,391.4,496.6,391.3,496.9z"/>
	<path d="M476.2,479.8c-10-1.4-20.6-2.6-29.9-8.5c-3-1.9-3.8-1.6-5.7,1.5c-2.7,4.6-4.9,9.5-8.4,13.7c-1.9,2.3-3.9,4.5-6.6,6.1
		c-1.5,0.9-3.1,1.1-4.6-0.1c-1.5-1.1-1.8-2.7-1.5-4.4c0.3-1.9,1.9-3,3.5-2c1.4,0.9,2.1,0.4,2.9-0.5c2.8-2.8,4.8-6.1,6.7-9.6
		c1.8-3.3,3.3-6.7,5.5-9.7c2-2.7,3-2.7,6-1.2c10.1,4.8,20.5,8.8,31.9,8.9c7.4,0.1,14.5-2.1,21.3-5.1c0.7-0.3,1.5-0.8,2.2-1
		c1.3-0.4,2.6-0.3,3.3,1c0.8,1.3,0.4,2.5-0.7,3.4c-1.1,0.8-2.2,1.7-3.4,2.2C491.9,477.7,484.4,479.1,476.2,479.8z"/>
</g>
<g id="bird2">
	<polygon class="st2" points="720.8,229.5 724.3,284.5 737.3,296.5 753.8,294.5 747.3,367 747.3,378.5 759.8,350.5 769.3,360.5 
		778.8,349.5 793.8,344.5 814.8,305.5 842.3,303 868.8,290.5 885.8,234 858.3,247 818.3,255.5 818.3,241.5 822.3,237 842.8,230.5 
		820.3,230 804.8,217 788.3,225 779.3,246.5 775.8,251 729.3,235 	"/>
	<polygon class="st2" points="757.8,209.5 747.8,211 744.8,219.5 748.8,222 768.3,211.5 	"/>
	<polygon class="st2" points="763.8,180 755.3,180.5 752.3,186.5 760.3,189.5 770.3,183.5 	"/>
	<path class="st0" d="M704.1,231.6c-3.3-5.2-6.6-10.3-9.4-15.7c-0.9-1.7-1.7-3.4-2.2-5.3c-0.4-1.3-0.3-2.7,0.9-3.8s2.2-0.3,3.5-0.1
		c2.7,0.4,3.9,2.2,5.1,4.3c4.2,6.9,9.4,13.1,15,19c0.9,1,1.6,1.8,3.1,0.7c1.1-0.8,2.7-0.3,3.2,1c0.9,2.8,3,4.7,4.7,7
		c3.2,4.4,3,7-0.9,10.7c-0.4,0.4-0.8,0.7-1.2,1.1c-4.1,4-4.2,4.4-0.8,9c1.8,2.4,2.3,5,0.9,7.6c-0.9,1.7-0.5,3,0.6,4.4
		c2.2,2.8,4.2,5.7,5.7,8.9c0.3,0.7,1,1.5,0.9,2.2c-0.5,3.7,2.1,5,4.6,6.4c2,1.1,2.9,3.2,4.1,5c0.7,1.1,0.6,2.7-0.6,3.7
		c-1.1,0.9-2.4,1.1-3.5,0.2c-10.7-8.4-23.6-14.1-32.3-25.2c-3.5-4.4-6.8-9-9.3-14c-1.3-2.7-2-5.6-2.3-8.6c-0.2-2-0.4-3.9-1.2-5.8
		c-0.8-1.8-0.8-3.8,1.5-4.8c0.8-0.4,1-1,0.9-1.8c0-0.5,0-0.9,0-1.4c-0.1-6.7,2-8,8-5.3C703.5,231.4,703.8,231.5,704.1,231.6z"/>
	<path class="st0" d="M877.2,245.1c3.4-1.2,5.5-0.3,6.5,3.2c0.2,0.9,0.9,1.8,2.1,2.3c2.8,1,3.2,3.3,0.8,5.4
		c-3.3,2.7-6.8,5.2-10.2,7.8c-0.5,0.4-1,0.8-1.7,1.4c1.3,0.8,2.9,1.1,3.2,2.7c0.3,1.5-0.5,2.6-1.2,3.8c3,1.9,3.2,3.6,0.8,6.1
		c-0.8,0.9-1.7,1.7-2.6,2.4c-1,0.8-1.9,1.6-1.4,3c0.4,1,0.2,2.1-0.4,2.9c-3,4.3-6.6,8-10.7,11.2c-1,0.8-2.1,1.5-3.4,1.5
		c-1.3,0.1-2.7-0.4-2.8-1.6c-0.2-2.6-1.6-5.4,0.9-7.7c0.9-0.8,1.2-1.4-0.1-2.5c-1.9-1.5-1.6-3.6-0.1-5.3c1.5-1.7,3.3-3.1,5.2-4.8
		c-2.4-1.4-4.2-2.8-2.8-5.3c1-1.8,2.7-3.2,4-4.7c-3-2.5-3-3.9-0.2-6.8c1.4-1.4,1.6-4.8,0.5-6.2c-1.9-2.4-1.9-3.9,0.3-6.2
		c2.4-2.6,5.4-4.6,8.5-6.3c3.4-1.9,6.9-3.6,10.4-5.4c0.6-0.3,1.4-0.5,2.1-0.6c1.5-0.2,2.8,0.2,3.2,1.8c0.4,1.7-0.5,2.6-2.1,3.2
		C882.9,241.6,880.1,243.3,877.2,245.1z"/>
	<path d="M824.9,234.3c-3.4-2.6-6.7-0.7-10,0.2c-5.8,1.6-11.7,2.4-17.8,2.5c-1.4,0-2.7,0.1-3.6,1.3c-0.3,0.3-0.7,0.6-1.1,0.7
		c-7.5,2.7-11.1,9.3-14.9,15.5c-3.9,6.2-7.7,12.5-11.2,18.9c-4,7.1-6.5,15-8.5,22.9c-2.6,10.2-3.4,20.6-4.3,31
		c-1.2,13.8-1.9,27.6-4.3,41.2c-0.1,0.3,0,0.6,0.2,1c3.1-6,5.3-12.3,7.3-18.7c1.2-3.9,2.2-7.9,2.7-12c0.2-1.8,0.9-3.1,2.9-2.8
		c1.8,0.2,2.2,1.6,2.2,3.2c0,3.3-1.2,6.5-1.6,10.5c4.8-5.1,8.8-9.9,11.9-15.5c1-1.8,1.9-4.7,4.7-3.3c3,1.5,0.9,3.8-0.1,5.6
		c-3,6.1-7.4,11.2-11.9,16.3c-1.9,2.2-3.3,2.1-5.5-0.2c-1.5,4.3-3,8.5-4.5,12.8c-1.8,5-4,9.7-6.3,14.5c-0.3,0.6-0.6,1.1-0.9,1.7
		c-0.9,1.5-2.2,2.3-3.9,1.5s-1.9-2.4-1.2-3.9c1-2.2,2.1-4.4,3.4-7.1c-1,0.5-1.6,0.9-2.2,1.1c-2.3,0.7-4.1-1-3.4-3.3
		c2.7-9.9,3.1-20.1,4-30.2c1.2-13,1.8-26.1,4.2-39c0.4-2-0.5-1.8-1.8-1.5c-7.1,1.3-13.9,0.5-20.6-2.2c-2.3-1-4.5-2.2-5.1-4.9
		c-0.3-1.4-1.4-1.2-2.3-1.4c-4.6-1.1-8.8-3-12.1-6.4c-2.4-2.5-2.5-3.5-0.7-6.4c-1.7-0.7-3.4-1.2-5-2c-5.1-2.7-7.5-7.4-6.4-13.1
		c0.3-1.7-0.7-2.1-1.6-2.7c-4.5-3.3-8-7.4-9.4-13c-0.2-0.7-0.3-1.4-0.4-2.1c-0.3-4.1,0.7-5.1,4.7-4.8c-5.2-11.4-4.3-15.1,4.2-15.7
		c-1.7-2.6-3.4-5-4.8-7.6c-2.3-3.9-4.3-8-4.6-12.7c-0.2-2.5,0-5,2.4-6.5c2.4-1.4,4.8-0.5,6.9,0.8c3.6,2.2,6.5,5.3,9.5,8.1
		c14.1,12.9,29,24.5,46.9,31.8c7.4,3.1,15.2,4.8,23.2,5.7c1.8,0.2,2.7-0.6,3.3-2c2.1-4.6,4-9.4,6.4-13.9
		c6.4-12.1,20.9-18.4,32.6-9.7c2.8,2.1,5.9,4,8.8,5.9c0.7,0.5,1.6,0.8,1.9,1.4c1.6,3.3,4.4,2.7,7.1,2.5c3.4-0.2,6.9-0.4,10.3-0.5
		c1.7-0.1,3.4,0.2,3.9,2.1c0.5,1.9-0.9,3-2.4,3.8c-6.8,3.4-14.1,5.2-21.6,6.4c-2.4,0.4-3.5,1-2.7,3.6c0.3,1,0.2,2.2,0.4,3.2
		c0.6,4,0.6,3.7,4.7,3.5c21.5-1,39.5-10.6,56.4-22.9c3.5-2.5,6.8-5.2,10.2-7.8c1.3-1,2.6-1.5,4.3-0.9c1.6,0.7,2,2.1,2.1,3.5
		c0.3,3.3-0.7,6.3-2.2,9.1c-2.5,4.8-6.1,8.8-9.9,12.6c-0.6,0.6-1.2,1.3-1.8,1.9c0.5,0.8,1.2,0.4,1.8,0.5c2.8,0.5,4.3,2.4,3.8,5.3
		c-0.4,2.5-1.9,4.5-3.4,6.4c-4.5,5.6-10.3,9.7-16,13.9c-2.6,1.9-5.3,3.8-8,5.7c-1.7,1.2-3.5,2.1-5,0.1c-1.5-2.1,0.1-3.6,1.7-4.7
		c5.4-4,11-7.7,16.2-12c2.9-2.4,5.8-4.8,8-8.5c-2.7,0.3-4.8,1.3-6.9,2.1c-1.4,0.5-2.7,1.2-4.1,1.5c-1.7,0.5-3.6,0.6-4.6-1.3
		c-1-2,0.1-3.3,1.6-4.4c1.6-1.2,3.2-2.3,4.9-3.6c-1.1-0.5-1.7,0.2-2.4,0.5c-14,6-28.1,11.3-43.2,14.1c-0.4,0.1-0.9,0.2-1.3,0.2
		c-4.5,0.5-4.5,0.5-4.3,5.1c0.5,11.3-1.9,22.2-5.6,32.8c-0.7,2-0.5,2.6,1.7,2.9c6.7,1,13.2,0.7,19.7-1.1c4.8-1.3,9.6-2.6,14.3-4.3
		c4.4-1.6,8.5-3.8,11-8.1c0.7-1.1,1.6-1.8,3-1.4c1.2,0.4,1.6,1.3,1.7,2.5c0.4,2.8-0.6,4.6-3.3,5.9c-13.8,6.5-28.3,10.3-43.3,12.5
		c-2.2,0.3-4-0.9-6-1.5c-1-0.3-1.6-0.5-2.1,0.7c-5.6,11.8-12,23.2-18.5,34.6c-0.1,0.1,0,0.4-0.1,0.6c6.2,1.2,11.9,3.4,16,8.5
		c0.3,0.4,0.7,0.9,1.4,0.4c2.8-1.9,5.8-1,8.7-0.7c1.6,0.1,2.6,0.9,2.5,2.6s-1.2,2.3-2.7,2.4c-0.6,0-1.3,0-2.1,0
		c0.2,1.6,1.9,3.1,0.7,4.4c-1.4,1.4-2.3,2.7-2.9,4.6c-0.5,1.7-3.1,1.4-4.2-0.3c-0.6-0.9-0.9-1.9-1.6-3.2c-0.5,1.4-0.9,2.5-1.4,3.6
		c-0.6,1.4-1.8,2.2-3.3,1.7c-1.6-0.5-2-1.9-1.7-3.3c0.6-2.2,1.3-4.3,2.1-6.5c0.5-1.5,0.2-2.6-0.9-3.7c-1.7-1.7-3.6-3.2-5.9-3.8
		c-3.3-1-6.4-2.9-10.2-1.8c-1.8,0.5-3.2-1.4-2.5-3.4c0.3-1,1-1.9,1.6-2.8c7.8-12.8,15.2-25.9,21.2-39.6c6.6-15.2,8.9-31.2,6-47.7
		c-0.6-3.6-1-7.2-1.4-10.8c-0.1-1.4-0.4-2.2-2.1-2c-1.8,0.2-3.1-0.6-3.3-2.5s1.1-2.8,2.8-3.1C817.8,235.6,821.4,235,824.9,234.3z
		 M711.1,278.2c1.5,2.6,3.5,4.1,5.8,5.2c4.7,2.4,9.9,2.8,15.1,3.2c2,0.1,4.2,0,4.3,2.6s-2.1,2.8-4,2.9c-0.1,0-0.3,0.2-0.4,0.3
		c4.7,2.2,13.1,2.7,17.8,1c2.2-0.8,3.6-2,4.3-4.4c3.4-11,8.1-21.4,14.4-31c0.5-0.8,1.2-1.6,1.2-2.9c-30-5.3-53.1-22.4-74-43.4
		c2.1,6.2,5.3,11.6,10,16.1c5.3,5.1,11.1,9.7,17.3,13.6c1.7,1.1,3,2.4,1.8,4.4s-3.1,1.4-4.8,0.4c-1.4-0.8-2.8-1.7-4.1-2.7
		c-5.3-4.3-11.3-7.6-17.2-10.9c-0.5-0.3-1.2-0.9-1.7-0.4c-0.5,0.4-0.3,1.2-0.1,1.8c0.8,2.5,2.3,4.5,4.1,6.4
		c4.3,4.3,8.9,8.3,14.2,11.4c2.8,1.7,5.2,3.8,7.1,7.4c-2.8-1.4-5.4-0.9-7.6-1.9c-5.4-2.5-11.1-4.4-15.9-8.2
		c-0.7-0.6-1.5-1.1-2.3-1.4c-1.2-0.5-2.4-0.3-3.1,0.9c-0.7,1-0.6,2.1,0.2,3c0.6,0.7,1.3,1.2,2,1.8c5.5,4.2,11.6,7,18,9.5
		c1.9,0.7,3.7,1.4,5.6,2.1c1.4,0.5,2,1.5,1.7,3c-0.4,1.5-1.5,2-2.9,1.8c-1.2-0.2-2.3-0.5-3.4-0.9c-4-1.5-8.4-2.1-12.2-4.5
		c-0.1,3.8,1.6,6.1,5.5,7.3c3.8,1.2,7.8,1.5,11.8,1.8c1.9,0.1,3.3,0.7,3.2,2.8s-1.6,2.7-3.4,2.6
		C716.8,278.8,714.2,278.5,711.1,278.2z M810.9,229.7c-5.6-3.9-20-2.7-21.3,1.7c2.1-0.6,4.1-1.2,5.8-2.3c1.9-1.2,3.7-1.2,4.6,1.2
		c0.4,1,0.8,1.2,1.8,1.1C804.8,230.9,807.8,230.7,810.9,229.7z"/>
	<path d="M712.1,434.9c-1.3,0-2.3-0.5-2.7-1.8s0.2-2.3,1.4-3c20.3-11.5,37.8-26.9,56.2-41c1.2-0.9,2.2-1.9,3.5-2.6
		c1.1-0.7,2.3-0.6,3.2,0.4s0.9,2.2,0.2,3.3c-0.5,0.7-1.2,1.4-1.8,2c-17.1,14.4-35.1,27.6-53.6,40
		C715.7,433.9,713.2,434.9,712.1,434.9z"/>
	<path d="M793.3,370.8c1.3,1.2,2.3,2.1,3.3,3c1.2,1,2,2.3,1,3.8s-2.4,1.3-3.9,0.5c-0.2-0.1-0.5-0.2-0.9-0.3
		c-0.2,2.1,1.8,5.1-1.6,5.6c-3.5,0.6-3-3.1-4.3-5.2c-1.3,1.5-1.8,3.4-2.7,5c-0.8,1.5-1.9,2.7-3.7,1.9c-1.9-0.8-1.8-2.6-1-4.2
		c1.1-2.4,2.2-4.8,3.5-7.1c0.9-1.5,1-2.9,0.5-4.6c-1-3.7-1.8-7.5-4.3-10.5c-2-2.3-2.3-2.3-4.3,0.1c-1,1.2-2,2.4-3.1,3.4
		c-1,1-2.3,1.2-3.5,0.2c-1.3-1.1-1.2-2.5-0.3-3.7c2.7-3.5,5.6-7,8.4-10.4c0.9-1.1,2.1-1.5,3.4-0.7c1.2,0.7,1.5,2,0.8,3.1
		c-0.8,1.5-0.3,2.1,0.9,3c3.3,2.6,4.9,6.3,6,10.1c0.6,2,1,3.1,3.3,1.8c1.3-0.7,2.9-0.9,4.4-1.2c1.4-0.3,2.6,0,3.2,1.4
		c0.5,1.4-0.2,2.5-1.4,3.2C796,369.9,794.8,370.2,793.3,370.8z"/>
	<path d="M767.9,205.3c1.9,0.1,3.8,0,5.7,0.6c2.4,0.7,3.7,2.5,3.9,4.7c0.2,2.5-2,2.9-3.9,3.3c-5.4,1-10.4,3.2-14.9,6.3
		c-2.6,1.8-5.4,3.4-8.4,4.5c-4.6,1.7-8-0.8-8-5.7c0-5,2.5-8.8,7.3-10.4C755.4,206.6,761.6,205.6,767.9,205.3z M761.4,211.9
		c-3.5,0.1-6.9,0.7-10.1,1.9c-1.4,0.5-2.5,1.4-3,2.9c-0.2,0.8-0.7,1.7-0.1,2.3c0.6,0.5,1.4-0.2,2-0.5
		C753.9,216.3,757.6,214.1,761.4,211.9z"/>
	<path d="M761.9,177.9c5.2-0.1,9.8,2.5,14.7,3.7c1.3,0.3,2,1.6,1.7,3.1s-1.3,2.7-2.8,2.5c-4.9-0.5-9.2,1.6-13.8,2.6
		c-2.9,0.7-5.8,1.4-8.9,1.1c-1.9-0.2-3.6-0.7-4.4-2.6c-0.9-2-0.1-3.8,1.1-5.3C752.7,179,757.2,178,761.9,177.9z M756,184.9
		c2.2-0.1,4.4-0.4,6.8-1.8C760.1,183.1,757.9,183.5,756,184.9z"/>
	<path d="M800.1,316.3c-0.3,0.9-0.6,2.1-1,3.2c-3.1,7.5-7.1,14.5-11.8,21.1c-0.2,0.2-0.3,0.4-0.5,0.7c-1.2,1.3-2.5,2.3-4.2,1
		c-1.6-1.3-1.2-2.8-0.2-4.3c1.4-2.1,2.9-4.1,4.3-6.3c3.2-5.2,6.3-10.4,8.3-16.2c0.5-1.5,1.5-2.5,3.3-2.1
		C799.7,313.7,799.9,314.9,800.1,316.3z"/>
	<path d="M880.4,274c-0.3,2-1.5,3.7-2.9,5.2c-2.6,2.6-5.7,4.5-8.7,6.5c-1.3,0.9-2.7,1.6-3.6,3.2c-1.1,1.8-3,1.6-4.5,0.4
		c-1.7-1.3-1.6-3-0.2-4.5c1.2-1.4,3-2,4.5-3c4.1-2.7,8.9-4.7,11.1-9.6c0.5-1.1,1.7-1.3,2.8-0.9C879.8,271.6,880.4,272.6,880.4,274z"
		/>
	<path d="M774.2,283.6c-0.1-1.8-0.3-3.7,2.1-3.9c2.3-0.2,2.7,1.7,2.9,3.4c0.5,3.8,0.5,7.6,1.3,11.3c0.3,1.3-0.3,2.4-1.6,2.8
		c-1.4,0.5-2.4-0.2-3.2-1.4c-0.7-1.1-0.8-2.4-1-3.6C774.5,289.3,774.4,286.4,774.2,283.6z"/>
	<path d="M800.6,289.2c1.7-3.7,3.6-7.7,6.7-10.8c0.7-0.8,1.9-0.7,2.8,0c1,0.7,1.4,1.9,0.8,2.9c-1.9,3.4-3.9,6.7-6,10
		c-0.6,1-1.8,1.1-2.9,0.7C800.8,291.5,800.7,290.5,800.6,289.2z"/>
	<path d="M794.8,285c-0.8,2.4-1.6,5.1-2.7,7.6c-0.6,1.3-1.9,1.7-3.3,1.1c-1.2-0.5-1.6-1.6-1.3-2.7c0.6-2.6,1.2-5.1,2.5-7.5
		c0.7-1.3,1.7-1.9,3.2-1.4C794.3,282.5,794.7,283.5,794.8,285z"/>
</g>
<g id="bird1">
	<polygon class="st2" points="809.3,69 779.3,75.5 788.8,82 790.8,88.5 808.8,95.5 819.8,99 812.3,107 805.8,136.5 808.8,139.5 
		823.3,133.5 842.3,115.5 856.3,128 863.8,129.5 880.8,124.5 898.3,126 879.3,104 850.8,105.5 853.8,97 857.8,87.5 857.3,78.5 
		846.3,78.5 828.3,90 	"/>
	<path class="st0" d="M803.4,85.8c-0.4-1.9-1.6-1.4-2.8-1.2c-3.7,0.6-7.3,1.2-11,1.7c-1,0.2-2,0.1-2.9-0.4c-1.1-0.5-1.7-1.4-1.4-2.6
		c0.4-1.5,1.6-2.2,3-2.2c3.8-0.1,7.5-1.1,11.3-1.7c0.9-0.2,1.7-0.5,2.5-0.9c0.4-0.2,0.5-0.8,0.3-1.2s-0.6-0.4-0.9-0.3
		c-6.4,1.7-13,1-19.4,1.8c-1.7,0.2-3.2,0.2-3.7-1.8c-0.4-1.9,0.8-2.9,2.4-3.4c1.5-0.4,3-0.7,4.6-0.6c5.4,0.2,10.7-0.5,16-1.6
		c3.2-0.7,6.1,1.5,6.4,4.8c0.1,0.9,0.3,1.7,0.9,2.5c0.3,0.4,0.8,1.1,0.6,1.4c-1.7,3.1,1.1,3.9,2.7,5.3c0.9,0.8,1.9,1.7,2,2.8
		c0.3,2.7,3.6,3.5,3.8,6.2c0,0.3,1.1,0.5,1.7,0.7c1.5,0.5,2.6,1.5,2.2,3.2c-0.4,1.8-1.9,2.4-3.6,2.1c-1.3-0.2-2.8-0.5-3.8-1.3
		c-3.3-2.5-7-1.9-10.7-1.7c-0.7,0-1.5,0.2-2.2,0.1c-1.4-0.2-2.6-0.7-2.6-2.5c0-1.7,1.1-2.5,2.6-2.6c2-0.2,4-0.1,6-0.3
		c0.7-0.1,2,0.2,1.7-1.1c-0.2-1.1-1.2-0.3-1.8-0.3c-4.3,0.5-8.6,1.3-13,1.2c-1.8,0-3.4-0.4-3.5-2.5c-0.1-2.2,1.5-2.5,3.3-2.6
		C797.2,86.8,800.3,86.5,803.4,85.8z"/>
	<path class="st0" d="M866.9,128c0,2.3-1.3,3.4-3.5,2.7c-5.6-1.7-9.4-5.7-12.9-10c-0.7-0.8-0.6-1.9-0.1-2.8c0.6-1,1.6-1.4,2.8-1.3
		c1,0.1,1.9,0.5,2.9,0.7c2.2,0.6,4.2,1.8,6.3-0.5c1-1.1,2.9-0.5,4.4,0.1c0.9,0.4,1.7,0.7,2.1-0.7c0.1-0.5,0.8-1.2,1.1-1.1
		c4.6,1,8.7-3.7,13.5-0.1c0.9,0.7,1.8,1.2,2.9,1.4c2.2,0.3,3.8,2.2,6.2,1.3c1.2-0.5,2.4,0,3.1,1.1c0.8,1.2,0.5,2.5-0.4,3.5
		c-1.3,1.6-3,2-4.9,1.6c-1.3-0.3-2.6-0.8-3.8-1.4c-1.6-0.7-2.6-0.5-4.4,0.1c-2.7,0.9-5.6,2.9-8.3,2.4s-4.3,1-6.4,1.4
		C866.2,126.7,866.9,127.4,866.9,128z"/>
	<path d="M813.3,101.3c-3.4-0.2-6.5,0.2-9.5-0.6c-2.1-0.6-4.1-1.2-4.5-3.7c-0.2-1.4-1.2-1.1-2.1-1.1c-2.2,0-4.3-0.4-6.4-1.1
		c-3.4-1.2-4.7-3.2-4.6-6.8c0-0.8,0.1-1.4-0.7-1.9c-1.8-1.1-3.1-2.5-3.5-4.6c-0.2-0.9-1.1-0.8-1.8-1c-2.6-0.5-5-1.6-7.1-3.4
		c-2.9-2.6-2.3-5.9,1.4-7.1c3.4-1.1,6.9-1.6,10.5-1.4c6.2,0.2,12.3-0.2,18.3-1.9c3.1-0.9,5.9-0.2,8.4,1.8c6,4.7,10.7,10.6,15.7,16.3
		c1,1.1,1.5,1.2,2.6,0.4c3.4-2.8,7.3-5,11.2-7.1c5.2-2.8,10.4-4.4,16.1-1.8c3,1.3,5.2,3.5,5.3,7c0,1.5,0.8,1.8,2.1,1.7
		c1.8-0.1,3.6-0.2,5.4-0.3c1.7-0.1,3.4,0.1,3.8,2.2c0.4,2-1,3-2.6,3.6c-2.9,1.1-6,1.6-9.1,1.5c-1.3,0-2.2,0.3-2.7,1.7
		c-0.5,1.7-1.7,3-2.8,4.3c-1.7,1.9-0.9,2.5,1.2,2.7c5.6,0.6,11.3,0.4,16.9-0.1c5.5-0.5,9.4,1.4,12.7,5.7c3.3,4.4,7,8.6,10.6,12.8
		c0.6,0.7,1.1,1.4,1.6,2.2c2,3.1,2.1,5.4,0.6,7.3c-1.6,1.9-4.9,2.6-7.8,1.2c-2.1-1-4-2-6.6-1.5c-2,0.4-3.9-1.1-5.8-2.1
		c-0.6-0.3-1.3-1.3-2.1-0.2c-2.1,2.8-5,2.4-7.7,1.7c-5.4-1.3-10-4.2-13.9-8.2c-1.3-1.3-2.1-2.9-0.4-4.5c1.6-1.5,3-0.5,4.3,0.7
		c3.2,3.1,6.7,5.6,11,6.8c0.8,0.2,1.9,1,2.4-0.1c0.4-0.9-0.8-1.2-1.4-1.6c-1.7-1.3-3.5-2.6-5.2-3.9c-1.5-1.2-3-2.5-1.6-4.5
		s3.2-1.1,4.7,0.1c2,1.5,4.1,3,6.5,4.8c-0.1-2.6,0-4.8,3.2-4.9c-0.8-1.9-2.1-2.3-3.8-2.3c-7.9,0.2-15.6-0.8-23.3-2.3
		c-2.2-0.4-3.5,0.1-4.6,2.1c-2.2,4-2.4,4,0.5,7.4c3.7,4.4,8.1,7.8,13.9,9.1c1.9,0.4,3.8,1,3.2,3.5c-0.7,2.4-2.8,1.9-4.5,1.5
		c-7.1-1.5-12.5-5.6-17-11.1c-1.1-1.3-1.6-1.6-2.7,0c-2.1,3.3-4.7,6.2-7.9,9.8c3.4-0.5,6.2,0.9,8.8-1.2c1.2-1,2.8-1.7,4.2-0.3
		c1.4,1.4,0.8,2.8-0.5,4c-0.9,0.9,0,1.2,0.5,1.7c1.2,1.2,2.3,2.6,0.9,4.2c-1.3,1.5-2.8,0.8-4.1-0.2c-0.9-0.7-1.5-0.8-2.1,0.3
		c-0.6,1-1.7,1.4-2.8,1.1c-1.2-0.4-1.8-1.3-1.7-2.5c0.1-1.6-0.7-1.8-2-1.7c-1.9,0.1-3.8,0-5.6-0.6c-2-0.7-3,1.1-4.7,1.9
		c1,1.1,2.2,1.4,3.3,1.4c3.3,0,6,1.9,9,2.6c1.2,0.3,2.2,1,2.3,2.4c0.1,1.3-0.6,2-1.7,2.5c-0.5,0.2-1,0.4-0.9,1.1
		c0.3,1.3,0.1,2.6-1.3,3.2c-1.6,0.6-2.5-0.5-3.6-1.5c-0.3,0.2-0.5,0.3-0.6,0.5c-0.8,1.6-2,2.9-3.9,2.1c-2.2-0.9-1.6-2.8-0.9-4.4
		c1.1-2.4,0.5-3.6-2.1-4.1c-1.2-0.2-2.4-0.8-3.5-1.5c-1.5-1-2.8-0.8-4.5-0.4c-3.5,0.9-5.2,3-5.9,6.4c-0.4,2-1.3,4-1.9,6
		c-0.6,1.9-1.4,3.9-3.9,3.3c-2.8-0.6-1.7-2.9-1.3-5c-1.7,0.8-3.4,2-4.9,0.2c-1.5-1.7-0.6-3.4,0.4-5c-1-0.4-1.5,0.2-2.1,0.5
		c-1.9,0.9-3.9,2-5.2-0.5c-1.2-2.4,0.8-3.6,2.6-4.6c2.7-1.5,5.3-3.1,7.9-4.8c1.3-0.9,1.9-1.9,2.1-3.5c1-8,2.1-16.1,5.2-23.6
		C810.3,107.3,811.8,104.5,813.3,101.3z M809.4,135.2c-0.2,2.5,1.4,1.4,2.4,1c10.6-3.8,19.4-10,25.7-19.7c5-7.8,9.8-15.7,15.8-22.8
		c0.3-0.3,0.5-0.7,0.8-1.1c0.4-0.7,0.2-1.4-0.6-1.4c-4.2,0.2-5.7-4.1-9.1-5.3c-1.2-0.4-1.3-2.8-3.2-1.8c-1.3,0.7-2.7,0.9-3.9,1.9
		c-2.7,2.2-5.6,4.4-8.6,6.2c-3.4,2.1-6,4.9-8.2,8.2C813.3,111,810.8,122.9,809.4,135.2z M790.9,88.1c1.3,2,2.7,2,4.1,2.2
		c3.9,0.6,7.8,0.3,11.7,0c1.3-0.1,2.4,0.3,2.9,1.5c0.5,1,0.3,1.9-0.4,2.8c-0.3,0.4-1.1,0.4-0.7,1.3c4.7,0,9.3-0.2,12.6-4.6
		c0.7-1,0.7-1.3-0.1-2.1c-4.4-4.2-8.7-8.5-13-12.8c-1.4-1.4-2.8-2-4.6-1.2c1.3,3.9,0.6,5.1-3.5,5.4c-2.1,0.2-4.2,0.3-6.2,0.4
		c-1.7,0.1-3.4,0-5.1,0c1.1,1.4,2.3,1.6,3.6,1.7c3.5,0.2,7.1,0.1,10.6-0.5c2.7-0.4,4.4,1,3.9,3c-0.4,1.7-1.8,2-3.3,2.3
		C799.3,88.3,795.3,88.1,790.9,88.1z"/>
	<path d="M733.9,154.8c-0.6,0-1.3,0-1.9,0c-1.4-0.1-2.5-0.8-2.5-2.3c-0.1-1.7,1-2.5,2.5-2.6c7.5-0.7,14.6-2.9,21.7-5
		c5-1.5,9.7-3.5,14.4-5.7c0.8-0.4,1.6-0.8,2.5-1.1c1.4-0.5,2.8-0.4,3.5,1.1s0.1,2.7-1.2,3.5c-2.6,1.7-5.4,2.9-8.3,4.1
		C754.7,150.7,744.4,153.3,733.9,154.8z"/>
	<path d="M828,111.5c-1.1,3.5-2.5,7.7-4.5,11.7c-0.6,1.2-1.8,1.5-3.1,1s-1.9-1.7-1.5-2.9c1.4-4.1,2.9-8.2,4.6-12.2
		c0.5-1.2,1.7-1.7,3-1.2S828.3,109.4,828,111.5z"/>
	<path d="M837,114.2c-0.1,0.3-0.1,0.8-0.4,1.2c-1.6,2.4-3.2,4.8-4.9,7.1c-0.9,1.2-2.2,1.6-3.6,0.8c-1.4-0.9-1.3-2.3-0.6-3.6
		c1.4-2.5,3.1-4.9,4.9-7.1c0.8-1,1.9-1.3,3.2-0.9C836.7,112,837,113,837,114.2z"/>
	<polygon class="st2" points="773.8,45.5 765.3,46 762.3,52 770.3,55 780.3,49 	"/>
	<path d="M771.9,43.4c5.2-0.1,9.8,2.5,14.7,3.7c1.3,0.3,2,1.6,1.7,3.1s-1.3,2.7-2.8,2.5c-4.9-0.5-9.2,1.6-13.8,2.6
		c-2.9,0.7-5.8,1.4-8.9,1.1c-1.9-0.2-3.6-0.7-4.4-2.6c-0.9-2-0.1-3.8,1.1-5.3C762.7,44.5,767.2,43.5,771.9,43.4z M766,50.4
		c2.2-0.1,4.4-0.4,6.8-1.8C770.1,48.6,767.9,49,766,50.4z"/>
</g>
<g id="smoke">
	<g>
		<g id="Birds_Away_White_xA0_影像_3_">
			<polyline class="st2" points="253,520.2 279.6,524.2 293,532.9 298.3,562.2 313,569.5 351.6,568.9 365.6,566.9 401,570.9 
				427.6,574.9 445.6,575.5 459,580.2 448.3,586.2 423.6,587.5 383.6,586.2 338.3,588.2 296.3,593.5 266.3,598.9 234.3,594.9 
				216.3,574.2 216.3,550.9 224.3,534.2 250.3,520.9 			"/>
			<polygon class="st2" points="719.6,551.5 703,552.2 683,546.2 661.6,554.2 639.6,564.2 603.6,576.9 589.6,580.2 637.6,586.2 
				687.6,589.5 728.3,594.2 765.6,583.5 789.6,563.5 793.6,538.9 787,516.9 776.3,508.2 753.6,516.2 734.3,528.9 			"/>
		</g>
		<g id="Birds_Away_xA0_影像_2_">
			<g>
				<path d="M260.3,517.5c7.5,0,11,0.7,17,2.2c13,3.2,18.8,9.8,20.3,23c0.4,4,0.7,8,1.6,11.9c1.7,7.2,5.9,10.8,13.2,11.7
					c4.2,0.5,8.3,0.1,12.5,0c10.7-0.4,21.4-0.7,32-2.9c2.8-0.6,5.6-0.7,8.4-0.5c8.4,0.6,16.9,1.1,25.3,2c11.4,1.2,22.6,3.8,33.7,6.3
					c4.9,1.1,9.9,1.5,14.9,1.2c5.2-0.4,10.3,0.1,15.4,1.4c3.5,0.9,5.8,3.3,8.5,5.1c1.6,1.1,0.3,4.7-2.1,5.7
					c-6.7,2.8-13.7,4.8-21,5.6c-6.3,0.7-12.5-0.6-18.7-1.1c-13.6-1.2-27.3-0.6-40.9-0.9c-31.4-0.6-62.1,3.9-92.6,10.9
					c-9.6,2.2-19.2,4.1-29.1,3.7c-7.8-0.3-15.4-1.5-22.6-4.5c-14.6-5.9-22.8-16.5-23.8-32.4c-1.3-20.5,13.1-41.2,32.6-46.8
					C249.5,517.8,256.9,517.5,260.3,517.5z M456.8,580.5c-5-1.7-9.4-2.7-14.1-2.5c-5.7,0.2-11.4,0.5-17.1-0.7
					c-16.1-3.4-32-7.3-48.6-7.7c-7.1-0.2-14.2-1.9-21.4-0.4c-13.7,2.8-27.6,2.9-41.5,2.8c-11.8-0.1-19.1-6.8-20.9-18.5
					c-0.5-3-0.8-6.1-1.1-9.2c-0.9-7.9-3.1-14.9-11.6-17.8c-10.1-3.3-20.4-4.5-30.9-2.7c-17.7,3-30.7,20.9-31.6,36.8
					c-0.9,14.8,5.4,25.7,18,31.3c9.6,4.2,19.7,5.7,30.1,4.9c7.5-0.5,14.9-2.1,22.3-3.8c23-5.3,46.2-8.9,69.7-10.2
					c16.3-0.9,32.7-0.3,49.1-0.2c7.8,0.1,15.6,0.6,23.3,1.8C439.4,585.9,447.9,583.8,456.8,580.5z"/>
				<path d="M723.1,596.3c-7.4,0.3-14.7-0.6-21.9-2.1c-11.7-2.4-23.6-2.9-35.5-3c-13.2-0.2-26.3-1.4-39.4-3.1
					c-9.1-1.2-18.3-0.9-27.5-1c-3.2,0-6.3-0.2-9.4-1.4c-1.6-0.6-2.5-1.5-2.3-3.2c0.2-1.6,0.4-3.2,2.5-4c8.8-3.3,18.1-4.5,27-7.5
					c7.6-2.6,15-5.5,21.8-9.7c6.1-3.8,12.7-6.7,19.7-8.5c2.8-0.7,5.3-1.8,7.7-3.5c8.3-5.9,17.3-6.5,26.8-3.8
					c6.5,1.8,12.9,4.2,19.9,4c7.8-0.2,9.8-1.4,12.6-8.7c0.5-1.3,1-2.5,1.4-3.8c4.2-14.4,28.1-27,42-30.1c23.7-5.3,29,24.2,27.6,40.3
					c-0.9,9.5-4.9,17.4-11,24.4c-2.8,3.2-5.9,6-9.5,8.1c-13.4,7.9-27.3,14.5-42.9,16.4c-0.7,0.1-1.4,0.2-2.2,0.2
					C728,596.4,725.5,596.3,723.1,596.3z M601.4,581.4c7,0.3,14.1-0.2,21,0.6c16,1.8,31.9,3.6,48.1,3.7c10.6,0,21.2,0.9,31.7,3
					c11.2,2.2,22.5,3.3,33.8,1.2c10.9-1.9,20.7-6.6,30.5-11.5c6.1-3,11.5-6.9,15.8-12.3c4.8-6.1,8.1-12.8,8.1-20.7
					c0-13.4-2.1-35.7-18.9-32.5c-12.3,2.4-35.7,12.6-39.5,25.6c-0.9,3-2,6-3.5,8.8c-2.5,4.6-6.3,7.2-11.5,7.5
					c-2.4,0.2-4.7,0.2-7.1,0.2c-6.7,0-12.8-2.4-19.1-4.2c-7.8-2.2-15.1-1.7-21.8,3.2c-2.7,1.9-5.7,3.3-8.9,4.1
					c-6.9,1.8-13.3,4.7-19.4,8.4c-6.4,3.9-13.1,7-20.3,9.2C614,577.7,607.8,579.8,601.4,581.4z"/>
				<path d="M257.5,537.2c-6.4,0.2-12.6,1.4-18.2,4.9c-1.6,1-3.3,1.6-4.5-0.3c-1.1-1.8,0.1-3,1.5-4.1c2-1.6,4.4-2.7,6.8-3.4
					c6.6-2,13.3-3.1,20.1-1.9c2.1,0.4,4,1.1,5.8,2.3c1.3,0.9,2.1,2.2,1.2,3.7c-0.9,1.6-2.4,1.5-3.8,0.7
					C263.7,537.4,260.6,537.1,257.5,537.2z"/>
				<path d="M255.9,586.4c-5.2-0.2-10.3-0.7-15.3-2.2c-1.4-0.4-2.7-1-3.7-2.2c-0.9-1-1.1-2.1-0.3-3.2c0.8-1.1,1.9-1.3,3.1-0.8
					c7.3,3.3,14.9,3.6,22.6,2.2c1.6-0.3,3.2-0.4,3.8,1.5c0.6,2.1-0.8,2.9-2.4,3.6C261.1,586.4,258.5,586.5,255.9,586.4z"/>
				<path d="M278.6,567.7c-1.3-0.4-3.3-0.9-5.3-1.6c-5.3-2-10.4-4.2-14.5-8.3c-1.2-1.2-2.3-2.6-0.9-4.2c1.6-1.7,3.1-0.7,4.5,0.6
					c3.9,3.5,8.7,5.5,13.6,7.2c1.6,0.5,3.3,1.1,4.8,1.9c1.1,0.6,1.6,1.7,1.1,3C281.5,567.3,280.6,567.9,278.6,567.7z"/>
				<path d="M705.6,573.3c-7.4-1.2-14.8-1.5-22.3-1.6c-5.9-0.1-11.8,0-17.5,2.1c-1.6,0.6-3.2,0.5-3.8-1.4c-0.6-1.9,0.7-2.8,2.3-3.5
					c3.6-1.5,7.3-2.2,11.1-2.4c9.5-0.4,19.1-0.3,28.6,0.9c0.9,0.1,1.8,0.3,2.6,0.7c1.3,0.5,2.1,1.5,1.9,2.9
					C708.4,572.4,707.2,573.3,705.6,573.3z"/>
				<path d="M744.5,581.5c-1.6-0.1-2.7-0.5-3-1.9c-0.3-1.5,0.4-2.4,1.7-3c2.2-1,4.5-1.9,6.7-3.1c6.1-3.2,12.1-6.6,17.5-11
					c1.4-1.1,2.9-1.9,4.3-0.3c1.3,1.6,0.5,3-0.8,4.3c-1.7,1.7-3.6,3-5.6,4.3c-5.4,3.4-11,6.6-16.9,9.2
					C746.9,580.7,745.5,581.1,744.5,581.5z"/>
				<path d="M773.4,535.1c1.1,0.1,2,0.4,2.4,1.5c0.4,1.2,0.1,2.2-0.9,2.9c-1.1,0.8-2.3,1.5-3.5,2c-5,2.3-9.7,4.9-13.8,8.6
					c-1.1,1-2.4,1.4-3.6,0.2c-1.2-1.1-1.1-2.6,0-3.7c5.4-5.3,12-8.8,18.9-11.5C773,535.1,773.2,535.1,773.4,535.1z"/>
			</g>
		</g>
	</g>
</g>
</svg>
