<?xml version="1.0" encoding="utf-8"?>
<!-- Generator: Adobe Illustrator 18.0.0, SVG Export Plug-In . SVG Version: 6.00 Build 0)  -->
<!DOCTYPE svg PUBLIC "-//W3C//DTD SVG 1.1//EN" "http://www.w3.org/Graphics/SVG/1.1/DTD/svg11.dtd">
<svg version="1.1" xmlns="http://www.w3.org/2000/svg" xmlns:xlink="http://www.w3.org/1999/xlink" x="0px" y="0px"
	 viewBox="0 0 286 292" enable-background="new 0 0 286 292" xml:space="preserve">
<g id="_xFFFD__x83__x8C__xFFFD__x99__xA0_影像_1_">
</g>
<g id="圖層_4">
	<polygon fill="#FFFFFF" points="95.5,91 97.1,94.4 126.5,79.5 160.5,152.5 92.5,190.5 61.5,194 28,186 16,170.5 11.5,149.5 
		18,125.5 31.5,108.5 48,94 57.5,75 64,51 76,71.5 	"/>
	<polygon fill="#FFFFFF" points="199,139.5 186.7,161 204.8,261.9 225.5,254.5 244.5,241 254,226 254,216 247.5,199 231.5,184 
		217,171 205.5,149.5 	"/>
</g>
<g id="_xFFFD__x9C__x96_撅_xFFFD_1_xA0_影像_3_">
	<g>
		<path fill="#369EBB" d="M195.5,152.5c4.6,15.1,14.6,26.8,24.3,38.7c4.1,5,7.9,10.2,10.9,15.9c5.2,9.8,5.2,19.8,0.5,29.8
			c-2.9,6.2-6.6,11.9-11.1,17c-1,0.3-1.8,0.9-2.8,1.3c-6.4,2-12.9,3.1-19.5,3.3c-9.3,0.3-18.5-0.1-27.5-2.7
			c-7.9-2.3-15.1-5.8-20.1-12.7c-7.6-10.5-7.6-21.8-3.3-33.4c0.6-1.7,1.9-2.2,3.6-2.3c3.5,0,6.9,0.1,10.4,0c5.2-0.2,7.5-2.1,8.1-7.3
			c0.5-5.1,1.6-10,2.1-15.1c0.1-1.3,0.2-2.6-0.6-3.7c-1.4-1.9-0.7-3.3,0.8-4.7c5.2-5.1,10.3-10.3,15.4-15.4c2.1-2.1,4.1-4.1,5.9-6.4
			C193.4,153.8,194,152.5,195.5,152.5z"/>
		<path fill="#222222" d="M195.5,152.5c-7.4,8.8-15.9,16.5-23.9,24.6c-1.2,1.2-1.8,2-0.4,3.7c1.7,1.9,0.5,4.4,0.3,6.6
			c-0.6,4.9-1.3,9.9-2.2,14.8c-0.6,3.5-2.2,4.9-5.7,5.6c-4.2,0.8-8.5,0.4-12.8,0.4c-2.1,0-3,0.8-3.6,2.7c-3.9,12-3.6,23.3,4.9,33.4
			c5.8,6.9,13.9,10.1,22.5,11.8c14.6,2.9,29,2.4,43.4-1.6c0.7-0.3,1.2-0.4,1.2,0.7c-3.2,5.5-8.7,6.2-14.3,6.8
			c-13.5,1.5-26.9,0.9-39.8-3.7c-13-4.6-21.6-13.4-24.3-27.3c-1.3-6.8-0.4-13.6,1.6-20.2c0.6-1.9,0.4-2.3-1.6-2.3
			c-14.8,0.1-29.6,1.4-44.3,3.3c-2.2,0.3-4.3,0.5-6.5,0.5c-3.1,0-4.7-1.7-4-4.7c2.4-10.4,4.9-20.8,7.4-31.3c0.9-3.5,3.3-5.4,6.7-6.4
			c12-3.7,23.3-8.8,32.9-17c5.4-4.6,10.3-9.6,12-16.8c1.3-5.8-0.4-10.9-5-14.7c-4.4-3.5-9.3-3.1-14.1-0.5c-6.4,3.4-10.4,9-13.1,15.5
			c-1.2,3-2.8,4.1-6,4.3c-9.1,0.4-18.1,0.9-27.2,2c-5.1,0.6-5.3,0.4-4.2-4.6c2.1-9,4.9-17.9,8.4-26.4c2.3-5.6,6.3-10.2,10.6-14.4
			c0.9-0.9,1.8-1.8,2.8-2.8C83.8,84.1,73.3,71.7,65.9,56.5c-1,1.6-1,3.5-1.5,5.2c-5,18-14.7,33-28.7,45.4
			c-10.9,9.6-18.1,21.5-20.3,36c-2.3,15.1,0.8,28.6,12.7,39c6.1,5.3,13.9,7,21.5,8.5c10.3,2.1,20.4,0.8,30.5-1.2
			c1.8-0.4,3.5-0.6,4,1.5c0.5,2-1.1,2.7-2.7,3c-16.1,3.5-32.1,3.5-47.6-2.9c-12.9-5.3-19.9-15.6-22.6-28.8
			C7.1,141.3,13.5,123.3,28,108c6.5-6.9,13.9-12.9,19.3-20.7c7.5-10.9,12.6-22.9,14.7-36c0.2-1.5,0.5-3.1,2-3.6
			c1.5-0.5,3.3-1.3,4.2,1.2c5.3,15.5,15.5,27.6,27.6,38.2c1.6,1.4,3.3,3.8,5,3.9c1.7,0.1,3.6-2.1,5.4-3.3c12-8.2,25.2-10,39.3-7.6
			c9.6,1.7,18.5,4.6,25.6,11.6c11.8,11.6,14.8,25.5,11.3,41.3c-4.6,21.2-17.7,35.5-36.6,45.1c-0.8,0.4-1.6,0.8-2.4,1.2
			c-0.4,0.6-1.3,0.5-1.5,0.8c0.4-0.5,1.3,0.1,2.1-0.3c6.3-0.9,12.6-1.5,19-1.6c0.9,0,1.6-0.2,2.2-0.8c8.6-9,17.9-17.2,26.2-26.6
			c1-1.1,1.9-2.4,3.1-4C194.7,148.9,195.1,150.7,195.5,152.5z"/>
		<path fill="#6C6C6C" d="M143.7,179.7c-0.6,0.7-1.4,0.6-2.4,0.5c0.5-0.8,1.1-1.1,1.8-1C143.4,179.4,143.6,179.5,143.7,179.7z"/>
		<path fill="#455053" d="M219,255c-0.2-0.5-0.7-0.6-1.2-0.7c0.7-0.6,1.4-0.9,2.3-0.5C219.9,254.4,219.6,254.8,219,255z"/>
		<path fill="#FFFFFF" d="M90.9,207.2c2.2-9.5,4.4-19.1,6.6-28.6c0.5-2.2,1.8-3.5,4.1-4.2c12.4-3.8,24.1-9.2,34.1-17.6
			c6.1-5.1,11.6-10.8,13.7-18.9c3.3-12.3-5.6-24.2-17.6-23.6c-5.2,0.3-9.6,2.5-13.4,6c-4.3,4-7.9,8.6-10,14.1
			c-0.5,1.4-1.3,1.6-2.6,1.7c-7.9,0.6-15.8,0.8-23.6,2c-1.6,0.3-2.2-0.2-1.7-1.8c2.5-7.9,3.8-16.3,8-23.4
			c10.7-17.9,25.7-29.5,47.7-29.1c6.2,0.1,12.3,1.3,18.2,3.2c14.3,4.7,25.3,18.8,24.5,34.7c-1.1,20.9-10.8,37.1-28.8,48.2
			c-8,4.9-16.7,8.3-25.2,12.3c-0.7,0.3-1.3,0.6-2,0.9c-1.3,0.8-2.5,1.7-1.8,3.5c0.6,1.6,2,1.7,3.4,1.4c6.7-1.3,13.4-2.6,20.1-3.7
			c6.4-1,12.9-1.8,19.5-1.6c2.5,0.1,3.3,0.9,2.9,3.4c-0.8,4.6-1.5,9.3-2.1,14c-0.3,2-1.1,2.7-3.1,2.9c-8.3,0.9-16.7,0.3-25.1,0.6
			c-14.4,0.5-28.8,1.7-43.1,3.6C92.8,207.5,91.9,207.7,90.9,207.2z"/>
	</g>
</g>
<g id="_xFFFD__x9C__x96_撅_xFFFD_1_xA0_影像_1_">
	<g>
		<path fill="#222222" d="M81.2,133.9c0.9-7.5,1.8-15.1,5.2-22c0.6-1.2,1.2-2.3,0.6-3.8c-0.4-1,0.1-2,0.7-2.8
			c8.2-11.3,17-21.9,30.8-26.7c13.9-4.8,27.9-6,41.8-0.3c9.7,4,16.8,11.4,21.9,20.5c7.3,13.2,7.1,27,3.1,41.2
			c-3.9,13.5-12.9,23.1-23.1,32c-1.3,1.2-2.8,2.3-4.1,3.6c4.6,0.1,9,1.2,12.8-3.2c5.5-6.3,11.8-11.8,17.6-17.9
			c4.2-4.3,7.5-9,8.2-15.3c0.4-3.5,2.9-4.2,5.6-1.9c2,1.7,3.1,4,4.3,6.3c1.2,2.3,2.4,4.7,3.3,7.2c3.7,10.4,10.5,18.6,18.3,26.1
			c6.6,6.3,13.3,12.4,19.4,19.2c4.8,5.3,8.3,11.3,9.4,18.4c1.7,11.4-2.4,20.9-10.3,28.9c-11,11.1-24.4,17.1-39.7,19.3
			c-13.1,1.9-26.1,1.5-38.9-2.3c-13.4-3.9-23.2-11.8-27-25.9c-2-7.5-1.2-15,1-22.3c0.6-2,0.6-2.6-1.8-2.6
			c-14.8,0.2-29.6,1.4-44.3,3.3c-2,0.3-4,0.5-6,0.5c-3.4,0.1-4.9-1.7-4.2-5c2.3-10,4.7-20,7.1-30c0.9-3.8,3.1-6.1,6.9-7.3
			c12-3.6,23.3-8.8,32.9-17c5.3-4.5,10.2-9.4,12-16.5c1.5-5.9-0.2-11.2-4.8-15c-4.6-3.8-9.9-3.2-14.8-0.4c-6.1,3.5-10,8.9-12.6,15.2
			c-1.2,2.8-2.7,4.1-5.8,4.2c-8.3,0.3-16.7,0.8-25,1.8c-0.8,0.1-2.1,0.6-1.8-1c0.2-1.1-0.9-2.9,1.4-3.1c5.2-0.5,10.5-1.1,15.7-1.6
			c2.6-0.2,5.3-0.5,7.9-0.5c2,0,3-0.7,3.8-2.6c2.3-5.7,6.1-10.5,10.9-14.4c7.6-6.1,16.9-6.5,23.4-1.3c6.7,5.4,8.8,15.7,4.8,24.1
			c-3.4,7.1-8.9,12.3-15,17c-9.3,7.1-19.8,11.8-30.9,15.2c-2.7,0.8-4.1,2.4-4.7,5c-2,8.9-4,17.7-6.2,26.5c-0.7,2.8,1.3,1.8,2.3,1.7
			c6.7-0.7,13.3-1.5,20-2.2c12.2-1.2,24.5-1.6,36.7-1.5c4,0,8-0.2,12-0.5c1.7-0.1,2.5-0.9,2.7-2.5c0.6-4.3,1.2-8.6,1.9-12.9
			c0.2-1.4-0.3-1.8-1.5-1.7c-12.1,1-24.3,0.5-36.4,2.1c-1.7,0.2-3.4,0.3-5.2,0c-1.2-0.2-2.3-0.6-2.6-2c-0.3-1.3,0.4-2.3,1.4-3.1
			c0.6-0.5,1.4-0.8,2.1-1.2c9.6-4.5,18.9-9.7,28-15.2c8.7-5.2,14.8-12.7,20-21.2c4.7-7.8,6.5-16.4,6.5-25.3
			c0-14.8-10.5-29-24.7-33.3c-26.9-8-46.8-1.4-64.3,22.8c-3.3,4.6-4.5,10.3-6.3,15.6C82.7,128.8,82,131.4,81.2,133.9z M200.7,142
			c-4.6,14.6-17.2,22.2-25.9,32.8c4.8,1.8,5,2,4.6,7.2c-0.2,2.9-0.8,5.8-0.9,8.7c-0.1,6.3-2.6,10.9-8.3,13.8
			c-1.1,0.6-2.1,1.4-3.1,2.3c-1.4,1.2-2.9,1.7-4.7,1.9c-4.2,0.5-8.3,0.3-12.5,0.4c-1.1,0-2.2,0-2.6,1.4c-2.3,6.3-3.6,12.8-2.5,19.5
			c2.2,13.5,10.7,21.4,23.3,25.4c9.8,3.2,19.9,3.8,30.2,3.3c15.2-0.8,29.1-5.1,40.9-15c6.1-5.1,11-11,12.8-19.1
			c2.1-9.4-1.1-17.4-7-24.4c-6.1-7.2-13.2-13.5-20-20.1c-8.4-8-15.6-16.7-19.5-27.8C204.3,148.8,202.5,145.7,200.7,142z"/>
		<path fill="#222222" d="M65.5,57.2c-1.1,3.6-1.9,6.9-3,10.1c-5,15-13.3,27.8-25,38.4c-7.4,6.7-14.2,13.8-18.1,23.2
			c-5,12.1-7.1,24.3-2.9,37.1c3.9,11.9,11.7,19.5,23.6,23.2c12.8,4,25.5,3.9,38.5,1.2c1.8-0.4,4.4-1.7,5,1.2c0.6,2.8-2.2,2.9-4,3.3
			c-13.5,2.6-26.8,2.8-40.1-1.1c-17.2-5-26.6-16.7-29.1-33.8c-3.1-21.1,4.3-38.9,19.6-53.6c8.3-8,16.5-15.9,21.8-26.3
			c4.6-8.9,8.4-18.1,9.8-28.1c0.1-0.8,0.3-1.6,0.7-2.3c0.7-1.3,2-1.7,3.5-1.6c1.1,0,1.6,0.6,1.9,1.6c4.2,13.2,12.8,23.5,22,33.3
			c0.7,0.7,1.7,1.2,1.2,2.7c-1.2,3.4-1.5,3.6-4,1c-8.2-8.4-15.7-17.4-20.6-28.2C66.2,58.2,65.9,57.9,65.5,57.2z"/>
	</g>
</g>
</svg>
