<?xml version="1.0" encoding="utf-8"?>
<!-- Generator: Adobe Illustrator 18.0.0, SVG Export Plug-In . SVG Version: 6.00 Build 0)  -->
<!DOCTYPE svg PUBLIC "-//W3C//DTD SVG 1.1//EN" "http://www.w3.org/Graphics/SVG/1.1/DTD/svg11.dtd">
<svg version="1.1" xmlns="http://www.w3.org/2000/svg" xmlns:xlink="http://www.w3.org/1999/xlink" x="0px" y="0px"
	 viewBox="0 0 250 310" enable-background="new 0 0 250 310" xml:space="preserve">
<g id="_xFFFD__x83__x8C__xFFFD__x99__xA0_影像_1_">
</g>
<g id="圖層_4">
	<polygon fill="#FFFFFF" points="130.5,83 115,107.5 98.5,115 83,134.5 81.5,139.6 103.5,141.5 64,206.5 104,284 146,274 175,248.5 
		183.5,217.5 181,201 167,171 171,158 171,127 149.5,110.5 137,107.5 	"/>
</g>
<g id="_xFFFD__x9C__x96_撅_xFFFD_1_xA0_影像_3_">
	<g>
		<path fill="#222222" d="M224.1,181.7c-0.6,0.1-0.6,0.6-0.7,1c-3,8.2-9.9,12.8-18.5,11.4c-4.5-0.8-8.3-4.2-11.8-7
			c-3-2.4-2.2-7.1-1.6-10.9c0.6-4.7,2.4-9.1,4.6-13.3c3.3-6.3,7.2-12.4,8.4-19.7c0.2-1.3,0.5-2.7,0.3-4c-0.3-2.5,1.3-3.8,2.9-4.8
			c1.7-1.1,3,0.1,3.6,1.7c0.5,1.3,0.6,2.6,0.8,4c0.3,2.3,0.9,4.5,1.8,6.5c3.9,8.4,7.4,17,9.3,26.1c0.1,0.5,0.1,1.1,0.8,1.3
			c0,0.9,0,1.8,0,2.7c-0.5,1.5-0.5,2.9,0,4.4C224.1,181.3,224.1,181.5,224.1,181.7z"/>
		<path fill="#D2D2D2" d="M101.4,287c0,0.2,0,0.3,0,0.5c-3.5,0-6.9,0-10.4,0c0-0.2,0-0.4,0-0.5C94.5,285.6,97.9,285.5,101.4,287z"/>
		<path fill="#7A7A7A" d="M224.1,181.2c-0.9-1.5-0.7-2.9,0-4.4C224.1,178.3,224.1,179.7,224.1,181.2z"/>
		<path fill="#369EBB" d="M164.2,192.5c1.8,4.7,2.8,9.5,3.5,14.4c2.9,19.4-3.6,35.1-17.5,48.8c-10.9,10.8-24,18-37.1,25.3
			c-0.8,0.3-1.7,0.5-2.5,0.9c-12.8,2.4-25.3,1.3-37.6-2.8c-10.9-3.7-18.9-10.7-23.5-21.3c-3-6.9-3.8-14.2-3.3-21.6
			c0.7-10.5,2.8-20.7,6.4-30.6c4.1-11.1,10.4-20.9,18-30c4.7-5.6,10-10.8,14.8-16.3c3.9-4.4,7.4-9.3,10.2-14.5
			c1.2-2.3,2.9-3.1,5.1-2.5c3.7,1,6.3-0.4,8.6-3.1c2.4-2.8,5.3-4.9,8.8-6.3c4-1.5,8.1-2.1,11.5,1.2c3.6,3.4,4.9,7.8,3.7,12.7
			c-1,3.8-3.4,6.6-6.7,8.5c-4.8,2.9-10.2,3.9-15.7,4.1c-4.1,0.2-5.1,0.8-6,4.8c-1.2,5.2-2,10.5-2.7,15.9c-0.5,3.9,0.6,4.8,4.4,4.3
			c3.5-0.4,7-1,10.6-0.8c6.4,0.3,10.5,3.2,12.2,8.7c0.9,2.8,0.4,5.2-1.6,7.3c-3.5,3.8-8.3,4.7-13,5.6c-6.7,1.4-13.3,0.4-19.8-0.7
			c-6.1-1-12.2-0.4-18.2-1.4c-0.5-0.1-1.1,0-1.6-0.1c-4.6-0.3-5.4,0.3-5.2,5.1c0.2,5.9,1.2,11.8,3.5,17.3c2.5,6,7.1,10,13.2,12.3
			c6.8,2.5,13.9,3.6,21.1,3.8c6.5,0.2,12.9,0.2,19.2-1.7c10-3.1,17.8-9.1,24.3-17.2c6.6-8.3,11.2-17.4,12.1-28.1
			C163.4,193.7,163.5,193,164.2,192.5z"/>
		<path fill="#222222" d="M164.2,192.5c0,19.2-17.9,42.6-36.5,47.9c-8,2.3-16.2,2.3-24.3,1.6c-4.9-0.4-9.7-1.2-14.4-2.7
			c-9.4-2.8-15.5-8.8-17.8-18.5c-1.1-4.7-2.1-9.4-1.9-14.3c0.2-4.1,1.1-4.8,5.2-4.4c2.7,0.3,5.4,0.7,8.1,0.6
			c7.2-0.2,14.2,1.4,21.4,2c6.7,0.6,13.2-0.2,19.4-2.9c3.2-1.4,5.8-3.6,5.7-7.5c-0.1-3.8-2.9-7.5-6.6-8.9c-3.3-1.3-6.8-1.2-10.2-0.9
			c-2.2,0.2-4.3,0.6-6.5,0.8c-3.4,0.4-4.9-0.8-4.5-4.2c0.7-6.2,1.7-12.4,3.1-18.5c0.7-2.9,2.4-4,5.3-4c5.5,0,10.9-0.8,15.8-3.6
			c4.6-2.6,7.9-6.3,7.4-12c-0.5-6.3-4.8-13.3-14.3-9.6c-4.1,1.6-7.5,4.1-10.1,7.6c-1.7,2.2-3.6,2.9-6.2,2.2
			c-0.5-0.1-1.1-0.2-1.6-0.3c-2.2-0.5-3.4,0.1-4.6,2.4c-3.9,7.6-9.4,14-15.3,20.1c-9.9,10.3-19.1,21-25,34.2
			c-6,13.4-9.4,27.5-8.9,42.3c0.6,19.2,10.9,33.4,32.9,38.4c10.2,2.4,20.5,2.6,30.8,1c0.5-0.1,1-0.4,1,0.5c-3.3,2-6.5,4.1-10.3,5.1
			c-3.5,0-6.9,0-10.4,0c-7.3-1-14.5-2.1-21.4-4.8c-16.5-6.5-26.8-21.1-27.2-38.8c-0.6-28.6,9.1-53.1,28.5-74
			c6.1-6.6,12.8-12.7,17.9-20.2c1.4-2.1,2.7-4.3,4.3-6.8c-3.4-0.4-6.3-0.7-9.3-0.9c-1.2-0.1-2-0.4-2.2-1.8c-0.3-1.9-0.8-3.7-1.3-5.5
			c-0.2-0.7,0.1-1.2,0.4-1.7c3.8-5.7,7.8-11.2,12.9-15.8c5.1-4.7,11-7.6,17.8-8.7c0.7-0.1,2.1-1,2,0.6c-0.1,1.3,1.5,3.5-1.2,4
			c-14.1,2.5-21.3,13.3-28.4,24c0,0.1,0,0.2,0.1,0.6c6.5,0.6,13.1,1.2,19.6,1.9c1.2,0.1,1.5-0.8,2.1-1.5c3.5-4,7.5-7,12.6-8.7
			c10.7-3.7,17.8,3.4,19.3,12.1c1.3,7.5-1.7,13.1-7.7,17.3c-5,3.5-10.7,5.1-16.7,5c-3,0-4.4,0.8-4.7,4c-0.3,3.6-1.2,7.2-1.8,10.7
			c-0.4,2.1-0.1,2.8,2.4,2.5c4.7-0.7,9.4-1,14.1,0.3c4.9,1.4,8.2,4.5,10,9.2c2.3,6.1,0.3,12-5.3,15.3c-4.7,2.8-9.9,4-15.3,4.4
			c-7.1,0.5-14.1-0.6-21.2-1.4c-5.2-0.6-10.5-0.8-15.7-1.2c-1.2-0.1-1.4,0.5-1.4,1.4c0.3,6.8,1.4,13.4,5.2,19.2
			c2.2,3.3,5.5,5.3,9.2,6.5c10.7,3.5,21.6,4.8,32.8,2.9c14-2.3,23.6-11.1,31-22.5c3.9-6,6.7-12.4,7.1-19.8c0.3-6.4-2-11.5-6.8-15.6
			c-0.8-0.6-1.6-1.2-2.3-1.9c-1.7-1.7-1.1-4.1,1.2-4.6c1.7-0.4,3.4,0,5.1-0.6c0.6-0.2,0.9,0.4,1.1,0.9c0.4,1.1,0.8,2.2,1.1,3.3
			c-0.9,2,1.4,2.9,1.7,4.5C162.1,184.4,163.3,188.4,164.2,192.5z"/>
		<path fill="#222222" d="M58.1,109.8c-1.5,0.1-3.4-0.1-5.3-0.6c-8.3-2.1-12.6-8.7-11.3-17.2c1.1-7.5,4.2-14.2,8-20.6
			c5.2-8.7,10.4-17.5,15.8-26.1c3.3-5.3,5.3-11.1,7.7-16.8c0.6-1.5,1.4-3.1,3.3-2.4c2.2,0.7,1.6,2.4,1.1,4.1
			c-1.8,6.4-1.5,12.8,0.9,19c2.6,7,5.6,13.8,8.2,20.7c1.7,4.5,2.8,9.2,2.2,14.1C86.8,98.9,74,109.8,58.1,109.8z"/>
		<path fill="#333333" d="M171.2,140.2c-2-3.8-3.6-7.8-5-11.9c-0.2-0.6-0.5-1.1,0.5-1.1c2.6,3.8,4.3,7.9,5.1,12.4
			C172,140.2,171.7,140.3,171.2,140.2z"/>
		<path fill="#32494F" d="M125.9,110.2c0.4-0.2,0.8-0.4,1.2-0.6c3.3-2.1,3.3-2.1,4.6,1.9c-2-0.1-3.9-0.2-5.9-0.3
			C125.6,110.8,125.6,110.5,125.9,110.2z"/>
		<path fill="#4698AF" d="M160.4,180.6c-0.8-0.9-1.7-1.9-2.5-2.8c-1.2-1.3-0.1-1.4,0.8-1.7C159.6,177.5,160.2,179,160.4,180.6z"/>
		<path fill="#494949" d="M166.8,127.2c-0.2,0.4-0.3,0.8-0.5,1.1c-0.7-0.7-0.8-1.7-1-2.7C166.3,125.8,166.4,126.5,166.8,127.2z"/>
		<path fill="#2E606E" d="M125.9,110.2c0,0.3,0,0.6-0.1,0.9c-0.6,0-1.2,0.1-1.9,0.1C124.4,110.3,125.1,110.1,125.9,110.2z"/>
		<path fill="#707070" d="M171.2,140.2c0.2-0.2,0.4-0.4,0.6-0.6c0.5,0.6,0.6,1.2,0.4,1.9C171.3,141.5,171.4,140.8,171.2,140.2z"/>
		<path fill="#526A70" d="M111.7,281.9c-0.3-0.2-0.7-0.3-1-0.5c0.7-0.6,1.6-0.4,2.4-0.4C112.7,281.5,112.2,281.8,111.7,281.9z"/>
		<path fill="#FFFFFF" d="M208.5,146.3c4.3,9.5,8.3,18.6,10.3,28.3c1,5.3,0,9.7-4.6,13c-4.2,2.9-9.7,2.9-14.3,0
			c-3.4-2.1-4.4-5.3-3.9-9.1c0.6-5.2,2.5-10,5-14.6C203.8,158.3,206.8,152.8,208.5,146.3z"/>
		<path fill="#FFFFFF" d="M71.7,43.2c1.9,9.2,5.8,17.2,9.2,25.5c2.3,5.6,3.8,11.3,2.7,17.5c-1,5.8-4.2,10-8.8,13.2
			c-6,4.2-12.6,6.9-20.1,5.4c-6.5-1.4-9.1-5.2-8.4-11.8c0.6-5.5,2.5-10.6,5.3-15.3c6.4-11.1,12.9-22.1,19.3-33.1
			C71,44.1,71.3,43.8,71.7,43.2z"/>
	</g>
</g>
<g id="_xFFFD__x9C__x96_撅_xFFFD_1_xA0_影像_1_">
	<g>
		<path fill="#222222" d="M223.8,181c-1.2,5.2-3.7,9.4-8.4,12.1c-6.4,3.7-15.7,2.5-20.9-2.7c-3.8-3.8-3.8-8.4-3.2-13.2
			c0.7-5.3,2.9-10.1,5.4-14.7c3.1-5.8,6.6-11.5,7.7-18.2c0.2-1.2,0.4-2.4,0.3-3.5c-0.2-2,0.6-3.4,2.1-4.7c1.6-1.3,3-1.1,4,0.6
			c0.1,0.2,0.2,0.3,0.2,0.5c1.5,11.5,8.4,21.2,11,32.4c0.7,2.9,1.2,5.8,1.8,8.8C223.8,179.1,223.8,180,223.8,181z M208.3,147.1
			c-2.2,7.8-6.1,14.3-9.4,21c-1.8,3.6-2.8,7.5-3.3,11.5c-0.4,3,0.2,5.8,2.6,7.9c3.9,3.5,9.9,4.2,14.5,1.8c4.7-2.5,7-6.6,6.1-12.3
			C217.2,166.6,212.9,157.1,208.3,147.1z"/>
		<path fill="#222222" d="M42.2,239.7c0.7-26.7,10.2-49.9,28.4-69.4c5.5-5.8,11.3-11.3,16.1-17.7c1.8-2.4,3.3-5,5-7.5
			c1-1.5,0.5-2.1-1.1-2.2c-2.4-0.2-4.7-0.4-7-0.7c-4.7-0.5-6.5-3.3-4.1-7.3c6.6-11.1,14.4-21.1,27.3-25.3c3.2-1.1,5.9-2.7,7.8-5.5
			c0.9-1.3,2.1-2.5,3.2-3.7c5.3-5.6,9.3-12,11.5-19.5c0.7-2.4,1.5-4.8,2.3-7.3c0.5-1.6,1.1-3.3,3.3-2.8c1.9,0.4,2.1,2,2.1,3.6
			c0.1,3.8,0.2,7.6,0.5,11.4c0.4,5.9,1.9,11.6,4,17.2c0.5,1.4,1.2,2.2,2.9,2.4c1.8,0.2,3.6,0.7,5.3,1.3
			c16.1,5.2,26.5,19.2,27.2,36.2c0.4,9.7-1.7,18.8-6.9,27c-1.1,1.7-0.4,2.9,0.3,4.2c3.1,5.7,6.5,11.1,8.9,17.2
			c2.7,6.6,5.2,13.2,6.3,20.2c1.7,10.3-0.2,20-4.2,29.5c-6.3,15-17.4,25.2-31.3,32.8c-17.8,9.7-36.7,14.8-56.9,14.1
			c-10.5-0.4-20.8-2.5-30-7.8c-13.4-7.7-19.9-19.7-20.9-34.9C42.1,243.3,42.2,241.5,42.2,239.7z M129,194.8c-2-8.1-7.9-9.8-14.8-9.4
			c-2.8,0.1-5.6,0.5-8.4,0.9c-3.8,0.5-5.2-0.7-4.7-4.5c0.8-5.7,1.8-11.5,2.9-17.2c0.8-4.2,1.8-4.8,6.2-4.9c4.8-0.1,9.4-0.8,13.8-2.9
			c3.9-1.9,7.1-4.5,8.4-8.8c1.3-4.7,0.1-8.9-3.2-12.3c-3.1-3.2-6.9-2.7-10.7-1.3c-3.1,1.1-6.1,2.6-7.9,5.1c-3,4.3-6.7,5.7-11.6,4.3
			c-1.3-0.3-1.9,0.2-2.4,1.4c-2.3,4.7-5.1,9-8.6,12.9c-4.6,5.2-9.2,10.3-13.9,15.3c-18,19.5-27.3,42.4-27.3,69c0,18,10,31.5,27,37.2
			c11.7,3.9,23.6,4.6,35.8,2.9c19.2-2.8,37-9.2,51.8-21.9c15.3-13.1,23.2-29.8,19.5-50.5c-1.2-6.5-3.8-12.6-6.6-18.6
			c0.4,4,0.2,7.8-1,11.6c-3.5,10.8-9.2,20.3-17.9,27.6c-7.3,6.1-15.4,10.2-25.4,11.5c-12.4,1.7-24.4,2.1-36.7-0.6
			c-12.1-2.7-20.5-9-22.8-21.8c-0.7-3.9-0.5-4.8,3.2-7.2c0,0.1,0.1,0.1,0.1,0.2c0.2,1.3,0.4,2.5,0.7,3.8c1.5,8.3,4.5,15.5,13.2,18.5
			c11.8,4,24,5.7,36.2,2.3c18.8-5.2,29.2-18.8,34.5-36.8c2.5-8.5-0.1-15.9-7.3-21.6c-3-2.4-2.6-4.9,0.9-6.6c1.7-0.9,3.3-1.9,4.7-3.2
			c6-5.4,10.9-11.7,11-20.2c0.2-14.4-7.1-24.7-19.3-31.5c-9.2-5.1-19.3-5.8-29.6-5.2c-17.1,1.1-27.1,11.9-35.5,25.5
			c1.2,0.2,2.1,0.5,2.9,0.6c4.6,0.4,9.2,0.6,13.8,1.3c2.9,0.4,4.7-0.3,6.7-2.6c3.5-4.1,8-6.7,13.4-7.9c6.7-1.4,12.3,1.3,15.3,7.4
			c4.5,9,1.4,18.6-7.8,23.7c-4.9,2.7-10.1,4-15.7,3.9c-2.3,0-3.4,0.8-3.7,3.2c-0.5,4-1.3,7.9-2,11.8c-0.3,1.8,0,2.7,2.2,2.3
			c3.7-0.7,7.4-0.7,11.1-0.3c5.8,0.6,10.3,3.3,12.7,8.9c0.2,0.5,1.1,1.5,0,1.8C130.6,192.1,130.3,193.5,129,194.8z M122.9,104.7
			c4.1-0.4,8-0.2,11.8-0.2c2.2,0,2.4-0.7,1.7-2.5c-1.6-4-2.3-8.2-3.1-12.4c-0.2-1.1,0.2-2.3-0.9-3.4
			C129.4,92.6,127.5,99.3,122.9,104.7z"/>
		<path fill="#222222" d="M57.9,110.6c-1.6,0.1-3.4-0.1-5.3-0.6c-8.3-2.1-12.6-8.7-11.3-17.2c1.1-7.5,4.2-14.2,8.1-20.6
			c5.2-8.7,10.4-17.5,15.8-26.1c3.3-5.2,5.3-10.9,7.6-16.5c0.2-0.6,0.5-1.2,0.9-1.7c0.7-0.9,1.6-1.3,2.6-0.8
			c1.1,0.5,1.6,1.4,1.2,2.5c-4.1,11.9,0.8,22.3,5.2,32.7c2.2,5.4,4.7,10.6,5.4,16.5c1.5,11.6-2.8,20.4-12.6,26.6
			C70,108.8,64.2,110.6,57.9,110.6z M71.5,44.1c-0.4,0.5-0.7,0.7-0.9,1C63.8,56.7,57,68.3,50.3,80c-2.6,4.5-4.1,9.5-4.6,14.7
			c-0.4,5,1.8,8.6,6.5,10.4c3.3,1.3,6.7,1.2,10.2,0.6c10.6-1.9,19.2-9.6,21-19.2c0.9-4.9,0-9.6-1.7-14.2
			C78.3,63.1,73.6,54.2,71.5,44.1z"/>
	</g>
</g>
</svg>
