<?xml version="1.0" encoding="utf-8"?>
<!-- Generator: Adobe Illustrator 18.0.0, SVG Export Plug-In . SVG Version: 6.00 Build 0)  -->
<!DOCTYPE svg PUBLIC "-//W3C//DTD SVG 1.1//EN" "http://www.w3.org/Graphics/SVG/1.1/DTD/svg11.dtd">
<svg version="1.1" xmlns="http://www.w3.org/2000/svg" xmlns:xlink="http://www.w3.org/1999/xlink" x="0px" y="0px"
	 viewBox="0 0 332 308" enable-background="new 0 0 332 308" xml:space="preserve">
<g id="_xFFFD__x83__x8C__xFFFD__x99__xA0_影像_1_">
</g>
<g id="圖層_4">
	<polygon fill="#FFFFFF" points="166.8,27.5 155,59.7 116.7,86.7 174.7,289.3 231.3,273.3 263.3,246 286,203.3 288,171.3 
		281.3,152.7 266,132 248.7,117.3 225.2,102 212.7,94.7 183.5,76.8 171.8,57.5 	"/>
</g>
<g id="_xFFFD__x9C__x96_撅_xFFFD_1_xA0_影像_3_">
	<g>
		<path fill="#ABABAB" d="M43.4,203.2c0-1.6,0-3.3,0-4.9c0.3-0.2,0.6-0.1,0.8,0.2c0.7,1.5,0.7,3,0,4.6
			C44,203.3,43.7,203.3,43.4,203.2z"/>
		<path fill="#D2D2D2" d="M43.4,191.2c0.2,0,0.4,0,0.5,0c1.1,1.3,0.9,2.7,0.3,4.2c-0.2,0.3-0.5,0.4-0.8,0.2
			C43.4,194.1,43.4,192.6,43.4,191.2z"/>
		<path fill="#D2D2D2" d="M43.9,209.2l-0.3,0l-0.3,0c0-1.1,0-2.2,0-3.3c0.3-0.2,0.6-0.1,0.8,0.2C44.7,207.2,44.8,208.2,43.9,209.2z"
			/>
		<path fill="#BFBFBF" d="M43.4,195.5c0.2,0,0.3,0,0.5,0c0.9,0.9,0.9,1.8,0,2.7l-0.2,0l-0.2,0C43.4,197.3,43.4,196.4,43.4,195.5z"/>
		<path fill="#C2C2C2" d="M43.8,205.9l-0.2,0l-0.2,0c0-0.9,0-1.8,0-2.7c0.2,0,0.3,0,0.5,0C44.7,204.1,44.7,205,43.8,205.9z"/>
		<path fill="#369EBB" d="M162.7,45.6c1.5,7.8,2.7,15.7,5,23.3c4.3,14.2,12.6,25.8,22.8,36.3c10.2,10.5,21.7,19.3,33,28.4
			c10,8.2,19.6,16.6,26.3,28c8.7,14.6,10.6,29.9,5.3,45.8c-5.2,15.6-12.3,30.5-21.6,44.2c-7.2,10.6-16.7,18.8-26.5,26.8
			c-1.6,1.3-2.9,3.2-5.1,3.7c-0.1,0-0.1,0-0.2,0.1c-6.8,3.3-14.2,4.8-21.5,6.5c-13.4,3.1-27,4.2-40.6,3.3
			c-14.9-1-29.6-3.9-43.2-10.6c-8.1-4-15.4-9.2-21.9-15.6c-7.5-7.2-14-15.1-18.7-24.3c-5-9.8-7.9-20.3-8.6-31.3
			c-1.8-27.1,4.4-52.2,19.3-74.9c8.1-12.5,19-22.4,31.2-30.9c10.1-7,20.6-13.3,30.3-20.8c9.2-7.1,18.1-14.6,25.6-23.5
			c3.2-3.9,5.8-8.1,7.9-12.7C161.9,46.7,162,46,162.7,45.6z"/>
		<path fill="#222222" d="M163.5,44.1c-1,4.7-3.6,8.5-6.3,12.2c-8,10.9-18.5,19.2-29.1,27.3C117.1,92,105.2,98.8,94.2,107
			c-24.4,18.1-38.6,42.3-43.8,72.2c-3,16.8-3.4,33.6,2.6,49.7c11.1,30,32.6,49,63.5,57c13.9,3.6,28.1,4.9,42.4,3.8
			c13.9-1,27.5-3.9,40.7-8.3c1-0.3,2-0.9,3.1-0.8c-3.2,3.6-6.7,6.9-11.4,8.2c-17.7,4.8-35.6,7.2-53.9,5.4c-20.5-2-40.1-6.9-56.7-20
			c-18.4-14.5-31.2-32.5-35.4-56c-0.5-3-0.9-6.1-1.4-9.1c0-1.1,0-2.2-0.1-3.3c0-0.9,0-1.8,0-2.7c0-1.6,0-3.3,0-4.9
			c0-0.9,0-1.8,0-2.7c0-1.5,0-2.9,0.1-4.4c1.2-9.8,2.8-19.5,5.7-29.1c7.6-25.4,22.8-45.3,44.2-60.6c9-6.4,18.3-12.4,27.4-18.7
			c7.2-5,14.1-10.5,20.6-16.5c9.4-8.7,17.6-18.1,20.5-31.3c0.2,1.5,0.4,3,0.6,4.6C163,41,163.3,42.6,163.5,44.1z"/>
		<path fill="#5C5C5C" d="M205.4,283.7c1-0.9,2.1-1.7,3.1-2.6c0.2,0.2,0.4,0.4,0.6,0.6c-0.9,1.1-1.9,2-3.2,2.6
			C205.7,284.2,205.6,284,205.4,283.7z"/>
		<path fill="#A8A8A8" d="M212.9,277.9c-0.5,0.9-0.8,1.6-1.8,1.5C211.3,278.6,211.7,278.2,212.9,277.9z"/>
		<path fill="#FFFFFF" d="M158,120.9c1.7-0.4,2.5-2,3.7-3.1c0.8-0.6,1.5-1.4,2.5-1.5c1-0.6,1.9-0.1,2.9,0.2
			c4.5,1.3,8.6,3.4,12.8,5.5c2.1,1.1,2.7,2.6,2.2,4.9c-0.7,3.3-1.4,6.6-2.3,9.8c-3.8,13.9-6.3,28-8.8,42.1c0,0.3-0.1,0.5-0.1,0.8
			c-0.7,4.8,0.7,6.4,5.4,5.7c6.1-0.9,12.3-1,18.5-0.9c0.6,0,1.3,0,1.9,0c2.3,0.2,2.9,0.8,2.5,3.2c-0.4,2.6-1.3,5.1-1.9,7.7
			c-0.8,3.3-1.8,6.5-2.3,9.8c-0.3,2.1-1.5,3.1-3.6,3.4c-3.6,0.6-7.2,0.5-10.9,0.8c-14.7,1.3-29.5,2.3-44.2,4.4
			c-4.3,0.6-8.5,1.8-12.8,2.7c-2.8,0.6-3.7,0-3.4-2.8c0.3-3.3,0.7-6.5,1-9.8c0.3-2.6,1.5-4.1,4.2-4.6c7.2-1.5,14.3-3.4,21.7-3.9
			c3.7-0.3,5.9-2.1,7-5.5c1.5-4.5,2-9.2,2.8-13.9c1.2-7.2,1.9-14.4,2.9-21.6c0.2-1.3,0.1-2.5,0-3.8c-0.1-1-0.3-2-1.4-2.4
			c-1.1-0.4-1.9,0.2-2.7,0.8c-0.6,0.5-1.1,1-1.6,1.5c-5.3,5.3-10.6,10.8-16.3,15.7c-1.3,1.1-2.5,3-4.3,2.5c-1.7-0.5-1.4-2.8-1.7-4.3
			c-0.6-2.4-0.7-4.9-1.4-7.2c-1-3.3,0-5.8,2.3-8.1c2.9-3,5.6-6.2,8.4-9.3c4.9-5.5,9.5-11.2,14.3-16.8
			C156.2,122,156.9,121.2,158,120.9z"/>
		<path fill="#222222" d="M158,120.9c-8,10-16.3,19.7-25,29.1c-1.8,1.9-2.5,3.7-1.8,6.4c1,4,1.5,8.2,2.3,12.6
			c5.1-4,9.4-8.4,13.8-12.7c2.7-2.7,5.5-5.3,8.2-8c1-1,2-1.6,3.4-1.1c1.4,0.6,1.9,1.9,1.9,3.3c0,5.4-1,10.7-1.7,16
			c-1,7.6-1.9,15.1-3.8,22.5c-1.4,5.4-3.2,6.8-8.7,7.3c-7.4,0.7-14.7,2.4-21.9,4.1c-1.4,0.3-2.2,1-2.4,2.5c-0.4,4-0.9,7.9-1.4,11.9
			c-0.1,1.1,0.1,1.7,1.5,1.3c9.5-2.6,19.2-4,28.9-4.9c9.3-0.8,18.6-1.7,27.9-2.5c4.2-0.4,8.5-0.7,12.8-1c1.1-0.1,1.7-0.3,2-1.6
			c1.4-6.1,2.8-12.2,4.4-18.2c0.6-2.2-0.2-2.6-2.1-2.7c-6.4-0.1-12.7,0-19,0.9c-0.4,0.1-0.9,0.2-1.3,0.2c-4.9,0.6-6.7-1.3-5.9-6.3
			c0.7-4.1,1.6-8.2,2.3-12.3c2.1-13.3,5.7-26.2,8.7-39.3c1.1-4.6,1-4.5-3.1-6.7c-4.4-2.3-9-3.9-13.7-5.4c0-1.5,0.8-2,2.3-1.7
			c4.7,1.2,9.6,2.2,14.2,3.6c5,1.5,6.2,4,5.2,9.1c-2.4,12.1-6.2,23.9-8.2,36.1c-0.8,5.1-1.9,10.2-2.9,15.2c-0.4,2.1,0.1,3,2.4,2.6
			c5.8-0.8,11.7-1.3,17.7-1.1c7.8,0.3,10,1.5,7.8,9.8c-1.7,6.1-3.4,12.2-4.5,18.5c-0.4,2-1.5,3.2-3.6,3.4c-6.1,0.5-12.3,1-18.4,1.6
			c-18.1,1.7-36.2,2.3-53.9,7.2c-1,0.3-2,0.4-2.9,0.4c-2.3,0-3.7-1.2-3.5-3.5c0.5-5.5,1.1-11,1.8-16.5c0.4-2.9,2.2-4.7,5.1-5.3
			c7.6-1.7,15.2-3.8,23-4.2c2.9-0.2,4.3-1.5,5-4.3c2-9.1,3.1-18.4,4.3-27.7c0.2-1.5,0.9-3,0.2-5.4c-1.6,1.8-2.9,3.4-4.2,4.8
			c-4.6,4.8-9.4,9.4-14.5,13.6c-0.8,0.7-1.7,1.3-2.7,1.8c-2.2,1-4.2,0.2-4.7-2.1c-1.1-5.9-2-11.8-2.9-17.7c-0.4-2.7,0.6-4.9,2.5-6.9
			c9.2-9.7,17.8-19.9,26.5-30c0.5-0.1,0.8,0,0.5,0.5C155.6,119.7,156.3,120.7,158,120.9z"/>
		<path fill="#294E58" d="M155.8,118.1c-0.2-0.2-0.4-0.4-0.5-0.5c0.8-1.4,1.9-2.5,3.6-3C157.8,115.7,156.8,116.9,155.8,118.1z"/>
	</g>
</g>
<g id="_xFFFD__x9C__x96_撅_xFFFD_1_xA0_影像_1_">
	<g>
		<path fill="#222222" d="M170.7,32.8c0.5,6.2,0.7,11.8,1.8,17.3c2.7,13.7,10.9,23.5,21.6,31.7c7.6,5.8,16.3,9.8,24.8,14.1
			c18.9,9.4,36,21.4,50.6,36.5c18.5,19.2,24.5,42.4,18.1,68.2c-8.8,35.7-29.8,61.7-63.5,77c-18.1,8.2-36.9,14.2-56.7,16.7
			c-24.6,3.1-48.9,1.2-71.3-9.8c-27.3-13.4-45.3-35-51.1-65.6c-3.1-16.7-1.4-33.3,2.6-49.7c6.9-28,22.5-50.1,45.9-66.8
			C101.1,97,109,92,116.7,86.7c10.1-7,19.7-14.6,28.6-23.1c11-10.5,17-23.2,17.7-38.3c3-12.7,7.6-3.1,7.7,0.2
			C170.8,28.1,170.7,30.7,170.7,32.8z M166.2,35.4c-0.4,1.4-0.7,2.1-0.8,2.9c-1.6,8-5.3,15-10.4,21.3c-6.5,8.1-14.4,14.6-22.4,21.1
			c-11.4,9.1-24,16.5-35.8,25C61.1,131.4,46.3,166.9,48.6,210c1,18.2,8.3,34,20.2,47.8c18.9,22.1,43.7,30.9,71.7,32.9
			c16,1.1,31.7-1,47.2-4.9c18-4.6,35-11.5,50.8-21.2c11.6-7.1,20.6-16.8,28.3-28c9.8-14.4,16.7-30.1,18.3-47.6
			c1.8-19.6-3.7-37.2-17.2-51.7c-15.3-16.3-33.5-29-53.7-38.7c-9-4.3-17.8-9-25.6-15.4c-9.4-7.7-16.6-17-19.8-29
			C167.2,48.4,166.7,42.2,166.2,35.4z"/>
		<path fill="#222222" d="M155.4,155.4c-5.2,5-9.9,9.6-14.8,14.1c-1.9,1.8-3.9,3.5-6.1,5c-3,2.1-5.2,1-5.8-2.6
			c-0.8-4.7-1.7-9.5-2.5-14.2c-0.7-4.3-0.1-8.1,2.9-11.7c8.4-9.8,16.5-19.8,25.5-29.1c3.6-3.6,9.5-4.9,14.3-3.2
			c4.4,1.5,8.7,3.3,12.7,5.5c4.2,2.3,5.3,4.6,4.5,9.4c-2.2,13.2-3.9,26.6-6.3,39.8c-0.6,3.4-0.5,6.9-1,10.3
			c-0.4,2.9,1.2,3.5,3.4,3.4c3.4-0.1,6.7-0.3,10.1-0.7c4.5-0.5,9.1-0.3,13.6-0.5c1.6-0.1,2.2,0.6,1.9,2.1
			c-1.6,6.2-1.3,12.6-2.6,18.8c-0.5,2.4-1.8,3.9-3.4,5.6c-5.2,5.4-11.9,5.7-18.7,6.2c-20.7,1.7-41.5,2.4-61.7,7.9
			c-4.3,1.2-5.9-0.6-5.4-5c0.5-4.2,1-8.5,1.3-12.7c0.5-5.9,4.1-9.7,8.9-12.6c6.9-4.1,14.9-4.2,22.5-5.4c2-0.3,2.7-0.8,3.1-2.8
			c1.5-8.6,2.5-17.2,3.7-25.9C155.4,157,155.4,156.5,155.4,155.4z M133.1,170.1c3.5-3.2,6.6-6,9.6-8.9c4.1-4,8.2-8,12.3-12
			c1-1,2.1-1.8,3.6-1.1c1.4,0.7,1.8,2,1.7,3.4c0,1.1,0,2.2-0.1,3.3c-0.8,6.2-1.6,12.4-2.4,18.6c-0.8,5.7-1.6,11.3-3,16.9
			c-1.2,4.4-3.2,6.3-7.2,6.6c-7.7,0.6-15.2,2.4-22.8,4.1c-2.1,0.5-2.9,1.6-3.1,3.5c-0.4,3.4-0.7,6.9-1.1,10.3c-0.3,2,0.3,2.5,2.3,2
			c16.3-4.5,33.2-5,49.8-6.6c6.2-0.6,12.5-1.1,18.7-1.5c1.6-0.1,2.1-0.8,2.5-2.2c0.9-4.3,1.9-8.5,3.1-12.7c0.5-1.9,0.1-2.1-1.7-2
			c-8,0.6-16-0.6-23.9,0.6c-2.1,0.3-3.4-0.9-3.4-3.2c0-1.5-0.1-3.1,0.2-4.6c3.3-16.8,4.8-34,9.4-50.6c0.6-2.3,0.1-3.9-2.4-4.9
			c-4.8-2.2-9.5-4.5-14.1-7c-1.9-1-2.9-0.7-4.1,0.8c-8.2,9.9-16.4,19.7-25.1,29.1c-0.7,0.8-1.6,1.7-1.4,2.8
			C131.2,159.6,132.2,164.5,133.1,170.1z"/>
	</g>
</g>
</svg>
