<?xml version="1.0" encoding="utf-8"?>
<!-- Generator: Adobe Illustrator 18.0.0, SVG Export Plug-In . SVG Version: 6.00 Build 0)  -->
<!DOCTYPE svg PUBLIC "-//W3C//DTD SVG 1.1//EN" "http://www.w3.org/Graphics/SVG/1.1/DTD/svg11.dtd">
<svg version="1.1" xmlns="http://www.w3.org/2000/svg" xmlns:xlink="http://www.w3.org/1999/xlink" x="0px" y="0px"
	 viewBox="0 0 484 376" enable-background="new 0 0 484 376" xml:space="preserve">
<g id="圖層_4">
	<polygon fill="#FFFFFF" points="117.1,67.1 73.6,97.1 46.6,158.5 54.1,245.5 99.1,296.5 162.1,316 247.6,268 256.6,281.5 
		283.6,272.5 297.1,259 313.6,271 315.1,262 328.6,269.5 330.1,259 339.3,268.7 351.3,278 357.3,271.3 376,280.7 379.3,280.7 
		372.7,270 394,275.3 400,275.3 395.3,269.3 419.3,268.7 431.3,262 406.7,259.3 370,248 342,245.3 298.7,227.3 276.7,232.7 
		268,221.3 270.7,160 225.3,76.7 	"/>
</g>
<g id="敺_x9E__xFFFD__xF880_詨_x8F__x96_蝭_x84__xFFFD__x9C__x8D__xA0_影像_3_">
	<g>
		<path d="M49.8,185c0.4-28.5,9-59.4,29-86.7c17.7-24.3,40.9-40.6,70.9-45.9c19.7-3.5,38.8-0.8,56.9,7.7
			c27.5,12.8,46.5,34,58.6,61.3c19.7,44.3,18.9,88.8-0.3,133.2c-0.9,2-0.8,3.4,0.6,5.1c9.2,11.5,20,20.8,34.3,25.5
			c6.3,2.1,9.5,7,9.3,12.9c-0.2,5.5-3.8,10.2-9,11.7c-3.4,1-6.6,0.5-9.9-0.6c-11.8-4-22.2-10.4-31.3-18.8c-2.7-2.5-5.4-5.2-7.9-7.9
			c-1.4-1.6-2-1.3-3.2,0.2c-12.3,15.6-27.2,28.1-45.7,35.7c-36.6,14.8-70.6,9.3-101.5-14.7c-25.5-19.9-39.7-47-46.9-78.1
			C51,213.8,49.8,202,49.8,185z M246,232.1c0.3-0.7,0.5-1.4,0.8-2c7.9-24.4,9-49.2,3.1-74.2c-5.6-23.6-16.5-44.1-35.1-60.2
			c-25.3-21.8-58.5-24.9-87.1-7.9c-19.9,11.8-33.2,29.4-41.8,50.6c-12.7,31.5-13.7,63.7-2.7,95.9c7.4,21.6,19.7,39.9,38.8,52.9
			c16,10.9,33.7,15.4,52.8,12.2c25-4.2,43.2-18.8,57.3-39.2c0.8-1.2,0.8-2.1-0.1-3.1c-2.7-3.4-5.1-7.1-8.1-10.3
			c-13.2-14-28.6-21.9-48.5-16.4c-6.4,1.7-12.1-1.7-14-7.7c-1.8-5.6,1-11.6,6.9-14c9.6-4,19.6-5.3,29.9-4.1
			c18.6,2.2,33.1,11.7,45.3,25.3C244.3,230.6,244.8,231.7,246,232.1z"/>
		<path d="M337.3,201.8c-7.8,0.6-15.6,0.9-23.4,0.8c-4.2,0-7.8-1.3-11.1-3.9c-5.9-4.7-7.3-12.1-2.8-18.1
			c5.2-6.9,10.8-13.5,16.3-20.1c3.4-4.2,6.5-8.5,9-13.3c0.4-0.8,1.2-1.7,0.7-2.5c-0.6-1-1.8-0.5-2.8-0.4c-2.6,0.3-5.2,0.8-7.6,1.9
			c-5.9,2.6-12,0.6-15.1-4.8c-2.9-5.1-1.5-11.8,3.8-15.1c10.8-6.6,22.3-8.7,34.4-3.8c11.5,4.7,16.5,17.2,12.3,30.1
			c-2.5,7.7-7.2,14.2-11.9,20.7c-0.5,0.7-1.7,1.4-1.3,2.2c0.5,1.1,1.8,0.4,2.7,0.4c7.4-0.2,14.7-0.6,22.1-0.6
			c7.6,0,13,4.8,13.6,11.8c0.6,6.9-4,12.8-10.9,13.7c-6.9,1-14,0.4-21,0.9C342,202,339.6,201.8,337.3,201.8z"/>
	</g>
	<g>
		<path fill="#85A48C" d="M36.8,185c0.4-28.5,9-59.4,29-86.7c17.7-24.3,40.9-40.6,70.9-45.9c19.7-3.5,38.8-0.8,56.9,7.7
			c27.5,12.8,46.5,34,58.6,61.3c19.7,44.3,18.9,88.8-0.3,133.2c-0.9,2-0.8,3.4,0.6,5.1c9.2,11.5,20,20.8,34.3,25.5
			c6.3,2.1,9.5,7,9.3,12.9c-0.2,5.5-3.8,10.2-9,11.7c-3.4,1-6.6,0.5-9.9-0.6c-11.8-4-22.2-10.4-31.3-18.8c-2.7-2.5-5.4-5.2-7.9-7.9
			c-1.4-1.6-2-1.3-3.2,0.2c-12.3,15.6-27.2,28.1-45.7,35.7c-36.6,14.8-70.6,9.3-101.5-14.7c-25.5-19.9-39.7-47-46.9-78.1
			C38,213.8,36.8,202,36.8,185z M233,232.1c0.3-0.7,0.5-1.4,0.8-2c7.9-24.4,9-49.2,3.1-74.2c-5.6-23.6-16.5-44.1-35.1-60.2
			c-25.3-21.8-58.5-24.9-87.1-7.9c-19.9,11.8-33.2,29.4-41.8,50.6c-12.7,31.5-13.7,63.7-2.7,95.9c7.4,21.6,19.7,39.9,38.8,52.9
			c16,10.9,33.7,15.4,52.8,12.2c25-4.2,43.2-18.8,57.3-39.2c0.8-1.2,0.8-2.1-0.1-3.1c-2.7-3.4-5.1-7.1-8.1-10.3
			c-13.2-14-28.6-21.9-48.5-16.4c-6.4,1.7-12.1-1.7-14-7.7c-1.8-5.6,1-11.6,6.9-14c9.6-4,19.6-5.3,29.9-4.1
			c18.6,2.2,33.1,11.7,45.3,25.3C231.3,230.6,231.8,231.7,233,232.1z"/>
		<path fill="#85A48C" d="M324.3,201.8c-7.8,0.6-15.6,0.9-23.4,0.8c-4.2,0-7.8-1.3-11.1-3.9c-5.9-4.7-7.3-12.1-2.8-18.1
			c5.2-6.9,10.8-13.5,16.3-20.1c3.4-4.2,6.5-8.5,9-13.3c0.4-0.8,1.2-1.7,0.7-2.5c-0.6-1-1.8-0.5-2.8-0.4c-2.6,0.3-5.2,0.8-7.6,1.9
			c-5.9,2.6-12,0.6-15.1-4.8c-2.9-5.1-1.5-11.8,3.8-15.1c10.8-6.6,22.3-8.7,34.4-3.8c11.5,4.7,16.5,17.2,12.3,30.1
			c-2.5,7.7-7.2,14.2-11.9,20.7c-0.5,0.7-1.7,1.4-1.3,2.2c0.5,1.1,1.8,0.4,2.7,0.4c7.4-0.2,14.7-0.6,22.1-0.6
			c7.6,0,13,4.8,13.6,11.8c0.6,6.9-4,12.8-10.9,13.7c-6.9,1-14,0.4-21,0.9C329,202,326.6,201.8,324.3,201.8z"/>
	</g>
</g>
<g id="圖層_3">
	<polygon fill="#FFFFFF" points="108,104 86,104 66,125.3 68,129.3 88,126 114,156.7 218.7,122 227.3,121.3 232,118.7 232,113.3 
		218,113.3 194.7,107.3 164,94 124.7,94 	"/>
	<polygon fill="#FFFFFF" points="186,241.3 250.7,227.3 272,233.3 262.7,258 227.3,273.3 222,269.3 197.3,284 	"/>
</g>
<g id="Birds_xA0_影像_1_">
	<g>
		<g>
			<path d="M376.1,278.9c-2.2-3.3-4.8-5.3-7.2-7.5c-1.3-1.2-2.7-2.4-4-3.7c-1.1-1.1-1.9-2.4-0.7-3.8c1.2-1.4,2.6-0.8,3.9,0.2
				c6.7,5.1,14.6,7.6,22.7,9.6c1.9,0.5,4,1,6.7,0.6c-3.2-2.7-6.4-4.2-9.6-5.9c-1-0.5-2-1-2.9-1.5c-1.3-0.7-2.3-1.7-1.7-3.3
				c0.6-1.6,2.1-1.6,3.5-1.2c4.2,1.4,8.6,2.4,13,3c8.4,1,16.7,1,24.9-1.4c0.5-0.1,1-0.4,1.9-0.7c-3-1.2-5.8-1-8.5-1.3
				c-16.4-1.8-32.5-4.9-47.9-10.9c-1.3-0.5-2.5-1.1-3.9-1c-13,1.1-25.2-2.8-37.3-6.7c-9.4-3-18.5-6.6-27.2-11.2
				c-2.1-1.1-3.2-1.1-3.8,1.7c-1.1,5.3-5,8.7-8.8,12.1c-1.4,1.3-3.4,0.9-5.1,1.8c-2.4,1.3-4.3,2.9-5.6,5.4c-1.3,2.4-2.8,4.7-4.4,6.9
				c-1.6,2.3-3.3,2.3-4.9-0.1c-1.8-2.6-2.6-5.8-4.1-8.6c-0.6-1.2-1.2-2-2.6-2.6c-6.7-2.6-12.2-11.8-11.5-19
				c-4.1,1.5-7.7,3.7-11.4,5.8c-11.2,6.4-23.1,10.9-35.9,12.9c-6.2,1-12.5,1.3-18.7,0.4c-1.4-0.2-2.7-0.2-4,0.5
				c-12.2,7-24.3,14.3-34.8,23.8c-2.9,2.6-5.7,5.4-7.7,8.8c-0.3,0.6-1.1,1.2-0.4,1.9c0.5,0.5,1.2,0.1,1.8,0c5.7-1.7,10.8-4.7,16-7.6
				c10.2-5.8,19.8-12.5,29.4-19.2c1.8-1.2,3.6-2.5,5.5-3.5c1.3-0.8,2.9-1,3.8,0.6c0.9,1.6-0.3,2.5-1.5,3.3
				c-6.5,4.4-13,8.7-19.4,13.2c-5.2,3.7-7.4,9.5-9.3,15.3c-0.6,1.8,0.6,1.7,1.8,1.2c3.8-1.6,7.4-3.5,10.8-5.7
				c8.5-5.5,16.7-11.3,24.5-17.7c0.8-0.6,1.5-1.3,2.3-1.9c1.3-1,2.8-2.3,4.3-0.6c1.6,1.8-0.1,3.2-1.4,4.3c-2.2,1.9-4.5,3.7-6.8,5.5
				c-2.8,2.1-3.5,5.2-4,8.4c-0.3,1.7,0.9,1.6,2.1,1.3c3-0.7,5.5-2.3,8-4c8.8-5.7,16.8-12.4,24.7-19.3c2.7-2.3,5.4-4.6,8.1-6.8
				c1.4-1.1,3.1-2.4,4.5-0.6c1.5,1.9-0.2,3.1-1.6,4.2c-4.5,3.8-9.3,7.2-13.1,11.8c-0.1,0.1-0.3,0.2-0.4,0.4
				c-0.9,1.2-2.1,2.9-1.5,3.8c0.8,1.2,2.4-0.2,3.6-0.7c5.7-2.5,10.3-6.7,15.3-10.4c0.5-0.4,1-0.8,1.5-1.2c1.2-0.7,2.5-1,3.4,0.2
				c0.9,1.2,0.5,2.5-0.6,3.3c-6.3,4.7-12.1,9.9-19.6,12.7c-4.7,1.8-6.3,1.2-8.7-3.1c-4.7,3.6-9.5,7.1-14.5,10.1
				c-2.6,1.6-5.2,3-8.2,3.6c-5,1.1-7.5-0.8-7.5-5.9c0-0.4,0-0.9,0-1.8c-2.3,1.6-4.2,2.9-6.1,4.2c-4.9,3.5-10.1,6.5-15.5,9
				c-1.1,0.5-2.3,1.1-3.6,1.3c-4.5,1-6.8-1-6.5-5.6c0.1-2.9,1.7-5.3,2.8-8.5c-2.4,1.4-4.3,2.4-6.2,3.6c-4.1,2.4-8.3,4.5-12.7,6.2
				c-1.9,0.7-3.8,1.3-5.8,1.2c-3.9-0.1-5.9-2.9-4.7-6.6c0.9-2.8,2.7-5,4.5-7.1c6.1-6.9,13.4-12.3,21-17.3c5.5-3.6,11.2-7,17.1-10.6
				c-1.2-0.8-2.3-1.5-3.4-2.3c-1.6-1.3-2.7-3-2.9-5.1c-0.3-3.1,1-4.5,4.1-4.6c6.4-0.2,12.7,0.5,19.1,0.6c15.5,0.3,29.9-4.3,44-10.2
				c5.1-2.1,10.1-4.5,15.9-4c1.3,0.1,2.8,0,3.7,0.7c2.4,2.1,4.6,0.9,7,0.1c8.8-2.6,17.2-1.9,25.1,3c0.8,0.5,1.3,0.4,2,0.1
				c4.5-1.7,9.1-1.3,13.7-0.9c9.7,1,18.5,4.2,26.8,9.1c10.9,6.4,22.8,7.8,35.3,6.2c4.1-0.5,8.3-0.7,12.5-0.9c1.7-0.1,4-0.1,4.6,1.6
				c0.6,2-0.1,4.4-2,5.8c-1.1,0.8-2.3,1.5-3.5,2.2c0.6,1,1.7,1,2.6,1.3c14.4,4.3,29.2,6.8,44.1,8.2c1.6,0.1,3.3,0.4,4.8,0.8
				c2,0.5,4,1.1,4.3,3.6c0.3,2.4-1.5,3.5-3.4,4.4c-3.9,1.9-8.1,2.6-12.3,3.2c-5.7,0.9-11.4,0.6-17.1,0.2c-0.1,1,0.7,1.3,1.1,1.9
				c0.9,1.3,1.6,2.7,0.8,4.3c-0.8,1.7-2.3,2.2-4,2.3c-5,0.3-9.8-0.5-14.5-2.1c-1.4-0.4-2.7-0.8-4.6-1.4c0.5,1,0.8,1.6,1.1,2.2
				c0.9,1.7,1.2,3.5-0.1,5.1c-1.2,1.6-3.1,1.5-4.8,1c-1.7-0.5-3.5-1.1-5.1-1.9c-6.4-3.2-12.7-6.8-18.6-10.8c-3.3-2.2-6-5-7.5-8.8
				c-0.6-1.4-0.8-2.8,0.8-3.5c1.5-0.6,2.4,0.3,3,1.6c1.2,3,3.4,5.2,6,6.9c6,4,12.2,7.5,18.7,10.6C374,278.3,374.8,278.4,376.1,278.9
				z M265.5,245.2c1-0.1,2.6,0,2.3-1.2c-0.3-1.4-1.9-2.5-3.3-2.8c-1.2-0.3-1.8,1.2-1.8,2.2C262.7,245.2,264.4,244.9,265.5,245.2z
				 M290.9,236c0.8-0.6,1.3-1.5,1.5-2.4c0.2-0.7,1-1.4,0.4-2.2c-0.3-0.5-1-0.4-1.5-0.2c-0.9,0.5-1.7,1.2-1.7,2.2
				C289.6,234.3,289.8,235.3,290.9,236z M283,239.8c-1.6,0.8-2.6,2-3.9,3.3C283.4,243.7,284.2,243,283,239.8z M271.6,253.1
				c0.9-1.4,1.4-2.7,1.6-4.4C269.3,248.9,269.3,248.9,271.6,253.1z M257.2,237.7c1.7-2.5,0.3-3.5-1.6-4.6
				C255.8,234.9,256.1,236.3,257.2,237.7z"/>
			<path d="M198.2,106.2c2.7,2.5,5.9,3,9.1,3.5c5.8,0.9,11.7,1.3,17.7,1.1c2.2-0.1,4.4,0.1,6.5,0.6c4.1,0.9,5.5,4.3,3.2,7.8
				c-1.8,2.7-4.5,3.9-7.6,4.2c-7.1,0.7-13.9-0.3-20.5-3.1c-1.5-0.6-2.9-1.3-2.2-3.1c0.7-1.8,2.4-1.4,3.8-0.9
				c4.5,1.8,9.2,2.8,14.1,2.9c2.4,0,4.7,0.1,6.9-1c0.8-0.4,1.9-0.9,1.7-1.9c-0.2-1-1.4-0.7-2.1-0.7c-6.3-0.4-12.7-0.2-19-1
				c-4.5-0.6-9-1.2-13-3.7c-0.9-0.6-2.2-1.1-2.2-2.2c0.1-2.3-1.2-2.2-2.9-2.3c-7.4-0.6-14.5-2.3-20.7-6.8c-2.9-2.1-5.9-4-9.4-4.8
				c-1.2-0.3-2.3-0.4-3.5-0.2c-0.6,0.1-1.5,0.2-1.2,1.1c0.6,1.9-0.4,3-1.6,4c-1.1,0.8-0.4,1.5-0.1,2.3c0.6,1.6,0.2,3.1-1.2,4.1
				c-1.4,1-2.6,0.5-3.4-0.9c-0.6-1.1-1.2-0.4-1.7,0c-3,2.5-6.4,2.9-10.1,1.7c-1-0.3-1.5-0.1-1.9,0.8c-0.6,1.3-1.6,2.3-3.2,1.8
				c-1.7-0.5-1.8-2.1-1.4-3.4c0.7-2.8,0.3-4.9-2.3-6.4c-0.5-0.3-0.8-1-0.7-1.7c0.1-1.4-0.7-1.2-1.5-0.9c-2.5,0.8-4.8,2.1-7.1,3.3
				c-7.4,4.1-15,7.8-23.5,9.1c-2.8,0.4-5.6,0.5-8.4,0c-1-0.2-2-0.2-2.8,0.5c-5.3,4.3-10.7,8.5-15.1,13.8c-0.5,0.6-0.9,1.3-1.4,2.2
				c1.5,0.5,2.4-0.3,3.4-0.8c4.9-2.7,9.7-5.4,14.2-8.7c0.4-0.3,0.9-0.6,1.3-0.9c1.4-0.8,2.8-1.1,3.8,0.4c0.9,1.4,0.1,2.6-1.1,3.4
				c-2.5,1.7-4.7,3.7-6.2,6.4c-0.5,0.9-1.1,1.7-1.2,2.7c0.7,0.6,1.2-0.1,1.7-0.3c6.2-3.4,12.3-7,17.4-12.1c1.2-1.2,2.7-2.1,4.2-3
				c1.2-0.7,2.5-1,3.4,0.2c0.9,1.2,0.5,2.5-0.7,3.4c-3.3,2.4-5.8,5.2-6.3,9.4c0,0.3-0.1,0.7-0.1,1.2c2.2-0.7,3.6-2.1,5-3.5
				c3.7-3.4,7-7.1,10.3-10.9c1-1.2,2.2-2.1,3.7-1.2c1.5,0.9,1.1,2.3,0.7,3.7c-0.5,1.6-0.9,3.3-1.5,5.3c2.1-0.7,3.2-2,4.4-3.1
				c1.1-1,2.2-2.2,3.3-3.3c1.3-1.3,2.7-3.5,4.7-1.6c2,1.9-0.1,3.5-1.4,4.8c-2.4,2.7-4.9,5.4-8.1,7.2c-3.4,1.9-5.8,1.1-7.7-2.7
				c-1.6,1.5-3.1,3-4.7,4.4c-1.7,1.5-3.4,3-5.4,4.2c-5,2.9-7.9,1.3-8-4.9c-3,1.7-5.8,3.4-8.7,5c-1.7,1-3.5,2-5.4,2.6
				c-4.3,1.5-6.5-0.5-5.6-4.9c0.1-0.3,0-0.7,0-1.2c-2,1-3.9,1.9-5.7,2.8c-1.5,0.7-3.1,1.1-4.8,1c-3.4-0.2-5-2.7-3.6-5.9
				c1.1-2.6,2.9-4.8,4.9-6.8c3.6-3.6,7.5-6.9,11.5-10c1.1-0.9,2-1.5,0.4-2.8c-1.1-1-1.4-2.4-0.6-3.7c0.8-1.3,2.1-1,3.4-0.8
				c11.7,1.9,22.8,0.3,33.3-5.2c1.9-1,3.9-2,5.8-3c1.1-0.5,2.2-1.4,3.3-1.3c5.7,0.6,10.7-2.3,16.3-2.5c2.9-0.1,5.8,0,8.5,1.5
				c0.7,0.4,1.3,0.5,2.1,0.3c5.7-2,11.1-0.5,16.4,1.7c2.1,0.9,4.2,1.8,6.2,2.9c7.6,4.1,15.8,5.2,24.3,4.3c1.6-0.2,3.5-0.6,4.1,1.5
				c0.7,2.2-1.2,3-2.7,3.8C200.6,105.4,199.5,105.7,198.2,106.2z"/>
			<path d="M332.5,266.6c-0.2,1-0.4,1.8-0.6,2.6c-0.9,4.2-3.3,5.4-7.1,3.4c-2.3-1.1-4.2-2.7-6.2-4.3c-0.7,0.8-0.4,1.5-0.4,2.2
				c0,4.4-2.2,5.9-6.3,4.4c-8.5-3.1-12.1-10.2-14.3-18.2c-0.4-1.3,0.1-2.6,1.7-2.9c1.5-0.3,2.1,0.7,2.4,2c0.7,3.1,2,5.8,3.6,8.5
				c1.9,3.1,4.5,5.4,8.1,6.4c0.6-1.3,0-2.4-0.3-3.5c-0.6-2.6-1.5-5.2-2.3-7.8c-0.5-1.5-1-3.2,0.8-4.1c1.8-0.9,2.8,0.4,3.7,1.8
				c2.6,4,5.6,7.6,9.6,10.3c0.6,0.4,1.3,1.3,2.1,0.9c0.8-0.4,0.4-1.5,0.4-2.3c0-2.8-0.9-5.4-1.4-8c-0.3-1.4-0.4-2.8,1.2-3.5
				c1.5-0.6,2.7,0.1,3.4,1.4c4.7,8.3,11.5,14.1,20.2,17.9c1.4,0.6,2.4,1.6,1.7,3.2c-0.7,1.8-2.2,1.6-3.7,1
				c-5.3-2.2-10.1-5.3-14.3-9.3C334,268,333.3,267.4,332.5,266.6z"/>
			<path d="M213.3,128.2c-0.8-0.1-1.5-0.3-2.2-0.4c-1.9-0.3-4-2.2-4.6,1.9c-0.3,2.3-3.1,2.4-5.3,1.6c-3.9-1.4-7.3-3.7-9.9-6.9
				c-1.9-2.4-3.7-4.9-5.5-7.5c-0.8-1.2-1.4-2.6,0.1-3.6c1.5-1,2.5,0,3.4,1.2c1.6,2.1,3.1,4.3,4.7,6.4c2,2.6,4.6,4.4,7.5,5.8
				c1.1,0.5,2.1,0.3,2.6-0.6c0.6-1.1-0.8-1.2-1.3-1.5c-2.4-1.5-4.7-3.1-6.7-5.1c-0.9-0.9-1.6-1.9-0.6-3.1c1-1.2,2.3-1,3.4,0
				c4.3,3.9,9.3,6.5,15.1,7.7c1.4,0.3,2,1.2,1.8,2.6C215.4,127.8,214.4,128.1,213.3,128.2z"/>
			<path d="M273.9,270.2c-5.5-0.2-11.6-0.8-16.7-5c-0.8-0.7-1.6-1.5-2.3-2.3c-0.8-0.9-0.8-2,0.1-2.9c0.9-0.8,1.9-0.6,2.7,0.1
				c10.8,8.9,22.1,6.5,33.5,1.5c1.7-0.7,3.6-2.7,4.9-0.2c1.3,2.5-1.1,3.4-2.9,4.4C287.4,268.9,281.2,270.2,273.9,270.2z"/>
			<path d="M289.2,273.1c-0.1,0.2,0,0.6-0.2,0.7c-2.8,2.1-1.1,4.4-0.4,6.7c0.3,1,0.5,1.9,0.6,2.9c0.2,1.1-0.2,2-1.3,2.4
				c-1.1,0.3-2-0.2-2.4-1.2c-0.6-1.4-1-2.9-1.4-4.4c-0.3-1.3-0.9-1.8-2.3-1.3c-2.7,1-5.6,0.8-8.3,0.3c-1.6-0.3-2.5-0.2-3.2,1.4
				c-0.5,1.1-1.4,2.1-2.3,3c-0.8,0.8-1.8,1-2.7,0.2c-0.8-0.7-0.8-1.6-0.4-2.5c0.4-0.8,1-1.5,1.4-2.3c0.8-1.3,1.4-2.4,0-3.9
				c-0.9-0.9-1-2.2,0.1-3.1c1-0.8,2-0.3,3,0.4c5.8,4.1,9.9,4,15.7-0.5c0.9-0.7,1.8-1.2,3-0.7C288.9,271.6,289.2,272.3,289.2,273.1z"
				/>
			<path d="M165,117.7c-0.8-2.1-2-4.1-2.5-6.3c-0.2-1.1-0.5-2.2,0-3.2c0.5-1.1,1.3-1.8,2.6-1.6c1.2,0.2,1.4,1.1,1.5,2.2
				c0.6,5.2,3.3,9.3,7.4,12.4c1.1,0.8,2.2,1.5,1.4,3c-0.9,1.6-2.4,1.5-3.8,0.8c-2.2-1.2-3.5-3.3-5.4-5.4c-0.6,1.4-1.2,2.7-2.9,2.7
				c-1.7,0-2.6-1.1-3.6-2.2c-1.8-2.1-3.2-4.4-4.2-7c-0.4-0.8-0.6-1.7-0.6-2.6c0-1.2,0.5-2.2,1.8-2.3c1.2-0.1,1.8,0.6,2.1,1.7
				c0.7,2.4,1.9,4.5,3.4,6.5C162.9,117.4,163.5,118.3,165,117.7z"/>
			<path d="M189.2,129.1c-0.4-0.2-1.2-0.4-2-0.7c-7.9-3.6-11.9-10.5-15.5-17.8c-0.6-1.3-0.6-2.8,1.1-3.4c1.4-0.5,2.1,0.4,2.7,1.6
				c3.4,6.8,7.2,13.2,14.8,16.2c1.1,0.4,1.7,1.4,1.4,2.6C191.6,128.7,190.7,129.1,189.2,129.1z"/>
			<path d="M138.5,132.4c-0.6-0.4-1.2-0.6-1.7-1c-0.8-0.6-1.1-1.4-0.9-2.4c0.3-1,1.2-1.5,2.1-1.3c3.4,0.8,6.4,0.1,9.4-1.5
				c0.9-0.5,2-0.5,2.7,0.5c0.7,1.1,0.4,2.3-0.6,2.9c-2.4,1.3-2.3,2.8-1.1,4.8c0.5,0.9,0.6,2.2-0.6,2.9c-1.1,0.7-2,0.1-2.8-0.8
				c-1.7-1.8-2.9-1.7-4.4,0.3c-0.4,0.5-0.8,1-1.2,1.4c-1,0.8-2.1,1.2-3.2,0.2c-1-0.9-0.7-1.9,0.1-2.9
				C137,134.6,137.7,133.6,138.5,132.4z"/>
			<path d="M143.1,124c-4.3-0.1-7.2-0.5-9.9-1.7c-1.3-0.6-2.2-1.5-1.6-3c0.6-1.4,1.8-1.4,3-0.9c5.5,2.1,10.9,1.3,16.2-0.8
				c0.4-0.2,0.8-0.3,1.3-0.5c1.4-0.5,3-1.1,3.8,0.6c0.9,1.9-0.6,2.8-2.1,3.4C149.9,122.7,146,124.1,143.1,124z"/>
			<path d="M247.3,236.4c1.6-0.1,2.4,0.3,2.7,1.5c0.3,1.1-0.1,2-1.2,2.4c-3.9,1.6-7.8,3.5-11.9,4.6c-1.1,0.3-2.2,0.2-2.8-1
				c-0.5-1-0.3-2.2,0.7-2.6C239.1,239.5,243.4,237.9,247.3,236.4z"/>
			<path d="M301.5,236.4c0.3,0.1,1.1,0.3,1.8,0.6c2.6,1.3,5.2,2.5,8,3.1c1.3,0.3,2.2,1,1.9,2.5c-0.3,1.5-1.5,1.8-2.7,1.6
				c-4-0.6-7.5-2.6-11-4.4c-0.8-0.4-1-1.2-0.7-2.1C299.2,236.7,299.9,236.3,301.5,236.4z"/>
			<path d="M138.1,111.4c0-1.9,1.6-3,3-1.7c1.2,1,1.6,0.9,2.4-0.2c0.6-0.8,1.5-0.9,2.5-0.5c0.9,0.5,1.1,1.4,0.9,2.4
				c-0.2,0.7-0.4,1.4-0.7,2c-0.9,1.8-1.5,4.1-4.2,3.8C140.3,117,138.2,113.6,138.1,111.4z"/>
			<path d="M301.9,247.3c-2.5,0-5.4-1.8-5.4-3.3c0-1.3,0.7-2,2-2c2,0,5.7,2.2,5.7,3.5C304.2,246.9,303.2,247.3,301.9,247.3z"/>
			<path d="M249.2,242.8c1.1,0.1,1.8,0.7,1.7,2.1c-0.1,1.5-3.4,4.2-5,4c-1.3-0.1-2-0.9-1.8-2.2C244.3,245.4,247.6,242.8,249.2,242.8
				z"/>
		</g>
	</g>
</g>
</svg>
