<?xml version="1.0" encoding="utf-8"?>
<!-- Generator: Adobe Illustrator 18.0.0, SVG Export Plug-In . SVG Version: 6.00 Build 0)  -->
<!DOCTYPE svg PUBLIC "-//W3C//DTD SVG 1.1//EN" "http://www.w3.org/Graphics/SVG/1.1/DTD/svg11.dtd">
<svg version="1.1" xmlns="http://www.w3.org/2000/svg" xmlns:xlink="http://www.w3.org/1999/xlink" x="0px" y="0px"
	 viewBox="0 0 552 420" enable-background="new 0 0 552 420" xml:space="preserve">
<g id="圖層_4">
	<polygon fill="#FFFFFF" points="196.7,74 126.7,131.3 81.3,142 71.3,141.3 56.7,160 69.3,156 71.3,163.3 90.7,156.7 86.7,168.7 
		108,154.7 110,161.3 120.7,154 130.7,163.3 164.7,296 230,325.3 335.3,284 336,258.7 349.3,272 349.3,256.7 379.3,276 374,258 
		398,278.7 433.3,284 414.7,263.3 446,268 471.3,268 476.7,260.7 449.3,253.3 413.3,242.7 407.3,240 358.7,235.3 345.3,226 
		350.7,173.3 333.3,121.3 326,112 332.7,115.3 339.3,106 344,115.3 356,116.7 357.3,106.7 368,113.3 368.7,106 383.3,114 384,109.3 
		394,114.7 396,110 410,114.7 411.3,107.3 398.7,100 382.7,96.7 364,96 349.3,90.7 334.7,89.3 316,92.7 281.3,64.7 208,58.7 	"/>
</g>
<g id="敺_x9E__xFFFD__xF880_詨_x8F__x96_蝭_x84__xFFFD__x9C__x8D__xA0_影像_3_">
	<g>
		<path d="M356.2,194.4c-0.2,20-4.8,42.5-14.6,63.9c-0.8,1.8-0.8,3.1,0.5,4.7c9.2,11.6,20,21,34.4,25.7c6.3,2.1,9.6,6.9,9.4,12.9
			c-0.2,5.5-3.8,10.2-9,11.8c-3.4,1-6.7,0.5-9.9-0.6c-12.5-4.2-23.4-11.1-32.9-20.2c-2.2-2.1-4.3-4.2-6.3-6.4
			c-1.3-1.5-2-1.4-3.2,0.1c-10.1,12.9-22.2,23.5-36.6,31.4c-35.9,19.6-78.9,15.5-110.6-10.3c-24.8-20.1-39.7-46.4-46.5-77.2
			c-9.8-44.4-3.2-86.2,22-124.4c13.5-20.5,31.5-36,54.7-44.5c35-12.9,67.5-7.1,96.9,15.3c22.4,17,36.3,40.1,44.6,66.6
			C354.1,159.6,356.2,174.9,356.2,194.4z M322.7,235.8c0.3-0.8,0.5-1.4,0.7-2c7.9-24.4,9.1-49.2,3.2-74.2
			c-5.5-23.6-16.5-44.2-35.1-60.2c-25.3-21.9-58.6-25-87.4-7.9c-19.8,11.8-33.1,29.3-41.6,50.4c-12.8,31.6-13.8,63.9-2.7,96.2
			c7.4,21.5,19.6,39.7,38.7,52.7c16.2,11,34,15.5,53.3,12.1c24.8-4.3,42.8-18.8,56.9-39c0.9-1.3,0.8-2.2-0.1-3.4
			c-2.7-3.6-5.3-7.4-8.4-10.7c-13.2-13.6-28.4-21.3-48-15.9c-6.5,1.8-12.1-1.6-14.1-7.6c-1.9-5.7,0.9-11.7,7-14.2
			c9.5-3.9,19.4-5.3,29.7-4.1c18.6,2.2,33.1,11.7,45.4,25.3C320.9,234.2,321.5,235.2,322.7,235.8z"/>
		<path d="M409.9,202c0.3-5.1,0.5-9.6,0.9-14.1c0.2-2.1-0.1-2.9-2.6-2.7c-4.6,0.5-9.2,0.7-13.9,0.3c-10.2-0.9-15.5-7.2-14.5-17.4
			c0.9-8.9,2-17.7,3.3-26.5c0.4-3,0.7-6,1.4-8.9c1.3-5.6,6.4-9.2,11.9-8.7c5.7,0.5,10,4.7,10.4,10.4c0.5,6.6-0.4,13.1-0.9,19.6
			c-0.4,5.3-0.4,5.1,4.8,5.2c2.7,0,3.4-1.1,3.6-3.4c0.7-7,1.7-14.1,1.9-21.2c0.1-5.5,2.2-10,7.7-12c7.5-2.8,15,2.4,15.5,10.8
			c0.4,7.3,0.3,14.5-0.3,21.8c-0.2,2.1-0.1,3.2,2.6,3.4c7.3,0.5,12.3,5.6,12.4,12.4c0.2,6.8-4.4,12-11.6,13.2
			c-1.8,0.3-4.3-0.7-5.3,1c-0.9,1.4-0.6,3.5-0.7,5.3c-0.5,7.9-0.9,15.8-1.4,23.7c-0.1,1.7-0.2,3.5-0.6,5.1c-1.5,6.1-6.8,10.1-13,9.8
			c-6.1-0.3-11.1-4.8-12.1-11c-0.5-2.8,0-5.6,0-8.4C409.7,206.8,409.8,204.1,409.9,202z"/>
	</g>
	<g>
		<path fill="#85A48C" d="M343.2,194.4c-0.2,20-4.8,42.5-14.6,63.9c-0.8,1.8-0.8,3.1,0.5,4.7c9.2,11.6,20,21,34.4,25.7
			c6.3,2.1,9.6,6.9,9.4,12.9c-0.2,5.5-3.8,10.2-9,11.8c-3.4,1-6.7,0.5-9.9-0.6c-12.5-4.2-23.4-11.1-32.9-20.2
			c-2.2-2.1-4.3-4.2-6.3-6.4c-1.3-1.5-2-1.4-3.2,0.1c-10.1,12.9-22.2,23.5-36.6,31.4c-35.9,19.6-78.9,15.5-110.6-10.3
			c-24.8-20.1-39.7-46.4-46.5-77.2c-9.8-44.4-3.2-86.2,22-124.4c13.5-20.5,31.5-36,54.7-44.5c35-12.9,67.5-7.1,96.9,15.3
			c22.4,17,36.3,40.1,44.6,66.6C341.1,159.6,343.2,174.9,343.2,194.4z M309.7,235.8c0.3-0.8,0.5-1.4,0.7-2
			c7.9-24.4,9.1-49.2,3.2-74.2c-5.5-23.6-16.5-44.2-35.1-60.2c-25.3-21.9-58.6-25-87.4-7.9c-19.8,11.8-33.1,29.3-41.6,50.4
			c-12.8,31.6-13.8,63.9-2.7,96.2c7.4,21.5,19.6,39.7,38.7,52.7c16.2,11,34,15.5,53.3,12.1c24.8-4.3,42.8-18.8,56.9-39
			c0.9-1.3,0.8-2.2-0.1-3.4c-2.7-3.6-5.3-7.4-8.4-10.7c-13.2-13.6-28.4-21.3-48-15.9c-6.5,1.8-12.1-1.6-14.1-7.6
			c-1.9-5.7,0.9-11.7,7-14.2c9.5-3.9,19.4-5.3,29.7-4.1c18.6,2.2,33.1,11.7,45.4,25.3C307.9,234.2,308.5,235.2,309.7,235.8z"/>
		<path fill="#85A48C" d="M396.9,202c0.3-5.1,0.5-9.6,0.9-14.1c0.2-2.1-0.1-2.9-2.6-2.7c-4.6,0.5-9.2,0.7-13.9,0.3
			c-10.2-0.9-15.5-7.2-14.5-17.4c0.9-8.9,2-17.7,3.3-26.5c0.4-3,0.7-6,1.4-8.9c1.3-5.6,6.4-9.2,11.9-8.7c5.7,0.5,10,4.7,10.4,10.4
			c0.5,6.6-0.4,13.1-0.9,19.6c-0.4,5.3-0.4,5.1,4.8,5.2c2.7,0,3.4-1.1,3.6-3.4c0.7-7,1.7-14.1,1.9-21.2c0.1-5.5,2.2-10,7.7-12
			c7.5-2.8,15,2.4,15.5,10.8c0.4,7.3,0.3,14.5-0.3,21.8c-0.2,2.1-0.1,3.2,2.6,3.4c7.3,0.5,12.3,5.6,12.4,12.4
			c0.2,6.8-4.4,12-11.6,13.2c-1.8,0.3-4.3-0.7-5.3,1c-0.9,1.4-0.6,3.5-0.7,5.3c-0.5,7.9-0.9,15.8-1.4,23.7c-0.1,1.7-0.2,3.5-0.6,5.1
			c-1.5,6.1-6.8,10.1-13,9.8c-6.1-0.3-11.1-4.8-12.1-11c-0.5-2.8,0-5.6,0-8.4C396.7,206.8,396.8,204.1,396.9,202z"/>
	</g>
</g>
<g id="圖層_3">
	<polygon fill="#FFFFFF" points="337.3,92.7 300,97.3 295.3,102 283.3,105.3 288,110.7 298,110.7 301.3,115.3 318,107.3 318,113.3 
		326,112 328.7,106.7 334.7,112.7 342,107.3 347.3,108.7 352,94 	"/>
	<polygon fill="#FFFFFF" points="116.7,132 131.3,125.3 144,129.3 153.3,129.3 176,136.7 171.3,159.3 160,158 144.7,148.7 140,160 
		130.7,163.3 117.3,153.3 	"/>
	<polygon fill="#FFFFFF" points="242.7,238 311.3,219.3 350.7,230 354,246 339.3,265.3 332,256 319.3,262.7 319.3,270.7 298,270.7 
		296.7,259.3 269.3,252.7 	"/>
</g>
<g id="Birds_xA0_影像_1_">
	<g>
		<g>
			<path d="M384.1,270.8c0.4,1.3,0.9,2.3,1.1,3.3c0.5,3-1.5,5-4.5,4.4c-1.6-0.3-3.1-1-4.6-1.7c-7.9-4.2-16.3-7.6-22.8-14.2
				c-0.7,0.7-0.2,1.3,0,1.8c0.4,1.3,0.9,2.6,1.3,3.9c0.5,1.7,0.8,3.5-0.8,4.8c-1.5,1.3-3.2,0.8-4.9,0.1c-5.9-2.4-10.6-6.4-14.2-11.6
				c-1.5-2.1-2.6-2.4-4.8-1.1c-3.8,2.3-8,3.9-12.1,5.5c-5.4,2.1-10.3,1.3-14.8-2.4c-0.8-0.6-1.6-1.2-2.3-1.9c-1.3-1.2-2.4-1-3.8,0
				c-7.4,5.3-14.4,11.1-22.2,15.8c-1.3,0.8-2.7,1.6-4.1,2.1c-4.1,1.6-6.9-0.4-6.7-4.8c0-0.8,0.1-1.6,0.2-2.5c-1.2-0.4-1.7,0.6-2.3,1
				c-7.1,5.2-14.2,10.4-21.9,14.8c-1.9,1.1-3.8,2.1-6,2.5c-4,0.6-6.3-1.8-5.6-5.8c0.5-2.8,1.7-5.3,3.2-7.8c0.3-0.4,0.7-0.8,0.5-1.7
				c-4.8,2.9-9.6,5.8-14.4,8.6c-4.9,2.8-9.7,5.7-15.4,6.8c-5.6,1.1-8.8-2.4-7.3-7.9c0.8-2.9,2.4-5.4,4-8.5c-3.4,1.6-6.3,3-9.3,4.4
				c-3.5,1.6-7.1,2.8-10.9,3.4c-2.9,0.4-5.8,0.4-7.6-2.3c-1.8-2.8-0.3-5.4,1.4-7.7c3.9-5.2,9-9.2,14.2-13.1
				c6.5-4.8,13.5-8.9,20.5-13c0.7-0.4,1.4-0.8,2.4-1.4c-1.5-1.2-3-2-4.1-3.4c-1.9-2.4-1-4.8,2.1-5.3c2.5-0.5,5.1-0.6,7.6-0.4
				c18.1,1.5,35.3-2.7,52.4-8c7.1-2.2,14-5,21-7.6c4.5-1.7,9.1-2.8,14-2.6c2.2,0.1,4.4-0.8,6.7-1.2c4.8-0.8,9.4-0.3,13.8,1.7
				c2.5,1.1,5,0.5,7.5,0.8c9.2,1.1,17.9,3.9,26.2,7.9c14.3,6.9,29.6,9,45.3,8.8c5.4-0.1,10.6-1.2,15.9-2.2c2.1-0.4,4.3-1.2,5.5,1.3
				c1.2,2.4-0.4,4.1-1.9,5.8c-0.5,0.6-1.2,1.1-2.1,1.9c1.1,0.4,2,0.7,2.9,1c11.6,3.6,23.6,5,35.4,7.6c4.8,1,9.5,2.3,14.2,3.9
				c1.7,0.6,3.4,1.3,4.9,2.3c3.3,2.1,3.6,4.9,0.9,7.7c-4.3,4.4-9.9,6-15.8,6.3c-12.2,0.6-24-1.9-35.9-4.1c-0.8-0.1-1.5-0.5-2.6,0
				c2.5,2.3,4.9,4.5,7.2,6.7c1.9,1.8,3.7,3.8,5.1,6c1.1,1.7,1.9,3.5,1,5.4c-1,1.9-2.9,1.9-4.8,1.9c-17.2-0.1-33.2-3.7-46.5-15.4
				C385,271.3,384.7,271.1,384.1,270.8z M290.6,226.2c-1,0.3-1.5,0.4-2,0.7c-10.4,4.9-20.7,10.3-31.4,14.4c-3.2,1.2-5.4,3.8-8.7,4.8
				c-10.1,3-20.3,2.4-30.5,1.2c-2-0.2-3.7-0.1-5.4,0.9c-5.1,2.9-10.1,5.8-14.9,9c-7.5,4.9-14.7,10-20.7,16.8c-0.8,1-2.5,2.1-1.6,3.4
				c0.7,1.1,2.5,0.3,3.8,0.2c0.3,0,0.5-0.1,0.8-0.2c4.7-1.1,9.1-3.1,13.4-5.4c8.4-4.5,16.8-9.1,25.2-13.6c1.4-0.8,2.9-1.2,3.8,0.4
				c0.9,1.6-0.2,2.8-1.5,3.6c-3.7,2.3-7.6,4.2-11.1,7c-5.2,4.1-8.5,9-10.7,15c-0.7,2,0.3,2.5,2,2.2c2.2-0.3,4.2-1.1,6.1-2.1
				c14.1-7.4,27.7-15.6,39.9-25.9c1.7-1.5,3.5-2.9,5.3-4.2c1.2-0.9,2.6-1.1,3.6,0.3c1,1.4,0.3,2.6-0.8,3.6c-1.6,1.4-3.4,2.8-5,4.2
				c-6.8,5.6-12.3,12.4-16.3,20.3c-0.5,1.1-1.4,2.2-0.7,3.6c2.2-0.5,4.1-1.6,5.9-2.7c6.2-3.7,12.1-7.8,17.8-12.1
				c5.1-3.8,10.2-7.6,15.3-11.4c1.2-0.9,2.6-1.2,3.6,0.2c0.9,1.2,0.5,2.5-0.7,3.3c-2.9,2.1-3.8,5.5-5.9,8.2c-0.8,1-1.8,2.9-0.7,3.9
				c0.8,0.8,2.3-0.7,3.3-1.3c7-4.2,13.1-9.4,19.7-14.1c7.4-5.3,7.4-5.4,14.7,0.2c2.9,2.2,5.9,2.9,9.4,1.6c4.1-1.5,8-3.4,12-5.2
				c2.1-1,2.8-1.8,1.4-4c-0.9-1.3-1-2.9,0.7-3.7c1.7-0.7,2.4,0.6,3,1.9c2.3,4.5,5.3,8.5,8.8,12.1c2.2,2.2,4.7,4.2,8.1,5.4
				c-1.1-3.2-2.3-5.9-3.1-8.7c-0.6-2.1-2.2-4.6,0.4-6.2c2.5-1.5,4.3,0.8,5.8,2.4c7,7.5,15.9,12,24.8,16.5c0.4,0.2,0.9,0.7,1.5-0.1
				c-0.6-0.8-1.2-1.6-1.8-2.3c-2.7-3.5-5.7-6.9-8-10.7c-0.8-1.4-1.8-3-0.3-4.4c1.5-1.5,3.2-0.8,4.7,0.2c3.1,1.9,5.7,4.6,8.2,7.2
				c11.4,11.7,25,18.8,41.5,19.7c2.5,0.1,5.1,0,7.8,0c-1.1-2.1-2.6-3.4-4-4.8c-6.2-6.1-13.3-11.3-20.2-16.6
				c-1.4-1.1-2.7-2.3-1.6-4.1c1.1-1.9,2.8-1.1,4.3-0.2c4.9,2.7,10,4.8,15.4,6c9.7,2.1,19.4,3.7,29.3,4.5c5.8,0.5,11.7,0.1,16.9-2.9
				c1-0.6,2.5-1.1,2.5-2.3c0-1.3-1.7-1.4-2.7-1.8c-4.8-1.8-9.7-3.1-14.7-4.2c-14.7-3-29.7-5-43.9-10.3c-0.5-0.2-1.1-0.2-1.6-0.1
				c-9.3,1.3-18.5,0.3-27.7-1.2c-13.9-2.3-27.7-5.1-39.9-12.8c-3.2-2-6.7-3.6-10.5-4.3c-0.8-0.2-1.7-0.8-2.4,0.3
				c3.2,1.1,3.7,2.2,2.3,5.6c-1.6,4.2-4.5,7.6-8.4,9.3c-5.2,2.2-9,5.3-11.4,10.5c-1.1,2.5-3.8,2.6-6.1,0.9c-1.8-1.3-3.6-2.8-4.4-4.8
				c-1.2-3-3.3-4.2-6-5.5C289,239.3,286.8,233,290.6,226.2z M305.1,244.8c1.7,2.2,2.6,4.7,4.5,4.4c1.3-0.2,2.9-3.3,2.3-4.4
				C310.1,241.5,307.9,245.4,305.1,244.8z M313.9,240.4c2.2,0.4,3.7,0.2,5-0.4c0.6-0.3,1.6-0.4,0.8-1.4c-0.5-0.6-0.8-1.8-2-0.9
				C316.6,238.5,315.5,239.2,313.9,240.4z M294.6,231.4c-1.5-0.2-1.9,0.3-1.7,1.2c0.2,1.2,0.5,2.6,1.7,2.8c0.8,0.1,1.6-1.3,1.7-2.1
				C296.4,232.1,295.2,231.6,294.6,231.4z M326.4,234.2c0.9-0.5,1.3-1.4,1.7-2.1c0.3-0.7,1-1.4,0.6-2.2c-0.2-0.5-0.9-0.3-1.2-0.1
				c-0.8,0.6-2,1-1.9,2.4C325.8,232.8,326.1,233.5,326.4,234.2z M304.8,240.2c-0.9-0.7-1.6-1.2-2.2-1.7c-0.5-0.4-1-0.4-1.4,0.1
				c-0.2,0.3-0.5,0.6-0.5,0.9c0,0.7,0.7,0.8,1.2,0.9C302.7,240.5,303.6,240.7,304.8,240.2z"/>
			<path d="M146.3,148.8c0,2.7-1.6,4.3-3.9,5.4c-6.3,2.9-12.7,4.5-19.4,1.2c-1.1-0.6-1.7,0.2-2.4,0.7c-2.5,2.1-5,4.2-7.6,6.2
				c-4.3,3.3-6.3,2.6-7.4-2.9c-2.7,2.4-5.3,4.8-7.9,7.1c-2.3,2-4.6,3.8-7.3,5.2c-1.9,1-4,1.8-5.8,0.1c-1.8-1.6-1.2-3.7-0.5-5.6
				c0.6-1.7,1.4-3.3,2.3-5.5c-2.4,1.3-4.3,2.3-6.2,3.3c-1.6,0.8-3.2,1.6-5.1,2c-4.6,0.9-6.7-0.7-7.4-5.7c-1.2,0.1-2.2,0.9-3.2,1.3
				c-1.7,0.8-3.4,1.7-5.3,2c-1.5,0.3-3.2,0.5-4.2-1.1c-1-1.5-0.5-3,0.5-4.3c1.4-1.9,2.8-3.8,4.4-5.5c2-2.2,4.3-4.2,6.5-6.2
				c1.2-1.1,3.1-1.9,3.6-3.2c0.7-1.6-1.9-1.9-2.5-3.3c-0.8-1.6-1.5-3.3-0.3-4.9c1.1-1.5,2.7-1.2,4.2-0.6c7.9,3.2,15.9,2.6,23.7,0
				c4.6-1.5,9-3.5,13.4-5.3c4.8-2,9.7-3.7,15-3.5c0.7,0,1.2-0.1,1.7-0.6c4.5-4.2,10-4.3,15.6-3.8c1.6,0.2,3.5,0.5,4.2,2.5
				c0.3,0.8,0.9,0.7,1.6,0.6c7.3-0.6,14.2,1.1,20.5,4.5c11.1,6.1,22.5,7,34.6,4.2c1.9-0.4,4.5-1.3,5.5,1.4c1,2.7-1.2,4.1-3.1,5.3
				c-1,0.7-2.2,1.1-3.7,1.9c5.2,2.6,10.3,3.8,15.6,4.3c3.9,0.4,7.8,0.6,11.7,1c2.1,0.2,3.9,1.2,4.2,3.6c0.2,2.6-1.4,4.1-3.6,4.9
				c-6.1,2.3-12.4,2.6-18.8,2.2c-3.7-0.2-7.3-0.5-11-0.7c0,1.1,0.7,1.6,1.1,2.3c0.7,1.2,1.2,2.5,0.4,3.9c-0.9,1.5-2.4,1.6-3.8,1.4
				c-4.1-0.6-8.1-1.3-11.8-3.1c-0.8-0.4-1.6-0.7-2.7-1.2c-0.2,1.5,0,3.1-1.6,3.8c-1.7,0.8-3.2,0-4.7-0.7c-3.6-1.7-7-3.8-10.1-6.3
				c-3.2,4.4-5.4,4.7-9.9,1.9C151.1,156.5,148.6,152.8,146.3,148.8c-0.2-0.7-0.4-1.6-0.3-2.3c0.2-1.4,1.2-2,2.5-1.9
				c1.3,0,2.2,0.6,2.3,1.8c0.5,4.8,4,7,7.5,9.4c0.5,0.3,1.1,0.8,1.7,0.3c0.6-0.5,0.3-1.2,0.1-1.8c-0.5-1.3-1.1-2.5-1.6-3.8
				c-0.5-1.2-0.2-2.2,0.9-2.9c0.9-0.6,2-0.4,2.8,0.4c0.6,0.5,1.1,1.2,1.7,1.8c2.3,2.6,5,4.6,8.1,6.3c-0.4-0.9-0.9-1.7-1.4-2.4
				c-1-1.4-2.6-2.9-1-4.6c1.7-1.8,3.5-0.5,5.1,0.6c2.5,1.8,4.9,3.8,7.5,5.5c3.2,2.1,6.6,3.6,10.9,4.2c-1.7-2.5-3.9-3.9-5.6-5.7
				c-1-0.9-1.7-2-0.9-3.4c0.9-1.4,2.2-1.4,3.6-0.9c1.8,0.7,3.5,1.6,5.3,2.1c7.8,2.1,15.8,2,23.8,1.5c1.7-0.1,3.7-0.1,5.3-1.5
				c-0.4-0.2-0.6-0.3-0.7-0.3c-0.5-0.1-1.1-0.1-1.6-0.1c-11.3,0.2-21.7-2.9-31.3-8.7c-0.7-0.4-1.5-0.7-2.3-0.8
				c-8.3-0.5-15.8-3.4-23.3-6.9c-6.6-3.1-13.6-4.8-20.9-1.8c1.4,3,1.4,4.1,0.1,4.6c-2.1,0.8-2.9-0.8-3.8-2.1
				c-0.3-0.4-0.5-1.3-1.1-0.9c-0.8,0.4-1.3,1.2-1.2,2.3c0.1,2.7-0.9,5.2-1.6,7.7c-0.4,1.4-1.1,2.7-2.8,2.9c-1.7,0.2-2.7-0.8-3.6-2
				c-1.3-2-1.9-4.3-2.5-6.6c-0.2-0.6-0.1-1.8-1.1-1.4c-1.2,0.4-2.2,0.8-3.2-0.3c-0.9-1.1,0.1-2.2,0.2-3.5c-1.3,0.4-2.2,0.7-3.1,1
				c-9.1,3.6-18.6,6.2-28,9.1c-4.3,1.3-8.6,1.4-12.9,0.6c-1.7-0.3-3-0.1-4.4,0.8c-4.5,3.2-8.7,6.8-12.4,11c-0.3,0.3-0.9,0.7-0.4,1.4
				c5.7-3,11.6-5.7,16.8-9.5c1.3-0.9,2.5-1.9,3.8-0.4c1.2,1.4,0.2,2.8-0.8,3.8c-1.7,1.8-3.9,2.9-6.1,4c-1.9,1-2.8,2.5-3.4,4.4
				c-0.2,0.6-0.6,1.2,0,1.8c0.6,0.5,1.2,0.2,1.8,0c2-0.6,3.9-1.6,5.7-2.7c4.4-2.5,8.8-5.1,13.2-7.7c1.2-0.7,2.6-1.2,3.7,0.2
				c1,1.2,0.4,2.4-0.4,3.5c-1,1.4-2.2,2.7-3.2,4.1c-1.7,2.4-3.5,4.7-4.5,8.2c1.2-0.8,2-1.3,2.7-1.8c6-4.4,11-9.8,16-15.1
				c1.1-1.2,2.4-2.2,4-1.2c1.6,1,1.3,2.6,0.7,4.2c-0.5,1.3-1.3,2.5-1,4.4c1.2-1,2.2-1.8,3.2-2.6c2.7-2.2,5.3-4.4,8-6.6
				c0.9-0.7,1.9-1.1,3-0.4c1,0.6,1.2,1.7,0.7,2.7c-0.9,1.9,0.7,1.7,1.6,1.9c5,1,9.6-0.6,13.7-3.2
				C143.2,148.4,144.6,148.1,146.3,148.8z"/>
			<path d="M398.8,97.4c2.5,1,4.9,1.9,7.2,3c3,1.4,5.7,3.2,7.6,6c3.1,4.7,0.7,9.3-4.9,9.6c-1.3,0.1-2.7-0.2-4-0.5
				c-2.7-0.5-5.1-1.9-8.2,0c-2.1,1.3-5-0.1-7.3-1.1c-1-0.4-1.7-0.7-2.4,0.5c-0.9,1.6-2.4,1.7-4.1,1.4c-3.4-0.6-6.4-2-9.3-3.8
				c-1-0.6-1.7-1.2-2.1,0.7c-0.5,2.3-2.5,2.7-4.6,2.1c-2.8-0.8-5.3-2.2-7.3-4.1c-1.5-1.5-2.7-1.5-4.5-0.5c-2.7,1.6-5.7,2.3-8.9,2.2
				c-2.2-0.1-4.2-0.6-5.6-2.3c-1.1-1.3-1.7-0.9-2.4,0.3c-0.3,0.5-0.8,1-1.2,1.4c-1.4,1.4-3,2.5-5.1,1.8c-2.1-0.7-2.5-2.5-2.5-4.6
				c-1.6,0.9-2.4,2.3-3.5,3.4c-1.2,1.1-2.3,2.4-3.8,3c-3.3,1.3-5.4-0.3-6.3-5.2c-1.3,1-2.4,2-3.6,2.9c-2.3,1.8-4.6,3.5-7.5,4.3
				c-3.5,0.9-5.9-0.4-6.6-3.9c-0.3-1.3-0.8-1.1-1.6-0.9c-2.4,0.7-4.8,0.9-7.3,0.7c-2.2-0.2-4.3-0.9-5.9-2.5
				c-2.8-2.9-2.1-6.6,1.7-8.1c1.8-0.7,3.7-1,5.5-1.5c1.9-0.5,3.8-1.1,5.7-1.7c1.3-0.4,1.6-1,0.4-2c-0.9-0.8-1.7-1.7-2.4-2.6
				c-0.9-1.3-1.7-2.7-0.6-4.3c1-1.6,2.6-1.4,4.2-1.1c2.5,0.5,5,1.2,7.5,1.4c7.1,0.7,14.1-0.6,21-2.3c5.1-1.2,10.3-2.4,15.5-0.6
				c0.8,0.3,1.4-0.2,2.1-0.4c4.6-1.1,8.9-1.6,13.3,1.2c5.8,3.8,12.6,4.4,19.4,4.4c7.1,0,13.8-1.7,20.4-4.2c1.3-0.5,2.5-1,3.9-1.3
				c1.4-0.3,2.8-0.3,3.6,1.1c0.9,1.4,0.5,2.8-0.4,4.1C402.7,95.4,400.6,96.1,398.8,97.4z M391.9,110.4c-1.6-1.9-3.4-3.1-1.9-5
				c1.6-1.9,3.3-0.5,4.8,0.5c0.4,0.3,0.7,0.5,1.1,0.8c3.6,2.4,7.5,4.1,11.8,4.5c0.9,0.1,2,0.2,2.4-0.8c0.3-0.8-0.4-1.5-0.9-2.2
				c-0.3-0.4-0.7-0.9-1.1-1.2c-5.9-4.4-12.9-6.6-19.9-7.4c-7.9-0.8-15.9-0.9-23.9-1.6c-2.3-0.2-4.5-0.9-7.1-1.4
				c0.5,1.7,1.2,3.3-0.6,4.1c-1.7,0.8-2.4-0.7-3.4-1.7c-0.5,1.8-0.9,3.6-1.5,5.3c-0.5,1.4-1.1,2.8-2.9,2.8c-1.8,0-2.5-1.3-3.1-2.7
				c-0.5-1.3-0.9-2.7-1.3-4.2c-0.9,0.7-2.1,0.7-2.3,1.6c-0.7,3.5,1.5,7.4,5.4,6.6c2.7-0.5,5.2-1.5,7.5-3c2.3-1.4,4.1-1.4,6,0.8
				c1.2,1.5,2.8,2.7,4.7,3.4c0.4-0.7,0-1.2-0.2-1.7c-0.4-1.4-0.6-2.8,0.7-3.7c1.4-1,2.8-0.5,4,0.3c1.5,1,3,2.1,4.5,3
				c1.8,1.1,3.5,2.5,5.8,2.7c-0.1-0.4-0.2-0.6-0.3-0.7c-0.9-1.4-2.4-3-0.7-4.6c1.8-1.7,3.5-0.2,5,1
				C386.6,107.9,388.7,109.2,391.9,110.4z M319.9,111.9c2-0.6,2.6-1.8,3.5-2.7c1.6-1.7,3.1-3.5,4.7-5.3c0.7-0.8,1.7-1.1,2.7-0.6
				c0.8,0.4,1.2,1.1,1.1,2c-0.1,2.4-0.1,2.4,2.2,4.1c1.6-4.7,6.6-7.6,6.6-13.2c-1-0.4-2-0.1-3,0c-8.5,0.7-16.5,3.5-24.8,5
				c-3.5,0.6-7.2,0-10.5,0.7c-3.3,0.7-6.2,3.2-9.7,4c-1.8,0.4-3.5,0.8-5.3,1.3c-0.5,0.1-1.2,0.2-1.1,0.9c0.1,0.4,0.6,0.7,0.9,0.9
				c1.7,0.7,3.5,0.7,5.3,0.4c4.6-0.9,8.6-3.4,12.7-5.5c1.7-0.9,3.8-2.7,5.1,0c1.2,2.4-1.4,3-2.9,4.1c-2.1,1.5-3.5,3.6-5.6,6
				c3.2-0.4,4.9-1.9,6.7-3.3c2.9-2.2,5.5-4.7,8-7.4c0.8-0.9,1.8-1.2,3-0.7c0.8,0.3,1.2,1.1,1,1.8
				C319.8,106.8,321.6,109.2,319.9,111.9z"/>
			<path d="M304.6,182.1c-0.1-2.3,0.6-3.8,3-3.7c0.8,0,1.1-0.3,1.1-1.1c0-0.8-0.3-1.2-1.1-1.1c-6,0.6-11.2-1.9-16.7-4.4
				c0.6,2.2,1.1,4.2-1.9,4.2c-1,0-0.9,0.8-1.1,1.3c-0.5,1.3-1.2,2.2-2.8,2.2c-1.7,0-2-1.3-2.3-2.8c-1.1,0.8-2.1,2.2-3.5,1.1
				c-1.5-1.1-0.8-2.4-0.3-3.7c0.2-0.4,0.4-0.9,0-1.3c-0.5-0.5-1-0.2-1.5,0c-2.8,1.2-5.7,2.4-8.5,3.6c-1,0.4-2,0.8-3,1.2
				c-1.9,0.9-4.9-0.5-5.7,1.2c-0.9,2.1-2.3,3.1-3.7,4.5c-0.2,0.2-0.2,0.6-0.3,1.3c3-1,5.1-2.7,7.4-4.3c1.3-0.9,2.8-2.4,4.2-0.5
				c1.3,1.7-0.2,2.8-1.3,3.9c-0.4,0.4-1.4,0.6-0.8,1.4c0.6,0.7,1.1-0.1,1.5-0.5c1.3-1.4,2.5-2.9,3.7-4.3c0.9-1,1.9-2,3.2-1.1
				c1.4,1,1.1,2.4,0.3,3.6c-1.7,2.5-3.7,4.7-6.2,6.4c-3.3,2.2-5.3,1.5-6.7-2.2c-2.6,1-4.9,2.8-7.9,2.7c-1.8,0-3.3-0.5-3.7-2.4
				c-0.3-1.4-1.1-1.1-2-1c-2.2,0.3-4.3,0.6-6.5,0c-2.1-0.5-3.8-1.5-4-3.9c-0.1-2.4,1.6-3.3,3.6-3.8c3.1-0.9,6.1-1.6,9.2-2.5
				c1.8-0.5,3.7-0.8,4.9-2.6c0.5-0.8,1.6-0.8,2.5-0.7c5.5,0.8,10.6-0.9,15.6-3c2.1-0.9,4.2-1.6,6.4-2.3c5.2-1.8,10.2-0.9,15.1,1.1
				c4.6,1.9,9.1,3.7,14.2,2.8c1.1-0.2,2.5,0.2,2.5,1.5c-0.1,2.1,1.4,2.3,2.7,2.7c4,1.3,8,2.4,12.1,3c1.5,0.2,2.9,0.5,3.4,2.2
				c0.5,1.8-0.4,3-1.6,4c-3,2.8-6.5,2.4-10,1.8c-1.2-0.2-2-0.4-2.7,0.9c-0.6,1.3-2,1.5-3.3,1.2c-1.7-0.4-3.3-0.9-5-1.4
				c-1.6-0.4-3.1-1.5-4.4,0.7c-0.6,1-2.1,0.8-3.3,0.3c-1.4-0.6-2.5-1.5-3.6-2.4c-0.7-0.6-1.2-2-2.7-1c-1.1,0.8-2.4,1.2-1.9,3.1
				c0.4,1.4,0.2,2.9-1.6,3.1c-1.8,0.2-2.3-1.2-2.5-2.6c-0.1-0.9-0.2-1.8-1.4-1.9c-1.1-0.1-2.1-0.2-2.7,1.1c-0.3,0.6-0.8,1.2-1.4,1.7
				c-0.9,0.8-2,1.1-3,0.2c-0.9-0.8-0.8-1.8-0.2-2.7c0.8-1.1,1.6-2.2,0.6-3.7c-0.5-0.7-0.2-1.6,0.5-2.2c0.7-0.6,1.6-0.6,2.3-0.2
				c4.2,2.8,7.8,1.8,11.3-1.4c1.9-1.8,2.8-1.4,3.9,1.2c0.5,1.2,0.9,2,1.9,0.2c0.7-1.3,2.1-1,3.2-0.6
				C302.8,181,303.6,181.5,304.6,182.1z"/>
			<path d="M315.6,283.2c-0.6,0.5-0.9,0.8-1.2,1.1c-0.9,0.8-1.9,1.2-2.9,0.3c-1-0.9-0.9-2-0.3-3c0.7-1.2,1.5-2.3,2.5-3.2
				c1.2-1.2,1.4-2.7,0.9-4c-0.5-1.2-1.9-0.5-2.9-0.6c-1.4-0.1-2.9,0.2-4.4-0.1c-1.9-0.3-2,1.3-2.6,2.2c-0.6,0.9,0.8,0.6,1.2,1.1
				c0.8,0.9,1.7,6.5,1,6.7c-2.4,0.6-3.6,2.4-5.1,4.1c-1,1-2.7-0.4-2.7-2.2c0-1.2,0.8-2.3,0.3-3.5c-1.4,0-2.4,0.6-3.3,1.5
				c-1,1-2.1,1.2-3.1,0.2c-1-1.1-0.9-2.3,0.1-3.4c1.1-1.2,2.5-1.8,4-2.3c1.2-0.4,2-1.1,2.4-2.3c0.5-1.4,1-2.5-1.2-2.9
				c-1.7-0.3-2.4-1.7-1.8-3.3c0.6-1.6,1.9-1.1,3.2-0.8c5.2,1.1,10.4,1.1,15.7,0.4c0.9-0.1,1.8-0.3,2.7-0.3c1.8,0.1,2.3,1.2,1.8,2.8
				c-0.2,0.6-0.7,1.1-0.8,1.7c-0.6,3,0,3.8,3,4.7c1.6,0.5,3.3,1,4.9,1.7c1.1,0.5,1.7,1.4,1.2,2.7c-0.4,1.2-1.5,1.3-2.5,1.1
				c-1.7-0.3-3.8-1.6-4.9-1.1c-1.4,0.8-0.1,3.1-0.5,4.8c-0.2,1-0.8,1.6-1.8,1.7c-1,0.1-1.7-0.5-2.1-1.4
				C315.5,286.3,316,284.9,315.6,283.2z"/>
			<path d="M342.1,120.8c0.9-1.5,1.1-3.3,1.2-5.2c0.1-1.3,1.5-1.5,2.6-1.1c2.5,0.9,5,0.7,7.4-0.3c1-0.4,2.2-0.6,3,0.4
				c0.7,0.9,0.4,1.9-0.3,2.7c-0.8,1-0.4,2-0.1,3.1c0.4,1.3,0.9,2.9-0.8,3.5c-1.9,0.7-3-0.8-3.3-2.4c-0.4-2.5-2-2.4-3.8-2.1
				c-1.3,0.2-1.2,1.7-2,2.4c-0.8,0.8-1.6,1.5-2.8,1.1C342.4,122.6,342,121.9,342.1,120.8z"/>
			<path d="M129.7,159.7c1.5,0.2,2.8,1.4,4.6,0.9c1.9-0.5,3.7-1,5.3-2.1c1-0.7,2.1-0.8,3,0.1c0.8,0.8,0.7,1.9,0,2.7
				c-0.9,1-0.7,1.9-0.4,3c0.2,1-0.1,1.8-1,2.3c-0.9,0.4-1.7,0-2.4-0.7c-2-2-3.9-1.9-5.8,0.1c-0.5,0.6-1.1,1.2-1.7,1.7
				c-0.8,0.6-1.7,0.8-2.5,0.1c-0.7-0.6-1-1.4-0.6-2.2c0.8-1.3,0.3-2.2-0.2-3.4C127.2,161,128,159.9,129.7,159.7z"/>
		</g>
	</g>
</g>
</svg>
