<?xml version="1.0" encoding="utf-8"?>
<!-- Generator: Adobe Illustrator 18.0.0, SVG Export Plug-In . SVG Version: 6.00 Build 0)  -->
<!DOCTYPE svg PUBLIC "-//W3C//DTD SVG 1.1//EN" "http://www.w3.org/Graphics/SVG/1.1/DTD/svg11.dtd">
<svg version="1.1" xmlns="http://www.w3.org/2000/svg" xmlns:xlink="http://www.w3.org/1999/xlink" x="0px" y="0px"
	 viewBox="0 0 484 408" enable-background="new 0 0 484 408" xml:space="preserve">
<g id="圖層_4">
	<polygon fill="#FFFFFF" points="164.7,59.3 90.7,152.7 54,124 52,172 72,178 60.7,201.3 70,197.3 69.3,205.3 79.3,203.3 
		127.3,282.7 210,316 216.7,315.3 230,332 249.3,341.3 242.7,330 268,334 280,327.3 278,310 291.3,310.7 312.7,284 283.3,280.7 
		306,234 316.7,155.3 322,126.7 336,115.3 332,92.7 312.7,104 302,96.7 294,101.3 268,67.3 205.3,48.7 	"/>
</g>
<g id="敺_x9E__xFFFD__xF880_詨_x8F__x96_蝭_x84__xFFFD__x9C__x8D__xA0_影像_3_">
	<g>
		<path d="M93.4,181.2c0.5-33.5,9.1-64.4,29-91.7c17.8-24.3,40.9-40.5,70.9-45.9c19.7-3.5,38.8-0.7,56.9,7.7
			c27.8,13,47,34.6,59,62.3c19.2,44,18.3,88.2-0.8,132.2c-0.9,2.1-0.6,3.4,0.7,5.1c9.2,11.6,20,20.7,34.3,25.5
			c6.8,2.3,10.1,8.1,9.1,14.6c-0.9,5.9-6,10.4-12.2,10.6c-4.4,0.1-8.3-1.7-12.3-3.3c-12.9-5.5-23.9-13.8-33.2-24.2
			c-1.6-1.8-2.3-1.7-3.7,0.1c-14.6,18.4-32.5,32.3-55.3,38.9c-37.4,10.9-70.3,1.7-98.5-24.2c-23.7-21.7-36.3-49.5-41.7-80.9
			C94.1,199.2,93.4,190.2,93.4,181.2z M289.5,223.8c0.4-1.1,0.7-1.8,0.9-2.5c7.9-24.4,9-49.2,3.1-74.2
			c-5.6-23.6-16.4-44.3-35.2-60.1c-21.8-18.2-46.4-23.8-73.6-14.3c-18.1,6.4-32.2,18.4-42.7,34.1c-22.9,34.1-28,71.4-17.6,110.7
			c6,23.1,17.8,42.9,36.9,57.7c16.8,13,35.9,18.8,57,15.3c25.1-4.1,43.4-18.8,57.6-39.3c0.7-1.1,0.8-1.9,0-2.9
			c-3.7-5-7.2-10.1-11.8-14.2c-10.1-9.1-21.4-15.4-35.6-14.3c-3.4,0.3-6.6,1.2-9.9,1.8c-6.1,1.2-11.4-2-13.3-7.7
			c-1.8-5.4,0.7-11.2,6.1-13.9c1.1-0.6,2.3-1,3.5-1.4c21.4-6.9,41-3.1,59.1,10C279.6,213,284.6,218,289.5,223.8z"/>
		<path d="M371.1,252.2c-6.9-0.1-13.6-0.9-20-3.5c-10-4-16.1-14-14.5-24c0.8-5,3.5-8.6,8.4-10c5.2-1.5,9.5,0.1,12.8,4.3
			c0.7,0.8,1.4,1.7,1.8,2.7c0.9,2.8,3.1,3.8,5.8,4.1c8.3,1,16.2,0.4,22.9-5.2c1.1-0.9,3-2,2.5-3.5c-0.4-1.1-2.5-1-4-1
			c-4-0.1-8,0.1-11.9,0.9c-6.8,1.4-13.1-1.7-15.5-7.7c-2.4-6.1-0.2-12.5,5.9-16.2c5.6-3.4,11.3-6.6,16.2-11c1-0.9,3-1.9,2.3-3.2
			c-0.6-1.2-2.6-0.5-4-0.4c-2.3,0.3-4.5,0.8-6,3.1c-2.8,4.3-7.6,5.8-12.4,4.5c-4.5-1.3-7.8-5.2-8.2-10.2c-0.3-4.3,0.9-8.1,3.8-11.3
			c9.2-10.4,28.4-14.1,40.7-7.8c13.4,6.9,17.4,22,9.2,35.1c-1.5,2.3-1.3,3.3,0.9,5c9.8,7.2,12.8,19.5,7.3,30.7
			c-6.5,13.1-17.8,20-31.5,23.4C379.5,252,375.3,252.3,371.1,252.2z"/>
	</g>
	<g>
		<path fill="#85A48C" d="M80.4,181.2c0.5-33.5,9.1-64.4,29-91.7c17.8-24.3,40.9-40.5,70.9-45.9c19.7-3.5,38.8-0.7,56.9,7.7
			c27.8,13,47,34.6,59,62.3c19.2,44,18.3,88.2-0.8,132.2c-0.9,2.1-0.6,3.4,0.7,5.1c9.2,11.6,20,20.7,34.3,25.5
			c6.8,2.3,10.1,8.1,9.1,14.6c-0.9,5.9-6,10.4-12.2,10.6c-4.4,0.1-8.3-1.7-12.3-3.3c-12.9-5.5-23.9-13.8-33.2-24.2
			c-1.6-1.8-2.3-1.7-3.7,0.1c-14.6,18.4-32.5,32.3-55.3,38.9c-37.4,10.9-70.3,1.7-98.5-24.2c-23.7-21.7-36.3-49.5-41.7-80.9
			C81.1,199.2,80.4,190.2,80.4,181.2z M276.5,223.8c0.4-1.1,0.7-1.8,0.9-2.5c7.9-24.4,9-49.2,3.1-74.2
			c-5.6-23.6-16.4-44.3-35.2-60.1c-21.8-18.2-46.4-23.8-73.6-14.3c-18.1,6.4-32.2,18.4-42.7,34.1c-22.9,34.1-28,71.4-17.6,110.7
			c6,23.1,17.8,42.9,36.9,57.7c16.8,13,35.9,18.8,57,15.3c25.1-4.1,43.4-18.8,57.6-39.3c0.7-1.1,0.8-1.9,0-2.9
			c-3.7-5-7.2-10.1-11.8-14.2c-10.1-9.1-21.4-15.4-35.6-14.3c-3.4,0.3-6.6,1.2-9.9,1.8c-6.1,1.2-11.4-2-13.3-7.7
			c-1.8-5.4,0.7-11.2,6.1-13.9c1.1-0.6,2.3-1,3.5-1.4c21.4-6.9,41-3.1,59.1,10C266.6,213,271.6,218,276.5,223.8z"/>
		<path fill="#85A48C" d="M358.1,252.2c-6.9-0.1-13.6-0.9-20-3.5c-10-4-16.1-14-14.5-24c0.8-5,3.5-8.6,8.4-10
			c5.2-1.5,9.5,0.1,12.8,4.3c0.7,0.8,1.4,1.7,1.8,2.7c0.9,2.8,3.1,3.8,5.8,4.1c8.3,1,16.2,0.4,22.9-5.2c1.1-0.9,3-2,2.5-3.5
			c-0.4-1.1-2.5-1-4-1c-4-0.1-8,0.1-11.9,0.9c-6.8,1.4-13.1-1.7-15.5-7.7c-2.4-6.1-0.2-12.5,5.9-16.2c5.6-3.4,11.3-6.6,16.2-11
			c1-0.9,3-1.9,2.3-3.2c-0.6-1.2-2.6-0.5-4-0.4c-2.3,0.3-4.5,0.8-6,3.1c-2.8,4.3-7.6,5.8-12.4,4.5c-4.5-1.3-7.8-5.2-8.2-10.2
			c-0.3-4.3,0.9-8.1,3.8-11.3c9.2-10.4,28.4-14.1,40.7-7.8c13.4,6.9,17.4,22,9.2,35.1c-1.5,2.3-1.3,3.3,0.9,5
			c9.8,7.2,12.8,19.5,7.3,30.7c-6.5,13.1-17.8,20-31.5,23.4C366.5,252,362.3,252.3,358.1,252.2z"/>
	</g>
</g>
<g id="圖層_3">
	<polygon fill="#FFFFFF" points="300.7,108 278,114 290.7,126 305.3,130.7 311.3,143.3 321.3,124 317.3,101.3 302,96.7 291.3,102.7 
			"/>
	<polygon fill="#FFFFFF" points="72.7,141.3 90.7,152.7 98,142 105.3,138 118.7,146 127.3,156.7 116,156.7 120.7,162.7 144,170.7 
		124,194 103.3,194 92.7,200.7 79.3,203.3 67.3,156 	"/>
	<polygon fill="#FFFFFF" points="208,248 206.7,280.7 206.7,311.3 210.7,319.3 226.7,327.3 287.3,285.3 250.7,273.3 242,270 
		228.7,250.7 213.3,244 	"/>
</g>
<g id="Birds_xA0_影像_1_">
	<g>
		<g>
			<path d="M342.2,88c-0.7,1.5-1.5,2.9-2.9,3.8c-2.6,1.7-1.7,5-3,7.3c0,0.1,0.1,0.4,0.2,0.5c3.6,2.8,1.3,5.7,0,8.5
				c-0.5,1.2-0.9,1.8,0.5,2.8c2.3,1.6,2.3,4.8,0.2,7.6c-2.3,3.1-5.5,4.9-9,6.5c-1.4,0.6-3.6,0.9-3.8,2.2c-0.5,2.2-0.1,4.7,0.1,7
				c0.1,1.2,1.5,1.1,2.4,1.6c1.3,0.7,2.4,1.6,1.7,3.2c-0.7,1.6-2.1,1.8-3.4,1.1c-2.2-1.1-3.3-0.9-4.1,1.8c-1.1,3.6-2,3.7-6.5,1.1
				c-0.9,0.9-1,2.1-1.6,3.1c-0.5,0.8-1.2,1.4-2.2,1.2c-0.9-0.2-1.7-0.9-1.5-1.6c0.6-2.3-1.3-3.3-2.2-4.8c-0.7,0.1-0.8,0.7-1.1,1.1
				c-0.7,0.9-1.5,1.4-2.6,0.9c-1-0.4-1.2-1.3-1.2-2.3c0.1-0.9,0.4-1.8-1-1.9c-1-0.1-1.6-0.8-1.6-1.9c0-1.2,0.7-1.8,1.7-2.2
				c1.2-0.4,2.5-0.6,3.7-0.9c1-0.2,2-0.4,2.1-1.9c-2.6,0.1-5.1,1.3-7.7,1.1c-2.7-0.2-5.1-0.7-6.7-3c-0.6-0.9-1.5-0.9-2.4-0.9
				c-4.6-0.3-5.3-0.8-6.5-5.2c-0.3-1.3-1.3-1.1-2.1-1.2c-2.8-0.5-5.4-1-6.2-4.3c-0.2-1-1.3-0.9-2-1.1c-2.1-0.6-4.2-1.4-3.8-4.1
				c0.5-2.6,2.8-2.8,4.8-2.5c6.2,0.9,12.3,0.1,18.4-1.2c0.5-0.1,1.1-0.2,1.6-0.4c1.5-0.5,3.8-0.6,3.1-2.8c-0.5-1.5-2.3,0.2-3.5,0.2
				c-1.1,0-2.2,0.2-3.3,0.2c-1.2,0.1-2.2-0.4-2.4-1.7c-0.2-1.3,0.6-2,1.9-2.2c0.2,0,0.4-0.1,0.5-0.1c3.4-0.3,5.7-1.4,7.1-5.1
				c1.5-4.2,5.4-4.8,9.1-2.1c0.7,0.5,1.7,1,2.1,1.7c1.8,2.9,4,2.5,6.7,1.3c6.4-3,12.6-6.5,18.2-10.9c1.2-1,2.4-1.9,3.9-2.4
				c2.3-0.8,3.4,0.6,4.2,2.4C342.2,87.6,342.2,87.8,342.2,88z M319.7,131.8c0.3-7.4-0.3-14.4-3.8-20.9c-3-5.6-5.4-6.7-11.7-6
				c-1.5,0.2-2.3,0.8-2.4,2.3c-0.3,2.8-0.2,5.6,1.1,8.3C306.6,122.8,312.1,128.2,319.7,131.8z M325.7,100.8
				c-2.8,0.8-4.8,2.6-7.2,3.9c-0.9,0.5-0.8,1-0.3,1.7c3,4.2,4.6,9,5.4,14c0.1,1,0.3,1.6,1.5,1c2.4-1.1,4.8-2.1,6.9-3.8
				c1-0.8,1-1.7-0.2-1.9c-3.2-0.4-3.6-2-2.3-4.7c-3.3,0.7-5.4-0.3-5.2-3.1C324.5,105.6,323.6,102.9,325.7,100.8z M293.1,122.9
				c0.5,1.9,3.2,1.5,3.2,3.5c0,1.7,1.1,1.9,2.3,2.1c1.9,0.4,3.6-0.2,5.4-0.7c1.4-0.4,1.5-0.9,0.5-2c-2.8-3.1-4.9-6.5-6.3-10.4
				c-0.3-0.7-0.4-1.4-1.5-1c-2.3,0.7-4.6,1.4-7.1,2.2c2.3,1.5,2.3,1.5,5,1.7c1.2,0.1,2.2,0.4,2.5,1.7c0.2,1.4-0.6,2.2-1.9,2.5
				C294.5,122.5,293.8,122.7,293.1,122.9z M303.9,101.1c1.2,0.1,2.5,0,2.5-1.6c-0.1-1.7-1.4-1.8-2.8-1.8c-1.2,0-2.6,0.1-2.6,1.6
				C300.9,101.2,302.5,101.1,303.9,101.1z M310.5,136.1c0.5,0.4-0.5,1.7,0.8,1.7c1.9,0,2.2-1.6,2.5-3c0.2-1.1-1-1.8-1.7-1.7
				C310.7,133.3,310.6,134.7,310.5,136.1z"/>
			<path d="M76,167.6c3.3-4.6,6.5-9.1,9.8-13.7c0.4-0.6,0.6-1.1-0.2-1.5c-10.5-5.1-19.3-12.4-28.2-21c1.2,4.1,3.8,6.4,5.9,8.9
				c1.6,1.9,1.4,3.7-0.4,5.2c-1,0.8-2,0.3-3.2,0.3c1.5,2.9,2.9,5.6,4.1,8.4c1.4,3,0.7,4.3-2.4,5.1c-0.9,0.2-1.1,0.4-0.8,1.2
				c0.1,0.2,0.1,0.3,0.2,0.5c2.7,8.8,0.6,7.7-5.5,10c2.7,2.3,5.9,2.3,8.9,2.9c0.7,0.1,1.5,0.1,2.1,0.3c1.1,0.3,2,1,1.8,2.3
				c-0.2,1.3-1.1,1.8-2.3,1.8c-4.3-0.3-8.5-0.8-12.3-3.2c-2.3-1.4-4.2-3.3-3.8-6.4c0.2-1.3-0.9-1.7-1.5-2.4
				c-2.1-1.9-3.5-4.2-3.7-7.1c-0.1-1.7,0.2-3.4,1.8-4.3c1.5-0.8,1-1.6,0.4-2.6c-1.2-2.1-2.1-4.3-2.4-6.6c-0.4-3.1,0.1-6,3.1-7.8
				c1.5-0.9,1.2-2.2,0.6-3.6c-1.2-3.1-1.9-6.2-1.8-9.6c0.1-2.3,0.5-4.5,2-6.4c0.5-0.7,0.7-1.4,0.7-2.3c-0.1-2.1-0.4-4.6,2.2-5.3
				c2.7-0.8,3.5,1.8,4.5,3.5c6.9,13,17.2,22.4,30,29.2c0.9,0.5,1.8,0.8,2.7,1.3c1.9,1,3.4,0.5,4.8-1c2.5-2.7,5.3-5.3,9-6.4
				c5.2-1.6,9.9-0.5,14,2.9c3.4,2.9,6.3,6.3,9.3,9.6c1.7,1.9,3.5,3.7,6.1,4.4c1.2,0.4,2.1,1.2,1.9,2.6c-0.2,1.5-1.4,2.1-2.8,2.1
				c-2.8,0.1-5.6-0.1-8.4,0c-1.2,0-2.6-0.1-3.9,0.9c3,1.3,6,1.8,9,1.9c7.8,0.3,15.6-0.3,23.3-1.9c2.4-0.5,4.8-0.7,7.3-0.4
				c1.4,0.2,2.5,0.7,2.7,2.3c0.2,1.4-0.5,2.4-1.7,2.8c-4.6,1.6-6.7,6.6-11.3,8.2c-0.3,0.1-0.6,0.5-0.6,0.8c0.1,3.5-2.7,4.7-5,6.3
				c-1.4,1-2.6,1.9-2.9,3.7c-0.1,0.4-0.3,0.9-0.6,1.2c-5.5,6.4-11.8,11.2-21,10.9c-5.2-0.2-10.4,0.7-15.4-1.2
				c-0.9-0.4-1.3,0.1-1.7,0.8c-1.9,2.7-3.9,5.2-6.8,7.2c1.4,1.1,2.7,2,3.8,3c0.7,0.6,1.2,0.4,1.9,0.1c2-1,4.1-1.9,6.2-2.7
				c1.3-0.5,2.7-0.5,3.3,1c0.6,1.5-0.4,2.4-1.7,3c-1.1,0.5-2.3,1-3.7,1.6c0.7,1.2,2,1.2,2.9,1.8c1,0.7,1.9,1.6,1.4,2.9
				c-0.7,1.5-2,1.4-3.3,0.9c-0.8-0.3-1.6-0.7-3.1-1.4c0.8,2.3,1.3,4.1,1.9,5.8c0.4,1.3,0.6,2.6-0.9,3.2c-1.6,0.6-2.6-0.4-3.1-1.8
				c-0.8-2.1-1.5-4.3-2.2-6.5c-3,1.7-3.9,5.5-7.7,6.4c0.7,1.4,2.8,2.6,1.3,4.4c-1.4,1.7-2.8,0-4.3-0.5c0.2,1.2,0.5,2.3,0.6,3.3
				c0.2,1.3-0.2,2.4-1.6,2.8c-1.4,0.3-2.2-0.5-2.6-1.8c-0.3-1.1-0.5-2.2-0.8-3.4c-1.1,0.2-1.1,1.2-1.7,1.7c-1,0.9-2.1,1.2-3.2,0.4
				c-1.1-0.8-0.9-1.9-0.3-2.9c0.1-0.2,0.2-0.5,0.4-0.7c3.8-3.3,3.7-7.1,1.5-11.3c-1.1-2.2-1.5-4.8-2.2-7.4c-1.4,1-2.6,2-4,2.9
				c-1.8,1.2-3.6,2.3-5.8,1.1c-2-1.1-1.4-3.1-1.2-5c-1.1-0.2-1.7,0.7-2.3,1.2c-1.4,0.9-2.8,2.1-4.5,2.6c-1.4,0.3-3.2,0.8-4.2-0.9
				c-1-1.6,0.2-2.7,1.1-3.8c4.9-5.7,8.8-12,11.8-18.9c2.4-5.4,5.2-10.6,8.1-15.7C75.9,167.9,75.9,167.8,76,167.6z M66.7,196.3
				c1-0.8,1.7-1.4,2.4-2c1.5-1.3,2.9-2.7,4.4-4.1c1.1-1,2.3-2,3.8-0.9c1.5,1.2,0.9,2.6,0.1,3.9c-0.5,0.8-1,1.5-1.5,2.3
				c-1.3,1.9-2.5,3.9-3.8,5.8c1.5-0.5,2.5-1.3,3.5-2.1c3-2.5,4-2.3,5.5,1.2c1-0.4,1.5-1.3,2.1-2c2.9-3.4,5-7.4,7.2-11.2
				c0.8-1.3,1.7-2.7,3.4-1.9c1.9,0.8,1.4,2.5,0.8,4c-0.5,1.4-1,2.7-1.4,4.1c-0.4,1.1-0.6,2.3-0.2,4.1c6.1-7.3,10.5-14.9,12.3-23.7
				c0.9-4.3,1-8.8,2.7-13c0.6-1.4,0.1-2.3-1.6-2.7c-2.6-0.7-4.9-1.9-7-3.6c-2.8-2.3-6.6-1.7-8.9,1.1
				C80.6,167.7,73.3,181.5,66.7,196.3z M110.3,173.9c1.7-1.1,3-2.1,4.4-2.9c0.8-0.4,1.8-0.4,2.6,0.2c0.6,0.5,0.8,1.2,0.6,2
				c-0.5,1.8-5.3,4.5-7,3.8c-1-0.4-1.3-0.2-1.5,0.6c-1,3.7-2.5,7.2-4.3,10.5c-0.5,0.9-0.7,1.7,0.7,1.9c5.4,0.9,10.8,1.6,16.4,0.1
				c-1.5-0.4-1.8-1.8-2.6-2.7c-2.8-3.3-2.9-3.3-0.6-6.5c0.3-0.5,0.5-0.8,0.3-1.4c-0.8-3.5-0.2-4.5,2.9-5.8c0.8-0.3,2.5-0.6,2.1-1
				c-1.3-1.3,0-4.1-2.6-4.6c-3-0.5-5.8-1.5-8.5-2.8c-1.1-0.5-1.6-0.3-1.9,0.9C110.8,168.8,110.2,171.2,110.3,173.9z M87.9,215.6
				c1-0.4,2.8,0.9,3.3-0.7c0.6-1.7,1.5-3.1,2.7-4.3c0.9-1,0.8-1.6-0.3-2.4c-2.1-1.4-4.2-2.9-6.2-4.5c-1.3-1.1-2-0.7-3.4,0.1
				c-2.7,1.6-2.6,3.4-1.5,5.8c0.5,1.1,0.9,2.2,1.2,3.3C84.3,215,85.4,216.3,87.9,215.6z M99.8,143.6c5.7,0.2,10.7,1,15.7,4.3
				C112.1,141.1,104.1,139,99.8,143.6z M106.8,147.4c-0.8,0.3-1.9,0.4-1.9,1.6c0.1,1.7,1.3,2.6,2.9,2.7c1.1,0.1,2.1-0.3,2-1.6
				C109.8,148.2,108.2,148,106.8,147.4z"/>
			<path d="M228.2,325.8c-0.7-3.3-1.4-6.5-1.2-9.8c0.1-1.5,0.3-2.8,2.2-2.8c1.8,0,1.7,1.4,1.8,2.8c0.4,9.4,5.5,15.8,13.5,21.2
				c-0.6-1.5-0.9-2.4-1.3-3.3c-5.8-14.2-9-28.9-9.6-44.2c-0.1-3-2.2-4.8-3.8-7c-0.5-0.6-1.2-1.1-1.6-1.9c-3-5.9-7.5-10.5-12.4-14.7
				c-2.6-2.3-4.9-4.8-7.3-8.3c0.2,2.8,0.5,4.8,0.6,6.8c0.4,8.7-0.6,17.2-1.4,25.8c-0.7,7.7-0.9,15.5,2.4,22.8c0.6,1.3,1,2.6,2.4,3.5
				c1.5,1,1,2.3-0.3,3.3c-0.3,0.2-0.7,0.3-1,0.4c-5,1.1-9.2,3.5-12.4,7.6c-0.5,0.6-1.2,1.1-1.9,1.5c-0.9,0.5-1.8,0.4-2.5-0.3
				c-0.8-0.9-0.7-1.8-0.1-2.8c0.6-1,1.9-1.3,2.3-2.8c-1.7,0.4-3.3,0.8-4.8,1.2c-1.4,0.4-2.9,0.5-3.3-1.3c-0.4-1.7,0.7-2.4,2.2-2.8
				c1.3-0.4,2.7-0.3,3.9-1.4c-1-0.8-1.9-1.4-2.8-2.2c-1-0.9-1.6-2.1-0.5-3.4c1-1.1,2.1-0.8,3.1,0c1.8,1.4,3.7,2.7,5.5,4.1
				c0.9,0.7,1.9,0.9,3,0.7c3.9-0.7,4.1-0.9,2.6-4.6c-3.5-8.7-2.9-17.6-2.1-26.6c0.8-8.7,2.1-17.3,0.9-26.1
				c-0.7-5.3-2.7-9.8-6.9-13.1c-2.7-2.1-5.4-4.3-8.2-6.3c-1.3-1-3.4-1.6-2.4-3.9c0.6-1.3,4-1.7,5.7-0.7c0.9,0.6,1.8,1.2,2.7,1.9
				c4.4,3.8,9.4,4.8,15,4c4.1-0.6,8.2-0.1,12.2,0.9c5,1.3,9.2,3.8,12.3,8.1c2.8,3.9,5.5,7.9,8.3,11.8c2.5,3.5,5.8,5.7,10.1,5.5
				c13.4-0.4,25.6,3.6,37.4,9.4c6,3,12.2,5.1,19.1,3.9c1.6-0.3,3.2,0,3.7,1.9c0.5,2-0.7,3-2.3,3.9c-4.6,2.5-9.5,1.7-14.4,1
				c-3.4-0.5-6.5-1.8-9.5-3.2c-11.3-5.3-23-9-35.4-10.2c-3.6-0.3-6.9-1.7-9.3-4.6c-1.5-1.7-3-3.4-4.7-5.5c-0.4,4.5,0.4,8.5,0.5,12.6
				c0,0.9,1.1,0.9,1.7,1c6.7,1,11.3,5.1,15.3,10.1c3.4,4.3,6.6,8.7,8.6,13.8c3.4,8.2,9.1,14.1,17.1,17.9c2,1,4.1,2,6.1,3
				c1.9,1,2.6,2.7,2,4.6c-0.6,2.1-2.5,1.7-4.1,1.4c-6.4-1.3-11.9-4.5-16.7-8.7c-0.9-0.8-1.4-1.5-2.5-0.1c-0.8,1-2.2,0.7-3.3,0.3
				c-3.8-1.4-6.9-3.7-9.4-6.8c-0.9-1.1-1.6-2.4-0.3-3.6c1.4-1.2,2.5-0.3,3.5,0.8c1.9,2.2,4.1,4.1,7.1,4.9
				c-5.9-7.4-8.9-16.8-15.9-23.4c-2.1-2-4.5-3.6-7.3-4.7c-1.4-0.5-2-0.1-1.9,1.4c1.4,17.1,4.9,33.6,13,48.9c0.9,1.7,2.2,3.1,3.3,4.7
				c0.7,1,0.8,2.1-0.2,3c-0.8,0.8-2.1,0.9-2.7,0.1c-3.3-4-8.6-5-12.3-8.3c-1.8-1.6-3.4-3.2-6.3-3.5c-2.9-0.3-4.9-3.3-6.8-5.5
				c-1.2-1.4-2.2-1.7-3.5-0.4c-0.1,0.1-0.3,0.2-0.5,0.3c-4.6,1.7-7.2,5.1-8.4,9.7c-0.1,0.5-0.4,1-0.7,1.5c-0.6,1-1.5,1.4-2.6,1
				c-1.1-0.4-1.4-1.4-1.2-2.5c0.1-0.7,0.4-1.4,0.6-2.3c-1.6,0.2-2.6,1.1-3.8,1.5c-1.4,0.5-2.8,0.8-3.5-0.9c-0.7-1.5,0.5-2.3,1.6-3
				c0.8-0.5,1.9-0.6,2.5-1.7c-0.9-0.5-1.8-0.9-2.6-1.4c-1.3-0.8-1.9-2.1-1-3.5c0.9-1.4,2.1-1,3.3-0.3c1.9,1,3.8,2.7,6,2
				c3.2-1,6.1-2.9,8.8-4.8c1.1-0.8,0-1.5-0.3-2.1c-1.9-3.3-3.4-6.6-4.2-10.3c-0.2-1.1-0.3-2.3-0.4-3.5c0-1.4,0.4-2.6,2.1-2.6
				c1.6,0,1.9,1.2,2,2.4c0.5,4.9,2.5,9.3,5.2,13.3C226.3,323.6,227.3,324.7,228.2,325.8z M231.4,260.4c-0.7-5.6-7.2-11.4-13.1-11.8
				C223.3,252,227.2,255.9,231.4,260.4z M220.5,254.9c-0.6-1.1-1.1-2.5-2.8-2.7c-1.1-0.1-1.8,0.7-1.5,1.7c0.3,1.5,1.2,2.7,2.9,2.7
				C220,256.7,220.5,256,220.5,254.9z"/>
			<path d="M298.7,297.5c-2.2,0.2-4.6-0.6-7-1.4c-2.9-1-5.9-1.7-9-1.8c-1.4,0-2.6-0.4-2.6-2.1c0.1-1.7,1.4-1.8,2.8-1.9
				c3.6-0.2,7,0.6,10.4,1.8c2.9,1,5.8,1.4,8.8,0.7c1.4-0.3,2.6-0.1,3,1.4c0.4,1.5-0.6,2.3-1.9,2.8
				C301.8,297.5,300.4,297.4,298.7,297.5z"/>
			<path d="M266.5,336.8c-4.3-0.3-8.7-1.6-12.7-4c-1.4-0.8-2.4-2-1.5-3.6c1-1.8,2.4-0.8,3.7,0c4.1,2.3,8.4,3.9,13.2,3
				c1.3-0.2,2.4,0,2.8,1.4c0.3,1.4-0.5,2.2-1.7,2.8C269.3,336.9,268.1,336.7,266.5,336.8z"/>
			<path d="M287.7,313.8c-3,0-5.9-0.8-8.6-2.1c-1.5-0.8-2.6-2-1.6-3.7c0.9-1.6,2.2-0.8,3.5-0.1c3.4,1.7,7,2.3,10.7,0.8
				c1.1-0.5,2.2-0.5,2.8,0.7c0.6,1.2,0.2,2.4-0.9,3.1C291.9,313.7,289.8,313.9,287.7,313.8z"/>
			<path d="M291.3,306.2c-3.2,0.1-6.1-0.9-9-1.8c-1.2-0.4-2.1-1.3-1.7-2.7c0.4-1.4,1.6-1.6,2.9-1.3c2.2,0.5,4.3,1.4,6.6,1.5
				c1.3,0.1,2.5,0.2,3.6-0.7c1.1-0.8,2.3-1,3,0.3c0.8,1.3,0.4,2.7-0.8,3.6C294.6,306.3,292.9,306.2,291.3,306.2z"/>
			<path d="M264.8,330c-4.3-0.9-8.3-2.7-11.4-6.1c-0.7-0.8-0.8-1.8-0.1-2.7c0.9-1,2-1,2.9-0.2c2.7,2.4,5.8,3.9,9.3,4.8
				c1.1,0.3,2,1.1,1.8,2.4C267.1,329.5,266.1,330,264.8,330z"/>
			<path d="M69.2,151.8c0.1-1,0.4-1.8,1.4-2.1c1-0.3,1.9,0.1,2.3,1c1.1,2.3,2.6,4.3,4.1,6.4c0.6,0.8,0.9,1.9,0.1,2.8
				c-0.7,0.8-1.6,0.8-2.5,0.4C72.9,159.5,69.1,153.6,69.2,151.8z"/>
			<path d="M76,167.6c-0.1,0.1-0.1,0.2-0.2,0.4c-2.4,0.1-6.1-2.8-6.5-5c-0.2-0.9,0.1-1.6,0.8-2.1c0.6-0.5,1.4-0.4,2.1-0.1
				C74.2,161.8,76.1,165.2,76,167.6z"/>
			<path d="M92,163.9c1.6,0.3,1.9,1.6,1.2,3c-1.1,2.3-2.5,4.4-3.8,6.5c-0.6,1-1.7,1.4-2.8,0.7c-1.1-0.6-1.1-1.7-0.7-2.6
				c1.2-2.3,2.6-4.6,4-6.8C90.2,164.1,90.9,163.8,92,163.9z"/>
			<path d="M103.6,177.2c-0.1,1.7-5.3,6.4-7,6.3c-1.5-0.1-2.4-1.7-1.4-3c1.6-1.8,3.4-3.5,5.3-5C102,174.5,103.7,175.6,103.6,177.2z"
				/>
			<path d="M93.6,178c-1.1,0-1.7-0.6-1.8-1.8c-0.1-1.6,2.4-5.1,3.7-5.2c1.3,0,2,0.7,2.1,2C97.8,174.6,95.1,177.9,93.6,178z"/>
			<path d="M114.7,183.6c-0.1,2.2-4.7,5.2-6.3,4.4c-1.2-0.6-1.5-1.6-0.8-2.7c1.1-1.7,2.8-2.8,4.8-3.3
				C113.8,181.6,114.5,182.6,114.7,183.6z"/>
		</g>
	</g>
</g>
</svg>
