<?xml version="1.0" encoding="utf-8"?>
<!-- Generator: Adobe Illustrator 18.0.0, SVG Export Plug-In . SVG Version: 6.00 Build 0)  -->
<!DOCTYPE svg PUBLIC "-//W3C//DTD SVG 1.1//EN" "http://www.w3.org/Graphics/SVG/1.1/DTD/svg11.dtd">
<svg version="1.1" xmlns="http://www.w3.org/2000/svg" xmlns:xlink="http://www.w3.org/1999/xlink" x="0px" y="0px"
	 viewBox="0 0 628 440" enable-background="new 0 0 628 440" xml:space="preserve">
<g id="圖層_4">
	<polygon fill="#FFFFFF" points="346,59.3 331.3,66.7 324.7,59.3 304.7,57.3 301.3,74 244,57.3 206,54 158,70.7 145.3,70 148,86 
		119.3,152.7 109.3,172 84.7,157.3 57.3,166 72,180.7 80,210 93.3,228 134.7,237.3 194,304.7 256,310.7 306.7,278.7 364.7,298.7 
		355.3,275.3 331.3,250.7 342.7,205.3 339.3,129.3 325.3,97.3 332,92.7 350.7,98 379.3,82 356,74.7 349.3,74.7 344.7,65.3 356,65.3 
			"/>
</g>
<g id="敺_x9E__xFFFD__xF880_詨_x8F__x96_蝭_x84__xFFFD__x9C__x8D__xA0_影像_3_">
	<g>
		<path d="M352,182.9c-0.2,22-4.8,44.5-14.7,65.9c-0.8,1.7-0.7,2.9,0.5,4.4c9.2,11.7,20,21,34.4,25.8c6.4,2.1,9.7,7,9.5,13.1
			c-0.2,5.5-3.9,10.1-9.1,11.7c-3.4,1-6.6,0.4-9.9-0.7c-12.4-4.2-23.2-11.1-32.7-20.1c-2.2-2.1-4.4-4.2-6.3-6.4
			c-1.4-1.7-2.1-1.4-3.4,0.2c-10.1,12.8-22.1,23.4-36.4,31.2c-36,19.6-79.1,15.6-110.9-10.3c-24.7-20.1-39.5-46.3-46.3-77
			c-9.8-44.4-3.2-86.2,22-124.4c13.5-20.5,31.5-36,54.6-44.6c35-12.9,67.5-7.2,96.9,15.2c22.5,17.1,36.4,40.2,44.8,66.9
			C349.7,149.2,352,165.2,352,182.9z M318.6,226.2c0.3-0.8,0.5-1.4,0.7-2c7.9-24.4,9.1-49.2,3.2-74.2c-5.5-23.6-16.5-44.2-35.1-60.2
			c-25.3-21.9-58.6-25-87.4-7.9c-19.8,11.8-33.1,29.3-41.6,50.4c-12.8,31.6-13.8,63.9-2.7,96.2c7.4,21.5,19.6,39.7,38.7,52.7
			c16.2,11,34,15.5,53.3,12.1c24.8-4.3,42.8-18.8,56.8-39c0.8-1.1,0.9-2,0-3.1c-3.1-4.2-6-8.5-9.7-12.1
			c-13.1-12.9-28-19.9-46.9-14.7c-6.5,1.8-12.1-1.6-14.1-7.6c-1.9-5.7,0.9-11.7,7-14.2c9.5-3.9,19.4-5.3,29.7-4.1
			c18.6,2.2,33.1,11.7,45.4,25.3C316.8,224.5,317.3,225.5,318.6,226.2z"/>
		<path d="M493.7,220.4c-4.3,0-8.5,0-12.8,0c-1.4,0-2.1,0.4-1.9,1.9c0,0.2,0,0.4,0,0.5c-0.3,3.8,0.9,5.9,4.9,7.5
			c13.5,5.6,22.8,15.7,28.2,29.2c6.5,16.3-3.2,34.4-20.5,37c-17.8,2.7-35.3,0.2-51.5-8.3c-1.8-0.9-3.4-2.1-5-3.3
			c-4.8-3.9-6-10.2-2.8-15.1c3.3-5.1,9.6-7.3,15-4.1c11.7,6.8,24.5,5.8,37.1,5.9c3.7,0,4.5-1.7,2.6-4.9c-4.2-6.9-9.4-12.3-17.9-13.9
			c-9-1.7-13.2-6.3-14.7-15.3c-1.3-7.9-1.8-15.9-1.9-23.9c-0.1-10.4,7.1-18,17.4-18.7c12.3-0.8,24.5-0.6,36.8-0.4
			c7.6,0.1,12.9,5.6,13,12.7c0.1,7-4.9,12.3-12.4,13c-1.6,0.2-3.3,0.1-4.9,0.1c-2.9,0-5.8,0-8.7,0
			C493.7,220.3,493.7,220.4,493.7,220.4z"/>
	</g>
	<g>
		<path fill="#85A48C" d="M339,182.9c-0.2,22-4.8,44.5-14.7,65.9c-0.8,1.7-0.7,2.9,0.5,4.4c9.2,11.7,20,21,34.4,25.8
			c6.4,2.1,9.7,7,9.5,13.1c-0.2,5.5-3.9,10.1-9.1,11.7c-3.4,1-6.6,0.4-9.9-0.7c-12.4-4.2-23.2-11.1-32.7-20.1
			c-2.2-2.1-4.4-4.2-6.3-6.4c-1.4-1.7-2.1-1.4-3.4,0.2c-10.1,12.8-22.1,23.4-36.4,31.2c-36,19.6-79.1,15.6-110.9-10.3
			c-24.7-20.1-39.5-46.3-46.3-77c-9.8-44.4-3.2-86.2,22-124.4c13.5-20.5,31.5-36,54.6-44.6c35-12.9,67.5-7.2,96.9,15.2
			c22.5,17.1,36.4,40.2,44.8,66.9C336.7,149.2,339,165.2,339,182.9z M305.6,226.2c0.3-0.8,0.5-1.4,0.7-2c7.9-24.4,9.1-49.2,3.2-74.2
			c-5.5-23.6-16.5-44.2-35.1-60.2c-25.3-21.9-58.6-25-87.4-7.9c-19.8,11.8-33.1,29.3-41.6,50.4c-12.8,31.6-13.8,63.9-2.7,96.2
			c7.4,21.5,19.6,39.7,38.7,52.7c16.2,11,34,15.5,53.3,12.1c24.8-4.3,42.8-18.8,56.8-39c0.8-1.1,0.9-2,0-3.1
			c-3.1-4.2-6-8.5-9.7-12.1c-13.1-12.9-28-19.9-46.9-14.7c-6.5,1.8-12.1-1.6-14.1-7.6c-1.9-5.7,0.9-11.7,7-14.2
			c9.5-3.9,19.4-5.3,29.7-4.1c18.6,2.2,33.1,11.7,45.4,25.3C303.8,224.5,304.3,225.5,305.6,226.2z"/>
		<path fill="#85A48C" d="M480.7,220.4c-4.3,0-8.5,0-12.8,0c-1.4,0-2.1,0.4-1.9,1.9c0,0.2,0,0.4,0,0.5c-0.3,3.8,0.9,5.9,4.9,7.5
			c13.5,5.6,22.8,15.7,28.2,29.2c6.5,16.3-3.2,34.4-20.5,37c-17.8,2.7-35.3,0.2-51.5-8.3c-1.8-0.9-3.4-2.1-5-3.3
			c-4.8-3.9-6-10.2-2.8-15.1c3.3-5.1,9.6-7.3,15-4.1c11.7,6.8,24.5,5.8,37.1,5.9c3.7,0,4.5-1.7,2.6-4.9c-4.2-6.9-9.4-12.3-17.9-13.9
			c-9-1.7-13.2-6.3-14.7-15.3c-1.3-7.9-1.8-15.9-1.9-23.9c-0.1-10.4,7.1-18,17.4-18.7c12.3-0.8,24.5-0.6,36.8-0.4
			c7.6,0.1,12.9,5.6,13,12.7c0.1,7-4.9,12.3-12.4,13c-1.6,0.2-3.3,0.1-4.9,0.1c-2.9,0-5.8,0-8.7,0
			C480.7,220.3,480.7,220.4,480.7,220.4z"/>
	</g>
</g>
<g id="圖層_3">
	<polygon fill="#FFFFFF" points="374.7,136 378.7,185.3 398.7,192 385.3,214.7 397.3,216 413.3,212 417.3,211.3 428,198.7 
		453.3,192.7 473.3,152 460,160.7 449.3,163.3 439.3,157.3 431.3,150.7 414.7,162 398.7,154.7 	"/>
	<polygon fill="#FFFFFF" points="266.7,273.3 280.7,270 290,278 298,274.7 306.7,278.7 316,280 328.7,281.3 320.7,270.7 
		355.3,275.3 356,270 323.3,257.3 286.7,248.7 	"/>
	<polygon fill="#FFFFFF" points="92.7,161.3 109.3,172 153.3,165.3 173.3,160 146,202.7 145.3,238.7 114,231.3 	"/>
	<polygon fill="#FFFFFF" points="170.7,66.7 167.3,77.3 145.3,70 148,86 160.7,92.7 175.3,106.7 180.7,112.7 185.3,107.3 186,96.7 
		203.3,92.7 210.7,63.3 198,73.3 183.3,73.3 	"/>
</g>
<g id="Birds_xA0_影像_1_">
	<g>
		<g>
			<path d="M399.4,180.7c3.3-4.6,6.5-9.1,9.8-13.7c0.4-0.6,0.6-1.1-0.2-1.5c-10.5-5.1-19.3-12.5-28.2-21c1.2,4.1,3.8,6.4,6,8.9
				c1.6,1.9,1.4,3.7-0.4,5.2c-1,0.8-2,0.3-3.3,0.3c1.4,2.8,2.8,5.3,4,7.9c1.7,3.7,0.9,5.2-3.2,5.8c0.6,2.8,2.5,5.7,1,8.6
				c-1.2,2.2-4,1.7-6,3c2.5,2.2,5.8,2.2,8.8,2.8c0.8,0.2,1.6,0.2,2.4,0.4c1.1,0.3,1.7,1.1,1.5,2.3c-0.2,1.2-1,1.8-2.1,1.7
				c-4.7-0.3-9.4-0.8-13.4-3.8c-1.8-1.4-3.2-3.1-2.9-5.5c0.2-1.4-0.8-1.9-1.5-2.6c-2.1-1.9-3.5-4.2-3.7-7.1
				c-0.1-1.7,0.3-3.4,1.8-4.3c1.5-0.8,1-1.6,0.4-2.6c-1-1.8-1.9-3.7-2.2-5.8c-0.6-3.4-0.3-6.5,3-8.6c1.4-0.8,1.2-2.1,0.7-3.4
				c-1.2-3.1-2-6.2-1.9-9.6c0.1-2.4,0.4-4.7,2-6.6c0.7-0.9,0.6-1.8,0.6-2.8c0-1.9-0.1-4.1,2.2-4.7c2.3-0.6,3.2,1.3,4,2.9
				c6.9,13.2,17.3,23,30.5,29.9c0.7,0.4,1.5,0.7,2.2,1.1c2.2,1.3,3.8,0.8,5.5-1c2.4-2.6,5-5,8.5-6.1c5.3-1.7,10.1-0.7,14.2,2.9
				c1.9,1.6,3.7,3.3,5.2,5.2c1.6,2.1,3.4,2.4,5.7,1.5c7.7-2.9,15.3-6.3,22-11.2c1.3-1,2.6-2,4-2.9c1.1-0.8,2.4-0.9,3.6-0.2
				c1.3,0.8,1.7,2.4,1.1,3.3c-2.6,3.5-2.3,7.8-4,11.5c-1.5,3.5-4.7,5.7-7.7,8c-1,0.8-1.6,1.3-0.8,2.8c1.4,2.6-0.5,4.5-2.1,6.2
				c-1.4,1.4-3.4,2.4-3.4,4.9c0,0.7-0.9,1.5-1.6,2.1c-1.7,1.4-3.4,2.4-3.1,5.4c0.3,2.1-2.2,3.4-4.1,4.3c-5.8,2.9-12,4.7-18.4,5.6
				c-2.2,0.3-4.4,1.3-6.6-0.1c-1-0.6-1.2,0.5-1.5,1.1c-1.1,2-2,4.1-3.2,6c-2,3.3-4.3,6.3-7.6,8.7c1.3,1,2.5,1.8,3.5,2.8
				c0.8,0.7,1.4,0.6,2.4,0.2c1.9-1,4-1.8,6-2.6c1.2-0.5,2.7-0.6,3.3,0.9c0.6,1.5-0.4,2.4-1.6,3c-1.2,0.6-2.4,1.1-3.7,1.7
				c0.8,1.1,2,1.2,2.9,1.8c1.1,0.8,2.1,1.7,1.3,3.1c-0.7,1.3-2,1.1-3.1,0.7c-0.8-0.3-1.6-0.7-3.1-1.4c0.7,2.3,1.3,4,1.9,5.8
				c0.4,1.3,0.7,2.6-0.9,3.3c-1.6,0.7-2.6-0.4-3.1-1.8c-0.8-2.2-1.5-4.4-2.3-6.6c-2.8,2-4,5.5-7.6,6.5c0.6,1.4,2.8,2.5,1.3,4.3
				c-1.4,1.6-2.8,0.2-4.4-0.7c0.3,1.5,0.5,2.5,0.7,3.5c0.2,1.3-0.2,2.4-1.6,2.8c-1.4,0.3-2.2-0.5-2.6-1.8c-0.3-1.1-0.5-2.2-0.8-3.4
				c-1.1,0.1-1.1,1.2-1.7,1.7c-1,0.9-2.1,1.2-3.2,0.4c-1.1-0.8-0.9-1.9-0.4-2.9c0.1-0.2,0.2-0.5,0.4-0.7c3.8-3.3,3.7-7.1,1.5-11.3
				c-1.1-2.2-1.5-4.8-2.2-7.4c-1.1,0.9-2.2,1.7-3.3,2.5c-1.9,1.3-3.8,2.8-6.2,1.7c-2.3-1-1.6-3.3-1.5-5.6c-1.8,1.2-3.3,2.2-4.8,3.2
				c-0.9,0.6-1.9,1.1-3,1.1c-1.3,0-2.6,0.2-3.3-1.3c-0.6-1.3,0.1-2.3,0.9-3.2c3.9-4.3,7-9.1,9.7-14.2c3.6-6.9,6.5-14.2,10.7-20.8
				C399.3,181,399.4,180.9,399.4,180.7z M404.6,213.9c2.4-2.2,4.1-4.7,5.7-7.2c1.4-2.3,2.7-4.7,4.2-7c0.7-1.1,1.7-1.8,3-1.2
				c1.4,0.6,1.4,1.8,1.1,3c-0.2,0.9-0.7,1.7-1,2.5c-0.6,1.9-1.5,3.8-1.1,6.2c0.4-0.3,0.8-0.4,1-0.7c5.5-6.6,9.6-13.9,11.4-22.3
				c0.9-4.4,1.1-9,2.7-13.3c0.5-1.2,0.3-2.2-1.3-2.6c-2.9-0.7-5.5-2.2-7.9-4.2c-1.9-1.6-6.3-1-7.8,1c-4.3,5.9-8.9,11.7-12.8,17.9
				c-4.2,6.7-6.6,14.4-10.7,21.1c-0.3,0.5-1.1,1.1-0.6,2c0.4-0.3,0.8-0.5,1.1-0.8c2-1.8,4-3.7,6-5.5c1-0.8,2.1-1.2,3.2-0.3
				c1.1,0.9,1,2.1,0.4,3.2c-0.5,0.9-1.1,1.7-1.6,2.5c-1.3,2.1-2.7,4.2-4.1,6.2c1.5-0.5,2.6-1.4,3.8-2.3
				C402.1,209.9,403.2,210.2,404.6,213.9z M452.5,172.6c-4.9-0.3-9-0.5-13.2,1.6c-3,1.5-4.5,3.3-5,6.4c-0.7,4.4-1.2,8.8-2.7,13
				c-0.3,0.8-1,1.5-0.4,2.6c7-0.4,13.6-2.2,20.3-4.8c-3.4-2.4-0.1-6.1-2.2-8.7c-0.3-0.4,0.7-1.3,1.5-1.7c1-0.6,2-1.2,2.5-2.3
				c-1.9-0.3-4.4,0.7-5-1.9C447.7,173.9,450.7,174.1,452.5,172.6z M411.6,228.7c0.9-0.5,2.6,0.9,3-0.7c0.5-1.9,1.7-3.2,2.9-4.5
				c0.9-1,0.5-1.5-0.4-2.2c-2.3-1.6-4.6-3.3-6.8-4.9c-0.6-0.4-1.1-0.7-1.9-0.2c-3.5,2.3-3.7,2.7-2.3,6.7c0.3,0.9,0.8,1.8,1,2.8
				C407.7,228,408.8,229.5,411.6,228.7z M429.9,154c-0.6,0-1.3,0-1.9,0c-0.9,0.1-1.5,0.6-1.6,1.5c-0.1,1.1,0.6,1.8,1.6,1.8
				c4.3-0.1,7.5,2.1,10.6,4.7c0.8,0.7,1.9,1,2.7,0.1c0.8-0.8,0.5-2-0.3-2.6C437.7,156.8,434.4,154.1,429.9,154z M432.6,162.8
				c-0.9-1.4-2.4-1.9-4-2c-1.1-0.1-2.2,0.5-1.9,1.7c0.5,2,2.5,2.2,4.1,2.5C432.1,165.3,432.3,164,432.6,162.8z M452.3,166.5
				c1.3,0.6,2,0.9,2.7,1.2c0.8,0.3,1.4,0.7,1.8,1.6c0.2,0.5,0.2,1.2,1,0.9c0.8-0.3,0.6-0.9,0.5-1.6
				C457.9,165.5,457.1,165.1,452.3,166.5z"/>
			<path d="M69.4,173.4c2.5,4.3,4,8.8,5.8,13.3c2.2,5.4,3.4,11.1,5.3,16.6c2.4,7.2,4.9,14.4,10.5,19.9c1.2,1.2,2.2,2.4,4,2.8
				c1.6,0.3,1.4,1.7,0.9,2.8c-0.2,0.4-0.6,0.6-1,0.9c-4.5,3-7.3,7.2-9,12.2c-0.6,1.6-1.6,3-3.2,2.4c-1.7-0.7-1.7-2.6-0.6-4.1
				c0.1-0.2,0.2-0.5,0.2-0.8c-1.2-0.9-1.8,0.4-2.5,0.8c-0.8,0.5-1.4,1.3-2.4,1.6c-1,0.3-1.7,0.3-2.4-0.5c-0.8-0.9-0.5-1.7,0-2.6
				c0.3-0.5,0.7-0.5,0.9-0.8c0.8-0.9,2.6-1.2,2.4-2.5c-0.2-1.1-1.8-0.9-2.8-1.3c-1.2-0.4-2-1.3-1.8-2.6c0.3-1.5,1.4-1.8,2.7-1.5
				c2.4,0.6,4.7,1.2,7,1.8c2.6,0.7,4-1.2,5.5-2.7c0.6-0.6,0-1.4-0.6-1.9c-9-8.2-11.5-19.5-14.8-30.3c-2.2-7.3-4.4-14.6-8.5-21.1
				c-2.6-4.2-6.6-6.7-11.3-8c-3.6-1-7.1-2.3-10.8-2.8c-0.7-0.1-1.7-0.3-1.7-1.4c0-0.9,0-1.7,0.9-2.4c2.1-1.6,4.3-1.7,6.6-0.8
				c5.4,2.1,10.3,1.2,15.4-1.4c6.8-3.6,14-5.7,21.9-3.4c4.6,1.4,8.2,4.5,12.2,6.9c2.2,1.4,4.3,3,6.7,4.1c4,1.9,8,1.2,12-0.5
				c10.6-4.6,21.8-5.4,33.2-4.7c6.3,0.4,12.6,0.6,18.7-1.8c1.6-0.6,2.7-2,4.5-2.3c1.2-0.2,2-0.1,2.6,0.8c0.6,0.9,0.9,1.8,0.3,3
				c-1.4,3-4,4.8-6.8,5.9c-5.9,2.3-12.1,3-18.5,2.6c-11.3-0.6-22.5,0.1-33.4,3.5c-5.5,1.7-10.5,1.1-15.3-1.8c-0.8-0.5-1.7-1-2.6-1.4
				c-0.1-0.1-0.3,0-0.7,0c1.2,3.7,3.4,6.9,4.8,10.4c0.4,1,1.2,1.4,2.2,1.1c8.4-2.2,15.2,1.6,21.9,5.8c4.4,2.7,8.3,6.1,12.1,9.6
				c5.7,5.3,12.9,7.2,20.4,7.8c2,0.2,3.9,0.2,5.9,0.4c2.2,0.2,3.9,1.2,4,3.5c0.2,2.3-1.8,2.4-3.5,2.8c-6.4,1.4-12.5,0.3-18.5-1.7
				c-1.2-0.4-1.8-0.7-2.3,0.9c-0.5,1.4-2.2,1.6-3.5,1.6c-4-0.1-7.7-1-11.2-3c-1.1-0.7-2-1.8-1.4-3.1c0.6-1.3,2-1.3,3.3-0.6
				c2.7,1.3,5.4,2.7,8.9,2.1c-8.2-4.9-14.7-11.9-23.4-15.7c-2.6-1.1-5.5-1.5-8.3-1.7c-0.9-0.1-2.9-0.2-1.8,2
				c7.4,14.8,16.7,28.3,29.2,39.4c1.8,1.6,3.8,2.8,5.8,3.9c1.2,0.7,1.7,1.6,1.2,2.9c-0.5,1.4-2,1.7-2.9,1.2c-3-1.8-6.4-1.4-9.5-2
				c-1.9-0.4-3.9-0.5-5.7-1.4c-1.8-0.9-3.7-1.4-5.8-0.4c-1.9,0.9-3.6-0.8-5.4-1.1c-0.3-0.1-0.6-0.3-1-0.5c-4.4-1.9-4.2-1.7-7.4,2
				c-2.4,2.7-3,5.5-2.8,8.9c0.1,0.9,0,1.8-0.1,2.7c0,1.4-0.6,2.6-2.2,2.6c-1.4,0-1.9-1.1-2.1-2.3c-0.1-0.5,0.2-1.2-0.4-1.4
				c-0.6-0.2-0.9,0.3-1.3,0.8c-1.3,1.5-2.8,4-4.9,2.1c-2-1.8,0.6-3.4,1.7-4.9c0.1-0.2,0.3-0.4,0.4-0.7c-1.2-0.3-2.4-0.6-3.6-0.9
				c-1.4-0.3-2-1.3-1.6-2.6c0.4-1.3,1.4-1.8,2.7-1.4c1.2,0.4,2.4,0.5,3.7,0.2c1.1-0.2,2.3,0.4,3.2-0.7c2.2-2.5,4.4-5,6-7.9
				c0.4-0.7-0.7-1.5-1.4-2c-3.8-2.8-7.1-6-9-10.4c-0.5-1.2-1.2-2.5,0.7-3.4c2-0.9,2.3,0.5,3,1.7c3.1,5.4,7.6,9.2,13.9,12.2
				c-2.4-3.3-4.3-6-5.3-9.2c-0.5-1.6,0-2.3,1.2-3c1.6-0.8,1.9,0.6,2.3,1.5c3.2,7.5,9.1,11.7,16.6,14c0.5,0.2,1,0.3,1.6,0.4
				c0.4,0.1,1.1,0.1,1.3-0.1c0.4-0.6-0.2-0.9-0.6-1.3c-3.2-3.6-6.6-7-9.5-10.9c-6.4-8.5-12.4-17.2-16.5-27.1c-1-2.5-3.7-3.6-5.9-4.7
				c-0.9-0.5-2-0.8-2.8-1.5c-4.2-3.8-9.3-6.1-14.5-8C77.1,177,73.2,175.4,69.4,173.4z M74.9,160.4c5.5,1,10.4,3.8,16,5.7
				C88,161.5,81.1,159.1,74.9,160.4z M77.4,167.7c1.3,0.3,1.9-0.8,1.7-1.7c-0.3-1.6-1.9-2-3.3-2.2c-1.2-0.1-1.5,1-1.4,1.8
				C74.6,167.2,75.8,167.8,77.4,167.7z"/>
			<path d="M277.9,268.4c0,2.7-1.6,4.3-3.9,5.4c-6.3,2.9-12.7,4.5-19.4,1.2c-1.1-0.6-1.7,0.2-2.4,0.7c-2.5,2.1-5,4.2-7.6,6.2
				c-4.3,3.3-6.3,2.6-7.4-2.9c-2.7,2.4-5.3,4.8-7.9,7.1c-2.3,2-4.6,3.8-7.3,5.2c-1.9,1-4,1.8-5.8,0.1c-1.8-1.6-1.2-3.7-0.5-5.6
				c0.6-1.7,1.4-3.3,2.3-5.5c-2.4,1.3-4.3,2.3-6.2,3.3c-1.6,0.8-3.2,1.6-5.1,2c-4.6,0.9-6.7-0.7-7.4-5.7c-1.2,0.1-2.2,0.9-3.2,1.3
				c-1.7,0.8-3.4,1.7-5.3,2c-1.5,0.3-3.2,0.5-4.2-1.1c-1-1.5-0.5-3,0.5-4.3c1.4-1.9,2.8-3.8,4.4-5.6c2-2.2,4.3-4.2,6.5-6.2
				c1.2-1.1,3.1-1.9,3.6-3.2c0.7-1.6-1.9-1.9-2.5-3.3c-0.8-1.6-1.5-3.3-0.3-4.9c1.1-1.5,2.7-1.2,4.2-0.6c7.9,3.2,15.9,2.6,23.7,0
				c4.6-1.5,9-3.5,13.4-5.3c4.8-2,9.7-3.7,15-3.5c0.7,0,1.2-0.1,1.7-0.6c4.5-4.2,10-4.3,15.6-3.8c1.6,0.2,3.5,0.5,4.2,2.5
				c0.3,0.8,0.9,0.7,1.6,0.6c7.3-0.6,14.2,1.1,20.5,4.5c11.1,6.1,22.5,7,34.6,4.2c1.9-0.4,4.5-1.3,5.5,1.4c1,2.7-1.2,4.1-3.1,5.3
				c-1,0.7-2.2,1.1-3.7,1.9c5.2,2.6,10.3,3.8,15.6,4.3c3.9,0.4,7.8,0.6,11.7,1c2.1,0.2,3.9,1.2,4.2,3.6c0.2,2.6-1.4,4.1-3.6,4.9
				c-6.1,2.3-12.4,2.6-18.8,2.2c-3.7-0.2-7.3-0.5-11-0.7c0,1.1,0.7,1.6,1.1,2.3c0.7,1.2,1.2,2.5,0.4,3.9c-0.9,1.5-2.4,1.6-3.8,1.4
				c-4.1-0.6-8.1-1.3-11.8-3.1c-0.8-0.4-1.6-0.7-2.7-1.2c-0.2,1.5,0,3.1-1.6,3.8c-1.7,0.8-3.2,0-4.7-0.7c-3.6-1.7-7-3.8-10.1-6.3
				c-3.2,4.4-5.4,4.7-9.9,1.9C282.8,276.1,280.2,272.4,277.9,268.4c-0.2-0.7-0.4-1.6-0.3-2.3c0.2-1.4,1.2-2,2.5-1.9
				c1.3,0,2.2,0.6,2.3,1.8c0.5,4.8,4,7,7.5,9.4c0.5,0.3,1.1,0.8,1.7,0.3c0.6-0.5,0.3-1.2,0.1-1.8c-0.5-1.3-1.1-2.5-1.6-3.8
				c-0.5-1.2-0.2-2.2,0.9-2.9c0.9-0.6,2-0.4,2.8,0.4c0.6,0.5,1.1,1.2,1.7,1.8c2.3,2.6,5,4.6,8.1,6.3c-0.4-0.9-0.9-1.7-1.4-2.4
				c-1-1.4-2.6-2.9-1-4.6c1.7-1.8,3.5-0.5,5.1,0.6c2.5,1.8,4.9,3.8,7.5,5.5c3.2,2.1,6.6,3.6,10.9,4.2c-1.7-2.5-3.9-3.9-5.6-5.7
				c-1-0.9-1.7-2-0.9-3.4c0.9-1.4,2.2-1.4,3.6-0.9c1.8,0.7,3.5,1.6,5.3,2.1c7.8,2.1,15.8,2,23.8,1.5c1.7-0.1,3.7-0.1,5.6-1.7
				c-1.2-0.1-1.9-0.3-2.6-0.2c-11.3,0.2-21.7-2.9-31.3-8.7c-0.8-0.5-1.6-0.8-2.6-0.8c-8-0.5-15.3-3.2-22.5-6.7
				c-6.7-3.2-13.9-5.1-21.4-2c0.5,1.6,2.5,3.3,0.1,4.6c-1.9,1-2.9-0.7-3.8-2.1c-0.3-0.4-0.5-1.3-1.1-0.9c-0.8,0.4-1.3,1.2-1.2,2.3
				c0.1,2.7-0.9,5.2-1.6,7.7c-0.4,1.4-1.1,2.7-2.8,2.9c-1.7,0.2-2.7-0.8-3.6-2c-1.3-2-1.9-4.3-2.5-6.6c-0.2-0.6-0.1-1.8-1.1-1.4
				c-1.2,0.4-2.2,0.8-3.2-0.3c-0.9-1.1,0.1-2.2,0.2-3.5c-1.3,0.4-2.2,0.7-3.1,1c-9.1,3.6-18.6,6.2-28,9.1c-4.3,1.3-8.6,1.4-12.9,0.6
				c-1.7-0.3-3-0.1-4.4,0.8c-4.5,3.2-8.7,6.8-12.4,11c-0.3,0.3-0.9,0.7-0.4,1.4c5.7-3,11.6-5.7,16.8-9.5c1.3-0.9,2.5-1.9,3.8-0.4
				c1.2,1.4,0.2,2.8-0.8,3.8c-1.7,1.8-4,2.9-6.1,4.1c-1.2,0.7-2.3,1.5-2.8,2.8c-0.4,1.1-1.6,2.2-0.6,3.2c0.9,0.9,2.1,0,3-0.5
				c4.6-2,8.8-4.7,13.1-7.2c1.7-1,3.4-2,5.2-3c1.1-0.6,2.1-0.4,2.9,0.5c0.8,0.9,0.7,1.9,0,2.8c-0.9,1.3-2,2.6-3,3.9
				c-2,2.6-3.9,5.3-5.2,9.1c1.3-0.9,2.1-1.3,2.8-1.9c6-4.4,11-9.8,16-15.1c1.1-1.2,2.4-2.2,4-1.2c1.6,1,1.3,2.6,0.7,4.2
				c-0.5,1.3-1.3,2.5-1,4.4c1.2-1,2.2-1.8,3.2-2.6c2.7-2.2,5.3-4.4,8-6.6c0.9-0.7,1.9-1.1,3-0.4c1,0.6,1.2,1.7,0.7,2.7
				c-0.9,1.9,0.7,1.7,1.6,1.9c5,1,9.6-0.6,13.7-3.2C274.9,268,276.2,267.8,277.9,268.4z"/>
			<path d="M167.8,100.5c-1.2,0-2.4,0-3.5,0c-0.9-0.1-2.2-0.4-2.2-1.2c-0.1-3-2.3-2.4-4.1-2.7c-1.9-0.4-3.8-0.6-5.5-1.5
				c-1.9-1-3.4-2.3-2.3-4.7c0.5-1.2-0.3-1.3-0.9-1.8c-3.6-2.2-4-3.7-1.8-7.3c0.1-0.2,0.3-0.4,0.5-0.6c-2.2-1.6-1.3-4.9-3.4-6.5
				c-1.1-0.8-2.3-1.4-3.1-2.6c-0.8-1.1-1-2.4-0.2-3.6c0.8-1.3,2.1-1.3,3.4-0.8c2.9,1.1,5.8,2.1,8.6,3.3c4.1,1.6,8.3,2.7,12.7,2.5
				c1-0.1,2.1,0.2,2.4-1.2c0.3-1.6-1.1-1.6-2.1-1.9c-1-0.3-2.1-0.5-3.1-0.9c-1.4-0.5-2.1-1.4-2-2.9c0.2-1.5,1.3-1.8,2.6-2
				c0.6-0.1,1.3-0.1,1.9,0c2,0.2,3.5-0.3,5-1.9c3.2-3.4,7.4-2.6,9.7,1.5c0.7,1.3,1.7,2.7,1.9,4.2c0.4,2.9,2,3.5,4.5,3.4
				c8.6-0.3,15.9-3.5,21.8-9.7c0.7-0.7,1.4-1.4,2.1-2.1c1-1,2.2-1.4,3.4-0.5c1.2,0.9,1.4,2.2,0.6,3.4c-1.1,1.6-1.5,3.2-1,5.1
				c0.1,0.3,0,0.5,0,0.8c0,2.2-2.7,3.5-2.6,5.1c0.2,1.9,1.4,3.6,0.2,5.6c-0.2,0.3-0.4,0.8-0.2,1c2.2,3.5-0.6,5.3-2.5,7.4
				c-1.1,1.1-2.1,1.8-1.7,3.8c0.5,2.1-1.4,3.4-3.1,4.4c-3.5,2.1-7.4,3-11.4,3.4c-2.1,0.2-3,0.9-2.9,3.2c0.2,3.1-0.3,6.2-1,9.2
				c-0.3,1.4-1,2.3-2.6,2.3c-0.5,0-1.2-0.2-1.3,0.6c-0.5,2.6-3.3,2.3-4.7,3.8c-0.3,0.3-1.4,0.2-1.5,0.1c-0.9-2.1-3.7-2.6-4.1-4.9
				c-0.3-1.7-0.8-2.2-2.2-0.7c-0.8,0.8-1.7,1.5-2.9,0.9c-1.3-0.6-1.2-1.7-0.8-2.8c0.4-1-0.4-1-1-1.2c-0.9-0.5-1.3-1.3-1-2.3
				c0.3-1,1-1.5,2-1.5c0.9-0.1,1.8-0.1,2.7-0.2c1.4-0.1,3.3-0.1,3-1.8c-0.2-1.4-1.5-2.9-3.4-2.9
				C169.8,100.5,168.8,100.5,167.8,100.5C167.8,100.6,167.8,100.5,167.8,100.5z M177.7,109.8c1.6-0.6,1.7-2,2.3-3
				c0.6-1,1.3-2.4,2.6-1.9c2.4,0.8,2.3-0.8,2.3-2.2c0.1-1.8,0.4-3.6-0.7-5.3c-0.6-1-0.6-2.1,0-3.1c0.5-0.8,0.5-1.5,0.4-2.3
				c-0.5-6.6-2.4-12.8-5.2-18.7c-1.1-2.3-2.6-2-4.3-2.1c-1.9-0.1-2.2,1.2-2.6,2.5c-0.5,1.4-1,2.7-1.4,4.1c-2,7-1.3,13.5,3.7,19.1
				c1.5,1.6,3,3.2,4.4,4.8c1.2,1.3,1.6,3-0.2,3.9C177.2,106.5,177.2,107.7,177.7,109.8z M203.9,78.6c-1.5,0.3-2.5,0.5-3.4,0.6
				c-1.3,0.1-2.7,0.2-3.2-1.4c-0.5-1.7,0.6-2.5,1.9-3.1c0.7-0.3,1.5-0.6,2.2-1c0.7-0.4,1.6-0.5,2.1-1.5c-5.5,1.9-10.8,3.7-16.5,3.8
				c-1.8,0-1,1.2-0.7,1.9c1.5,4.1,2.4,8.4,2.8,12.7c0.5,4.4,0.6,4.4,5,3.4c0.2,0,0.4,0,0.5-0.1c0.6-0.2,1.2-0.3,0.7-1.3
				c-1.2-2.4,0.4-3.3,2.2-3.9c2.4-0.9,4.9-1.7,6.9-3.9c-1.3-0.3-1.9,0.4-2.8,0.7c-1.5,0.5-3,0.7-3.7-1.1c-0.7-1.6,0.4-2.6,1.7-3.3
				C200.9,80.4,202.3,80.2,203.9,78.6z M150.3,84.5c1.4,0.4,2.1,0.7,2.9,0.9c2.5,0.4,5,0.8,7.5,1.2c1.2,0.2,2.3,0.9,2.2,2.3
				c-0.1,1.4-1.1,1.9-2.3,2.3c-0.8,0.2-1.7-0.2-2.8,0.6c3,0.9,5.9,0.5,9,1.1c-1.4-4.5-1.7-8.6-0.9-12.8c0.2-0.9,0.3-1.9-1.1-1.9
				c-4.5-0.2-9-0.9-14.1-1.8c2.1,1.7,4.1,1.8,5.8,2.4c1.2,0.4,2.1,1.2,1.8,2.6c-0.3,1.4-1.5,2-2.7,1.5
				C153.6,82.2,152.4,83.3,150.3,84.5z"/>
			<path d="M323.6,81.1c-3-0.4-5.8-0.6-6.7-4c-0.2-0.8-1.1-0.4-1.7-0.3c-1.8,0.3-3.6,0.1-5.4-0.4c-1.2-0.4-2.5-1.1-2.5-2.3
				c0.1-2.7-1.7-2.6-3.4-3c-4.3-0.9-5.4-3.4-3.4-7.4c1.3-2.6-0.9-4.4-1.9-6.3c-0.6-1.1-1.6-2-0.8-3.3c0.8-1.3,2.2-1.3,3.4-0.9
				c4.1,1.4,8.4,1.5,12.7,1.4c4-0.1,8,0.1,12,0.6c4.1,0.5,7,2.8,9.1,6.2c0.8,1.3,1.5,1.5,2.7,0.7c1.7-1.1,3.5-1.9,5.2-2.9
				c3.3-1.8,6.6-1.7,9.8,0.2c3.9,2.4,7.5,5.2,11.9,6.5c1.2,0.3,1.7,1.3,1.5,2.6c-0.2,1.3-1.2,1.8-2.4,1.8c-1.4-0.1-2.9-0.3-4.3-0.7
				c-4.3-1.1-8.5-1.7-12.9-1.4c-1.8,0.2-3.8,0.1-5.2-1.2c-1.5-1.4-2.5-0.8-3.7,0.2c-3.4,2.7-5.3,6.4-7.3,10.2
				c-3.6,6.8-5.1,15-11.9,19.8c-0.7,0.5-1.2,1-0.2,1.6c0.9,0.5,1.5,2.3,2.9,0.7c0.6-0.7,1-1.5,1.6-2.2c0.7-0.7,1.6-0.9,2.5-0.4
				c0.9,0.5,1.2,1.5,0.7,2.4c-1,1.9-2.1,3.8-3.3,5.6c-0.7,1-1.9,1.1-3,0.5c-3.1-1.8-5.9-3.9-8.4-6.4c-1.4-1.5-1-3.3,0.9-3.9
				C319.2,93,320.7,86.7,323.6,81.1z M321.6,76.3c2.5,0.5,4.3,0.3,5.3-2.4c0.8-2,2.1-3.8,3.4-5.5c0.5-0.7,1-1.2,0.2-2.1
				c-4.2-4.9-9.2-7.9-15.9-6.9c-0.9,0.1-1.5,0.1-1,1.4c0.6,2-0.7,2.9-2.4,3.1c-1.4,0.2-2.9-0.1-4.3,0.1c-1.3,0.2-2.6,1.1-2.6,2.3
				c0,1.1,1.6,0.8,2.5,0.9c2.8,0.2,5.6-0.2,8.4-0.5c1.4-0.2,2.9-0.1,3,1.8c0.1,1.8-1.2,2.2-2.7,2.5c-1.1,0.2-2.4-0.2-3,1.5
				c0.4,0.1,0.7,0.2,1,0.2c1.8,0,3.5-0.7,5.3-1c2.9-0.5,3.9,0.7,3,3.5C321.9,75.5,321.8,75.8,321.6,76.3z M349.9,63
				c-0.2-0.8-0.7-1.3-1.7-1.2c-0.9,0.1-1.3,0.7-1.2,1.5c0,0.8,0.5,1.4,1.4,1.4C349.3,64.6,349.8,64.1,349.9,63z"/>
			<path d="M331.6,96.9c-0.6,1.7-0.2,2.6,1.2,3.2c0.7,0.3,1.5,0.7,2.1,1.2c0.9,0.7,1.1,1.7,0.6,2.7c-0.3,0.7-6.2,2.6-6.8,2.3
				c-1.1-0.5-1.9-1.4-1.7-2.6c0.8-3.7-0.3-7.4-0.3-11.1c0-2.6,1.2-3.8,3.3-4.6c2.6-0.9,4.5-2.5,5-5.4c0.1-0.7,0.5-1.4,1.1-1.4
				c3.3-0.3,4.4-3.1,6-5.4c0.3-0.4,0.5-1,0.8-1c3.6-0.3,5.6-4.2,9.7-3.8c3.6,0.3,7.3,0.2,10.7,1.7c6.1,2.7,12.1,5.4,18.7,6.7
				c1.1,0.2,2,0.9,2.1,2.2c0.1,1.3-0.7,2.2-1.8,2.4c-1.9,0.2-3.1,1.2-4.4,2.4c-0.5,0.5-1.2,0.9-1.9,1.1c-2.6,0.7-4.6,2.7-6.8,3.6
				c-4,1.6-7.4,4.1-11.4,5.4c-1.3,0.4-2.7,0.4-4.2,0.6c0.1,1.1,1.2,2.3-0.1,3.4c-1.3,1-2.6,0.4-3.9,0c-3.9-1.4-7.8-2.7-12.4-4.3
				c1.4,1.7,2.6,2.5,3.9,3.1c2.4,1,2.3,2.8,1.7,4.8c-0.6,1.7-2.4,2.1-3.3,0.6C337.6,101.1,333.9,99.9,331.6,96.9z M365.7,88.2
				c-1.8-0.8-3.1-1.2-4.2-1.8c-1.2-0.5-1.5-1.5-1.2-2.7c0.4-1.2,1.4-1.4,2.4-1.2c1.2,0.2,2.2,0.7,3.4,1c2.4,0.6,4.8,1.3,7.5,0
				c-6.2-3.4-12.5-5.3-19.5-4.9c-1.8,0.1-3.6,0.2-4.7-1.9c-0.7-1.3-2.8-0.8-3.3,0.7c-0.7,1.8-1.8,3.5-3.2,4.6
				c-3.1,2.5-5.6,5.4-8,8.9c3.5,0.7,6.7,1.9,9.9,3.1c0.3,0.1,0.5,0.2,0.8,0.3c0.7,0.3,1.2,0.1,1.4-0.7c0.6-2,2.2-1.8,3.8-1.5
				c2.4,0.5,4.8,0.6,7.3-0.1c-0.3-0.4-0.4-0.6-0.6-0.7c-1.4-0.9-3.1-1.8-1.9-3.8c1.1-1.9,2.7-0.6,4.1-0.1
				C361.3,88,363,88.8,365.7,88.2z"/>
			<path d="M150.3,178.9c-1.2,0-2-0.7-2.1-1.5c-0.1-0.7-0.2-1.7,1-2.2c2.7-1.3,5.4-2.2,8.4-2.4c4.1-0.3,8.2-0.6,11.7-3.3
				c0.8-0.6,2-0.6,2.8,0.5c0.8,1.1,0.2,2.1-0.4,2.9c-1.2,1.7-3.3,2.2-5.1,2.8C161.3,177.4,155.4,176.4,150.3,178.9z"/>
			<path d="M273.8,284.4c0,0.9-0.3,1.6-1.2,1.9c-0.9,0.3-1.6,0-2.2-0.6c-2.3-2.2-4-2.1-6.1,0.4c-0.4,0.4-0.7,0.8-1.1,1.2
				c-0.8,0.7-1.7,1.1-2.7,0.4c-1-0.7-1.1-1.7-0.6-2.7c0.7-1,0.4-1.8-0.2-2.7c-0.5-0.7-0.5-1.6,0.1-2.3c0.7-0.8,1.6-1,2.5-0.5
				c3.2,1.7,6,0.4,8.7-1.2c1.1-0.6,2.2-1.1,3.2-0.2c1,1,0.7,2.2-0.2,3.2C272.9,282.4,273.8,283.4,273.8,284.4z"/>
			<path d="M144.6,225.1c-2.1,0.4-4.1,0-6.1-0.3c-1.5-0.2-2.2-1.2-1.9-2.7c0.3-1.5,1.3-1.7,2.6-1.5c5,0.7,10,0.7,14.4-2.3
				c0.9-0.6,2.2-0.6,2.8,0.5c0.8,1.4,0.3,2.7-0.9,3.5c-2.5,1.7-5.3,2.3-8.3,2.7C146.3,225.2,145.4,225.1,144.6,225.1z"/>
			<path d="M157.7,196c-1.6,0.3-2.7-0.1-3.8-0.2c-1.9-0.1-2.2-1.4-2.2-2.7c0.1-1.4,1.5-1.6,2.5-1.4c4.3,0.6,8-0.3,11.2-3.5
				c0.6-0.6,1.8-1.4,2.8,0c1.1,1.7,0.5,3.2-0.8,4.3c-1.8,1.5-3.9,2.5-6.2,3C160,195.7,158.7,196.1,157.7,196z"/>
			<path d="M154.7,188.1c-1.2-0.2-2.6-0.7-2.6-2.1c0-1.2,1.1-2,2.4-2.2c2.4-0.3,4.8-0.3,7.1-1.2c1-0.4,2-0.6,2.5-1.7
				c0.7-1.4,1.9-1.8,3.1-0.8c1.2,1,1.3,2.2,0.5,3.6c-1.3,2.1-3.6,2.7-5.7,3.3C159.7,187.6,157.2,187.7,154.7,188.1z"/>
			<path d="M136.5,213.2c1.4,0.3,2.8,0.8,4.2,1c2.1,0.3,4.3,0.6,6.4,0c1.3-0.4,2.5,0.2,2.8,1.4c0.4,1.3-0.4,2.3-1.7,2.7
				c-4.4,1.1-8.7,0.6-12.8-1.3c-0.9-0.4-1.6-1.1-1.2-2.4C134.6,213.3,135.6,213.3,136.5,213.2z"/>
			<path d="M392.7,164.8c0.1-1,0.4-1.8,1.4-2.1c1-0.3,1.9,0.1,2.3,1c1.1,2.4,2.6,4.3,4.1,6.4c0.6,0.8,0.9,1.9,0.1,2.8
				c-0.7,0.8-1.6,0.8-2.5,0.4C396.4,172.6,392.6,166.7,392.7,164.8z"/>
			<path d="M334.6,79c-1.6,0-2.6-1.4-1.8-2.8c0.9-1.6,2.2-3.1,3.7-4.2c1-0.7,2.3-0.9,3.2,0.1c1,1.1,0.5,2.2-0.5,3
				C337.7,76.4,336.8,78.6,334.6,79z"/>
			<path d="M399.4,180.7c-0.1,0.1-0.1,0.2-0.2,0.4c-2.4,0.1-6.1-2.8-6.5-5c-0.2-0.9,0.1-1.6,0.8-2.1c0.6-0.5,1.4-0.4,2.1-0.1
				C397.7,174.9,399.6,178.3,399.4,180.7z"/>
			<path d="M416.9,179.3c-1.2,2.5-2.5,5.5-4.8,7.8c-0.5,0.5-1.3,0.5-2,0.1c-0.7-0.4-1.1-1.1-0.9-1.8c0.9-3.1,2.6-5.7,4.7-8.1
				c0.5-0.6,1.3-0.5,2-0.2C416.6,177.4,417,178.1,416.9,179.3z"/>
			<path d="M420.2,196.6c-1.7-0.1-2.5-1.8-1.3-3.1c1.5-1.8,3.3-3.4,5.2-4.8c1.4-1,3.1,0,3.1,1.6
				C427.1,191.9,421.9,196.7,420.2,196.6z"/>
			<path d="M417.1,191.1c-1,0-1.7-0.5-1.8-1.7c-0.2-1.6,2.3-5.1,3.6-5.2c1.3-0.1,2,0.7,2.2,1.9C421.3,187.6,418.7,191,417.1,191.1z"
				/>
			<path d="M446.2,185.5c-0.1,0.9-0.5,1.6-1.2,2.1c-1.7,1.1-3.3,2.2-5.1,3.2c-1,0.6-2.2,0.5-2.8-0.7c-0.5-1-0.3-2,0.6-2.7
				c1.8-1.3,3.7-2.7,5.7-3.7C444.8,182.9,446.3,184,446.2,185.5z"/>
			<path d="M442.4,178c1.3,0,2.3,0.4,2.3,2c0,1.1-2.8,3.4-4.4,3.5c-1.3,0.1-2.1-0.5-2.2-1.8C438.1,180.1,440.5,178,442.4,178z"/>
			<path d="M177.4,91.1c0.2-1.3-0.7-3.9,2-3.9c2.8,0,1.9,2.7,2.1,4.4c0.1,0.6-0.1,1.3-0.2,1.9c-0.2,1.2-0.9,2-2.2,1.8
				c-1.1-0.1-1.7-0.9-1.7-2.1C177.4,92.7,177.4,92.1,177.4,91.1z"/>
			<path d="M177,86.4c0,1.6-0.3,2.8-1.8,2.6c-2.3-0.3-2.6-2.2-2.6-4.1c0-1.5-0.2-3.6,2-3.3C177.5,82,176,85,177,86.4z"/>
		</g>
	</g>
</g>
</svg>
