<?xml version="1.0" encoding="utf-8"?>
<!-- Generator: Adobe Illustrator 18.0.0, SVG Export Plug-In . SVG Version: 6.00 Build 0)  -->
<!DOCTYPE svg PUBLIC "-//W3C//DTD SVG 1.1//EN" "http://www.w3.org/Graphics/SVG/1.1/DTD/svg11.dtd">
<svg version="1.1" xmlns="http://www.w3.org/2000/svg" xmlns:xlink="http://www.w3.org/1999/xlink" x="0px" y="0px"
	 viewBox="0 0 218 209.3" enable-background="new 0 0 218 209.3" xml:space="preserve">
<g id="_xFFFD__x83__x8C__xFFFD__x99__xA0_影像_1_">
</g>
<g id="Color_xA0_影像_1_">
	<g>
		<path fill="#B7CBCE" d="M116.9,16.6c0-0.2,0-0.3,0-0.5c2,0,4,0,6,0c0,0.2,0,0.3,0,0.5C120.9,17.9,118.9,17.9,116.9,16.6z"/>
		<path fill="#B7CBCE" d="M107.7,180.4c-0.4,2.1-1.2,3.6-3.4,3.1c-2.3-0.4-2.2-2.3-2.3-4.1c-0.1-1.6,0.2-3.5-0.4-4.8
			c-0.6-1.3,1.9-4.1-1.8-3.8c-1.6,0.1-3.1-1.6-4.7,0.2c-0.5,0.6-1.7,0.6-2.5,1c-2.2,0.9-4-0.1-4.3-2.5c-0.4-4.2-0.7-8.5-0.9-12.8
			c0-0.7,0.1-1.5,0.5-2.1c1.2-1.9,0.5-2.4-1.4-2.2c-6.2,0.5-12.5,0.7-18.7,1.8c-1.4,0.2-2.6,0.4-4,0.1c-2.2-0.4-3.9,0.5-5.2,2.5
			c-4.5,6.7-8.3,13.9-12.3,20.9c-1.1,1.9-2.2,3.8-4,5.1c-1,0.7-0.7,1.6-0.9,2.4c-0.3,1.5-1.4,2.4-2.9,2.4c-1.5,0-2.4-1.1-2.6-2.7
			c-0.7-4.4-0.7-4.6-4.9-4.6c-1.3,0-1.4-0.2-1.6-1.3c-1.3-11.4-1.2-22.8-0.7-34.3c0.1-2.5,0.2-5.1,0.2-7.6c0-1.3,0.5-2.2,1.8-2.2
			c3.7,0,7.4-0.9,11.1-0.7c2.2,0.1,3.1,1.1,3.1,3.2c-0.1,3.1-0.1,6.2-0.1,9.3c0,4.1-1,3.7,0.1,7.7c0.7,2.5,0.2,9.1,0.6,12
			c1.1,0,1.2-0.7,1.5-1.2c4.1-7,8.9-13.5,13.3-20.3c0.9-1.5,2.3-2,3.9-2c3.9,0,7.8-0.2,11.7,0c2.2,0.1,2.9-0.6,2.7-2.8
			c-0.9-14.5-0.4-29.1-0.4-43.6c0-1,0.1-2,0.3-3c0.3-1.7,1.3-2.6,3-2.5c4.7-0.4,10.3-1,15.4-0.6c0.4,0,0.9-0.2,1.2-0.4
			c0.5-0.3,0.7-1.5,1.6-0.6c0.8,0.8,1.2,2.2,0.5,2.7c-3,2.1-2.1,5.3-2.3,7.9c-1,12.8-2,25.5-1.8,38.3c0,2.7,0.1,5.4,1.1,8
			c0.5,1.4-0.3,2.5-0.5,3.7c-0.5,2.8,0,3.4,2.8,3.6c1,0.1,2-0.2,3-0.3c1.9-0.3,3.9-0.7,5.6,1c1.3,1.3,2.2,0.3,2.2-1.1
			c0-5.3,0.2-10.6-0.2-15.8c-0.3-3.2-0.1-6.6-2.3-9.6c-0.9-1.3-0.1-3.9,0.7-5.7c0.7-1.6,1.8-0.9,2.7,0.1c4.3,4.4,9.6,7.4,15.2,9.8
			c3,1.3,3,1.3,3-2.1c0-6.5-0.1-13.1-0.1-19.6c0-4.5,1.6-6.4,6-7.4c6.4-1.5,11.7,0.3,14.9,4.9c0.4,0.6,0.5,1,0.5,1.7
			c0.2,7.9,0.6,15.8,0.8,23.7c0,2,0.6,2.9,2.7,2.6c0.9-0.1,1.8-0.1,2.7,0c2.8,0,4.3,1.4,4.5,4.3c0.2,2.8,0.1,5.6,0.4,8.4
			c0.2,1.6,0.6,2.3,2.3,2.2c3-0.1,6-0.1,9-0.1c1.3,0,1.9-0.4,2.1-1.7c0.4-2.7,2.1-3.8,4.8-3.8c2.2,0,4.3,0,6.7,0
			c-0.8,1-1.5,1.7-1.4,2.8c0.3,7.6-0.5,15.2-0.9,22.8c-0.2,4.4,0,4.3-4.4,4.5c-9.7,0.3-19.3,1.9-28.9,2.9
			c-8.3,0.8-16.6,1.7-24.9,2.5c-4.5,0.4-9,0.8-13.6,0.7C110.9,181.4,109.3,181.6,107.7,180.4z"/>
		<path fill="#B7CBCE" d="M169,53c-2.5-0.1-4.9,1-7.4,1.9c-1.7,0.6-3.4,0.8-4.1-1.1c-0.8-2,0.6-3,2.3-3.7c3.3-1.4,6.6-2.5,10.2-2.4
			c0.8,0,1.5,0.1,2.1-0.8c1.6-2.4,4-2.6,6.2-0.8c3.2,2.6,4,9.6,1.4,12.8c-0.4,0.5-1,1.1-1.5,1.1c-3.6-0.2-6,2.5-9.2,3.3
			c-0.1,0-0.2,0.1-0.3,0.1c-2.1,0.6-4.4,1.5-5.7-1.1c-0.9-1.7,0.5-3.1,3.8-4.2c1.5-0.5,3.1-0.9,4.5-1.9c0.7-0.5,1.8-0.9,1.6-1.9
			c-0.2-1.1-1.4-0.9-2.3-1C170.1,52.9,169.7,53,169,53z"/>
		<path fill="#B7CBCE" d="M113.8,15.5c2,0,4,0,6,0c5.4,1.9,6.6,5.3,3.6,10.1c-1.1,1.8-2.4,3.4-3.8,5c-1.2,1.4-2.8,2.2-4.5,0.7
			c-1.6-1.4-0.8-2.9,0.3-4.3c1.1-1.3,2.2-2.7,3.2-4c1.1-1.4,0.4-2.1-1.1-2.3c-2-0.3-4,0.3-5.7,1.2c-1.4,0.8-2.9,1-3.8-0.5
			c-0.9-1.7-0.2-3.2,1.5-4.1C110.9,16.5,112.4,16,113.8,15.5z"/>
		<path fill="#B7CBCE" d="M192.6,172.7c0.2-8.5,0.3-17.2,0-25.7"/>
	</g>
</g>
<g id="white">
</g>
<g id="Line_xA0_影像_1_">
	<g>
		<path fill="#222222" d="M120.3,116.7c0.6-6.8,0.5-13,0.4-19.3c-0.1-3.2,1.2-4.9,4-6c8.2-3.4,16.2-2.7,24.1,0.7
			c3,1.3,4.6,3.4,4.3,7c-0.8,10.9-0.9,21.8-0.7,32.7c0,2.3,0.8,2.7,2.8,2.5c7.8-0.7,8.5,0,8.1,7.8c-0.1,2.4-0.3,4.7-0.4,7.1
			c-0.1,1.2,0.4,1.7,1.6,1.6c1.5,0,2.9,0,4.4,0c1.4,0,3.1,0.3,4.3-0.3c1.2-0.7,0.3-2.5,0.5-3.8c0.3-1.8,1.4-2.8,3.1-2.9
			c4.4-0.1,8.7-0.8,13.1-0.1c2.8,0.5,5.3,3.2,5.1,6.1c-1.1,12.5-1,25-0.4,37.6c0,0.5,0,1.1-0.1,1.6c-0.5,3.5-2.1,4.9-5.6,5
			c-55.7,1.3-111.4,2.6-167.1,3.9c-5.4,0.1-6.5-0.9-6.6-6.4c-0.3-16-1-32-0.8-48c0.1-5.4-0.4-10.9-0.4-16.4c0-4.6,1.3-5.9,5.8-5.9
			c6.6,0,13.3,0,19.9,0c4.8,0,5.5,0.8,5.5,5.5c0,6.7,0.9,13.4,0.7,20.2c2.4-3.1,5.1-5.9,7.2-9.1c2.5-3.7,5.7-5.2,9.9-4.7
			c2.6,0.3,3.3-0.7,3.3-3.3C66,115,66.1,99.9,66.1,84.8c0-1.4,0.1-2.7,0.3-4.1c0.3-1.8,1.4-2.8,3.3-3.1c9-1.1,18.1-1.7,27.2-0.9
			c3.2,0.3,3.9,0.9,3.9,4.2c-0.2,22.8-0.4,45.6-0.6,68.4c0,1.2-0.8,3.2,1.8,2.9c2-0.2,3.8,0.2,3.7-3.1c-0.3-11.1-0.1-22.2-0.2-33.3
			c0-4.7,3.1-6.6,7.1-4.4c1.3,0.7,2.5,1.5,3.7,2.3C117.5,114.7,118.7,115.6,120.3,116.7z M110.9,116.9c0,3.5-0.1,6.7,0,9.9
			c0.3,8.7-0.1,17.4,0.5,26.2c0.2,3.3-0.9,4.3-4.3,4.5c-1.9,0.1-3.8,0.1-5.7,0.2c-7.1,0.5-7.2,0.4-7.1-6.9
			c0.3-21.9,0.5-43.8,0.8-65.7c0-2.1-0.6-2.7-2.7-2.9c-5.9-0.6-11.8-0.1-17.7,0.4c-2.7,0.2-3.1,1.2-3.1,3.6
			c0.1,9.6,0.1,19.3,0.1,28.9c0,6.5,0.1,12.9,0,19.4c0,3.7-1.3,4.7-4.9,4.3c-1.2-0.1-2.4,0-3.5-0.1c-3-0.2-4.9,1-6.8,3.4
			c-3.2,4.2-6.2,8.5-8.9,13c-0.9,1.5-2,2.8-3,4.2c-0.8,1.1-1.9,1.3-3.2,0.9c-1.2-0.4-1.6-1.4-1.8-2.5c-0.1-0.5,0-1.1,0-1.6
			c0.6-8.7,0.4-17.4,0.4-26.2c0-2.1-0.5-2.9-2.7-2.8c-5.1,0.2-10.2,0.2-15.3,0c-2.4-0.1-3.1,0.6-3,3.1c0.5,9.9,0.9,19.8,0.9,29.7
			c0,3.8,0.3,7.6,0.3,11.4c0,1.6,0.5,2.2,2.2,2.2c6.7-0.1,13.5-0.2,20.2-0.1c1.9,0,3-0.6,3.9-2.3c3.2-5.7,6.9-11.1,10.5-16.6
			c1.6-2.4,3.8-3.7,6.6-3.7c7,0.2,14-0.1,21-0.2c3.1,0,4.1,1,4.3,4.1c0.2,3.9,0.3,7.8,0.2,11.7c0,1.7,0.5,2.4,2.3,2.3
			c6.2-0.2,12.4-0.3,18.5-0.3c10.8,0,21.6-1,32.4-0.8c14.7,0.3,29.5,0.1,44.2,0.2c1.7,0,2.2-0.5,2.3-2.1c0.1-3.8,0.4-7.6,0.6-11.4
			c0.3-5.4,0.3-5.4-5.2-5.4c-5.2,0-5.2,0-5.5,5.1c-0.1,1,0.1,2.1-1.5,2c-5.9-0.2-11.8,0.4-17.7,0.7c-1.5,0.1-1.9-0.5-1.9-1.8
			c0.1-3.1,0.1-6.2,0.1-9.3c0-1.8,0.5-4-0.4-5.3c-1-1.5-3.4-0.1-5.1-0.3c-0.5,0-1.1-0.1-1.6-0.1c-3.8-0.3-3.7-0.3-3.8-4.2
			c-0.3-11.9,0.1-23.8,0.9-35.7c0.1-1.4-0.3-2.2-1.6-2.7c-5.1-2.1-10.4-3.3-15.9-1.9c-4.3,1.1-4.2,1.1-4.3,5.3
			c-0.1,7.4-0.3,14.7-0.3,22.1c0,2.6-0.8,2.9-3,1.8c-2.1-1-4-2-5.8-3.5C115,119.4,113.2,118,110.9,116.9z M78.3,170.1
			c0-0.8,0-1.3,0-1.9c-0.1-1.1,0.7-2.6-1.5-2.7c-2-0.1-2.5,0.7-2.5,2.4c0,1.6-0.2,3.2-0.4,4.8c-0.2,1.7,0.7,2,2.1,1.8
			C79.3,174.3,77.9,171.7,78.3,170.1z M64.6,170.8c0,0.6-0.1,1,0,1.3c0.4,1-1.1,2.8,1.2,2.9c2,0.2,3-0.7,3-2.8
			c0-1.4,0.2-2.9,0.2-4.3c0-0.8,0.5-2.1-1.1-1.9c-1.2,0.1-2.9-0.4-3,1.7C64.7,168.9,64.7,170,64.6,170.8z"/>
		<path fill="#222222" d="M80.3,63.2c1.7-19.1,9.1-35.1,25.1-46.5c3.7-2.7,7.8-4.7,12.5-5.1c4.2-0.4,8.1,0.5,10.4,4.5
			c2.4,4,1.7,8-0.7,11.8c-1.4,2.2-3.4,3.8-5.5,5.2c-4.1,2.7-8.1,5.5-12.3,8.1c-9.5,5.8-15.7,14.4-20.8,24c-0.9,1.7-2,3.3-4,3.9
			c-3,0.9-4.6-0.3-4.6-3.4C80.3,64.8,80.3,64,80.3,63.2z M120.8,26.5c0.6-0.7,1.1-1.3,1.5-1.9c1.2-1.7,2.2-3.4,1-5.5
			c-1.2-2-3.1-2.1-5-1.9c-3.3,0.4-6.2,1.9-8.9,3.9c2.1-0.7,4.2-1.7,6.3-2.4c1.9-0.7,4-1.1,5.5,0.7c1.6,1.9,0.8,3.9-0.4,5.8
			C120.7,25.5,120.3,25.7,120.8,26.5z"/>
		<path fill="#222222" d="M172.2,42.3c4.9,0,8.9,1.9,11.4,6.5c2.3,4.2,1.5,8.6-1.8,12c-2.9,2.9-6.5,4.1-10.4,5
			c-3.8,0.9-7.6,1.9-11.3,2.8c-6.1,1.5-10.3,5.9-14.7,9.9c-2.5,2.3-4.8,5-8.4,5.7c-3,0.6-4.8-1.4-3.8-4.3
			c5-15.2,14.3-26.8,28.3-34.6C164.8,43.5,168.3,42.3,172.2,42.3z M169.1,59.9c2.6,0.1,5-0.6,7.1-2c1.7-1.1,3.3-2.5,2.8-4.9
			c-0.5-2.5-2.1-4.2-4.6-4.7c-4-0.9-11.3,1.5-14.5,4.9c1.1-0.4,1.8-0.7,2.5-1c2.2-0.8,4.4-1.8,6.8-1.7c2.3,0.1,4.1,0.9,4.8,3.2
			c0.7,2.3-0.7,3.8-2.5,4.9C170.7,59.1,169.9,59.5,169.1,59.9z"/>
		<path fill="#222222" d="M132.8,115.8c-0.2-0.8,0.1-1.8,0.1-2.6c-0.1-1.7,0.2-2.9,2.5-2.9c2.1,0,2.7,0.9,2.6,2.8
			c-0.1,1.9-0.1,3.8-0.1,5.7c0,1.3-0.5,1.9-1.9,2.1c-3.1,0.4-3.6,0.1-3.4-3.2c0-0.7,0.1-1.4,0.2-2.2
			C132.8,115.7,132.7,115.8,132.8,115.8z"/>
		<path fill="#222222" d="M144.7,116.2c0,0.5,0,1.1,0,1.6c0,2.9-1.4,3.9-4.3,3.1c-1-0.3-0.9-1-0.9-1.7c0-2.1,0.2-4.2,0.1-6.2
			c0-1.8,0.7-2.6,2.5-2.6c1.9,0,2.7,0.7,2.6,2.5C144.7,114,144.7,115.1,144.7,116.2z"/>
	</g>
</g>
</svg>
