<?xml version="1.0" encoding="utf-8"?>
<!-- Generator: Adobe Illustrator 18.0.0, SVG Export Plug-In . SVG Version: 6.00 Build 0)  -->
<!DOCTYPE svg PUBLIC "-//W3C//DTD SVG 1.1//EN" "http://www.w3.org/Graphics/SVG/1.1/DTD/svg11.dtd">
<svg version="1.1" xmlns="http://www.w3.org/2000/svg" xmlns:xlink="http://www.w3.org/1999/xlink" x="0px" y="0px"
	 viewBox="0 0 217 212" enable-background="new 0 0 217 212" xml:space="preserve">
<g id="_xFFFD__x83__x8C__xFFFD__x99__xA0_影像_1_">
</g>
<g id="Color_xA0_影像_1_">
	<g>
		<path fill="#B7CBCE" d="M45.5,71.3c0.2,0,0.3,0,0.5,0c1.2,1.8,1.2,3.7,0,5.5c-0.2,0-0.3,0-0.5,0C45.5,74.9,45.5,73.1,45.5,71.3z"
			/>
		<path fill="#B7CBCE" d="M42,76.3c0-1.8,0-3.7,0-5.5c0.9-3.4,3-6,6.1-7.7c1-0.6,2-1.2,3.1-1.7c3.4-1.6,7.2-2.9,6.5-7.8
			c4.2-9.9,10.3-18.5,20-23.5c7.8-4.1,15.3-2.9,21.9,2.9c1.2,1.1,2,1.6,3-0.2c5.3-9.5,11.8-12.3,20.8-11.4
			c8.4,0.8,15.5,9.8,18.4,17.1c2.8,6.9,2.4,14.1,2.1,21.2c-0.1,3.5-0.3,3.5,3.3,4.1c6.3,1.1,11.4,4.3,15,9.5
			c5.1,7.4,1.8,18.1-6.5,21.7c-1.7,0.8-3.2,2.1-5.3,1.2c-0.3-0.1-0.9,0.2-1.2,0.5c-5.1,5-11.8,6.2-18.3,7.6
			c-6.6,1.4-13.2,2.5-19.8,3.2c-5.7,0.6-11-0.8-15.9-3.7c-6.1-3.5-12.2-7.2-19.5-7.9c-2.6-0.3-5.2-0.5-7.8-0.7
			c-6.2-0.5-11.1-3.5-15.3-8c-0.6-0.7-1-1.5-2.2-1.4c-3.9,0.6-5.6-2-7-4.9C42.8,79.3,42.5,77.7,42,76.3z"/>
		<path fill="#B7CBCE" d="M51.3,72.9c0,0.9,0,1.8,0,2.7c-0.1,0-0.2,0-0.3,0c0-0.9,0-1.8,0-2.7C51.2,72.9,51.3,72.9,51.3,72.9z"/>
	</g>
</g>
<g id="white">
</g>
<g id="Line_xA0_影像_1_">
	<g>
		<path fill="#222222" d="M194.1,87.2c0.2,9.7-3.6,17-12.3,20.9c-6.4,2.9-13.3,2.9-19.9-0.1c-2.1-1-4.4-3.1-6.3-2.7
			c-1.8,0.3-3.1,3.3-4.8,4.8c-6,5.3-12.6,9.5-20.7,10.7c-5.2,0.8-9.8-0.3-13.8-3.5c-7.9-6.5-16.1-5.9-24.5-1.3
			c-8.9,4.9-18.2,5.6-27.4,1.1c-6.6-3.2-9.9-9.1-11.2-16.1c-0.3-1.8-0.6-2.6-2.6-2.7C39,97.1,32.3,87.8,35.3,76.5
			c2.6-9.9,8.6-16.8,18.5-20c1.3-0.4,1.8-1.1,2-2.4c2.7-12.4,8.9-22.2,20.7-27.7c7.6-3.6,14.9-2.1,21.4,3c1.7,1.4,2.4,1.5,3.8-0.5
			c7.6-11.7,18.8-15,32.3-14.2c17,1,29.7,18.3,28,35.9c0,0.5,0,0.9-0.1,1.4c-0.4,2,0.1,2.3,2.2,2.1c6.8-0.8,13,1.1,18.1,5.8
			C190.1,67.3,194.3,76.4,194.1,87.2z M156.3,47.8c0.6-13.2-9.9-28.8-26.7-27.9c-11.9,0.6-19.7,5.7-25.4,15.3
			c-2.9,4.9-2.8,4.9-6.9,0.6c-4.8-5-12.8-8.3-21-3.2c-7.5,4.7-11.3,11.6-13.9,19.5c-1.3,3.9-1.1,3.9,2.7,5.8c3,1.5,4.7,4,5,7.3
			c0.1,1.3-0.5,2.3-1.8,2.7c-1.5,0.5-1.5-0.8-1.9-1.6c-1.1-2.1-2.8-3.6-5.1-4.3c-4.6-1.4-9.6,0.7-11.9,4.9c-2,3.9-0.9,8.5,3,11.7
			c3.7,3,8,4.4,12.6,4.5c3.1,0.1,4.5,1.4,5.9,3.8c2.8,4.9,7.1,7.9,12.7,9.1c7.1,1.5,13.5-0.3,19.3-4.4c3.9-2.8,5.8-2.6,9.1,0.9
			c1,1.1,2,2.1,3.1,3.1c8.9,7.5,22.5,6.3,28.7-2.9c2-3,4.3-3.8,7.5-3.3c4.7,0.8,9.2-0.1,13.6-1.7c4.7-1.7,7.6-5,9.3-9.7
			c1.4-3.9,1.2-7.9,0.1-11.8c-1.7-6.2-8.8-9-14.4-5.7c-1.3,0.8-2.5,1.6-4,0.7c-1.6-1-1.3-2.6-1-4.2C155.8,54,156.4,50.9,156.3,47.8z
			"/>
		<path fill="#222222" d="M85.9,198.5c-0.1-2.7,1.1-4.4,2.4-6.1c6.8-9.5,13.2-19.3,20.5-28.5c1.9-2.4,1.9-2.5-0.9-3.4
			c-3.3-1.1-6.5-2.3-9.6-3.9c-4.1-2.1-4.9-4.6-2.2-8.3c5-6.9,9.5-14.2,15.1-20.7c1.2-1.4,2.5-3,4.1-3.9c1.5-0.8,3.2-1.7,4.8-0.2
			c1.5,1.4,1.3,3.1,0.5,4.8c-1.1,2.5-2.4,4.9-3.5,7.4c-1.1,2.6-2.1,5.2-3.3,7.8c-0.6,1.3-0.4,1.9,1.1,2.3c5.5,1.6,10.8,3.6,16.5,4.7
			c1.5,0.3,2.9,0.7,3.2,2.4c0.4,1.7,0.7,3.4-0.9,4.8c-11.4,9.7-20.4,21.7-30.4,32.7c-3.4,3.7-7.1,7.2-10.7,10.8
			c-1.2,1.2-2.6,2.1-4.4,1.3C86.4,201.5,86.1,199.8,85.9,198.5z"/>
		<path fill="#222222" d="M40.1,169.6c0.2-0.6,0.4-1.5,0.8-2.3c1.2-2.6,2.3-5.3,3.6-7.9c0.7-1.3,1.8-2.1,3.3-1.6
			c1.6,0.6,1.9,2,1.4,3.4c-1.3,3.5-2.8,6.9-4.3,10.2c-0.5,1.2-1.7,1.6-3,1.2C40.7,172.2,40.3,171.1,40.1,169.6z"/>
		<path fill="#222222" d="M190.9,122.3c-0.9,3.1-1.8,6.7-3,10.2c-0.4,1.2-1.6,1.7-2.9,1.3c-1.2-0.3-1.9-1.3-1.8-2.4
			c0.5-3.9,1.6-7.6,3.1-11.2c0.5-1.1,1.6-1.5,2.8-1.1C190.5,119.5,190.9,120.5,190.9,122.3z"/>
		<path fill="#222222" d="M35,134.2c0.1-0.3,0.3-0.9,0.6-1.5c1.3-2.4,2.6-4.7,4-7.1c0.8-1.4,1.9-2.3,3.6-1.6
			c1.5,0.7,1.7,2.1,1.2,3.5c-1.1,3-2.7,5.8-4.4,8.4c-0.7,1.1-1.9,1.7-3.3,1.2C35.3,136.6,35,135.7,35,134.2z"/>
		<path fill="#222222" d="M143.3,166.1c1.1-3.3,2.1-6.7,3.4-10c0.4-1.1,1.6-1.5,2.8-1.1c1.2,0.4,1.9,1.3,1.8,2.5
			c-0.4,3.6-1.5,7.1-3.1,10.4c-0.6,1.1-1.8,1.6-3,1.2C143.7,168.5,143.3,167.4,143.3,166.1z"/>
		<path fill="#222222" d="M71.7,172.6c1.1-2.9,2.1-6.2,3.9-9.1c0.6-1,1.8-1.3,2.9-0.8c1.1,0.5,1.8,1.5,1.4,2.7
			c-1,3.1-2.1,6.2-3.4,9.2c-0.5,1.2-1.7,1.6-3,1.2C72.1,175.3,71.6,174.3,71.7,172.6z"/>
		<path fill="#222222" d="M159,128.4c-0.8,2.9-2.2,6.1-4.5,8.8c-0.8,1-2.1,1-3.2,0.3c-1.1-0.7-1.3-1.8-0.9-2.9
			c1.3-2.9,2.7-5.7,4.2-8.5c0.6-1.1,1.6-1.4,2.8-1C158.6,125.5,159.1,126.5,159,128.4z"/>
		<path fill="#222222" d="M68.3,141.1c1.2-2.7,2.5-6,4.8-8.7c0.7-0.8,1.9-0.7,2.8-0.2c1.1,0.6,1.5,1.7,1.1,2.8
			c-1,2.9-2.4,5.7-4.1,8.2c-0.7,1-1.8,1.2-2.9,0.8C68.8,143.6,68.3,142.7,68.3,141.1z"/>
		<path fill="#222222" d="M180.4,154.4c-0.6,2.3-1.3,5-2.5,7.4c-0.5,1.1-1.6,1.5-2.8,1.1c-1.2-0.4-1.9-1.3-1.8-2.4
			c0.4-2.8,1.3-5.5,2.6-7.9c0.6-1.1,1.7-1.3,2.9-1C180.1,151.9,180.4,152.9,180.4,154.4z"/>
	</g>
</g>
</svg>
