<?xml version="1.0" encoding="utf-8"?>
<!-- Generator: Adobe Illustrator 21.1.0, SVG Export Plug-In . SVG Version: 6.00 Build 0)  -->
<svg version="1.1" id="圖層_1" xmlns="http://www.w3.org/2000/svg" xmlns:xlink="http://www.w3.org/1999/xlink" x="0px" y="0px"
	 viewBox="0 0 24 24" style="enable-background:new 0 0 24 24;" xml:space="preserve">
<style type="text/css">
	.st0{fill:none;}
	.st1{fill:#FFFFFF;}
</style>
<path class="st0" d="M0,0h24v24H0V0z"/>
<path class="st1" d="M14.2,20.7c-0.4,0-0.8-0.2-0.9-0.6c-0.2-0.5,0-1.1,0.5-1.3l1.2-0.5l1.1-0.7l1-0.7l0.8-0.9l0.6-1l0.2-1.2
	l0.1-1.3l-0.1-1.2L18.4,10L17.1,8L15,6.6L13.7,6c-0.5-0.3-0.7-0.9-0.4-1.3c0.3-0.5,0.9-0.7,1.3-0.4l1.3,0.7l2.5,1.5
	c0.1,0.1,0.2,0.2,0.3,0.3l1.5,2.4c0.1,0.1,0.1,0.2,0.1,0.3l0.3,1.4c0,0.1,0,0.1,0,0.2l0.1,1.4c0,0,0,0.1,0,0.1l-0.1,1.4
	c0,0,0,0.1,0,0.1l-0.3,1.4c0,0.1-0.1,0.2-0.1,0.3l-0.7,1.2c0,0-0.1,0.1-0.1,0.1l-0.9,1.1c0,0.1-0.1,0.1-0.2,0.2l-1.1,0.8l-1.2,0.8
	C16,20,16,20,15.9,20l-1.3,0.6C14.5,20.7,14.3,20.7,14.2,20.7z M11.5,19.9c-0.3,0-0.5-0.1-0.7-0.3l-2-2.1l-1-1L7,15.9l-2.9-0.1
	c-0.3,0-0.5-0.1-0.7-0.3c-0.2-0.2-0.3-0.5-0.3-0.7l0.1-1.6L3,9.9c0-0.3,0.1-0.6,0.3-0.8c0.2-0.2,0.5-0.3,0.8-0.3l1.7,0.1l1.2-0.1
	l0.8-0.7l0.9-0.9l0.9-1.1C9.6,6.1,9.7,6,9.7,6l1.1-0.9c0.3-0.2,0.7-0.3,1.1-0.1c0.4,0.2,0.6,0.6,0.5,1l-0.1,1.3l0.1,1.4
	c0,0.1,0,0.1,0,0.2l-0.1,1.4l0.2,1.4c0,0.1,0,0.2,0,0.3l-0.2,1.4l0,1.3l0.2,1.4c0,0.1,0,0.2,0,0.2l-0.2,1.3l0.1,1.3
	c0,0.4-0.2,0.8-0.6,1C11.7,19.9,11.6,19.9,11.5,19.9z M5.2,13.8l0.6,0l1.6,0.1c0.2,0,0.4,0.1,0.6,0.2L9.1,15l1.4,1.3l0-0.4l-0.2-1.3
	c0-0.1,0-0.1,0-0.2l0-1.4c0,0,0-0.1,0-0.1l0.2-1.3l-0.2-1.3c0-0.1,0-0.1,0-0.2l0.1-1.4l-0.1-0.5l-0.2,0.3c0,0,0,0.1-0.1,0.1l-1,1
	l-1.1,1c-0.2,0.1-0.4,0.2-0.6,0.2l-1.6,0.1c0,0-0.1,0-0.1,0l-0.6,0l0.2,2.2c0,0,0,0.1,0,0.1L5.2,13.8z M14.6,16.1
	c-0.3,0-0.6-0.1-0.8-0.4c-0.3-0.4-0.2-1.1,0.2-1.4l1.2-0.8l0.3-1l-0.3-1L14,10.6c-0.5-0.3-0.6-0.9-0.3-1.4C14,8.8,14.7,8.7,15.1,9
	l1.5,0.9c0.2,0.1,0.3,0.3,0.4,0.6l0.5,1.6c0.1,0.2,0.1,0.4,0,0.6L17,14.3c-0.1,0.2-0.2,0.4-0.4,0.5l-1.5,1.1
	C15,16,14.8,16.1,14.6,16.1z"/>
<path class="st1" d="M19.6,19.9c-0.3,0-0.6-0.1-0.8-0.4L18,18.4l-1.1-0.8c-0.1-0.1-0.1-0.1-0.2-0.2l-0.9-1.1l-1.1-0.9
	c0,0-0.1-0.1-0.1-0.1l-1-1.1l-1-1l-1.1-0.9c0,0-0.1-0.1-0.1-0.1l-1-1.1L9.5,10l-2.1-2L6.4,7L5.3,6.1c0,0-0.1-0.1-0.1-0.1l-1-1.1
	c-0.4-0.4-0.3-1,0.1-1.4c0.4-0.4,1-0.3,1.4,0.1l0.9,1l1.1,0.9c0,0,0.1,0.1,0.1,0.1l1,1.1l2.1,1.9c0,0,0.1,0.1,0.1,0.1L12,9.9l0.9,1
	l1.1,0.9c0,0,0.1,0.1,0.1,0.1l1,1.1l0.9,1.1l1.1,0.9c0.1,0,0.1,0.1,0.2,0.2l0.9,1.1l1.1,0.8c0.1,0.1,0.1,0.1,0.2,0.2l0.9,1.2
	c0.3,0.4,0.3,1.1-0.2,1.4C20.1,19.8,19.8,19.9,19.6,19.9z"/>
</svg>
