<?xml version="1.0" encoding="utf-8"?>
<!-- Generator: Adobe Illustrator 21.1.0, SVG Export Plug-In . SVG Version: 6.00 Build 0)  -->
<svg version="1.1" id="圖層_1" xmlns="http://www.w3.org/2000/svg" xmlns:xlink="http://www.w3.org/1999/xlink" x="0px" y="0px"
	 viewBox="0 0 24 24" style="enable-background:new 0 0 24 24;" xml:space="preserve">
<style type="text/css">
	.st0{fill:#FFFFFF;}
</style>
<g>
	<path class="st0" d="M7.6,20.4c-0.2,0-0.3,0-0.5-0.1c-0.3-0.2-0.5-0.5-0.5-0.8l0-1.3l0.1-1.4l-0.3-2.8c0-0.1,0-0.1,0-0.2l0.1-1.3
		L6.4,11c0-0.1,0-0.2,0-0.3l0.2-1.4L6.7,8l0.2-1.3L6.5,5.2c-0.1-0.4,0.1-0.8,0.4-1C7.2,4,7.7,4,8,4.2l1.3,0.9c0.1,0,0.1,0.1,0.2,0.2
		l0.8,0.9l1.1,0.4c0.1,0,0.2,0.1,0.2,0.1l2.3,1.6l1.2,0.7c0,0,0.1,0,0.1,0.1l2.3,1.7l1.2,1c0.2,0.2,0.4,0.5,0.4,0.8
		c0,0.3-0.2,0.6-0.4,0.8L17.4,14c0,0-0.1,0.1-0.1,0.1l-1.2,0.5l-0.9,0.9c-0.1,0.1-0.2,0.1-0.2,0.2l-1.2,0.6L12.7,17l-2.3,1.6l-1,0.9
		c-0.1,0.1-0.1,0.1-0.2,0.2L8,20.3C7.9,20.3,7.7,20.4,7.6,20.4z M8.4,13.8l0.3,2.8c0,0.1,0,0.1,0,0.2l-0.1,1l0.6-0.6
		c0,0,0.1-0.1,0.1-0.1l3.4-2.4c0,0,0.1-0.1,0.1-0.1l1.1-0.6l0.9-0.9c0.1-0.1,0.2-0.2,0.3-0.2l1.3-0.6l-0.1-0.1l-2.2-1.6L13,9.9
		c0,0-0.1,0-0.1-0.1l-2.2-1.5L9.4,7.9C9.3,7.8,9.1,7.7,9,7.6L8.7,7.2L8.6,8.2L8.5,9.5l-0.2,1.4l0.2,1.3c0,0.1,0,0.1,0,0.2L8.4,13.8z
		"/>
</g>
</svg>
