<?xml version="1.0" encoding="utf-8"?>
<!-- Generator: Adobe Illustrator 22.1.0, SVG Export Plug-In . SVG Version: 6.00 Build 0)  -->
<svg version="1.1" xmlns="http://www.w3.org/2000/svg" xmlns:xlink="http://www.w3.org/1999/xlink" x="0px" y="0px"
	 viewBox="0 0 1146 748" style="enable-background:new 0 0 1146 748;" xml:space="preserve">
<style type="text/css">
	.st0{fill:#399EBB;}
	.st1{fill:#FFFFFF;}
	.st2{fill:#399EBA;}
	#sand {
		animation: fade 3s ease-in-out infinite;
	}
	#hand {
		animation: enter 3s ease-in-out infinite;
	}
	@keyframes enter {
	  0% {
	  	transform: translate(280px, 0) rotateZ(20deg);
	  	opacity: 0;
	  }
	  30% {
	  	transform: translate(280px, 0) rotateZ(20deg);
	  	opacity: 0;
	  }
	  40% {
	  	transform: translate(280px, 0) rotateZ(20deg);
	  	opacity: 1;
	  }
	  60% {
	  	transform: translate(0px, 0) rotateZ(0deg);
	  	opacity: 1;
	  }
	  99% {
	  	transform: translate(0px, 0) rotateZ(0deg);
	  	opacity: 0;
	  }
	  100% {
	  	transform: translate(280px, 0) rotateZ(20deg);
	  	opacity: 0;
	  }
	}

	@keyframes fade {
	  0% {
	  	opacity: 0;
	  }
	  10% {
	  	opacity: 0;
	  }
	  30% {
	  	opacity: 1;
	  }
	  70% {
	  	opacity: 1;
	  }
	  100% {
	    opacity: 0;
	  }
	}
</style>
<g id="background">
	<g id="_xFFFD__x83__x8C__xFFFD__x99__xA0_影像_1_">
	</g>
	<g id="Background_Color_xA0_影像_1_">
	</g>
	<g id="background_xA0_影像_1_">
		<g>
			<g>
				<path class="st0" d="M188.8,511.5c1.7-0.3,3.1-0.4,4.1,0.7c4.9,5.6,11.2,9.9,15.7,15.9c0.1,0.1,0.1,0.1,0.2,0.2
					c4.5,8,11.4,13.7,18.5,19.4c4.2,3.4,8.8,6.1,12.8,9.7c2.5,2.3,5,4.6,5.4,8.2c0.2,1.3-0.3,2.1-1.1,3.1
					c-4.6,5.2-10.6,7.1-17.3,7.1c-4.7,0-9.4,0.2-14.1,1.1c-1.5,0.3-3.2-0.1-4.9-0.3c-15.7-1.7-31.4-1-47.1-1.1
					c-14.9-0.1-29.5-1.8-43.7-6.4c-5.4-1.7-10.9-2.8-16.6-2.3c-5.6,0.5-11.1,1.8-16.5,3.5c-5.1,1.6-10.2,3.2-15.7,3
					c-5.7-0.1-9.4-5.4-9.4-9.8c0-4.4,0.7-8.9,0.8-13.3c0.1-5.7,0-11.4-0.4-17.2c-0.5-7.8,1.5-15.1,4.3-22.3c1.2-3.1,2.6-6,3.6-9.1
					c2.6-8.1,8.6-13.6,15.1-18.2c13.7-9.8,28.4-17.9,45.1-21.8c6.9-1.6,13.3-0.5,19.9,2.3c8,3.4,13.6,9.5,19.3,15.6
					c2.8,3,5.3,6.3,8.3,9c5.6,5.2,9.5,11.7,13.6,18C189.4,508,189.9,509.5,188.8,511.5z"/>
				<path class="st0" d="M176.3,229.1c-7.7-0.3-15.3-1.8-22.4-4.2c-10.5-3.5-21.1-3.2-31.8-3c-5.5,0.1-11,1.1-16.6,0.9
					c-8.4-0.3-16.9-0.9-25.3-1.1c-4.1-0.1-7.8-1.9-10.9-4.5c-4-3.3-3.7-7.9-3.2-12.3c0.8-6.8,3.5-12.8,8.5-17.5
					c9.8-9.3,15.6-21,20.3-33.4c3.2-8.7,7.1-17.1,13.1-24.3c3.7-4.4,7.9-8.1,13.7-9.3c3.4-0.7,6.7,0.1,9.9,0.9
					c5.3,1.4,10.7,2,16.2,1.9c4.5-0.1,9.1,0,13.5,1.1c2.1,0.5,4.3,1.2,5.9,2.7c8.8,7.7,17.8,15,23.2,26c4.5,9.2,9.6,18.4,17.2,25.7
					c2.5,2.4,5,4.4,8.3,5.5c0.6,0.2,1.2,0.4,1.7,0.8c6.3,4.2,13.1,7.2,20.3,9.7c4.7,1.6,7.1,6.6,6.7,12c-0.1,1.2-0.2,2.4-0.4,3.5
					c-0.9,6.8-3.2,9.2-9.8,10.8c-6.5,1.5-13.1,1.8-19.7,2.5c-10.8,1.2-21.5,3.5-32.2,5.3C180.5,229,178.4,229,176.3,229.1z"/>
				<path class="st0" d="M87.9,392c3.9-9.8,9.6-17.8,17.9-23.7c6.2-4.4,13-6.7,20.7-6c0.3,0,0.8,0.1,1-0.1c2.7-2.9,4.7-0.7,6.8,0.8
					s4.1,3,6.7,3.9c2.9,1,4.4,3.9,5.8,6.6c2.3,4.5,3.6,9.3,4.7,14.2c0.6,2.6,1.6,5,3.2,7.2c4.5,6.1,7.8,12.8,9.6,20.3
					c0.7,2.9,2.3,5.8,3.9,8.3c5.5,8.3,10.2,16.9,14.4,25.9c0.7,1.6,1.2,3.2,1.8,4.9c0.5,1.6,0,2.7-1.9,2.8c-1.6,0-3.4,0.3-4.9-0.2
					c-8.5-2.3-17.1-4.3-25-8.2c-1.3-0.6-2.6-1.4-3.6-2.4c-3.7-3.3-7.9-5.5-12.6-6.7c-5.4-1.5-10.9-2.9-16.4-4.1s-10.6,0.3-15.4,3.1
					c-2.2,1.3-4.4,2.6-6.4,4.1c-6.3,4.6-13.4,7.5-20.7,10.1c-2.3,0.8-4.7,1.1-7.2,0.6c-7.3-1.5-9.5-8.8-8.7-15.1
					c0.9-6.7,5-11.6,9-16.5c2-2.4,4.2-4.8,6.3-7.2c2.6-3,5-6,6.4-9.7c1-2.7,2.5-5.2,4.5-7.4c0.7-0.8,1.1-1.9,1.7-2.8
					C90.8,392.8,90.2,391.9,87.9,392z"/>
				<path class="st0" d="M500.6,346.8c-10.4-1-20.8-1.2-31.3-0.7c-3.1,0.2-6.2,0.5-9.2,0.7c-2.6,0.2-5.1,0.1-7.5-0.6
					c-3.8-1.1-7.6-0.6-11.3,0.2c-5.4,1.2-10.6,0-15.9-1.2c-1.9-0.4-2.7-1.6-2.1-3.7c0.3-1.2,0.4-2.5,0.7-3.7
					c0.6-2.5,1.9-4.8,4.5-5.4c6.7-1.5,10.6-6.5,14.5-11.4c4.6-6,10.4-10.6,16.2-15.3c0.6-0.5,1.5-1,2.2-0.5c2,1.3,4,0.7,6,0.3
					c5.9-1,11.3,0,16.3,3.5c6.9,4.8,14,9.4,21,14.1c4.8,3.2,8.5,7.4,9.7,13.3c0.9,4.2-0.1,6.1-3.8,7.9
					C507.4,345.9,504.2,347.2,500.6,346.8z"/>
				<path class="st0" d="M159.2,384.5c4.7,10.7,8.7,21.7,15.4,31.5c-0.4,1.7-1.4,1.2-2.4,0.8c-4.9-8.5-9.2-17.2-12.3-26.5
					c-0.5-1.3-1.3-2.6-1.2-4.1C158.5,385.5,157.8,384.7,159.2,384.5z"/>
				<path class="st0" d="M172.2,416.7c0.8-0.2,1.8,0.2,2.4-0.8c2.6,3.3,4.3,7,6,10.8c0.2,0.4,0.6,0.8,0.1,1.2
					c-0.2,0.1-0.8,0-0.9-0.2C177.9,423.6,173.7,421.1,172.2,416.7z"/>
				<path class="st0" d="M517,321.9c3.6,3,6.3,6.6,6.8,11.5c0.1,0.6,0.3,1.5-0.6,1.5c-0.8,0.1-1.8,0.9-2.5,0c-0.5-0.6-0.5-1.4,0-2
					c1.8-2.5,0.7-4.7-1.1-6.6C518.4,325.1,517.3,323.8,517,321.9z"/>
				<path class="st0" d="M97.9,458c2.6-2.1,5.6-3.3,9-3.4C103.9,455.9,100.8,456.5,97.9,458z"/>
				<path class="st0" d="M159.2,384.5c-0.7,0.4-0.4,1.1-0.5,1.6c-0.9-2.6-1.9-5.2-2.8-7.8C157.6,380.1,158.6,382.2,159.2,384.5z"/>
				<path class="st0" d="M470.9,297.8c-1.3,0.5-2.5,0.6-4.1,0.2C468.4,296.5,469.6,296.8,470.9,297.8z"/>
			</g>
			<g>
				<path d="M431.7,534.9c-2.8,1.4-5.4,2.8-8.1,4.1c-16.1,8.1-32.2,16.3-48.4,24.4c-4.6,2.3-9.5,4.3-14.8,4.3
					c-5.7,0.1-7.9-1.8-8.7-7.4c-0.2-1.3-0.8-1.1-1.6-1.2c-2.4,0-3.8-1.4-4.9-3.3c-1.5-2.6-2.8-5.4-5.6-6.8c-1.7-0.8-3-3.5-4.8-2.6
					c-1.4,0.7-2,3.1-2.9,4.8c-3.4,6.3-11.8,9.3-18.4,6.5c-1.2-0.5-1.8-1.5-1.7-2.8c0.2-1.5,1.2-2.3,2.6-2.3c2.1-0.1,4.2,0,6.3,0.2
					c3,0.2,4.7-1.1,6.3-3.7c2.8-4.5,3.9-8.2,1.1-13.9c-6-12.1,1-26.3,13.2-29.4c7.2-1.8,13.5,0.6,18,7c2.1-1.1,2.7-2.9,2.6-5.2
					c-0.1-4.5,0.1-9.1,0.1-13.6c0-3.9,1.5-6.5,4.8-8.7c11.3-7.5,23-14.3,35.1-20.3c3-1.5,5.4-1.3,8,0.8c3.6,2.9,7,5.8,9.9,9.3
					c1,1.2,1.8,1.4,3.1,0.4c2.6-2,5.3-3.8,8.3-5.2c1.2-0.5,1.8-1.4,2.2-2.6c3.4-9.4,8.5-18.1,12.8-27.1c2.8-5.8,9.6-7.2,14.6-2.9
					c1.2,1.1,2.3,1.3,3.6,0.9s2.7-0.5,4,0c3.8,1.3,6.9,4.1,11.1,4.6c1.6,0.2,2.2,2.3,3,3.7c0.7,1.2,1.2,1.9,2.9,0.8
					c5-3.3,9.8-0.7,10.1,5.3c0.3,5.3-1.3,10.4-2.4,15.6c-1.4,6.8-2.5,13.8-5,20.3c-0.5,1.4,0,1.6,1.3,1.8
					c20.4,3.2,40.1,0.6,59.5-6.4c14.8-5.3,29-12.2,43.3-18.6c13.5-6,27.3-10.8,41.7-14c19.5-4.3,37.9-1.4,55.3,8.2
					c7.9,4.4,15.5,9.1,23.4,13.5c14.9,8.4,31.1,12,48,12.8c13.3,0.6,26.5-0.5,39.8-0.8c10.7-0.3,21.3,0.3,31.4,4.2
					c5.8,2.2,10.8,5.5,14.3,10.9c4.2,6.7,4.2,12.4-0.8,18.6c-2.6,3.2-4,6.7-5.1,10.6c-6,21.1-18.8,36.1-39.6,43.8
					c-11.6,4.3-23.7,6.2-35.8,8.2c-26,4.3-50.9,11.7-73.8,25.2c-5.1,3-9.9,6.4-14.3,10.4c-4.2,3.9-5.7,8.3-4.4,14
					c1.6,6.9,2.6,13.9,3.3,21c1.2,13.4-3.9,23.1-16,29.2c-11.1,5.7-23,8.8-35.1,11.5c-5.4,1.2-10.8,2.3-16.2,3.5c-2,0.4-4,1-5.9,2.1
					c-1.6,0.9-3.3,1-4.3-0.7s-0.2-3.1,1.3-4.2c2.4-1.7,5.1-2.3,7.9-2.9c14.1-3,28.3-5.7,41.9-10.9c3.8-1.5,7.6-3.1,11-5.3
					c6.2-4,9.4-9.7,9.6-17c0.3-8.2-1.1-16.2-3-24c-2.2-9,0.6-15.9,7.5-21.8c10.3-8.7,22.2-14.8,34.4-20.2
					c18.2-8.1,37.5-12.5,57.1-15.9c11.5-1.9,22.9-3.9,33.9-8c10.3-3.9,18.9-10.1,25.2-19.1c3.6-5,7.6-9.7,10-15.5
					c1.1-2.6,0.5-5.4,1.1-8c0.5-2.1,1.2-4,2.4-5.7c1-1.4,1.9-2.8,2.8-4.3c3.2-5.5,2.9-8.4-1.3-13.3c-2.8-3.3-6.4-5.3-10.4-6.8
					c-6.6-2.5-13.5-3.7-20.5-3.8c-10.8-0.2-21.6,0.4-32.4,0.9c-19.4,0.9-38.3-1.1-56.4-8.5c-10.7-4.4-20.3-11-30.2-16.7
					c-14.3-8.3-29.5-12.9-46.1-10.8c-13.2,1.7-26,5.3-38.2,10.5c-15,6.3-29.7,13.2-44.7,19.5c-13.1,5.5-26.7,9.6-40.9,10.9
					c-7.8,0.7-15.6,0.5-23.4,0c-2.6-0.2-5.4-0.5-8-1c-2.1-0.4-3-0.1-3.9,2c-1.9,4.7-5.4,8.2-9.4,11.1c-10.9,7.7-22.4,14.5-34.2,20.8
					c-1.8,1-2.7,2-2.8,4.1c-0.1,7.3-0.4,14.5-0.6,21.8c-0.1,1.6,0,3.3-0.2,4.9c-0.3,1.9-1.3,3.3-3.4,3.1c-2-0.2-2.7-1.7-2.6-3.5
					c0.1-3.7,0.3-7.4,0.3-11.2C431.7,544.5,431.7,539.9,431.7,534.9z M432.3,516.4c-3.7,2.3-7.4,3.6-10.8,5.5
					c-10.8,6-21.6,12-32.6,17.5c-2.4,1.2-4.4,3.4-7.5,2.1c-0.3-0.1-1,0.4-1.4,0.7c-6.5,4.1-13,8.3-19.5,12.4c-1.7,1.1-2.5,2.8-3,4.7
					s0.2,2.9,2.3,3c3.3,0.1,6.3-1,9.2-2.2c6.8-2.7,13-6.5,19.5-9.8c13.8-7.1,27.7-14,41.5-21c1.2-0.6,2.5-1,2.5-2.8
					C432.2,523.3,432.3,520.1,432.3,516.4z M438.6,524.4c0.9-0.4,1.4-0.6,1.8-0.8c10-5.5,19.8-11.5,29.3-17.8
					c5.4-3.6,9.1-8.3,11.5-14.4c2.6-6.7,4.4-13.6,5.8-20.7c1-5.2,2.5-10.2,2.9-15.5c0.1-0.8,0.5-2.1-0.6-2.4c-1-0.3-1.5,0.9-2,1.6
					c-1.7,2.4-2.6,5.2-3.5,7.9c-3.2,9.6-6.2,19.2-11,28.1c-2.2,4.1-5.2,7.1-9.4,9.2c-7.6,3.9-15.1,8-22.6,12.1
					c-1.1,0.6-2.3,1-2.4,2.7C438.4,517.5,438.2,520.8,438.6,524.4z M345.9,510.8c-7.3-0.1-14.7,7.8-14.1,15.4
					c0.6,8.2,4.6,14.3,11.9,18.3c1,0.6,1.7,0.5,2.6-0.4c2.6-2.5,5.2-5.1,8-7.4c1.8-1.6,2.2-3.4,1.8-5.6c-0.7-4.5-1.6-8.9-2-13.5
					C353.6,513.1,352.5,511.3,345.9,510.8z M428.5,501.7c2.3-1.7,5.5-2,5.8-5.6c0.1-1.1,1.5-1.9,2.5-1.5c2.5,1,4.1-0.5,5.9-1.7
					c3.5-2.2,6.8-4.5,10.4-6.5s5.5-5,6.6-8.8c2.8-9.9,5.9-19.7,10.3-29c1.2-2.6,0.2-4.4-2.7-4.7c-1.8-0.2-3.4,0.5-4.7,1.7
					c-1.7,1.4-2.5,3.3-3.3,5.3c-3.5,8.4-6,17.1-7.6,26.1c-0.7,3.9-2.6,6.8-5.9,9c-4.8,3.2-10,5.9-14.7,9.3
					C428.7,496.8,427.6,498.6,428.5,501.7z M440.1,505.4c7.7-4.1,15.1-8.1,22.5-12.1c2.1-1.1,3.4-2.9,4.6-4.9
					c3.2-5.8,5.7-11.9,7.9-18.2c1.9-5.5,3.1-11.2,6.1-16.3c1.1-1.9,0-3.7-1.2-5.2c-1.5-1.9-3.2-1.6-4.1,0.6
					c-1.6,3.7-3.3,7.5-4.6,11.3c-2.3,6.9-4.3,13.9-6.5,20.8c-0.8,2.4-1.7,4.8-4,6.3c-6.1,4.1-12.2,8.2-18.5,12.1
					C439.9,501.1,439.3,502.7,440.1,505.4z M429.1,489.3c2.7-1.6,4.7-3.1,6.9-4.1c6.7-3,10.3-7.8,11.5-15.4
					c1.4-8.8,4.5-17.3,8.9-25.3c0.5-0.8,2.6-1.6,0.6-3c-1.7-1.2-4.1-0.8-5.1,0.7c-0.3,0.4-0.4,0.8-0.6,1.2
					c-4.1,9.1-9.1,17.8-12.4,27.2c-0.8,2.4-2.4,4-4.7,5c-2.5,1.1-4.7,2.7-7,4.2c-0.8,0.5-1.3,1.1-0.4,1.9
					C428.9,483.6,429.7,486,429.1,489.3z M393.7,508.9c0.4-0.2,1-0.4,1.6-0.7c4.9-2.4,9.7-5,14.3-7.9c4.7-3,9.5-6,14.3-8.9
					c1.3-0.8,2.2-1.8,1.1-3.3c-1.1-1.4-2.1-0.2-3.1,0.3c-9.4,5-18.2,10.9-27.8,15.5c-0.9,0.4-1.7,1.2-2.1,2.1
					C391.2,507.2,392.1,508.9,393.7,508.9z M376.5,537.6c-0.1-1.8-2.2-2.4-3.7-1.6c-8,4.2-14.9,10-21.7,15.8
					c-0.5,0.4-1.6,0.6-1.1,1.6c0.6,1,1.4,0.1,2.1-0.1c0.2,0,0.3-0.2,0.5-0.3c7.7-5,15.4-9.9,23-14.9
					C376,537.8,376.5,537.6,376.5,537.6z M383.7,533.4c0.1,0,0.1,0,0.2,0c0,0.3,0,0.5,0,0.8c0.1,1-0.5,2.5,1.1,2.6
					c1.5,0.1,1.6-1.4,1.9-2.5c0.4-1.5,0.5-3,0.7-4.5c1.1-6.4,1.8-12.9,1.9-19.4c0-0.7,0.1-1.6-0.9-1.7c-1.1-0.1-1.4,0.7-1.5,1.5
					C386,518,384.9,525.7,383.7,533.4z M387.2,504.4c-0.4-0.5-0.8-1.2-1.4-1.6c-5.8-4.3-11-9.5-17.2-13.3c-0.7-0.4-1.3-1.6-2.3-0.5
					s0.1,1.9,0.8,2.5c2.6,2.3,5.3,4.4,7.8,6.7c3,2.7,6.1,5.2,9.6,7.1C385.6,505.9,386.6,506.1,387.2,504.4z M376.9,509.6
					c0.1-1.1-0.3-1.9-1.3-2.5c-1.2-0.7-2.4-1.5-3.6-2.3c-1.5-1-2.4-0.5-2.8,1.1c-0.4,1.8-0.7,3.7-1,5.6c-0.1,0.7,0,1.4,0.7,1.6
					c2.1,0.8,3.7,3.5,5.9,2.6c2.1-0.8,1.1-3.7,2-5.6C376.9,509.9,376.9,509.7,376.9,509.6z M420,505.8c0-0.7,0-1.1,0-1.4
					c-0.1-2.7-1-3.2-3.3-1.9c-1.4,0.8-2.8,1.7-4.2,2.5c-1.2,0.7-1.8,1.5-1.5,3c0.9,5.7,0.8,5.7,5.7,2.4c0.3-0.2,0.6-0.4,0.9-0.6
					C419.3,508.9,420.4,507.6,420,505.8z M362.2,535.8c2.3-1.4,4.3-2.7,6.4-4c0.2-0.1,0.3-0.2,0.5-0.3c1-0.5,0.9-1,0.2-1.8
					c-2.4-2.9-2.5-2.8-5.2-0.5C362,531,361.8,533.1,362.2,535.8z M433.3,505.2c-2.1,2.4-6.2,2.2-5.1,6.4
					C432.8,510.1,433.3,509.5,433.3,505.2z M361,524.6c3.3-1.9,0.8-4,1.1-6.1C359.6,520.3,360.7,522.4,361,524.6z"/>
				<path d="M285.1,155.5c4.3,2.2,8.2,4.2,12.1,6.2c5,2.5,10,5.1,14.7,8.2c6.5,4.2,11.4,9.8,14.6,16.9c1.1,2.5,2.3,4.9,3.4,7.4
					c1.8,3.8,4.5,6.9,8.3,8.7c6.8,3.2,10.7,14,9.6,20.9c-0.6,4.1-3.2,6.6-7.1,7.8c-5.9,1.8-12,2.4-18.1,1.8
					c-17.3-1.5-34.7-1.9-52-1.6c-4.5,0.1-8.9,0.3-13.4,0.4c-1.4,0-2.1,0.3-2.1,2c-0.2,5.5-2.2,7.4-7.7,7.7c-5,0.2-9.7-1.1-14.6-1.8
					c-5-0.6-9.9-1.3-14.9-1.8c-4.1-0.4-8.2,0.3-12,1.9c-4.7,2-9.4,3.8-14.1,5.9c-12.1,5.5-24.3,4.1-36.4,0c-3.9-1.3-7.6-2-11.7-2
					c-14.9,0.1-29.5,2.3-44.1,5.1c-5.3,1-10.7,1.1-16,0.2c-2.4-0.4-4.9-0.5-7.3,0c-4,0.8-7.6,0.3-10.6-2.7c-1.4-1.4-3.3-1.9-5.2-2.1
					c-0.8-0.1-1.6-0.2-2.4-0.3c-6.1-1-8.4-3.6-8.8-9.8c-0.4-8.3,2.2-16,5.7-23.3c4.4-9.4,11.1-17.2,17.6-25.2
					c1.8-2.2,3.6-4.4,5.3-6.5c3.6-4.4,6.2-9.4,7.6-14.9c0.8-3.1,1.8-6.1,2.6-8.7c-5.5,0-11-0.2-16.5,0c-9.9,0.4-19.8,0.9-29.7,1.4
					c-0.5,0-0.9,0-1.4,0c-2,0-4.2-0.1-4.2-2.7c-0.1-2.7,2.2-2.5,4.2-2.6c12.2-0.7,24.5-1.4,36.7-2.1c3.2-0.2,6.4-0.2,9.5-0.4
					c2.9-0.2,5.2-1.1,6.9-3.9c4.8-7.8,10.2-15.2,17.1-21.1c5.7-4.8,12.7-7.4,20.3-5.1c6.9,2.1,13.8,2.7,20.9,2.5
					c10-0.3,18.2,4.5,25.5,10.8c6.5,5.7,12.4,12,17.3,19.2c0.8,1.1,1.4,1.4,2.9,1.2c2.6-0.3,5.3-0.2,7.9-0.2
					c1.6,0.1,2.8-0.4,3.5-1.9c4.6-10.5,13.2-15.5,23.9-18.4c7-1.9,13.8-4.2,21.3-4c5.8,0.1,9.9,2.4,12.7,7.3c2.2,4,4.5,7.8,7.6,11.3
					c1.5,1.8,3.1,2.3,5.5,2.1c16.7-1.1,33.4-2.1,50.1-2.9c27.2-1.3,54.5-2.8,81.7-2.5c25.4,0.2,50.9-0.3,76.3,0.8
					c22.5,1,45.1,0.5,67.6,1.5c11.5,0.5,23,1.3,34.4,3.8c1.5,0.3,3,0.8,4.4,1.3c5.7,2.3,7.6,5.5,7,11.7c-0.7,7.3-1.7,14.6-4.3,21.6
					c-0.9,2.5-1.3,5.1-1.3,7.8c0,9.4-1.5,18.6-4.2,27.6c-1.2,3.9-2.1,7.9-1.9,12.1c0.1,1.5,0.5,2.5,2.1,2.5
					c5.7,0.2,11.4,0.8,17.1-0.3c2.9-0.6,4.4-2.1,5.2-4.7c1.5-5.4,2.5-11,3.2-16.6c1.7-12.4,4.5-24.6,6.8-36.9
					c2.7-14.6,2.7-29.2-3.5-43.3c-3.2-7.3-7.9-12.9-15.2-16.4c-9.2-4.5-19.1-6.3-29.1-7.6c-48.9-6.4-97.9-8.3-147.2-7.2
					c-34.8,0.8-69.6,1.2-104.4,3c-26.9,1.4-53.7,3-80.6,4.4c-15.7,0.8-31.4,1-47.2,1.4c-23.1,0.6-46.2,0.9-69.2,1.8
					c-15.2,0.6-30.5,2-45.7,2.8c-7.4,0.4-14.8,1.6-22.2,0.9c-0.9-0.1-1.8-0.1-2.7-0.3c-1.5-0.3-2.5-1.3-2.4-2.9
					c0.1-1.7,1.2-2.6,2.8-2.8c0.6-0.1,1.3-0.1,1.9-0.1c14,0.3,28-0.7,41.9-1.8c21.6-1.6,43.2-2.3,64.8-2.7
					c27.2-0.4,54.3-1.1,81.5-2.3c27-1.2,53.9-3.2,80.8-4.6c17-0.9,34-1.2,51-1.7c33.5-0.9,67.1-1.7,100.6-1.1
					c22.6,0.4,45.2,1.8,67.7,4.1c14.5,1.4,28.9,2.7,43.2,5.6c6.6,1.4,12.9,3.6,18.9,6.7c6.9,3.7,11.8,9.2,15.1,16.3
					c5.9,12.8,7.5,26.2,6,40.2c-0.8,7.6-2.5,15-4.2,22.5c-2.5,10.8-3.1,21.9-5.5,32.8c-0.8,3.6-1.4,7.1-3,10.4
					c-1.3,2.7-3.3,4.4-6.3,5.1c-6.7,1.5-13.5,1.6-20.3,1.3c-4.3-0.2-5.3-1.5-6.4-5.7c-1.2-4.5-1-8.9,0.2-13.2
					c2.9-10.3,4.6-20.7,4.7-31.4c0-3.1,0.7-6.1,1.8-9c2.3-6,3-12.3,3.6-18.7c0.4-3.9-0.2-4.7-4-6c-5.7-2-11.7-2.5-17.7-3.2
					c-17-2-34.1-1.7-51.2-2.1c-42-1-84-2.1-126-1.7c-25.1,0.3-50.1,1.6-75.2,3c-11.1,0.6-22.1,1.2-33.2,1.8
					C287.7,154.9,286.5,154.7,285.1,155.5z M240.9,207.6c0.8-5.4-1.9-8.6-6.5-10.7c-1.8-0.8-3.6-1.7-5.5-2.5c-4.1-1.7-8-4-11.5-6.7
					c-3.1-2.4-6.5-4.2-10.3-5.4c-3.7-1.2-6.3-3.6-7.4-7.4c-0.9-2.8-1.9-5.5-3-8.1c-5-11.7-13.1-21.1-22.5-29.4
					c-7.4-6.5-15.8-10.6-26.1-9.5c-5.4,0.6-10.7-0.4-15.8-2.1c-4.7-1.6-9.4-1.7-14.1,0c-2.4,0.8-3.5,2.8-5,4.4
					c-9.9,10.6-18.4,22-21.9,36.5c-1.5,6.2-4.5,11.6-8.5,16.6c-2.7,3.3-5.4,6.6-8.1,9.9c-6.2,7.5-11.8,15.4-15.7,24.4
					c-2.3,5.3-3.9,10.8-3.8,16.6c0,3.5,0.7,4.3,4.2,4.7c4.3,0.4,8.2,1.3,11.5,4.4c1.2,1.1,2.6,1.1,4.1,0.7c3.5-0.8,7.1-0.6,10.6-0.1
					c4,0.6,8,0.7,11.9,0c15.1-2.7,30.2-5.3,45.7-5.3c5.2,0,10,0.6,14.9,2.3c10.4,3.6,21,5,31.6,0.1c4.4-2.1,9-3.8,13.5-5.7
					c4.6-2,9.4-2.9,14.3-2.6c7,0.5,13.9,1.4,20.8,2.6c3.1,0.5,6.1,1.1,9.2,0.9c1-0.1,2.1-0.2,1.9-1.4c-0.7-5.8,0-12-4.5-16.7
					C242.1,215.1,240.5,211.7,240.9,207.6z M325.5,227.9c3,0.1,6-0.3,9-0.7c1.4-0.2,2.8-0.6,4.2-1c1.7-0.4,2.9-1.2,3.4-3.1
					c0.9-4.3-1.8-12.2-5.7-14.3c-7.1-3.7-11.2-9.7-13.9-16.8c-3.4-8.7-9.3-15.1-17.4-19.4c-7.1-3.8-14.3-7.5-21.5-11.3
					c-1.8-0.9-3.6-1.8-4.8-3.5c-1.5-2.1-3.6-3.6-5.5-5.2c-3.5-2.8-7-5.7-8.7-9.9c-3-7.3-8.4-9.2-15.5-7.8c-0.2,0-0.4,0-0.5,0.1
					c-6.4,0.6-12.1,3.7-18.3,5.2c-6.8,1.6-11.6,5.8-15,11.8c-2,3.5-3.7,7.6-7.4,9.5c-5.2,2.8-5.3,6.4-3.2,11.1
					c1,2.3,2.2,4.2,4.8,4.6c2.7,0.5,5.3,1.4,7.5,3.1c6.4,4.9,13.5,8.5,20.8,11.8c6.3,2.9,9.6,7.8,9,15c-0.2,2.8,0.7,5.1,2.7,7.1
					c2.8,2.9,4.5,6.4,4.8,10.4c0.1,1.7,0.9,2.1,2.5,2c10.1-0.8,20.2-0.3,30.3-0.5C299.8,225.9,312.6,226.8,325.5,227.9z"/>
				<path d="M215.8,433.3c-10.7-3.9-15-13.8-11.5-25.5c0.9-2.9,2.2-5.5,3.9-8c4.6-6.9,9.7-9.1,17.7-7.2c2,0.4,2.6-0.1,3.3-1.7
					c1.5-3.3,3.9-5.9,7.5-7.1c1.1-0.3,1.4-0.9,1.5-2s-0.2-1.7-1.3-2c-2.8-0.8-5.3-2.3-8.1-3.1c-2.8-0.8-5.3-2.4-7.4-4.5
					c-4-3.9-7.9-7.7-11.7-11.8c-11.2-11.9-23.1-22.8-37-31.5c-16.3-10.2-34.1-15.5-53-17.6c-17-1.8-33.9-1.4-50.8,1.6
					c-6.1,1.1-11.9,3.2-17.2,6.5c-0.5,0.3-0.9,0.6-1.4,0.8c-1.3,0.6-2.5,0.5-3.4-0.8c-0.9-1.4-0.5-2.7,0.8-3.6
					c2.6-1.9,5.4-3.4,8.3-4.6c8.2-3.5,16.9-5,25.7-5.8c20-1.8,39.8-1,59.3,3.8c21.8,5.4,40.3,16.6,56.9,31.4
					c8.2,7.3,15.8,15.3,23.3,23.3c4.6,4.9,10.4,7.8,16.4,10.3c1.4,0.6,2,0.2,2.2-1.2c0.4-2.6,0.9-5.2,1.3-7.8
					c0.8-5.3,1.6-5.7,6.8-6.4c9.4-1.3,19-1.4,28.5-1.8c3.1-0.1,5.9,1,8.1,3.3c1.8,1.9,3.6,3.8,5.4,5.8c2.2,2.6,3.3,5.5,3.3,9
					c0,4.3,0.9,8.5,0.5,12.8c-0.1,1.3,0.4,1.5,1.6,1.4c11-1.3,22-2.6,33-3.9c1.1-0.1,2.1-0.4,2.7-1.5c3.1-5.9,9.6-5.6,14.4-0.1
					c0.9,1,1.7,1.6,3,2c2.7,1,5,2.8,6.4,5.3c1,1.8,2.3,3.1,4.1,4.1c0.2,0.1,0.5,0.3,0.7,0.5c1.9,2.5,3.9,4.6,7,5.8
					c2,0.8,2.2,3.2,2.1,5.3c-0.7,8.8-4,16.6-10.3,22.9c-3.9,3.9-9.2,5.1-14.5,5.5c-17.3,1.3-34.6,2.9-52,2.3
					c-14.7-0.4-29.2,0.3-43.8,2.3c-4.2,0.6-8.5,0.7-12.8,0.3c-1.9-0.1-3.7-0.6-4.1-2.8c-0.2-1-0.8-1.1-1.6-1.1
					c-1.1,0-2.3,0.2-3.2-0.2c-4-1.9-6.3,0.1-8.4,3.2c-1.3,2-3,3.7-4.4,5.5c-1.6,2.1-3.7,2.8-6.3,2.4c-2.7-0.4-5.4-0.9-8-1.4
					c-1.6-0.3-2.8-1.2-2.6-2.9c0.2-1.8,1.4-2.4,3.1-2.4c2.2,0,4.3,0.5,6.4,1c1.7,0.5,3.1,0.3,4.3-1.4
					C211.9,437.7,213.9,435.6,215.8,433.3z M235.6,433.9c0.8,0.9,1.6,0.6,2.4,0.6c4.3-0.2,8.5-0.3,12.8-0.8
					c9.8-1.3,19.7-2.6,29.6-2.1c20.4,0.9,40.7-0.7,61-2c5.5-0.4,11.1-1.3,14.8-6.3c3.3-4.5,5.4-9.4,6.4-14.9
					c0.2-0.9,0.8-2.1-0.6-2.6c-1.3-0.4-2.5-0.3-3.3,1.1c-0.8,1.3-1.7,2.6-2.4,3.9c-4.5,8.3-11.7,12.2-20.8,13.5
					c-15.4,2.2-30.9,1.7-46.4,3c-12.8,1.1-25.8,0.8-38.7,1.1c-2.8,0.1-5.4-0.1-7-3.3C241.8,429.4,238.4,431.3,235.6,433.9z
					 M307.9,420.9C307.9,420.9,307.9,421,307.9,420.9c3.4-0.2,6.9-0.4,10.3-0.7c6.3-0.5,12.7-0.8,18.9-2.1c5.7-1.2,10.2-4,13.3-9.1
					c1.7-2.8,3.1-5.8,5.6-8c0.7-0.6,0.3-1-0.2-1.5c-1.8-1.6-3-1.4-4.5,1.1c-2.7,4.6-6.1,8-11.8,8.7c-11.3,1.3-22.4,3.3-33.7,4.1
					c-1.5,0.1-2.7,0.1-3,2.2c-0.8,5.5-0.9,5.5,4.7,5.3C307.6,420.9,307.7,420.9,307.9,420.9z M304.8,407.7c0.6,0,0.9,0,1.3-0.1
					c9.5-1.1,18.9-2.5,28.4-3.3c5.8-0.5,10.3-2.3,12.9-7.8c0.4-0.8,1.1-1.4,1.8-2c0.8-0.6,0.7-1,0.1-1.7c-2.4-2.8-4.1-2.8-6,0.4
					c-1.9,3.3-4.7,5.3-8.5,5.7c-9.4,1-18.7,2.1-28.1,2.9c-4,0.4-4,0.2-3.5,4.2C303.3,407.3,303.7,408,304.8,407.7z M251.9,364.4
					c4.3,5.6,9.5,8.3,16.5,6.5c0.7-0.2,1.4-0.1,2.2-0.2c4.6-0.6,9.3-0.8,14.7-1c-3.8-3.6-5.8-8.9-12.1-6.7c-1.7,0.6-3.8,0.2-5.7,0.2
					C262.2,363,257.1,363.7,251.9,364.4z M245.9,367.6c-0.8,5.2-1.4,9.9-2.1,14.7c-0.1,0.4-0.1,1,0.1,1.3c2.5,3.1,5,6.2,8,9.9
					c0.6-6.9,1.1-12.8,1.6-18.8c0-0.6-0.1-1.1-0.6-1.4C250.7,371.5,248.5,369.7,245.9,367.6z M238.3,414.2c-0.3-1.6-0.6-3.7-1-5.8
					c-0.5-2.2-1.1-4.4-2.4-6.3c-0.7-1.1-1.8-2-3.1-1.4c-1.4,0.7-1.3,2.1-0.9,3.3c0.4,1.5,1.1,2.9,1.6,4.3c1.3,3.4,1.7,6.9,0.7,10.4
					c-1.1,3.8-3,7-6.7,8.8c-0.9,0.4-1.9,1-1.6,2.2c0.2,0.8,0.9,1,1.7,1c3.3,0.3,8-2.3,9.2-5.2C237.3,422.1,238,418.5,238.3,414.2z
					 M243.4,413.1c0.1-1.1,0.2-2.1,0.3-3.2c0.4-3-0.3-6.4,1.5-8.7c3-3.9,0.8-6.2-1.5-8.8c-0.5-0.5-0.9-1.1-1.4-1.7
					c-2.2-2.7-4-2.8-6.5-0.2c-1.1,1.1-1.7,2.6-2.4,3.9c-0.5,1-0.2,1.6,0.7,2.2c2.5,1.6,3.9,3.9,5.2,6.5
					C241.1,406.3,241.9,409.7,243.4,413.1z M304.7,396.3c9.3-0.9,19.3-1.9,29.3-2.9c3.8-0.3,4.7-3.6,6.6-6c0.4-0.5,0.1-0.8-0.2-1.2
					c-1.5-1.8-3.6-1.8-4.7,0.2c-1.6,2.9-4.1,4-7.1,4.4c-8.8,1.1-17.6,2.2-26.5,3.4c-0.7,0.1-2-0.3-2,0.8c-0.1,1.3,1.2,1.4,2.2,1.3
					C302.8,396.3,303.4,396.3,304.7,396.3z M280.5,408.7c0-0.6,0-1.3,0.1-1.9c0.3-2.1-0.3-2.8-2.6-2.8c-6.6,0.3-6.6,0.2-6.4,6.8
					c0,0.1,0,0.2,0,0.3c-0.4,2.7,0.7,3.4,3.4,3.2C280.3,413.8,280.3,413.9,280.5,408.7z M285.8,408.6c0,4.8,0,4.8,4.8,4.3
					c0.5,0,0.9-0.1,1.4-0.1c2.1-0.3,1.3-2,1.1-3c-0.2-1.9,1.4-4.6-1.1-5.5C287.8,402.6,285.8,404.2,285.8,408.6z"/>
				<path d="M413.4,305c-7.5-2.5-14.8-4-22-5.6c-9.5-2.1-18.5-5.8-27.4-9.8c-6.1-2.7-7.5-6.7-4.8-12.8c0.5-1.2,0.8-1.5-0.9-2.1
					c-3.2-1.2-5.4,0.1-7.9,1.8c-6.6,4.6-8.7,3.7-10.7-4.2c-0.4-1.6-0.8-3.2-1-4.8c-0.3-1.7,0.1-3.2,2-3.6c2-0.4,3,0.7,3.4,2.6
					c0.4,1.7,0.8,3.4,1.1,5.1c0.3,1.5,0.9,1.5,2,0.7c1.2-0.9,2.4-1.7,3.7-2.4c1.7-0.9,2.4-2.2,2.5-4.1c0.4-5.8,1.7-11.5,4.2-16.8
					c4.4-9.1,16.9-13.9,26.3-9.8c1.5,0.7,2.5,0.7,3.4-0.8c0.2-0.3,0.5-0.6,0.7-0.9c4.5-7.7,11.5-10,19.9-9.6
					c8.3,0.4,16.5,1,24.6,2.4c3.2,0.6,4.8,2.3,5.5,5.5c0.8,4.2,1.9,8.3,3.1,12.4c0.6,2.2-0.6,3.9-1,5.8c-0.5,2.3-2.6,4.9-1.4,6.5
					c1,1.4,4.2,1.2,6.4,1.6c9.4,1.6,18.3,5.3,27.6,7.3c0.1,0,0.2,0,0.3,0.1c5.1,2.1,9,1,12.5-3.5c3.3-4.2,7.7-4,11.5-0.1
					c2.9,3,4.6,6.5,3.2,10.9c-0.3,0.8-1.3,2.4-0.2,2.6c1.6,0.3,3,2.2,5,0.6c2.5-1.9,5.3-3.1,8.4-3.7c8-1.5,15,0.8,20.7,6.4
					c6,5.8,12,11.6,16.6,18.7c2.3,3.6,5.6,6.4,8.8,9.3c4.3,3.9,4.9,9.7,1.5,14.5c-3.9,5.6-9.7,8-16.2,8.9c-5.5,0.8-11,1.3-16.6,1
					c-2.8-0.2-3.3,0.8-2.9,3.2c0.5,3,0.9,6.1,1.3,9.2c0.2,1.1,0.4,2.2,0.4,3.2c0.3,3.8-1,5.6-4.8,6.3c-5,1-10.1,1.4-15.1,1.9
					c-8.3,0.9-16.6,1.8-24.9,2.5c-10.7,0.8-21.3-0.3-31.8-1.8c-7.2-1.1-14.2-1.1-21.4,0.4c-7,1.5-12.1-0.6-15.8-6.2
					c-2.3-3.4-2.3-6.7,0-10.2c2.4-3.5,5.6-6.1,9-8.6c5.5-4,11.4-7.5,16.5-12.1c2.3-2.1,4.2-4.5,6.2-6.9c1.1-1.3,0.4-1.6-0.7-2
					c-7.4-2.6-14.7-5.2-22.4-6.8c-1.6-0.3-2.6,0.1-3.7,1c-5.4,4.6-10.9,9.1-16.3,13.6c-0.8,0.6-1.5,1.3-2.3,1.9
					c-1.5,1.3-3.2,2.2-4.8,0.4c-1.6-1.9-0.5-3.5,1.1-4.9c2.6-2.2,5.2-4.5,7.9-6.7C406.7,310.3,409.9,307.8,413.4,305z M476.8,356
					c4,0.2,9.4-0.5,14.8-1.1c9-1,18-2,27.1-3c2-0.2,2.8-0.8,2.3-3.1c-0.8-3.4-1.4-6.9-1.4-10.5c0-6.5-2.8-11.7-7.9-15.4
					c-4.6-3.3-9.3-6.4-14.3-8.9c-3-1.5-5.6-3.4-8-5.6c-4.8-4.3-9.9-7.2-16.6-5c-0.8,0.3-1.8,0.2-2.7,0.2c-2.5-0.1-4.7,0.8-6.1,2.9
					c-2.6,3.7-6,6.5-9.9,8.9c-1.7,1.1-3.2,2.5-4.3,4.1c-4.7,6.6-10.9,11.3-17.5,15.8c-4.2,2.8-8.4,5.6-12.1,9.2
					c-4.5,4.3-2.6,6.9,2.3,9.8c1.4,0.8,3,0.6,4.5,0.3c7.3-1.6,14.7-2.1,22.2-0.9C457.7,354.9,466.5,355.9,476.8,356z M532.7,329.5
					c2.8-0.2,6.2-0.4,9.5-0.8c4.8-0.6,9.5-1.7,13-5.6c2.8-3.2,2.8-5.9-0.4-8.7c-4.3-3.7-7.9-8-11.1-12.7
					c-4.3-6.1-9.5-11.5-15.2-16.3c-9.2-7.7-19.5-3.8-25.8,3.5c-0.5,0.6-2.2,1.8-0.4,2.8c2.7,1.6,2.8,3.9,1.9,6.4
					c-0.5,1.5-0.3,1.9,1.3,2.3c3.6,0.9,5.1,3.9,3.6,7.4c-0.6,1.4-1.4,2.8-2.4,3.9c-1.4,1.5-0.9,2.1,0.6,3.2
					c4.8,3.7,10.6,6.4,14.4,11.1c2.2,2.8,4.5,3.5,7.5,3.4C530.1,329.4,531.1,329.5,532.7,329.5z M426.3,295
					c-1.5-0.5-2.4-0.8-3.4-1.1c-6.4-2-12.8-3.9-19.2-6.1c-3.5-1.2-7.1-2.4-9.7-5.3c-2.2-2.6-6.3-2.5-8-5.8c0-0.1-0.3-0.1-0.5-0.1
					c-5.7,0.8-11.2-0.6-16.8-0.9c-2.7-0.2-4,0.2-4.9,3c-1,3.5-1,4.5,2.4,5.9c8.4,3.5,16.7,7,25.7,8.9c8.5,1.8,17,3.7,25.3,6.5
					c1,0.3,1.9,0.5,2.8-0.2C422,298.3,424,296.8,426.3,295z M362.6,251.8c-2.5,5.2-3,10.3-3.7,15.5c-0.2,1.8,0.9,1.8,2.2,1.9
					c5.8,0.5,11.6,1.1,17.4,1.6c3.9,0.3,4,0.3,4.6-3.5c1-6.1,2.4-12.2,1.3-18.4c-0.4-2.4-1-4.8-4-5.5c-4.9-1.2-9.1,0.8-13.4,2.6
					c-0.6,0.2-0.8,0.8-0.5,1.4c1.2,2.6,2.7,5,5.1,6.6c1.8,1.2,3.4-0.4,5.1-0.8c0.6-0.2,1.2-0.5,1.8-0.7c1.4-0.3,2.6,0,3.2,1.4
					c0.6,1.3,0.2,2.5-1,3.4c-0.7,0.5-1.4,0.9-2.2,1.1c-3.8,0.9-6.9,2.4-7.5,6.9c-0.2,1.3-1.6,2-3,1.6c-1.5-0.4-2-1.6-1.8-2.9
					c0.2-1.4,0.8-2.8,1.2-4.2c0.2-0.8,0.7-1.5-0.1-2.2C365.5,256,364.2,254,362.6,251.8z M438.8,292.5c6.8,1.9,13.2,3.7,19.5,5.4
					c1,0.3,2,0.3,2.7,1.1c0.8,0.9,1.4,0.7,2.3,0.2c4.3-2,9.1-1.4,13.5-2.8c0.5-0.2,1.2,0.2,1.8,0.3c4.3,1.1,8.1,3.3,11.4,6.1
					c1.1,0.9,2,1.4,3.3,0.3c1.9-1.6,3.6-3.3,4.9-5.4c0.3-0.5,1-1.1,0.3-1.7c-0.5-0.5-1.2-0.3-1.7,0.1c-1.7,1.2-3.7,1.6-5.7,1.3
					c-2-0.3-3.9-0.7-5.9-1.1c-11.4-2.5-22.9-4.7-34-8.7c-5.7-2.1-11.6-3.5-17.5-5.1c-1.1-0.3-2.2-0.9-3.1,0.7
					c-2.3,3.9-2.9,4.1-7.4,3.2c-3.2-0.7-6.5-1.3-9.7-1.9c5.6,2.2,11.3,3.9,17.1,5.7c1.1,0.3,1.9,0,2.8-0.6c1.4-1,2.8-2.1,4.3-2.8
					c1.2-0.6,2.6-0.5,3.4,0.8s0.4,2.4-0.6,3.4C440.1,291.5,439.7,291.8,438.8,292.5z M488.3,282.5c3.9,0.1,7.2-5.2,5.9-9.1
					c-1.7-5.4-2.9-5.8-6.5-1.6s-7.8,5.7-13.1,4c-3.1-1-6.3-1.6-9.5-2.5c-8.8-2.5-17.4-5.7-26.5-7c-1.2-0.2-2.7-1.1-2.9,1
					c-0.3,2.1,1.6,1.3,2.5,1.6c3.7,0.9,7.4,1.6,10.9,3.2c4.7,2.1,9.5,3.7,14.3,5.1C471.8,279.7,480.3,280.9,488.3,282.5z
					 M390.4,270.9c2.9-3.8,6-7.4,8.5-11.5c3.7-6.1,9.1-8.2,15.9-7.7c6,0.4,11.9,0.8,17.9,1.2c1.6,0.1,2.4-0.2,2.7-1.8
					c0.4-1.9-1.3-1.5-2.1-1.7c-6.8-1.8-13.7-2.4-20.7-2.8c-5.1-0.3-9.2,1.5-12.7,5.1C394.7,257.2,392.6,264,390.4,270.9z
					 M425.6,302.5c9,1.5,16.5,5.2,24.6,7.5c0.5,0.1,0.9,0.2,1.3,0c2.5-1.6,5.1-3.1,6.5-6c-7.8-2.2-15.5-4.3-23.2-6.5
					c-1.1-0.3-2-0.7-3.1,0.1C430,299.1,428.1,300.6,425.6,302.5z M497.5,285.4c-3.5,1.8-6.4,3.6-10,2.9
					c-13.8-2.6-27.7-5.1-40.6-10.9c-3.8-1.7-7.8-2.4-11.8-3.2c-1.3-0.3-1.8,0.4-2,1.5c-0.3,1.1,0.4,1.3,1.3,1.6
					c5.2,1.4,10.4,2.5,15.5,4.2c13.4,4.5,27.1,7.2,40.9,10.2c1.9,0.4,3.2-0.1,4.2-1.6C495.8,288.9,496.8,287.7,497.5,285.4z
					 M416.1,259c-5.7,0.1-4.7-0.7-6,3.6c-1.4,4.6-2.6,4.3,3.3,4.9c4.4,0.5,4.4,0.4,6.1-3.6C421.5,259,421.5,259,416.1,259z
					 M428.4,260.2c-0.9-0.3-1.5,0-1.9,0.9c-0.8,1.9-1.6,3.8-2.4,5.8c-0.2,0.5-0.3,1,0.4,1.3c2.3,1.2,5.1,0.2,5.9-2.3
					c0.2-0.6,0.4-1.2,0.6-1.8C432.1,260.8,432,260.7,428.4,260.2z M497,307.6c3.6,3.3,4.3,3.2,6.4-0.5c0.7-1.2,0.5-1.4-0.9-1.9
					C499.7,304.2,498.5,306.1,497,307.6z"/>
				<path d="M63.9,481.5c-4.4,0.3-8.1,0.5-11.8,0.8c-11.6,1-15-9-13.1-16.1c1.3-4.9,3.2-9.5,6.3-13.5c2.7-3.4,4.8-7.2,7-10.9
					c2.6-4.4,6.7-7.6,10.4-11.1c2.8-2.7,5.2-5.6,7.3-8.8c1.1-1.7,2.4-3.2,3.9-4.5c3.3-3,4.9-6.7,6-11c4.4-16,12.5-29.3,27.1-38.1
					c3.5-2.1,6.7-4.7,10.3-6.6c5.7-3,11.1-2.5,16.1,1.2c3.5,2.6,7.2,4.1,11.5,4.6c1.9,0.2,3.7,0.7,5.6,1.3c4,1.2,6.7,3.8,7.5,7.9
					c1.6,8.3,5.1,15.8,9.8,22.9c2.8,4.2,4.4,9,6,13.7c1.4,4,3.2,7.9,5.9,11.3s4.3,7.3,5.7,11.4c2.9,8.5,8.7,14.9,15.6,20.5
					c0.7,0.5,1.3,0.8,2.2,0.4c7.8-3.3,15.7-2.3,23.4,0.3c8.6,2.8,16.2,7.3,23.5,12.5c6.5,4.7,13.1,9.1,20.1,13.1
					c14.7,8.6,29.8,10.8,45.9,4c7.6-3.2,15.4-6.1,23.2-8.7c9.4-3.1,19.1-3,28.8-1.3c1.8,0.3,3.4,1.3,3,3.5s-2.1,2.6-4,2.2
					c-12.7-2.5-24.7-0.4-36.4,4.8c-5.7,2.5-11.7,4.4-17.6,6.6c-13,4.7-25.5,3.3-37.9-2.1c-11.1-4.8-20.8-11.9-30.6-18.8
					c-8.1-5.7-16.7-10.4-26.5-12.3c-3.4-0.7-6.8-0.5-10.6,0.1c2.4,2.6,4.3,4.8,5.3,7.7c1.5,4.5,0,6.8-4.8,7
					c-11.5,0.3-22.9-0.6-34.3-1.5c-2.3-0.2-4.5-0.4-6.7,0.4c-2.8,1-2.8,1.1-1,3.3c6.3,7.5,13,14.7,18.8,22.6
					c8.6,11.7,18.9,21.8,28.6,32.5c1.1,1.2,1.6,0.8,2.5-0.2c4.3-5.1,9.2-9.6,14.7-13.4c10.5-7.2,23-5.5,30.5,4.9
					c4.5,6.2,9.3,11.8,15,16.8c4,3.5,6.8,8,9.9,12.3c5.8,8.2,13.2,14.2,22.4,18.1c8.9,3.9,17.8,7.7,26.8,11.5c2.5,1.1,5,2.3,7.1,3.9
					c2.1,1.6,3.7,3.7,2.8,6.5c-0.8,2.8-3.1,3.9-5.8,4.3c-3.9,0.5-7.8,0.2-11.7-0.6c-14.8-3.2-29.5-2.2-44.4-0.4
					c-8.5,1-17.3,2.6-25.7,0.3c-7-1.9-14-2.3-21.1-2.4c-15.7-0.4-31.3-3.1-46.9-4.6c-16.6-1.7-33.2-1.8-49.8-0.2
					c-10.6,1-21.3,0.7-31.9,1.4c-11.5,0.7-23.1,0.7-34.6,1c-4.8,0.1-9.6-0.2-14.3-1.4c-1.9-0.5-3.8-0.4-5.6-0.8
					c-5.9-1.1-10.3-4.5-13.4-9.5c-1.9-3-0.9-6.4-0.5-9.6c1.5-10.2,3.2-20.4,4.9-30.7c0.7-4.3,0.6-8.7,0.1-13.1
					c-1-10.7,2.9-19.8,8.3-28.5C56.2,493,59.3,487.1,63.9,481.5z M239.9,588.9c4.6,0.6,8.6-0.8,12.1-3.4c3.6-2.7,4.3-6.8,1.9-10.6
					c-1.1-1.8-2.6-3.3-4.2-4.7c-6.6-5.9-14-10.7-21.4-15.5c-5.3-3.4-10.1-7.3-14.1-12.2c-5.2-6.3-10.5-12.6-16.7-17.9
					c-2.1-1.8-3.9-3.8-5.5-6c-11.1-14.5-23.2-28.2-34.8-42.3c-6.3-7.7-13.2-14.7-22.1-19.6c-3.4-1.8-6.7-2.3-10.4-1.1
					c-3.7,1.3-7.4,2.9-11.3,2.8c-5.1-0.2-9.4,1.7-13.4,4.6c-7.7,5.6-15.8,10.6-24.3,15c-1.4,0.7-2.6,1.6-3.7,2.7
					c-5.6,5.5-10,12-14.3,18.5c-5.3,8.1-8.5,16.7-7.7,26.7c0.5,7.2,0.7,14.5-0.9,21.7c-1.9,8.5-2.6,17.2-4.2,25.8
					c-0.5,2.7,0.2,4.8,2.2,6.8c2.3,2.3,5,2.9,8,3.5c4.9,1,9.7,2.4,14.7,2.5c18.1,0.3,36.1-1.1,54.2-1.5c6.3-0.1,12.5-0.5,18.8-1
					c18.2-1.6,36.3-1.1,54.4,1.2C211.4,586.7,225.6,588.2,239.9,588.9z M200.6,469.8c1.4-0.1,2.7-0.1,4.1-0.2c0.6,0,1.4,0.2,1.7-0.4
					c0.4-0.8-0.4-1.3-0.8-1.9c-1.7-2.3-4.3-3.6-6.6-5.2c-9.2-6.7-16.4-15.1-19.8-26.2c-0.7-2.5-1.8-4.7-3.4-6.8
					c-3.4-4.3-5.9-9.2-7.6-14.4c-2-5.8-4.4-11.3-7.9-16.4c-3.3-4.8-5.4-10.1-6.7-15.7c-2-8.1-2.3-8.3-10.5-9.6c-0.1,0-0.2,0-0.3,0
					c-4.3-0.4-8.2-1.8-11.5-4.5c-4.2-3.4-8.5-3.5-13.1-0.6c-6,3.8-11.7,7.9-17.2,12.5c-4.7,4-8.3,8.9-10.6,14.6
					c-1.7,4.2-3.2,8.5-4.9,12.7c-2.5,6-4.1,12.7-8.8,17.4c-5.1,5-10,10.2-15.6,14.7c-1.6,1.3-3.2,2.5-3.8,4.5
					c-1.2,3.7-3.3,6.8-5.8,9.8c-3.4,4.2-5.9,8.9-7.1,14.3c-1.1,5,1.6,8.4,6.7,8.4c5.5,0,11.1-0.6,16.5-1.5c2.2-0.4,4.1-1.3,6-2.4
					c8.7-5.1,17.2-10.5,25.5-16.2c3.5-2.4,7.4-3.9,11.7-3.8c3.4,0,6.7-0.8,9.8-2c7.2-2.9,13.7-1.6,20.1,2.5
					c6.8,4.5,12.9,9.8,18,16.1c1.3,1.6,2.2,2.1,4.2,0.9c3.2-1.9,6.9-2.4,10.6-1.8C182.6,469.8,191.7,468.7,200.6,469.8z
					 M338.8,591.6c-1.8-1.6-3.7-2.4-5.6-3.2c-9.2-4-18.3-7.9-27.5-11.9c-9.4-4.1-17.1-10.1-23.2-18.4c-3.3-4.4-6.1-9.3-10.3-13
					c-6-5.3-11.2-11.2-15.9-17.8c-5.3-7.5-14.4-8.7-22.1-3.7c-5.6,3.6-10.4,8.2-14.8,13.2c-1,1.1-1,1.8,0,2.9
					c2.5,2.6,5.1,5.2,8.1,7.3c5.6,3.8,11.4,7.5,16.9,11.5c5.2,3.7,10.4,7.4,14.1,12.7c4.2,6,3.6,12.6-1.5,17.8
					c-0.4,0.4-1,0.7-1.8,1.2c1.9,1.1,3.3,1.3,4.7,1.5c8.6,0.7,17.2-0.2,25.8-0.9c9.9-0.9,19.8-2.7,29.8-1.3
					c5.7,0.8,11.5,1.7,17.3,2.5C334.6,592.1,336.5,592.5,338.8,591.6z"/>
				<path d="M282.2,627c-27.1,0-54.2,0.5-81.3-0.4c-43.5-1.5-87.1-1.1-130.6-1.9c-11.6-0.2-23.4-0.9-35-1.8c-0.5,0-1.1-0.1-1.6-0.3
					c-1.8-0.5-3-1.6-2.5-3.6c0.4-1.8,1.9-2.3,3.6-2.1c5.5,0.7,11.1,0.6,16.6,1c27.9,1.9,55.8,1.4,83.7,1.5
					c29.3,0.2,58.5,1.7,87.8,1.7c66.3,0.1,132.5,0.4,198.8-0.6c22.8-0.4,45.6,0.5,68.4,0c7.2-0.2,14.3-0.9,21.5-1.7
					c10.3-1.1,17.3-6.9,22.5-15.4c4.3-6.9,6.5-14.8,9.7-22.2c3.6-8.3,3.9-17.3,5.4-26.1c0.5-3,1.2-6.1,1.2-9.2
					c0-2.6,1.8-3.7,4.1-3.9c7.8-0.9,15.6-1,23.4-0.8c3.7,0.1,5.9,2.4,6.9,6.3c1.2,5-0.4,9.7-1.4,14.5c-0.8,3.9-2,7.8-3.8,11.4
					c-5.4,11.2-9.3,23.1-13.5,34.7c-3.1,8.4-6.6,16.5-11.1,24.2c-6.3,10.9-15.8,16.6-28.3,17.7c-20.3,1.8-40.6,2.8-60.9,4.4
					c-20.7,1.6-41.5,3.1-62.3,4.2c-36.4,1.9-72.8,3-109.3,2.1c-19.4-0.5-38.9,0.3-58.3-0.8c-47.1-2.7-94.3-2.3-141.5-2.3
					c-3.8,0-7.6,0.2-11.4,0c-9.1-0.5-18.2-1.2-27.3-1.8c-5.2-0.3-10.3-0.7-15.5-1c-0.8-0.1-1.6,0-2.4-0.2c-1.5-0.4-2.4-1.4-2.3-3
					s1.2-2.5,2.7-2.6c1.7-0.1,3.5-0.1,5.2,0.1c17.3,1.8,34.6,2.7,52,2.6c30.8-0.1,61.6,0,92.4,0.5c20.1,0.3,40.1,2.1,60.2,2.3
					c35.4,0.2,70.9,1.2,106.3,0.3c22.1-0.5,44.1-1.6,66.2-3c25.4-1.7,50.8-3.4,76.1-5.2c11.2-0.8,22.5-1.3,33.7-3
					c8-1.2,14-5.4,18.3-12c6.3-9.7,10.4-20.6,14.3-31.4c3.4-9.4,6.6-18.8,11-27.9c3.1-6.4,4.8-13.3,5.6-20.4
					c0.5-4.4-0.4-5.2-4.7-5.2c-5.5,0-10.9,0.2-16.4,0.2c-1.5,0-2.1,0.4-2.4,2.1c-1.9,8.1-1.9,16.4-3.8,24.5
					c-2.8,11.9-7.1,23.3-13.4,33.8c-6.6,11-16.4,16.6-29.2,17.8c-19.7,1.8-39.4,1.5-59.1,1.3c-34.1-0.4-68.2,0.7-102.3,0.7
					C326,626.9,304.1,627,282.2,627z"/>
				<path d="M714.6,245.4c-2-4.1-3.5-7.6-4-11.5c-0.6-4.4-0.1-8.6,1.1-12.9c6.1-21.3-0.8-38.9-15.9-54c-6.8-6.9-14.5-12.7-22.8-17.7
					c-11.5-6.8-15-15-11.8-28.9c1-4.4,2.2-8.8,2.8-13.3c1.6-12.4-4-22.3-15.6-27c-3.5-1.4-7-2.6-10.5-3.9c-1.7-0.6-3.1-1.5-2.5-3.5
					c0.6-2.1,2.5-2,4.1-1.5c5.5,1.8,11.2,3.4,16.2,6.4c9,5.3,13.5,13.3,14.2,23.7c0.4,7.1-1.5,13.9-3,20.7c-0.6,2.9-1.1,5.7-0.8,8.6
					c0.5,5.4,2.5,9.7,7.6,12.7c12,7,23,15.2,32.1,25.9c13.1,15.5,17.2,33,11.9,52.4c-2.1,7.8-0.8,14.4,3.6,20.9
					c2.5,3.7,5,7.3,8.3,10.4c3.4,3.1,5.1,7.5,7.9,11c0.6,0.7,0.8,1.9,0.1,2.6c-1.6,1.6-0.6,3.1-0.1,4.7c2.4,6.5,4.5,13,5.1,20
					c1,11.9-3.8,20.8-14.3,26.6c-8.2,4.6-17.3,6.5-26.4,8.2c-13.6,2.5-27.4,3.4-41.1,5.4c-29.3,4.1-56.7,13.2-81.1,30.4
					c-11.3,8-23.3,14.6-36.2,19.9c-8.1,3.3-16.6,5.6-24.6,9.6c-3.9,1.9-8.3,2.5-12.6,2.9c-3.5,0.3-6.7,1.6-9.8,3
					c-11.3,5-22.8,4.7-34.3,1.1c-9.3-2.9-18.2-6.9-26.5-12c-12.9-7.9-26.2-8.3-39.9-2.6c-3.6,1.5-7.2,3-10.8,4.5
					c-8.5,3.5-17.2,3.4-26,1.5c-1.6-0.4-3.2-0.7-4.8-1.1c-1.5-0.3-2.5-1.1-2.4-2.8c0.2-1.7,1.4-2.3,2.9-2.3c1.3,0,2.5,0.2,3.8,0.6
					c9.4,2.5,18.5,1.9,27.4-2.3c5.9-2.8,11.8-5.6,18.3-6.8c11.9-2.3,23.1-0.5,33.6,5.8c9.5,5.7,19.4,10.3,30.2,13
					c8.6,2.1,17,1.9,25.4-1.6c9.1-3.8,18.9-5.5,28.3-8.6c21.5-7.1,41.6-16.8,60.2-29.8c20.8-14.6,44.5-22.3,69.4-26.7
					c13.8-2.5,27.7-3.5,41.6-5.5c8.4-1.2,16.7-2.7,24.7-5.4c1.7-0.6,3.4-1.2,5.1-2c12-5.4,16.4-14.1,13.7-26.9
					c-2-9.5-5.4-18.4-10.3-26.8c-0.9-1.5-2-2.7-3.6-3.5c-4.8-2.5-9.3-5.3-13.5-8.6c-7.5-6.1-16.3-9.6-25.6-11.4
					c-7.1-1.4-13.8,0-19.4,5c-2.5,2.2-4.9,4.6-7.3,6.9c-0.9,0.8-1.7,1.7-2.9,1.9s-2.2,0-2.8-1.1c-0.6-1-0.6-2,0.2-2.8
					c6.7-6.5,12.5-14,22.7-15.6c8.4-1.3,16,0.9,23.6,3.8c5.5,2.1,10.7,5.1,15.3,8.8C712.9,244.3,713.5,244.6,714.6,245.4z"/>
				<path d="M981.8,679.5c-8-0.4-15.3-1.7-22.1-4.4c-6.1-2.5-11.8-2.5-17.4,1.1c-1.4,0.9-3,1.2-4-0.5c-1-1.6-0.2-3,1.3-3.9
					c6.3-4.2,13.1-5,20.2-2.5c5.9,2.1,11.9,3.8,18.2,4.2c6.5,0.4,12.7-0.5,18.6-3c0.4-0.2,0.8-0.3,1.3-0.5c1.7-0.6,3.2-0.3,3.9,1.4
					c0.7,1.7-0.1,3-1.6,3.8c-3.9,1.9-8,3-12.2,3.7C985.7,679.2,983.4,679.3,981.8,679.5z"/>
				<path d="M884.7,588.1c-5.9,0-11.4-1.3-16.5-3.8c-6.7-3.3-12.1-1.6-16.9,3.4c-0.4,0.5-0.9,0.9-1.4,1.3c-1.2,1-2.4,1.3-3.7,0.2
					c-1.2-1.1-1-2.4-0.2-3.7c4.8-7.2,13.9-10.2,22-7.2c3.3,1.2,6.6,2.6,10,3.4c5.8,1.3,11.3,0.3,16.9-1.2c2.2-0.6,4.6-1.7,5.8,1.3
					c0.8,1.9-0.7,3.3-4.4,4.3C892.6,587.2,888.6,588.1,884.7,588.1z"/>
				<path d="M994.9,438.5c-4.1,0.1-8-1.1-11.5-3.1c-6.5-3.6-12.1-2.8-17.4,2.3c-1.3,1.2-2.8,2-4.3,0.4s-0.6-3,0.7-4.2
					c5.1-4.8,12.3-8.6,20.9-4.4c0.1,0,0.2,0.1,0.2,0.1c7.9,4.6,15.8,3.9,23.5-0.5c0.9-0.5,1.8-0.9,2.7-1.2c1.6-0.6,2.9-0.2,3.7,1.3
					c0.8,1.6,0.2,3-1.3,3.7C1006.8,435.7,1001.3,438.4,994.9,438.5z"/>
				<path d="M427,434.1c-4,0.1-7.7-1.3-11.2-3c-5.8-2.8-10.2-1.2-14.5,3.1c-0.3,0.3-0.6,0.7-0.9,1c-1.1,1.1-2.3,1.6-3.6,0.6
					c-1.4-1.1-1.2-2.5-0.4-3.9c3.1-5.3,11.6-8.9,17.6-7.2c2.3,0.6,4.5,1.5,6.6,2.4c3.9,1.7,7.9,2,11.9,0.3c0.7-0.3,1.5-0.6,2.3-0.7
					c1.5-0.2,2.8,0.2,3.3,1.7c0.6,1.7-0.1,2.9-1.7,3.6C433.5,433.2,430.4,434.2,427,434.1z"/>
				<path d="M100,353.9c-3.9,0-6.8-0.8-9.5-2.1c-4.3-2-7.7-0.7-10.8,2.4c-1.3,1.3-2.6,2.7-4.3,1.1s-0.8-3.3,0.5-4.8
					c4-4.6,10-6.5,15.5-4.1s10.7,2.1,16-0.3c1.9-0.9,3.9-1.5,5.9-2.1c1.5-0.4,2.7,0.3,3.3,1.8c0.5,1.5-0.1,2.9-1.5,3.4
					C109.9,351.2,104.8,353.6,100,353.9z"/>
				<path d="M126,166.1c-0.7,3.2-1.8,6.7-3.3,10.1c-0.6,1.3-1.8,1.8-3.2,1.2s-1.9-1.8-1.5-3.1c1-3.4,2.1-6.8,3.3-10.1
					c0.4-1.2,1.6-1.8,2.9-1.5C125.5,163.1,126,164.2,126,166.1z"/>
				<path d="M155.3,213.5c0,1.6-0.5,2.9-2.3,3.1c-1.8,0.2-2.8-1-3-2.5c-0.4-2.9-0.6-5.8-0.7-8.7c-0.1-1.5,0.7-2.7,2.4-2.8
					c1.6-0.1,2.5,0.9,2.7,2.5C154.7,207.9,155,210.7,155.3,213.5z"/>
				<path d="M156.9,170.2c-0.1-2.5,0-4.3,2.3-4.5c2.1-0.1,2.5,1.5,2.8,3.3c0.3,2,0.9,4,1.4,6.1c0.4,1.6,0.3,3.2-1.7,3.7
					c-1.9,0.5-2.9-0.7-3.4-2.3C157.7,174.2,157,172,156.9,170.2z"/>
				<path d="M491.5,337.8c0,1.7-0.5,2.7-1.8,3.1c-1.5,0.4-2.8-0.2-3.3-1.6c-0.9-2.4-1.7-4.9-2.4-7.5c-0.3-1.2,0.2-2.4,1.5-2.9
					c1.2-0.5,2.4-0.2,3.1,1C489.9,332.4,490.8,335.3,491.5,337.8z"/>
				<path d="M459,333.7c2-0.1,3.3,1.5,2.7,3.4c-0.9,2.5-2.2,4.8-3.9,6.8c-0.9,1-2.1,1.2-3.2,0.6s-1.7-1.7-1.2-2.8
					c1.2-2.7,2.6-5.2,4.5-7.4C458.1,333.9,458.7,333.8,459,333.7z"/>
				<path d="M468.8,323.9c0.2-1.4,0.4-2.9,0.7-4.3c0.3-1.6,1.2-2.7,3-2.5c1.9,0.2,2.2,1.6,2.1,3.2c-0.2,1.7-0.4,3.4-0.6,5.1
					c-0.2,1.8-0.9,3-2.9,2.9s-2.4-1.6-2.3-3.3C468.8,324.6,468.9,324.3,468.8,323.9C468.9,323.9,468.8,323.9,468.8,323.9z"/>
				<path d="M107,536.2c-0.6,3.3-1.1,6.6-1.7,9.9c-0.3,1.7-1.2,2.7-3,2.5s-2.4-1.5-2.2-3.1c0.5-3.6,1.1-7.2,1.8-10.7
					c0.3-1.5,1.5-2.3,3-2C106.8,533.2,107,534.7,107,536.2z"/>
				<path d="M158.8,554.6c-1.5-0.2-2.6-1.3-2.9-2.9c-0.6-2.9-1.1-5.9-1.4-8.9c-0.2-1.5,0.6-2.7,2.3-2.9s2.5,0.9,2.8,2.4
					c0.7,3.2,0.8,6.5,2.1,9.5C162.4,553.4,160.9,554.8,158.8,554.6z"/>
				<path d="M188.3,545.3c0-1.1,0.4-2,1.4-2.5c1.1-0.5,2.2-0.3,3,0.7c2.2,2.7,4.3,5.4,6.5,8.1c0.7,1,0.8,2,0.1,3.1s-1.8,1.2-2.9,0.9
					C194.5,555.1,188.4,547.2,188.3,545.3z"/>
				<path d="M130.3,500.6c-0.3,1.9-0.3,4.4-1.2,6.7c-0.6,1.6-1.7,3-3.7,2.4c-2.1-0.6-1.9-2.2-1.4-4c0.5-2,0.8-4.1,1.1-6.1
					c0.3-1.8,0.6-3.6,3-3.4C130.5,496.4,130.4,498.3,130.3,500.6z"/>
				<path d="M101.2,444c1-3.1,1.8-6.7,3.7-9.8c0.7-1.1,1.9-1.4,3.1-0.9c1.3,0.6,1.8,1.7,1.4,2.9c-0.8,2.5-1.7,4.9-1.9,7.6
					c-0.1,1-0.9,2-1.7,2.7c-0.9,0.8-2,0.9-3.1,0.5C101.5,446.6,101.2,445.5,101.2,444z"/>
				<path d="M123.7,410c1.1-2.7,2.3-5.8,4.8-8.1c1.1-1,2.5-1.1,3.7,0c1.2,1.2,0.9,2.5,0,3.6c-1.4,1.7-2.3,3.6-3.1,5.7
					c-0.6,1.5-1.8,2.3-3.4,2C124.3,412.9,123.7,411.9,123.7,410z"/>
				<path d="M159.2,436.4c0,1.7-0.6,2.8-2.1,3.1c-1.5,0.3-2.6-0.4-2.9-1.8c-0.8-2.8-1.4-5.6-2-8.5c-0.2-1.3,0.4-2.4,1.7-2.7
					c1.4-0.4,2.5,0.2,3.1,1.5C158.3,430.7,158.7,433.7,159.2,436.4z"/>
			</g>
		</g>
	</g>
	<g id="Sand_Color_White_xA0_影像_1_">
	</g>
	<g id="Sand_Color_xA0_影像_1_">
	</g>
	<g id="Sand_xA0_影像_1_">
	</g>
	<g id="圖層_9">
	</g>
	<g id="Hands_Color_xA0_影像_1_">
	</g>
	<g id="Hands_xA0_影像_1_">
	</g>
</g>
<g id="sand">
	<g>
		<g id="Sand_xA0_影像_2_">
			<polygon class="st1" points="514.7,396.3 520.4,376 536.3,358.6 565.7,346.3 592.7,300.2 614,265.9 651.7,246.3 664.6,235.8 
				678.5,232.3 697.5,235.9 731.1,259.7 737.3,271.3 747.3,302.6 757.3,318.4 779.7,333 794,353.3 806.7,369.9 822,383 827.7,401.8 
				829,435.2 834.3,450.6 854,460.7 854,469.1 831,479 772.3,466.3 737.3,473.3 708.3,467.8 725,479 754.1,494.2 742.7,507 
				725,508.7 689.5,501.7 623,515.3 551.3,503.6 510.3,511.6 506.3,505.4 514.7,483.3 542.7,471 575.3,430.3 592.7,419.7 623,424.3 
				646,423.2 668.1,437.9 669,442.3 704.7,410.3 721.5,385 693.1,385.3 670.5,394.3 646,395.3 643.7,401 608,405.3 580.5,399 
				555.7,403.7 529.4,396.7 			"/>
			<g>
				<g>
					<path class="st0" d="M633.6,426.7c11.6,0,19,7.2,25.6,15.5c2.4,3,4.5,6.4,7.3,9.1c0.9,0.9,1,1.7,0.5,2.9
						c-1.7,4.6-3.3,9.2-5,13.8c-0.8,2.1-0.3,2.7,1.9,2.5c8-0.6,15.9-1.1,23.9-1.7c1.8-0.1,3.4,0.3,4.9,1.2c5.5,3.5,11.6,6,17.7,8.3
						c6.8,2.6,13,6.4,19.3,10c2.4,1.4,1.6,4.9-1.6,6.4c-3.9,1.8-8,2.8-12.4,2.8c-5.6,0.1-10.9-1.8-16.3-2.9
						c-10.6-2.2-21.3-3.5-32.1-1.4c-6,1.2-11.7,3.4-17.4,5.4c-21,7-41.7,7-62.2-1.8c-6.1-2.6-12.2-4.8-18.9-4.4
						c-5.4,0.3-10.8,1-16.2,1.7c-7.4,0.9-14.7,2.4-22.2,0.8c-7.6-1.6-9.9-7.5-5.3-13.8c1.7-2.4,3.9-4.3,6.6-5.5
						c0.5-0.2,1-0.4,1.5-0.7c13.7-6,25.1-14.6,32.9-27.7c3.9-6.7,8.9-12.6,13.9-18.5c5.4-6.3,12.5-8.4,20.6-7.4
						c5.7,0.7,11.3,1.6,17,2.4c3.1,0.4,6.2-0.2,9.2-0.4c1.7-0.5,3.2-0.2,4.1,1.5C631.5,425.9,632.6,426.3,633.6,426.7z"/>
					<path class="st0" d="M756.2,365.6c-6.9-0.6-13.3,0.9-19.4,4.4c-4,2.2-8.2,2.2-12.4,0.9c-8.6-2.7-17-2.8-25.3,0.9
						c-1.6,0.7-3.2,0.5-4.8,0.7c-7.2,0.7-13.9,3.5-20.9,5c-4,0.9-6.9-1-6.7-5.2c0.1-1.4,0.2-2.7,0.7-4c4.1-9.7,8.7-19.2,14.2-28.2
						c1.4-2.2,3.2-4.2,4.9-6.1c5.4-6.1,10.3-12.6,16.3-17.9c5-4.5,9-10.1,15-13.3c6.7-3.5,13.6-3.5,20.6-0.1c4.2,2.1,7,5.4,9.6,9
						c2.3,3.2,4.8,6.4,7,9.8c4.5,6.7,10.8,11.2,17.7,14.9c4.5,2.4,7.8,5.5,9.3,10.5c0.5,1.6,1.6,2.8,2.7,4c2.7,2.9,2,5.4-1.8,6.7
						c-1.7,0.5-3.2,1.2-4.7,2.2C771.6,364.2,764.2,366.2,756.2,365.6z"/>
					<path class="st0" d="M725,278.9c-6.4-0.1-11.2,3-16,6.4c-11.9,8.6-22.3,18.9-32.7,29.2c-1.2,1.1-2.3,2.3-3.9,3
						c-3.6,1.7-7.5,1.2-9.7-2.2c-6.1-9.4-15.4-13.1-25.6-15.4c-6.8-1.6-13.6-2.8-20.7-2.2c-4.9,0.4-6.8-2.6-5.2-7.2
						c4.5-13.1,13.5-22,26.6-26c13.6-4.1,20.7-13.9,25.1-26.5c0.3-0.9,0.6-1.8,1.7-2.2c10-4.2,21-2.1,28.7,5.6
						c4.6,4.6,9.5,8.9,14.9,12.7c4.7,3.3,8.4,7.7,11,13C721.1,270.9,723.5,274.6,725,278.9z"/>
					<path class="st0" d="M658.7,431.5c5.3,2,12.1,10.4,11.8,15.3c-4.5-4.7-7.4-10.3-11.9-14.5C658.4,432,658.4,431.8,658.7,431.5z"
						/>
					<path class="st0" d="M658.7,431.5c0,0.3-0.1,0.5-0.1,0.8c-2.9-2.7-5.6-5.5-9.6-7.5c3.2-0.3,7.8,2.3,8.5,4.6
						C657.8,430.3,658.1,431,658.7,431.5z"/>
					<path class="st0" d="M633.6,426.7c-1.5,0.3-2.9-0.2-3.4-1.5c-0.7-1.7-1.9-1.8-3.3-1.8C630.7,421.3,632,424.3,633.6,426.7z"/>
					<path class="st0" d="M731.6,290.1c-2.7,0.7-4.8,0.2-6.9,0.1C726.8,289.7,728.8,288.6,731.6,290.1z"/>
					<path class="st0" d="M687.7,323.9c-1.2,1.2-2.5,2.4-4.1,3.3C685,326.1,686.4,325,687.7,323.9z"/>
					<path class="st0" d="M688.5,322.3c0.1-1.3,1.1-1.9,2-2.8C690.6,321.1,689.1,321.4,688.5,322.3z"/>
				</g>
				<g>
					<g>
						<path d="M722.4,474.1c0.7,0.5,0.9,0.8,1.3,0.9c10.5,2.9,19,9.9,28.9,14c5.5,2.3,6.5,7.4,2.6,12.1
							c-5.5,6.5-12.8,10.1-21.3,10.7c-7.4,0.6-14.5-0.8-21.5-2.7c-18.6-5-36.9-3.1-55.1,2.4c-14.4,4.3-29,7.6-44.2,6.9
							c-9.5-0.4-18.6-3.1-27.8-5.3c-5.8-1.4-11.7-2.8-17.4-4.6c-10.8-3.5-21.4-2.9-32,0.9c-6.1,2.2-12.3,3.9-18.7,4.9
							c-9.8,1.6-13.9-2.6-12.3-12.4c0.8-4.6,2.3-9,4-13.3c2.4-6.2,7.4-10.1,13.3-13c4.8-2.3,10-3.2,15-4.8
							c5.8-1.8,10.2-5.2,13.6-10.3c6.2-9.4,13-18.4,19.6-27.5c7.2-10,17.1-14.9,29.2-15.6c2.9-0.2,5.9,0,8.6,1
							c6.9,2.5,13.9,2.6,21.2,1.6c8.4-1.1,16.7,0.7,24.4,4.1c6.4,2.8,10.6,8.2,14.3,13.8c1.3,2,2,1.9,3.3,0
							c3.9-5.6,9.2-9.7,14.5-13.9c11.9-9.4,21.6-20.7,28.7-34.2c0.1-0.1,0.1-0.3,0.1-0.8c-4.4,1.1-8.7,0-13-0.3
							c-4.9-0.4-9.6,0.2-13.9,2.9c-6.7,4.2-14,5.9-21.8,5.6c-4.9-0.2-9.8,0-14.7,0.4c-1.2,0.1-2,0.2-1.9,1.8c0.1,1.6-1.2,2.4-2.4,3
							c-4,2.1-8.3,3.2-12.8,3.4c-6.7,0.3-13.4,0.9-20.1,1.5c-4.8,0.4-9.7,0.4-14.3-1.2c-11.1-3.8-22.2-4-33.6-1.5
							c-8.1,1.8-16.2,1.1-23.8-2c-7.9-3.3-15.9-3.1-24.1-1.6c-5.9,1.1-8.2-0.9-7-6.9c3.7-18.7,13.2-33,31.3-40.7
							c2.8-1.2,5.6-2.2,8.4-3.1c8.8-2.7,15.2-8.2,19.1-16.6c2.7-5.9,5.2-12.2,9.6-17c6.2-6.9,9.5-15.3,13.6-23.4
							c3.9-7.7,7.9-15.4,13.4-22.1c7.1-8.7,16.4-14.3,26.5-18.7c3-1.3,6-2.6,9-4c4-1.8,7.7-4.1,10.5-7.5c4.4-5.3,10.5-7.8,16.7-9.7
							c4.9-1.5,10.2-0.7,15.4-0.4c9.3,0.7,16.5,5.7,23.7,10.7c3,2.1,6.4,3.5,9.6,5.1c10.8,5.3,19.1,12.8,22.3,25
							c0.4,1.4,0.7,2.8,0.9,4.3c0.8,5.5,1.6,10.9,5.2,15.6c1,1.3,1.5,2.9,1.9,4.5c1.3,5.8,4.5,10.7,7.5,15.6
							c2.3,3.9,5.7,6.5,9.9,8.2c12.8,5.3,21.9,14.4,27.3,27c2.4,5.7,6.2,10.4,10,15.2c2.6,3.3,5.5,5.9,9.3,8
							c11.9,6.5,17.4,17.2,18.3,30.3c0.7,10.1,0.6,20.3,1.2,30.5c0.2,4.2-0.2,8.7,2.5,12.6c2.2,3.2,5.2,5.3,8.4,7.1
							c3.2,1.8,6.5,3.3,9.6,5.1c2.4,1.4,4.3,3.3,5.2,6.1c1.5,4.9,0.3,9-4.1,11.5c-7.3,4.1-15.1,7.2-23.4,8.7
							c-4.7,0.9-9.4-0.1-13.9-1.6c-9-2.9-17.8-6.4-27.1-8.2c-13.8-2.7-27.6-3.5-41.2,1.2c-7.6,2.6-15.3,2.8-23.1,1
							C724.1,474.4,723.5,474.3,722.4,474.1z M825.3,408c0.3-4.3-0.1-9.7-1.7-15c-2.1-7-5.8-12.6-11.7-16.9
							c-6.1-4.4-13.3-4.9-20.3-6c-5.5-0.9-10.4,0.7-14.6,4.5c-2,1.8-4.3,3.4-6.5,4.9c-5.4,3.6-11.2,5.3-17.8,4.3
							c-3.6-0.6-7.1-1.4-10.6-2.3c-3.2-0.8-6-0.3-9,0.9c-7,2.7-12,7.3-15.4,13.9c-7.5,14.2-18.6,25.2-31.1,34.9
							c-2.4,1.8-4.7,3.8-6.7,6c-8,8.7-12.5,19.3-15.5,30.5c-0.6,2.1-0.2,2.8,2,2.7c5.2-0.2,10.3-1.1,15.3-2.5
							c10.3-2.8,20.7-3.9,31.2-1.5c5.2,1.2,10.5,1.9,15.8,3c5.6,1.1,11,0.7,16.4-1c9.8-3.2,19.8-4.3,30.1-3.6
							c13,0.8,25.2,4.4,37.3,8.6c3.7,1.3,7.3,2.9,11.3,3.1c10.1,0.7,18.7-3.8,27.2-8.3c2.1-1.1,1.9-3.9,0.1-5.9
							c-1-1.1-2.3-1.8-3.6-2.5c-2.9-1.5-5.9-2.9-8.7-4.5c-6.6-3.7-10.8-9-11.8-16.9C825.8,428.5,825.1,418.9,825.3,408z
							 M668.7,475.9c-9.7,0.5-12.1-2.5-9.8-10.8c1.5-5.4,3.1-10.9,5.9-15.8c1.7-3,1.5-5.2-0.6-8c-4-5.3-7.8-10.6-14.4-12.9
							c-7.4-2.5-15-3.8-22.8-2.4c-6,1.1-11.7,0.7-17.5-1.3c-2.8-1-5.8-1.6-8.8-1.5c-10.1,0.4-18.6,3.9-24.8,12.2
							c-7,9.3-13.9,18.6-20.3,28.3c-4.1,6.3-9.6,10.6-16.8,12.6c-3.5,1-7,2-10.4,3.1c-4.6,1.5-8.9,3.5-11.6,7.6
							c-3.4,5.1-5.4,10.9-6.3,17c-0.6,4.3,0.4,5.2,4.9,4.5c7.1-1,14-3.3,20.8-5.5c10.2-3.4,20.4-4,30.8-1c8.3,2.4,16.7,4.3,25,6.6
							c12.8,3.6,25.8,5,39.1,2.9c10.3-1.7,20.3-4.7,30.4-7.4c13.7-3.6,27.4-5.4,41.5-3c8.2,1.4,16.3,3.8,24.6,4.6
							c8.7,0.9,16.2-1.6,22.4-7.8c2.2-2.2,2-3.1-0.7-4.4c-11-5-21.1-11.8-32.6-15.6c-2.2-0.7-4.1-2.3-4.7-4.6
							c-0.4-1.6-1.4-1.9-2.7-2.2c-6.3-1.1-12.6-1-19,0.3C682.8,473.3,675.5,475.8,668.7,475.9z M611.5,401.7
							c6.8-0.5,13.6-0.9,20.4-1.4c2.8-0.2,5.6-0.3,8.3-1.2c0.7-0.2,1.7-0.3,1.1-1.6c-1.8-3.8-1.2-7.6-0.1-11.4
							c1.7-5.9,4.7-11.2,8.5-16c4.7-6,9.2-12.2,13.3-18.6c2.6-4.1,2.7-7.5,0.5-12c-3.4-7-7.6-12.9-14.6-16.7
							c-3.6-1.9-6.6-4.8-9.4-7.8c-2.7-2.9-6-4.6-9.8-5.5c-3-0.7-6-0.3-9-0.3c-8.5,0.1-16.8,2.1-25.2,2.1c-1.6,0-3.1,0.6-4.3,1.6
							c-2.5,2.1-4.8,4.4-6.7,7.1c-4.2,6.2-7.3,13-10.7,19.6c-3.9,7.3-9.8,12.3-17.4,15.3c-3.2,1.2-6.5,2.4-9.7,3.5
							c-16.7,6-25,19.1-29.6,35.2c-0.5,1.7-0.1,2,1.7,1.7c9-1.5,17.8-1.3,26.5,2.3c6.6,2.8,13.6,3,20.6,1.4
							c11.7-2.6,23.2-2.5,34.7,1.4C604,401.6,607.7,402,611.5,401.7z M797.1,364.8c-0.3-1.5-1.3-2.2-2.1-3.2
							c-2.7-3.7-5.2-7.4-7-11.6c-4.9-11.6-13-20-24.7-24.7c-5.2-2.1-9.3-5.6-12.2-10.4c-2.5-4.1-4.7-8.4-7.3-12.4
							c-2.6-3.9-6-7.4-10.5-8.8c-7.7-2.3-15-1.1-21,4.7c-1.8,1.8-3.6,3.6-5.3,5.5c-8.9,10.3-18,20.4-27.9,29.8
							c-4.8,4.6-7.4,10.7-9.8,16.8c-0.9,2.2-1.7,4.3-3,6.4c-3.9,6.6-8.9,12.4-13.4,18.5c-3.3,4.5-5.7,9.5-6.8,15
							c-0.3,1.6,0.1,2.1,1.8,1.9c6-0.8,12-1,18-0.8c7,0.2,13.5-1.2,19.5-5c4.2-2.7,8.8-3.7,13.8-3.6c5.8,0.2,11.6,0.9,17.4,0.7
							c2.1-0.1,3.7-0.6,5.5-1.8c6-4.1,12.2-7.8,19.9-6.4c4.1,0.7,8.2,1.7,12.2,2.8c2,0.6,3.9,0.5,5.9,0.2c4.9-0.9,8.7-3.8,12.1-7
							c6.3-5.9,13.6-8.1,22-7C795,364.6,796,364.7,797.1,364.8z M668.8,338.2c2.5-5.6,6.5-9.1,10.4-12.8c2.4-2.2,4.7-4.6,6.9-7
							c7-7.7,13.8-15.4,20.9-23c4.5-4.9,10.2-8,17-8.2c4.8-0.1,9.8-0.6,14.6,3.1c-2.1-5.2-2.5-9.9-3.3-14.5
							c-1.1-6.5-4.1-12-8.9-16.4c-3.6-3.4-7.7-6-12.1-8.3c-7-3.7-14.2-7-19.6-13.1c-0.5-0.6-1.4-0.8-2.2-1.1
							c-6.1-2.5-12.6-2.2-18.8-1.3c-6.4,1-12.3,3.5-16.4,9.3c-2.1,3-5.2,5.2-8.6,7c-4.8,2.6-9.8,4.8-14.8,6.9
							c-13.5,5.7-23.7,14.9-30.5,27.9c-2.2,4.4-4.6,8.7-6.8,13.1c-0.9,1.7-2.9,3.9-1.8,5.3c0.9,1.2,3.7,0.5,5.7,0.2
							c7.8-1.2,15.7-1.7,23.6-2c7.6-0.3,14.2,2,19.4,7.6c3.3,3.6,7.1,6.5,11.2,9c4.4,2.8,7.9,6.4,10.2,11.1
							C666.2,333.1,667.3,335.4,668.8,338.2z"/>
						<path d="M583.7,472c-0.1,0.4-0.3,1.2-0.7,1.9c-1.3,2.6-2.7,5.1-4.1,7.6c-0.8,1.4-2,2.3-3.6,1.5c-1.7-0.8-1.9-2.4-1.1-3.9
							c1.5-2.9,3.1-5.7,4.7-8.6c0.7-1.2,1.9-1.7,3.3-1.3C583.3,469.6,583.7,470.5,583.7,472z"/>
						<path d="M623,455.5c0.2-1.9,0.3-3.5,0.6-5.1c0.3-1.7,1-3.3,3.1-3c2.1,0.3,2.3,2,2.1,3.8c-0.2,1.4-0.4,2.9-0.4,4.3
							c-0.1,1.9-0.3,3.9-2.8,3.8C623.1,459.2,623.2,457,623,455.5z"/>
						<path d="M592.8,446.6c0.3-1.6,0.9-3.5,1.8-5.1c0.7-1.3,1.9-1.7,3.3-1.1c1.3,0.5,1.7,1.7,1.4,3c-0.4,1.9-1,3.7-1.6,5.5
							c-0.4,1.3-1.4,1.9-2.8,1.6C593.1,450,592.7,448.5,592.8,446.6z"/>
						<path d="M623.8,494.3c0-1-0.2-2-0.1-3c0.1-1.3,0.7-2.3,2.1-2.4c1.4-0.2,2.4,0.5,2.7,1.7c0.7,2.4,0.6,4.9,0.2,7.3
							c-0.2,1.1-1.3,1.7-2.5,1.6c-1.2-0.1-2.1-0.8-2.2-2C623.8,496.4,623.9,495.3,623.8,494.3C623.9,494.3,623.8,494.3,623.8,494.3z
							"/>
						<path d="M693.1,345.5c0.9-3,2.1-6.4,4.4-9.2c0.9-1.1,2.3-1.2,3.4-0.4c1.1,0.8,1.3,2,0.7,3.2c-1.4,2.8-2.8,5.5-3.6,8.5
							c-0.4,1.3-1.5,1.9-2.8,1.6C693.6,348.8,693.1,347.6,693.1,345.5z"/>
						<path d="M754.2,349.5c0-0.6-0.1-1.3-0.1-1.9c0-1.3,0.6-2.3,1.9-2.6c1.5-0.3,2.6,0.5,2.9,1.8c0.7,3.1,0.7,6.3,1.7,9.3
							c0.3,1.1-0.5,2.1-1.7,2.4c-1.5,0.3-2.7-0.3-3.4-1.6C754.3,354.6,754.4,352.1,754.2,349.5z"/>
						<path d="M724.9,323.6c-0.1,0.9-0.3,2.4-0.7,3.9c-0.5,1.9-1.9,2.8-3.7,2.1c-1.8-0.7-2.8-2.2-1.9-4.1c0.4-1,1.1-1.9,1.1-3
							c0.1-1.9,0.6-3.6,3-3.3C724.9,319.5,725,321.2,724.9,323.6z"/>
						<path d="M734,348.3c0.5-1.8,1.1-3.9,1.9-5.9c0.5-1.2,1.6-1.7,3-1.3c1.2,0.3,1.9,1.3,1.8,2.5c-0.2,2-0.5,4-1.1,5.9
							c-0.5,1.5-1.8,2.3-3.4,2C734.5,351.2,734,350.1,734,348.3z"/>
						<path d="M694.8,370.8c0.7-1.9,1.5-4.2,2.9-6.2c0.6-0.9,1.7-1,2.7-0.7c1,0.4,1.7,1.2,1.6,2.3c-0.3,2.7-1.3,5.1-3.1,7.1
							c-0.7,0.8-1.8,0.8-2.8,0.4C695.1,373.2,694.7,372.3,694.8,370.8z"/>
						<path d="M669.7,298c0.1,1.7,0.2,3.4,0.3,5.1c0.1,1.8-0.7,3-2.6,3.2c-1.9,0.2-2.9-0.9-3-2.7c-0.2-3.2-0.1-6.5,0.5-9.7
							c0.3-1.5,1.2-2.5,2.8-2.3c1.6,0.2,2.2,1.3,2.2,2.9c0,1.2,0,2.3,0,3.5C669.8,298,669.7,298,669.7,298z"/>
						<path d="M643.6,272.3c2.3,0,3.5,2,2.3,3.8c-1.7,2.6-3.6,5-5.5,7.4c-0.8,1-2,1.2-3.2,0.7c-1.1-0.5-1.6-1.7-1.2-2.7
							c1.5-3.6,3.8-6.5,6.8-8.9C643,272.4,643.4,272.4,643.6,272.3z"/>
						<path d="M704.4,268.1c1.1,0,1.9,0.5,2.5,1.4c1.4,2,2.9,3.9,4.2,6c0.9,1.4,1.3,2.9-0.3,4.1c-1.7,1.2-3.2,0.4-4.2-1
							c-1.5-2-2.8-4.2-4.1-6.4C701.4,270.2,702.4,268.2,704.4,268.1z"/>
						<path d="M678.5,251.6c-0.2,2.3-0.3,4.7-0.6,7c-0.2,1.6-1,2.8-2.8,2.7c-2-0.1-2.6-1.6-2.5-3.3c0.1-2.3,0.4-4.7,0.7-7
							c0.2-1.8,0.9-3.3,3-3C678.3,248.3,678.7,249.9,678.5,251.6z"/>
					</g>
				</g>
			</g>
		</g>
		<g id="Hands_xA0_影像_2_">
		</g>
	</g>
</g>
<g id="hand">
	<g id="Hands_xA0_影像_3_">
		<g>
			<polygon class="st1" points="770.2,200.6 756.7,212.6 756.7,277.1 776.2,350.6 828.7,373.1 888.7,334.1 870.7,274.1 887.2,259.1 
				908.2,280.1 939.7,299.6 982.1,302.2 1025.2,305.6 1051.2,304.6 1063.5,301.4 1086,306.4 1115.5,315.3 1138.8,206.5 1058,183.4 
				1011,162.4 933.5,141.4 882,137.9 852.5,141.9 814,169.4 			"/>
			<g>
				<path class="st0" d="M729.2,190.9c0.6,0.6,1.6,0.6,2.1,0c0.9-1.1,2.2-1,3.5-0.5c3.3,1.5,5.4,4.3,6.3,7.8c0.7,3-2.9,6.9-6.2,6.8
					c-1.3,0-2.4,0.1-3.6,0.5c-1.5,0.4-3.1,0.3-4.3-1c-1-1.1-2.1-1-2.9,0.2c-1.5,2.1-4.1,2.7-6,1.1c-2.4-2.1-4.6-4.4-6.7-6.7
					c-1.4-1.5-1.3-3.2,0.8-4.2c0.7-0.4,1.1-0.5,0.5-1.3c-1.2-1.7-0.3-3.5-0.5-5.3c-0.1-1,0.8-2.1,1.7-1.8c2.3,0.9,4.4-0.2,6.5-0.3
					C724.2,186.1,726.8,188.2,729.2,190.9L729.2,190.9z"/>
				<path class="st2" d="M1042.2,269.2c-0.1,0.8-0.1,1.6-0.3,2.4c-0.3,1.6-1.3,2.3-2.9,2.3c-1.6-0.1-2.5-1.1-2.6-2.6
					c-0.1-8.8-3.8-16.7-6.4-24.9c-2.2-6.9-6.1-12.9-10.3-18.8c-0.2-0.2-0.3-0.4-0.5-0.7c-1.1-1.4-1.7-3,0-4.3
					c1.9-1.4,3.2-0.2,4.3,1.3c2.3,3.3,4.9,6.6,6.8,10.2c5.7,10.6,9.8,21.8,11.7,33.7C1042.1,268.3,1042.2,268.8,1042.2,269.2z"/>
				<path class="st2" d="M983,224.3c0.1,2.8-0.3,4.6-2.7,4.7c-2.2,0.1-2.7-1.6-2.9-3.5c-0.4-5-2.7-9.4-5-13.7
					c-2.8-5.5-5.7-11-8.5-16.4c-0.5-1-0.9-2-1.3-3c-0.7-1.7-0.4-3.2,1.3-3.9c1.7-0.7,2.8,0.4,3.4,1.9c2.5,5.4,5.3,10.7,8.3,16
					c2.8,5,5.7,10,6.9,15.6C982.8,223,983,224,983,224.3z"/>
				<path class="st2" d="M836.8,230.7c-6.3,0-9.7-3.3-12.7-7.1c-0.8-1-0.7-2.2,0.3-3.2c1.1-1,2.5-1.1,3.5-0.3
					c2.3,1.8,4.8,0.5,7.1,0.8c0.1,0,0.2-0.1,0.3-0.1c2.3-0.4,4.7-0.2,6.3,1.6c1.8,1.9,0.1,4-0.6,5.8
					C840.2,230.3,838,230.6,836.8,230.7z"/>
			</g>
			<polygon class="st1" points="689.5,205.4 742,204.4 745.5,210.4 741,216.4 697.5,218.4 690.5,216.9 688,211.9 			"/>
			<g>
				<path d="M734.5,150.2c-3.2,10.2-7.7,19.3-10.8,28.8c-0.4,1.1-0.7,1.9,1.1,2.1c2.4,0.3,4.1,1.9,5.2,4c0.5,1,1,1.5,2.3,1.4
					c5-0.7,8,2.2,10.3,6.1c13.2,22.3-4.5,48-25.3,49.9c-4.8,0.4-9.4-0.1-13.4-2.8c-7.4-5-12.7-11.5-14.3-20.6
					c-0.4-2.3-1.2-4.5-1.9-6.8c-1.4-4.4-1.3-8.8-0.2-13.2c2.2-8.7,4.2-17.4,7.2-25.9c5.9-16.3,13-32.1,21.9-47.1
					c2.9-4.8,5.2-10,8.6-14.5c2.5-3.3,3.5-3.7,7-1.5c8.1,4.9,14.6,11.7,20.1,19.3c10,13.7,19,28.1,27.7,42.7
					c1.1,1.8,1.9,2.3,3.9,1.2c6-3.3,12.3-5.9,19.1-6.9c2.9-0.4,5.8-0.7,8.7-0.8c1.6-0.1,2.7-0.5,3.9-1.6
					c10.9-10.7,23.6-18.6,37.6-24.6c5.8-2.5,12-2.8,18.2-3.2c13.5-0.9,27-1.8,40.6-0.7c11.4,0.9,22.6,3.1,33.7,6
					c13,3.4,25.9,7.3,38.8,10.9c18.6,5.2,37.5,9.5,55,18c5.1,2.5,9.5,6.1,14.7,8.3c11.8,5,24,8.8,36.2,12.6
					c11.1,3.4,22.7,4.2,33.7,7.5c4.2,1.2,8.4,2.2,12.3,4.3c1.7,0.9,3.3,2,2.3,4.2c-1.1,2.3-3,1.8-4.9,0.9
					c-8.8-4.1-18.4-5.5-27.8-7.6c-17.3-3.9-34.6-7.8-50.5-15.8c-5.4-2.7-10.6-5.5-16-8.2c-11.4-5.7-23.4-9.9-35.9-12.7
					c-13.9-3-27.3-8.2-41.1-11.6c-7.8-1.9-15.6-4.3-23.4-6.3c-17.3-4.4-35-6.1-52.9-6.2c-7.8,0-15.4,1.1-23.1,1.3
					c-4.2,0.1-8.2,1.7-12,4c-5.2,3.2-10.9,5.7-15.9,9.4c-4.5,3.3-9.1,6.6-13.2,10.8c1,0.7,2.1,0.6,3.1,0.7c7,0.4,13.7,1.9,20,4.8
					c1.3,0.6,2.4,0.4,3.6-0.1c5.3-2.4,10.9-4.1,16.6-5c2.4-0.4,5-0.8,7.3,0.2c9.4,4,19,7.2,27,14.2c13.3,11.6,21.8,25.9,26.6,42.6
					c2.3,7.9-0.3,11.3-9,11.5c-7.8,0.1-15.4-2.5-22.9-4.5c-8.7-2.4-17.4-4.1-26.4-4.9c-6.6-0.5-13.3,0.1-19.8-1.1
					c-1.7-0.3-1.3,1.1-1.4,2c-0.7,5.6-3.3,8.8-7.8,9.4c-2.2,0.3-4.3-0.3-6.4-1.1c-4.6-1.9-8.5-4.9-12-8.3c-0.6-0.5-0.9-1.4-1.8-1.6
					c-1.2,1.5-0.7,3.1-0.1,4.6c1.2,3.2,3.2,5.9,5.8,8.1c7.5,6.4,16.5,9.1,26,11s19.1,3.4,28.4,6.3c8.6,2.7,15.6,7.4,21,14.4
					c6.7,8.6,14.5,16,23.8,21.7c9.9,6.1,21,8.4,32.2,10.4c8.6,1.5,17.3,2.3,26,2.2c12-0.1,24,0.6,36,0c10.2-0.5,20.3-1.6,30.4-2.9
					c10.2-1.3,20.3-0.3,30.3,2c11.3,2.6,22.2,6.3,33.2,9.8c0.8,0.2,1.6,0.5,2.3,1c1.2,0.7,1.8,1.8,1.3,3.2c-0.4,1.3-1.4,1.9-2.7,1.8
					c-1.2-0.1-2.5-0.4-3.7-0.8c-12.2-4-24.3-8-36.9-10.4c-6.9-1.3-13.9-1.3-20.9-1.2c-11.8,0.2-23.2,3.3-34.9,3.8
					c-4.8,0.2-9.6-0.3-14.4-0.3c-13.6,0-27.3,0.4-40.8-1.5c-14.6-2.1-29.1-4.8-41.8-13c-9.4-6.1-17.4-13.7-24.2-22.6
					c-1.5-1.9-3.2-3.7-5.6-5.4c0.2,2.3,0.4,4.2,0.4,6.1c0.2,6.9-0.1,13.8-0.6,20.7c-0.1,1.9,0.4,3.1,1.9,4.4
					c11.5,9.8,19.6,21.6,21.8,36.9c1.8,12.3-3,31.6-19.8,40.6c-10.2,5.4-21,8.3-32.4,9.9c-6.6,0.9-13.2,1-19.8,1
					c-5.2,0-10.4,0.3-15.5,0.5c-10.9,0.4-21.3-1.8-31.6-5c-12.5-3.8-23.3-10.5-32.1-20.2c-8.6-9.4-11.9-20.3-10.8-32.9
					c0.7-7.7,2.5-15,4.6-22.4c0.3-1.2,0.6-2.1-0.3-3.3c-5.3-7-7.2-15.3-8.5-23.8c-1-6.6,0.1-13.1,0.9-19.5
					c0.6-5.1,0.6-10.2,0.8-15.2c0.5-15.9,2.8-31.5,9.4-46.2c0.5-1.1,0.6-2-0.1-3c-8.9-13.5-15.7-28.4-22.4-43.3
					C735.2,151.3,734.9,151,734.5,150.2z M825.8,350c5.4,0,10.7,0.2,16.1-0.1c6.8-0.4,13.6-0.8,19.9-4c9.3-4.7,11.2-8.1,9.5-18.3
					c-1.4-8.5-5.2-15.5-13.8-18.8c-3.8-1.4-7.8-2.3-11.9-2.4c-6.6-0.2-13.1,0-19.6,0.7c-8.6,0.9-17.3,0.8-25.7,2.7
					c-8.6,2-16.8,4.9-18.1,15.6c-0.1,0.8-0.3,1.6-0.4,2.4c-0.8,5.7,0.6,10.7,4.8,14.9c3.4,3.4,7.6,5.2,12.2,6.2
					C807.6,351.1,816.7,350.9,825.8,350z M841,216.9c-0.2-1.2-1-1-1.5-1c-13.7-1.2-27.4-1.3-41.1-2.1c-2-0.1-2.2,0.8-2.3,2.4
					c-0.8,15.5-0.3,31.1-0.6,46.6c0,1.6,0.5,2.2,2.1,2.3c7.8,0.3,15.6,0.7,23.4,1c5.5,0.2,11.1-0.1,16.6-0.3c2.5-0.1,3.8-1,4-3.6
					c0.2-2.3,0.6-4.7,1.1-7c0.4-1.9-0.1-2.7-2.1-3.2c-7.3-1.8-13.9-5.3-19.7-10.1c-4-3.2-6.8-7.3-8.3-12.2
					c-1.6-5.5,0.6-9.9,5.8-12.1c4-1.7,8.1-1.6,12.3-1.3C834.3,216.4,837.6,217.5,841,216.9z M759,244.9c0,4.7,0,9.4,0,14.2
					c0,1.4,0.2,2.2,1.8,2.5c7.2,1.4,14.5,2.5,21.9,2.6c1.3,0,2-0.3,2-1.8c-0.4-15.6,1.3-31.2,1.7-46.8c0-1.7-0.4-2.3-2.1-2.2
					c-5.9,0.4-11.8,0.9-17.7,0.9c-2.6,0-3.6,0.9-4.2,3.4C760.2,226.6,759.6,235.7,759,244.9z M887.8,208.9c-2.4,0.2-4.9,0.4-7.3,0.5
					c-1.4,0-1.8,0.6-1.3,1.9c0.9,2.5,1.8,5,2.6,7.4c0.4,1.2,1.2,1.9,2.5,2.1c3.3,0.7,6.6,1.4,9.8,2.4c7.3,2.2,14.6,4.2,22.2,5.5
					c3.5,0.6,5-1.1,4.1-4.6c-0.4-1.5-1.1-2.9-1.4-4.4c-0.6-3.6-2.4-5.5-6.3-6.4C904.4,211.4,896.3,209,887.8,208.9z M914.5,208
					c-1.4-2.9-2.7-5.2-3.7-7.6c-1.1-2.7-3.2-3.8-5.8-4.8c-10.5-3.8-21.3-4.1-32.3-3.5c-1.4,0.1-1.9,0.4-0.9,1.7
					c1.9,2.9,3.6,5.9,4.6,9.2c0.5,1.6,1.5,1.5,2.7,1.3c4.2-0.6,8.3-0.6,12.5-0.5C899.2,203.8,906.5,205.8,914.5,208z M898.4,187.8
					c-4.5-6.5-10.7-9.8-17.4-12.6c-7.9-3.3-15.9-3.1-23.9-0.7c-1.8,0.6-2.4,1.1-0.6,2.7c3.3,2.9,6.4,5.9,9.5,8.9
					c0.7,0.7,1.5,0.9,2.4,0.9C878.4,186.4,888.3,185.5,898.4,187.8z M703.5,206.6c-3.1,0-6.2,0-9.3,0c-2.1,0-3.9,0.8-3.9,3.2
					c0.1,2.5,2,2.8,4.1,2.8c14.6,0.2,29.2-1.2,43.8-1.9c1.1-0.1,2.2-0.2,3.2-0.6c1.6-0.6,2.2-1.9,1.8-3.5c-0.4-1.5-1.5-2.4-3-2.1
					c-3.2,0.6-6.5,0.3-9.8,0.5C721.4,205.8,712.5,206.7,703.5,206.6z M719.2,201.2c6.1-0.5,11.5-0.9,16.8-1.3
					c3.8-0.3,3.9-0.4,2.1-3.9c-1.1-2.2-2.3-4.5-5.4-4c-4.8,0.8-4.7,0.8-6.9-3.4c-0.6-1.1-1-2.4-2.7-2.2c-1.6,0.2-2.3,1.2-2.8,2.6
					c-0.9,2.8-2,5.7-3,8.5C715.9,201.3,715.9,201.3,719.2,201.2z M824.9,222.1c3.6,3.8,7.3,6.5,12,7.8c2.7,0.7,4.1-1,4.8-4.8
					c0.5-3.2-1.9-1.8-3.2-2.1c-1.8-0.4-3.8-0.6-5.7-0.8C830.4,221.9,827.9,221.6,824.9,222.1z M736.6,128.9c0-3-1.8-5.2-4.4-5.2
					c-3-0.1-5.4,2.3-5.4,5.3c0,3.1,1.9,5.3,4.5,5.4C734.3,134.5,736.6,132.1,736.6,128.9z"/>
				<path d="M1043.8,265.3c0,1.6-0.1,3.6-0.7,5.5c-1.4,4.3-5.3,5.3-8.5,2.1c-4.5-4.6-7.3-10.3-8.9-16.3c-2.8-10.2-5.5-20.3-9.1-30.2
					c-0.7-1.9-1.1-3.8-1.2-5.9c0-1.4,0.3-2.1,1.9-1.2C1031.6,225.6,1041.7,242.1,1043.8,265.3z M1037.6,267.2
					c2.7-8.2-8.2-34.4-17.1-40.3c3.6,6.4,5.8,12.8,7.8,19.3c1.4,4.6,2.9,9.2,4.9,13.5C1034.3,262.4,1035.5,265,1037.6,267.2z"/>
				<path d="M986,221.1c0,0.7,0,0.9,0,1c-0.2,4.5-2.5,8.1-5.6,8.8c-3,0.7-6.1-1.1-8.5-5.1c-3.4-5.7-5.3-12.1-7.3-18.4
					c-2.2-6.8-3.4-13.9-4.8-20.9c-0.2-1-0.5-1.9,0.7-2.6s2-0.7,3.2,0.1c2.8,1.9,4.8,4.5,6.8,7c6,7.3,11.2,15.2,14.4,24.2
					C985.7,217.3,986,219.4,986,221.1z M965.9,193.9c3.4,8.2,5.5,17,9.1,25.1c0.7,1.6,1.6,3.1,2.5,4.5c0.3,0.6,0.8,1.4,1.6,1.2
					s0.9-1.1,1-1.8c0.4-1.9,0-3.8-0.6-5.6C976.6,208.6,971.2,201.3,965.9,193.9z"/>
				<path d="M813.7,329.7c0,4.9-3.2,8.1-8.2,8.2c-3.9,0.1-7.3-3.8-7.3-8.3s3.4-7.9,7.9-7.9C810.5,321.8,813.7,325.2,813.7,329.7z
					 M808.2,330.3c-0.1-1.6-0.4-2.6-1.6-2.6c-1.6,0-1.8,1.3-2,2.4c-0.2,1.1,0.6,1.6,1.6,1.6C807.5,331.8,808.2,331.2,808.2,330.3z"
					/>
				<path d="M838.7,328.3c0-4.3,3.1-7.9,7-7.9c4-0.1,7.5,3.4,7.5,7.4c0,4.1-3.5,8.2-7.2,8.2C842.2,336,838.8,332.4,838.7,328.3z
					 M847.6,327.8c-0.2-0.8-0.6-1.6-1.5-1.6c-1.2,0-1.4,1-1.4,1.9s0.3,1.7,1.4,1.6C847.1,329.7,847.5,328.8,847.6,327.8z"/>
			</g>
		</g>
	</g>
</g>
</svg>
