<?xml version="1.0" encoding="utf-8"?>
<!-- Generator: Adobe Illustrator 22.0.1, SVG Export Plug-In . SVG Version: 6.00 Build 0)  -->
<svg version="1.1" id="圖層_1" xmlns="http://www.w3.org/2000/svg" xmlns:xlink="http://www.w3.org/1999/xlink" x="0px" y="0px"
	 viewBox="0 0 531.5 531.5" style="enable-background:new 0 0 531.5 531.5;" xml:space="preserve">
<style type="text/css">
	.st0{fill:#E9D08E;}
	.st1{fill:#B7CBCE;}
	.st2{fill:#B6CACD;}
	.st3{fill:#FFFFFF;}
	.st4{fill:#F14900;}
	.st5{fill:#FFFFFF;stroke:#000000;stroke-miterlimit:10;}
	.st6{fill:#F7F9FD;}
	.st7{fill:#606060;}
	.st8{fill:none;stroke:#F7F9FD;stroke-miterlimit:10;}
	.st9{fill:#222222;}
	.st10{fill:#2E313A;}
	.st11{fill:#F3F9F9;}
	.st12{fill:#141F2A;}
	.st13{fill:#17212C;}
	.st14{fill:#18222D;}
	.st15{fill:#E3EAEB;}
	.st16{fill:#DAE0E1;}
	.st17{fill:#FEFEFD;}
	.st18{fill:#FEFEFB;}
	.st19{fill:none;stroke:#FFFFFF;stroke-miterlimit:10;}
	.st20{enable-background:new    ;}
	.st21{fill:#628E94;}
	.st22{fill:#8CACB1;}
	.st23{fill:#B7CBCE;enable-background:new    ;}
	
		.st24{fill:none;stroke:#222222;stroke-width:12;stroke-linecap:round;stroke-linejoin:round;stroke-miterlimit:10;stroke-dasharray:10;}
	
		.st25{fill:none;stroke:#222222;stroke-width:4;stroke-linecap:round;stroke-linejoin:round;stroke-miterlimit:10;stroke-dasharray:10,20;}
	.st26{opacity:0.77;}
	
		.st27{fill:none;stroke:#F14900;stroke-width:4;stroke-linecap:round;stroke-linejoin:round;stroke-miterlimit:10;stroke-dasharray:10,20;}
	.st28{opacity:0.46;}
	.st29{fill:none;stroke:#F14900;stroke-width:4;stroke-linecap:round;stroke-miterlimit:10;}
	.st30{fill:#FFFFFF;enable-background:new    ;}
	.st31{fill:#FFFFFF;stroke:#FFFFFF;stroke-width:5;stroke-linejoin:round;stroke-miterlimit:10;}
	.st32{fill:#222222;stroke:#000000;stroke-width:4;stroke-miterlimit:10;}
	.st33{fill:#222222;stroke:#000000;stroke-width:5;stroke-miterlimit:10;}
	.st34{fill:#B6CACD;stroke:#FFFFFF;stroke-width:16;stroke-miterlimit:10;}
	.st35{fill:#CDDBDD;}
	.st36{fill:none;stroke:#F14900;stroke-width:3;stroke-miterlimit:10;}
</style>
<g>
	<path class="st0" d="M238.6,162.2c3.2-4.8,6.7-9.2,12.8-9.7c-1.9-4.1-7-8.6-10.6-9.6c-0.5-0.1-1-0.2-1.5-0.2
		c-0.8-1.1-1.8-2.1-2.8-3c-0.1-0.3-0.3-0.6-0.6-0.9c-5.7-7.5-4.8-17.8-8.2-26.4c1.3-4.6-5.7-8.2-9.1-3.9c-0.6,0.5-1.1,1.2-1.3,1.9
		c-10,14.4-24.3,30.8-19.4,49.5c0.8,2.9,4.7,4.8,7.3,3c0.7-0.5,1.4-0.9,2.1-1.4c0.5,0,1-0.1,1.5-0.3c4.5-1.7,8.5-4,12-7.2
		c2.2-2,7-10.6,10.3-5.6c0.6,0.9,1.3,1.5,2.1,1.9c-0.5,1.8-0.8,3.7-1.3,5.3c-0.2,0.6-0.2,1.1-0.2,1.6c-2.3,2.6-5.4,4.7-7.5,7.3
		c-0.4,0.5-0.7,1-0.9,1.6c-2.8,0.7-3.5,2.5-5.8,3.5c-0.9-1-4.1-2.5-5.5-2.4c-5.1,0.6-10.2,1.1-15.3,1.7c-2.7,0.3-5,2.1-5,5
		c0,2.5,2.3,5.3,5,5c5.1-0.6,10.2-1.1,15.3-1.7c0.9-0.1,1,0.7,1.8,0.3c1.4,1.4,4.3,1,6.6,0c3.1-1.5,6.1-1.9,9.2-1.7
		C231.1,170.3,235.7,166.8,238.6,162.2z"/>
	<path class="st23" d="M337.1,428.2c-1,1.1-2.4,1.7-4.3,1.7c-6.2-0.3-12.2,2.6-17.6,5.2c-7.1,3.4-13.9,7.2-21,10.4
		c-13.2,6-28.4,10.3-40.7,0c-2.4-2-2.3-4.9-0.9-7.1c-5.4-1.1-10.8-2.3-16.4-2.5c-0.3,0-0.5-0.1-0.8-0.1c-3,2.7-6.1,5.2-8.8,7.8
		c-6.8,6.9-13.8-0.9-7-7.7c2-2,3.8-4.2,5.5-6.5c-0.7-0.3-1.2-0.8-1.4-1.6c-1.6-6.3-2.7-12.8-3.5-19.3c-1.5-0.4-3-1.3-3.8-2.5
		c-18.4-26.5-5.6-59.8,3.7-87.9c0.2-1.7,0.4-3.4,0.3-5.2c-0.3-8.5-1.9-17.8-5.5-25.6c-3.2-6.9-7.7-13.5-9.5-20.9
		c-1.9-8,0.1-16.3,1.6-24.2c1.6-8.3,1.8-14.7-2.1-22.3c-3-5.9-6.5-12.3-5.8-19.1c1.5-15,22-18.5,32.8-24.5c0,0,0,0,0.1,0
		c0-0.1,0.1-0.1,0.1-0.2c-2.2,0-4.4-0.3-6.7-0.5c-3.5,0.6-6.9,1.3-10.4,1.6c-6.8,1.8-13.6,4.5-20.7,3.4c-0.8-0.1-1.7-1-1.8-1.8
		c-0.7-4.5-0.8-9.4,4.6-10.4c2.3-0.4,4.8,0,7.1-0.2c1.9-0.1,3.9-0.4,5.8,0c-0.3-1.4-0.1-3,0.5-4.5c0.3-0.6,0.6-1.2,0.9-1.8
		c-0.1,0.1-0.3,0.2-0.4,0.2c-2.3,1-4.7,1.2-7.2,1.1c-1.2,0.8-2.8,1.1-4.4,0.6c-1,1-2.8,1.1-3.7,0c-0.6,0-1.3-0.1-2-0.3
		c-2.2-0.5-4.1-1.6-5.8-3.1c-1.2-0.1-2.4-0.1-3.6-0.1c-4.7,0-7.2-5-5.2-9c0.6-1.3,1.7-6.3,1.7-7.5c0.4-18.3,19.2-31.8,29.5-45
		c2.7-3.4,6.6-2.2,8.6,0.6c0.2,0.1,0.4,0.2,0.5,0.3c0.3,0.2,0.5,0.4,0.8,0.5c6.6,1,11,7,10.3,14c-0.1,1-0.4,2-0.8,2.8
		c0.1,0.7,0.3,1.4,0.5,2.2c0.4,0.4,0.6,0.9,0.7,1.5c0,0.1,0,0.3,0,0.4c1.8,4,3.7,7.5,3.7,12c0,0.7-0.2,1.2-0.5,1.6
		c1,1.6,2.2,3.2,3.2,4.8c3.1,1.2,5.4,3.4,7.8,5.7c2,2,5.1,4.2,6.2,6.9c1,2.5,0,4.3-1.5,6.3c-1.3,1.8-3.1,3.9-3,6
		c3.6-4.9,7.6-9.9,12.1-14.1c-6.4-7-12.6-13.9-12.2-24.2c-1.3-5.3,0-12,2.6-15.8c5.1-7.5,16-9.8,23.7-13.5c9.4-4.5,18-10,20.6-20.7
		c0.3-1.4,1.5-1.9,2.6-1.8c0.5-3.5,0.7-7.1,0.7-10.6c0,0,0,0,0,0c-1.7-0.7-3.6-1.1-5.6-1.1h-1.2c-4.7-4.1-11.5-4.4-17.4-1.6
		c-13.7,6.6-30.3,10.6-45.2,11.2c-14.7,0.7-30.4,0.5-43.5,8.2c0,0-0.1,0.1-0.1,0.1c-7.3,4.4-12,11.6-16.7,18.5c0,0,0-0.1-0.1-0.1
		c-6.8,7.6-15.2,10.8-21.1,19.9c-6.3,9.8-9.9,21-16.8,30.5c-6.7,9.2-16.1,16.1-23.1,25.1c-14.7,18.8-16.3,46.8-3.9,67.2
		c5.4,8.8,12.9,16.2,18.1,25.2c16.7,28.8,2.8,62.7,13.5,93c2.8,7.9,6.9,15,13.1,20.8c2.3,2.2,4.9,4.2,7.3,6.3
		c1.3,1.1,2.5,2.3,3.7,3.6c0,0,0.3,0.4,0.6,0.7c0.3,0.5,0.9,1.5,1,1.6c0.1,0.1,0.1,0.2,0.2,0.3c0.3,0.9,0.6,1.8,0.8,2.7
		c0.3,1.4,0.6,2.8,0.8,4.2c0,0,0.3,2.6,0.4,3c0.4,2.9,0.7,5.9,1.2,8.8c1.4,8.3,5.1,15.8,10.2,22.4c18.5,24,50.8,37.2,80.7,36.1
		c18.3-0.7,33.8-1.8,51.2-6.5c2.2-0.6,4.5-1.2,6.8-1.6c0.9-0.2,1.7-0.3,2.6-0.5c0.2,0,1.6-0.3,1.6-0.3c3.7-0.4,8.3-5.9,12-6.2
		c9.5-0.7,20.4-3.8,24.5-13.5c0.8-1.9,1.4-3.8,1.7-5.6C349,433.1,342.6,428.7,337.1,428.2z"/>
	<path class="st23" d="M196.3,134.5c0.3-0.5,0.6-1,0.9-1.6c-0.9,1.4-1.7,2.9-2.4,4.4C195.2,136.4,195.8,135.4,196.3,134.5z"/>
	<path class="st23" d="M219.2,267.3c0-0.4,0.1-0.7,0.2-0.9c-0.7-0.5-1.3-1.1-1.8-1.7c0.4,1.6,1,3.2,1.7,4.9
		C219.3,268.8,219.2,268.1,219.2,267.3z"/>
	<path class="st30" d="M222,427c1.5-2.3,3.1-4.6,4.4-6.9c0.2-6-1.1-11.9-1.8-17.9c-0.4-0.4-0.7-0.8-1-1.4
		c-13.7-24.7-3.1-54.1-1.7-80.9c-4.2,4.9-8.4,9.7-12.6,14.6c-4.5,5.1-9.4,10.3-12,16.7c-0.8,1.9-1.3,3.8-1.6,5.7
		c9.8,17.3,14.6,37.2,20.3,57C217.1,418.9,219.3,423.2,222,427z"/>
	<path class="st30" d="M335.1,430.4c-1.8-0.5-3.7-0.7-5.5-0.9c-6.3,2.1-12.6,4-19.2,5.2c-8.4,1.5-15.6,5.1-23.8,7.2
		c-16,4.1-26.5-6.1-39.2-13.6c-0.1-0.1-0.2-0.1-0.3-0.2c-0.2,0.1-0.4,0.2-0.6,0.4c-0.5,0-0.9,0.1-1.1,0.2l-4.4,2.6
		c-0.9,0.5-0.5,1,0.1,1.2c-2.5,2.1-5.1,4.1-7.8,5.9c1.1,0.9,2.3,1.7,3.5,2.5c17.2,11.9,39.2,11.1,57.1,16.8c1.8-0.4,3.6-1,5.4-1.8
		c12.9-5.8,24.9-15.7,36-24.5C335.9,431,335.7,430.5,335.1,430.4z"/>
	<path class="st0" d="M233.4,438.4c-3,2.1-6.1,4-9.3,5.7c-1.7,0.9-4.9,3.4-6.9,1.8c-1.3-1-1.2-4.2-1.1-5.5c0.3-3.2,1.6-6.1,3.1-8.9
		c0.8-1.5,1.7-2.9,2.7-4.4c-2.7-3.8-4.9-8.1-6.1-13.1c-5.7-19.9-10.5-39.7-20.3-57c-0.9,5.2-0.4,10.7,0.2,15.9
		c1,8.2,3,16.1,5.8,23.9c0.1,0.4,0.5,0.5,0.9,0.5c-1.8,10.1-2.2,20.3-1.1,30.5c-0.4,3,0,5.9,1.3,9c0.2,0.4,0.8,0.5,1.5,0.4
		c1.5,7.4,4.9,14.2,12.7,16.9c3.1,1.1,6.5,0.7,9.5,2c2.7,1.1,4.6,2.9,7.6,3.2c7.3,0.8,15.3-1.3,22.6-1.6c8.1-0.3,16.2,0.2,24.3,0.8
		c4.5,0.3,8.9,0.3,13.1-0.6c-17.9-5.6-39.9-4.9-57.1-16.8C235.7,440.1,234.5,439.3,233.4,438.4z"/>
	<path class="st23" d="M255.7,129.5c-0.8-1.7-1.4-3.5-1.9-5.3c-1.5-1.3-2.2-3.4-2.2-5.5C251,123,251.5,127.2,255.7,129.5z"/>
	<path class="st23" d="M253.1,113.9c1.2-1.7,3.1-3,5.8-3.2c2.2-0.1,4.2-1.6,6.1-2.7c0.5-0.3,1.1-0.6,1.6-0.9
		c2.2-1.6,4.4-3.5,6.4-5.2c-3.9,1.8-7.9,3.5-11.7,5.3C258,108.9,254.8,110.8,253.1,113.9z"/>
	<path class="st23" d="M285.1,433.9c-0.2,0.1-0.5,0.1-0.7,0.2c2.7-0.3,5.4-0.8,8-1.5c-0.8-0.4-1.7-0.8-2.5-1.3
		c-0.1,0-0.1-0.1-0.1-0.1C288.4,432.4,286.8,433.3,285.1,433.9z"/>
	<path class="st23" d="M227.9,297.4c0.4,2.6,0.8,5.2,1.1,7.9c0.1,0.9,0.2,1.7,0.2,2.5c0-0.8,0-1.6,0-2.4c0-1,0.2-2,0.5-2.8
		C229.2,300.9,228.6,299.2,227.9,297.4z"/>
	<path class="st23" d="M227.5,330.5c-0.1-1.5,0.2-2.7,0.8-3.7c0.1-1.4,0.2-2.7,0.3-4.1c-0.8,5.2-2,10.5-3.2,15.7
		c-1.2,4.8-2,9.7-2.5,14.7C224.9,345.6,227.8,338.3,227.5,330.5z"/>
	<path class="st23" d="M208.6,123.8c-1.9,2.8-3.8,5.7-5.5,8.6c-1.5,2.6-3.5,5.5-4.8,8.6c1.3-2.2,3-4.3,4.4-6.5
		C204.8,130.9,206.9,127.4,208.6,123.8z"/>
	<path class="st23" d="M292.2,92.2c0.4-1.4,0.8-2.8,1.2-4.3c-1.5,1.9-3.2,3.6-5.1,5.2C289.6,92.8,290.9,92.4,292.2,92.2z"/>
	<g>
		<g>
			<path class="st9" d="M347.6,431.9c-6.7-3.7-13.3-5.4-20.9-4.3c-8.9,1.3-17.3,5.7-26.3,6.4c-4.5,0.3-8-2-12.3-2
				c-3.3,0-6.1,1.8-9.3,2.2c-11.7,1.5-19.2-6.3-26.6-13.9c-0.7-0.7-2.7,0.2-3.3,0.7c-10.1,9.2-19.1,19.6-31.8,25.2
				c0.9,0,1.9,0,2.8,0c-0.9,0-1.9,0-2.8,0c1-0.1,1.9-0.1,2.9-0.2c0-1.3-0.6-1.9-0.9-3.1c-0.5-1.8,0-2.8,0.7-4.6
				c1.3-3.2,3.2-6.3,4.9-9.3c3.5-6.1,7.2-12,10.2-18.3c2.4-5,1.3-7.1-1.6-11.5c-2.9-4.3-4.7-9-6.1-14c-3.7-13.5-3.3-27.7-1.3-41.4
				c0.9-6.5,2.2-12.9,3.5-19.3c0.7-3.5,1.5-7,2.2-10.5c0.7-3.4,0.5-5.8-0.1-9.3c-1.1-6.9-2.6-13.8-4.1-20.6
				c-0.8-3.8-1.7-7.5-2.5-11.2c-0.3-1.6-0.7-3.1-1-4.7c-0.5-2.3-0.5-2.3-1.9-3.7c-3.6-3.5-6.4-6.1-6.9-11.4
				c-0.5-5.2,0.9-10.4,2.1-15.3c0.9-3.8,2.4-8.3,2.1-12.3c-0.2-3.1-2.2-6.2-3.5-9.1c-1.5-3.5-2.8-7-4-10.6
				c-1.1-3.4-4.9-11.9-2.1-15.3c2.3-2.9,8.4-2.5,11.4-0.9c1.8,1,3.3,2.2,5.4,2.1c5.6-0.2,15.8-15.7,8.4-16.9
				c-1.6-0.3-3.5,0.1-5.1,0.3c-4.6,0.5-9.2,1.2-13.8,1.6c-7.7,0.7-15.5,1.4-23.1,3c0.5,0.2,1,0.3,1.5,0.5c0.1-1,0-0.7-1.5-0.5
				c0.5,0.2,1,0.3,1.5,0.5c0.9-2.4,0-4.1-0.6-6.4c-1.2-4.9,7.1-5.2,10.7-5.4c2.4-0.1,5.1-0.1,7.3,0.9c0.8,0.3,1.4,1,2.2,1.3
				c1.3,0.4,2.8,0.4,4.1-0.2c2.1-0.9,3.7-3.2,5.3-4.8c2.6-2.6,5.3-5.2,7.6-8.1c1.4-1.8,4.6-5.5,4.5-7.9c-0.1-2.2-2.8-3.8-4.4-5
				c-0.9-0.7-2.9,0.1-3.5,0.9c-0.5,0.7-0.6,0.6-0.4,1.3c0.1,0.4,0.7,0.4,1,0.3c1.4-0.1,3.6-0.6,2.9-2.4c-0.4-1-3,0.1-3.4,0.6
				c-3.4,3.9-6.8,7.9-10.6,11.4c-5.2,4.8-10.6,6.3-17.5,6.4c0.3,0.2,0.7,0.3,1,0.5c0.1-0.1,0.1-0.2,0.2-0.3c-0.7,0.3-1.4,0.7-2.1,1
				c-0.2-0.1-0.5-0.2-0.7-0.3c0.7-0.3,1.4-0.7,2.1-1c-0.3,0.1-0.6,0.1-0.9,0.2c0.5,0.1,1,0.2,1.5,0.3c-0.5-5.8-2.4-11.6-1.9-17.5
				c0.5-5.4,3-10.5,5.6-15.2c5.1-9.1,11.8-17.1,16.9-26.2c-1.2,0.3-2.3,0.6-3.5,0.9c2.3,1.3,5,1.8,7.2,3.2c2.8,1.9,3.9,6.1,4.7,9.2
				c1.8,6.3,1.9,13.5,5,19.4c2.4,4.6,6.8,8.2,10.6,11.7c2.6,2.3,6.9,4.7,4.9,8.6c-1.2,2.4-4.4,4.5-6.3,6.3c-0.2,0.2-0.2,0.4,0,0.6
				c2.3,2.1,4.7,3.9,7,6c0.7,0.6,2.5-0.1,3.1-0.5c7.9-6,15.1-13,22.9-19.2c0.2-0.1,0.6-0.5,0.3-0.8c-1.5-1-6.3-1.3-6.5,1.4
				c-0.2,3.2,5.2,0,6.2-0.7c0.2-0.2,0.6-0.5,0.3-0.8c-3.5-3.5-7.3-5.9-11.2-8.8c-3.7-2.9-6.1-6.1-7.8-10.3c-0.8-2-2.6-3.4-3.4-5.4
				c-0.9-2.3-0.7-4.9-0.4-7.3c0.9-5.8,5.9-8.1,10.5-10.9c4.8-2.9,9.8-5.6,14.7-8.3c3.9-2.1,10-4,13.3-7c2.5-2.3,3.5-7.3,4.1-10.6
				c1-5.2,1.1-10.5,2.1-15.7c0.2-1-3.4-0.4-3.6,0.6c-1.1,6.3-1.1,12.8-2.8,18.9c-1,3.8-2.2,6-5.5,8.1c-3.1,1.9-6.5,3.4-9.7,5.1
				c-5.8,3-11.5,6.1-17,9.6c-2.4,1.5-6.8,3.5-8.4,5.8c-1,1.4-1.2,3.9-1.4,5.7c-0.3,2.1-0.4,4.3,0.3,6.3c0.8,2.6,2.7,4.2,3.7,6.6
				c2.3,5.3,5.7,8.7,10.6,12c2.4,1.6,4.4,3.8,6.8,5.4c2.5,1.7,1.9,0.1,0.5,2c-0.7,0.9-2.3,1.8-3.1,2.6c-6.1,5.1-12,10.6-18.3,15.4
				c1-0.2,2.1-0.3,3.1-0.5c-1.4-1.3-3.5-2.5-4.7-4c-1.3-1.7-1.6-1.6-0.1-3.6c2-2.5,4.3-4.3,5.9-7.1c0.1-0.1,0-0.3-0.1-0.3
				c-3.4-3.9-7.5-7.1-11.2-10.8c-4.6-4.5-6.9-9.2-8.3-15.5c-1.2-5.4-1.9-10.9-4.1-16c-2.3-5.1-5.8-5.1-10.4-7.7
				c-0.9-0.5-3,0-3.5,0.9c-5.3,9.6-12.5,18-17.7,27.6c-2.3,4.3-4.6,9.1-5,14c-0.5,5.9,1.5,11.8,2,17.7c0,0.5,1.3,0.3,1.5,0.3
				c1.1-0.2,2.5-0.3,3.1-1.4c0.2-0.4-0.5-0.5-0.6-0.5c-1.4-0.2-3.2,0.2-4,1.5c-0.3,0.5,0.9,0.5,1,0.5c5.3-0.1,10.9-0.3,15.6-3
				c6.9-4,12.2-10.7,17.3-16.6c-1.1,0.2-2.3,0.4-3.4,0.6c0,0.3,0,0.6,0,0.9c0.8-0.4,1.7-0.7,2.5-1.1c0.3-0.2,0.7-0.4,1-0.5
				c-1.2,0.3-2.3,0.6-3.5,0.9c1.7,1.3,4.2,2.7,4,5.3c-0.1,1.5-2.3,4.3-3,5.2c-2.3,3.2-5.1,6-7.9,8.8c-0.8,0.8-2.8,3.5-3.7,3.6
				c-1.1,0.1-1.9-0.9-2.9-1.3c-2-0.8-4.5-0.8-6.6-0.8c-5.2,0-11.7,1-16.2,3.9c-3.8,2.4,0.7,6.5-0.6,10.2c-0.2,0.7,1.2,0.5,1.5,0.5
				c1-0.1,8.5-1.3,5.2-3c-1.8-0.9-6.4,0.4-6.7,2.6c-0.1,0.7,1.1,0.5,1.5,0.5c7-1.4,14.2-2.1,21.3-2.8c3-0.3,5.9-0.6,8.9-0.9
				c2.5-0.3,9.3-2.5,11.2-0.2c1.8,2.1-2,7.5-3,9c-2.4,3.3-4.1,2.9-7.5,1.3c-3.6-1.6-7.9-1.1-11.6,0.3c-2.4,0.9-5,1.9-5.9,4.5
				c-1.5,4.4,1.1,10.2,2.5,14.4c1.9,5.8,4.8,11.2,6.8,17c1.7,4.8-0.6,11-1.7,15.8c-1.7,7.4-3.9,16.3,1.5,22.8c0.8,1,1.8,1.7,2.7,2.6
				c1.7,1.7,2.3,2.9,3,5.1c0.9,3,1.4,6.3,2,9.4c1.7,7.5,3.4,15,4.7,22.5c0.6,3.6,1.6,7.3,1.1,10.9c-0.3,2.9-1.2,5.9-1.8,8.7
				c-1.5,7-2.9,14-4,21.1c-1.8,12.1-2.6,24.6-0.5,36.7c1.1,6.3,2.8,13.5,6.2,19c0.8,1.4,1.8,2.7,2.6,4.1c2.1,3.5,2.1,5.1,0.4,8.9
				c-3.2,6.9-7.4,13.2-11.1,19.8c-1.6,2.9-3.8,6.2-4.8,9.4c-0.8,2.4-0.8,0.9-0.5,2.5c0.3,1.5,1.4,2.3,1.4,3.9c0,0.9,2.6,0,2.9-0.2
				c0.7-0.3,1.3-0.5,1.7-1.1c0.1-0.1,0.3-0.4,0-0.6c-1.4-0.8-4.4-0.1-4.6,1.7c-0.1,1.1,2.4,0.2,2.8,0c13.2-5.8,22.5-16.5,33-26.1
				c-1.1,0.2-2.2,0.5-3.3,0.7c6.3,6.5,11.4,12,20.6,13.9c3.2,0.7,6.5,0.7,9.8,0.1c3.7-0.6,6.4-2.4,10.3-1.3c7.2,2,13.3,1.1,20.5-1
				c5-1.4,10-3.3,15.2-4.1c7-1.1,12.9,0.6,19,3.9C345.2,433.7,348.2,432.2,347.6,431.9L347.6,431.9z"/>
		</g>
	</g>
	<g>
		<path class="st9" d="M235.2,201.5V199c-1,0.1-1.9,0.2-2.9,0.3l-0.6-1.8c3.2-0.2,5.8-0.8,7.7-1.5l0.9,1.6c-1.1,0.4-2.1,0.7-3.2,1
			v2.8h3.4v1.8h-3.4v0.8c1.2,1,2.3,2.2,3.5,3.4l-1.2,1.7c-0.9-1.3-1.7-2.4-2.4-3.2v8.8h-1.9v-8.4c-0.8,1.7-1.9,3.3-3.2,4.8l-0.8-2.2
			c1.8-1.7,3.2-3.6,4-5.7v-0.1h-3.5v-1.8H235.2z M249.4,214.2h-1.9v-1.5H243v1.8h-1.9v-17.2h8.3V214.2z M247.5,210.8v-11.8H243v11.8
			H247.5z"/>
		<path class="st9" d="M264.6,207c-0.1,0.4-0.1,0.8-0.2,1.2h7.7v1.8h-8.4c-0.5,0.9-1.1,1.7-1.9,2.4c-1.4,1.2-3.8,2.2-7.2,2.9
			l-0.8-1.9c3-0.5,5.1-1.3,6.4-2.3c0.4-0.3,0.8-0.7,1.1-1.1h-6.5v-1.8h7.6c0.1-0.5,0.2-0.9,0.3-1.4L264.6,207z M259.4,197.9
			c-0.2-0.6-0.5-1.2-0.9-1.7l2-0.3c0.3,0.6,0.6,1.3,0.8,2h4.1c0.3-0.7,0.5-1.4,0.7-2.1l2,0.3c-0.2,0.6-0.4,1.2-0.7,1.8h4.3v1.8h-7.4
			v1.6h6.4v1.7h-6.4v1.6h8.1v1.8h-18.2v-1.8h8.1V203h-6.3v-1.7h6.3v-1.6H255v-1.8H259.4z M273,213.5l-1.1,1.7
			c-2.5-1.4-5-2.5-7.6-3.2l1-1.5C268.2,211.3,270.7,212.3,273,213.5z"/>
		<path class="st9" d="M281.6,204.3l-1.4,1.4c-0.8-1-2-2-3.5-3.1l1.3-1.3C279.4,202.3,280.6,203.3,281.6,204.3z M281.8,207.6
			c-0.9,2.6-2,5.1-3.1,7.4l-1.8-0.8c1.2-2.4,2.3-4.8,3.2-7.2L281.8,207.6z M282.1,199.3l-1.4,1.4c-0.8-0.9-2-1.9-3.5-3l1.3-1.3
			C280,197.4,281.1,198.3,282.1,199.3z M282.1,203.4l-1.2-1.5c2.1-1.4,3.9-3.4,5.4-6l1.9,0.4c-0.3,0.5-0.6,1-0.9,1.4h5.5v1.3
			c-0.5,0.8-1,1.5-1.6,2.1h3.2v9.1h-11.1v-7.9C282.9,202.8,282.5,203.1,282.1,203.4z M284.8,211.2c-0.5,1.5-1.1,2.9-2,4l-1.6-1
			c0.8-1,1.4-2.1,1.8-3.3L284.8,211.2z M290.5,199.4h-4.4c-0.5,0.6-1,1.2-1.6,1.8h4.5C289.5,200.7,290,200.1,290.5,199.4z M288,205
			v-2h-2.8v2H288z M288,206.6h-2.8v2h2.8V206.6z M288.3,214.7l-1.8,0.2c-0.1-1.6-0.4-2.8-0.8-3.6l1.6-0.2
			C287.8,212,288.1,213.2,288.3,214.7z M291.7,214.6l-1.8,0.2c-0.1-1.6-0.5-2.8-0.9-3.7l1.7-0.2
			C291.1,211.9,291.5,213.1,291.7,214.6z M289.8,205h2.9v-2h-2.9V205z M292.6,206.6h-2.9v2h2.9V206.6z M295.7,214.5l-1.7,0.6
			c-0.5-1.4-1.1-2.7-1.9-4.1l1.7-0.5C294.7,212,295.3,213.3,295.7,214.5z"/>
		<path class="st9" d="M304.3,204.4l-1.4,1.4c-0.8-1-2-1.9-3.4-3l1.4-1.3C302.3,202.4,303.4,203.4,304.3,204.4z M304.3,208.2
			c-0.8,2.4-1.6,4.7-2.6,6.8l-2-0.9c1.1-2.2,2-4.4,2.8-6.7L304.3,208.2z M304.9,199.4l-1.4,1.4c-0.9-1-2.1-2-3.7-3.1l1.4-1.3
			C302.7,197.3,304,198.4,304.9,199.4z M308,198.1v-2h1.9v2h3v-2h1.9v2h2.5v1.8h-2.5v2h3.1v1.8h-3.1c0.8,1.2,2.1,2.2,3.7,2.9
			l-0.8,1.7c-1-0.5-1.9-1.1-2.6-1.7v4.1H309v1.6c0,0.5,0.3,0.7,0.8,0.7h5.3c0.4,0,0.6-0.2,0.7-0.4c0.1-0.2,0.2-0.8,0.3-1.7l1.9,0.6
			c-0.1,1-0.3,1.8-0.4,2.2c-0.3,0.7-0.9,1.1-1.8,1.1h-6.7c-1.3,0-2-0.6-2-1.8v-5.7c-0.6,0.5-1.3,1-2,1.5l-1-1.7
			c1.9-1,3.2-2.2,3.9-3.4h-3v-1.8h3.1v-2h-2.3v-1.8H308z M314.3,205.6c-0.5-0.6-1-1.2-1.3-1.9h-3.2c-0.3,0.7-0.7,1.3-1.1,1.9H314.3z
			 M313.4,208.9v-1.7H309v1.7H313.4z M313,201.9v-2h-3v2H313z"/>
	</g>
	<g>
		<path class="st9" d="M296.8,401l-1.1-1.6c3.6-1.6,6.5-3.6,8.7-6h1.6c1.9,2.4,4.8,4.4,8.6,6l-1.1,1.6c-1-0.4-1.9-0.9-2.8-1.4v1.1
			h-4.5v2.5h7.2v1.8h-7.2v5.1h1.9c0.6-1.3,1.2-2.7,1.7-4.1l1.8,0.6c-0.5,1.3-1,2.5-1.5,3.5h4v1.9h-17.8V410h4.1
			c-0.4-1.2-0.9-2.3-1.5-3.4l1.8-0.6c0.6,1.1,1.1,2.4,1.6,4h2V405h-7.2v-1.8h7.2v-2.5h-4.5v-1.2C298.7,400,297.8,400.5,296.8,401z
			 M305.1,395.2c-1.4,1.4-2.9,2.6-4.5,3.7h8.9C307.8,397.8,306.4,396.6,305.1,395.2z"/>
		<path class="st9" d="M323.2,401.6l-1.4,1.4c-0.8-1-1.9-1.9-3.4-3l1.4-1.4C321.1,399.6,322.3,400.6,323.2,401.6z M323.4,405
			c-0.8,2.6-1.8,5-2.9,7.3l-2-0.9c1.2-2.3,2.2-4.7,3.1-7.2L323.4,405z M323.8,396.6l-1.4,1.4c-0.9-1-2.1-2-3.6-3.1l1.4-1.4
			C321.6,394.6,322.8,395.6,323.8,396.6z M328.4,396.3c-0.8,3.7-1.9,6.6-3.3,8.6l-1.5-1.4c1.4-2.2,2.4-4.7,3-7.7L328.4,396.3z
			 M336.5,403.6c-1.9,4.5-5.7,7.4-11.4,8.8l-1.1-1.8c5.4-1.2,9-3.9,10.8-8L336.5,403.6z M331.6,393.3v12.4h-2v-12.4H331.6z
			 M337.6,401.2l-1.7,0.9c-1-2.2-2-4.3-3.1-6.1l1.7-0.8C335.5,397.1,336.5,399.1,337.6,401.2z"/>
		<path class="st9" d="M345.6,401.4l-1.3,1.3c-0.7-1-1.8-2-3.2-3.1l1.3-1.2C343.7,399.4,344.7,400.4,345.6,401.4z M345.9,404.8
			c-0.9,2.6-1.9,5-2.9,7.3l-1.8-0.8c1.2-2.4,2.2-4.8,3.1-7.2L345.9,404.8z M345.7,396.4l-1.3,1.3c-0.7-0.9-1.7-1.9-3-3l1.3-1.2
			C343.9,394.5,344.9,395.4,345.7,396.4z M347.1,400.5c-0.1,0.9-0.2,1.7-0.4,2.5l-1.1-0.4c0.2-0.7,0.4-1.5,0.5-2.4L347.1,400.5z
			 M350.6,399.7l-1.2,0.3c-0.1-0.2-0.1-0.4-0.1-0.6c-1,0.2-2.1,0.3-3.4,0.5l-0.2-1.1c0.4-0.1,1-0.8,1.8-1.9c-0.5,0-1,0.1-1.4,0.1
			l-0.2-1c0.6-0.6,1.1-1.6,1.6-2.8l1.3,0.4c-0.4,1-0.9,1.7-1.4,2.3c0.3,0,0.7-0.1,1-0.1c0.2-0.4,0.4-0.7,0.7-1.1l1.3,0.5
			c-0.6,0.9-1.1,1.6-1.5,2.2l1.1-0.3C350.1,397.8,350.4,398.7,350.6,399.7z M348.9,408h10.3c0,1.8-0.2,3-0.5,3.5
			c-0.3,0.5-1,0.8-2.1,0.8c-1,0-2,0-2.9-0.1l-0.4-1.6c1.1,0,2.1,0.1,3,0.1c0.5,0,0.8-0.1,0.9-0.3c0.1-0.2,0.1-0.5,0.2-1H347l0.6-3.9
			h9.2v-1h-9.4v-1.4h11.2v3.8h-9.4L348.9,408z M348.8,402.7l-1.2,0.1c0-1-0.1-1.8-0.1-2.4l1-0.1
			C348.7,400.9,348.8,401.7,348.8,402.7z M347.7,398.6l1.3-0.2c-0.1-0.3-0.2-0.6-0.3-0.9C348.3,397.9,348,398.3,347.7,398.6z
			 M350.6,402.2l-1,0.4c-0.1-0.7-0.3-1.4-0.5-2.1l1-0.3C350.3,400.9,350.4,401.5,350.6,402.2z M351.9,394.4c-0.1-0.4-0.2-0.7-0.4-1
			l1.6-0.3c0.1,0.4,0.2,0.8,0.4,1.3h1.7v1.3h-4.9v-1.3H351.9z M354.8,399.5v3.1h-4v-3.1H354.8z M354.6,396.3v1.1h-3.7v-1.1H354.6z
			 M354.6,397.9v1.1h-3.7v-1.1H354.6z M353.5,400.5h-1.4v1.1h1.4V400.5z M360.1,399.6l-1.1,0.3l-0.1-0.5c-1,0.2-2.2,0.4-3.4,0.5
			l-0.3-1.1c0.4-0.1,1-0.7,1.8-1.8c-0.5,0-0.9,0.1-1.4,0.1l-0.2-1c0.6-0.6,1.1-1.5,1.6-2.7l1.3,0.4c-0.4,0.9-0.9,1.7-1.4,2.2
			c0.3,0,0.7-0.1,1-0.1c0.2-0.3,0.5-0.7,0.7-1.1l1.3,0.5c-0.5,0.7-1,1.4-1.4,1.9l0.8-0.2C359.5,397.7,359.8,398.6,360.1,399.6z
			 M356.6,400.4c-0.1,0.8-0.2,1.7-0.3,2.5l-1.1-0.4c0.2-0.7,0.4-1.5,0.5-2.3L356.6,400.4z M358.4,402.6l-1.2,0.1
			c0-1-0.1-1.8-0.2-2.4l1-0.1C358.2,400.8,358.3,401.6,358.4,402.6z M357.1,398.6c0.5-0.1,1-0.2,1.4-0.3c-0.1-0.3-0.2-0.6-0.4-0.9
			C357.7,397.9,357.4,398.3,357.1,398.6z M360.2,402l-1,0.4c-0.2-0.7-0.4-1.4-0.6-2.1l0.9-0.3C359.7,400.8,360,401.4,360.2,402z"/>
	</g>
	<g>
		<g>
			<path class="st9" d="M227,309.9c-5.8,7.3-11.3,14.9-17.1,22.2c-5.9,7.5-12.1,15.5-14.4,25c-2.5,10.3,0,20.8,1.8,31
				c1.9,10.5,1.5,20.5,1.1,31.1c-0.3,9.2,0.6,18.6,6.5,26c5.5,6.9,13.8,11,22.3,13.1c9.7,2.3,19.8,1.9,29.7,1.6
				c10.7-0.4,21.5,0.4,32.1-0.8c8.4-0.9,16.2-3.5,22.9-8.7c8.5-6.6,15.3-17.8,26.9-18.9c1-0.1,3.9-1.7,1.5-1.5
				c-15.3,1.4-22,14.4-33.8,22.1c-10.1,6.6-22.4,6-34,5.9c-10.5,0-21,1-31.5,0.3c-9.7-0.6-19.6-3.1-27.4-9.3
				c-7.7-6-11-14.6-11.5-24.2c-0.5-9.9,1.2-19.8,0.1-29.7c-1.2-10.1-4.3-20-4.2-30.2c0.2-12.4,6.7-22.3,14.1-31.8
				c6.1-7.8,12-15.8,18.2-23.6C231.1,308.7,227.6,309.2,227,309.9L227,309.9z"/>
		</g>
	</g>
	<path class="st9" d="M221.1,119c-1.1,0.1-3.1,0.7-3.3,2.1c0,0.1,0,0.2,0.1,0.3c0,0.1-0.1,0.2,0,0.3c0.5,1,1.8,1.1,2.8,1
		c1.2-0.2,2.9-0.9,2.8-2.4C223.3,119.2,222.1,118.9,221.1,119z"/>
	<path class="st9" d="M226,131.9c-0.1-0.6-1.6-0.2-2-0.1c-0.3,0.1-1.5,0.4-1.6,0.9c-0.2,0.2-0.3,0.3-0.3,0.4
		c0.2,0.2,0.3,0.5,0.5,0.7c0.4,0.5,1.4,0.3,2,0.1c0.4-0.1,1.8-0.5,1.6-1.1C226.2,132.6,226.1,132.3,226,131.9z"/>
	<path class="st9" d="M208.4,142.6c-0.1-0.6-1.6-0.2-2-0.1c-0.3,0.1-1.5,0.4-1.6,0.9c-0.2,0.2-0.3,0.3-0.3,0.4
		c0.2,0.2,0.3,0.5,0.5,0.7c0.4,0.5,1.4,0.3,2,0.1c0.4-0.1,1.8-0.5,1.6-1.1C208.5,143.2,208.5,142.9,208.4,142.6z"/>
	<path class="st9" d="M237,445.2c-0.1-0.6-1.6-0.2-2-0.1c-0.3,0.1-1.5,0.4-1.6,0.9c-0.2,0.2-0.3,0.3-0.3,0.4
		c0.2,0.2,0.3,0.5,0.5,0.7c0.4,0.5,1.4,0.3,2,0.1c0.4-0.1,1.8-0.5,1.6-1.1C237.1,445.9,237.1,445.5,237,445.2z"/>
	<path class="st9" d="M212,132.5c-1-0.6-2.3-0.5-3.2,0.3c-0.4,0.3-0.7,0.8-0.6,1.3c-0.3,0.4-0.5,0.9-0.1,1.4
		c0.5,0.8,1.7,0.6,2.5,0.3c0.8-0.3,1.6-1,1.8-1.9C212.5,133.3,212.5,132.7,212,132.5z"/>
	<path class="st9" d="M216.4,142v0.8c0,0.6,3.6,0.1,3.6-1V141C220,140.4,216.4,140.9,216.4,142z"/>
	<path class="st9" d="M207.7,430.3v0.8c0,0.6,3.6,0.1,3.6-1v-0.8C211.3,428.7,207.7,429.2,207.7,430.3z"/>
	<path class="st9" d="M207.9,172.3c-0.1-0.2-0.4-0.3-0.8-0.3c0,0,0-0.1,0-0.1c0.2-0.6-1.2-0.3-1.4-0.3c-0.5,0.1-0.9,0.2-1.4,0.4
		c-0.2,0.1-0.6,0.3-0.7,0.5c-0.3,0.7-0.1,1.4,0.4,1.9c0.3,0.3,1.3,0,1.6,0c0.6-0.1,1.2-0.3,1.7-0.7
		C207.8,173.3,208,172.8,207.9,172.3z"/>
	<path class="st9" d="M220,418.6c-0.1-0.2-0.4-0.3-0.8-0.3c0,0,0-0.1,0-0.1c0.2-0.6-1.2-0.3-1.4-0.3c-0.5,0.1-0.9,0.2-1.4,0.4
		c-0.2,0.1-0.6,0.3-0.7,0.5c-0.3,0.7-0.1,1.4,0.4,1.9c0.3,0.3,1.3,0,1.6,0c0.6-0.1,1.2-0.3,1.7-0.7
		C219.9,419.7,220.2,419.2,220,418.6z"/>
	<path class="st9" d="M208.8,152.8c-0.5,0.1-1,0.2-1.4,0.5c-0.2,0.2-0.7,0.5-0.7,0.8v1.9c0,0.8,0.9,0.9,1.6,0.8
		c0.5-0.1,1-0.2,1.4-0.5c0.2-0.2,0.7-0.5,0.7-0.8v-1.9C210.4,152.8,209.5,152.7,208.8,152.8z"/>
	<path class="st9" d="M209.8,411.8c-0.5,0.1-1,0.2-1.4,0.5c-0.2,0.2-0.7,0.5-0.7,0.8v1.9c0,0.8,0.9,0.9,1.6,0.8
		c0.5-0.1,1-0.2,1.4-0.5c0.2-0.2,0.7-0.5,0.7-0.8v-1.9C211.4,411.9,210.5,411.8,209.8,411.8z"/>
	<path class="st9" d="M246.8,449.7c-0.5,0.1-1,0.2-1.4,0.5c-0.2,0.2-0.7,0.5-0.7,0.8v1.9c0,0.8,0.9,0.9,1.6,0.8
		c0.5-0.1,1-0.2,1.4-0.5c0.2-0.2,0.7-0.5,0.7-0.8v-1.9C248.4,449.8,247.4,449.6,246.8,449.7z"/>
	<g class="st20">
		<g>
			<path class="st1" d="M343.8,216.1c2.7,0.9,5.5,1,8.2,0c1.2-0.4,2.4-1.1,3.5-1.8c1-0.8,1.9-2.4,3.1-3c-0.9,0-1.7,0-2.6,0
				c3,1.6,4,3.9,8,3.3c4.1-0.6,4.6-3.4,7.3-5.7c-0.9,0.3-1.7,0.6-2.6,0.9c2.1,0.3,4.3,3.4,6.3,4.3c1.7,0.7,3.4,1,5.3,0.8
				c1.5-0.2,3-0.7,4.2-1.7c0.9-0.7,1.9-3.3,2.7-3.7c-0.9,0-1.7,0-2.6,0c3,1.5,4,4.5,7.7,5.2c2.6,0.5,5,0,7.3-1.1
				c2.7-1.2,0.3-3.3-1.9-2.3c-6.4,3-8.1-7.4-13.3-3.7c-2.9,2.1-2.7,6-7.8,3.1c-1.9-1.1-3.4-3.4-5.6-3.8c-1.3-0.2-2.3,0-3.3,0.8
				c-0.4,0.3-1.2,1.8-1.5,2c-8.6,5.8-3.3,0.4-6.1-0.5c-1.4-0.4-1.8-0.9-3.4-0.4c-0.9,0.3-1.3,0.7-2,1.4c-2.5,2.3-4.9,4.1-8.4,3
				C344.6,212.8,341.2,215.2,343.8,216.1L343.8,216.1z"/>
		</g>
	</g>
	<g class="st20">
		<g>
			<path class="st1" d="M233.5,256.1c2,0.6,3.9,0.7,5.9,0.1c2.1-0.7,3-2.6,4.8-3.3c-0.9,0-1.7,0-2.6,0c2.4,1.3,3.1,2.8,6.2,2.2
				c2.8-0.5,3.4-2.4,5.3-4.1c-0.9,0.3-1.7,0.6-2.6,0.9c0.8,0.1,2.7,2.2,3.6,2.6c1.3,0.6,2.6,0.9,4,0.8c1.1-0.1,2.2-0.4,3.1-1
				c1.2-0.8,1.6-2.2,2.6-3c-1,0.1-2.1,0.2-3.1,0.3c2,1,2.6,2.9,5.1,3.5c2.1,0.5,3.9,0,5.9-0.8c2.8-1.1,0.3-3.2-1.9-2.3
				c-3.1,1.2-3.8-1.9-5.7-2.8c-1-0.5-2.2-0.3-3.1,0.3c-0.5,0.4-1.4,1.9-1.8,2.1c-2.6,1.2-4-1.6-5.9-2.3c-1.8-0.7-2.8-0.1-4.2,0.8
				c-1.3,0.8-1.1,1.8-3.2,1.1c-0.6-0.2-1-0.9-1.7-1c-3.3-0.7-4.7,4.1-8.2,3.1C234.3,252.9,230.9,255.4,233.5,256.1L233.5,256.1z"/>
		</g>
	</g>
	<g class="st20">
		<g>
			<path class="st1" d="M312.4,360.7c2.3,0.7,4.5,0.9,6.8,0.1c2.4-0.8,3.7-3.1,5.7-4c-0.9,0-1.7,0-2.6,0c2.6,1.4,3.5,3.3,6.8,2.7
				c3.5-0.5,4-2.8,6.3-4.8c-0.9,0.3-1.7,0.6-2.6,0.9c1.2,0.2,3.3,2.6,4.6,3.2c1.5,0.7,3,1.1,4.6,0.9c1.2-0.1,2.4-0.5,3.5-1.1
				c1.5-0.9,1.9-2.7,3.2-3.6c-1,0.1-2.1,0.2-3.1,0.3c2.3,1.1,3.2,3.5,6,4.2c2.4,0.6,4.5,0.1,6.7-0.9c2.7-1.2,0.3-3.3-1.9-2.3
				c-2.4,1.1-4.7-1.3-6.2-2.5c-0.6-0.5-0.5-0.6-1.3-1c-1-0.5-2.2-0.3-3.1,0.3c-0.6,0.5-1.6,2.1-2,2.4c-2.2,1.2-5-0.5-6.7-1.7
				c-0.5-0.3-0.9-0.8-1.4-1c-1.9-0.7-3,0.1-4.5,1.2c-0.4,0.2-0.4,1-0.7,1.2c-1.3,0.8-3,0-4-0.3c-0.6-0.2-1.1-0.8-1.8-0.9
				c-4.4-0.5-4.2,5.6-9.8,3.8C313.2,357.4,309.8,359.9,312.4,360.7L312.4,360.7z"/>
		</g>
	</g>
	<g>
		<g>
			<path class="st9" d="M232.8,175c1.8-9.2,8.4-18,17.6-20.6c2.1-0.6,1.8-2.1-0.4-1.5c-10.6,2.9-18.7,11.8-20.8,22.6
				C229,176.7,232.6,176.1,232.8,175L232.8,175z"/>
		</g>
	</g>
	<g>
		<g>
			<path class="st9" d="M216,346.7c-2,0-3.4-1.7-5.6-1.5c-1.6,0.1-3.3,0.7-4.5,1.8c-2.1,1.8-4.4,8.6-1.5,10.6
				c2.6,1.7,7.2,0.1,9.4-1.6c2.9-2.3,3.3-6.5,0.3-8.9c-0.8-0.6-3.9,0.9-3.4,1.2c1.6,1.3,2.4,3.4,1.7,5.5c-0.5,1.5-2.3,3.9-4.3,2.8
				c-1-0.5-1.3-1.6-1.4-2.6c-0.1-1.9,0.4-5.6,2-6.9c0.9-0.7-0.2-0.4,0.8-0.3c0.6,0.1,1.1,0.6,1.7,0.8c0.8,0.4,1.5,0.5,2.3,0.5
				c0.7,0,2.1-0.1,2.5-0.7C216.6,347,216.9,346.7,216,346.7L216,346.7z"/>
		</g>
	</g>
	<g>
		<g>
			<path class="st9" d="M219.9,333.8c-2.2-0.2-4.9,0.4-6.4,2.2c-1.3,1.4-1.3,3.9,0.3,5.1c1.8,1.4,4.8,0.6,6.5-0.6
				c2.3-1.6,2.6-4.2,2.8-6.8c0-0.7-3.5-0.2-3.6,1c-0.1,1.3-0.2,2.6-0.7,3.7c-0.2,0.5-0.5,1.2-1,1.5c-0.3,0.3-0.4,0.3-0.3,0
				c-0.2-0.1-0.4-0.2-0.6-0.4c-1-0.9-1.2-4.3,0.7-4.1c0.8,0.1,1.9-0.1,2.5-0.7C220.7,334.3,220.6,333.8,219.9,333.8L219.9,333.8z"/>
		</g>
	</g>
	<g>
		<g>
			<path class="st9" d="M218.4,363.5c-2.8-1.6-6.5-0.5-8.3,2.1c-1.6,2.4-2,7.3,0.6,9.3c2.4,1.8,6.2,0.4,7.9-1.8
				c1.9-2.6,2.2-8,0.4-10.7c-0.8-1.2-4.3,0.1-3.3,1.5c0.9,1.3,1.6,9.7-1.5,9.3c-3.1-0.3-1.9-9.6,1.4-7.7
				C216.9,366.2,220.1,364.4,218.4,363.5L218.4,363.5z"/>
		</g>
	</g>
	<g>
		<g>
			<path class="st9" d="M205.1,386.5c0,1.9-0.1,3.7,0,5.6c0,1.4,0.4,2.6,1.8,3.2c2.7,1.1,6.6,0,8.6-1.9c2-1.9,2.6-5,0.6-7.1
				c-2.4-2.5-6.2-2-9.3-1.4C205.9,384.9,205,385.7,205.1,386.5c0.3,1,1.5,1,2.2,0.8c1.7-0.3,3.8-0.7,5.3,0.4c1.3,1,1.3,3,0.2,4.2
				c-0.9,0.9-3.9,1.9-4-0.1c-0.1-1.9,0-3.8,0-5.6C208.8,384.3,205.1,384.8,205.1,386.5L205.1,386.5z"/>
		</g>
	</g>
	<g>
		<g>
			<path class="st9" d="M200.2,368.6c0,0.7,0,1.4,0,2.1c0,0.5-0.1,1,0.2,1.4c0.5,0.5,1.4,0.4,2,0.3c0.8-0.2,1.7-0.4,2.4-0.9
				c1.4-1,0.9-3.2-0.8-3.6c-0.8-0.2-1.8,0.1-2.5,0.5c-0.3,0.1-1.3,0.7-0.5,0.9c0.5,0.1,0.8,0.6,0.9,1.1c0.1,0.2,0.1,0.5,0.1,0.7
				c-0.1,0.7-0.7,0.5,0.6,0.2c0.4-0.1,0.9-0.1,1.3-0.2c-0.3,0-0.1-3.2-0.1-3.4C203.8,367.1,200.2,367.6,200.2,368.6L200.2,368.6z"/>
		</g>
	</g>
	<g>
		<g>
			<path class="st9" d="M226.4,399.2c-3.2-1.2-7.4-0.1-9.6,2.5c-2.5,2.9-1.3,7.1,1.9,8.8c2.7,1.4,7.5,1,8.6-2.3
				c0.4-1.2,0.5-2.5,0.8-3.7c0.2-1,0.6-2.3,0.2-3.3c-0.6-1.6-2.4-1.5-3.8-1.1c-0.4,0.1-1.8,0.6-1.6,1.2c0.2,0.6,1.6,0.3,2,0.2
				c-1,0.2-0.3,0.1-0.2,0.7c0.1,0.6,0.1,1.1,0,1.8c-0.2,1.2-0.5,2.3-0.7,3.5c-0.1,0.4-0.2,0.9-0.3,1.3c-0.1,0.7,0,0.7-0.5,0.8
				c-0.8,0.1-2-0.8-2.5-1.3c-1.2-1.2-2-3.1-1.5-4.8c0.5-2.1,2.3-3.4,4.3-2.6C224.4,401.1,227.7,399.7,226.4,399.2L226.4,399.2z"/>
		</g>
	</g>
	<g>
		<g>
			<path class="st9" d="M249.9,433.4c-3.5,0.1-7.6,2.4-7,6.5c0.7,4.3,5.5,5.5,9.2,4.8c3.7-0.8,7.6-3.3,7-7.6c-0.6-4.4-5.2-5.8-9-5.3
				c-1.5,0.2-3.2,1.8-0.6,1.5c4.4-0.5,8,4.8,5.1,8.5c-2.1,2.6-5.8,1.6-7.4-1c-0.4-0.7-0.7-1.6-0.7-2.5c0-1,0.6-3.2,1.9-3.2
				C249.5,435,252.3,433.4,249.9,433.4L249.9,433.4z"/>
		</g>
	</g>
	<g>
		<g>
			<path class="st9" d="M273.6,444.3c-1.4-1.1-3.3-0.9-4.9-0.2c-1.9,1-2.7,2.8-2.7,5c0,1.8,0.2,3.6,2,4.5c1.7,0.9,4.3,1.1,6.2,1.1
				c3.6,0,7.8-2,7.7-6.1c-0.1-4.2-4.5-6.2-8.2-5.6c-0.7,0.1-2,0.5-2,1.4c0,0.8,0.9,1.2,1.6,1c2-0.3,4.1,0.5,4.8,2.6
				c0.6,1.8-0.1,3.7-2,4.2c-1.2,0.3-3.5,0-4.7-0.5c-1.2-0.5-1.5-1.3-1.6-2.5c0-0.4-0.2-3.9,1-2.9
				C271.9,447.1,275.1,445.5,273.6,444.3L273.6,444.3z"/>
		</g>
	</g>
	<g>
		<g>
			<path class="st9" d="M285.9,442c0.4,3.1,4.3,3.2,6.5,2c0.8-0.4,1.4-1.3,0.5-1.9c-0.6-0.4-1.6-0.4-1.9-1.1c-0.4-0.8-3.9,0.4-3.6,1
				c0.2,0.5,0.6,0.7,1,0.9c0.3,0.2,1,0.3,1.3,0.6c0,0,0,0.1,0.1,0.1c0,0,0,0.1,0,0.1c0,0.6,0.5,0.5,1.7-0.4
				c-0.3-0.1-0.6-0.2-0.9-0.4c-0.7-0.4-1-1.1-1.1-1.9C289.4,440.4,285.8,441.1,285.9,442L285.9,442z"/>
		</g>
	</g>
	<g>
		<g>
			<path class="st9" d="M305.6,442.4c-2.8-0.3-7.7,0.2-7.8,3.9c-0.1,3.3,4.8,4.6,7.3,4.3c2.8-0.2,6.4-2.4,5.9-5.7
				c-0.5-3.2-4.7-3.6-6.8-1.9c-1.9,1.5,1,2.5,2.3,1.5c0.2-0.2,0.8,1,0.8,0.9c0.2,0.5,0.1,1.1-0.1,1.5c-0.5,1.3-1.8,1.4-3,1.1
				c-0.9-0.2-2.1-0.7-2.6-1.6c-1.1-1.9,1.5-1.8,2.6-1.7C305.9,445,308,442.6,305.6,442.4L305.6,442.4z"/>
		</g>
	</g>
</g>
</svg>
