<?xml version="1.0" encoding="utf-8"?>
<!-- Generator: Adobe Illustrator 22.0.1, SVG Export Plug-In . SVG Version: 6.00 Build 0)  -->
<svg version="1.1" id="圖層_1" xmlns="http://www.w3.org/2000/svg" xmlns:xlink="http://www.w3.org/1999/xlink" x="0px" y="0px"
	 viewBox="0 0 531.5 531.5" style="enable-background:new 0 0 531.5 531.5;" xml:space="preserve">
<style type="text/css">
	.st0{fill:#B6CACD;}
	.st1{fill:#FFFFFF;}
	.st2{fill:#F14900;}
	.st3{fill:#FFFFFF;stroke:#000000;stroke-miterlimit:10;}
	.st4{fill:#F7F9FD;}
	.st5{fill:#606060;}
	.st6{fill:none;stroke:#F7F9FD;stroke-miterlimit:10;}
	.st7{fill:#222222;}
	.st8{fill:#2E313A;}
	.st9{fill:#F3F9F9;}
	.st10{fill:#141F2A;}
	.st11{fill:#17212C;}
	.st12{fill:#18222D;}
	.st13{fill:#E9D08E;}
	.st14{fill:#E3EAEB;}
	.st15{fill:#DAE0E1;}
	.st16{fill:#FEFEFD;}
	.st17{fill:#FEFEFB;}
	.st18{fill:none;stroke:#FFFFFF;stroke-miterlimit:10;}
	.st19{enable-background:new    ;}
	.st20{fill:#628E94;}
	.st21{fill:#8CACB1;}
	.st22{fill:#B7CBCE;}
	.st23{fill:#B7CBCE;enable-background:new    ;}
	
		.st24{fill:none;stroke:#222222;stroke-width:12;stroke-linecap:round;stroke-linejoin:round;stroke-miterlimit:10;stroke-dasharray:10;}
	
		.st25{fill:none;stroke:#222222;stroke-width:4;stroke-linecap:round;stroke-linejoin:round;stroke-miterlimit:10;stroke-dasharray:10,20;}
	.st26{fill:#78B5C8;}
	.st27{opacity:0.46;}
	.st28{fill:none;stroke:#F14900;stroke-width:4;stroke-linecap:round;stroke-miterlimit:10;}
	.st29{fill:#FFFFFF;enable-background:new    ;}
	.st30{fill:#222222;stroke:#000000;stroke-width:4;stroke-miterlimit:10;}
	.st31{fill:#222222;stroke:#000000;stroke-width:5;stroke-miterlimit:10;}
	.st32{fill:#B6CACD;stroke:#FFFFFF;stroke-width:16;stroke-miterlimit:10;}
	.st33{fill:#CDDBDD;}
	.st34{fill:none;stroke:#F14900;stroke-width:4.5;stroke-miterlimit:10;}
	.st35{fill:#CF9479;}
	.st36{fill:#FFFFFF;stroke:#FFFFFF;stroke-width:5;stroke-linejoin:round;stroke-miterlimit:10;}
	.st37{fill:#222222;stroke:#FFFFFF;stroke-width:5;stroke-linejoin:round;stroke-miterlimit:10;}
	.st38{fill:#222222;stroke:#222222;stroke-width:0.5;stroke-miterlimit:10;}
	.st39{opacity:0.77;}
	
		.st40{fill:none;stroke:#F14900;stroke-width:4;stroke-linecap:round;stroke-linejoin:round;stroke-miterlimit:10;stroke-dasharray:10,20;}
</style>
<g>
	<g>
		<path class="st13" d="M238.6,162.2c3.2-4.8,6.7-9.2,12.8-9.7c-1.9-4.1-7-8.6-10.6-9.6c-0.5-0.1-1-0.2-1.5-0.2
			c-0.8-1.1-1.8-2.1-2.8-3c-0.1-0.3-0.3-0.6-0.6-0.9c-5.7-7.5-4.8-17.8-8.2-26.4c1.3-4.6-5.7-8.2-9.1-3.9c-0.6,0.5-1.1,1.2-1.3,1.9
			c-10,14.4-24.3,30.8-19.4,49.5c0.8,2.9,4.7,4.8,7.3,3c0.7-0.5,1.4-0.9,2.1-1.4c0.5,0,1-0.1,1.5-0.3c4.5-1.7,8.5-4,12-7.2
			c2.2-2,7-10.6,10.3-5.6c0.6,0.9,1.3,1.5,2.1,1.9c-0.5,1.8-0.8,3.7-1.3,5.3c-0.2,0.6-0.2,1.1-0.2,1.6c-2.3,2.6-5.4,4.7-7.5,7.3
			c-0.4,0.5-0.7,1-0.9,1.6c-2.8,0.7-3.5,2.5-5.8,3.5c-0.9-1-4.1-2.5-5.5-2.4c-5.1,0.6-10.2,1.1-15.3,1.7c-2.7,0.3-5,2.1-5,5
			c0,2.5,2.3,5.3,5,5c5.1-0.6,10.2-1.1,15.3-1.7c0.9-0.1,1,0.7,1.8,0.3c1.4,1.4,4.3,1,6.6,0c3.1-1.5,6.1-1.9,9.2-1.7
			C231.1,170.3,235.7,166.8,238.6,162.2z"/>
		<path class="st23" d="M337.1,428.2c-1,1.1-2.4,1.7-4.3,1.7c-6.2-0.3-12.2,2.6-17.6,5.2c-7.1,3.4-13.9,7.2-21,10.4
			c-13.2,6-28.4,10.3-40.7,0c-2.4-2-2.3-4.9-0.9-7.1c-5.4-1.1-10.8-2.3-16.4-2.5c-0.3,0-0.5-0.1-0.8-0.1c-3,2.7-6.1,5.2-8.8,7.8
			c-6.8,6.9-13.8-0.9-7-7.7c2-2,3.8-4.2,5.5-6.5c-0.7-0.3-1.2-0.8-1.4-1.6c-1.6-6.3-2.7-12.8-3.5-19.3c-1.5-0.4-3-1.3-3.8-2.5
			c-18.4-26.5-5.6-59.8,3.7-87.9c0.2-1.7,0.4-3.4,0.3-5.2c-0.3-8.5-1.9-17.8-5.5-25.6c-3.2-6.9-7.7-13.5-9.5-20.9
			c-1.9-8,0.1-16.3,1.6-24.2c1.6-8.3,1.8-14.7-2.1-22.3c-3-5.9-6.5-12.3-5.8-19.1c1.5-15,22-18.5,32.8-24.5c0,0,0,0,0.1,0
			c0-0.1,0.1-0.1,0.1-0.2c-2.2,0-4.4-0.3-6.7-0.5c-3.5,0.6-6.9,1.3-10.4,1.6c-6.8,1.8-13.6,4.5-20.7,3.4c-0.8-0.1-1.7-1-1.8-1.8
			c-0.7-4.5-0.8-9.4,4.6-10.4c2.3-0.4,4.8,0,7.1-0.2c1.9-0.1,3.9-0.4,5.8,0c-0.3-1.4-0.1-3,0.5-4.5c0.3-0.6,0.6-1.2,0.9-1.8
			c-0.1,0.1-0.3,0.2-0.4,0.2c-2.3,1-4.7,1.2-7.2,1.1c-1.2,0.8-2.8,1.1-4.4,0.6c-1,1-2.8,1.1-3.7,0c-0.6,0-1.3-0.1-2-0.3
			c-2.2-0.5-4.1-1.6-5.8-3.1c-1.2-0.1-2.4-0.1-3.6-0.1c-4.7,0-7.2-5-5.2-9c0.6-1.3,1.7-6.3,1.7-7.5c0.4-18.3,19.2-31.8,29.5-45
			c2.7-3.4,6.6-2.2,8.6,0.6c0.2,0.1,0.4,0.2,0.5,0.3c0.3,0.2,0.5,0.4,0.8,0.5c6.6,1,11,7,10.3,14c-0.1,1-0.4,2-0.8,2.8
			c0.1,0.7,0.3,1.4,0.5,2.2c0.4,0.4,0.6,0.9,0.7,1.5c0,0.1,0,0.3,0,0.4c1.8,4,3.7,7.5,3.7,12c0,0.7-0.2,1.2-0.5,1.6
			c1,1.6,2.2,3.2,3.2,4.8c3.1,1.2,5.4,3.4,7.8,5.7c2,2,5.1,4.2,6.2,6.9c1,2.5,0,4.3-1.5,6.3c-1.3,1.8-3.1,3.9-3,6
			c3.6-4.9,7.6-9.9,12.1-14.1c-6.4-7-12.6-13.9-12.2-24.2c-1.3-5.3,0-12,2.6-15.8c5.1-7.5,16-9.8,23.7-13.5c9.4-4.5,18-10,20.6-20.7
			c0.3-1.4,1.5-1.9,2.6-1.8c0.5-3.5,0.7-7.1,0.7-10.6c0,0,0,0,0,0c-1.7-0.7-3.6-1.1-5.6-1.1h-1.2c-4.7-4.1-11.5-4.4-17.4-1.6
			c-13.7,6.6-30.3,10.6-45.2,11.2c-14.7,0.7-30.4,0.5-43.5,8.2c0,0-0.1,0.1-0.1,0.1c-7.3,4.4-12,11.6-16.7,18.5c0,0,0-0.1-0.1-0.1
			c-6.8,7.6-15.2,10.8-21.1,19.9c-6.3,9.8-9.9,21-16.8,30.5c-6.7,9.2-16.1,16.1-23.1,25.1c-14.7,18.8-16.3,46.8-3.9,67.2
			c5.4,8.8,12.9,16.2,18.1,25.2c16.7,28.8,2.8,62.7,13.5,93c2.8,7.9,6.9,15,13.1,20.8c2.3,2.2,4.9,4.2,7.3,6.3
			c1.3,1.1,2.5,2.3,3.7,3.6c0,0,0.3,0.4,0.6,0.7c0.3,0.5,0.9,1.5,1,1.6c0.1,0.1,0.1,0.2,0.2,0.3c0.3,0.9,0.6,1.8,0.8,2.7
			c0.3,1.4,0.6,2.8,0.8,4.2c0,0,0.3,2.6,0.4,3c0.4,2.9,0.7,5.9,1.2,8.8c1.4,8.3,5.1,15.8,10.2,22.4c18.5,24,50.8,37.2,80.7,36.1
			c18.3-0.7,33.8-1.8,51.2-6.5c2.2-0.6,4.5-1.2,6.8-1.6c0.9-0.2,1.7-0.3,2.6-0.5c0.2,0,1.6-0.3,1.6-0.3c3.7-0.4,8.3-5.9,12-6.2
			c9.5-0.7,20.4-3.8,24.5-13.5c0.8-1.9,1.4-3.8,1.7-5.6C349,433.1,342.6,428.7,337.1,428.2z"/>
		<path class="st23" d="M196.3,134.5c0.3-0.5,0.6-1,0.9-1.6c-0.9,1.4-1.7,2.9-2.4,4.4C195.2,136.4,195.8,135.4,196.3,134.5z"/>
		<path class="st23" d="M219.2,267.3c0-0.4,0.1-0.7,0.2-0.9c-0.7-0.5-1.3-1.1-1.8-1.7c0.4,1.6,1,3.2,1.7,4.9
			C219.3,268.8,219.2,268.1,219.2,267.3z"/>
		<path class="st29" d="M222,427c1.5-2.3,3.1-4.6,4.4-6.9c0.2-6-1.1-11.9-1.8-17.9c-0.4-0.4-0.7-0.8-1-1.4
			c-13.7-24.7-3.1-54.1-1.7-80.9c-4.2,4.9-8.4,9.7-12.6,14.6c-4.5,5.1-9.4,10.3-12,16.7c-0.8,1.9-1.3,3.8-1.6,5.7
			c9.8,17.3,14.6,37.2,20.3,57C217.1,418.9,219.3,423.2,222,427z"/>
		<path class="st29" d="M335.1,430.4c-1.8-0.5-3.7-0.7-5.5-0.9c-6.3,2.1-12.6,4-19.2,5.2c-8.4,1.5-15.6,5.1-23.8,7.2
			c-16,4.1-26.5-6.1-39.2-13.6c-0.1-0.1-0.2-0.1-0.3-0.2c-0.2,0.1-0.4,0.2-0.6,0.4c-0.5,0-0.9,0.1-1.1,0.2l-4.4,2.6
			c-0.9,0.5-0.5,1,0.1,1.2c-2.5,2.1-5.1,4.1-7.8,5.9c1.1,0.9,2.3,1.7,3.5,2.5c17.2,11.9,39.2,11.1,57.1,16.8c1.8-0.4,3.6-1,5.4-1.8
			c12.9-5.8,24.9-15.7,36-24.5C335.9,431,335.7,430.5,335.1,430.4z"/>
		<path class="st13" d="M233.4,438.4c-3,2.1-6.1,4-9.3,5.7c-1.7,0.9-4.9,3.4-6.9,1.8c-1.3-1-1.2-4.2-1.1-5.5
			c0.3-3.2,1.6-6.1,3.1-8.9c0.8-1.5,1.7-2.9,2.7-4.4c-2.7-3.8-4.9-8.1-6.1-13.1c-5.7-19.9-10.5-39.7-20.3-57
			c-0.9,5.2-0.4,10.7,0.2,15.9c1,8.2,3,16.1,5.8,23.9c0.1,0.4,0.5,0.5,0.9,0.5c-1.8,10.1-2.2,20.3-1.1,30.5c-0.4,3,0,5.9,1.3,9
			c0.2,0.4,0.8,0.5,1.5,0.4c1.5,7.4,4.9,14.2,12.7,16.9c3.1,1.1,6.5,0.7,9.5,2c2.7,1.1,4.6,2.9,7.6,3.2c7.3,0.8,15.3-1.3,22.6-1.6
			c8.1-0.3,16.2,0.2,24.3,0.8c4.5,0.3,8.9,0.3,13.1-0.6c-17.9-5.6-39.9-4.9-57.1-16.8C235.7,440.1,234.5,439.3,233.4,438.4z"/>
		<path class="st23" d="M255.7,129.5c-0.8-1.7-1.4-3.5-1.9-5.3c-1.5-1.3-2.2-3.4-2.2-5.5C251,123,251.5,127.2,255.7,129.5z"/>
		<path class="st23" d="M253.1,113.9c1.2-1.7,3.1-3,5.8-3.2c2.2-0.1,4.2-1.6,6.1-2.7c0.5-0.3,1.1-0.6,1.6-0.9
			c2.2-1.6,4.4-3.5,6.4-5.2c-3.9,1.8-7.9,3.5-11.7,5.3C258,108.9,254.8,110.8,253.1,113.9z"/>
		<path class="st23" d="M285.1,433.9c-0.2,0.1-0.5,0.1-0.7,0.2c2.7-0.3,5.4-0.8,8-1.5c-0.8-0.4-1.7-0.8-2.5-1.3
			c-0.1,0-0.1-0.1-0.1-0.1C288.4,432.4,286.8,433.3,285.1,433.9z"/>
		<path class="st23" d="M227.9,297.4c0.4,2.6,0.8,5.2,1.1,7.9c0.1,0.9,0.2,1.7,0.2,2.5c0-0.8,0-1.6,0-2.4c0-1,0.2-2,0.5-2.8
			C229.2,300.9,228.6,299.2,227.9,297.4z"/>
		<path class="st23" d="M227.5,330.5c-0.1-1.5,0.2-2.7,0.8-3.7c0.1-1.4,0.2-2.7,0.3-4.1c-0.8,5.2-2,10.5-3.2,15.7
			c-1.2,4.8-2,9.7-2.5,14.7C224.9,345.6,227.8,338.3,227.5,330.5z"/>
		<path class="st23" d="M208.6,123.8c-1.9,2.8-3.8,5.7-5.5,8.6c-1.5,2.6-3.5,5.5-4.8,8.6c1.3-2.2,3-4.3,4.4-6.5
			C204.8,130.9,206.9,127.4,208.6,123.8z"/>
		<path class="st23" d="M292.2,92.2c0.4-1.4,0.8-2.8,1.2-4.3c-1.5,1.9-3.2,3.6-5.1,5.2C289.6,92.8,290.9,92.4,292.2,92.2z"/>
		<g>
			<g>
				<path class="st7" d="M347.4,431.6c-7.3-4-14.2-5.5-22.4-4.1c-8.4,1.5-16.3,5.6-24.8,6.2c-4.6,0.3-8.1-2.1-12.5-2
					c-3.1,0-5.8,1.8-8.9,2.2c-5.5,0.6-11.5-0.7-16.2-3.7c-4-2.5-7-6.5-10.3-9.9c-0.8-0.8-2.4-0.3-3.1,0.3c-10,9.1-19,19.6-31.7,25.2
					c0.9,0.2,1.7,0.5,2.6,0.7c-0.9-0.2-1.7-0.5-2.6-0.7c0.9,0.2,1.7,0.5,2.6,0.7c0-2.2-1.5-3.7-1-6c0.6-3.1,3.2-6.6,4.8-9.4
					c3.4-6.1,7.2-12,10.3-18.2c2-4.1,3.5-6.8,0.9-10.8c-2.7-4.3-5-8.4-6.6-13.3c-4.4-13.3-4.5-27.4-2.8-41.2
					c0.8-6.5,2-12.9,3.2-19.3c1.2-6.1,4.2-13.5,3.4-19.7c-1-7.6-2.6-15.1-4.3-22.5c-0.7-3.1-1.4-6.2-2.1-9.4
					c-0.4-1.9-0.8-3.7-1.2-5.6c-0.3-1.6-0.4-4.6-1.3-5.9c-1-1.5-3.8-2.6-5.1-4.1c-1.6-2-2.5-4.3-2.9-6.8c-0.8-5,0.6-10.3,1.7-15.1
					c1-4.2,2.6-8.9,2.4-13.3c-0.1-2.8-1.7-5.2-2.8-7.8c-1.4-3.2-2.7-6.4-3.9-9.7c-1.2-3.3-2.1-6.7-3-10.2c-0.5-2.1-1.3-4.7-0.1-6.8
					c2-3.5,9-2.7,11.8-1.4c1.8,0.9,3.2,2.1,5.2,2.1c5.7,0,15.9-15.8,8.3-17.6c-2.2-0.5-4.9,0.2-7.1,0.5c-4.1,0.5-8.2,1-12.3,1.4
					c-7.8,0.7-15.5,1.4-23.2,3c0.7,0.3,1.4,0.6,2.1,0.9c0.2-1.3,2.5-1.5-1.6-1c0.5,0.3,1.1,0.6,1.6,1c1-2.7-0.4-4-0.6-6.5
					c-0.3-4.3,8.1-4.9,11.3-5c2.3-0.1,4.9-0.1,7.1,0.9c0.8,0.4,1.5,1.1,2.3,1.3c1.4,0.4,2.9,0.4,4.2-0.3c2.6-1.6,5-4.8,7.1-6.9
					c2.2-2.3,4.4-4.6,6.3-7.2c1.2-1.7,3.7-4.7,3.4-7c-0.2-2.3-3.1-3.9-4.7-5.1c-0.9-0.7-2.6,0-3.1,0.8c-0.5,0.7-0.8,0.9-0.5,1.7
					c0.2,0.6,1,0.7,1.6,0.7c1.6-0.2,3-1,2.4-2.7c-0.5-1.2-2.6-0.7-3.3,0.1c-3.6,4.1-7.1,8.4-11.3,12c-5.3,4.6-10.2,5.8-17.1,5.9
					c0.3,0.4,0.7,0.9,1,1.3c-0.6,0.2-1.2,0.4-1.7,0.6c-0.2-0.4-0.4-0.8-0.6-1.2c0.1-0.2,0.3-0.4,0.4-0.6c0.7,0.2,1.4,0.4,2.1,0.6
					c-0.5-5.7-2.5-11.5-2-17.3c0.5-5.6,3.3-10.9,6-15.7c5.1-8.8,11.6-16.6,16.5-25.5c-1,0.3-2.1,0.6-3.1,0.8
					c2.2,1.3,5.1,1.7,7.2,3.2c2.8,2.1,3.9,6.6,4.7,9.7c1.6,6.1,1.8,13,4.8,18.7c2.6,4.9,7.1,8.5,11.1,12.2c1.6,1.5,5.5,4,5.1,6.5
					c-0.4,2.4-5.4,5.7-7,7.3c-0.3,0.3-0.5,0.8-0.2,1.2c2.3,2.1,4.7,3.9,7,6c0.7,0.7,2.1,0.5,2.8-0.1c7.9-6,15.1-13,22.9-19.2
					c0.5-0.4,1-1.1,0.3-1.6c-1.7-1.1-6-1.3-6.2,1.6c-0.2,3.5,4.7,0.9,6,0c0.4-0.3,1-1,0.5-1.4c-6.3-6.2-15.6-10-18.8-18.6
					c-0.7-1.8-1.9-3-2.9-4.7c-1.4-2.5-1.5-5-1.1-7.7c0.8-6,5.5-8.1,10.3-11.1c5-3.1,10.3-5.9,15.5-8.7c3.8-2,9.6-3.8,12.7-6.7
					c2.5-2.4,3.6-7.6,4.2-10.9c1-5.2,1.1-10.5,2.1-15.7c0.3-1.6-3.4-1.1-3.6,0.4c-0.9,5.2-1.1,10.5-2.1,15.7
					c-0.5,2.7-1.1,6.1-2.7,8.4c-1.7,2.4-5.5,3.7-8,5c-9.8,5.1-19.8,10.3-28.8,16.8c-2.9,2.1-3.1,5.1-3.4,8.6
					c-0.3,4.8,2,7.1,3.8,11.2c4.2,9.2,12.5,12.8,19.5,19.6c0.2-0.5,0.3-1,0.5-1.4c-0.1,0.5-0.2,1.1-0.3,1.6c0.1-0.5,0.2-1.1,0.3-1.6
					c-7.8,6.2-15,13.1-22.9,19.2c0.9,0,1.9,0,2.8-0.1c-1.2-1.1-2.5-2.2-3.7-3.2c-2-1.6-2.8-1.7-1.2-3.7c2-2.5,4.4-4.3,6-7.2
					c0.1-0.3,0.2-0.6,0-0.9c-3.4-3.9-7.5-7.2-11.2-10.8c-4.7-4.7-7.1-9.7-8.5-16.2c-1.2-5.6-1.9-11.8-4.8-16.9
					c-2.2-3.9-6.2-4.2-9.8-6.3c-0.9-0.5-2.6-0.1-3.1,0.8c-5.4,9.8-12.8,18.4-18,28.3c-2.3,4.4-4.5,9.3-4.7,14.3
					c-0.2,5.7,1.6,11.3,2,17c0.1,0.8,1.6,0.7,2.1,0.6c1-0.2,1.9-0.4,2.5-1.3c0.3-0.5-0.1-1.1-0.6-1.2c-1.5-0.3-3,0-3.8,1.3
					c-0.4,0.7,0.4,1.3,1,1.3c5.5-0.1,11.1-0.2,15.9-3.2c6.6-4.1,11.7-10.4,16.8-16.3c-1.1,0-2.2,0-3.3,0.1c0,0.2,0.1,0.3,0.1,0.5
					c0.6-0.3,1.3-0.7,1.9-1c-0.1,0-0.3,0-0.4,0c0.5,0.2,1.1,0.4,1.6,0.7c0.1-0.2,0.2-0.3,0.3-0.5c-1,0.3-2.1,0.6-3.1,0.8
					c2.5,1.9,4.2,3.1,2.8,6.6c-0.6,1.6-2,3.1-3,4.5c-2.4,3.1-5.2,5.8-8,8.6c-1.2,1.1-2,2.6-3.8,2.4c-0.6-0.1-1.6-1.1-2.3-1.3
					c-2.3-0.8-5-0.7-7.3-0.6c-4.4,0.1-12.2,1-15.5,4.2c-2.7,2.6,1.2,6.8,0.1,10.1c-0.3,0.8,1.2,1,1.6,1c1.3-0.2,8.7-1.5,5.1-3.7
					c-2-1.2-6.4,0.3-6.7,2.7c-0.1,1.1,1.5,1,2.1,0.9c7-1.4,14.1-2.1,21.3-2.7c3.1-0.3,6.3-0.6,9.4-1c1.9-0.2,3.9-0.6,5.8-0.8
					c0.7,0,1.4-0.1,2.1-0.2c2-0.4,2.8,0.2,2.4,1.8c0.8,2.4-2.8,8.3-4.8,9.6c-3.2,2.1-4.8-0.7-7.4-1.5c-4.1-1.3-8.8-0.1-12.4,1.9
					c-7.7,4.2-1.7,16.2,0.5,22.2c1.9,5.1,6,11,5.9,16.4c0,4.8-1.9,9.9-2.9,14.6c-1.7,7.7-2.7,16.5,3.8,22.3c2.2,2,3.1,2.8,4,5.8
					c0.9,3,1.4,6.3,2,9.4c1.7,7.5,3.4,15,4.7,22.5c0.6,3.5,1.5,7.2,1.1,10.8c-0.4,3.2-1.4,6.4-2,9.6c-1.4,6.7-2.8,13.4-3.8,20.2
					c-1.8,12.2-2.6,24.7-0.5,36.9c1.1,6.3,2.8,13.3,6.1,18.8c0.9,1.5,1.9,2.9,2.8,4.3c0.4,0.6,0.9,1.1,1.2,1.7
					c1.5,2.9-0.3,5.7-1.5,8.3c-3.1,6.3-6.9,12.1-10.3,18.2c-1.7,3-3.4,6.1-4.8,9.4c-1.5,3.4,0.7,2.9,0.8,6.6c0,1.3,1.8,1.1,2.6,0.7
					c0.9-0.4,1.5-0.7,2.1-1.5c0.3-0.4,0.1-0.9-0.3-1.1c-1.6-0.9-4.2,0-4.4,1.9c-0.1,1.3,1.9,1,2.6,0.7c13.2-5.8,22.6-16.6,33.1-26.1
					c-1,0.1-2.1,0.2-3.1,0.3c5.8,5.9,10.4,11.2,18.7,13.6c3.6,1,7.1,1.3,10.8,0.9c4.3-0.5,8-2.7,12.3-1.2c7.3,2.5,14.9,0.2,22.1-1.9
					c4.7-1.4,9.5-3,14.4-3.6c6.4-0.8,12,1,17.5,4.1C345.7,434.1,349,432.5,347.4,431.6L347.4,431.6z"/>
			</g>
		</g>
		<g>
			<path class="st7" d="M235.2,201.5V199c-1,0.1-1.9,0.2-2.9,0.3l-0.6-1.8c3.2-0.2,5.8-0.8,7.7-1.5l0.9,1.6c-1.1,0.4-2.1,0.7-3.2,1
				v2.8h3.4v1.8h-3.4v0.8c1.2,1,2.3,2.2,3.5,3.4l-1.2,1.7c-0.9-1.3-1.7-2.4-2.4-3.2v8.8h-1.9v-8.4c-0.8,1.7-1.9,3.3-3.2,4.8
				l-0.8-2.2c1.8-1.7,3.2-3.6,4-5.7v-0.1h-3.5v-1.8H235.2z M249.4,214.2h-1.9v-1.5H243v1.8h-1.9v-17.2h8.3V214.2z M247.5,210.8
				v-11.8H243v11.8H247.5z"/>
			<path class="st7" d="M264.6,207c-0.1,0.4-0.1,0.8-0.2,1.2h7.7v1.8h-8.4c-0.5,0.9-1.1,1.7-1.9,2.4c-1.4,1.2-3.8,2.2-7.2,2.9
				l-0.8-1.9c3-0.5,5.1-1.3,6.4-2.3c0.4-0.3,0.8-0.7,1.1-1.1h-6.5v-1.8h7.6c0.1-0.5,0.2-0.9,0.3-1.4L264.6,207z M259.4,197.9
				c-0.2-0.6-0.5-1.2-0.9-1.7l2-0.3c0.3,0.6,0.6,1.3,0.8,2h4.1c0.3-0.7,0.5-1.4,0.7-2.1l2,0.3c-0.2,0.6-0.4,1.2-0.7,1.8h4.3v1.8
				h-7.4v1.6h6.4v1.7h-6.4v1.6h8.1v1.8h-18.2v-1.8h8.1V203h-6.3v-1.7h6.3v-1.6H255v-1.8H259.4z M273,213.5l-1.1,1.7
				c-2.5-1.4-5-2.5-7.6-3.2l1-1.5C268.2,211.3,270.7,212.3,273,213.5z"/>
			<path class="st7" d="M281.6,204.3l-1.4,1.4c-0.8-1-2-2-3.5-3.1l1.3-1.3C279.4,202.3,280.6,203.3,281.6,204.3z M281.8,207.6
				c-0.9,2.6-2,5.1-3.1,7.4l-1.8-0.8c1.2-2.4,2.3-4.8,3.2-7.2L281.8,207.6z M282.1,199.3l-1.4,1.4c-0.8-0.9-2-1.9-3.5-3l1.3-1.3
				C280,197.4,281.1,198.3,282.1,199.3z M282.1,203.4l-1.2-1.5c2.1-1.4,3.9-3.4,5.4-6l1.9,0.4c-0.3,0.5-0.6,1-0.9,1.4h5.5v1.3
				c-0.5,0.8-1,1.5-1.6,2.1h3.2v9.1h-11.1v-7.9C282.9,202.8,282.5,203.1,282.1,203.4z M284.8,211.2c-0.5,1.5-1.1,2.9-2,4l-1.6-1
				c0.8-1,1.4-2.1,1.8-3.3L284.8,211.2z M290.5,199.4h-4.4c-0.5,0.6-1,1.2-1.6,1.8h4.5C289.5,200.7,290,200.1,290.5,199.4z M288,205
				v-2h-2.8v2H288z M288,206.6h-2.8v2h2.8V206.6z M288.3,214.7l-1.8,0.2c-0.1-1.6-0.4-2.8-0.8-3.6l1.6-0.2
				C287.8,212,288.1,213.2,288.3,214.7z M291.7,214.6l-1.8,0.2c-0.1-1.6-0.5-2.8-0.9-3.7l1.7-0.2
				C291.1,211.9,291.5,213.1,291.7,214.6z M289.8,205h2.9v-2h-2.9V205z M292.6,206.6h-2.9v2h2.9V206.6z M295.7,214.5l-1.7,0.6
				c-0.5-1.4-1.1-2.7-1.9-4.1l1.7-0.5C294.7,212,295.3,213.3,295.7,214.5z"/>
			<path class="st7" d="M304.3,204.4l-1.4,1.4c-0.8-1-2-1.9-3.4-3l1.4-1.3C302.3,202.4,303.4,203.4,304.3,204.4z M304.3,208.2
				c-0.8,2.4-1.6,4.7-2.6,6.8l-2-0.9c1.1-2.2,2-4.4,2.8-6.7L304.3,208.2z M304.9,199.4l-1.4,1.4c-0.9-1-2.1-2-3.7-3.1l1.4-1.3
				C302.7,197.3,304,198.4,304.9,199.4z M308,198.1v-2h1.9v2h3v-2h1.9v2h2.5v1.8h-2.5v2h3.1v1.8h-3.1c0.8,1.2,2.1,2.2,3.7,2.9
				l-0.8,1.7c-1-0.5-1.9-1.1-2.6-1.7v4.1H309v1.6c0,0.5,0.3,0.7,0.8,0.7h5.3c0.4,0,0.6-0.2,0.7-0.4c0.1-0.2,0.2-0.8,0.3-1.7l1.9,0.6
				c-0.1,1-0.3,1.8-0.4,2.2c-0.3,0.7-0.9,1.1-1.8,1.1h-6.7c-1.3,0-2-0.6-2-1.8v-5.7c-0.6,0.5-1.3,1-2,1.5l-1-1.7
				c1.9-1,3.2-2.2,3.9-3.4h-3v-1.8h3.1v-2h-2.3v-1.8H308z M314.3,205.6c-0.5-0.6-1-1.2-1.3-1.9h-3.2c-0.3,0.7-0.7,1.3-1.1,1.9H314.3
				z M313.4,208.9v-1.7H309v1.7H313.4z M313,201.9v-2h-3v2H313z"/>
		</g>
		<g>
			<path class="st7" d="M296.8,401l-1.1-1.6c3.6-1.6,6.5-3.6,8.7-6h1.6c1.9,2.4,4.8,4.4,8.6,6l-1.1,1.6c-1-0.4-1.9-0.9-2.8-1.4v1.1
				h-4.5v2.5h7.2v1.8h-7.2v5.1h1.9c0.6-1.3,1.2-2.7,1.7-4.1l1.8,0.6c-0.5,1.3-1,2.5-1.5,3.5h4v1.9h-17.8V410h4.1
				c-0.4-1.2-0.9-2.3-1.5-3.4l1.8-0.6c0.6,1.1,1.1,2.4,1.6,4h2V405h-7.2v-1.8h7.2v-2.5h-4.5v-1.2C298.7,400,297.8,400.5,296.8,401z
				 M305.1,395.2c-1.4,1.4-2.9,2.6-4.5,3.7h8.9C307.8,397.8,306.4,396.6,305.1,395.2z"/>
			<path class="st7" d="M323.2,401.6l-1.4,1.4c-0.8-1-1.9-1.9-3.4-3l1.4-1.4C321.1,399.6,322.3,400.6,323.2,401.6z M323.4,405
				c-0.8,2.6-1.8,5-2.9,7.3l-2-0.9c1.2-2.3,2.2-4.7,3.1-7.2L323.4,405z M323.8,396.6l-1.4,1.4c-0.9-1-2.1-2-3.6-3.1l1.4-1.4
				C321.6,394.6,322.8,395.6,323.8,396.6z M328.4,396.3c-0.8,3.7-1.9,6.6-3.3,8.6l-1.5-1.4c1.4-2.2,2.4-4.7,3-7.7L328.4,396.3z
				 M336.5,403.6c-1.9,4.5-5.7,7.4-11.4,8.8l-1.1-1.8c5.4-1.2,9-3.9,10.8-8L336.5,403.6z M331.6,393.3v12.4h-2v-12.4H331.6z
				 M337.6,401.2l-1.7,0.9c-1-2.2-2-4.3-3.1-6.1l1.7-0.8C335.5,397.1,336.5,399.1,337.6,401.2z"/>
			<path class="st7" d="M345.6,401.4l-1.3,1.3c-0.7-1-1.8-2-3.2-3.1l1.3-1.2C343.7,399.4,344.7,400.4,345.6,401.4z M345.9,404.8
				c-0.9,2.6-1.9,5-2.9,7.3l-1.8-0.8c1.2-2.4,2.2-4.8,3.1-7.2L345.9,404.8z M345.7,396.4l-1.3,1.3c-0.7-0.9-1.7-1.9-3-3l1.3-1.2
				C343.9,394.5,344.9,395.4,345.7,396.4z M347.1,400.5c-0.1,0.9-0.2,1.7-0.4,2.5l-1.1-0.4c0.2-0.7,0.4-1.5,0.5-2.4L347.1,400.5z
				 M350.6,399.7l-1.2,0.3c-0.1-0.2-0.1-0.4-0.1-0.6c-1,0.2-2.1,0.3-3.4,0.5l-0.2-1.1c0.4-0.1,1-0.8,1.8-1.9c-0.5,0-1,0.1-1.4,0.1
				l-0.2-1c0.6-0.6,1.1-1.6,1.6-2.8l1.3,0.4c-0.4,1-0.9,1.7-1.4,2.3c0.3,0,0.7-0.1,1-0.1c0.2-0.4,0.4-0.7,0.7-1.1l1.3,0.5
				c-0.6,0.9-1.1,1.6-1.5,2.2l1.1-0.3C350.1,397.8,350.4,398.7,350.6,399.7z M348.9,408h10.3c0,1.8-0.2,3-0.5,3.5
				c-0.3,0.5-1,0.8-2.1,0.8c-1,0-2,0-2.9-0.1l-0.4-1.6c1.1,0,2.1,0.1,3,0.1c0.5,0,0.8-0.1,0.9-0.3c0.1-0.2,0.1-0.5,0.2-1H347
				l0.6-3.9h9.2v-1h-9.4v-1.4h11.2v3.8h-9.4L348.9,408z M348.8,402.7l-1.2,0.1c0-1-0.1-1.8-0.1-2.4l1-0.1
				C348.7,400.9,348.8,401.7,348.8,402.7z M347.7,398.6l1.3-0.2c-0.1-0.3-0.2-0.6-0.3-0.9C348.3,397.9,348,398.3,347.7,398.6z
				 M350.6,402.2l-1,0.4c-0.1-0.7-0.3-1.4-0.5-2.1l1-0.3C350.3,400.9,350.4,401.5,350.6,402.2z M351.9,394.4c-0.1-0.4-0.2-0.7-0.4-1
				l1.6-0.3c0.1,0.4,0.2,0.8,0.4,1.3h1.7v1.3h-4.9v-1.3H351.9z M354.8,399.5v3.1h-4v-3.1H354.8z M354.6,396.3v1.1h-3.7v-1.1H354.6z
				 M354.6,397.9v1.1h-3.7v-1.1H354.6z M353.5,400.5h-1.4v1.1h1.4V400.5z M360.1,399.6l-1.1,0.3l-0.1-0.5c-1,0.2-2.2,0.4-3.4,0.5
				l-0.3-1.1c0.4-0.1,1-0.7,1.8-1.8c-0.5,0-0.9,0.1-1.4,0.1l-0.2-1c0.6-0.6,1.1-1.5,1.6-2.7l1.3,0.4c-0.4,0.9-0.9,1.7-1.4,2.2
				c0.3,0,0.7-0.1,1-0.1c0.2-0.3,0.5-0.7,0.7-1.1l1.3,0.5c-0.5,0.7-1,1.4-1.4,1.9l0.8-0.2C359.5,397.7,359.8,398.6,360.1,399.6z
				 M356.6,400.4c-0.1,0.8-0.2,1.7-0.3,2.5l-1.1-0.4c0.2-0.7,0.4-1.5,0.5-2.3L356.6,400.4z M358.4,402.6l-1.2,0.1
				c0-1-0.1-1.8-0.2-2.4l1-0.1C358.2,400.8,358.3,401.6,358.4,402.6z M357.1,398.6c0.5-0.1,1-0.2,1.4-0.3c-0.1-0.3-0.2-0.6-0.4-0.9
				C357.7,397.9,357.4,398.3,357.1,398.6z M360.2,402l-1,0.4c-0.2-0.7-0.4-1.4-0.6-2.1l0.9-0.3C359.7,400.8,360,401.4,360.2,402z"/>
		</g>
		<g>
			<g>
				<path class="st7" d="M227,309.9c-5.8,7.3-11.3,14.9-17.1,22.2c-5.9,7.5-12.1,15.4-14.4,25c-2.5,10.3,0,20.8,1.8,31
					c1.9,10.5,1.5,20.5,1.1,31.1c-0.3,9.2,0.6,18.6,6.5,26c5.5,6.9,13.8,11,22.3,13.1c9.7,2.3,19.8,1.9,29.7,1.6
					c10.7-0.4,21.5,0.4,32.1-0.8c8.4-0.9,16.2-3.5,22.9-8.7c8.5-6.6,15.3-17.8,26.9-18.9c1-0.1,3.9-1.7,1.5-1.5
					c-15.3,1.4-22,14.3-33.8,22.1c-10.1,6.6-22.5,6-34,5.9c-10.5,0-21,1-31.5,0.3c-9.7-0.6-19.6-3.1-27.4-9.3
					c-7.7-6-11-14.6-11.5-24.2c-0.5-9.9,1.2-19.8,0.1-29.7c-1.2-10.1-4.3-20-4.2-30.2c0.2-12.4,6.7-22.3,14.1-31.8
					c6.1-7.8,12-15.8,18.2-23.6C231,308.7,227.6,309.2,227,309.9L227,309.9z"/>
			</g>
		</g>
		<path class="st7" d="M221.1,119c-1.1,0.1-3.1,0.7-3.3,2.1c0,0.1,0,0.2,0.1,0.3c0,0.1-0.1,0.2,0,0.3c0.5,1,1.8,1.1,2.8,1
			c1.2-0.2,2.9-0.9,2.8-2.4C223.3,119.2,222.1,118.9,221.1,119z"/>
		<path class="st7" d="M226,131.9c-0.1-0.6-1.6-0.2-2-0.1c-0.3,0.1-1.5,0.4-1.6,0.9c-0.2,0.2-0.3,0.3-0.3,0.4
			c0.2,0.2,0.3,0.5,0.5,0.7c0.4,0.5,1.4,0.3,2,0.1c0.4-0.1,1.8-0.5,1.6-1.1C226.2,132.6,226.1,132.3,226,131.9z"/>
		<path class="st7" d="M208.4,142.6c-0.1-0.6-1.6-0.2-2-0.1c-0.3,0.1-1.5,0.4-1.6,0.9c-0.2,0.2-0.3,0.3-0.3,0.4
			c0.2,0.2,0.3,0.5,0.5,0.7c0.4,0.5,1.4,0.3,2,0.1c0.4-0.1,1.8-0.5,1.6-1.1C208.5,143.2,208.5,142.9,208.4,142.6z"/>
		<path class="st7" d="M237,445.2c-0.1-0.6-1.6-0.2-2-0.1c-0.3,0.1-1.5,0.4-1.6,0.9c-0.2,0.2-0.3,0.3-0.3,0.4
			c0.2,0.2,0.3,0.5,0.5,0.7c0.4,0.5,1.4,0.3,2,0.1c0.4-0.1,1.8-0.5,1.6-1.1C237.1,445.9,237.1,445.5,237,445.2z"/>
		<path class="st7" d="M212,132.5c-1-0.6-2.3-0.5-3.2,0.3c-0.4,0.3-0.7,0.8-0.6,1.3c-0.3,0.4-0.5,0.9-0.1,1.4
			c0.5,0.8,1.7,0.6,2.5,0.3c0.8-0.3,1.6-1,1.8-1.9C212.5,133.3,212.5,132.7,212,132.5z"/>
		<path class="st7" d="M216.4,142v0.8c0,0.6,3.6,0.1,3.6-1V141C220,140.4,216.4,140.9,216.4,142z"/>
		<path class="st7" d="M207.7,430.3v0.8c0,0.6,3.6,0.1,3.6-1v-0.8C211.3,428.7,207.7,429.2,207.7,430.3z"/>
		<path class="st7" d="M207.9,172.3c-0.1-0.2-0.4-0.3-0.8-0.3c0,0,0-0.1,0-0.1c0.2-0.6-1.2-0.3-1.4-0.3c-0.5,0.1-0.9,0.2-1.4,0.4
			c-0.2,0.1-0.6,0.3-0.7,0.5c-0.3,0.7-0.1,1.4,0.4,1.9c0.3,0.3,1.3,0,1.6,0c0.6-0.1,1.2-0.3,1.7-0.7
			C207.8,173.3,208,172.8,207.9,172.3z"/>
		<path class="st7" d="M220,418.6c-0.1-0.2-0.4-0.3-0.8-0.3c0,0,0-0.1,0-0.1c0.2-0.6-1.2-0.3-1.4-0.3c-0.5,0.1-0.9,0.2-1.4,0.4
			c-0.2,0.1-0.6,0.3-0.7,0.5c-0.3,0.7-0.1,1.4,0.4,1.9c0.3,0.3,1.3,0,1.6,0c0.6-0.1,1.2-0.3,1.7-0.7
			C219.9,419.7,220.2,419.2,220,418.6z"/>
		<path class="st7" d="M208.8,152.8c-0.5,0.1-1,0.2-1.4,0.5c-0.2,0.2-0.7,0.5-0.7,0.8v1.9c0,0.8,0.9,0.9,1.6,0.8
			c0.5-0.1,1-0.2,1.4-0.5c0.2-0.2,0.7-0.5,0.7-0.8v-1.9C210.4,152.8,209.5,152.7,208.8,152.8z"/>
		<path class="st7" d="M209.8,411.8c-0.5,0.1-1,0.2-1.4,0.5c-0.2,0.2-0.7,0.5-0.7,0.8v1.9c0,0.8,0.9,0.9,1.6,0.8
			c0.5-0.1,1-0.2,1.4-0.5c0.2-0.2,0.7-0.5,0.7-0.8v-1.9C211.4,411.9,210.5,411.8,209.8,411.8z"/>
		<path class="st7" d="M246.8,449.7c-0.5,0.1-1,0.2-1.4,0.5c-0.2,0.2-0.7,0.5-0.7,0.8v1.9c0,0.8,0.9,0.9,1.6,0.8
			c0.5-0.1,1-0.2,1.4-0.5c0.2-0.2,0.7-0.5,0.7-0.8v-1.9C248.4,449.8,247.4,449.6,246.8,449.7z"/>
		<g class="st19">
			<g>
				<path class="st26" d="M343.3,215.7c2.9,1,5.7,1,8.6,0c1.2-0.4,2.4-1,3.5-1.8c0.9-0.6,2.2-2.6,3.1-3c-0.9,0.1-1.7,0.2-2.6,0.2
					c3.2,1.7,4.1,3.9,8.2,3c3.9-0.8,4.4-3.2,7.1-5.5c-1,0.3-2,0.5-3.1,0.8c2.1,0.3,4.3,3.4,6.4,4.3c1.6,0.7,3.3,1,5.1,0.9
					c1.7-0.2,3.4-0.8,4.8-1.7c1.3-0.9,2-3.4,3.2-4c-1,0.2-2,0.3-3.1,0.5c1.7,0.8,2.7,3,4.4,4c1,0.6,2.1,1,3.2,1.2
					c2.5,0.4,5-0.1,7.3-1.2c2.8-1.3,0.2-2.3-1.6-1.5c-6.2,2.9-8.1-7.6-13.6-3.6c-0.6,0.4-0.7,0.7-1.2,1.3c-1.3,1.7-2.3,3-5,2.2
					c-2.8-0.8-4.2-4.2-7.2-4.5c-1.3-0.1-2.4,0.3-3.4,1.1c-0.9,0.7-1,1.9-1.8,2.6c-3.4,2.9-3.6-0.3-5.2-1.3c-1.2-0.8-2.2-0.8-3.6-0.3
					c-4,1.4-4.4,6.2-10,4.3C345.6,213.3,341.7,215.1,343.3,215.7L343.3,215.7z"/>
			</g>
		</g>
		<g class="st19">
			<g>
				<path class="st26" d="M233,255.6c2.1,0.6,4.1,0.6,6.3,0c2.3-0.7,3.4-2.7,5.3-3.5c-1.1,0.1-2.2,0.3-3.3,0.4
					c2.4,1.3,3.3,2.7,6.3,2.1c3-0.6,3.5-2.3,5.6-4.2c-1.1,0.4-2.2,0.7-3.4,1.1c1.3,0.2,2.7,2.2,4,2.8c1.5,0.7,2.8,0.8,4.4,0.6
					c1-0.2,2.2-0.5,3.1-1c1.4-0.9,1.6-2.2,2.9-3.1c-1.2,0.2-2.5,0.4-3.7,0.6c2,1,2.7,3,5.1,3.5c2.1,0.4,4.1-0.1,6.1-0.9
					c2.8-1.2,0.2-1.8-1.5-1.1c-3.1,1.2-3.7-2.1-5.5-3c-1.1-0.5-2.8,0-3.7,0.6c-1.4,1-1.1,1.7-3,1.7c-2.1,0-2.6-1.8-4.3-2.4
					c-1.6-0.5-3.3,0.2-4.5,1.2c-1.5,1.1-0.8,1.5-2.8,0.9c-0.7-0.2-0.9-0.8-1.8-1c-2.9-0.4-5.1,3.9-7.9,3.1
					C235.5,253.6,231.6,255.2,233,255.6L233,255.6z"/>
			</g>
		</g>
		<g class="st19">
			<g>
				<path class="st26" d="M311.6,360c2.5,0.8,4.8,0.8,7.3,0c1.2-0.4,2.4-0.9,3.5-1.6c0.9-0.6,1.8-2.2,2.7-2.6
					c-1.1,0.2-2.2,0.3-3.3,0.5c2.8,1.5,3.5,3.1,7,2.5c3.6-0.7,4.2-2.6,6.7-4.8c-1.3,0.3-2.5,0.7-3.8,1c2.3,0.3,4.1,3.3,6.5,3.9
					c1.3,0.4,2.6,0.4,3.9,0.1c1.1-0.2,2.3-0.6,3.3-1.1c1.8-1,2.1-2.8,3.7-4c-1.3,0.3-2.7,0.6-4,0.9c2.7,1.3,3.5,4,7,4.3
					c2.2,0.2,4.4-0.5,6.4-1.4c2.6-1.2-1.5-0.9-2.5-0.4c-3,1.3-4.8-2.9-6.8-3.9c-1.1-0.5-3.1,0.3-4,0.9c-0.5,0.4-0.9,1-1.3,1.3
					c-1.6,1.2-2.6,1.3-4.5,0.3c-1.4-0.7-2.3-2.2-3.8-2.6c-1.8-0.4-3.3,0.6-4.6,1.5c-0.3,0.2-0.3,0.8-0.6,1c-4.2,2.8-1.5-0.2-3.8-0.6
					c-0.7-0.1-1-0.5-1.8-0.5c-3.3-0.1-6,4.8-9.2,3.8C314.5,358.2,311.4,360,311.6,360L311.6,360z"/>
			</g>
		</g>
		<g>
			<g>
				<path class="st7" d="M232.8,175.1c1.8-9.3,8.4-17.9,17.6-20.5c2.1-0.6,1.7-2.4-0.5-1.8c-10.6,2.9-18.7,11.9-20.8,22.7
					C228.9,176.9,232.5,176.3,232.8,175.1L232.8,175.1z"/>
			</g>
		</g>
		<g>
			<g>
				<path class="st7" d="M216,346.6c-2,0-3.4-1.7-5.6-1.5c-1.6,0.1-3.3,0.8-4.5,1.8c-2.1,1.9-4.4,8.6-1.4,10.7
					c2.6,1.8,7.3,0.2,9.5-1.6c2.8-2.3,3.1-6.5,0.1-8.9c-0.8-0.6-4,0.8-3.4,1.2c1.6,1.2,2.3,3.2,1.8,5.1c-0.3,1-1,2.4-1.9,2.8
					c-1.8,0.9-3.4,0.1-3.8-1.8c-0.3-1.7,0.3-4.9,1.2-6.4c0.4-0.6,1.2-1.4,2.1-1.2c0.4,0.1,0.8,0.5,1.2,0.6c0.8,0.4,1.5,0.5,2.3,0.6
					c0.7,0,2.1-0.1,2.5-0.7C216.6,347.1,216.9,346.6,216,346.6L216,346.6z"/>
			</g>
		</g>
		<g>
			<g>
				<path class="st7" d="M219.9,333.7c-2.2-0.2-4.8,0.4-6.3,2.1c-1.3,1.5-1.5,3.8,0.1,5.2c1.8,1.5,4.7,0.8,6.4-0.4
					c2.3-1.5,2.7-4.1,2.9-6.7c0.1-1.3-3.5-0.6-3.6,0.5c-0.1,1.2-0.2,2.4-0.5,3.5c-0.2,0.6-0.4,1.1-0.9,1.6c-0.4,0.5-0.5,0.5-1,0.1
					c-0.7-0.6-1-1.6-0.9-2.5c0.1-0.7,0.6-1.7,1.5-1.6c0.8,0.1,1.9-0.1,2.5-0.7C220.7,334.4,220.7,333.8,219.9,333.7L219.9,333.7z"/>
			</g>
		</g>
		<g>
			<g>
				<path class="st7" d="M218.4,363.4c-2.8-1.7-6.6-0.6-8.4,2.2c-1.5,2.4-1.8,7.3,0.7,9.2c2.5,1.9,6.3,0.4,8-1.9
					c1.8-2.6,2.1-8,0.3-10.6c-0.9-1.3-4.3,0.1-3.3,1.6c0.9,1.4,1.6,9.4-1.4,9.3c-3.1-0.1-2-9.6,1.3-7.6
					C216.9,366.2,220.1,364.4,218.4,363.4L218.4,363.4z"/>
			</g>
		</g>
		<g>
			<g>
				<path class="st7" d="M205.1,386.8c0,1.8,0,3.5,0,5.3c0,1.5,0.4,2.5,2,2.8c2.7,0.5,6.1-0.4,8.2-2.1c1.9-1.5,2.8-4.4,0.9-6.3
					c-2.2-2.3-6.1-1.7-8.9-1.2c-0.4,0.1-2.1,0.4-2.1,1c0,0.6,1,0.5,1.5,0.4c2-0.4,4.2-0.7,5.8,0.7c1.3,1.2,1.5,3,0.6,4.5
					c-1,1.8-4.2,2.4-4.4-0.2c-0.1-1.9,0-3.9,0-5.9C208.7,385.2,205.1,385.7,205.1,386.8L205.1,386.8z"/>
			</g>
		</g>
		<g>
			<g>
				<path class="st7" d="M200.2,368.3c0,0.7,0,1.4,0,2.1c0,0.6-0.1,1.3,0.3,1.9c1,1.4,3.4,0.6,4.4-0.3c1.5-1.4,0.8-4-1.2-4.4
					c-0.9-0.2-1.9,0-2.5,0.7c-0.5,0.5-0.4,1.4,0.4,1.5c0.2,0,0.1,0,0.3,0.1c0.1,0.2,0.2,0.3,0.3,0.5c0,0.2,0.1,0.3,0,0.5
					c0,0-0.1,0.3,0,0.2c0,0,0,0.1-0.1,0.1c0.1-0.3,0.4-0.5,0.9-0.5c0.3,0,0.6,0,0.9,0.1c0.2,0.2,0.3,0.2,0.2,0c0,0,0-0.1,0-0.1
					c0-0.3,0-0.6,0-0.9c0-0.6,0-1.1,0-1.7c0-0.8-0.9-1.1-1.6-1C201.6,367,200.2,367.4,200.2,368.3L200.2,368.3z"/>
			</g>
		</g>
		<g>
			<g>
				<path class="st7" d="M226.4,399.2c-3.2-1.2-7.4-0.1-9.6,2.5c-2.5,2.9-1.3,7.1,1.9,8.8c2.7,1.4,7.5,1,8.6-2.3
					c0.4-1.2,0.5-2.5,0.8-3.7c0.2-1,0.6-2.3,0.2-3.3c-0.6-1.6-2.4-1.4-3.8-1.1c-0.4,0.1-1.8,0.6-1.6,1.2c0.2,0.6,1.6,0.3,2,0.2
					c-1,0.2-0.3,0.1-0.2,0.7c0.1,0.6,0.1,1.1,0,1.8c-0.2,1.2-0.5,2.3-0.7,3.5c-0.1,0.4-0.2,0.9-0.3,1.3c-0.1,0.7,0,0.7-0.5,0.8
					c-0.8,0.1-2-0.8-2.5-1.3c-1.2-1.2-2-3.1-1.5-4.8c0.5-2.1,2.3-3.4,4.3-2.6C224.4,401.1,227.7,399.7,226.4,399.2L226.4,399.2z"/>
			</g>
		</g>
		<g>
			<g>
				<path class="st7" d="M249.4,432.9c-3.9,0.1-7.4,3.6-6.2,7.6c1.2,4.1,5.8,5.5,9.6,4.6c3.9-0.9,7.3-4.1,6.4-8.4
					c-0.8-4.2-5.3-6-9.1-5.5c-2,0.2-2.8,2.9-0.3,2.6c2.1-0.3,4.2,0.5,5.3,2.4c1.2,2,0.8,4.6-1.2,5.9c-2,1.3-4.8,0.9-6.3-1
					c-1.3-1.8-1.3-5.4,1.6-5.4C251.1,435.5,251.8,432.9,249.4,432.9L249.4,432.9z"/>
			</g>
		</g>
		<g>
			<g>
				<path class="st7" d="M273.6,444.3c-1.4-1.1-3.3-0.9-4.9-0.2c-1.9,1-2.7,2.8-2.7,5c0,1.8,0.2,3.6,2,4.5c1.7,0.9,4.3,1.1,6.2,1.1
					c3.6,0,7.8-2,7.7-6.1c-0.1-4.2-4.5-6.2-8.2-5.6c-0.7,0.1-2,0.5-2,1.4c0,0.8,0.9,1.1,1.6,1c2-0.3,4.1,0.5,4.8,2.6
					c0.6,1.8-0.1,3.7-2,4.2c-1.3,0.3-3.4,0-4.7-0.5c-1.2-0.5-1.5-1.3-1.6-2.5c0-0.4-0.2-3.9,1-2.9
					C271.9,447.1,275.1,445.5,273.6,444.3L273.6,444.3z"/>
			</g>
		</g>
		<g>
			<g>
				<path class="st7" d="M285.9,442c0.4,2.9,4.3,4.5,6.6,2.7c1-0.8,1.3-2.2,0.2-3c-0.4-0.3-0.8-0.4-1.2-0.6c-0.1,0-0.6-0.2-0.3-0.1
					c-0.2-0.1-0.2-0.3-0.1,0c-0.4-0.8-1.3-1.1-2.2-0.8c-0.6,0.2-1.8,1-1.4,1.8c0.3,0.7,0.8,1.1,1.4,1.4c0.2,0.1,0.4,0.2,0.6,0.3
					c0.1,0,0.2,0.1,0.3,0.1c0.2,0.1,0.1,0,0.1,0c0,0.1-0.1-0.2-0.1-0.2c-0.1-0.5,1.1-0.6,1-1c0,0.1-0.3-0.1-0.4-0.1
					c-0.6-0.3-0.8-0.9-0.9-1.5c-0.1-0.9-1.5-1-2.2-0.8C286.5,440.4,285.8,441.1,285.9,442L285.9,442z"/>
			</g>
		</g>
		<g>
			<g>
				<path class="st7" d="M306.4,442.9c-2.6-0.3-7.7-0.2-8.5,3.1c-0.9,3.5,4.9,4.4,7.1,4c2.6-0.4,7-2.2,5.8-5.6c-1-3-5.4-1.9-7.2-0.5
					c-0.7,0.5,0.6,0.5,0.8,0.5c0.8,0,1.8-0.3,2.4-0.8c-1.4,0.1-1.6,0.3-0.7,0.6c0.1,0.1,0.2,0.2,0.3,0.2c0.4,0.4,0.7,0.9,0.8,1.5
					c0.2,1.6-0.8,3.1-2.5,2.7c-1.1-0.2-2.7-0.9-3.2-2c-0.3-0.6-0.3-1.1-0.1-1.7c0.4-1,0.9-0.7,1.9-0.6c0.8,0.1,1.8-0.1,2.5-0.5
					C306.2,443.7,307.3,443,306.4,442.9L306.4,442.9z"/>
			</g>
		</g>
	</g>
	<path class="st40" d="M288.8,237.5c0,0,45.6,72.9-22,159.4"/>
	<polygon class="st2" points="278.4,246.6 282.7,226.8 304.9,236.6 	"/>
	<rect x="272.4" y="284.8" class="st1" width="70.2" height="26.9"/>
	<g>
		<path class="st2" d="M249.9,293.4l-1.1-1.6c3.6-1.6,6.5-3.6,8.7-6h1.6c1.9,2.4,4.8,4.4,8.6,6l-1.1,1.6c-1-0.4-1.9-0.9-2.8-1.4v1.1
			h-4.5v2.5h7.2v1.8h-7.2v5.1h1.9c0.6-1.3,1.2-2.7,1.7-4.1l1.8,0.6c-0.5,1.3-1,2.5-1.5,3.5h4v1.9h-17.8v-1.9h4.1
			c-0.4-1.2-0.9-2.3-1.5-3.4l1.8-0.6c0.6,1.1,1.1,2.4,1.6,4h2v-5.1H250v-1.8h7.2v-2.5h-4.5v-1.2C251.8,292.5,250.9,293,249.9,293.4z
			 M258.2,287.6c-1.4,1.4-2.9,2.6-4.5,3.7h8.9C260.9,290.2,259.5,289,258.2,287.6z"/>
		<path class="st2" d="M276.3,294l-1.4,1.4c-0.8-1-1.9-1.9-3.4-3l1.4-1.4C274.2,292.1,275.3,293,276.3,294z M276.5,297.4
			c-0.8,2.6-1.8,5-2.9,7.3l-2-0.9c1.2-2.3,2.2-4.7,3.1-7.2L276.5,297.4z M276.9,289.1l-1.4,1.4c-0.9-1-2.1-2-3.6-3.1l1.4-1.4
			C274.7,287,275.9,288.1,276.9,289.1z M281.5,288.7c-0.8,3.7-1.9,6.6-3.3,8.6l-1.5-1.4c1.4-2.2,2.4-4.7,3-7.7L281.5,288.7z
			 M289.6,296c-1.9,4.5-5.7,7.4-11.4,8.8l-1.1-1.8c5.4-1.2,9-3.9,10.8-8L289.6,296z M284.7,285.7v12.4h-2v-12.4H284.7z M290.7,293.7
			l-1.7,0.9c-1-2.2-2-4.3-3.1-6.1l1.7-0.8C288.6,289.5,289.6,291.5,290.7,293.7z"/>
		<path class="st2" d="M298.7,293.8l-1.3,1.3c-0.7-1-1.8-2-3.2-3.1l1.3-1.2C296.8,291.8,297.8,292.8,298.7,293.8z M299,297.2
			c-0.9,2.6-1.9,5-2.9,7.3l-1.8-0.8c1.2-2.4,2.2-4.8,3.1-7.2L299,297.2z M298.8,288.8l-1.3,1.3c-0.7-0.9-1.7-1.9-3-3l1.3-1.2
			C297,286.9,298,287.9,298.8,288.8z M300.2,292.9c-0.1,0.9-0.2,1.7-0.4,2.5l-1.1-0.4c0.2-0.7,0.4-1.5,0.5-2.4L300.2,292.9z
			 M303.7,292.2l-1.2,0.3c-0.1-0.2-0.1-0.4-0.1-0.6c-1,0.2-2.1,0.3-3.4,0.5l-0.2-1.1c0.4-0.1,1-0.8,1.8-1.9c-0.5,0-1,0.1-1.4,0.1
			l-0.2-1c0.6-0.6,1.1-1.6,1.6-2.8l1.3,0.4c-0.4,1-0.9,1.7-1.4,2.3c0.3,0,0.7-0.1,1-0.1c0.2-0.4,0.4-0.7,0.7-1.1l1.3,0.5
			c-0.6,0.9-1.1,1.6-1.5,2.2l1.1-0.3C303.2,290.3,303.5,291.2,303.7,292.2z M302,300.5h10.3c0,1.8-0.2,3-0.5,3.5
			c-0.3,0.5-1,0.8-2.1,0.8c-1,0-2,0-2.9-0.1l-0.4-1.6c1.1,0,2.1,0.1,3,0.1c0.5,0,0.8-0.1,0.9-0.3c0.1-0.2,0.1-0.5,0.2-1h-10.4
			l0.6-3.9h9.2v-1h-9.4v-1.4h11.2v3.8h-9.4L302,300.5z M301.9,295.1l-1.2,0.1c0-1-0.1-1.8-0.1-2.4l1-0.1
			C301.8,293.4,301.9,294.1,301.9,295.1z M300.8,291l1.3-0.2c-0.1-0.3-0.2-0.6-0.3-0.9C301.4,290.4,301.1,290.7,300.8,291z
			 M303.7,294.6l-1,0.4c-0.1-0.7-0.3-1.4-0.5-2.1l1-0.3C303.3,293.3,303.5,294,303.7,294.6z M305,286.9c-0.1-0.4-0.2-0.7-0.4-1
			l1.6-0.3c0.1,0.4,0.2,0.8,0.4,1.3h1.7v1.3h-4.9v-1.3H305z M307.9,292v3.1h-4V292H307.9z M307.7,288.7v1.1H304v-1.1H307.7z
			 M307.7,290.3v1.1H304v-1.1H307.7z M306.6,292.9h-1.4v1.1h1.4V292.9z M313.2,292.1l-1.1,0.3l-0.1-0.5c-1,0.2-2.2,0.4-3.4,0.5
			l-0.3-1.1c0.4-0.1,1-0.7,1.8-1.8c-0.5,0-0.9,0.1-1.4,0.1l-0.2-1c0.6-0.6,1.1-1.5,1.6-2.7l1.3,0.4c-0.4,0.9-0.9,1.7-1.4,2.2
			c0.3,0,0.7-0.1,1-0.1c0.2-0.3,0.5-0.7,0.7-1.1l1.3,0.5c-0.5,0.7-1,1.4-1.4,1.9l0.8-0.2C312.6,290.1,312.9,291.1,313.2,292.1z
			 M309.7,292.9c-0.1,0.8-0.2,1.7-0.3,2.5l-1.1-0.4c0.2-0.7,0.4-1.5,0.5-2.3L309.7,292.9z M311.5,295.1l-1.2,0.1
			c0-1-0.1-1.8-0.2-2.4l1-0.1C311.3,293.3,311.4,294.1,311.5,295.1z M310.2,291.1c0.5-0.1,1-0.2,1.4-0.3c-0.1-0.3-0.2-0.6-0.4-0.9
			C310.8,290.4,310.5,290.8,310.2,291.1z M313.3,294.5l-1,0.4c-0.2-0.7-0.4-1.4-0.6-2.1l0.9-0.3
			C312.8,293.2,313.1,293.9,313.3,294.5z"/>
		<path class="st2" d="M321.8,294l-1.4,1.4c-0.8-1-1.9-1.9-3.4-3l1.4-1.4C319.7,292.1,320.9,293,321.8,294z M322,297.4
			c-0.8,2.6-1.8,5-2.9,7.3l-2-0.9c1.2-2.3,2.2-4.7,3.1-7.2L322,297.4z M322.4,289.1l-1.4,1.4c-0.9-1-2.1-2-3.6-3.1l1.4-1.4
			C320.2,287,321.4,288.1,322.4,289.1z M327,288.7c-0.8,3.7-1.9,6.6-3.3,8.6l-1.5-1.4c1.4-2.2,2.4-4.7,3-7.7L327,288.7z M335.2,296
			c-1.9,4.5-5.7,7.4-11.4,8.8l-1.1-1.8c5.4-1.2,9-3.9,10.8-8L335.2,296z M330.3,285.7v12.4h-2v-12.4H330.3z M336.2,293.7l-1.7,0.9
			c-1-2.2-2-4.3-3.1-6.1l1.7-0.8C334.1,289.5,335.2,291.5,336.2,293.7z"/>
		<path class="st2" d="M348.7,294.4v-2.6c1.6-1,3.2-2.1,4.7-3.4h-11.1v-1.8h13.7v1.8c-1.6,1.6-3.4,3-5.4,4.4v1.7h7.7v1.9h-7.7v6.3
			c0,1.3-0.7,2-2,2H345l-0.5-1.9c1,0,2.2,0.1,3.4,0.1c0.6,0,0.8-0.3,0.8-0.8v-5.7h-8.5v-1.9H348.7z"/>
		<path class="st2" d="M368.3,286.5c-1,2.2-2.8,4.2-5.3,6l-0.6-1.9c1.9-1.4,3.2-3,4.2-4.9L368.3,286.5z M368.9,291.7
			c-0.5,1-1.1,2-1.8,2.9v10h-1.9v-8c-0.6,0.5-1.2,1-1.9,1.5l-0.6-1.9c2-1.6,3.5-3.4,4.5-5.4L368.9,291.7z M374,289.1
			c-0.4-1-0.9-2-1.5-2.9l1.9-0.5c0.7,1.2,1.2,2.4,1.6,3.4h5.1v1.9h-5.1v4.6h4.5v1.8h-4.5v5.1h5.5v1.9h-13.3v-1.9h5.8v-5.1h-4.6v-1.8
			h4.6V291h-5.2v-1.9H374z"/>
		<path class="st2" d="M390.2,294l-1.4,1.4c-0.8-1-2-2-3.5-3.1l1.3-1.3C388,292,389.2,293,390.2,294z M390.4,297.3
			c-0.9,2.6-2,5.1-3.1,7.4l-1.8-0.8c1.2-2.4,2.3-4.8,3.2-7.2L390.4,297.3z M390.7,289l-1.4,1.4c-0.8-0.9-2-1.9-3.5-3l1.3-1.3
			C388.6,287.1,389.8,288.1,390.7,289z M390.7,293.1l-1.2-1.5c2.1-1.4,3.9-3.4,5.4-6l1.9,0.4c-0.3,0.5-0.6,1-0.9,1.4h5.5v1.3
			c-0.5,0.8-1,1.5-1.6,2.1h3.2v9.1h-11.1v-7.9C391.5,292.5,391.1,292.8,390.7,293.1z M393.4,300.9c-0.5,1.5-1.1,2.9-2,4l-1.6-1
			c0.8-1,1.4-2.1,1.8-3.3L393.4,300.9z M399.1,289.2h-4.4c-0.5,0.6-1,1.2-1.6,1.8h4.5C398.2,290.4,398.6,289.8,399.1,289.2z
			 M396.6,294.7v-2h-2.8v2H396.6z M396.6,296.3h-2.8v2h2.8V296.3z M396.9,304.4l-1.8,0.2c-0.1-1.6-0.4-2.8-0.8-3.6l1.6-0.2
			C396.5,301.7,396.7,302.9,396.9,304.4z M400.3,304.3l-1.8,0.2c-0.1-1.6-0.5-2.8-0.9-3.7l1.7-0.2
			C399.7,301.6,400.1,302.8,400.3,304.3z M398.4,294.7h2.9v-2h-2.9V294.7z M401.2,296.3h-2.9v2h2.9V296.3z M404.3,304.2l-1.7,0.6
			c-0.5-1.4-1.1-2.7-1.9-4.1l1.7-0.5C403.3,301.7,403.9,303,404.3,304.2z"/>
		<path class="st2" d="M412.9,294.1l-1.4,1.4c-0.8-1-2-1.9-3.4-3l1.4-1.3C410.9,292.1,412,293.1,412.9,294.1z M412.9,297.9
			c-0.8,2.4-1.6,4.7-2.6,6.8l-2-0.9c1.1-2.2,2-4.4,2.8-6.7L412.9,297.9z M413.6,289.1l-1.4,1.4c-0.9-1-2.1-2-3.7-3.1l1.4-1.3
			C411.3,287,412.6,288.1,413.6,289.1z M416.6,287.8v-2h1.9v2h3v-2h1.9v2h2.5v1.8h-2.5v2h3.1v1.8h-3.1c0.8,1.2,2.1,2.2,3.7,2.9
			l-0.8,1.7c-1-0.5-1.9-1.1-2.6-1.7v4.1h-6.3v1.6c0,0.5,0.3,0.7,0.8,0.7h5.3c0.4,0,0.6-0.2,0.7-0.4c0.1-0.2,0.2-0.8,0.3-1.7l1.9,0.6
			c-0.1,1-0.3,1.8-0.4,2.2c-0.3,0.7-0.9,1.1-1.8,1.1h-6.7c-1.3,0-2-0.6-2-1.8V297c-0.6,0.5-1.3,1-2,1.5l-1-1.7
			c1.9-1,3.2-2.2,3.9-3.4h-3v-1.8h3.1v-2h-2.3v-1.8H416.6z M422.9,295.3c-0.5-0.6-1-1.2-1.3-1.9h-3.2c-0.3,0.7-0.7,1.3-1.1,1.9
			H422.9z M422,298.6v-1.7h-4.4v1.7H422z M421.6,291.6v-2h-3v2H421.6z"/>
		<path class="st2" d="M440.9,304.9h-1.9v-11.3c-0.4,0.7-0.9,1.4-1.4,2.1l-0.7-2.1c0.1-0.2,0.2-0.4,0.4-0.6h-1.9v6.2
			c0.9-0.3,1.7-0.6,2.5-1v1.9c-2.1,0.9-4.3,1.7-6.7,2.3l-0.5-2c0.9-0.2,1.8-0.4,2.7-0.6v-6.9h-2.5v-1.9h2.5v-5.3h1.9v5.3h1.9v1.8
			c1.3-2.2,2.3-4.6,2.8-7.1l1.9,0.4c-0.2,1-0.6,2-0.9,2.9h3.3c-0.3-1-0.7-2-1.1-2.9l1.9-0.5c0.5,1.3,0.8,2.4,1.1,3.4h3.2v1.9h-3.5
			v2.4h3v1.9h-3v2.3h3v1.8h-3v2.5h3.8v1.9h-9V304.9z M440.9,291v2.4h3.3V291H440.9z M440.9,297.5h3.3v-2.3h-3.3V297.5z M440.9,301.9
			h3.3v-2.5h-3.3V301.9z"/>
		<path class="st2" d="M456.3,290.8v-2.3c-0.7,0.1-1.3,0.2-2,0.3l-0.4-1.7c2.2-0.2,4.1-0.6,5.8-1.3l0.7,1.7
			c-0.7,0.2-1.4,0.4-2.2,0.6v2.6h2.1v1.8h-2.1v1.2c0.8,0.9,1.7,1.9,2.5,3l-1.1,1.6c-0.5-1-1-1.9-1.4-2.5v8.8h-1.9v-8.3
			c-0.6,1.5-1.2,2.9-2,4.2l-0.9-2.3c1.3-1.7,2.3-3.6,2.9-5.7H454v-1.8H456.3z M471.2,293.6v8.2h-2.7c1.4,0.3,2.8,0.8,4.2,1.4
			l-0.7,1.6c-1.5-0.7-3-1.3-4.7-1.6l0.7-1.3h-3.3l0.9,1c-1.3,0.8-2.9,1.4-4.7,2l-0.7-1.6c1.7-0.4,3-0.9,4.1-1.4h-2.6v-8.2H471.2z
			 M467.4,285.7v1h4.6v1.5h-4.6v0.8h3.9v1.5h-3.9v0.8h5v1.6h-11.6v-1.6h4.8v-0.8h-3.8V289h3.8v-0.8h-4.4v-1.5h4.4v-1H467.4z
			 M469.5,296v-0.8h-6v0.8H469.5z M469.5,298.2v-0.9h-6v0.9H469.5z M469.5,299.5h-6v0.8h6V299.5z"/>
	</g>
</g>
</svg>
