<?xml version="1.0" encoding="utf-8"?>
<!-- Generator: Adobe Illustrator 22.0.1, SVG Export Plug-In . SVG Version: 6.00 Build 0)  -->
<svg version="1.1" id="圖層_1" xmlns="http://www.w3.org/2000/svg" xmlns:xlink="http://www.w3.org/1999/xlink" x="0px" y="0px"
	 viewBox="0 0 531.5 531.5" style="enable-background:new 0 0 531.5 531.5;" xml:space="preserve">
<style type="text/css">
	.st0{fill:#B6CACD;}
	.st1{fill:#FFFFFF;}
	.st2{fill:#E9D08E;}
	.st3{fill:#F14900;}
	.st4{fill:#FFFFFF;stroke:#000000;stroke-miterlimit:10;}
	.st5{fill:#F7F9FD;}
	.st6{fill:#606060;}
	.st7{fill:none;stroke:#F7F9FD;stroke-miterlimit:10;}
	.st8{fill:#222222;}
	.st9{fill:#2E313A;}
	.st10{fill:#F3F9F9;}
	.st11{fill:#141F2A;}
	.st12{fill:#17212C;}
	.st13{fill:#18222D;}
	.st14{fill:#E3EAEB;}
	.st15{fill:#DAE0E1;}
	.st16{fill:#FEFEFD;}
	.st17{fill:#FEFEFB;}
	.st18{fill:none;stroke:#FFFFFF;stroke-miterlimit:10;}
	.st19{enable-background:new    ;}
	.st20{fill:#628E94;}
	.st21{fill:#8CACB1;}
	.st22{fill:#B7CBCE;}
	.st23{fill:#B7CBCE;enable-background:new    ;}
	
		.st24{fill:none;stroke:#222222;stroke-width:12;stroke-linecap:round;stroke-linejoin:round;stroke-miterlimit:10;stroke-dasharray:10;}
	
		.st25{fill:none;stroke:#222222;stroke-width:4;stroke-linecap:round;stroke-linejoin:round;stroke-miterlimit:10;stroke-dasharray:10,20;}
	.st26{fill:#78B5C8;}
	.st27{opacity:0.77;}
	
		.st28{fill:none;stroke:#F14900;stroke-width:4;stroke-linecap:round;stroke-linejoin:round;stroke-miterlimit:10;stroke-dasharray:10,20;}
	.st29{opacity:0.46;}
	.st30{fill:none;stroke:#F14900;stroke-width:4;stroke-linecap:round;stroke-miterlimit:10;}
	.st31{fill:#FFFFFF;enable-background:new    ;}
	.st32{fill:#222222;stroke:#000000;stroke-width:4;stroke-miterlimit:10;}
	.st33{fill:#222222;stroke:#000000;stroke-width:5;stroke-miterlimit:10;}
	.st34{fill:#B6CACD;stroke:#FFFFFF;stroke-width:16;stroke-miterlimit:10;}
	.st35{fill:#CDDBDD;}
	.st36{fill:none;stroke:#F14900;stroke-width:3;stroke-miterlimit:10;}
	.st37{fill:#CF9479;}
	.st38{fill:#FFFFFF;stroke:#FFFFFF;stroke-width:5;stroke-linejoin:round;stroke-miterlimit:10;}
</style>
<path class="st2" d="M274.2,404.5c1.7-13.1,4.8-25.6,9.9-37.8c4.7-11.2,10.3-22.2,10.5-34.5c0-0.4,0.1-0.9,0.2-1.3c-0.4,0-0.7,0-1,0
	c-0.9,0-1.7-0.1-2.4-0.4c-2.7,0.2-5.3,0.6-7.9,1.2c-10.5,2.3-19,9.5-29.5,11.6c-4.2,11.5-5.3,24.7-6,36.5c-1.1,20-1.3,58.7,8.1,82
	c0,0.3,0.1,0.5,0.1,0.8c0,0,0.1,0,0.1,0c0.4,1.2,0.9,2.4,1.4,3.6c2.9,6.8,12.6,8.8,18.7,6.1c0.7-0.3,1.4-0.8,1.9-1.3
	C273.6,449.2,271.4,426.8,274.2,404.5z"/>
<path class="st22" d="M247.7,401.2c1.3-8.2,4.9-29.8,8.5-39.9c1.1-9.1,5.8-14.9,9.3-23.5c0.1-0.1,3.5-0.8,3.6-1
	c-1.1,0.6-8.4,3.4-9.6,4c-0.5,2.6-1.9,3.3-5.3,3.3c-17.7,0-29.4-0.3-47,2c-16.7,2.2-33.6,4.7-50.5,3.5c-5.6-0.4-7.1-6.9-4.5-10.2
	c-0.6,0-1.3,0-1.9,0c0.2,0.7,0.2,1.4,0.1,2.1c0.7,3.4-1.2,7.5-5.7,7.5c-1.6,0-2.8-0.5-3.8-1.3c-5.2,0.8-10.9-0.4-16-1.1
	c-11.6-1.4-23.9-0.4-35.7-0.4c-3.6,0-5.5-2.6-5.7-5.4c-0.1-0.5-0.2-1.1-0.2-1.7c0-22.2,1.5-44.4,1.6-66.6c-2-3.4-0.4-9.2,5-9.6
	c13.2-0.9,26.3-2.9,39.5-3.9c5.5-0.4,13.9-2.5,17.8,2.5c2.4,3.1,4,6.8,4.5,10.7c0.1,0,0.3,0,0.4-0.1c0.7-3.8,1.2-7.5,1.4-11.3
	c-2.4-3.1-0.5-8.4,3.5-9.3c11.2-2.4,23.6-3.8,35-1.6c7.9-0.8,15.8-1.1,23.6-0.9c-1.7-8.7-4-17.4-3.9-26.4c0.1-7.7,12.1-7.7,12,0.1
	c-0.2,11.3,3.5,22,5,33.1c1.1,0,2.2-0.2,3.3-0.5c1.9-0.5,3.6-1.4,5-2.5c-0.8-3.2-1.8-6.4-2.7-9.6c-1.6-5.8-2.3-11.7-2.9-17.7
	c-1.4-13.3-2.7-26.6-3.6-39.9c-0.4-6.7-0.2-13.6-1.2-20.3c-0.9-6-2.6-11.8-3.4-17.8c-0.8-5.8-1.6-11.4-3-17.2
	c-1.3-5.4-2.5-10.9-2-16.4c0.1-1.5,0.7-2.7,1.5-3.6l-4.9-27.2c-0.2-1.2-0.7-2.4-1.3-3.4c-0.6-8.6-6.7-13.4-15-14.5
	c-19.4-2.4-40.4,6.5-52.6,21.7c-7.2,9-10.5,19.3-14.6,29.9c-0.1,0.4-0.2,0.6-0.3,0.7c-0.1,0.1-0.1,0.2-0.2,0.4
	c-0.6,1.3-1.2,2.6-2,3.8c-0.4,0.7-2.8,3.9-2.4,3.6c-3.2,3.8-6.8,7.2-10.2,10.8c-7.9,8.2-13.9,17.1-17.4,28.1
	c-1.4,4.5-2.4,9.1-3.5,13.6c-0.6,2.7-1.2,5.4-2,8c-0.3,1.1-0.6,2.1-1,3.1c-0.1,0.4-1.8,4.3-0.9,2.5c-2.3,4.8-2.7,5.2-6.2,8.9
	c-3.4,3.5-7.2,6.7-10.9,9.8c-5.9,5-11.3,10.2-16,16.2c-2,1.6-3.6,3.7-4.3,6.2c0,0,0,0.1-0.1,0.1c-11,17.8-14.6,39.4-15.2,59.9
	c-0.3,9.1,0,18.3,0.1,27.4c-1.5,7.9-2.6,16-0.6,23.4c5.5,40,40.1,55.1,51.4,58.1c11.6,3.1,42.4,18.3,42.5,18.3
	c0.5,0.1,3.9,2.5,3.9,2.6c0.2,0.4,0.5,0.7,0.7,1.1c5.2,8.2,33.2,30.7,42.4,37.1c17.1,11.8,37.4,18.6,57,24.9
	c9.8,3.1,18.5-5.2,19-14.5C256.6,447.9,241.6,439.8,247.7,401.2z"/>
<path class="st2" d="M269.4,196c-5.1-14.5-10.2-28.8-13.6-43.8c-2-8.7-12.1-59.3-11.8-76c-2.1-3.7-5.1-6.4-9.4-5.5
	c-2.1,0.4-3.9-0.2-5.2-1.4c-1.5,3.9-0.9,9.2-0.1,14c6.4,36.5,14.8,115.9,15.6,118.5c0.8,2.5,2.4,37.6,3,40.9
	c1.5,8.5,17.7,14,25,17.4c2,0.9,4,1.7,6,2.5c0.3,0.1,2,0.8,2.9,1.2c0.4,0.2,1.4,0.7,2.1,1.1c1.1,1,1.1,1.2,2.5,1.7
	c7.1,2.4,9.9-0.1,14.4,2.3C286.7,245.2,278.5,221.8,269.4,196z"/>
<path class="st2" d="M311.3,263.5c0.2-0.3,0.3-0.6,0.4-0.9c-1.3-1.7-2.6-3.5-3.9-5.2C309,259.4,310.1,261.4,311.3,263.5z"/>
<g>
	<g>
		<path class="st8" d="M249.2,70.8c3.3,36.6,9.8,72.7,20.7,107.8c8.7,28.3,19.1,58.2,40.3,79.8c0.7,0.7,4-0.6,3.4-1.3
			c-21.5-21.9-31.7-52.3-40.5-80.9c-10.7-34.7-17-70.3-20.3-106.4C252.7,69.1,249.1,69.8,249.2,70.8L249.2,70.8z"/>
	</g>
</g>
<g>
	<g>
		<path class="st8" d="M309.2,333.8c-22.4,38.6-34.1,83.3-31.2,127.9c0.1,1,3.7,0.3,3.6-1c-2.9-44.3,8.7-88.7,30.9-127
			C313.3,332.5,309.7,332.9,309.2,333.8L309.2,333.8z"/>
	</g>
</g>
<g>
	<g>
		<path class="st8" d="M263.9,338.3c-10.5,19-15.3,41.3-17.1,62.8c-1.7,20.4-1.1,43.1,8,61.9c0.7,1.5,4.3,0.4,3.6-1
			c-9.1-18.6-9.6-41-8-61.2c1.8-21.3,6.5-43.3,16.8-62.2C268.2,336.9,264.6,337,263.9,338.3L263.9,338.3z"/>
	</g>
</g>
<g class="st19">
	<g>
		<path class="st26" d="M278.6,83.4c2.7,0.9,5.5,1,8.2,0c1.2-0.4,2.4-1.1,3.5-1.8c1-0.8,2-2.5,3.1-3c-0.9,0-1.7,0-2.6,0
			c3,1.6,4,3.9,8,3.3c4.1-0.6,4.6-3.4,7.3-5.7c-0.9,0.3-1.7,0.6-2.6,0.9c2.1,0.3,4.3,3.4,6.3,4.3c1.7,0.7,3.4,1,5.3,0.8
			c1.5-0.2,3-0.7,4.2-1.7c0.9-0.7,1.9-3.3,2.7-3.7c-0.9,0-1.7,0-2.6,0c1.4,0.7,2.3,2.4,3.5,3.4c1.2,0.9,2.6,1.5,4.1,1.8
			c2.6,0.5,5,0,7.4-1.1c2.7-1.2,0.3-3.3-1.9-2.3c-6.2,2.9-8.1-7.3-13.3-3.7c-2.9,2.1-2.7,6-7.8,3.1c-1.9-1.1-3.4-3.4-5.6-3.8
			c-1.3-0.2-2.3,0-3.3,0.8c-0.4,0.3-1.2,1.8-1.5,2c-8.5,5.8-3.3,0.4-6.1-0.5c-1.4-0.4-1.8-0.9-3.4-0.4c-4,1.4-4.9,6.2-10.4,4.3
			C279.4,80,276,82.5,278.6,83.4L278.6,83.4z"/>
	</g>
</g>
<g class="st19">
	<g>
		<path class="st26" d="M309.1,390.3c2.7,0.9,5.5,1,8.2,0.1c2.8-1,4.2-3.8,6.6-4.8c-0.9,0-1.8,0-2.6,0c3.1,1.6,4.2,4.1,8.3,3.3
			c1.4-0.3,2.8-0.9,4-1.8c0.5-0.4,1.2-1,1.4-1.6c0.7-1.6-0.6-1.2,0.2-0.5c3.2,2.6,6.7,5,11,4.2c1.3-0.3,2.6-0.8,3.6-1.6
			c1-0.8,1.8-3.2,2.7-3.7c-0.9,0-1.8,0-2.6,0c3,1.5,4,4.4,7.7,5.2c2.6,0.6,5,0,7.4-1.1c2.7-1.2,0.3-3.5-1.9-2.5
			c-6.3,2.9-8.2-7.4-13.3-3.7c-3.1,2.2-2.3,6.1-7.8,3.1c-1.9-1-3.4-3.4-5.6-3.8c-1.5-0.3-2.6,0.1-3.7,1.1c-0.4,0.4-0.9,1.5-1.2,1.7
			c-7.6,6.1-3.5,0.3-6.1-0.5c-1.4-0.4-1.8-1-3.4-0.4c-4,1.4-4.8,6.2-10.4,4.4C309.8,386.9,306.5,389.5,309.1,390.3L309.1,390.3z"/>
	</g>
</g>
<g class="st19">
	<g>
		<path class="st26" d="M368.3,208.6c2.1,0.6,4.1,0.6,6.2-0.1c2.3-0.7,3.4-2.7,5.3-3.5c-1.1,0.2-2.2,0.3-3.3,0.5
			c2.4,1.3,3.3,2.7,6.3,2c3-0.7,3.5-2.3,5.6-4.1c-1.3,0.3-2.5,0.7-3.8,1c1.9,0.2,3.4,2.7,5.3,3.2c1.2,0.3,2.3,0.3,3.5,0.2
			c1-0.2,2.2-0.5,3.1-1c1.4-0.8,1.7-2.3,2.9-3.1c-1.2,0.2-2.5,0.5-3.7,0.7c2.3,1.1,3.1,3.3,6,3.6c1.8,0.2,3.5-0.4,5.1-1
			c2.9-1.2,0.2-1.7-1.5-1c-2.5,1-3.8-2.2-5.5-3c-1-0.5-2.9,0.1-3.7,0.7c-1.1,0.8-1.7,2.3-3.2,2.2c-1.5-0.2-2.6-2.3-4-2.8
			c-1.4-0.5-3.2,0.1-4.4,0.9c-1.2,0.8-1.1,1.8-2.6,1.4c-0.7-0.2-1.1-1.1-2-1.3c-3-0.5-5.4,3.9-8.1,3.1
			C370.9,206.7,367.1,208.3,368.3,208.6L368.3,208.6z"/>
	</g>
</g>
<g class="st19">
	<g>
		<path class="st26" d="M245.7,306c2.1,0.6,4.1,0.7,6.3,0c2-0.6,3.6-2.8,4.8-3.3c-0.9,0-1.9,0.1-2.8,0.1c2.4,1.3,3.3,2.8,6.4,2.1
			c2.9-0.6,3.4-2.2,5.3-3.9c-1,0.3-2,0.5-3.1,0.8c1.3,0.2,2.7,2.2,4,2.8c1.5,0.7,2.8,0.8,4.4,0.6c1.1-0.2,2.2-0.5,3.1-1.1
			c1.3-0.8,1.7-2.3,2.9-3.1c-1.2,0.2-2.3,0.5-3.5,0.7c2.3,1.1,2.6,3.1,5.5,3.5c1.9,0.3,3.6-0.2,5.4-0.9c2.8-1.2,0.2-2-1.6-1.3
			c-2.2,0.9-4.1-2.2-5.8-3.1c-0.9-0.4-2.7,0.2-3.5,0.7c-1.2,0.9-2.7,2-4.4,1.5c-1.2-0.3-1.9-1.9-3.1-2.2c-1.8-0.5-2.8,0.5-4.3,1.1
			c-1.3,0.6-2,0.6-3.2,0.4c-0.6-0.1-1-0.5-1.6-0.5c-2.8-0.2-5,3.9-7.6,3.2C248.1,303.9,244.2,305.6,245.7,306L245.7,306z"/>
	</g>
</g>
<g class="st19">
	<g>
		<path class="st26" d="M205.8,281.4c2.1,0.6,4.1,0.6,6.2-0.1c2.3-0.7,3.4-2.7,5.3-3.5c-1.1,0.1-2.2,0.3-3.3,0.4
			c2.4,1.3,3.3,2.7,6.3,2c3-0.7,3.5-2.3,5.6-4.1c-1.3,0.3-2.5,0.7-3.8,1c1.9,0.2,3.4,2.6,5.3,3.2c1.2,0.3,2.3,0.4,3.5,0.2
			c1-0.2,2.2-0.5,3.1-1c1.4-0.8,1.7-2.3,2.9-3.1c-1.2,0.2-2.5,0.4-3.7,0.7c2.3,1.1,3.1,3.3,6,3.6c1.8,0.2,3.5-0.3,5.1-1
			c2.9-1.2,0.2-1.7-1.5-1c-2.5,1-3.8-2.2-5.5-3c-1-0.5-2.9,0.1-3.7,0.7c-1.1,0.8-1.7,2.4-3.2,2.2c-1.5-0.2-2.6-2.3-4-2.8
			c-1.4-0.5-3.2,0.1-4.4,0.9c-1.2,0.8-1.1,1.8-2.6,1.4c-0.7-0.2-1.1-1.1-2-1.3c-3-0.5-5.4,3.9-8.1,3.1
			C208.4,279.4,204.6,281,205.8,281.4L205.8,281.4z"/>
	</g>
</g>
<path class="st8" d="M263.7,368.4c-1.1,0.1-3.1,0.7-3.3,2.1c0,0.1,0,0.2,0.1,0.3c0,0.1-0.1,0.2,0,0.3c0.5,1,1.8,1.1,2.8,1
	c1.2-0.2,2.9-0.9,2.8-2.4C265.9,368.6,264.6,368.3,263.7,368.4z"/>
<path class="st8" d="M266.1,237.2c-1.1,0.1-3.1,0.7-3.3,2.1c0,0.1,0,0.2,0.1,0.3c0,0.1-0.1,0.2,0,0.3c0.5,1,1.8,1.1,2.8,1
	c1.2-0.2,2.9-0.9,2.8-2.4C268.3,237.4,267,237.1,266.1,237.2z"/>
<path class="st8" d="M272.2,406.1c-1.1,0.1-3.1,0.7-3.3,2.1c0,0.1,0,0.2,0.1,0.3c0,0.1-0.1,0.2,0,0.3c0.5,1,1.8,1.1,2.8,1
	c1.2-0.2,2.9-0.9,2.8-2.4C274.5,406.3,273.2,406,272.2,406.1z"/>
<path class="st8" d="M262.9,218.1c-1.1,0.1-3.1,0.7-3.3,2.1c0,0.1,0,0.2,0.1,0.3c0,0.1-0.1,0.2,0,0.3c0.5,1,1.8,1.1,2.8,1
	c1.2-0.2,2.9-0.9,2.8-2.4C265.2,218.3,263.9,218,262.9,218.1z"/>
<path class="st8" d="M265.2,421.5c-1-0.6-2.3-0.5-3.2,0.3c-0.4,0.3-0.7,0.8-0.6,1.3c-0.3,0.4-0.5,0.9-0.1,1.4
	c0.5,0.8,1.7,0.6,2.5,0.3c0.8-0.3,1.6-1,1.8-1.9C265.7,422.3,265.7,421.8,265.2,421.5z"/>
<path class="st8" d="M258.2,209.4c-1-0.6-2.3-0.5-3.2,0.3c-0.4,0.3-0.7,0.8-0.6,1.3c-0.3,0.4-0.5,0.9-0.1,1.4
	c0.5,0.8,1.7,0.6,2.5,0.3c0.8-0.3,1.6-1,1.8-1.9C258.7,210.2,258.7,209.7,258.2,209.4z"/>
<path class="st8" d="M260,403.1c-1-0.6-2.3-0.5-3.2,0.3c-0.4,0.3-0.7,0.8-0.6,1.3c-0.3,0.4-0.5,0.9-0.1,1.4c0.5,0.8,1.7,0.6,2.5,0.3
	c0.8-0.3,1.6-1,1.8-1.9C260.5,403.9,260.5,403.4,260,403.1z"/>
<path class="st8" d="M277,372.6c-1-0.6-2.3-0.5-3.2,0.3c-0.4,0.3-0.7,0.8-0.6,1.3c-0.3,0.4-0.5,0.9-0.1,1.4c0.5,0.8,1.7,0.6,2.5,0.3
	c0.8-0.3,1.6-1,1.8-1.9C277.4,373.4,277.5,372.9,277,372.6z"/>
<path class="st8" d="M262.9,169.8c-1-0.6-2.3-0.5-3.2,0.3c-0.4,0.3-0.7,0.8-0.6,1.3c-0.3,0.4-0.5,0.9-0.1,1.4
	c0.5,0.8,1.7,0.6,2.5,0.3c0.8-0.3,1.6-1,1.8-1.9C263.4,170.7,263.4,170.1,262.9,169.8z"/>
<path class="st8" d="M257.9,182c-1-0.6-2.3-0.5-3.2,0.3c-0.4,0.3-0.7,0.8-0.6,1.3c-0.3,0.4-0.5,0.9-0.1,1.4c0.5,0.8,1.7,0.6,2.5,0.3
	c0.8-0.3,1.6-1,1.8-1.9C258.4,182.8,258.4,182.2,257.9,182z"/>
<path class="st8" d="M271.5,199.8c-1-0.6-2.3-0.5-3.2,0.3c-0.4,0.3-0.7,0.8-0.6,1.3c-0.3,0.4-0.5,0.9-0.1,1.4
	c0.5,0.8,1.7,0.6,2.5,0.3c0.8-0.3,1.6-1,1.8-1.9C272,200.6,272,200,271.5,199.8z"/>
<path class="st8" d="M288.2,243.4c-1-0.6-2.3-0.5-3.2,0.3c-0.4,0.3-0.7,0.8-0.6,1.3c-0.3,0.4-0.5,0.9-0.1,1.4
	c0.5,0.8,1.7,0.6,2.5,0.3c0.8-0.3,1.6-1,1.8-1.9C288.7,244.2,288.7,243.7,288.2,243.4z"/>
<path class="st8" d="M263.6,389.3c-1-0.6-2.3-0.5-3.2,0.3c-0.4,0.3-0.7,0.8-0.6,1.3c-0.3,0.4-0.5,0.9-0.1,1.4
	c0.5,0.8,1.7,0.6,2.5,0.3c0.8-0.3,1.6-1,1.8-1.9C264,390.2,264.1,389.6,263.6,389.3z"/>
<path class="st8" d="M276.8,356.8c-0.7-1-2.4-0.5-3.2,0c-0.7,0.4-1.2,1.1-1.3,1.9c-0.1,0.8,1,0.8,1.5,0.7c0.3,0,0.5-0.1,0.8-0.2
	c0.6-0.1,1.1-0.3,1.5-0.6C276.7,358.2,277.3,357.5,276.8,356.8z"/>
<path class="st8" d="M281.2,231.1c-0.7-1-2.4-0.5-3.2,0c-0.7,0.4-1.2,1.1-1.3,1.9c-0.1,0.8,1,0.8,1.5,0.7c0.3,0,0.5-0.1,0.8-0.2
	c0.6-0.1,1.1-0.3,1.5-0.6C281.2,232.6,281.8,231.8,281.2,231.1z"/>
<path class="st8" d="M243.6,98.1c-1.2,0.1-1.7,1.8-1.7,2.7c0,0.8,0.3,1.6,0.9,2.1c0.6,0.5,1.2-0.4,1.4-0.9c0.1-0.2,0.2-0.5,0.3-0.8
	c0.2-0.5,0.3-1.1,0.3-1.6C244.8,98.9,244.5,98,243.6,98.1z"/>
<path class="st8" d="M262.1,436.6c-0.3-0.8-1.1-0.8-1.7-0.7c-0.7,0.1-1.5,0.3-2.1,0.6c-0.3,0.1-0.6,0.3-0.8,0.6
	c-0.4,0.4-0.1,1,0.3,1.3c0.3,0.2,0.7,0.2,1,0.2c0.9,0,1.8-0.3,2.6-0.7C261.8,437.7,262.3,437.2,262.1,436.6z"/>
<path class="st8" d="M253.4,133c-0.3-0.8-1.1-0.8-1.7-0.7c-0.7,0.1-1.5,0.3-2.1,0.6c-0.3,0.1-0.6,0.3-0.8,0.6
	c-0.4,0.4-0.1,1,0.3,1.3c0.3,0.2,0.7,0.2,1,0.2c0.9,0,1.8-0.3,2.6-0.7C253.1,134.2,253.6,133.7,253.4,133z"/>
<path class="st8" d="M270.5,443.3c-0.5,0.1-1,0.2-1.4,0.5c-0.2,0.2-0.7,0.5-0.7,0.8v1.9c0,0.8,0.9,0.9,1.6,0.8
	c0.5-0.1,1-0.2,1.4-0.5c0.2-0.2,0.7-0.5,0.7-0.8v-1.9C272.1,443.4,271.2,443.2,270.5,443.3z"/>
<path class="st8" d="M241.3,114.7c-0.5,0.1-1,0.2-1.4,0.5c-0.2,0.2-0.7,0.5-0.7,0.8v1.9c0,0.8,0.9,0.9,1.6,0.8
	c0.5-0.1,1-0.2,1.4-0.5c0.2-0.2,0.7-0.5,0.7-0.8v-1.9C242.8,114.7,241.9,114.6,241.3,114.7z"/>
<path class="st8" d="M288.8,344.7c-0.5,0.1-1,0.2-1.4,0.5c-0.2,0.2-0.7,0.5-0.7,0.8v1.9c0,0.8,0.9,0.9,1.6,0.8
	c0.5-0.1,1-0.2,1.4-0.5c0.2-0.2,0.7-0.5,0.7-0.8v-1.9C290.4,344.7,289.5,344.6,288.8,344.7z"/>
<path class="st8" d="M248.2,149.1c-0.5,0.1-1,0.2-1.4,0.5c-0.2,0.2-0.7,0.5-0.7,0.8v1.9c0,0.8,0.9,0.9,1.6,0.8
	c0.5-0.1,1-0.2,1.4-0.5c0.2-0.2,0.7-0.5,0.7-0.8v-1.9C249.8,149.1,248.8,149,248.2,149.1z"/>
<g class="st29">
	<g>
		<path class="st30" d="M448.5,189.1c0,0,5.5,62.4-21.1,115.5"/>
		<polygon class="st3" points="440.6,299.3 421.7,290.6 421.7,313.1 		"/>
	</g>
	<g>
		<path class="st30" d="M422.7,352.4c0,0-25.3,59-75.9,87.7"/>
		<polygon class="st3" points="355.7,447.3 344.6,429.7 332.3,448.5 		"/>
	</g>
	<g>
		<path class="st30" d="M446.3,367.6c0,0-8.4,48.9-25.3,72.5"/>
		<polygon class="st3" points="433.8,440.1 415.5,430.2 413.9,452.6 		"/>
	</g>
	<g>
		<path class="st30" d="M423.2,91.2c0,0-28.7,44.3-64.9,63.9"/>
		<polygon class="st3" points="367,162.4 355.5,145 343.7,164.1 		"/>
	</g>
	<g>
		<path class="st30" d="M385.7,47.3c0,0-33.7,70.8-74.2,96.1"/>
		<polygon class="st3" points="320.6,149.5 309.1,132.1 297.2,151.2 		"/>
	</g>
</g>
<g>
	<path class="st3" d="M413.6,156.7l-1.4,1.4c-0.9-1-2.1-2.1-3.7-3.2l1.4-1.4C411.3,154.7,412.5,155.7,413.6,156.7z M414,160
		c-1,2.6-2,5-3.2,7.3l-2-0.9c1.3-2.3,2.5-4.7,3.5-7.2L414,160z M414.5,151.8l-1.4,1.4c-0.9-1-2.2-2.1-3.8-3.2l1.4-1.4
		C412.2,149.7,413.5,150.8,414.5,151.8z M419.1,148.6v2.7c0,1.7-0.4,3.1-1.1,4.1c-0.7,1-1.7,1.7-3.2,2.2l-1-1.6
		c1.3-0.5,2.2-1.1,2.6-1.8c0.4-0.7,0.7-1.7,0.7-2.9v-2.7H419.1z M425.7,167.4h-2v-0.8h-6.2v0.8h-1.9v-9.1h10.1V167.4z M423.8,164.7
		v-4.5h-6.2v4.5H423.8z M423.9,148.6v5.9c0,0.4,0.2,0.5,0.7,0.5h2.6v1.9H424c-1.4,0-2.1-0.7-2.1-2v-6.4H423.9z"/>
	<path class="st3" d="M449.6,156.4h-15v2.8c-0.1,3.4-0.7,6.1-2,8.2l-1.5-1.3c1-1.7,1.5-4,1.6-6.9v-4.6h16.9V156.4z M441.7,148.2v3.3
		h4.8V149h1.9v4.3h-15.4V149h1.9v2.5h4.8v-3.3H441.7z M448.7,157.8v1.8h-5.3v2.1h6.3v1.8h-6.3v4h-2v-4h-6.2v-1.8h6.2v-2.1h-5.3v-1.8
		H448.7z"/>
	<path class="st3" d="M458.8,156.5l-1.4,1.4c-0.8-1-1.9-2-3.3-3.1l1.4-1.3C456.9,154.4,457.9,155.5,458.8,156.5z M459,159.7
		c-0.8,2.6-1.7,5.1-2.6,7.4l-1.8-0.8c1.1-2.4,2-4.8,2.7-7.3L459,159.7z M459.3,151.2l-1.4,1.4c-0.8-0.8-1.8-1.8-3.2-2.7l1.4-1.3
		C457.3,149.4,458.4,150.3,459.3,151.2z M462.9,157.9c-0.1,2.7-0.4,4.7-0.8,6c-0.5,1.3-1.3,2.5-2.5,3.5l-1.2-1.6
		c1-0.8,1.6-1.7,2-2.8c0.4-1,0.6-2.7,0.7-5.1H462.9z M466.7,148.8c-0.2,0.5-0.5,1-0.7,1.4h6.5v1.8H465c-0.8,1.3-1.7,2.4-2.6,3.4
		c2.2-0.1,4.4-0.3,6.5-0.6c-0.4-0.5-0.8-1.1-1.2-1.6l1.6-1c1.4,1.7,2.6,3.2,3.4,4.5l-1.6,1.1c-0.3-0.5-0.6-1-1-1.6
		c-3.1,0.4-6.3,0.6-9.6,0.8l-0.6-1.7c1.1-0.9,2.2-2,3.1-3.4h-3.2v-1.8h4.2c0.3-0.6,0.6-1.3,0.9-2L466.7,148.8z M466.5,157.9v9.1h-2
		v-9.1H466.5z M468.5,164.9v-6.9h1.9v6.7c0,0.4,0.1,0.7,0.5,0.7h2.2v1.8h-2.7C469.1,167.1,468.5,166.3,468.5,164.9z"/>
</g>
<g>
	<g>
		<path class="st8" d="M183.2,301.3l-1.4,1.4c-0.8-1-2-1.9-3.4-3l1.4-1.3C181.2,299.3,182.3,300.3,183.2,301.3z M183.2,305.2
			c-0.8,2.4-1.6,4.7-2.6,6.8l-2-0.9c1.1-2.2,2-4.4,2.8-6.7L183.2,305.2z M183.9,296.4l-1.4,1.4c-0.9-1-2.1-2-3.7-3.1l1.4-1.3
			C181.7,294.3,182.9,295.3,183.9,296.4z M187,295v-2h1.9v2h3v-2h1.9v2h2.5v1.8h-2.5v2h3.1v1.8h-3.1c0.8,1.2,2.1,2.2,3.7,2.9
			l-0.8,1.7c-1-0.5-1.9-1.1-2.6-1.7v4.1h-6.3v1.6c0,0.5,0.3,0.7,0.8,0.7h5.3c0.4,0,0.6-0.2,0.7-0.4c0.1-0.2,0.2-0.8,0.3-1.7l1.9,0.6
			c-0.1,1-0.3,1.8-0.4,2.2c-0.3,0.7-0.9,1.1-1.8,1.1H188c-1.3,0-2-0.6-2-1.8v-5.7c-0.6,0.5-1.3,1-2,1.5l-1-1.7
			c1.9-1,3.2-2.2,3.9-3.4h-3v-1.8h3.1v-2h-2.3V295H187z M193.2,302.5c-0.5-0.6-1-1.2-1.3-1.9h-3.2c-0.3,0.7-0.7,1.3-1.1,1.9H193.2z
			 M192.4,305.9v-1.7h-4.4v1.7H192.4z M191.9,298.8v-2h-3v2H191.9z"/>
		<path class="st8" d="M218.4,311.7h-2v-1.2h-11.5v1.2h-2v-16.4h15.5V311.7z M216.4,308.6v-11.4h-11.5v11.4H216.4z"/>
	</g>
</g>
<g>
	<g>
		<path class="st8" d="M225.5,71.2c3.9,33.1,7.9,66.2,11.8,99.3c2.4,19.8,4.7,39.7,7.1,59.5c0.5,4,0.1,9.6,1.6,13.4
			c0.4,1,0.4,0.9,1.5,1.7c3.6,2.7,7.8,4.9,11.6,7.3c5.1,3.3,10.3,6.5,15.4,9.8c1.9,1.2,3.6,2.4,5.7,3c9.4,2.7,19.1,4.4,28.6,6.5
			c0.7,0.1,3.1-0.1,3.3-1c1.8-13.7,3.6-27.3,5.4-41c0.9-7.2,1.9-14.3,2.8-21.5c0.3-1.9,0.2-5.4,3.3-4.8c0.9,0.2,2.1,1.5,2.8,1.9
			c13.5,9.3,27,18.6,40.5,27.9c5.2,3.6,10.6,7.1,15.8,10.9c2.6,1.9,3.2,6.4,4.4,9.8c3.2,9.2,6.4,18.4,9.6,27.6
			c0.4,1.2,0.7,3,1.4,4.1c0.2,0.3,0.3,0.8,0.4,1.1c0.1,0.3,1.3-1,0.3-0.4c-3.2,2-7.1,3.3-10.6,4.9c1-0.1,1.9-0.1,2.9-0.2
			c-2.1-5.5-4.3-11-6.4-16.5c-2.8-7.1-5.1-14.8-8.5-21.6c-1.5-3-5.1-4.6-7.8-6.6c-7.2-5.1-14.4-10.2-21.6-15.3
			c-5.1-3.6-10.2-7.2-15.3-10.8c-0.6-0.4-3.4,0-3.5,0.9c-3,23-6,45.9-9,68.9c1.1-0.3,2.2-0.7,3.3-1c-9.5-2-19-4.1-28.5-6.1
			c-6.9-1.5-13.2-2-18.7-5.6c-10.1-6.6-20.3-13.2-30.4-19.8c-1.9-1.2-6.6-3.1-7.8-5.1c0,0-0.2-2.1-0.2-2.6
			c-5.2-43.7-10.4-87.4-15.5-131.1c-1.9-15.6-3.7-31.2-5.6-46.9c-0.7,0.4-1.4,0.8-2.1,1.2c4.6-0.6,9.1-1.1,13.7-1.7
			c1.5-0.2,3.2-1.8,0.6-1.5c-4.6,0.6-9.1,1.1-13.7,1.7c-0.5,0.1-2.2,0.5-2.1,1.2c4.6,39.1,9.3,78.2,13.9,117.3
			c2.3,19.4,4.6,38.7,6.9,58.1c0.5,4.2,0,5,3.5,7.3c10,6.5,20,13,30,19.6c2.9,1.9,6,4.6,9.2,6c3.3,1.4,7.5,1.7,11,2.4
			c11,2.4,21.9,4.7,32.9,7.1c0.7,0.1,3.1-0.1,3.3-1c3-23,6-45.9,9-68.9c-1.2,0.3-2.3,0.6-3.5,0.9c11.3,8,22.7,16,34,24
			c2.9,2,8.4,4.9,10.2,7.4c1.4,2,2,5,2.8,7.2c1.6,4,3.2,8.1,4.7,12.1c2.6,6.6,5.1,13.1,7.7,19.7c0.3,0.8,2.4,0,2.9-0.2
			c3.7-1.7,7.4-3.4,11.1-5.1c0.2-0.1,0.9-0.4,0.7-0.8c-4.6-13.2-9.2-26.4-13.8-39.7c-1.1-3.1-2.6-3.6-5.4-5.5
			c-6.3-4.3-12.6-8.7-18.9-13c-12.1-8.3-24-17.4-36.5-25.1c-4-2.5-9.4-1-10.5,3.9c-1.2,5.6-1.5,11.6-2.3,17.2
			c-2.1,15.8-4.1,31.7-6.2,47.5c1.1-0.3,2.2-0.7,3.3-1c-8.6-2-17.2-3.9-25.8-5.9c-6.3-1.4-11.4-5.6-17.3-9.3
			c-4.6-2.9-9.2-5.8-13.8-8.7c-1.2-0.8-4.8-2.5-5.3-3.4c-1.4-2.4-0.9-7.8-1.2-10.5c-4.9-41.3-9.8-82.6-14.7-123.9
			c-1.5-12.8-3.1-25.7-4.6-38.5C229,69.5,225.4,70.2,225.5,71.2z"/>
	</g>
</g>
<g>
	<path class="st1" d="M135.7,200c-0.9,1.2-1.9,2.3-2.9,3.5c-0.3,0.3-0.6,0.7-0.8,1c0,0-0.1,0.1-0.1,0.1c-0.4,0.6-0.8,1.1-1.2,1.7
		c-0.2,0.3-0.5,0.7-0.7,1v18.4h52.4c0.9-1.1,1.8-2.2,2.9-3.1c1.2-1,2.3-1.7,3.6-2.3V200H135.7z"/>
	<g>
		<path class="st2" d="M148.1,206.7c-4.3-0.3-9.8,0.1-15.2,1.3c-1,0.2-2,0.2-2.6-0.7c-0.6-1,0-1.8,0.6-2.5c1.4-1.7,2.7-3.3,4.1-5
			c0.7-0.9,1.5-1.6,1.4-2.9c0-0.3,3.8-3.7,4.1-3.7c1.1-0.1,1.8,0.4,1.6,1.4c-0.1,0.8,0.2,0.9,0.9,0.9c7.3,0,14.6-0.3,21.9-0.8
			c0.2,0,0.4,0,0.6,0c5.5-0.1,11,0.2,16.5-0.4c1-0.1,1.9,0.1,2.4,1c0.4,0.9,0,1.6-0.6,2.3c-1,1.1-1.5,2.4-2.1,3.8
			c-0.4,1.1-0.8,2.2-1.3,3.3c-0.6,1.2-1.5,1.8-3,1.8c-4,0-8-0.5-12.1-0.3C160.1,206.5,154.7,206.9,148.1,206.7z"/>
		<path class="st8" d="M145.8,193.1c6.8,0.2,13.6,0.7,20.4,0.6c4.2-0.1,8.5-0.1,12.7-0.5c1.7-0.2,3.4,0,5,0.6c1,0.4,2,0.8,2,2.1
			c0,0.5,0.4,0.6,0.7,0.9c1.3,1.3,2.6,2.6,3.9,3.8c1.3,1.2,1.8,2.6,1.5,4.3c-0.9,4.9-1.1,9.8-1.7,14.7c-0.2,1.9-0.9,3.2-2.7,4.1
			c-1.5,0.8-3,1.8-4.2,3c-2.1,2-4.6,2.3-7.3,1.9c-7-1-14.1-0.8-21.1-0.1c-2.3,0.2-4.5,0.2-6.8,0.2c-4.9,0-9.8,0-14.7,0
			c-3,0-3.9-0.9-4-3.9c-0.2-4.3-0.4-8.7-0.2-13c0.1-1,0.2-1.8-1.3-1.8c-1,0-1.4-0.9-1.2-1.8c0.1-0.6,0.4-1.1,0.7-1.6
			c2.8-4.2,6-8.1,9.6-11.6c1.3-1.3,2.7-1.9,4.5-1.8C143.1,193.1,144.4,193.1,145.8,193.1z M158,208.2c-6,0.1-12,0.4-18.1,0.4
			c-2.3,0-4.5,0.3-6.8,0.7c-0.8,0.1-1.1,0.4-1.1,1.2c-0.1,4.6,0.1,9.2,0.3,13.8c0,1,0.4,1.5,1.5,1.4c2.9-0.1,5.8,0,8.7,0
			c3.5,0,7,0.2,10.5-0.2c7.7-0.8,15.5-1.1,23.2,0c1.1,0.2,1.3-0.2,1.5-1.1c0.8-4.4,1.4-8.9,1.5-13.4c0-1.9-0.2-2.6-2.7-2.8
			C170.4,207.6,164.2,208.3,158,208.2z M143.2,196.3c-2.4-0.3-2.9-0.2-4.3,1.2c-2.4,2.3-4.4,4.9-6.5,7.5c-0.2,0.3-0.7,0.6-0.4,1
			c0.3,0.4,0.7,0.2,1.1,0.1c2.6-0.4,5.3-0.6,8-0.6c12-0.1,24-0.7,36-0.2c0.6,0,1,0,1.3-0.7c1.3-2.5,2.5-4.9,3.8-7.4
			c0.3-0.5,0.1-0.7-0.4-0.9c-1.5-0.6-2.9-0.1-3.7,1.2c-0.3,0.4-0.5,0.8-0.8,1.3c-0.6,1-1.3,2.2-2.6,1.4c-1.3-0.8-0.5-1.9,0.1-2.8
			c0.4-0.5,0.4-0.9-0.4-0.9c-1.4,0-2.9,0.1-4.3,0.1c-0.7,0-1,0.4-1.2,0.9c-0.7,1.5-1.4,2.9-2.2,4.4c-0.4,0.8-1,1.5-2,1.1
			c-1.1-0.4-1-1.4-0.6-2.3c0.4-1,0.8-1.9,1.3-2.8c0.7-1.1,0.2-1.3-0.8-1.3c-1,0.1-2,0.1-3,0c-0.8,0-1.3,0.2-1.6,1
			c-0.6,1.2-1.2,2.4-1.9,3.5c-0.4,0.6-1,1-1.8,0.7c-0.9-0.4-0.9-1.1-0.7-1.9c0.1-0.3,0.2-0.5,0.4-0.8c1.2-2.4,1.2-2.3-1.5-2.6
			c-1-0.1-1.4,0.2-1.8,1.1c-0.5,1.1-1.1,2.2-1.6,3.3c-0.4,0.9-1.1,1.5-2.1,1c-1-0.5-0.8-1.5-0.4-2.3c0.4-0.8,0.8-1.6,1.2-2.4
			c0.1-0.3,0.4-0.6,0.1-0.9c-0.6-0.5-3.2-0.2-3.7,0.5c-0.9,1.3-1.8,2.7-2.8,4c-0.6,0.8-1.3,1.3-2.3,0.6c-0.9-0.6-0.6-1.5-0.1-2.2
			C141.8,198.3,142.4,197.4,143.2,196.3z M181.1,224.4c1.6-1.1,3-2.2,4.5-3c1.3-0.7,1.6-1.6,1.8-2.9c0.5-4.2,0.6-8.5,1.4-12.6
			c0.4-1.8-0.3-2.8-1.5-3.9c-2.6-2.5-2.6-2.5-4.2,0.7c-0.7,1.5-2.2,2.9-0.6,4.7c0.1,0.1,0.1,0.5,0.1,0.7c-0.1,2.2-0.1,4.4-0.2,6.7
			C182.2,217.8,181.6,221,181.1,224.4z"/>
		<path class="st8" d="M167.6,209.7c1,0,2,0,3,0c1.9,0.1,2.9,1,3.2,2.9c0.3,1.8,0.1,3.7-0.2,5.5c-0.2,1-0.9,1.6-1.9,1.8
			c-2.4,0.4-4.8,0.4-7.2,0.5c-1,0-1.9-0.5-1.9-1.5c-0.1-2.5-0.5-5.1,0.1-7.7c0.3-1.1,0.9-1.5,2-1.5
			C165.6,209.6,166.6,209.6,167.6,209.7C167.6,209.7,167.6,209.7,167.6,209.7z"/>
		<polygon class="st1" points="165.1,212.7 165.1,214.5 166.9,214.5 166.9,212.9 		"/>
		<polygon class="st1" points="169.1,216.2 169.1,218 170.9,218 170.9,216.3 		"/>
		<polygon class="st1" points="164.9,216.5 164.9,218.3 166.7,218.3 166.7,216.7 		"/>
		<polygon class="st1" points="168.9,212.9 168.9,214.7 170.7,214.7 170.7,213.1 		"/>
	</g>
</g>
<g>
	<g>
		<path class="st8" d="M219.5,216c2,14.6,4,29.1,6,43.7c0.8-0.5,1.7-1.1,2.5-1.6c-20.3,0.3-40.5,0.6-60.8,0.9
			c-0.6,0-2.5,0.3-2.5,1.3c0,11.7,0,23.4,0,35.1c0.8-0.4,1.7-0.9,2.5-1.3c-4.1-0.3-8.2-0.5-12.4-0.8c-3-0.2-6.1-0.4-9.1-0.6
			c-0.9-0.1-1.9-0.2-2.8-0.2c-1.2,0.1-1.1-0.5-0.8,0.2c0.5,1.1,0.4-3.4,0.4-3.9c-0.1-2.9-0.2-5.8-0.3-8.6c-0.1-4.3-0.3-8.6-0.4-12.8
			c0-0.6-1.2-0.7-1.6-0.6c-15.1,1.7-30.3,3.4-45.4,5.1c-0.6,0.1-2,0.5-2,1.3c0,21.1,0,42.3,0,63.4c0,0.6,0.5,0.9,1.1,0.9
			c14.6,0.6,29.1,1.1,43.7,1.7c0.7,0,2.4-0.3,2.5-1.3c0.3-6,0.6-12,0.9-18c-0.8,0.4-1.7,0.9-2.5,1.3c2.8,0,5.5,0,8.3,0
			c3.6,0,8.5,0.8,12,0c0.2-0.1,0.8-0.1,1,0c-2.2-0.8-0.6-0.7-1,0.2c-0.5,1.1,0.2,4.1,0.3,5.3c0.2,3.4,0.4,6.7,0.5,10.1
			c0,0.6,1.2,0.6,1.6,0.6c26.3-1.1,52.7-2.1,79-3.2c2.7-0.1,5.9,0.3,8.3-1c0.7-0.4,2.6-1.9,3.9-2.6c10.1-5.9,22.1-8.5,33.6-9.3
			c29.9-2.3,59.9,6.4,87.2,17.7c1,0.4,2.5,0.1,3.1-0.8c2.6-4,5.1-8,7.7-12c-1.1,0.2-2.2,0.4-3.4,0.6c2.7,2.3,5.5,4.7,8.2,7
			c0.9,0.8,3.2,2.1,3.7,3.2c-0.4-1-0.4,0-1.1,1.2c-3.6,6.5-7.2,12.9-10.9,19.4c1-0.3,2.1-0.6,3.1-0.8c-10.4-6.1-21.6-11-32.8-15.1
			c-20.8-7.7-43.8-13.2-66.1-10.2c-5.2,0.7-10.4,1.9-15.4,3.7c-2.6,0.9-5.2,2-7.7,3.3c-2.4,1.2-4.7,3.2-7.2,4.2
			c0.3-0.1,0.2,0.1-0.3,0.3c-0.6,0.2-1.4,0.1-2,0.1c-2.4,0.1-4.7,0.2-7.1,0.3c-17.3,0.7-34.7,1.5-52,2.2
			c-13.4,0.6-26.7,1.1-40.1,1.7c0.5,0.2,1.1,0.4,1.6,0.6c-0.7-6.5-1.4-13-2.1-19.4c-0.1-1.3-3.5-0.5-3.6,0.7
			c-0.6,6.6-1.2,13.2-1.8,19.9c0.8-0.4,1.7-0.9,2.5-1.3c-21.5-1.1-43-2.1-64.5-3.2c0.4,0.3,0.8,0.6,1.1,0.9
			c-0.3-27.1-0.6-54.1-0.9-81.2c-0.7,0.4-1.4,0.9-2,1.3c21.5-2.2,42.9-4.4,64.4-6.5c-0.5-0.2-1.1-0.4-1.6-0.6c1,7.3,2,14.6,3,22
			c0.2,1.3,3.5,0.5,3.6-0.7c0.8-9.7,1.6-19.5,2.5-29.2c-0.8,0.4-1.7,0.9-2.5,1.3c20.8-0.5,41.5-1,62.3-1.5c0.9,0,2.6-0.4,2.5-1.6
			c-1.5-10.7-3-21.4-4.5-32.1c-0.7,0.5-1.3,1.1-2,1.6c3.4-0.5,6.8-0.9,10.2-1.4c1.8-0.2,2.9-2.6,0.4-2.2c-3.4,0.5-6.8,0.9-10.2,1.4
			c-0.8,0.1-2.2,0.6-2,1.6c1.5,10.7,3,21.4,4.5,32.1c0.8-0.5,1.7-1.1,2.5-1.6c-20.8,0.5-41.5,1-62.3,1.5c-0.7,0-2.4,0.3-2.5,1.3
			c-0.8,9.7-1.6,19.5-2.5,29.2c1.2-0.2,2.4-0.5,3.6-0.7c-1-7.3-2-14.6-3-22c-0.1-0.6-1.2-0.7-1.6-0.6c-21.5,2.2-42.9,4.4-64.4,6.5
			c-0.6,0.1-2,0.5-2,1.3c0.3,27.1,0.6,54.1,0.9,81.2c0,0.6,0.5,0.9,1.1,0.9c21.5,1.1,43,2.1,64.5,3.2c0.7,0,2.4-0.3,2.5-1.3
			c0.6-6.6,1.2-13.2,1.8-19.9c-1.2,0.2-2.4,0.5-3.6,0.7c0.7,6.5,1.4,13,2.1,19.4c0.1,0.6,1.2,0.6,1.6,0.6
			c28.3-1.2,56.6-2.4,84.9-3.6c5.1-0.2,10.3-0.3,15.4-0.6c1-0.1,1.8,0,2.8-0.4c2.6-1.1,5-3.3,7.6-4.6c2.9-1.5,5.8-2.7,8.9-3.7
			c22.3-7.2,47.2-2.5,68.9,4.6c13.7,4.5,27.4,10.2,39.9,17.6c0.9,0.5,2.6,0.1,3.1-0.8c4-7.1,8-14.3,12-21.4c0.1-0.2,0.2-0.6,0-0.8
			c-4-3.4-8-6.9-12-10.3c-0.9-0.8-2.7-0.3-3.4,0.6c-2.6,4-5.1,8-7.7,12c1-0.3,2.1-0.6,3.1-0.8c-36.1-14.8-82.5-27.8-120.3-10.7
			c-3,1.4-5.9,2.9-8.6,4.8c-0.4,0.3-1.4,0.8-1.6,1.2c0.6-1.2,2.5-0.6-0.3-0.6c-14.2-0.2-28.7,1.1-42.9,1.7
			c-13.6,0.5-27.2,1.1-40.8,1.6c0.5,0.2,1.1,0.4,1.6,0.6c-0.3-5.4-0.6-10.8-0.9-16.3c0-0.5-0.8-0.6-1.1-0.6c-7.1,0-14.3,0-21.4,0
			c-0.7,0-2.4,0.3-2.5,1.3c-0.3,6-0.6,12-0.9,18c0.8-0.4,1.7-0.9,2.5-1.3c-14.6-0.6-29.1-1.1-43.7-1.7c0.4,0.3,0.8,0.6,1.1,0.9
			c0-21.1,0-42.3,0-63.4c-0.7,0.4-1.4,0.9-2,1.3c15.1-1.7,30.3-3.4,45.4-5.1c-0.5-0.2-1.1-0.4-1.6-0.6c0.3,8.6,0.6,17.1,0.9,25.7
			c0,0.5,0.8,0.6,1.1,0.6c8.6,0.6,17.1,1.1,25.7,1.7c0.6,0,2.5-0.4,2.5-1.3c0-11.7,0-23.4,0-35.1c-0.8,0.4-1.7,0.9-2.5,1.3
			c20.3-0.3,40.5-0.6,60.8-0.9c0.9,0,2.6-0.4,2.5-1.6c-2-14.6-4-29.1-6-43.7C222.9,213.7,219.3,214.5,219.5,216z"/>
	</g>
</g>
</svg>
