<?xml version="1.0" encoding="utf-8"?>
<!-- Generator: Adobe Illustrator 23.0.1, SVG Export Plug-In . SVG Version: 6.00 Build 0)  -->
<svg version="1.1" xmlns="http://www.w3.org/2000/svg" xmlns:xlink="http://www.w3.org/1999/xlink" x="0px" y="0px"
	 viewBox="0 0 929.9 672.9" style="enable-background:new 0 0 929.9 672.9;" xml:space="preserve">
<style type="text/css">
	.st0{fill:#CF9479;}
	.st1{fill:#FAF5F3;}
	.st2{fill:#F6ECE8;}
	.st3{fill:#222222;}
	.st4{fill:#FFFFFF;}
	.st5{fill:#FEFEFE;}

	#pollution {
		animation: fade 3s ease-in-out infinite;
	}
	#flower {
		animation: fade2 3s ease-in-out infinite;
	}
	#hand {
		animation: enter 3s ease-in-out infinite;
	}
	@keyframes enter {
	  0% {
	  	transform: translate(100px, -100px) rotateZ(-20deg);
	  	opacity: 0;
	  }
	  10% {
	  	transform: translate(100px, -100px) rotateZ(-20deg);
	  	opacity: 0;
	  }
	  30% {
	  	transform: translate(0, 0) rotateZ(0deg);
	  	opacity: 1;
	  }
	  80% {
	  	transform: translate(0, 0) rotateZ(0deg);
	  	opacity: 1;
	  }
	  99% {
	  	transform: translate(100px, -100px) rotateZ(-20deg);
	  	opacity: 0;
	  }
	  100% {
	  	transform: translate(100px, -100px) rotateZ(-20deg);
	  	opacity: 0;
	  }
	}

	@keyframes fade {
	  0% {
	  	opacity: 0;
	  }
	  30% {
	  	opacity: 0;
	  }
	  40% {
	  	opacity: 1;
	  }
	  85% {
	  	opacity: 1;
	  }
	  100% {
	    opacity: 0;
	  }
	}

	@keyframes fade2 {
	  0% {
	  	opacity: 0;
	  }
	  35% {
	  	opacity: 0;
	  }
	  65% {
	  	opacity: 1;
	  }
	  85% {
	  	opacity: 1;
	  }
	  100% {
	    opacity: 0;
	  }
	}
</style>
<g id="background">
	<g id="_xFFFD__x83__x8C__xFFFD__x99__xA0_影像_1_">
	</g>
	<g id="Background_Color_xA0_影像_1_">
		<g>
			<path class="st0" d="M631.9,221.5c-0.6,5.7-0.2,10.9,0.5,16.1c1.1,8.2,2.1,16.4,3,24.6c0.3,3.2-0.2,6.3-0.4,9.5
				c-0.5,6.8,0.5,13.6,1.2,20.4c0.6,5.8,1.7,11.5,1.5,17.3c-0.2,5.4-1,10.8-1.7,16.2c-0.5,3.8-0.3,7.8,1.4,11.4
				c0.6,1.4,1.4,2.8,1.4,4.4c0.1,1.7-0.5,3-2.3,3.6c-0.2,0.1-0.4,0-0.5,0.1c-5,5.9-8.9-0.1-13-1.4c-2.8-0.9-2.5-4.6-2.8-7.2
				c-0.7-5.6-0.8-11.2-1.9-16.7c-0.7-3.4,0.1-6.9,0.7-10.3c0.7-3.6,0.7-7.2,0-10.8c-0.7-3.3-0.8-6.5-0.1-9.7
				c1.2-5.6-0.3-11-1.7-16.3c-0.4-1.6-0.6-3.2-0.6-4.9c0.4-16.3-1.2-32.4-3-48.6c-0.1-1.1-0.2-2.2-0.2-3.3c0-5.7-2.5-10-7.5-12.7
				c-15.1-8.1-28.5-18.4-41.9-28.9c-7.4-5.8-15.8-9.9-23.8-14.7c-18.8-11.2-37.7-22.2-54.7-36.1c-4.7-3.9-9.6-7.5-14.6-10.9
				c-4.4-3-9.3-5.3-14-7.9c-12.8-7.1-24.6-15.9-37.3-23.1c-13.4-7.6-27.1-14.8-40.7-22.1c-0.8-0.4-1.6-1-2.2,0.3
				c-1.1,2.5-3.4,3.5-5.8,4.1c-9.3,2.5-17.6,7.1-26.2,11.2c-15.5,7.3-28.8,18-43.6,26.3c-25.9,14.5-50.6,30.7-75.5,46.8
				c-21.4,13.8-42.9,27.7-62.5,44.1c-2.9,2.4-5.9,4.5-9,6.7c-1.6,1.2-3.3,2-5.2,0.4c-0.4-0.3-0.8-0.5-1.2-0.1
				c-2.6,2.2-6,3.7-6.1,8.1c-0.1,7.1-1,14.1-1,21.2c0,8.8-1.5,17.5-2.1,26.3c-0.4,5.4,0.1,10.9-0.7,16.3c-0.8,5.5-1.3,11-2,16.5
				c-0.1,0.8-0.3,1.6-0.2,2.4c1.3,14.1-1.6,28.1-0.7,42.2c0.4,6.2-1.9,8.1-8.2,7.9c-0.1,0-0.2,0-0.3,0c-7.2-0.2-8-1.2-7.1-8.3
				c0.3-1.9,0.2-3.8,0.2-5.7c0.2-18.9,0.3-37.8,0.6-56.7c0.2-11.4,1-22.8,2.6-34.2c0.2-1.6,0.1-3.1-0.9-4.6c-1.2-1.8-1-4.2-1.1-6.4
				c-0.1-1.8,0-3.6,0-5.8c-4.8,2.3-8.5,5.4-12.3,8.4c-5.2,4-7.9,4-12.5-0.9c-1.9-2-3.9-4.1-5.5-6.4c-2-2.7-1.5-4.7,1.3-6.7
				c9.2-6.4,18.8-12.1,27.3-19.4c6.3-5.5,12.7-10.8,19.3-15.9c11.4-8.9,23.7-16.4,36.3-23.5c28.3-16,55.8-33.3,83.2-50.9
				c11-7.1,22-14.2,32.5-21.9c11.2-8.2,23.8-14,36.3-19.7c14.1-6.4,28.1-13.2,41.9-20.3c0.2-0.1,0.5-0.2,0.7-0.4
				c3.7-4.5,7.7-2.4,11.4-0.3c12.1,6.8,25.2,11.7,37.6,18c11,5.5,21.9,11,31.8,18.3c3.6,2.6,7,5.4,10.4,8.3c4.8,4,9.9,7.8,15.6,10.5
				c10.6,4.9,19.8,12.1,30,17.7c13,7.2,25.9,14.8,39.3,21.2c11.8,5.7,22,13.7,32.5,21.4c14.1,10.4,28.3,20.7,42.7,30.6
				c8.1,5.6,16.1,11.2,24.1,16.8c1.3,0.9,2.7,1.9,3,3.7c0.2,1.1,1.2,1.3,1.9,1.8c2.1,1.4,4.5,2.4,6.3,4.2c1.4,1.5,1.9,3.1,0.8,4.9
				c-1.9,3.4-2.2,8.4-4.9,11.3c-2.7,2.9-6.9,1.5-10.3-0.4C638.5,226.6,635.2,224.4,631.9,221.5z"/>
			<path class="st1" d="M647.6,221.5c0-2.2-1.3-4.2,0.8-6c0.8-0.6,1.1-0.6,1.8-0.2c0.6,0.4,1.2,0.8,0.7,1.7
				C650.1,218.6,649.1,220,647.6,221.5z"/>
			<path class="st2" d="M485.7,108.8c-1.8-1.1-3.2-1.9-4.7-2.9c-0.3-0.2-0.4-0.5-0.6-0.8c0.3-0.2,0.6-0.5,0.9-0.6
				C482.9,104.3,485.6,106.8,485.7,108.8z"/>
		</g>
	</g>
	<g id="Background_xA0_影像_1_">
		<g>
			<path class="st3" d="M119.3,223.7c-4,2.6-7.5,5-11.1,7.3c-7.3,4.7-8.5,4.5-13.9-2.2c-2.2-2.8-4.5-5.5-6.8-8.2
				c-2.5-3-2.5-5,0.1-7.9c4.4-4.9,9.7-8.8,15-12.6c17.5-12.6,34.3-26.4,52.2-38.5c35.7-23.9,72.5-46.1,109.6-67.7
				c29.6-17.2,59.2-34.4,89.3-50.7c4.2-2.3,8.5-4.5,13.2-5.9c5.4-1.6,10.7-1.7,16.2,0.7c14.3,6.1,27.7,14.1,41.2,21.7
				c33.3,18.6,66.2,37.9,99,57.5c30,17.9,59.6,36.2,87.8,56.9c15.7,11.5,31.3,23.1,46.4,35.3c1.7,1.4,3.1,3,4.6,4.6
				c1.8,2.1,1.9,4.3,0.2,6.4c-3.4,4.2-6.9,8.4-10.4,12.6c-1.7,2-3.9,2.2-6.2,1.2c-2.7-1.2-5-2.9-7.5-4.5c-0.8-0.5-1.5-1.3-2.7-1.5
				c-0.6,2.9,0.2,5.8,0.5,8.6c3.2,35.4,3.5,71,4.8,106.5c0.2,5.5-0.9,6.8-6.4,6.5c-16.5-0.9-33-1.2-49.5-1.3
				c-31.4-0.3-62.7-0.5-94.1-0.8c-97.5-0.9-195-1.9-292.5-2.9c-25.4-0.3-50.9-0.5-76.3-0.8c-1.1,0-2.2,0-3.3-0.1
				c-3.7-0.5-4.8-1.7-4.7-5.3c0.8-30.2,1.7-60.3,3.4-90.4c0.4-7.3,1.3-14.7,1.9-22C119.3,225.5,119.3,224.9,119.3,223.7z
				 M654.5,220.7c0.4-0.4,0.8-0.8,1.2-1.1c2.1-1.6,2.1-3.1,0-4.7c-1.7-1.3-3.2-3-5-4.3c-17.9-13.1-35.1-27.2-53.4-39.7
				C546.6,136.1,493.4,105.5,440,75c-16.2-9.3-32.1-19.3-48.8-27.7c-16.1-8.1-17.5-9-33.9,0c-31.5,17.4-62.5,35.5-93.5,53.5
				c-27.6,16.1-54.8,32.5-81.8,49.6c-25.4,16-49.4,33.9-73.3,52.1c-5.3,4-10.7,7.8-15.6,12.4c-1.4,1.3-1.4,2.2-0.1,3.5
				c1.9,2.1,3.6,4.3,5.4,6.5c3,3.7,3,3.7,7,1.1c23.1-15.2,46.2-30.3,68.7-46.3c49.2-35,100.5-66.7,152.8-96.8
				c12.5-7.2,24.9-14.6,37.6-21.4c6.9-3.7,12.4-3.5,19.2,0c14.9,7.7,29.4,16.4,43.8,24.9c34.4,20.3,68.9,40.5,102.2,62.7
				c34.8,23.3,68.6,48,103.9,70.6c4.2,2.7,8.3,5.5,12.5,8.2c0.9,0.6,1.8,1.3,2.8,0c1.5-2.1,3.6-3.9,4.7-6.3
				C653.9,221.4,654.2,221.1,654.5,220.7z M555.5,343.3c19.8,0,39.6-0.1,59.4,0.1c2.7,0,3.1-0.8,2.9-3.2c-0.8-9.1-1.4-18.3-2.1-27.4
				c-1.2-15.9-2.1-31.7-3.6-47.6c-1.7-17.6-1.4-35.4-3.4-53c-0.2-1.4-0.6-2.3-1.7-3.1c-23.2-16-46.3-32.2-69.6-48
				c-27.5-18.7-55.7-36.2-84.4-53.1c-25.4-14.9-50.4-30.4-76.7-43.6c-1.7-0.9-2.9-0.7-4.5,0c-11.6,5.2-22.2,11.9-33.2,18.2
				c-33,19-65.8,38.3-97.8,58.8c-31.7,20.3-62.3,42.2-93.3,63.4c-1.3,0.9-1.9,1.8-2.1,3.5c-0.9,6.8-0.6,13.6-0.8,20.4
				c-0.5,12.5-1.7,25-2.5,37.5c-1.5,22.9-3.4,45.8-5.2,68.7c-0.3,3.4-0.2,3.4,3.1,3.5c52.9,0.5,105.8,1,158.7,1.6
				c67.4,0.7,134.8,1.5,202.3,2.1C519.2,342.5,537.3,342.3,555.5,343.3z M614.1,213.7c0.9,8.9,1.9,17,1.9,25.1
				c0,3.6,0.3,7.3,0.5,10.9c1.5,20.1,3.1,40.2,4.7,60.3c0.8,10.4,1.5,20.8,2.2,31.2c0.1,1.6,0.7,2.2,2.4,2.2c2.3-0.1,4.6-0.1,6.8,0
				c2.2,0.2,2.8-0.6,2.7-2.8c-0.4-8.7-0.6-17.4-0.9-26.1c-0.9-29.8-2.1-59.7-4-89.5c0-0.7-0.4-1-0.8-1.3
				C624.6,220.5,619.6,217.3,614.1,213.7z M140.1,210.1c-5.2,3.3-9.8,6.3-14.5,9.2c-1,0.6-0.8,1.6-0.9,2.4
				c-1.3,13-2.1,26.1-2.6,39.1c-0.5,13.2-1,26.5-1.5,39.8c-0.4,11.7-0.7,23.4-1.2,35.1c-0.1,1.7,0.4,2.5,2.2,2.4
				c2.3-0.1,4.5-0.1,6.8,0c2,0.1,2.7-0.8,2.8-2.7c0.7-10.1,1.4-20.1,2.2-30.2c1.2-16.1,2.3-32.2,3.7-48.3
				C138.5,241.6,138.9,226.2,140.1,210.1z"/>
			<path class="st3" d="M201.8,432.8c0,3.6-0.6,7.1-2.3,10.2c-0.8,1.5-1.9,2.6-3.7,1.8c-1.8-0.9-1.5-2.5-0.8-4c1.4-3.1,2-6.4,2-9.8
				c0-1.8,0.1-3.7,2.5-3.7s2.4,2,2.4,3.8C201.8,431.7,201.8,432.3,201.8,432.8z"/>
			<path class="st3" d="M180.1,436.2c0-1,0-2,0-3c0.1-1.8-0.1-4,2.4-4.1c2.7-0.1,2.6,2.2,2.7,4.1c0.1,1.6,0.1,3.3,0.1,4.9
				c0,1.4,0,2.7,0.5,4c0.5,1.4,0.4,2.7-1.1,3.4c-1.5,0.7-2.6-0.2-3.5-1.4c-0.9-1.1-0.9-2.5-1-3.9s0-2.7,0-4.1
				C180.2,436.2,180.2,436.2,180.1,436.2z"/>
			<path class="st3" d="M104.7,370.1c-0.1,0.8-0.2,1.7-0.4,2.4c-0.3,1.4-1.1,2.4-2.6,2.3c-1.6-0.1-2.2-1.2-2.2-2.6
				c-0.1-3.7-0.5-7.4-1.7-11c-0.4-1.3,0.1-2.6,1.6-3c1.4-0.4,2.5,0.3,3.1,1.6C104,363.1,104.1,366.7,104.7,370.1z"/>
			<path class="st3" d="M339.9,385.9c2.2-0.2,2.8,0.9,2.4,3c-0.4,2.2-0.7,4.5-1,6.7c-0.4,2.2-1,4.2-2.7,5.8c-0.9,0.8-1.9,1.1-3,0.4
				s-1.5-1.8-0.9-2.8c1.9-3.5,1.7-7.4,2.6-11C337.7,386.6,338.1,385.3,339.9,385.9z"/>
			<path class="st3" d="M870.6,472.6c-1.7,3.4-2.5,7.9-5.7,11.1c-1.1,1.1-2.5,1.6-3.9,0.4c-1.3-1.2-0.9-2.5,0.1-3.6
				c2.4-2.8,3.1-6.3,4.8-9.4c0.7-1.2,1.7-1.9,3.1-1.5C870.4,469.9,870.7,470.9,870.6,472.6z"/>
			<path class="st3" d="M77.3,374.3c0,1.4-0.6,2.4-1.9,2.7c-1.5,0.4-2.7-0.3-2.9-1.7c-0.8-4-1.5-8-2-12c-0.2-1.2,0.7-2.2,2.1-2.4
				c1.8-0.2,2.7,1,3,2.5c0.5,2.7,0.8,5.4,1.2,8.1C77,372.4,77.1,373.4,77.3,374.3z"/>
			<path class="st3" d="M530.4,371.8c-1.5,3.6-2.3,8-5.4,11.3c-0.9,0.9-2.1,1.2-3.2,0.4c-1.2-0.8-1.4-2-0.7-3.1
				c1.9-3.1,2.9-6.6,4.5-9.8c0.6-1.3,1.6-2,3-1.6C529.9,369.2,530.3,370.1,530.4,371.8z"/>
			<path class="st3" d="M91.5,365.4c0,1.7,0.1,3.4,0,5.2c-0.1,1.5-0.9,2.4-2.4,2.5s-2.4-0.8-2.5-2.3c-0.5-3.7-0.3-7.4,0-11.1
				c0.1-1.3,0.9-2.2,2.3-2.2c1.6-0.1,2.4,0.9,2.5,2.3c0.1,1.9,0,3.8,0,5.7C91.5,365.4,91.5,365.4,91.5,365.4z"/>
			<path class="st3" d="M318.6,397.2c0.3-3.3,0.6-6.3,0.9-9.3c0.1-1.5,0.9-2.4,2.4-2.4s2.4,1.1,2.4,2.5c-0.1,3.7-0.4,7.4-0.8,11.1
				c-0.1,1.2-0.9,2-2.2,2c-1.4,0-2.1-0.8-2.4-2.1C318.7,398.3,318.7,397.6,318.6,397.2z"/>
			<path class="st3" d="M820.5,564.9c-0.8,3.1-1.6,6.1-2.5,9.2c-0.4,1.2-1.4,2.2-2.6,2.6c-0.9,0.3-1.8,0.3-2.5-0.5
				c-0.6-0.7-1-1.5-0.6-2.2c1.8-3,2.1-6.6,3.2-9.8c0.5-1.4,1.5-2.3,3.1-2C820.1,562.4,820.4,563.5,820.5,564.9z"/>
			<path class="st3" d="M641.2,517.4c-1.4,3.2-1,7.3-3.6,10.4c-1,1.2-2.3,2.3-3.9,1.1c-1.5-1.1-1.2-2.5-0.2-3.8
				c1.5-2.1,1.4-4.6,2.2-6.9c0.4-1.1,0.6-2.3,1.6-3.1c0.8-0.6,1.7-0.6,2.6-0.3C640.9,515.3,641.1,516.1,641.2,517.4z"/>
			<path class="st3" d="M428.1,585.5c0.1-2.7,0.4-5.4,1.1-8c0.4-1.6,1.3-2.9,3.2-2.5c1.8,0.4,1.9,2,1.7,3.5c-0.3,2.8-0.7,5.6-1,8.3
				c-0.2,1.8-0.5,3.7-2.8,3.6c-2.2-0.1-2.2-2-2.1-3.7C428.1,586.2,428.1,585.9,428.1,585.5z"/>
			<path class="st3" d="M341.4,492.2c-0.3,2.7-0.3,5.6-1.3,8.2c-0.6,1.6-1.6,3.1-3.6,2.3c-1.9-0.7-1.7-2.3-1.1-3.9
				c0.8-2.3,0.8-4.6,1.1-7c0.3-2,0.1-4.5,3-4.3C342.1,487.8,341.4,490.3,341.4,492.2z"/>
			<path class="st3" d="M171.2,443.7c0.2,0.9,0,1.7-0.9,2.2c-1,0.5-1.9,0.3-2.8-0.4c-1-0.8-1.6-2-2-3.2c-0.9-2.7-1.4-5.4-1.4-8.3
				c0-1.2,0.6-2.1,1.9-2.3c1.2-0.2,2.3,0.3,2.6,1.4C169.5,436.8,170.3,440.3,171.2,443.7z"/>
			<path class="st3" d="M594.4,520.2c0.1-1.4,0-2.7,0.2-4.1c0.2-1.3,1.1-2.1,2.5-2s2.2,0.9,2.3,2.2c0.2,3.3-0.2,6.7,1,9.9
				c0.4,1-0.4,2-1.4,2.3c-1.1,0.4-2.1,0-2.9-0.9C594.2,525.5,594.5,522.9,594.4,520.2z"/>
			<path class="st3" d="M500.2,379.5c0,0.8,0,1.5,0,2.1c-0.1,1.4-0.7,2.3-2.1,2.4s-2.4-0.6-2.6-1.9c-0.7-3.2-0.6-6.4-1.7-9.6
				c-0.4-1.1,0.5-2.3,1.9-2.6c1.6-0.4,2.7,0.4,3.3,1.8C500,374.2,499.7,377,500.2,379.5z"/>
			<path class="st3" d="M446.7,461c-0.1,1.7-0.3,3.4,0.4,5.1c0.5,1.2,0.3,2.4-0.9,3.1c-1.3,0.7-2.5,0.2-3.4-0.8
				c-1-1.1-1.4-2.5-1.4-4c0-2.1,0.2-4.2,0.4-6.2c0.2-1.5,1-2.6,2.6-2.6c1.8,0.1,2.4,1.4,2.3,3C446.6,459.3,446.7,460.1,446.7,461z"
				/>
			<path class="st3" d="M776.7,570.4c-0.1-2.2,0.2-3.6,2.1-3.9c1.8-0.2,2.5,1,2.8,2.6c0.4,2.5,0.6,4.9,2.5,7c1.3,1.5,0,3.5-2.1,3.5
				c-2-0.1-3.2-1.2-3.8-3C777.2,574.5,776.9,572.1,776.7,570.4z"/>
			<path class="st3" d="M514.2,372.8c-0.4,2.1-0.9,4.9-1.6,7.6c-0.4,1.7-1.6,2.8-3.4,2.2c-1.9-0.6-1.6-2.2-1.4-3.6
				c0.5-2.5,1.1-5,1.5-7.5c0.3-1.6,0.9-2.9,2.7-2.7C513.9,368.9,514.3,370.5,514.2,372.8z"/>
			<path class="st3" d="M309.6,398.6c0,1.6-0.4,2.5-1.4,2.9c-1.2,0.5-2.3,0.1-2.8-1c-1.8-3.4-2.5-7.1-2.7-10.9c0-1.1,0.9-1.8,2-1.9
				c1.2-0.1,2.2,0.5,2.5,1.7C308,392.6,308.8,395.8,309.6,398.6z"/>
			<path class="st3" d="M174.5,562.6c-0.2,2.2-0.2,4.8-1.7,7.2c-0.9,1.5-2.1,2.8-4,1.8c-1.7-0.9-1.4-2.5-0.5-4
				c1-1.8,1.1-3.8,1.2-5.8c0.2-1.8,0.3-3.7,2.6-3.6C174.7,558.3,174.5,560.4,174.5,562.6z"/>
			<path class="st3" d="M478,459.2c-0.4,2.7-0.6,5.7-1.9,8.3c-0.7,1.4-1.8,2.7-3.6,2c-1.9-0.8-1.5-2.4-1-3.9
				c0.9-2.3,1.2-4.7,1.6-7.1c0.3-1.5,1-2.9,2.8-2.6C477.7,456.1,478,457.6,478,459.2z"/>
			<path class="st3" d="M325.7,498c0,1.5,0.1,3.1,0,4.6c-0.1,1.3-0.8,2.2-2.2,2.3c-1.4,0.1-2.4-0.7-2.5-2c-0.2-3.5-0.3-7-0.2-10.6
				c0-1.1,1-1.7,2.1-1.7c1.4,0,2.2,0.9,2.5,2.1C325.6,494.5,325.6,496.3,325.7,498L325.7,498z"/>
			<path class="st3" d="M843.6,479.5c0.6-2.7,1.2-5.5,1.9-8.2c0.4-1.4,1.5-2.1,2.9-1.8c1.5,0.3,2.1,1.5,1.8,2.9
				c-0.5,2.7-1,5.3-1.6,8c-0.3,1.5-1.2,2.6-2.8,2.4C843.9,482.6,843.6,481.2,843.6,479.5z"/>
			<path class="st3" d="M616.7,389.6c0.1,1,0.2,2.5,0.3,3.9c0.1,1.3-0.3,2.4-1.7,2.7c-1.4,0.3-2.7-0.1-3.2-1.4
				c-1.1-3.5-0.5-7,0.2-10.5c0.2-1,1.4-1.4,2.5-1.2c1.1,0.2,1.8,0.9,1.9,2C616.8,386.4,616.7,387.8,616.7,389.6z"/>
			<path class="st3" d="M421,590.4c0,1.5-0.5,2.3-1.5,2.7c-1,0.3-2.1,0.2-2.7-0.8c-1.9-3-2.8-6.4-3.5-9.8c-0.2-1,0.5-1.9,1.6-2.2
				s2.1,0,2.6,0.9C419.3,584.1,419.8,587.6,421,590.4z"/>
			<path class="st3" d="M158.7,567c-0.1,1.8,0.2,3.6-0.6,5.4c-0.6,1.4-1.5,2.6-3.3,2.1c-1.6-0.5-1.9-1.9-1.5-3.3
				c0.6-2.2,0.2-4.5,0.5-6.8c0.3-1.7,0.6-3.5,2.8-3.2c2.2,0.2,2.2,2,2.2,3.7C158.9,565.6,158.8,566.3,158.7,567z"/>
			<path class="st3" d="M616.9,519.8c0.2,1.7,0.4,3.4,0.5,5.1c0.1,1.3-0.1,2.4-1.5,2.8c-1.3,0.3-2.4-0.2-2.9-1.4
				c-1.6-3.4-1.3-7-0.4-10.6c0.3-1,1.3-1.5,2.4-1.3c1.1,0.1,1.9,0.8,2,1.9C617.1,517.5,617,518.6,616.9,519.8
				C617,519.8,616.9,519.8,616.9,519.8z"/>
			<path class="st3" d="M140.6,565.7c0.1-1,0-2,0.2-3c0.3-1.3,1.1-2.1,2.5-2c1.3,0.1,2.2,0.9,2.2,2.3c0,2.7,0,5.3,1.6,7.8
				c0.5,0.8,0.2,2-0.9,2.6c-1,0.6-2.1,0.4-3-0.3C140.8,571.2,140.5,568.5,140.6,565.7z"/>
			<path class="st3" d="M460.9,462.8c0,1.9,0.1,3.8-1.2,5.4c-1,1.2-2.2,1.7-3.6,1c-1.3-0.7-1.4-2-0.8-3.3c1-2.1,0.5-4.3,0.5-6.4
				c0-1.6,0.2-3,2.1-3.2c1.8-0.2,2.6,1.2,2.8,2.7C460.9,460.3,460.9,461.5,460.9,462.8z"/>
			<path class="st3" d="M633.7,386.8c-0.3,1.7-0.5,4-1.1,6.3c-0.5,1.7-1.8,2.9-3.7,2.3c-1.9-0.7-1.6-2.2-1.2-3.9
				c0.5-2,0.7-4.1,1.1-6.1c0.3-1.5,1.1-2.6,2.7-2.4C633.4,383.2,633.8,384.5,633.7,386.8z"/>
			<path class="st3" d="M809.5,391.9c-0.3,2.3-0.9,5-2.5,7.3c-0.9,1.3-2.2,2.1-3.7,1.2c-1.4-0.9-1.3-2.3-0.6-3.6
				c1-1.9,1.5-3.9,2-5.9c0.4-1.5,1.2-2.8,3-2.5C809.3,388.7,809.6,390,809.5,391.9z"/>
			<path class="st3" d="M788.4,395.1c-0.1-1.1-0.1-2.6-0.7-4.1c-0.6-1.5-0.6-3,1.1-3.7c1.8-0.7,3,0.4,3.6,1.9c0.9,2,1.2,4.2,1,6.4
				c-0.2,1.9-0.5,4.1-3,4C787.8,399.5,788.2,397.3,788.4,395.1z"/>
			<path class="st3" d="M775.2,388.5c1.5,0.1,2.2,1.1,2.5,2.4c0.4,2.1,1,4.2,2.4,6c0.7,0.9,0.7,2.1-0.2,3c-1,1-2.1,0.9-3.2,0.2
				c-2.3-1.3-4.6-7.4-3.7-10C773.3,389.1,774.1,388.6,775.2,388.5z"/>
			<path class="st3" d="M831.9,480.5c0,1.3-0.2,2.1-1.2,2.6s-1.9,0.3-2.8-0.4c-1.8-1.3-3.2-7.9-2.1-9.9c0.5-1,1.4-1.4,2.4-1.4
				c1.1,0.1,1.8,0.7,2.2,1.7c0.1,0.2,0.1,0.3,0.1,0.5C830.7,476.1,831,478.5,831.9,480.5z"/>
			<path class="st3" d="M653.9,385.9c-0.5,2.2-0.5,4.8-1.9,7c-0.8,1.3-2,2.3-3.6,1.6c-1.7-0.8-1.6-2.3-0.9-3.7
				c0.9-1.9,0.9-4.1,1.6-6c0.5-1.3,1.4-2.1,2.9-1.8C653.4,383.3,654,384.3,653.9,385.9z"/>
			<path class="st3" d="M307,494.8c-0.1-2.4,0.1-4,2.2-4.1c2-0.1,2.6,1.3,2.7,3c0.2,1.7,0.6,3.4,1.4,4.9c0.6,1.3,0.8,2.7-0.7,3.6
				c-1.6,1-2.8,0-3.7-1.2C307.5,499,307.2,496.5,307,494.8z"/>
			<path class="st3" d="M799.5,569.5c0,1.6,0.4,3.3-0.6,4.8c-0.8,1.2-1.8,1.9-3.2,1.4c-1.5-0.5-1.8-1.7-1.4-3.1
				c0.5-1.8,0.4-3.6,0.3-5.4c-0.1-1.6,0.1-3.3,2.2-3.4c2-0.1,2.6,1.4,2.8,3C799.6,567.7,799.5,568.6,799.5,569.5z"/>
			<path class="st3" d="M445.5,579.9c0-1.8,0.3-3.6,0.9-5.3c0.5-1.5,1.5-2.6,3.3-2.1c1.6,0.5,1.8,1.8,1.5,3.3
				c-0.3,1.7-0.5,3.4-0.8,5.1c-0.2,1.8-0.6,3.7-2.9,3.5c-2.3-0.1-2.2-2-2.1-3.7C445.5,580.4,445.5,580.2,445.5,579.9z"/>
			<path class="st3" d="M653.7,221.7c-4.8,0-7.7-3.5-11.1-6.2c-0.9-0.7-0.9-2-0.1-3c0.8-1,1.9-1.3,2.9-0.7c2.9,1.8,5.7,3.8,8.5,5.8
				c1,0.7,0.7,2,0.5,3.1C654.2,221.1,653.9,221.4,653.7,221.7z"/>
			<path class="st3" d="M430.1,78.5c-0.7,3.7-2,4.3-5.4,2.5c-1.8-0.9-3.5-2-5.2-2.9c-1.4-0.8-2.8-1.8-2-3.6c0.8-2,2.5-1.7,4.1-1
				c0.3,0.1,0.7,0.2,1.2,0.4c-0.2-1.5-0.9-3.1,0.6-4c1.6-0.9,2.9-0.1,4.3,0.8c2.8,1.8,5.7,3.6,8.5,5.3c1.4,0.8,2.4,1.9,1.7,3.5
				c-0.7,1.7-2.3,1.6-3.7,1C432.8,79.9,431.5,79.2,430.1,78.5z"/>
			<path class="st3" d="M297.5,91.1c1.8,0.2,3.3,0.1,3.7,1.9c0.4,1.8-0.8,2.7-2.1,3.5c-2.2,1.3-4.3,2.6-6.6,3.8
				c-1.4,0.7-2.9,0.9-3.8-0.7s0.1-2.8,1.4-3.6c1.4-0.9,2.7-1.7,4.5-2.8c-1.9-0.2-3.5-0.4-3.8-2.2c-0.3-1.9,1.3-2.6,2.6-3.4
				c1.9-1.1,3.7-2.3,5.6-3.4c1.4-0.8,2.9-0.8,3.8,0.7c0.8,1.5,0,2.6-1.2,3.5C300.5,89.2,299.3,90,297.5,91.1z"/>
			<path class="st3" d="M277.8,102.3c-3.1-1.9-3.2-3.5-0.5-5.6c1.6-1.2,3.2-2.3,4.9-3.4c1.3-0.8,2.7-0.9,3.6,0.5s0.3,2.6-0.8,3.6
				c-1,0.8-2,1.5-3.1,2.4c1.2,0.7,2.8,0.9,2.8,2.7c0,1.8-1.3,2.5-2.5,3.2c-2.1,1.2-4.2,2.6-6.3,3.7c-1.6,0.8-3.5,1.3-4.5-0.8
				c-0.9-1.8,0.5-2.8,1.9-3.6C274.8,104.1,276.2,103.2,277.8,102.3z"/>
			<path class="st3" d="M313.4,82.5c2.1,0.2,3.5,0.3,3.9,2c0.3,1.6-0.8,2.5-2,3.3c-1.8,1.1-3.7,2.3-5.6,3.3c-1.5,0.7-3.1,0.8-4-1
				c-0.8-1.7,0.4-2.7,1.7-3.5c1-0.6,2-1.2,3.3-2c-1.4-0.7-2.9-0.8-3.1-2.4c-0.2-1.8,1.1-2.6,2.3-3.4c1.8-1.3,3.6-2.5,5.4-3.7
				c1.4-0.9,3-1.2,4,0.6c0.9,1.5,0.1,2.8-1.3,3.7C316.7,80.2,315.4,81.2,313.4,82.5z"/>
			<path class="st3" d="M349.7,61c2.8,2,2.9,3.7,0.4,5.4c-1.6,1.1-3.2,2.1-5,2.6c-1.2,0.3-2.4,0.2-3-1.1c-0.6-1.2-0.3-2.4,0.9-3.1
				c1.2-0.7,1.2-1.1,0.1-2.1c-1.2-1.1-1-2.5,0.2-3.5c2.1-1.8,4.6-3.3,7.1-4.5c1.3-0.6,2.6-0.4,3.3,0.9c0.7,1.3,0.3,2.5-0.8,3.4
				C351.9,59.6,350.9,60.2,349.7,61z"/>
			<path class="st3" d="M134.2,202.3c-1.3,0-2.2-0.4-2.6-1.5c-0.4-1.2,0-2.2,1-2.8c3.8-2.3,7.6-4.6,11.5-6.9
				c1.3-0.7,2.5-0.5,3.4,0.7c0.7,1.1,0.6,2.4-0.5,3.2c-3.6,2.5-7.1,5.1-11.1,6.9C135.3,202.2,134.6,202.2,134.2,202.3z"/>
			<path class="st3" d="M360.6,53.7c-1.9,0.2-2.7-0.4-3.2-1.4c-0.4-1-0.2-2.1,0.7-2.7c3.8-2.6,7.9-4.8,12.2-6.6c1-0.4,2,0,2.6,0.9
				s0.7,2.1-0.1,2.7C368.9,49.7,364.4,51.9,360.6,53.7z"/>
			<path class="st3" d="M623,198.3c-1.6-0.1-2.6-0.6-3.6-1.3c-2.6-1.7-5.1-3.5-7.6-5.3c-1.2-0.9-1.9-2.1-1-3.5
				c1-1.6,2.4-1.5,3.8-0.6c3.3,2.1,6.3,4.6,9.8,6.4c1.1,0.6,1.4,1.7,0.9,2.8C624.9,197.9,623.9,198.4,623,198.3z"/>
			<path class="st3" d="M454.7,92.5c-1.3-0.1-2.4-0.6-3.6-1.2c-2.7-1.4-5.2-3.2-7.6-5.2c-1.1-0.9-1.8-2.2-0.8-3.6s2.4-1.3,3.6-0.5
				c3.1,2.1,6.2,4.3,9.7,5.9c1.2,0.5,1.8,1.6,1.3,2.9C456.9,92,456,92.6,454.7,92.5z"/>
			<path class="st3" d="M330.3,72.4c1.2-0.5,2.3-1,3.5-1.4c1.1-0.4,2.2-0.1,2.9,0.9c0.7,1.1,0.6,2.4-0.5,3.2
				c-3.5,2.2-7,4.4-10.7,6.4c-1.2,0.6-2.5,0.5-3.3-0.9s-0.1-2.4,1-3.3C325.4,75.4,328.3,74.4,330.3,72.4L330.3,72.4z"/>
			<path class="st3" d="M582.4,179.9c-1,0-2-0.3-2.8-0.9c-2.7-2.1-5.5-4.1-8.2-6.3c-1.2-0.9-1.7-2.3-0.8-3.6c1-1.4,2.5-1.2,3.8-0.3
				c3.1,2.2,6.1,4.5,9.2,6.7c1,0.7,1.3,1.7,1,2.9C584.3,179.5,583.4,179.8,582.4,179.9z"/>
			<path class="st3" d="M639.5,210.7c-0.6-0.3-1.5-0.5-2.4-1.1c-2.7-1.9-5.3-3.8-7.9-5.7c-1.3-1-2-2.3-0.8-3.8
				c1.1-1.4,2.6-1,3.9-0.1c3,2.1,6,4.1,9,6.2c1.2,0.8,1.7,1.9,1.1,3.3C642,210.5,641,210.9,639.5,210.7z"/>
			<path class="st3" d="M190.5,157.6c1.4,0.1,2.3,0.4,2.7,1.5s0.2,2.1-0.7,2.7c-3.3,2.2-6.8,4.2-10,6.5c-1,0.7-2.1,0.4-2.9-0.6
				c-1-1.2-0.6-2.4,0.3-3.5c2.3-2.6,5.5-4.1,8.5-5.8C189.1,158.1,189.9,157.9,190.5,157.6z"/>
			<path class="st3" d="M617.6,203.4c-1.1,0-2.1-0.4-3-1c-2.5-1.6-5-3.2-7.5-4.9c-1.3-0.9-2.2-2-1.3-3.6s2.5-1.4,3.8-0.7
				c3.2,1.9,6.3,3.8,9.4,5.8c1,0.6,1.3,1.7,0.9,2.9C619.6,203,618.7,203.4,617.6,203.4z"/>
			<path class="st3" d="M390.5,63c-1.4-0.3-2.7-1.1-3.9-1.9c-2.2-1.4-4.4-2.9-6.5-4.4c-1.3-0.9-1.7-2.2-0.8-3.6
				c0.8-1.3,2.1-1.3,3.4-0.6c3.2,1.9,6.3,3.9,9.4,5.9c1.1,0.7,1.5,1.8,1.1,3.1C392.7,62.7,391.7,63.1,390.5,63z"/>
			<path class="st3" d="M146.6,185.5c-2-0.2-2.7-1.3-2.3-3c0.3-1.5,1.3-2.6,2.4-3.5c2.1-1.7,4.3-3.3,6.5-4.8
				c1.3-0.9,2.7-1.3,3.9,0.2c1.1,1.4,0.5,2.7-0.8,3.8c-2.8,2.3-5.9,4.1-8.4,6.8C147.6,185.3,147,185.3,146.6,185.5z"/>
			<path class="st3" d="M358.9,61.2c-1.4-0.2-2.3-0.4-2.7-1.4c-0.4-1.1-0.2-2.2,0.8-2.9c3.4-2.2,7.1-4,10.8-5.7c1-0.4,2-0.1,2.7,0.8
				c0.7,0.9,0.8,2.1,0.1,2.8C366.9,57.8,362.7,59.5,358.9,61.2z"/>
			<path class="st3" d="M588,171.4c0.1,2.1-1.5,3.3-3.4,2.5c-3.7-1.7-6.5-4.5-9.4-7.2c-0.8-0.8-0.7-2.1,0-3c0.8-1,2-1.2,2.9-0.5
				c3.2,2.3,6.2,4.7,9.2,7.1C587.8,170.5,587.9,171.1,588,171.4z"/>
			<path class="st3" d="M213.1,147.6c-1.2,0.1-2-0.4-2.4-1.3c-0.5-1-0.3-2,0.6-2.7c3.1-2.4,6.4-4.4,10-5.9c1.2-0.5,2.4-0.2,3.1,1
				c0.6,1,0.5,2.1-0.4,2.7c-3.3,2.3-6.6,4.3-10.2,6.1C213.5,147.6,213.2,147.6,213.1,147.6z"/>
			<path class="st3" d="M595.1,174.9c0.2,0.1,0.7,0.1,1.1,0.3c3.1,2.3,6.1,4.5,9.1,6.9c1,0.8,1,2,0.3,3s-1.8,1.4-2.9,0.9
				c-3.8-1.7-6.8-4.4-9.7-7.3C591.7,177.3,593,175,595.1,174.9z"/>
			<path class="st3" d="M550.7,150.8c-0.9,0-1.8-0.4-2.5-1c-2.2-1.8-4.3-3.6-6.4-5.5c-1.1-1-1.7-2.3-0.6-3.6
				c1.1-1.4,2.6-1.1,3.9-0.2c2.5,1.9,4.9,4,7.4,6c0.8,0.7,1.3,1.6,0.8,2.7C552.8,150.4,551.9,150.9,550.7,150.8z"/>
			<path class="st3" d="M206.1,143.2c0,1.1-0.7,1.8-1.5,2.5c-2.3,1.8-4.6,3.5-6.9,5.2c-1.3,1-2.7,1.4-3.9,0
				c-1.1-1.4-0.5-2.8,0.6-3.8c2.3-2.2,4.9-4,7.6-5.7C204.1,140.2,206.1,141.2,206.1,143.2z"/>
			<path class="st3" d="M113.4,207.5c-1,0-1.8-0.4-2.2-1.4c-0.4-1-0.3-2.1,0.6-2.7c2.9-2.2,5.9-4.3,8.9-6.3c0.9-0.6,2-0.3,2.7,0.5
				c0.7,0.7,0.7,1.6,0.4,2.5C123.2,202,115.3,207.6,113.4,207.5z"/>
			<path class="st3" d="M152.5,189.4c-1.4,0-2.2-0.4-2.7-1.2c-0.5-0.9-0.5-1.9,0.3-2.5c3.1-2.5,6.6-4.3,10.4-5.8
				c1-0.4,2,0.2,2.5,1.2c0.4,0.9,0.5,1.9-0.2,2.5C159.5,186.2,155.9,188,152.5,189.4z"/>
			<path class="st3" d="M99.8,218.3c-1.6,0-2.4-0.3-2.9-1.2c-0.6-1-0.5-2,0.3-2.8c2.7-2.4,5.9-4.3,9.1-6c0.9-0.5,2-0.1,2.7,0.8
				c0.6,0.8,0.8,1.8,0.1,2.5C106.4,214.8,102.7,216.4,99.8,218.3z"/>
			<path class="st3" d="M408.5,72.2c-3.6-1-6.8-3-9.5-5.9c-0.7-0.8-0.6-1.9,0.1-2.8c0.8-1,1.9-1.3,2.9-0.7c2.9,1.7,5.6,3.6,8.6,5
				c0.9,0.4,1.2,1.6,0.8,2.6C410.9,71.7,409.9,72,408.5,72.2z"/>
			<path class="st3" d="M137.8,186c1.1,0.2,1.9,0.5,2.4,1.5c0.4,1,0.3,2.1-0.5,2.8c-2.7,2.3-5.7,4.2-8.8,5.7c-0.9,0.5-2,0.2-2.7-0.7
				c-0.7-0.8-0.9-1.8-0.3-2.5C130.5,189.5,134.5,188.3,137.8,186z"/>
			<path class="st3" d="M500.6,120.8c0.6,1.2,1.9,2.5,0.5,3.9c-1.3,1.4-2.9,0.9-4.2,0.1c-2.2-1.2-4.4-2.4-6.6-3.8
				c-1.4-0.8-2.2-2.1-1.3-3.6c0.9-1.5,2.4-1.3,3.8-0.6c1.9,1,3.6,2.4,5.7,3C499.3,120.2,499.9,120.5,500.6,120.8z"/>
			<path class="st3" d="M472.3,101.3c-0.9,0.1-1.8-0.2-2.6-0.7c-2.2-1.4-4.4-2.9-6.6-4.4c-1.2-0.9-1.7-2.2-0.8-3.6
				c1-1.3,2.3-1.3,3.6-0.5c2.5,1.6,5.1,3.2,7.6,4.8c1,0.7,1.4,1.6,1,2.8C474.2,101,473.4,101.3,472.3,101.3z"/>
			<path class="st3" d="M598.9,190.6c-1.3-0.1-2.4-0.6-3.4-1.4c-1.9-1.4-3.7-2.9-5.5-4.5c-1-0.9-1.2-2.3-0.3-3.4
				c1-1.2,2.3-1.1,3.4-0.3c2.4,1.7,4.6,3.8,7.4,5.1c1.1,0.6,1.4,1.7,1,2.8C601.2,190.2,600.2,190.6,598.9,190.6z"/>
			<path class="st3" d="M173.8,164.5c-0.1,1-0.7,1.7-1.4,2.2c-2.2,1.7-4.5,3.4-6.7,5.1c-1.1,0.8-2.3,1.2-3.4,0
				c-1.2-1.2-0.9-2.6,0.1-3.6c2.2-2.4,5-4.3,7.8-5.9C171.9,161.4,173.9,162.6,173.8,164.5z"/>
			<path class="st3" d="M466.3,105.5c-0.6-0.2-1.5-0.4-2.2-0.8c-2.2-1.1-4.3-2.3-6.4-3.6c-1.3-0.8-2-1.9-1.3-3.4
				c0.7-1.4,2-1.7,3.3-1.1c2.9,1.4,5.8,3,8.6,4.6c0.9,0.5,1.3,1.5,0.9,2.6C468.8,105,467.8,105.3,466.3,105.5z"/>
			<path class="st3" d="M632.8,214.7c-3.2-1.2-6.6-3.3-9.1-6.5c-0.6-0.8-0.4-1.9,0.4-2.7c0.9-0.9,2-1,3-0.3c2.6,1.8,5.2,3.7,7.9,5.3
				c1.1,0.6,1.3,1.8,0.8,2.9C635.5,214.5,634.5,214.8,632.8,214.7z"/>
			<path class="st3" d="M395.6,57.9c-3.4-1.1-6.8-2.9-9.6-5.6c-0.8-0.7-0.6-1.9,0-2.8c0.7-0.9,1.7-1.3,2.7-0.8c3,1.6,6,3.3,8.9,5.1
				c0.9,0.5,1.2,1.6,0.8,2.6C397.9,57.5,397,57.8,395.6,57.9z"/>
			<path class="st3" d="M518.8,131.3c-0.8,0-1.6-0.2-2.3-0.7c-2.2-1.6-4.4-3.2-6.5-4.9c-1.2-0.9-1.6-2.2-0.7-3.6
				c0.9-1.2,2.3-1.2,3.4-0.5c2.7,1.8,5.3,3.8,7.9,5.7c0.9,0.7,1,1.7,0.5,2.7C520.6,131.1,519.8,131.4,518.8,131.3z"/>
			<path class="st3" d="M514.6,136.6c-3.4-1.2-6.4-3.5-9.1-6.2c-0.8-0.7-0.7-1.9,0-2.8c0.8-1,2-1.2,2.9-0.7c2.9,1.8,5.8,3.7,8.6,5.6
				c0.9,0.6,0.9,1.8,0.4,2.7C516.9,136.4,516,136.6,514.6,136.6z"/>
			<path class="st3" d="M104.3,222.5c-1.3-0.1-2.2-0.4-2.5-1.5c-0.4-1.1,0-2.1,0.9-2.6c2.6-1.6,4.8-3.6,7.2-5.4
				c1.1-0.8,2.4-1,3.5,0.1c0.9,0.9,1,2.1,0.2,3c-2.3,2.6-4.9,4.9-8.1,6.3C105.1,222.5,104.6,222.5,104.3,222.5z"/>
			<path class="st3" d="M229.8,137.9c-1.5,0-2.2-0.3-2.7-1.1c-0.5-0.9-0.5-1.9,0.2-2.5c3-2.5,6.3-4.4,10.1-5.6
				c0.9-0.3,1.8,0.4,2.2,1.3c0.4,0.8,0.5,1.7-0.1,2.3C236.6,135,232.9,136.5,229.8,137.9z"/>
			<path class="st3" d="M119.5,211.8c-1.5,0-2.4-0.3-2.8-1.4c-0.5-1.1-0.3-2.2,0.8-2.9c2.6-1.7,5.3-3.5,8-5.1
				c1.1-0.6,2.3-0.6,3.2,0.5c0.7,0.9,0.9,2,0.2,2.8C126.1,208.4,122.9,210.5,119.5,211.8z"/>
			<path class="st3" d="M566.5,160.9c-3.4-1.1-6.6-3.2-9.4-5.9c-0.7-0.7-0.6-1.9,0.1-2.8c0.8-1,2-1.2,2.9-0.7
				c2.9,1.6,5.7,3.4,8.5,5.2c0.9,0.6,1.1,1.6,0.7,2.7C569,160.6,568,160.8,566.5,160.9z"/>
			<path class="st3" d="M230.1,129.9c-1.5,0-2.3-0.3-2.8-1.2c-0.5-0.9-0.4-1.9,0.3-2.5c2.6-2.4,5.6-4.4,9-5.5
				c0.9-0.3,1.8,0.1,2.4,0.9c0.6,0.8,0.7,1.9,0.1,2.5C236.3,126.6,232.9,128.2,230.1,129.9z"/>
			<path class="st3" d="M520.8,137.7c0-1.9,1.9-3.1,3.7-2c2.6,1.5,4.8,3.5,7.5,4.9c1.1,0.6,1.2,1.8,0.6,2.9
				c-0.8,1.4-2.2,1.5-3.6,1.1c-2.7-0.9-4.8-2.9-7-4.6C521.2,139.5,520.8,138.7,520.8,137.7z"/>
			<path class="st3" d="M488.5,110.1c-3.4-1.4-6.6-3.2-9.3-5.7c-0.7-0.6-0.5-1.7,0.1-2.5c0.7-0.9,1.7-1.2,2.7-0.9
				c3.2,1.2,6,3.2,8.8,5.2c0.8,0.6,0.8,1.6,0.3,2.5C490.5,109.8,489.7,110.1,488.5,110.1z"/>
			<path class="st3" d="M213.1,139.8c-1,0-1.7-0.5-2.1-1.4c-0.4-1-0.3-2.1,0.6-2.7c2.5-1.9,5.1-3.7,7.8-5.4c0.8-0.5,1.9-0.4,2.8,0.4
				c0.7,0.7,0.9,1.5,0.6,2.5C222.1,134.7,214.8,139.9,213.1,139.8z"/>
			<path class="st3" d="M181.7,160.4c-1.4,0-2.3-0.2-2.8-1.2s-0.4-2,0.4-2.8c2.5-2.3,5.4-4,8.4-5.4c1-0.5,2,0,2.6,0.9
				c0.6,0.8,0.7,1.9,0.1,2.5C187.9,157.1,184.6,158.7,181.7,160.4z"/>
			<path class="st3" d="M560.9,165.7c-3.3-1.1-6.3-3.3-8.6-6.4c-0.6-0.8-0.3-2,0.6-2.7c0.9-0.8,2.1-0.8,3-0.2
				c2.5,1.7,4.9,3.4,7.3,5.2c0.9,0.7,1.1,1.7,0.7,2.7C563.4,165.5,562.5,165.7,560.9,165.7z"/>
			<path class="st3" d="M209.1,150.4c0,1-0.5,1.7-1.3,2.3c-2.1,1.4-4.2,2.8-6.4,4.1c-1.3,0.8-2.7,0.8-3.6-0.6
				c-0.9-1.3-0.4-2.5,0.7-3.4c2.1-1.7,4.4-3.2,6.8-4.4C207.3,147.5,209.1,148.5,209.1,150.4z"/>
			<path class="st3" d="M446.3,94.8c-1.5,0-8.4-4.4-9-5.7c-0.4-0.9-0.3-1.8,0.3-2.6c0.6-0.8,1.6-1.1,2.4-0.7c3,1.3,5.7,3.1,8.1,5.3
				c0.8,0.6,0.8,1.6,0.3,2.5C448.2,94.5,447.3,94.8,446.3,94.8z"/>
			<path class="st3" d="M259.8,118.7c-1.6,0-2.4-0.3-2.8-1.3s-0.3-2.1,0.6-2.7c2.5-1.7,5-3.2,7.6-4.7c0.9-0.5,2-0.3,2.7,0.6
				c0.7,0.9,0.9,2,0.2,2.8C265.6,116,262.6,117.7,259.8,118.7z"/>
			<path class="st3" d="M545.1,155.2c-2,0-8.1-4.8-8.5-6.7c-0.2-0.9,0-1.8,0.8-2.4c0.9-0.7,1.9-0.8,2.8-0.1c2.3,1.7,4.6,3.5,6.8,5.4
				c0.8,0.6,0.8,1.6,0.5,2.5C547.1,155,546.2,155.3,545.1,155.2z"/>
			<path class="st3" d="M413.3,68.1c-2.8-1.1-5.9-2.6-8.4-5.1c-0.7-0.7-0.6-1.9,0.1-2.8c0.7-0.9,1.7-1.2,2.7-0.8
				c2.7,1.2,5.3,2.7,7.7,4.5c0.9,0.6,1.1,1.6,0.7,2.7C415.8,67.8,414.9,68.1,413.3,68.1z"/>
			<path class="st3" d="M330.4,72.3c-1.2,0.4-2.4,0.8-3.6,1c-1.1,0.2-2-0.2-2.4-1.3c-0.4-1.1-0.2-2.1,0.7-2.7c2.4-1.8,5-3.3,7.7-4.5
				c1.2-0.5,2.4-0.1,3,1.2c0.6,1.2,0.2,2.3-0.8,3.2C333.5,70.4,331.5,70.8,330.4,72.3C330.3,72.4,330.4,72.3,330.4,72.3z"/>
			<path class="st3" d="M536.9,137.7c0.1,2-1.6,3.1-3.4,2.3c-2.7-1.3-5-3.3-7.2-5.3c-0.8-0.7-0.9-1.8-0.4-2.8s1.5-1.6,2.5-1.2
				c3.2,1.4,5.8,3.6,8.2,6.1C536.9,137.1,536.9,137.6,536.9,137.7z"/>
			<path class="st3" d="M168,177.7c-2.3,0.1-3.4-1.3-2.8-3c0.6-1.9,7.3-6.1,9.3-5.9c1.7,0.2,2.8,2.1,1.8,3.4
				C173.9,174.9,170.5,176.1,168,177.7z"/>
			<path class="st3" d="M482.2,114.7c-2.6-1.1-5.3-2.7-7.6-4.7c-0.8-0.7-0.8-1.8-0.3-2.7c0.7-1.1,1.7-1.4,2.8-1
				c2.7,1.1,5.1,2.7,7.4,4.4c0.9,0.6,1,1.7,0.5,2.7C484.6,114.4,483.6,114.7,482.2,114.7z"/>
			<path class="st3" d="M246.3,119.2c-2,0.1-2.9-0.4-3.3-1.6c-0.4-1.1,0-2.1,0.9-2.6c2.2-1.3,4.3-2.6,6.6-3.7c1.3-0.6,2.8-0.6,3.5,1
				c0.7,1.5,0.1,2.7-1.3,3.4C250.4,117,248.3,118.7,246.3,119.2z"/>
			<path class="st3" d="M267.6,100.6c1.7-0.1,2.6,0.2,3,1.3c0.5,1.2,0.2,2.3-0.8,2.9c-2.2,1.4-4.5,2.7-6.8,3.8
				c-1.2,0.6-2.6,0.4-3.3-1c-0.7-1.3-0.2-2.5,1-3.3C263.2,102.9,265.5,101.4,267.6,100.6z"/>
			<path class="st3" d="M500.6,120.8c-0.7-0.3-1.3-0.7-2-1c-0.8-1.4-2.3-2-3.4-3c-1.2-1.1-1.9-2.3-0.9-3.8c1.1-1.5,2.6-1.1,3.9-0.3
				c1.4,0.9,2.8,2,4.2,3c1.3,0.9,3,1.7,2.2,3.8C503.8,121.5,502.1,120.9,500.6,120.8z"/>
			<path class="st3" d="M245.9,127.9c-1.8,0.1-2.7-0.4-3-1.4c-0.4-1-0.1-2,0.7-2.7c2.2-1.6,4.5-3,7-4c1-0.4,2.2-0.3,2.9,0.7
				c0.7,0.9,0.8,2,0,2.7C251.2,125.5,248.2,126.8,245.9,127.9z"/>
			<path class="st3" d="M646.1,225c-2.7-1.2-5.3-2.7-7.2-5c-0.7-0.8-0.5-1.9,0.2-2.8c0.6-0.7,1.6-1.1,2.5-0.7
				c2.6,1.1,4.8,2.8,6.9,4.7c0.7,0.7,0.8,1.6,0.3,2.5C648.1,224.8,647.3,225.2,646.1,225z"/>
		</g>
	</g>
	<g id="Hands_N_Pollutes_Color_xA0_影像_1_">
	</g>
	<g id="Hand_N_Pollutes_xA0_影像_1_">
	</g>
	<g id="Board_N_Iron_Net_Color_xA0_影像_1_">
	</g>
	<g id="Board_N_Iron_Net_xA0_影像_1_">
	</g>
	<g id="Flowers_Dying_Color_xA0_影像_1_">
	</g>
	<g id="Flowers_Dying_xA0_影像_1_">
	</g>
</g>
<g id="hand">
	<g>
		<g id="Flowers_Dying_Color_xA0_影像_2_">
			<g>
				<polygon class="st4" points="581.8,97.7 577.8,109.4 599.2,118.1 605.2,136.4 576.8,125.7 550.5,127.4 539.2,141.4 529.8,155.4 
					524.5,169.4 512.2,174.7 530,187.9 527.3,182.8 546.5,180.4 553.8,186.1 557.2,212.7 548.5,230.1 535.8,228.7 523.8,216.7 
					516.2,213.7 519.8,226.1 513.8,234.4 557.8,271.4 586.5,278.1 614.5,278.7 691.2,304.7 829.6,365.3 880.8,243.3 680.5,172.7 
					654.5,157.4 609.8,108.1 592.5,96.7 				"/>
				<polygon class="st4" points="577.8,98.7 568.8,104.7 574.2,110.1 580.8,105.4 581.2,99.4 				"/>
				<polygon class="st4" points="173.2,185.4 171.2,195.5 159.2,190.1 151.8,201.4 145.8,288.7 143.8,318.7 149.2,336.7 
					161.2,342.7 200.5,342.7 229.2,340.7 272.5,342.7 283.2,336.1 291.8,340.1 319.8,336.1 354.5,336.1 368.5,332.1 373.8,318.7 
					379.2,331.4 394.5,338.1 453.2,338.7 475.8,332.1 485.8,338.7 509.2,338.7 541.8,338.7 559.2,338.7 565.8,326.1 571.2,308.1 
					575.2,275.4 542.1,268.8 536.2,258.1 526.3,244 511.2,234.7 521.7,229.5 513.8,208.1 526.5,218.7 538.5,230.1 538.5,222.1 
					539.2,196.7 527.8,188.7 519.2,182.1 506.5,172.7 499.8,163.4 493.8,155.4 473.8,164.7 441.2,194.7 433.2,185.4 424.5,176.7 
					405.2,177.4 395.7,171.5 386.2,153.7 375.2,157.4 383.2,168.1 365.2,170.1 349.2,172.7 339.8,176.1 327.8,198.1 323.2,188.1 
					301.8,184.1 283.8,173.4 281.8,150.7 269.8,168.1 270.7,175.7 245.2,173.4 222.8,179.3 220.5,187.4 213.2,183.4 195.8,192.1 
					186.5,194.1 181.2,180.7 				"/>
				<g>
					<path class="st3" d="M374,328.5c-3.2,7.2-9.2,9.4-16.3,9.6c-7.2,0.2-14.4,1-21.5,0.5c-13-1-25.8,0.1-38.4,3.2
						c-4.7,1.2-9.4,1.3-13.5-2.1c-0.9-0.8-1.6-0.4-2.4,0.1c-5.4,3.8-11.5,4.7-17.9,4.5c-9.6-0.3-19.2-0.6-28.9-1.5
						c-7.8-0.7-15.6-0.4-23.4,1.1c-5,1-10,1.6-15.1,1.1c-10.1-0.9-20.2-0.8-30.2-0.7c-3.5,0-6.9-0.2-10.3-1.1
						c-6.8-1.8-10.8-6.2-12.4-13c-2.9-12.5-1.8-25.1-1.4-37.7c0.3-9,1.4-17.9,3.3-26.7c0.3-1.2,0.2-2.5,0.2-3.8
						c0-14.9,0.1-29.8,1.1-44.7c0.5-7.5,1.8-14.8,4.1-21.9c2-6,4.8-7.8,11-7.1c2,0.2,3.9,0.7,5.9,1.2c1.6,0.4,1.9-0.1,1.4-1.6
						c-0.4-1.1-0.6-2.3-0.7-3.5c-0.1-2.9,1.2-4,4-3.4c0.9,0.2,2,0.2,2.6,0.7c2.5,2.1,2.8,0.2,3.3-1.6c0.5-1.9,1.1-3.9,1.8-5.7
						c0.6-1.6,1.7-2.7,3.5-2.4c1.9,0.3,2.3,1.7,2.4,3.4c0.1,4.2-0.4,8.4,0.4,12.5c0.6,2.9,1.7,3.7,4.6,3.1c2.6-0.5,5-1.5,7.3-3
						c6.7-4.4,13.8-7.7,22.1-7.4c0.9,0,1.5-0.5,2.1-1.1c8.4-7.9,18.6-10.1,29.7-9.3c4.4,0.3,8.8,1.2,13.3,0.9c2-0.1,2.5-0.7,1.6-2.6
						c-3.7-7.8-6.1-15.9-7.2-24.5c-0.2-1.5-0.3-3.1-0.2-4.6c0.2-1.6,1.1-2.7,2.8-2.9c1.7-0.2,2.7,0.8,3.2,2.4
						c0.9,2.7,1.3,5.4,1.8,8.5c1.6-0.8,2.9-2.1,4.6-1.1s1.7,2.9,2,4.6c0.4,1.8,0.1,3.7,1,5.8c1.9-3.5,2.9-6.9,4.2-10.3
						c0.8-2.3,1.6-4.6,2.6-6.9c0.7-1.6,2-2.8,3.9-2.1c1.8,0.6,2,2.2,1.7,3.8c-0.9,5.6-1.7,11.1-2,16.8c-0.1,3.1-0.1,6.2,0.2,9.3
						c0.3,3.9,2,6.8,5.5,8.8c4.9,2.9,10.4,3.8,15.8,4.7c3.1,0.5,6.3,1,9.4,1.6c4.9,0.9,9.5,2.5,12.6,7.1c1.7-3.2,3.3-6.3,5.2-9.1
						c6-8.6,14.2-13.1,24.7-13.1c6.2,0,12.3,0,18.7,0c-0.5-1.5-1.7-2.5-2.6-3.7c-2.1-2.9-4-5.8-5.3-9.2c-0.5-1.2-0.9-2.5-0.3-3.7
						c0.7-1.3,0.3-2.4-0.1-3.6c-0.9-2.5-1.4-5.1-0.5-7.7c0.5-1.6,1.4-3,3.2-3.3c2-0.4,3.3,0.6,4.3,2.2c2.1,3.2,3.2,6.9,5.2,10.7
						c0.6-2.8,1.1-5,1.6-7.3c0.3-1.1,0.6-2.1,1-3.1c1-2,2.8-2.8,5-2.3c2.1,0.5,3,2,3,4c-0.1,5,0,10-0.4,15
						c-0.8,10.5,7.5,20.1,18.1,20.3c3.8,0.1,7.6-0.1,11.4-0.2c5-0.1,9.2,1.6,12.6,5.3c1.8,1.9,3.5,3.9,5.9,5.2
						c1.5,0.9,1.8,2.7,2.6,4.1c0.3-0.2,0.6-0.3,0.7-0.4c7.6-11.7,18.8-19.6,29.5-28c2.7-2.1,5.9-3.7,9.3-4.4c2.3-0.5,2-1.3,1-2.8
						c-3-4.8-4.9-10.1-6.4-15.6c-0.5-1.8-0.7-3.6,1.2-4.6c1.9-1,3.5-0.1,4.8,1.4c2.2,2.6,3.6,5.7,5.1,8.7c0.5,1,0.7,2.3,1.8,3
						c0.9-1.7,1.7-3.5,2.8-5c2.3-3.1,5.4-2.7,6.8,0.9c0.6,1.5,1.1,1.3,2.1,0.6c1.7-1.2,3.5-1.8,5.2-0.2c1.7,1.7,1.2,3.8,0.1,5.5
						c-1.7,2.8-3.7,5.4-5.5,8.1c-0.5,0.8-1.2,1.4-0.2,2.3c1.5,1.6,2.2,3.6,2.6,5.6c1,4.5,4.7,5.6,8.2,7.2c0.5,0.2,0.9,0.1,1.2-0.2
						c0.2-0.2,0.4-0.4,0.6-0.6c5.4-2.7,8.7-7,10.6-12.7c1.2-3.5,3.4-6.6,6.6-8.9c0.3-0.3,0.7-0.6,0.8-1c1.2-6.5,6.2-10.7,9.7-15.7
						c2.6-3.7,6.6-6.2,10.8-8.2c2.7-1.3,5.4-1.9,8.4-2c12.6-0.5,11.6-3.4,39.5,8.3c-1.5-5.3-3.7-9.7-8.4-12.5
						c-5-3-10.6-3.7-16.2-3.9c-1.6-0.1-3.3-0.1-4.8-0.6c-5-1.7-6.8-6.7-4.1-11.2c1.7-2.8,4.4-4.6,7.4-5.8c13-4.8,24.9-2.7,35.3,6.4
						c7,6.1,12.9,13.2,18.2,20.9c5.6,8.2,12,16,19.7,22.5c12,10,24.4,19.1,39,25.1c17.7,7.2,36.1,12.3,54.4,17.5
						c30,8.5,59.2,19.3,88.4,30c17.7,6.5,35.6,12.7,53.5,18.6c1,0.3,3.6-0.3,2.6,2.6c-1.3,3.6-1.3,3.7-4.3,2.7
						c-30.6-10.1-60.9-21.2-91.1-32.3c-24.7-9-50-15.8-75.2-23.4c-15.1-4.5-30.1-9.2-43.8-17c-9.9-5.6-19.2-12.2-27.8-19.6
						c-7.8-6.7-14.7-14.3-20.2-23.1c-4.4-7.1-9.6-13.6-15.9-19.2c-5.8-5.2-12.3-8.7-20.3-8.5c-1.8,0-2.7,0.4-2.4,2.5
						c0.5,2.7-1.1,4.6-3.1,6.5c2.6,0.7,4.9,1.2,7.2,1.9c8.1,2.5,13.6,7.8,16.2,15.9c1,3,2.1,6,2.2,9.2c0,1.6,0.5,3.5-1.5,4.3
						c-1.9,0.8-3.7-0.5-4.5-1.7c-2.3-3.2-5.6-4.6-8.9-5.9c-8.3-3.3-16.8-5.9-25.9-5.9c-10.2,0.1-21.1,7.4-24.9,17
						c5.8-2.2,11.5-4,17.4-4.7c13-1.4,25.2,0.3,34.6,10.4c5.5,6,9.3,13.2,11,21.3c0.4,1.8,0.5,3.7-1.7,4.2c-2.4,0.5-2.8-1.5-3.2-3.2
						c-1.5-6.5-4.8-12.2-8.8-17.3c-5.5-7-13.4-9.4-21.9-10.1c-11-0.9-21.2,2.3-30.9,7.4c-4.2,2.2-6.8,5.9-8.6,10.2
						c1,0.6,1.7-0.2,2.5-0.5c8.5-3.5,17.4-4.8,26.6-5.3c12-0.6,20,5.3,25.9,14.9c3.2,5.2,4.9,11.1,6.2,17.1c0.4,1.7,0.5,3.7-1.7,4.2
						c-2.4,0.6-3.2-1.1-3.7-3c-1.3-5-2.6-10-5.2-14.6c-4.8-8.6-11.6-13.8-22-13.1c-5,0.4-10,0.8-14.9,1.9c-8.3,1.9-16,5.3-23.3,9.7
						c-1,0.6-2.5,1.1-2.3,2.4c0.2,1.3,1.4,2.4,2.8,2.8c2.9,0.8,5.9,1.1,7.7,4c0.5,0.8,1.5-0.1,2.2-0.4c4.4-2.1,9-3.3,13.9-3.7
						c6.3-0.6,11.3,2.1,13.3,8.1c4,12.2,4.3,24.4-0.3,36.6c-0.8,2.2-2,4.3-3.4,6.2c-3.5,4.7-7.4,6-12.9,4.1
						c-7.4-2.6-13.2-7.6-17.7-13.9c-1.6-2.3-3.2-4.7-6.1-5.9c1.6,2.9,3.3,5.7,4.9,8.6c3.5,6.2,3,8-3,11.7c-0.4,0.2-0.7,0.5-1.3,0.9
						c3.1,3.2,6,6.5,9.5,9.1c9.3,6.9,18.9,13.5,27.8,21.1c6.7,5.8,15.4,7.5,24,8.7c6.4,0.9,12.8,1.3,19.3,1.2
						c16.3-0.3,31.6,4,46.7,9.5c43.1,15.9,85.6,33.5,127.8,51.6c19.7,8.5,39.6,16.3,59.7,23.9c0.8,0.3,2.3,0.3,2.1,1.3
						c-0.3,1.5-1.2,3-2,4.4c-0.1,0.2-1.3-0.2-2-0.5c-21.5-8.1-42.8-16.6-64-25.7c-43.1-18.5-86.5-36.5-130.7-52.3
						c-11.9-4.2-24.1-6.8-36.8-6.7c-6.4,0-12.9-0.1-19.3-1.1c-1.4-0.2-1.8,0.1-2.1,1.5c-2.1,9-2.2,18.2-3.1,27.3
						c-0.6,6.1-1.6,12.1-3.4,17.9c-1,3.1-2.4,6.1-4.2,8.8c-3.9,6-9.3,8.4-16.5,7.9c-11.9-0.9-23.7-1.9-35.6-2
						c-7.8-0.1-15.6,0.3-23.4,1.5c-5.7,0.9-10.2-1.4-14.1-5.1c-1.7-1.6-3-1.6-4.9-0.6c-6.5,3.3-13.8,3.8-20.9,4.7
						c-19.1,2.7-38.2,1.8-57.4-0.4c-7.9-0.9-14-4.1-18.1-11C375,329.6,374.6,329.2,374,328.5z M252.7,243.2c1.1-1.6,1.9-2.8,2.8-4.1
						c0.8-1.1,1.9-2,3.5-1.7s2.4,1.5,2.7,3.1c0.7,3.2,0.3,6.3,0.3,9.5c0,3.3-0.2,6.5,0.5,9.8c0.6,2.5,2,3.9,4.6,4.3
						c3,0.5,5.7,1.7,8.1,3.6c2.7,2.2,5.7,3.5,9.3,3.2c2.9-0.2,5.6,0.5,7.7,2.6c0.9,0.9,1.7,0.8,2.6,0.3c6.3-3.2,12.5-6.7,18.3-10.7
						c3.3-2.3,4.7-5.1,4.6-8.9c-0.4-10.2,1.8-20.2,3.1-30.3c0.9-7.3,2.6-14.5,4.3-21.6c2.1-8.7-0.5-12.9-9.2-14.7
						c-3.1-0.6-6.3-1-9.4-1.5c-6.2-0.9-12.3-2.1-17.9-5.4c-5-2.9-7.6-7.1-8-12.8c-0.2-2.1-0.4-4.2-0.6-6.7c-1.8,2.3-2.2,5.2-4.8,5.9
						c-1.7,0.5-1.8,1-1.2,2.5c1.2,3.3,0.2,5.1-3.3,6.1c-3.4,0.9-6.8,1.2-10.3,0.8c-7.8-1-15.5-1.9-23.2,0.8
						c-5.2,1.8-10.1,4.1-13,8.9c-4.4,7.2-8.2,14.7-10.3,23c-2.5,9.7-3.6,19.6-4.6,29.6c-1,10.5-0.6,21-0.9,31.6
						c0,0.9-0.2,1.9,1.4,1.6c3.4-0.5,6.9-0.7,10.3-1.3c3.5-0.7,3.9-1.4,3.9-5c0-6.4-0.3-12.9,0.9-19.3c0.5-2.8,1-5.9,4.4-6.5
						c3.3-0.6,5,2.1,6.6,4.4c1.1,1.6,2,3.3,3.1,5.2c1.9-3.7,3.4-7.1,5.8-10c2.5-2.8,5.6-2.2,7.1,1.2
						C252.1,241.3,252.3,242,252.7,243.2z M530,187.9c1.2,1.5,2.9,1.6,4.4,1.8c6.3,1.1,8.6,3.7,8.6,10.1c0,4.3-0.9,8.5-1.3,12.7
						c-0.3,3.1-1.6,6.1,0,9.3c0.7,1.4-0.3,2.6-2,2.9c-1.9,0.3-3.6-1.1-3.7-3.4c-0.1-2,0.1-4,0.2-6c0.4-5.2,1.5-10.2,1.4-15.4
						c-0.1-3.6-0.5-4.3-4.1-4.8c-5.2-0.7-9-3.1-10.7-8.3c-0.5-1.4-1.4-2-2.8-2.1c-2.9-0.3-5.1-1.8-6.8-4c-1.9-2.4-4.3-4.2-7.2-5.2
						c-2.8-1-4.9-2.8-6.1-5.5c-0.8-1.7-1.4-3.5-2.2-5.3c-0.5-1.2-4.7-4.4-5.8-4.2c-6.6,1.2-12.9,2.9-18.5,7.3
						c-11.1,8.7-21.1,18.3-29.6,29.5c-0.9,1.2-1.7,2.5-2,4.1c-0.5,2.6-1.2,5.1-1.7,7.7c-0.7,3.4-0.7,6.7,0.8,9.9
						c1.6,3.4,1.4,7.4,4.2,10.4c1.3,1.4,0.6,3.7,1.1,6.2c2.1-4.5,3.8-8.4,6.4-11.9s4.9-4.7,7.2-3.6c2.2,1.1,3.1,4,1.4,7.8
						c-5.1,11.8-9.3,24-18.2,33.7c-1,1.1-0.5,2.3-0.6,3.4c-0.1,0.8,1.2,0,1.8,0.4c2,1.6,3.3-0.7,4.9-0.9c8.3-1.2,16.6-2.2,25-1.7
						c3.4,0.2,6.6,1.2,9.3,3.4c1,0.9,1.7,0.9,2.8,0.1c3-2.2,6.4-3.4,10.1-3.7c4.2-0.4,8.3-0.3,12.5-0.1c1.7,0.1,3.4,0,5.2,0
						c2.6,0,3.8-1.1,3.6-3.8c-0.2-1.9,0-3.8-0.1-5.7c-0.2-2.7,0.2-5.1,3.6-6.3c-3.1-3-5.8-5.8-8.7-8.4c-3.4-3.2-5.6-7.1-7.1-11.4
						c-2.2-6.3-1.1-12,3.6-16.8c3.6-3.6,8.6-3.8,12.4-0.4c2.1,1.9,3.9,4.1,5.5,6.4c3.3,4.9,7.6,8.7,13,11.3c4.9,2.3,7.3,1.7,9.8-3.2
						c6.1-11.9,5.6-24.2,1.6-36.5c-0.7-2.3-2.6-3.6-4.9-3.8C540.5,183.5,535.2,185.2,530,187.9z M426.8,252.4
						c-0.6,4.2-0.9,8.1-2.4,11.8c-2,4.8-5.4,7.5-10.6,7.6c-3.7,0.1-7.5,0.1-11.2,0.2c-6.6,0.2-13.3,0-19.7,1.9
						c-5.3,1.6-6.3,3.4-5.4,9c1.7,11,2.7,22.1,0.5,33.1c-1.8,8.7,6,18.1,13.3,19.2c24,3.4,47.8,3.6,71.6-1.3c4.2-0.9,8.9-1.4,12-5.1
						c3.8-4.6,6.9-9.6,7.8-15.7c2-12.7,1.9-25.4,0.9-38.2c0-0.4-0.3-0.9-0.6-1.2c-2.9-3.4-6.5-5.3-11.1-5.3
						c-5.1,0-10.2,0.4-15.2,0.9c-6.7,0.6-13.2,2.3-20,2.5c-1.5,0-3.4,0.2-4.2-1.3c-0.8-1.6,0.1-3.2,1-4.6c0.7-1,1.6-2,2.5-2.9
						c1.5-1.4,3.2-2.7,4.8-4.1c3-2.6,3-2.9,0.4-5.4c-1.1-1.1-0.9-2.5-1.1-3.8c-0.2-1.2,1.2-3-1-3.7c-2.6-0.8-2.2,1.7-3.1,2.8
						c-0.4,0.6-0.6,1.3-1,1.9C432.7,254.8,430.6,255.2,426.8,252.4z M386.4,157.9c-1.1,1-1.9,2-3.3,1.9c-2.2-0.1-1.9,1.3-1.2,2.5
						c0.7,1.2,1.7,2.1,2.5,3.2c2.6,3.6,1.4,6.5-3,7.2c-1.2,0.2-2.5,0.1-3.8,0.1c-5.8-0.1-11.6-0.2-17.4-0.3
						c-8-0.2-14.5,2.9-19.5,9.1c-2.5,3-4.4,6.5-5.9,10.1c-3.4,8.2-5.7,16.8-7.1,25.6c-0.2,1.1-0.8,2.3-0.3,3.8
						c0.5-0.8,0.8-1.2,1.1-1.7c0.9-1.3,2-2.1,3.6-1.9c1.6,0.2,1.7,1.7,2.1,2.8c0.6,1.6,0.5,3.2,0.5,4.9c0,1.6,0,3.3,0,5.2
						c1.8-1.7,3.2-3,4.6-4.3c1.5-1.3,3-2.5,5.1-1.7c2.2,0.8,2.7,2.9,2.8,4.9c0.1,2.3,0,4.6,0,7c1.3-0.4,1.6-1.2,2.2-1.8
						c1-1,2.1-1.5,3.4-0.9c1.3,0.5,1.9,1.7,2,3c0,0.9,0,1.8-0.2,2.7c-0.9,5.1-1.6,10.2-2.2,15.4c-1,8.6-0.4,9.5,8.1,10.9
						c4.8,0.8,9.7,1.7,13,6c0.5,0.6,1,0.6,1.6,0.1c4.4-3.2,9.7-4,14.9-4.6c7.4-0.8,14.9-0.6,22.3-0.9c4.3-0.2,5.8-1.3,7.2-5.3
						c0.7-2.2,1.2-4.4,1.3-6.7c0.6-8.9,1.1-17.8,1.6-26.7c0.3-3.8,1.3-5.4,3.3-5.4s3.3,1.9,3.6,5.3c0.3,3.3,0.4,6.7,0.7,10.1
						c0.2,2.3,0.5,4.7,0.7,7c2.1-3.1,3.2-6.5,4.9-9.4c2.7-4.6,2.4-8.9,0.3-13.5s-2.2-9.3-1.3-14.1c0.9-5,2.6-9.9,2.4-15
						c0-1.1,0-2.2-1.1-2.9c-2.3-1.4-4-3.4-5.8-5.4c-2.4-2.6-5.3-3.7-8.7-3.7c-3.4,0-6.7,0.3-10.1,0.3c-5.1,0-10.4-0.3-14.3-4
						C391.8,171.8,386.9,166.3,386.4,157.9z M230.3,246.3c-0.2,0.7-0.3,1.1-0.4,1.5c-0.9,6.2-1.2,12.5-1.2,18.7c0,5.6-1.6,7.6-7,9
						c-0.8,0.2-1.6,0.4-2.4,0.5c-4.8,0.7-9.6,1.2-14.3,2.9c-6.4,2.3-10.5,6.2-12.5,12.5c-1.8,5.5-2.2,11.2-2.6,16.9
						c-0.5,7.3,0,14.5,1.3,21.7c1.3,7,8.6,11.5,14.5,9.9c2.2-0.6,4.2-1.6,6.5-1.9c6.1-1,12.3-1.5,18.5-1.2
						c11.9,0.6,23.8,1.6,35.7,1.7c4.4,0,8.4-1,12.2-3.4c1.1-0.7,1.4-1.3,0.9-2.6c-3.9-10-5.6-20.4-4.5-31c0.9-9.3,3-18.2,11.9-23.6
						c0.4-0.3,1.2-0.5,0.9-1.2c-0.2-0.4-0.8-0.7-1.3-0.8c-0.7-0.2-1.4-0.2-2.2-0.1c-3.8,0.2-7.1-0.9-10.2-3.1
						c-2.1-1.5-4.5-2.8-7.1-3.4c-6.9-1.4-9.5-4.2-10.2-11.1c-0.3-2.6-0.3-5.3-0.5-8.5c-1.3,2.1-1.7,3.9-2.3,5.6
						c-0.6,1.7-1.4,3.3-3.6,3c-2.3-0.3-2.3-2.1-2.5-3.9c-0.2-2.6,0-5.3-0.7-8.7c-1.3,2.7-2.3,4.7-3.3,6.7c-1,2.1-1.9,4.6-4.7,4.7
						c-3,0.1-3.6-2.6-4.7-4.6C233,250.7,232.5,248.2,230.3,246.3z M527.9,252.2c-0.2,1.8-0.8,3.5-2.1,3.7c-2.9,0.4-2.8,2.4-2.9,4.5
						c-0.2,4.9-2.3,7-7.1,7.6c-1.7,0.2-3.4,0.2-5.2,0.1c-4.4,0-8.9-0.2-13.3-0.1c-3.1,0-5.9,1.1-8.4,2.9c-0.8,0.6-1.6,1.1-1.1,2.4
						c2.6,8.2,2.1,16.7,1.7,25.1c-0.5,11.8-1.1,23.5-9.8,32.9c-0.5,0.6-0.6,1.1,0,1.6c2.9,2.4,5.7,4.7,9.9,4.1
						c5.6-0.9,11.2-1.3,16.8-1.5c14.5-0.5,28.9,0.9,43.3,1.9c5.9,0.4,9.7-1.8,12.5-6.7c3.2-5.7,4.3-11.9,5.4-18.2
						c1.8-10.6,1.4-21.4,4.2-31.8c0.5-1.8-0.4-2.3-2-2.7c-9.5-2.2-18-6.1-24.8-13.3c-0.7-0.8-1.5-1.6-3-2.1c0.4,1,0.5,1.6,0.8,2.2
						c0.8,1.5,1.3,3-0.6,4c-1.7,0.9-3.1-0.2-3.9-1.6c-1.2-2.1-2-4.3-1.5-6.7c0.2-0.9,0.4-1.7-0.5-2.4
						C533.6,256.2,530.9,254.3,527.9,252.2z M341.2,236.2c-0.2,0-0.5-0.1-0.7-0.1c-2.2,3.6-4.4,7.3-6.6,10.9c-1,1.7-2.4,2.9-4.5,2.1
						c-2-0.7-2.2-2.5-2-4.3c0.2-2,0.4-4,0.6-6c-1.7,4.7-3.7,9.3-3.3,14.5c0.4,5-1.5,8.9-5.5,12.1c-6.8,5.4-14.2,9.8-22.2,13.2
						c-8.6,3.7-14.8,9.4-16.2,19.2c-0.4,2.6-0.8,5.2-0.8,7.8c-0.1,7.2,1.4,14.1,2.8,21c1.2,6.1,5.1,11.9,14,9.6
						c13.1-3.4,26.5-4.1,40-3.3c7,0.4,14-0.3,21-0.4c7.3-0.1,10.9-4.2,13-10.6c2.9-8.9,3-18.1,2.3-27.2c-0.4-5.4-0.8-10.9-2.4-16.1
						c-1-3.4-3.1-5.5-6.5-6.3c-2.6-0.6-5.1-1.1-7.7-1.6c-7.4-1.4-10.1-4.5-9.9-11.9c0.1-3.8,0.6-7.7,0.9-11.7
						c-0.4,0.3-0.7,0.4-0.8,0.6c-1.3,1.6-2.8,3.1-5.1,2c-2.2-1.1-1.6-3.3-1.4-5.1C340.5,241.8,340.9,239,341.2,236.2z M180.1,255.6
						c0.7-2.2,1.3-4.1,1.9-6c0.8-2.2,1.5-4.5,2.5-6.6c0.8-1.7,2-3.2,4.1-2.9c2.2,0.2,2.9,1.9,3.2,3.8c0.2,1.5,0.4,3.1,0.4,4.6
						c0,6.1,0,12.2,0,18.3c0,6.2,0.1,6.1,6,7c2.2,0.3,2.8-0.3,2.8-2.5c0.2-6.9,0.3-13.8,0.9-20.7c0.7-7.9,1.9-15.9,2.9-23.8
						c1.7-12.8,4.2-25.5,10.7-36.9c0.2-0.3,0.4-0.6,0.5-1c0.2-0.9,0.3-1.9-0.2-2.6c-0.6-0.7-1.5-0.1-2.3,0.1
						c-4.4,1.1-8.2,3.4-11.9,5.8c-3.9,2.5-8,4.4-12.7,4.1c-2.9-0.1-5.2-1.4-6.6-4.1c-0.8-1.5-3.1-2.8-4.7-3
						c-1.6-0.2-1.8,0.3-1.7,1.7c0.2,3.5-1.1,4.7-4.7,4.5c-2.9-0.2-5.7-1-8.6-1.6c-4.2-0.9-5-0.3-6.4,3.7c-2.8,8.4-3.6,17-4,25.7
						c-0.6,12.2-0.8,24.3-0.8,36.5c0,1.8,0.7,2.2,2.3,1.8c2.2-0.6,4.1-1.8,5.7-3.5c2.7-2.8,3.5-2.9,7.2-1.1c0.2-1.2,0.4-2.3,0.6-3.5
						c0.4-2.6,0.8-5.2,1.8-7.7c0.7-1.8,1.7-3.3,3.9-3.3c2,0,3,1.4,3.7,3.1c0.4,1.1,0.8,2.2,1.2,3.3
						C178.6,251,178.8,253.3,180.1,255.6z M186.8,255.1c-1.3,0.6-1.1,1.7-1.4,2.4c-0.7,1.5-1.1,3.1-1.8,4.5c-1.8,3.4-5,3.5-7,0.2
						c-0.9-1.4-1.4-3.1-2-4.7c-0.5-1.2-0.8-2.5-1.2-3.7c-1.1,4.2-1.6,8.3-2.1,12.4c-0.2,1.7-0.7,3.3-2.7,3.6c-2,0.3-3.2-1-4.1-2.6
						c-0.7-1.3-1.2-2.6-1.9-4.1c-2.8,1.9-5.5,4-8.9,4c-2.5,0-3,1.2-3.4,3.2c-1.3,7.7-2.3,15.5-2.6,23.3c-0.3,11.6-1.3,23.2,1.2,34.8
						c1.2,5.5,4.3,8.8,9.7,9.7c9.8,1.7,19.7,0.1,30,0.8c-1.7-3.4-3-6.3-3.5-9.6c-1-6.9-1.4-13.7-1-20.7c0.7-10.5,1.3-21.1,9.3-29.7
						c-3.2-0.5-5.7-1.6-6.2-5c-0.2-1.7-0.4-3.4-0.5-5.1C186.8,264.3,186.8,259.8,186.8,255.1z M511.2,216.4c-0.6,0.3-0.8,0.9-1,1.5
						c-1.6,4.4,0.2,8.2,2.5,11.7c1,1.5,2.3,0,3.3-0.5s2.3-1.1,1.3-2.7c-1.7-3.1-3.4-6.2-5.2-9.2C512,216.8,511.8,216.3,511.2,216.4z
						 M579,103c-0.1-0.9-0.3-1.7-1.4-1.3c-1.8,0.6-3.6,1.3-5,2.6c-0.4,0.3-0.9,0.8-0.2,1.3c1.1,0.6,2.2,1.3,3.5,0.5
						C577.3,105.2,578.8,104.7,579,103z"/>
					<path class="st3" d="M283.1,226.9c-1.2,2.2-1,5.1-4,5.3c-2.2,0.2-2.7-1.7-3.5-3.6c-1.5,1.6-2.7,2.9-3.9,4.2
						c-1.3,1.4-2.8,2.4-4.5,1.1c-1.7-1.3-1.4-3-0.3-4.6c1.2-1.7,2.1-3.2-0.5-4.5c-0.3-0.1-0.6-0.5-0.7-0.8
						c-0.9-3.9-3.3-7.5-3.1-11.7c0.2-3.3,1.6-6.1,3.6-8.6c5.1-6.2,14-8.8,20.9-6c7.6,3.1,10.2,11.3,5.8,18.2c-0.7,1-1.4,1.9-0.8,3.2
						c0.1,0.2,0.1,0.4,0,0.5c-2.2,2.7-0.5,5.3,0,7.9c0.2,1.5-0.4,2.7-1.7,3.4c-1.3,0.7-2.5,0.3-3.5-0.6
						C285.6,229.4,284.4,228.2,283.1,226.9z M287.8,211.4c-0.1-1-0.7-1.8-2-1.8c-1.4,0-3.4,2.4-3.4,4.1c0,1.4,0.8,2.2,2.2,2.2
						C285.7,215.9,287.8,213.1,287.8,211.4z M273.5,217.6c1.2-0.1,2.2-0.8,2.1-2c-0.2-1.8-1.2-3.3-3.2-3.5c-1.2-0.1-2.2,0.6-2.1,1.9
						C270.5,215.9,271.7,217,273.5,217.6z M275.2,224.5c-0.1-1.2-0.7-2-2-2.1c-1.3-0.1-2.3,0.5-2.4,2c-0.1,1.3,0.7,2.1,1.9,2.2
						C274.1,226.6,274.9,225.9,275.2,224.5z M278.2,220.8c-1.4,0.2-2.1,1-2,2.4c0.1,1.3,1,1.9,2.2,1.8c1.3,0,2-0.8,2-2.1
						C280.4,221.5,279.6,220.8,278.2,220.8z M283.7,219.7c-1.4,0-2.2,0.8-2.3,2.1c0,1.3,0.7,2,2,2.1c1.2,0.1,2.1-0.6,2.2-1.9
						C285.8,220.7,285.1,219.9,283.7,219.7z"/>
					<path class="st3" d="M271.4,261.7c0.1-1.6,0.6-2.5,1.3-3.4c2-2.8,3.9-5.7,6.1-8.3c1.5-1.7,1.1-2.7-0.7-3.7
						c-0.9-0.5-1.7-1.1-2.5-1.7c-1.3-0.9-1.7-2.2-0.9-3.6c0.8-1.3,2.2-1.3,3.4-0.8c1.3,0.6,2.6,1.4,3.7,2.3c1.4,1.2,2.2,0.9,3.3-0.5
						c1-1.3,2.2-2.5,3.4-3.5c1.2-1,2.6-1.1,3.6,0.2c0.9,1.1,0.7,2.4-0.2,3.5c-0.2,0.2-0.4,0.4-0.6,0.6c-3.6,3.9-3.6,3.9,0.1,7.6
						c1.2,1.2,1.9,2.6,0.7,4.1c-1.3,1.6-2.9,1-4.3-0.1c-3.8-2.9-3.8-2.9-6.5,1c-1.7,2.4-3.4,4.9-5.1,7.4c-0.8,1.2-2,1.6-3.3,1.1
						C271.9,263.4,271.4,262.5,271.4,261.7z"/>
					<path class="st3" d="M390,191.4c3.7,0.2,7.2,1,10.4,2.8c5.8,3.1,7.9,7.9,6.4,14.4c-0.7,2.8-1.7,5.6-3,8.2
						c-1.2,2.4-2.3,4.8-2.4,7.7c-0.3,4.7-4,5.9-8.2,4.5c-2.1-0.7-5.6-0.5-7.8,0.3c-4.2,1.6-4,2.1-7.3-0.7c-0.2-0.2-0.5-0.2-0.7-0.3
						c-3.1-1.3-3.8-2.5-2.3-5.6c1-2.1,0.9-3.1-1.2-4.4c-2.4-1.4-2.8-4.1-2.4-6.8c1-6.9,4.3-12.4,9.5-16.9
						C383.5,192.3,386.6,191.4,390,191.4z M397.5,211.6c0-1.3-0.7-2.1-1.9-2.2c-1.4-0.1-3.2,2.2-3.3,4.1c-0.1,1.4,0.6,2.3,2,2.3
						C395.6,215.9,397.5,213.4,397.5,211.6z M386.5,215c-0.5-1.3-0.1-3.4-2.5-3.4c-1.7,0-2.1,1.2-2,2.6c0.1,1.6,0.5,3.2,2.5,3.3
						C385.9,217.6,386.5,216.5,386.5,215z M387.5,225.3c1.3-0.2,2.2-0.9,2.2-2.2c0-1.2-0.7-2-2-2.1c-1.4-0.1-2.2,0.7-2.3,2
						C385.3,224.4,386.2,225.1,387.5,225.3z M397.5,222.3c-0.2-1.4-1-2.1-2.4-2c-1.3,0.1-1.9,1-1.9,2.2c0.1,1.3,0.8,2,2.1,2
						C396.7,224.5,397.5,223.7,397.5,222.3z M381.1,221.3c-1.3,0.1-2.1,0.7-2.1,2c-0.1,1.4,0.8,2.2,2.2,2.2c1.2,0,2.1-0.7,2.1-2
						C383.3,222.1,382.4,221.4,381.1,221.3z"/>
					<path class="st3" d="M398,256.5c-1.1,0-1.9-0.5-2.7-1.2c-1.9-1.6-3.8-3.1-5.6-4.7c-1.3-1.2-2.2-1-3.4,0.2
						c-3.4,3.6-6.8,7-10.3,10.5c-0.6,0.6-1.1,1.2-1.7,1.8c-1.3,1.1-2.7,1.3-3.9,0c-1.1-1.1-1.1-2.5-0.1-3.7c1.4-1.7,3-3.4,4.6-5
						c2.3-2.3,4.5-4.7,7-6.9c1.6-1.4,1.1-2.1-0.4-2.9c-1.7-0.9-3.3-2-4.9-3c-1.5-1-3-2.1-1.8-4.1c1.1-1.8,2.8-1.3,4.3-0.4
						c2.1,1.2,4.3,2.4,6.2,3.9c1.7,1.4,2.9,1.1,4.4-0.2c1.9-1.6,4.1-2.9,6.3-4.3c1.1-0.7,2.3-1.1,3.6-1.1c1.5,0,3,0.4,3.3,2.2
						s-0.9,2.6-2.5,2.9c-2.9,0.5-4.9,2.6-7.2,4.2c-1.1,0.8-0.8,1.4,0.1,2.1c2.1,1.6,4.1,3.3,6.1,5c1.1,0.9,1.5,2.1,0.9,3.4
						C400,256.1,399.1,256.5,398,256.5z"/>
					<path class="st3" d="M330.5,289.5c6.9,0.6,13.4,2.5,16.9,9.2c3.6,7.1,2,14.1-1.4,20.9c-0.8,1.6-2.5,1.5-4,2
						c-3.5,1.1-6.1-0.2-9.3-1.1c-2.8-0.8-6.3,0.3-9.4,0.3c-1.6,0-3.1-0.2-4.2-1.4c-0.6-0.7-1.4-1-2.2-0.7c-1.2,0.4-0.2,1.2-0.3,1.8
						c-0.2,1.2-0.6,2.1-1.8,2.4c-1.5,0.4-2.5-0.4-3.1-1.6c-2.2-4.3-3-8.9-1.8-13.5c2.1-8.2,7.2-14.1,15.1-17.4
						C326.7,289.6,328.6,289.5,330.5,289.5z M335,315.9c1.3-0.1,2.1-0.7,2.6-1.6c0.8-1.2,1.5-2.5,2.2-3.7c0.6-1.2,0.5-2.3-0.7-3
						c-1.1-0.7-2.2-0.2-2.8,0.8c-1.1,1.6-2.2,3.1-2.9,4.9C332.6,314.8,333.5,315.7,335,315.9z M324.4,314.1c0-2.8-1.9-5.9-3.4-5.9
						s-2.1,0.9-2.1,2.3c0,2.2,2,5.3,3.4,5.3C323.9,315.8,324.4,314.9,324.4,314.1z"/>
				</g>
				<path class="st0" d="M509.5,219.2c0.2-5.5,3.9-2.9,3.6-2.4c1.5,1.3,5.6,12.4,5.3,11.3C518.3,227.4,509,237.8,509.5,219.2z"/>
				<path class="st0" d="M570.8,105.4c0.3-1.3,6.4-4.8,7.9-3.8c1.3,0.6,0,5.2-1,5.2C577.4,106.9,570.2,108.4,570.8,105.4z"/>
			</g>
		</g>
		<g id="Flowers_Dying_xA0_影像_3_">
		</g>
	</g>
</g>
<g id="pollution">
	<g>
		<g id="Board_N_Iron_Net_xA0_影像_2_">
			<g>
				<polyline class="st4" points="171,330.8 172.7,464.4 172,509.8 180.7,528.2 256,526.8 343.3,527.8 426.8,524.1 443,523.8 
					447,502.8 449.1,458.6 446,422.8 446.7,364.2 449.8,327.8 438,320.8 406,323.8 310,321.8 243,322.8 171,330.8 171,330.8 
					171,330.8 171,330.8 171,330.8 171,330.8 				"/>
				<g>
					<path class="st0" d="M514.1,530.6c0.6,1.3,1.6,2,2.4,2.8c5.1,5.1,10.4,9.9,14.9,15.5c9.7,12.1,7.7,25.7-5.1,34.6
						c-8.6,6-18.5,8.7-28.7,10.3c-11.4,1.8-22.8,0.7-34.3,0.9c-13.3,0.1-26.5-1.7-39.7-1.4c-9.6,0.2-19.3,0.3-28.9-0.1
						c-11.8-0.4-23.3,1.1-34.7,4c-13.1,3.3-26.6,4.9-40,6.6c-19.3,2.4-38.6,4.1-57.9,5.7c-16.6,1.4-33,0.2-49.3-2.7
						c-12-2.1-23.5-5.4-34.2-11.4c-4.5-2.6-8.6-5.8-11.8-9.9c-4.3-5.5-5.6-11.5-3.1-18.1c0.6-1.6,0.9-2.5-1.3-3.2
						c-12.9-3.7-25.9-6.3-39.3-6.9c-7.4-0.4-14.9-0.1-22-3.1c-7.9-3.4-15.6-7-21.1-14c-6.1-7.7-7.3-15.9-3.2-25.2
						c4.6-10.4,12.7-17.3,21.6-23.6c10.1-7.2,21.3-12.5,32.5-17.7c0.9-0.4,1.8-0.9,2.7-1.4c2.7-1.5,2.7-1.7-0.1-3.3
						c-3.8-2.1-8.1-2.6-12.3-3.1c-8.7-1-17.6-1.2-26.2-3.3c-6.2-1.6-12.3-3.3-17.8-6.6c-12.5-7.4-14.6-20.8-5.1-31.9
						c5.3-6.2,12-10.5,19-14.4c3.6-2,7.2-3.8,10.9-5.6c2.8-1.4,2.8-1.4,0.4-3.3c-5.9-4.7-9.9-10.5-9-18.5c0.7-6.5,4.7-11.3,9.5-15.4
						c2.8-2.4,5.7-4.6,9-6.1c9.3-4.1,17.3-10.7,27.2-13.5c3.6-1,7.2-1.9,10.8-2.9c1.5-0.4,2.9,0,4.2,0.6c4.9,2.4,10,3.7,15.5,3.4
						c2.1-0.1,1.3,1.4,1.3,2.2c-0.3,10.3-0.2,20.5,0.1,30.8c0.2,7.5,0.9,15.1,0.7,22.6c-0.4,15.4,0.2,30.9-0.8,46.3
						c-0.3,4.9,0.3,9.6,1.8,14.2c1.6,4.9,1.4,10,1.3,15.1c-0.3,7.3-1.4,14.4-2.4,21.6c-1.3,9.6,3.3,17.3,10.4,23.4
						c2.9,2.5,7,2.4,10.7,2.2c15.1-1,30.1,0.1,45.2,0.6c4.6,0.1,9.2,0.8,13.7-0.9c4.2-1.5,8.5-0.1,12.7,0.2
						c11.2,0.7,22.3,0.6,33.5,0c1-0.1,2-0.1,3-0.1c16.5,0.1,33.1-0.9,49.6,0c4.3,0.2,8.1-0.6,11-4.2c0.9-1.1,2.1-0.8,3.3-0.8
						c14.1,0.2,28.1,1,42.2,1.7c6.7,0.3,13.4,0.6,20.1,1c1.6,0.1,3.1,0.9,4.8,0.6c2.8-0.6,5.3-1.3,7.1-3.9c1.5-2.1,3.8-3.6,6-5.1
						c0.6-0.4,1.7-0.8,1.3-1.5c-1.4-2.3,0.5-3.1,1.6-4.4c2.2-2.6,3-5.8,3.4-9c1.2-8.7,0.9-17.4,0.4-26.1c-0.1-1.3-0.2-2.5-0.2-3.8
						c-0.1-2.5,0.2-5-1.3-7.4c-0.9-1.4-0.9-3.1-0.9-4.8c0.1-18-1.2-35.9-2.6-53.9c-1-13.5-0.3-27,0.1-40.6c0.2-6,0.1-12,0.2-18
						c0-4.5,0-4.5,4.3-3.5c8.2,1.8,16.2,2.4,24.3-1c5.1-2.2,10.7-2,16.1-1c4,0.7,7.9,2,12,2.5c10.8,1.5,21.5,3,32.5,2.2
						c8.4-0.6,16.9,0.3,25.3-0.3c13.1-0.9,26,0.4,38.7,2.5c13.2,2.2,19.5,13.7,11.4,25.7c-4.9,7.3-12.4,11-20.1,14.3
						c-14.9,6.5-30,12.5-44.6,19.6c-7.8,3.8-15.1,8.4-20.8,15.2c-4.6,5.5-5.1,14.3-0.8,19c2.3,2.6,5.4,4.2,8.8,5.3
						c7.1,2.4,14.2,4.7,20.2,9.3c6.6,5,12.5,10.6,15.5,18.6c5.8,15.4-0.2,31.6-14.9,40.3c-10.6,6.2-22.2,9.9-33.8,13.6
						C518.7,529.2,516.4,529.9,514.1,530.6z"/>
					<path class="st0" d="M229.7,429.5c-0.2-11.6,0.9-23.1,6.1-33.7c3.7-7.7,8.6-14.7,13.9-21.4c10.2-13.1,23.6-21.7,39.1-26.5
						c13.3-4.1,27.1-7.5,41.4-6c6.2,0.7,12,2.9,17.8,4.9c9.7,3.3,18.8,7.7,26.8,14.2c3.5,2.9,5.9,6.6,8.4,10.3
						c8.3,12.3,12.7,25.9,13.3,40.6c0.3,6.4-0.5,12.7-2.5,19c-4.2,13.9-10.9,26.5-20,37.8c-2.3,2.9-5.2,5-8.1,7.2
						c-14.6,11.1-31.5,16.4-49.2,20.2c-21.2,4.5-40.7,0.5-58.7-10.9c-18.8-12-28.4-29.5-28.3-52.1
						C229.7,431.9,229.7,430.7,229.7,429.5z"/>
					<path class="st5" d="M227.1,594.5c-7.8,0.3-17.3-0.4-26.4-3.9c-2.9-1.1-5.7-2.5-8-4.6c-3-2.8-3.5-5.5-1.8-9.3
						c1.4-3,3.3-5.6,5.1-8.3c1.7-2.5,3.2-5.1,4.2-7.9c2.4-6.7,0.9-11.3-5.1-15.2c-5.1-3.3-10.9-5-16.7-6.4
						c-11.2-2.6-22.6-3.4-33.9-4.9c-9.6-1.3-19.3-2.2-28.6-4.9c-1.6-0.5-3.1-1.1-4.5-1.8c-5.7-3.1-7.6-7.6-5-13.5
						c5.1-11.6,13.7-20,25.3-25.2c3.1-1.4,6.4-1.4,9.6-0.7c1.3,0.3,2.1,1.1,1.8,2.6c-0.3,1.4-1.4,1.7-2.5,1.5
						c-5.7-1.2-10.1,1.5-14.3,4.6c-6,4.5-11.2,9.8-14.6,16.6c-3,5.9-1.7,8.8,4.5,11c7.2,2.5,14.7,3.1,22.1,4.3
						c14.7,2.2,29.6,2.9,44.1,6.6c6.5,1.7,12.9,3.9,18.1,8.4c5.2,4.4,6.3,10,4.9,16.3c-1,4.3-3.3,8.1-5.7,11.7
						c-1.2,1.8-2.5,3.6-3.6,5.5c-2.2,3.7-1.9,5,1.9,7.3c4.5,2.7,9.5,4,14.6,4.8c11.1,1.9,22.3,0.9,33.4,0.2
						c7.4-0.5,14.9-0.8,22.3-1.3c10.8-0.6,21.5-1.8,32.2-3c8-0.9,16-2,24.1-2.4c4-0.2,8-0.6,11.9-0.8c1.8-0.1,3.8-0.2,3.9,2.2
						c0.2,2.3-1.7,2.5-3.4,2.5c-13.5,0.4-26.9,2.2-40.3,3.7c-12.2,1.4-24.4,2.5-36.6,3C249.7,593.4,239.3,594.6,227.1,594.5z"/>
					<path class="st5" d="M548.9,478.4c-0.1,3.3-1.9,5.6-4.4,7.5c-4.6,3.5-9.9,5.3-15.2,7.1c-13,4.4-26,8.9-37.8,16.1
						c-7.1,4.3-14.3,8.4-20.2,14.3c-0.6,0.6-1.2,1.2-1.6,1.8c-1.7,2.3-1.6,3.3,0.7,4.9c2.8,1.9,5.9,3.2,9.1,4.3
						c6.9,2.4,14,4.6,20.9,7.1c5.1,1.8,9.8,4.3,13.6,8.3c4.5,4.8,3.7,11.1-1.8,14.6c-3.2,2-6.8,3-10.4,4c-3.4,0.9-6.8,1.9-10.2,2.8
						c-1.6,0.4-3.5,0.9-4.2-1.2c-0.8-2.4,1.3-2.9,3-3.4c5.1-1.5,10.3-2.9,15.4-4.5c2.8-0.9,5.9-1.8,6.4-5.2c0.5-3.5-2.4-5.1-4.8-6.7
						c-5-3.6-10.9-5.3-16.7-7.2c-6.6-2.1-13.2-4-19.4-7.1c-9.1-4.6-10-9.4-2.7-16.5c7-6.8,15.4-11.5,23.7-16.3
						c10.8-6.2,22.4-10.3,34.1-14.2c4.7-1.5,9.3-3.1,13.6-5.6c2.2-1.3,4.7-2.7,4.3-5.7c-0.4-2.9-3-3.9-5.4-4.8
						c-2.1-0.8-4.3-0.6-6.5-0.7c-1.1,0-1.9-0.6-2-1.8c-0.1-1.1,0.5-1.6,1.5-2c5.1-2.1,14.5,1.9,16.5,7
						C548.8,476.4,549,477.4,548.9,478.4z"/>
					<path class="st5" d="M581.1,358.7c1.5,0,3.1-0.1,4.5,0.8c2.5,1.8,2.7,4.9,0.3,7.6c-1.9,2.2-4.3,3.5-6.9,4.8
						c-9.4,4.5-19.5,7.4-29.2,11.3c-14.9,5.9-30.1,11.3-44,19.6c-5.1,3.1-10.1,6.4-14.3,10.9c-4.7,5.1-4.5,8.4,1.2,12.5
						c3.4,2.5,6.8,4.9,10.1,7.4c0.9,0.6,1.6,1.4,2.3,2.3c0.7,1,0.7,2.1-0.3,3c-0.9,0.9-2,1-2.9,0.1c-4.4-4-9.6-6.8-14.1-10.7
						c-5-4.3-5.8-9.5-2-14.9c4.4-6.2,10.7-10.3,17-14.2c13.2-8.1,27.6-13.4,41.9-18.9c9.8-3.8,19.8-7.3,29.6-11
						c2.8-1.1,5.6-2.3,7.7-4.5c0.4-0.4,0.9-0.7,0.6-1.4c-0.3-0.6-0.9-0.6-1.4-0.5c-1.5,0.3-3,0.6-4.5,0.9c-1.1,0.2-2.3,0.2-2.7-1.1
						c-0.5-1.3,0.2-2.3,1.4-2.8C577.3,358.9,579.2,358.6,581.1,358.7z"/>
					<path class="st5" d="M142.1,370.9c-2-0.3-3.8,0.4-5.4,1.1c-5,2.4-9.6,5.5-13.2,9.9c-3.3,4-3,6.1,1.1,9.3c2.7,2,5.5,3.9,8.2,5.9
						c2.3,1.7,4.2,3.8,5.4,6.4c1.6,3.3,1.1,6.3-1.4,9c-2.7,2.8-6.2,4.4-9.7,5.8c-8.5,3.6-17.5,6.2-25.6,10.7
						c-3.2,1.8-6.2,3.8-8.4,6.8c-2,2.7-1.6,4.4,1.4,5.9c4.6,2.2,9.7,3,14.7,3.8c2.5,0.4,5,0.7,7.5,1.1c1.5,0.2,2.4,1.1,2.2,2.6
						c-0.2,1.3-1.2,2-2.6,1.9c-8.2-0.9-16.5-1.6-24.1-5.2c-5.6-2.7-6.7-7.6-3.1-12.6s8.9-7.9,14.3-10.5c7.1-3.4,14.7-5.8,22-8.8
						c2.6-1.1,5.2-2.2,7.3-4.1c1.8-1.5,1.9-3.1,0.7-5c-1.7-2.7-4.2-4.5-6.7-6.3c-2.6-1.9-5.3-3.5-7.6-5.8c-3-3.1-3.6-7.1-1.3-10.7
						c5.1-7.9,12.5-12.7,21.5-15.3c1.3-0.4,2.7-0.2,4,0.2c1.2,0.4,2.3,0.9,2.1,2.4s-1.3,1.8-2.6,1.7
						C142.6,370.8,142.3,370.9,142.1,370.9z"/>
					<path class="st5" d="M298.2,477.2c-5.2,0.1-9.9-0.6-14.6-1c-2.2-0.2-2.2-0.9-1.1-2.4c6.2-8.3,12.2-16.8,18.4-25
						c14.4-18.8,29.5-37,44.4-55.5c3.8-4.7,7.5-9.6,11.2-14.4c1.5-2,2.6-2.4,4.7-0.5c8.4,7.7,15,16.8,20.4,26.7
						c1.4,2.5,0.8,5.4,0.6,8c-1.5,20.2-11.7,34.8-27.9,46.7c-13.3,9.8-28.1,13.9-43.9,16.2C306.3,476.7,302.1,477.5,298.2,477.2z"/>
					<path class="st5" d="M248.1,434.4c0.7-11.5,2.5-22.7,7.8-33.1c2.6-5.2,6.9-8.9,11.1-12.6c9.8-8.9,21.8-13.8,33.9-18.8
						c6.4-2.6,12.7-5.3,19.6-6.3c7.6-1.1,14.8-0.3,21.6,3.6c1.3,0.7,1.7,1.2,0.5,2.5c-6,6.9-11.7,13.9-17.7,20.7
						c-16.9,18.9-33.4,38-48.7,58.2c-4.4,5.8-8.5,11.8-12.2,18c-1.1,1.8-1.8,1.8-3.2,0.4c-6.5-6.4-9.8-14.5-11.9-23.2
						C248.2,440.8,248.2,437.6,248.1,434.4z"/>
				</g>
				<g>
					<path class="st3" d="M386.7,613.6c-5.2,1-9,0.2-12.1-3.8c-2.7-3.4-5.9-6.4-9.2-9.3c-1.3-1.2-2.2-1.1-3.7-0.3
						c-6.8,3.7-13.5,7.6-20.1,11.6c-3.3,2-6.8,0.3-10.2,1c-0.1-0.2-0.1-0.4-0.2-0.7c1.8-1.2,3.5-2.4,5.3-3.6
						c6.6-4.2,13.2-8.3,20.2-11.8c1.5-0.7,2.8-1.2,0.9-3.1c-1.6-1.6-1.8-3.8-0.6-5.8c0.7-1.3,0.7-2-0.8-2.7
						c-11.1-4.9-20.9-12.5-32.5-16.5c-1.8-0.6-3.3-1.9-4.5-3.4c-0.8-1.1-1.4-1.2-2.6-0.3c-7.2,6-15,11.1-22.9,16.3
						c-3.2,2.1-6.2,4.5-8.6,7.5c-1,1.2-1.1,2.1,0.5,3c1.4,0.7,2.6,1.7,3.6,2.9c1.4,1.8,1.9,3.9,0.4,5.7c-1.1,1.3-0.6,2,0.4,2.9
						c3.4,3.1,7,5.7,10.8,8.3c0.5,0.3,1.2,0.4,1.3,1c-7,2.1-12.3-0.9-16.7-6c-1.7-2.1-3.4-2.2-5.9-1.5c-6.6,2-13.1,4.2-19.4,7.1
						c-3.7,1.8-7.8,0.3-11.9,0.7c0.5-1.3,1.5-1.5,2.2-1.9c8.4-4.8,17.2-8.6,26.6-11c1.8-0.5,2-0.9,1.6-2.9c-0.6-3.2-2.6-4.4-5.2-5.6
						c-9.1-4.2-18.5-7.5-28.2-10c-6.4-1.7-12.8-3.5-18.2-7.8c-0.7-0.5-1.3-0.8-2.2-0.3c-7.4,4.3-15.1,7.9-21.8,13.4
						c-1.7,1.4-3.2,2.4-1.5,5.2c1.5,2.5,0.7,5.6-0.4,8.2c-0.9,2.1-0.4,3.1,1.3,4.2c2.9,1.9,5.7,3.8,8.6,5.8
						c-4.1,0.8-9.9-0.3-13.3-2.4c-0.6-0.4-1.1-0.9-1.7-0.2c-2.8,3.4-6.5,1.4-10,1.5c1.8-1.6,3.6-3.2,5.4-4.8
						c0.9-0.8,1.5-1.5,0.6-2.7c-1.6-2.4-1.7-5.2-0.9-7.9c0.5-1.5,0-1.8-1.3-2.2c-8.2-2.8-16.1-6.1-23.8-10.2
						c-4.4-2.4-9-4.3-13.6-6.2c-2.1-0.9-4.2-1.8-5.9-3.3c-1.4-1.3-2.3-1.1-3.6,0.1c-6.9,6.5-13.8,12.9-20.7,19.4
						c-3.5,3.3-7.3,6.3-10.4,10c-1.4,1.6-2.2,2.8,0.2,4.2c1.1,0.6,1.9,1.7,2.3,3.3c-3.7,0.2-7.4,0.5-11,0.6c-0.8,0-1.2-0.7-1.8-1.1
						c-2.4-2.1-4.8-4.2-7.2-6.3c-1-0.8-1.9-1.7-2.1-3.1c-0.2-1.6-1.7-2.3-2.8-3.1c-9.4-6.9-16.4-16-23.2-25.1
						c-5.4-7.2-4.5-14.6,0.5-21.8c3.9-5.7,9.1-10.1,14.5-14.3c3.3-2.5,6.4-5.1,9.4-7.9c0.6-0.6,1.6-1.1,0.6-2.2
						c-4.3-4.7-2.9-9.5,0.5-13.8c1.7-2.2,1.4-3.2-0.5-5c-6.9-6.3-13.3-13.2-19.3-20.3c-6.8-7.9-7-19.5-0.2-27.7
						c8-9.6,16.7-18.2,26.3-26.1c2.2-1.8,3.1-3.3,1.4-6.2c-1.9-3.2-1.2-6.8,0.8-9.8c1.4-2.2,0.8-3.4-0.6-5.1
						c-6.5-8-14-14.7-22.7-20.2c-1.8-1.2-3.6-2.4-5.3-3.8c-3.6-3.1-3.9-6.2-0.9-9.9c6.4-7.9,13.9-14.8,20.6-22.6
						c2.4-2.8,5.1-5.5,7.5-8.3c2.2-2.7,5.4-4.2,8-6.4c0.9-0.7,2.2-0.9,3.1-0.1c1.4,1.3,2.3,0.7,3.5-0.2c3.1-2.3,6-4.8,9.7-5.9
						c1.1-0.3,1.1-0.8,0.6-1.8c-0.9-1.6-0.6-3.2,0.7-4.4c1.2-1,1.2-1.6-0.1-2.6c-4.4-3.4-4.5-6.1-0.5-10.1c2.4-2.4,2.5-4.4,0.3-7
						c-0.6-0.8-1.3-1.5-1.9-2.3c-3-4.2-2.9-7,0.7-10.6c1.4-1.4,2-2.3,0.5-4.2c-2-2.5-1.5-4.8,1.5-7.9c1.4-1.4,2-2.3,0-3.7
						c-1.4-1-2-2.5-0.7-4c1.2-1.4,2.7-0.9,3.9,0.2c1.9,1.8,3.5,2.4,5.8,0.5c1.1-1,2.6-1,3.7,0.3c1.1,1.3,0.7,2.6-0.5,3.6
						s-1.4,1.7-0.4,3.1c1.8,2.4,0.8,4.8-1,6.6c-2,2-2.4,3.4-1.1,6.3c1.8,3.9,1.1,8.4-1.2,12.3c-1.3,2-1.1,3.2,1,4.3
						c2,1,4,2.2,5.7,3.8c2.8,2.6,2.7,5.5-0.2,7.9c-0.1,0.1-0.3,0.2-0.4,0.3c-2.8,1.5-4.6,3.1-2.3,6.8c1.6,2.6,0.4,4.5-2.5,5.9
						c-9.1,4.4-17.7,9.7-26.9,13.8c-3.1,1.4-3,2.3-0.2,4.4c2.2,1.7,4.6,2.6,7.2,3c6.8,1,13.5,2.8,20.2,4.4
						c7.4,1.7,15.1,2.3,22.4,4.4c1.1,0.3,1.6-0.5,2.3-1.1c2.5-2.3,4.8-5,8.4-5.7c1-0.2,0.9-1,0.9-1.7c-0.5-5.1,0.2-10.3-1-15.4
						c-1.8-7.7,1.9-13.6,9.5-16c8.7-2.8,17.7-3.9,26.8-4.8c16.3-1.5,32.6-2.6,49-2.7c1.5,0,2.2-0.7,2.6-1.9c0.5-1.4-0.9-1.3-1.5-1.8
						c-0.8-0.6-1.7-1.1-2.5-1.6c-5.2-3.6-6-7.3-2.6-12.8c0.4-0.6,0.7-1.3,1.2-1.8c1-1.4,0.9-2.3-1-2.6c-0.6-0.1-1.2-0.4-1.8-0.7
						c-1.4-0.7-2.5-1.8-1.8-3.5c0.7-1.7,2.2-1.8,3.7-1.1c1.3,0.6,2.1,0.6,3.2-0.8c1.3-1.7,3.5-1.1,4.3,1c0.5,1.4,1.3,2.2,2.7,2.6
						c3.5,1.2,4.4,3.9,2.5,7.1c-0.8,1.4-2,2.6-2.9,3.9c-0.9,1.2-2.1,2.3-2.7,3.9c2.1,1,4.9,0.5,6,3.1c1.1,2.5-1.1,4.4-1.5,7
						c1.2,0,2.1,0,3.1,0c25.3,0,50.5,0,75.8,0.1c5.2,0,10.4,0.3,15.5,0.5c1.4,0.1,2.2-0.3,3.1-1.6c2.1-3.3,5.8-4.6,9-6.3
						c1.6-0.8,2.5-1.3,0.4-2.8c-2-1.5-3.3-3.8-5.6-5.3c-2.3-1.5-1.6-4.1,0.8-5.4c0.2-0.1,0.3-0.2,0.5-0.2c4-0.5,7.6-1.8,10.8-4.3
						c1.1-0.8,2.6-0.5,3.3,0.9c0.7,1.3,0.3,2.5-0.9,3.3c-0.8,0.6-1.6,1.2-2.8,2c1.8,0.5,3.2,0.8,4.6,1.3c4.3,1.6,5.1,5.3,1.7,8.4
						c-1.1,1.1-1.5,2-1.3,3.5c0.3,1.7,0.3,3.5-0.5,5.1c-0.6,1.2-0.3,1.7,1.1,1.8c16.2,0.6,32.3,1,48.5,0.2c4.4-0.2,8.7-0.3,13.1-0.2
						c5.1,0.1,7.8,2.8,8.3,7.9c0.1,1.2,0.3,2.4,0.1,3.5c-1.9,10.9-0.8,21.7-0.5,32.6c0.1,4.2,0,8.3,0,12.5c1,0.2,1.3-0.5,1.5-1
						c5.4-9.3,13.9-15.5,21.9-22.2c2.2-1.8,4.4-3.5,6.7-5.2c0.7-0.5,1.7-1,0.9-2.2c-3.7-5.9-1.1-10.9,2.2-15.9
						c0.2-0.3,0.5-0.6,0.6-0.9c0.5-0.9,2-1.5,1.6-2.6c-0.5-1.3-1.8,0.2-2.7-0.2c-2-0.9-4.1-1.7-6.3-2.2c-1.7-0.3-1.7-2.9-0.1-3.9
						c2.2-1.4,3.5-4,6-5c1-0.4,0.7-0.9,0-1.6c-3.2-3.2-3.2-3.3,0.5-5.3c0.9-0.5,0.4-1.1,0.5-1.6c0.4-2.1,1.7-2.7,3.6-2.2
						c5.1,1.3,6.8,3.9,5.7,9.1c-0.4,1.8,1.3,2.2,2.1,3.1c0.8,0.9,1.4-0.2,2-0.7c1.5-1.3,3-2.6,4.5-4c0.6-0.5,1.2-1,1.1-2
						c-0.2-2.2,0.9-3,2.9-2.8c1.9,0.2,3.2,2,2.9,3.9c-0.2,1.2-0.9,2.2-1.7,3c-1.2,1.2-2.4,2.6-3.8,3.5c-4.7,2.6-5.1,7.5-6.5,11.9
						c-0.1,0.2,0,0.6,0,0.8c2.4,6.2-0.4,10.8-4.6,14.9c-2,1.9-1.7,2.9,0.3,4.3c3.5,2.6,6.7,5.6,9.8,8.7c5.1,5.2,10.7,9.8,16.8,13.8
						c7.3,4.7,13.4,10.8,20.2,16.2c0.7,0.6,1.3,1.3,1.9,2c3,3.5,2.9,3.4,6.9,1.3c12.8-6.7,25.3-14,38.6-19.7c1-0.4,1.9-1,2.9-1.5
						c1.3-0.6,1.6-1.3,0.6-2.4c-2.1-2.5-4-5-3-8.6c0.3-1-0.8-1.1-1.3-1.4c-4.2-2.5-5.6-5.7-4-10.4c0.6-1.8,0-2.3-1.3-3.1
						c-3.8-2.2-4.4-4.4-2.7-8.4c0.2-0.4,0.6-0.9,0.5-1.2c-0.6-4.5,0-8.7,2.9-12.3c0.6-0.8-0.3-1.3-0.8-1.8c-1.1-1.3-1.8-2.7-0.5-4.1
						s2.7-0.8,3.8,0.3c0.9,0.9,1.6,0.9,2.4,0c1.5-1.7,3.5-1.5,5.3-1.1c2.3,0.4,2.9,4.1,1,6c-0.6,0.6-1.3,0.9-2.1,1.4
						c0.4,0.6,0.7,1.2,1.1,1.8c2.2,3.9,1.4,6.9-2.6,9.1c-1.7,0.9-2.5,1.5-0.5,3c1.8,1.4,2.8,3.4,2.2,5.8c-0.3,1.2,0.4,1.6,1.1,2.2
						c3.2,2.6,4.8,5.9,4.1,10.1c-0.2,0.9,0.2,1.5,0.9,2.1c4.1,3.5,6.2,7.4,3,12.6c-0.7,1.2,0.4,1.8,1,2.5
						c6.9,7.3,13.4,14.8,21.9,20.4c2.3,1.5,4.2,5.2,6.5,4.8c1.9-0.3,3-4.1,4.6-6.4c7.1-10,16.1-18,25.6-25.5
						c1.4-1.1,2.4-1.9,0.9-3.8c-1.6-2.2-0.8-4.5,0.8-6.5c1.4-1.8,3.4-3,5.3-4.4c-0.9-0.5-1.6-0.9-2.3-1.3c-2.7-1.6-3.6-4.6-1.7-7
						c1.8-2.3,1.6-3.9,0.3-6.4c-1.8-3.4-0.7-6.9,1.8-10c-0.6-0.3-1-0.6-1.5-0.8c-1.2-0.7-1.6-1.7-1.2-3c0.5-1.4,1.7-1.9,2.8-1.5
						c3,1.2,5.2,0.4,7.5-1.7c1.6-1.4,3.6-0.7,4.9,0.7c1.3,1.5,1,3-0.9,4c-1,0.5-0.1,0.8,0.1,1.2c3,3.5,3,5.3,0.3,9.1
						c-0.1,0.1-0.2,0.3-0.3,0.4c-0.8,1.2-2.6,2.1-2.5,3.4c0.1,1.2,2.2,1.3,3.2,2c2.9,2,3.8,4.6,2.8,8.1c-0.2,0.5-0.5,1.1-0.4,1.5
						c1.6,4-0.8,6.5-3.3,9.1c-0.6,0.7-1.3,1.3-2,1.9c-3.7,3.4-3.7,3.4-0.1,6.6c7.1,6.1,14.2,12.2,22.4,16.8
						c8.8,4.9,15.5,12.3,22.2,19.6c4.1,4.4,4.1,11.5,0.6,17c-0.9,1.4-1.9,2.7-3.1,3.8c-10.7,9.9-18.8,22.2-30.4,31.1
						c-0.9,0.7-1.3,1.4-0.8,2.6c1.4,3.3,0.1,6.8,0.5,10.2c0.2,1.6-1.1,2.5-2.7,2.3c-1.3-0.2-2.2,0.3-3.2,1
						c-11.9,9.3-24.3,17.9-37.2,25.8c-2.5,1.5-4.9,3-3.3,6.5c0.2,0.4,0.2,1,0,1.3c-1.5,3.6,1,5.2,3.3,7
						c14.3,11.1,26.5,24.3,38.6,37.6c2.9,3.2,4,7.5,6.3,11.1c1.3,2.1-0.4,4.2-1.9,5.8c-2.6,2.9-5.8,5.1-9.2,6.7
						c-10,4.7-19.3,10.4-29,15.7c-4.7,2.6-9.6,4.7-14.5,7c-1.6,0.7-2.5,1.7-1.8,3.6c0.3,0.7,0.4,1.8,0.1,2.4c-1.7,3,0.6,4.2,2.3,5.7
						c2.7,2.4,5.5,4.8,8.1,7.5c-3.4,0-7,1.5-10-1.7c-1.4-1.5-3.2-2.7-4.7-4.2c-1-1-1.8-1.1-3.1-0.4c-3.2,1.9-6.6,3.5-9.6,5.7
						c-4.1,2.9-8.6,2.8-13.3,3c-0.1-1.2,0.9-1.4,1.4-1.9c5.4-4.2,11.4-7.4,17.4-10.7c1.4-0.8,2.4-1.5,1.6-3.4
						c-0.4-1-0.3-2.3,0.4-3.1c1.6-1.9,0.3-3.1-0.9-4.4c-5.9-6.6-13.5-11-21.1-15.2c-6.5-3.6-13-7.2-19.5-10.9c-1-0.5-1.7-1-2.9-0.2
						c-8.7,6.3-18.3,10.8-28.5,14.1c-0.5,0.2-1,0.4-1.5,0.5c-3.2,1-5.7,2.3-6,6.3c-0.2,2.4-1.7,4.6-3,6.6c-1.1,1.5-0.9,2.4,0.7,3.4
						c4.4,2.9,8.7,6,13,9c3.4,2.3,6.2,5.2,9.3,8.7c-4,0.1-7.2,0.5-10.5-2.3c-4.8-4.1-10.3-7.4-15.5-11.2c-1-0.7-1.7-0.7-2.5,0.3
						c-2.9,3.5-6.3,6.7-8.9,10.3c-2.5,3.6-5.7,3.5-9.9,2.9c3.2-3.7,6.1-7.2,9-10.6c2-2.3,3.9-4.5,5.9-6.8c0.8-0.9,1-1.7,0.5-2.9
						c-2.2-5.7-1.2-8.9,3.8-12.4c2.7-1.9,2.7-2.1,0.3-4.3c-3.2-3-6.9-5.3-10.7-7.5c-11.8-6.8-23.1-14.1-32.4-24.2
						c-0.9-0.9-1.5-0.9-2.5-0.2c-9.2,7-18.5,13.8-27.4,21.2c-1.2,1-2.3,2-3.3,3.2c-1.7,1.9-3,3.8-1.2,6.7c1.4,2.3,0.9,5-0.6,7.2
						c-1,1.5-0.8,2.5,0.3,3.8c6.8,8.1,12.6,16.9,20,24.5c0.2,0.2,0.3,0.6,0.7,1.1c-4.3,0.4-7.8,0.3-10.6-3.7
						c-4.4-6.3-9.5-12.1-14.2-18.3c-1.2-1.6-2-1.5-3.7-0.6c-10.2,6-19.9,12.7-28.7,20.7c-2.3,2.1-5.4,0.4-8.1,1
						c-0.1-1.2,0.8-1.6,1.3-2.1c9.1-8.9,19.1-16.5,30.1-22.8c1.1-0.6,2.1-1.4,3.2-2c1.4-0.7,2-1.7,1.5-3.3c-0.2-0.7-0.3-1.5,0-2.2
						c1.5-3.8-0.8-5.2-3.5-7.1c-7.6-5.3-16.3-8.4-24.5-12.4c-2.7-1.3-5.3-2.8-7.9-4.3c-1-0.5-1.7-0.8-2.7,0
						c-8.8,7.5-19.4,12.1-29.1,18.1c-3.7,2.3-7.5,4.4-10.9,7.2c-1.2,1-1.5,1.8-0.6,3.2c1.2,2,1.5,4.4,0.9,6.6
						c-0.5,1.6,0.2,2.3,1.2,3.2C375.4,601.6,380.3,608,386.7,613.6z M323.2,324.4c-32.5,0.4-72-1.5-111.3,2
						c-10.3,0.9-20.7,1.6-30.7,4.3c-7.1,1.8-7.3,2.2-7.3,9.4c0.1,19.6,0.9,39.3,0.4,58.9c-0.9,32.5,1.5,65.1,0.9,97.6
						c-0.1,7.7,1.1,15.2,3.2,22.6c0.7,2.3,1.8,3.4,4.2,3.7c10.9,1.6,21.8,1.2,32.7,0.6c15.5-0.9,31.1-1.1,46.6-0.3
						c24.8,1.2,49.6,0,74.4-0.7c16.9-0.5,33.8-1.9,50.7-1.3c15,0.5,30,0.9,45,0c9.2-0.5,10.1-1.1,11.5-10.2
						c2.9-18.3,3-36.7,2.5-55.2c-0.7-24.6-2.4-49.2-1.9-73.8c0.3-12-0.1-24,0.1-36c0.1-5.4,0.9-10.9,0.1-16.3
						c-0.6-4.2-0.8-4.5-5.2-4.4c-8.2,0.2-16.3,0.5-24.5,0.6C386.5,326.2,358.3,324.4,323.2,324.4z M534,500.8
						c6.2,4.6,11.7,9.4,16.8,14.8c5.6,5.9,11,12.1,17,17.7c3.3,3.2,6.4,6.8,8.5,10.9c1.2,2.3,2.1,2.2,4.1,1
						c12.2-7.1,23-16.2,34.9-23.7c5.1-3.2,9.4-7.4,13.7-11.6c0.9-0.9,1.1-1.6,0.5-2.8c-1.1-2.4-1.1-4.8,0.4-7
						c0.8-1.3,0.4-2.1-0.4-3.2c-3.2-4.4-7.1-8.3-11.3-11.7c-6-4.8-11.7-9.8-17.1-15.2c-3.8-3.9-8.3-6.8-12.7-9.8
						c-0.8-0.5-1.4-0.7-2.2,0c-5.7,5.1-12.9,7.7-19.5,11.3c-9.2,5.1-19,9.1-27.6,15.3c-0.9,0.6-1.9,0.9-1.4,2.4
						C539.2,493.7,537.9,497.6,534,500.8z M680.6,562c-1.5-2.7-2.8-6-4.9-8.5c-12.3-14.1-25.4-27.5-40.2-39.1
						c-1.6-1.2-2.4-1-3.6,0.3c-3.3,3.5-6.8,6.9-10.8,9.5c-13.2,8.5-25.4,18.5-39.1,26.3c-1.4,0.8-1.8,1.6-1.3,3.3
						c0.7,2.2,1.2,4.5,0.4,6.7c-0.5,1.6,0.1,2.3,1.4,3c6.1,3.4,12.2,6.8,18.3,10.2c7.8,4.4,15.5,8.7,21.7,15.3
						c3.5,3.7,3.6,3.6,8.1,1.3c6.6-3.3,13.5-5.9,19.7-9.9c6.5-4.2,13.4-7.6,20.4-11c2.9-1.4,5.4-3.3,8-5.1
						C679.6,563.8,680.3,563.3,680.6,562z M454.4,385.7c-0.5,7.6,2.5,13.5,6.1,19.2c6.7,10.6,15.8,18.6,26.6,24.9
						c1.7,1,3,1.2,4.8,0.4c6.1-2.7,12.2-5.2,18.8-6.4c8-1.5,14.8-5.3,21.4-9.6c1.2-0.8,1.3-1.3,0.7-2.6c-2.4-4.8-1.8-7.6,1.8-11.6
						c3.6-3.9,3.6-4.1-0.2-7.8c-0.3-0.3-0.7-0.6-1-0.9c-7.8-6-15-13-23.5-18.1c-3.1-1.9-5.8-4.4-8.4-6.9c-4.9-4.8-9.7-9.6-15.1-13.7
						c-0.9-0.7-1.4-1.5-2.7-0.5c-8,6.3-16.3,12.3-23.1,19.9C456.9,375.8,452.8,380,454.4,385.7z M715.2,412.2c0.2-2-0.4-3.9-1.8-5.3
						c-5.9-6-11.3-12.6-18.7-17c-8-4.7-15.6-10-22.5-16.3c-2-1.8-4-3.5-5.9-5.2c-0.8-0.7-1.4-1.2-2.6-0.3c-11.4,9-22.3,18.4-29.9,31
						c-1.4,2.3-1.2,3.7,0.6,5.5c3.4,3.3,6.1,7.1,5.5,12.2c-0.1,0.8,0.2,1.4,0.8,1.9c4.3,3.5,8,7.7,11.9,11.6
						c7.6,7.8,16.3,14.1,25,20.6c1.7,1.3,2.5,1.1,4-0.1c11.6-9.2,19.9-21.6,30.7-31.7C714.2,417.3,715,414.8,715.2,412.2z
						 M573,549.8c-0.2-0.4-0.4-0.9-0.6-1.4c-1.2-2.5-2.7-4.7-4.6-6.7c-6.9-7.4-13.8-14.6-20.7-22c-5.1-5.5-10.7-10.3-16.8-14.7
						c-1.4-1-2.5-1.3-4.2-0.4c-11.4,6.2-22.7,12.6-32.9,20.8c-1.6,1.2-2.1,2-0.4,3.7c2.7,2.9,3.9,6.9,1.6,10.3
						c-2.2,3.3-0.9,5,1.5,6.9c0.6,0.5,1.1,1,1.6,1.5c6.7,6.6,14.5,11.8,22.5,16.6c6.8,4.1,14.1,7.6,19.1,14.2
						c0.6,0.8,1.2,0.5,1.9,0.2c4.2-1.6,8.3-3,12.5-4.7c6.2-2.4,12-5.6,17.6-9.2c0.9-0.6,1.8-1,0.8-2.5c-2.8-3.9-2.7-6.6,0-10.4
						C572.3,551.3,573,550.8,573,549.8z M169.7,491.5c0-2.5,0-5.1,0-7.6c0-2.9,0.1-5.2-3-7.6c-3.7-3-7.5-5.1-11.8-6.9
						c-2.1-0.9-3.5-0.6-5.1,0.8c-6.7,5.5-13.9,10.3-21,15.2c-8.9,6.1-17.3,13-25,20.7c-0.7,0.7-1.9,1.3-0.8,2.9
						c3,4.5,2.6,10-0.9,14.1c-1.4,1.6-1.3,2.4,0.4,3.5c7.3,4.6,15.3,8.1,23.4,10.1c7.4,1.9,13.9,5.5,21,7.8c3,1,4.7,1,6.5-1.3
						c0.2-0.2,0.4-0.4,0.6-0.5c6-5.7,12.9-10.3,18.7-16.3c1-1.1,1.5-2,1-3.6C170.3,512.5,169.2,502.1,169.7,491.5z M548.3,405.1
						c0,1.8-0.7,3.2-1.8,4.5c-0.9,0.9-1.8,1.8-2.8,2.6c-2.4,2.1-2.5,2.2,0.2,4c3.2,2,6.5,3.9,9.9,5.8c11.3,6.2,22.5,12.6,33.1,20
						c0.9,0.6,1.5,0.7,2.4,0.3c9-3.8,18.2-7.4,27-11.5c5.2-2.5,10-5.5,14.4-9.2c1.7-1.4,2.2-2.3,0.6-4.3c-2.7-3.4-5.2-7.1-5.6-11.6
						c-0.1-1.5-0.7-2.5-1.7-3.5c-3.4-3.1-7.1-5.9-10.8-8.7c-6.9-5.2-12.3-11.8-18.2-18c-0.7-0.8-1.2-1.6-2.7-0.9
						c-14.6,7-29.1,14.5-43.4,22.2c-1.9,1-2.4,2-1.6,4C548,402,548,403.6,548.3,405.1z M450.7,498.8c-0.6,1.7,0.7,2.4,2,3.1
						c10.1,5.3,19.7,11.3,29,17.8c5,3.5,5,3.5,9.9-0.3c0.9-0.7,1.8-1.3,2.6-2c8.6-6.6,18.1-11.8,27.5-17.1c0.9-0.5,2.4-0.5,1.6-2.4
						c-1.8-5-1-7.4,3.6-10.7c1.5-1.1,1.7-1.6,0.2-2.9c-7.9-7.1-15.7-14.3-23.4-21.6c-4.6-4.4-9-9-13.4-13.6
						c-1.2-1.3-2.2-1.4-3.6-0.2c-3.8,3.1-7.6,6.2-11.7,8.9c-6.6,4.3-13.3,8.5-19.3,13.7c-0.7,0.6-1.5,1.2-2.4,1.2
						c-1.4,0-1.6,0.8-1.6,1.9C451.7,482.7,451.3,490.7,450.7,498.8z M536.4,417.8c-0.6,0.4-1.4,0.9-2.2,1.4
						c-6.9,4.8-14.3,8.5-22.7,10.1c-5.4,1-10.4,3-15.4,5.2c-0.7,0.3-2,0.5-1.2,1.8c1.5,2.5,0.9,4.7-0.9,6.7c-0.9,1-0.5,1.4,0.2,2.2
						c3.1,3.1,6,6.3,9.1,9.4c9.3,9.3,19.2,18,28.9,27c1.5,1.4,2.5,1.5,4.1,0.4c7.3-5.1,15.2-9.1,23.2-13.1
						c7.3-3.6,14.7-7.2,21.5-11.7c1.3-0.9,2.1-1.7,1.3-3.5c-0.8-1.6-0.8-3.8,0.1-5.3c1.2-2.3,0-3-1.6-4c-10.6-6.7-21.3-13.2-32.4-19
						c-3.7-1.9-7.3-4-10.5-6.8C537.5,418.2,537.2,417.7,536.4,417.8z M274.3,529.3c0-0.2,0-0.3,0-0.5c-3,0-6,0.2-9-0.1
						c-3.5-0.3-6.8,0.9-9.4,2.6c-9.8,6.3-19.1,13.3-26.5,22.5c-1.2,1.4-1.2,2.6-0.4,4.1c1.3,2.4,2.8,5.2,1.9,7.8
						c-1.4,3.7,0.7,4.7,3.1,5.8c1.6,0.8,3.3,1.4,5.1,2c12.9,4.3,26.3,7.1,38.4,13.6c0.8,0.4,1.4,0.5,2-0.4c3.5-5.4,8.7-8.9,14-12.3
						c6.5-4.2,12.9-8.6,18.9-13.4c0.7-0.6,2-1.1,1.7-2.3c-1-3-0.8-6.5-4-8.6c-1.6-1.1-2.9-2.7-4.3-4.2c-4.7-5.1-9.9-9.7-16.2-12.7
						c-1.1-0.5-2.2-1.1-2.2-2.5c0-1.5-0.8-1.5-1.9-1.5C281.8,529.3,278.1,529.3,274.3,529.3z M675.8,458c0.5-1.3-0.4-1.9-1.2-2.4
						c-3.9-2.9-7.9-5.8-11.8-8.8c-8.5-6.5-15.8-14.4-23.4-22c-1.4-1.4-2.3-1.7-3.9-0.2c-4.7,4.5-10.1,8-16,10.7
						c-7.8,3.5-15.5,7.1-23.5,10.1c-4.4,1.6-4.4,1.7-4.6,6.2c0,0.4,0,0.8-0.1,1.1c-0.8,1.8,0.1,2.8,1.6,3.7
						c5.6,3.3,10.3,7.6,15,12.2c3.5,3.4,7.2,6.7,11,9.8c5.6,4.5,11,9.2,15.2,15.1c0.7,1,1.3,1.1,2.4,0.4c13.1-8.3,26-16.9,38.3-26.5
						c1.8-1.4,2.5-2.5,1.4-4.7C675.3,461.4,675.2,459.6,675.8,458z M68.2,560.5c0.3,3.7,2.5,6.9,4.8,10
						c7.9,10.5,17.5,19.3,27.6,27.7c3.9,3.2,3.9,3.1,7.1-0.5c1.1-1.3,2.3-2.6,3.5-3.8c8.8-8.3,17.6-16.5,26.5-24.7
						c1.8-1.7,4.3-3,2.3-6.1c-0.3-0.5,0-1.4,0.2-2.1c0.8-3.5,2-6.8,4.5-9.5c1.4-1.5,0.9-2.2-0.8-2.5c-3.5-0.6-6.5-2.1-9.4-4.1
						c-1.3-0.9-2.8-1.2-4.3-1.5c-3.7-0.7-7.5-1.2-11-3.1c-3.3-1.8-6.7-3.2-10.2-4.4c-4-1.4-7.8-3.1-10.9-6c-1-0.9-1.7-0.9-2.7,0.1
						c-4,4.1-8.6,7.5-13.1,11.1c-4,3.2-7.8,6.6-10.6,10.9C69.8,554.5,68.6,557.2,68.2,560.5z M365.9,526.6
						C365.9,526.7,365.9,526.7,365.9,526.6c-7.5,0.4-15.1,0.8-22.6,1.1c-0.9,0-1.7,0.2-2.6,0.7c-9,5.2-14.7,13.4-20,21.9
						c-0.5,0.8-1.3,1.7-1,2.7c1.3,4.8,2.7,9.3,8.2,11.2c5.4,2,10.9,4.2,15.7,7.5c5.2,3.6,11,6,16.5,8.9c1.2,0.6,1.9,0.5,2.9-0.4
						c3.4-3.2,7.3-5.7,11.3-8c6.6-3.8,13.3-7.5,19.8-11.4c2.7-1.6,5.3-3.5,7.9-5.3c1.3-0.9,1.9-1.7,0-2.6c-0.6-0.3-1.1-0.7-1.6-1.1
						c-4-3-4.6-5.2-2.7-9.8c0.5-1.2,0-1.6-0.7-2.2c-2.6-2.5-5.1-5.2-7.6-7.8c-3.3-3.4-6.9-6.2-12.3-5.7
						C373.5,527,369.7,526.6,365.9,526.6z M104.5,433.5c-0.3,0.3-0.7,0.5-1.1,0.8c-10,8.4-19.8,17.1-27.7,27.6
						c-4.7,6.2-4.7,13,0.1,19.2c6.1,7.7,13,14.6,20.1,21.4c1.4,1.4,2.2,1,3.5-0.2c8.2-8.2,17.2-15.6,26.8-22.2
						c6.6-4.5,13.2-9,19.4-14c0.8-0.6,2-1,1.2-2.5c-1.1-2-0.9-4-0.1-6.1c0.3-0.8,0.6-1.4-0.6-1.8c-9.7-3.1-18.5-8.2-27.3-13.3
						c-4.6-2.7-9.7-4.6-13.7-8.4C105,433.9,104.8,433.8,104.5,433.5z M168.7,414.3h0.1c0-7.6,0-15.3,0-22.9c0-1.5-0.4-2.2-1.8-3.1
						c-3.3-2.2-7.3-3.3-10.5-5.7c-1.2-0.8-1.9-0.8-3.1,0c-5.3,3.6-10.7,7.1-16.1,10.7c-8.8,5.8-17.7,11.4-25.9,18
						c-1.5,1.2-2.4,2.2-1,4.4c2.2,3.5,2,7.3-0.2,10.9c-1.9,3.3-1.9,3.4,1.5,5.5c0.5,0.3,0.9,0.6,1.4,0.8
						c10.9,5.6,20.9,12.7,32.6,16.9c3.1,1.1,6,1.9,8.9-1.2c2.8-3,6.3-5.5,9.4-8.2c0.8-0.7,1.6-1.5,2.6-1.3c2.5,0.6,2.1-0.9,2.1-2.4
						C168.7,429.2,168.7,421.7,168.7,414.3z M412.5,550.2c0,2.7,0,2.6,2.3,3.9c10.9,6.3,23.3,9.9,33.5,17.5c0.9,0.7,1.4,0.4,1.9-0.5
						c1.9-3.2,4.7-5.5,7.5-7.9c8.3-6.8,16.9-13.2,25.5-19.6c1.4-1,2-1.8,0.8-3.4c-2.4-3.2-2.7-6.9-1.4-10.6c0.5-1.4,0.3-2.3-0.9-3.2
						c-9.6-7-19.3-13.6-29.7-19.2c-1.6-0.9-2-0.4-2.2,1.2c-0.4,2.8-0.9,5.6-1.6,8.3c-1.9,7.1-5,9.6-12.3,10
						c-5.5,0.3-11.1,0.4-16.6,0.6c-0.9,0-1.8-0.2-2.5,0.7c-2.8,3.6-5.6,7.1-8.4,10.6c-0.9,1.1-0.9,1.8,0.2,2.9
						C410.9,543.8,412.6,546.6,412.5,550.2z M194.1,586.8c1,0.1,1.5-0.5,2.1-1.1c1.3-1.2,2.5-2.3,3.9-3.4
						c5.9-4.8,12.4-8.5,19.2-11.9c2-1,2.9-1.8,1.5-4.2c-1.7-2.7-1.9-5.9-0.2-8.8c0.9-1.6,0.7-2.8-0.4-4.1c-6.7-8.3-15-15-22.3-22.7
						c-0.8-0.8-1.9-1.1-3-1c-4.7,0.1-9.4-0.4-14.1-1.2c-1.4-0.3-2.4,0.1-3.3,1.2c-2.3,2.8-5.2,5.1-8,7.4c-4.4,3.6-8.7,7.4-13,11.2
						c-0.7,0.6-1.6,0.9-1,2.4c2.3,5.6,1.1,10.2-3.6,14c-3,2.4-3,2.6,0.4,4.4c1.4,0.8,2.9,1.4,4.5,2c4.3,1.7,8.5,3.6,12.6,5.8
						c6.6,3.6,13.6,6.4,20.7,9C191.3,586,192.7,586.4,194.1,586.8z M105.8,408.6c0.2-0.2,0.5-0.4,0.8-0.6
						c13-10.9,27.8-19.2,41.7-28.7c2.4-1.7,4.7-3.2,5.2-6.5c0.2-1.3,0.2-1.7-1-2c-2.7-0.6-5.3-1.2-8-1.8c-4-0.9-8.2-0.6-12.1-1.9
						c-6-2.1-12.1-3.1-18.3-4.1c-5.8-0.9-10.7-3.3-14-8.3c-0.9-1.3-1.3-0.4-1.8,0.1c-7.3,7.9-14.6,15.7-21.8,23.6
						c-2.6,2.9-2.6,3.2,0.7,5.3c10.3,6.6,19.8,14.2,27.3,24C104.8,408,105.1,408.6,105.8,408.6z M449.4,394.6
						c0.8,24.1,1.7,48.3,2.5,73c10.1-8.8,21.9-14.2,31.3-23c-4.7-3.8-4.8-5.4-0.6-11C467.1,424.3,455.7,411.7,449.4,394.6z
						 M204.7,529.5c0.8,0.9,1.2,1.4,1.6,1.9c5.5,6.5,13,11.1,18,18.2c0.6,0.9,1.1,0.6,1.7-0.1c6.5-8,14.9-13.8,23-19.9
						c0.4-0.3,1.1-0.4,0.6-1.2C234.8,527.6,220,529.2,204.7,529.5z M294.2,528.9c-0.1,0.3-0.2,0.6-0.2,0.9
						c8.6,4.4,14.6,11.7,21.6,18.2c4.7-7,9.6-13.6,15.4-19C318.7,528.9,306.5,528.9,294.2,528.9z M169,442.9
						c-4.4,3.3-7.8,6.6-11.3,9.7c-0.8,0.7-0.8,1.2-0.3,2.2c1.3,2.6,2.1,5.4,0.7,8.4c-0.3,0.6-0.6,1.2,0.3,1.5
						c4,1.4,7.9,2.8,10.9,6.1C169.8,461.5,169.1,452.5,169,442.9z M168.9,382.6c0-5.7,0-11.1,0-16.5c0-0.6,0.1-1.4-1-1.2
						c-1.9,0.4-5.4,4.5-5.2,6.5c0.2,2.1-0.5,3.9-2.1,5.3c-1.2,1.1-0.9,1.7,0.4,2.3C163.5,380.1,166,381.3,168.9,382.6z M409.7,527.9
						c-3.1-0.8-15-1-17-0.4c2.3,3.3,5.2,6,8.2,8.7c0.7,0.6,1.5,1.2,2.3,0.2C405.3,533.6,407.4,530.8,409.7,527.9z M131,316
						c-1.4-0.1-4.2,2.6-3.7,3.3c1.1,1.2,2.4,2.6,3.9,2.7c1.5,0,2.8-1.4,4.1-2.5c0.4-0.3,0.1-0.7-0.2-0.9
						C133.7,317.6,132.2,316.7,131,316z M542.9,404.1c-0.1-0.5-0.2-1.3-0.4-2.1c-0.2-0.7-0.5-1.2-1.3-0.6c-1.5,1.3-3.1,2.6-3.9,4.4
						c-0.6,1.3,0.3,3.6,1.3,3.6C539.7,409.4,542.9,405.7,542.9,404.1z M99.3,514.5c0-0.2-0.1-1-0.4-1.7c-0.2-0.7-0.8-1.1-1.4-0.4
						c-1.5,1.6-2.8,3.4-3.1,5.6c-0.2,1.2,0.3,2.3,1.3,2.8c1.1,0.5,1.5-0.8,2-1.4C98.8,518.2,99.4,516.8,99.3,514.5z M666.1,331.9
						c0,2,0.9,3.4,1.7,2.7c1.6-1.3,3-2.9,4-4.7c0.4-0.8-0.2-1.2-0.8-1.5c-0.7-0.4-1.5-1-2.3-0.3
						C667.5,329.3,666.2,330.5,666.1,331.9z M364.8,318.7c7.1,1.2,8.8,0.3,8.9-4.6C370.7,315.7,367.7,317.2,364.8,318.7z
						 M129.8,299.4c-0.1-1.2,0.2-3.1-1.2-3c-1.4,0.1-2.9,1.7-2.8,3.2c0.1,1.6,1.5,3.7,2.8,3.6C130.1,303.1,129.4,300.6,129.8,299.4z
						 M532.7,492.4c-0.4-0.3,0.3-1.8-1.1-1.3c-1.3,0.5-2.5,1.4-3.3,2.7c-0.5,1,0,1.8,0.6,2.4c0.7,0.7,1.3,0,1.9-0.3
						C532.1,495.2,532.6,494,532.7,492.4z M146.1,561.2c4-2.2,5.1-4.2,4-7.1C147.6,556,146.5,558,146.1,561.2z M672.4,346.4
						c0.1,0,0.7,0.1,1-0.5s-0.1-1.1-0.6-1.3c-1.4-0.7-2.8-1.3-4.2-1.8c-1.1-0.3-1.7,0.7-1.9,1.5c-0.3,1.1,0.8,1,1.4,1.2
						C669.3,345.8,670.7,346,672.4,346.4z M484.5,320.1c1.3,0.7,2.5,1.4,3.7,2.1c0.8,0.5,1.3,0.2,1.9-0.4c0.7-0.7,0.5-1.2,0-1.9
						C488.3,317.6,487.4,317.6,484.5,320.1z M406.8,549.4c-0.1-2-1.3-3.2-2.5-4.3c-0.4-0.4-1-1.3-1.7-0.4c-0.6,0.7-0.6,1.5,0.1,2.1
						C403.9,547.9,405,548.8,406.8,549.4z M586.3,328c-0.6-0.8-0.9-2.3-1.9-1.9c-1.4,0.5-1.7,2.2-2,3.5c-0.1,0.6,0.4,0.8,0.8,0.6
						C584.3,329.6,585.7,329.5,586.3,328z M670.1,355c-2.1,0.6-3.8,1.6-5.2,3c-0.4,0.4-0.8,0.8-0.3,1.4s1,0.2,1.4-0.2
						C667.5,358,669.1,356.8,670.1,355z M586.6,348.9c-1,0.3-0.8,1.1-0.8,1.8c0.1,1.5,1.2,2.1,2.5,2.4c0.8,0.2,1-0.3,0.8-1
						C588.8,350.7,587.9,349.6,586.6,348.9z M484.9,337.8c-1,2.2-0.9,3.7,0.2,4.7c0.9,0.7,1.8-0.5,2-1.2
						C487.9,339.4,485.3,339.8,484.9,337.8z M487.8,531.9c-1,2.4-0.3,4.1,1.3,5.7C490.3,535.4,489.6,533.7,487.8,531.9z
						 M105.3,418.2c-1.2,2-1.6,3.6-0.4,5.5C106.6,421.6,106.6,421.2,105.3,418.2z M488.1,437.6c-0.9,0.2-2.1,0.4-2.2,1.3
						c-0.1,1,1.1,1.3,1.9,1.5c0.9,0.3,1.7-0.5,1.8-1.3C489.8,438.3,488.9,437.8,488.1,437.6z M131.9,284.7c-0.1-0.5-0.4-0.9-0.7-0.7
						c-1.3,0.7-2.4,1.6-2.8,3c0,0.2,0.6,0.7,0.7,0.7C130.4,287.1,131.2,285.9,131.9,284.7z"/>
					<path class="st3" d="M190.2,411.8c0.3,17.7,0.7,35.4,0.4,53.1c-0.2,12.5,1.7,24.8,2,37.3c0,2.1,1.3,3.5,3.3,4.2
						c2.9,1.1,6,1.4,9.1,1.5c4.4,0.1,8.7,0.1,13.1,0.2c1.2,0,2.4,0,3.5,0.5c1.2,0.5,1.8,1.5,1.6,2.8c-0.2,1.2-0.9,2-2.1,2.1
						c-1.3,0.1-2.5,0.1-3.8,0.1c-6.2-0.2-12.4,0.2-18.5-0.7c-3.3-0.5-6.4-1.4-8.9-3.8c-1.9-1.9-2.6-4.3-2.8-6.9
						c-2-23.7-1.7-47.5-2.1-71.3c-0.4-25.9,0-51.8,0.6-77.7c0.1-2.5,0.3-5.1,0.4-7.6c0.1-1.8,0.5-3.4,2.6-3.4
						c2.2,0.1,2.5,1.8,2.4,3.5c-0.9,18.3-0.4,36.7-0.8,55C190.2,404.6,190.2,408.2,190.2,411.8z"/>
					<path class="st3" d="M435.7,416.7c-0.8,27.2-0.5,51.2-0.4,75.3c0,2.3,0.3,4.5,0.5,6.8c0.2,2.2,0.1,4.4-0.7,6.4
						c-0.5,1.4-1.5,2.3-3.1,2s-2.3-1.5-2.1-3c0.8-4.5-0.2-8.9-0.2-13.3c-0.3-38.3,0.5-76.5,0.6-114.8c0-9.2,0.5-18.3,0.8-27.5
						c0-1.9-0.2-3.8-0.4-5.7c-0.5-4.4-1.1-4.9-5.6-4.4c-2.6,0.3-5.2,1-7.8,1.5c-1.6,0.3-3.3,0.3-3.7-1.7c-0.4-1.9,0.8-2.7,2.5-3.2
						c3.4-0.9,6.9-1.6,10.4-1.9c4.8-0.4,7.8,1.8,8.9,6.5c0.9,3.6,1,7.2,0.9,10.8C435.6,373.6,435.3,396.7,435.7,416.7z"/>
					<path class="st3" d="M327.2,396c-1.2,0.3-1.6,1.3-2.2,2.1c-4.9,6.3-9.8,12.6-14.6,19c-1,1.3-2,2.5-3.8,2
						c-2.1-0.5-2.5-2.8-0.7-5.1c4.3-5.5,8.6-11,13-16.5c0.8-1,1.5-2,2.3-3c-0.9-0.7-1.5,0-2.1,0.2c-6.4,2.2-12.5,4.8-18.6,7.8
						c-0.7,0.4-1.5,0.7-2.2,1c-1.4,0.5-2.6,0.2-3.3-1.1c-0.8-1.4-0.2-2.6,0.9-3.3c1-0.7,2.3-1.1,3.4-1.7c8.7-4.4,17.7-8,27-10.9
						c1.9-0.6,2.7-1.5,2.7-3.4s0.3-3.8,1.4-5.5c1-1.6,2.5-2.7,4.3-1.4c1.7,1.1,1.2,2.6,0.2,4c-0.3,0.5-0.4,1.2-0.6,1.8
						c-0.5,1.7,0,2.2,1.7,1.7c4.1-1.2,8.2-2.3,12.3-3.4c0.6-0.2,1.2-0.4,1.8-0.4c1.5-0.2,2.8,0.1,3.3,1.7c0.5,1.7-0.2,3-1.8,3.5
						c-2.8,0.9-5.7,1.7-8.6,2.5c-1.9,0.6-3.9,0.8-6.1,2c5.8,1.2,11.2,2.2,16.5,3.8c0.8,0.2,1.6,0.5,2.3,0.8c1.6,0.7,2.6,1.8,1.9,3.6
						c-0.6,1.7-2.1,1.8-3.7,1.4c-3.5-0.9-7-2-10.5-2.9c-2.8-0.7-5.7-1.1-8.5-1.9c-1.8-0.5-2.1,0.1-2.3,1.8c-1,8.4-2.1,16.7-3.2,25.1
						c-0.1,0.5-0.1,0.9-0.2,1.3c-0.4,1.8-1.2,3.5-3.4,3.1c-2.2-0.4-2.4-2.1-2.1-4c1.1-7.9,2.3-15.8,3.4-23.7
						C327.3,397.3,327.2,396.7,327.2,396z"/>
					<path class="st3" d="M294.2,491.1c-2.4,3.1-4.7,6.1-7.1,9.2c-0.6,0.8-1.2,1.6-1.9,2.3c-1.1,1.1-2.4,1.4-3.7,0.4
						c-1.3-1-1.2-2.4-0.3-3.7c1.2-1.7,2.6-3.3,3.9-4.9c2.1-2.6,4.2-5.2,6.1-8.8c-6,2.7-11.6,4.8-16.6,8c-1.6,1-3.3,1.8-4.6,0
						c-1.5-2,0-3.5,1.7-4.4c7.2-4.1,14.8-7.3,22.4-10.7c5.8-2.6,11.7-5,17.3-7.9c1.6-0.8,3.3-1.1,4.3,0.7c1,1.9,0.1,3.4-1.7,4.2
						c-3.3,1.6-6.7,3.2-10.1,4.7c-0.6,0.3-1.3,0.4-1.7,0.8c-0.7,0.6-1.1,1.5-1,2.4c0.1,1,1.2,0.7,1.8,0.8c2.5,0.4,5,0.7,7.4,1.6
						c1.6,0.6,2.9,1.5,2.4,3.4c-0.6,2.1-2.2,2.1-4,1.6c-2.6-0.8-5.8-2.4-7.9-1.2c-2.2,1.2-1.3,4.9-1.7,7.5c-0.4,2.7-0.6,5.4-0.9,8.1
						c-0.2,1.9-0.9,3.3-3,3.1c-2.1-0.2-2.5-1.9-2.3-3.7c0.4-4.1,0.9-8.1,1.4-12.2C294.6,492,294.8,491.6,294.2,491.1z"/>
					<path class="st3" d="M269.6,459.1c-1.1,1.8-2.1,3.6-3.2,5.4c-1,1.7-2.1,3.6-4.4,2.3c-2.3-1.4-1.2-3.3-0.2-5
						c2.3-3.7,4.7-7.4,7-11c0.5-0.7,1.3-1.3,1-2.9c-2.8,1.8-5.4,3.4-8,5.1c-0.7,0.4-1.3,1-2,1.4c-1.3,0.9-2.6,1-3.6-0.3
						c-1-1.3-0.6-2.7,0.6-3.6c1.5-1.3,3.2-2.4,4.8-3.5c1.3-0.9,2.7-1.9,4.1-2.7c2.9-1.5,4.9-3.4,4.3-7.2c-0.3-1.9,0.7-3.5,2.8-3.6
						c2.4,0,2.5,1.9,2.4,3.8c1.3,0,1.8-1.2,2.8-1.5c1.3-0.5,2.5-0.5,3.4,0.7c0.9,1.2,0.7,2.5-0.4,3.4c-1.4,1.3-3,2.3-4.6,3.4
						c-0.9,0.7-0.7,0.9-0.2,2c1.9,3.7,4.7,2.8,7.7,2.2c1.5-0.3,3.3-0.6,3.8,1.5s-1,2.9-2.7,3.5c-2.3,0.8-4.7,0.6-7,0.5
						c-2.4-0.1-2.8,0.8-2.7,2.9c0.2,4,0,8,0,12c0,1.9-0.5,3.6-2.8,3.5s-2.6-1.8-2.6-3.7c0-2.9,0-5.7,0-8.6
						C270,459.2,269.8,459.1,269.6,459.1z"/>
					<path class="st3" d="M263.6,379.5c-2.4,0.4-4.1,1.6-6,2.4c-1.6,0.7-3.3,1.2-4.2-0.7s0.4-3,2-3.8c2.7-1.4,5.4-2.7,8.3-3.5
						c4.3-1.1,6.9,1.3,5.7,5.6c-0.6,2.2-1.6,4.3-2.4,6.3c-0.6,1.4-0.4,2,1.3,1.8c1.5-0.2,3.1-0.3,4.6-0.1c4,0.3,6.4,3.3,5.8,7.3
						c-0.5,3.3-2,6.2-3.8,9c-5.3,8.2-11.7,15.5-18.4,22.5c-0.7,0.7-1.4,1.4-2.4,1.7c-1.3,0.3-2.4,0-3-1.2c-0.8-1.4-0.2-2.6,0.8-3.7
						c4.2-4.2,8-8.7,11.8-13.2c3.3-4,6.5-8.1,8.7-12.8c1.6-3.5,1.2-4.1-2.6-3.9c-1.6,0.1-3.3,0.2-4.9,0.1c-3.1-0.2-4.8-2.5-3.9-5.5
						C261.3,384.9,262.5,382.4,263.6,379.5z"/>
					<path class="st3" d="M333,358.9c-1.5,2.4-2.8,4.6-4.1,6.7c-2.8,4.7-5.6,9.4-8.9,13.7c-0.5,0.6-0.9,1.1-1.4,1.7
						c-1.1,1.2-2.3,2.3-4,1.1c-1.7-1.3-1.2-2.9-0.1-4.3c4.2-5.7,8-11.7,11.7-17.8c0.5-0.8,1-1.7,1.7-2.9c-2.2,0.4-3.7,1.4-5.3,2.1
						c-1.4,0.7-2.9,0.9-3.8-0.7c-1-1.7,0-2.9,1.5-3.8c2.8-1.6,5.8-3,9-3.7c2.2-0.5,3.5-1.6,4.4-3.6c0.8-1.6,1.7-3.2,2.7-4.7
						c0.9-1.3,2.1-2.1,3.7-1.1c1.4,0.9,1.2,2.3,0.6,3.6c-0.4,0.8-0.9,1.6-1.3,2.4c-1,1.6-1.7,3.1-0.4,5.1c1,1.6,0.4,3.7,0,5.6
						c-0.6,3.1,0.1,3.8,3.2,3.4c2.6-0.4,5.2-1,7.7-1.6c1.7-0.4,3.4-0.4,4,1.7s-0.8,3.3-2.6,3.7c-2.6,0.6-5.1,1.1-7.7,1.5
						C336.8,368.2,334,366,333,358.9z"/>
					<path class="st3" d="M304.2,451.3c-0.7,1.1-1.4,2.3-2.1,3.4c-0.9,1.4-2.2,2.1-3.7,1.3c-1.6-0.9-1.6-2.4-0.8-3.8
						c1.9-3.3,3.9-6.5,6.2-10.4c-2.2,0.8-3.8,1.5-5.5,2.1c-1.8,0.7-3.9,1.7-4.9-0.8s1.2-3.2,3-4c2.3-1,4.7-2.1,7-2.9
						c1.7-0.6,2.8-1.3,2.7-3.4c-0.1-1.1,0.4-2.3,1.4-3.1c1.8-1.3,3.4-0.2,4.2,3c1.5-0.6,3-1.2,4.5-1.7c1.6-0.6,3-0.2,3.7,1.3
						c0.7,1.6-0.2,2.8-1.7,3.5c-1.4,0.7-2.8,1.2-4.3,1.8c-2.8,1.1-3.3,2.2-1.8,4.9c1.7,3.2,3,6.4,3.4,10c0.1,0.5,0.2,0.9,0.2,1.4
						c0,1.9,0.3,4.2-2.3,4.5c-2.6,0.3-2.5-2.1-2.9-3.8c-0.1-0.5-0.2-1-0.4-2.3c-0.2,2.5-0.3,4.2-0.5,5.8c-0.2,1.8-0.9,3.3-3,3.1
						c-2-0.2-2.3-1.7-2.2-3.4c0.1-2.1,0.2-4.2,0.4-6.2C304.6,451.4,304.4,451.4,304.2,451.3z"/>
					<path class="st3" d="M342.1,450c-0.9,0.1-2-0.8-2-2.6c0-1.9,0.7-3.4,2.8-3.8c1.2-0.2,2.4,0.2,3.3,0.9
						c8.2,7,16.2,14.3,21.2,24.2c0.8,1.6,1.6,3.3,1.7,5.1c0.1,1.7-0.5,3.2-2.4,3.4c-1.7,0.3-2.6-0.8-3.1-2.4
						c-1.8-7-6.4-12.1-11.1-17.2c-1.1-1.2-1.6-0.5-2.2,0.4c-2.8,4.1-5.7,8.2-8.5,12.3c-0.6,0.9-1.3,1.7-2.1,2.5
						c-1.1,1.2-2.5,1.6-3.9,0.5s-1.1-2.6-0.2-3.9c1.7-2.3,3.4-4.5,5.1-6.7c1.8-2.4,3.5-4.9,5.1-7.4c0.6-0.9,2.2-1.8,1.3-3
						C346.3,451.2,345.3,449.4,342.1,450z"/>
					<path class="st3" d="M386.9,450.8c-0.1,4.2-4.1,8.3-7.9,8.2c-2.9-0.1-7.3-4.1-7.2-6.7c0.1-4.2,4.7-8.2,9.2-7.9
						C384.7,444.5,387,447,386.9,450.8z M379.5,453.4c1.2-0.5,1.9-1.3,2.1-2.5c0.2-0.8-0.4-1.1-1.1-1.1c-1,0-2.1,0.2-2.2,1.4
						C378.3,452,378.4,452.9,379.5,453.4z"/>
					<path class="st3" d="M224.1,411.1c-2.4,0.1-3.5-1.5-2.8-3.5c0.5-1.3,1.4-2.3,2.3-3.3c4.2-4.5,8.3-9.1,12.5-13.6
						c1.2-1.3,2.6-2.3,4.2-0.9c1.6,1.3,0.7,2.8-0.2,4.1c-2.8,3.8-6.2,7.1-9.4,10.5c-1.6,1.6-3.2,3.2-4.2,5.3
						C225.8,410.5,224.9,411.1,224.1,411.1z"/>
					<path class="st3" d="M380.2,380.4c0,1.4-0.5,2.7-1.2,3.8c-2,3.5-4.8,6.3-7.9,8.9c-1.3,1.1-2.8,1.5-4.1,0.1
						c-1.4-1.5-0.7-3,0.6-4.3c0.6-0.6,1.2-1.1,1.8-1.6c1.4-1.1,2.3-2,1.1-4.2c-1.2-2.1,0.1-4.2,1.7-5.8c1.5-1.5,3.4-1.7,5.3-0.9
						C379.3,377,380.1,378.5,380.2,380.4z"/>
					<path class="st3" d="M273.8,354.1c1.5,0.1,2.6,0.6,2.9,2.1c0.3,1.4-0.3,2.5-1.7,3c-6,1.9-11.6,4.6-17,7.7
						c-1.2,0.7-2.5,0.7-3.4-0.5c-0.8-1.1-0.7-2.4,0.3-3.2C260.6,358.9,267.1,356.3,273.8,354.1z"/>
					<path class="st3" d="M284.1,478.1c-1.1,0.1-1.9-0.5-2.3-1.5s-0.2-2.1,0.7-2.7c4.7-2.9,9.6-5.5,15.1-6.6
						c1.7-0.3,3.1,0.5,3.3,2.4c0.2,1.5-0.5,2.8-2.2,2.9c-4.4,0.4-8,2.8-11.8,4.5C286,477.5,285.2,478.1,284.1,478.1z"/>
					<path class="st3" d="M289.1,384.9c0-1.1,0.4-2,1-2.8c2.1-3,4.8-5.4,7.4-7.9c0.9-0.9,2.1-1.1,3.2-0.2c1.2,1,1.2,2.3,0.3,3.4
						c-1.5,1.8-3.1,3.5-4.7,5.3c-0.8,0.9-1.9,1.7-2.1,3.1c-0.2,1.6-1,2.6-2.7,2.3C289.7,387.8,289.2,386.5,289.1,384.9z"/>
					<path class="st3" d="M232.3,387.4c-2.1-0.1-3.8,1.4-5.5,2.9c-1.4,1.2-2.9,2.4-4.4,0.6c-1.5-1.7-0.2-3.2,1.1-4.5
						c2.1-1.9,4.5-3.4,7.3-4.2c1.2-0.3,2.5-0.5,3.7,0.2c1.4,0.8,2.1,2.1,1.7,3.6C235.6,387.7,234.2,387.8,232.3,387.4z"/>
					<path class="st3" d="M300.5,369.6c-2-1.1-3.4,0.3-4.8,1.3c-1.2,0.9-2.6,1.1-3.6-0.2c-1-1.2-0.7-2.6,0.4-3.6
						c2-2,4.4-3.3,7.2-3.3c2.1,0,3.5,1.2,3.5,3.3C303.2,368.7,302.2,369.5,300.5,369.6z"/>
					<path class="st3" d="M229.6,367.2c2.5,0.5,5.3,1.1,7.1,3.5c1,1.3,1.5,2.9,0.1,4.2c-1.4,1.3-2.7,0.6-3.8-0.6
						c-1.3-1.5-3.2-1.6-4.8-2.3c-1.3-0.6-2.1-1.5-1.7-3C226.9,367.5,228,367.2,229.6,367.2z"/>
					<path class="st3" d="M307.8,356c0,1.4-0.7,2.7-2.2,2.5c-1.8-0.2-3.6,0.1-5.4,0c-1.1,0-1.9-0.7-2.2-1.7c-0.3-1.1,0-2.1,1-2.6
						c2.2-1.2,4.7-1.4,7.1-0.8C307.3,353.7,307.8,354.8,307.8,356z"/>
				</g>
			</g>
		</g>
		<g id="Flowers_Dying_xA0_影像_2_">
		</g>
	</g>
</g>
<g id="flower">
	<g>
		<g id="Flowers_Dying_Color_xA0_影像_3_">
			<g>
				<path class="st0" d="M605.4,528c-3.5,0.6-7,0.6-10.3,2.2c-1.3,0.6-2.8,0.3-3.5-1.2c-0.9-1.9,0.2-3.1,1.7-4.1
					c6.4-4.1,13.2-7.3,20.5-9.3c2.7-0.7,5.5-1.2,8.2-1.9c1.7-0.4,3.3-0.4,4.3,1.2c1,1.7,0.2,3.1-1,4.4c-0.2,0.3-0.5,0.5-0.8,0.9
					c1.7,1,3,2.2,2.8,4.3c0,0.4,0.2,0.9,0.5,1.2c5.2,6.2,5.9,13.6,6,21.3c0,1.9-0.5,3.8-2.8,4c-2.4,0.2-3-1.5-3.4-3.5
					c-0.1-0.8-0.3-1.6-0.6-2.4c-0.2-0.5-0.3-1.1-1.3-0.8c-3.5,0.9-4,0.6-5.1-2.8c-0.2-0.6-0.2-1.3-0.9-1.6c-0.9,1.4-0.6,3-0.6,4.5
					c0.2,10.8-0.8,21.4-5,31.5c-0.5,1.2-1,2.3-1.7,3.4c-0.9,1.6-2.5,2.1-4.2,1.6c-1.7-0.5-1.9-2-1.9-3.5c-0.1-6.7,1.6-13.1,3-19.6
					c0.9-4.3,1.7-8.6,2.7-13.6c-1.5,1.8-2.5,3.1-3.5,4.3c-1.1,1.3-2.5,1.9-4.1,0.9c-1.5-1-1.5-2.5-0.9-3.8c0.6-1.2,0.6-1.9-0.6-2.9
					c-2.1-1.7-1.6-4.1-1-6.3c0.8-2.7,2.2-5.1,3.6-7.6c0.8-1.7,1.8-3.3,3.1-4.8c-1,0.2-1.5,0.7-1.7,1.7
					C606.7,526.6,606.4,527.5,605.4,528z"/>
				<path class="st0" d="M684,567.1c-4.4,2.7-7.1,6.2-9.9,9.7c-3.6,4.4-6.9,9.1-9.7,14.1c-0.5,0.9-1.1,1.7-1.8,2.4
					c-0.8,0.7-1.8,1-2.8,0.4c-0.9-0.5-1.6-1.2-1.6-2.3c0-0.6,0-1.3,0.3-1.9c5.3-11.4,11.9-21.9,23-28.7c2.4-1.4,4.9-2.6,7.7-1.1
					c0.8,0.4,1.2-0.1,1.7-0.4c2-1.4,4.2-1.6,6.5-1c0.7,0.2,1.4,0.5,1.9-0.4c1-2.1,3.1-2.5,5-3.3c2.4-1,5.4,0.3,7.4-2.3
					c0.6-0.7,1.9,0,2.8,0.4c4.9,2.1,9.5,5,13.8,8.2c1.5,1.1,2.2,2.6,1.2,4.3c-1.1,1.7-2.7,1.4-4.4,0.7c-2.5-1.1-4.9-2.3-7.5-3.3
					c-1.6-0.7-3.3-1.6-5.2-0.6c-0.8,0.4-1.8-0.1-2.5-0.7c-0.8-0.6-1.7-0.9-2.8-1c-2.4-0.2-3,0.9-2.3,2.9c1.2,3.4,2.6,6.8,3.9,10.2
					c0.6,1.5,1.2,3,1.9,4.5c0.3,0.5-0.1,2.4,1.7,0.9c0.5-0.4,1.1,1.9,0.9,2.5c-0.8,2.2,0.6,3.6,1.5,5.2c1.3,2.2,2.7,4.3,4.1,6.4
					c1,1.5,1.2,3.2,1.1,4.9c-0.1,0.9-0.2,1.9-1.3,2.2c-0.9,0.3-1.8,0.1-2.5-0.6c-0.4-0.4-0.9-0.9-1.3-1.4
					c-5.4-8.4-10.7-16.8-14.1-26.3c-0.7-2-1.8-4-2.9-5.9c-0.6-1.1-1.6-2.2-3-2c-1.3,0.2-1.7,1.5-2.1,2.6c-1.6,4.9-1.6,10.2-2.7,15.2
					c-0.3,1.2-0.5,2.5-0.9,3.7c-0.6,1.6-1.6,3-3.6,2.7c-1.8-0.3-2.3-1.8-2.6-3.4c-0.9-4.3-0.3-8.5,0.3-12.7
					C683.3,570.6,683.6,569.2,684,567.1z"/>
				<path class="st0" d="M745.1,466.9c-1.3-0.7-2.8,0.5-2.4,2c0.6,2.2,1,4.2,1.3,6.2c0.3,1.8,0.2,3.6-1.8,4.4
					c-1.9,0.7-3.4-0.1-4.3-1.8c-1.1-1.9-2-3.9-3.1-5.8c-0.6-1-1.3-2.2-2.7-1.9c-1.3,0.3-1.4,1.6-1.6,2.6c-0.8,5.1-1.5,10.2-3.6,15
					c-1.6,3.7-2.6,4.2-6.2,2.8c-0.4-0.2-1.2-0.3-1.6-0.3c-3.3,0.2-4.3-0.6-3.9-4c0.5-3.9-1.1-7-2.7-10.3c-2.9-5.8-2.1-10.5,2-15
					c1.6-1.8,3.6-3.2,6-2.3c2.6,1,5.2,2.3,5.4,5.7c0,0.4,0.4,0.1,0.5,0.3c0.6,0.8,1.5,1.2,2.4,0.7c0.8-0.5,1.5-0.9,1.7-1.5
					c0.6-2.1,2-4,2.1-6.3c0.1-2.7,2.3-4.2,4.9-3.5c1,0.3,1.8,0.9,1.6,1.9c-0.4,2,3.9,0.5,5.2,1.1c4.1,1.9,5.4,5.7,9.2,8.2
					c1.2,0.8,2.1,1.8,1.8,3.4c-0.2,1.1,4,4.8,2.9,5.1c-1.3,0.4-7.1-3.3-8.2-3.8C748.6,468.8,746.9,467.9,745.1,466.9z"/>
				<path class="st0" d="M760.2,602c7.2,1,14,3.3,20.4,6.5c1.1,0.5,2.5,0.6,3.7,0.8c1.7,0.3,2.9,1.1,2.8,3c0,2-1.4,2.7-3,2.9
					c-2.8,0.3-5.6-0.4-8.3-1.2c-2.6-0.8-5.1-1.9-7.7-2.8c-1.4-0.5-2.7-0.9-4.1-1.4c-1.4-0.4-3.3-1-4.1,0c-0.9,1.1,0.8,2.3,1.5,3.3
					c2.1,3.5,3.9,7.2,5.3,11c0.4,1,0.8,2.1,0.5,3.2c-0.3,1.3-0.9,2.5-2.3,2.7s-2.5-0.5-3-1.8c-1.6-4.3-3.3-8.6-6.8-11.9
					c-1.3-1.2-0.5-3.2-1.3-4.8c-1.2-2.5-0.8-5.4-1.3-8.2c-0.5-2.5,1.9-4.4,3.9-5.8c4-2.8,8.2-5.3,11.7-8.8c1.4-1.4,3.5-1.9,4.8-0.3
					c1.5,1.8,0.3,3.3-1.3,4.8C768.2,596.5,764.2,599.1,760.2,602z"/>
				<path class="st0" d="M821.1,454.5c-3.3-0.3-6.5,0.6-9.6-0.7c-0.2-0.1-0.5,0-0.8,0.1c-2.1,0.9-3.7,0.6-4-1.9
					c-0.4-2.8,1.1-4.6,3.6-4.7c6.6-0.1,13.1-1.7,19.8-1.5c1.4,0,2.9,0.1,4.3,0.5c1.8,0.5,2.7,3,1.4,3.8c-2.2,1.4-3.6,4-6.6,4
					C826.4,454.1,823.6,454.4,821.1,454.5z"/>
				<path class="st0" d="M605.4,528c0.3-0.5,0.8-1,0.7-1.4c-0.5-3.2,1.9-3.1,4.5-4.1c-2,2.5-3.6,4.4-5.2,6.3
					C605.5,528.5,605.4,528.2,605.4,528z"/>
				<path class="st0" d="M618.6,524c-2.7,2.7-5.3,5.4-8,8.1C612.4,528.6,615.2,525.9,618.6,524z"/>
				<path class="st0" d="M718.4,466.9c-0.4,2.8-0.5,5.2-1.4,7.5"/>
			</g>
		</g>
		<g id="Flowers_Dying_xA0_影像_4_">
			<g>
				<path class="st3" d="M760,604.4c5.5-0.9,10.6-1.7,15.8-1.1c4,0.5,7.9,1.2,11.6,3c2.2,1.1,4,2.6,4.1,5.3c0.1,2.8-1.7,4.6-3.9,5.8
					c-3.8,2.1-7.7,1.7-11.5-0.1c-2.2-1.1-4.2-2.4-6.4-3.7c-1.4-0.8-2.7-1.7-4.5-1.8c2.4,2,4.4,4.2,6.1,6.7
					c3.7,5.5,3.4,11.1,0.6,16.8c-1,1.9-2.3,3.7-4.8,3.1c-2.5-0.6-2.7-2.7-2.5-4.8c0.1-1.9-0.5-3.6-1.3-5.2
					c-2.2-4.3-5.4-7.9-8.7-11.8c-2.7,3.8-3.7,7.8-2.8,12.2c0.6,2.9,1.4,5.8,2.1,8.7c0.4,1.7,0.5,3.4-1.2,4.4
					c-1.8,1.1-3.3,0.1-4.6-1.1c-5.9-5.4-7.7-14.4-4.4-22.4c1.1-2.8,2.6-5.4,3.9-8.1c0.7-1.4,1.1-2.6-1.2-2.5c-0.9,0-1.8-0.5-1.9-1.3
					c-0.2-2.3-2.1-3-3.6-4.1c-3.1-2.3-5.2-5.3-6.5-8.9c-2.5-6.8-4.6-13.8-5.7-21c-0.3-2.3-1.1-3.7-3.5-4.4
					c-4.1-1.3-7.8-3.5-11.4-5.7c-1.2-0.7-2.5-1.4-3.9-2.2c-0.6,1.5,0.3,2.4,0.6,3.5c2,8.5,5.3,16.4,10.7,23.3
					c1.3,1.6,2.2,3.6,2.8,5.6c1.1,3.3,0.1,6.4-2.6,8.2c0.3-0.2-0.4,6-8.2-1.1c-2-1.8-3.3-4.1-4.6-6.4c-4-7.1-7.6-14.3-10.9-21.6
					c-0.7-1.5-1.5-3-2.5-5.1c-0.6,2-0.4,3.4-0.4,4.8c0.2,7.2,0.9,14.3-0.3,21.5c-0.1,0.7-0.3,1.4-0.5,2.1c-0.7,2-1.6,3.7-4,3.9
					c-2.4,0.1-3.5-1.5-4.4-3.4c-3.1-7.2-3.2-14.7-2.4-22.2c0.1-0.7,0.2-1.4,0.4-2.8c-2.7,2-3.9,4.4-5,6.8
					c-3.6,8.4-8.4,16.1-14.5,22.9c-1.4,1.6-2.8,3.8-5.4,2.7c-2.8-1.3-2.1-3.9-1.6-6.2c1.4-6.6,3.4-13,6.2-19.2
					c4.3-9.9,11.2-17.4,21.1-21.7c1.6-0.7,2.1-1.6,1.8-3.3c-1.4-8.9-2-17.9-2.1-26.9c0-1.5-0.3-2.3-1.9-1.5
					c-13.9,6.4-26.9,14.1-35.5,27.4c-2.2,3.4-4.2,7-4.1,11.4c0.1,1.4-0.8,2.2-2.2,2.3c-1.5,0.1-2.4-0.8-2.7-2.2
					c-0.5-2.3,0-4.5,0.8-6.7c3.2-8.8,8.7-15.9,16-21.7c8.6-6.9,17.6-13.3,28.2-16.6c1.1-0.3,1.7-0.9,1.8-2.1
					c0.8-17.3,5.9-33.7,9.6-50.5c1.4-6.3,2.2-12.7,0.8-19.2c-1.4-6.5-4.7-8.3-10.9-6c-2.1,0.8-4.2,1.7-6,3.1
					c-11.8,9.3-19.9,21.2-24.1,35.7c-0.2,0.9-0.3,1.8-0.4,2.7c-0.2,1.6-0.9,2.6-2.6,2.5s-2.3-1.2-2.3-2.8c-0.1-2,0.2-4,0.8-5.9
					c4.7-14.1,12.3-26.3,23.9-35.8c3.7-3,7.9-5.2,12.7-5.9c6.9-1.1,11.7,1.8,13.8,8.5c2.2,7.1,1.9,14.2,0.4,21.3
					c-2.3,11.1-5.1,22.1-7.5,33.2c-1.3,5.6-1.7,11.3-2.5,17c-0.3,2.1,0.3,2.9,2.5,2.9c5.7,0.1,10.8,2.3,14.8,6.1
					c8.6,8,16.1,16.8,21.3,27.4c1.8,3.6,3.3,7.3,6.4,10.2c2.9,2.8,2.6,5.4-0.4,8.1c-0.8,0.7-0.8,1.3-0.6,2.2
					c1.2,7.7,3.3,15.3,6.3,22.5c1.4,3.3,4.2,5.1,7.1,6.9c1.2,0.7,1.9-0.1,2.6-0.7c3.9-3.1,7.8-6.2,11.8-9.3c3-2.4,6.3-4.3,9.8-5.8
					c2.1-0.9,4.3-1.3,6.1,0.6c1.8,1.9,1.5,4.2,0.4,6.4c-2.9,6-8,9.4-14.1,11.7c-1,0.4-2,0.7-3.1,1.1
					C760.6,603.9,760.5,604.1,760,604.4z M722.4,551.2c-0.2-0.8-0.3-1.1-0.4-1.3c-5.2-8.6-11.4-16.4-18.8-23.1
					c-3.3-3-7.4-4.6-11.9-4.7c-1.5,0-2.1,0.5-2.1,2c0.2,8.8,0.7,17.6,2,26.3c0.3,1.9,1.3,2.3,2.8,1.5
					C703.2,547.1,712.5,546.1,722.4,551.2z M700.3,559.7c-1.9,0-2.3,0.4-1.6,1.9c5,9.7,9.2,19.8,14.7,29.2c0.8,1.3,1.7,2.6,2.6,3.8
					c0.5,0.6,1,1.5,2,1c1-0.6,0.4-1.5,0-2.2c-1.1-2-2.1-4-3.5-5.8c-3.8-5.3-6.5-11.1-8.1-17.4c-0.7-2.6-1.6-5.2-2.5-7.8
					C703.4,560.7,702.2,559.6,700.3,559.7z M686.8,560.3c-8.8,1.4-21.5,18-21.9,28.7c3.4-4.3,5.7-9,7.8-13.9
					c2.6-6,6.8-10.4,12.5-13.5C685.9,561.3,686.7,561.2,686.8,560.3z M708.9,553.4c6,2.3,11,6.7,17.2,8.8
					C726,558.1,715.7,552.8,708.9,553.4z M773.1,608.8c2.7,2.2,5.1,3.5,7.9,4.2c1.1,0.3,2.2,0.1,3.2-0.3c1.1-0.5,1.2-1.1,0-1.6
					C780.9,609.7,777.4,609,773.1,608.8z M762,597.1c3.8-1,6.9-3,9.2-6.2C767.6,592,764.8,594.5,762,597.1z M688.6,574.4
					c-0.7,4.1-0.9,8.1,0.3,12.2C689.3,582.5,689.1,578.5,688.6,574.4z"/>
				<path class="st3" d="M624,544.2c-0.6,8.8-1.3,17.3-4,25.5c-1.1,3.4-2.3,6.7-4,9.8c-0.9,1.7-1.9,3.3-3,4.9
					c-1.4,1.9-3.1,3.9-5.9,2.8c-2.7-1.1-2.1-3.6-1.8-5.7c1-8.6,2.2-17.1,4.1-25.5c0.2-1,0.4-2.1,0.7-3.7c-1.2,1.5-1.9,2.7-2.8,3.7
					c-2.2,2.2-4.8,1.9-6.4-0.7c-1.9-3.2-2.2-6.7-1.2-10.2c1.6-5.2,4.7-9.6,7.5-14.4c-1.7,0.9-3.4,1.8-5.1,2.6c-3.6,1.8-7,4-10.8,5.1
					c-2.1,0.6-4.4,1.1-6-1c-1.6-2-0.8-4,0.3-5.9c7.8-13.1,18.6-20.9,34.5-20c2.1,0.1,2-0.9,2-2.3c-0.3-7.2-1.7-14.2-3.4-21.2
					c-1.3-5.2-2.4-10.4-3.2-15.7c-1.4-9.2,0.7-17.5,6.2-25c10.7-14.7,23.9-26.3,40.8-33.4c1.2-0.5,1.9-1.3,2.7-2.2
					c10.5-11.1,22.2-20.7,35.7-27.9c4-2.1,8.1-4,12.7-4.6c6.2-0.8,11.1,1.4,14.3,6.8c3.5,6,4.7,12.7,5,19.6
					c0.4,10.3-0.9,20.5-1.4,30.8c-0.3,5.5-0.1,10.9,0.4,16.3c0.1,0.6,0.3,1.2,0.5,2c6.4-4.4,11.9-2.2,17,2
					c5.8,4.7,10.3,10.8,15.7,15.9c0.9,0.9,1.2,2,0.7,3.3c-0.6,1.5-1.8,2.2-3.4,2.3c-5.5,0.3-10.4-1.3-14.7-4.6
					c-0.8-0.6-1.5-1.3-2.6-2.3c0.5,5.7,0.5,11,3.3,15.7c2.3,3.8,4.4,7.7,7.4,11.1c1.1,1.2,1.6,2.6,0.3,3.9c-1.2,1.3-2.6,0.9-4,0.1
					c-1-0.6-1.8-1.6-2.4-2.6c-4.2-6.9-9.9-12.7-14.2-19.6c-0.3-0.4-0.5-1-1.3-1.1c-1.1,5.7-2.4,11.3-4.2,16.8
					c-1.1,3.4-2.7,6.5-4,9.8c-1.3,3.1-3.7,4.7-6.4,6.2c-0.9,0.5-1.9,0.5-2.8-0.3c-1-0.8-1.3-2-1-3.2c0.9-4.2,1.9-8.5,2.5-13
					c-0.8,1-1.5,2-2.3,2.9c-1.1,1.3-2.6,1.8-4.2,1c-1.5-0.9-1.7-2.5-1-3.8c2.3-4.5,1.3-8.8-0.3-13.2c-0.9-2.6-1.8-5.1-2.5-7.8
					c-2.2-8.3,2.9-15.8,11.5-16.9c0.6-0.1,1.3-0.1,1.9-0.2c5.3-0.2,5.4-0.2,4.8-5.3c-1.2-12,0.3-24,0.9-35.9
					c0.4-7.7,0.3-15.3-2.1-22.7c-2.8-8.5-7.2-10.6-15.5-7.3c-8.9,3.4-16.7,8.8-24.2,14.5c-4.7,3.5-9,7.4-13.2,11.4
					c-1.1,1.1-1.8,1.8,0,3c1.5,1,2.3,2.6,2.3,4.4c0,1.2-0.4,2.2-1.6,2.5c-1.3,0.4-2.3-0.1-3-1.2c-2.1-3.3-3-3.4-5.5-0.3
					c-1.2,1.4-2.4,2.3-4.2,1.1c-1-0.7-1.7-0.1-2.5,0.4c-13.1,7.6-23.9,17.7-32.5,30.2c-5.3,7.6-5.2,15.9-3.4,24.6
					c1.6,7.6,3.9,15.1,4.9,22.9c0.6,4.4,1.2,8.8,0.7,13.3c-0.2,1.6,0.2,2.4,1.8,2.7c1.8,0.3,2.7,1.5,2.4,3.3c-0.1,1,0.4,1.7,0.7,2.6
					c2.6,7.2,5.4,14.3,6.4,21.9c0.5,3.9,0.1,7.6-1.7,11.2c-1.1,2.2-2.6,4-5.4,3.9c-2.6-0.2-3.9-2-4.9-4.2c-1.1-2.3-1.3-4.9-1.9-7.4
					C624.9,546,625,545.1,624,544.2z M745.5,460.7c1,1.6,1.9,3.3,2.9,4.9c1.7,2.9,4,4.9,7.5,5.5c-2.3-2.9-4.8-5.7-7.4-8.4
					C747.6,461.9,746.9,460.7,745.5,460.7c-2.9-4-7.7-4.4-10.3-0.7c1.7,0.5,3.4,0.7,4.8,1.8c0.5,0.4,0.9,0.3,1.3-0.3
					C742.3,459.7,743.8,460,745.5,460.7z M632.3,551.6c1-2.6,1.2-4.9,1-7.2c-0.7-7-3.4-13.5-5.7-20.1c-0.3-1-0.6-2.4-1.8-2.5
					c-1.3-0.1-2,1-2.6,2.1c-2.1,3.6-0.2,7.9-2.7,11.8c4.8-1.3,6.7-0.4,8.4,3.5c0.8,1.8,1.2,3.8,1.6,5.7
					C631,547.1,631,549.3,632.3,551.6z M724.7,493.1c4-7.2,5.4-21.6,2.8-28.2c-0.2-0.6-0.6-0.9-1.1-1c-0.7-0.1-1,0.3-1.3,0.8
					c-1.1,1.7-1.7,3.6-2,5.6C721.9,477.9,724.7,485.1,724.7,493.1z M592.4,531.9c9.6-5,18.6-9.6,27.8-14.4
					C612.6,514.3,596.4,523.1,592.4,531.9z M719.8,463c-3.9,0.5-7.2,3.5-6.9,6.8c0.4,4.7,2.6,8.8,4.3,13.1c1-3.3,0.3-6.7,0.4-9.9
					C717.7,469.6,718.5,466.3,719.8,463z M618.2,546.1c-2.3,4.5-6.1,23.2-5.4,26.7C616.5,564.1,617.7,555.3,618.2,546.1z
					 M740.1,476.9c0-3.8-0.4-6.9-2.3-9.7c-0.7-1.1-1.8-1.8-3.2-1.6c-0.6,0.1-1.1,0.5-0.9,1.1c0.4,1.3-0.2,3.1,1.4,3.8
					c1.3,0.6,1.9,1.5,2.4,2.7C738,474.5,738.6,475.7,740.1,476.9z M605,548.6c2.2-3.3,3.8-6.9,5-10.7
					C607.5,541,605.5,544.4,605,548.6z"/>
				<path class="st3" d="M798.4,450.7c1.9-3.9,4.8-6.1,8.5-7.6c11.2-4.7,22.2-5.2,32.7,1.9c0.8,0.6,1.6,1.2,2.3,1.9
					c2.8,2.7,2,5.7-1.7,6.7c-0.8,0.2-1.9-0.1-2,1.3c-0.3,2.8-2.4,3.4-4.7,3.3c-5.1-0.1-10.1-0.8-15.1-1.9c-3.4-0.8-6.8-1.2-10.2-0.3
					c-0.7,0.2-1.6,0.2-1.9,0.9c-0.3,0.8,0.7,1.1,1.3,1.6c5.4,4.9,12.2,6.1,18.9,7.9c0.4,0.1,0.9,0.2,1.3,0.3c2.1,0.5,4.2,1,4.5,3.7
					c0.3,2.7-1.5,4.2-3.7,5.2c-2.3,1.1-4.8,1-7.2,0.3c-3.9-1.1-7.3-3.3-10-6.3c-2.2-2.4-4.7-4.5-7.7-6.4c-0.9,2.7-0.9,5.4,0,7.9
					c1.2,3.4,2.5,6.8,3.8,10.2c0.3,0.8,0.7,1.5,0.8,2.3c0.4,2.4-0.4,4.4-2.7,5.4s-4-0.2-5.3-2.2c-4.1-6.3-6.2-13.1-4.5-20.7
					c0.6-2.5,0.3-4.8-0.6-7.2c-3.9-10.4-5.5-21.2-6.1-32.3c-0.4-7.3-1.5-14.4-3.4-21.5c-2.2-8.2-6.3-15.2-12.6-20.9
					c-10.1-9.1-20.7-16.9-34.8-18.5c-5.5-0.6-11-0.6-16.5,0.7c-10.8,2.6-20.8,6.9-30.1,13c-2.5,1.6-4,3.6-3.4,6.8
					c0.1,0.7,0.1,1.5,0,2.2c-0.2,1.2-0.8,2-2.1,2.1c-1.3,0.1-2-0.5-2.5-1.7c-1.4-3.2-0.4-8.7,2.1-11.2c1.7-1.7,3.6-3,5.6-4.3
					c8.9-5.6,18.4-10,28.7-12.3c14.3-3.2,27.8-1,40.4,6.5c6.7,4,12.7,8.8,18.2,14.2c8.4,8.2,12.1,18.5,14.2,29.7
					c1.6,8.5,1.8,17.2,2.7,25.7C796,441.8,796.8,446.2,798.4,450.7z M815.4,446.5c5.4,1.3,10.9,0.5,16.3,1
					C826.4,445,821,444.8,815.4,446.5z"/>
			</g>
		</g>
	</g>
</g>
</svg>
