<?xml version="1.0" encoding="utf-8"?>
<!-- Generator: Adobe Illustrator 22.0.1, SVG Export Plug-In . SVG Version: 6.00 Build 0)  -->
<svg version="1.1" id="圖層_1" xmlns="http://www.w3.org/2000/svg" xmlns:xlink="http://www.w3.org/1999/xlink" x="0px" y="0px"
	 viewBox="0 0 948.9 554.2" style="enable-background:new 0 0 948.9 554.2;" xml:space="preserve">
<style type="text/css">
	.st0{fill:#FFFFFF;}
	.st1{fill:#E9D08E;}
	.st2{fill:#F14900;}
	.st3{fill:#FFFFFF;stroke:#000000;stroke-miterlimit:10;}
	.st4{fill:#222222;}
	.st5{fill:#2E313A;}
	.st6{fill:#F3F9F9;}
	.st7{fill:#141F2A;}
	.st8{fill:#17212C;}
	.st9{fill:#18222D;}
	.st10{fill:#E3EAEB;}
	.st11{fill:#DAE0E1;}
	.st12{fill:#FEFEFD;}
	.st13{fill:#FEFEFB;}
	.st14{fill:#B7CBCE;enable-background:new    ;}
	
		.st15{fill:none;stroke:#222222;stroke-width:4;stroke-linecap:round;stroke-linejoin:round;stroke-miterlimit:10;stroke-dasharray:10,20;}
	.st16{fill:#B7CBCE;}
	.st17{enable-background:new    ;}
	.st18{opacity:0.46;}
	.st19{fill:none;stroke:#F14900;stroke-width:4;stroke-linecap:round;stroke-miterlimit:10;}
	.st20{fill:#FFFFFF;enable-background:new    ;}
	.st21{fill:#B6CACD;}
	.st22{fill:#CDDBDD;}
	.st23{fill:#222222;stroke:#000000;stroke-width:4;stroke-miterlimit:10;}
	.st24{fill:#222222;stroke:#000000;stroke-width:5;stroke-miterlimit:10;}
	.st25{fill:#CF9479;}
	.st26{fill:#F5F9FB;enable-background:new    ;}
	.st27{fill:#E09BC2;}
	.st28{fill:#F6B27B;}
	.st29{fill:#EC685F;}
	.st30{fill:#ACD15E;}
	.st31{fill:#E09BC2;stroke:#FFFFFF;stroke-width:3.5556;stroke-miterlimit:10;}
	.st32{fill:#ACD15E;stroke:#FFFFFF;stroke-width:3.5556;stroke-miterlimit:10;}
	.st33{fill:#EC685F;stroke:#FFFFFF;stroke-width:3.5556;stroke-miterlimit:10;}
	.st34{fill:#F6B27B;stroke:#FFFFFF;stroke-width:3.5556;stroke-miterlimit:10;}
	.st35{fill:#78B5C8;}
	.st36{fill:#E09BC2;stroke:#FFFFFF;stroke-width:3;stroke-miterlimit:10;}
	.st37{fill:#ACD15E;stroke:#FFFFFF;stroke-width:3;stroke-miterlimit:10;}
	.st38{fill:#EC685F;stroke:#FFFFFF;stroke-width:3;stroke-miterlimit:10;}
	.st39{fill:#F6B27B;stroke:#FFFFFF;stroke-width:3;stroke-miterlimit:10;}
</style>
<path class="st26" d="M887.9,100.3C862.7,61,859.7,55,859.7,55c-13.1-24.2,27.2-39.3,27.2-39.3s32.5-11.9,62-15.7H0.8v468.2
	c1.8,1.2,8.6,7.4,8.6,7.4l8,1.2l6.8-2.5l8-0.6l2.5-11.1c3.1-4.9,11.1-7.4,11.1-7.4c12.3,3.7,19.1,1.8,19.1,1.8
	c6.8-6.8,16.6-4.9,16.6-4.9c14.8,0.6,22.2-5.5,22.2-5.5l1.2,8l10.5,11.1l4.9-0.6l-3.1-5.5l-5.5-4.9c0,0,0,0,0-1.8
	c0-1.8,1.2-14.8,1.2-14.8c1.2-8.6,13.5-6.8,13.5-6.8v6.8H202v59.1l6.2-2.5v-12.3c0,0,25.2-3.1,56-8.6c30.8-5.5,34.5-24.6,34.5-24.6
	c4.9-19.7,24-16.6,24-16.6c29.5,0,58.5,31.4,129.2,63.4c70.8,32,154.5,14.2,177.2,6.2c22.8-8,103.4-52.9,131.7-72
	c28.3-19.1,81.8-72,81.8-72s2.5-7.4,2.5-17.2c0-9.8,6.2-28.9,6.2-28.9s33.2-56.6,44.3-75.1c11.1-18.5,9.5-29.6,9.5-29.6L887.9,100.3
	z M778.2,350c-2.8-1.4-4.1-1.6-6.5,0.4c-2.6,2.2-4.8,5-7,7.5c-6.3,6.9-12.9,13.6-19.5,20.2c-1.3,1.3-2.8,1.8-4.3,1.7
	c-0.2,0.3-0.5,0.5-0.7,0.8c-5,5.9-13.5-2.6-8.5-8.4c4.3-5.1,9.5-9.4,14.5-13.7c1.4-1.3,2.8-2.5,4.2-3.7c0.5-0.4,1.1-0.8,1.6-1
	c3.1-3.3,6.3-6.6,9.4-9.9c6.8-7,13.9-8.4,22.8-4.2C791.1,343,785.1,353.4,778.2,350z M784.7,115.4c-0.9-27.3-2.2-54.6-2.3-82
	c0-7.7,12-7.7,12,0.1c0,27.3,1.4,54.7,2.3,82C797,123.2,785,123.1,784.7,115.4z M872.2,137.8c-13.6,0-27,0.9-39.9,5.4
	c-0.8,0.5-1.8,0.9-2.9,1c-21,2.4-22.3,29.9-22.9,45.9c-0.6,14.7-0.4,29.4-0.3,44c0.1,7-0.1,14.1,0.2,21.1c0.3,6.6,1.1,13.1,0.8,19.6
	c-0.3,7.7-12.3,7.7-12-0.1c0.3-7.8-0.8-15.5-0.9-23.2c-0.1-8.1-0.1-16.3-0.2-24.4c-0.1-16.3-0.2-32.6,1-48.9
	c1.5-20.3,9.9-41.4,31.3-45.6c0.2-0.1,0.4-0.2,0.6-0.3c14.4-5.6,30-6.5,45.3-6.6C880,125.8,879.9,137.8,872.2,137.8z"/>
<g class="st17">
	<polygon class="st16" points="197.4,21.7 503,21.7 503,18.9 857.2,18.9 865,13.6 197.4,13.6 	"/>
</g>
<g>
	<path class="st27" d="M362.8,309.7h-31.4v98.9h8.2v1.2c7.4,0,15.1,0,22.4,0v-50.5c0,0,0.4,0,1,0
		C360.5,342.6,362.4,326.4,362.8,309.7z"/>
</g>
<g>
	<path class="st28" d="M256.9,467l0.7-0.1c27.2-4.7,31.9-16.9,32.6-22.7c0.6-5,2.5-9.8,5.9-13.4c-13.1,0-26.1,0-39.2,0
		C256.9,443,256.9,454.7,256.9,467z"/>
</g>
<g class="st17">
	<path class="st16" d="M331.6,423.3c-19-2.9-48.1-2.3-48.1-2.3v-3.4h-5.1v3.2h-30.6v-11.9h-5.7v12.9H209v51.7l47.9-6.6
		c0-12.3,0-24,0-36.2c-0.7,0-1.3,0-2,0c0.7,0,1.3,0,2,0c0-1.3,0-2.7,0-4c0,1.3,0,2.7,0,4c13.1,0,26.1,0,39.2,0c0,0,0.1-0.1,0.1-0.1
		c9.4-9.8,25.1-8.8,35.7-6.7C331.7,423.8,331.6,423.5,331.6,423.3z"/>
</g>
<g class="st17">
	<path class="st16" d="M339.6,409.8v15.2c-2.3-0.6-5.1-1.2-8-1.6c0.1,0.2,0.2,0.4,0.2,0.7c6.5,1.3,11.1,3.1,11.1,3.1
		c18.6,8.8,19.1-3.6,19.1-3.6v-13.7C354.6,409.8,347,409.8,339.6,409.8z"/>
</g>
<g>
	<path class="st29" d="M600.9,314.6h-0.6v-4.9H362.8c-0.4,16.7-2.2,32.9,0.3,49.6c12.6,0,139,0,237.8,0
		C600.9,344.2,600.9,329.7,600.9,314.6z"/>
</g>
<g class="st17">
	<path class="st16" d="M600.9,310.6h-0.6v-0.9H362.8c-0.4,3.2-2.2,6.3,0.3,9.5c12.6,0,139,0,237.8,0
		C600.9,316.3,600.9,313.5,600.9,310.6z"/>
</g>
<g>
	<path class="st27" d="M860.9,18.9c0.1,0,0.2,0,0.2-0.1C861.1,18.9,861,18.9,860.9,18.9z"/>
</g>
<g>
	<path class="st27" d="M871.4,99.7C850.2,73.8,844,56.2,844,56.2c-6.4-26.6,14.9-36.5,16.9-37.3c-5.1,1-147.9-0.1-147.9-0.1v37.6
		L701.3,94l6.8,1.8l11.1-38.8V34.3h57.6c0-1.6,0-3.2-0.1-4.8c0-7.7,12-7.7,12,0.1c0.1,26.7,3.9,54.6-5.2,80.3
		c-0.2,0.6-0.5,1.1-0.8,1.6v4.7h-69v6.2h27.7v192.2H600.9v44.7h118.5c5.2,0,8.8-2.6,8.8-2.6l40.3-36.2
		c17.6-18.1,15.5-36.2,15.5-36.2s0-93.1,0-105c0-11.9,3.1-22.2,3.1-22.2c17.6-40.3,52.2-39.8,75-39.8
		C884.9,117.3,871.4,99.7,871.4,99.7z"/>
</g>
<rect x="331.4" y="309.7" class="st28" width="30.6" height="98.9"/>
<polygon class="st28" points="692.4,359.1 600.3,359.1 600.3,314.6 741.3,314.6 "/>
<g>
	<path class="st27" d="M796.4,159.6c2.1-5,4.8-9.7,8.2-13.9C800.5,150.3,798,155.1,796.4,159.6z"/>
</g>
<g>
	<path class="st27" d="M878.7,132.7c-0.2-1.3-0.7-2.6-1.4-3.6c-11.3,1.5-22.6,3.1-33.6,6.3c-11.1,3.2-21.7,8.3-29.3,17.2
		c-9.6,11.2-11.5,26.3-12.5,40.5c-2,29.4,0.2,59.1-8,87.1c-0.2,23.7-8.5,34.9-8.5,34.9c-6.7,5.7-1.9,10.5-1.9,10.5l39.4,11.9
		c10,2.9,10-6.7,10-6.7c0-6.7,4.3-19.5,4.3-19.5l51.6-90.7c1.9-3.4,2.7-7.4,2.1-11.3L878.7,132.7z"/>
</g>
<g>
	<path class="st27" d="M822.7,349.6l-35.6-10.5c-0.1,0-0.3,0.1-0.4,0.1c-31.3,7-52.6,33-77.3,51.9l-14.4,13.2
		c-28.4,25-49.5,26.5-49.5,26.5h-47.1c-11.3-2-10.3-9.3-10.3-9.3v-45.8c0-2.1-1.7-3.8-3.8-3.8h-74.7c-2.1,0-3.8,1.7-3.8,3.8v116.3
		c1.1,6.3,10,6.3,10,6.3c84.6,11.6,142.9-24.7,142.9-24.7l91.9-52.5c29.2-17.2,62.6-52.9,73.8-65.4
		C826.3,353.7,825.4,350.4,822.7,349.6z"/>
</g>
<g>
	<path class="st27" d="M454.4,372.1c2.1,0,3.8,1.7,3.8,3.8v97.7c0,0,0.9,8.6-6.8,7.9c-1.5-0.1-2.9-0.7-4.3-1.4l-64.6-37.5
		c-2.6-1.5-4.7-3.9-5.7-6.7c-0.4-1-0.6-2.2-0.6-3.4v-56.5c0-2.1,1.7-3.8,3.8-3.8H454.4z"/>
</g>
<path class="st30" d="M848.7,31.1c2.8-5,6-10.4,11.9-11.5c0.1,0,0.1,0,0.2,0v-0.3H719.2v15h127.2C846.9,33.1,847.7,32,848.7,31.1z"
	/>
<path class="st30" d="M810.5,139.4c0.5-0.5,1.1-1,1.7-1.4c-3.4,1.1-6.1,4.8-8.2,7.3c-1.9,2.3-3.6,4.8-5.3,7.4
	c0.2,0.4,0.3,0.7,0.4,1.1C802,148.6,805.8,143.7,810.5,139.4z"/>
<path class="st30" d="M878.1,129c-11.6,1.5-23.2,3.1-34.4,6.4c-11.1,3.2-21.7,8.3-29.3,17.2c-9.6,11.2-11.5,26.3-12.5,40.5
	c-0.1,0.8-0.1,1.5-0.1,2.3h87.9c-1.9-9.1-2.9-18.4-4.5-27.6C882.9,154.8,879,142.2,878.1,129z"/>
<path class="st30" d="M789.2,134.1c0,0,19.6-5.7,4.8,10.4c0,0-9.9,16.1-9.9,44.6v95.2c0,0-2.2,24.2-15.5,36.2l-40.3,36.2
	c0,0-12.1,3.2-24,2.6c0,0-18.5,3.5-5-6.8c0,0,43.6-35.4,43.1-42.7c-0.5-7.3-1-168.2-1-168.2s-4.7-7.5,9.4-7.5"/>
<path class="st30" d="M377.2,372.1c-0.2,0.4-0.5,0.8-0.9,1.1v15.6h41v-16.7H377.2z"/>
<path class="st14" d="M507.9,372.1c-0.2,0.4-0.5,0.8-0.9,1.1v15.6h41v-16.7H507.9z"/>
<path class="st14" d="M849.4,175.4c-0.2,0.5-0.5,0.9-0.7,1.3v19.1h41.1l-5.4-20.4H849.4z"/>
<path class="st14" d="M804.1,175.4c-1.2,5.8-1.8,11.8-2.2,17.7c-0.1,0.9-0.1,1.8-0.2,2.8h29.7l-0.4-20.4H804.1z"/>
<path class="st30" d="M587.1,372.1c0.2,0.4,0.5,0.8,0.9,1.1v15.6h-41v-16.7H587.1z"/>
<path class="st14" d="M457.6,372.1c0.2,0.4,0.5,0.8,0.9,1.1v15.6h-41v-16.7H457.6z"/>
<g>
	<path class="st30" d="M913.5,205.3c15.9-25.8,17.9-58.5,14.3-89.5c-2.9-26.4-29.7-44.1-55.2-39.4c3.9,6.1,8.8,14,15.2,24
		l16.9,105.2C907.7,205.4,910.6,205.3,913.5,205.3z"/>
</g>
<g class="st17">
	<path class="st16" d="M863.8,32c1.5-2,3-4,4.7-5.9c-7.2,5.7-13.3,13.7-11,23.4C857.6,43.4,859.9,37.4,863.8,32z"/>
</g>
<g class="st17">
	<path class="st16" d="M812.6,386.6c-2.2,2-4.4,4-6.6,6.1c0.5-0.3,1.1-0.6,1.6-0.9C809.3,390.1,810.9,388.4,812.6,386.6z"/>
</g>
<g class="st17">
	<path class="st16" d="M570.7,514.2c0.2-0.4,0.4-0.8,0.7-1.1c-1.4,0.1-2.8,0.2-4.3,0.3c0.5,0.1,1,0.2,1.5,0.3
		C569.3,513.9,570,514.1,570.7,514.2z"/>
</g>
<g class="st17">
	<path class="st16" d="M443.5,493.1c3.8,1.5,7.6,2.9,11.5,4.1c-1.1-0.5-2.1-0.9-3.1-1.4c-18.9-8.5-34.8-17-48.5-24.9
		C415.8,479.9,429.4,487.4,443.5,493.1z"/>
</g>
<g class="st17">
	<path class="st16" d="M25.4,474.2l-1.3,0.1l-4.4,1.6C21.8,475.8,23.7,475.2,25.4,474.2z"/>
</g>
<g class="st17">
	<path class="st16" d="M948,0.2c-0.9,1.6-2.6,2.8-5.1,2.7c-2-0.1-3.9,0-5.9,0.1l-26.2,6.6c-13.8,6.1-26.2,15.9-35.4,27
		c-6.2,7.5-7.9,15-2.2,23.1c4.6,6.6,11,12.1,17,17.6c21.1,5.7,41.4,26.5,40.2,50c-1.6,31.6-4.7,48.1-13.8,75.2c-0.4,1.3-2,1.7-3.8,2
		c0.6,0.9,0.9,2,0.9,3.3c-0.2,17.5-6.6,33.7-15.5,48.6c-8.1,13.7-18,26.2-27,39.2c-3.2,4.7-6.5,9.3-8.4,14.7
		c-1.8,5.2-3,10.7-4.1,16.1c-2.2,11.3-3.7,22.7-6.7,33.8c0.2,1.2,0,2.4-0.6,3.7c-0.3,0.6-0.6,1.1-0.9,1.6
		c-2.7,8.4-6.7,16.8-14.4,21.5c-1.2,0.7-2.4,1-3.5,0.9c-3.7,3.4-7.7,6.6-11.8,9.5c-2.2,1.5-4.4,3-6.7,4.3
		c-4.6,4.4-9.5,8.5-14.7,12.1c-0.4,1.3-1.2,2.5-2.7,3.3c-6.8,4.1-12.9,9-18.6,14.3c-0.2,0.6-0.6,1.2-1.1,1.7c-2.9,3-6,5.9-9.2,8.5
		c-1.7,1.8-3.4,3.6-5.1,5.4c-9.3,9.8-18.6,19.5-29.7,27.4c-11.6,8.3-25,13.6-38.6,17.6c-6.5,1.9-13.1,3.6-19.7,5.1
		c-15.3,8.6-31.6,16.4-48.5,19.8c-0.3,0.4-0.7,0.7-1,0.9c-8.9,6.2-18.7,10.1-29.6,11c-10.2,0.8-20.1-1.6-30-3.8
		c-21.5-4.8-43.9-5-65.7-7.2c-21.9-2.2-42.9-6.5-63.2-15c-18.9-7.9-36.8-18.8-52.5-32c-5.1-4.3-9.9-8.9-15-13.3
		c-5.3-2.8-10.6-5.5-15.8-8.5c-13.4-2.9-35.5-14.8-47-1.8c-4.4,4.9-7,11.2-11.5,16.1c-3.9,4.2-8.6,7.8-13.4,11.1
		c-19.4,13.4-49.8,27.2-73.2,16.7v3.2l-6.2,2.5V438h-75.7v-1.3c0,0.2-0.1,0.3-0.1,0.5c-2,8.6-1.2,17.1,0,25.8c0.5,3.5-1,6.1-4.3,7.3
		c-6,2.2-12.1,1.6-17.6-1.7c-4.6-2.8-8.3-7.3-13.7-8.6c-7.4-1.9-14.7,1.8-21.3,4.8c-6,2.7-12.1,6.3-18.5,3.1
		c-1.5-0.7-3.5-1.6-4.9-2.4c-0.2,0.1-0.3,0.1-0.5,0.2c-0.1,0.9-1.1,2.5-1.4,3.4c-2.7,6.8-6.1,11.7-12.6,15.4
		c-11.4,6.5-21.7,2.4-30.7-4.7v73.3h948.2V0L948,0.2z"/>
</g>
<g class="st17">
	<path class="st16" d="M892.9,241.3c-3.1,5.3-7.2,12.1-11.5,19.4C885.6,254.4,889.6,248,892.9,241.3z"/>
</g>
<g>
	<g>
		<path class="st4" d="M-0.4,469c2.9,2.1,5.5,5.8,8.6,7.4c1.9,1,6.2,1.4,8.3,1.4c2.7-0.1,5.1-1.7,7.6-2.4c1.3-0.4-0.7,0.1,0.3,0
			c1-0.1,2-0.2,3-0.2c1.5-0.1,3-0.2,4.5-0.3c0.6,0,1.5-0.4,1.6-1.1c0.6-2.7,1.2-5.5,1.8-8.2c1-4.4,4.2-6.6,8.3-8.4
			c3.5-1.5,8.4,1,12.3,1.4c2.6,0.2,6,0.5,8.6-0.3c0.5-0.2,0.9-0.4,1.4-0.6c3.6-2,5.7-4,10-4.4c3.5-0.3,6.9,0.3,10.4,0.1
			c6.1-0.4,13.2-1.9,18.1-5.9c-0.8-0.1-1.6-0.1-2.4-0.2c0.4,2.4,0.3,5.7,1.2,7.9c0.8,1.9,3.3,3.7,4.7,5.2c1.6,1.7,3.8,5.2,5.9,6.2
			c1.8,0.9,4.2,0,6.1-0.2c0.7-0.1,2-0.7,1.5-1.6c-1.6-2.9-2.7-5.2-5.2-7.4c-1.1-1-3.2-2.7-3.3-3.1c-0.4-1.5,0.1-3.8,0.3-5.3
			c0.3-3.8-0.1-9,1.4-12.5c1.8-4.1,7.2-4.4,11.1-3.9c-0.3-0.3-0.6-0.6-0.9-0.8c0,2.3,0,4.5,0,6.8c0,0.5,0.4,0.8,0.9,0.8
			c25.2,0,50.5,0,75.7,0c-0.3-0.3-0.6-0.6-0.9-0.8c0,19.7,0,39.4,0,59.1c0,1.1,1.4,0.9,2.1,0.6c2.1-0.8,4.1-1.6,6.2-2.5
			c0.3-0.1,0.8-0.5,0.8-0.9c0-4.1,0-8.2,0-12.3c-0.5,0.4-1.1,0.7-1.6,1.1c8.1-1,16.1-2.2,24.2-3.4c15-2.3,31.4-3.4,45.6-9.1
			c7.8-3.1,15.2-8.3,19.6-15.6c3.1-5.1,3.4-11.4,7.5-15.9c10.3-11.3,30.4-4.8,41.9,0.6c21.2,9.8,40.6,23.7,61,35.1
			c28.5,15.9,57.8,30.3,90.1,36.2c28.2,5.1,57.2,5.2,85.6,1.6c16.7-2.1,34-5,49.7-11.3c18.8-7.6,36.7-17.7,54.5-27.4
			c20.5-11.1,40.7-22.6,60.6-34.9c17.5-10.8,33.3-23.5,48.7-37.1c14.9-13.1,29.4-26.7,43.6-40.6c3.8-3.7,4.4-6,5.2-11.8
			c0.9-6.4,0.7-12.9,1.9-19.3c1-5.3,2.4-10.6,4-15.7c1.1-3.6,3.2-6.7,5.3-10.4c4.8-8.2,9.6-16.3,14.4-24.5
			c5.7-9.6,11.3-19.2,17-28.8c5.5-9.3,11.8-18.5,15.4-28.8c3.5-10,2.4-17,0.8-26.8c-2.7-17-5.4-33.9-8.2-50.9
			c-2.3-14.1-4.5-28.1-6.8-42.2c-0.1-0.7-0.1-1.7-0.4-2.4c-1.2-3.2-4.2-6.6-6-9.5c-2.1-3.2-4.1-6.5-6.2-9.7
			c-4.5-7.1-9-14.2-13.3-21.5c-1.1-1.9-2.6-4.3-3.2-5.7c-4.6-9.7-0.3-18.8,7.2-25.5c10.1-8.9,22.7-13,35.3-16.8
			C918.1,6.8,933.3,3,948.8,1c1.5-0.2,2.3-2.2,0.3-1.9c-21.3,2.8-43.1,8.2-63.2,16C874,19.7,858,29,855.8,42.8
			c-1.5,9.2,5.4,17.8,9.9,25.2c2.8,4.5,5.6,9,8.4,13.4c1.9,3,3.8,5.9,5.6,8.9c2,3.1,5.6,7,6.7,10.5c1,3,1.1,6.7,1.6,9.8
			c5,31.3,10,62.5,15,93.8c2.3,14.3-5.9,27.2-12.9,39c-10.8,18.2-21.5,36.4-32.3,54.7c-2.6,4.5-5.9,8.9-8,13.6
			c-3.2,7-4.7,15.8-5.8,23.3c-0.9,6.5-0.6,12.9-2,19.4c-0.2,0.8-1.1,3.9-0.7,3.3c-0.2,0.3-0.6,0.6-0.9,0.9c-4.5,4.6-9.3,9-13.9,13.5
			c-17,16.2-34.2,32.2-52.6,46.9c-15.6,12.5-32.9,22.6-50.1,32.6c-21.4,12.5-43.1,24.5-65.1,35.7c-14.2,7.3-28.3,14.1-43.9,17.9
			c-56.2,13.8-117.3,11.1-169.9-13.7c-26.2-12.4-50.7-27.4-75.6-42.1c-14.5-8.6-29.2-16.9-46.3-17.8c-5.4-0.3-10.7,0.2-15.5,3
			c-6.6,3.8-8.5,9.8-11,16.5c-2.8,7.6-9.5,13.2-16.6,16.7c-7.4,3.7-15.4,5-23.5,6.4c-8.5,1.5-17,2.8-25.6,4.1
			c-7.6,1.1-15.1,2.2-22.7,3.1c-0.5,0.1-1.6,0.4-1.6,1.1c0,3.4,0,6.8,0,10.2c0,0.5,0.1,1.2,0,1.7c0.1-0.3,1.3-0.3-0.5,0
			c-1.6,0.3-3.3,1.3-4.8,1.9c0.7,0.2,1.4,0.4,2.1,0.6c0-19.7,0-39.4,0-59.1c0-0.5-0.4-0.8-0.9-0.8c-25.2,0-50.5,0-75.7,0
			c0.3,0.3,0.6,0.6,0.9,0.8c0-2.3,0-4.5,0-6.8c0-0.6-0.4-0.8-0.9-0.8c-3.6-0.5-7.9-0.2-11.1,1.7c-4.4,2.5-4.5,6.9-4.9,11.4
			c-0.3,3.4-2,9.6,0,12.5c1.2,1.7,3.6,2.7,4.9,4.4c1.3,1.6,2.1,3.8,3.1,5.5c0.5-0.5,1-1.1,1.5-1.6c-1.1,0.1-2.3,0.1-3.4,0.4
			c-1.1,0.3-1.7-0.3-0.4,0.5c-0.2-0.1-0.4-0.4-0.6-0.6c-1.8-2.4-4.2-4.5-6.2-6.6c-1.1-1.2-3-2.7-3.5-4c-0.9-2.1-0.8-5.2-1.2-7.5
			c-0.1-1-1.9-0.6-2.4-0.2c-6.2,5-15.2,5.4-22.7,4.9c-3.9-0.2-8,0.5-11.5,2.3c-3.3,1.6-3.8,3.2-7.4,3.3c-3.1,0.1-6.2-0.3-9.2-0.9
			c-2-0.4-4.2-1.5-6.3-1.3c-2.8,0.3-6.4,2.7-8.5,4.3c-4.9,3.7-5,9.5-6.3,15.2c0.5-0.4,1.1-0.7,1.6-1.1c-2.6,0.2-5.4,0.1-8,0.6
			c-1.1,0.2-2.2,0.7-3.2,1.1c-1,0.4-2.1,0.7-3.1,1.1c-0.7,0.3-1.8,0.2-0.2,0.2c-1.4,0-2.9-0.4-4.3-0.7c-0.9-0.1-1.9-0.2-2.7-0.4
			c-1.4-0.4,0.5,0.4-0.4-0.1c-3-2-5.5-5.1-8.4-7.2C1,466.7-1.6,468.1-0.4,469L-0.4,469z"/>
	</g>
</g>
<g>
	<g>
		<path class="st4" d="M872.7,76.8c19,0.3,40.5,9.3,49.8,26.5c2.3,4.2,3.5,8.8,4.9,13.3c2.4,7.5,0.8,14.8,0.1,22.5
			c-0.5,6-0.1,11.9-1.1,17.9c-1.2,7.8-3.1,15.6-5.2,23.2c-1.4,4.9-2.8,9.7-4.1,14.6c-0.6,2.2-0.9,5.2-2,7.3c-1.1,2-7,3.8-10,4.3
			c-1.3,0.2-2.5,1.7-0.4,1.4c3.9-0.6,10.8-2.1,13.2-5.7c1-1.5,1.1-4.2,1.6-5.9c0.8-2.9,1.6-5.9,2.4-8.8c3.5-12.8,8.4-26.3,8.3-39.7
			c-0.1-8.3,2.1-16.7,1.6-24.9c-0.3-5.2-2.5-10.8-4.3-15.6c-4.7-12.7-15.9-21.6-28.1-26.5c-8-3.2-17-5.3-25.6-5.4
			C872.9,75.3,870.8,76.8,872.7,76.8L872.7,76.8z"/>
	</g>
</g>
<g>
	<g>
		<path class="st4" d="M860.5,18.1c-10.5,4.3-18.2,15-19,26.2c-1.1,15,8.8,28.8,16.9,40.5c3.7,5.4,7.9,10.3,11.8,15.6
			c1.1,1.4,2,3,2.6,4.7c1,2.6,1.8,5.9,0,8.2c-3.1,3.9-10.1,3-14.5,3c-16.8,0.1-34.1,1.7-48.6,11.1c-8.9,5.7-15.8,13.9-20.8,23.2
			c-4.9,9-6.3,19-6.3,29.2c-0.1,12.6,0,25.1,0,37.7c0,16.9,0,33.8,0,50.8c0,7.4,0.7,15.4-0.2,22.8c-2.3,17.5-14.3,28.6-26.6,39.6
			c-6.1,5.4-12.1,10.9-18.2,16.3c-3.4,3.1-6.7,6.8-10.5,9.4c-3.9,2.7-10.6,2-15.6,2c-8.2,0-16.3,0-24.5,0c-27.4,0-54.7,0-82.1,0
			c-33.7,0-67.4,0-101.1,0c-30,0-60,0-90.1,0c-16.3,0-32.6,0-48.9,0c-0.8,0-1.5,0-2.3,0c-0.6,0-2,0.3-2,1.1c0,14.4,0,28.8,0,43.3
			c0,6.6,0.3,13.3,0,19.9c-0.3,6.9-6.5,7.4-12.3,5.4c-16-5.4-36.7-11.8-51.4,0.5c-5,4.2-7,9.7-8.2,16c-0.6,2.9-1.5,5.6-3.3,8
			c-6.4,8.7-18.6,12-28.7,13.5c-15.8,2.4-31.7,4.4-47.5,6.6c0.4,0.3,0.9,0.6,1.3,0.8c0-17.2,0-34.5,0-51.7c-0.7,0.4-1.3,0.7-2,1.1
			c11,0,22.1,0,33.1,0c0.6,0,2-0.3,2-1.1c0-4.3,0-8.6,0-12.9c-0.7,0.4-1.3,0.7-2,1.1c1.9,0,3.8,0,5.7,0c-0.3-0.3-0.6-0.6-0.9-0.8
			c0,4,0,7.9,0,11.9c0,0.5,0.4,0.8,0.9,0.8c10.2,0,20.4,0,30.6,0c0.6,0,2-0.3,2-1.1c0-1.1,0-2.1,0-3.2c-0.7,0.4-1.3,0.7-2,1.1
			c1.7,0,3.4,0,5.1,0c-0.3-0.3-0.6-0.6-0.9-0.8c0,1.1,0,2.2,0,3.4c0,0.7,0.7,0.9,1.3,0.8c18.1-0.4,37.8-0.8,55.5,3.9
			c0.7,0.2,2.3-0.1,2.3-1c0-5.5,0-10.9,0-16.4c0-0.5-0.4-0.8-0.9-0.8c-2.7,0-5.5,0-8.2,0c0.3,0.3,0.6,0.6,0.9,0.8
			c0-28.8,0-57.7,0-86.5c0-4.1,0-8.3,0-12.4c-0.7,0.4-1.3,0.7-2,1.1c30.4,0,60.8,0,91.2,0c48.1,0,96.2,0,144.3,0
			c11.1,0,22.3,0,33.4,0c-0.3-0.3-0.6-0.6-0.9-0.8c0,1.6,0,3.3,0,4.9c0,0.5,0.4,0.8,0.9,0.8c41.1,0,82.2,0,123.4,0
			c5.9,0,11.8,0,17.7,0c0.6,0,2-0.3,2-1.1c0-21.7,0-43.5,0-65.2c0-34.4,0-68.9,0-103.3c0-7.9,0-15.8,0-23.8c0-0.5-0.4-0.8-0.9-0.8
			c-9.2,0-18.5,0-27.7,0c0.3,0.3,0.6,0.6,0.9,0.8c0-2.1,0-4.1,0-6.2c-0.7,0.4-1.3,0.7-2,1.1c23,0,46,0,69,0c0.6,0,2-0.3,2-1.1
			c0-27.3,0-54.6,0-81.9c0-0.5-0.4-0.8-0.9-0.8c-21.2,0-42.3,0-63.5,0c-0.6,0-2,0.3-2,1.1c0,9.1,1.2,18.6-1.3,27.3
			c-3.3,11.4-6.5,22.9-9.8,34.3c0.8-0.3,1.5-0.7,2.3-1c-1.7-0.5-3.8-1.5-5.5-1.5c-1.4,0-0.8,0.8-0.3-0.6c1.3-3.4,2.2-7,3.2-10.4
			c2.6-8.2,5.7-16.5,7.8-24.9c1.3-5.2,0.4-11.3,0.4-16.6c0-7.4,0-14.8,0-22.2c-0.7,0.4-1.3,0.7-2,1.1c44,0.3,88.1,0.7,132.1,0.4
			c4.2,0,8.4,0,12.7-0.2c1.3,0,4.1,0.3,5.1-0.9c0.2-0.2,0.4-0.5,0.3-0.8c0,0,0,0,0,0c-0.5-1.2-3.4-0.4-2.9,0.8
			c-0.8-2,2.8-0.9-0.1-1.2c-1.1-0.1-2.4,0.1-3.5,0.1c-3.7,0.1-7.4,0.1-11.2,0.1c-11.9,0.1-23.8,0.1-35.8,0c-26-0.1-52-0.2-78-0.4
			c-5.9,0-11.7-0.1-17.6-0.1c-0.6,0-2,0.3-2,1.1c0,6.4,0,12.9,0,19.3c0,5.9,0.9,12.5,0,18.4c-1,6.4-4.1,13-6,19.2
			c-1.9,6.1-3.8,12.2-5.7,18.3c-0.1,0.4,0.3,0.7,0.6,0.8c2.3,0.6,4.5,1.2,6.8,1.8c0.8,0.2,2.1-0.1,2.3-1c3.3-11.4,6.5-22.9,9.8-34.3
			c2.5-8.8,1.3-18.3,1.3-27.3c-0.7,0.4-1.3,0.7-2,1.1c21.2,0,42.3,0,63.5,0c-0.3-0.3-0.6-0.6-0.9-0.8c0,27.3,0,54.6,0,81.9
			c0.7-0.4,1.3-0.7,2-1.1c-23,0-46,0-69,0c-0.6,0-2,0.3-2,1.1c0,2.1,0,4.1,0,6.2c0,0.5,0.4,0.8,0.9,0.8c9.2,0,18.5,0,27.7,0
			c-0.3-0.3-0.6-0.6-0.9-0.8c0,21.7,0,43.5,0,65.2c0,34.4,0,68.9,0,103.3c0,7.9,0,15.8,0,23.8c0.7-0.4,1.3-0.7,2-1.1
			c-41.1,0-82.2,0-123.4,0c-5.9,0-11.8,0-17.7,0c0.3,0.3,0.6,0.6,0.9,0.8c0-1.6,0-3.3,0-4.9c0-0.5-0.4-0.8-0.9-0.8
			c-30.4,0-60.8,0-91.2,0c-48.1,0-96.2,0-144.3,0c-11.1,0-22.3,0-33.4,0c-0.6,0-2,0.3-2,1.1c0,28.8,0,57.7,0,86.5
			c0,4.1,0,8.3,0,12.4c0,0.5,0.4,0.8,0.9,0.8c2.7,0,5.5,0,8.2,0c-0.3-0.3-0.6-0.6-0.9-0.8c0,5.5,0,10.9,0,16.4
			c0.8-0.3,1.5-0.7,2.3-1c-18.1-4.8-38.2-4.4-56.9-4c0.4,0.3,0.9,0.6,1.3,0.8c0-1.1,0-2.2,0-3.4c0-0.5-0.4-0.8-0.9-0.8
			c-1.7,0-3.4,0-5.1,0c-0.6,0-2,0.3-2,1.1c0,1.1,0,2.1,0,3.2c0.7-0.4,1.3-0.7,2-1.1c-10.2,0-20.4,0-30.6,0c0.3,0.3,0.6,0.6,0.9,0.8
			c0-4,0-7.9,0-11.9c0-0.5-0.4-0.8-0.9-0.8c-1.9,0-3.8,0-5.7,0c-0.6,0-2,0.3-2,1.1c0,4.3,0,8.6,0,12.9c0.7-0.4,1.3-0.7,2-1.1
			c-11,0-22.1,0-33.1,0c-0.6,0-2,0.3-2,1.1c0,17.2,0,34.5,0,51.7c0,0.7,0.7,0.9,1.3,0.8c15.1-2.1,30.1-4.2,45.2-6.3
			c14.5-2,34.5-7.3,37.6-24.1c1.6-8.6,5.6-15.4,14.1-18.6c6.4-2.4,13.5-2.4,20.1-1.6c4.7,0.6,9.3,1.6,13.8,3.1
			c3.7,1.2,7.1,3.1,10.9,3.7c5.5,1,12-0.8,13-7.1c0.6-4,0.1-8.5,0.1-12.6c0-17.3,0-34.7,0-52c-0.7,0.4-1.3,0.7-2,1.1
			c11.5,0,23.1,0,34.6,0c27.8,0,55.6,0,83.4,0c34.1,0,68.1,0,102.2,0c29.8,0,59.6,0,89.3,0c15.5,0,31,0.1,46.5,0
			c8.6-0.1,12.6-3.8,18.5-9.1c10.8-9.6,21.5-19.3,32.3-28.9c10.7-9.6,17.5-24.4,17.3-38.1c-0.2-10.2,0-20.3,0-30.5
			c0-17.5,0-35,0-52.5c0-14.1-1.4-29.5,2.8-43.1c6.7-21.4,27.4-35.3,48.7-38.5c8.2-1.2,16.5-1.1,24.8-1.3c5.6-0.1,14.5-1.1,15-8.4
			c0.3-3.8-1.9-7.7-4-10.7c-7.3-10.1-15-19.6-21.2-30.5c-2.2-4-4.8-8.3-6.1-12.7c-3-9.9-0.7-21.4,6.3-29c2.7-3,6.2-5.7,9.9-7.2
			C863.6,18.9,861.9,17.5,860.5,18.1z"/>
	</g>
</g>
<g>
	<g>
		<path class="st4" d="M713.6,18.1c-23.7,0-47.4,0-71,0c-37.7,0-75.4,0-113.1,0c-8.6,0-17.2,0-25.8,0c-0.7,0-2,0.3-2,1.2
			c0,1,0,1.9,0,2.9c0.7-0.4,1.3-0.8,2-1.2c-36,0-72,0-108,0c-55.5,0-110.9,0-166.4,0c-8.2,0-16.5,0-24.7,0c-1.9,0-3.8,0.1-5.7,0
			c-0.2,0-0.7,0.1-0.8,0c1.5,0.9,0.9-6.4,0.9-7.8c-0.7,0.4-1.3,0.8-2,1.2c6.4,0,12.8,0,19.2,0c17.4,0,34.8,0,52.3,0
			c25.5,0,51,0,76.5,0c31,0,62,0,93,0c33.4,0,66.9,0,100.3,0c33.4,0,66.8,0,100.2,0c30.2,0,60.5,0,90.7,0c24.5,0,48.9,0,73.4,0
			c16,0,31.9,0,47.9,0c3.8,0,7.7,0,11.5,0c3,0,4.2-0.6,6.8-2.3c9.8-5.9,21-9.2,32.1-11.3c1.3-0.3,2.4-1.9,0.4-1.6
			c-10.6,2-21.1,5.1-30.7,10.1c-1.9,1-4.6,2-6.1,3.6c-1.2,1.3,0.9-0.2,0.9-0.1c-0.8-0.7-5.7,0-6.7,0c-13.3,0-26.5,0-39.8,0
			c-22.5,0-45,0-67.5,0c-29.1,0-58.3,0-87.4,0c-32.9,0-65.8,0-98.7,0c-33.8,0-67.6,0-101.4,0c-31.9,0-63.9,0-95.8,0
			c-27.1,0-54.2,0-81.3,0c-19.7,0-39.5,0-59.2,0c-9.4,0-18.9-0.4-28.2,0c-0.4,0-0.8,0-1.2,0c-0.7,0-2,0.3-2,1.2c0,2.7,0,5.5,0,8.2
			c0,0.3,0.7,0.4,0.9,0.4c34.4,0,68.8,0,103.2,0c54.8,0,109.7,0,164.5,0c12.6,0,25.3,0,37.9,0c0.7,0,2-0.3,2-1.2c0-1,0-1.9,0-2.9
			c-0.7,0.4-1.3,0.8-2,1.2c23.7,0,47.4,0,71,0c37.7,0,75.4,0,113.1,0c8.6,0,17.2,0,25.8,0C713.5,19.7,715.5,18.1,713.6,18.1
			L713.6,18.1z"/>
	</g>
</g>
<g>
	<g>
		<path class="st4" d="M598.8,314.8c0,14.7,0,29.4,0,44.1c0,1.3,2.9,0.7,2.9-0.3c0-14.7,0-29.4,0-44.1
			C601.7,313.2,598.8,313.7,598.8,314.8L598.8,314.8z"/>
	</g>
</g>
<g>
	<g>
		<path class="st4" d="M363.5,358.9c0-16,0-32,0-48c0-0.7-2.9-0.2-2.9,0.8c0,16,0,32,0,48C360.6,360.4,363.5,359.9,363.5,358.9
			L363.5,358.9z"/>
	</g>
</g>
<g>
	<g>
		<path class="st4" d="M362.6,319.9c26.6,0,53.1,0,79.7,0c42.1,0,84.2,0,126.3,0c9.7,0,19.3,0,29,0c0.9,0,3.1-1.4,1.2-1.4
			c-26.6,0-53.1,0-79.7,0c-42.1,0-84.2,0-126.3,0c-9.7,0-19.3,0-29,0C362.8,318.5,360.6,319.9,362.6,319.9L362.6,319.9z"/>
	</g>
</g>
<g>
	<g>
		<path class="st4" d="M741.8,135.1c19.2,0,38.4,0,57.6,0c1.3,0,3-2,1-2c-19.2,0-38.4,0-57.6,0C741.6,133.1,739.9,135.1,741.8,135.1
			L741.8,135.1z"/>
	</g>
</g>
<g>
	<g>
		<path class="st4" d="M720.6,34.2c0-4.4,0-8.8,0-13.2c0-1.5-2.9-1.1-2.9,0.2c0,4.4,0,8.8,0,13.2C717.7,35.9,720.6,35.5,720.6,34.2
			L720.6,34.2z"/>
	</g>
</g>
<g>
	<g>
		<path class="st4" d="M782.1,35.1c20.3,0,40.5,0,60.8,0c1.1,0,3.1-1.7,1.1-1.7c-20.3,0-40.5,0-60.8,0
			C782.1,33.4,780.1,35.1,782.1,35.1L782.1,35.1z"/>
	</g>
</g>
<g>
	<g>
		<path class="st4" d="M877.3,133.1c2.5,15.7,5,31.4,7.5,47.1c1.4,8.5,2.7,17.1,4.1,25.6c0.9,5.9,0.7,11.2-2.3,16.6
			c-8.5,15-17,29.9-25.6,44.9c-8.2,14.3-17,28.4-24.5,43.1c-3.2,6.3-4.2,13.9-4.9,20.9c-0.2,1.4-0.4,3.2-1.3,4.3
			c-1.8,2-5,1.6-7.4,0.9c-3.9-1.1-7.8-2.4-11.8-3.5c-5.1-1.5-10.2-3.1-15.3-4.6c-3.1-0.9-7.5-1.4-10.3-3.1
			c-4.1-2.4-0.5-7.3,1.5-10.1c1.6-2.3,2.8-4.9,3.8-7.5c4.7-11.9,4.8-24.6,4.8-37.2c0-11.8,0-23.6,0-35.4c0-19.7,0.3-39.4,0-59.1
			c-0.1-7,0.9-13.7,3.9-20.1c9.5-20.3,32.7-27.6,53.4-29.3C860.7,125.8,874.9,122.9,877.3,133.1c0.2,0.9,3.1,0.1,2.9-0.8
			c-1.9-8-9.2-8-16-7.9c-8,0.1-16,0.8-23.9,2.3c-10.7,2.1-21.4,5.9-30.1,12.5c-10.3,7.9-17.1,19.8-17.6,32.9c-0.5,11,0,22.2,0,33.3
			c0,24.8,0.2,49.6,0,74.4c-0.1,11.1-1.3,26-8.4,35.2c-2.1,2.7-6.2,7.8-1.9,11c1.7,1.3,5.4,1.7,7.5,2.3c10,3,19.9,6,29.9,9
			c6.3,1.9,13.7,1.7,14.8-6.3c1-7.2,1.7-15.4,5.2-21.6c3.6-6.4,7.3-12.8,10.9-19.2c10.9-19.2,21.9-38.4,32.8-57.6
			c2.3-4,4.7-8,6.9-12.1c3.8-7.2,1.7-14.5,0.5-22c-3.2-20.5-6.5-40.9-9.7-61.4c-0.3-1.6-0.5-3.3-0.8-4.9
			C880.1,131.5,877.1,132.2,877.3,133.1z"/>
	</g>
</g>
<g>
	<g>
		<path class="st4" d="M794.9,196.8c26.8,0,53.6,0,80.5,0c3.9,0,7.8,0,11.7,0c1.2,0,3-1.8,1.1-1.8c-26.8,0-53.6,0-80.5,0
			c-3.9,0-7.8,0-11.7,0C794.8,194.9,792.9,196.8,794.9,196.8L794.9,196.8z"/>
	</g>
</g>
<g>
	<g>
		<path class="st4" d="M793.4,176.2c10.6,0,21.2,0,31.9,0c1.5,0,3.8-0.5,5.3,0c0.8,0.3-0.4-0.9-0.5,0.2c0,1,0,2,0,2.9
			c0,5.5,0,11,0,16.5c0,0.8,2.9,0.3,2.9-0.8c0-6.7,0-13.3,0-20c0-0.3-0.7-0.4-0.9-0.4c-12.5,0-25,0-37.5,0
			C793.5,174.7,791.5,176.2,793.4,176.2L793.4,176.2z"/>
	</g>
</g>
<g>
	<g>
		<path class="st4" d="M884.8,174.7c-11.9,0-23.8,0-35.6,0c-0.6,0-2,0.3-2,1.2c0,6.5,0,13,0,19.5c0,0.8,2.9,0.3,2.9-0.8
			c0-6.5,0-13,0-19.5c-0.7,0.4-1.4,0.8-2,1.2c11.9,0,23.8,0,35.6,0C884.7,176.2,886.8,174.7,884.8,174.7L884.8,174.7z"/>
	</g>
</g>
<g>
	<g>
		<path class="st4" d="M772.3,336c13.1,3.8,26.1,7.7,39.2,11.5c2.8,0.8,5.7,1.6,8.6,2.5c0.5,0.2,1.2,0.2,1.7,0.5
			c3.3,1.9,1.8,4.6-0.2,6.9c-6.9,8-14.6,15.6-22.1,23c-15.7,15.3-32.3,30.4-51.4,41.3c-11.4,6.5-22.9,13.1-34.3,19.6
			c-19.7,11.2-39.2,23-59.1,33.8c-38.2,20.7-84.6,27.7-127.4,23.7c-5.7-0.5-19,0.2-19.9-7.8c-0.4-4,0-8.3,0-12.4
			c0-16.4,0-32.8,0-49.2c0-15.2,0-30.5,0-45.7c0-2.4-0.6-5.6,0-8c1.1-4.5,9.1-2.7,12.5-2.7c16.7,0,33.4,0,50.2,0c4.1,0,9.5-1,13.6,0
			c5,1.2,3.1,11.2,3.1,14.8c0,8.6,0,17.2,0,25.8c0,3.3-0.7,7.6,0.3,10.8c1.7,5.7,8.4,7.4,13.7,7.4c7.7,0,15.5,0,23.2,0
			c9.7,0,19.6,1.1,29-1.6c17.1-4.9,32.4-15.5,45.3-27.4c22.1-20.3,44.2-40.6,66.4-60.9c1.9-1.7,5.2-6.3,8.1-6c1.3,0.1,3-1.6,1.1-1.9
			c-4.1-0.5-6.3,2.3-9,4.8c-4.9,4.5-9.7,8.9-14.6,13.4c-13.3,12.2-26.7,24.5-40,36.7c-10.6,9.7-20.9,19.8-33,27.7
			c-8.5,5.6-18.1,10.5-28.1,12.6c-3.5,0.8-5.2,0.6-9.2,0.6c-8.7,0-17.5,0-26.2,0c-5.9,0-13.9,1.4-19.4-1.5
			c-5.4-2.7-4.8-7.3-4.8-12.3c0-8.6,0-17.3,0-25.9c0-3.7,0-7.5,0-11.2c0-1.7,0.3-3.8-0.5-5.3c-1.8-3.7-7.7-2.6-11-2.6
			c-17,0-33.9,0-50.9,0c-5.4,0-10.9-0.2-16.3,0c-3.9,0.2-6.3,2-6.5,5.9c-0.5,12.3,0,24.7,0,37c0,18.1,0,36.2,0,54.3
			c0,6.2,0,12.4,0,18.6c0,3.3-0.6,6.7,2,9.2c2.3,2.3,5.7,2.8,8.7,3.1c7.5,0.8,14.9,1.7,22.4,2c14.7,0.7,29.4,0,43.9-1.9
			c21.1-2.8,41.9-8.4,61.4-16.8c18.7-8.1,36.1-19.4,53.8-29.5c28.2-16.1,58-30.7,82.9-51.8c10.7-9,20.8-18.6,30.5-28.6
			c3.8-3.9,7.6-7.9,11.3-11.9c2-2.2,6.1-5.2,5.6-8.6c-0.7-4.4-9.2-5.3-12.5-6.3c-8.6-2.5-17.2-5-25.8-7.6c-4.9-1.4-9.7-2.9-14.6-4.3
			C773,333.9,770.6,335.5,772.3,336z"/>
	</g>
</g>
<g>
	<path class="st30" d="M599.8,372.1h107c2.7,0,4,3.4,2,5.2l-38.2,35c-2,1.8-4.2,3.2-6.7,4.2c-4.9,1.9-13.7,4.7-23.9,5.7h-40.2
		c-1.7,0-3-1.3-3-3v-44C596.8,373.4,598.2,372.1,599.8,372.1z"/>
	<g>
		<path class="st4" d="M599.3,373c16,0,32,0,48,0c12,0,24.1,0,36.1,0c7,0,14.5-0.8,21.4,0c0.4,0,1-0.1,1.4,0
			c3.5,1.2,1.8,3.2,0.5,4.7c-2.6,3-6.1,5.6-9,8.3c-8.3,7.6-16.5,15.1-24.8,22.7c-3.3,3-6.2,5.6-10.5,7.3c-7.2,2.7-15.3,4.9-23,5.1
			c-10.3,0.3-20.7,0-31.1,0c-3.2,0-9.2,1.4-10.1-2.8c-0.9-4.1,0-9.5,0-13.7c0-6.6,0-13.3,0-19.9c0-1.9-1.5-11.2,1.8-11.8
			c1.8-0.4,1.3-2.1-0.5-1.7c-4.4,0.9-4.2,4.1-4.2,7.7c0,5.9,0,11.9,0,17.8c0,6.1,0,12.1,0,18.2c0,2.7-0.7,6.5,2.4,7.8
			c3,1.2,7.7,0.3,10.8,0.3c6.6,0,13.3,0,19.9,0c12.5,0,24.3-1,36.1-5.9c9-3.7,16.5-13,23.5-19.4c4.9-4.5,9.7-8.9,14.6-13.4
			c2.4-2.2,5.3-4.2,7.4-6.7c5.9-7.2-6.6-6.5-10.1-6.5c-11.1,0-22.1,0-33.2,0c-22.1,0-44.2,0-66.4,0C599.1,371.1,597.3,373,599.3,373
			z"/>
	</g>
</g>
<g>
	<g>
		<path class="st4" d="M586.6,421.8c0,25.2,0,50.4,0,75.7c0,1.2,2.9,0.6,2.9-0.4c0-25.2,0-50.4,0-75.7
			C589.5,420.2,586.6,420.8,586.6,421.8L586.6,421.8z"/>
	</g>
</g>
<g>
	<g>
		<path class="st4" d="M505.3,389.7c27.4,0,54.8,0,82.2,0c1.2,0,3-1.8,1.1-1.8c-27.4,0-54.8,0-82.2,0
			C505.1,387.8,503.3,389.7,505.3,389.7L505.3,389.7z"/>
	</g>
</g>
<g>
	<g>
		<path class="st4" d="M545.5,372.2c0,5.6,0,11.1,0,16.7c0,1.3,2.9,0.8,2.9-0.3c0-5.6,0-11.1,0-16.7
			C548.4,370.6,545.5,371.2,545.5,372.2L545.5,372.2z"/>
	</g>
</g>
<g>
	<path class="st30" d="M493.7,397.1h-24.1c-1.2,0-2.2-1-2.2-2.2v-20.6c0-1.2,1-2.2,2.2-2.2h24.1c1.2,0,2.2,1,2.2,2.2v20.6
		C495.8,396.1,494.9,397.1,493.7,397.1z"/>
	<g>
		<path class="st4" d="M494.2,396.3c-6.5,0-12.9,0-19.4,0c-2.5,0-5.3,0.8-6-2.2c-0.8-2.9,0-6.9,0-9.9c0-3-0.7-7,0-9.9
			c0.4-1.8,0-1.1,1.4-1.4c1.3-0.4,3.4,0,4.8,0c4.1,0,8.1,0,12.2,0c2.4,0,6.3-1,7.3,1.9c0.9,2.9,0,7.7,0,10.8c0,1.5,1.1,10.4-0.9,11
			c-1.7,0.5-1.4,1.8,0.3,1.3c3.7-1,3.5-3.4,3.5-6.6c0-4.8,0-9.7,0-14.5c0-2.9-0.1-4.9-3.5-5.2c-4-0.4-8.1,0-12.1,0
			c-4.7,0-15.4-2.3-15.8,4.5c-0.3,4.8,0,9.6,0,14.4c0,3.1-0.9,6.8,2.9,7.6c3.6,0.7,8.1,0,11.7,0c4.2,0,8.4,0,12.5,0
			C494.1,397.8,496.2,396.3,494.2,396.3z"/>
	</g>
</g>
<g>
	<path class="st30" d="M493.7,424h-24.1c-1.2,0-2.2-1-2.2-2.2V405c0-1.2,1-2.2,2.2-2.2h24.1c1.2,0,2.2,1,2.2,2.2v16.8
		C495.8,423.1,494.9,424,493.7,424z"/>
	<g>
		<path class="st4" d="M494.6,423.5c-3.2,0-6.4,0-9.6,0c-4.1,0-8.8,0.7-12.8,0c-1.8-0.3-2.5,0.5-3.4-2.3c-0.5-1.4,0-3.8,0-5.3
			c0-2.5,0-5,0-7.5c0-0.9-0.5-3.5-0.1-4.4c0.7-1.5,7.4-0.7,9.5-0.7c4.2,0,8.9-0.6,13,0c4.1,0.6,3.1,4.2,3.1,7.6
			c0,1.5,1.2,12.1-0.8,12.6c-1.7,0.5-1.5,1.3,0.2,0.8c3.3-0.9,3.5-2.5,3.5-5.6c0-4.3,0.3-8.8,0-13.1c-0.2-2.9-1.5-3.3-4.1-3.4
			c-4.3-0.2-8.7,0-13,0c-3.8,0-13.6-1.9-14.2,3.8c-0.4,4.2,0,8.6,0,12.8c0,2.8-0.5,5.2,2.9,5.8c3.9,0.7,8.4,0,12.3,0
			c3.9,0,7.7,0,11.6,0C493.3,424.6,496,423.5,494.6,423.5z"/>
	</g>
</g>
<g>
	<path class="st30" d="M493.7,468.4h-24.1c-1.2,0-2.2-1-2.2-2.2V432c0-1.2,1-2.2,2.2-2.2h24.1c1.2,0,2.2,1,2.2,2.2v34.3
		C495.8,467.5,494.9,468.4,493.7,468.4z"/>
	<g>
		<path class="st4" d="M494.2,467.6c-3.7,0-7.4,0-11.1,0c-2.6,0-5.3,0-7.9,0c-1.2,0-3.6,0.5-4.8,0c-2.8-1.2-1.6-6.9-1.6-9.3
			c0-5.4,0-10.8,0-16.1c0-3-0.8-7.3,0-10.2c0.5-1.8,0.4-1.1,2.2-1.3c2.3-0.3,4.8,0,7.2,0c2.7,0,5.4,0,8.1,0c1.8,0,4.3-0.5,6.1,0
			c3.1,0.8,2.1,5,2.1,7.6c0,5.9,0,11.8,0,17.8c0,1.3,1.2,11.1-0.9,11.6c-1.7,0.5-1.4,2,0.4,1.5c4.3-1.2,3.4-4.8,3.4-8.5
			c0-6.3,0-12.7,0-19c0-2.8,1.2-8.6-0.3-11.2c-1.6-2.9-8.9-1.5-11.4-1.5c-5,0-10.3-0.5-15.3,0c-3.9,0.4-4.3,2.6-4.3,5.9
			c0,6.1,0,12.2,0,18.3c0,4.1-0.7,9,0,13.1c0.8,4.3,6.6,3,9.9,3c5.8,0,11.5,0,17.3,0C494.2,469.3,496.2,467.6,494.2,467.6z"/>
	</g>
</g>
<g>
	<g>
		<path class="st4" d="M339.1,409.5c7.5,0,15,0,22.4,0c1.2,0,3-1.9,1.1-1.9c-7.5,0-15,0-22.4,0C338.9,407.6,337.1,409.5,339.1,409.5
			L339.1,409.5z"/>
	</g>
</g>
<g>
	<g>
		<path class="st4" d="M296.3,429.6c-13.3,0-26.5,0-39.8,0c-0.6,0-1.6,0.5-1.6,1.2c0,12.1,0,24.1,0,36.2c0,1.5,2.9,1.1,2.9-0.2
			c0-12.1,0-24.1,0-36.2c-0.5,0.4-1.1,0.8-1.6,1.2c13.3,0,26.5,0,39.8,0C297.7,431.7,298.2,429.6,296.3,429.6L296.3,429.6z"/>
	</g>
</g>
<g>
	<g>
		<path class="st4" d="M208,459.6c15.8,0,31.6,0,47.4,0c0.6,0,3.3-1.2,1.9-1.2c-15.8,0-31.6,0-47.4,0
			C209.3,458.4,206.6,459.6,208,459.6L208,459.6z"/>
	</g>
</g>
<g>
	<g>
		<path class="st4" d="M453.5,372.7c4.4,0.7,3.3,6.5,3.3,9.5c0,5.3,0,10.6,0,15.9c0,14.7,0,29.4,0,44.1c0,10.2-0.1,20.5,0,30.7
			c0,5.1-1,9.9-8.4,6.5c-3-1.3-5.8-3.3-8.6-5c-12.5-7.2-24.9-14.5-37.4-21.7c-4.9-2.8-9.7-5.7-14.6-8.5c-4.4-2.5-9-5-10-10.5
			c-0.7-3.8-0.2-8.1-0.2-12c0-7.2,0-14.4,0-21.6c0-6.5,0-13,0-19.5c0-2.9-0.9-7.2,2.6-8c1.6-0.4,3.8,0,5.4,0c3.1,0,6.2,0,9.3,0
			c8.2,0,16.4,0,24.6,0c11.4,0,22.8,0,34.2,0c0.9,0,3.1-1.4,1.2-1.4c-24.2,0-48.3-0.1-72.5,0c-3.6,0-7.2,0.7-7.7,5
			c-0.5,4.3,0,9.1,0,13.4c0,13.9-0.3,27.9,0,41.8c0.2,10.8,12.4,15,20.4,19.7c13.6,7.9,27.1,15.7,40.7,23.6
			c5.7,3.3,19.8,13.5,23.4,2.4c0.7-2.2,0.4-4.9,0.4-7.2c0-5.1,0-10.2,0-15.3c0-16,0-31.9,0-47.9c0-6.9,0-13.8,0-20.7
			c0-3.3,0.4-6.9,0-10.3c-0.3-2.7-1.7-4-4.4-4.4C454.6,371.3,452,372.5,453.5,372.7z"/>
	</g>
</g>
<g>
	<g>
		<path class="st4" d="M376.2,389.8c27.3,0,54.7,0,82,0c1.6,0,2.2-2.1,0.3-2.1c-27.3,0-54.7,0-82,0
			C374.8,387.7,374.2,389.8,376.2,389.8L376.2,389.8z"/>
	</g>
</g>
<g>
	<g>
		<path class="st4" d="M415.8,372.5c0,5.6,0,11.1,0,16.7c0,0.7,2.9,0.2,2.9-0.8c0-5.6,0-11.1,0-16.7
			C418.7,371,415.8,371.5,415.8,372.5L415.8,372.5z"/>
	</g>
</g>
<g>
	<g>
		<path class="st4" d="M118.4,431.8c4.6,14.6,9.2,29.2,13.9,43.8c0.6,2,1.6,4.1,2,6.2c0.5,3.1-0.5,3.2,2.2,4.9
			c3.9,2.5,7.8,5,11.7,7.5c1.8,1.2,4,3.2,6.1,3.7c3,0.7,6.7-1.2,8.4-3.5c1.3-1.8,1-3.9,2.4-5c3.4-2.9,5.8,0.4,6.1,3.8
			c0,0.5,0.9,0.7,1.3,0.6c2.7-0.4,5.5-0.9,8.2-1.3c1.6-0.3,3.4-0.3,5-0.8c1.7-0.5,0.2-0.6,1.3,0.3c2.3,1.9,5.6,4.2,8.3,5.5
			c2,0.9,4.2,0.6,6.4,0.7c1.3,0,3-1.9,1-2c-3.5-0.1-4.3,0.2-6.8-1.4c-2.2-1.5-5.1-4.3-7.7-5c-1.9-0.6-4.4,0.3-6.2,0.6
			c-3.1,0.5-6.1,1-9.2,1.4c0.4,0.2,0.9,0.4,1.3,0.6c-0.3-3.8-2.1-6.5-6.2-6c-1.9,0.2-4.9,1.2-6.1,2.8c-1.1,1.5-0.6,3.6-2.1,5.2
			c-0.9,1-2.2,1.5-3.5,1.6c-1.1,0.1-0.3,0.3-1.6-0.7c-3.7-2.6-7.6-4.9-11.4-7.3c-1.6-1-3.3-2-4.9-3.1c-1.8-1.3-0.8-0.1-1-2.7
			c-0.1-1.6-0.7-3-1.2-4.6c-2.7-8.6-5.4-17.1-8.1-25.7c-2.2-6.9-4.4-13.9-6.6-20.8C120.9,429.8,118,430.6,118.4,431.8L118.4,431.8z"
			/>
	</g>
</g>
<g>
	<g>
		<path class="st4" d="M128,459.7c8.7,0,17.3,0,26,0c1.7,0,3.5,0.1,5.3,0c0.2,0,0.9-0.1,1.1,0c-1.2-0.8-0.6,0.3-0.8,0.9
			c-0.7,2.2,0,5.8,0,8c0,1.8,0,3.6,0,5.3c0.7-0.4,1.4-0.8,2-1.2c-9.2,0-18.5,0-27.7,0c-1,0-3.1,1.5-1.2,1.5c9.2,0,18.5,0,27.7,0
			c0.7,0,2-0.3,2-1.2c0-4.9,0-9.8,0-14.6c0-0.3-0.7-0.4-0.9-0.4c-10.8,0-21.6,0-32.4,0C128.1,458.2,126,459.7,128,459.7L128,459.7z"
			/>
	</g>
</g>
<g>
	<g>
		<path class="st4" d="M332.8,309.3c0-34,0-67.9,0-101.9c0-4.8,0-9.6,0-14.4c-0.3,0.3-0.6,0.7-0.9,1c1.1-0.5,2.1-1,3.2-1.5
			c0.4-0.2,0.9-0.5,0.9-1c0-5.2,0-10.5,0-15.7c0-0.3-0.7-0.4-0.9-0.4c-2.6,0-5.2,0-7.9,0c-0.7,0-2,0.3-2,1.2c0,27.8,0,55.6,0,83.4
			c0,44.3,0,88.6,0,132.8c0,10.1,0,20.2,0,30.3c0,0.9,2.9,0.3,2.9-0.8c0-27.8,0-55.6,0-83.4c0-44.3,0-88.6,0-132.8
			c0-10.1,0-20.2,0-30.3c-0.7,0.4-1.3,0.8-2,1.2c2,0,4.2,0.2,6.2,0c2.1-0.2,0.8,0.1,0.8-0.1c0.1,0.8,0,1.8,0,2.5c0,4.3,0,8.6,0,12.9
			c0.3-0.3,0.6-0.7,0.9-1c-1.1,0.5-2.1,1-3.2,1.5c-0.4,0.2-0.9,0.5-0.9,1c0,34,0,67.9,0,101.9c0,4.8,0,9.6,0,14.4
			C329.9,310.9,332.8,310.4,332.8,309.3L332.8,309.3z"/>
	</g>
</g>
<g>
	<g>
		<path class="st4" d="M329.9,409c0,4.7,0,9.4,0,14.1c0,0.6,2.9,0.2,2.9-0.8c0-4.7,0-9.4,0-14.1C332.8,407.5,329.9,408,329.9,409
			L329.9,409z"/>
	</g>
</g>
<g>
	<path class="st30" d="M495,474.6h-26.6v5.9c0,0,1.4,9.8,13.3,9.8c11.9,0,13.3-9.5,13.3-9.5V474.6z"/>
	<g>
		<path class="st4" d="M495.9,474.1c-8.9,0-17.8,0-26.6,0c-0.5,0-2.4,0.2-2.4,0.9c0,3.7-0.4,6.7,1.6,9.9c3.2,5.3,9.7,6.6,15.4,5.8
			c4.5-0.6,9-2.7,11.3-6.8c1.7-3.1,1.2-6.2,1.2-9.6c0-0.4-2.9,0-2.9,0.8c0,2.4,0.4,5-0.3,7.3c-1.9,6.8-10.3,8.9-16.4,6.5
			c-6.8-2.8-7.1-8.4-7.1-14.6c-0.8,0.3-1.6,0.6-2.4,0.9c8.9,0,17.8,0,26.6,0C494.6,475.2,497.3,474.1,495.9,474.1z"/>
	</g>
</g>
<g>
	<g>
		<g class="st17">
			<circle class="st36" cx="80.2" cy="83.2" r="8.8"/>
		</g>
		<g>
			<g>
				<path class="st4" d="M110.3,74.4c1.2,1.2,2.3,2.5,3.4,3.8l-0.9,0.9c-1.2-1.5-2.2-2.7-3-3.5c-0.5,0.8-1.1,1.5-1.7,2.2h3.5v1.1
					h-3.7V78c-0.5,0.6-1.1,1.1-1.7,1.7l-0.7-1c1.3-1.2,2.6-2.6,3.6-4.2H110.3z M112.9,90.3c0.9-2.3,1.3-5.4,1.4-9.2V75h8.6v1.3h-7.3
					v3.6h6.6v0.9c-0.2,2.6-0.9,4.9-2.1,6.8c0.8,1.2,1.9,2.3,3.1,3.1l-0.7,1.2c-1.3-0.9-2.4-1.9-3.3-3.1c-1,1.2-2.1,2.3-3.5,3.2
					l-0.9-1c1.5-1,2.7-2.1,3.6-3.4c-1.1-1.9-1.7-4-2-6.5h-0.9c-0.1,4.6-0.7,8.2-2,11l-0.9-0.9l-0.6,0.3c-0.2-0.4-0.3-0.8-0.4-1.2
					c-1.5,0.5-3.2,1-5.1,1.4l-0.4-1.1c0.2-0.1,0.4-0.2,0.4-0.4v-9.9h5.9v6.9h-4.6v3c1.2-0.3,2.3-0.6,3.3-0.9c-0.2-0.5-0.5-1-0.7-1.3
					l1.1-0.4C112.1,88.4,112.6,89.3,112.9,90.3z M111.2,81.5h-3.3v1.7h3.3V81.5z M107.9,85.9h3.3v-1.6h-3.3V85.9z M121,81.1h-3.2
					c0.3,2,0.8,3.7,1.6,5.2C120.3,84.8,120.8,83,121,81.1z"/>
				<path class="st4" d="M137.3,76h7.2v1.4h-14.4v4.3c-0.1,4.3-0.8,7.7-2.1,10.2l-1.1-0.9c1.2-2.2,1.8-5.3,1.8-9.3V76h7.2
					c-0.3-0.6-0.6-1.2-1-1.8l1.5-0.2C136.6,74.6,137,75.3,137.3,76z M137.6,78.2v2.3h6.4v1.3h-6.4v2.8h5.1V92h-1.4v-1h-8.2v1h-1.4
					v-7.3h4.4v-6.5H137.6z M141.4,89.7V86h-8.2v3.7H141.4z"/>
				<path class="st4" d="M151.2,87.9c-0.5,1.3-1.1,2.6-1.9,3.9l-1.1-0.6c0.8-1.3,1.4-2.6,1.9-3.8L151.2,87.9z M154.3,74.8v11.8H149
					V74.8H154.3z M153,78.3V76h-2.7v2.3H153z M153,81.8v-2.4h-2.7v2.4H153z M153,83h-2.7v2.6h2.7V83z M155,90.8l-1,0.7
					c-0.5-1.1-1.1-2.2-2-3.5l1-0.6C153.9,88.6,154.5,89.8,155,90.8z M159,74v1.5h3V74h1.3v1.5h2.3v1.1h-2.3V78h2v1.1h-2v1.3h2.7v1.1
					h-4.9v1.2h3.9v4.9h1.1v1.2h-1.1v1.7c0,0.9-0.5,1.4-1.6,1.4h-1.6l-0.3-1.2l1.5,0c0.4,0,0.7-0.2,0.7-0.6v-1.4h-6.6v3.1h-1.3v-3.1
					h-1.2v-1.2h1.2v-4.9h3.9v-1.2H155v-1.1h2.8v-1.3h-2V78h2v-1.3h-2.4v-1.1h2.4V74H159z M157.2,83.8v1.4h2.6v-1.4H157.2z
					 M159.8,87.7v-1.5h-2.6v1.5H159.8z M162,78v-1.3h-3V78H162z M162,80.4v-1.3h-3v1.3H162z M163.8,83.8h-2.7v1.4h2.7V83.8z
					 M163.8,87.7v-1.5h-2.7v1.5H163.8z"/>
				<path class="st4" d="M170.9,82.4l-1.2-0.4c0.7-2.1,1.2-4.2,1.2-6.5l1.2,0.1c0,0.9-0.1,1.7-0.2,2.6h1.4v-4.1h1.4v4.1h1.6v1.4
					h-1.6v4.7c0.5-0.3,1.1-0.5,1.6-0.8v1.3c-0.5,0.3-1,0.5-1.6,0.8V92h-1.4v-5.9c-1,0.4-2,0.8-3.1,1.1l-0.3-1.4
					c1.2-0.3,2.3-0.6,3.4-1.1v-5.3h-1.6C171.4,80.5,171.2,81.5,170.9,82.4z M180,74.4c-0.2,1-0.4,2-0.7,2.8h7.6
					c0,6.5-0.1,10.5-0.3,12.1c-0.2,1.7-1.3,2.6-3.2,2.6c-0.3,0-0.8,0-1.5-0.1l-0.3-1.3c0.6,0,1.2,0.1,1.6,0.1c1.2,0,1.9-0.6,2-1.9
					c0.1-1.1,0.2-4.5,0.3-10.1h-1.3c-0.4,3.3-1,5.8-1.8,7.7c-0.9,2-2.2,3.9-4,5.5l-0.9-1.1c1.6-1.5,2.8-3.1,3.7-4.9
					c0.8-1.8,1.3-4.2,1.7-7.2h-1.5c-0.8,4.3-2.3,7.3-4.4,9.3l-0.9-1.1c2-1.7,3.4-4.5,4.1-8.2h-1.3c-0.5,1.2-1.1,2.3-1.8,3.1l-1-0.9
					c1.2-1.6,2.1-3.8,2.7-6.7L180,74.4z"/>
				<path class="st4" d="M200.9,74v3.5h7v9.2h-1.4v-1.2h-5.6v6.6h-1.4v-6.6h-5.6v1.2h-1.4v-9.2h7V74H200.9z M199.4,84.1v-5.2h-5.6
					v5.2H199.4z M206.5,84.1v-5.2h-5.6v5.2H206.5z"/>
				<path class="st4" d="M216.2,80.5c-0.5,3.4-1.3,6.2-2.3,8.7l-1.2-0.8c1-2.5,1.7-5.2,2.2-8.2L216.2,80.5z M219.7,91.3
					c-1.4,0-2-0.7-2-2V78.2h1.4v10.9c0,0.6,0.4,0.9,1.1,0.9h3.7c0.5,0,0.8-0.2,1-0.6c0.2-0.5,0.4-1.8,0.5-4.1l1.3,0.4
					c-0.2,2.7-0.4,4.3-0.8,4.9c-0.4,0.5-1,0.7-1.7,0.7H219.7z M224.5,79.2l-1.2,0.8c-1-1.5-2.4-3.2-4.1-5.1l1.2-0.7
					C222.2,76.1,223.5,77.7,224.5,79.2z M230.6,87.8l-1.3,0.6c-1-3.1-2.1-5.9-3.3-8.2l1.4-0.4C228.6,82.2,229.7,84.9,230.6,87.8z"/>
				<path class="st4" d="M235.6,79.2l-1.2-0.8c1.2-1.3,2-2.8,2.5-4.4l1.3,0.3c-0.2,0.4-0.3,0.9-0.5,1.2h5v1.2h-3.3
					c0.5,0.7,0.9,1.3,1.2,1.9l-1.3,0.5c-0.4-0.8-0.9-1.6-1.4-2.3h-0.8C236.8,77.6,236.2,78.4,235.6,79.2z M242.4,83v-1.9h-6.9v-1.2
					h6.9v-1.3h1.4v1.3h6.9v1.2h-6.9V83h6.1v1.2H248v1.9h3.6v1.2H248v3c0,1.1-0.6,1.7-1.8,1.7h-2.8l-0.3-1.3c0.9,0.1,1.8,0.1,2.6,0.1
					c0.5,0,0.8-0.3,0.8-0.8v-2.7h-12v-1.2h12v-1.9h-10.2V83H242.4z M241.2,90.6l-1.1,0.8c-0.6-0.8-1.4-1.8-2.4-2.8l1.1-0.7
					C239.9,88.9,240.7,89.8,241.2,90.6z M244.1,78.4l-1.2-0.7c0.9-1.1,1.5-2.4,1.9-3.7l1.3,0.3c-0.1,0.4-0.3,0.8-0.4,1.2h5.6v1.2
					h-3.4c0.5,0.7,0.9,1.3,1.2,1.9l-1.2,0.5c-0.4-0.8-0.9-1.6-1.5-2.4h-1.2C244.8,77.3,244.4,77.9,244.1,78.4z"/>
				<path class="st4" d="M259.1,76.7c-0.3-0.8-0.7-1.5-1.2-2.3l1.3-0.4c0.5,0.9,0.8,1.6,1.1,2.4l-0.8,0.3h3.4V78h-7.3v-1.3H259.1z
					 M262.3,90.7h-4.6v1h-1.3v-6.6h5.9V90.7z M262.1,79.5v1.2h-5.6v-1.2H262.1z M262.1,82.2v1.2h-5.6v-1.2H262.1z M261,89.5v-3.1
					h-3.3v3.1H261z M272,82.4v1.3c-0.5,1.8-1.4,3.3-2.7,4.6c1.2,0.9,2.6,1.8,4.3,2.5l-0.8,1.2c-1.8-0.8-3.3-1.8-4.5-2.8
					c-1.4,1.2-3.2,2.1-5.2,2.8l-0.8-1.2c2-0.7,3.6-1.5,5-2.6c-1.2-1.3-2.1-2.8-2.5-4.5h-1.2v-1.4H272z M270.9,74.9v4.2
					c0,0.5,0.3,0.7,0.8,0.7h1.4v1.3h-1.7c-1.2,0-1.9-0.6-1.9-1.7v-3.2h-3v0.9c0,1.9-0.9,3.5-2.7,4.5l-0.9-1c1.5-0.8,2.3-1.9,2.3-3.3
					v-2.3H270.9z M268.3,87.4c1-1.1,1.8-2.3,2.3-3.6h-4.5C266.6,85.1,267.3,86.3,268.3,87.4z"/>
				<path class="st4" d="M280.4,76.9c-0.4-1-0.8-1.8-1.2-2.6l1.4-0.3c0.4,0.8,0.8,1.8,1.2,2.9h2.4v1.4h-4v2.7h3.5c0,5-0.1,8-0.3,9.1
					c-0.2,1.2-1,1.8-2.4,1.8c-0.2,0-0.5,0-0.9-0.1l-0.3-1.3c0.4,0,0.7,0.1,1,0.1c0.7,0,1.2-0.4,1.3-1.1c0.1-0.8,0.2-3.2,0.2-7.3
					h-2.2c-0.1,4.4-0.8,7.7-2.2,9.7l-1-0.9c1.2-2,1.9-5.1,1.9-9.5v-3.3h-1.5v-1.4H280.4z M284.7,81.3l-0.9-1.1
					c1.2-1.6,2.2-3.6,3-6.2l1.3,0.3c-0.2,0.7-0.4,1.3-0.7,1.9h7v1.3h-7.5C286.2,79,285.5,80.2,284.7,81.3z M293,87.1l-1.3-0.4
					c0.4-1.5,0.7-3.1,0.8-4.8l-2.1,0.7V89h-1.3v-5.9l-2,0.7v5.8c0,0.7,0.3,1,1,1h3.8c0.5,0,0.9-0.1,1.2-0.3c0.3-0.3,0.5-1,0.6-2.3
					l1.2,0.4c-0.2,1.6-0.4,2.6-0.9,3c-0.4,0.3-1,0.4-1.8,0.4h-4.5c-1.2,0-1.8-0.7-1.8-2v-5.6l-1.4,0.5v-1.3l1.4-0.5v-2.8h1.2v2.3
					l2-0.7v-3.2h1.3v2.7l3.5-1.2C293.8,82.3,293.5,84.6,293,87.1z"/>
			</g>
		</g>
	</g>
	<g>
		<g class="st17">
			<circle class="st37" cx="80.2" cy="122.5" r="8.8"/>
		</g>
		<g>
			<g>
				<path class="st4" d="M112.3,114.8c-1.4,3.9-3.3,6.8-5.6,8.9l-1.1-1c2.4-2.1,4.2-4.9,5.4-8.4L112.3,114.8z M121.5,130.7l-1.3,0.6
					c-0.3-0.7-0.6-1.3-0.9-1.9c-3.5,0.5-7.3,0.9-11.5,1.2l-0.3-1.4c1.5-0.8,3.5-3.9,5.8-9.2l1.4,0.5c-1.7,3.7-3.3,6.6-5,8.7
					c3.2-0.2,6.1-0.5,9-1c-0.8-1.4-1.5-2.7-2.4-3.9l1.3-0.4C119.1,126.1,120.4,128.4,121.5,130.7z M118.4,114.2
					c0.7,3.5,2.3,6.2,4.8,8.4l-1.1,1c-2.4-2.1-4-4.8-4.8-8.1H114v-1.3H118.4z"/>
				<path class="st4" d="M143.7,131.4h-1.4v-0.9h-13.1v0.9h-1.4v-17.1h15.9V131.4z M142.3,129.2v-13.7h-13.1v13.7H142.3z M140,121.3
					v3.2h-4.3c-0.3,0.4-0.7,0.7-1.1,1.1v2c0.8-0.2,1.5-0.4,2.3-0.6l0.2,1c-1.2,0.4-2.4,0.6-3.7,0.9L133,128c0.3-0.1,0.4-0.3,0.4-0.5
					v-1.2c-0.8,0.4-1.7,0.8-2.7,1.2l-0.6-1.1c2.1-0.6,3.5-1.2,4.3-1.9h-2.7v-3.2H140z M135.1,117.2v-1.1h1.3v1.1h4v1.1h-4v1.2h4.9
					v1.1h-11.1v-1.1h4.9v-1.2h-4v-1.1H135.1z M138.8,122.3h-6.1v1.3h6.1V122.3z M141.3,125.2c-0.6,0.4-1.3,0.8-2,1.2
					c0.7,0.4,1.5,0.8,2.1,1.2l-0.7,1c-1.6-1.1-3.3-2-4.9-2.7l0.6-0.9c0.6,0.2,1.2,0.5,1.8,0.8c0.8-0.4,1.6-0.8,2.2-1.3L141.3,125.2z
					"/>
				<path class="st4" d="M149.9,115.6v-1.3h11.8v0.7c-0.4,1.8-0.8,3.4-1.3,4.6h3.8v1.2c-0.7,2.6-1.9,4.7-3.8,6.5
					c1.5,1,3.3,2,5.3,2.7l-1,1.2c-2.2-0.9-4-1.9-5.5-3c-1.6,1.2-3.6,2.3-5.9,3.1l-0.7-1.3c2.1-0.7,4-1.6,5.5-2.8
					c-2-1.9-3.3-4-3.9-6.4h-0.3c-0.5,4.5-2,8-4.5,10.3l-1.1-0.9c2.8-2.7,4.3-6.9,4.3-12.8v-2H149.9z M159.1,119.7
					c0.4-1.2,0.8-2.5,1.1-4h-6.1v2c0,0.7,0,1.4-0.1,2H159.1z M162.7,121h-7.2c0.6,2.1,1.8,4,3.7,5.5C160.9,125,162,123.1,162.7,121z
					"/>
				<path class="st4" d="M171.7,126.5c-0.1,1.8-0.3,3.3-0.7,4.7l-1.2-0.4c0.4-1.3,0.6-2.8,0.8-4.4L171.7,126.5z M177,124.8l-1.1,0.5
					c-0.1-0.4-0.2-0.8-0.3-1.1c-1.8,0.5-3.5,0.9-5.2,1.1l-0.4-1.2c0.2-0.1,0.4-0.2,0.6-0.4c0.7-0.7,1.6-2,2.7-3.7
					c-1,0.2-2.1,0.4-3.1,0.5l-0.4-1.2c0.2-0.1,0.4-0.3,0.6-0.5c1-1.5,1.8-3.3,2.5-5.2l1.3,0.5c-0.9,2.1-1.8,3.9-2.8,5.2
					c0.9-0.1,1.7-0.3,2.6-0.4c0.4-0.7,0.8-1.5,1.2-2.2l1.2,0.4c-1.8,3.3-3.3,5.7-4.5,7c1.1-0.2,2.2-0.4,3.3-0.7
					c-0.2-0.7-0.4-1.2-0.7-1.8l1-0.4C176.1,122.2,176.6,123.5,177,124.8z M174.3,130.4l-1.2,0.2c-0.1-1.8-0.2-3.3-0.3-4.3l1.1-0.1
					C174.1,127.2,174.3,128.6,174.3,130.4z M177,128.6c1.2-0.6,2.3-1.5,3.3-2.7l0.4,1c-0.9,1.2-2,2.2-3.2,3l-0.6-1l-1,0.4
					c-0.3-1.3-0.6-2.4-1-3.4l1-0.4C176.3,126.6,176.7,127.5,177,128.6z M183.3,120.4l0.3-1.5h-5.8l1.5-5.7l1.3,0.1l-0.4,1.3h5.3v0.6
					l-1,5.1h2.7v1.2h-4.4v8c0,1-0.5,1.5-1.5,1.5h-1.8l-0.3-1.3c0.6,0.1,1.1,0.1,1.6,0.1c0.4,0,0.6-0.2,0.6-0.7v-7.7h-4.6v-1.2H183.3
					z M180.5,124.4l-0.6,1c-0.9-0.7-1.8-1.2-2.7-1.6l0.7-1C178.8,123.3,179.7,123.8,180.5,124.4z M184.2,115.9H180l-0.5,2h4.4
					L184.2,115.9z M187.8,128.9l-0.7,1.1c-1.2-1.4-2.4-2.4-3.6-3.2l0.6-0.9C185.5,126.7,186.7,127.7,187.8,128.9z M187,123.4
					c-0.8,0.9-1.6,1.5-2.6,1.9l-0.6-0.9c0.9-0.4,1.7-1,2.3-1.8L187,123.4z"/>
				<path class="st4" d="M193.7,118.7v-5.2h1.4v5.2h2.2v1.4h-2.2v6.4c0.9-0.3,1.7-0.6,2.6-1v1.4c-1.9,0.9-4,1.6-6.2,2.2l-0.4-1.4
					c0.9-0.2,1.7-0.4,2.6-0.6v-6.9h-2.3v-1.4H193.7z M204.3,113.5v4.5l4.1-1.2c0,2.4-0.3,5-0.9,7.7l-1.3-0.4
					c0.4-1.7,0.6-3.5,0.8-5.5l-2.7,0.8v7.8h-1.3v-7.4l-2.5,0.7v8.1c0,0.7,0.3,1,0.9,1h5c0.4,0,0.7-0.1,0.9-0.4
					c0.2-0.3,0.4-1.3,0.4-2.9l1.3,0.4c-0.1,2-0.4,3.2-0.8,3.7c-0.4,0.4-0.9,0.6-1.6,0.6h-5.7c-1.2,0-1.9-0.7-1.9-2.1v-8l-1.4,0.4
					V120l1.4-0.4v-4.1h1.3v3.7l2.5-0.7v-5H204.3z"/>
			</g>
		</g>
	</g>
	<g>
		<g class="st17">
			<circle class="st38" cx="80.2" cy="161.9" r="8.8"/>
		</g>
		<g>
			<g>
				<path class="st4" d="M113.2,156.3c-0.3,0.4-0.6,0.9-0.9,1.3h7.2v1.1c-0.8,1.1-2,2.1-3.5,2.9c2.1,0.8,4.5,1.3,7.1,1.5l-0.3,1.3
					c-3.1-0.2-5.9-0.9-8.3-2.1c-2.3,1.1-5.2,1.9-8.7,2.5l-0.5-1.2c3.1-0.5,5.8-1.2,7.8-2c-1-0.6-1.9-1.2-2.7-2
					c-0.8,0.7-1.6,1.3-2.4,1.8l-0.9-1.1c1.9-1.1,3.5-2.6,4.8-4.4L113.2,156.3z M122.2,158h-1.4v-2.4h-13v2.4h-1.4v-3.7h7.1
					c-0.2-0.5-0.5-1-0.7-1.4l1.5-0.2c0.2,0.5,0.4,1,0.7,1.6h7.2V158z M120,170.8h-1.4v-0.8h-8.4v0.8h-1.4v-6.1H120V170.8z
					 M118.7,168.7v-2.7h-8.4v2.7H118.7z M117.8,158.7h-6.5l-0.1,0.1c1,0.9,2.2,1.6,3.4,2.2C116,160.3,117,159.6,117.8,158.7z"/>
				<path class="st4" d="M131.6,157.7v1.1c-0.7,1.2-1.5,2.3-2.4,3.4h2.6v0.9c-0.3,1.6-0.6,2.8-1.1,3.9c0.2,0.1,0.3,0.2,0.5,0.4
					c0.6,0.6,1.2,1,1.9,1.3c0.6,0.2,1.5,0.4,2.7,0.4c1.1,0,2.3,0,3.7,0c1.3,0,3.1,0,5.2-0.1l-0.3,1.3h-4.8c-1.5,0-2.8,0-3.9-0.1
					c-1.3,0-2.4-0.2-3.1-0.5c-0.8-0.3-1.6-0.8-2.2-1.5c-0.2-0.1-0.3-0.2-0.5-0.2c-0.5,0-1.1,0.9-2,2.6l-1-0.9c0.9-1.8,1.8-2.7,2.6-3
					c0.4-1,0.8-2.2,1-3.4h-2.9v-1.1c1-1.1,1.8-2.2,2.5-3.3h-2.9v-1.3H131.6z M131.5,155.8l-0.9,0.9c-0.7-0.9-1.7-1.8-3-2.8l0.9-0.9
					C129.7,154,130.7,154.9,131.5,155.8z M144,156.6h-1v0.7h-4v1.2h4.2v5.7H139v1.2h5.2v1.2H139v1.9h-1.3v-1.9h-5.2v-1.2h5.2v-1.2
					h-4.2v-5.7h4.2v-1.2h-4v-0.7h-1.1v-3.1H144V156.6z M137.7,156.3v-1.5h-3.7v1.5H137.7z M137.7,160.9v-1.3h-2.8v1.3H137.7z
					 M137.7,161.9h-2.8v1.3h2.8V161.9z M139,156.3h3.7v-1.5H139V156.3z M139,160.9h2.8v-1.3H139V160.9z M141.8,161.9H139v1.3h2.8
					V161.9z"/>
				<path class="st4" d="M157.9,152.8v3.5h7v9.2h-1.4v-1.2h-5.6v6.7h-1.4v-6.7h-5.6v1.2h-1.4v-9.2h7v-3.5H157.9z M156.5,162.8v-5.2
					h-5.6v5.2H156.5z M163.5,162.8v-5.2h-5.6v5.2H163.5z"/>
				<path class="st4" d="M173.3,159.3c-0.5,3.4-1.3,6.2-2.3,8.7l-1.2-0.8c1-2.5,1.7-5.2,2.2-8.2L173.3,159.3z M176.8,170.1
					c-1.4,0-2-0.7-2-2v-11.2h1.4v10.9c0,0.6,0.4,0.9,1.1,0.9h3.7c0.5,0,0.8-0.2,1-0.6c0.2-0.5,0.4-1.8,0.5-4.1l1.3,0.4
					c-0.2,2.7-0.4,4.3-0.8,4.9c-0.4,0.5-1,0.7-1.7,0.7H176.8z M181.6,157.9l-1.2,0.8c-1-1.5-2.4-3.2-4.1-5.1l1.2-0.7
					C179.2,154.8,180.6,156.5,181.6,157.9z M187.7,166.5l-1.3,0.6c-1-3.1-2.1-5.9-3.3-8.2l1.4-0.4
					C185.7,160.9,186.8,163.6,187.7,166.5z"/>
			</g>
		</g>
	</g>
	<g>
		<g class="st17">
			<circle class="st39" cx="80.2" cy="201.3" r="8.8"/>
		</g>
		<g>
			<g>
				<path class="st4" d="M109.8,200.2l-1,1c-0.8-0.9-1.9-1.8-3.2-2.8l1-1C107.8,198.4,108.9,199.3,109.8,200.2z M109.7,203.6
					c-0.8,2.3-1.6,4.4-2.6,6.4l-1.4-0.6c1.1-2.1,2-4.2,2.7-6.3L109.7,203.6z M110.4,195.5l-1,1c-0.8-0.9-2-1.9-3.5-3l1-1
					C108.3,193.6,109.4,194.6,110.4,195.5z M113.6,194.3v-2.1h1.4v2.1h3.3v-2.1h1.4v2.1h2.5v1.3h-2.5v2.3h3.1v1.3h-3.2
					c0.8,1.3,2.1,2.4,3.8,3.2l-0.6,1.2c-1.1-0.6-2-1.2-2.7-1.9v4.1h-5.9v1.9c0,0.5,0.3,0.8,0.9,0.8h5.2c0.4,0,0.6-0.2,0.8-0.5
					c0.1-0.3,0.2-0.8,0.3-1.8l1.3,0.4c-0.1,1-0.2,1.7-0.4,2.1c-0.3,0.6-0.8,1-1.6,1h-6.2c-1.2,0-1.7-0.5-1.7-1.6v-5.8
					c-0.7,0.6-1.4,1.2-2.3,1.7l-0.7-1.2c1.9-1.1,3.2-2.3,3.9-3.7h-3.1v-1.3h3.1v-2.3h-2.3v-1.3H113.6z M119.7,201.4
					c-0.6-0.7-1.1-1.4-1.5-2.1H115c-0.3,0.8-0.7,1.5-1.3,2.1H119.7z M118.8,204.6v-2h-4.6v2H118.8z M118.3,197.9v-2.3H115v2.3H118.3
					z"/>
				<path class="st4" d="M129.2,197.4v-5.1h1.4v5.1h2.3v1.4h-2.3v5.9c0.7-0.3,1.3-0.6,2-1v1.4c-1.7,0.9-3.5,1.6-5.5,2.2l-0.3-1.4
					c0.8-0.2,1.6-0.4,2.4-0.7v-6.5H127v-1.4H129.2z M137.9,205.4v-1.8h-4v-9.7h3.3c0.3-0.6,0.5-1.3,0.7-1.9l1.4,0.2
					c-0.2,0.6-0.4,1.2-0.7,1.7h4.6v4.1h-8v1.5h8.4v4.1h-4.4v1.8h5.5v1.3h-5.5v3.3h-1.3v-3.3h-5.5v-1.3H137.9z M141.8,196.8v-1.7
					h-6.6v1.7H141.8z M135.2,202.3h7.1v-1.7h-7.1V202.3z"/>
				<path class="st4" d="M149.4,209.9l-1.1-1c1.2-1.7,1.9-3.9,1.9-6.6V193h14.5v14.6c0,1.4-0.7,2-2,2h-2.2l-0.4-1.4
					c0.8,0,1.5,0.1,2.2,0.1c0.7,0,1.1-0.4,1.1-1.2v-3.4H158v5.7h-1.4v-5.7h-5C151.3,206.2,150.6,208.3,149.4,209.9z M151.6,194.4
					v3.4h5v-3.4H151.6z M151.6,202.4h5V199h-5V202.4z M163.3,194.4H158v3.4h5.3V194.4z M163.3,199H158v3.4h5.3V199z"/>
				<path class="st4" d="M172.3,197.5v-5.2h1.4v5.2h2.2v1.4h-2.2v6.4c0.9-0.3,1.7-0.6,2.6-1v1.4c-1.9,0.9-4,1.6-6.2,2.2l-0.4-1.4
					c0.9-0.2,1.7-0.4,2.6-0.6v-6.9H170v-1.4H172.3z M182.8,192.2v4.5l4.1-1.2c0,2.4-0.3,5-0.9,7.7l-1.3-0.4c0.4-1.7,0.6-3.5,0.8-5.5
					l-2.8,0.8v7.8h-1.3v-7.4l-2.5,0.7v8.1c0,0.7,0.3,1,0.9,1h5c0.4,0,0.7-0.1,0.9-0.4c0.2-0.3,0.4-1.3,0.4-2.9l1.3,0.4
					c-0.1,2-0.4,3.2-0.8,3.7c-0.4,0.4-0.9,0.6-1.6,0.6h-5.7c-1.2,0-1.9-0.7-1.9-2.1v-8l-1.4,0.4v-1.4l1.4-0.4v-4.1h1.3v3.7l2.5-0.7
					v-5H182.8z"/>
			</g>
		</g>
	</g>
</g>
<g>
	<g>
		<path class="st4" d="M740.2,314.3c-16.3,14.7-32.7,29.4-49,44.1c-1.3,1.2,1.5,1.4,2.4,0.7c16.3-14.7,32.7-29.4,49-44.1
			C743.8,313.8,741,313.5,740.2,314.3L740.2,314.3z"/>
	</g>
</g>
<g class="st17">
	<g>
		<path class="st35" d="M623,86.7c2.3,0.7,4.5,0.8,6.9,0.1c1.1-0.4,2.2-0.9,3.1-1.5c1-0.7,1.9-2.3,3-2.8c-0.8,0-1.5,0.1-2.3,0.1
			c2.7,1.4,3.7,3.5,7.2,2.8c1.2-0.2,2.3-0.7,3.3-1.4c0.5-0.4,0.9-0.9,1.3-1.3c1.4-1.2-0.2-1,1.3,0.1c2.5,1.7,4.8,3.4,8,3
			c1.2-0.1,2.5-0.6,3.6-1.3c1.4-1,1.8-2.7,3-3.7c-0.9,0.1-1.8,0.2-2.7,0.3c2.7,1.3,3.5,3.9,6.7,4.5c2.3,0.4,4.3-0.1,6.3-1
			c2.4-1.1,0.2-2.5-1.5-1.7c-4.4,2-5.5-2.2-8.5-3.7c-0.8-0.4-2-0.2-2.7,0.3c-1.7,1.2-1.9,2.3-4,2.9c-3.5,1-3.8-1.3-6.7-2.7
			c-1.5-0.7-2.9-1-4.3,0.1c-1.8,1.3-2.9,3-5.8,2.1c-0.7-0.2-1.1-1.2-2-1.4c-4.8-0.8-4,6.2-10.8,4C624,84.1,620.8,86,623,86.7
			L623,86.7z"/>
	</g>
</g>
<g class="st17">
	<g>
		<path class="st35" d="M409.5,90.9c2.3,0.7,4.5,0.8,6.9,0.1c1.1-0.4,2.2-0.9,3.1-1.5c1-0.7,1.9-2.3,3-2.8c-0.8,0-1.5,0.1-2.3,0.1
			c2.7,1.4,3.7,3.5,7.2,2.8c1.2-0.2,2.3-0.7,3.3-1.4c0.5-0.4,0.9-0.9,1.3-1.3c1.4-1.2-0.2-1,1.3,0.1c2.5,1.7,4.8,3.4,8,3
			c1.2-0.1,2.5-0.6,3.6-1.3c1.4-1,1.8-2.7,3-3.7c-0.9,0.1-1.8,0.2-2.7,0.3c2.7,1.3,3.5,3.9,6.7,4.5c2.3,0.4,4.3-0.1,6.3-1
			c2.4-1.1,0.2-2.5-1.5-1.7c-4.4,2-5.5-2.2-8.5-3.7c-0.8-0.4-2-0.2-2.7,0.3c-1.7,1.2-1.9,2.3-4,2.9c-3.5,1-3.8-1.3-6.7-2.7
			c-1.5-0.7-2.9-1-4.3,0.1c-1.8,1.3-2.9,3-5.8,2.1c-0.7-0.2-1.1-1.2-2-1.4c-4.8-0.8-4,6.2-10.8,4C410.5,88.3,407.3,90.2,409.5,90.9
			L409.5,90.9z"/>
	</g>
</g>
<g class="st17">
	<g>
		<path class="st35" d="M159.8,354.7c2.3,0.7,4.5,0.8,6.9,0.1c1.1-0.4,2.2-0.9,3.1-1.5c1-0.7,1.9-2.3,3-2.8c-0.8,0-1.5,0.1-2.3,0.1
			c2.7,1.4,3.7,3.5,7.2,2.8c1.2-0.2,2.3-0.7,3.3-1.4c0.5-0.4,0.9-0.9,1.3-1.3c1.4-1.2-0.2-1,1.3,0.1c2.5,1.7,4.8,3.4,8,3
			c1.2-0.1,2.5-0.6,3.6-1.3c1.4-1,1.8-2.7,3-3.7c-0.9,0.1-1.8,0.2-2.7,0.3c2.7,1.3,3.5,3.9,6.7,4.5c2.3,0.4,4.3-0.1,6.3-1
			c2.4-1.1,0.2-2.5-1.5-1.7c-4.4,2-5.5-2.2-8.5-3.7c-0.8-0.4-2-0.2-2.7,0.3c-1.7,1.2-1.9,2.3-4,2.9c-3.5,1-3.8-1.3-6.7-2.7
			c-1.5-0.7-2.9-1-4.3,0.1c-1.8,1.3-2.9,3-5.8,2.1c-0.7-0.2-1.1-1.2-2-1.4c-4.8-0.8-4,6.2-10.8,4C160.8,352.1,157.6,354,159.8,354.7
			L159.8,354.7z"/>
	</g>
</g>
<g class="st17">
	<g>
		<path class="st35" d="M473.7,206.1c1.8,0.5,3.6,0.5,5.4-0.1c1.5-0.5,3.1-2.5,3.9-2.8c-0.8,0-1.5,0.1-2.3,0.1
			c2,1.1,2.6,2.3,5.2,1.9c2.6-0.4,3.1-2,4.8-3.5c-1,0.2-2,0.4-3,0.6c3,1.2,4.3,3.6,7.8,3c2.8-0.4,3.1-2.2,5.1-3.7
			c-1,0.2-2,0.4-3,0.6c2,1,2.4,2.7,4.8,3.1c1.7,0.3,3.2-0.1,4.7-0.8c2.4-1,0.2-2.2-1.5-1.5c-2.1,0.8-3.5-1.8-5-2.6
			c-0.9-0.5-2.3,0-3,0.6c-1.5,1.1-0.5,1.3-2.8,1.2c-1.8-0.1-2.5-1.2-4-1.8c-0.9-0.4-2.3,0-3,0.6c-1,0.9-1.2,1.6-2.9,1.3
			c-0.5-0.1-0.8-1-1.6-1c-2.4-0.1-5.1,3.3-7.2,2.7C474.8,203.7,471.6,205.5,473.7,206.1L473.7,206.1z"/>
	</g>
</g>
<g class="st17">
	<g>
		<path class="st35" d="M516.8,229.5c2.2,0.7,4.3,0.7,6.5-0.2c1.8-0.7,2.9-2.6,4.4-3.3c-0.8,0-1.5,0.1-2.3,0.1
			c2.4,1.3,3.2,2.8,6.2,2.2c2.8-0.6,3.3-2.4,5.2-4.1c-0.9,0.2-1.8,0.5-2.7,0.7c1.5,0.2,3.3,2.5,4.9,3.1c1.2,0.5,2.3,0.6,3.6,0.5
			c1-0.1,2.1-0.4,3-0.9c1.3-0.8,1.7-2.4,2.8-3.2c-0.9,0.1-1.8,0.2-2.7,0.3c2.2,1.1,2.9,3.2,5.6,3.7c1.9,0.3,3.7-0.1,5.4-0.9
			c2.4-1,0.2-2.4-1.5-1.6c-2,0.8-4.2-1.6-5.4-2.3c-0.4-0.2-0.6-0.5-1.1-0.8c-0.8-0.4-2-0.1-2.7,0.3c-1.3,0.9-1.6,2-3.2,2.3
			c-2.6,0.6-3.2-1.5-5.2-2.4c-1.6-0.8-2.6-0.2-4.1,0.6c-0.3,0.2-0.4,0.7-0.7,0.8c-0.9,0.5-2.4,0.6-3.4,0.3c-0.6-0.2-1-0.8-1.8-0.9
			c-3.8-0.4-3.7,4.8-8.5,3.3C517.8,227,514.6,228.8,516.8,229.5L516.8,229.5z"/>
	</g>
</g>
<g class="st17">
	<g>
		<path class="st35" d="M212.4,322.3c2.2,0.7,4.3,0.7,6.5-0.2c1.8-0.7,2.9-2.6,4.4-3.3c-0.8,0-1.5,0.1-2.3,0.1
			c2.4,1.3,3.2,2.8,6.2,2.2c2.8-0.6,3.3-2.4,5.2-4.1c-0.9,0.2-1.8,0.5-2.7,0.7c1.5,0.2,3.3,2.5,4.9,3.1c1.2,0.5,2.3,0.6,3.6,0.5
			c1-0.1,2.1-0.4,3-0.9c1.3-0.8,1.7-2.4,2.8-3.2c-0.9,0.1-1.8,0.2-2.7,0.3c2.2,1.1,2.9,3.2,5.6,3.7c1.9,0.3,3.7-0.1,5.4-0.9
			c2.4-1,0.2-2.4-1.5-1.6c-2,0.8-4.2-1.6-5.4-2.3c-0.4-0.2-0.6-0.5-1.1-0.8c-0.8-0.4-2-0.1-2.7,0.3c-1.3,0.9-1.6,2-3.2,2.3
			c-2.6,0.6-3.2-1.5-5.2-2.4c-1.6-0.8-2.6-0.2-4.1,0.6c-0.3,0.2-0.4,0.7-0.7,0.8c-0.9,0.5-2.4,0.6-3.4,0.3c-0.6-0.2-1-0.8-1.8-0.9
			c-3.8-0.4-3.7,4.8-8.5,3.3C213.5,319.8,210.3,321.6,212.4,322.3L212.4,322.3z"/>
	</g>
</g>
</svg>
