<?xml version="1.0" encoding="utf-8"?>
<!-- Generator: Adobe Illustrator 23.0.1, SVG Export Plug-In . SVG Version: 6.00 Build 0)  -->
<svg version="1.1" xmlns="http://www.w3.org/2000/svg" xmlns:xlink="http://www.w3.org/1999/xlink" x="0px" y="0px"
	 viewBox="0 0 1091.7 766.3" style="enable-background:new 0 0 1091.7 766.3;" xml:space="preserve">
<style type="text/css">
	.st0{fill:#CF9479;}
	.st1{fill:#222222;}
	.st2{fill:#FEFEFE;}
	.st3{fill:#FFFFFF;}
	.st4{fill:#FFFFFF;stroke:#000000;stroke-miterlimit:10;}

	#pollution {
		animation: fade 3s ease-in-out infinite;
	}
	#air {
		animation: fade2 3s ease-in-out infinite;
	}
	#hand {
		animation: enter 3s ease-in-out infinite;
	}
	@keyframes enter {
	  0% {
	  	transform: translate(-100px, -100px) rotateZ(20deg);
	  	opacity: 0;
	  }
	  10% {
	  	transform: translate(-100px, -100px) rotateZ(20deg);
	  	opacity: 0;
	  }
	  30% {
	  	transform: translate(0, 0) rotateZ(0deg);
	  	opacity: 1;
	  }
	  90% {
	  	transform: translate(0, 0) rotateZ(0deg);
	  	opacity: 1;
	  }
	  99% {
	  	transform: translate(0, 0) rotateZ(0deg);
	  	opacity: 0;
	  }
	  100% {
	  	transform: translate(-100px, -100px) rotateZ(20deg);
	  	opacity: 0;
	  }
	}

	@keyframes fade {
	  0% {
	  	opacity: 0;
	  }
	  30% {
	  	opacity: 0;
	  }
	  40% {
	  	opacity: 1;
	  }
	  75% {
	  	opacity: 1;
	  }
	  90% {
	  	opacity: 0;
	  }
	  100% {
	    opacity: 0;
	  }
	}

	@keyframes fade2 {
	  0% {
	  	opacity: 0;
	  }
	  35% {
	  	opacity: 0;
	  }
	  45% {
	  	opacity: 1;
	  }
	  75% {
	  	opacity: 1;
	  }
	  90% {
	  	opacity: 0;
	  }
	  100% {
	    opacity: 0;
	  }
	}
</style>
<g id="background">
	<g id="Background_Color_xA0_影像_1_">
	</g>
	<g id="Background_xA0_影像_1_">
		<g>
			<g>
				<path class="st0" d="M780.1,554.5c-2.1-0.2-4.7-0.3-7.3-0.7c-3.7-0.6-4.8-3.3-2.4-6.3c2.3-3,5-5.8,7.3-8.8
					c2.6-3.5,5.8-1.3,7.6,1.4c0.4,0.6,0.4,1.4,0.5,2.1c0.5,2.7,0.1,5.5,0.5,8.3C786.7,553.4,784.8,554.6,780.1,554.5z"/>
				<path class="st0" d="M736.2,567.9c-3.6-0.5-7.2-0.3-10.8-0.4c-3,0-4.3-2.2-2.9-4.8c2-3.7,4.3-7.1,7-10.4c0.8-1,1.8-1.6,3.1-1.2
					c1.4,0.4,1.4,1.5,1.9,2.7c0.9,2.5,3.1,4.4,4.6,6.6c0.5,0.7,1,1.3,1.5,1.9c1,1.2,1.3,2.6,0.5,4s-2,1.7-3.5,1.6
					C737.1,568,736.7,568,736.2,567.9z"/>
				<path class="st0" d="M835.7,150.9c-1.4,0.1-2.5-0.3-3.2-1.6c-0.7-1.4,0-2.5,0.9-3.4c1.9-2.2,3.9-4.3,5.9-6.4
					c2.5-2.7,4.3-2.8,7-0.3c1.7,1.5,3.2,3.3,4.5,5.1c2,2.8,0.5,5.6-2.9,5.6C843.7,149.7,839.7,150.3,835.7,150.9z"/>
				<path class="st0" d="M833.2,387.5c-1.7,0.1-3.5-0.2-5.1-0.5c-2.6-0.5-3.6-2.5-2.6-4.9c0.6-1.6,1.5-3.1,2.3-4.6
					c1.6-3.1,4.8-3.5,7.4-3.3c3.5,0.3,3.6,4.3,5.1,6.8c0.9,1.5,1.3,3.4-0.1,4.8C838.3,387.8,835.6,387.4,833.2,387.5z"/>
				<path class="st0" d="M764.9,518.6c-0.1,3.2-3.1,4.9-5.4,3.1c-1.2-0.9-1.7-0.6-2.7,0c-1.7,1-3.4,1-4.4-1
					c-0.4-0.9-1.1-1.1-1.8-1.4c-2.2-0.9-2.7-2.8-1.1-4.6c1.9-2.2,4-4.3,6.1-6.2c2.2-2,5.8-0.5,6.1,2.6c0.2,2.4,1,4.1,2.6,5.7
					C764.9,517.4,765,518.1,764.9,518.6z"/>
				<path class="st0" d="M858.1,188.3c-1.4-0.2-2.7-0.4-3.3-1.9s0.1-2.7,1.2-3.6c2.5-2.1,5.2-4,8-5.7c1.6-1,3.1-0.8,4.3,0.8
					c1.5,2,3.9,3.3,5,5.7c0.7,1.6,1.4,3.3-0.3,4.7c-1.5,1.3-2.8,0.5-4.2-0.4c-1.8-1.2-3.9-0.5-5.8-0.3
					C861.3,187.7,859.7,188,858.1,188.3z"/>
				<path class="st0" d="M865.4,342.7c1.1,0,1.9,0.3,2.7,1.1c2,2.2,3.6,4.8,5,7.4c0.6,1,0.6,2.1-0.2,3s-1.8,1.5-2.9,1
					c-3.3-1.6-6.9-1.1-10.3-2c-1.9-0.5-3.8-0.8-4.2-3.2c-0.4-2.2,1.2-3.3,2.8-4.2C860.6,344.7,862.7,343.1,865.4,342.7z"/>
				<path class="st0" d="M885.5,392.1c0.3,4.6-0.4,5.3-4.8,4.8c-1-0.1-1.7,0-2.2,1c-1.2,2.4-3.2,2.1-5.1,1.1c-2-1-2.4-2.9-1.5-4.9
					c1-2.1,2.2-4,3-6.3c0.4-1.2,1.6-1.9,3-1.9c0.3,0,0.5,0.1,0.8,0.1C884.8,385.4,885,385.6,885.5,392.1z"/>
				<path class="st0" d="M661.9,598.3c0.1,2.2-1.1,3.4-3.1,3.4c-1.8,0-2.8-1.2-2.9-3c-0.1-1.8,1.6-3.5,3.4-3.4
					C661.4,595.3,661.9,596.7,661.9,598.3z"/>
				<path class="st0" d="M722.5,642.1c0,1.1-0.7,2.2-2.4,2.2c-1.5,0.1-3.6-2-3.5-3.6c0.1-1.4,0.7-2.4,2.3-2.4
					C720.9,638.4,722.5,639.9,722.5,642.1z"/>
				<path class="st0" d="M671.7,700.6c1.8,0,2.8,0.8,2.7,2.4c-0.1,1.8-0.7,3.5-2.9,3.7c-1.8,0.2-2.7-0.9-2.7-2.6
					C668.9,702,669.9,700.9,671.7,700.6z"/>
				<path class="st0" d="M698.9,569.2c-0.3,1.8-1.2,3.1-3.1,3.2c-1.5,0-2.4-1-2.3-2.5c0.1-1.7,0.8-3.3,2.9-3.3
					C698,566.5,698.7,567.7,698.9,569.2z"/>
				<path class="st0" d="M721.8,683c0,1.8-0.9,2.7-2.3,2.7c-2.1,0.1-2.9-1.5-3-3.2c-0.1-1.4,0.8-2.5,2.3-2.5
					C721,680,721.5,681.6,721.8,683z"/>
				<path class="st0" d="M698.2,615.5c-1.6-0.2-2.6-1-2.5-2.6c0.2-1.9,1.6-2.6,3.2-2.7c1.7-0.1,2.5,1,2.4,2.6
					C701.2,614.8,699.8,615.3,698.2,615.5z"/>
				<path class="st0" d="M725.8,510.9c0,2-0.9,2.8-2.4,2.7c-2-0.1-2.9-1.5-2.9-3.2c0-1.4,0.8-2.4,2.4-2.3
					C724.8,508.3,725.6,509.6,725.8,510.9z"/>
				<path class="st0" d="M736.4,350.2c-0.3,1.8-1,3.2-3,3c-1.7-0.2-2.3-1.3-2.1-2.9c0.3-1.7,1.1-2.9,3.1-2.7
					C736,347.8,736.3,348.9,736.4,350.2z"/>
				<path class="st0" d="M765.3,288.2c1.5,0.2,2.9,0.5,3,2.4c0.1,1.8-1.1,2.9-2.8,2.9c-1.6,0-2.6-1.1-2.7-2.8
					C762.7,289.2,763.7,288.4,765.3,288.2z"/>
				<path class="st0" d="M747.6,115.5c-0.2,1.9-1.2,3.1-3.1,3.2c-1.5,0-2.4-0.8-2.4-2.3c0.1-1.9,1.3-3,3.1-3.1
					C746.8,113.1,747.4,114.2,747.6,115.5z"/>
				<path class="st0" d="M703.3,396.2c1.6,0.1,2.6,0.7,2.7,2.4c0.1,1.6-0.8,2.6-2.4,2.7c-1.7,0.1-2.8-0.7-2.8-2.5
					C700.7,397,701.7,396.3,703.3,396.2z"/>
				<path class="st0" d="M728.8,333.1c-1.6-0.1-2.5-0.9-2.5-2.6c0.1-1.8,1.2-2.6,2.9-2.5s2.4,1.2,2.4,2.7
					C731.5,332.5,730.4,333.1,728.8,333.1z"/>
				<path class="st0" d="M671.3,649.8c1.4,0.1,2.4,0.8,2.5,2.4c0,1.8-1,2.6-2.7,2.6s-2.5-1-2.5-2.6
					C668.6,650.8,669.5,649.8,671.3,649.8z"/>
				<path class="st0" d="M709,451.5c-1.3-0.1-2.4-0.8-2.4-2.4c0-1.8,1-2.6,2.7-2.6s2.5,1,2.5,2.6C711.8,450.5,710.9,451.5,709,451.5
					z"/>
				<path class="st0" d="M731.2,283.3c-1.6-0.2-2.7-0.9-2.7-2.5c0-1.7,1-2.7,2.7-2.8c1.6,0,2.5,1.1,2.5,2.6
					C733.6,282.2,732.7,283.2,731.2,283.3z"/>
				<path class="st0" d="M674.8,545.8c-1.4-0.1-2.4-0.8-2.5-2.5c0-1.8,1-2.6,2.7-2.6s2.5,1,2.5,2.6
					C677.5,544.8,676.6,545.8,674.8,545.8z"/>
				<path class="st0" d="M752.3,236.4c-1.7-0.2-2.6-1.2-2.6-2.9c0-1.5,0.9-2.4,2.4-2.4c1.7,0.1,2.6,1.2,2.6,2.9
					C754.6,235.5,753.8,236.3,752.3,236.4z"/>
				<path class="st0" d="M694,349.4c0.1-1.7,0.9-2.6,2.4-2.7c1.7-0.1,2.9,0.8,3,2.5c0,1.6-0.9,2.5-2.6,2.4
					C695.1,351.6,694.3,350.7,694,349.4z"/>
				<path class="st0" d="M706,494.9c-0.2,1.6-1,2.4-2.5,2.4c-1.8,0-2.7-1-2.7-2.7c0-1.4,0.8-2.4,2.4-2.4
					C704.9,492.3,705.7,493.4,706,494.9z"/>
				<path class="st0" d="M683.4,437.6c1.3,0,2.1,0.9,2,2.6c-0.1,1.6-1,2.5-2.6,2.5s-2.4-1.1-2.4-2.7
					C680.4,438.2,681.4,437.5,683.4,437.6z"/>
				<path class="st0" d="M738.3,180.1c-0.1,1.8-1,2.6-2.7,2.4c-1.6-0.1-2.5-1-2.4-2.7c0.1-1.6,1.1-2.4,2.7-2.4
					C737.6,177.6,738.3,178.7,738.3,180.1z"/>
				<path class="st0" d="M715.4,147.2c0,1.9-0.9,2.7-2.5,2.7s-2.6-0.9-2.5-2.5c0-1.6,0.9-2.5,2.6-2.5
					C714.6,144.8,715.3,145.8,715.4,147.2z"/>
				<path class="st0" d="M720.6,214.3c1.4,0.2,2.5,0.8,2.4,2.4c-0.1,1.6-1,2.6-2.5,2.7c-1.5,0.1-2.4-0.7-2.5-2.2
					C717.9,215.4,719.1,214.6,720.6,214.3z"/>
				<path class="st0" d="M763.8,168.6c0-1.8,0.7-2.6,2.3-2.6c1.8,0,2.6,1.2,2.6,2.8c0,1.5-1,2.3-2.5,2.2
					C764.6,171,763.8,169.9,763.8,168.6z"/>
				<path class="st0" d="M635.3,678.9c-0.1,1.4-0.8,2.2-2.2,2.2c-1.5-0.1-2.3-0.9-2.3-2.4c0-1.6,1.1-2.2,2.5-2.1
					C634.8,676.6,635.3,677.5,635.3,678.9z"/>
				<path class="st0" d="M664.8,394c1.4,0.2,2.1,1,2.1,2.4c0,1.6-1,2.2-2.5,2.1c-1.4-0.1-2.1-1-2-2.4
					C662.5,394.8,663.4,394.1,664.8,394z"/>
			</g>
			<g>
				<path class="st1" d="M600.1,690.9c0.1-0.4,0.3-1,0.5-1.6c4.2-12.3,10.5-23.5,18.4-33.8c7.2-9.4,12.3-19.9,14-31.8
					c0.5-3.3,0.7-6.6,0.3-9.8c-2.4-22.4,4.7-42.2,16.4-60.9c4.8-7.6,9.4-15.4,14.7-22.6c12-16.4,11.6-33.1,1.9-50.3
					c-5.1-9.1-11.6-17.1-17.9-25.4c-9.4-12.3-14.4-26-13.4-41.6c0.8-11.5,4.7-22.2,9.6-32.5c7.7-16.3,17.2-31.5,27.2-46.5
					c9.2-13.8,18.1-27.6,26.3-42c11-19.5,12-39.4,4.1-60.1c-4.2-11.1-9.8-21.5-14.7-32.2c-3.6-7.9-6.9-15.8-8.3-24.4
					c-1.6-10.2-0.1-20.1,3.5-29.7c5.6-15.2,14.2-28.8,23.6-41.9c5.3-7.3,10.3-14.7,16.7-21.2c2.6-2.7,5.6-4.6,9.6-4.5
					c1.5,0.1,2.8,0.5,2.9,2.2c0.2,1.8-0.9,2.8-2.6,2.8c-2.9,0.1-5.1,1.6-6.7,3.7c-15.1,18.7-29.3,38-38.2,60.6
					c-6,15.4-4.4,30.3,2.4,44.9c4.5,9.6,9.1,19.2,13.5,28.9c5.2,11.5,8.8,23.5,9.2,36.2c0.4,14-4.2,26.5-10.8,38.6
					c-9.7,17.7-21.4,34.2-32.3,51.2c-10.1,15.9-19.8,32-25.9,49.9c-6.4,18.8-4.2,36.3,7.7,52.4c4.9,6.7,10,13.2,14.7,20
					c6,8.7,10.6,18,12.3,28.5c1.5,9.2,0,17.9-4.2,26.2c-2.8,5.4-6.3,10.4-9.6,15.5c-7.7,11.7-15.2,23.5-20.7,36.4
					c-3.6,8.5-5.6,17.4-5.4,26.8c0.2,7.3,0.9,14.5-0.2,21.8c-1.8,11.9-6.6,22.7-13.7,32.3c-7.7,10.4-14.6,21.3-18.7,33.7
					c-0.3,1-0.8,1.9-1.6,2.5c-0.9,0.8-2,0.9-3.1,0.4C600.5,693.1,600.1,692.2,600.1,690.9z"/>
				<path class="st1" d="M843.2,168.2c-3.9,0.2-7.8,0.5-11.7,0.6c-3.8,0.1-5-1.2-4.8-5.1c0.1-2.7,0.1-5.4,0.3-8.2
					c0.1-1.7-0.4-2.3-2.2-2c-2.1,0.4-4.6,1.4-5.7-1.3c-1.1-2.7,1.5-3.7,3-5.1c4.8-4,9.6-8.1,14.4-12c1-0.9,2.2-1.7,3.3-2.4
					c3.5-2,5.9-1.7,8.2,1.7c3.5,5,7.2,9.8,9.9,15.3c1.3,2.7,1.1,3.7-1.6,5.1c-0.9,0.5-0.9,1.2-1.1,2c-0.5,2.5-0.9,5-1.4,7.5
					c-0.6,2.8-2.3,4.2-5.3,4C846.8,168.3,845,168.3,843.2,168.2C843.2,168.3,843.2,168.3,843.2,168.2z M832.1,158.1
					c0,0.7,0,1.5-0.1,2.2c-0.5,2.6,0.6,3.3,3.1,3c3.9-0.4,7.8-0.4,11.7-0.6c0.9,0,1.8,0,2-1.3c0.3-2.3,0.7-4.7,1.1-7
					c0.2-1.2-0.2-1.9-1.5-2c-3.4-0.1-6.9-0.8-10.3-0.5C832.4,152.6,832.4,152.6,832.1,158.1z M849.8,147c-2.2-3.2-4-5.9-5.9-8.6
					c-0.4-0.6-0.9-0.9-1.6-0.4c-3.6,2.6-7,5.5-10.1,8.7C838,146,843.6,146.4,849.8,147z"/>
				<path class="st1" d="M845.5,370.8c0.3-3.7,0.5-7.1,0.8-10.4c0.1-1.3,0.2-2.1-1.5-2.4c-2.9-0.6-3.7-3.6-1.4-5.6
					c5.9-5.1,12-10,18.1-14.9c2.3-1.8,4.8-1.1,6.1,1.5c2.5,4.8,5.5,9.2,8.5,13.6c1.7,2.6,1.6,3.6-1.1,5.2c-1.1,0.7-1,1.6-1,2.6
					c-0.1,3.3-0.4,6.5-1.1,9.7c-1.2,4.9-3.6,6.5-8.5,5.8c-4.3-0.7-8.5-0.6-12.8-0.1C847,376.5,845.3,375,845.5,370.8z M851,366.2
					c0,0.7,0.1,1.1,0,1.4c-0.4,2.3,0.4,2.9,2.7,2.6c3.6-0.5,7.2-0.5,10.8,0.2c1.7,0.3,2.5-0.1,2.8-1.9c0.6-3.3,0.9-6.6,1-10
					c0.1-1.5-0.6-1.9-1.9-1.9c-3.5,0.1-7.1-0.1-10.6,0.2c-4.2,0.3-4.2,0.5-4.5,4.6C851.3,363.1,851.1,364.8,851,366.2z M867.9,350.8
					c-1.5-2.4-2.7-4.4-3.9-6.5c-0.4-0.7-0.8-1.2-1.6-0.5c-2.6,2.2-5.1,4.4-8.1,7C859,350.8,863.2,350.8,867.9,350.8z"/>
				<path class="st1" d="M876.5,194c-1.5-0.7-1.5,0.3-1.6,1.4c-0.3,2.2-0.6,4.3-1.1,6.4c-0.5,2.2-2.1,3.3-4.4,3.5
					c-6,0.4-12,0.9-17.9,1.2c-4.3,0.2-5.4-0.9-5.5-5.1c0-2.1,0-4.2,0-6.3c0-1.4-0.1-2.4-1.5-3.4c-1.8-1.2-1.4-3.1,0.1-4.4
					c5.7-5.1,11.4-10.1,17.2-15.1c2.8-2.4,5.1-2.1,7.6,0.7c2.6,2.9,4.3,6.5,6.2,9.9c1.2,2.3,2.6,4.6,3.7,7
					C880.4,192.5,879.3,194.1,876.5,194z M863.8,190.8c-0.9,0-1.8-0.1-2.7,0c-1.7,0.1-3.4,0.2-5.1,0.5c-5.8,1-4.6-0.1-4.6,5.3
					c0,1,0.1,2,0.1,3c-0.1,1.5,0.6,1.8,2,1.6c4-0.5,8.1-1,12.2-1.2c2.6-0.1,3.3-1,3.5-3.5C869.5,190.3,870.7,190.9,863.8,190.8z
					 M870.2,185.1c-1.2-2.8-2.5-4.9-3.9-7c-0.4-0.6-0.8-1.4-1.7-0.6c-2.8,2.5-5.5,5-8.3,7.5C861,184.9,865.4,185.2,870.2,185.1z"/>
				<path class="st1" d="M716.5,570.5c-4.3-0.7-5.3-2.9-2.8-6.3c3.3-4.5,6.5-8.9,10-13.2c3.3-4.2,8.1-4.1,11.4-0.1
					c2.7,3.3,5.3,6.7,7,10.7c1.6,3.7,1,5.3-2.6,7.3c-1.1,0.6-1.3,1.5-1.4,2.4c-0.6,4.1-1.4,8.2-0.1,12.3c0.6,2.1-0.7,3.4-2.5,3.9
					c-5.4,1.7-11,2-16.7,1.6c-1.8-0.1-3.3-1.2-3.3-3.1C715.4,580.9,715.1,575.7,716.5,570.5z M719.8,570.4c1.2,1.5,1,3,0.9,4.6
					c-0.1,2.4,0,4.7-0.1,7.1c-0.1,1.4,0.4,2,1.9,1.9c2.5-0.3,5-0.5,7.6-0.7c1.4-0.1,2-0.8,2-2.3c0.1-3.2,0.3-6.3,0.7-9.5
					c0.2-1.5-0.4-1.7-1.6-1.6C727.6,569.8,723.9,569.8,719.8,570.4z M719.8,564.8c5.6-0.3,10.4-0.6,15.2-0.9
					c1.3-0.1,1.8-0.5,1.1-1.8c-1.7-3-3.8-5.7-6.1-8.4c-0.7-0.9-1.3-0.7-1.9,0.1C725.5,557.2,722.9,560.7,719.8,564.8z"/>
				<path class="st1" d="M753.1,540.3c-2.3,0-4.5,0.1-6.8,0c-2.7-0.1-4-1.3-3.9-4.1c0.1-3.5,0.4-7.1,0.8-10.6
					c0.2-1.4-0.1-1.8-1.5-2.1c-3.2-0.6-4.2-3-2.3-5.6c4.5-5.9,10-10.8,15.9-15.2c3.4-2.5,6.1-1.4,7.6,2.5c1.4,3.6,2.9,7.2,4.2,10.9
					c1.2,3.4,0.7,4.8-2.3,6.9c-0.7,0.5-1,0.9-1.1,1.7c-0.2,2.9-0.4,5.8-0.7,8.7c0,0.6,0,1.2,0.3,1.8c1.4,3,0.6,4.5-2.7,4.7
					c-2.5,0.2-5.1,0-7.6,0C753.1,540.1,753.1,540.2,753.1,540.3z M752.5,534.7c0.8,0,1.6-0.1,2.4,0c2.1,0.3,2.9-0.6,2.9-2.7
					c0-1.6,0.2-3.3,0.4-4.9c0.4-3.8,0.4-3.8-3.3-3.8c-6.8-0.1-6.8-0.1-7.1,6.7C747.7,534.8,747.7,534.8,752.5,534.7z M757.5,507.5
					c-3.9,3.1-7.4,6.3-11,10.3c5.1,0,9.5,0,13.9,0c1.1,0,1.1-0.6,0.8-1.4C759.9,513.6,758.8,510.6,757.5,507.5z"/>
				<path class="st1" d="M774.2,570.5c-2.4,0-4.9,0.2-7.3,0c-3-0.2-4.3-1.9-4.2-4.9c0.1-1.5,0.3-3.1,0.3-4.6
					c0.1-2.2,1.2-4.6-2.4-5.6c-1.8-0.5-1.7-3.3,0.2-5.4c3.2-3.5,6.5-6.9,9.7-10.3c1.7-1.8,3.4-3.6,5.1-5.3c1.5-1.5,2.8-1.4,5-0.4
					c7.2,3.4,7,10.8,9.4,16.6c1.2,2.9-0.8,5.4-3.9,5.9c-1.7,0.3-2.1,1.1-2.1,2.5c-0.1,2.6-0.3,5.2-0.3,7.9c0,2.3-0.8,3.6-3.4,3.4
					c-2-0.2-4,0-6,0C774.2,570.4,774.2,570.5,774.2,570.5z M784.5,551.1c-1.9-4.5-3.6-8.5-5.4-12.8c-3.9,4.1-7.4,7.9-11.3,12.2
					c3.3,0,5.9-0.1,8.5,0C778.8,550.5,781.4,550.8,784.5,551.1z M772.9,565.2c5.3-0.4,5.3-0.4,5.7-3.7c0.7-5.2,0.7-5.2-4.6-5.6
					c-5.1-0.3-5.1-0.3-5.7,4.5C767.7,565.5,767.7,565.5,772.9,565.2z"/>
				<path class="st1" d="M829.1,406.2c-1.8,0-3.6,0-5.4,0c-3.3,0-4.5-1-4.3-4.4c0.1-3.1,0.4-6.2,0.7-9.2c0.1-1.2,0-1.9-1.4-2.5
					c-2.2-1-2.8-2.9-1.5-4.9c3.6-5.3,7.7-10.3,12-15.1c2-2.3,5.6-1.7,7.2,0.9c2.7,4.4,5.3,8.9,7.8,13.4c1.3,2.4,1.6,4.7-0.8,6.9
					c-1.5,1.3-1.3,3.5-1.5,5.4c-1.2,9.3-1.8,9.8-11.3,9.5C830.1,406.2,829.7,406.2,829.1,406.2C829.1,406.1,829.1,406.1,829.1,406.2
					z M830.1,400.6c5.4,0.1,5.4,0.1,6.1-5.5c0.1-0.6,0.2-1.3,0.4-1.9c0.3-1.2-0.2-1.6-1.4-1.7c-1.9-0.1-3.8-0.2-5.7-0.4
					c-4.1-0.4-4.1-0.5-4.5,3.6C824.4,400.5,824.4,400.5,830.1,400.6z M823.6,385.3c5.2-0.1,9.7,0.9,14.8,0.5c-2.1-3.6-4-6.9-6-10.2
					c-0.7-1.1-1.2-0.3-1.6,0.3C828.5,378.9,826.3,381.8,823.6,385.3z"/>
				<path class="st1" d="M886.4,412.2c-0.9,1.9-2.5,2.7-4.6,2.7c-3.9,0-7.8,0.3-11.7,0.1c-3.4-0.1-4.4-1.5-4.5-4.8
					c0-1.8,0-3.6,0-5.4c0-1.9,0.3-3.7-2-5c-1.6-0.9-1.3-3-0.1-4.3c4.5-4.8,8.2-10.4,13.9-14c2.1-1.3,3.6-1.1,4.8,0.8
					c2.5,4.2,4.9,8.5,7.2,12.8c1.2,2.4,1.4,4.7-1.3,6.4c-1,0.6-1,1.7-1.1,2.7C886.8,406.8,886.6,409.5,886.4,412.2L886.4,412.2z
					 M875.8,409.8c1.2-0.1,2.6-0.2,4.1-0.3c0.7-0.1,1.5-0.1,1.6-1.1c0.2-1.7,0.4-3.4,0.6-5.1c0.1-1.1-0.4-1.4-1.4-1.5
					c-2.5-0.2-5-0.4-7.6-0.7c-1.7-0.2-2.3,0.6-2.2,2.1c0,0.6,0,1.3,0,1.9C870.8,410.6,870.1,409.8,875.8,409.8z M883.7,396.3
					c-1.8-3.1-3.3-5.7-4.8-8.4c-0.5-0.9-1-0.6-1.5-0.1c-2.3,2.3-4.5,4.8-6.9,7.9C875.2,395.3,879.1,396.4,883.7,396.3z"/>
				<path class="st1" d="M174.4,169.7c-5.7,0-9.7-1.9-13.6-4.5c-3.7-2.5-7.4-4.9-11.9-5.8c-5.5-1.1-10.5-0.4-14.5,4
					c-1.1,1.2-2.5,1.7-3.8,0.6c-1.5-1.3-1-2.8,0.1-4.1c4.2-5,9.9-6.5,16.2-6.1c5.2,0.3,10.1,1.9,14.2,5.1
					c10.9,8.4,19.3,5.6,29.4-1.9c0.4-0.3,0.8-0.7,1.3-1.1c1.4-1.1,2.9-1.5,4.2-0.1c1.4,1.5,1,3.1-0.4,4.3
					C189.2,165.6,182.1,169.5,174.4,169.7z"/>
				<path class="st1" d="M522.5,154c5.1,0.2,11.4,1.4,17.2,3.6c8.3,3.1,14.3,0.2,19.3-6.2c0.8-1.1,1.6-2.2,2.6-3.2
					c1.1-1.1,2.4-1.3,3.7-0.4c1.3,0.9,1.3,2.2,0.8,3.4c-2.8,7.9-14.9,14.6-23.1,12.8c-5.8-1.3-11.4-3.2-17.2-4.2
					c-8-1.4-14.6,0.5-19.3,7.4c-1,1.4-2.3,2.4-3.9,1.4c-1.8-1.1-1.3-2.8-0.4-4.3C506.1,158,513.4,154,522.5,154z"/>
				<path class="st1" d="M507.6,498.8c-6.3-0.3-12-1.8-17.6-3.5c-2.7-0.8-5.4-1.5-8.3-1.5c-3.9,0-7.1,1.4-9.4,4.6
					c-1.1,1.5-2.3,2.9-4.2,1.6c-2-1.5-1-3.3,0.2-4.8c5.1-6.6,11.9-7.8,19.6-6c3.6,0.8,7.2,1.8,10.8,2.8c8.6,2.4,16.5,0.9,24.1-3.5
					c2.3-1.3,4.4-2.9,6.6-4.3c1.5-0.9,3-1.1,4.1,0.5c1.1,1.5,0.6,3-0.8,4.1C525.1,494.4,516.9,498.5,507.6,498.8z"/>
				<path class="st1" d="M302.3,561.4c-4.8,0-9.3-1.2-13.8-3c-7.9-3.2-14.9-2-20.7,4.6c-1,1.2-2.3,1.6-3.6,0.6
					c-1.4-1.1-1.2-2.6-0.3-3.9c3.3-4.8,8.2-6.9,13.7-8c4.3-0.9,8.3,0,12.3,1.5c4.1,1.5,8.3,2.8,12.7,2.5c6.5-0.4,12.2-2.6,17.3-6.6
					c1.4-1.1,2.8-2.3,4.3-3.3c1.4-1,3-1.1,4.1,0.4c1.1,1.4,0.6,2.8-0.6,3.9C320.9,556.2,313.5,560.9,302.3,561.4z"/>
				<path class="st1" d="M365.2,349.9c-3.9-0.2-8.3-1.1-12.5-2.7c-3.1-1.1-6.1-2.4-9.3-3.1c-6-1.2-12.3,2.2-14.6,7.9
					c-0.6,1.5-1.4,2.6-3.2,2.2c-1.8-0.5-1.9-2-1.8-3.5c0.2-1.4,0.9-2.6,1.6-3.7c4.7-7,12.8-10,21-7.7c3.6,1,7.1,2.3,10.6,3.4
					c7.2,2.4,14,1.8,19.9-3.5c0.7-0.7,1.6-1.2,2.5-1.7c1.3-0.7,2.7-0.6,3.6,0.7c0.8,1.2,0.7,2.6-0.3,3.5
					C377.9,346.2,372.7,349.9,365.2,349.9z"/>
				<path class="st1" d="M116.1,585.6c-4.5,0-8.8-1.3-12.9-3c-2-0.8-4-1.7-6.1-2.4c-6.7-2.2-14,1.4-16.2,8.1
					c-0.5,1.5-1.2,2.5-2.9,2.2c-1.7-0.3-2.3-1.7-2.1-3.3c0.1-0.9,0.4-1.8,0.8-2.6c3.9-8.2,13.5-12.3,22.3-9.5
					c4.7,1.5,9.2,3.9,14.2,4.7c5.9,0.9,10.8-0.5,14.5-5.3c0.3-0.4,0.6-0.7,0.9-1.1c1.2-1.3,2.7-1.7,4.1-0.5c1.4,1.1,1.2,2.6,0.3,3.9
					c-3.5,5-8.1,8.2-14.4,8.8C117.8,585.6,117,585.6,116.1,585.6z"/>
				<path class="st1" d="M82.9,350.6c-4.2,0-9.2-1.6-14.1-3c-7.7-2.2-15.3,0.7-19.5,7.5c-0.8,1.3-1.8,2.1-3.3,1.5s-1.7-2-1.3-3.4
					c0.2-0.7,0.5-1.4,0.9-2c4.5-7.1,15-11.3,23.1-9.3c3.7,0.9,7.4,1.9,11.1,2.7c5.9,1.3,11.2,0.1,15.7-4c0.8-0.7,1.7-1.4,2.6-2
					c1.4-0.9,2.8-1,3.9,0.3c1.2,1.4,0.7,2.7-0.3,3.9C97.4,347.7,90.4,350.8,82.9,350.6z"/>
				<path class="st1" d="M908.1,412.9c3.1-0.9,4-4.1,6.7-5.3c0.7-0.3,0.7-2.7,0.7-4.1c-0.1-3.1,2.5-3.9,4.2-5.5
					c0.7-0.6,1.9-0.3,2.7,0.6c0.7,0.9,0.9,2.1,0.1,2.7c-2.2,1.6-1.9,3.9-2.2,6.1s-0.6,4.2-3,5.3c-1.6,0.7-0.9,2.6-1.2,3.9
					s-0.1,2.7-1,3.9c-1.3,1.8-3.4,1.7-4.4-0.1c-0.4-0.6,0.4-2-0.9-1.8c-1.1,0.2-2.4,0.6-3,1.7c-1.4,2.7-2.9,4-5.9,1.6
					c-0.9-0.7-3.2-0.4-4.4,1.1c-0.8,1-1.9,1.4-3.2,0.9c-1.1-0.5-1.6-1.6-1.4-2.7c0.4-3.2,0.9-6.4,1.5-9.6c0.3-1.3,1.3-1.9,2.7-1.7
					c1.3,0.2,1.9,1.1,2,2.2c0.1,0.6-0.1,1.3,0,1.9c0.1,0.9-0.9,2.4,0.5,2.5c1.3,0.1,3.3,0.2,3.7-1.9c0.2-0.9,0.3-1.8,0.6-2.6
					c0.4-1.2,1.1-2.1,2.5-2.1C907.4,409.8,907.8,411.3,908.1,412.9z"/>
				<path class="st1" d="M894.1,366.7c0.2-2.4,0.3-4.9,0.5-7.3c0.2-1.7,0.8-3.4,2.9-3.2c2,0.2,2.2,1.8,2.2,3.5c0,1-0.6,2.2,1.1,2.6
					c1.3,0.3,2.2,0.3,2.8-1.2c0.4-1.1,1.6-1.5,2.8-1.1s1.7,1.3,1.7,2.5c0,1.1-0.5,2.3,1.1,2.7c1.8,0.4,1-1.3,1.5-2
					c0.7-1.1,1.4-1.9,2.8-1.7c1.5,0.2,2.1,1.4,2,2.8c-0.3,3.4-0.7,6.9-1.2,10.3c-0.2,1.5-1,2.7-2.6,2.5c-1.8-0.1-2.3-1.5-2.4-3.1
					c0-0.6,0-1.3,0-1.9c0-1.2-1.1-1.4-1.9-1.7c-1-0.4-1,0.5-1.2,1c-0.6,1.4-1.5,2.4-3.1,2c-1.7-0.4-1.8-1.8-1.8-3.3
					c0-0.9,0.7-2.1-0.8-2.5c-1.3-0.4-1.4,0.8-1.8,1.5c-0.6,1.1-1.6,1.8-2.9,1.4C894,369.9,894,368.3,894.1,366.7z"/>
				<path class="st1" d="M947.5,282.7c-1.3,4.2-2.3,8.9-4.4,13.2c-0.7,1.4-2.1,2.4-3.9,2c-1.7-0.4-2.6-1.8-1.7-3.3
					c2.5-3.9,3.3-8.4,4.8-12.6c0.5-1.4,1.1-2.6,2.8-2.5C946.8,279.6,947.4,280.8,947.5,282.7z"/>
				<path class="st1" d="M920.9,371.9c-0.1,0.7-0.2,1.7-0.4,2.7c-0.2,1.1-0.3,1.8,1,2.3c1.2,0.4,1.7,1.6,1.5,2.9
					c-0.2,1.4-1.2,2.1-2.5,2c-1,0-1.7,0.2-2.3,1.1c-0.7,1-1.8,1.2-2.9,0.7c-1.2-0.5-1.4-1.6-1.2-2.8c0.6-3.3,1.1-6.6,1.8-9.9
					c0.3-1.5,1.2-2.7,3-2.5C920.8,368.6,921,370.1,920.9,371.9z"/>
				<path class="st1" d="M863.5,504c-0.1-1.9,0.4-3,1.9-3.4c1.6-0.4,2.6,0.5,3,2c0.4,1.7,0.8,3.3,1.1,5c0.4,2.1,0.6,4.3,1.7,6.2
					c0.8,1.4,0.7,2.7-0.7,3.6c-1.3,0.9-2.6,0.4-3.6-0.7c-0.5-0.6-1-1.3-1.2-2.1C864.9,511,864.2,507.3,863.5,504z"/>
				<path class="st1" d="M1006.2,184.3c-0.7,3.3-1.3,6.6-2,9.8c-0.2,1-0.8,1.8-1.5,2.5c-1,0.9-2.1,1.4-3.4,0.5
					c-1.1-0.8-1.2-1.9-0.7-3.2c1.4-3.3,1.9-6.8,2.4-10.3c0.3-1.7,0.7-3.3,2.8-3.4C1005.4,180.4,1006.2,181.8,1006.2,184.3z"/>
				<path class="st1" d="M755.5,427.5c0,1.5,0,3.1,0,4.6s-0.6,2.5-2.1,2.8c-1.4,0.3-2.6-0.5-2.9-1.8c-0.9-4-0.7-8.1-0.2-12.1
					c0.1-1.2,1.1-1.8,2.4-1.8c1.4,0,2.2,0.8,2.4,2.2C755.3,423.3,755.3,425.4,755.5,427.5L755.5,427.5z"/>
				<path class="st1" d="M882.2,513.2c0.4-2.8,0.8-5.8,1.3-8.7c0.2-1.5,1.1-2.5,2.8-2.3c1.6,0.2,2.3,1.4,2.2,2.9
					c-0.1,1.8-0.4,3.6-0.6,5.4c-0.1,0.7-0.4,1.4,0.1,2.1c1,1.4,0.9,2.7-0.4,3.9c-1,0.9-2.3,1.1-3.5,0.5
					C882.6,516.2,882.3,514.9,882.2,513.2z"/>
				<path class="st1" d="M792.7,241.5c0,1.6,0,3.3,0,4.9c0,1.5-0.7,2.7-2.4,2.7c-1.6,0.1-2.6-0.9-2.7-2.4c-0.2-3.8-0.4-7.6-0.4-11.4
					c0-1.4,0.7-2.5,2.2-2.6s2.3,0.7,2.7,2.1C792.8,237,792.5,239.2,792.7,241.5z"/>
				<path class="st1" d="M910.3,288.6c0.1-1.2,0-2.1,0.2-3c0.3-1.4,1-2.6,2.6-2.6c1.7,0.1,2.3,1.3,2.4,2.7c0.1,1.5,0.2,3.1,0.2,4.6
					c0,1.4,0.2,2.7,1.1,3.8c0.8,1.1,0.9,2.4-0.2,3.4c-1.1,1-2.4,0.7-3.5-0.1c-1.3-0.9-2-2.1-2.2-3.6
					C910.7,292.1,910.5,290.2,910.3,288.6z"/>
				<path class="st1" d="M734.2,424.7c0-1.9,0.4-3.2,2.1-3.4c1.8-0.2,2.6,0.8,2.9,2.5c0.6,3.4,0.8,6.8,1.8,10.1
					c0.4,1.2-0.2,2.4-1.5,2.8s-2.3,0-3.1-1.1s-1.1-2.5-1.3-3.8C734.8,429.3,734.5,426.8,734.2,424.7z"/>
				<path class="st1" d="M773.9,235.9c0-1.6,0.4-3,2.2-3.2c1.9-0.2,2.7,1.1,2.9,2.8c0.4,3.2,0.9,6.5,1.2,9.7c0.2,1.6-0.3,3-2.1,3.2
					s-2.7-1-3-2.5C774.7,242.6,774.3,239.2,773.9,235.9z"/>
				<path class="st1" d="M969.3,183.3c0-1.8,0.4-3.3,2.3-3.5c2-0.2,2.5,1.2,2.8,2.9c0.5,2.9,0.4,5.9,2.4,8.5
					c1.1,1.4-0.2,3.3-2.1,3.4c-2.1,0-3.3-1.3-4-3.1C969.8,188.7,969.7,185.9,969.3,183.3z"/>
				<path class="st1" d="M810.2,234.9c-0.5,2.9-1,5.9-1.6,8.8c-0.3,1.6-1.3,2.7-3.1,2.4c-1.9-0.4-2.3-1.9-2-3.6c0.4-2.7,1-5.3,1.4-8
					c0.2-1.8,0.5-3.5,2.6-3.4C809.9,231.2,810.1,233,810.2,234.9z"/>
				<path class="st1" d="M904.5,507.8c-0.2,2.8-1.2,5.8-2.4,8.8c-0.5,1.3-1.6,2-3.1,1.6c-1.6-0.5-2.1-1.8-1.7-3.2
					c0.8-3.2,2.1-6.3,2.2-9.8c0-1.1,1-1.7,2.1-1.8c1.1-0.1,1.9,0.5,2.4,1.4C904.5,505.6,904.4,506.5,904.5,507.8z"/>
				<path class="st1" d="M769.3,424.8c-0.2,2.3-0.4,4.5-0.7,6.8c-0.2,1.7-1,3.1-2.9,2.9c-2-0.2-2.3-1.8-2.2-3.4c0.2-3,0.5-6,0.7-8.9
					c0.1-1.5,0.7-2.7,2.4-2.8c1.8-0.1,2.6,1.1,2.6,2.8C769.2,422.9,769.2,423.9,769.3,424.8C769.2,424.8,769.2,424.8,769.3,424.8z"
					/>
				<path class="st1" d="M846.3,620.2c0.1-1.4,0.1-2.7,0.3-4.1c0.2-1.4,1.1-2.3,2.6-2.2s2.3,1.1,2.3,2.5c0,3.2,0,6.3,0.9,9.4
					c0.4,1.3-0.2,2.5-1.7,3c-1.6,0.5-2.6-0.3-3.3-1.7C846.4,624.9,846.5,622.5,846.3,620.2z"/>
				<path class="st1" d="M884.2,614.3c-1.2,3.4-2.4,7.1-5.5,9.7c-0.9,0.8-2.1,0.7-3,0c-1-0.8-1.1-2-0.5-3c1.6-2.7,3-5.6,4.4-8.4
					c0.5-1.1,1.6-1.5,2.8-1.1C883.5,611.8,884,612.7,884.2,614.3z"/>
				<path class="st1" d="M990.1,188.7c0,1.5,0,2.9,0,4.4c0,1.4-0.6,2.5-2.1,2.7c-1.7,0.2-2.7-0.9-2.8-2.4c-0.2-3.4-0.2-6.9-0.1-10.3
					c0-1.3,0.8-2.2,2.2-2.3c1.5-0.1,2.5,0.8,2.6,2.2c0.2,1.9,0,3.8,0,5.7C990,188.7,990.1,188.7,990.1,188.7z"/>
				<path class="st1" d="M861.8,612.7c1.5,0.1,2.2,1.1,2.4,2.5c0.5,2.6,0,5.4,1.6,7.9c0.5,0.8,0,1.8-0.8,2.4
					c-0.9,0.7-1.8,0.7-2.8,0.2c-1.2-0.6-2-1.6-2.3-2.9c-0.6-2.5-0.8-5-0.7-7.5C859.3,613.7,860.1,612.7,861.8,612.7z"/>
				<path class="st1" d="M924,387c-0.6,2.6-0.2,5.4-1.8,7.8c-0.9,1.3-2,2.5-3.8,1.7c-1.8-0.9-1.5-2.5-0.8-4c1-1.9,0.9-4,1.2-6.1
					c0.3-1.6,0.8-3.2,2.8-3C923.7,383.6,924,385.2,924,387z"/>
				<path class="st1" d="M929.2,287.8c-0.1,1.6-0.1,3.3-0.3,4.9c-0.2,1.4-1.1,2.3-2.6,2.2c-1.5-0.1-2.2-1.1-2.3-2.6
					c-0.1-2.9-0.1-5.8,0-8.7c0-1.5,0.8-2.4,2.4-2.4c1.5,0,2.4,0.9,2.6,2.3c0.1,1.4,0,2.9,0,4.3C929,287.8,929.1,287.8,929.2,287.8z"
					/>
				<path class="st1" d="M886.3,412.3c0.4-0.6,0.7-1.2,1.1-1.8c0.7-1,1.7-1.4,2.9-1c1.1,0.4,1.8,1.3,1.6,2.5
					c-0.4,2.8-0.9,5.5-1.5,8.2c-0.3,1.4-1.3,2.2-2.8,2c-1.6-0.2-2.1-1.4-2-2.8C885.8,417,886.1,414.6,886.3,412.3
					C886.4,412.2,886.3,412.3,886.3,412.3z"/>
			</g>
		</g>
	</g>
	<g id="Hands_N_Fac_White_xA0_影像_1_">
	</g>
	<g id="Hands_N_Fac_Color_xA0_影像_1_">
	</g>
	<g id="Hands_And_Factory_xA0_影像_1_">
	</g>
	<g id="Pollution_xA0_影像_1_">
	</g>
	<g id="Other_Pollution_xA0_影像_1_">
	</g>
</g>
<g id="pollution">
	<g>
		<g id="Pollution_xA0_影像_2_">
			<g>
				<path class="st1" d="M669.2,168.5c-1.8,0.1-3.2,1-4.7,2.2c-0.6-1.5-0.8-2.9-1.6-4.2c-0.9-1.4-0.7-3,0-4.5c0.8-1.9,3.3-2.6,4.4-1
					c1.3,1.7,2.7,1.6,4.4,1.7c3.7,0.1,6.9,1.6,9.8,3.6c3.1,2.2,6.4,4.3,9.1,6.9c5.8,5.4,12.7,7.3,20.3,8c3.5,0.3,7,0.9,10.5,1.6
					c3.3,0.7,6.4,2.1,8.6,4.9c0.9,1.1,2.1,1.3,3.3,1.6c6.5,2,12.5,4.9,17.7,9.3c11.3,9.6,14.6,23.6,8.6,37.1c-1.8,4.1-4,7.9-5.9,12
					c-3.7,8.2-5.7,16.7-4.2,25.7c1.1,6.8,5.1,11.5,11.7,13.8c4.1,1.4,8.3,2.7,12.4,4.2c7.6,2.8,14.4,6.8,20.4,12.3
					c10.6,9.8,14,24.4,8.8,37.9c-3.5,8.9-8.9,16.8-13.5,25.2c-4.7,8.6-8.9,17.4-11.5,26.9c-3.9,14.5-0.4,26.9,9.6,37.7
					c4.8,5.2,10.2,9.8,15.5,14.5c7.3,6.4,13.6,13.6,17,22.9c11.4,31-10.3,56.8-33.7,62.6c-8.7,2.1-17.5,3-26.3,4.4
					c-6.9,1.1-13.8,2-20.5,4.3c-9.1,3.1-15.5,9.1-19.3,18c-3.5,8.4-4.9,17.4-7.1,26.2c-4.3,16.9-13.9,30.4-27.8,40.8
					c-9.3,7-19,8.3-29.5,2.3c-6.6-3.8-13.8-6-21.5-6c-4.9,0-9.5,1.1-14.2,2.4c-1.5,0.4-1.8,1.3-1.9,2.8c-0.4,7.8-4,14.3-9.7,19.2
					c-5.9,5.1-13.1,4.6-19.9,2.2c-13-4.5-22.1-13.3-27.1-26.1c-1.6-4.1-1.1-5.9,2.4-8.8c2.3-1.8,3.3-4.6,5.8-6.3
					c1-0.7,0.6-3.4,0.7-5.2c0.3-4.5,1.3-8.8,3-12.9c1.9-4.4,2.7-9,3-13.7c1.4-19.7,5.2-39,8.1-58.5c3.7-24.8,9-49.3,13.8-73.8
					c3.5-17.8,8.8-35.2,13.9-52.6c3.5-11.9,5.3-24.3,9.1-36.2c0.4-1.2,0.8-2.4,1.2-3.6c1.4-5.4,4.6-9,10.3-9.9
					c2.6-0.4,3.6-2,3.9-4.5c0.4-4.1-0.3-8-2.8-11.4c-2.3-3.1-2.6-6.4-1.5-10.1c5.7-19.3,11.6-38.6,18.7-57.4c0.4-1,0.3-1.9,0-2.9
					c-0.6-1.7-0.6-3.4,0.7-4.9c1.5-1.5,3.2-1.5,5.1-0.8c1.1,0.4,2.3,0.5,3.5,0.5c1.5-0.1,3.1,0.1,4,1.2c1.5,1.8,3.5,2.2,5.5,2.6
					c1.3,0.3,2.7,0.4,4,0.8c11.7,3.9,20.9-2,30.1-7.8c1.9-1.2,2.8-3.2,2.1-5.7c-0.5-1.5-0.4-3.2-0.6-4.9c-0.6-6.7-3.9-11.5-9.8-14.7
					c-6.4-3.5-13.4-5-20.5-6.1c-2.3-0.3-4.4-1.4-6.9-1.3c-2,0-3.6-3.5-2.8-5.4c0.1-0.4,0.2-0.6,0.7-0.5c2.9,0.5,3-1.5,3-3.5
					C669.2,191.9,669.2,180.3,669.2,168.5z"/>
				<path class="st2" d="M812.7,483.7c-1.2,13.8-7.6,24.2-20.1,30.5c-10.1,5.1-20.9,8.1-32.2,9.3c-9.6,1-19,3.2-27.6,7.9
					c-6.3,3.5-11,8.5-13.8,15.3c-0.6,1.4-1.3,2.8-2.1,4.1c-0.9,1.5-2.4,2.1-4,1.2c-1.5-0.9-1.5-2.4-1-3.9
					c4.9-13.2,14.1-21.7,27.4-25.9c9.1-2.9,18.6-4,28-5.5c9.3-1.4,18.2-4.5,26.1-9.8c8.6-5.7,13.1-13.9,13.3-24.2
					c0.1-2.7-0.6-5.3-1.8-7.6c-3.8-7.3-8-14.3-14.6-19.4c-3.2-2.4-6.1-5.2-9.1-7.8c-1.4-1.2-2.7-2.6-1.3-4.4c1.6-2,3.2-0.8,4.7,0.5
					c3.8,3.2,7.6,6.4,11.4,9.7c6.5,5.5,10.8,12.7,14.5,20.2C812.2,476.9,812.6,480.2,812.7,483.7z"/>
				<path class="st2" d="M797.1,327.4c0.3,5.1-1.6,10.4-6,15.4c-6.7,7.6-13.3,15.4-17,25.1c-1.5,3.9-2.7,7.9-3.1,12.1
					c-0.2,2-0.8,3.7-3.2,3.5s-2.6-2.2-2.4-4.1c0.4-5.3,2.1-10.3,4.1-15.2c3.9-9.7,10.6-17.6,17.4-25.2c4.2-4.7,4.7-9.7,4.6-15.3
					c-0.1-4-1.9-7.1-4.9-9.6c-5.7-4.6-11.5-8.8-19.2-9.6c-3.2-0.3-6.1-1.8-8.7-3.7c-1.3-1-2-2.3-1.2-3.8c0.9-1.5,2.4-1.6,3.8-0.6
					c3.3,2.4,7.2,2.9,11,3.7c9.2,2,16.2,7.5,22.2,14.4C796.7,317.1,797.1,320.4,797.1,327.4z"/>
				<path class="st2" d="M748.2,221.1c-0.1,2.9-0.5,5.8-1.6,8.5c-0.7,1.8-2,3-4,2.2c-1.9-0.7-2-2.3-1.4-4.1c4-11.5-2.5-21.4-13-26.2
					c-6.2-2.9-12.8-3.1-19.4-3.8c-5.9-0.7-11.9-1-17.7-2.7c-8.2-2.5-14-8.2-19.5-14.2c-0.9-1-1-2.2-0.1-3.2c1-1.2,2.3-1.2,3.4-0.4
					c0.9,0.6,1.7,1.4,2.4,2.2c7.2,8.5,16.6,11.7,27.4,12.4c8,0.5,16.2,0.6,23.8,3.8c9.7,4,16.8,10.3,19.1,21
					C748,218,748.1,219.6,748.2,221.1z"/>
				<path class="st2" d="M666.5,620.9c-3.7-0.2-7.4-1-11-2.3c-7.2-2.6-14.5-4.6-22.2-5.3c-12.8-1.2-22.5,3.4-28.3,15.3
					c-0.7,1.5-1.9,2.3-3.5,1.6c-1.9-0.8-1.8-2.5-1.1-3.9c4.6-9,10.9-15.9,21.5-17.9c12.2-2.3,23.6,0.8,34.9,4.6
					c2.6,0.9,5.1,1.8,7.9,2.1c3.6,0.3,7-0.2,10.1-2.3c1.6-1.1,3.5-1.7,4.7,0.3c1.2,1.9,0,3.4-1.7,4.5
					C674.5,619.9,670.7,620.8,666.5,620.9z"/>
			</g>
		</g>
		<g id="Other_Pollution_xA0_影像_2_">
		</g>
	</g>
</g>
<g id="hand">
	<g>
		<g id="Hands_And_Factory_xA0_影像_2_">
			<g>
				<g>
					<path class="st3" d="M282.1,449.1c-1.1,6.4-1,12.8-0.6,19.2c0.4,6.1,1,12.3,1.2,18.5c0.2,9.8,2.2,19.2,3.6,28.8
						c0.7,5.1,1.4,10.2,1.5,15.4c0.1,9.5,1.3,19,3.3,28.3c0.4,1.7,0.7,3.1,3.1,2.8c1.7-0.3,2.8,0.7,2.9,2.5c0.1,1.9-1.2,2.8-2.9,3
						c-3.4,0.3-6.6-0.5-9.8-1.9c-6.2-2.8-11.2-7.3-16.7-11.2c-11.7-8.2-22.6-17.5-31.6-28.6c-8.3-10.3-15.9-21.2-22.1-32.9
						c-5.4-10.3-11.1-20.5-15.1-31.4c-3.7-9.9-6.8-20.1-8.5-30.6c-1-6.5-0.5-13.2,0.5-19.8c0.2-1.1,0.3-2.2,0.3-3.2
						c0.2-13.3,0.3-26.5,0.7-39.8c0.4-12.7,1.2-25.4,1.7-38.1c0.6-13.6,2.1-27.1,3.7-40.6c1.4-12,4.8-23.4,8.9-34.7
						c4.6-12.7,9.1-25.5,15-37.6c2.2-4.6,4.8-9,7.3-13.4c3.4-5.9,5.4-12.5,8.3-18.6c5.7-12.1,12.4-23.6,19.7-34.8
						c4.6-7.1,8.3-14.7,12.7-21.9c3.7-6,7.3-11.9,11.1-17.8c1.8-2.8,3.2-2.9,5.9-2.4c11.9,2.1,23.9,2.8,36,3.4
						c14.8,0.8,29.6,2.6,44.3,4.6c7.4,1,14.7,1.6,22.1,2.7c2.4,0.3,2.3,1.2,1.8,2.9c-2.4,8.3-4.7,16.6-6.2,25
						c-1.9,10.4-3.9,20.8-5.4,31.4c3-3.6,5.9-7.2,8.9-10.7c10.4-12.3,19.3-25.9,31.5-36.8c3.7-3.3,7.8-6.2,11.6-9.4
						c1.7-1.4,3.7-1.3,5.7-1.1c8.9,1.2,17.9,1.3,26.6,3.5c0.7,0.2,1.3,0.1,1.7-0.4c1.6-1.9,3.7-1.6,5.8-1.5c7.7,0.5,15.4,0.8,23,1.7
						c10.7,1.3,21.4,0.8,32.1,1.2c5.1,0.2,9.9-1.1,14.8-1.8c9.1-1.2,18.4-1.9,27.5-3.4c5.5-0.9,10.9-2.3,16.5-2.8
						c6.4-0.6,12.7,0.1,18.9,1.1c13,1.9,26,3.7,38.7,7.2c0.4,0.1,1.1,0.2,1.3,0c2.6-2.1,4.6-0.4,6.6,1c7.8,5.4,13.5,12.6,17.2,21.4
						c0.9,2.1,1.2,4.1-1.2,5.4c-0.5,0.3-0.8,0.7-0.8,1.3c-0.1,2.6-0.5,5-2.3,7c-0.7,0.7-0.3,1.7-0.4,2.6c-0.3,9.9,0.4,19.8,1.5,29.6
						c0.5,4.5,0.5,9.1,0.6,13.6c0,1.6,0.6,2.2,2.1,2.6c5.4,1.3,10.7,2.6,16.1,4c7.7,2,14.1,6.3,19.7,11.6c5,4.8,5.1,12-0.3,16.7
						c-6.3,5.5-13.8,9.8-22.6,10.3c-3.5,0.2-7-0.6-10.4-1.7c-3.8-1.3-7.7-1.9-11.7-2c-1.7,0-3.1,0.5-3.3,2.1
						c-0.6,4.1-3,7.6-4.3,11.4c-4.9,14.2-9.3,28.6-13.6,43c-1.2,4-2.7,7.9-4,11.9c-0.8,2.4-0.3,4.6,0.9,7c3.6,7.2,3.2,14.5-4.4,20
						c-0.9,0.6-1.8,1.3-2.7,1.8c-2.6,1.3-3.7,3.5-4.4,6.2c-4,14.8-7.8,29.6-11.4,44.5c-3.3,13.5-6.9,26.8-10.3,40.3
						c-1.7,6.8-2.1,13.8-3,20.7c-1.4,10.7-3.9,21.2-5.8,31.8c-2.3,12.8-4.5,25.7-6.4,38.6c-1.4,9.6-3.5,19-5,28.6
						c-1.4,8.5-2.7,17-3.1,25.6c-0.4,9.1-2.3,17.8-5.7,26.2c-2.5,6.2-7.7,10.1-13,10c-1.4,0-2.7-0.4-3.8-1.2
						c-2.4-1.6-4.9-1.5-7.5-0.5c-2.4,1-4.9,1.7-7.5,2.3c-2.2,0.5-4.1,0.3-6.1-0.6c-3.2-1.4-6.4-1.3-9.8-0.8
						c-5.6,0.9-11.3,1.2-17,1.7c-1.1,0.1-2.2-0.3-3.1-0.8c-1.9-1-3.9-1.2-5.8-0.9c-4.7,0.9-9.2,0.1-13.7-0.9
						c-0.4-0.1-0.7-0.3-1.1-0.2c-6.3,1.4-11.6-2-17.2-3.7c-2.1-0.6-4.2-1.2-6.3-1.7c-0.3-0.1-0.6-0.2-0.8-0.1
						c-4.9,1.8-10,0.1-14.9,0.4c-5,0.3-9.8,0-14.5-1.6c-1.7-0.6-3.3-0.6-5,0.1c-4.6,1.9-8.7,0.3-10.2-4.5s-3.8-9.2-5.5-13.9
						c-1-2.9-3.9-4.9-3.9-8.3c0-1.2-0.3-2.3-0.3-3.5c-0.3-13.9,0.4-27.8,0.6-41.7c0-3.2,0.6-6.3,1-9.4c0.2-1.9-0.3-2.7-2.4-2.7
						c-6.2-0.1-12.4,0.3-18.5-0.5c-3.6-0.4-7,0.6-10.4,1.5c-7.9,2-15.7,4.3-23.6,6.2c-2.7,0.7-5.4,0.8-7.2,3.5
						c-2.3,3.3-4.6,6.7-4.7,10.8c-0.3,7.4-0.6,14.9-0.5,22.3c0.3,15.9,1,31.7,4,47.3c1.4,7.1,1.8,14.4,2.3,21.6
						c0.4,6.2,1.5,12.2,2.6,18.3c0.8,4.5,0.2,6.3-3.8,8.5c-3.3,1.9-6.5,4-10.3,4.8c-4.6,1-8.1-0.4-11.2-3.9
						c-5.6-6.3-8.7-13.9-11.2-21.8c-3.9-12-4.7-24.5-6.5-36.8c-1.2-8-0.8-16.1-1.4-24.2c-0.4-5.4-1-10.7-2.5-15.8
						c-2-7-2.4-14.3-3.6-21.4c-1.5-8.8-1.8-17.8-3.7-26.6c-2.5-11.3-4.9-22.6-7.5-33.9c-1.4-6.1-1.1-12.4-2-18.6
						C282.6,460.9,281.9,455,282.1,449.1z"/>
				</g>
				<g>
					<path class="st0" d="M550.8,617.4c-3.4,0.1-6.6-0.2-9.9-1.8c-2.4-1.2-6,0-8.9,1.3c-1.1,0.4-2,0.7-3.1,0.6
						c-7.1-0.6-14.1,0.7-21.2,1.3c-7.2,0.7-14.5,0.3-21.8,0.2c-1.3,0-2.8-0.5-3.3-1.6c-0.9-2.3-2.7-2.1-4.5-2.1
						c-7,0.1-13.8-1.8-20.8-2.5c-8.5-0.8-16.9-1.8-25.5-1.1c-4.1,0.3-8.3,0.8-12.5-0.2c-0.2,0-0.4-0.1-0.5-0.1
						c-5.1,1.8-6.4-2.1-8.1-5.4c-2.1-4-3.6-8.1-3.7-12.7c-0.1-2.6,1.6-4.3,3.3-5.6c1.8-1.4,4-0.2,4.9,1.5c1.7,3.3,4,3.3,7.4,3.3
						c6.1-0.1,12.3,0.1,18.5,1.1c2.3,0.4,4.5,0.2,6.8,0.1c11.3-0.6,22.5-1.1,33.7,0.2c7,0.8,13.9,0.4,20.9,0.4
						c7.2,0,14.3,0.4,21.5,0.9c1.4,0.1,2.9-0.1,4.3-0.4c7.9-1.5,15.5,0,23.2,1.3c3.2,0.5,3.3,0.4,3.4-3c0.4-17.1,1.9-34,5.1-50.8
						c1.7-8.9,2.5-17.9,3.7-26.9c1-7.8,2.2-15.7,4.8-23.1c4.2-12,6.5-24.3,8.9-36.7c1.8-9.4,5-18.4,7-27.7
						c4.6-20.3,8.5-40.8,13.7-61c1.5-5.6,3.2-11.2,4.9-16.7c0.9-3,1.8-3.4,4.7-2.2c0.6,0.3,1,0.1,1.5-0.1c0.6-0.3,1.3-0.7,2-0.9
						c2.7-0.6,5.5-1.1,7.7,1.1c2.1,2.1,1.1,4.6,0.3,6.9c-1.9,5.6-3.9,11.1-5.9,16.7c-0.3,0.8-0.9,1.8-0.2,2.6c2,2.1,1.2,4.4,0.6,6.7
						c-2.2,8.1-4.2,16.2-6.7,24.1c-1.5,4.6-0.7,9.3-1.5,13.9c-4.4,24.3-8.8,48.5-14,72.6c-1.2,5.8-2.1,11.6-3.1,17.4
						c-0.2,1.1-0.4,1.9,1,2.7c1.7,1,1.3,2.7,0.9,4.4c-4.1,14.2-7.7,28.5-10.8,43c-2.8,12.8-5.1,25.6-6.7,38.6
						c-0.6,4.8-1.9,9.3-4.6,13.5c-2.9,4.5-7.3,5.7-12.1,6.2C554.1,617.5,552.4,617.4,550.8,617.4z"/>
					<path class="st0" d="M624.5,316c3.1,2.9,6.3,5.5,8.7,8.9c1,1.4,1.6,2.9,1.4,4.6c-0.3,3.6-2.6,5.3-6,4.4
						c-0.5-0.1-1.1-0.3-1.6-0.2c-10.7,1.2-20.9-2.1-31.3-3.4c-7.9-1-15.9-1.8-23.9-1.9c-14.1-0.2-28.2-0.4-42.2,0.7
						c-17,1.4-34.1,1-51.2,2.1c-8,0.6-16.2,1.3-22.9,6.7c-0.6,0.5-1.3,1-1.9,1.5c-1.4,1.2-2.9,2.3-4.5,0.5c-1.5-1.8-0.2-3.2,1.1-4.4
						c2.9-2.6,6.1-4.5,9.6-6.1c1-0.5,1.8-0.9,2-2.2c0.5-2.4,2.3-3,4.3-1.5c1.1,0.8,1.9,0.8,3,0.4c10.7-4.5,21.9-5.7,33.3-5.8
						c2.1,0,2.7-0.7,2.9-2.8c1-7.5,1.8-15.1,4-22.4c1.5-5.1,1.7-10.5,2.4-15.8c0.3-2,0.9-3.9,1.7-5.7c0.6-1.3,1.4-2.5,3.1-2.1
						c1.3,0.3,1.2-0.8,1.6-1.4c0.7-1.1,1.5-1.9,2.9-1.5c1.3,0.4,1.8,1.4,1.7,2.7c-0.1,5.5-1.3,10.8-2,16.2
						c-1.3,10.2-2.7,20.3-4.1,30.5c-0.2,1.7,0.3,2.3,2,2.2c1.1-0.1,2.2-0.1,3.3,0c4.8,0.3,9.3-0.1,13.8-2.6
						c5.3-2.9,11.5-2.8,17.4-3.8c15-2.6,30.1-3.7,45.3-3c1.7,0.1,2.6-1.5,3.8-1.6c3.3-0.1,5.5-2.4,8.2-3.6c1.1-0.4,1.5-1.2,1.8-2.2
						c2.1-7.8,4.2-15.6,6.4-23.3c3.2-11.3,6.8-22.4,11-33.4c1.3-3.5,2.2-3.4,5.5-1.8c2.9,1.4,6.1,3.2,9.7,1.1
						c1.6-0.9,3.4-0.5,4.7,0.9c1.4,1.6,1.6,3.4,0.5,5.3c-3.3,5.5-5.6,11.4-7.7,17.4c-4.5,12.8-7.7,25.9-11.4,38.9
						c-0.1,0.3-0.3,0.6-0.2,0.8c0.5,2,0.7,3.7-1.5,5C627.9,314.9,626.6,316.3,624.5,316z"/>
					<path class="st0" d="M341.4,527.6c-1.3,2.7-1,5.4-1.3,8c-1.6,15.4-3,30.9-3,46.4c0,8.7,1.9,17.1,3,25.6
						c1.2,8.6,2.2,17.3,3,25.9c0.8,8.6,1.5,17.2,3.5,25.6c1.5,6.4-0.2,9-6.5,10.4c-2.6,0.6-5.3,2.2-8-0.3c-0.8-0.7-1.3,0.6-1.9,1
						c-1.9,1.5-3.8,2.9-6.4,1.3c-3.3-1.9-5.2-4.9-4.7-7.9c0.4-2.4,1.8-3.8,4.2-4c1.5-0.1,3.1-0.1,4.6-0.1c3.1-0.1,3.7-0.6,3.1-3.5
						c-0.8-4-1-8.1-1.3-12.2c-0.2-2.6-0.1-5.2,1.5-7.6c1.4-2.1,0-4.4-0.2-6.6c-1.1-10.6-2.6-21.2-3.6-31.9
						c-1.1-11.2-3.3-22.2-5.3-33.3c-1.4-7.9-2.6-15.9-3.8-23.9c-0.1-0.9,0.1-1.8,0.1-2.7c0.2-2.2,1.6-4.2,0.4-6.6
						c-0.5-1,0.6-2,1.1-3c3.1-5.3,6.3-10.5,8.6-16.3c3-7.5,9.6-10.9,17.2-12.2c10.2-1.7,20.5-0.7,30.7-0.2
						c5.7,0.2,11.4,0.4,17.1,1.3c1.3,0.2,2.5-0.3,3.8-0.5c2.1-0.3,3.1,0.7,3.8,2.9c1.9,5.9,0.6,11.9,1.3,17.8
						c0.2,1.5-0.1,3.2-1.6,4.1c-1.6,0.8-3,0.3-4.1-1.2c-0.4-0.5-0.8-0.5-1,0c-2.8,4.9-7.8,4-12.1,4.6c-9.8,1.3-19.7,1.7-29.5,3.3
						c-0.6,0.1-1.4-0.1-1.8,0.5c-2,3.4-5.3,2.2-8.1,2.3c-2.5,0-3.8-2.2-2.8-4.6C341.8,529.5,342.5,528.7,341.4,527.6z"/>
					<path class="st0" d="M657.8,209.1c6.6,0.9,12.7,3.3,19,4.6c7.8,1.6,15.5,3.9,21.7,9.4c2.5,2.2,4.9,4.3,6.6,7.2
						c2.8,4.6,1.2,7.6-4.1,7.9c-2.6,0.1-5.3,0.3-7.9,0c-8.7-0.9-17.4-0.3-26.1-0.9c-12.7-1-25.3-1.7-38-3.2
						c-18.4-2.2-36.9-3.2-55.4-2.8c-18.5,0.3-35.1,6.1-50.3,16.2c-1.4,0.9-2.8,1.8-4.5,1c-0.8-0.4-1.2,0.2-1.7,0.6
						c-1.2,0.9-2.5,1.2-3.6-0.1c-1.1-1.3-0.6-2.6,0.2-3.7c2.6-3.7,5.6-6.9,9.1-9.7c4.3-3.5,9.1-6.3,14.4-8.2
						c2.2-0.8,3.9-2.2,5.7-3.6c4.2-3,9.2-4.3,14.3-5c15.8-2.3,31.8-3.4,47.8-2.8c3,0.1,6,0,9,0.1c6.2,0.2,12.3,0.2,18.2-2.5
						c2.3-1,4.9-1.5,7.4-1.8c2.6-0.3,3.6-1.7,4.5-3.9c3.7-9.6,6.8-19.4,9.6-29.2c0.4-1.5,1.1-3.1,0.9-4.5c-0.6-4.7,1.8-8.3,3.7-12.1
						c0.6-1.2,1.5-1.9,2.8-1.6c1.5,0.4,2,1.5,1.9,2.9c-0.3,5.6,0.5,11.2,1,16.8c0.6,8.2,1.8,16.4,3,24.6c0.1,0.8,0.4,1.6,0.1,2.4
						c-0.3,1.1-0.9,2-2.1,2.3c-1.3,0.3-2.3-0.3-3-1.3c-0.5-0.8-0.4-2.1-2.2-1.7C657.9,206.7,658,207.8,657.8,209.1z"/>
					<path class="st0" d="M561.8,118.7c0.8,0,1.6-0.1,2,0.2c4.8,3.1,9.9,0.7,14.8,0.7c6.4,0,12.9-0.4,19.3,0.1c3,0.3,6,0.5,9,0.1
						c12-1.5,23.5,1.3,34.9,4.1c6.5,1.6,12.9,3.6,19.2,5.9c3.4,1.3,4.6,4.2,6.4,6.7c0.8,1.1-0.5,1.8-1.3,2.2c-1.4,0.6-1.4,1.4-1,2.6
						c0.5,1.5,1,3.1,1.4,4.7c1,4.3-1.7,6.7-5.9,5.4c-2.3-0.7-4.4-1.9-6.2-3.4c-11.1-9.3-24.4-11.9-38.3-12.9
						c-10.8-0.7-21.6-1.6-32.4-0.6c-0.6,0.1-1.5-0.1-1.8,0.2c-3.6,4-8.8,2.8-13.2,3.6c-14.7,2.7-29.8,2.7-44.3,6.6
						c-16.9,4.5-33.7,9.4-50.4,14.9c-3.4,1.1-6.9,2-10.2,3.5c-4.4,2-6.8,5.9-9.7,9.3c-2.2,2.6-4.4,5.3-6.6,7.9
						c-0.7,0.8-0.9,1.7-1.1,2.6c-0.4,1.7-1.7,2.4-3.3,1.7c-3.5-1.6-5-4.8-3.9-8.6c2.4-8.5,7.3-15.3,14.5-20.5
						c14.2-10.4,30.1-17.1,47.1-21.2c5-1.2,10.1-2.4,15.1-3.6c1.2-0.3,2.2-0.3,1.2-2.2c-1.1-2.1,0.7-3.9,3.9-4
						c5.4-0.1,10.7-0.7,16-1.5c6.4-1,12.8-2.5,19.2-3.7C558,119.2,559.9,119,561.8,118.7z"/>
					<path class="st0" d="M428.3,276.2c0.6-12.2,1.2-24.4,2.6-36.6c0.9-7.6,1.1-15.4,2.6-22.9c0.9-4.3,3.3-7.9,6.3-11
						c0.8-0.8,2.1-1.2,2.7-0.6c1.5,1.5,3.5,2.4,4.9,4c1.2,1.4,1.2,3.2,1,4.9c-0.7,7.5-1.6,15-2.3,22.4c-0.9,8.7-2,17.5-2.5,26.2
						c-0.3,6.3-0.7,12.7-1,19c-0.1,2.8-1.7,4.2-4.3,4.3c-2.3,0.1-4.7,0-7-0.4c-1.8-0.3-2.9-1.8-3-3.8
						C428.2,280,428.3,278.1,428.3,276.2z"/>
					<path class="st0" d="M504,471.7c-6.6-0.1-13.7-1.4-20.8-2.3c-0.6-0.1-1.3-0.4-1.9-0.2c-1.2,0.4-2.2,1.4-3.5,0.8
						c-1.6-0.8-2.1-2.7-3.3-3.9c-0.7-0.7-0.8-1.9-0.3-2.6c2.1-3.1,1.5-6.6,1.5-10c0-4,1.7-4.8,6.4-5.1c3.1-0.2,4.8,2.3,4.6,5.7
						c0,0.1,0,0.2,0,0.3c-0.6,5.7-0.5,5.2,5.1,6c11.3,1.6,21.8-1.3,32.3-4.6c4.4-1.4,6.2,0.1,5.7,4.7c-0.5,4.4-2.4,7.3-7,8.5
						C516.8,470.7,510.8,471.7,504,471.7z"/>
					<path class="st0" d="M432.8,426.7c0.8-8.3,1.5-16.1,2.2-23.8c0.6-6.4,1-12.8,1.5-19.3c0.4-4.8,0.7-9.6,1.2-14.4
						c0.3-3.3,2.4-6,6.6-3.6c1.4,0.8,3.7-0.2,4.3,2.2c0.4,1.8-0.2,3.4-0.5,5.1c-2.1,11.1-2.7,22.3-3.1,33.5
						c-0.3,8.1-1.1,16.1-0.3,24.2c0.2,1.8-0.3,3.7-2.2,4.6c-1.9,1-3.1,0-4.6-1.2C433.5,430.8,432.8,429.8,432.8,426.7z"/>
					<path class="st0" d="M438,494.1c-3.3-0.1-6.4,0.3-9.4-0.9c-3.5-1.4-5-3.4-5.2-7.1c0-0.6-0.1-1.4-0.4-1.8
						c-2.1-2.6-1.2-5.3-0.4-8c0.1-0.4,0.4-0.9,0.3-1.3c-0.3-3.5,2.9-4.6,4.5-6.8c0.2-0.3,1-0.3,1.5-0.3c1.9,0.2,4.8,3.6,4.9,5.6
						c0.2,6.5,0.1,6.7,6.6,7.7c9.9,1.5,19.7,1.5,29.1-2.9c1.4-0.6,2.8-1.2,4,0.2c1.2,1.3,0.7,2.6,0.2,4.1c-2.2,6.1-7.3,8.2-12.9,9.3
						C453.2,493.4,445.5,494.1,438,494.1z"/>
					<path class="st0" d="M312.2,461.7c0.2,4.8-0.8,9.6-1.7,14.3c-0.5,2.5-2.5,3.7-4.6,3.9c-2.3,0.2-2.7-1.9-3.1-3.7
						c-1.8-8.1-4-16.2-6.4-24.2c-1-3.1-0.2-4.2,3-4.3c1.2,0,1.6-1.6,2.5-1.3c2.3,0.9,4.8-0.2,6.9,0.8c1.7,0.8,1.9,2.9,2.4,4.7
						C312.1,455,312.3,458.3,312.2,461.7z"/>
					<path class="st0" d="M506.7,365.4c-0.6,0-1.3,0-1.9,0c-2.9-0.1-4.2-1.3-3.9-4.2c0.5-7,1.1-14.1,1.9-21.1c0.2-2-0.6-4.7,1-5.9
						c1.4-1.1,3.8,0.4,5.7,0.6c0.7,0.1,1.4,0.1,2.2,0.1c2.8,0.1,4,1.6,3.7,4.4c-0.7,6.6-1.3,13.1-1.8,19.7
						C513.2,364.7,512.5,365.5,506.7,365.4z"/>
					<path class="st0" d="M622.1,314.4c-4.3-2.2-4.3-2.2-5.2-3.9C619.3,311,620.9,312.6,622.1,314.4z"/>
				</g>
				<g>
					<path class="st1" d="M386.8,156.4c4.4-4.7,8.2-9.6,12.5-14.2c8.1-8.7,18.2-15,27.2-22.6c0.8-0.7,1.7-1.4,2.3-2.3
						c0.9-1.2,2.3-1.8,3.8-1.6c14.6,1.4,29.2,3,44,3.3c12.5,0.3,24.7,2.7,36.9,5.2c1.4,0.3,2.8,0.6,4.2-0.2
						c11.2-6.1,23.5-7.2,35.9-7.7c13.5-0.6,27-1.4,40.6-1.9c18.5-0.6,36.9,0.8,54.6,6.8c5.7,1.9,11.2,4.4,15.6,8.7
						c3.4,3.3,5.9,7.1,6.7,11.9c0.9,4.7-0.3,8.8-3.8,12.2c-0.9,0.9-1.2,1.5-0.8,2.8c1.8,5.7,2.2,11.6,2.3,17.5
						c0,9.9,0.1,19.8,0,29.7c0,2.4,0.9,3,2.9,3.5c7.2,1.5,14.4,2.8,21.3,5.5c5.8,2.2,10.8,5.6,14.2,11c4.3,7,3.8,14.2-1.5,20.4
						c-7.4,8.7-21.6,16-38.1,9.8c-3.1-1.2-6.2-2.2-9.2-3.5c-2-0.8-2.9-0.4-3.7,1.7c-5.1,13.7-9.6,27.6-13.2,41.8
						c-1.9,7.7-4,15.3-6.5,22.8c-0.5,1.5-0.4,2.7,0.5,4.1c5.5,8.4,3.9,16.9-3.7,22c-1.7,1.1-3,2.9-5,3.7c-1.3,0.5-1.3,1.7-1.5,2.7
						c-6.2,23.8-12.2,47.7-17,71.8c-5.5,27.1-11,54.1-15.6,81.3c-4,23.6-8.4,47.2-12,70.9c-1.5,9.8-3,19.6-4.6,29.3
						c-0.9,5.8-4,10.6-7.5,15c-3.3,4.1-8.5,4.1-13.3,4.1c-3.8,0-7.6-0.5-11.4-0.8c-7-0.5-14,0.5-20.9,1c-16,1.2-32.1,1.9-48-2.1
						c-8.3-2.1-16.9-2.1-25.4-2.7c-7.1-0.6-14.2-2.4-21.4-1.7c-3.4,0.4-6.9,0.6-10.3,0.6c-3.8,0-6.6-1.6-8.5-4.9
						c-3.9-6.9-7-14.1-10.1-21.4c-0.7-1.7-0.7-3.6-0.8-5.4c-0.9-9.7,0.2-19.4,1.1-29.1c0.8-7.9,0.8-15.8,1.1-23.7
						c0.1-1.8-0.8-1.9-2.1-1.8c-6.7,0.5-13.3,2.1-19.9,3.2c-9.5,1.5-19,2.9-28.5,4.3c-0.9,0.1-1.8,0.5-2.7,0.6c-2.3,0.2-3,1.7-4,3.7
						c-6,11.8-3.6,23.9-2.1,36.1c1.5,12,2.9,24,4.2,36c1.3,12.8,2.6,25.7,4.6,38.4c0.5,2.9,0.8,5.8,1.3,8.6c0.2,1.6-0.1,3.1-1.2,4.1
						c-5.6,5.3-12,9.4-19.5,11.3c-4.3,1.1-8-0.6-11.1-3.7c-2.4-2.4-4.8-4.7-7.1-7.1c-0.5-0.5-1-1.1-1.4-1.7
						c-5.8-9.4-9.2-19.6-11-30.6c-3-18.3-6-36.6-7.7-55c-0.4-3.9-1.8-5.2-5.3-6.2c-5.9-1.6-11.1-4.8-16-8.5
						c-15.9-11.8-29.2-26.2-40.9-42.1c-10-13.6-19.9-27.3-27.3-42.6c-8.4-17.5-14.5-35.7-15.9-55.2c-0.7-8.7-0.1-17.5,0.5-26.2
						c1.1-15.3,2.5-30.6,3.5-45.9c1.2-17.5,3.2-34.9,4.9-52.4c2.5-25.3,8.6-49.8,18.6-73.1s21-46.1,33.4-68.2
						c7.5-13.3,15.2-26.5,22.9-39.6c2.3-3.8,4.7-7.5,7.7-10.9c1.1-1.2,2.4-1.8,3.8-0.6c1.4,1.1,1.1,2.6,0.1,3.9
						c-8.6,11.1-14.6,23.8-21.7,35.9c-14.8,25.3-27.9,51.6-39.7,78.5c-10.6,24.2-16.9,49.6-19.7,75.9c-2.8,26.7-5.1,53.5-7,80.4
						c-0.7,9.2-1.3,18.5-1.9,27.7c-1.3,20.6,3.7,40,11.6,58.8c5.4,12.9,12.4,24.8,20.5,36.2c10.4,14.6,20.8,29.2,33.9,41.5
						c8,7.5,16.1,15.1,26.3,19.6c8.3,3.6,6.5,2.9,5.8-4.3c-1.9-19.6-5.2-39.1-8.3-58.5c-2.1-13.1-4.4-26.2-4.5-39.5
						c-0.1-13.2,3.3-25.5,9.1-37.2c0.3-0.7,0.5-1.3,0.5-2.1c-1.1-21.3,1.4-42.5,0.7-63.8c-0.3-8.8,0.4-17.6,2.1-26.3
						c1.6-8,3.4-16,5.1-24c0.1-0.4,0.2-0.7,0.3-1c0.5-1.7,1.5-2.8,3.4-2.4c2,0.4,2.5,2,2.1,3.8c-0.8,3.8-1.7,7.6-2.6,11.4
						c-3.6,14.6-5.2,29.5-4.8,44.6c0.5,19.3-1.5,38.5-0.6,57.8c0.3,7.3,0.9,14.5,2.4,21.6c0.4,1.9,1.2,2.3,2.9,1.9
						c3.2-0.8,6.4-1.1,9.7-1.3c5-0.4,7.4,1.5,8.4,6.4c1.5,7,1.2,13.9-0.3,20.8c-0.9,4.2-2.9,7.6-7.3,9.1c2.5,2.9,3.8,2.9,6.1,0.2
						c4.8-5.8,6.7-12.8,8.5-19.9c3.6-14.4,4.1-29.1,5.5-43.7c2-20.7,5.4-41.1,15.6-59.7c6.2-11.4,8.7-23.8,11-36.3
						c6.4-34.3,11-68.9,16-103.4c4.3-29.5,8.5-59,14.1-88.2c0.8-4,1.6-8,3.8-11.6c0.9-1.5,2.1-2.8,3.9-1.8c1.9,1,1.4,2.7,0.6,4.3
						c-3.2,6.2-3.7,13.1-4.9,19.7C388.2,146.4,387.5,151.4,386.8,156.4z M448.7,345.2c0.7,0,1.1,0,1.4,0c5.9-0.2,7.3,1,7.4,6.9
						c0.2,8.1,0.2,16.2-0.1,24.3c-0.9,17.9-2.2,35.7-1.8,53.7c0,1.5,0,3.1-0.4,4.6c-0.3,1.1-0.9,2-2.1,2.3
						c-5.4,1.4-10.9,1.9-16.4,0.2c-5.4-1.7-6.8-3.9-6.1-9.5c0.9-7.6,1.5-15.2,2.1-22.8c0.9-12.4,2-24.8,4.2-37.1
						c1.2-6.8,2.3-13.6,4.1-20.4c2-7.4,5.5-13.1,11.1-17.8c6.1-5,13-8.2,20.7-9.9c8.4-1.8,16.9-2,25.5-1.1c2.5,0.3,3.6-0.2,3.9-3.1
						c2.1-21.5,6.3-42.6,10.8-63.6c3.1-14.3,12.5-24.1,25.2-30.9c7.8-4.2,16.4-5.9,25.1-6.7c7.4-0.7,14.7,0,22.1-0.4
						c12.8-0.7,25.6-1.9,38.4-1.9c4.6,0,9.2-0.9,13.7-2.1c1.2-0.3,2.1-0.8,2.6-2.1c6.1-15.3,12.2-30.7,16.4-46.7
						c0.5-1.7,0.5-2.4-1.7-2c-8.4,1.6-16.9,1.9-25.5,1.6c-13.1-0.5-26.1-0.7-39.1-2.8c-11.2-1.7-22.3,0.7-33.3,2.8
						c-10.5,2-21,3.4-31.7,1.3c-12.3-2.5-24.2-1.1-36,2.8c-11.1,3.7-22.3,7.4-32,14.3c-2.6,1.9-5.1,3.8-7.3,6.4
						c8,1.8,8.4,2,8.8,11.1c0.4,11.9,0.5,23.8,0.7,35.7c0.2,15.5-0.5,30.9-1.7,46.3c-0.3,3.4-3.2,7.4-5.7,7.8
						c-7.4,1.3-14.8,1.3-22.3,0.4c-4.4-0.5-6.1-2.8-5.8-7.3c0.3-4.2,0.6-8.3,0.8-12.5c1.4-25.2,5.2-50,11.9-74.4
						c0.2-0.8,0.5-1.7,0.4-2.4c-0.5-1.9-0.5-3.4,1.6-4.3c0.6-0.2,0.4-0.7,0.2-1.1c-0.8-1.3-0.5-2.8-0.7-4.3
						c-1.6-11.5,2-20.8,11.2-28.1c9-7.2,18.9-12.5,30.2-15.1c7.3-1.6,14.6-3.2,21.5-6c1.9-0.7,3.7-1.6,5.5-2.4
						c-8-2.1-15.8-3.6-23.8-4.1c-8.5-0.6-17.1-1-25.6-1.5c-7.2-0.5-14.4-2-21.7-2c-1.4,0-2.6,0.3-3.7,1.2c-3.9,3.2-7.9,6.5-12,9.4
						c-12.6,8.8-22.7,20-31.7,32.4c-1.4,2-3,3.9-3.4,6.5c-2.7,17.8-5.6,35.5-8.1,53.3c-4.8,34.1-9.5,68.2-16,102
						c-2.1,11.3-4.3,22.6-9.9,32.7c-10.5,19.3-14.4,40.2-16.2,61.7c-1.3,15.2-2.2,30.4-6,45.3c-2,7.7-4.6,15-10.1,20.8
						c-3.5,3.7-7,4-11.2,1.2c-4.4-2.9-7.3-6.9-8.7-11.9c-2.9-11-6.6-21.9-9.1-33.1c-0.5-2.1-0.7-4.2-1.1-6.2
						c-2.3,5.2-4.1,10.4-4.5,15.9c-0.8,11.2,0,22.3,1.8,33.4c5,30.7,9.7,61.5,12.4,92.5c1.7,19.7,5,39.3,8.7,58.7
						c1.2,6,2.3,12.2,6,17.4c1.3,1.8,2.8,2.9,5.1,3.3c4.2,0.7,8.1-0.7,12-1.9c1.2-0.3,0.9-1.2,0.8-2c-1.6-7.6-2.4-15.4-3.6-23.1
						c-2-12.7-4.6-25.4-4.8-38.4c-0.1-8.1-0.9-16.2-3.2-24c-3.2-10.5-4.4-21.1-4-32c0.1-3.7,0.3-7.5,2.4-10.8
						c3.4-5.3,6.1-10.9,8.8-16.6c5.4-11.4,5.8-9.3,15.1-11.2c14.1-2.9,28.3-4.8,42.7-3.9c5.3,0.3,10.8,0.3,15.9,2.1
						c3.9,1.4,7.2,3.8,7.1,8.3c-0.2,15.2-0.5,30.4-1.3,45.5c-0.6,11.3-2.1,22.6-2.5,34c-0.1,2.7,0.8,3.5,3.4,3.4
						c5.5-0.1,11.1-0.1,16.6,0c17.1,0.5,34.1,1.2,51.2,1.7c11.2,0.4,22.4-0.3,33.5,1.4c6,0.9,12,2.2,18,3.2
						c7.5,1.3,14.8-0.3,22.2-0.9c1.7-0.2,2.2-0.7,2.4-2.4c1.4-13.1,2.3-26.3,4.5-39.2c4.5-26.9,9.2-53.7,15.9-80.1
						c10.1-40,19.4-80.1,27.8-120.5c0.5-2.6-0.3-3.4-2.6-3.7c-8.6-1.2-16.8-3.9-24.9-6.9c-12-4.6-24.3-6.9-37.1-4.6
						c-2,0.4-2.7,1.1-2.7,3.2c0,6-0.1,12-0.4,18c-0.2,4.3-2.8,6.6-6,8.3c-7.1,3.5-14.6,3.3-22.1,1.9c-4.8-0.9-5.8-2.8-5.3-7.5
						c0.7-6.9,1.3-13.7,2-20.6c0.1-1.5,0.1-2.6-1.9-2.6c-15.2-0.2-30.1,1.2-44.6,5.9C451.4,342.6,449.8,343.2,448.7,345.2z
						 M406.5,593.5c1.9,3.9,3.6,7.4,5.4,10.8c3.5,6.8,3.7,7,11.2,6c6.5-0.8,13-0.9,19.5,0.2c3.3,0.5,6.7,0.9,10,1.1
						c8.2,0.6,16.4,0.8,24.3,2.8c8.2,2.1,16.4,2.8,24.8,2.7c9.4-0.1,18.7-0.3,28-1.5c8.4-1.1,16.9-0.2,25.3,0.5
						c9.8,0.9,15.9-7.2,16.7-14.4c1.3-11.6,1.9-23.2,4-34.6c4.7-25.7,8.7-51.6,13.3-77.3c6.1-34,12.7-67.8,20.6-101.4
						c2.9-12.5,6.1-24.9,9.3-37.3c0.6-2.2,0.1-2.7-2.1-2.3c-3.1,0.5-6.3,0.8-9.5,0.5c-2.1-0.2-2.7,0.5-3.2,2.5
						c-4.5,21.3-8.9,42.7-13.8,63.9c-8.8,37.6-18.8,75-25.7,113.1c-3.9,21.5-6.5,43.1-8.8,64.7c-0.3,2.8-1.8,4.5-4.8,5.1
						c-1.2,0.2-2.4,0.2-3.5,0.4c-11,1.8-21.9,1.7-32.7-0.9c-4.7-1.1-9.4-1.9-14.3-2.2c-16.8-1-33.6-0.5-50.4-1.4
						c-10-0.6-20-0.4-30-1C415.8,593,411.4,593,406.5,593.5z M523.5,252.5c0.4,0,0.9,0.1,1.3,0.1c5.8,0.1,6.6,0.9,6.7,6.6
						c0.1,12.8,0.2,25.6,0.3,38.4c0,5.5,0,10.9-0.1,16.4c-0.1,2.2,0.6,2.7,2.7,2c2.3-0.8,4.7-1.2,7.1-1.8
						c21.3-5.7,42.9-9.5,65.1-8.3c1.2,0.1,1.5-0.4,1.8-1.5c0.7-3.4,1.5-6.7,2.4-10.1c4.1-15.5,9.1-30.8,14.2-46.1
						c0.8-2.5,0.2-2.8-2.1-2.9c-7.4-0.4-14.7,0.4-22,1.6c-8.6,1.3-17,1.4-25.2-1.8c-4.8-1.9-10-2.4-15.2-2.9
						c-9.5-0.9-18.4,1.8-27.3,4.1C529.3,247.3,526.3,249.7,523.5,252.5z M443.9,179.9c1.5-2,2.8-4,4.3-5.9
						c8.2-10.1,18.8-17.1,30.4-22.6c14.7-6.9,30.1-11.8,46.7-11c3.5,0.2,6.9-0.6,10.2-1.4c11.6-2.9,23.3-3.9,35.1-2.8
						c3.7,0.3,7.3-0.2,10.6-1.8c5.2-2.5,10.7-3.4,16.4-3.4c9.3,0,18.5,1.4,27.5,3.3c10.3,2.1,20.6,4.6,29.8,10
						c2.2,1.3,4.8,2.4,5.8,4.8c1.1,2.5,2,1.3,3.1,0.3c0.8-0.7,1.3-1.7,1.5-2.8c1.1-4.7-1.1-8.3-4-11.6c-3.8-4.2-8.9-6.5-14.2-8.3
						c-16.5-5.8-33.7-7.2-51-6.6c-16.7,0.5-33.4,1.5-50.1,2.4c-6.7,0.4-13.4,1.1-19.7,3.9c-6.3,2.7-12.5,5.7-18.8,8.6
						c-8.5,4-17.7,6-26.8,8.1c-12.6,2.9-23.5,9-32.6,18.3C443.3,166.5,442.4,172.9,443.9,179.9z M320,664.1
						c-0.2,0.3-0.3,0.5-0.5,0.8c1,0.8,2,1.5,2.9,2.4c3.8,3.7,6.9,4.2,11.5,1.6c1.4-0.8,2.8-1.7,4.2-2.5c1.4-0.8,3-1.3,4.6-1.4
						c3.3-0.1,3.3-0.2,2.8-3.5c-1.2-8.3-2.6-16.5-3.5-24.8c-1.7-14.6-3.3-29.2-4.7-43.9c-0.9-9.2-2.8-18.3-3.3-27.6
						c-0.5-8.4-0.6-16.7,3.6-24.4c0.8-1.5,1.2-3.2,1-5c-0.8-7.5-2.2-14.9-4.1-22.2c-0.4-1.6-0.8-3.2-1.4-5.4
						c-3.9,7.9-7.5,15.1-11.5,22.1c-0.5,0.9-0.7,2.1-0.8,3.1c-0.6,10.8-0.1,21.4,3,31.8c2.1,7,3.4,14.1,3.6,21.4
						c0.3,12.8,2,25.5,4.1,38.1c1.6,9.2,3.3,18.4,3.5,27.8c0.1,5.9-2.4,8.9-8.1,10.4C324.7,663.6,322.4,663.9,320,664.1z
						 M379.1,499.8c-4.3,0.1-8.7,0.1-13.2,0.2c-9,0.4-17.6,3.4-26.6,4.2c-1.7,0.2-1.5,1.1-1.2,2.3c1.9,8.1,4.5,16.1,5.3,24.5
						c0.2,2.3,1.1,2.4,2.9,1.8c1.2-0.4,2.5-0.7,3.7-0.8c16.4-1.7,32.4-6.3,48.9-7.8c1.4-0.1,2-0.7,2-2.3c0-5.2,0.2-10.4,0.4-15.5
						c0.1-2.1-0.9-3.4-2.7-4.3c-1.4-0.6-2.9-1-4.4-1.2C389.3,500.1,384.3,500,379.1,499.8z M453.6,237.6c0-8.7,0-17.4,0-26.2
						c0-1.9-0.4-2.5-2.5-2.1c-3.3,0.6-6.8,1.1-10,0c-2.8-1-3.1,0.3-3.5,2.4c-2.2,11.6-4.2,23.2-5.4,35c-1.1,10.7-2,21.3-2.4,32
						c-0.1,1.8,0.3,2.7,2.3,2.8c5.5,0.1,11,0.4,16.6-0.2c2.8-0.3,3.4-1.6,3.6-3.9C453.1,264.1,453.9,250.9,453.6,237.6z M525,239.7
						c5.7-4,11.6-7.5,18.3-9.5c17.1-5.3,34.5-5.4,52.1-3.5c11.9,1.3,23.7,1.3,35.3-2.4c13-4.2,26.3-4.8,39.8-1.8
						c6.1,1.3,12.1,3.5,18.4,3.9c6.6,0.4,12.2,1.9,15.1,9.1c0.5-2.8,0.1-4.9-0.8-7c-2.2-4.7-6.1-7.6-10.7-9.6
						c-6.5-2.8-13.4-3.8-20.2-5.6c-5-1.3-10-2.8-15.3-1.9c-7.6,1.3-15.3,2.1-22.6,4.6c-2.9,1-5.8,1.7-8.8,1.7
						c-18.6-0.2-37.2,2.7-55.8,2.2c-11.1-0.3-21.8,2.1-31.7,7.6C532.8,230.5,528.5,234.6,525,239.7z M632.7,246
						c-0.9-0.3-1.4,0.7-1.8,2.1c-2,6.3-4.1,12.6-6.1,18.9c-3.8,12.5-8,24.9-10.7,37.7c-0.3,1.2-0.8,2.2,1.1,2.6
						c4.9,1.1,9.5,2.9,13.5,6.1c0.9,0.7,1.4,0.6,1.7-0.5c0.2-0.5,0.3-1,0.5-1.6c5.9-20.5,10.6-41.5,18.7-61.4
						c0.6-1.4-0.1-1.7-1.3-1.9C643.4,247.4,638.4,246.8,632.7,246z M468.4,327.4c1.6-0.1,3.2-0.2,4.9-0.4c9.3-0.6,18.6-1,28-0.2
						c14.3,1.2,28.5,1.8,42.7-1.8c17.8-4.6,35.8-7.9,54.4-4.3c11.9,2.3,23.9,3.8,33.6,12.1c0.1,0.1,0.3,0.1,0.5,0.1
						c1.5-3.8-0.6-10.1-4.5-13c-7.4-5.5-15.2-9.1-25-8.8c-13.8,0.4-27.6,1.3-41.1,4.1c-11.7,2.4-23.3,5.4-35,8
						c-1.6,0.4-3.2,0.7-4.8,0.8c-10.2,0.4-20.3,0-30.5-0.3C483.7,323.6,475.9,324.4,468.4,327.4z M451.7,376
						c0.1-1.3,0.2-2.5,0.3-3.8c0.3-4.3,0.3-4.3-3.9-4.5c-1.4-0.1-2.9-0.3-4.3-0.6c-1.2-0.3-1.6,0.1-1.8,1.3
						c-0.3,3.1-0.8,6.1-1.1,9.2c-1.6,17.1-3.1,34.2-4.7,51.2c-0.2,1.6,0.3,2.4,1.8,2.8c3,1,6,1.1,9.2,0.8c2.1-0.2,3-1.1,2.9-3.3
						C449.6,411.4,450.6,393.7,451.7,376z M525.9,296.2c0.1,0,0.1,0,0.2,0c0-6.5-0.1-13.1,0.1-19.6c0.1-2.5-0.7-3-3-2.4
						c-2.2,0.6-4.5,0.6-6.8,0.2c-2.1-0.3-2.6,0.5-2.9,2.3c-2.3,13.5-4.2,27-5.9,40.6c-0.2,1.6,0.4,1.8,1.7,1.9
						c4.7,0.1,9.4-0.2,14.1-0.8c2.1-0.3,2.6-1.2,2.5-3.2C525.8,308.9,525.9,302.5,525.9,296.2z M525.9,346.2L525.9,346.2
						c-0.1-1.1-0.1-2.2-0.1-3.3c0-5.1,0-5.1-4.9-4.7c-1.2,0.1-2.4,0.1-3.5,0.1c-3.5,0-6.8-0.9-10.2-1.3c-1.2-0.1-1.9,0-2,1.4
						c-0.6,7-1.2,13.9-1.8,20.9c-0.1,1.4,0.4,2,1.7,2.2c5.1,0.7,10.2,0.5,15.1-0.6c4-0.9,4.9-2.2,5.3-6.3
						C525.7,351.8,525.8,349,525.9,346.2z M661.8,162.4c-4,15.3-9.6,30-15.3,45.1c5-0.9,9.6-2.1,14.2-1.7c2,0.2,2.7-0.4,2.6-2.5
						c-0.1-9.4,0-18.9-0.1-28.3C663.1,170.8,662.9,166.6,661.8,162.4z M312,459.5c0.1-1.4-0.4-4-0.8-6.6c-0.2-1.2-0.6-2.3-2.2-2.2
						c-3,0-6,0.4-8.9,1c-1.4,0.3-2.2,1.3-1.8,2.8c1.8,6.6,3.5,13.1,5.4,19.7c0.7,2.5,3.3,3,5.2,1.1c0.8-0.8,1.2-1.8,1.5-2.9
						C311.4,468.5,311.9,464.7,312,459.5z M448.1,199.7c5.2,0.1,5.2,0.1,5.1-4.1c0-0.8-0.1-1.6-0.1-2.4c-0.1-0.8-0.4-1.4-1.2-1.6
						c-2.9-0.7-6.1-1.6-8.8-0.4c-1.9,0.8-1.3,3.9-2.1,5.9c-0.6,1.4,0.2,2,1.5,2.1C444.7,199.3,446.8,199.5,448.1,199.7z
						 M452.2,355.1c0-5.3-0.4-5.7-5.3-3.9c-0.4,0.2-0.9,0.3-1.2,0.5c-1.5,0.9-2.5,5.9-1.2,6.7c2.1,1.2,4.5,1.6,6.8,0.6
						C453.2,358.2,451.6,356.2,452.2,355.1z M521.9,258.1L521.9,258.1c-0.2,0-0.4,0-0.5,0c-1.2,0.3-3-0.7-3.6,0.9
						c-0.4,1.4-1.6,2.4-1.7,3.9c-0.1,1,0.3,1.4,1.3,1.7c2.6,0.7,5.2,0.2,7.8-0.1c0.5,0,0.9-0.3,0.9-0.8c0-1.7,0.4-3.6-0.2-5.1
						c-0.6-1.4-2.4-0.4-3.7-0.6C522.1,258.1,522,258.1,521.9,258.1z"/>
					<path class="st1" d="M187.1,659.9c-8.3,0-14.9-2.4-20.4-7.6c-4.3-4.1-5-8.5-2.5-13.9c3.7-7.7,11.2-12.2,18.9-11.2
						c3.6,0.5,6.3,2.4,7.7,5.8c1.3,3.2,0.1,6-2,8.5c-1.2,1.4-2.7,2.4-4.5,1c-1.6-1.3-1.2-2.9-0.1-4.3c0.8-1.1,1.9-2.1,1-3.6
						c-0.9-1.3-2.3-1.7-3.8-1.8c-5.4-0.2-11.7,4.8-12.7,10.2c-0.4,2.3,0.6,3.9,2.1,5.3c5.6,5,12.1,6.8,19.5,5.5
						c7.4-1.3,13.9-4.5,19.9-9.1c12.8-9.9,22.3-22.3,27.8-37.6c0.6-1.7,1.4-3.4,2.3-4.9c0.9-1.4,2.4-2.1,4-1.1
						c1.6,1.1,1.4,2.5,0.3,4c-1.6,2.4-2.3,5.1-3.3,7.7c-6,15.7-16.2,28-29.7,37.8C204,656.1,195.6,659.4,187.1,659.9z"/>
					<path class="st1" d="M167.1,602.4c-15.9,0-26.7-10.4-26.4-22.3c0.1-4.5,2.1-7.4,6.2-9c3.3-1.2,6.7-1.7,10.2-1.1
						c6,1,9.4,9.5,5.9,14.5c-0.8,1.2-1.9,1.7-3.3,1.2c-1.4-0.5-1.8-1.7-1.7-3.1c0.1-1.5,0.8-3,0.3-4.6c-0.2-0.7-0.3-1.4-1-1.9
						c-1.4-1.1-6.9-0.7-9.2,0.7c-2.1,1.3-2,3.3-1.7,5.3c1.8,10.7,12.2,16.9,23.1,13.7c8-2.3,14.6-6.7,19.1-13.7
						c5.9-9.2,10-19.1,11-30.1c0.1-1.7,0.8-2.9,2.6-2.8c1.9,0,2.4,1.3,2.4,3c0.3,6.2-1.8,12-3.9,17.7c-3.3,9.4-7.7,18.3-15.9,24.5
						C178.7,599.2,171.8,602.3,167.1,602.4z"/>
					<path class="st1" d="M477.6,471.6c0.1,5.3-0.1,10-0.7,14.8c-0.3,3-2,4.6-4.4,5.7c-7.7,3.3-15.8,5.7-24.3,5.4
						c-7.7-0.2-15.4-1.2-22.5-4.7c-3.7-1.8-6.2-4-6-8.7c0.2-5.8-0.2-11.6-0.3-17.4c0-2.3,1.3-3.9,2.8-5.4c5.4-5.4,12.4-6.9,19.6-7.9
						c7.8-1.2,15.8-0.5,23.7-1.1c2.6-0.2,4.9,1.1,7.6,2.2c0-3.1,0.1-5.9,0-8.7c-0.1-1.9,0.1-3.8,0.3-5.7c0.2-2.4,1.5-3.5,3.5-4.3
						c4.6-1.7,9.5-2.6,14.4-3c8.7-0.7,17.4-1.7,26,0.3c2.8,0.6,5.4,1.6,7.9,2.8c4.9,2.2,7.2,6.1,7,11.2c-0.2,5.6-0.7,11.2-1,16.9
						c-0.2,3.1-2.1,4.9-4.5,6.4c-5.5,3.6-11.7,5.1-18.1,5.3c-5.3,0.2-10.5,0.1-15.8-0.5C487.6,474.8,482.6,473.7,477.6,471.6z
						 M527.3,449.8c-6.4,2.8-12.8,3.6-19.2,3.9c-9.4,0.5-18.9,1.9-28.1-1.1c-1.3-0.4-1.6,0.1-1.6,1.2c0,2.4,0.2,4.9-0.1,7.3
						c-0.4,4.4-0.4,4.6,3.7,6.2c0.8,0.3,1.5,0.5,2.3,0.7c8.2,2.2,16.5,2.5,24.9,2.1c5.3-0.3,10.4-1.6,14.9-4.8
						c0.8-0.6,1.8-1,1.9-2.2C526.3,458.9,526.8,454.6,527.3,449.8z M424.9,479.2c0.1,7.9,0.1,7.9,7.4,10.3c0.5,0.2,1,0.3,1.6,0.4
						c10.3,2.4,20.4,2.6,30.5-0.9c8.2-2.8,7.5-2,7.9-10.8c0-0.1,0-0.2,0-0.3c0.2-1.3-0.3-1.8-1.7-1.6c-2.1,0.4-4.1,0.6-6.2,0.8
						c-11.4,1-22.6,0.9-33.8-2c-1.8-0.5-4.1-2.2-5.3-1.3C424,474.9,425.2,477.6,424.9,479.2z M474.2,469.8c-1.6-2.3-1.9-4.4-1.6-6.5
						c0.3-1.8-0.5-2.6-2-3.3c-3.2-1.4-6.5-2.3-10-2.3c-5.3,0-10.5-0.1-15.8,0.6c-5.7,0.8-11.3,1.7-16.3,4.9
						c-1.3,0.8-3.1,1.7-2.9,3.3c0.2,1.5,2.2,1.7,3.5,2.1C443.9,473.3,458.8,472.8,474.2,469.8z M497.9,448.5
						c3.1,0.1,7.8-0.3,12.5-0.7c4.7-0.5,9.4-1,13.8-3c1.6-0.7,1.9-1.5,0.3-2.6c-1.6-1.1-3.3-1.8-5.1-2.5c-7.6-2.9-15.6-2.2-23.4-1.9
						c-4.8,0.2-9.6,0.9-14.3,1.9c-1.9,0.4-2.7,1.8-3,3.5c-0.4,1.7,0.8,2.8,2.1,3.4c1.1,0.5,2.4,0.9,3.6,1.2
						C488.3,448.9,492.3,448.6,497.9,448.5z"/>
				</g>
			</g>
		</g>
		<g id="Other_Pollution_xA0_影像_3_">
		</g>
	</g>
</g>
<g id="air">
	<g>
		<g id="Other_Pollution_xA0_影像_4_">
			<g>
				<path class="st1" d="M716,631.5c2-5.9-0.9-11.6-1.6-17.6c-1.1-10.6,0.6-20.7,5.2-30.2c1.1-2.3,1.5-4.5,1.3-7
					c-0.7-8.3,0.4-16.3,3.4-24.1c0.9-2.3,2-4.5,3.5-6.4c5-6.6,11.7-8.1,19-4c4.8,2.7,8.9,6.3,12.6,10.4c1.1,1.2,2,1.5,3.5,0.8
					c2.8-1.3,5.6-2.5,8.3-4.1c7.1-4.2,14.6-6.4,22.9-4c1,0.3,1.9,0,2.9-0.4c7-2.8,14.1-3.2,21.2-0.3c1.5,0.6,2.4,0,3.5-0.7
					c13.3-8.8,27.8-13.2,43.8-12.6c15.9,0.7,30.4,5,42.1,16.5c1.2,1.2,2,1.3,3.3,0.1c13.5-12.5,37-4.8,42,12
					c0.5,1.7,1.6,2.7,2.9,3.7c15.2,11.6,18.4,33.9,6.3,47.9c-4.8,5.6-9.6,11.4-15,16.5c-1.1,1-1.9,2.1-2.6,3.5
					c-5.5,11.1-13.2,20.4-22.7,28.3c-1.8,1.5-3.4,3.2-4.8,5.2c-5.3,7.2-11.9,12.5-21.2,13.4c-0.5,0-0.9,0.2-1.4,0.1
					c-6.8-1.5-13.5,0.3-20.3,0.6c-13.8,0.6-27.1-2.2-39.9-7.4c-4.4-1.8-8.3-2.5-13.2-1.3c-13.1,3.1-25.2-0.3-36-8.3
					c-1.4-1.1-2.5-1.2-4.1-0.5c-8.6,3.6-17.5,3.8-26.4,1.5c-1.7-0.4-3.1-0.4-4.7,0.4c-5.6,2.7-11.2,2.2-16.4-0.9
					C722,655.5,716.7,644.9,716,631.5z M838.4,614.5c-4.1,3.2-7.8,6.9-12.4,9.5c-3.6,2.1-3.6,2.2-0.3,5c2.1,1.8,4.9,1.5,5.6-1
					C832.8,623.1,835.4,618.7,838.4,614.5c2.5-1.5,4.5-3.6,7.4-4.6c-1.2-0.5-1.8-2.9-3.3-1.1C841,610.7,839.7,612.6,838.4,614.5z
					 M755.5,642.3c0-4.1-1-7.9-2.9-11.5c-0.6-1.2-1.5-2.2-2.9-2.8c-4.2-1.7-7.8-4.2-11-7.5c-0.7-0.8-1.5-1.2-2.6-1.2
					c-4,0-7.7,2.7-8.6,6.7c-1.1,5,0.8,9.1,3.9,12.8c4.4,5.1,10.2,8.2,16.8,9.4C755.1,649.6,755.2,650.2,755.5,642.3z M726.5,572
					c0.3,0.2,0.5,0.3,0.8,0.5c0.6-0.8,1.2-1.6,1.9-2.3c5.1-5,10.8-9.1,18.1-9.5c2.7-0.2,4.8-0.9,6.9-2.5c1.2-1,1.5-1.5,0.3-2.6
					c-3-3-6-5.8-9.6-8c-5.5-3.3-9.8-2.4-13.1,3.1C727.8,557.2,726.4,564.4,726.5,572z M853.8,664.7c4.4,0,8.2-1,11.8-2.6
					c1.3-0.6,1.8-1.1,0.9-2.6c-1.1-1.7-2.2-3.2-4.1-4.1c-2.7-1.2-4.6-3.5-5.7-6.3c-1.1-2.6-1.3-2.5-3.3-0.5c-3.2,3.1-3.8,7.9-7,10.9
					c-0.7,0.6-0.1,1.1,0.4,1.6C848.9,663.2,850.9,665.4,853.8,664.7z M751,569.1c-1.2,0.4-1.6,1.3-2.1,2c-5.3,7.5-7.6,15.9-7.1,25.1
					c0.2,3.7,0.2,3.7,3.6,2.9c1.1-0.3,2.3-0.5,3.5-0.6c1.6-0.1,2-0.8,1.7-2.5c-1.2-6.6-1.1-13.1,0.2-19.7
					C751.4,574,751.7,571.6,751,569.1z M928.5,629.9c0.8-0.1,1.7-0.1,2.6-0.2c4.4-0.6,10.5-3.4,11.8-9.7c0.1-0.7,0.6-1.4-0.2-2
					c-1.4-1-2.8-2.1-4.3-2.8c-1.1-0.4-2.1,0.9-3.2,1.3c-0.4,0.1-0.9,0.3-1.3,0.5c-2.3,1.3-6.1-0.1-7.4,2.3c-1.2,2.3-1,5.4-1.9,8.1
					c-0.5,1.5-0.2,2.3,1.5,2.3C926.9,629.8,927.7,629.9,928.5,629.9z M784.9,589.4c2.4-3.3,4.5-6.6,7.8-8c4.3-1.8,5.7-5,6.5-9
					c0.3-1.6,0.4-2.2-1.4-1.9c-4.8,0.6-9.5,1.6-14,3.2c-0.9,0.3-1.6,0.7-1.6,1.8C782,580.2,782.6,584.7,784.9,589.4z M895.7,554
					c-3.8,0.3-8.1,1.2-12.1,3.5c-2.5,1.4-1.6,3.7-1.4,5.6c0.2,1.6,2,0.7,3,0.7c4.3,0,8.5,0.1,12.7,0.9c3.9,0.8,3.9,0.8,4.8-3
					C903.4,558.2,899.9,553.9,895.7,554z M901.9,652.7c-3.5,1.8-7.4,3.8-11.1,2.6c-5.8-1.9-9.1,0.6-12.4,4.6
					c-2.6,3.1-2.9,2.9,0.3,5.6c1,0.9,1.8,2.4,3.7,1.6C890,663.9,896.3,658.9,901.9,652.7z M889.4,670.4c7.5-1.8,14.2-5.2,20.8-9.2
					c3.8-2.3,6.1-5.3,7-9.5c0.5-2.1,0.9-4.3,1.2-6.4c0.1-0.6,0.5-1.6-0.5-1.9c-0.8-0.2-1.2,0.6-1.7,1.2
					C908.9,655,900.2,663.8,889.4,670.4z M887.1,569.4c-1.3,0.1-3.1,0.3-4.8,0.4c-0.7,0.1-1.5,0.1-1.8,0.9c-0.6,1.7-1.4,3.4-1.7,5.1
					c-0.3,1.6,0.1,2.9,2.4,2.1c2.8-1,5.7-0.8,8.6-0.4c2.3,0.3,3.9,3.3,6.3,1.7c1.9-1.3,2.1-4.1,3.4-6.1c0.1-0.1,0.1-0.2,0.1-0.2
					c1.2-1.5,0.3-1.9-1.1-2.2C894.9,569.8,891.2,569.5,887.1,569.4z M858.6,563.3c0.7-0.7,1.1-1.1,1.4-1.5c3.6-4.8,7.9-8.8,12.9-12
					c0.7-0.5,1.8-0.8,1.3-2c-0.4-1.1-0.9-2.1-2.4-2.2c-3.7-0.3-7.4-0.3-11.2-0.1c-1,0.1-1.8,0.2-2,1.4
					C857.7,552.2,857.8,557.5,858.6,563.3z M916.1,551c5,2,9.6,5.1,15.4,4.1c1.3-0.2,2.7,0.2,4.1,0.3c3.4,0.3,6.6,1.4,10.1,2.2
					C939.8,547.3,924.1,543.9,916.1,551z M828.4,565.7c0-0.4,0-0.6,0-0.8c-0.1-6.5-5.3-10.6-11.7-9.2c-0.5,0.1-1,0.5-1.3,0.9
					c-1.3,1.5-2.7,3-3.8,4.6c-1.4,2-0.6,3.5,1.7,3.7c4.3,0.5,8.5,1.2,12.5,2.7C828.2,568.4,829,567.9,828.4,565.7z M756.8,589.2
					c2.7-5.9,6.9-10.5,12-14.2c1.7-1.2,1.9-2.5,0.1-4.1c-1.6-1.4-3.2-2.6-5.2-3.2c-2-0.7-3-0.3-4.1,1.6
					C756.1,575.6,756.6,582.4,756.8,589.2z M815.4,641.4c2.4,3.3,5,6.2,7.7,8.8c2,2,3.7,1.8,7.8-0.4c2.2-1.2,0.5-2.6,0.4-4
					c-0.1-1.5-0.5-3-0.7-4.6c-0.3-1.8-2.7-4-4.1-3.5C823,639.2,819.3,640.3,815.4,641.4z M763.4,624.2c0.3-0.3,0.5-0.6,0.8-0.9
					c-0.9-0.6-1.9-1.1-2.7-1.8c-4.7-4.1-7.5-9.2-9.1-15.1c-0.2-0.9,0.1-2.6-1.6-2.4c-2.3,0.3-4.7,0.4-6.8,1.7
					c-0.1,0.1-0.1,0.5,0,0.8c1.6,4,2.8,8.4,6.4,11.2C754.3,620.6,758.8,622.6,763.4,624.2z M837.4,606c-0.1-0.3-0.2-0.6-0.4-0.7
					c-2.1-0.4-4-1.9-6.2-0.6c-1.8,1.1-3.6,2.1-5.5,3c-1,0.5-1.5,1.2-1.9,2.1c-1.3,3.1-3,6-5.2,8.5c-0.6,0.7-1.3,1.3-0.4,2.3
					c0.8,0.9,1.4,0.5,2.1,0.1c6.4-3.4,12.1-7.7,16.5-13.5C836.8,607,837.1,606.5,837.4,606z M742.7,568.9c-0.8,0.5-1.6,0.9-2.3,1.4
					c-10,7.2-11.2,19.9-5.3,31.1c0.2,0.5,0.5,1.1,1.2,0.7c0.8-0.4,0.4-1.1,0.3-1.7c-0.8-5.1-0.7-10.1,0.2-15.2
					C737.8,579.5,740.1,574.2,742.7,568.9z M772.4,588.3c-0.2,3.5,0.5,6.9,2,10.1c0.9,1.8,1.9,3.7,4.2,2.6c3.1-1.4,3.9-3.8,2.5-6.3
					c-2.6-4.6-4.1-9.4-4.5-14.7c-0.1-0.8,0.3-2.1-0.8-2.3c-1.2-0.2-1.8,1-2.1,2.1C772.8,582.6,772.2,585.4,772.4,588.3z M856,537.1
					c-10.9,1-20.8,4.8-30,10.5c-0.3,0.2-1,0.6-0.6,1c1.4,1.3,2.4,3.2,4.4,3.8c1.9,0.5,1.9-1.3,2.6-2.1c1.6-1.8,3.3-3.4,5.3-4.6
					c4.3-2.7,9-4.2,14-4.9C854.1,540.5,855.7,539.8,856,537.1z M784.9,553.7c-4.6,0.3-8.2,1.1-11.8,1.9c-2.2,0.5-3.9,1.8-5.5,3.2
					c-1.1,1-0.9,1.6-0.1,2.6c1.6,1.9,3.8,3,5.9,4.3c1.2,0.7,1.8,0.3,2.8-0.3C780.3,562.6,780.9,557.4,784.9,553.7z M722.8,591.4
					c-3.1,7.8-3.9,15.6-2.3,24.4c2.4-3.4,4.6-6,7.3-8.1c0.9-0.7,1-1.3,0.5-2.3C726.1,600.8,724.5,596.1,722.8,591.4z M874.5,623.7
					c-0.2,0.1-0.5,0.3-0.8,0.5c-3.3,2.4-6.2,5.3-8.5,8.7c-0.8,1.2-0.9,2.2,0.3,3.1c1.2,0.9,1.8,2.7,4.2,2c4.8-1.4,6.5-5.4,8.3-9.3
					C878.4,628,875.4,623.7,874.5,623.7z M814.1,665.1c-6.4-3.3-12.2-7.7-19.3-9.7c-2.3-0.7-3.6-0.4-5.2,1c-0.9,0.8-0.8,1.2,0.1,1.8
					C797.1,663.2,805.2,665.7,814.1,665.1z M765.5,658.7c1.3-0.1,2.3-0.1,3.1-0.2c1.8-0.2,3.6-0.5,5.3-0.9c4.8-1.1,4.7-1,1.9-4.9
					c-1.3-1.8-2.3-2.3-4.4-1.2c-2,1-4.2,1.6-6.4,2.2c-1.8,0.5-3.7,0.6-5.6,0.9c-1.4,0.2-2.2,1.3-2.2,2.4c-0.1,1.1,1.4,0.9,2.2,1
					C761.6,658.3,763.8,658.5,765.5,658.7z M827.5,575.8c-4.1,0.3-7.5,1.1-10.8,2.9c-1.1,0.6-1.8,1.1-0.2,2.1
					c2.2,1.4,4.1,3.3,5.5,5.6c0.7,1.1,1.2,1,2.3,0.5c3.7-1.7,4-5.3,4.9-8.5C829.7,576.3,829.3,575.4,827.5,575.8z M902.9,607.5
					c0.7,2.1,1.1,4.6,3.2,6.2c2.5,2,4.6,4.3,6,7.2c0.5,1.1,1.5,2.1,2.6,2.1c1.1,0.1,1.2-1.4,1.7-2.2c0.3-0.5,0.5-1.2,0.8-1.7
					c0.9-1.5,0.6-2.2-1-3c-4.5-2.1-7.8-5.5-10-10c-0.5-1-0.5-2.8-2-2.5s-0.7,2.2-1.2,3.3C902.9,607.1,902.9,607.2,902.9,607.5z
					 M954.4,588.7c-2.6,2.8-5.4,5-4.4,8.9c1.1,4.4,1.1,9,0.8,13.5c0,0.5-0.5,1.3,0.7,1.7C955.5,605.3,957,597.5,954.4,588.7z
					 M934,597.4c-2.1,1.2-3.8,2.1-5.4,3c-0.6,0.3-0.8,0.9-0.9,1.6c-0.4,3-0.9,5.9-1.2,8.9c-0.1,0.7-0.2,1.5,0.6,1.9
					c0.9,0.5,7.1-1.3,7.6-2.3c0.2-0.3,0.3-0.7,0.2-1C933.2,605.7,933.6,601.8,934,597.4z M889.7,597.8c-1.4-1.2-2.7-2.3-4.1-3.5
					c-1.4-1.2-2.6-2.5-4.1-3.6c-1.4-1-2-3.9-4-3c-1.5,0.7-2,3.1-2.6,4.9c-0.2,0.8-0.8,1.6,0.1,2.5
					C877.7,598.1,886,599.7,889.7,597.8z M872.1,576.1c-0.1-4.3-0.6-4.7-4.1-3.7c-1.8,0.5-3.6,1.1-5.5,1.7c-1,0.3-1.3,0.7-0.9,1.8
					c1,2.6,2,5.2,3.4,7.7c0.3,0.5,0.6,1.5,1.3,0.7C869,581.7,871,578.8,872.1,576.1z M787.9,559.2c5.1,0,9.9,0.7,14.2,3.4
					c1.6,1,1.9-0.3,1.9-1.4c-0.1-2.7-5.3-7.7-8-8C791.6,552.9,790.2,556.6,787.9,559.2z M762.8,603.6c-1.9-0.3-2,0.7-1.6,2.1
					c0.8,3.4,3.4,5.7,5.7,8.1c1.2,1.3,1.8,0.9,2.4-0.6c0.8-1.8,1.9-3.5,3.4-4.9c1.9-1.7,0.8-2.5-0.9-2.9
					C768.8,604.8,765.8,604.3,762.8,603.6z M760.9,636.5c0.1,2.2,0.2,4.1,0.4,6c0.2,2-1.5,4.9,0.3,5.8c1.7,0.9,4.3-0.7,6.4-1.5
					c0.7-0.3,1.4-0.5,2-0.8c0.4-0.2,1.1-0.4,0.8-0.9c-0.9-1.9-0.8-4.4-3-5.5C765.7,638.5,763.5,637.6,760.9,636.5z M861.5,617.9
					c1.7-3.3,3.8-5.8,6.6-7.6c1.1-0.6,0.7-1.5,0.6-2.4c-0.1-0.9-0.7-1.2-1.6-1.1c-3.5,0.2-6.9,0.9-10,2.5c-1,0.5-2.1,1.6-0.7,2.8
					C858.5,613.6,859.9,615.6,861.5,617.9z M817.6,653c-2-2.4-4.3-4.4-5.7-6.9c-1.9-3.5-4.7-4.3-8.3-3.8c-0.5,0.1-1.2-0.1-1.5,0.4
					c-0.4,0.8,0.3,1.2,0.7,1.6c2.7,2.9,5.6,5.4,8.6,7.9C813.3,653.7,815.3,654,817.6,653z M722.8,638.5
					c2.2,11.5,13.7,22.4,21.1,20.2C735.3,653.9,728.5,647.3,722.8,638.5z M808.1,599.4c2.4-2.1,4.5-3.9,6.6-5.6
					c3.8-3.1,3.9-3.5,0.1-7c-0.3-0.2-0.5-0.5-0.8-0.7c-1.1-1-1.9-1.2-2.3,0.7c-0.3,1.6-0.9,3.3-2.1,4.3
					C806.9,593.4,807.7,596.2,808.1,599.4z M829.2,598.1c1,0.2,1.8-0.3,2.5-0.9c2.6-2,4.9-4.3,7.1-6.8c0.5-0.6,1.5-1.2,0.5-2
					s-1.6-2.8-3.1-2.1c-1.9,0.9-4,1.7-5,3.9c-0.8,2-1.9,3.9-3,5.8C827.3,597.5,827.3,598.2,829.2,598.1z M835.4,560.1
					c2.2,5.6,6,8.5,10.8,10.3c0.9,0.3,2.3,1.4,2.7-0.1c0.4-1.3,1-3.3-0.5-4.3C844.7,563.4,840.4,561.7,835.4,560.1z M858.8,600.1
					c-0.2,1.7-0.3,2.4,1.3,2.1c2-0.5,4.1-0.8,6.1-1c1.5-0.1,1.9-0.8,2-2.3c0.2-3.4-3.2-5.8-6.4-5c-2.3,0.7-3.3,1.7-2.9,4.1
					C859.1,599,858.8,599.9,858.8,600.1z M789,594.4c3.4-0.5,6.2-0.7,8.8,0.5c0.8,0.4,1.6,1.1,2.3-0.2c0.5-1,1.1-1.8,0.1-2.9
					c-1.3-1.4-2-3.2-2.3-5.1c-0.2-1.1-0.6-1.7-1.8-0.9C793.1,587.9,790.7,590.5,789,594.4z M836.2,634.3c-0.1,1-0.2,1.9,0.7,2.4
					c2.2,1,4.5,2,6.7,2.9c1.3,0.5,1.3-0.4,1.1-1.3c-0.4-2.2-0.8-4.4-1.2-6.7c-0.7-3.8-0.7-3.9-3.9-1.4
					C838.1,631.3,835.8,631.8,836.2,634.3z M908.1,630c0.3-2.7-0.4-4.6-3.4-5.3c-1.6-0.3-2.2-0.3-2,1.5c0.3,2.9,0.1,5.8-0.6,8.7
					c-0.2,0.8-1,1.8,0.3,2.3c1,0.4,1.9,0.2,2.7-0.6C907.3,634.9,908.4,632.8,908.1,630z M766.9,584.4c-3.6,3.8-5.1,7.8-5.9,12.1
					c-0.1,0.6-0.2,1.5,0.7,1.5c2.2,0,4.3,0.9,6.7,0.5C766.8,594.1,766.7,589.7,766.9,584.4z M862.9,567.7c2.8-0.7,5.2-1.3,7.5-1.9
					c0.8-0.2,1.2-0.8,1.4-1.5c0.7-2.7,1.9-5.1,3.6-7.2c0.5-0.6,0.8-1.2,0.1-2.1C870.5,558.2,866.4,562.2,862.9,567.7z M821.4,633.4
					c-3.5-4.8-3.6-4.9-8.9-3.2c-0.2,0.1-0.4,0-0.5,0.2c-0.6,0.6-2.7-0.1-2,1.7c0.6,1.5,0.6,4,3.2,3.7
					C816,635.4,818.8,634.7,821.4,633.4z M934.7,636.6c-3.8,1.8-6.8,3.2-9.9,4.6c-0.7,0.3-0.7,0.9-0.8,1.6c-0.1,2.2-0.2,4.5-0.4,7.3
					C927.8,645.9,931.4,641.8,934.7,636.6z M897.3,628.9c-0.2-1.6,0.4-3.7-1.2-4.4c-1.7-0.7-2.2,1.7-3.3,2.7
					c-0.3,0.3-0.6,0.7-0.8,1.1c-0.6,1.4-1,2.9,0,4.1c1,1.1,2.5,2.4,3.9,2.1c1.3-0.3,0.9-2.3,1.3-3.6
					C897.3,630.3,897.2,629.6,897.3,628.9z M895.5,602.2c-2.8,1.1-5.5,2.1-9,2.4c2.8,1.7,5,3,6.9,4.7c0.7,0.6,1.3,1.5,2.3,1
					c0.9-0.5,1.2-1.7,1-2.6C896.4,606,895.9,604.3,895.5,602.2z M879.1,650.2c-4.3-1.2-8-2.7-11.4-4.8c-0.5-0.3-1-0.4-1.3,0.3
					c-0.4,1.3,2.3,6,3.6,6.1C873,652,875.8,651.7,879.1,650.2z M844.4,549.3c3,1.3,5.3,3.5,7.7,6.8c0.2-3.7,0.4-6.4,0.5-9.1
					c0-0.1-0.2-0.4-0.3-0.4c-2.7,0.2-5.3,1-7.8,2.1C844.5,548.8,844.5,548.9,844.4,549.3z M916,604.3c-0.8,0-1.3,0-1.7,0
					c-0.7,0.1-1.6-0.3-2,0.5c-0.3,0.7,0.5,1.3,0.9,1.8c1.4,1.9,3.3,3.4,5.5,4.4c0.5,0.2,1.3,0.7,1.5-0.3c0.3-2.1-0.6-3.9-1.4-5.7
					C918,603.4,916.6,604.4,916,604.3z M921.3,576c0.1,1,0.1,2,0.3,2.9c0.4,1.7,1.8,1.5,3.1,1.2c0.9-0.2,2.7,0.2,2.4-0.9
					c-0.4-2.1-1.5-4-1.8-6.2c0-0.1-0.6-0.3-0.9-0.3C922,572.5,921.3,573.2,921.3,576z M849.6,620c-2.8,5-0.2,9.2-0.1,13.9
					C853.8,629.2,852.3,624.9,849.6,620z M781.7,616.3c-0.2-1.5-0.5-3-0.7-4.6c-0.1-0.8-0.6-1.1-1.3-1.2c-0.7-0.1-0.9,0.5-1.1,1
					c-0.9,2.1-1.6,4.2-1.9,6.5c-0.1,0.9,0,1.7,1.1,1.8C779.2,619.9,781.8,617.6,781.7,616.3z M891.1,584.7c-1.1-1.3-2.6-1.7-4.1-1.8
					c-1.3-0.1-3.1-0.6-3.7,0.7c-0.5,1,1.2,1.8,1.9,2.7c0.2,0.3,0.5,0.6,0.8,0.8c0.8,0.5,1.4,2.2,2.5,1.4
					C889.6,587.6,890.2,586.1,891.1,584.7z M789.5,640.1c-1.3,0.4-2.4,1.5-3.2,2.7c-0.2,0.4,4.2,4.2,4.9,4c1-0.2,1.6-0.8,1.6-1.9
					C792.7,643.1,790.9,640.1,789.5,640.1z M857.1,580.2c-2.5,3.1-1,5.7,0.3,8.2c0.7,1.4,1.7,0.4,2.5,0.2c0.9-0.2,1.1-0.8,0.6-1.7
					C859.4,584.8,858.3,582.6,857.1,580.2z M874.3,669.3c-1.7-1.2-2.1-3.6-4.1-3.1c-2.3,0.6-4.4,1.9-6.7,3
					C867.3,670.3,869.2,670.3,874.3,669.3z M939.6,605.5c1.8-1.9,3.5-4.8,3.9-6.6c0.2-1.1,0.2-1.6-1.3-1.4c-1.7,0.3-2.6,0.9-2.8,2.7
					C939.3,601.8,939.1,603.5,939.6,605.5z M786.6,651.2c-0.1-0.2-0.1-0.4-0.3-0.5c-1.6-1.3-3.2-2.7-4.8-3.9
					c-0.6-0.5-1.2,0.1-1.7,0.5c-0.6,0.5-0.3,1,0.1,1.4c1.1,1.3,2.2,2.6,3.3,3.9c0.6,0.7,1.3,0.6,1.9,0.1S786.4,651.9,786.6,651.2z
					 M885.2,635.2c-5.4,3.1-5.8,4.4-2.8,8.9C883.9,641.4,884.6,638.5,885.2,635.2z M865.6,623.3c2.2-1.7,3.8-3.1,5.5-4.3
					c1.4-1,0.6-2,0-2.8c-0.8-1.2-1.4,0.1-1.8,0.5C867.6,618.4,866.5,620.5,865.6,623.3z M887.7,541.8c-3.1-2-9.3-3.7-12.7-3.3
					C879.2,541.7,883.8,540.4,887.7,541.8z M882.6,623.8c0.9-0.5,2.2-0.8,2-1.9c-0.2-1.1-0.2-2.8-1.9-2.8c-0.9,0-2.6,0.5-2.5,1.6
					C880.3,621.9,881.4,623.1,882.6,623.8z M957.1,572.6c0.5,3.6-0.3,7.2,4.5,7.7C960.7,577.6,959.2,575.3,957.1,572.6z
					 M818.1,571.6c-5.9-1.9-6.4-1.7-5.6,2.8C814.3,573.5,816,572.6,818.1,571.6z M888.7,644.6c1.8-0.9,2.7-2.1,3.6-3.2
					c0.4-0.4,1.1-1,0.5-1.6c-0.5-0.5-1.2-0.9-1.9-1c-0.9-0.1-0.7,0.9-0.9,1.4C889.6,641.5,889.2,642.8,888.7,644.6z M942.5,567.6
					c0.3,2.1,1.8,2.9,3.3,3.6c0.6,0.2,1.2,0.7,1.6-0.2c0.3-0.7,0.4-1.4-0.4-1.9C945.7,568.2,944.3,567.5,942.5,567.6z M845.5,647.7
					c-2,1.4-3.6,2.4-5.2,3.5c-0.7,0.5-0.4,1.1-0.1,1.7c0.3,0.4,0.8,0.6,1.1,0.2C842.8,651.6,844.8,650.5,845.5,647.7z M937.2,576.7
					c-0.1,1.2-0.5,2.4,1.2,2.5c1.1,0.1,1.4-0.6,1.3-1.5c-0.1-1.3,0.1-3.1-1.5-3.3C936.6,574.3,937.6,576.1,937.2,576.7z
					 M830.4,656.2c2,0.8,2.9,3.2,5,1.5c1.1-0.8,0-1.8-0.4-2.3C833.4,653.8,832.3,655.8,830.4,656.2z M925.5,567
					c1.1-0.2,3,0.2,2.9-0.8c-0.3-1.6-2.3-1.1-3.7-1.3c-0.8-0.1-1.9-0.2-1.7,1C923.2,567.9,924.7,566.7,925.5,567z M874.6,607.8
					c4.1,0.2,7.7,2.2,11.3,3.8C882.6,609.1,878.9,607.6,874.6,607.8z M901.4,587.9c1-2.1,1.7-3.5,2.4-5c0.3-0.6,0.5-1.7-0.2-1.9
					c-0.9-0.3-1.4,0.6-1.7,1.3C901.3,583.9,900.7,585.4,901.4,587.9z M798.2,632.8c-1,0.2-2.4-0.2-2.2,1.6c0.1,1.2,0.9,1.4,1.9,1.5
					c1.6,0.1,1.6-1.2,1.8-2.2C799.9,632.5,798.8,632.9,798.2,632.8z M839.2,555.2c2.1,0.9,4.3,1.7,7.1,2.8
					C844.1,555.4,842.2,554,839.2,555.2z M932.7,590.6c1.3-0.5,2.3-1.5,2.8-2.7c0.4-0.8-0.8-1.2-1.4-1.1c-1.5,0.1-1.9,1.5-2.5,2.5
					C931.3,589.9,931.9,590.5,932.7,590.6z M892.5,617.3c0-0.9-0.7-1.1-1.3-0.9c-0.7,0.3-2.2-0.3-1.9,1.2c0.1,0.7,0.2,2.1,1.4,1.9
					C891.8,619.4,892.2,618.3,892.5,617.3z M784.1,567.5c2.4-0.6,4.8-1.2,7.1-1.9C788.6,565.3,786,565.4,784.1,567.5z M868.5,539.6
					c-2.5-1.6-4.2-2-6.4,0C864.3,539.6,866,539.6,868.5,539.6z M727.7,616.1c1.7-0.7,2.9-1.2,4.1-1.7c0.4-0.2,1.2-0.2,1-0.9
					c-0.1-0.4-0.4-0.8-0.7-1.1c-0.6-0.6-1,0-1.3,0.3C729.8,613.5,728.6,614.4,727.7,616.1z M821.5,658.8c2,1.2,3.4,2.6,6.2,2.5
					C825.5,660.1,824.5,657.7,821.5,658.8z M841.4,596.3c-1.3,0.9-2.4,1.9-3.2,3.2C840.8,600.5,841.1,600.2,841.4,596.3z
					 M847.5,598.9c-0.1,0-0.2-0.1-0.4-0.1c-0.4,1.2-0.8,2.3-1.1,3.5c-0.2,0.6,0.4,1.1,0.9,1.1c0.6,0,0.5-0.6,0.5-1
					C847.5,601.2,847.5,600,847.5,598.9z M791.6,619.5c-0.3-0.7-0.4-1.6-1.2-1.5c-0.8,0.1-1.4,0.8-1.6,1.6c-0.2,1,0.6,0.9,1.2,0.8
					C790.7,620.4,791.5,620.5,791.6,619.5z M914.2,579.4c-0.8-1.1-1.5-1.9-2.8-2.4c-0.3,1.1-0.6,1.9-0.3,2.8
					C912.1,579.7,913,579.5,914.2,579.4z"/>
				<path class="st1" d="M1002,183.8c-0.6,2.6,0.7,4.1,3.9,5.5c11.5,5,18.4,17.7,17.3,31.6c-1.1,12.9-5.9,24.1-15.7,32.8
					c-7.7,6.9-16.3,7.5-24.9,1.8c-1.4-0.9-2.1-0.6-3.2,0.3c-6.5,5.2-13.6,9-21.9,10.4c-5.6,0.9-11.3,0.8-16.7-1.2
					c-2.3-0.8-3.9-0.6-5.9,0.9c-7.8,6-16.5,9.2-26.5,7.2c-6.9-1.3-12.2-5.1-16-10.9c-1-1.6-1.6-1.6-3.1-0.7
					c-12.1,7.5-25.3,10.2-39.4,8.3c-1.8-0.2-3.3,0.2-4.9,1.1c-7.5,4.5-15.4,7.1-24.2,5.1c-10-2.3-15.6-9.5-19.1-18.6
					c-1.6-4.3-2.7-8.7-1-13.3c0.3-0.9-0.2-1.4-0.6-1.9c-3.7-4.8-6.5-10-8.3-15.8c0-0.1,0-0.2-0.1-0.3c-7-11.2-4.9-22.7-0.4-34
					c4.9-12.6,12.4-23.4,23.7-31.2c6.3-4.3,13.1-7.1,21-5.3c0.7,0.1,1.2,0,1.8-0.5c6.4-5.5,14.3-7.2,22.3-8.6c3.2-0.6,6-1.5,8.9-3.1
					c12.7-7.4,26.3-10.3,40.9-7.8c1.2,0.2,2.3,0,3.4-0.5c14.3-6.9,28.8-4.2,39.7,7.4c1.2,1.3,2.1,1.6,3.9,1
					c5.2-1.8,10.5-1.5,15.5,0.5c15.6,6.2,25.6,17.4,29.3,33.9c0.1,0.5,0.2,1.1,0.3,1.6C1002.1,180.8,1002,182,1002,183.8z
					 M996.5,184.4c0-0.9,0-1.8,0-2.7c0-0.7-0.1-1.5-0.3-2.2c-3-14.3-11.5-24-24.7-29.7c-3.5-1.5-7.3-2.1-11.2-1.3
					c-1.8,0.4-2.3,0.9-1.3,2.7c2.3,3.9,3.8,8.1,4.1,12.6c0.2,2.7,1.4,2.7,3.3,2.1c1-0.3,1.9-0.7,2.8-0.9c8.7-2.5,17.2,1.4,20.6,9.7
					C991.5,178.4,994.2,181.1,996.5,184.4z M940.2,163.6c-4-7.3-9.7-12.8-16.8-16.9c-7.7-4.5-17.4-1.1-20.6,7.1
					c-0.7,1.7-0.2,2.4,1.5,2.5c2.8,0.1,5.3,1,7.9,1.7c3.9,1,7.9,2.4,11.9,2.6C929.6,161,934.9,161.6,940.2,163.6z M1000.8,214.6
					c-0.6,1.5-1,2.8-1.6,4c-0.7,1.5-1.9,2.5-3.6,2.5s-2.9-1-3.5-2.5c-0.5-1.1-0.9-2.2-1-3.4c-0.5-3.2-0.8-6.5-1.1-9.7
					c-0.1-1.3-0.5-2.1-2-2.3c-3.3-0.4-5.8-2.1-6.7-5.5c-0.1-0.4-0.3-1-0.6-1.2c-3.3-2-6.8-3.6-10.7-5c0.3,0.6,0.3,0.8,0.4,0.9
					c7.6,7,12.7,15.5,15,25.7c0.2,0.8,0.6,1.3,1.3,1.7c4.8,2.9,6.1,7.6,6.3,12.8c0.1,1.4-1.4,3.4,0.2,4.1c1.3,0.5,3.1-0.7,4.5-1.5
					c0.3-0.2,0.6-0.4,0.9-0.5c2.6-1.6,4.1-3.5,3.2-6.9c-0.8-3.1-0.5-6.4,0.4-9.4C1002.6,216.8,1002.2,215.8,1000.8,214.6z
					 M1016,228.9c1.6-5.4,1.9-10.2,1.2-15.1c-1.4-9.1-5.8-16.1-14.6-19.8c-0.6-0.3-1.3-0.9-2-0.3c-0.7,0.6-0.5,1.4-0.4,2.3
					c0.4,2.5,0.9,5,1.1,7.5c0.1,1.9,0.8,3.4,2,4.8c4.8,5.4,8.5,11.4,11.3,18C1015,227,1015.4,227.7,1016,228.9z M966.2,179.7
					L966.2,179.7c-0.1,0.5,0,0.9-0.1,1.4c-0.6,2.5,0.5,3.5,2.8,4.1c4.5,1.2,8.7,3.1,12.8,5.3c1.3,0.7,5.9-1.6,5.8-2.9
					c-0.3-2.5-0.2-5.4-1.9-7.2c-4.7-5-10.8-7.5-17.6-8.1c-1.7-0.2-2.5,0.7-2.1,2.6C966.1,176.4,966.1,178,966.2,179.7z M925.1,233.6
					c-2.9-0.2-3.1-0.2-3.1,1.1c0.3,6.7,2.7,12.6,7.8,17.1c1.8,1.6,4.3,0.9,6.1-0.1c1.6-1,1.8-2.8,0.9-4.8c-1.4-3.3-1.4-6.7-0.6-10.2
					c0.4-1.6,0.1-2.7-1.6-2.5C931.2,234.6,927.9,233.7,925.1,233.6z M993.5,253.7c4.2,0,7.8-1.7,11.5-5.3c3.1-3,3.1-3,1-6.5
					c-0.4-0.7-0.9-1.4-1.1-2.2c-0.5-1.5-1.1-1.8-2.5-0.7c-2.4,1.9-5.2,3.2-8.2,3.5s-4.8,1.6-6.3,4.1c-2.6,4.4-2.6,5.1,2.6,6.5
					C991.6,253.5,992.8,253.5,993.5,253.7z M805.5,248.9c1.6,8.7,4.8,15.8,12.3,20c7,3.9,13.9,2.3,21.4-1.1c-2.8-0.9-4.8-2-7.1-2.1
					c-10.1-0.4-17.3-5.6-23.1-13.4C808.2,251.1,807.3,250,805.5,248.9z M950.1,253.7c6,5,13.9,4.4,20.2-1.2c4.5-4,4.5-4.4,1.9-9.7
					c-0.6-1.1-0.9-1.3-1.9-0.5C964.4,247.3,957.6,250.8,950.1,253.7z M859.1,259.1c1.3,0.5,2.3,0.2,3.3,0.1c5.5-1,10.5-3.3,15.2-6.3
					c3-1.9,3-1.9,0.5-4.3c-0.7-0.7-1.3-1.5-2.1-2.1c-1.1-0.8-1.2-3.2-3.4-2.3c-1.5,0.6-3.4,0.8-4.3,2.1
					C865.5,250.6,862.6,255,859.1,259.1z M876.8,213.4c0.1,4.7-0.5,9.3-1.5,13.8c-0.3,1.3,0.2,1.6,1.3,1.6c2.7,0,5.4-0.2,8.2-0.4
					c2.5-0.2,4.2-1.5,5.8-3.2c0.8-0.9,0.6-1.3-0.3-1.8C885.4,220.7,881.1,217.3,876.8,213.4z M836.7,233.2c0,0.9,0,1.8,0,2.7
					c0.1,3.3,1.7,4.4,4.8,3.4c2.4-0.7,4.6-1.8,6.8-2.8c1.3-0.6,2-1.1,0.5-2.4c-2.6-2.4-4.4-5.3-6.1-8.3c-0.5-0.9-0.5-2.4-2.4-2
					c-1.7,0.4-2.8,1-3,2.9C837.1,228.8,836.7,231,836.7,233.2z M807.8,233.6c1.7,2.8,3.3,6.2,6.2,7c5.4,1.5,11.2,1.2,17.2,0.8
					c-1.6-2-3.1-3.5-4.3-5.2c-0.8-1.2-1.7-1.4-2.9-1.1c-2.8,0.7-5.6,0.4-7.9-1C813.4,232.4,810.8,232.6,807.8,233.6z M809.5,208
					c-0.9,1.2-1.4,2.4-1.2,3.8c0.7,5.6,2.6,10.7,6.8,14.7c1.7,1.6,3.5,2.8,6,2.9c1.4,0.1,2.1-0.1,1.5-1.8c-0.9-2.2-1.5-4.5-1.8-6.8
					c-0.2-1.1-0.5-1.7-1.8-1.9c-3.5-0.4-5.7-2.7-7.2-5.6C810.9,211.8,810.3,210,809.5,208z M919.7,267.2c-3-1.7-5.1-3.6-6.6-6.1
					c-0.3-0.5-0.6-0.9-1.2-0.9c-4.9-0.1-9.8-0.9-14.8-1.7C900.7,265.9,910.2,269.6,919.7,267.2z M878.9,163.4
					c-6.7-2.6-13.2-3.8-20.1-2.9c-0.5,0.1-1,0.3-1.5,0.6c-0.3,0.2-0.7,0.7-0.7,1.1c0,0.5,0.6,0.6,1,0.7c4.9,1.2,9,3.6,12.8,6.9
					c0.6,0.5,1.2,1.3,2,0.2C874.1,167.4,876.4,165.6,878.9,163.4z M864,154.5c4.7,0.2,8.9,0.9,12.9,2.1c2,0.6,4.2,2.1,5.8,1.6
					c1.6-0.5,2.4-3.2,3.8-4.7c1.5-1.7,0.6-1.9-1-2.2c-4.9-0.8-9.8-0.5-14.7-0.4C868.2,150.9,866,151.9,864,154.5z M910,180
					c5.2-0.5,10.1-0.9,15-1.3c1.5-0.1,1.1-0.8,0.6-1.6c-1.6-2.8-3.6-5.2-5.9-7.4c-0.6-0.6-1.2-0.8-1.9-0.2
					C914.2,172,911.5,175.3,910,180z M879.1,206c0,1.2,0.8,1.7,1.4,2.4c3.3,3.9,7.3,7,11.7,9.6c3.4,2,3.5,1.9,5.4-1.5
					c0.6-1.1,0.6-1.7-0.7-2.2c-2.9-1.2-5.8-2.7-8-5C886.2,206.1,882.7,206.2,879.1,206z M903,180.7c-3.8-4.6-7.6-8-11.9-10.9
					c-0.6-0.4-1.1-0.4-1.6,0.2c-2.7,2.7-2.7,5.5,0.4,7.9C893.5,180.7,897.8,180.9,903,180.7z M907.8,238.2c0.1-1.6,0.2-3.8,0.3-6
					c0-0.8,0-1.4-1-1.7s-1.5,0.1-2,0.9c-0.5,0.8-0.8,1.5-0.2,2.5c1.9,3.2,1.6,6.6,0.6,10c-0.9,2.7-2.2,5.2-4.1,7.3
					c-1.7,1.8-1,2.3,1,2.4c1.9,0.1,3.8,0.4,5.7,0.7c1.7,0.3,1.8-0.4,1.4-1.8C908.3,247.9,908,243.3,907.8,238.2z M849.4,174.4
					c6.3-0.5,12.3-0.1,17.9,2.8c0.4,0.2,0.8,0.4,1.2-0.1c0.6-0.8-0.1-1.3-0.6-1.9c-3.8-3.9-8.3-6.5-13.7-7.3
					c-0.8-0.1-1.7-0.3-2.2,0.6C851.1,170.4,849.9,172.1,849.4,174.4z M880.4,144.7c4.1,0.7,8.1,1,12,2.3c0.8,0.3,1.4-0.1,2-0.5
					c2.7-1.7,5.5-3.1,8.5-4.3c0.7-0.3,1.6-0.4,1.6-1.5C896.1,140,888.1,141.2,880.4,144.7z M867.1,192.2c-0.1-2.8-0.4-5,0-7.2
					c0.1-1-0.5-1.5-1.2-1.9c-5.2-2.9-10.6-3.8-16.5-2.3C856,183.1,861.7,187,867.1,192.2z M920.9,138.5c3.5,0.8,7.1,1,10.7,1.9
					c5.6,1.5,10.7,4,15.4,7.2c0.7,0.5,1.4,1.6,2.3,0.5c0.9-1.1-0.3-1.6-0.9-2.2c-1.3-1.3-2.6-2.6-4.1-3.6
					C937.2,137.3,929.4,135.9,920.9,138.5z M929.8,209.3c6.8-1.8,12.9-5,18.4-9.3c0.7-0.5,1.1-1.3,0.8-2.1c-0.5-1-1.4-0.5-2.1-0.3
					C939.8,199.3,934.2,203.4,929.8,209.3z M810.1,185.8c2.2-0.9,3.8-1.5,4.7-3.2c1.7-3.2,4-6,7-8.3c1.4-1.1,2-2.7,1.1-4
					c-1-1.4-2.5-0.2-3.6,0.6C814.3,174.5,812,179.7,810.1,185.8z M848.4,221.1c1.7,0.9,3.1,1.7,4.6,2.3c2.3,0.9,5.4,3.4,6.8,2
					c1.6-1.7,0.1-5.1-0.6-7.7c-0.1-0.3-0.2-0.7-0.3-1c-0.3-0.8-0.7-0.9-1.5-0.5C854.5,217.7,851.6,219.3,848.4,221.1z M843.5,203.1
					c6.1-3,11.4-1.5,15.9,3.3c0.9,0.9,1.4,0.4,2-0.1c1-0.8,0.2-1.3-0.3-1.7c-3.6-3.1-7.7-5.4-12.4-6.7c-6.2-1.6-5.5-2.5-5.6,4.5
					C843.3,202.5,843.4,202.7,843.5,203.1z M794.6,200.6c1.6-2,2.5-3.7,3.8-4.8c3.7-3.3,6-7.2,6.5-12.2c0.2-2.3,1.5-4.4,2.3-6.6
					C801.4,183.7,797.3,191.4,794.6,200.6z M913.8,165.2c-2.7-1.5-5.4-1.6-7.9-1.7c-1.2-0.1-1.1,1-1.2,1.7c-0.2,1.6-0.4,3.2-1.5,4.3
					c-1.2,1.2-1.1,2,0.1,3c0.8,0.7,1.3,1.7,2.2,3C907.7,171.2,910.1,168.1,913.8,165.2z M843.9,211.8c0.1,0.5,0.3,1.1,0.4,1.7
					c0.1,2.4,1.2,2.6,3.1,1.5c1.6-0.9,3.2-1.6,4.8-2.6c1-0.6,2.9-0.9,2.7-2.2c-0.2-1.4-1.9-2-3.3-2.6c-0.5-0.2-1-0.4-1.6-0.4
					C847.5,206.9,843.9,209.5,843.9,211.8z M836.5,210.8c1.3-1.3,1.3-2.5,1.2-3.8c-0.3-2.8-0.4-5.6-0.1-8.4c0.1-1.1,0.5-2.5-1.5-2.4
					c-1.6,0.1-3.7-0.6-3.6,2.3C832.5,203,833.7,207,836.5,210.8z M818.6,251.5c3.9,3.1,8.3,5.2,12.7,7.3c2.2,1,4.3,1.2,6.6,0.4
					c0.8-0.3,2.2-0.3,2.1-1.2c-0.1-1.1-1.2-2-2.6-2C830.8,255.8,824.6,254.1,818.6,251.5z M829.1,170.8c1.9-0.6,2.8-1.6,3-3.5
					c0.1-1.6,0.5-3.2,1-4.7c0.4-1.2,0.2-1.7-1.1-1.7c-3.5,0.1-6.7,1-10.1,2.9C826.4,164.4,828.6,166.8,829.1,170.8z M891.2,238.2
					c-2.4,0.8-4.6,1.5-6.6,2.3c-1.5,0.6-4.3,0.5-4.2,1.6c0.2,1.9,2.5,3.1,4.1,4.4c0.5,0.4,1,0.3,1.4-0.1
					C888.3,244.2,890.8,242.1,891.2,238.2z M952.2,238.2c1.6,0,2.9-0.3,4.1-0.9c0.7-0.3,1.1-0.7,0.4-1.4c-1.8-1.8-3-4-4.5-6.1
					c-1.1-1.5-2.4,0.1-3.6,0.3c-0.4,0.1-1.3,0.4-0.8,1c1.4,2,2.1,4.2,2.7,6.5C950.7,238.4,951.7,238.1,952.2,238.2z M970.6,230.2
					c0.7-1.9,1.1-3.1,1.6-4.2c0.6-1.2,1.5-2.3,2.1-3.5c0.7-1.3-1.5-6.1-3-6.5c-0.6-0.2-0.8,0.2-1.1,0.5c-1.3,1.4-2.7,2.6-1.2,4.9
					c0.6,0.9,0.7,2.2,0.9,3.4C970.2,226.3,969.6,227.9,970.6,230.2z M894.8,201.1c1.1,0,2.2,0.1,3.3,0c0.8-0.1,2.2,0.5,2.4-0.6
					c0.3-1.5-0.8-2.7-1.5-4c-0.5-0.9-1.2-0.8-2.1-0.5c-2.4,0.9-4.8,1.7-7.2,2.5c-0.5,0.2-1.5,0.2-1.4,1c0.1,0.8,0.7,1.5,1.6,1.5
					C891.6,201.1,893.2,201.1,894.8,201.1z M926.6,168.2c2,2.8,3.9,5.5,5.4,8.6c0.3,0.7,0.5,1.8,1.5,1.6c1.4-0.4,2.5-1.5,3.4-2.6
					c0.7-0.8-0.3-1.5-0.8-2.1C933.6,170.9,930.3,169.3,926.6,168.2z M884.8,184.8c-0.1,3.2-0.1,3.2,3,2.5c3.6-0.9,7-0.8,10.3,0.9
					c1.1,0.5,2.1,0.7,3.1,0.2c0.7-0.4,2.2-0.1,2.1-1.3c-0.1-1.3-1.5-0.7-2.3-0.7c-4.7,0.1-9.2-0.5-13.3-3c-0.7-0.5-1.4-1.6-2.3-1.2
					C884.4,182.7,885,184,884.8,184.8z M949.2,161c-0.1,5.8,1.7,7.4,6,6.2c1.3-0.4,1.5-0.9,0.8-1.8c-1.5-2-3-4.1-4.6-6.1
					c-0.4-0.5-0.7-1.3-1.4-1c-0.4,0.2-0.5,1.1-0.7,1.6C949.3,160.4,949.3,160.9,949.2,161z M818.2,188.4c1.6,1.3,2.9,2.3,4.2,3.3
					c1.2,0.9,5,0.1,5.9-1.1c0.3-0.4,0.5-0.8,0.2-1.5c-1.4-2.3-3.3-3-6-2.2C821.2,187.3,819.9,187.8,818.2,188.4z M913,207.2
					c0.1-2.1,0.1-2.2-1-2.3c-3.7-0.2-5.5,1.3-5.6,5c-0.1,2.7,2.5,1.7,3.6,1.7C913.8,212,911.9,208.4,913,207.2z M879.1,181.6
					c2.1-7.1,2.2-8.3,0.8-11.2C875.2,174.1,875.1,175.3,879.1,181.6z M797.4,223.1c-0.9-6.3,0.1-11.9,3.6-16.7
					c1.3-1.8,1.5-3.7,1.4-5.9C797,205.7,794.6,216.5,797.4,223.1z M924.6,188.4c-2.5,0-4.4,0.6-6.4,1.1c-0.8,0.2-2.3,0-2,1.1
					c0.3,1.4,0.3,3.2,2.1,3.8c1.1,0.4,2.2,0.4,3-0.9C922.2,191.8,923.3,190.3,924.6,188.4z M888.2,255.5c-1.3-0.8-2.2-1.7-3.3-0.8
					c-4.3,3.4-9.1,5.9-14.1,8.3C877,261.7,882.7,259.3,888.2,255.5z M943.8,157.6c-0.1-1.7,2.5-3.2,0.5-4.7c-2.7-2.1-5.6-3.8-9-4.8
					C938.3,151,941,154.2,943.8,157.6z M916.2,233.2c-3.3,4.8-1.9,11.1,2.7,13.5c-0.6-2.1-1.3-4.2-1.9-6.4
					C916.3,238.1,916.4,235.8,916.2,233.2z M815.2,205.4c0.3,2.9,1.1,5.2,2.8,7c0.5,0.6,1.3,1.3,1.9,0.1c1.3-2.3,0.1-5.4-2.4-6.4
					C816.9,205.9,816.2,205.7,815.2,205.4z M919.2,210.9c3.1-2.9,5.8-6.1,7.5-10.7C920.7,202,921.3,207.3,919.2,210.9z M912.2,198.5
					c-2.3-1.5-4.4-2.8-6-4.9c-0.4-0.5-0.8-0.7-1.4-0.3c-0.4,0.2-0.4,0.5-0.4,0.9c0.4,4.7,2.8,6.2,7.3,4.7
					C911.8,198.9,911.9,198.8,912.2,198.5z M900.3,239.3c-2.4,3.1-6.2,5.5-5.4,10.6C897.9,246.7,900.2,243.6,900.3,239.3z
					 M856.1,153.3c-4.6,1-8.7,2.3-12.4,4.7c-0.4,0.3-1.1,0.6-0.8,1.2c0.4,0.8,1.1,0.4,1.6,0.1c3-1.6,6-2.9,9.3-3.7
					C854.7,155.4,855.4,154.7,856.1,153.3z M865.9,220c1-3,2.2-5.5,1.1-8.3c-0.2-0.6-0.5-1.9-1.6-1.2c-0.8,0.5-2.2,0.9-1.8,2.4
					C864.3,215.1,865.1,217.3,865.9,220z M943.8,192.3c1.9-0.3,3.4-0.6,5-0.9c1.7-0.4,1.2-2,1.5-3.1c0.2-0.8-0.4-1.1-1.1-1.2
					c-1.1-0.3-1.8,0.1-2.5,1.1C946,189.5,944.9,190.7,943.8,192.3z M906.9,217.7c0.1-0.6-0.4-0.7-0.9-0.7c-0.8-0.1-1.8-0.6-2.4,0.5
					c-0.7,1.2-1.4,2.3-2,3.5c-0.2,0.4-0.8,0.9-0.2,1.4c0.5,0.4,1.1,0.7,1.7,0.5C903.6,222.7,906.9,218.3,906.9,217.7z M959.1,242.8
					c-2,0.4-4,1.3-6.1,1.1c-2.9-0.3-3.6,1.1-3.5,3.8C953,246.3,956.2,244.9,959.1,242.8z M1009.9,230.1c-2,2.6-1.3,6.2,1.8,9.2
					C1012.3,235.8,1011.3,233,1009.9,230.1z M849.4,242.4c0.1,0.2,0.1,0.4,0.2,0.6c1.6,0,3.2,0,4.8,0c1.4,0,1.6-1.2,2.2-2.1
					c0.3-0.6,0.2-1-0.3-1.4c-0.9-0.6-1.7,0-2.5,0.4C852.3,240.8,850.9,241.6,849.4,242.4z M948.8,217.7c-2.5,2.1-4.3,4.2-5.4,7.3
					C949.2,222.2,949.4,221.9,948.8,217.7z M929.2,259.2c-3,0.3-5.9,0.6-9.1,0.9C922.9,262.8,925.5,262.6,929.2,259.2z M942.6,210.7
					c2.4-0.1,4.3-0.1,6.2-0.4c1.8-0.3,1.4-1.8,1.4-3c0-0.9-0.6-1.1-1.3-0.6C946.9,207.9,945,209.1,942.6,210.7z M958.4,226.1
					c-0.7,0.1-1.3,0.4-0.9,1.3c0.9,1.8,2.1,3.4,3.6,4.8c0.3,0.3,0.7,0.7,1.2,0.2c0.3-0.3,0.6-0.7,0.7-1.1
					C963.1,230.6,959.1,226.1,958.4,226.1z M833.9,249.9c-0.9-3.3-3.1-3.7-8.4-2.1C828.2,249,830.9,249.6,833.9,249.9z M839.2,246.4
					c1.7,4.2,3,4.5,7.9,2.1C844.5,247.8,842,247.2,839.2,246.4z M950.1,260.9c-2-1.4-3.6-2.5-5.3-3.5c-1.3-0.8-1.8,0.7-2.2,1.4
					c-0.6,1,0.5,1,1.1,1.2C945.7,260.5,947.6,260.9,950.1,260.9z M890.2,158.4c1.5,0.3,2.7-0.3,4-0.5c0.8-0.1,1.3-0.5,1.4-1.4
					c0.1-0.9-0.6-1.3-1.1-1.7c-0.8-0.7-1.3-0.1-1.8,0.4C891.8,156.1,890.8,156.9,890.2,158.4z M941.2,216.8
					c-1.9,0.6-3.7,0.6-5.2,1.7C938.9,221,938.9,221,941.2,216.8z M896.6,206.9c-0.1,0.2-0.1,0.4-0.2,0.6c0.9,0.5,1.9,1,2.8,1.4
					c0.5,0.2,1,0.6,1.4-0.1c0.2-0.5,0.4-1,0.4-1.5c0-0.7-0.7-0.7-1.2-0.6C898.7,206.7,897.7,206.8,896.6,206.9z M851.5,258
					c2.7-1.8,4.8-4.2,6.3-7.1C855.5,253,853.6,255.6,851.5,258z M985.6,236.7c0.2,0,0.5,0,0.7,0.1c0.7-2.2,1.3-4.5,0.2-7.3
					C986.1,232.2,985.8,234.5,985.6,236.7z M980.6,230.2c-1.2,1-1.4,2.3-2.1,3.3c-0.3,0.5-0.4,1,0.3,1.3c0.8,0.3,1.2,0,1.3-0.8
					C980.3,232.8,980.4,231.6,980.6,230.2z M841.1,170.5c-1.2,0.7-2.7,0.7-2.9,2c-0.1,0.6,1.1,1.3,1.6,1.1
					C841.3,173.2,840.9,171.9,841.1,170.5z"/>
				<path class="st1" d="M1040.9,388c0,11.5-5,20.6-13.6,27.9c-1.4,1.2-2.2,2.3-2.5,4.2c-1.4,9-4.1,17.5-9.8,24.8
					c-3.7,4.8-8.4,8-14.6,8.5c-1.4,0.1-2.3,0.9-3.2,1.8c-8.9,8.4-19.5,12.8-31.8,12.6c-8.3-0.1-15.7-3-21.7-8.7
					c-1.5-1.4-2.5-1.4-4.2-0.5c-6.2,3.2-12.7,5.4-19.6,6.2c-4.2,0.5-8.5,0.5-12.4-0.9c-7.9-2.9-16.3-4.6-23-10.2
					c-2.2-1.9-4.1-5-6.5-5.5c-2.4-0.5-5.3,1.9-8.1,2.6c-11,2.8-21,0.3-30.3-6c-1.1-0.7-1.9-1.7-3.3,0c-1.2,1.5-2.9,0.4-4.1-0.5
					c-4.8-3.4-7.9-8-9.7-13.5c-0.8-2.3-1.9-4-4.2-4.9c-0.8-0.3-1.7-0.9-2.2-1.6c-2.2-3.5-5.7-4-9.3-4.5c-3.5-0.5-6.9-1.5-10.2-2.8
					c-1.8-0.7-3.4-1.8-2.9-4s2.4-2.2,4.2-2c1,0.1,1.9,0,2.8-0.7c3-2.3,6.2-4.1,9.5-5.8c3.1-1.6,4.6-4.1,4.8-7.6
					c1.2-14.6,8.4-25.2,21.5-31.8c1.5-0.7,2.7-1.7,3.9-2.9c8.6-8.9,18.6-15,31.1-16.6c0.9-0.1,1.7-0.3,2.3-1.1
					c10.1-12.2,23.7-18.7,38.5-22.9c5.6-1.6,11.1-4.1,17.1-4.1c19.1-0.1,38,1,55,11.2c3.8,2.3,7.4,4.9,9.9,8.8
					c0.5,0.8,1.1,1.1,2,1.2c18.1,2.2,30,13.1,38.7,28.2C1039.4,374.4,1040.8,380.7,1040.9,388z M931.6,429.8c-1.5,3.5-2.9,7-5.5,9.7
					c-4.3,4.4-9.4,3.6-12.1-1.9c-0.7-1.4-1.1-1.4-2.3-0.6c-4.4,3.3-9.3,4.4-14.7,3.3c-1.7-0.3-3.3-1-5.4-1.7c1.8,6.1,4.7,11,9,15.1
					c1.7,1.6,3.7,2.4,6.1,2.5c10.1,0.4,18.8-3.3,26.7-9.3c0.7-0.5,1.4-1,1-2C932.7,440.2,932,435,931.6,429.8z M992,452.3
					c-4-1.8-7.1-4.1-9.7-7.1c-1.8-2.1-6.8-2.9-9-1.4c-4,2.6-8.4,3.5-13,2.2c-1.4-0.4-2.3-0.2-3.4,0.8c-2.6,2.2-5.3,4.5-8.2,6.4
					c-1.9,1.3-1.4,1.9,0,3c4.1,3.4,8.9,5.4,14.1,5.9C973.9,463.1,983.4,459.5,992,452.3z M945.4,378.8c0.8-2.8-1.7-5-3.1-7.8
					c-2-3.9-5.2-5.3-8.9-5.6c-7.7-0.5-8.2,0.2-10.1,7.1c-2.2,7.9,2.6,14.9,10.4,15.9C940.1,389.4,945.3,385.4,945.4,378.8z
					 M866.9,419.6c-2.1,1.7-3.8,3-6,3.6c-3.9,0.9-7.3-0.2-10.8-1.8c-0.8-0.4-1.5-1.2-2.5-0.4c-3.8,3-8.2,5.2-13.3,6.9
					c11,7.7,22.7,9.4,35.1,8.5c1-0.1,1.1-0.7,0.8-1.6C868.4,430.1,867.4,425.2,866.9,419.6z M1025.7,409.7
					c7.3-7.5,10.8-15.8,9.2-25.6c-3-17.6-13.3-29.8-29.3-37.3c-1.1-0.5-2.2-1.3-3.6-1c1.5,3.3,3.2,5.9,7.5,6.3
					c5,0.5,9.1,3.5,12.3,7.5c8.3,10.7,8.6,22.3,3.7,34.4c-0.4,1.1-1.1,2.1-1,3.3C1024.8,401.2,1025.2,405.1,1025.7,409.7z
					 M953.8,333.3c-4.4-1.4-8.4-1.5-12.4-1.2c-7.4,0.6-13.6,3.6-18.2,9.6c-1.2,1.5-1.4,2.3,0.9,2.8c2.9,0.6,5.7,1.8,8.4,3
					c1.6,0.6,3,2.2,4.9,0.6c1.4-1.2,3.8-1.4,4.7-3.1C944.8,340.1,948.6,336.4,953.8,333.3z M880.7,345.5c4.3,0.7,8,1.3,11.4,2.7
					c1,0.4,1.7-0.1,2.5-0.6c2.8-1.7,5.8-2.9,9-3.7c1.7-0.4,3.9-0.2,4.9-1.2c1.1-1.1-0.4-3.2-0.5-4.9c-0.2-3.1,0.4-6,1.4-9.4
					C898.5,332.3,889,337.2,880.7,345.5z M864.1,397.3c-1,2.3,1.1,3.8,2.7,5.6c1,1.1,1.7,1.5,2.3-0.4c1.6-5.2,4-10.1,7.8-14.1
					c0.9-1,0.5-1.5-0.3-2.2c-2.3-2.2-4.9-4-7.7-5.5c-4.3-2.4-5.2-2.1-7.4,2.4c-0.3,0.7-0.5,1.5-0.8,2.3c-0.7,1.6-0.4,2.8,1,4.1
					C863.9,391.3,864.4,393.9,864.1,397.3z M971.4,353.2c0.1-1.8-0.4-3.6-0.7-5.4c-0.3-1.9-1.3-2.7-3.3-2.6
					c-6.3,0.2-12.4,1.3-18.3,3.6c-2.8,1.1-3.9,3.3-3,6.2c0.4,1.3,0.9,1.8,2.3,1.1c6.4-2.7,12.6-1.8,18.7,0.9c3.8,1.7,4,1.5,4.3-2.8
					C971.4,353.9,971.4,353.5,971.4,353.2z M1008.5,403.4c-0.2-7.1-2.8-15.6-6.2-20.5c-0.9-1.3-1.5-1.7-3-0.7
					c-2.2,1.5-3.4,5.2-2.3,7.9c1.9,5,3.1,10.2,3.4,15.6c0.3,4.7,0.3,4.7,4.3,2.3C1006.6,407,1009.3,406.4,1008.5,403.4z
					 M939.3,441.7c2.9-2.6,4.9-5.3,7-7.9c0.5-0.6,0.7-1.3,0.4-2c-1.7-5.7-1.4-11.3,0.5-16.9c0.2-0.7,0.5-1.2-0.5-1.8
					c-4.4-2.3-5.9-1.8-7.2,3C937.1,424.4,936.8,432.8,939.3,441.7z M915.8,342.8c7.3-13.4,19.2-17.6,33.6-16.5
					c-0.6-0.5-1.1-0.7-1.6-0.9c-8.5-3-17.1-1.9-25.6-0.2C914.5,326.7,911.2,335.8,915.8,342.8z M868.7,352.4c-0.9-0.5-1.7,0-2.6,0.2
					c-6,1.6-11.2,4.6-16,8.4c-1.5,1.2-3.2,2.3-2.4,4.8c0.4,1.4-0.7,2.6-1.9,3.3c-1.5,0.9-2.9,1.9-4.4,2.7
					c-5.7,3.4-7.5,9.4-10.4,14.9c2.4,0.6,2.8-0.8,3.4-2.2c2.1-5.7,5.9-9.9,11.5-12.4c1.2-0.5,2.1-1.3,2.9-2.3
					c3.6-5.1,8.3-9,14.2-10.9C866.7,357.9,868.2,355.8,868.7,352.4z M1004.5,446.3c9-5.6,11.8-14.6,14.2-24.5
					c-2.9,1.1-5.6,1.6-7.5,3c-2.3,1.6-4.8,4.1-4.7,6.9C1006.7,436.7,1006.6,441.5,1004.5,446.3z M877.7,435.2c1.5-0.4,3-0.9,4.5-1.2
					c2.4-0.4,2.9-1.4,1.5-3.5c-2.1-3.1-3.5-6.5-3.4-10.2c0.1-3.5-2.1-4.4-4.6-5.2c-1.9-0.6-3,0-3,2.1c0,5.7,1.2,11.2,3.4,16.4
					C876.3,434.5,876.6,435.3,877.7,435.2z M906.5,381.9c-0.9,2-1.4,4.1-3,4.9c-4.7,2.4-3.2,5.6-1.6,8.9c0.4,0.8,0.7,1.5,1.7,1.5
					c3,0.2,5.9,1,8.6,2.2c1.2,0.5,1.6,0.1,1.6-1.1C913.6,392,911.3,386.6,906.5,381.9z M1021.9,385.7c1.6-6.4,1.2-12.6-1.8-18.5
					c-2.3-4.3-5.5-7.7-10.2-9.3c-0.6-0.2-1.3-0.6-1.8-0.2c-0.7,0.6-0.1,1.5,0.1,2c0.9,1.6,2.1,3.2,3.1,4.7
					C1015.8,371.1,1019.1,378.2,1021.9,385.7z M1001,435.7c0.4-1.6-0.5-2.1-2.6-2.8c-3.7-1.2-5.4,0.1-6.8,3.1
					c-0.4,0.8-1.2,1.3-1.7,2.1c-0.8,1.4-3.6,1.7-2.8,3.7c0.6,1.4,2.3,2.5,3.7,3.4c1.2,0.8,2.7,1.3,4.1,2c1,0.5,1.7,0.3,2.3-0.7
					C999.4,443.3,1001,440,1001,435.7z M1014.1,399.9c3.4-2.3,4.3-4.2,3.3-7.7c-0.7-2.7-1.5-5.4-2.4-8.1c-1.8-4.8-3.8-9.5-6.8-13.8
					c-2.5,3.8-4,7.3-0.2,11.1c1.4,1.4,2,3.6,2.8,5.5C1012.6,391.1,1013.4,395.5,1014.1,399.9z M982.7,397.9
					c0.1-3.9-4.9-12.5-8.1-14.4c-0.8-0.4-1-0.2-1.5,0.4c-2.1,3.1-2,6.3,0.3,9.2c0.8,1,1.6,2,2.1,3.1c1,2.2,3.3,2.5,5.1,3.2
					C982,400,982.6,398.8,982.7,397.9z M926.2,424.4c0.1-2.4-0.7-4.6-1.7-6.8c-0.7-1.6-1.6-1.6-2.5-0.2c-0.5,0.8-1,1.6-1.1,2.5
					c-0.5,3.4-1.1,6.8-2.4,10c-0.6,1.5-0.1,3.2,0.4,4.8c0.7,2.2,1.8,2.4,3.2,0.7C924.8,432.2,926.1,428.5,926.2,424.4z M841.2,438.6
					c2.6,2.5,5.7,4.2,9,5.5c7.5,2.9,15.1,3,22.5-0.3c0.5-0.2,1.4-0.3,1.3-1.2c-0.2-1-1.1-0.8-1.8-0.7
					C861.7,443,851.3,442.2,841.2,438.6z M896.3,434.3c4.1,1.2,7.2,0.9,10.3-0.6c5.3-2.6,6.8-7.4,7.7-12.6c0.1-0.5,0.7-1.3-0.2-1.6
					c-0.7-0.3-1.3,0.2-1.6,0.7C908.2,425.8,903,430.4,896.3,434.3z M961.2,392.4c2.8-1.8,5.1-3.7,5.4-7.3c0.1-1.4,0.9-2.8,1.6-4
					c1-1.6,0.5-2.4-0.9-3.2c-0.8-0.4-1.6-0.9-2.3-1.4c-1.4-1.1-2.8-0.6-3.6,0.5c-1.3,1.8-2.5,4-1.8,6.3
					C960.5,386.3,961.1,389.2,961.2,392.4z M1002.7,365.5c0.6-3.7-2.2-5.5-4.4-7.2c-1.8-1.4-3.8,0.6-5.7,1.3
					c-0.8,0.3-1.2,0.8-0.4,1.6c2.5,2.6,4.1,5.6,5.2,9.1c0.4,1.2,1.7,2,3,2.1c1.1,0,1.2-1.4,1.5-2.3
					C1002.4,368.6,1002.7,367,1002.7,365.5z M910.7,377.9c2.9-5.6,1.8-11.3,1.3-16.9c-0.1-0.6,0.1-1.4-0.8-1.5
					c-1.3-0.1-2.6-0.3-3.8,0.3c-0.9,0.5-0.1,1.3,0.1,1.9c1.2,3.7,1,7.2-1.3,10.4c-0.6,0.9-0.8,1.6,0.1,2.4
					C907.9,375.6,909.5,376.8,910.7,377.9z M886.2,402.6c3.1-2.3,5.8-4,8.9-4.7c0.9-0.2,1.1-0.7,0.9-1.6c-0.6-3.3-4.8-7.4-8.2-7.9
					c-0.9-0.1-2.3-0.2-1.7,1.5C887.8,393.9,888,398,886.2,402.6z M992.7,395.7c-1.4,1.8-2.8,3.1-3.7,4.7c-0.9,1.5-1.5,3.4-0.5,5.1
					c1.2,1.9,2.7,3.6,4.1,5.4c0.4,0.5,0.8,0.7,1.4,0.6c0.7-0.1,0.8-0.7,0.8-1.2C995,405.4,994.3,400.7,992.7,395.7z M829.1,409.5
					c2.1-0.4,4.3-0.8,6.4-1.2c1.3-0.2,1-0.9,0.7-1.7c-1-2.1-1.9-4.3-2.3-6.7c-0.3-1.7-1-1.5-2.2-0.6c-2.8,2.3-3.6,5.5-4.1,8.9
					C827.5,409.5,828.2,409.6,829.1,409.5z M989.6,344.9c-0.7-1.3,0.3-2.9-1.3-3.9c-4.9-2.9-10-4.9-15.8-5.3c2.1,1.5,3,4.3,5.5,5.1
					C981.9,341.9,985.7,343.2,989.6,344.9z M887.7,352.8c-3.4-1.2-6.8-1.8-10.4-1.6c-2.6,0.1-3,2.7-3.3,4.4c-0.3,1.9,1.9,0.7,2.9,1
					c0.8,0.2,1.6,0.3,2.4,0.2C882.6,356.6,886.1,356.9,887.7,352.8z M1013.2,417.4c6.7-1.5,8.6-6,5.8-13.2
					C1013.2,406.9,1014,412.4,1013.2,417.4z M849.5,386.3c4.3,0.1,4.8-0.2,6.2-4.2c0.4-1.1,1-2.1,1.5-3.2c0.3-0.7,1.4-1.4,0.9-2
					c-0.7-0.8-2-0.8-3.1-0.5c-2.4,0.6-6.5,6.1-6.6,8.7C848.3,385.9,848.4,386.5,849.5,386.3z M881.9,396c-0.1-0.6-0.2-1.3-0.4-2
					c-0.2-1.3-0.7-1.6-1.6-0.5c-3,3.9-4.8,8.2-6,12.9c-0.1,0.5-0.3,1.1,0.3,1.4c0.5,0.2,0.9,0,1.2-0.3
					C879,404.6,881.5,401,881.9,396z M838.9,396.4c0.5,3.3,1.5,6.6,3.4,9.4c1.2,1.8,2.9,0.4,4.1-0.1c1.6-0.6,0-1.6-0.3-2.3
					c-1.2-2.4-2.3-4.9-2.9-7.6c-0.2-0.7,0.1-2.2-1.4-1.7C840.7,394.5,839,394.5,838.9,396.4z M899,351.9c1.7,0.8,2.4,2.2,3.9,2.2
					c2.8-0.1,5.6-0.1,8.4-0.4c2.2-0.2,1.5-2.1,1.8-3.4s-0.7-1.8-1.9-1.7C907.2,348.9,903.2,349.6,899,351.9z M888.5,380
					c1,1.9,1,1.9,4.8,3.8c3.7,1.9,7.9-0.7,7.8-4.8c0-0.9-0.2-1.9-1.3-1.4C896.2,379.2,892.4,379.6,888.5,380z M958.4,425.1
					c-1.2,2.1-2,4.1-3.3,5.7c-1.6,2.1-1.2,3.8,0.5,5.4c0.7,0.6,1.2,2,2.2,1.6c1.2-0.5,2.9-1.7,2.6-2.8
					C959.8,431.9,960.8,428.3,958.4,425.1z M992.1,353.2c-3.5-2.2-6.6-4-10.4-5.2c0.3,1.2,0.5,2.1,0.6,3c0.1,1,0.2,2,0.2,3
					c0,2.5,1.8,3.5,4.1,2.4C988.2,355.5,989.9,354.4,992.1,353.2z M950,438.8c-2.4,2.6-4.8,5.2-7.2,7.7c-1,1-0.6,1.7,0,2.6
					c0.8,1.1,1.4,0.3,2-0.2c1.8-1.2,3.6-2.5,5.3-3.9c4-3.4,3.9-2,0.4-6.1C950.3,438.9,950.1,438.8,950,438.8z M960.4,365.3
					c1,0.4,1.9-0.7,2.9-1.6c1.4-1.3,0.8-1.8-0.6-2.3c-3-1-6-1.4-9-1c-0.8,0.1-1.8,0.1-2,0.9s0.6,1.5,1.3,1.9
					C955,364.8,957.4,365,960.4,365.3z M987.5,392.6c3.3-4.4,2.6-6.8-2-8.8c-2.5-1-4.6-2.5-6.2-4.7c-0.3-0.5-0.5-1.5-1.8-0.8
					C981.7,382.4,985.5,386.7,987.5,392.6z M1007.9,413.2c-2.5,1-4.8,1.9-7.2,2.8c-0.8,0.3-1.2,1-0.9,1.7c0.5,1.2,1.1,2.8,2.6,2.8
					c1.5-0.1,3.5,0.4,4.2-1.6C1007.3,417.1,1007.9,415.3,1007.9,413.2z M888.1,413.3c0.1,0,0.5,0,0.6-0.2c2.2-3.3,5.1-5.8,8.7-7.6
					c0.5-0.3,0.4-1,0.3-1.5c-0.2-0.7-0.8-0.6-1.4-0.4c-4.3,1.4-7.5,4-9.3,8.2C886.5,412.7,886.8,413.2,888.1,413.3z M849.2,395
					c0.5,3.5,2.1,6,3.9,8.3c0.6,0.8,1.4,2,2.3,0.7c0.9-1.1,2.5-2.3,1.1-3.9C854.5,398,852.1,396.4,849.2,395z M932.1,422.5
					c0.7-4.4,2.1-8.6,3.7-13.5c-2.3,1.5-4,2.7-5.8,3.7c-1.1,0.7-0.8,1.4-0.4,2.2C930.8,417.3,931.6,419.8,932.1,422.5z M893.4,361
					c3.1,2,5.9,4.2,8.7,6.7c1.3-2.8,0.2-5.1-1.4-6.7C898.5,359,895.9,360.9,893.4,361z M953.1,341.2c4.4-0.8,8.8-1.5,13.4-1.7
					C963.4,334.9,959.7,335.7,953.1,341.2z M875.3,368c1.2-0.2,2.2-0.5,3.2-0.5c2.9,0.2,2.9-2.2,2.7-3.7c-0.2-1.7-2-0.7-3.1-0.5
					c-1.1,0.1-2.3,0.5-3.4,0.9c-0.8,0.3-2.3,0.1-1.9,1.6C873.3,367.1,873.9,368.4,875.3,368z M973.5,367.9c-0.8,0-4.6,3.4-4.4,3.9
					c0.6,1.3,2.1,1.8,3.3,2.5c0.5,0.3,4.4-2.9,4.2-3.4C976.1,369.5,974.7,368.7,973.5,367.9z M952.6,384.8c-3.3,2.4-3.5,6.2-5,9.2
					c0.6,0.5,1.2,0.2,1.7,0.2c2.4,0.2,3.3-0.7,3.1-3.2C952.2,389.1,952.5,387.1,952.6,384.8z M918.3,384.4
					c1.9,6.4,6.4,10.8,11.5,14.6c0.4,0.3,1,0.7,1.4,0.2c0.6-0.7-0.3-0.9-0.6-1.2C925.7,394.3,921.8,389.5,918.3,384.4z M919.7,398
					c-0.2,1.8-0.4,3.1-0.4,4.5c0,2,1.9,2.7,3.2,3.3c1.2,0.5,2.2-1.2,2.7-2.1c0.7-1.3-1.1-1.5-1.7-2.2
					C922.5,400.4,921.3,399.4,919.7,398z M904.7,414.9c1.8-0.4,3.8,0.3,4.9-1.6c0.4-0.7-3.7-2.9-5.4-2.9c-2.4,0.1-1.5,2.2-1.7,3.3
					C902.2,415.7,904,414.4,904.7,414.9z M886.3,441.5c-1.1,0.9-1.7,1.5-2.5,2c-0.8,0.6-1,1.2-0.2,1.9c2,1.9,3.9,3.8,6.9,5.4
					C888.8,447.5,887.4,444.7,886.3,441.5z M882.9,383.6c-0.9-2.5-1.2-5.2-4.5-5.8c-2.5-0.4-4.2-2.7-6.9-2.9
					C875.6,377.6,879.3,380.5,882.9,383.6z M841.5,418.2c-4.2,0.8-7.8,1.5-11.3,2.2c-0.7,0.2-2.2-0.3-2,1.1c0.2,1,1.2,1.4,2.4,1.2
					C834.4,422.1,837.9,420.8,841.5,418.2z M951.7,424.9c1.1-3.4,4.6-6.2,2.3-11C952,417.7,951.3,421.2,951.7,424.9z M861.8,416.2
					c-1.9-0.9-3.5-1.6-5.2-2.3c-1.7-0.7-2,1.1-2.9,1.8c-0.6,0.5-0.1,0.9,0.4,1.2C856.1,418.2,859.5,418,861.8,416.2z M990.4,368.6
					c-1.1-2.3-2.1-4.1-4-4.3c-1.3-0.1-1.9,1.7-2.6,2.8c-0.6,1.1-0.3,1.6,1,1.5C986.5,368.5,988.2,368.6,990.4,368.6z M975.7,427.1
					c-1.5,1.8-2.7,3.2-3.8,4.6c-0.4,0.5-0.8,1.1,0.1,1.5c1,0.4,2.1,1,3.1,0.5c1.1-0.6,1.3-1.6,1.1-2.8
					C975.9,429.8,975.8,428.7,975.7,427.1z M948.1,404.7c-0.7,0-1.2,0-1.6,0c-1-0.1-2,0-2.2,1.1c-0.2,1.2,1.1,1,1.8,1.2
					c1.1,0.4,2.3,0.6,3.4,0.8c0.8,0.2,1.8,0.3,1.8-0.9c0-1,0-2.3-1.6-2.3C949,404.6,948.4,404.6,948.1,404.7z M861,371
					c2.5,1.8,4.3,0.1,6.2-0.7c1.3-0.6,0.8-1.3,0.5-2.1c-0.4-1.1-1.1-1-1.9-0.5C864.2,368.7,862.4,369.5,861,371z M972.1,421.7
					c-0.5-0.4-1.1-1.1-1.9-0.5c-1.6,1.3-2.8,2.8-3.4,4.8c-0.2,0.5-0.1,1.5,1,1.4C968.2,427.4,972.1,422.3,972.1,421.7z M972.6,329.4
					c-3.1-1.5-6.3-2.5-9.8-3.2C965.1,330.4,969,329.5,972.6,329.4z M904.6,403.1c-0.3,0-0.9-0.4-1.2,0.4c-0.3,0.9,0.4,1.1,1,1.2
					c2.3,0.4,4.4,1,6.4,2.1c0.5,0.3,1.1,1,1.6,0.2c0.5-0.9-0.3-1.2-1-1.6C909.4,404.4,907.2,403.6,904.6,403.1z M904.3,420.8
					c-4.4-0.3-4.4-0.3-6.1,5.2C900.5,424.7,902.3,423,904.3,420.8z M988,374.3c1,1.4,1.8,2.6,2.7,3.9c0.3,0.4,0.6,0.7,1.1,0.6
					c0.7-0.1,0.7-0.7,0.7-1.3C992.9,375,992.1,374.4,988,374.3z M890.4,427.5c1.3-2.3,2.2-3.8,3-5.5c0.3-0.5,1.1-1.3-0.1-1.7
					c-1-0.4-1.7-0.2-2,1C890.9,423,890.2,424.8,890.4,427.5z M922.6,360.3c-1.2-0.2-2.2-0.4-3.1-0.5c-0.7-0.1-1.6-0.2-1.6,0.8
					c0,0.9-0.1,2,0.3,2.6c0.5,0.6,1.2-0.3,1.8-0.7C920.9,362,922,361.8,922.6,360.3z M893.7,368.6c-1.9-1.7-3.7-2.4-5.3-3.2
					c-0.9-0.4-1.3-0.1-1.6,0.8s0,1.3,0.9,1.5C889.5,367.8,891.2,368.1,893.7,368.6z M930.6,455.9c2.3-0.3,4.4-1.4,6.5-2.4
					c0.5-0.3,1.3-0.5,0.7-1.4c-0.5-0.8-1-0.4-1.6,0C934.3,453.3,932.5,454.6,930.6,455.9z M968,406.7c-1.3-0.7-2.1-2.7-3.8-1.9
					c-0.6,0.3-0.7,2.2-0.1,2.7C965.3,408.5,966.6,407.4,968,406.7z M941.3,393.4c-2,0.4-3.7,0.7-5.5,1
					C938.5,396.8,939.3,396.7,941.3,393.4z M922.8,350.1c1.8,1.7,3.6,2.4,5.2,3.3c0.7,0.4,1.5,0.6,1.9-0.2c0.4-0.9-0.6-0.9-1-1.1
					C927,351.3,925.2,350.5,922.8,350.1z M996.4,349.2c-2.1-3.8-2.2-3.9-4.8-3.1C993.2,347.2,994.8,348.2,996.4,349.2z M861.1,405.8
					c-0.4,1.3-1.8,1.9-1.3,2.9c0.5,0.9,1.6,1.3,3,1.1C862.7,408.5,862.1,407.4,861.1,405.8z M984,429.7c1.6-1,2.8-1.9,3.1-3.3
					c0.1-0.7-1.1-0.7-1.5-0.6C983.8,426.5,984.5,428.1,984,429.7z"/>
			</g>
		</g>
		<path class="st4" d="M972.1,421.7"/>
	</g>
</g>
</svg>
