<svg id="圖層_1" data-name="圖層 1" xmlns="http://www.w3.org/2000/svg" viewBox="0 0 585.2 585.2"><defs><style>.cls-1{fill:#b7cbce;}.cls-2{fill:#222;}.cls-3{fill:#e9d08e;}</style></defs><title>公視圖檔</title><path class="cls-1" d="M290.44,292.6,151.14,484.33C45.26,407.4,21.78,259.19,98.72,153.3c46.15-63.53,113.19-97.69,191.72-97.69Z"/><path class="cls-2" d="M287.71,292.41l-47.13,64.86-75,103.29-17.13,23.58,5-1.35c-60.58-44.28-97.21-116-97.06-191.14C56.51,214.05,96.41,139,160.81,95.56c38-25.62,82.95-37.95,128.56-38.08l-1.84-1.57v237c0,2.72,5.83,1.64,5.83-.59v-237a1.67,1.67,0,0,0-1.85-1.57c-40.87.11-81.38,9.3-117.26,29.16s-66.12,49.57-87.8,84.35c-40.5,65-47,147.51-17.36,218.09a239.91,239.91,0,0,0,79.78,100.51c1.49,1.09,4.07-.06,5-1.34L201,419.66l75-103.29,17.13-23.58C294.86,290.47,289,290.64,287.71,292.41Z"/><path class="cls-3" d="M290.44,292.6v-237c130.88,0,237,106.11,237,237s-106.11,237-237,237c-52.35,0-96.94-14.49-139.3-45.26Z"/><path class="cls-2" d="M293.34,291.82v-237l-4.76,2c88.09.25,170.37,50.65,210.34,129.25,40.3,79.26,32,177.3-21.26,248.53a235.09,235.09,0,0,1-101.54,77.85c-44.62,17.55-95,20.64-141.53,9.17a228,228,0,0,1-72.4-32.53c-.87-.58-8.08-4.86-8.06-5.45,0-.4.84-1.07,1-1.42,1.14-2.16,3-4.16,4.45-6.14L201.13,419l90.36-124.37,1.82-2.5c.47-.65-4.7-.45-5.73,1L240.45,358l-75,103.29-17.13,23.58a.39.39,0,0,0,.14.52c28.08,20.27,59.7,35,93.85,41.34a250.29,250.29,0,0,0,93.08-.29c55.23-10.72,106-40.7,141.53-84.36A237.56,237.56,0,0,0,314.64,55.41c-7.43-.69-14.88-1-22.34-1-1.11,0-4.76.39-4.76,2v237C287.54,294.44,293.34,293.58,293.34,291.82Z"/><path class="cls-2" d="M348.18,305.64h-6.52c-.92-4.31-3.56-6.39-8-6.39-3.08,0-5.47,1.47-7.26,4.48a19.51,19.51,0,0,0-2.64,10.63,4.56,4.56,0,0,0,.06.8h.25a11.12,11.12,0,0,1,4.67-4.3,12.71,12.71,0,0,1,6.08-1.35,13.65,13.65,0,0,1,10.33,4.05A15.28,15.28,0,0,1,349,324.19,14.54,14.54,0,0,1,344.61,335a15.33,15.33,0,0,1-10.93,4.3c-5.41,0-9.47-2-12.29-5.9q-4.06-5.62-4.06-15.67c0-7.13,1.41-12.9,4.36-17.33a13.77,13.77,0,0,1,12.05-6.7C342.22,293.71,347.07,297.65,348.18,305.64ZM327,317.5a9.64,9.64,0,0,0-2.4,6.88A9.4,9.4,0,0,0,327,331.2a8.34,8.34,0,0,0,6.39,2.58,8.24,8.24,0,0,0,6.45-2.71,9.87,9.87,0,0,0,2.52-6.88,9.09,9.09,0,0,0-2.4-6.69,9.48,9.48,0,0,0-13,0Z"/><path class="cls-2" d="M388.12,300.23c2.58,4,3.87,9.46,3.87,16.28s-1.29,12.23-3.87,16.28a14.28,14.28,0,0,1-24,0c-2.58-4.05-3.87-9.46-3.87-16.28s1.29-12.29,3.87-16.28a14.28,14.28,0,0,1,24,0Zm-19.6,5.1c-1.11,2.7-1.6,6.45-1.6,11.18s.49,8.42,1.6,11.19c1.47,3.93,4,6,7.61,6s6.15-2,7.62-6a32.38,32.38,0,0,0,1.6-11.19,31.81,31.81,0,0,0-1.6-11.18c-1.47-4-4.05-6-7.62-6S370,301.33,368.52,305.33Z"/><path class="cls-2" d="M423.2,298.2a13.57,13.57,0,0,1,2.46,8.42A13.81,13.81,0,0,1,423.2,315a9.39,9.39,0,0,1-7.8,3.56,9.56,9.56,0,0,1-7.93-3.56,13.55,13.55,0,0,1-2.46-8.42c0-3.5.8-6.33,2.46-8.42,1.84-2.46,4.49-3.62,7.93-3.62A9.09,9.09,0,0,1,423.2,298.2Zm-11.3,3a14,14,0,0,0-.8,5.41,14.23,14.23,0,0,0,.8,5.34,3.65,3.65,0,0,0,3.5,2.4,3.61,3.61,0,0,0,3.38-2.52,14.82,14.82,0,0,0,.8-5.22,13.9,13.9,0,0,0-.86-5.35,3.43,3.43,0,0,0-3.32-2.46A3.65,3.65,0,0,0,411.9,301.21Zm34-7.5-24.64,45.6h-5l24.58-45.6Zm8.85,24.34a13.61,13.61,0,0,1,2.45,8.42,13.85,13.85,0,0,1-2.45,8.41,9.4,9.4,0,0,1-7.81,3.57,9.52,9.52,0,0,1-7.92-3.57,13.52,13.52,0,0,1-2.46-8.41c0-3.51.8-6.33,2.46-8.42,1.84-2.46,4.48-3.63,7.92-3.63A9.13,9.13,0,0,1,454.79,318.05Zm-11.31,3a14.18,14.18,0,0,0-.8,5.41,14.44,14.44,0,0,0,.8,5.34,3.66,3.66,0,0,0,3.5,2.4,3.6,3.6,0,0,0,3.38-2.52,14.82,14.82,0,0,0,.8-5.22,13.9,13.9,0,0,0-.86-5.35,3.42,3.42,0,0,0-3.32-2.46A3.66,3.66,0,0,0,443.48,321.06Z"/><path class="cls-2" d="M133.67,224.08v25h5.72v4.61h-5.72v8.2h-5.5v-8.2H109.75v-5.46l18.63-24.13Zm-19.21,25h13.71V231.38H128Z"/><path class="cls-2" d="M171.94,229c2.22,3.49,3.34,8.15,3.34,14s-1.12,10.54-3.34,14a12.3,12.3,0,0,1-20.64,0c-2.23-3.49-3.34-8.15-3.34-14s1.11-10.58,3.34-14a12.3,12.3,0,0,1,20.64,0Zm-16.88,4.39c-1,2.33-1.38,5.56-1.38,9.63a26.57,26.57,0,0,0,1.38,9.64c1.27,3.39,3.44,5.13,6.56,5.13s5.29-1.74,6.56-5.13a27.94,27.94,0,0,0,1.38-9.64,27.53,27.53,0,0,0-1.38-9.63c-1.27-3.44-3.49-5.13-6.56-5.13S156.33,229.9,155.06,233.34Z"/><path class="cls-2" d="M202.16,227.2a11.66,11.66,0,0,1,2.12,7.25,11.86,11.86,0,0,1-2.12,7.25,8.08,8.08,0,0,1-6.72,3.07,8.24,8.24,0,0,1-6.83-3.07,11.64,11.64,0,0,1-2.12-7.25,11.35,11.35,0,0,1,2.12-7.25,8,8,0,0,1,6.83-3.12A7.83,7.83,0,0,1,202.16,227.2Zm-9.74,2.59a12.36,12.36,0,0,0-.68,4.66,12.6,12.6,0,0,0,.68,4.61,3.16,3.16,0,0,0,3,2.06,3.1,3.1,0,0,0,2.91-2.17,12.57,12.57,0,0,0,.69-4.5,11.82,11.82,0,0,0-.74-4.6,3,3,0,0,0-2.86-2.12A3.16,3.16,0,0,0,192.42,229.79Zm29.33-6.45-21.23,39.27h-4.29l21.18-39.27Zm7.62,21a11.66,11.66,0,0,1,2.12,7.25,11.88,11.88,0,0,1-2.12,7.25,8.09,8.09,0,0,1-6.72,3.07,8.23,8.23,0,0,1-6.83-3.07,11.66,11.66,0,0,1-2.12-7.25,11.35,11.35,0,0,1,2.12-7.25,8,8,0,0,1,6.83-3.13A7.85,7.85,0,0,1,229.37,244.3Zm-9.74,2.59a12.1,12.1,0,0,0-.69,4.66,12.31,12.31,0,0,0,.69,4.6,3.16,3.16,0,0,0,3,2.07,3.11,3.11,0,0,0,2.91-2.17,12.84,12.84,0,0,0,.69-4.5,12.1,12.1,0,0,0-.74-4.61,3,3,0,0,0-2.86-2.11A3.15,3.15,0,0,0,219.63,246.89Z"/><path d="M138.23,288.51h-8.09V310.6H126.8V285.38h11.78v-2.69h-3.93v-3.06h7.17v5.75h11.64v21.26c0,2.44-1.2,3.68-3.55,3.68h-5.34l-.82-3.06,5.13.14c.83,0,1.24-.49,1.24-1.45V288.51h-8c.9,4.41,3.52,8.38,7.86,12l-2.24,3a31,31,0,0,1-7.58-11.09,33.42,33.42,0,0,1-7.75,11.44l-2.21-3C134.65,297.09,137.34,293,138.23,288.51Z"/><path d="M164.84,290.07v-1.56c-.45.52-.9,1-1.35,1.49l-1.75-2.45a45.86,45.86,0,0,0,6.3-8.3h2.17q3.47,3.36,6.51,6.92l-2.1,2.21-.79-1v2.69h-2.89v3.23h4.44v2.9h-4.44v9.4c1.44-.34,2.86-.72,4.27-1.13v3.06a108.37,108.37,0,0,1-11.85,2.69l-.8-3.1c1.8-.24,3.55-.52,5.31-.86V296.2h-4.58v-2.9h4.58v-3.23Zm2,14.26-2.42.62a63.37,63.37,0,0,0-1.72-6.75l2.45-.83A70,70,0,0,1,166.84,304.33Zm6.89-17.09c-1.73-2.07-3.14-3.69-4.31-4.86a46.81,46.81,0,0,1-3.48,4.86Zm2.13,10.65a40.38,40.38,0,0,1-1.75,6.13l-2.28-.83a31.9,31.9,0,0,0,1.62-5.92Zm10.61-18.78v9h5.9v19.43c0,2.1-1.11,3.17-3.24,3.17h-3.07l-.79-3c1,.1,2,.17,2.89.17.73,0,1.11-.48,1.11-1.41V302c-2.48.69-5.1,1.31-7.86,1.82l-.72-2.93a62,62,0,0,0,8.58-1.72V291h-8.76v3c1.73.21,3,.42,3.9.55s2.17.49,3.68.9L187,297.92c-1.35-.38-2.69-.69-4.07-1-.83-.18-1.62-.31-2.45-.42v2.14c-.06,5-1.1,9.13-3.17,12.3l-2.48-2.28a18,18,0,0,0,2.62-9.81V288.14h5.86v-9Zm-4.89,6.72-2.44,1.24a46.57,46.57,0,0,0-3.21-5.72l2.59-1.24A55.38,55.38,0,0,1,181.58,285.83Zm12.1-4.76a35.92,35.92,0,0,1-3.07,6.14l-2.41-1.28a32.54,32.54,0,0,0,2.86-6.1Z"/><path d="M348.46,373.72a30.92,30.92,0,0,0,2.83-9.1h-6.13a27.69,27.69,0,0,1-6.62,9.58l-2.27-2.82q5.79-5.38,7.85-14.47l3.28.55c-.31,1.38-.66,2.72-1.07,4h8.16v2.89c-1.17,10.41-6.2,18.3-15.12,23.6l-2.24-2.79A27.86,27.86,0,0,0,347,376.3a26,26,0,0,0-5.14-3.27l1.73-2.55A28.09,28.09,0,0,1,348.46,373.72Zm11.62-16.78v10.2a108.36,108.36,0,0,1,8.54,6.82l-2,3.07a90.17,90.17,0,0,0-6.51-6.24v17.85h-3.31v-31.7Z"/><path d="M377.27,367.86v-1.55c-.45.52-.89,1-1.34,1.48l-1.76-2.44a45.53,45.53,0,0,0,6.31-8.31h2.17q3.47,3.36,6.51,6.93l-2.1,2.2-.79-1v2.68h-2.9v3.24h4.45V374h-4.45v9.4c1.45-.34,2.86-.72,4.27-1.13v3.06A107.85,107.85,0,0,1,375.79,388l-.79-3.1c1.79-.24,3.55-.52,5.3-.86V374h-4.58v-2.9h4.58v-3.24Zm2,14.27-2.41.62a63.56,63.56,0,0,0-1.72-6.76l2.44-.82A70,70,0,0,1,379.27,382.13ZM386.16,365c-1.72-2.07-3.13-3.69-4.31-4.86a44,44,0,0,1-3.48,4.86Zm2.14,10.64a39.36,39.36,0,0,1-1.76,6.14l-2.27-.83a31.8,31.8,0,0,0,1.62-5.93Zm10.61-18.77v9h5.89v19.44c0,2.1-1.1,3.17-3.24,3.17H398.5l-.8-3a27.81,27.81,0,0,0,2.9.18c.72,0,1.1-.49,1.1-1.42v-4.48c-2.48.69-5.1,1.31-7.85,1.83l-.73-2.93A62,62,0,0,0,401.7,377v-8.13H393v3c1.72.21,3,.41,3.89.55s2.17.49,3.69.9l-1.07,2.48c-1.34-.38-2.69-.69-4.06-1-.83-.17-1.62-.31-2.45-.41v2.14c-.07,5-1.1,9.13-3.17,12.3l-2.48-2.28a18,18,0,0,0,2.62-9.82V365.93h5.85v-9ZM394,363.62l-2.45,1.25a47.13,47.13,0,0,0-3.2-5.72l2.58-1.24A56.24,56.24,0,0,1,394,363.62Zm12.09-4.75A35.12,35.12,0,0,1,403,365l-2.41-1.27a32.2,32.2,0,0,0,2.86-6.1Z"/><path d="M271.89,406.36a23.61,23.61,0,0,0-2.46,5.3,20.33,20.33,0,0,0,0,13.31,24.45,24.45,0,0,0,2.46,5.3h-2.28a21.54,21.54,0,0,1-2.76-5.22,19.72,19.72,0,0,1,0-13.44,20.18,20.18,0,0,1,2.76-5.25Z"/><path d="M278.78,413.07v-2.38h9.3a28.07,28.07,0,0,0-1.46-3.61l2.35-.64a36.85,36.85,0,0,1,1.49,4.22l-.08,0h9.47v2.38h-9.32v5.32h8.09v2.28h-8.09v6.25h10.22v2.38H277.88v-2.38h10.2v-6.25H280v-2.28h8.07v-5.32Z"/><path d="M328.87,407.41v2.17h-7.35v1.87h5.81v6.79h-10.5c-.38.64-.72,1.23-1,1.79h13.36v2.25h-5.35a8.83,8.83,0,0,1-2.48,3.51c2.43.74,4.94,1.62,7.5,2.59l-1.51,2c-2.71-1.15-5.45-2.17-8.19-3.07-2.41,1.23-6.35,2.23-11.83,3l-.93-2.15a47.64,47.64,0,0,0,9.55-1.82c-2-.59-3.94-1.1-5.91-1.56.56-.82,1.13-1.64,1.64-2.46h-5.92V420H313c.36-.61.72-1.2,1-1.79h-6.48v-6.79h5.82v-1.87h-7.35v-2.17Zm-15.44,6.12h-3.49v2.63h3.49Zm7.86,8.75h-6.84l-1,1.49c1.72.36,3.46.77,5.25,1.25A6.76,6.76,0,0,0,321.29,422.28Zm-2.1-12.7h-3.43v1.87h3.43Zm0,3.95h-3.43v2.63h3.43Zm5.81,0h-3.48v2.63H325Z"/><path d="M334.37,419.29l-.79-2.59a28.86,28.86,0,0,0,5.86-10.39l2.31,1.07a32.11,32.11,0,0,1-2.54,5.64v17.15h-2.46V416.6C336,417.52,335.19,418.42,334.37,419.29Zm10.24-7.5v-5.18h2.46v5.18h4v-5.18h2.43v5.18h3.2v2.35h-3.2v5.43h3.92v2.33H340.8v-2.33h3.81v-5.43h-3.09v-2.35Zm3,11.88a29.62,29.62,0,0,1-4.69,6.58l-2.1-1.56a24.14,24.14,0,0,0,4.56-6.1Zm3.45-4.1v-5.43h-4v5.43Zm6.17,9.06-2.2,1.51a55.57,55.57,0,0,0-4.66-6.52l2-1.23A50.34,50.34,0,0,1,357.26,428.63Z"/><path d="M384.94,410.43H366.33v6.25c-.08,5.55-.87,10-2.41,13.36l-1.84-1.64c1.18-2.81,1.79-6.7,1.84-11.72v-8.53h9.71a12.84,12.84,0,0,0-.82-1.28l2.61-.41c.26.51.51,1.08.77,1.69h8.75ZM370,424.38a19.93,19.93,0,0,1-1.89,5.3l-1.92-1.23a15.87,15.87,0,0,0,1.69-4.5Zm-2.76-5.76-.69-2.28a15.33,15.33,0,0,0,3.91-5.68l2,.9a17.77,17.77,0,0,1-1.53,3V423h-2.31v-5.64C368.2,417.78,367.74,418.21,367.28,418.62Zm6.17,11.27a2.08,2.08,0,0,1-2.36-2.33v-3.92h2.31v3.46c0,.38.25.59.76.59h3.9a1.57,1.57,0,0,0,1-.28,3.44,3.44,0,0,0,.53-2l2.1.69c-.2,1.79-.56,2.89-1.07,3.25a3.9,3.9,0,0,1-2.15.49ZM384.79,421v1.84H373.47v-5.6c-.41.51-.84,1-1.28,1.51l-.71-2.31a15.84,15.84,0,0,0,3.12-5.76l2.12.41c-.15.44-.28.87-.43,1.28h2.36a11.85,11.85,0,0,0-.72-1.3l2.28-.36c.23.51.46,1.05.69,1.66h3.63v1.84h-3.66v1.18h3.25v1.64h-3.25v1.1h3.25v1.67h-3.25V421Zm-6.43,4.86-1.79,1.26a22.61,22.61,0,0,0-2.23-2.87l1.77-1.1A23.76,23.76,0,0,1,378.36,425.89Zm-2.74-11.65v1.18h3.1v-1.18Zm0,3.92h3.1v-1.1h-3.1Zm0,2.87h3.1v-1.2h-3.1Zm10.09,6.78-1.89,1.31a41.55,41.55,0,0,0-3-4.76l1.87-1.13A39.12,39.12,0,0,1,385.71,427.81Z"/><path d="M403.23,406.44v4.43h9.11v12.36h-2.43v-1.46h-6.68v8.58h-2.51v-8.58h-6.66v1.46h-2.43V410.87h9.09v-4.43Zm-2.51,12.95v-6.14h-6.66v6.14Zm9.19,0v-6.14h-6.68v6.14Z"/><path d="M441,430.2h-2.41v-1h-16.8v1h-2.4V407.43H441ZM438.54,427V409.69h-16.8V427Zm-8.76-3a63.41,63.41,0,0,1-6.76,1.18l-.3-2.07c2.68-.26,5-.57,7.06-1Zm.77-11.93c0-.64,0-1.28,0-1.94h2.18c0,.69,0,1.33,0,1.94h1.87c-.23-.59-.49-1.12-.75-1.64l1.9-.3c.23.56.46,1.23.69,1.94h1.28v2.15h-4.94a31.21,31.21,0,0,0,.38,4.41c0,.41.1.77.16,1.12A26.88,26.88,0,0,0,435,415l1.79.92a27.61,27.61,0,0,1-2.77,6.74.25.25,0,0,0,.05.13c.36.92.72,1.38,1,1.38s.74-1,1.2-3.07l1.74,1c-.71,2.87-1.64,4.33-2.71,4.33a2.93,2.93,0,0,1-2.28-1.62,1.38,1.38,0,0,1-.23-.38,12.29,12.29,0,0,1-2.41,2.25l-1.2-1.79a11,11,0,0,0,2.66-2.66,19.52,19.52,0,0,1-.64-2.41,35.91,35.91,0,0,1-.61-5.61h-7.86V412Zm-.9,3.56v5.51h-6.27V415.6Zm-2,1.72h-2.33v2.07h2.33Z"/><path d="M449.83,406.36a21.86,21.86,0,0,1,2.77,5.25,19.72,19.72,0,0,1,0,13.44,23.49,23.49,0,0,1-2.77,5.22h-2.28A27.07,27.07,0,0,0,450,425a20.16,20.16,0,0,0,0-13.31,26,26,0,0,0-2.46-5.3Z"/></svg>