<?xml version="1.0" encoding="utf-8"?>
<!-- Generator: Adobe Illustrator 18.0.0, SVG Export Plug-In . SVG Version: 6.00 Build 0)  -->
<!DOCTYPE svg PUBLIC "-//W3C//DTD SVG 1.1//EN" "http://www.w3.org/Graphics/SVG/1.1/DTD/svg11.dtd">
<svg version="1.1" xmlns="http://www.w3.org/2000/svg" xmlns:xlink="http://www.w3.org/1999/xlink" x="0px" y="0px"
	 viewBox="0 0 424.5 331.5" enable-background="new 0 0 424.5 331.5" xml:space="preserve">
<g id="圖層_4">
	<polygon fill="#FFFFFF" points="73.5,162 102,76.5 169.5,43.5 234,63 264,88.5 283.5,165 258,259.5 207,282 156,282 96,247.5 	"/>
</g>
<g id="敺_x9E__xFFFD__xF880_詨_x8F__x96_蝭_x84__xFFFD__x9C__x8D__xA0_影像_3_">
	<g>
		<path d="M79.6,167.4c0.5-33.4,9.1-64.3,29-91.4c17.7-24.3,40.9-40.6,70.9-45.9c19.7-3.5,38.8-0.8,56.9,7.6
			c27.9,12.9,47,34.5,59.1,62.2c19.2,44,18.3,88.2-0.7,132.2c-1,2.2-0.7,3.6,0.7,5.3c9.2,11.5,20.1,20.7,34.3,25.4
			c6.8,2.3,10.1,8.2,8.9,14.7c-1,5.9-6.2,10.3-12.3,10.4c-4.4,0.1-8.3-1.7-12.3-3.4c-12.9-5.5-23.7-13.7-33-24.1
			c-1.7-1.9-2.4-1.8-3.9,0.2c-14.6,18.3-32.4,32.2-55,38.8c-37.4,11-70.3,1.8-98.6-24.1c-23.8-21.8-36.4-49.7-41.8-81.1
			C80.4,185.4,79.7,176.5,79.6,167.4z M275.7,210.2c0.4-1.1,0.6-1.6,0.8-2.2c7.7-24,9-48.3,3.5-72.9c-5.4-24.2-16.3-45.5-35.6-61.7
			c-20.4-17.1-43.6-23.2-69.5-15.6c-20,5.8-35.4,18.5-46.8,35.5c-22.9,34.1-28,71.4-17.6,110.7c6.1,23.1,17.8,42.9,36.9,57.7
			c16.7,13,35.7,18.8,56.7,15.4c25.2-4.1,43.6-18.7,57.8-39.3c0.7-1.1,0.7-1.9,0-2.9c-3.7-5-7.2-10.1-11.8-14.2
			c-10.1-9-21.4-15.3-35.6-14.3c-3.4,0.3-6.6,1.2-9.9,1.8c-6,1.2-11.4-2-13.3-7.7c-1.8-5.4,0.8-11.2,6.2-13.9c1.1-0.5,2.2-1,3.3-1.3
			c21.5-7,41.2-3.3,59.3,10C265.9,199.4,270.8,204.4,275.7,210.2z"/>
		<path d="M343.6,190.7c-1.2,0.7-2.4,1.5-3.7,2.2c-4.9,2.6-10.6,1.6-14.1-2.5c-3.6-4.2-3.7-10.1-0.2-14.6c2-2.5,4.7-4.3,7.3-6.1
			c5-3.5,10.2-6.7,15.6-9.5c10.1-5.4,20.9,0.4,22,11.7c0.9,10-0.4,20-1.4,29.9c-0.5,4.8-1.1,9.6-1.8,14.3c-0.3,1.8,0.5,2.1,2,2.2
			c4.4,0.1,8.9-0.2,13.3,0.5c6.8,1.1,11.4,6.9,10.9,13.8c-0.5,6.9-6,11.7-13.6,11.8c-6.3,0-12.5-0.2-18.8-0.3
			c-11.5-0.3-22.9,0.8-34.3,1.7c-2.4,0.2-4.7,0-7-0.6c-5.7-1.5-9.2-6.4-8.8-12.1c0.4-5.4,4.7-9.8,10.3-10.3c5.7-0.4,11.3-1.6,17-2.3
			c1.3-0.2,2.2-0.4,2.4-2c1.4-9.1,2.6-18.2,3.3-27.3C344,191.2,343.8,191,343.6,190.7z"/>
	</g>
	<g>
		<path fill="#85A48C" d="M66.6,167.4c0.5-33.4,9.1-64.3,29-91.4c17.7-24.3,40.9-40.6,70.9-45.9c19.7-3.5,38.8-0.8,56.9,7.6
			c27.9,12.9,47,34.5,59.1,62.2c19.2,44,18.3,88.2-0.7,132.2c-1,2.2-0.7,3.6,0.7,5.3c9.2,11.5,20.1,20.7,34.3,25.4
			c6.8,2.3,10.1,8.2,8.9,14.7c-1,5.9-6.2,10.3-12.3,10.4c-4.4,0.1-8.3-1.7-12.3-3.4c-12.9-5.5-23.7-13.7-33-24.1
			c-1.7-1.9-2.4-1.8-3.9,0.2c-14.6,18.3-32.4,32.2-55,38.8c-37.4,11-70.3,1.8-98.6-24.1c-23.8-21.8-36.4-49.7-41.8-81.1
			C67.4,185.4,66.7,176.5,66.6,167.4z M262.7,210.2c0.4-1.1,0.6-1.6,0.8-2.2c7.7-24,9-48.3,3.5-72.9c-5.4-24.2-16.3-45.5-35.6-61.7
			c-20.4-17.1-43.6-23.2-69.5-15.6c-20,5.8-35.4,18.5-46.8,35.5c-22.9,34.1-28,71.4-17.6,110.7c6.1,23.1,17.8,42.9,36.9,57.7
			c16.7,13,35.7,18.8,56.7,15.4c25.2-4.1,43.6-18.7,57.8-39.3c0.7-1.1,0.7-1.9,0-2.9c-3.7-5-7.2-10.1-11.8-14.2
			c-10.1-9-21.4-15.3-35.6-14.3c-3.4,0.3-6.6,1.2-9.9,1.8c-6,1.2-11.4-2-13.3-7.7c-1.8-5.4,0.8-11.2,6.2-13.9c1.1-0.5,2.2-1,3.3-1.3
			c21.5-7,41.2-3.3,59.3,10C252.9,199.4,257.8,204.4,262.7,210.2z"/>
		<path fill="#85A48C" d="M330.6,190.7c-1.2,0.7-2.4,1.5-3.7,2.2c-4.9,2.6-10.6,1.6-14.1-2.5c-3.6-4.2-3.7-10.1-0.2-14.6
			c2-2.5,4.7-4.3,7.3-6.1c5-3.5,10.2-6.7,15.6-9.5c10.1-5.4,20.9,0.4,22,11.7c0.9,10-0.4,20-1.4,29.9c-0.5,4.8-1.1,9.6-1.8,14.3
			c-0.3,1.8,0.5,2.1,2,2.2c4.4,0.1,8.9-0.2,13.3,0.5c6.8,1.1,11.4,6.9,10.9,13.8c-0.5,6.9-6,11.7-13.6,11.8
			c-6.3,0-12.5-0.2-18.8-0.3c-11.5-0.3-22.9,0.8-34.3,1.7c-2.4,0.2-4.7,0-7-0.6c-5.7-1.5-9.2-6.4-8.8-12.1
			c0.4-5.4,4.7-9.8,10.3-10.3c5.7-0.4,11.3-1.6,17-2.3c1.3-0.2,2.2-0.4,2.4-2c1.4-9.1,2.6-18.2,3.3-27.3
			C331,191.2,330.8,191,330.6,190.7z"/>
	</g>
</g>
<g id="圖層_3">
	<polygon fill="#FFFFFF" points="106.5,174 51,207 90,246 97.5,255 157.5,193.5 184.5,214.5 207,211.5 195,204 208.5,202.5 
		208.5,192 214.5,187.5 222,181.5 	"/>
</g>
<g id="Birds_xA0_影像_1_">
	<g>
		<g>
			<path d="M156.2,145.8c3.1-4.5,6.2-8.6,10.3-11.8c4.1-3.2,8.5-5.9,13-8.5c5.5-3.1,9.9-7.4,13.6-12.4c2.9-3.9,5.4-8,8.2-11.9
				c5.6-8,12.4-14.4,22.2-17.1c1.2-0.3,2.3-0.4,3.5-0.4c3.8,0.2,5.7,2.7,5.1,6.4c-0.3,1.9-1.3,3.6-2.1,5.5c1.2,0.3,1.9-0.5,2.7-0.9
				c2.2-1,4.4-1.7,6.8-2c2.5-0.4,4.7,0.2,6.3,2.3c1.6,2.1,1.6,4.4,0.4,6.7c-0.5,1-1,1.9-1.5,2.8c0.2,0.2,0.3,0.4,0.4,0.4
				c5.9-0.8,8.2,4.3,6.1,9.5c-2.2,5.3-5.7,9.7-9.7,13.7c-1.3,1.3-2.6,2.4-4.4,4c2.9,0.4,5.1-0.4,7.2,0.1c2.1,0.5,3.8,1.2,4.7,3.3
				c0.8,2.1-0.2,3.8-1.6,5.2c-2.1,2.1-4.3,4.1-6.6,6.3c1.6,0.5,3.2,0.8,4.7,1.5c4.6,2.1,5.4,6,1.7,9.5c-1.3,1.2-1.7,2.1-1,3.9
				c1.3,3.1-0.3,5.5-2.6,7.4c-4.4,3.6-9.6,5.5-14.9,7.1c-2.4,0.7-3.2,1.4-2.5,4c0.8,3.2-1.2,5.5-5.4,6.5c-2,0.5-3,0.8-2,3.2
				c1.1,2.7-0.5,5.1-3.6,5.9c-1.7,0.4-2.3,0.8-1.6,2.6c0.9,2.6-0.8,4.1-2.9,5.2c-4.6,2.4-9.6,2.7-14.6,2.1c-2.8-0.3-5.5-1-8.3-1.6
				c-1.7-0.4-3.8-0.8-3.1-3.2c0.6-2.1,2.4-1.6,4.1-1.2c4.2,1,8.3,2,12.6,1.8c1.8-0.1,3.6-0.3,5.3-1c0.9-0.4,2.5-0.3,2.3-1.8
				c-0.2-1.4-1.3-2.4-2.8-2.5c-4-0.3-7.9-1.3-11.7-2.5c-0.8-0.2-1.5-0.5-2.3-0.9c-1.2-0.6-1.8-1.6-1.3-2.9c0.4-1.2,1.6-1.5,2.7-1.2
				c1.8,0.4,3.5,1.1,5.2,1.6c3.9,1.1,7.8,2,11.8,1.8c1.4-0.1,3.7,0.5,3.8-1.5c0.1-1.8-1.7-3-3.6-3.1c-3.6-0.3-6.9-1.5-10.3-2.5
				c-1.7-0.5-3.4-1.2-5.1-1.8c-1.6-0.6-2.9-1.5-2.2-3.4c0.7-1.8,2.3-1.4,3.8-0.8c4.8,1.7,9.5,3.5,14.6,4.3c3,0.5,5.8-0.1,8.6-0.8
				c1.2-0.3,2.1-0.8,1.7-2.3c-0.3-1.4-0.9-2.3-2.6-2.1c-6.3,0.7-12.5,0.1-18.7-1.1c-0.5-0.1-1.1-0.2-1.6-0.4c-1.3-0.4-2-1.3-1.7-2.7
				c0.3-1.4,1.4-1.9,2.7-1.7c2.3,0.3,4.7,0.7,7,1.1c11.1,1.6,21.5-0.5,31.3-5.8c1.1-0.6,2.1-1.5,3-2.3c0.8-0.7,1.1-1.7,0.5-2.7
				c-0.7-1.2-1.6-0.3-2.3,0c-11.2,4.5-22.7,6.9-34.7,7.2c-0.3,0-0.5,0-0.8,0c-1.4-0.1-3.2,0.1-3.7-1.6c-0.5-1.8-0.2-3.7,1.5-4.9
				c1.2-0.8,1.2-1.4,0.6-2.7c-1-2,0.3-3.7,1.7-5c1.2-1.1,1.7-1.7,0.1-3.1c-2.1-1.9-2-4.6,0.2-7.1c2.1-2.3,4.6-4.4,6.7-6.8
				c-2.2,0-3.8,1.3-5.5,2.2c-2.5,1.4-4.8,3-7.6,3.7c-3.4,0.8-5.3-0.9-5-4.3c0.2-2.3,1.4-4.3,2.5-6.3c2.3-4.1,5.2-7.8,8.1-11.7
				c-1.4-0.6-2.2,0.1-2.9,0.6c-2.2,1.3-4.3,2.7-6.4,4.2c-3,2.1-6.2,3.1-9.8,2.5c-1.5-0.2-2.8,0.2-4.2,0.8
				c-11.1,5.4-19.3,13.8-24.8,24.8c-0.7,1.4-1.4,2.9-3.2,2.1c-2-0.9-1.2-2.6-0.6-4c1.2-3,1.2-2.8-1.9-2.9
				c-6.7-0.1-13.4-0.7-19.9-2.5c-1.1-0.3-2.2-0.9-3.8-0.5c2.2,4.3,3.9,8.6,4.7,13.2c0.2,1.2,1.5,1.2,2.2,1.8c1,0.8,2.1,1.7,1.5,3.2
				c-0.6,1.6-1.9,1.2-3.2,0.9c-3.3-0.6-6.4,0.3-9.2,1.7c-7.7,3.9-15.4,7.9-20.6,15.2c-2.6,3.7-6.8,5.7-10.1,8.6
				c-1.4,1.3-2.8,2.6-4.2,3.9c-1.3,1.3-1.7,2.3,0.8,2.7c3,0.5,6,0.3,8.9-0.4c2.5-0.6,5-1,7.6-0.8c1.5,0.1,3,0.3,3.6,1.9
				c0.6,1.6-0.3,2.8-1.4,3.8c-0.5,0.4-1.1,0.7-1.2,1.6c2.3-0.3,4.6-1.1,6.9-0.8c2.4,0.3,4.9,0.7,5.7,3.4c0.8,2.7-0.9,4.4-3,5.8
				c-2.3,1.5-3.8,3.9-5.5,6c-5.3,6.9-9.7,14.2-12.3,22.6c-1,3.2-0.5,6.3-0.5,9.5c0,1.8,1.1,1.9,2.4,1c1.9-1.4,3.3-3.4,4.7-5.3
				c5.3-7.4,9-15.7,12.9-23.9c0.4-0.8,0.7-1.7,1.1-2.5c0.6-1.4,1.6-2.3,3.2-1.8c1.7,0.5,1.7,2.1,1.3,3.4c-1.2,4.5-2.2,9-2.6,13.6
				c-0.2,2.1-1,5.3,0.8,6.1c1.9,0.7,3.3-2.2,4.7-3.9c2.3-2.8,3.8-6.2,5.3-9.5c1.7-3.7,3.4-7.4,5.2-11.1c0.7-1.5,1.7-3.1,3.7-2.3
				c2.1,0.8,1.6,2.6,0.9,4.2c-2,4.5-2.9,9.2-2.9,14c0,1.3-0.2,2.7,0.5,4.2c1.3-0.7,1.9-2,2.6-3.1c3-5,5.6-10.2,7.7-15.6
				c0.3-0.7,0.5-1.4,0.8-2c0.5-1.2,1.4-2,2.8-1.6c1.4,0.3,1.8,1.5,1.6,2.8c-0.4,3.1-1,6.3-0.7,9.5c0.2,1.6,0.4,3.1,2.5,3.2
				c0.9,0.1,1.4,0.8,1.5,1.7c0.1,1-0.3,1.7-1.2,2.3c-1.7,1.1-4.2,0.6-5.6-1.3c-0.6-0.9-1.1-1.9-1.7-3c-1.4,2.4-2.7,4.6-4,6.9
				c-1,1.7-2.3,3.3-3.8,4.6c-3.1,2.5-6.2,1.5-7.2-2.5c-0.3-1.1-0.5-2.3-0.7-3.8c-1.9,2.5-3.1,5-5.1,7c-0.8,0.8-1.6,1.7-2.5,2.5
				c-1.8,1.7-3.9,2.9-6.4,1.8c-2.4-1.1-3.1-3.4-3.3-5.9c-0.1-0.8-0.1-1.6-0.1-2.5c-1.2,0-1.2,1-1.5,1.6c-2.4,4.5-5,8.8-8.4,12.7
				c-1.1,1.3-2.3,2.6-3.8,3.5c-3.8,2.5-7.6,1.2-9.1-3.1c-0.2-0.5-0.3-1-0.4-1.2c-1.5,1.3-3.1,2.6-4.6,3.9c-1.9,1.6-3.8,3.1-6.2,3.9
				c-5.4,1.9-9.8-1.6-9.4-7.3c0.4-4.6,2.4-8.5,4.9-12.9c-2.6,1-4.8,1.9-6.9,2.7c-2.1,0.8-4.4,1.3-6.7,1.2c-5.5-0.3-8.4-4.6-6.9-9.9
				c0.2-0.7,0.4-1.4,0.7-2.2c-1.7-0.5-3.1,0.4-4.5,0.6c-1.8,0.3-3.6,0.5-5.4,0c-5-1.3-7-5.3-5.1-10c0.5-1.3,1.2-2.6,2-4
				c-2.8,0.2-5.2,0.7-7.8,0.3c-3.7-0.5-6.7-3.1-7.4-6.6c-0.9-4.1,0.4-7.3,3.8-9.4c4.2-2.6,8.9-3.7,13.6-4.7
				c12.8-2.8,25.2-6.8,37.2-12.1c6.4-2.9,12.3-6.6,17.7-11.2c7.1-6,14.9-10.7,23.9-13.2c1.2-0.3,1.1-0.8,0.9-1.7
				c-1.2-5.2-3.5-9.9-6.9-14.1c-0.9-1.2-2.2-1.5-3.6-1.7c-1.2-0.2-2.3-0.3-3.5-0.5c-1.1-0.1-1.9-0.6-2-1.8c0-1.4,0.8-2.7,2-2.5
				c5.3,0.8,8.1-3,11.6-5.7c9.1-7.1,19.9-5.4,27,4.1C152.8,139.4,154.2,142.5,156.2,145.8z M129.5,134.7c5.3,0.1,10.2,1.9,15.4,2.9
				C141.7,132.6,135.5,131.4,129.5,134.7z M138.1,143.5c1.2-0.4,3.3-0.1,3.2-2.3c-0.2-2.5-2.6-2.1-4.3-2.4c-1.3-0.2-2.8,0.3-2.8,1.9
				C134.2,143.1,136.2,143.2,138.1,143.5z"/>
			<path d="M165.3,247.2c-0.9,1.6-1.8,3.3-2.8,4.9c-0.8,1.4-1.7,3.2-3.7,2.2c-1.9-1-1-2.6-0.3-4c0.1-0.1,0-0.3,0-0.5
				c-0.6-0.3-1,0.2-1.5,0.4c-1.3,0.4-2.4,0.3-3-1c-0.6-1.3-0.1-2.3,1-3.1c2.1-1.3,4.2-2.5,6.2-4c3.5-2.5,4.7-7.2,2.9-11
				c-0.4-0.9-1.3-0.9-2-1.2c-2.3-0.7-3.7-2.2-4.3-4.5c-0.8-2.7-1.2-5.5-0.9-8.3c0.2-1.6,0.9-2.9,2.7-2.7c1.8,0.2,1.6,1.6,1.5,3
				c-0.1,1.7-0.1,3.4,0.3,5.1c0.4,2,1.1,3.3,3.4,3.5c1.8,0.1,3,1.3,3.3,3.1c0.4,1.9,0.8,3.8,0.8,5.6c0.1,3.4,2,6.6,1.4,10.1
				c-0.1,0.7-0.1,1.5-0.2,2.2c-0.2,1.4-0.3,3.1-2.3,3.1C165.9,250.2,165.7,248.7,165.3,247.2z"/>
			<path d="M196.1,245c-1,0-1.8-0.3-2.2-1.2c-0.4-0.9-0.3-1.8,0.5-2.5c0.3-0.3,0.7-0.5,1.1-0.8c1.1-0.8,2.8-1.3,3.2-2.3
				c0.4-1-1.4-1.9-2.1-3c-0.7-1-1-2,0-2.9c1-0.8,2.1-0.7,3,0.2c0.8,0.7,1.5,1.6,2.3,2.4c0.6,0.6,1.1,0.9,1.8,0.1
				c0.6-0.7,0.2-1.1-0.4-1.5c-1.6-1.3-3.2-2.6-4.9-3.9c-1.2-0.9-2.2-1.9-1.2-3.4c1-1.5,2.4-0.9,3.6,0c1.7,1.2,3.4,2.4,4.9,3.8
				c1.4,1.2,2,0.4,2.8-0.6c1.1-1.4-0.2-1.5-1-1.8c-2.9-1.1-4.6-4.1-8-4.4c-1.2-0.1-1.2-1.7-0.9-2.8c0.3-1.4,1.3-1.9,2.6-1.9
				c1.3,0.1,2.2,0.8,3.1,1.6c2.5,2.1,5.1,3.8,8.3,4.6c2.5,0.6,3.2,2.6,1.7,4.6c-4.4,5.6-8.5,11.4-15.1,14.6
				C198.1,244.2,197.2,244.9,196.1,245z"/>
			<path d="M178.9,238.5c-1.2,2.3-2,3.9-2.9,5.5c-0.7,1.1-1.7,2.1-3.1,1.3c-1.4-0.8-1.3-2.1-0.6-3.3c1.2-2.3,2.3-4.7,3.6-7
				c0.7-1.3,0.6-2-0.5-3c-2.4-2.2-4.3-4.7-5.4-7.7c-0.3-0.8-0.6-1.7-0.6-2.6c0-1.2,0.4-2.2,1.8-2.4c1.1-0.2,2,0.5,2.2,1.6
				c1.1,4.6,4.4,7.6,7.8,10.5c1.5,1.3,3.3,1.3,5.1,1.7c2.2,0.4,3.9,1,2.4,3.7c-0.4,0.7,0,1,0.4,1.4c0.6,0.6,1.2,1.1,1.8,1.7
				c0.9,0.9,1.6,1.9,0.6,3.1c-0.9,1.1-2.2,1-3.2,0.2c-1.4-1.1-2.7-2.4-4.5-4c0.5,2.1,0.8,3.6,1.1,5.2c0.2,1.3,0.1,2.7-1.5,3
				c-1.7,0.4-2.5-0.7-2.8-2.2C180.1,243.1,179.6,241.2,178.9,238.5z"/>
			<path d="M167.8,196.1c0.7-2,0-4-0.6-6c-1-3.8,0.1-7.1,2-10.4c2.4-4.1,2.3-4.4-1.9-6.5c-3.6-1.9-4-3.6-1.5-6.8
				c1-1.4,2.2-2.6,3.1-4.1c1-1.6,0.7-2.9-1.5-2.9c-1.7,0-2.9-0.6-2.7-2.5c0.2-2,1.7-2.1,3.2-2c4.6,0.4,7.1,4.8,5.1,8.9
				c-0.1,0.2-0.2,0.5-0.4,0.7c-1,1.4-2.7,2.8-2.8,4.2c-0.1,1.7,2.6,1.6,3.7,2.9c2,2.4,1.9,5,1,7.7c-0.4,1.2-1.1,2.3-1.8,3.4
				c-1.4,2.4-1.9,4.8-0.8,7.5c1,2.3,1,4.6,0.2,6.9c-0.5,1.3-1.3,2.2-2.9,1.9C168,198.6,167.8,197.5,167.8,196.1z"/>
			<path d="M136.3,174.7c-0.5,1.6-1.1,3.3-1.1,5.2c0,1.7,0.5,2.8,2.4,3c5,0.3,8.6,2.5,10.4,7.3c0.5,1.2,1.4,2.1,2.5,2.8
				c1.2,0.9,1.7,2,0.8,3.3c-1,1.4-2.4,1-3.6,0.2c-1.9-1.2-3.2-3-4-5c-1.1-2.7-3-3.8-5.8-4.2c-6.8-1.1-9.6-8.8-5.2-14.3
				c0.6-0.8,1.4-1.2,2.4-0.8C136,172.5,136.5,173.4,136.3,174.7z"/>
			<path d="M182.1,215.3c0.9,0.1,1.5,0.6,2.1,1.2c1.3,1.3,2.7,2.6,4.3,3.6c1.2,0.8,2,1.8,1.2,3.2c-0.9,1.6-2.3,1.1-3.5,0.4
				c-2.1-1.3-3.9-2.9-5.5-4.8c-0.6-0.8-0.8-1.7-0.4-2.5C180.6,215.6,181.3,215.2,182.1,215.3z"/>
			<path d="M144.5,163.9c1.4,0.1,2.1,1.1,2.3,2.3c0.5,2.4,3.5,4.1,2,6.9c-0.6,1.1-2,0.9-2.9,0c-2-1.9-2.8-4.4-3.3-7
				C142.3,164.9,143.2,164.1,144.5,163.9z"/>
			<path d="M193.7,213.9c0,0.9,0,1.8,0,2.7c0,1.2-0.7,1.9-1.8,2c-1.2,0.1-1.8-0.6-2.1-1.8c-0.4-2.1-0.4-4.2-0.2-6.2
				c0.1-1.1,0.6-2,1.9-2c1.3,0,2,0.8,2.1,2C193.7,211.7,193.6,212.8,193.7,213.9C193.7,213.9,193.7,213.9,193.7,213.9z"/>
			<path d="M158.7,169.8c-0.4,1.4-0.7,3.1-1.3,4.7c-0.4,1.1-1.4,2-2.8,1.5c-1.4-0.5-1.5-1.6-1.2-2.9c0.3-1.3,0.6-2.6,0.9-3.9
				c0.3-1.4,0.9-2.5,2.4-2.3C158.3,167.1,158.6,168.3,158.7,169.8z"/>
		</g>
	</g>
</g>
</svg>
