<?xml version="1.0" encoding="utf-8"?>
<!-- Generator: Adobe Illustrator 18.0.0, SVG Export Plug-In . SVG Version: 6.00 Build 0)  -->
<!DOCTYPE svg PUBLIC "-//W3C//DTD SVG 1.1//EN" "http://www.w3.org/Graphics/SVG/1.1/DTD/svg11.dtd">
<svg version="1.1" xmlns="http://www.w3.org/2000/svg" xmlns:xlink="http://www.w3.org/1999/xlink" x="0px" y="0px"
	 viewBox="0 0 678.1 663.1" enable-background="new 0 0 678.1 663.1" xml:space="preserve">
<g id="_xFFFD__x83__x8C__xFFFD__x99__xA0_影像_1_">
</g>
<g id="_xFFFD__x9C__x96_撅_xFFFD__13_xA0_影像_1_">
</g>
<g id="_xFFFD__x9C__x96_撅_xFFFD__3_xA0_影像_1_">
</g>
<g id="_xFFFD__x9C__x96_撅_xFFFD__14_xA0_影像_1_">
	<g>
		<path fill="#369EBB" d="M381.8,428.2c-74.3,0.5-133.6-60.3-133.3-132.9c0.3-72.9,59.1-132.8,134.4-132.5
			c73.5,0.3,132.8,60.3,132.6,133.1C515.3,368.3,455.9,428.9,381.8,428.2z"/>
		<path fill="#369EBB" d="M186.7,565c0-1.4,0.1-2.8,0.6-4.1c0.9-2.4,3-2.9,5.3-1.7c8.7,4.6,15,11.8,21.2,19.2
			c8.8,10.6,20,16.9,33.9,18.1c6,0.5,11.4,3,16.7,5.4c1.8,0.8,3.4,2.1,4.7,3.7c1.1,1.4,1.6,3,0.8,4.8c-0.8,1.8-2.2,2.8-4.1,3.1
			c-0.2,0-0.4,0.1-0.5,0c-6.4-1.7-11.6,0.6-16.6,4.4c-2.2,1.7-5.2,2.1-8,2.1c-3.5,0-6.9-0.2-10.4,0c-4.5,0.2-8-1.4-10.4-5.2
			c-1.1-1.8-2.4-2.5-4.7-2c-4,0.8-6.9-1.3-7.4-5.3c-0.2-1.9-1-3-2.4-3.9C191.7,594.3,188.7,579.8,186.7,565z"/>
		<path fill="#369EBB" d="M198.5,111.2c0.4,0.1,1.2,0.2,1.8,0.6c14.1,8.6,28,17.5,38.7,30.4c2,2.4,3.6,5.2,5.9,7.4
			c1,1,1.2,2.3,0.3,3.4c-0.9,1.2-2.1,1.2-3.4,0.6c-1.1-0.5-2-1.4-2.6-2.3c-9.7-14.3-24.2-23-38.1-32.3c-1.6-1.1-3.3-1.9-4.6-3.3
			c-0.8-0.9-1.1-1.9-0.6-3C196.3,111.7,197.2,111.3,198.5,111.2z"/>
		<path fill="#369EBB" d="M456.3,117.4c0.3-2.3,1.3-5.1,2.4-7.9c5-12.6,9.2-25.4,12.5-38.5c0.4-1.5,0.9-3,1.7-4.3
			c0.9-1.4,2.1-2.1,3.7-1.5c1.7,0.7,1.8,2.2,1.4,3.7c-3.6,13.1-7.5,26.1-12.7,38.7c-1.5,3.7-3.1,7.4-3.9,11.3
			c-0.4,1.8-1.3,2.9-3.2,2.5C456.4,121.1,456.1,119.7,456.3,117.4z"/>
		<path fill="#369EBB" d="M341,123.2c-1.5-0.1-2.6-1-3.2-2.2c-0.7-1.3-1.4-2.8-1.8-4.2C332,103,326,90.1,319.5,77.4
			c-0.5-1-1.1-2.1-1.5-3.2c-0.5-1.3-0.1-2.6,1.1-3.3c1.2-0.7,2.6-0.4,3.4,0.7c1,1.3,1.9,2.6,2.7,4.1c6,11.8,11.4,23.9,15.1,36.6
			c0.7,2.4,1.1,5,2.9,6.9c0.7,0.8,0.7,1.8,0.1,2.8C342.8,122.9,342,123.2,341,123.2z"/>
		<path fill="#369EBB" d="M146.8,223.2c7.3,0,14.7,0,22,0c2.1,0,4,0.3,3.9,3c-0.1,2.4-1.9,2.8-3.9,2.8c-15.3,0.3-30.7,0.7-46,1.1
			c-1.4,0-2.7,0.2-4.1,0.3c-1.7,0.2-3.2,0-3.5-2.1c-0.3-2,1.1-3,2.9-3.2c2.7-0.3,5.4-0.5,8.1-0.5c6.8-0.1,13.6,0,20.4,0
			C146.8,224.1,146.8,223.7,146.8,223.2z"/>
		<path fill="#369EBB" d="M294.1,526c0.2-0.6,0.4-1.5,0.7-2.4c4.9-12.1,10.8-23.7,16.4-35.6c0.5-1,1.1-1.9,2.1-2.4
			c1.1-0.5,2.3-0.6,3.3,0.3c1,1,0.9,2.1,0.3,3.2c-6.1,11.9-11.5,24.2-16.6,36.6c-0.3,0.8-0.6,1.5-1,2.2c-0.7,1.2-1.8,1.7-3.3,1.4
			C294.8,529,294.1,527.9,294.1,526z"/>
		<path fill="#369EBB" d="M590.7,250.7c-2.1,0-3.1-0.6-3.4-2.1c-0.3-1.5,0.4-2.5,1.8-2.9c13.3-4.6,26-10.6,39.8-13.8
			c1.7-0.4,3.2-0.3,3.9,1.4c0.7,1.8-0.3,2.9-1.7,3.8c-0.5,0.3-1.1,0.6-1.7,0.7c-11.9,2.7-23.1,7.4-34.5,11.5
			C593.2,250,591.7,250.4,590.7,250.7z"/>
		<path fill="#369EBB" d="M544.9,479.7c1.2-0.1,2.3,0.5,3.2,1.2c10.3,7.1,19.4,15.6,27.7,24.9c1.2,1.4,1.9,3.1,0.3,4.6
			c-1.6,1.4-3.3,0.6-4.5-0.8c-7-7.7-14.3-15-22.5-21.4c-1.7-1.3-3.4-2.8-5.5-3.5c-1.4-0.5-2-1.6-1.6-3
			C542.3,480.2,543.4,479.6,544.9,479.7z"/>
		<path fill="#369EBB" d="M556,151.4c0.1-2,1.5-3,2.9-4c4.8-3.6,9.7-7.1,14.4-10.7c4.4-3.3,8.8-6.7,12.9-10.4
			c1.5-1.3,3.1-2.7,4.9-0.8c1.9,2,0.4,3.7-1.1,5.1c-3.5,3.3-7.5,6-11.2,9c-6.1,4.8-12.9,8.7-18.7,13.9c-0.8,0.7-1.8,0.9-2.8,0.4
			C556.3,153.4,555.9,152.5,556,151.4z"/>
		<path fill="#369EBB" d="M92.2,368.7c-2,0-3.5-0.5-3.8-2.4c-0.2-1.9,1-2.5,2.8-2.9c11-2.8,21.6-6.8,31.7-12.1
			c0.7-0.4,1.4-0.8,2.2-1.1c1.3-0.5,2.5-0.3,3.4,0.9c0.9,1.3,0.6,2.6-0.5,3.7c-1.2,1.2-2.6,2-4.1,2.7c-9.5,4.5-19.4,8.1-29.6,10.9
			C93.4,368.6,92.6,368.6,92.2,368.7z"/>
		<path fill="#369EBB" d="M439,544.7c0.2,2.9,0.4,6.8,0.6,10.8c0.1,1.6-0.2,3-2,3.4c-1.8,0.4-3-0.7-3.5-2.3c-0.6-2-0.6-4.1-0.7-6.2
			c-0.3-7.8,0.4-15.6-0.7-23.4c-0.3-2.1-0.8-4.1-1.1-6.1c-0.3-1.8-0.2-3.7,2.1-4c2.1-0.3,2.6,1.2,3.1,3
			C439.1,527.6,438.9,535.6,439,544.7z"/>
		<path fill="#369EBB" d="M194.8,449.3c-1.3,0.1-2.4-0.4-2.9-1.7c-0.5-1.2-0.1-2.3,1.1-3.1c8.3-5.5,14.7-13.1,21.5-20.3
			c1.4-1.5,2.7-2.9,4.2-4.2c1.2-1,2.6-1.4,3.9,0c1.2,1.3,0.9,2.7-0.2,3.9c-7.6,8.8-15.7,17.1-24.9,24.3
			C196.7,448.8,195.9,449.3,194.8,449.3z"/>
		<path fill="#369EBB" d="M600.6,347.2c11.2,1.9,22.7,4,33.3,9.5c0.4,0.2,0.8,0.5,1.1,0.7c1.4,1.2,2.1,2.7,1.1,4.3
			c-1,1.6-2.6,1.3-4.1,0.5c-6.7-3.7-13.8-5.9-21.2-7.5c-3.6-0.8-7.3-1.4-11-2.1c-1.7-0.3-3.3-0.7-3.2-2.9
			C596.6,348.1,598.1,347.2,600.6,347.2z"/>
	</g>
</g>
<g id="_xFFFD__x9C__x96_撅_xFFFD__4_xA0_影像_1_">
	<g>
		<path fill="#222222" d="M230.5,539.8c4.1-2.8,8.1-5.2,11.7-8c5.7-4.4,11.9-5.9,18.9-4c3.6,1,7.2,1.7,10.9,2.6
			c1.9,0.4,3.4,1.4,2.9,3.5c-0.5,2.2-2.3,2.3-4.1,2c-4.3-0.9-8.5-1.9-12.7-2.9c-3.6-0.9-7-0.5-10.1,1.7c-4.2,2.9-8.4,5.7-12.8,8.4
			c-2.5,1.5-3.4,3.3-2.4,6.1c0.4,1.1,0.5,2.3,0.8,3.6c2-0.5,3.4-1.8,5-2.7c4-2.5,8.1-4.9,12.4-6.8c6.4-2.8,12.8-2.1,19.1,0.1
			c2.6,0.9,5.2,2.1,8,2.5c1.9,0.3,2.4,1.8,2.1,3.5c-0.3,1.8-1.7,2.4-3.2,2.2c-1.8-0.3-3.6-0.8-5.2-1.6c-9.3-4.6-18-3.5-26.5,2.2
			c-3,2-6.3,3.7-9.4,5.5c-0.7,0.4-1.6,0.7-1.4,1.7c0.3,2.4,0.6,4.9,1.1,7.3c0.3,1.7,1.3,0.7,2,0.3c4.5-2.6,9.1-4.8,14-6.7
			c5.6-2.1,11-1.9,16.3,1c2.9,1.6,5.7,3.1,8.4,5c3.4,2.4,3.9,3.5,2.1,5.8c-2,2.3-3.6,0-5.1-1c-3.1-2-6.1-3.9-9.4-5.5
			c-2.9-1.4-5.9-1.6-9-0.7c-6,1.9-11.6,4.7-17,8c-1.3,0.8-1.8,5.2-0.7,6.1c0.7,0.6,1.4,0,2-0.3c3.7-1.3,7.3-2.7,11.1-3.8
			c3.5-1,6.8-0.8,10.1,0.5c4.8,1.9,9,4.7,13.1,7.7c3.1,2.3,6.1,4.6,9.2,6.9c1.6,1.2,2.9,2.6,1.5,4.5c-1.4,1.9-3.2,1.3-4.8,0.1
			c-2.9-2.1-5.7-4.3-8.5-6.4c-0.9-0.7-1.9-1.4-2.8-2.1c-7.4-6.2-15.3-8.4-24.3-3.6c-1.1,0.6-2.4,1.1-3.6,1.3
			c-3.3,0.3-3.2,3.9-5.4,5.3c-0.6,0.4,0.3,0.9,0.7,1.2c1.4,1,3.1,1.6,4.8,1.7c2.8,0.1,5.4,0.8,7.9,1.8c3,1.2,6.2,1.5,9.3,2
			c5.3,1,9.7,3.6,12.8,8c3.2,4.6,1.5,8.7-4,10c-3.1,0.7-6.2,0.7-9.2,0.1c-2.9-0.5-5.2,0.1-7.2,2.5c-2.1,2.6-4.8,4.7-7.9,6.1
			c-2.7,1.3-5.6,1.8-8.5,0.8c-2.9-1-5.7-0.7-8.6-0.2c-4.1,0.8-6.2-0.3-8.2-4.1c-0.2-0.5-0.5-1-0.7-1.5c-1-2.5-2.1-3.7-5.2-2.4
			c-4.4,1.8-8.6-0.8-9.7-5.9c-0.5-2.5-1.2-4-4-4.7c-3.4-0.8-5.2-3.9-5.8-7.3c-0.3-1.7-0.9-2.1-2.5-1.7c-5.4,1.1-10.9,2.1-16.1,3.9
			c-0.7,0.2-1.9,0.2-2,1.1c-0.1,0.9,1,1.2,1.6,1.7c4.9,4,10.2,7.2,16.2,9.3c1.1,0.4,2.2,0.8,3.3,1.3c3,1.4,3.6,3.9,1.8,6.7
			c-2.7,4.1-6.5,6.8-11.3,8c-10.7,2.7-20.3,0-29.1-6c-3.6-2.4-6.6-5.5-9-9.1c-1.3-1.9-2.5-2.2-4.5-1.4c-1.8,0.7-3.7,1-5.6,1.1
			c-3.3,0.1-5-1.1-6.2-4.2c-0.3-0.9-0.6-1.9-0.8-2.9c-1.2-4.8-1.2-4.5-6.2-5.1c-6.2-0.7-10.9,0.9-14.6,6c-2.2,3-5.2,5.3-7.5,8.2
			c-1.2,1.5-2.9,1.7-4.3,0.5c-1.4-1.2-1.3-2.9-0.1-4.1c4.5-4.9,9-9.8,14-14.1c3.1-2.6,6.9-2,10.5-1.8c6.5,0.4,6.4,0.4,5.2-6
			c-0.4-1.8-1.1-2.5-2.9-2.9c-4.2-0.9-8.3-2-12.4-3.1c-2.2-0.6-4-0.3-5.6,1.6c-3.3,4-7.4,7.2-10.3,11.6c-0.9,1.3-2.2,1.6-3.6,1
			c-1.5-0.7-1.8-1.9-1.6-3.4c0.2-1.1,1-1.9,1.7-2.7c3.6-3.7,7.3-7.4,10.8-11.2c2.4-2.6,5.1-3.2,8.4-2.3c3.7,1,7.4,1.9,11.1,2.9
			c2.1,0.6,3.4,0.7,2.5-2.1c-0.2-0.6-0.3-1.3-0.3-1.9c0.2-5.1-2.9-7.3-7-9.7c-4.4-2.5-7.5-2.3-11,1.2c-1.7,1.7-3.8,3.1-5.8,4.6
			c-1.4,1.1-3,1.5-4.3-0.1c-1.3-1.7-0.4-3.1,1-4.2c3.5-2.6,7-5.2,10.5-7.8c2.5-1.8,5.2-1.9,7.9-0.3c2,1.2,4.1,2.2,6.5,3.5
			c0.5-3.3-0.4-6.2-0.5-9.1c0-0.3-0.3-0.7-0.6-0.8c-3.6-2.2-7-4.6-10.8-6.3c-1.5-0.7-2.9-0.1-4.1,0.6c-3.7,2.1-7.4,4.3-11.1,6.4
			c-0.8,0.5-1.6,0.9-2.4,1.3c-1.7,0.9-3.5,1.2-4.5-0.8c-0.9-1.8,0.1-3.1,1.7-4c4.3-2.5,8.7-4.9,13-7.4c4.1-2.4,8.1-2.2,12.1,0.3
			c1.8,1.2,3.7,2.2,6.1,3.7c-0.6-5.5,0-10.3,3.4-14.4c3.6-4.5,8.5-4.5,14.3-3.8c-3.3-2.8-4.9-5.5-4.1-9.1c1.2-5.4,6.3-7.6,10.9-4.6
			c4,2.6,7.1,6.1,8.2,10.8c0.5,2.1,1.4,2.5,3.4,2.4c5.2-0.3,10.4-0.4,15.5-0.4c2.2,0,2.3-0.7,1.3-2.3c-0.4-0.5-0.7-1.1-1-1.6
			c-0.8-1.6-1.4-2.7-3.4-0.8c-2.5,2.5-6.4,2.4-9.4,0.5c-2.6-1.7-3.7-4.7-3-8.1c1-4.7,5.3-6.7,10-4.5c4.6,2.2,8.3,5.7,10.1,10.3
			c2.2,5.6,5.7,6.9,11.3,6.6c8.5-0.4,17.1,0.1,25.6,0.8c1.4,0.1,1.9-0.2,1.3-1.6c-2.4-5.5-4.7-11-7.1-16.5c-0.4-0.8-0.7-1.3-1.8-0.9
			c-4.8,1.5-9.6,1-14.2-0.4c-6.6-2-12.8-5.1-18.2-9.5c-1.4-1.1-2.5-2.4-1.5-4.2c1-1.9,2.8-2,4.5-1.3c2.1,0.8,4.2,0.9,6.5,0.9
			c0.1-1.2-0.9-1.3-1.5-1.7c-8-4.7-14.2-11.5-21-17.5c-2-1.7-1.7-3.6-0.4-5.6c1-1.5,2.5-2.5,4.2-2.8c10.5-2.2,21-3.1,31.3,1.4
			c6.2,2.7,11.4,6.5,14.9,12.3c3.9,6.2,7.6,12.7,8.1,20.3c0.1,1.2,0.7,2.2,1.4,3.2c5.9,8,9.4,16.9,10.1,26.9
			C228.1,534.8,230,536.9,230.5,539.8z M158.8,591.5c2.1,1.6,3.8,3,5.5,4.4c0.7,0.5,1.4,0.2,2.1,0c5.4-2,10.9-3.6,16.5-4.7
			c0.6-0.1,1.7-0.1,1.5-0.8c-0.5-2,0.7-4.1-0.5-5.8c-1.5-2.2-1.5-4.6-0.6-6.8c0.9-2.4,0.2-4.9,1.1-7.2c0.3-0.8-0.4-1.1-0.8-1.5
			c-1.8-1.6-2.6-3.6-2.1-5.9c0.4-1.9-0.5-1.9-1.9-1.7c-6.4,0.7-12.6,2-18.5,4.4c-2.2,0.9-4.6,1.4-6.3,3.2c-1.4,1.5-2.8,1.8-4.2,0.2
			c-1.5-1.7-0.9-3.3,0.7-4.4c1.5-1,3.1-1.9,4.7-2.6c12-5.6,24.7-6.9,37.7-7.2c5-0.1,8.9,3.8,9,8.8c0.1,3.7,2,6.4,5.7,7.6
			c3.5,1.1,6.3,3.1,8.6,5.9c1.2,1.5,2.5,2.9,3.7,4.4c2,2.5,4.3,3.8,7.8,2.9c2.3-0.6,2.9-1.2,2.7-3.5c-0.6-7.1-1.5-14.1-2.6-21.1
			c-0.9-5.5-1.5-11.1-3.4-16.8c-1.5,2-3.2,2.7-5.4,1.8c-2.3-0.9-2.3-3-2.4-5c0-0.6-0.1-1.3-0.2-1.9c-0.3-1.8-1.1-2.9-3.2-3
			c-13.9-0.7-27.7-1.5-41.6-1.2c-13.2,0.2-26.3,1.3-39.5,0.9c-0.6,0-1.3,0-1.9,0c-2.3,0-3.7,1-3.7,3.6c0.1,2.6-0.2,5.2,0.2,7.9
			c1.1,7.6,5,14.1,8,21c1.7,4,4,4.5,7.6,4.7c9.2,0.3,17.5,2.6,23.3,10.7c2.4,3.4,2,5.9-1.9,7.3C163,590.6,161.1,590.9,158.8,591.5z
			 M205.8,604.5c0,5.8,0.9,6.5,6.2,4.8c3.6-1.2,8,1.4,8.9,5.2c0.7,3,1.6,3.7,4.6,3c2.8-0.6,5.6-0.8,8.3,0.3
			c4.3,1.7,7.5-1.4,11.1-2.6c1.3-0.4,2.8-1.3,4-2c2.9-1.8,5.7-3.2,9.3-3.3c1,0,1.5-0.7,2.1,0.6c0.5,1,1.7,1.4,2.8,0.9
			c1.1-0.4,1.5-1.3,1.3-2.4c-0.4-2.5-5-7.3-7.5-7.4c-6.8-0.3-12.9-3.9-19.6-4.3c-1.8-0.1-3.5-1-4.9-2.1c-2.8-2.2-6.1-3.2-9.4-4.1
			c-2.4-0.6-4.9-2.2-5.6-4c-1.2-2.9-3.3-4.8-5-7.1c-2-2.6-4.9-3.8-8-4.1c-1.2-0.1-1.4-0.3-1.6-1.4c-0.3-2.2-0.8-4.9-2.8-5.6
			c-3.1-1.2-3.7-2.9-3.1-5.8c0.2-0.8-0.4-1.8-1.1-1.6c-1.6,0.5-3,0.4-4.2-0.8c-0.1-0.1-0.4,0-0.5,0c-3.3,0-6,3.9-4.5,7.1
			c1.2,2.5,3.9,4.3,3.4,7.5c0,0.1,0.1,0.2,0.2,0.2c2.9,2.1,0.9,2.7-1,3.5c-1.3,0.5-1.5,1.4-0.2,2.1c2.3,1.2,2.3,2.5,1,4.6
			c-0.8,1.2-0.8,3,0.9,3.7c3.6,1.4,5.3,4.1,6.2,7.7c0.5,2.1,2.1,3.1,4.3,2.9C205.4,599.8,205.8,600.1,205.8,604.5z M126.6,569.5
			c-0.1,0.6-0.2,0.9-0.1,1.1c2,10.9,3.9,21.7,6,32.6c0.7,3.9,1.1,4,4.9,3c1.4-0.4,2-0.8,1.1-2.4c-4.8-8.3-5.7-17.4-5.7-26.8
			c0-0.7-0.1-1.2-0.6-1.7C130.3,573.4,128.5,571.6,126.6,569.5z M161.9,519.9c1.2-0.1,2.3-0.7,2.3-1.9c-0.1-1.3-1.5-1.6-2.6-1.8
			c-1.2-0.2-1.6,0.6-1.6,1.6C159.9,519.1,160.7,519.7,161.9,519.9z M141.6,521.5c-0.6-1-1.5-1.7-2.6-1.7c-1.2,0-1.6,1.1-1.6,2.2
			c0,0.9,0.5,1.8,1.7,1.5C140.3,523.1,141.3,522.7,141.6,521.5z M141.5,528.8c0,0.2,0,0.3,0,0.5c1.2,0,2.5,0,3.7,0
			c0.5,0,1.2,0.1,1.2-0.7c0-0.7-0.2-1.5-0.6-2c-0.4-0.5-0.9,0.1-1.3,0.4C143.4,527.6,142.4,528.2,141.5,528.8z"/>
		<path fill="#222222" d="M379,159.1c75,0,135.8,60.8,135.7,135.9c0,74.9-60.8,135.7-135.6,135.7c-75.2,0-136-60.8-135.9-136
			C243.2,219.9,304.1,159.1,379,159.1z M509.1,295.1c0.3-71.4-57.9-129.9-129.4-130.2c-71.8-0.3-130.1,57.6-130.6,128.6
			c-0.5,72.4,57.2,131,129,131.3C450.3,425.2,508.8,367.2,509.1,295.1z"/>
		<path fill="#222222" d="M198.4,374.4c1.8,0,2.7,0.3,3.1,1.4c0.4,1.1,0.3,2.2-0.7,3c-1,0.8-2.1,1.4-3.2,2.1
			c-20.6,12.1-41.7,23.2-62.2,35.4c-18.9,11.3-37.8,22.7-56.8,34c-1,0.6-2.1,1.2-3.1,1.7c-1.5,0.7-3.1,0.9-4-0.8
			c-0.9-1.7,0.1-2.9,1.6-3.8c2.6-1.5,5.2-2.9,7.8-4.5c30.5-19.1,61.2-37.7,92.8-55c7.5-4.1,15-8.2,22.4-12.3
			C197,375,197.9,374.4,198.4,374.4z"/>
		<path fill="#222222" d="M86.1,167.2c8.7,1.7,18,2.1,27.2,3c17.3,1.7,34.5,3.4,51.8,5.2c16.9,1.8,33.8,3.2,50.5,6.5
			c3.5,0.7,6.8,1.8,9.9,3.6c1.5,0.9,2.3,2.2,1.5,3.9c-0.9,1.6-2.3,1.5-3.8,0.8c-6.6-3.3-13.7-4.1-20.8-4.9
			c-25.1-2.8-50.2-5.5-75.3-8.1c-10.8-1.1-21.5-1.9-32.3-2.9c-3.4-0.3-6.8-0.9-10.1-2.1c-1.5-0.5-2.3-1.5-2-3.1
			C83,167.4,84.2,167.1,86.1,167.2z"/>
		<path fill="#222222" d="M488.4,462.1c0-1.7-0.1-3.5,2-3.9c2.1-0.4,2.8,1,3.1,2.9c2.1,15.3,5.5,30.4,9.2,45.4
			c6.4,26.1,12.9,52.2,22.9,77.2c0.8,2.1,1.8,4.2,2.7,6.3c0.6,1.5,0.9,3.2-0.8,4.1c-1.9,1-3.1-0.2-3.9-1.8c-3.6-6.9-6.4-14-8.8-21.4
			c-10.6-32.4-19.1-65.4-24.9-99C489.2,468.6,488.9,465.3,488.4,462.1z"/>
		<path fill="#222222" d="M62.3,306.4c0-2.1,1.6-3.2,3.6-3.9c6.1-2.2,12.3-4.4,18.5-6.5c29.5-10,58.8-20.3,88.7-29
			c2.7-0.8,5.3-1.8,7.8-3.1c1.6-0.8,3.2-1.2,4.3,0.6c1,1.8-0.2,3.1-1.6,4.1c-3.7,2.5-7.9,3.7-12,4.9
			c-34.2,10.1-67.8,22.2-101.7,33.2c-1.2,0.4-2.4,0.8-3.2,1.9c-0.7,0.9-1.8,1.2-2.9,0.7C62.7,308.7,62.4,307.8,62.3,306.4z"/>
		<path fill="#222222" d="M348.7,588.1c0.3-1.3,0.8-3.1,1.2-5c8.2-33.3,16.3-66.6,24.5-99.9c0.9-3.5,1.7-7.1,3.4-10.3
			c0.7-1.4,1.9-2.3,3.6-1.5c1.5,0.7,1.6,2.2,1.1,3.5c-3.8,11-5.8,22.5-8.6,33.7c-6.4,25.7-11.9,51.6-19.1,77.2
			c-0.4,1.4-0.8,2.8-1.4,4.1c-0.6,1.3-1.7,2-3.1,1.6C349.1,591.1,348.7,590,348.7,588.1z"/>
		<path fill="#222222" d="M297.7,139.3c-0.7-0.4-1.7-0.8-2.6-1.4c-19.2-13.8-37.6-28.6-54.3-45.3c-0.9-0.9-1.7-1.9-2.6-2.8
			c-1.1-1.2-1.5-2.6-0.3-3.9c1.2-1.3,2.7-1,3.9,0.1c1.8,1.6,3.6,3.3,5.4,5c16.4,15.6,33.7,30.2,52,43.4c1.2,0.9,2.1,1.8,1.6,3.4
			C300.5,139,299.4,139.4,297.7,139.3z"/>
		<path fill="#222222" d="M276.2,420.2c1.9,0,3.1,0.4,3.5,1.9c0.3,1.3-0.2,2.4-1.4,2.9c-1.6,0.6-2.4,1.9-3.3,3.1
			c-10.6,13.3-20,27.4-29.9,41.3c-3.6,5.1-7.4,10.1-11.7,14.7c-1.2,1.3-2.7,2.2-4.3,0.7c-1.4-1.3-0.8-2.8,0.2-4.1
			c13-16.4,24.1-34.2,37.1-50.5c2.2-2.7,4.3-5.4,6.6-8C274,421.1,275.1,420.1,276.2,420.2z"/>
		<path fill="#222222" d="M520.1,132.1c0-2.6,0.8-4.9,2-7.1c6.7-13.2,15.4-25,26.7-34.7c1.4-1.2,2.9-1.9,4.3-0.5
			c1.7,1.6,0.6,3.2-0.6,4.5c-4.6,4.9-9.6,9.3-13.8,14.7c-4.4,5.8-8.6,11.7-11.8,18.2c-1,2-1.8,3.9-1.5,6.2c0.2,1.7-0.1,3.2-2.1,3.5
			c-2.1,0.3-2.8-1.3-3.1-3C520.1,133.2,520.1,132.6,520.1,132.1z"/>
		<path fill="#222222" d="M575.4,393.5c1.9,0,3.1,1.1,4.2,2.1c3.7,3.5,6.6,7.7,9.4,11.9c4.2,6.4,8.1,13.1,11.3,20.1
			c0.3,0.7,0.7,1.3,0.9,2c0.4,1.5,0.6,3-1.1,3.8c-1.6,0.7-2.8-0.1-3.6-1.5c-2.1-3.7-4-7.5-6.1-11.2c-3.4-6.3-7.1-12.4-11.6-18.1
			c-1.4-1.7-2.8-3.3-4.6-4.6c-1.1-0.7-1.5-1.8-1-3.1C573.7,394,574.5,393.4,575.4,393.5z"/>
		<path fill="#222222" d="M399,116.5c0.5-8.2,2.9-16,5.2-23.8c1.2-4.4,2.5-8.7,4.6-12.8c0.5-1,1.2-2.1,1.9-3c0.8-0.9,1.9-1.1,3-0.6
			c1,0.5,1.4,1.4,1.3,2.5c-0.2,1-0.5,1.9-0.9,2.8c-4.4,10.7-7.7,21.7-9.8,33c-0.3,1.5-0.2,3.1-0.3,4.6c0,1.5-0.6,2.8-2.2,2.9
			c-1.8,0.1-2.6-1-2.7-2.7C399,118.5,399,117.5,399,116.5z"/>
		<path fill="#222222" d="M574.3,212c-1,0-1.8-0.2-2.3-1.1c-0.6-1-0.5-2,0.2-2.8c0.7-0.8,1.6-1.5,2.5-2c9.7-5.6,19.8-10.3,30.7-12.9
			c0.5-0.1,1.1-0.3,1.6-0.3c1.4-0.1,2.5,0.5,2.9,1.9c0.4,1.3-0.3,2.4-1.5,2.9c-2.1,0.9-4.2,1.6-6.4,2.2c-9,2.7-17.5,6.5-25.6,11.2
			C575.8,211.6,575.1,212,574.3,212z"/>
		<path fill="#222222" d="M613.6,284.4c0.4,0,0.7,0,1.1-0.1c1.6-0.1,3.1,0.1,3.3,2c0.2,2-1.1,2.8-2.8,3c-2.3,0.4-4.7,0.8-7,1
			c-5.8,0.3-11.6,0.7-17.2,2.6c-1.4,0.5-2.6,0.1-3.2-1.3c-0.6-1.6,0.1-2.9,1.6-3.6c2.3-1.1,4.9-1.5,7.4-1.9
			c5.6-0.7,11.2-1.2,16.8-1.8C613.5,284.4,613.5,284.4,613.6,284.4z"/>
		<path fill="#222222" d="M192,577c2.6-0.5,4.7-1,6.6-2.2c0.4,1.1,0.4,2.3-0.8,2.5C196.1,577.7,194.3,579,192,577z"/>
		<path fill="#222222" d="M217.6,591.2c2-0.1,4-0.7,5.3,1.8C220.7,593.4,218.5,594.5,217.6,591.2z"/>
		<path fill="#222222" d="M211.9,585c-1.4-1-2.6-2.2-4.5-3C211.6,581.5,212.4,582,211.9,585z"/>
	</g>
</g>
<g id="_xFFFD__x9C__x96_撅_xFFFD__15_xA0_影像_1_">
</g>
<g id="_xFFFD__x9C__x96_撅_xFFFD__5_xA0_影像_1_">
</g>
<g id="_xFFFD__x9C__x96_撅_xFFFD__16_xA0_影像_1_">
</g>
<g id="_xFFFD__x9C__x96_撅_xFFFD__6_xA0_影像_1_">
</g>
</svg>
