<?xml version="1.0" encoding="utf-8"?>
<!-- Generator: Adobe Illustrator 18.0.0, SVG Export Plug-In . SVG Version: 6.00 Build 0)  -->
<!DOCTYPE svg PUBLIC "-//W3C//DTD SVG 1.1//EN" "http://www.w3.org/Graphics/SVG/1.1/DTD/svg11.dtd">
<svg version="1.1" xmlns="http://www.w3.org/2000/svg" xmlns:xlink="http://www.w3.org/1999/xlink" x="0px" y="0px"
	 viewBox="0 0 622.5 489" enable-background="new 0 0 622.5 489" xml:space="preserve">
<g id="_xFFFD__x83__x8C__xFFFD__x99__xA0_影像_1_">
</g>
<g id="_xFFFD__x9C__x96_撅_xFFFD__13_xA0_影像_1_">
</g>
<g id="_xFFFD__x9C__x96_撅_xFFFD__3_xA0_影像_1_">
</g>
<g id="_xFFFD__x9C__x96_撅_xFFFD__14_xA0_影像_1_">
</g>
<g id="_xFFFD__x9C__x96_撅_xFFFD__4_xA0_影像_1_">
</g>
<g id="_xFFFD__x9C__x96_撅_xFFFD__15_xA0_影像_1_">
</g>
<g id="_xFFFD__x9C__x96_撅_xFFFD__5_xA0_影像_1_">
</g>
<g id="_xFFFD__x9C__x96_撅_xFFFD__16_xA0_影像_1_">
	<g>
		<path fill="#369EBB" d="M210.2,175.4c0-1.4,0-2.9,0-4.3c0.4-5.7,4.8-9,7.7-13.3c2.1-3.2,4.2-6.5,6.2-9.8c1.4-2.4,1.3-4.9,0.2-7.3
			c-1.5-3.3-2.3-6.8-3.1-10.3c-0.3-1.3-0.3-2.8,0.7-3.5c2.4-1.8,3.7-4.4,5.6-6.5c6.5-7.3,14.3-14,22.5-19c8.4-5.1,10.5-6.1,17.5-13
			c12-11.8,33.2-20.3,49.6-22.2c0.3,0,0.6-0.1,0.8-0.1c5.7,0.7,9.2-3.3,13.7-5.7c11-6,22.7-10.2,35.6-10.1c3.7,0,7.4,0,11.1,0.2
			c5.2,0.2,9.6,2.3,13.9,4.8c1,0.6,2,1.2,2.9,1.9c2.4,1.9,4.8,2.3,7.4,0.5c1.7-1.2,3.8-1.5,5.8-2.2c3.6-1.3,7.3-2,10.5-4.2
			c1.2-0.9,2.8-1.2,4.4-1.3c10.4-0.3,20.5,1.1,30.3,4.8c1.6,0.6,3,1.6,4.4,2.6c1.3,0.8,2.3,0.9,3.3-0.3c4.9-5.8,11.3-7,18.5-6.9
			c7.8,0.1,15.2,0.8,22.2,4.7c10,5.6,18.4,12.8,25.4,21.8c8.6,11.1,15.5,23.2,22.3,35.4c3.6,6.4,7,13,10.5,19.5
			c5.4,10,9.1,20.5,11,31.7c0.5,3.2,0.9,6.4,3.3,8.9c0.3,0.3,0.4,0.8,0.5,1.3c1.5,7.4,4.4,14.6,5.1,22c1.3,14.6,5.7,28.7,7,43.3
			c0.9,9.8,2.7,19.4,5.2,28.9c2.1,7.9,2.3,15.8,0.7,23.7c-3.7,17.9-6.5,36.1-11.2,53.8c-3.2,12-7.7,23.5-13,34.8
			c-5,10.7-10.6,21-16.1,31.4c-6.3,11.9-11.5,24.4-16.3,37c-2.9,7.7-7.5,10.8-15.7,10.5c-3.6,0-7.2,0-10.8,0
			c-10.8,0.1-21.7-0.1-32.5-0.9c-11.3-0.9-26.2-3-36.8-7.1c-28.4-10.9-48.7-29.2-73.4-46.6c-10.2-7.2-17.6-16.4-27-24.5
			c-11.9-10.2-22.4-18.9-34-29.5c-10.4-9.5-20.9-20.2-30.5-30.5c-12.4-13.3-25.6-27-32.1-44c-3.7-9.7-8.2-19.2-12.1-28.9
			c-2-5-3.8-10.1-4.6-15.5c-0.4-2.6-0.1-5,0.5-7.5c0.3-1.2,1.1-2.3,2.2-3c2-1.3,4.4-0.5,4.8,1.9c1.1,8.6,5.1,16,9.2,23.4
			c1.3,2.4,3.5,7.4,5.2,9.4c0.9,1,5.5-1,6.5-2c5.5-5.3,8.5-12.2,14.2-17.4c1.8-1.6,4.6-1.6,6.5,0c7.9,6.2,15.9,12.2,24.1,17.9
			c9,6.2,14.3,14.7,24.7,18.6c6.4,2.4,13.4,8.2,20.5,7.5c5.2-0.5,12-8.3,14.4-12.9c3.1-5.8,7.5-11.8,8.6-18.1c1.4-8,2.5-16.4,3-24.5
			c0.3-5-3.4-10.1-3.4-15.1c0.1-9.6-1.8-18.9-4.5-28.1c-2.1-7-4.4-13.9-7.6-20.5c-4.1-8.5-10.8-14.2-19-18.5
			c-7.1-3.7-24.2-6.4-32-5.3c-12.3,1.7-15.5,3.6-27.5,6.5c-6.5,1.6-17.5,6.8-23.5,9.5c-9.1,4.1-13.6,9.3-21.5,15
			c-3.9,2.8-5.8,5.9-9.5,9c-2.5,2.1-3.9,5.6-7.1,5.1C212,181.7,210.8,178.7,210.2,175.4z"/>
		<path fill="#5BAAC4" d="M520,457.8c0,0.2-0.1,0.3-0.1,0.5c-4,0-8,0-12,0c0-0.1-0.1-0.3-0.1-0.4C511.9,457.8,515.9,457.8,520,457.8
			z"/>
	</g>
</g>
<g id="_xFFFD__x9C__x96_撅_xFFFD__6_xA0_影像_1_">
	<g>
		<path fill="#222222" d="M137.6,259.7c-2.6,0.9-4.5,2.3-6.8,2.5c-1,0.1-1.1,1.1-1.4,1.9c-1.4,3.6-1.6,7.3-1.2,11
			c0.7,8.2,1.2,16.5,2.5,24.7c0.6,3.5-2.2,5.7-3.3,9.3c-2.2-5.1-2.5-9.7-3-14.3c-0.7-6.9-1.1-13.8-1.6-20.7c-0.3-3.7,0-7.3,1.4-10.7
			c1-2.5,0.9-4.6-0.3-7.1c-2.5-5.3-3.9-10.9-5.6-16.5c-0.3-1-0.7-2-1.1-3.4c-4,6.3-4.7,12.7-3.7,19.6c1.2,8.5,1.8,17.2,2.6,25.7
			c0.3,2.7-0.9,5.1-2.1,7.5c-0.3,0.5-0.6,1.4-1.3,1.3c-0.8-0.1-0.9-1-1.1-1.7c-0.9-2.6-1.1-5.4-1.3-8.1c-1-10.2-2-20.4-2.6-30.7
			c-0.5-7.2,3-13.3,6.5-19.3c0.5-0.9,0.9-1.6,0.6-2.7c-1.4-5.2-2.7-10.4-4-15.5c-0.1,0-0.4,0-0.4,0.1c-4.3,9.3-8.1,18.9-10.6,28.8
			c-1.8,7.2-1.1,14.6-0.4,22c0.9,10.3,2,20.6,2.9,30.9c0.1,1.2,0.3,2.4-0.6,3.4c-1.1,1.3-2.2,3.4-3.8,3.1c-1.4-0.3-0.9-2.7-1-4.1
			c-1.1-11.8-2-23.7-3.4-35.5c-1.4-12.5,0.7-24.2,5.6-35.6c3.1-7.3,5.9-14.9,9.8-21.9c0.9-1.6,0-3,0-4.5c0-1.8-0.3-3.6-0.4-5.4
			c-1.2,0.2-1.4,1.1-1.8,1.7c-7.3,10.8-12,22.6-13.9,35.7c-0.8,5.6-2.5,11.2-3.9,16.7c-0.2,0.8-0.6,1.5-1.1,2.2
			c-0.5,0.7-1.2,1.2-2.1,1.1c-1.1-0.1-1-1.2-1.1-1.9c-0.7-2.5-1.2-5.1-1.9-7.7c-0.2-0.7-0.6-1.5-1.4-1.5c-1,0-0.9,1-1.1,1.6
			c-3.3,9.7-5.4,19.8-6.5,30c-0.1,0.6-0.1,1.2-0.3,2.3c-3.8-5.3-6-10.7-7.1-16.5c-2.4-13-0.9-25.5,6.5-36.9c1.7-2.7,3.8-5.1,6.1-7.3
			c5.3-4.9,8.6-11.2,12.1-17.3c4.3-7.6,9.4-14.7,17-19.2c7.7-4.5,14.8-9.8,22.9-13.6c2.5-1.2,4.8-2.5,7.2-3.7c2.6-1.3,0.1-3-0.3-4.2
			c-0.6-1.7-1.4,0-1.9,0.4c-2.9,2.1-5.8,2.3-8.4,0.6c-2.6-1.7-3.7-5.3-2.7-8.2c0.9-2.6,3.9-4.7,7.1-4.6c3.3,0.1,6.2,1.3,8.1,4.3
			c1.5,2.3,2.4,4.9,3.4,7.4c0.5,1.3,1.1,1.6,2.5,1c6.5-2.6,13-5.1,19.6-7.5c2.1-0.8,2.9-1.6,1.3-3.5c-0.7-0.8-1.2-1.8-1.8-2.7
			c-1.2,0.4-1.4,1.5-2.1,2.2c-2.1,2.2-5.1,2.8-7.7,1.4c-2.8-1.5-3.9-4.6-3.1-8c0.8-3.3,2.8-4.9,6-4.8c5.3,0.2,9,2.9,11.8,7.3
			c1,1.6,1.7,3.9,3.2,4.6c1.6,0.8,3.3-1.3,5.1-2c6.2-2.6,12.4-5.1,19.4-4.9c4.2,0.1,8.3,0.7,12,2.9c1.2,0.7,1.7,0.7,2.4-0.6
			c9.9-19.2,24.6-34,42.1-46.4c10.9-7.7,21.5-15.8,33.7-21.5c9.4-4.3,19.3-7,29.7-6.9c1.5,0,2.9-0.2,4-1.4
			c8.2-8.3,18.3-13,29.7-14.9c31.5-5.1,56.8,5.6,76,30.8c8.3,10.8,14.2,23,19.9,35.3c0.5,1.1,1.1,2.3,0.5,3.6
			c-0.8,1.7-2.8,1.9-4.3,0.4c-1.1-1.1-1.6-2.6-2.3-4c-6-12.2-11.9-24.3-20.6-34.9c-15.5-18.9-35.4-27.9-59.8-26.8
			c-10,0.4-19.6,2.8-28.2,8.3c-1.6,1-3.1,2.2-5,3.6c5.8,1,10.8,3.1,15.9,4.9c21.3,7.5,37,21.4,47.5,41.4
			c8.6,16.5,14.7,33.8,17.9,52.1c0.3,1.6,0.8,3.2,1.1,4.8c0.3,1.7,0,3.2-1.9,3.7c-1.9,0.4-3-0.7-3.4-2.3c-1.2-4.9-2.2-9.9-3.3-14.9
			c-3.5-15.5-9.4-30.1-17.1-44c-10.5-18.7-26.5-30.5-46.7-36.9c-6.3-2-12.6-2.9-19.2-3c-16.5-0.4-30.3,6.5-43.6,15
			c-11.2,7.2-21.6,15.3-31.9,23.8c-6.7,5.5-12.2,12.1-17.3,19.2c-1,1.4-0.9,2.3,0.3,3.5c5.7,5.7,6.5,11.3,2.8,18.4
			c-2.8,5.2-6.3,10-9.9,14.7c-1.4,1.8-3.1,3.4-5.4,3.9c-1.2,0.2-1.3,0.8-0.9,1.7c0,0.1,0.1,0.2,0.1,0.3c2.2,7.6,4.5,8.3,10,2.5
			c20-21.4,45.3-33,73.2-39.5c14.1-3.2,28.1-1.5,41.5,3.5c14.6,5.4,22.8,16.8,26.9,31.2c6.8,24,11.5,48.3,10,73.4
			c-0.8,14-6.8,25.8-17.7,34.6c-7,5.7-15,6.5-23.1,2c-16.1-9-31.2-19.6-46.1-30.5c-4.3-3.2-8.8-6.1-13.1-9.3c-1.3-1-1.9-0.9-2.8,0.6
			c-4.3,7.1-10.5,12.5-16.6,17.9c-2,1.8-3.9,1.4-6.5-1c-8.1-7.6-13.8-16.5-16.4-27.4c-0.2-1-0.4-2-0.6-2.9c-0.2-1-0.4-1.9-0.6-3.4
			c-1.4,2.8-1.2,5.3-0.6,7.6c2.6,11,7.4,21.2,12.4,31.3c11.2,22.7,26.5,42.5,43.6,61c24.4,26.3,50.9,50.4,78.1,73.7
			c12.5,10.7,24.7,21.8,38.3,31.1c12.3,8.4,25.8,14.7,39.4,20.7c8.8,3.9,17.6,4,26.5,4.4c11.6,0.5,23.1,2.2,34.7,3.2
			c8.9,0.8,17.8,1.4,26.6-0.1c1.5-0.3,2.8,0,3.3,1.6c0.5,1.5-0.3,2.6-1.5,3.4c-1,0.6-2.2,0.9-3.4,1c-10.4,0.9-20.7,0.5-31-0.9
			c-11.8-1.5-23.7-2.6-35.6-3.1c-8-0.3-16.2-1-23.5-4.2c-4-1.7-7.9-4.2-11.9-6c-18-8.2-33.8-19.7-48.9-32.4
			c-26.2-22.1-52-44.7-76.3-68.8c-16.6-16.5-32.7-33.4-46.1-52.7c-11.6-16.6-21-34.4-27.9-53.5c-0.2-0.5-0.4-1-0.6-1.5
			c-0.1-0.1-0.2-0.2-0.4-0.3c-0.8,0.8-0.5,1.9-0.6,2.8c-0.1,1.1-0.4,2.2-1.5,2.3c-1.2,0.1-1.3-1.1-1.4-2c-0.8-5.2-2.1-10.3-0.8-15.6
			c0.5-2.1,0.6-4.3,0.9-6.5c0.1-1.2-0.3-1.6-1.4-0.9c-5.1,3.2-5.6,1.2-5.6,8.2c-0.1,10.2-2.3,20.2-3.6,30.3
			c-0.7,4.9-1.6,9.9-2.4,14.8c-0.1,0.7-0.3,1.4-0.5,2.1c-0.4,1-1.1,1.7-2.2,1.7c-1.3-0.1-1.2-1.3-1.3-2.1c-0.9-4.7-0.3-9.4,0.5-14
			c1.7-10.2,3.7-20.4,4.6-30.7c0.5-5.6,0.4-5.3-4.9-4.4c-21.8,3.7-40,14.9-57.8,27.1c-0.8,0.6-1.7,1.2-1.9,2.2
			c-1.8,6.4-4.2,12.6-4.6,19.4c-0.6,9.8,1,19.4,2,29c0.2,2.3,0.7,4.7,0.7,7c0,2.3,0.7,2.9,3,2.5c8.2-1.6,16.5-2.9,24.7-4
			c12.2-1.7,24.4-2.7,36.6-3.6c3.5-0.3,7.1-0.5,10.6-0.8c1.9-0.1,4-0.4,4.3,2.1c0.3,2.6-1.9,2.8-3.7,3c-13.2,1.2-26.4,2.3-39.6,3.9
			c-11,1.4-21.9,3.1-32.8,5.1c-1.7,0.3-2.2,0.9-2.2,2.8c0,3.1-2,5.7-3.9,8.5c-1.6-2.6-1.2-5.4-1.6-7.9c-0.2-1.4-0.6-1.9-2-1.6
			c-24.2,5.1-47.9,11.4-69,24.9c-8.1,5.2-15.9,10.9-22.5,18c-4.4,4.8-8,10.1-8.8,16.9c-0.9,8.2,2.1,14.8,8.7,19.7
			c7.2,5.4,15.7,7.4,24.4,8.8c27.6,4.4,55.4,5.8,83.4,4.1c23.9-1.5,47.6-3.8,71.4-6c13.4-1.2,26.9-1.5,40.3-1.7
			c14.3-0.3,28.5-0.4,42.8-0.5c6.5-0.1,12.9-0.8,18.9-3.3c1.8-0.7,3.5-0.7,4.3,1.3c0.8,2.1-0.7,3.2-2.4,3.9
			c-5,2.1-10.2,3.3-15.6,3.4c-19.6,0.4-39.3,0.8-58.9,1.1c-18.8,0.3-37.5,2.3-56.3,4.1c-29.8,2.7-59.6,5.5-89.5,3.5
			c-15.9-1.1-31.9-2.2-47.5-5.9c-6-1.4-11.8-3.5-17.1-6.9c-12.4-8.1-16.4-23-9.5-36.1c4.6-8.8,11.7-15.2,19.4-21.1
			c19.3-14.9,41.3-24,65-29.6c5.5-1.3,10.9-2.7,16.5-3.7c2.8-0.5,3.3-1.5,3.1-4.3c-0.9-11-3.3-22-2.5-33.1
			C136.2,271.6,136.5,265.9,137.6,259.7z M241.8,206.3c-0.3,3.2-0.5,6.2-0.7,9.1c-0.1,1.1,0.7,1.3,1.5,1.5
			c11.9,3.8,22.6,9.8,32.8,16.8c14.3,9.8,27.9,20.6,42.6,29.8c6.2,3.9,12.1,8.3,19,11.2c6.2,2.7,12,2,17-2.5
			c5.9-5.3,9.8-11.9,11.5-19.7c3.4-15.4,2.8-30.9,0.9-46.4c-1.5-12.2-4.1-24.3-7.9-36.1c-3.6-11.2-9.7-20.6-20.9-25.5
			c-11.8-5.2-24.3-6.7-37.1-4.9c-12.4,1.7-24,6.2-35.4,11.4c-10.7,4.9-20.9,10.6-29.7,18.5c-1.9,1.7-1.9,2.8-0.2,4.4
			c8,8,12.5,18,15.6,28.6c0.8,2.7,2.4,5.5-1.8,6.8c-0.2,0.1-0.3,0.6-0.5,0.9c-1.4,2.1-3.4,1.9-4.7-0.3
			C243.2,209,243.1,207.5,241.8,206.3z M229.6,175.5c-2.5,2.3-4.4,4.2-6.5,5.9c-5.9,4.7-12.1,3.1-14.8-4c-3.6-9-4-18.1-0.4-27.3
			c1.4-3.6,1.4-3.8-2.6-4.7c-8-1.9-15.9-0.4-23.3,2.3c-13,4.8-25.6,10.5-38.4,15.8c-8.5,3.5-16.3,8.3-24,13.3
			c-4.1,2.7-5.3,6.7-5.6,11.2c-0.9,11.7,2.3,22.9,5.1,34c2.6,10.3,5.9,20.4,8.9,30.6c0.7,2.5,2.4,3.2,5.2,2.4c3.1-0.9,5.4-3.3,8-5.1
			c19.3-13.5,38.9-26.1,62.7-30.2c9.4-1.6,17.3-6.3,24.4-12.5c0.8-0.7,1.9-1.3,1.9-2.8C230.5,194.9,229.5,185.5,229.6,175.5z
			 M236.1,225.2c0.1,0.3,0.1,0.9,0.2,1.4c1.8,8.1,5.3,15.4,10.8,21.6c4.6,5.2,4.6,5.2,9.6,0.5c0.5-0.5,1.1-1,1.6-1.5
			c3.1-3.1,6.2-6.4,8.4-10.3c0.6-1,0.8-1.7-0.4-2.4c-8.4-5.1-17-9.8-26.5-12.4C237.6,221.5,236.1,222.7,236.1,225.2z M211.3,162.8
			c3.7-4.2,6.9-8,10.3-11.7c4.2-4.7,4-7.4,0.7-13.2c-0.9-1.5-1.4-1.5-2.3,0c-3.4,5.8-6.4,11.7-8.1,18.3
			C211.4,158.1,210.7,160,211.3,162.8z M228.2,217.2c2.3-1.7,5.7-0.2,7.3-2.4c1.4-2,0.8-4.9,0.7-7.5
			C234.1,211.1,228.7,212.1,228.2,217.2z M235.1,182.4c-0.1,4.5,2.9,6.2,5.1,8.5C239.1,188,237.7,185.3,235.1,182.4z M133.4,149.6
			c0-0.9-0.6-1-1.3-0.9c-1.1,0.1-2,0.4-2,1.7c0,0.8,0.5,1.4,1.3,1.3C132.7,151.5,133.2,150.6,133.4,149.6z"/>
		<path fill="#222222" d="M238.9,373.8c-0.7-1.1-1.2-1.9-1.8-2.7c-1.1-1.4-2.1-1.8-3.8-0.6c-4,2.8-8.9,2.3-12.5-1.1
			c-0.9-0.9-1.6-0.9-2.6-0.4c-2.8,1.3-5.7,1.9-8.7,1c-4.1-1.3-6.1-4.7-5.1-8.9c0.1-0.6,0.5-1.2,0.2-1.8c-1.7-4.1-0.1-7.4,3.1-9.8
			c3.1-2.4,6.6-2,9.9,0c0.2,0.1,0.5,0.1,0.9,0.2c0.3-1.6,0.2-3.3,0.8-4.8c2.1-4.9,6.8-6.4,11.1-3.2c1.3,1,1.7,0.9,2.4-0.6
			c2.2-4.5,5.6-7.5,10.7-8.4c1.2-0.2,1.8-1,2.5-1.8c4-4.9,9.9-5.6,14.9-1.7c0.8,0.6,1.3,0.9,2.3,0.4c5.3-2.4,9.5-0.5,11.2,5.1
			c0.3,1.1,0.6,2.3,0.6,3.5c0,2.1,0.4,3.7,2.5,4.9c1.7,0.9,2.4,2.9,2.8,4.8c0.5,3,1.6,5.4,4.5,6.9c1.7,0.9,1.4,2.7,0.1,3.9
			c-1.9,1.8-2.9,4.1-4.3,6.3c-1,1.6-0.5,2.6,0.3,3.9c0.9,1.4,1.9,1,3.1,0.7c2.7-0.8,5.4-1.6,8.1-2.4c1.6-0.5,3-0.6,3.8,1
			c0.9,1.8,0.1,3.3-1.6,4.1c-2.5,1-5.1,1.8-8,2.8c1.2,1.5,2.6,2.8,2.1,4.8c-0.6,2.2-2.5,3.2-4.3,4.3c-3.8,2.3-7.6,4.6-11.5,6.8
			c-2.9,1.7-4.7,1.1-6-2c-1.1-2.6-2.1-5.2-3.1-7.9c-0.4-1.2-1-1.7-2.4-1.6c-6.3,0.7-12.5,0.6-18.8,0.2c-22.4-1.2-44.4,1.2-66.5,4.7
			c-15,2.4-29.9,5.1-45.2,4.6c-10.8-0.3-21.6-1.3-32-4.4c-5.9-1.8-10.5-5.1-11.3-11.8c-0.8-6.5,4.3-15,10.3-17.5
			c1-0.4,2.1-0.8,3.1-0.2c0.8,0.4,1.2,1,1.3,2c0.1,1.4-0.7,2.1-1.9,2.7c-3.5,1.7-5.8,4.6-7,8.3c-1.6,4.7-0.1,8.3,4.5,10.3
			c5.2,2.3,10.9,2.8,16.4,3.8c17.5,2.9,34.8,1,52.1-1.8c23.8-3.8,47.6-7.2,71.8-6.4C238.1,374,238.3,373.9,238.9,373.8z
			 M279.4,358.9c0.2-3.1-0.6-5.9-2.7-8.1c-1.3-1.3-1.6-2.6-1.7-4.3c-0.5-7.9-6.5-14.1-14.2-15.3c-3.3-0.5-6.6,0.1-9.9-1.3
			c-1.6-0.7-3.3,0.7-4.3,2.2c-1,1.4-1.6,3.1-1.9,4.8c-0.2,1.2-0.6,1.9-2.1,2.4c-4.3,1.4-6,5.7-3.9,9.8c0.4,0.9,0.1,1.3-0.2,1.9
			c-2.7,5.4-1.6,10,3.3,13.6c0.7,0.5,1.3,0.8,0.9,1.9c-1.5,5.2,4.1,9.5,8.5,9.2c3.1-0.2,5.8-1.4,8.4-3c2-1.3,4.9-0.2,5.7,2.1
			c1.3,3.7,2.7,7.3,4.5,10.8c0.7,1.4,1.8,2.5,3.5,1.8c3.3-1.4,6.5-2.7,9.4-4.9c1-0.7,1.5-1.6,1.1-2.8c-1.5-4.1-3.3-8.1-6.3-11.3
			c-0.9-0.9-0.8-1.2-0.2-2C278.8,364.1,279.6,361.6,279.4,358.9z M232,360.5c-1.9,1.1-3.7,1.5-5.6,1.5c-1.9,0-1.8,1.9-2.1,2.9
			c-0.4,1.1,0.9,1.6,1.9,1.9C229.2,367.6,233.6,365.4,232,360.5z M214.9,360.8c-1.4,0-2.5,0-3.7,0.4c-1,0.4-1.9,1-1.8,2.1
			c0.1,1.3,1.3,1.6,2.4,1.8c1.3,0.2,2.6-0.1,3.7-0.7c1.3-0.7,3.6-1.1,3.4-2.5C218.5,360.4,216.2,361,214.9,360.8z M225.7,352
			c-1.8,0-3.6,0.8-3.5,2.6c0.2,2.4,2.7,1.7,4.3,1.9c1.4,0.2,3.3-0.4,3.2-1.7C229.5,352.9,227.7,351.9,225.7,352z M216.5,355.5
			c-3.7-3.3-5.9-3.1-6.9,0.5C211.8,355.9,213.9,355.7,216.5,355.5z"/>
		<path fill="#222222" d="M594.8,289.7c-1.4-0.8-1.7-2.1-1.9-3.5c-3.9-25.7-7.7-51.3-11-77.1c-3.1-24.7-10.3-48.4-20.7-71.1
			c-6.3-13.8-11.9-27.9-20.5-40.5c-10.1-14.9-22-28-37.1-37.9c-6.8-4.5-14.1-7.6-22.5-6.8c-3,0.3-5.9,0.8-8.3,3
			c-1.1,1-2.5,1.4-3.6,0.2c-1.3-1.4-0.8-2.9,0.4-4.1c3.5-3.5,8.2-4.2,12.8-4.4c7.6-0.4,14.5,1.8,21,5.6
			c14.9,8.8,26.7,20.8,37.1,34.5c10.9,14.3,18,30.6,25.3,46.9c9.3,20.8,16.4,42.3,20.3,64.8c2.2,12.6,3.2,25.4,5.1,38.1
			c2.1,13.9,4.1,27.8,6.4,41.7C598.3,283,597.1,286.4,594.8,289.7z"/>
		<path fill="#222222" d="M429.4,50.4c-3.1-0.1-6.2,0.3-9.2,1.2c-1.5,0.4-2.9,1-3.8,2.5c-0.8,1.4-1.9,2.4-3.6,1.4
			c-1.8-1.1-1.5-2.8-0.6-4.3c1.4-2.4,3.7-3.7,6.3-4.5c4.8-1.4,9.8-1.8,14.8-1.4c18.4,1.3,31.5,11.3,42.6,25.1
			c7.6,9.4,13.2,20,18.6,30.7c1.3,2.7,2.6,5.4,4.3,7.9c0.8,1.2,0.9,2.4-0.1,3.5c-1.2,1.2-2.5,0.9-3.7,0.1c-1.3-0.8-2-2.1-2.6-3.4
			c-3.3-6.4-6.4-12.8-9.9-19.1c-6.2-11.1-13.7-21.2-23.7-29.2C450.1,54,440.3,50.7,429.4,50.4z"/>
		<path fill="#222222" d="M158.8,221.9c-0.2-1.7,0.3-4,1-6.3c0.8-2.8,1-5.5-0.1-8.3c-0.7-1.9,0.3-3.3,1-4.9c0.8-1.9,1.2-3.5-0.2-5.6
			c-1.3-1.9,0.3-3.3,2-4.1c9-4.4,18.2-8.6,27.7-11.9c3.2-1.1,6.4-2,9.6-2.9c1.4-0.4,4.9,2.9,4.6,4.3c-0.1,0.7-0.8,0.7-1.3,0.8
			c-10.1,2.1-19.5,6.1-28.9,10.2c-4.4,1.9-6.9,4.9-7.6,10.2c-0.8,6.2-1.7,12.4-2.2,18.6c-0.2,2.1-1.5,3.7-2.9,5.1
			c-1.3,1.4-2.4,1.1-2.7-0.7C158.6,225.2,158.8,223.9,158.8,221.9z"/>
		<path fill="#222222" d="M250,333.9c0.3,2.4,1.6,3.7,3.3,2.3c3.4-2.9,6.8-1.4,9.9-0.2c4.7,1.7,6.9,5.6,7.8,10.3
			c0.1,0.6,0.6,1.7-0.5,1.8c-0.9,0.1-2.1,1-2.9-0.5c-0.4-0.8-1-1.6,0-2.4c0.8-0.6,1.8-1.4,1.1-2.4c-0.7-0.9-1.8-0.5-2.7,0
			c-1.4,0.8-1.4-0.2-1.6-1.1c-1.2-3.9-3.4-5.5-6.4-4.8c-2.1,0.5-3.3,1.8-3.2,4c0,0.9,0.5,1.6,1.4,1.8c0.9,0.2,1.6-0.2,1.9-1.1
			c0.2-0.8,0.4-1.5,1.4-1.2c1.1,0.3,1.4,1.4,1.5,2.4c0.1,1-0.8,0.7-1.4,0.8c-1.9,0.4-3.7,1-5,2.6c-1.4,1.8-2.8,1.4-4.2,0.3
			c-2.4-1.9-3-4.4-2.2-7.3C248.5,337.4,248.6,335.6,250,333.9z"/>
		<path fill="#222222" d="M247.3,361.7c-3.7,0.2-5.7-1.5-6.5-4.7c-0.6-2.7,0.6-5,3.5-6c1.5-0.5,1.7-1.6,1.8-3c1.9,1.5,4,2.3,6,3.3
			c1.8,0.9,3.9,2.7,4.4,4.9c0.9,4,2,5,6.1,4.2c0.3,0,0.5,0,1.2-0.1c-2.3,2.8-4.8,4.5-8.8,5.4c1.6-1.1,1.3-2.6,2.5-3.4
			c0.6-0.4,0.4-1.1,0-1.7c-0.5-0.7-1.2-0.8-1.9-0.8c-1,0-1.8,0.7-2.7,1.2c-0.5-0.7,0.2-0.9,0.4-1.2c0.5-0.8,0.7-1.5,0.1-2.2
			c-0.6-0.7-1.4-0.6-2.2-0.3c-2.1,0.8-4.2,1.4-4.2-2.1c0-0.9-0.8-1.4-1.8-1.3c-1,0.1-1.7,0.7-1.9,1.7c-0.4,1.6,0.3,2.9,1.3,3.9
			C245.4,360.2,246.2,360.8,247.3,361.7z"/>
		<path fill="#222222" d="M265.9,359.1c1-2.1,1.9-3.3,4.2-2.9c1.6,0.3,2.7-1.2,3.7-2.4c1.2,1,1.4,2.2,1.7,3.4
			c0.4,1.7,0.6,3.2-1.3,4.2c-1.8,1-3.5,0.7-5-0.4C268.2,360.3,267.6,359,265.9,359.1z"/>
		<path fill="#222222" d="M251.7,363.3c0,1.4-0.6,2.1-2.1,2c2.5,2.2,4.2,4.8,8.1,3.5c-3.1,3.2-7,4-9.6,2.4c-2.8-1.8-2.7-4.3,0.2-5.8
			C249.5,364.9,250.4,364.1,251.7,363.3z"/>
		<path fill="#222222" d="M264.5,353.8c-0.9-2.4-2.4-2.6-4.1-2c-1.7,0.6-3.4,0.4-3.8-1.4c-0.5-2,1.2-2.8,2.9-3.2
			C263.2,346.4,265.3,348.8,264.5,353.8z"/>
		<path fill="#222222" d="M271.8,366.1c-1.7,2.5-4.5,1.9-6.7,2.9c-0.5,0.2-1.3,0.1-1.2-0.9c0.2-1.4,0.1-2.8,1.5-3.8
			c1.4-1.1,1.9,0.3,2.8,0.6C269.3,365.2,270.5,365.7,271.8,366.1z"/>
		<path fill="#222222" d="M273,383.3c-0.4,0-0.6-0.5-0.8-1c-1.2-2.8-2.3-5.6-3.5-8.5c-0.2-0.5-0.6-1.2,0.4-1.6
			c0.9-0.3,1.1,0.4,1.3,1c1.2,2.8,2.3,5.6,3.6,8.4C274.2,382.6,274.3,383.1,273,383.3z"/>
		<path fill="#222222" d="M245.3,346.9c-1.4-0.6-3.6,1.5-4.1-1.1c-0.2-1.2,0.7-2.9,1.9-2.9C245.4,343,244,345.7,245.3,346.9z"/>
	</g>
</g>
</svg>
