<?xml version="1.0" encoding="utf-8"?>
<!-- Generator: Adobe Illustrator 22.1.0, SVG Export Plug-In . SVG Version: 6.00 Build 0)  -->
<svg version="1.1" xmlns="http://www.w3.org/2000/svg" xmlns:xlink="http://www.w3.org/1999/xlink" x="0px" y="0px"
	 viewBox="0 0 990 729" style="enable-background:new 0 0 990 729;" xml:space="preserve">
<style type="text/css">
	.st0{fill:#399EBB;}
	.st1{fill:#FCFCFC;}
	.st2{fill:#FEFEFE;}
	.st3{fill:#FDFDFD;}

	#sweat {
		animation: fade 3s ease-in-out infinite;
	}
	#hand1 {
		animation: enter1 3s ease-in-out infinite;
	}
	#hand2 {
		animation: enter2 3s ease-in-out .2s infinite;
	}
	#hand3 {
		animation: enter3 3s ease-in-out .4s infinite;
	}
	@keyframes enter1 {
	  0% {
	  	opacity: 0;
	  	transform: translate(130px, -60px) rotateZ(10deg);
	  }
	  10% {
	  	opacity: 0;
	  	transform: translate(130px, -60px) rotateZ(10deg);
	  }
	  30% {
	  	opacity: 1;
	  	transform: translate(0px, 0) rotateZ(0deg);
	  }
	  80% {
	  	opacity: 1;
	  	transform: translate(0px, 0) rotateZ(0deg);
	  }
	  100% {
	  	opacity: 0;
	  	transform: translate(130px, -60px) rotateZ(10deg);
	  }
	}
	@keyframes enter2 {
	  0% {
	  	opacity: 0;
	  	transform: translate(-130px, 30px) rotateZ(10deg);
	  }
	  10% {
	  	opacity: 0;
	  	transform: translate(-130px, 30px) rotateZ(10deg);
	  }
	  30% {
	  	opacity: 1;
	  	transform: translate(0px, 0) rotateZ(0deg);
	  }
	  80% {
	  	opacity: 1;
	  	transform: translate(0px, 0) rotateZ(0deg);
	  }
	  100% {
	  	opacity: 0;
	  	transform: translate(-130px, 30px) rotateZ(10deg);
	  }
	}
	@keyframes enter3 {
	  0% {
	  	opacity: 0;
	  	transform: translate(130px, 60px) rotateZ(10deg);
	  }
	  10% {
	  	opacity: 0;
	  	transform: translate(130px, 60px) rotateZ(10deg);
	  }
	  30% {
	  	opacity: 1;
	  	transform: translate(0px, 0) rotateZ(0deg);
	  }
	  80% {
	  	opacity: 1;
	  	transform: translate(0px, 0) rotateZ(0deg);
	  }
	  100% {
	  	opacity: 0;
	  	transform: translate(130px, 60px) rotateZ(10deg);
	  }
	}

	@keyframes fade {
	  0% {
	  	opacity: 0;
	  }
	  30% {
	  	opacity: 0;
	  }
	  50% {
	  	opacity: 1;
	  }
	  80% {
	  	opacity: 1;
	  }
	  100% {
	    opacity: 0;
	  }
	}
</style>
<g id="background">
	<g id="_xFFFD__x83__x8C__xFFFD__x99__xA0_影像_1_">
	</g>
	<g id="_xFFFD__x83__x8C__xFFFD__x99__2_">
		<g id="Background_color_xA0_影像_1_">
		</g>
		<g id="background_xA0_影像_1_">
			<g>
				<g>
					<path class="st0" d="M520.1,368.5c0.2,0,0.3,0,0.5,0c0,2.4,0,4.7,0,7.1h-0.3H520C518.7,373.3,518.7,370.9,520.1,368.5z"/>
					<path class="st0" d="M521.7,368.2c0,2.4,0,4.8,0,7.1c-0.6,4.6-1.2,9.2-1.9,13.8c-1.5,10.4-5.6,19.9-10.8,28.9
						c0.6,0.7,1.2,0,1.7,0c1.1,0.1,2.2,0.4,2.8,1.4c0.7,1.2,0.5,2.3-0.3,3.3c-0.5,0.7-1.2,1.4-1.8,2c-4.5,4.7-9.4,9.1-13.7,14
						c-3.8,4.4-9,6.8-14.2,8.8c-5.9,2.3-12.1,4-18.1,5.9c-0.6,0.2-1.2,0.2-1.9,0.3c-1.6,0.1-2.9-0.3-3.7-1.8
						c-0.8-1.4-0.3-2.7,0.6-3.8c2.8-3.4,3.8-7.8,5.1-11.8c1.4-4.2-0.8-8.4-2.6-12.2c-1.5-3.4-3.1-6.7-4.5-10.2s-1.8-7-0.6-10.6
						c0.6-1.8,1.7-3.3,3.5-4c1.5-0.6,3.5-0.7,3.9,1.1c0.4,1.9,1.5,1.9,2.8,2c2.6,0.3,5.2,0.6,7.8,1.3c5.7,1.4,9.7,5.1,12.7,10
						c1.6,2.6,3.8,4.1,6.9,4.3c0.9,0.1,0.4-0.3,0.5-1.8c0.5-7.8-1.9-12.8-1.7-20.7c0.1-4.9,2.4-11.5,3.3-16.3
						c0.3-1.5,2.9-3.4,4.7-3.7c1.7-0.2,2.6,0.6,2.8,2.2c0.2,1.2,0.9,0.8,1.6,0.4c1.7-1,3.4-2,4.7-3.7c1.1-1.5,2.3-2.8,4.4-2.8
						c1.6,0,0.9-1.5,1-2.3c0.2-1.3,0.5-2.5,1.9-3C520.1,366.2,521.1,367,521.7,368.2z"/>
					<path class="st0" d="M429.5,324.9c-6.9,0.9-13.5,2.8-19.2,7c-6.6,4.9-7.9,10.2-4.5,17.6c0.6,1.2,1.1,2.5,1.7,3.7
						c1,2.2,1.1,4.4-0.3,6.5c-2.2,3.3-1.9,6.7-0.2,10.1c1.6,3.1,3.3,6.1,5.2,8.9c0.7,1,1.2,2,1,3.3c-0.3,1.9,0-1.7-1.7-2.6
						c-0.4-0.2-2.5,0.7-2.7,0.3c-1.8-4.1-6.3-2.2-9.6-4.6c-16.2-11.8-21.3-30.5-13.7-49.1c0.9-2.3,1.8-4.6,3.3-6.6
						c1.5-2.1,3.3-4,6.3-3.4c1.7,0.3-0.9-2-0.5-3c2.2-7.1,9.3-13.2,14.3-18.3c1.5-1.6,4-1,6.1-1.7c7.2-2.4,11.4-0.4,13.8,6.7
						c1.9,5.7,2.6,11.7,3.4,17.6C432.5,320.4,430.4,322.5,429.5,324.9L429.5,324.9z"/>
					<path class="st0" d="M419.7,434.6c0.3-1.9,0.8-3.9,1.7-5.8c2.5-5,5.4-9.7,9.5-13.5c2.9-2.6,5.8-5.2,8.8-7.7
						c0.9-0.8,2.1-1.4,3.3-1.8c2-0.6,4.4,1.1,3.7,2.7c-1,2.1,0.3,3.2,1,4.8c1,2.2,1.6,4.6,1.9,7.1c0.3,2.7-1.1,4.6-3.8,4.5
						c-4.5-0.1-8,1.3-10.1,5.4c-0.5,1-1.5,1.7-2.6,1.7c-3.4,0-5.5,2-7.5,4.3c-0.3,0.3-0.6,0.7-1,0.9c-1,0.8-2.2,1-3.3,0.3
						C420.2,436.9,419.7,436,419.7,434.6z"/>
					<path class="st0" d="M429.4,324.9c4.1-0.4,6.6-1.8,6.4,2.2c0,0.3,1.2,2.1,1.3,2.3c2.7,4.2-1.5,9-1.8,13.6
						c-0.4,8-3,15.8-4.4,23.6c-0.2,1.3-0.9,2.5-1.5,3.8c-0.8,1.8-2,3.3-4.2,2.5c-2.3-0.8,0.2-3.7,1.2-5.2c1.7-2.6-0.4-4.7-1-7.8
						c-0.1-0.7,0.5-1.5,0.8-2.3c1.4-3.4,1.3-6.9,0.9-10.5c-0.2-2-2-2.9-3.3-4.2c-2.7-2.7-3.6-5.8-2.9-9.4c0.6-3,2.2-5.2,5.2-6.1
						C427.6,327.1,428.6,326.1,429.4,324.9C429.5,324.9,429.4,324.9,429.4,324.9z"/>
				</g>
				<g>
					<g>
						<path d="M337,389.6c-6-8.7-8-17.7-4.8-27.7c1.6-5.1,4.4-9.5,8.6-12.6c6.7-4.8,11.8-10.9,16.2-17.8c6.6-10.4,16-16.7,28-19
							c1-0.2,2-0.4,3-0.3c2.4,0.1,2.5-2,3.3-3.4c0.4-0.7-0.5-0.8-1-0.9c-4.3-0.8-8.5-2-12.6-3.4c-1.2-0.4-1.9,0.1-2.7,0.7
							c-2.3,1.8-4.6,3.6-6.9,5.3c-1.5,1.1-3.1,2-4.6,0.3c-1.3-1.6-0.7-3.5,0.7-4.6c5-4.2,9.8-8.7,16.9-9.5
							c6.3-0.7,12.4-1.4,18.7-0.2c1.5,0.3,2-0.8,2.8-1.7c-7.6-5-15.8-4.7-24.2-3.5c-1.8,0.3-3.6,0.6-5.4,0.8
							c-1.4,0.1-2.1-0.4-1.9-2.1c0.3-2.5,1.2-4.1,3.8-4.8c3.4-0.9,7.2-1.6,9.9-3.6c3.1-2.3,6.3-2.5,9.7-2.5c7.9,0,15.4,2,22.3,5.5
							c3.2,1.7,6.7,2.8,9.8,4.8c1.1,0.8,1.9,0.6,2.9-0.2c0.8-0.6,1.6-1.2,2.5-1.7c1.4-0.7,2.9-0.8,3.9,0.6s0.6,2.9-0.7,3.6
							c-3.5,1.8-2.5,3.9-1.2,6.7c2.6,5.7,2.8,12,2.9,18.2c0,1.4,0.2,2.5,1.5,3.7c1.9,1.8,2.2,4.7,2.4,7.3c0.4,4.5,0.3,9.1-0.4,13.6
							c-0.3,1.5,0.1,2.4,1.5,3.2c2.6,1.6,5.5,2,8.3,2.5c3.5,0.7,6.4,2.1,8.9,4.8c6.5,7,14.8,10.9,23.7,13.8c1.4,0.5,2.4,1.2,3.1,2.5
							c1.8,3.3,4.3,6.1,6.7,8.9c0.7,0.9,1.3,1.3,2.4,0.5c0.9-0.6,2-0.8,3.1-1.1c9.4-2.9,17.7-7.5,23.6-15.6c0.9-1.3,2.3-1.8,3.7-2
							s2-0.8,2.5-2.1c2.4-6.5,3.8-13.3,5.4-20c0.2-0.9,0.4-2,0.1-2.7c-1.5-3.2-0.2-5.7,1.3-8.4c1.1-1.8,1.3-3.9,0.8-6.1
							c-0.7-3.4,1.2-5.3,4.6-4.4c0.8,0.2,1.7,0.5,2.1,1.1c3.5,4.9,9,6,14.1,8.1c13.6,5.6,25,14.4,35,25c3.4,3.6,6.1,7.7,8.2,12.1
							c7.5,15.6,4.5,29.9-5.4,43.2c-6.6,8.9-16.2,13.1-26.4,16.5c-14.5,4.8-29.4,6.7-44.6,6c-5.8-0.3-9.1,1.2-12.8,5.7
							c-9,10.9-20.4,18.6-34.3,21.9c-8.6,2-17.3,2.1-26,0.4c-4-0.8-7.5-2.6-10.9-4.8c-1.3-0.9-2.2-2-1.6-3.7c0.5-1.7,1.9-2,3.5-2
							c2.1,0,4.2,0,6.2,0c0.5-0.8-0.2-1.2-0.4-1.8c-1.1-2.8,0.1-4.9,3.1-5.3c1.7-0.2,3.4-0.3,5.2-0.3c1.7,0,1.8-1,1.3-2.2
							c-0.3-0.9,0-2.7-2.1-1.8c-2.1,0.9-4.1,0.4-6-0.8c-1.5-1-2.7-0.7-3.8,0.6c-1.2,1.4-2.4,2.7-3.6,4.1c-1.7,2-4,2.9-6.4,2
							c-3.8-1.4-6.5,0.1-9.1,2.6c-0.7,0.7-1.4,1.4-2.2,2.1c-1.3,1.2-2.9,1.6-4.5,0.8c-1.7-0.8-1.8-2.4-1.6-4
							c1.7-11.8,5.7-22.5,14.8-30.8c1.3-1.2,2.6-2.3,4-3.6c-2.6-1-4.9-2-7.3-2.9c-0.7-0.3-1.2,0.1-1.8,0.4
							c-6.6,2.7-13.3,4.8-20.6,3.2c-2.4-0.5-4.9,0.5-7.2,1.1c-5.2,1.2-10.1,0.9-14.6-2.3c-0.3-0.2-0.8-0.3-1.2-0.5
							c-0.5,2.2-0.9,4.2-1.6,6.2c-1.8,5.1-5.6,8.1-10.9,8.5c-7.7,0.7-15.4,1.7-23.1,0.7c-3.3-0.4-6.5,0.3-9.8,0.7
							c-1.6,0.2-3.3,0.4-4.9,0.3c-3.3-0.1-6-2.3-6.3-5.6c-0.6-7,0.4-13.8,3.4-20.2C331.4,392.6,333.9,390.8,337,389.6z M417.3,340.2
							c-2.7,2.5-3.3,4.7-1.9,7.5c0.7,1.4,1.6,2.6,2.6,3.8c2.8,3.5,3.4,7.1,0.8,11c-2,3.1-2.1,6.2-0.5,9.6c1.9,4.3,2.3,8.8,1.1,13.3
							c-0.4,1.5-0.9,2.8-2.6,3.2c-1.6,0.3-2.8-0.5-3.8-1.7c-1.4-1.9-3.1-3.5-5.1-4.9c-3.9-2.7-7.8-5.4-12-7.5
							c-7-3.4-11.6-8.9-13.7-16.1c-3.4-11.4-2.8-22.8,1.4-33.9c0.8-2.2,1.8-4.3,2.9-6.7c-3.5,0.6-6.5,1.7-9.4,2.9
							c-7.6,3.2-12.5,9.2-16.6,15.9c-3.9,6.3-8.8,11.7-14.8,16.2c-9.1,6.9-11.5,17.3-7.1,28c2.1,5.1,5.6,7.8,11.2,7.9
							c4.8,0.1,9.5,0.5,14.3,1.7c8.8,2.3,17,5.6,24.6,10.7c1.8,1.2,3.8,2,5.9,1.5c5.9-1.2,11.7-1.3,17.8-1.3c9,0,16.7-4.4,22.5-11.6
							c1.9-2.4,2.8-5.3,3.2-8.3c0.1-0.7,0.4-1.6-0.3-2c-2.4-1.7-4.3-3.7-4.5-7c-0.6,0.6-0.8,0.9-1,1.3c-1.3,2.5-2.7,4.9-5,6.8
							c-1.3,1.1-2.8,1.4-4.3,0.4c-1.4-1-1.5-2.4-1-3.9c0.4-1.2,0.8-2.4,1.3-3.6c1-2.8,1.3-5.5-0.4-8.1c-0.8-1.3-0.9-2.8-0.7-4.2
							c0.4-2.5,0.8-5,1.4-7.5c0.4-1.4,0.1-2.6-0.9-3.5C419.8,347.5,417.6,344.4,417.3,340.2z M518.9,421.1c1.7,0.6,3.3,0.7,4.9,0.7
							c14.1-0.2,28.1-1.3,41.6-5.9c7.4-2.5,14.6-5.1,20.4-10.6c11.6-10.9,14.8-26.1,8.7-40.5c-1.7-3.9-4-7.4-6.8-10.5
							c-9.9-10.7-21.2-19.6-34.8-25.2c-3.8-1.6-7.9-2.5-11.4-5.6c-0.7,2.4-1.6,4.4-2.4,6.3c-1.2,2.7-0.1,4.3,2.8,4.8
							c1.9,0.3,3.8,0.6,5.6,1c7.7,1.7,15.6,2.7,22.9,6c2.5,1.1,6.1,2.3,6.4,5c0.6,5.4,1.1,11.1-2,16.1c-0.4,0.7-0.1,0.9,0.3,1.3
							c1.4,1.5,1.7,3.4,2,5.2c1.1,6.4,0.7,12.9-0.2,19.3c-0.6,4.5-1.2,9-2.7,13.3c-0.6,1.7-1.5,3.2-3.6,3.2c-2.2,0-3.1-1.5-3.7-3.3
							c-0.1-0.3-0.2-0.7-0.3-1.1c-2.8-10-3.3-20.2-2.4-30.5c0.1-1,0.1-1.7-1.1-2c-3.1-0.7-6.3-1.5-10.2-2.5c2.9,2.5,5.1,4.5,7.3,6.5
							c1.6,1.4,2.9,3.1,2.8,5.4c-0.3,5.8-0.2,11.5-1.4,17.2c-1,4.7-1.6,9.5-4.2,13.7c-0.9,1.5-2.2,2.7-4.2,2.5s-3.1-1.4-3.7-3.1
							c-0.6-1.6-1.1-3.2-1.7-5.1c-2.1,3.4-4,6.7-6.1,9.9c-1,1.6-2.4,3-4.5,2.1c-2-0.9-1.8-2.7-1.5-4.5c1.3-8.3,2.6-16.7,4.3-25
							c0.1-0.7,0.6-1.5-0.2-2c-3.4-2.4-6.1-5.6-8.3-9.1c-0.4,2.9-0.8,5.5-0.8,8.2c0.1,10-3,19.2-7.9,27.7
							C521,413.7,520.2,417.4,518.9,421.1z M490.6,412.1c0.2-8.6,0.4-17.2,1.5-25.6c0.1-1.2-0.6-1.8-1.2-2.6
							c-3.1-3.5-6.2-6.9-8.7-10.8c-0.8-1.2-1.8-1.9-3.1-2.4c-9.2-3.8-18.1-8.1-24.7-15.9c-1-1.2-2.2-1.8-3.7-2.2
							c-3.5-0.9-7.2-1.2-10.4-3c-1.3-0.7-1.3,0.4-1.5,1.1c-0.9,5.1-2,10.1-3.4,15.1c-0.3,1-0.1,1.4,1.1,1.5c2,0.1,2.9,1.5,2.8,3.4
							c-0.1,2,0.7,3.2,2.3,4.2c2,1.3,2.8,3.2,2.6,5.6c-0.6,6.6-3,12.3-8.2,16.7c-0.7,0.6-1.7,1.1-2.1,2.1c2.5,1.6,6,0.9,8,3.6
							c0,0.1,0.4,0,0.5-0.1c2.6-1.1,5.8-0.2,8.1-2.6c0.9-0.9,2.4-1.3,3.7-1.6c9.6-2.3,18.7-1.2,27.1,4.3
							C484.8,405.5,487.3,409,490.6,412.1z M452.2,449.4c12.8,2.4,25.4,0.9,38.8-7.2c8.8-5.3,20.5-17.7,21.7-23.1
							c-2.8,1.1-5.6,1.9-8.5,2c-5.4,0.2-11,1.3-15.5-3c-1.8-1.8-3.6-3.6-5.2-5.5c-6.2-7.8-18.4-11.5-27.9-8.3
							c-2.9,1-3.6,2.2-2.9,5.4c0.8,3.6,2.2,6.9,3.6,10.3c1.9,4.6,4.5,8.9,5.9,13.8c1.4,5.2-0.1,9.3-6.2,9.4c-0.9,0-1.7,0-1.5,1.3
							C454.8,446.4,454.1,448,452.2,449.4z M428.7,323.8c-4-0.7-7.2-1.4-10.5-2c-7.4-1.2-14.7-3.3-22.3-3.6
							c-2.3-0.1-3.3,0.8-4.3,2.7c-4.9,9.2-6.2,18.9-5.2,29.1c0.9,8.7,4.6,15.7,13,19.7c4.1,1.9,7.8,4.6,11.6,7.2
							c0.9,0.6,1.7,1.6,3,1.8c0.1-2.1-0.8-3.8-1.5-5.6c-1.7-4.1-1.7-8.3,0.7-12c1.8-2.8,1.6-5-0.7-7.2c-0.5-0.5-0.9-1.2-1.3-1.8
							c-3.2-5-3-10.2,0.7-14.9c1.7-2.2,3.7-4,5.9-5.6C421.2,329,424.7,326.6,428.7,323.8z M524.7,366.3
							c-11.4,10.1-11.8,10.4-25.1,15.6c-1.2,0.5-1.4,1.1-1.5,2.2c-0.8,8-1.4,16.1-1.3,24.2c0,7.9,0,8.1,7.8,6.9
							c5.7-0.8,10.7-2.7,13.8-8.4c6.8-12.5,7.5-26,6.8-39.7C525.1,366.9,524.9,366.7,524.7,366.3z M350.8,414.8
							c5.3,0.9,11.9-0.4,18.6-0.8c4.1-0.2,6.3-2.2,7.2-6.2c0.4-1.5,0.5-3,0.7-4.6c0.2-1.5-0.3-2.4-1.7-3c-7-2.6-14-5.2-21.4-5.7
							c-3.6-0.2-7.2-0.1-10.8-0.2c-5-0.2-8,1-9.5,5.8c-1.2,3.9-1.8,8-1.9,12.1c-0.1,3.2,0.5,3.7,3.7,3.2
							C340.3,414.7,344.8,414.4,350.8,414.8z M395.1,312.9c3.4,0.3,6.1,0.3,8.8,0.7c8.3,1.4,16.6,2.9,24.9,4.4
							c0.9,0.2,2.2,0.8,2.2-0.9c-0.1-6.7-0.2-13.5-4-19.4c-3.1-4.8-9.1-6.3-13.8-3.6C405.4,298.4,400.3,305.3,395.1,312.9z
							 M424.2,435.1c3.2-2.1,6.2-3.1,9.4-2.1c2.1,0.6,3.5,0.2,4.6-1.6c0.6-0.9,1.4-1.7,2.2-2.4c3.5-3.4,5.8-3.8,10.3-1.8
							c0.6,0.3,1.3,1,1.9,0.2c0.5-0.6-0.1-1.2-0.3-1.8c-2.1-4.9-4.3-9.8-5.5-15.1c-0.7-3.3-1-3.6-3.9-1.9
							C432.6,414.3,427.1,423.4,424.2,435.1z M429.4,365c2-6.2,3-12.3,4.2-18.4c1.1-5.7,1.9-11.5,1.6-17.3c-0.1-2.1-0.7-2.4-2.4-1.2
							c-2.4,1.7-4.8,3.3-7.3,4.8c-1.3,0.8-2.1,1.9-2.5,3.4c-1,3.6-0.2,6.6,2.6,9.1c3.2,2.8,4.3,6.2,3,10.3c-0.4,1.3-0.6,2.7-0.9,4
							C427.4,361.7,427.7,363.4,429.4,365z M566.5,346.2c-8.9-3.3-17.9-4.8-26.9-6.5c-1.5-0.3-1.4,1.1-1.7,1.9
							c-0.3,1.1,0.4,1.2,1.2,1.2c1,0,1.9,0.5,2.8,0.9c7.1,3.1,14.5,3.5,22.1,3.5C564.8,347.1,565.5,347,566.5,346.2z M562.6,362
							c-0.6-1.3-1.5-1.5-2.3-1.9c-7.4-3.7-14.8-7.3-22.2-10.9c-0.7-0.3-1.5-1.5-2.3-0.2c-0.6,1-0.3,1.9,0.8,2.8
							C544.2,358,553.3,359.7,562.6,362z M554.2,401.8c1.9-5.4,2.7-10.9,3.5-16.4c0.3-1.9,0-2.6-2.1-2.9c-2.6-0.3-1.8,1.3-1.9,2.4
							c-0.2,1.4-0.2,2.9-0.3,4.3C553.1,393.4,552.9,397.6,554.2,401.8z M571,390.4c0.3-2.1,0.7-4.3,1-6.4c0.5-4.5,0.8-9.1-0.1-13.6
							c-0.1-0.6,0-1.7-1-1.6c-1,0-0.8,1-0.9,1.7c-0.1,1.4-0.3,2.9-0.3,4.3C569.4,380,569.6,385.2,571,390.4z M539.6,362.3
							c4,6.5,8.4,12.4,16.5,14.1C551.2,371,545.1,367.1,539.6,362.3z M395.9,284.6c6.6,4.6,12.3,5.9,15.8,3.6
							C406.6,286.3,401.6,284.9,395.9,284.6z M533.7,364.8c1.7,5,4,9.6,8.2,13c0.4,0.3,0.9,0.6,1.3,0.9c0.7,0.4,1.5,1.1,2.1,0.2
							s-0.5-1.1-1-1.6c-1.5-1.5-3.2-2.9-4.6-4.6C537.7,370.2,535.7,367.5,533.7,364.8z M543.8,395.7c3.2-2.4,4.4-5.4,3.9-9.1
							c-0.1-0.6,0.4-1.4-0.5-1.6c-0.8-0.2-1.6,0.3-1.8,1.2C544.8,389.4,544,392.5,543.8,395.7z M388.1,301.4c2.4,1,4.6,0.9,6.6,1.4
							c0.8,0.2,1.5-0.3,1.5-1.1c0-0.9-0.9-0.7-1.5-0.7C392.7,300.9,390.5,300.7,388.1,301.4z M565.5,356.4c0-3.7-1.5-4.4-5.4-2.8
							C561.8,354.5,563.5,355.4,565.5,356.4z"/>
						<path d="M228.5,469.6c0-8.1,1.1-16.1,2.3-24.1c2.4-15.1-2.4-27.5-12.9-38.1c-3.1-3.1-6-6.3-9.2-9.3
							c-7.5-6.8-9.3-14.9-6.7-24.5c3.5-13,11-23.4,20.8-32.3c8.4-7.6,17.4-14.3,26.7-20.7c3.2-2.2,6-4.7,8.3-7.8
							c3.4-4.7,3.6-9.5,0.6-14.5c-1.2-1.9-2.5-3.8-3.7-5.7c-3-4.9-3.1-9.9-0.7-15.1c2.5-5.3,6.2-9.8,10.2-14
							c3.6-3.7,7.5-7.2,11.2-10.8c1-0.9,2-1.9,2.9-2.8c9.5-9.8,9.3-21.7-0.9-30.8c-6.7-6-13.9-11.5-20.8-17.2
							c-9.6-8-16.3-17.4-15.1-30.7c0.6-6.2,1.5-12.2,3.5-18.1c3.9-11.6,12.2-19.8,21.2-27.5c19.3-16.6,41.2-28.3,65.4-36
							c4.8-1.5,9.4-3.3,14.1-5c1.5-0.5,3-0.6,4.5,0c1.3,0.5,2.1,1.5,1.9,2.9c-0.3,1.5-1.3,2.2-2.8,2.1c-2-0.2-3.8,0.4-5.5,1.1
							c-11.2,4.4-22.5,8.4-33.4,13.2c-18.9,8.2-35.2,20.4-49.8,34.8c-8.3,8.2-11.5,18.6-13.2,29.8c-1.8,12.4,3.6,21.2,12.6,28.7
							c7,5.8,14.2,11.4,21,17.4c7.5,6.6,10.8,15.1,9.6,25.1c-0.6,4.7-3.1,8.5-6.1,11.9c-4.3,4.9-9.5,8.9-14.1,13.6
							c-4,4.1-7.8,8.4-10.6,13.4c-2.3,4.1-2.3,8.1,0.5,12c1.2,1.6,2.2,3.3,3.2,5c4.3,7.4,3.5,14.4-1.5,21.1
							c-3.1,4.2-7.3,7.3-11.6,10.2c-10.4,7.2-20.5,14.8-29.2,24c-7.3,7.8-12.5,16.9-14.3,27.7c-0.8,4.6,0.1,8.6,3.1,12.2
							c2.6,3.1,5.7,5.8,8.6,8.8c2.4,2.6,4.8,5.2,7.2,7.8c10,11.2,12.9,24.4,10.8,39.1c-1,7-1.7,14.1-2.4,21.1
							c-0.4,3.9,0.1,7.8,1.1,11.6c2,7.8,6.8,12.6,14.7,14.4c7.2,1.7,14.6,2.8,21.8,5c18.7,5.7,30.3,18,34.5,37.1
							c0.8,3.8,1,7.7,1.3,11.6c0.6,8.2,4.7,14.4,11.2,19c4.2,3,8.9,5,13.5,7c7.9,3.4,14.7,8.2,20,15.1c1.2,1.6,2.5,3.3,0.6,5
							s-3.6,0.6-4.9-1.1c-5.4-7.2-12.7-11.5-20.8-14.9c-3.9-1.6-7.6-3.4-11.1-5.8c-9.1-6.2-14.3-14.6-14.6-25.7
							c-0.3-12.1-4.3-22.5-12.9-31.2c-7-7.1-16-10.2-25.4-12.3c-4.3-1-8.7-1.8-13.1-2.8c-13.8-3.2-21.1-11.9-21.8-26.2
							C228.4,472.3,228.5,471,228.5,469.6z"/>
						<path d="M426.8,260.4c2.4,4.8,4.7,9,8.3,12.3c2.8,2.6,2.1,6.4-1.5,7.7c-1.4,0.5-2.4-0.3-3.4-1.1c-4.9-3.8-10.5-6.3-16.6-7.8
							c2,2.4,4.4,4.3,6.9,6c2.3,1.6,4.7,3,7.1,4.5c2.6,1.7,3.5,3.4,2.4,4.9c-1.8,2.4-3.7,1-5.5,0c-5.7-3.3-11.1-7-15.8-11.6
							c-1.2-1.2-2.4-1.5-4.1-1.3c-5.7,0.7-11.2,2.1-16.9,3.1c-3.8,0.6-6.2,0-6.5-2.2c-0.5-3.3,2.3-4,4.5-4.8
							c5.7-2.2,11.5-4.1,17.5-5.2s11.6,0.8,17.2,2.8c1.3,0.5,2.6,1.1,4.4,1.9c-1.4-2.8-2.6-5.1-3.7-7.4c-0.5-1.1-1.3-0.6-2.1-0.6
							c-6.9,0.1-13.8,0.5-20.7-0.4c-0.7-0.1-1.5-0.1-2.1-0.3c-1.6-0.4-3-1.2-3-3c0-1.9,1.4-2.7,2.9-3.1c4.9-1.3,10-2,15-2.4
							c1.3-0.1,2.6,0,3.8-0.2c7.8-1.1,14.1,1.7,19.2,7.4c3.2,3.5,5.9,7.4,8.3,11.5c0.4,0.7,0.7,1.5,1,2.2c0.5,1.5,0.3,3-1.4,3.7
							c-1.6,0.6-2.7-0.2-3.5-1.7c-2.3-4.7-5.4-8.8-9-12.5C429.1,261.8,428.4,261,426.8,260.4z"/>
						<path d="M69.2,209.8c-6.5-0.2-11.1-2.3-15.5-5.2c-6-4-12-2.9-16.3,2.9c-0.3,0.4-0.6,0.9-0.9,1.4c-0.9,1.2-2.1,1.8-3.5,1
							c-1.5-0.9-1.6-2.3-0.8-3.8c1.3-2.7,3.4-4.7,5.8-6.4c5.7-4.1,11.9-4.3,17.8-0.5c2.8,1.8,5.6,3.4,8.8,4.3
							c3.8,1.1,7.2,0.4,10.2-2.2c1.7-1.5,3.3-3.1,5-4.7c1.2-1.1,2.6-1.3,4-0.3c1.3,1,1.4,2.5,0.5,3.6
							C79.9,205.2,75.3,209.7,69.2,209.8z"/>
						<path d="M515.3,311.2c-0.3-0.1-1-0.2-1.5-0.5c-7.7-5.1-16.1-6.2-25-4.3c-2.6,0.5-3.9-0.4-4.9-2.9c-2.2-5.5-7.1-8-12.1-10.3
							c-1.4-0.7-2.9-1.1-4.3-1.5c-1.7-0.5-2.9-1.4-2.4-3.3c0.5-2,2.2-2.1,3.7-1.7c7.4,2.1,14.2,5.2,18.6,11.8
							c1.4,2.2,2.8,2.5,5.1,2.1c8.7-1.4,16.7,0.6,24.1,5.3c1.3,0.9,2.2,1.9,1.7,3.6C517.9,310.8,516.9,311.3,515.3,311.2z"/>
						<path d="M134.9,269.8c-4.1,0-7.7-0.9-11.4-1.8c-7.7-2-14.6-1-20,5.5c-1,1.3-2.4,1.8-3.8,0.8c-1.6-1.2-1.2-2.7-0.2-4.1
							c5.1-6.8,12.2-9,20.4-8.5c3.9,0.2,7.6,1.6,11.5,2.2c4.7,0.8,8.6-0.3,11.5-4.3c0.7-1,1.7-1.9,2.7-2.7c1.1-0.8,2.4-0.8,3.5,0.1
							s1.4,2.3,0.6,3.4C145.8,265.6,141.9,270.6,134.9,269.8z"/>
						<path d="M531.9,319.3c-0.1,5.5-3.9,9.6-9,9.6c-4.9,0-8.6-3-8.6-7.1c0-5.6,4.4-10.1,9.9-10.1
							C529.1,311.7,532,314.6,531.9,319.3z M525.9,321.8c0.4-2.2,1.3-3.9-0.9-4.5c-2.2-0.5-4,0.4-5,2.9
							C522.3,319.6,524.2,319.4,525.9,321.8z"/>
						<path d="M485.4,326c0-1,0.8-2.3,2.6-2.8c4.1-1.1,8.3-2,12.4-3.1c1.8-0.4,3.4-0.3,4,1.7s-0.8,3-2.6,3.5
							c-2.8,0.7-5.6,1.5-8.4,2.1c-1.7,0.3-2.4,0.8-2.1,2.8c0.9,5.4,1.5,10.8,2.2,16.2c0.1,0.5,0.1,1.1,0.1,1.6
							c0.1,1.8-0.6,3.1-2.5,3.3c-1.9,0.1-2.8-1.2-3-2.9c-0.4-3.2-0.6-6.5-1-9.7C486.7,334.8,486.1,330.8,485.4,326z"/>
						<path d="M460.5,285.5c0,5.4-3.5,9.9-7.7,10c-4.4,0.1-8.7-4.2-8.7-8.5c0-4.9,4.4-9.1,9.3-9.1
							C457.7,277.9,460.5,281,460.5,285.5z M450.1,285.8c2-1,3.3-0.5,4.5,0.9c0.6-1.6,0.6-2.8-0.8-3.2
							C452.4,283.1,451,283.5,450.1,285.8z"/>
						<path d="M456.2,328.9c-1.4,0-2.5-0.4-2.8-1.8c-0.4-1.6,0.5-2.6,1.9-3.2c3.5-1.5,6.9-3.2,10.5-4.5c2.5-0.9,2.3-1.8,0.7-3.5
							s-3.1-3.6-4.5-5.5c-0.9-1.1-0.9-2.4,0.1-3.4c1.1-1.1,2.5-1.1,3.4-0.1c3.3,3.6,7.1,6.7,8.4,11.7c0.4,1.6,0,3-1.5,3.6
							c-5.1,2.2-10,4.7-15.3,6.4C456.8,328.8,456.5,328.8,456.2,328.9z"/>
					</g>
				</g>
			</g>
		</g>
	</g>
	<g id="Construction_Hand_Color_xA0_影像_1_">
	</g>
	<g id="Construction_Hand_xA0_影像_1_">
	</g>
	<g id="Anthand_Color_xA0_影像_1_">
	</g>
	<g id="Anthand_xA0_影像_1_">
	</g>
	<g id="Catchhand_Color_xA0_影像_1_">
	</g>
	<g id="Catchhand_xA0_影像_1_">
	</g>
	<g id="Crabsweat_Color_xA0_影像_1_">
	</g>
	<g id="Crabsweat_xA0_影像_1_">
	</g>
</g>
<g id="hand1">
	<g>
		<g id="Catchhand_xA0_影像_2_">
			<g>
				<g>
					<path class="st0" d="M820.4,174.4c-0.2,2.5-2.1,4.2-4.2,5.7c-1.6,1.1-3.4,2.1-4.9,3.5c-0.9,0.8-2,1.4-3.2,1.4
						c-6,0.1-9.6,3.7-12.8,8.1c-0.9,1.2-1.9,2.5-3,3.5c-4.7,4.4-10.4,2.8-12.3-3.3c-0.9-2.8-0.4-5.9-2.4-8.5c-0.5-0.6-0.3-1.6,0-2.4
						c1.1-2.7,2.2-5.3,3.6-7.9c0.7-1.4,1.9-2.6,3.7-2.1c1.6,0.4,2,1.7,1.8,3.2c-0.1,0.9,0.3,1.1,1.1,1.1c4.9,0.1,9.3-2,13.7-3.6
						c0.2-0.1,0.6-0.3,0.6-0.5c0.9-2.7,3-3.7,5.6-4c3.9-0.4,7.6,0.3,11,2.2C820.1,171.7,820.4,172.8,820.4,174.4z"/>
					<path class="st0" d="M830.9,123.4c0.9,0.1,1.8,0.2,2.6,0.3c4,1.8,5.8,5.9,9.1,8.5c0.1,0.6,0.1,1.2,0.2,1.9c0,2.4,0,4.8-1.7,6.7
						c-7,1.2-13.5-0.9-19.7-3.5c-3.2-1.4-6.4-7.7-5.9-10.6c0.1-0.5-0.2-1.4,0.6-1.1c2.7,1,4.2-1.8,6.4-2
						C825.3,123.5,828.1,123.4,830.9,123.4z"/>
					<path class="st0" d="M847.9,226.6c1.5,1.7,1.3,3.3,0,5.1c-4.7,6.8-18.5,13.3-28.6,7.6c-3-1.7-3.4-4.4-1-6.9
						c3.5-3.5,7.8-5.1,12.7-5.4c3.5,0.4,7-0.4,10.5,0.6c0.5,0.2,1.1-0.1,1.5-0.5C844.4,225.5,846.1,226,847.9,226.6z"/>
					<path class="st0" d="M525.3,208.3c0-2.3-0.1-4.5,0-6.8c0.1-1.7,0.7-3.3,2.7-3.6c1.8-0.2,2.4,1.1,2.9,2.6
						c0.9,2.4,3.3,3.4,4.9,5.1c0.8,0.8,1.7,1.6,1.3,2.7c-0.9,2.6-1,5.6-2.8,7.9c-0.5,0.7-0.8,1.4-1.1,2.2c-0.6,2-1.5,3.7-3.9,3.4
						c-2.2-0.3-3.5-1.8-3.9-4C525.2,214.7,525.2,211.5,525.3,208.3z"/>
					<path class="st0" d="M499,171c-2.4,0-3.6-1.9-2.7-4c1.6-3.8,4.6-6.7,7-9.9c1.2-1.5,3.7-0.7,4,1.2c0.3,1.9,1.1,3,2.8,3.9
						c1.6,0.9,1.5,3.8-0.2,4.3c-3.6,0.9-6,4-9.8,4.4C499.7,170.9,499.3,170.9,499,171z"/>
					<path class="st0" d="M755.6,175.9c0.1,2.1-0.8,3.6-2.5,4.8c-0.8,0.5-1.6,1.2-2,2.1c-1.3,2.7-3.9,3.7-6.4,2.6
						c-2.2-0.9-3.3-3.8-1.9-6.3c2.3-4,5-8,10.5-7.6C753.9,173.1,753.6,175.2,755.6,175.9z"/>
					<path class="st0" d="M766.8,173.3c-0.9,2.1-0.3,4.9-1.2,7.3c-0.7,1.9-1.5,3.9-4.1,3.5c-3.8-0.6-5.2-2.1-4.9-5.4
						c0.4-4.2,3-7.1,6.3-9.3C764.9,168.2,767,170.2,766.8,173.3z"/>
					<path class="st0" d="M589.9,221c1.1-0.2,2.1,0.2,3,0.9c0.5,2.6-1.7,4.8-1,7.4c-0.8,2.2-2.5,2.3-4.4,1.8
						c-0.2-0.7-0.6-0.8-1.2-0.5c-1.4,0.6-2.8,1.2-4.3,1.6c-2,0.6-3.1-0.3-3.2-2.4c-0.1-1.4,0.5-2.4,1.4-3.4
						C582.8,223.7,586.4,222.4,589.9,221z"/>
					<path class="st0" d="M764.5,217.4c-2.3,0-3.9-1.1-4.6-3.2c-0.8-2.5-0.7-5,1.1-7.2c0.6-0.8,1.4-1.4,2.2-2
						c2.1-1.5,4.4-0.7,5.4,1.8c0.9,2.4,0,4.8,0.3,7.2C768,215.9,766.9,217.5,764.5,217.4z"/>
					<path class="st0" d="M724.9,189.4c0.4-2,1.4-3.7,2.7-5.3c2-2.5,4.4-3.1,7.2-1.8c1.8,0.8,1.9,2.3,1.3,3.9
						c-0.7,1.9-1.8,3.6-2.4,5.6c-0.7,2.1-3,1.9-4.9,2C726.9,192.8,725,191.9,724.9,189.4z"/>
					<path class="st0" d="M508.3,123.3c3.7,0.1,5,2,4.1,5.2c-0.4,1.6-1.6,3.1-1.4,4.9c0,0.2-0.2,0.5-0.3,0.7c-1,1.3-2.3,1.5-3.6,0.8
						c-1.9-1-5.4,0-5-3.6c0.4-3.1,2.3-5.6,4.8-7.6C507.2,123.4,507.9,123.4,508.3,123.3z"/>
					<path class="st0" d="M523.1,101.9c-0.1-2.6,5.5-6.1,9.1-4.7c1.9,0.7,1.8,2.6,1.1,4.2c-0.9,2.2-5.2,4.9-7.5,4.7
						C523.7,106,523.1,104.5,523.1,101.9z"/>
					<path class="st0" d="M843.2,242.8c-1.4,5.5-3.1,6.5-8.8,5.5c-3.1-0.5-6.3-0.6-9.4-0.8c-2.5-0.2-4.8-0.7-6.7-2.6
						c0.7-0.5,1.3,0,1.8,0.2c7.3,2.4,14.3,1.8,21-1.8C841.8,243,842.3,241.9,843.2,242.8C843.3,242.8,843.2,242.8,843.2,242.8z"/>
					<path class="st0" d="M589.9,221c-3.5,1.4-7.1,2.6-9.8,5.5c-0.9,1-1.5,2-1.4,3.4c0.1,2,1.2,2.9,3.2,2.4c1.5-0.4,2.9-1,4.3-1.6
						c0.6-0.3,1-0.1,1.2,0.5c-1.9,0.8-3.8,1.6-5.1,3.4c-1.3,1.7-3.3,1.4-4.4-0.5c-2.7-4.6-2.7-5,1.4-8.5c2-1.7,4.1-3.3,6.2-4.8
						C587,219.7,588.6,219.4,589.9,221z"/>
					<path class="st0" d="M842.7,132.2c-3.3-2.6-5.1-6.7-9.1-8.5c1.7-0.8,3.4-1.2,5.3-1.2c1.8,0,3.8,1,3.1,2.8
						C840.9,128,842,130,842.7,132.2z"/>
					<path class="st0" d="M847.9,226.6c-1.7-0.6-3.5-1.1-5,0.6c-0.4,0.4-0.9,0.6-1.5,0.5c-3.4-1-7-0.2-10.5-0.6
						c1.4-1.4,3.4-1.1,5.1-1.4c2.6-0.5,5.2-0.9,7.8-1.2C845.7,224.2,847.4,224.3,847.9,226.6z"/>
					<path class="st0" d="M591.9,229.4c-0.7-2.6,1.5-4.8,1-7.4c0.6,0,1.3,0.1,1.9,0.1c1.4,0.1,2.4,0.8,2.7,2.2
						c0.3,1.4-0.3,2.5-1.5,3.2C594.6,228.2,593.2,228.8,591.9,229.4z"/>
					<path class="st0" d="M764.5,217.4c2.4,0.1,3.5-1.5,4.4-3.3c0.2,0.2,0.3,0.4,0.4,0.7c0.9,1.7,1.6,3.5-0.6,4.6
						C766.8,220.4,765.3,219.3,764.5,217.4z"/>
					<path class="st0" d="M843.2,242.8C843.2,242.8,843.3,242.8,843.2,242.8c2.1-2.2,5.1-3.2,7.2-5.7c0.1,3.3-1.1,4.6-3.9,5
						C845.4,242.2,844.2,241.8,843.2,242.8z"/>
					<path class="st0" d="M724.9,189.4c0.1,2.5,2,3.4,3.8,4.4c-0.7,1.6-2,2.1-3.6,1.4c-1.5-0.7-1.8-2.2-1.5-3.7
						C723.9,190.7,724.2,190,724.9,189.4z"/>
					<path class="st0" d="M830.9,123.4c-2.8,0-5.6,0-8.3,0.1C825.9,120.9,828.1,120.9,830.9,123.4z"/>
					<path class="st0" d="M755.6,175.9c-2-0.8-1.8-2.8-2.4-4.4c1.4-0.6,2.5-0.1,3.1,1.1C757,173.9,756.9,175.1,755.6,175.9z"/>
					<path class="st0" d="M841.1,140.7c1.8-1.9,1.7-4.3,1.7-6.7C844.6,137.4,843.9,140.1,841.1,140.7z"/>
				</g>
				<g>
					<g>
						<path d="M512.9,129.7c3.3-0.5,6.1-2,8.7-1.3c4.1,1,6.9-1.1,10-2.8c5.7-3,11.5-5.9,17.6-8c1.3-0.4,2.6-0.9,4-0.8
							c2.2,0.2,3.5,1.8,3.1,3.9c-0.4,2.1-1.8,3-4,2.2c-1-0.3-1.8-0.2-2.6,0.1c-16.8,6.9-31.9,16.1-43.3,30.7c-1.3,1.6-1.2,2.3,0.7,3
							c0.7,0.3,1.6,0.8,2,1.4c1.9,2.7,3.7,2.1,6,0.3c3.5-2.7,7.3-5,10.9-7.7c12.1-9.2,25.8-13.9,40.8-15.4c3.3-0.3,6.7-0.8,10-1.2
							c1.7-0.2,3.2,0.2,3.6,2.1c0.4,1.8-0.5,3.1-2,3.8c-2.6,1.2-5.3,2.4-8,3.5c-9.8,3.9-18.3,9.9-26.1,17c-7.8,7-11.7,16-14,25.9
							c-0.7,3.1-1.3,6.2-2,9.3c-0.2,0.8-0.7,1.8,0.5,2c4.8,0.8,7.3,4,9,8.7c3.6-5.6,6.9-10.8,10.2-16.1c2.3-3.7,4.9-7.2,7.7-10.6
							c4.4-5.4,10.3-7.2,16.9-7.2c8.6,0,16.9,2.3,25.1,4.5c5,1.3,9.9,3,14.9,4.4c3.9,1.1,5.2,5,2.6,8.2c-1.5,1.9-3.5,3.2-5.5,4.5
							c-10.6,6.7-18.8,15.9-27,25.2c-0.2,0.2-0.3,0.6-0.5,0.9c1.1,0.2,1.7-0.5,2.4-0.8c5.4-2.4,8.2-1.9,12,2.7
							c1.4,1.7,2.3,1,3.6,0.3c17.7-10.1,34.9-20.9,51.6-32.5c9.9-6.9,20.9-12.1,30.7-19.2c18.2-13.2,36.3-26.4,54.6-39.3
							c21.5-15.2,44.7-27.4,69-37.6c16.3-6.9,32.7-13.1,50.3-15.4c12.8-1.7,25.5-3.6,38.3-5.4c1.8-0.2,3.4,0.2,3.8,2.2
							c0.4,2.2-1.1,3.2-2.9,3.5c-3.1,0.6-6.3,1.2-9.4,1.5c-1.7,0.2-2.3,0.9-2.4,2.5c-0.8,9-1.8,18.1-2.4,27.1
							c-0.8,11.2-2.1,22.2-3.6,33.3c-1.3,9.9-1.7,19.9-2.5,29.9c-1.1,13.7-2.1,27.4-3,41c-0.4,6.9-0.4,13.8-0.6,20.7
							c-0.4,11.3,0,22.5-3.1,33.7c-3,10.9-5.1,22.1-8.7,32.8c-5.3,15.6-10.2,31.2-15.3,46.9c-1.2,3.6-2.8,7.1-4.6,10.4
							c-1,1.7-0.5,2.4,1.1,3.3c14.6,7.7,30.1,12.7,46.4,15.1c10.6,1.6,21.2,3.2,31.8,4.8c0.7,0.1,1.4,0.3,2.1,0.5
							c1.3,0.5,2.1,1.5,1.8,3c-0.2,1.5-1.3,2.1-2.7,2.2c-3.6,0.1-7.1-0.5-10.5-1.1c-13.4-2.3-27.1-3.5-40.2-7.1
							c-26.1-7.2-49.3-20.1-69.2-38.3c-12.4-11.4-20.1-26.1-26.2-41.6c-5.5-14.1-8-28.7-8.1-43.7c0-7.9-1.2-15.6-2-23.3
							c-0.1-1.4-0.3-2.7-0.2-4.1c0.2-3.7,0.6-7.4-3.7-9.5c-1.1-0.5-1.5-2-2.2-3.5c-2.6,4.2-4.5,8.3-5,13c-0.2,1.8-0.2,3.7-2.6,3.6
							c-2.5-0.1-2.8-2.1-2.6-4c0.7-6.8,3.5-12.7,7.4-18.2c1-1.3,2-2.1,0.5-4.1s-0.2-4.5,0.4-6.8c1-3.7,2.1-7.5,3.2-11.2
							c-4.6-0.5-4.6-0.5-6.2,3.4c-3.4,8.8-5.3,17.9-6.1,27.3c-0.5,5.2-1.1,10.3-1.8,15.4c-0.2,1.9-1,3.4-3.3,3.2
							c-2.2-0.3-2.7-2-2.5-3.9c2-15.1,2.2-30.5,8.7-45.1c-2.5,0.5-4.5,0.9-6.6,0.1c-1.2-0.4-1.2,1.1-1.5,1.8c-2.7,6.9-4,14.1-5,21.4
							c-0.8,5.3-1.5,10.6-2.5,15.9c-0.5,3-2.9,4.2-4.8,2.5c-1.2-1.1-1.1-2.5-0.9-3.8c1.9-10.5,2.7-21.3,5.7-31.6
							c0.1-0.2,0-0.5-0.1-0.9c-1.1,0.7-2,1.4-3,2c-1.4,0.9-3.2,1.6-4.7,0.7c-2.6-1.5-2.9,0.1-3.5,1.9c-2.2,6.3-2.8,13-3.1,19.6
							c-0.2,4.2-0.2,8.4-0.3,12.5c0,1.9-0.2,3.9-2.6,4c-2.5,0.1-3.1-1.9-3.2-3.9c-0.2-6.1,0.2-12.2,0.7-18.2
							c0.1-1.2,0.5-2.3,0.1-3.7c-1.5,0.8-2.3,2.1-3.1,3.4c-5,7.1-6.8,15.4-8.6,23.7c-5.6,27-3.9,53.6,2,80.5
							c8.7,39.1,26.9,73,53.8,102.2c23.1,25,51.5,42.7,82.6,56.2c23.6,10.2,48.3,16.3,73.7,19.8c10.6,1.4,21.2,3.1,31.9,4
							c2,0.2,4,0.2,5.9-0.6c1.6-0.7,3.1-0.5,3.9,1.2c0.8,1.8-0.1,3.2-1.7,4.1c-1.6,0.9-3.4,1.1-5.3,1.1c-8.8-0.1-17.4-1.6-26-2.8
							c-18.7-2.5-37.4-5.4-55.5-10.9c-42.4-13-80.5-33.8-111.4-65.8c-28.4-29.3-47.8-64-56.7-104.2c-3.9-17.7-7.3-35.4-6.5-53.7
							c0.7-15.8,2.4-31.3,7.7-46.3c1.7-4.9,4-9.6,7.4-13.5c1.8-2.1,3.5-4.2,6.5-4.5c1.3-0.1,1.1-1.2,1.4-2
							c1.7-5.8,4.1-11.3,8.7-15.5c0.7-0.6,0.9-1.3,0.9-2.2c0.4-11.4,0.8-22.9,1.1-34.3c0-0.1-0.1-0.3-0.4-0.7
							c-3.6,2.6-7.2,5.2-10.8,7.8c-19.6,14.2-39.8,27.7-60.3,40.7c-17.7,11.1-35,22.8-53.2,33.1c-6.4,3.6-13.2,6.5-20.3,8.4
							c-6.7,1.9-10-1-9.2-8c0.5-4.3,2.2-8,5-11.3c9.2-11,19-21.3,31.3-28.9c0.8-0.5,1.4-1,2.1-1.5c0-0.8-0.6-0.8-1-0.9
							c-9.7-3-19.4-6-29.5-7.6c-3.4-0.6-6.9-0.5-10.3-0.2c-3.6,0.3-6.5,2.1-8.9,4.8c-6.5,7.6-11.2,16.3-16.5,24.6
							c-2.7,4.1-5.1,8.4-7.7,12.5c-0.8,1.2-1.7,2.3-2.8,3.4c-3.5,3.4-8,2.7-10.4-1.6c-1.5-2.7-1.9-5.7-2-8.7
							c-0.3-15.1,2.9-29.6,8.8-43.5c2.9-6.8,8.3-11.9,13.8-16.7c4.2-3.7,8.8-7,13.5-10.2c-2.8-0.1-5.4,0.8-8,1.6
							c-7.9,2.6-14.7,7.1-21.3,11.9c-7.1,5.1-14.3,10-21.9,14.3c-2.4,1.4-4.8,2.6-7.4,3.3c-5.2,1.5-8.1-1.2-6.7-6.5
							c1.1-4.3,3.2-8.1,5.8-11.6c5.5-7.7,11.6-14.9,19.4-21c-1.8-0.1-3,0.5-4.2,0.9c-3.9,1.2-7.7,2.6-11.8,3.3
							c-2.3,0.4-4.5,0.4-5.8-1.8c-1.3-2.1-0.5-4.3,0.9-6.1c2.6-3.6,6-6.5,9.7-9.1c5.1-3.6,10.6-6.6,16.2-9.5
							c1.1-0.6,2.2-1.2,3.4-1.8c-0.7-1.2-1.9-0.7-2.8-1c-2.2-0.6-4.1-1.5-4.8-3.9c-0.7-2.4,0-4.4,1.7-5.9c4.4-3.7,9.1-6.7,14.9-8.2
							c18.1-4.8,36.2-3.4,54.4-1.2c13.7,1.7,27.3,2.2,41.1,1c5.7-0.5,10.6-2.3,15.3-5c29.4-17,60.3-31.3,91-45.8
							c4.5-2.1,9.2-3.8,13.9-5.6c1.5-0.6,3.1-1,4.8-0.8c1.3,0.1,2.3,0.8,2.5,2.1c0.2,1.4-0.5,2.3-1.8,2.7
							c-37.5,14.6-73,33.3-108,52.9c-8.3,4.7-17,5.1-26,5.8c-13.9,1-27.6-1.1-41.3-2.4c-13.8-1.4-27.6-2.2-41.2,1.2
							c-1.7,0.4-2.7,0.9-2.7,2.9c0,2.1-1.5,3.6-2.7,5.2c-0.5,0.6-1.9,1.2-1.1,2.1c0.7,0.8,1.7-0.1,2.5-0.4c5.6-2,11.2-3.8,16.9-5.2
							c1.3-0.3,2.7-0.5,4.1-0.3c1.8,0.3,2.8,1.4,2.6,3.2c-0.2,1.8-1.5,2.4-3.2,2.1c-1-0.2-2,0-2.9,0.3c-13.2,3.4-25.5,9-37.1,16.2
							c-1,0.6-1.4,1.3-1.3,2.4C513.7,126.9,513.5,128.1,512.9,129.7z M770.8,189.7c-0.1-0.1-0.1-0.2-0.2-0.3c-2.1,1-4.2,1.9-6.3,2.9
							c-0.5,0.3-0.7,0.8-0.9,1.3c-0.8,2.9-1.6,5.8-2.4,8.7c-0.4,1.4-0.3,2,1.5,1.5c3.2-0.7,5.5,0.7,6.6,3.8c0.5,1.5,0.9,3,0.8,4.5
							c-0.2,11.4,0.1,22.7,1.7,34c0.8,5.6,0.4,11.2,0.6,16.9c0,1.2-0.1,2.7,1.9,2.6c2.6-0.2,5,0.5,7.6,0.7c7.5,0.6,15,0.6,22.6,0
							c15.1-1.1,30.2-0.3,45.2-1.1c3.6-0.2,7.3-0.4,10.8-1.1c1.8-0.3,3-1.2,3.8-3c1.6-3.4,1.5-6.9,1.6-10.4
							c0.3-9.4,0.3-18.7,0.4-28.1c0.2-15.4,2-30.6,3.1-45.9c0.8-11.6,1.2-23.2,2.8-34.8c2.7-19.3,4-38.8,6.3-58.2
							c0.2-1.8-0.2-2.5-2.1-2.2c-12.8,1.9-25.9,2.8-38.3,6.7c-26.9,8.6-52.5,20.1-76.8,34.7c-1.1,0.6-1.4,1.4-1.5,2.6
							c-1.4,14.5-2,29-1.8,43.5c0,0.9-0.3,1.8,0.4,2.8c0.4-0.3,0.9-0.5,1.3-0.8c2.1-1.5,4.3-2.2,6.6-0.8s2.3,3.7,1.7,6.1
							c-0.7,3-1.4,6-2.1,9.3c3.8-1.5,7.7-1.8,8.2-7.2c0.3-2.6,0.2-5.1,0.4-7.7c0.6-5.8,1.3-11.5,2.9-17.1c0.2-0.5,0.4-0.8-0.2-1.3
							c-3.5-2.5-2.8-6.2-2.7-9.7c0.1-1.2,1-2.1,2.4-2.2c1.2-0.1,2.1,0.5,2.5,1.7c0.1,0.4,0,1,0.8,0.9c0.2-0.4,0.5-0.7,0.7-1.1
							c0.9-1.7,2.3-2.8,4.2-1.8c2,1.1,1.4,2.9,0.5,4.5c-1.3,2.2-2.5,4.4-4.1,6.4c-0.3,0.4-1.1,0.8-0.3,1.5c1.8,1.5,1.1,3.5,0.8,5.3
							c-0.6,3.8-1.3,7.5-1.9,11.3c-0.1,0.7-0.8,2.2,0.7,2.1c2.1-0.3,4.3,0.6,6.2,0.2c2.7-0.6,0.3-3.6,1.4-5.2c0-0.1,0.1-0.2,0.1-0.3
							c0.3-1.5,1.2-2.5,2.8-2.3c1.6,0.2,2.3,1.3,2.3,2.9c0,1.4-0.1,2.7,0,4.1c0.1,1.1,0.2,2.3,1.9,2c1.3-0.2,2.5-0.2,2.6-2.1
							c0-1.7,0.4-3.4,0.8-5.1c0.4-1.6,1.6-2.5,3.3-2c1.6,0.4,2,1.8,1.7,3.2c-0.2,1-0.6,2-0.1,3.2c3-1.4,5.7-2.7,8.8-3.3
							c1.2-0.2,1.3-1,1.3-2c-0.1-2.4-0.3-4.9-0.3-7.3c0-1.5,0.5-2.8,2.2-3c1.8-0.2,2.8,0.8,3,2.4c0.3,1.5,0.5,3.1,0.4,4.6
							c-0.3,3.4,0.5,5.8,3.8,7.7c1.8,1,3.1,1.6,5.1,1.1c3-0.8,6-1.3,9.1-1.8c1.5-0.2,2.7,0.4,3,2s-0.6,2.6-2.1,3
							c-0.8,0.2-1.6,0.3-2.4,0.5c-2.5,0.7-5.2,0.6-7.6,2c2.9,0,5.8,0.4,8.7,0.6c1.9,0.1,3.5,0.8,3.3,3.1c-0.2,2.2-2,2.4-3.7,2.2
							c-2-0.2-3.9-0.5-6.4-0.2c2.7,1.3,4.8,2.3,7,3.4c1.5,0.8,2.6,2,1.7,3.8c-0.9,1.9-2.5,1.8-4.2,1c-1.9-0.9-3.7-1.7-5.6-2.6
							c1,1.1,2.2,1.9,3.3,2.6c1.6,1,2.8,2.4,1.6,4.3c-1.2,1.9-3,1.3-4.5,0.2c-2.7-1.8-5.5-3.5-8.6-4.7c-0.8-0.3-1.4-0.7-2.3-0.3
							c-8.4,3.1-17,5.7-24.2,11.5c-2.6,2.1-5.8,3.4-9.2,3.8c-1.6,0.1-2.1,0.9-2.5,2.2c-1.3,3.8-2.7,7.5-4.2,11.2
							c-0.7,1.8-1.8,3.5-4,2.5s-1.6-2.9-0.9-4.7c1.6-4.1,3.1-8.1,4.6-12.2c0.3-0.8,0.7-1.6,0-2.9c-1.1,2.1-2,3.9-2.9,5.6
							c-0.8,1.6-1.9,2.8-3.9,2c-1.9-0.9-1.8-2.6-1-4.2c1.3-2.6,2.8-5.1,4.2-7.6c0.3-0.6,1.2-1.2,0.2-2.3c-1.6,1.7-3.1,3.3-4.6,5
							c-1.3,1.4-2.7,2.9-4.6,1.3c-2-1.7-0.6-3.5,0.7-4.9C767.4,193.4,769.1,191.6,770.8,189.7z M775.4,271.3c-2.1-0.1-2.2,0-1.8,2.5
							c1.7,12.6,6.2,24.2,11.6,35.6c7.4,15.3,17.8,28,31.8,37.7c1.6,1.1,2.2,0.9,3-0.7c1.5-3.3,3.2-6.5,4.5-9.9
							c5.6-14.3,11.9-28.3,17-42.8c0.6-1.8,1.6-3.6,3.9-2.8c2.4,0.8,1.7,2.8,1.1,4.6c-6.8,18.4-13.3,36.9-21.8,54.6
							c-0.6,1.3-0.5,1.9,0.8,2.6c2.3,1.3,4.5,2.7,6.7,4.2c1.6,1.1,2.3,0.6,3-1c1.8-3.7,3.5-7.4,4.8-11.3c4.6-14.2,9-28.6,13.9-42.7
							c3.4-9.8,6.7-19.6,8.7-29.7c0.4-2,0.3-2.5-2-2.1c-5.6,1-11.4,1.2-17.1,1.3c-14.1,0.2-28.2,0.2-42.2,1.1
							C792.5,272.9,784,272.7,775.4,271.3z M754.2,127.4c-0.8,0.3-1.2,0.4-1.5,0.6c-7.1,4.2-13.7,9.2-20.3,14.2
							c-1,0.8-1.1,1.7-1.2,2.9c-0.8,10.4-0.7,20.9-1,31.3c-0.1,3.7,0,3.7,3.8,3.6c0.5,0,1-0.1,1.3,0c2.7,1.4,3.9-0.3,5.3-2.2
							c2.3-3.1,4.8-6.2,8.9-6.7c2.1-0.2,2.4-0.9,2.5-2.8c0.1-8.7,0.2-17.4,0.9-26.1C753.3,137.3,753.8,132.5,754.2,127.4z
							 M805.5,187.2c4.8-1.5,9.5-2.5,13.5-5.4c1.4-1,2.7-2.2,2.5-4.2c-0.5-3.9-3.7-6.3-7.6-5.6c-2.7,0.5-5.2,1.6-7.6,2.9
							c-6.8,3.4-13.8,4.7-21.3,2.2c-3.6-1.2-5.4,0.1-6.3,3.9c-1.2,4.8,0.2,9.2,2,13.5c1.8,4.4,3.5,5,7.7,2.6c4.7-2.7,8.9-6.1,14-8.4
							c-2.5-1.9-3.9-4-3.3-6.9c0.3-1.3,1.1-2.1,2.5-2.1c1.3,0,2.2,0.6,2.4,1.8C804.3,183.4,805.9,184.9,805.5,187.2z M526.7,210
							c0,2.9-0.3,5.8,0.7,8.6c0.6,1.5,1.3,1.8,2.5,0.4c1.6-1.9,2.9-4.1,3-6.5c0.2-3.3-0.4-6.6-3.3-8.8c-1.8-1.3-2.8-0.8-2.9,1.4
							C526.6,206.8,526.7,208.4,526.7,210z M750.3,174.6c-3.7,0.7-5.3,4-7.5,6.5c-0.6,0.6-1,1.8-0.1,2.7c0.9,1,1.9,0.9,3,0.4
							c3.4-1.4,5.7-3.7,6.5-7.4C752.5,175.4,752,174.6,750.3,174.6z M589.2,223.7c-0.3,0.1-0.8,0.1-1.2,0.3
							c-3.7,1.3-6.8,3.8-10.2,5.7c-0.7,0.4-0.7,1.1-0.4,1.7c0.3,0.7,0.9,0.3,1.4,0.2c4-1,7.8-2.5,11.5-4.1c0.7-0.3,2.3-0.3,1.9-1.7
							C591.9,224.6,590.8,223.7,589.2,223.7z M766,210.9c-0.1-0.3-0.2-0.9-0.3-1.6c-0.2-0.9,0.1-2.2-1.2-2.3c-1.2-0.2-2,0.5-2.7,1.5
							c-2,2.8-1.8,5.7,0.6,8.1c0.7,0.7,1.4,0.9,2.2,0.6c0.8-0.2,1-1,1-1.7C765.7,214,765.8,212.6,766,210.9z M727.7,191.8
							c1.5,0,4.5-2.6,5.7-5c0.3-0.6,0.9-1.3,0.3-2c-0.6-0.7-1.4-0.8-2.2-0.5c-2.5,0.8-4.4,2.5-5.8,4.7
							C724.8,190.2,726,191.8,727.7,191.8z M497.6,168.4c2.8-0.7,4.8-2.1,6.9-3.3c0.8-0.5,2.3-0.7,1.8-1.9c-0.5-1.4-2.1-1.8-3.5-2.3
							c-1.1-0.4-1.7-0.1-2.2,0.8C499.5,163.7,498.2,165.6,497.6,168.4z M762.2,173.7c-0.4,0.2-0.8,0.5-1.1,0.7
							c-2,1.5-3.2,3.5-3.5,6.1c-0.1,0.8-0.5,1.7,0.5,2.1c1,0.5,1.8,0,2.4-0.7c1.6-1.8,2.2-4.1,2.8-6.3
							C763.6,174.9,763.1,174.2,762.2,173.7z M509.8,127.8c0.1-0.5-0.3-1.5-1.8-0.9c-2.4,1-4.3,2.7-5.7,4.9
							c-0.4,0.6-0.3,1.2,0.6,1.4C505.2,133.8,509.6,130.8,509.8,127.8z M525.2,104.9c2.3-0.3,4.1-1.7,5.6-3.3c0.4-0.4,0.3-1,0.1-1.5
							c-0.3-0.6-0.9-0.7-1.4-0.5c-1.8,0.7-3.8,1-5.4,2.3c-0.6,0.5-1.2,1.3-0.9,2C523.5,104.6,524.2,105,525.2,104.9z"/>
						<path d="M847.9,139.3c2.9,2.4,5.6,4.9,8.2,7.6c1.4,1.4,2.9,3.1,1,4.9c-1.8,1.8-3.4,0.4-4.8-1.1c-1.7-1.7-3.5-3.4-5.3-5.1
							c-0.4-0.4-1-1.2-1.6-0.6c-0.8,0.8,0.2,1.3,0.6,1.8c1.3,1.5,2.7,3,4,4.5c0.6,0.7,1.2,1.4,1.5,2.3c0.6,1.6,1,3.3-0.9,4.3
							c-1.7,0.9-2.8-0.2-3.8-1.7c-1.7-2.8-4-5.1-6.7-7.7c0.2,2.5,1.6,4.1,2.3,5.8c0.5,1.3,1.2,2.4,1.8,3.7c0.7,1.5,1,3.1-0.8,4
							c-1.7,0.9-3-0.2-3.8-1.6c-1.3-2.3-2.6-4.6-3.6-7c-0.9-2.3-2.2-3.3-4.8-3.1c-3.6,0.3-7-0.7-10.3-2.2c-1.1-0.5-1.8-0.7-2.6,0.7
							c-1.3,2.3-2.6,5.2-6,4.8c-3.3-0.4-4.1-3.4-5.2-6c-0.1-0.3-0.2-0.7-0.4-1.3c-1.4,1.2-2.6,2.4-4,3.4c-1.3,1-2.9,1.4-4.2,0
							c-1.3-1.3-0.8-2.7,0.4-3.8c0.4-0.3,1-0.7,0.4-1.3c-2.2-2.2-0.7-3.9,0.9-5.8c-1.4-0.1-2.3,0.8-3.3,1c-1.4,0.3-2.6,0-3.2-1.3
							c-0.6-1.4-0.2-2.5,1-3.3c1.1-0.7,2.4-1.2,3.6-1.9c-0.1-0.6-0.6-0.6-1-0.7c-1.3-0.4-2-1.3-1.8-2.7c0.2-1.5,1.1-2.2,2.6-2.4
							c3.7-0.5,7.4-0.9,11.3-0.8c-1.6-1.8-1.7-3.8-1.1-5.8c0.8-2.7,1.6-5.4,2.6-8c1-2.9,2.7-5.7,2-9c-0.3-1.4,0.3-2.9,1.1-4.1
							c1.1-1.6,3.1-1.9,4.1-0.4c0.9,1.3,1.4,1.1,2.5,0.5c1.2-0.7,2.5-0.5,3.4,0.8c0.9,1.3,0.5,2.4-0.5,3.5c-0.4,0.4-0.8,0.8-1.2,1.1
							c-6.7,4.4-6.3,12.2-9.1,18.6c2.1-0.9,4.5-1,4.6-4.1c0.1-1.6,1.5-3,3.3-3.2c1.8-0.3,2.6,0.8,2.8,2.6c0.1,1,0.9,0.7,1.5,0.6
							c2.8-0.3,5.6-0.9,8.4-0.2c1,0.2,1.4-0.5,2-1c1.3-1.1,2.8-0.6,4.1-0.2c1.3,0.4,1.6,1.6,1.5,2.9c-0.3,2.1,1.7,2.6,2.7,3.8
							c0.4,0.5,0.9-0.3,1.2-0.7c1.4-2,2.8-4,4.3-6c0.5-0.7,0.3-1.3-0.1-1.9c-0.8-1.3-1.1-2.7-0.8-4.2c0.2-1,0.7-1.9,1.8-2.2
							s2.2-0.1,2.6,0.9c0.8,1.6,1.8,1.1,2.8,0.5c0.9-0.5,1.9-0.7,2.9-0.6c1.1,0.1,1.9,0.6,2.2,1.7c0.3,1.2,0.1,2.4-1.1,2.8
							c-3.3,1.2-5.3,3.2-6.4,6.7c-0.9,2.7-3.2,4.8-5.1,7c-2.4,2.6-1.9,4.3,1.3,5.5c3.5,1.3,6.6,3.4,9.5,5.7c1.4,1.2,2.1,2.7,0.9,4.3
							c-1.3,1.7-2.9,1-4.3-0.1C853.4,141.9,851,140.1,847.9,139.3z M813,147.1c0.5-0.8,0.8-1.2,1-1.6c2.5-6.7,4.2-5.4,8.8-3.1
							c3.9,1.9,8,2.5,12.2,1.7c2.4-0.4,4.8-1,6.1-3.5c3.2-6.1-1.5-15.3-8.4-16c-5.5-0.6-10.6,0.7-15.4,3.4c-4.2,2.4-5.8,7-4.4,11.7
							c0.3,1,0.7,2.3-0.2,2.8C810,143.9,812.1,145.2,813,147.1z"/>
						<path d="M855.6,243.9c1,0.9,2.1,1.7,3.1,2.7c1.1,1.1,1.4,2.4,0.4,3.7c-1.1,1.4-2.6,1.2-3.9,0.2c-2-1.5-3.5-3.4-5.1-5.3
							c-0.8-1-1.3-1-2.4-0.4c-9.9,5.7-20.3,7.6-31.3,3.7c-1.2-0.4-1.6-0.2-1.8,1c-0.5,2.1-1,4.2-1.6,6.3c-0.6,1.9-1.6,3.5-3.9,2.8
							c-2.1-0.7-2-2.4-1.4-4.3c0.9-2.7,1.6-5.4,2.6-8.6c-2,1.2-3.4,2.2-4.7,3.6c-1.6,1.8-4.1,2-5.2,0.5c-1.4-2-0.3-3.4,1.2-4.6
							c2.2-1.7,4.5-3.3,7.2-5.3c-2-0.6-3.3-0.4-4.7,0.1c-2.4,0.9-4.2,0.2-4.8-1.8c-0.6-1.9,0.5-3.2,3.1-3.8c0.8-0.2,1.6-0.3,2.8-0.4
							c-0.6-0.1-0.9-0.2-1.2-0.3c-2.9-1.4-4.3-3.4-3.2-5.1c1.6-2.5,3.7-1.1,5.6-0.4c1.7,0.7,3.3,1.5,4.9,2.3c0.6,0.3,1.1,1,1.9,0.2
							c0.6-0.6,0.7-1.2,0.5-1.9c-1-3.5-1.8-7-2.8-10.5c-0.5-1.8-0.5-3.4,1.5-4.1c2-0.7,3.2,0.6,3.7,2.3c0.8,2.6,1.4,5.3,1.9,7.9
							c0.4,2.3,1.3,2.6,3.2,1.5c0.8-0.5,1.8-0.8,2.9-1.3c-2.1-1.7-2.8-3.8-2.3-6.3c0.3-1.5,1.1-2.8,2.9-2.7c1.6,0.1,2.2,1.3,2.6,2.7
							c0.4,1.7-0.1,3.4-0.3,5.2c3.7-0.8,7.1-1.7,10.7-1.6c0.7,0,1.2-0.2,1.3-1c0.3-1.9,0.9-3.7,3.2-3.7c2.6,0,2.6,2.3,3.6,4.2
							c0.3-1.4,0.6-2.8,0.9-4.2c0.3-1.5,0.7-3,1-4.5c0.5-1.9,1.2-3.7,3.6-3.1c2.2,0.5,2.1,2.5,1.7,4.2c-0.8,3.5-1.5,7.1-2.4,10.6
							c-0.5,1.8,0,1.8,1.5,1.5c3.2-0.7,6.4-1.1,9.6-1.7c1.2-0.2,2.2,0.1,2.8,1.2c0.6,1.2,0.5,2.4-0.5,3.2s-1,1.2-0.3,2.4
							c1.3,2.2,0,4.5-2.6,4.6c-1.7,0.1-3.4-0.1-5.4-0.3c1.3,1.7,2.9,2.7,4.5,3.7c1.7,1.1,3.2,2.3,1.9,4.3s-3.1,1.2-4.8,0.3
							c-0.3-0.2-0.6-0.3-0.9-0.5C855.9,243.5,855.7,243.7,855.6,243.9z M837.7,242.9c-1.8-2.5-3.2-4.8-3.5-7.4
							c-0.2-1.5,0.1-3,1.9-3.5c1.7-0.4,2.7,0.6,3.2,2.2c0.5,2,1.7,3.6,2.8,5.2c0.9,1.4,1.6,1,2.5,0.3c2-1.6,4.2-3.3,3.8-6.2
							c-0.4-2.8-2.9-4-5.3-4.9c-0.7-0.2-1.4-0.4-2.1-0.6c-9-1.4-16.9,1.4-24.1,6.4c-3.4,2.3-2.9,6.1,0.8,8
							C824.1,245.9,830.7,244.6,837.7,242.9z"/>
						<path d="M848.2,199.8c1.3-1.4,2.6-2.8,4-4.2c1.3-1.3,2.9-2.2,4.5-0.7c1.5,1.4,0.8,3-0.4,4.3c-1.9,2-3.6,4.1-5.9,5.6
							c-3.1,2-5.9,1.2-7.3-2.2c-0.5-1.1-0.8-2.2-1-3.4c-0.3-1.5,0.1-3,1.8-3.4c1.7-0.5,2.7,0.5,3.2,2.1
							C847.4,198.5,847.2,199.3,848.2,199.8z"/>
						<path d="M806.7,205.3c0-3.2,1.2-5.1,2.9-4.4c2,1,3.9,1.8,6.1,2.2c0.8,0.1,1,1.2,1,2.1c0,2.4-3.6,6.3-5.9,6.4
							c-2.4,0.1-3.7-1.7-4-5.4C806.7,205.8,806.7,205.5,806.7,205.3z"/>
						<path d="M788.9,187.6c0-2.3,2.1-4.9,3.9-4.8c1.5,0.1,2.3,0.9,2.3,2.4c0.1,2-2.2,5-3.8,5C789.7,190.1,789,189.1,788.9,187.6z"
							/>
						<path d="M834.7,131.1c0,0.9,0,2.5,1.4,3.7c1,1,1.2,2.3,0.2,3.4c-1.1,1.2-2.4,1.1-3.7,0.4c-3-1.7-4.4-8.9-2.2-11.6
							c0.8-1,1.8-1.2,2.9-0.9c1.1,0.3,1.6,1.2,1.6,2.3C834.9,129.1,834.8,129.7,834.7,131.1z"/>
						<path d="M823.1,135c-1.6,0-2.4-0.3-2.8-1.2c-0.5-1-0.5-2,0.2-2.8c1.2-1.4,2.4-2.8,3.7-4c1.1-0.9,2.4-0.9,3.4,0.1
							c1,1,1,2.2,0.2,3.2C826.4,132.2,825,134.3,823.1,135z"/>
						<path d="M832.1,234.3c-0.5,2.2-1.9,4.5-4,6.3c-0.9,0.7-2.1,0.6-3-0.2c-1-0.8-1.2-1.9-0.7-2.9c1-1.9,2.1-3.7,3.4-5.5
							c0.7-1,1.8-1.1,2.9-0.6C831.8,231.8,832.2,232.7,832.1,234.3z"/>
					</g>
				</g>
			</g>
		</g>
		<g id="Crabsweat_xA0_影像_2_">
		</g>
	</g>
</g>
<g id="hand2">
	<g id="Construction_Hand_xA0_影像_2_">
		<g>
			<polygon class="st1" points="53.4,619.5 84.6,589.6 112.6,567.6 134.6,546.6 153.6,522.6 168.6,494.6 179.6,468.6 194.6,434.6 
				208.6,414.6 227.1,395.3 244.6,401.6 270.6,393.6 277.6,391.6 295.6,404.6 308.6,409.6 316.6,422.6 329.6,429.6 334.1,436.6 
				332.1,446.6 310.6,442.6 297,447.8 288.6,471.6 280.6,497.6 269.6,521.6 269.6,526.6 287.6,517.6 306.6,516.6 320.9,514.1 
				333.6,519.6 333.2,532.8 318.6,539.6 306.6,543.6 296.7,552.4 281.6,563.6 259,571.8 238.9,575.2 223.6,583.6 199.6,602.6 
				179.6,628.6 161.6,657.6 154.5,671.8 			"/>
			<g>
				<path d="M241,401.8c-7-1.8-13-2.4-19,2.2c-9,7-16.1,15.3-21.8,25.1c-9.7,16.6-17.3,34.1-22.8,52.5c-3.5,11.7-9.4,22.1-15.8,32.4
					c-10.4,16.6-21.6,32.6-35.4,46.5c-8.8,8.9-19.3,15.7-29.3,23.1c-15.1,11.2-30.1,22.6-43.5,35.9c-2.3,2.3-4.2,2.7-6.8,1.1
					c-0.5-0.3-1.1-0.5-2.1-1c5.3-4.9,10.3-9.7,15.6-14.3c13.3-11.5,27.2-22.5,41.7-32.4c19.3-13.1,34-30.5,46.8-49.6
					c5.4-8.2,10.7-16.5,15.5-25c3.4-5.9,5.7-12.1,7.6-18.6c0.7-2.3,0.5-4.3-1.4-6.1c-5-4.7-10-9.5-14.9-14.4
					c-6.7-6.8-13-13.9-19-21.4c-1.1-1.4-1.3-3-1.5-4.6c-2.4-21-2.2-42.1-0.9-63.2c0.5-8.4,1.7-16.6,2.7-24.9
					c0.3-2.8-0.6-5.6,0.1-8.6c1.2-4.6,2.8-8.9,6.2-12.2c14-13.9,27.5-28.3,43.3-40.2c14.7-11.1,29.7-21.8,45.5-31.4
					c3.2-2,3-2,0.4-4.8c-9.6-10.4-20.9-18.9-31.5-28.1c-3.3-2.9-6.6-6-9.8-9c-2.3-2.2-5.6-2.7-7.8-5.2c-1.8-2-2.7-3.8-2.6-6.5
					c0.7-14.7,1.4-29.4,1.9-44.1c0.5-13.9,0.8-27.8,1-41.7c0-2.6-0.8-5-0.2-7.7c1.4-5.7,4.8-9.9,9-13.6c6.2-5.5,13.6-9.3,20.4-14
					c20.3-14,42.3-24.8,64.4-35.5c16.7-8,32.9-16.9,49.6-24.9c1.5-0.7,2.7-1.3,4.2,0.1c5.9,5.8,12.8,10.4,18.8,16.1
					c6.1,5.8,10.9,12.6,17.2,18.2c2.3,2.1,2.9,4.8,2.8,7.9c-0.5,14.2-2.1,28.3-2,42.5c0,5.2-0.1,10.4,0.1,15.5
					c0.2,5.4-2,9.5-6.1,12.7c-8.9,6.9-17.8,13.8-26.7,20.5c-5.9,4.4-12.4,7.8-17.8,13c-1.3,1.2-1.4,1.8-0.2,3.1
					c6.5,7.4,13.6,14.1,20.6,21c7.3,7.3,13.6,15.4,20.5,22.9c2.7,2.9,5.7,5.6,8,8.9c0.7,1.1,1.2,2.1,1.1,3.5
					c-1.5,14.4-1.9,28.8-3,43.2c-1.1,14.6-2.9,29.1-4.5,43.6c-0.2,2.3-1.6,3.8-3.2,5.2c-10.1,8.7-20.1,17.6-30.7,25.7
					c-13.3,10.1-25.4,21.7-38.1,32.6c-6,5.2-12.1,10.1-18.6,15.5c1.1-0.1,1.7,0,2.3-0.1c6.3-1.5,11.7,0.3,16.5,4.3
					c3.7,3.1,7.8,5.6,11,9.2c0.4,0.4,1.3,0.4,2.1,0.6c8.4,1.5,14,6.8,16.5,14.6c1,3,2.2,3,4.4,3.1c3.2,0.1,6.1,1.3,8.4,3.5
					c6.5,6.3,10.2,13.6,8,23c-0.3,1.3,0.3,2,1.1,2.8c8.4,8.4,17.1,16.6,25.1,25.4c12.1,13.2,25.5,25.2,38.2,37.7
					c2.5,2.4,4.9,4.9,6.9,7.7c1.8,2.4,3.1,2,5.3,0.6c6-3.7,11.1-8.5,16.7-12.7c10.6-8,20.8-16.5,31.1-24.7c3.7-3,7.4-3.4,11.5-0.6
					c2.4,1.6,4.7,3.4,6.8,5.5c4.9,4.9,10,9.6,15.5,13.8c3.6,2.8,4.8,6,3.9,10.7c-2.9,15.3-4.6,30.9-7.8,46.2
					c-1.8,8.9-3.2,17.9-3.7,26.9c-0.2,3.4-1.7,5.9-4.2,8.2c-6.6,5.9-13.8,11.1-21.7,14.9c-12.7,6.2-24,14.6-35,23.4
					c-5.7,4.5-11.4,9-16.1,14.6c-1.4,1.6-3.3,2.1-5.1,3c-1.3,0.6-2.6-0.1-3.2-1.3c-1.4-2.5-3.6-4.1-6-5.4
					c-23.7-13.5-45.6-29.8-69-43.6c-5.1-3-9.8-6.7-14.3-10.4c-9.2-7.7-18.6-15.1-28.4-22.1c-2.8-2-4.1-2.1-6.7-0.1
					c-10.9,8.2-23.4,12.4-37,12.9c-10.2,0.4-18.2,4.8-25.6,11.6c-17,15.7-31.7,33.3-43.6,53.1c-4.8,8-7.9,16.9-11.9,25.4
					c-0.4,0.9-0.5,2.6-1.7,2.5c-1.6-0.1-3.2-0.8-4.6-1.5c-0.9-0.4,0-1.1,0.2-1.6c11.6-30.6,30.3-56.3,54-78.5
					c2.7-2.6,5.5-5.1,8.3-7.5c6.3-5.6,13.7-8.2,22-9c6.8-0.6,13.6-1.1,20.1-3.4c9-3.2,17.2-8,23.9-14.8c8.8-8.8,18.6-15.9,30.6-19.4
					c2.6-0.8,3.1-2,2.5-4.7c-1.5-6.4,0-8.5,6.5-10c3-0.7,6.1-0.9,9.5,0c-1.5-2.2-3.5-2.3-5.4-2.6c-2.4-0.4-4.9-0.7-7.3-0.6
					c-10.8,0.5-21.6-0.1-32.3,2.5c-7.1,1.7-13.6,4.4-19.3,8.9c-1.4,1.1-2.9,1.9-4.3,0.2c-1.4-1.6-0.3-3,0.9-4.3
					c3.3-3.7,5.7-8,7.6-12.5c7.9-19.4,14.7-39.2,19-59.8c0.8-4,2.4-5.8,6.1-7c3.3-1,6.5-2.8,9.6-4.4c6.2-3.2,12.4-3.2,18.6-0.2
					c2.3,1.1,4.5,2.2,6.9,3.4c1-1.3,1-2.8,0.9-4.3c-0.1-9.3-7.1-16.1-16.3-15.7c-3.7,0.2-7.4,0.5-11.1,1c-5.8,0.8-11.5,1.4-17.2,2.7
					c-5.5,1.2-9.7,3.7-11.8,9.6c-1.4,4.1-4,7.7-6.1,11.5c-4.5,8.4-8.1,17.2-11.2,26.2c-0.6,1.6-1.4,2.9-3.3,2.4
					c-2-0.6-2.3-2.3-1.7-3.9c2.3-7,4.8-13.9,7.9-20.6c3.3-7.3,7.5-14.1,10.7-21.4c2.5-5.7,7.8-7.9,13.4-9.3c8.3-2,16.8-2.8,25.3-3.7
					c0.4,0,0.9-0.1,1.4-0.1c-2.3-8.6-9.7-13.5-18.5-12c-7.9,1.4-15.9,2.6-23.6,5.3c-5.3,1.9-9.3,5.1-12.1,9.9
					c-4.4,7.6-8.2,15.5-11.3,23.8c-1.2,3.1-2.6,6.2-4,9.3c-0.8,1.7-2.1,2.6-4,1.8s-2-2.6-1.3-4.2c5-11.4,9.1-23.1,15.6-33.8
					c4.2-7,10.3-11,17.9-13.3c6.4-1.9,13.1-2.8,20.2-4.2c-4.2-3.3-7.6-6.7-12.2-8.7c-1.9-0.8-3.9-0.9-5.9-0.5
					c-8.2,1.5-15.9,4.4-23.3,8c-5.7,2.8-9.6,7.4-12.2,13.1c-4,8.6-7.8,17.2-11.8,25.7c-0.3,0.7-0.6,1.5-1.1,2.2
					c-0.9,1.2-2.1,1.8-3.5,1.2c-1.5-0.6-1.9-1.9-1.6-3.4c0.1-0.5,0.3-1.1,0.5-1.5c4-8.8,7.9-17.5,12-26.2
					C234.7,409.3,237.2,405.4,241,401.8z"/>
				<path class="st2" d="M260.1,392.1c-4.8,1.8-9.3,3.3-13.3,5.8c-0.9,0.5-1.5,0.1-2.2-0.2c-5.6-2.4-11.5-3.4-17.6-2.3
					c-5.1,0.9-8.5,4.8-12.5,7.4c-1.8,1.2-3.1,3.9-5,3.6c-1.7-0.2-3.1-2.6-4.7-3.9c-11.7-9.8-21.5-21.4-31.6-32.7
					c-6.5-7.3-13.5-14.2-19.5-22.1c-2.7-3.5-5-7.4-7.1-11.3c-1.6-3.1-1.6-5.6,1-8.3c6-6.3,12.6-12.1,18.7-18.3
					c19.7-20,43.1-35.3,66.4-50.6c16.4-10.8,32.7-21.6,47.2-35.1c4.3-4,9.4-7.1,14-10.8c6.7-5.4,6.7-7.5,0.8-13.7
					c-4-4.2-8.5-7.8-13.4-11.1c-14.9-10.2-28-22.6-41.7-34.2c-15.9-13.5-30.8-28.3-47.2-41.3c-3.5-2.8-3.8-8.4-1.6-11.4
					c2.8-3.6,6-6.6,9.8-9c4.3-2.8,8.9-5.4,13.1-8.3c23.4-16.4,49.2-28.2,74.6-40.7c12.9-6.4,25.8-13,38.6-19.5c1.2-0.6,2-1,3.4,0.1
					c10.1,8.2,19.8,16.9,27.8,27.2c0.3,0.3,0.6,0.7,1,1.2c-11.4,3.9-22.1,9-32.7,14.2c-21.1,10.3-40.7,23.1-59.5,37.1
					c-2.5,1.8-5.1,3.5-7.6,5.3c-1.7,1.3-2.1,2.2-0.3,4.2c7.8,8.6,16.8,16.2,24.4,24.9c24.4,28,50.3,54.8,75.5,82.1
					c2,2.2,1,3.2-0.6,4.5c-14,12-28.6,23.2-43.7,33.9c-24.3,17.1-47.5,35.7-69.3,55.9c-8.8,8.2-17.7,16.1-27.7,22.9
					c-7.1,4.8-7.6,8.8-1.1,14.6c14.2,12.7,27.3,26.7,42.3,38.6C259,391.1,259.4,391.5,260.1,392.1z"/>
				<path class="st2" d="M264.2,387.6c-14-10.4-25.4-23.3-38.5-34.7c3.9-2.6,7.1-5.9,10.6-9c21.8-19.6,44.5-38.2,67.5-56.5
					c9.8-7.8,20.6-14.3,30.2-22.3c8.2-6.9,15.4-15,23.8-21.7c0.8-0.6,1.3-1.5,2.6-1.7c-0.6,8.2-1.2,16.3-1.9,24.5
					c-1,13.6-2.6,27.1-4.1,40.6c-0.2,2.1-1,3.7-2.6,5.1c-12.6,11.3-26,21.5-39,32.3c-15,12.4-29.1,25.7-44.2,38.1
					C266.8,383.7,264.2,384.5,264.2,387.6z"/>
				<path class="st2" d="M295.4,459.6c0.3-3.2,0.7-5.5,4-6.6c3.6-1.2,7-3.1,10.3-4.9c4-2.1,8-2.3,12-0.5c3.9,1.7,7.8,3.4,11.9,4.6
					c0.5,0.1,1,0.5,1.3,0.9c11.4,12.1,22.7,24.3,34.3,36.1c7.9,8.1,16.3,15.8,24.5,23.6c4.8,4.6,9.4,9.4,13.4,14.6
					c1.5,2,2.9,2.4,5.3,1.2c6.8-3.5,13.3-7.5,19-12.6c3.7-3.4,7.7-6.3,11.9-9c6.8-4.3,12.3-10.2,18.6-15.1c0.7-0.5,1.4-1.1,2.1-1.7
					c4.4-3.5,5.1-3.6,9.3,0c6.4,5.6,12.3,11.9,19.1,17.1c1.2,0.9,0.6,1.4-0.2,2.1c-2.7,2.3-5.5,4.5-8.5,6.4
					c-6.4,4-12.4,8.5-18.2,13.4c-7,6-14.6,11-23,14.9c-9.6,4.5-18.2,10.5-26.4,17.2c-2.2,1.8-3.8,1.8-5.9,0
					c-4.2-3.7-8.6-7.2-13.1-10.6c-26.6-19.9-49-44.6-74.4-65.9c-8.8-7.4-17.7-14.6-26-22.5C296.1,461.5,295.1,460.7,295.4,459.6z"/>
				<path class="st2" d="M398.5,559.3c3.9,3.8,8.7,5.9,11.9,10c0.8,1,1.9,1,3,0.5c2.5-1.3,5.1-2.4,7.3-4.2c8.6-7.1,18-12.9,28-17.7
					c8.1-3.9,15.4-9,22-15c6.9-6.2,15.1-10.7,22.9-16.6c-0.5,3.9-1,7.2-1.5,10.5c-0.2,1.3-1.4,1.3-2.3,1.6c-10.7,3.8-20.6,9-29,16.8
					c-5.4,5-9.5,10.8-9.4,18.6c0.1,3.6,0.9,7,2.5,10.2c0.8,1.6,1.6,3.3,2.3,4.9c1.4,3.2,1,6-1.7,8.4c-2.2,2-4.3,4.2-6.6,6.1
					c-7.1,5.8-10.4,13.2-9.8,22.2c0.1,1.6-0.4,2.4-1.6,3.3c-7.5,5.5-14.8,11.2-21.8,17.2c-2.4,2-4.5,4.5-6.7,6.8
					c-0.5,0.5-0.9,1.5-1.9,0.5c-2.6-2.6-5.8-4.4-8.9-6.3c-0.9-0.5-1.5-0.9-0.4-1.9c0.9-0.8,1-2.1,0.3-3c-1.9-2.7-3.1-5.8-5.8-7.9
					c-2.8-2.1-4.4-4.9-5.9-8c-3.3-6.8-7.9-12.5-15.6-14.5c-6.7-1.7-13.1-0.9-17.6,5.2c-0.7,0.9-1.1,0.8-2,0.3
					c-1.9-1.2-3.9-2.3-6-3.6c4.7-3.3,7.3-7.7,7.9-13.1c0.6-6-0.1-11.8-3.8-16.9c-2.5-3.5-6-5.5-9.9-7c-4-1.5-5.9-3.9-6.1-8.3
					c-0.4-7.6-3.1-14.1-9.5-18.8c3.8-2.2,7.3-4.2,10.4-6.9c1.1-1,2.2-2,3-3.1c3.9-5.1,2.1-11.4-3.8-13.8c-3.7-1.5-7.6-1.9-11.5-1.8
					c-12.6,0.1-25.3-0.1-37.6,3.4c-2.3,0.7-4.6,1.5-7.3,2.3c3.2-7.6,6-15,8.5-22.4c1.1,0.1,1.5,1,2.2,1.5c2.9,2.4,6.2,3.6,9.9,2.4
					c3-1,5.9-0.9,8.8,0c5.3,1.7,10,1.1,14.1-2.9c0.3-0.3,0.7-0.6,1.1-0.8c3.9-2.6,4.8-2.6,8.3,0.5c7.6,6.6,15.3,13.2,22.2,20.4
					c0.2,0.7-0.3,0.7-0.5,0.9c-11.5,6.3-15.1,22.4-8.8,34.2c1.6,3,3.9,5.3,7,6.6c5,2.2,8.7,5.9,11.6,10.4c3.1,4.7,7.1,7.9,12.8,8.8
					c2.7,0.4,5.3,0.2,7.7-1C389.1,574.3,395.4,568.6,398.5,559.3z"/>
				<path class="st2" d="M363.5,66.6c0.3,4.9-0.3,9.4-0.6,14c-0.9,12.9-1,25.8-0.8,38.7c0,2.7-1,4.5-3,6
					c-7.7,5.7-15.6,11.3-23.1,17.3c-7.4,5.9-15.6,10.6-22.5,17.1c-1.4,1.3-2.2,1-3.4-0.3c-6.9-7.6-13.9-15.1-20.2-23.2
					c-4.2-5.3-9.3-10-14.1-14.8c-1.4-1.4-1.5-2,0.2-3.4c17.7-14.3,37.7-24.7,57.8-35.2c9.2-4.8,18.1-10,27.1-15
					C361.7,67.3,362.5,67,363.5,66.6z"/>
				<path class="st2" d="M250.4,240.1c-0.2-0.4-0.3-0.5-0.3-0.6c1.6-11.1-2.9-19.3-12.2-25.1c-3.2-2-4.6-5-4.7-8.7
					c-0.1-2.6-0.5-5.1-1.1-7.5c-1.1-4.4-3.6-7.9-7.4-10.4c-9.9-6.7-21.8-6.6-32.5,0.4c-1.7,1.1-3.4,2.4-5.3,3.8
					c-0.4-2.7-0.2-5.2-0.1-7.8c0.2-5.4,0.6-10.7,0.8-16.1c0.1-1.8,0.6-2.3,2.3-1.8c3,0.9,6.1,1.7,9.1,2.7c5.4,1.8,10.4,1.1,15.1-2
					c1.5-1,3.1-1.9,4.5-3c3.5-2.6,7.6-3,11.7-3.9c5.1-1.1,8.6,0.4,11.8,4c1.9,2.1,4.2,3.8,6.3,5.7c0.5,0.5,1.5,0.9,0.4,1.8
					c-6,5.1-6.7,11.7-5.4,18.9c1.6,8.6,6.1,15.1,14.6,18.2c3,1.1,4.8,3.4,6.2,6.2c0.9,2,1.8,3.9,2.9,5.9c0.8,1.5,2.3,2.2,4.5,2.4
					C265.1,229.9,257.9,234.9,250.4,240.1z"/>
				<path class="st2" d="M346.6,587.8c0.2,2.2-0.8,4.5-1.6,6.8c-1.3,3.3-4.4,3.8-7.1,4.9c-0.8,0.3-1.4-0.6-2.1-1
					c-9.2-5.6-17.7-12.1-25.8-19c-6.8-5.8-14.3-10.6-21.6-15.7c-1.7-1.2-2.2-1.9-0.3-3.4c3-2.5,5.8-5.2,8.6-7.9
					c2.8-2.7,6.2-4.4,9.8-5.7c2.5-0.9,5.1-1.6,7.3-3c2.7-1.6,4.8-0.6,6.8,1c4.3,3.5,6,8.2,6.1,13.4c0.1,7.1,3.3,11.6,9.9,14
					C343.7,574.8,346.6,580.3,346.6,587.8z"/>
				<path class="st0" d="M490.9,533.7c-1.4,9.5-2.8,18.5-4.7,27.3c-1.7,7.6-2.8,15.2-3.1,22.9c-0.1,3.1-1.1,5.4-3.5,7.5
					c-5.2,4.4-10.7,8.4-16.7,11.7c-6.2,3.4-12.4,6.8-18.7,10.2c-0.2-5.4,1.7-9.8,5.5-13.4c3-2.8,6-5.5,8.9-8.4
					c4.9-4.8,5.6-8.9,2.9-15.3c-1.5-3.4-3.4-6.6-3.9-10.4c-0.7-5,0.9-9.3,4.2-13.1C469.3,543.7,479.3,538,490.9,533.7z"/>
				<path class="st2" d="M205.9,411.3c-4.8,4.8-8.1,10.5-11.3,16.2c-0.8,1.5-1.4,1.9-3,0.8c-2.4-1.8-5.4-1.7-8.2-1.1
					c-4,0.8-7.7,0.3-11.5-1c-9-2.9-18.8,2.2-21.4,10.9c-0.5,1.8-0.7,3.7-1.1,6c-2.7-2.9-5.3-5.5-7.8-8.2c-0.9-0.9-0.7-2.2-0.9-3.4
					c-1.5-11.7-1.6-23.5-1.8-35.8c4.6,3.1,9.5,2.8,14.3,3c3.7,0.1,6.2,1.7,7.6,5.1c0.5,1.3,1.1,2.5,1.7,3.7c3.6,7.1,11.2,9,17.6,4.2
					c2.2-1.7,4.2-3.8,6.3-5.6c1.9-1.7,3.7-3.3,6.5-2.2c0.2,0.1,0.4,0.1,0.5,0c3.5-2.2,5.1,0.9,7.1,2.6
					C202.4,408,204.1,409.7,205.9,411.3z"/>
				<path class="st2" d="M190.5,397.7c-3.8,0.3-6.4,2.5-8.9,5c-1,0.9-1.9,1.9-2.9,2.8c-5.1,4.7-9.1,4.1-11.7-2.4
					c-2.9-7.2-8-10.5-15.6-10.1c-0.6,0-1.3,0-1.9,0c-6.9-0.1-10.1-3-10-10c0.2-10.5,0.4-21.1,2.3-31.5c0.6-3.1,0.7-6.4,1.5-9.3
					C156.6,362.5,174.5,379,190.5,397.7z"/>
				<path class="st2" d="M207.9,188.5c11-0.1,18.1,5.9,19.4,15.7c0.2,1.2,0.3,2.3,0.4,3.5c0.2,4.1,1.8,7.5,5.1,10.1
					c2,1.6,4.1,3,6,4.7c6.9,6,7.8,16.3,2.1,23.5c-0.8,1-1.2,1.3-2.2,0.2c-14.9-16.2-33.1-28.9-48.8-44.3c-2.5-2.4-2.6-2.5-0.2-4.8
					C195.1,191.9,201.5,188.8,207.9,188.5z"/>
				<path class="st0" d="M344.1,540.5c0.7-7.2,3-13.4,9.9-17.1c1.2-0.7,1.9-0.6,3,0.4c11.3,10.3,22.5,20.8,34.6,30.2
					c1.3,1,1.6,2.1,1.1,3.5c-2.4,8-8.1,13.1-15.6,15.8c-3.8,1.4-7.3-0.7-9.9-3.6c-1.3-1.5-2.4-3.2-3.6-4.8
					c-2.8-3.6-5.8-7.1-10.1-8.9C346.3,553.2,344.8,547.2,344.1,540.5z"/>
				<path class="st0" d="M189,117.4c14.9,11.8,27.6,25.2,41.9,37c-7.7-0.3-13.6,3.6-19.5,7.6c-3.3,2.3-6.8,2.7-10.6,1.4
					c-3.6-1.2-7.2-2.5-11-2.9c-0.9-0.1-1.5-0.4-1.5-1.5C188.9,145.4,188.1,131.6,189,117.4z"/>
				<path class="st2" d="M273.9,216.6c-2.1,1-2.7-0.6-3.3-2.2c-2.2-5.5-5.8-9.3-11.5-11.6c-8.4-3.4-12.9-15.1-9.3-23.4
					c0.5-1.3,1.2-2.5,2.4-3.2c1.3-0.9,2.6-1.1,4,0.1c8.9,7.6,18.1,14.8,27.9,21.4c3,2,5.3,5,7.9,7.5c1.1,1.1,0.8,1.8-0.2,2.6
					c-4.2,3.4-8.2,7.2-13.7,8.6C276.6,216.7,275.4,217.1,273.9,216.6z"/>
				<path class="st3" d="M361,230.4c0.5,3-0.8,4.5-3,6.1c-8.7,6.1-16,14-24,21c-9.8,8.6-20.7,15.6-31.2,23.3
					c-12.4,9.1-23.6,19.6-35.8,29c-13.5,10.5-25.8,22.3-38.7,33.5c-1.5,1.3-3.2,2.4-4.6,3.8c-1.9,1.8-3.2,1.4-4.8-0.6
					c-1.9-2.5,0.5-3.1,1.6-3.9c10.2-6.8,19.3-14.9,28.2-23.2c25.3-23.6,52.7-44.5,81.1-64.3c10.3-7.2,19.9-15.2,29.5-23.3
					C359.7,231.3,360.3,230.9,361,230.4z"/>
				<path class="st0" d="M175.6,468.4c-3.7-3.6-7.4-7.1-11-10.7c-2.2-2.2-4.4-4.3-6.6-6.5c-3.2-3.3-3.8-10-1.5-14.4
					c2-3.9,7.7-6.6,12.1-5.7c1.3,0.3,2.6,0.7,3.9,1.2c3.2,1.1,6.5,1.6,9.9,0.8c1.3-0.3,2.7-0.4,4.1-0.4c3.4,0.1,4.3,1.6,2.7,4.6
					C183.8,447.2,179.7,457.7,175.6,468.4z"/>
				<path class="st3" d="M364.1,58.8c0.2,1.2-0.4,1.7-1.4,2.3c-19.3,10.2-38.7,20.4-57.9,30.6c-11.2,6-21.5,13.6-31.6,21.3
					c-2.9,2.2-2.8,2.1-5-0.9c-1-1.3-0.7-1.9,0.5-2.8c4.2-3,8.4-6.1,12.6-9c21.7-14.6,44.2-27.8,68.4-37.9c4.2-1.7,8.5-3.2,12.7-4.8
					C363.7,57.1,364.4,57.2,364.1,58.8z"/>
				<path class="st2" d="M320.7,490.6c-1.8,1.2-3.4,2-4.7,3.3c-2.6,2.6-5.6,3.1-9,2.1c-3.9-1.1-7.7-1.2-11.7,0c-4.4,1.4-9-3.6-7.6-8
					c2.2-6.9,4.3-13.8,5.8-21.2C302.7,474.8,311.6,482.6,320.7,490.6z"/>
				<path class="st3" d="M390.4,633c-5.6-2.4-10.2-5.5-14.8-8.8c-5.7-4.2-11.5-8.2-17.6-11.9c-2.3-1.4-1.7-2.3-0.2-3.6
					c3.4-3,10.3-2.9,14.5,0.3c3.5,2.7,6.5,5.9,8.1,10.1c1.4,3.7,3.4,6.8,6.5,9.2C388.4,629.4,389.5,630.8,390.4,633z"/>
				<path class="st0" d="M329.5,528.1c-2.1,2.3-4.6,3.5-6.9,5c-0.7,0.5-1.3,0.2-1.3-0.6c0-1.3-1.4-2.9,0.8-3.7
					C324.4,527.9,326.7,527.6,329.5,528.1z"/>
				<path d="M402.4,578.5c1.2-0.1,2.7,0,3.4,0.9c1.7,2.3,2.9,1,4.7,0c4.3-2.3,8.7-4.4,13.3-6.2c4.8-1.8,9.3-0.4,13.5,2.2
					c3.4,2.1,4.1,5.8,1.8,9.8c-5.2,9.2-11.6,17.4-19.7,24.1c-2.9,2.4-5.7,4.7-9,6.5c-3.1,1.7-4.9,1.3-7.1-1.4
					c-2.9-3.6-6-6.7-10.4-8.9c-8.5-4.2-9.6-11-3.6-18.2c1.8-2.2,3.6-4.3,5.8-6.1C397.1,579.5,399.4,578.4,402.4,578.5z"/>
				<path class="st2" d="M401.4,583.9c1.2-0.1,1.3,0.5,1.6,1.1c1.5,3.6,3.8,4.6,6.9,2.1c3.9-3.2,8.8-4.6,13-7.2
					c2.9-1.8,6-1.8,9.2-0.6c2.2,0.8,2.8,1.8,1.5,4c-5.3,8.8-11.6,16.6-19.7,23c-6,4.7-6,4.8-10.9-1c-1.3-1.5-2.7-2.7-4.6-3.3
					c-0.7-0.2-1.3-0.6-2-0.9c-6.3-3-6.8-5.7-2.3-11c1.7-2,3.3-4.1,5.6-5.5C400.4,584.2,401.1,584,401.4,583.9z"/>
			</g>
		</g>
	</g>
	<g id="Crabsweat_xA0_影像_3_">
	</g>
</g>
<g id="hand3">
	<g>
		<g id="Anthand_xA0_影像_2_">
			<g>
				<g>
					<path class="st0" d="M561.4,563.4c-0.2,1.7-0.4,3-0.6,4.2c-0.9,4.1-0.8,8.1,0.4,12.1c0.4,1.4,0.6,2.9,0.6,4.3
						c0,3.1-2.4,4.8-5.3,4c-0.3-0.1-0.6-0.1-0.8-0.3c-7.8-6.3-16.4-12-17.6-23.4c-0.2-2.1,0-4.2,0.5-6.2c0.5-2.4,1.9-4.8-0.3-7.1
						c0.6-7-4.2-12.9-4.1-19.9c0-1.9-0.1-3.8,2.1-4.5c2.3-0.8,5.5,0.5,6.4,2.3c0.5,1.1,0.7,2.3,1.3,3.3c2,3.9,2.7,8.8,7.8,10.4
						c0.6,0.2,1,0.8,1.4,1.3C557.5,549.8,560,556.6,561.4,563.4z"/>
					<path class="st0" d="M666.8,534.9c-0.4,1.1,0.3,1.9,0.4,2.8c0.1,1.5-0.1,2.8-1.7,3.3c-1.5,0.5-2.7-0.2-3.4-1.6
						c-0.7-1.4-1.1-2.9-1.7-4.3c-0.8-2-0.9-4.3-2.6-5.9c-0.6-0.6-0.7-1.5-0.4-2.3c0.8-2.4,2.8-3.8,5.1-4.6c2.1-0.7,3.7,0.5,4.9,2
						c2.3,2.9,4,6,5.4,9.4c0.4,0.9,0.6,1.9,1.6,2.4c4.3,2.1,6.5,5.9,8,10.2c0.6,1.5,1.2,2.6,2.8,3.3c2.9,1.2,4.4,4.1,6.1,6.4
						c1.3,1.7,2.5,3.5,4,5.1c2.6,2.6,4.6,5.7,6.2,8.9c1.6,3.1,0.7,5.6-2.4,7.3c-4,2.1-8.4,1.5-11.8-1.8c-4-3.9-6.6-8.9-9.9-13.3
						c-3.8-4.9-5.8-10.7-9.3-15.8c-1.2-1.8-1.4-4.2,0.4-6c1.4-1.4-0.4-2.2-0.5-3.3C667.9,536.4,667.8,535.5,666.8,534.9z"/>
					<path class="st0" d="M689.5,417.6c-0.1,2.6-2.1,5.8-5.7,7.6c-3.5,1.8-6.9,0.8-9.8-1.7c-1.6-1.4-3.5-2.3-4.9-3.9
						c-2.8-3.2-3-7.4-0.3-10.7c1.4-1.8,1.7-3.3,0.3-5.5c-3.4-5.7-6.1-11.7-8.2-18c-0.3-0.9-0.5-1.7-1.3-2.3
						c-1.1-0.9-1.1-2.1-0.4-3.2s1.9-1.4,3.1-1c1.8,0.5,3.2,1.7,4.5,2.9c6,5.8,10.2,12.7,12.7,20.7c0.6,1.9,1.4,3,3.4,3.7
						C687.9,408,689.5,410.8,689.5,417.6z"/>
					<path class="st0" d="M706.6,443c0.1,2.3,0,4.5-2.5,5.6c-2.2,0.9-4.1,0.2-6-1.3c-1.8-1.4-2.9-2.9-3.5-5
						c-1.1-3.6-1.8-7.2-1.9-10.9c0-1.8,0.2-3.6,2.1-4.3c1.8-0.6,2.4,1,3.6,2c1.9,1.6,2.4,4.9,5.7,5.1c1,0,1.4,1.6,1.6,2.7
						C706.1,438.9,706.3,441,706.6,443z"/>
				</g>
				<g>
					<g>
						<path d="M691.5,442.2c-0.7,3.2-0.7,5.9-0.5,8.5c1,10.9,2.1,21.9,3.2,32.8c0.4,4.1,0.4,8.2,0.2,12.3c-1,18.5,1.6,36.4,9.1,53.5
							c2.5,5.7,5.7,10.9,9.5,15.9c0.3,0.4,0.7,0.8,1,1.3c0.9,1.3,1.3,2.7-0.1,3.9c-1.5,1.3-3,0.6-4-0.7c-1.8-2.2-3.5-4.4-5.2-6.7
							c-2.5,2.8-3.6,2.9-6.7,0.4c-2.3-1.9-4.2-4.2-6.9-5.7c-1.3-0.7-1.5-2.1-0.8-3.3c0.8-1.4,2.2-1.6,3.6-1.2
							c1.5,0.5,2.6,1.7,3.7,2.7c1.5,1.3,3,2.6,4.7,4.1c0-1.2-0.5-1.8-0.9-2.5c-7.3-13.4-11.4-27.7-12.5-42.8
							c-0.5-6.5-0.7-13.1-0.4-19.6c0.1-1.1,0.1-1.9-1.3-2.3c-0.7-0.2-1.4-0.9-1.9-1.5c-15.9-17.4-31.9-34.6-47.6-52.2
							c-7.3-8.2-14.3-16.7-21.7-24.8c-2-2.2-4-4.5-6.7-6c-1.3-0.7-2.6-1.5-4.1-0.6c-1.5,1-1.1,2.5-0.9,4c0.9,5.2,3.1,9.9,5.4,14.5
							c10,20.1,20.6,39.8,32.2,59.1c1.1,1.8,2.1,3.6,3.2,5.4c1,1.8,1.8,3.7-0.4,5c-2.2,1.4-3.5-0.2-4.6-2
							c-3.6-6.1-7.2-12.2-10.8-18.3c-0.5-0.8-0.9-1.5-1.8-2c-5.3-3.4-9.8-7.6-13.9-12.4c-6.4-7.6-12.3-15.6-19.8-22.1
							c-2.5-2.2-5.1-4.3-8.5-5.3c-0.5,1.9,0.3,3.4,0.8,4.9c3.9,11,9.9,21,16.4,30.7c6.8,10.1,13.6,20.2,19.6,30.8
							c1.2,2.1,2.1,4.4,3,6.7c0.6,1.6,0.5,3.2-1.3,3.9c-1.8,0.8-3-0.4-3.6-2c-2.7-7-7-13.1-11.2-19.3c-1.3-1.9-3.4-3-5-4.5
							c-5.9-5.6-9.7-12.9-15-19c-3.8-4.5-7.6-8.8-12.3-12.3c-0.6-0.4-1.1-1.2-1.9-0.8c-0.9,0.5-0.3,1.5-0.1,2.2
							c1.8,6.3,4.6,12.3,7.7,18c8.6,15.3,16.7,30.9,26.5,45.4c1,1.5,1.7,3.1,0,4.3c-1.8,1.3-3.2,0.2-4.3-1.4
							c-4.6-6.5-8.4-13.7-12.9-20.2c-4.4-6.3-8.3-13.1-14.6-17.8c-1.3-1-3-2.7-4.5-1.8c-1.3,0.7-0.2,2.9,0,4.3
							c0.7,5.6,3.2,10.5,5.6,15.6c13.9,29.3,31.4,56.7,47.7,84.7c4.8,8.2,10.2,15.9,17.7,21.9c4.5,3.6,9.1,7,14.2,9.6
							c12.7,6.6,22.7,16.4,32.4,26.8c12.6,13.6,22.3,29.3,32.4,44.8c4.9,7.5,10.1,14.9,15.2,22.3c2.1,3.1,2.2,4.9,0.4,6
							c-1.7,1.1-3.1,0.2-5.3-2.8c-12.9-17.6-23.4-36.8-36.7-54.1c-7.4-9.7-15.8-18.5-24.8-26.8c-4.6-4.2-9.9-7.3-15.3-10.3
							c-15.2-8.4-27.6-19.7-35.7-35.3c-2-3.8-4.4-7.3-6.6-11c-10.3-18.2-21.6-35.7-31.3-54.3c-4.1-7.9-8-15.9-11.9-23.9
							c-2.5-5-3.9-10.4-4-16c-0.2-6.7,3.3-9.1,9.6-6.6c0.4,0.2,0.8,0.3,1.7,0.6c-1.6-3.4-3.2-6.4-4.6-9.5c-1.6-3.6-3.3-7.3-4.2-11.2
							c-0.2-1-0.4-2-0.4-3c-0.1-2.5,0.3-4.8,2.6-6.2c2.3-1.4,4.7-0.8,7,0.4c2.6,1.4,4.7,3.7,7.1,5.5c0.2-1.3-0.5-2-0.9-2.9
							c-2.1-4.6-4.3-9.3-5.3-14.3c-0.5-2.7-0.5-5.3,1.9-7.2c2.2-1.8,4.6-1.1,7-0.2c3.7,1.4,6.8,3.9,9.7,6.5
							c7,6.1,12.4,13.5,18.4,20.4c0.9,1.1,1.8,2.1,3.2,2.9c-0.9-1.6-1.8-3.3-2.6-4.9c-5.5-10.4-11.3-20.5-15.8-31.4
							c-1.5-3.6-2.9-7.3-3-11.3c-0.2-6.8,5.3-10.7,11.7-8.3c4,1.5,6.9,4.6,9.8,7.6c9.9,10.3,18.4,21.8,28.3,32.1
							c12.9,13.4,24.6,28,37.4,41.5c0.8,0.8,1.4,1.9,2.7,2.5c0.3-3.6-0.4-6.9-0.8-10.3c-1-10.2-2.7-20.4-2.4-30.7
							c0.1-4.6,0.9-9,3.3-13.1c4.1-7,10-7.7,15.5-1.8c2.6,2.8,4.3,6.2,5.9,9.8c4.6,10.6,7.3,21.8,10.1,33
							c6.2,24.8,16.5,48,28.8,70.4c10.7,19.3,22.3,38.1,34.8,56.3c11.4,16.6,25.3,31.1,39,45.9c4.3,4.7,8.7,9.3,13.1,13.9
							c1.2,1.3,1.6,2.8,0.3,4.1c-1.2,1.4-2.8,1.2-4.2,0.1c-0.8-0.6-1.6-1.3-2.2-2c-14.8-15.9-30-31.5-43.3-48.7
							c-15.6-20.1-28.5-42.1-41.1-64.2c-12.5-22-22.8-45-29.6-69.5c-2.3-8.3-3.9-16.8-6.5-25c-0.6-2-1.3-2.4-3.3-1.5
							c-8.8,3.7-10.2,3-12.8-6.1C692.5,445.4,692.1,444.1,691.5,442.2z M696.1,435.8c0.1,2.9,0.8,5.7,1.7,8.5c2,6.1,0.5,5.5,7.1,2.8
							c0.2-0.1,0.3-0.1,0.5-0.2c0.4-0.3,0.6-0.7,0.4-1.2c-1.9-4.6-3.5-9.4-7.5-12.7c-1.5-1.3-2.2-0.7-2.3,1.1
							C696.1,434.8,696.1,435.3,696.1,435.8z"/>
						<path d="M559.8,556.3c-0.2,2.3,0.1,4.4-1.1,6.3c-0.8,1.2,0.3,1.6,0.9,2.2c1.8,2.1,2.4,4.4,1.1,7.1c-0.2,0.4-0.6,0.7-0.2,1.4
							c2.4,4.1,2.4,4.2-0.9,7.7c-0.1,0.1-0.2,0.3-0.4,0.5c3.4,1.8,3.6,5.7,5.8,8.4c0.6,0.8,0.1,2-0.7,2.7c-0.9,0.8-2,0.9-3.1,0.5
							c-1-0.4-1.9-1.2-2.4-2.1c-0.7-1.3-1.9-1.5-3.1-2.1c-3.8-1.8-7.5-4-10.6-6.6c-1.6-1.4-2.7-4.1-4.6-5.8
							c-0.4-0.4-0.7-1.1-0.7-1.7c0-3.3,0.4-6.6-2-9c0.2,4.9-0.3,10.2-1.7,15.5c-0.2,0.9-0.4,1.8-0.8,2.6c-0.6,1.3-1.6,2-3.1,1.7
							c-1.6-0.3-2.2-1.5-2.1-3c0.1-0.8,0.3-1.6,0.5-2.4c1.3-4.8,2.1-9.6,1.6-14.5c-0.1-0.7-0.2-1.7,0.1-2.1c2.5-3.3,2.7-7.8,5.5-11
							c0.6-0.7,0.7-1.2,0.3-1.9c-0.6-1-1.1-2.1-1.8-3.4c-1.5,2.1-2.9,4.1-4.3,6c-1.1,1.5-2.5,2.7-4.3,1.3c-1.8-1.4-1-3,0.1-4.6
							c1.9-2.6,3.8-5.3,5.7-7.9c0.9-1.3,0.2-2.3-0.4-3.2c-0.5-0.7-3.8,0.5-4.4,1.6c-1,1.9-1.9,3.9-2.9,5.8c-1.5,2.7-3.1,5.3-4.8,7.9
							c-1.1,1.8-2.6,3.6-4.8,1.9c-2-1.5-1-3.3,0.2-5c2.8-4,5.3-8.1,7.2-12.5c1.1-2.5,2.7-4,5.3-4.6c0.6-0.1,1.3,0,1.6-0.8
							c-4.4-1-5.3-2.3-4.3-6.9c0.3-1.4-0.5-1.7-1.2-2.4c-1.1-1.1-2-2.4-1.5-4.1c0.5-1.8,2.1-1.8,3.7-1.9c-1.4-2.3-3.4-3.8-5.2-5.6
							c-1.1-1.1-2.2-2.1-3.3-3.2c-1.3-1.3-1.9-2.9-0.4-4.3c1.4-1.3,2.9-0.8,4.1,0.4c2.2,2.1,4.3,4.2,6.4,6.3c0.4,0.4,0.7,1.1,1.6,1
							c0.2-4.3,1-8.6,1.8-12.8c0.1-0.8,0.3-1.6,0.5-2.4c0.4-1.5,1.4-2.3,3-2.1c1.5,0.2,2.2,1.4,2.1,2.8c-0.2,2-0.5,4-0.9,5.9
							c-0.6,3-1.2,6.1-1.2,9.2c0,2.2,0.7,2.6,2.6,1.5c2.5-1.5,4-0.9,4.6,2.1c0.2,0.9,0.6,1.5,1.1,2.1c2.4,2.9,2.2,5.8-0.4,8.5
							c-0.6,0.6-2,1-0.9,2.3c1.2,1.3,1.6-0.3,2.4-0.7c6.3-3.2,12.9-3.1,19.6-1.8c1.5,0.3,2.5,1.6,2.1,3.3c-0.4,1.8-1.9,2.1-3.4,1.8
							c-3.5-0.7-7-0.3-10.6-0.3c-3.2,0.1-5.4,2-7.9,3.3c-1.3,0.7,0.1,2.6,0.3,3.9c0.2,1.4,1.2,0.6,1.9,0.4c3.7-1,7.2-0.3,10.5,1.4
							c1.6,0.8,2.6,2.2,1.7,4c-0.9,1.8-2.4,1.5-4,0.9c-2.3-1-4.6-2.2-7.3-0.9c-2.4,1.2-0.8,3-0.9,4.5c-0.1,1.7,1.1,1.4,2.3,1.3
							c1.7-0.1,3.5-0.3,5,0.7c1,0.7,1.7,0,2.5-0.4c2.8-1.4,4.8-1.2,6.7,1.3c4.2,5.5,7.8,11.4,11.5,17.2c1,1.6,1.2,3.4-0.6,4.6
							c-1.9,1.2-3.2-0.1-4.2-1.7c-2.9-4.6-5.8-9.2-8.8-13.8C561,557.9,560.4,557.1,559.8,556.3z M546.6,573.6
							c2.7-0.5,5.4-1.6,7.8-3.2c0.6-0.4,1.4-0.8,0.9-1.7c-0.5-0.7-1.1-1.6-2.2-1.1c-2.7,1-5.4,1.9-7.6,3.9c-0.4,0.4-0.8,0.9-0.7,1.4
							C545,573.8,545.8,573.6,546.6,573.6z M531.4,527.4c2.6-0.7,4.6-1.7,6.6-2.9c0.7-0.4,1.8-0.7,1.5-1.7c-0.4-1.1-1.7-1.3-2.7-1.6
							c-0.7-0.2-1.5-0.9-2.1,0.2C533.7,523.3,531.9,524.8,531.4,527.4z M545.4,564.1c3.2-0.4,6.2-1.4,8.1-4.4
							C550.9,561.3,548.3,562.7,545.4,564.1z M546.5,556.9c-1.4,0-2.6-0.1-3.7,0c-0.9,0.1-0.8,0.9-0.8,1.5c0,0.6,0.6,0.5,1,0.4
							C544.3,558.4,545.5,558.2,546.5,556.9z"/>
						<path d="M653.2,515.6c1.4-0.4,2.5-0.6,1.7-2.4c-0.6-1.3-0.5-2.7,0.8-3.7c1.3-1.1,2.9-1.1,4.4-0.6c1.8,0.6,2.8,2,2.9,3.9
							c0.2,1.8-0.2,3.5-2,4.4c-2.8,1.4-5.1,3.7-8.2,4.8c-1,0.3-2,1.8-1.7,2.8c0.3,1.1,1.8,1,2.9,0.7c2.7-0.6,4.6-2.4,6.5-4.3
							c0.6-0.6,1.1-1.2,1.6-1.8c1.1-1.3,2.5-2,4.1-0.9c1.6,1.1,1.3,2.6,0.4,4.1c-0.1,0.2-0.2,0.5-0.3,0.7c1.3,1.1,2.2,1,3.4-0.3
							c2.9-3.1,7.7-3.8,11.6-2.1c1.3,0.6,2.1,1.5,1.8,3c-0.2,1.5-1.3,2.1-2.8,2.1c-0.6,0-1.3-0.1-1.9-0.2c-4.8-0.8-7.7,2.1-6.8,6.9
							c0.3,1.7,0.5,3.4,0.8,5.5c1.1-1.4,2-2.6,3-3.7c1.9-2.1,4-2.4,6.2-0.6c3.3,2.7,6.7,5.3,10.4,7.5c1.5,0.9,2.6,2.2,1.5,4.1
							c-1.1,1.8-2.7,1.6-4.3,0.7c-3.2-1.8-6.2-3.9-8.9-6.3c-1-0.9-1.7-1.1-2.5,0.2c-1.3,2.1-2.6,4.2-5.8,3.2c-1-0.3-2.1,1.5-2.4,2.6
							c-0.3,1.2-0.9,2.8,0.4,3.8c1.1,0.8,2.3,0.1,3.3-0.5c1.1-0.7,2.2-1.6,3.3-2.4c1.4-1.1,2.9-1.9,4.3-0.3c1.5,1.7,0.6,3.2-0.8,4.5
							c-1.8,1.6-3.7,2.9-5.9,3.9c-0.6,0.3-2,0.1-1.3,1.4c0.6,1.1,0.1,3.1,2.4,3.1c1.9,0,3-1.1,3.7-2.7c0.4-0.9,0.5-1.9,0.8-2.9
							c0.4-1.3,1.4-1.9,2.8-1.7c1.3,0.2,2.1,1,2.2,2.4c0.2,2.7-0.7,5-2.4,7c-0.7,0.8-1.3,1.5-0.4,2.5c0.5,0.6,0.4,1.3,0.1,2.1
							c-0.7,2.3,0.2,3.3,2.6,2.7c2.5-0.6,4.3-2.3,6.3-3.8c1.7-1.3,3.6-3.4,5.5-0.9c1.9,2.5-0.6,3.9-2.2,5.2
							c-3.2,2.5-6.5,5.1-10.9,4.9c-2.7-0.1-4.7-1.3-6.2-3.4c-0.5-0.7-0.4-2-1.8-1.5c-1.5,0.5-0.9,1.7-0.8,2.7
							c0.9,5.6,0.6,11.2-0.2,16.8c0,0.3-0.1,0.5-0.2,0.8c-0.6,1.6-1.5,2.8-3.4,2.5c-1.9-0.4-2.3-1.9-2.1-3.5
							c0.7-4.9,1.5-9.7,0.6-14.6c-0.1-0.4-0.1-0.9-0.2-1.4c-0.8-4.7-0.7-5.1,3.1-8.1c-3.1-2-5.2-4.3-3.4-8.3
							c0.3-0.8-0.2-0.9-0.7-1.1c-2.6-1.1-3.8-3.2-4.5-6.4c-1.1,4.2-2.1,7.9-3.1,11.6c-0.3,1.1-0.6,2.3-1.1,3.3
							c-0.6,1.3-1.7,1.9-3.1,1.5c-1.5-0.4-2-1.5-1.8-2.9c0.1-1.1,0.5-2.1,0.8-3.2c1-3.5,2.2-6.9,2.7-10.5c0.1-0.4,0.3-0.7,0.3-1
							c-0.4-1.9,3.4-2.4,1.6-4.7c-1.1-1.4-2.3-2.8-3.6-4.5c-1.5,3.5-3.4,6.6-5.5,9.6c-0.5,0.7-0.9,1.4-1.4,2c-1,1.2-2.3,1.5-3.6,0.6
							c-1.3-0.8-1.4-2.3-0.7-3.4c2.1-3.6,4.6-7,6.5-10.7c0.2-0.4,0.9-0.9,1.3-0.9c2.3,0.2,1.9-1.1,1.9-2.7c0-2.1-1.4-1.5-2.4-1.5
							c-4.5-0.4-5.9-1.9-5.9-6.4c0-0.4-0.3-0.8-0.5-1.2c-1.5-3-1.3-4.2,1.2-6.6c-0.1-0.1-0.2-0.3-0.3-0.4c-7.5-5.1-4.9-5-11.5,0
							c-4.6,3.5-8.9,7.5-12,12.5c-0.9,1.4-2.2,2.1-3.7,1.2c-1.7-1-1.5-2.6-0.7-4.1c1.9-3.3,4.4-6.2,7.2-8.8c2.9-2.7,5.9-5.3,9-8
							c-1.7-1.4-3.7-2-5.5-3c-1.4-0.8-2.5-1.8-1.9-3.5c0.7-1.9,2.3-1.9,3.9-1.4c2.4,0.7,4.6,1.8,6.6,3.2c1.6,1,3.1,1.5,4.8,0.4
							c1.4-1,3.8,0.5,4.5-1.6c0.5-1.5,0.1-3.2,0.2-4.9c0.1-3.5,0.3-7.1,1-10.6c0.4-1.8,1-3.6,3.2-3.2c2.3,0.4,2.3,2.2,2,4.1
							c-0.8,6.5-1.2,13-1.2,19.6C652.7,510.6,653,513,653.2,515.6z M663.3,526.3c-1.3,1-2.4,1.8-3.5,2.6c-0.5,0.3-1.1,0.5-0.7,1.4
							c1.2,3,2.5,6,4.9,8.3c0.6,0.6,1.3,1.6,2.2,1.1c0.8-0.4,0.4-1.5,0.4-2.2C666.7,533.6,665.1,530,663.3,526.3z"/>
						<path d="M663,374.5c-3.7-0.1-5.8-1.7-7.1-5c-0.1-0.3-0.1-0.8-0.4-1c-5.3-4.4-3-10.5-3.3-15.9c-0.1-1.4,1.1-2.6,2.7-2.4
							c1.8,0.1,2.5,1.4,2.5,3c0.1,2.8,0,5.6,0.1,8.4c0.1,1.7,0.6,2.8,2.3,3.8c2.2,1.3,4.4,2.9,6.6,4.2c2.6,1.5,2.3,4.4,1.7,6.9
							c-0.7,2.6-2.1,4.8-3.8,6.8c-2,2.4-2.1,4.4-0.2,7.8c-0.9-3.1,0.4-4.5,3.2-5.3c0.9-0.2,1.4-1.8,2-2.8c1.3-2,3-2.8,5.3-2.5
							c2.2,0.4,4.5,0.7,6.7,1c1.6,0.3,2.4,1.2,2.3,2.8c-0.1,1.7-1.3,2.3-2.8,2.3c-1.3,0-2.5-0.3-3.8-0.4c-1.4-0.1-3-1.1-4.1,0.7
							c-1.2,1.8-2.3,3.3-0.8,5.8c2.3,3.9,4.4,8,3.6,13.2c1.9-1.7,3.8-2.3,6-1.6c2.2,0.6,3.6,1.9,4.5,4c0.1,0.3,0.3,0.8,0.6,0.8
							c3.8,0.9,3,3.5,2.1,6c-0.2,0.6-0.3,1.1,0,1.8c1.7,4.3-1.4,10.3-5.8,11.5c-1.1,0.3-2.5,0.5-3.1-0.3c-1.4-1.7-3.2-1.6-5.1-1.8
							c-2.6-0.4-8.5-6-8.2-8.2c0.6-3.4-0.1-6.7,0.3-10c0.2-1.4-1.3-4.5-2-4.2c-1.4,0.7-2.6,1.7-2.6,3.5c0,2.9-0.5,5.8-1.2,8.6
							c-0.4,1.4-1.1,2.7-2.3,3.6c-1.1,0.7-2.2,0.8-3.3,0c-1.1-0.9-1.3-2.1-0.6-3.2c1.7-2.8,2.1-5.9,2.1-8.9c0-4,2.2-6.2,5.1-8
							c1-0.6,1.3-1.1,1-2.1c-0.3-1.1-1.1-0.9-2-0.9c-1.6,0.1-2.6,0.8-3.5,2.1c-1.5,2.3-3.2,4.4-4.9,6.5c-1.1,1.4-2.7,2.1-4.3,0.8
							c-1.6-1.4-1-2.9,0.1-4.3c2.1-2.4,4-5,5.7-7.7c0.6-1,1.5-1.9,2.7-2.2c1.4-0.4,0.9-1.5,0.7-2.2c-0.2-1.2-1.1-0.5-1.7-0.3
							c-2.7,0.8-5.1,0.3-6.7-2.2c-1.7-2.5-1.8-6.5-0.1-8.5c0.8-0.9,1.1-1.4,0.2-2.4c-0.5-0.5-0.8-1.4-0.8-2c0.4-3-1.5-3.6-3.7-4.3
							c-3.4-1-6.7-2.2-10.1-3.4c-1.9-0.7-4.2-1.3-3.4-4c0.8-2.7,3.1-1.9,5-1.2c3.9,1.3,7.7,2.9,11.6,4c3.3,0.9,5.2,3.6,7.5,5.6
							c1.6,1.4,0.8,4.6-1.2,6.3c-0.7,0.6-1.2,5.7-0.6,6.4c0.7,0.8,1.4,0.2,1.9-0.2C659.1,381.5,661.6,378.6,663,374.5z M677,415.3
							c1.7-0.8,2.9-2,3.7-3.7c0.2-0.5,0.4-1.1-0.3-1.4c-0.7-0.3-0.9,0.3-1,0.8C679,412.7,677.9,413.9,677,415.3z"/>
						<path d="M683.8,389.4c3.7,1,8.6,3.1,13.1,5.7c1.3,0.8,1.7,2.2,0.9,3.6c-0.9,1.5-2.3,1.4-3.6,0.9c-2.9-1.2-5.9-2.4-8.7-3.9
							c-2.2-1.1-3.8-1.1-5.4,1c-1.2,1.5-3,2.5-4.6,0.7c-1.5-1.7-0.4-3.2,1-4.4C678.2,391.4,679.5,388.9,683.8,389.4z"/>
						<path d="M692.3,581.5c-2.4,0-4.5-0.7-6-2.6c-0.8-1.1-0.9-2.4,0-3.5c1-1.1,2.3-1.1,3.4-0.3c2.5,2,4.6,0.9,6.5-0.9
							c1.3-1.3,2.7-2.2,4.2-0.7s0.9,3.2-0.4,4.6C697.9,580.2,695.4,581.4,692.3,581.5z"/>
					</g>
				</g>
			</g>
		</g>
		<g id="Crabsweat_xA0_影像_4_">
		</g>
	</g>
</g>
<g id="sweat">
	<g id="Crabsweat_xA0_影像_5_">
		<g>
			<g>
				<path class="st0" d="M561.2,290.2c4.3-0.1,8.7,1.6,13.3,2.8c1.9,0.5,2.9,1.6,2.4,3.4c-0.6,1.9-2.2,2.1-4,1.7
					c-3.3-0.8-6.5-1.7-9.7-2.5c-4.4-1-8.8-0.1-13.2,0.2c-1.3,0.1-2.5,0.2-3.8,0.2c-1.4,0-2.5-0.5-2.6-2.1c-0.1-1.5,0.7-2.5,2.3-2.7
					C550.8,290.7,555.7,289.8,561.2,290.2z"/>
				<path class="st0" d="M481.1,260.4c0,1.4-0.6,2.4-2,2.7c-1.4,0.3-2.4-0.4-3.1-1.6c-0.1-0.2-0.3-0.5-0.3-0.7
					c-1.2-7.3-5.7-13.1-10-18.9c-0.5-0.6-0.9-1.3-1.3-2c-0.6-1.1-0.5-2.2,0.6-3c1.1-0.8,2.4-0.8,3.2,0.2
					c5.7,6.9,11.4,13.8,12.8,22.9C481.1,260.1,481.1,260.2,481.1,260.4z"/>
				<path class="st0" d="M511.6,259.4c-0.3,2.4-0.5,4.7-1,7c-0.3,1.8-1.4,3.2-3.5,2.8c-2.1-0.4-2.3-2-1.9-3.7
					c1.5-7.5,1.1-15-0.6-22.5c-0.3-1.5,0-2.7,1.5-3.2c1.8-0.6,3.1,0.4,3.6,2c1,3.2,1.3,6.5,1.7,9.7
					C511.7,254.2,511.6,256.8,511.6,259.4z"/>
			</g>
			<g>
				<g>
					<path d="M564.5,284c3.8-0.1,7.4,0.5,10.8,2.4c2.2,1.2,4,2.9,5.1,5.1c2,4,0.5,7.7-3.7,9.1c-3.6,1.2-7.2,0.9-10.8,0.2
						c-5.2-1-10.3-2.1-15.5-3.2c-2.2-0.5-4.5-0.8-6.7-0.6c-1.6,0.2-2.9-0.4-3.4-2c-0.5-1.5,0.2-2.6,1.4-3.5
						C548.5,286.4,556.1,284.1,564.5,284z M552.7,292.2c5.5,1.1,10.9,2.3,16.4,3.2c2,0.3,5.5,1.1,5.8-0.9c0.4-2.5-2.8-3.6-5.2-4.3
						C563.9,288.7,558.3,289.7,552.7,292.2z"/>
					<path d="M479.8,265.6c-1.1,0.2-2.3,0.1-3.1-1c-3.5-4.3-8.2-7.1-12.2-10.8c-2.7-2.4-4.7-5.2-5.5-8.9c-0.6-3.1,0-5.8,2.4-7.9
						c2.3-2,5-2,7.7-1c3.9,1.4,6.7,4.2,8.8,7.8c3.1,5.4,4.8,11.3,5.9,17.4C484.3,264.3,483.1,265.5,479.8,265.6z M477,256.5
						c-1.4-4.8-2.8-8.8-5.6-12.1c-1.1-1.3-2.5-2.4-4.1-3c-2-0.7-2.8,0.1-2.6,2c0.2,2.1,1.3,3.7,2.8,5.1
						C470.3,251.3,473.3,253.7,477,256.5z"/>
					<path d="M515,251.6c-0.1,5.6-0.7,11-3,16.2c-0.8,1.8-1.7,3.7-4.3,3.2c-2.5-0.4-3.5-1.7-3.9-4.2c-0.8-5.4-3.6-10.3-4.4-15.7
						c-0.4-2.7-0.8-5.4-0.3-8.1c0.7-3.4,3.1-6.1,6.1-6.6c3.3-0.5,6.2,1,7.9,4.5S515.1,248,515,251.6z M508.4,260.6
						c1.3-3.7,1-7.1,1-10.4c0-2.3-0.3-4.5-1.4-6.6c-0.4-0.7-0.8-1.5-1.8-1.3c-0.9,0.2-1.3,1-1.4,1.8c-0.2,1.2-0.2,2.6-0.1,3.8
						C505.3,252.2,506.6,256.2,508.4,260.6z"/>
				</g>
			</g>
		</g>
	</g>
</g>
</svg>
