<?xml version="1.0" encoding="utf-8"?>
<!-- Generator: Adobe Illustrator 18.0.0, SVG Export Plug-In . SVG Version: 6.00 Build 0)  -->
<!DOCTYPE svg PUBLIC "-//W3C//DTD SVG 1.1//EN" "http://www.w3.org/Graphics/SVG/1.1/DTD/svg11.dtd">
<svg version="1.1" xmlns="http://www.w3.org/2000/svg" xmlns:xlink="http://www.w3.org/1999/xlink" x="0px" y="0px"
	 viewBox="0 0 764.9 330" enable-background="new 0 0 764.9 330" xml:space="preserve">
<g id="_xFFFD__x83__x8C__xFFFD__x99__xA0_影像_1_">
</g>
<g id="_xFFFD__x9C__x96_撅_xFFFD__8_xA0_影像_1_">
	<g>
		<path fill="#369EBB" d="M597.4,130.1c2,0.1,3.1,1.6,2.2,3.7c-3,7.1-2.2,14.6-2.2,22c0,10.4,0.4,20.9,1.2,31.3
			c0.6,7.5,1,15,2.6,22.4c0.4,1.8,0.4,3.6-1.7,4.3c-2.1,0.7-3.5-0.5-3.9-2.3c-2.3-8.5-8.4-14.5-13.6-21.1c-4-5-8.1-10-12.1-15
			c-1.9-2.3-1.8-4.1,0.2-6.3c7.8-8.6,14.1-18.2,20.1-28c1.2-2,2.1-4.2,2.3-6.6C592.7,131.6,594.6,130,597.4,130.1z"/>
		<path fill="#369EBB" d="M466.5,152.1c-0.2,2.8-1.2,5.8-2.9,8.7c-0.5,0.8-1,1.5,0.3,2.1c6.2,3.1,8,11.2,3.6,17.9
			c-0.1,0.2-0.3,0.5-0.5,0.7c-2.1,2.2-2.3,3.8-0.1,6.6c3.4,4.3,2,9.3-0.3,13.9c-1.6,3-2.2,8.1-1.4,11.2c0.8,3.1,0.3,6-1.3,8.7
			c-0.5,0.9-1.1,1.9-1.8,2.7c-2.2,2.8-4.6,5.1-2.3,9.4c1.3,2.5,0.2,5.9-1.2,8.7c-2.8,5.7-7.4,9.6-12.7,12.7c-2,1.1-4.2,0.5-4.9-1.2
			c-0.8-2.1,0.2-3.2,2.2-4.2c4.5-2.3,8.2-5.6,10.3-10.4c1.1-2.5,1.3-4.9-0.8-7.1c-1.9-2.1-1.5-4.2,0.3-6.1c1.9-2.1,3.8-4.1,5.3-6.6
			c2.2-3.7,1.8-5.8-1.6-8.4c-2.5-1.9-2.6-3.9-0.2-6.1c2.4-2.4,4.7-4.8,5.8-8.1c1.4-4.2,0.5-6.1-3.6-7.7c-2.6-1-3.2-3.2-1.3-5.4
			c2-2.3,4.3-4.5,5.7-7.3c2.5-4.9,0.7-8.5-4.7-9.6c-2.9-0.6-4-3-2.2-5.5c1.9-2.7,3.8-5.3,4.6-8.6c0.4-1.8,0.2-3.5-0.6-5
			c-0.7-1.3-1.6-2.3-3.2-0.9c-1.2,1-2.6,1.1-3.6-0.3c-1.1-1.5-0.8-3.1,0.6-4.4c2.2-2.1,6.1-2,8.8,0.2
			C465,144.8,466.5,148.1,466.5,152.1z"/>
		<path fill="#369EBB" d="M492.8,196.3c0.1,4.5-1.4,8-3.9,11.2c-1.2,1.6-1.7,2.6-0.4,4.6c3,4.5,1.7,14.3-2,19.1
			c-1.4,1.8-3,3.4-4.8,4.9c-1.4,1.2-2.9,1.8-4.3,0.2c-1.3-1.5-1-3.3,0.5-4.3c3.8-2.4,4.6-6.4,5.7-10.1c0.9-3.1,0.9-6.3-2.4-8.4
			c-2-1.3-2-3.5-0.4-5.5c1.3-1.6,2.8-3.1,4-4.8c1.6-2.4,2.6-5,2-7.9c-0.4-2-1.4-3.4-3.4-4.2c-3.5-1.3-4-3.5-1.9-6.6
			c1.5-2.1,3.1-4,4.5-6.2c1.4-2.2,2.1-4.6,1.8-7.2c-0.3-2.8-1.8-4.6-4.4-5.7c-3.2-1.3-3.8-3.5-1.6-6.1c1.7-2,3.4-4,4.1-6.7
			c0.8-3.1-0.2-5.2-3.1-6.4c-1.1-0.5-1.7-1.3-1.7-2.5c0.1-1.4,0.8-2.1,2.2-2.4c2.4-0.5,5,0.8,6.5,3.4c2.8,4.8,2.2,9.6-0.7,14.1
			c-1.1,1.7-1,2.5,0.6,3.9c4.1,3.7,4.9,8.5,3.6,13.7c-0.3,1.1-0.7,2.3-1.3,3.3c-1.2,2-3.1,3.8-3.7,6c-0.6,2.3,2.8,3.1,3.4,5.3
			C492.3,192.7,493,194.6,492.8,196.3z"/>
		<path fill="#369EBB" d="M471,128.3c-1.9-0.5-3.9-1.3-6.2-1.2c-2.4,0.1-4.8-0.9-7.2-0.6c-0.9,0.1-1.8,0-2.6-0.6
			c-0.4-0.4-0.8-0.6-1.4-0.2c-1.7,1.2-3.3,1.3-5,0c-0.7-0.6-1.2-0.1-1.7,0.2c-0.9,0.5-1.9,0.7-2.9,0.2c-1-0.6-1.6-0.3-2.2,0.5
			c-1,1.3-2.4,1.7-3.9,1c-1.4-0.6-1.9-1.9-1.9-3.3c0-2.2,0.3-4.4,1.3-6.3c0.8-1.7,6.4-4.1,8.3-3.6c0.7,0.2,1,0,1.4-0.4
			c0.7-0.6,1.7-1,2.3-0.6c3.3,2.1,6.4,0.2,9.5-0.5c0.7-0.2,1.4,0,2.1,0.3c1.3,0.6,2.9,0.6,4,0c2.6-1.4,4.3-0.8,5.6,1.6
			c0.3,0.6,0.8,0.6,1.3,0.7c0.4,0.1,1.1,0.1,1.3,0.3c2.5,3.9,7.6,5.2,9.5,9.7c1,2.4,0.1,4.2-2.5,4.3c-0.8,0-1.6-0.1-2.4,0.3
			c-1.5,0.6-2.9,0.4-3.9-1C473.1,128.1,472.3,127.8,471,128.3z"/>
		<path fill="#369EBB" d="M519,179c0,4.4-1.8,7.7-4.1,10.6c-1,1.2-1.1,2,0.1,3.2c2.1,2.2,2.3,4.9,1.6,7.7c-1.4,5.3-5.1,8.7-9.7,11.3
			c-2,1.1-4.2,0.2-4.7-1.6c-0.6-2.1,0.2-3.4,2.4-4.1c3-1,4.9-3.4,6.1-6.2c0.7-1.7,0.3-3.1-1.4-4.2c-3.2-2.1-3.4-3.9-1-6.9
			c1.5-1.8,3-3.6,4.1-5.8c1.7-3.6,1.3-6-1.6-8.8c-3.7-3.6-3.8-4.6-0.6-8.7c1.7-2.1,3.4-4.3,3.4-7.3c0-2-0.2-3.8-2.2-4.9
			c-1.2-0.7-1.5-1.9-1-3.1c0.5-1.3,1.7-1.6,2.9-1.5c2.2,0.1,3.4,1.6,4.3,3.4c2.7,5.4,1.6,10.5-1.9,15.1c-1.3,1.7-1.3,2.6,0.2,4.2
			C518,173.5,519.2,176.3,519,179z"/>
		<path fill="#369EBB" d="M444,190.4c-0.3,2.8,0.1,6.2-3.7,7.8c-0.7,0.3-0.8,1.6-1.4,2.3c-1.6,1.9-8,1.7-9.5-0.3
			c-0.6-0.8-1-1.5-2.3-1.3c-2.3,0.4-3.4-1.1-3.7-3.1c-0.7-4.7-0.1-9.4,0.8-14c0.3-1.4,1.1-2.5,2.6-2.8c1.4-0.2,2.4,0.4,3,1.8
			c0.8,1.7,2.2,1.4,3.5,1c1.5-0.5,2.8-0.4,4.1,0.6c0.4,0.3,0.9,0.6,1.4,0.7C443.6,184.3,444.1,185,444,190.4z"/>
		<path fill="#369EBB" d="M533.6,216.9c-0.1,3.2-1.3,6.6-3.7,9.5c-4.2,5.1-9.5,8.7-15.9,10.4c-0.7,0.2-1.6,0.5-2.1,0.2
			c-1.9-0.9-3.6-1.3-5.9-0.8c-1.7,0.4-2.7-2.5-1.4-4.1c0.6-0.8,1.6-1.4,2.5-2.1c7.2-5.1,14.4-10.1,20-17c1.1-1.3,2.4-2.3,4.3-1.5
			C532.9,212.1,533.6,213.8,533.6,216.9z"/>
		<path fill="#369EBB" d="M428.3,287.9c-2.8-0.1-5.6-0.7-8.3-1.4c-1.5-0.4-2.8-0.9-4.5-0.6c-1.4,0.3-2.7-0.5-3-2.1
			c-0.3-1.7,0.5-3,2.2-3.2c9.5-1.2,17.5-5.9,25.5-10.5c1.3-0.7,2.6-0.9,3.8,0c1.5,1.1,1.5,2.6,1.2,4.2
			C443.7,282,436.2,288,428.3,287.9z"/>
		<path fill="#369EBB" d="M540.8,167.4c0,3-1.2,5.7-3,8c-0.9,1.1-1.2,1.8-0.3,3.2c2.6,3.8,2,9.5-1,13c-1.1,1.2-2.3,1.9-3.8,1
			c-1.5-0.9-1.5-2.4-1-3.9c0.4-1.1,1-2.1,1.4-3.2c0.6-2,0.4-3.6-1.6-4.9c-2.3-1.5-2.4-3.7-0.6-5.8c1.4-1.5,3-2.9,3.9-4.9
			c1.1-2.5,0.7-4.3-1.4-5.6c-1.4-0.9-2.3-2-1.4-3.6c0.9-1.6,2.3-1.9,4-1.3C538.6,160.5,540.7,164,540.8,167.4z"/>
	</g>
</g>
<g id="_xFFFD__x89__x88__xFFFD__x9C_砌_xFFFD__x8C__xA0_影像_1_">
	<g>
		<path fill="#222222" d="M321.1,223.6c2.1-2.6,4.1-5,5.9-7.4c8-10.8,15.9-21.7,24-32.4c1.7-2.2,1.7-3.5-0.5-5.4
			c-4.2-3.5-8.2-7.2-12.1-11c-2.1-2.1-3.9-2-6.1-0.2c-1.5,1.3-3.2,2.5-4.9,3.5c-3.2,1.8-5.2,0.7-5.9-2.8c-0.5-2.5,0.2-5.1-0.7-7.5
			c-0.4-0.1-0.8-0.3-1.1-0.2c-7,1.2-7.7,0.1-7.5-6.8c0.2-7.9,4.2-12.1,10.9-15.1c11.7-5.2,24-8.4,36.5-10.9
			c21.5-4.3,43.3-5,65.1-4.5c3.7,0.1,6.2-0.9,9.1-3.4c10.4-9,22.7-11.8,36.2-8.8c7.9,1.7,13,7.2,16.3,14.2c1.8,3.8,4.4,5.1,8.2,5.9
			c26,5.3,49,16.8,68.9,34.5c0.5,0.5,1.1,1,1.6,1.5c1.6,1.7,2.8,1.1,3.9-0.5c0.2-0.3,0.4-0.6,0.6-0.9c9.8-14.2,19-28.8,26.6-44.4
			c0.3-0.7,0.6-1.4,0.9-2c0.8-1.3,1.8-2.4,3.5-2.1c1.7,0.3,2.3,1.6,2.4,3.2c0.2,2.7,0.4,5.4,0.5,8.2c0.2,18.4,0.5,36.7,0.4,55.1
			c0,12.9,0.8,25.8,1.4,38.7c0.1,2.2,1,5.3-2,6c-3.2,0.8-3.6-2.4-4.5-4.5c-7-15.7-16-30.2-27.9-42.7c-1-1-1.7-2.4-3.3-2.7
			c-1,0.3-1.5,1-2.1,1.7c-7.7,9.5-16.4,18-25.6,26c-2.4,2.1-3.6,3.8-2.8,7.3c1.9,8.6-0.8,16-8.1,21c-7.5,5.1-15.7,7.7-24.6,3.6
			c-2.2-1-3.6-0.8-5.4,0.5c-14.4,10.5-29.3,20.3-45.1,28.6c-2.1,1.1-2.6,2.6-2.8,4.8c-1.9,15-14.3,24.1-29.1,21.5
			c-4.5-0.8-8.5-2.7-10.7-6.7c-1.7-3.1-3.7-3.2-6.7-2.7c-20.4,3.6-40.8,3.8-61.2-0.4c-13.1-2.7-25.1-8.4-36.6-15.1
			c-6.3-3.6-9.1-8.8-8.8-16.2c0.3-7.9,1.6-15.5,3.8-23c1.3-4.3,1.9-4.6,6.5-3.8c1.6,0.3,1.8-0.5,2.3-1.5c1-2.4,1.4-5.7,4.9-5.8
			C318.8,217.7,318.8,221.3,321.1,223.6z M321.2,145.5c2.2,2.8,4.6,4.4,6.8,6.2c9.9,7.8,19.3,16,28.6,24.5c3.7,3.4,3.9,4.3,1,8.2
			c-14.1,18.5-27.2,37.7-42.3,55.5c-3.5,4.1-6.6,8.7-9.8,13.1c-2.4,3.4-2.3,4.6,0.6,7.5c2,1.9,4.4,3.2,6.7,4.6
			c19.8,11.8,41.5,16.2,64.3,15.7c28.5-0.7,55.2-7.6,80-22c24.5-14.2,47.1-30.8,69-48.6c12.4-10.1,24.3-20.8,34.5-33.2
			c3.1-3.8,3.2-3.9-0.6-7.3c-18-16.3-39-27.3-62.6-32.6c-32.8-7.3-66.1-9.9-99.6-8.5c-20,0.8-39.7,3.9-59,9.5
			C332.9,139.8,327,141.7,321.2,145.5z M597.7,132.8c-2.6,1.7-3.2,3.7-4.1,5.4c-6,10.4-12.4,20.5-19.2,30.3c-3.1,4.5-3.8,3.5,0.4,8
			c8.5,9.1,15.8,18.9,21.8,29.7c0.4,0.7,0.6,1.7,2.3,1.6C598.5,183.1,598.1,158.3,597.7,132.8z M439.1,122.6c14,1.7,27.9,3.3,42,5.5
			c-2.3-6-6.2-10.1-11.3-11.6C458.7,113.1,448.5,115.8,439.1,122.6z M445,272.3c-1.4-0.4-2.2,0-3,0.4c-7.6,3.4-15.5,6.1-23.6,8.2
			c-1,0.3-2.4,0.2-2.8,1.4c-0.5,1.5,0.8,2.3,1.7,3.1c0.7,0.6,1.5,1.1,2.3,1.4C430.1,291.7,443.5,284.2,445,272.3z M531.7,213
			c-8.5,6.7-16.3,12.9-25,19.7c8.1,2.6,14.2,0.5,19.8-3.5C531.6,225.5,533.7,220.4,531.7,213z M305.9,237.1
			c-0.6,2.3-1.5,3.8-0.7,5.8C307.1,241.4,307.9,240,305.9,237.1z M328.1,159c-1.3,0-1.2,1.1-1.1,1.8c0,0.8-0.3,1.9,0.9,2
			c1.1,0.1,2.1-0.6,2.2-1.8C330.1,159.9,329,159.5,328.1,159z M320.5,153.1c0.2-0.7-0.4-1.1-0.9-1.5c-0.7-0.5-1.3-0.1-1.5,0.6
			c-0.2,0.8-0.6,1.8,0.7,2C319.5,154.4,320,153.9,320.5,153.1z"/>
		<path fill="#222222" d="M148.7,159.6c1.6-1.4,1.3-5.1,4.3-4.2c3.3,1,1.6,3.9,1.3,6c-0.2,1.4-0.2,2.6,1.3,3.1
			c1.4,0.4,1.8-0.8,2.2-1.8c0.7-1.9,1.9-2.5,3.8-1.9c2.3,0.6,4.8-1.8,7,0.7c0.3,0.4,1.3-0.5,1.3-1.3c0-0.9-0.2-1.8-0.3-2.7
			c-0.5-3.6-0.4-3.9,3.5-4c1.5-0.1,2.3-0.8,3.4-1.4c1.1-0.7,2.1-0.6,2.9,0.3c0.8,0.9,0.9,2,0.3,3c-0.6,1.1-1.4,2.1-2.2,3.1
			c-2.8,3.5-4.8,7.1-2.8,11.8c0.9,2.1,0.3,4.1-1.3,6c-1.9,2.2-1.7,2.5,1.3,3.2c0.9,0.2,1.8,0.2,2.7,0.5c1.1,0.4,1.9,1.2,1.9,2.4
			c0,1.2-0.8,2.1-2,2.3c-1.7,0.2-3.1,0.5-4.1,2.1c-0.6,0.9-2.2,1.1-2.9,0.1c-1.7-2.5-4.3-2.4-6.7-2.8c-3.5-0.7-5.8-3.6-8.8-5.1
			c-1.7-0.9-2.2-3.5-1.7-5.4c0.9-3.7-1.2-5.4-3.8-6.8c-1.8-1-3.5-1.9-4.9-3.4c-1.1-1.3-2.2-2.8-1-4.4c1.3-1.8,2.8-1.1,4.2,0.2
			C147.7,159.3,148.3,159.4,148.7,159.6z"/>
		<path fill="#222222" d="M220.2,166.9c1-0.2,1.4-0.2,1.7-0.3c1.5-0.8,3-1.8,4.3,0.1c1,1.4,0.3,2.8-0.9,3.8c-1.6,1.3-1,2.4-0.1,3.7
			c0.7,0.9,0.6,2.1-0.1,3c-0.9,1.1-2.2,1.2-3.4,0.5c-1.4-0.8-2.5-0.7-4-0.1c-5.6,2.3-10.1-0.8-14.7-3.2c-1.5-0.8-1.8-2.7-2-4.3
			c-0.4-3.6-1.7-6.5-4.7-8.7c-2.2-1.7-2.1-3.3,0.2-4.6c1.4-0.8,2-2,2.9-3c1.8-2,3.7-1.8,4.3,0.8c0.6,2.3,1.5,2.7,3.3,1.8
			c1.8-0.9,4.5-1,3.8-4.2c-0.2-0.9-0.7-1.7-0.7-2.6c0-1.4,0.9-2.9,2.2-2.4c2.5,0.9,4-0.1,5.8-1.4c0.8-0.6,1.8-0.3,2.5,0.4
			c0.7,0.7,0.8,1.7,0.5,2.5c-0.5,1.1-1.3,2.1-2,3.2c-1.5,2.6-2.6,5.1-0.3,8C220.3,161.7,220.3,164.2,220.2,166.9z"/>
		<path fill="#222222" d="M181.7,216.9c-1.8-4.3-1.8-4.3,1.5-6.6c0.4-0.3,0.9-0.7,1.1-1.1c0.6-1.9,3.9-0.5,3.9-3
			c0-1.9-1.7-2.6-2.7-3.9c-1.7-2.3-1.5-3.5,1.2-4.4c1.8-0.6,2.7-3.5,5.1-2.1c2.3,1.4,0.9,3.5,0.9,5.4c0.1,3,0.4,6,2.9,8.5
			c1.8,1.7,2.9,4,3.5,6.6c0.8,3.5,1.4,3.7,5.1,2.5c1.2-0.4,2.1-0.5,3,0.4c0.9,0.9,0.8,2,0.3,3c-0.5,0.9-1.2,1.6-1.1,2.9
			c0,3.9-1.4,5.1-5.1,4.3c-4.2-1-8.3-2-12.7-1.7c-1.5,0.1-3-0.8-3.7-2c-2-3.4-5.2-3.6-8.5-3.5c-1.8,0-3.6,0.1-5.2-0.9
			c-2.7-1.6-2.9-2.7-1.1-5.5c0.2-0.3,0.6-0.5,0.7-0.8c0.5-1.5,0.5-3.5,2.8-3.4c2,0.1,2.6,1.7,2.9,3.4
			C177.1,217.4,179.3,217,181.7,216.9z"/>
		<path fill="#222222" d="M191.7,140c-4.1,0.1-8.2-4-8.4-8.4c-0.2-4.6,3.8-8.6,8.6-8.5c4.5,0,8.4,3.8,8.5,8.1
			C200.4,135.5,196,139.9,191.7,140z M187.4,128.6c-1.1-0.2-1.7,0.4-1.9,1c-0.7,1.9-0.1,3.5,1.1,4.9c1.2,1.4,2.7,2.3,4.6,2.2
			c0.7,0,1.3-0.6,1.5-1.4c0.2-0.7,0-1.5-0.8-1.8c-2-0.7-3.1-2.1-3.6-4.2C188.2,129,187.6,128.8,187.4,128.6z"/>
		<path fill="#222222" d="M272.2,196.9c-3.5-0.4-7.7-0.8-11.8-1.3c-1.5-0.2-3-0.7-3.1-2.5c0-2.2,1.7-2.7,3.4-2.5
			c5.1,0.4,10.1,0.8,15.2,1.2c1.4,0.1,2.6,0.7,2.7,2.1c0.2,1.7-0.9,2.7-2.6,2.9C275,197,273.9,196.9,272.2,196.9z"/>
		<path fill="#222222" d="M279,167.3c0,1.8-1,2.6-2.2,2.9c-4.6,1.2-9.1,2.5-13.5,4.1c-1.1,0.4-2.2,0.1-2.8-1.1
			c-0.6-1.1-0.3-2.1,0.6-2.9c0.5-0.5,1.2-0.9,1.8-1.2c4-1.8,8.2-3,12.5-3.8C277,165.1,278.7,165.3,279,167.3z"/>
		<path fill="#222222" d="M269.2,222.6c0,2.1-1.7,3.4-3.5,2.4c-4.3-2.2-8.5-4.7-12.6-7.2c-0.9-0.6-1.4-1.7-0.9-2.8
			c0.5-1.1,1.5-1.8,2.6-1.4c4.9,1.8,9.5,4.2,13.6,7.5C268.9,221.5,269,222.3,269.2,222.6z"/>
		<path fill="#222222" d="M201.1,95.3c3.3,2.1,4.3,4.1,3.6,7.4c-0.4,2.2-1.9,3.5-4,3.8c-2.5,0.4-4.8-0.1-6.3-2.3
			c-1.4-2.1-1.4-4.6,0-6.6c1.6-2.2,3.6-4.2,6.8-2.3c-0.9,0.1-1.9,0.4-2.1,1.4c-0.5,2,1.3,3.2,2.1,4.7c0.4,0.7,1.2,0.8,1.9,0.5
			c0.7-0.3,0.9-1.1,0.9-1.8C204,98.1,202.6,96.7,201.1,95.3z"/>
		<path fill="#222222" d="M172,81.9c2.3-0.1,4.3,2,4.3,4.6c0,2.6-1.9,4.7-4.2,4.7c-2.3,0-4.4-2.1-4.4-4.6
			C167.7,84.2,169.8,82,172,81.9z M175.3,86.2c-0.3-1.4-0.7-2.9-2.6-2.8c-1.5,0.1-1.6,1.2-1.3,2.4c0.3,1.2-0.4,3.3,1.9,3.2
			C174.8,89,175.2,87.6,175.3,86.2z"/>
		<path fill="#222222" d="M178.8,63.9c-0.1,2.2-1.2,3.5-3.2,3.7c-1.9,0.2-3.8-1.6-3.9-3.6c-0.1-2.1,1.6-3.6,3.8-3.4
			C177.7,60.7,178.8,61.9,178.8,63.9z"/>
		<path fill="#222222" d="M176.6,46.5c-1.7,0.1-2.4-0.6-2.5-1.9c0-1.2,0.5-2.1,1.8-2.2c1.3-0.1,2,0.7,2.2,1.9
			C178.4,45.6,177.4,46.2,176.6,46.5z"/>
		<path fill="#222222" d="M422.4,199.7c-1.6,1.9-1.9,3.9-2.8,5.7c-0.8,1.7-1.7,3.2-3.2,4.3c-1.5,1-3,1.3-4.4-0.3
			c-1.1-1.4-0.7-2.6,0.3-3.9c6.5-9.1,8.6-19.7,9.5-30.6c0.2-2-0.1-4,0-6c0.1-1.4,0.9-2.4,2.5-2.4c1.3,0,1.9,0.9,2.1,2.1
			c0.2,1.4,0.4,2.9,0.6,4.3c0.5,4.4,0.5,4.4,5.1,5c3.4,0.4,6.9,0.5,10.3,1c4.2,0.7,5.3,2,5.1,6.2c-0.2,5.1-0.8,10.1-2.2,15
			c-1,3.4-3.2,5.1-6.7,5.4c-3.9,0.4-7.6-0.2-11-2.3C425.9,202.2,424.3,201,422.4,199.7z M424.7,190.7c0.8,3.6,2.7,5.8,5.4,7.4
			c2.2,1.3,4.5,2.2,7.2,2c2-0.2,2.7-1.5,3.1-3.2c0.2-1.1,0.4-2.5-0.9-2.8C434.6,193,430.1,190.8,424.7,190.7z M430.2,182.9
			C430.2,182.9,430.2,182.9,430.2,182.9c-0.5,0-1.1,0-1.6,0c-0.9,0-1.9-0.1-2,1.2c-0.1,1.1,0.9,1.5,1.8,1.7
			c3.5,0.9,6.9,1.9,10.4,2.7c1.2,0.3,2.6,0.6,3-1.2c0.4-2-0.4-3.1-2.4-3.3C436.3,183.5,433.2,183.2,430.2,182.9z"/>
		<path fill="#222222" d="M387.8,149.5c-0.4,3-0.3,6.7-1.6,10.2c-1.5,3.9-4.6,4.5-7.6,1.6c-4.1-3.9-5.8-14-3.3-18.9
			c1.1-2.1,2.7-2.5,4.8-0.9c0.8,0.6,1.2,1.5,2.6,1.6C387.5,143.4,387.9,144,387.8,149.5z"/>
	</g>
</g>
<g id="_xFFFD__x9C__x96_撅_xFFFD__2_xA0_影像_1_">
</g>
</svg>
