<?xml version="1.0" encoding="utf-8"?>
<!-- Generator: Adobe Illustrator 18.0.0, SVG Export Plug-In . SVG Version: 6.00 Build 0)  -->
<!DOCTYPE svg PUBLIC "-//W3C//DTD SVG 1.1//EN" "http://www.w3.org/Graphics/SVG/1.1/DTD/svg11.dtd">
<svg version="1.1" xmlns="http://www.w3.org/2000/svg" xmlns:xlink="http://www.w3.org/1999/xlink" x="0px" y="0px"
	 viewBox="0 0 764.9 330" enable-background="new 0 0 764.9 330" xml:space="preserve">
<g id="_xFFFD__x83__x8C__xFFFD__x99__xA0_影像_1_">
</g>
<g id="_xFFFD__x9C__x96_撅_xFFFD__8_xA0_影像_1_">
	<g>
		<path fill="#369EBB" d="M329.9,108.9c1,6,2.7,11.4,4.8,16.7c0.4,1.1,0.9,2.2,1.4,3.3c2.1,5,0.9,7.1-4.6,7.5
			c-2.4,0.2-4.9,0.1-7.3-0.1c-4.1-0.3-8.1-0.9-12.2-0.9c-4.2,0-5.3-1.4-5.4-5.7c-0.3-10.1,1-20.1,1.7-30.2c0.1-1.8,0.9-3.2,2.9-3.4
			c1.6-0.2,2.6,0.8,2.7,2.4c0.1,1,0.8,1.1,1.5,1.4c1.5,0.6,3.1,1.1,4.5,1.8c1.7,0.8,3.3,2,4.2-1c0.2-0.6,1.4-1.1,2.2-1.5
			c3.7-1.8,7.5-3.6,11.3-5.4c3.4-1.7,8.6-0.4,10.3,2.9c2.4,4.8,6.6,6,11.2,6.4c4.4,0.3,8.9,0,13.3-0.8c3.2-0.6,4.6,0.6,4.6,3.8
			c0,1.1,0.7,1.1,1.1,1.6c1.6,1.5,1.6,3.3,0,4.4c-4.5,2.9-8.1,7.5-14.1,7.7c-1.4,0.1-1.2,1.1-1.3,2c-0.3,1.8-0.8,3.5-2.9,3.9
			c-2.1,0.4-3-1.2-3.9-2.7c-0.3-0.5-0.5-0.9-0.8-1.4c-2.5-5.1-5-9.8-12.2-8.5c-2,0.3-4.3-0.7-6.3-1.4
			C334.3,110.7,332.3,109.8,329.9,108.9z"/>
		<path fill="#369EBB" d="M405.9,110c1.9-2.7,2-5,1.6-7.4c-0.4-3.3-0.1-6.5,0.4-9.8c0.3-2,1.2-3.6,3.5-3.3c2.1,0.4,2.2,2.1,1.8,3.8
			c-0.1,0.6-0.6,1.4,0.1,1.8c0.8,0.5,1.4-0.2,1.8-0.7c1.2-1.5,2.3-3,3.6-4.5c2.2-2.5,4.4-2.4,6,0.5c0.6,1.1,1,0.7,1.6,0.4
			c0.7-0.4,1.4-0.8,2.3-1.1c-1.6,4.4-1.3,9.4-4.9,13c-1.8,1.8-1.6,3.4,0.6,4.5c1.4,0.7,3,1.5,4.4,1.2c2.5-0.6,2.8,0.8,3.5,2.6
			c1.5,3.9,3.9,7.4,6.1,10.9c2,3.2,3.7,6.5,3.1,10.4c-1.3,7.7-9.1,13-16.9,12.5c-5.9-0.4-11-3-16.5-4.3c-3.6-0.8-7.2-0.7-10.8,0.2
			c-2.9,0.7-4.1-0.4-3.8-3.3c0.1-1.5,0.4-3.1,0.9-4.5c3.2-8.5,7.4-16.2,15.5-21c1.1-0.6,1.9-1.3,1.3-2.5c-0.6-1.1-1.6-1-2.6-0.6
			C407.8,109.1,407.2,109.4,405.9,110z"/>
		<path fill="#369EBB" d="M299.9,88.9c-2.3,0.8-4.5,0.4-6.8,0.4c-2,0.1-3.3-1.7-5.4-1c-1.7,0.5-2.7,0.6-2.7,3.2
			c0.2,7.5,1.3,14.8,2.8,22.1c0.3,1.4,0.2,2.8-1.2,3.6c-1.3,0.8-2.8,0.7-3.8-0.2c-4.2-3.7-8.9-3.4-13.8-2.1c-3.1,0.8-5.1-1-5-4.2
			c0.1-2.8,1.4-5.2,2.7-7.6c1.9-3.5,4.7-6.5,7.4-9.4c0.6-0.7,1.4-1.4,2.3-1.3c2.2,0.2,3.5-0.7,4.8-2.5c0.6-0.9,0.8-1.4,0.7-2.5
			c-0.6-4.3,1.2-6.3,4.6-6.3c2.1,0,4.2-1.2,6.2-1.8c2.5-0.8,4.9-2.1,8.1-1.5c2.2,0.4,5.3,1.8,8-0.4c1.2-1,3.1-1.1,4.7-0.8
			c1.2,0.2,2.2,0.8,2.6,2.1c0.4,1.4-0.1,2.5-1.2,3.4c-0.7,0.5-1.6,1.2-2.4,1.2c-2,0.1-3.1,1.5-4.7,2.3
			C305.2,86.9,302.8,88.7,299.9,88.9z"/>
		<path fill="#369EBB" d="M204.5,131.2c0-4.6,2.8-7.6,7.1-8.4c2.5-0.5,5.3-0.1,7.5-2c0.1-0.1,0.2-0.1,0.3-0.1
			c3.2,1.3,6.6-1.1,9.8,0.6c2,1.1,4.3,1.5,6.5,2c1.7,0.4,2.8,1.4,2.5,3.3c-0.3,1.7-1.5,2.4-3.1,2.3c-0.9,0-1.8-0.1-2.7-0.3
			c-1.7-0.5-3.5-1.3-4.7,0.9c0,0.1-0.2,0.2-0.2,0.1c-3.1-0.7-5.4,1.7-7.8,2.7c-2.4,1-5.3,0.7-7.2,3.2c-1.6,2.1-3.9,0.6-5.8,0
			C204.4,134.8,204.7,132.7,204.5,131.2z"/>
		<path fill="#369EBB" d="M219.9,92.8c1.6,0,3,0.6,4.4,1.3c4.7,2.2,9.4,4.4,14,6.7c1.7,0.8,3.4,2,2.3,4.2c-1.1,2.2-2.9,1.8-4.7,0.8
			c-1.2-0.7-2.4-1.3-3.8-0.4c-0.2,0.1-0.5,0.2-0.8,0.1c-5.5-1.2-10.5-3.4-15.1-6.5c-0.9-0.6-1.1-1.9-0.5-2.7
			C216.8,94.7,217.4,92.6,219.9,92.8z"/>
		<path fill="#369EBB" d="M445,124.1c-1.8-4.5-5-8.2-7.5-12.3c-1.1-1.9-2.2-3.8-0.3-6.2c1.5,3.9,4.3,6.8,6.7,9.9
			c1.1,1.3,1.8,2.9,2.5,4.5C447.3,121.6,447.6,123.3,445,124.1z"/>
		<path fill="#369EBB" d="M390.1,141.6c0.9,0.8,0.5,1.5,0.4,2.2c-0.4,3.7,0.8,4.7,4.4,3.7c3.2-0.9,6.4-2.2,9.8-1.7
			c0.1,0,0.2,0,0.3,0.2c-3.7,0-7,1.4-10.2,3.2c-1.4,0.8-3,1-4.4,0c-1.5-1.1-1.8-2.7-1.3-4.4C389.3,143.7,389.1,142.5,390.1,141.6z"
			/>
		<path fill="#369EBB" d="M429.4,100.9c1.2-3.8,2.3-7.3,3.4-10.8c0.2-0.5,0.3-1.4,1.2-1.1c1,0.3,0.7,1.1,0.5,1.8
			c-0.8,2.8-1.6,5.5-2.3,8.3C431.8,100.4,431.1,100.9,429.4,100.9z"/>
		<path fill="#369EBB" d="M421.5,150.4c-4.3,0.2-8.1-1.5-12.1-3.2C414.3,145.4,417.4,149.7,421.5,150.4z"/>
		<path fill="#369EBB" d="M371,109.7c-1.6,1.1-3.3,2.2-4.9,3.3c-1.1,0.8-2.2,1-3.5,0.3c-1.4-0.8-2.9-1-4.3,0.1
			c-0.6,0.5-1.2,0.6-1.4-0.3c-0.3-0.9,0.6-0.8,1-0.9C362.2,111.5,366.6,110.6,371,109.7z"/>
	</g>
</g>
<g id="_xFFFD__x89__x88__xFFFD__x9C_砌_xFFFD__x8C__xA0_影像_1_">
	<g>
		<path fill="#222222" d="M302.1,134.1c1.5,1.6,3.1,3.1,3.5,5.4c0.4,2.8-0.4,4-3.2,4.6c-1.9,0.4-1.9,0.4-3.5,1.6
			c1.4,1.3,3.1,0.7,4.7,0.9c4.7,0.5,9.4,1.2,13.9,2.5c5.2,1.5,9.5-0.3,12.1-5c2-3.4,3.5-4.1,6.4-2.9c3,1.3,5.7,5.8,4.9,8.4
			c-0.7,2.5-3.3,3.5-6.2,1.8c-2.6-1.5-4.3-1.3-5.8,1.5c4.1,2.6,8.4,4.4,12.2,7.4c1.7,1.3,2.6-0.5,3.6-1.3
			c7.6-6.3,15.1-12.6,22.6-18.9c11.4-9.6,22.8-19.2,34.3-28.7c3.3-2.7,5.4-5.5,4.2-10.2c-0.8-3.3-0.6-6.9-0.2-10.3
			c0.2-1.4,0.4-2.9,0.9-4.2c1.7-4.2,4.9-4.7,8-1.5c0.9,0.9,1.6,2,2.5,3.2c2.1-2.4,3.9-4.9,6.1-7c3.1-3,5.1-2.7,7.1,1.1
			c0.8,1.6,1.5,1.4,2.9,1.2c4.2-0.6,5,0.2,5.3,4.5c0.1,1.2-0.4,2.3,1,3.3c4.8,3.7,4.9,4.7,2.7,9.9c-0.4,0.8-1,1.6-0.8,2.6
			c2.3,1,4.9,1.2,7.3,1.7c1.5,0.3,2.8,1.1,2.6,2.9c-0.2,1.8-1.7,2.1-3.2,2.2c-1.9,0.1-3.8-1.1-5.9-0.5c0.5,2.5,2.2,3.9,3.6,5.6
			c2.4,3,5.1,5.7,6.9,9.1c0.9,1.6,1.8,2.5,3.9,1.8c11.9-3.9,24.2-6.6,35.5-12.3c2.8-1.4,5.5-2.9,7.8-5c3-2.6,4.9-5.9,5.3-9.9
			c0.4-4,0.9-8,0.8-12c-0.3-12.7,5.3-21.4,16.9-26.6c13.8-6.2,27.7-12,41.8-17.2c2-0.7,4.2-2,5.8,0.6c1.1,1.7-0.2,3.3-3.9,4.7
			c-10.9,4-21.7,8.3-32.4,13c-3,1.3-5.9,2.9-8.9,4.1c-9.6,3.9-13.9,11.1-13.8,21.3c0.1,4-0.2,8-0.6,12c-0.8,7.7-4.8,13.2-11.2,17.1
			c-6.1,3.7-12.6,6.5-19.4,8.5c-7.1,2.1-14.3,4.3-21.4,6.3c-2.3,0.6-3.3,1.7-3.3,4.1c0.1,2.5-0.5,5.1-1.5,7.4
			c-3.4,8.1-9.5,12-18.2,12.5c-4,0.2-8.5-1.7-11.8-0.4c-3.3,1.4-5,5.9-8.1,8.5c-4,3.3-8.4,5.7-13.3,7.3c-11,3.6-22.2,3.2-33.5,3
			c-1.8,0-3.5-0.5-3.5-2.5c0-2,1.7-2.5,3.5-2.6c4.2,0,8.4-0.1,12.5-0.1c7,0,13.8-1.2,20.3-3.5c6.2-2.1,11.1-5.9,15.4-11.5
			c-6.8-3-12.8-7-20.3-3.4c-6.1,2.9-12.5-2.8-10.5-10.1c0.4-1.5,0.9-3.1,1.3-4.5c-1.6-1.1-2.3,0.1-3,0.6
			c-10.3,7.5-20.1,15.6-29.4,24.3c-1.9,1.8-3.2,3.4-0.9,5.8c1.2,1.2,1.5,3,1.2,4.6c-0.6,3.3,1.3,3.7,3.7,3.7c1.1,0,2.2,0.3,3.3,0.2
			c3-0.1,5.2,1.3,6.8,3.8c3.4,5.2,5.8,10.9,8.5,16.5c0.2,0.3,0.2,0.7,0.3,1c0.3,1.5,0.2,3-1.5,3.7c-1.4,0.5-2.5-0.2-3.2-1.4
			c-0.9-1.5-1.7-3.2-2.5-4.8c-1.1-2.3-2.4-4.5-3.2-6.9c-1.9-5.5-5.7-7.4-11.3-7.1c-5.2,0.3-7.6,2-9.6,8.1c2.5,0.8,5,0.3,7.4,0.3
			c2.7-0.1,5,0.6,6.7,2.9c3.3,4.5,6.7,9.1,10,13.6c0.4,0.6,0.7,1.3,1,1.9c0.5,1.3,0.5,2.6-0.8,3.4c-1.5,1-2.8,0.4-3.8-0.9
			c-2.5-3.5-5.2-7-7.4-10.8c-2.3-4-5.5-5.5-9.9-4.9c-1.1,0.2-2.2,0-3.3,0.1c-3.1,0.2-3.1,0.2-4.2,4.1c7.6,2.6,7.5,2.6,11.8,10.2
			c1.9,3.3,4,6.5,5.9,9.8c0.6,1.1,1.2,2.2,1.6,3.4c0.3,1.1,0.1,2.2-1.1,2.8c-1.1,0.6-2.2,0.2-2.9-0.6c-0.8-1-1.6-2-2.2-3.1
			c-2.6-4.4-5.3-8.7-7.5-13.3c-1.5-3.1-4-3.2-6.8-3.5c-2.7-0.3-3.1,2-4.1,3.7c-0.6,1.1-1.1,2.3-1.8,3.8c5.4,1.2,6.9,5.3,8.1,9.9
			c1.2,4.6,3,8.9,4.6,13.4c1.4,3.8,1.5,3.9,5.4,3c12.1-2.7,24-5.9,35.6-10.1c11.5-4,23.1-7.7,34.4-12.4c6.7-2.8,13.2-6,19.2-10.2
			c6.1-4.1,10.1-9.7,10.7-17c1.1-13.6,8.6-22.4,20.2-28.3c3.2-1.7,6.5-3.4,9.8-4.7c18.1-7.2,35.3-16.3,52.4-25.5
			c5-2.7,9.7-5.8,14.2-9.2c3.8-2.9,5.5-6.6,4.4-11.4c-1.1-4.6-2-9.2-3.1-13.8c-0.9-3.9-1.1-7.9-0.6-11.9c0.7-6.4,3.5-11.8,8.7-15.8
			c4.3-3.3,8.9-6.2,13.7-9c0.8-0.5,1.6-0.9,2.5-1.1c1.5-0.5,3-0.3,3.7,1.3c0.8,1.7-0.4,2.7-1.8,3.4c-4.3,2.1-8,5-12,7.5
			c-8.1,5.1-10.5,12.7-9.1,21.7c0.6,3.8,1.6,7.4,2.5,11.2c3.3,13.5,1.5,18-9.9,25.8c-6.6,4.5-13.6,8.4-20.8,12
			c-14.4,7.3-28.7,14.9-43.9,20.7c-5.5,2.1-10.4,5.2-15.2,8.6c-5.2,3.7-8.3,8.6-9.3,14.8c-0.2,1.3-0.6,2.5-0.7,3.8
			c-1.2,10.6-7,18-15.8,23.5c-8.2,5.1-17,9-26.1,12.3c-25.1,9.1-50.4,17.7-76.8,22.4c-15.6,2.7-31.3,4.2-47,6
			c-27.8,3.2-55.7,6-83.1,11.8c-16.3,3.4-31.9,8.8-46.4,16.9c-3.7,2.1-5.4,2-6.1,0.1c-1.1-3.2,1.7-4,3.6-5.1
			c15.8-8.9,32.9-14.4,50.6-18c19.6-4,39.5-6.2,59.3-8.8c21.1-2.8,42.3-4,63.3-7.6c9.2-1.6,9.2-1.5,6.2-10.3
			c-1.1-3.4-2.2-6.9-3.3-10.4c-1.4-4.2-4.8-5.4-8.3-2.8c-3.8,2.8-7.6,3.1-11.8,1.6c-1.7-0.6-3.5-1.2-5-2.2
			c-12.1-7.4-25.4-8.3-39-7.6c-4.6,0.2-8.5,0-11.7-4.1c-1.8-2.3-6.1-0.7-7.6,2.9c-2,4.7-3.9,9.4-5.8,14.1c-0.8,1.9-1,4.6-4.1,4.1
			c-2-0.4-2.3-2.6-0.9-6.1c2.1-5,4.3-10,6.3-15.1c1.1-2.8,3.4-4.1,6-5.2c1.4-0.6,3.6-0.6,3.2-3c-0.3-1.6,0.2-3.9-2.2-4.6
			c-2-0.6-3.9-0.9-5.6,0.9c-1,1.1-2,2.1-2.9,3.2c-3.4,4-6.7,8.1-10.1,12.2c-0.7,0.8-1.3,1.8-2.1,2.5c-0.9,0.7-1.9,1-3,0.3
			c-1.1-0.7-1.1-1.8-1-2.9c0.2-1.3,1-2.3,1.8-3.3c4.4-5.1,8.8-10.2,13.2-15.2c2-2.3,4.3-3.9,7.6-3.1c1.3,0.3,2.5,0.5,3.1-1.3
			c0.6-2.1,0-6.1-1.1-6.7c-1.2-0.6-2.1,0.1-2.8,0.9c-1.9,2-3.7,4-5.6,6c-2.2,2.2-4.5,4.2-7.4,5.5c-4.1,1.8-5.9,1.2-8.3-2.8
			c-2.1,0.7-3.5,2.5-5.4,3.6c-1.2,0.7-2.5,0.8-3.4-0.4c-0.9-1.1-0.8-2.4,0-3.5c0.4-0.6,0.9-1.1,1.5-1.6c5.9-4.5,11.9-9,17.9-13.5
			c1.8-1.3,3.9-2.6,6.1-1.8c3.7,1.3,5.4-0.7,6.9-3.5c0.4-0.8,0.8-1.6,1.4-2.7c-3.8-2.7-8.2-3-12.3-3.8c-1.7-0.3-3,1.2-4.2,2.2
			c-4.9,3.8-9.6,7.8-15,10.9c-3.8,2.2-5.9,2.4-6.6,0.3c-1.1-3.2,1.8-4,3.7-5.1c4.9-2.9,9.5-6.1,13.7-9.8c4.3-3.8,8.7-4.8,14-2.8
			c2.2,0.8,4.5,1.2,7.5,2c-2.4-5.1-3.9-9.8-4.7-14.8c-1.3-8.2,0.7-15.5,4.4-22.5c1.5-2.8,2.4-5.5,2.3-8.8
			c-0.5-12.9,5.6-22.7,15.4-30.4c12-9.5,25.8-13.1,41-10.1c5.8,1.1,10.9,4,15.6,7.5c4.6,3.3,8.9,6.9,13.6,10.1
			c7.3,5,15.2,8.5,24,9.7c4.8,0.6,9.4-0.2,14.1-0.8c1.6-0.2,3.3-0.4,4.4,1.3c1.1,1.7,0.1,3.2-0.9,4.5c-4.2,5.5-8.6,10.8-14.1,15.1
			c-9.7,7.6-20.4,13.3-32,17.2c-12.4,4.1-24.7,3.9-36.6-2.1c-1-0.5-1.9-1-3.1-0.7c-5.6-6.6-11.9-12.2-20.3-16.2
			c0.4,5.9-2.3,9.6-5.8,12.9c-0.9,0.9-2.3,1.5-2.5,2.8c-0.6,5.5-2.5,10.8-3.3,16.9c5.1-1,9.6-2.2,14.2-2.6c5.1-0.5,7.8-4.1,11.1-7.1
			c0.7-0.6,0.7-1.5,0.7-2.5C296.1,133.1,296.6,132.9,302.1,134.1z M312.7,177.7c-7-2.4-14.2-3.7-21.7-2.8c-1.8,0.2-3.6,0.7-5.4,0.2
			c-0.9-0.3-1.5-1-1.7-2c-0.1-1,0.4-1.8,1.3-2.2c0.8-0.4,1.7-0.6,2.6-0.8c9-1.5,17.7-0.4,26.3,2.2c1.4,0.4,3,0.8,3.5,2.3
			c0.6,2.3,2,2.7,4,2.4c1.7-0.2,3.7,0.7,5.2-0.8c3.5-3.6,7-7.3,10.5-10.9c-4.2-4.1-12.3-8.1-20.3-10.6c-13.3-4-26.5-2.7-39.9-0.3
			c-7,1.3-10.5,5.2-11.8,11.6c-1.8,9.3-2.1,18.7-0.8,28.2c0.2,1.6,0.7,3.2,1.3,4.7c1.7,4.7,2.2,5,7.1,4.8c15-0.7,29.8,0.2,43.1,8.5
			c0.3,0.2,0.7,0.3,1,0.5c6.1,2.7,8.5,2.2,12.6-3.2c3.1-4.2,5.5-9,7.6-13.8c0.8-1.9,3-4.4,1-5.7c-2.2-1.4-3.5,1.8-4.8,3.3
			c-6.3,7.3-14.5,9.9-23.8,9.8c-2,0-4-0.3-5.8-1.3c-1.7-1-3.6-2-3.5-4.4c0.1-2.3,2.1-2.7,3.8-3.4c3.4-1.5,6.9-2.7,9.8-5
			c-0.4-0.7-0.5-0.9-0.6-1c-0.6-0.4-1.2-0.8-1.8-1.1c-5.1-3-5.2-4.2-0.2-7.2C311.7,179.2,312.4,178.9,312.7,177.7z M434.1,110.2
			c-1.8,3.4-3.1,6-4.5,8.5c-0.9,1.5-2.3,2.5-4.1,1.3c-1.6-1.1-0.9-2.5-0.3-3.8c0.7-1.5,2.3-2.8,1.9-5c-6.5-2-13-2-17.7,2.9
			c-6.1,6.4-10.9,14-15.1,21.9c-1.1,2.1-1.9,4.3-2.1,6.7c-0.2,1.7,0.7,2.8,2.6,2.6c0.9-0.1,1.8-0.3,2.6-0.6
			c5.2-1.9,10.1-1.6,15.2,0.9c6.6,3.2,13.8,4.3,21.1,4.5c6.1,0.2,11.6-1.6,14.6-7.6c2.9-5.7,2.1-11.4-1.6-16.4
			C442.8,120.9,438.6,115.9,434.1,110.2z M311.7,100.7c-1.3,1.2-1.2,2.3-1.3,3.3c-0.8,8.3-0.4,16.6-0.6,24.9c0,1.9,1.1,2.5,2.5,3
			c6.3,2.1,12.7,2.7,19.3,1.9c2.5-0.3,2.7-1.5,2-3.7c-1.8-5.5-3.7-11-4.7-16.7c-0.2-1.2-0.3-2.6-1.7-3.2
			C321.6,107.5,316.6,103.9,311.7,100.7z M303.2,126.6c0.4-0.1,0.9-0.2,1.3-0.3c-0.4-9.2,0.4-18.4,1.1-27.5c0.2-2-1.1-2.9-2.7-3.6
			c-3.7-1.6-7.6-2.4-11.6-2.6c-3.2-0.1-3.9,0.5-3.4,3.8c1,6.4,2.2,12.8,3.4,19.3c0.2,1,0.9,1.5,1.6,2.1
			C296.3,120.8,299.8,123.7,303.2,126.6z M325.7,102.5c13.8,8.7,35.3,11.1,42.9,5.3c-0.1-0.1-0.2-0.4-0.3-0.4
			c-10.2-0.4-19.6-3.6-28-9.3c-1.2-0.8-2.3-0.9-3.6-0.3C333.3,99.2,329.8,100.7,325.7,102.5z M306.8,90.5c4.1,2.7,7.5,5,10.9,7.4
			c1.3,0.9,2.5,1.2,4,0.5c3.9-1.7,7.8-3.4,12.2-5.3c-3.7-4.3-7.9-6.9-11.8-9.6c-1-0.7-2-0.5-3,0.1C315.3,85.7,311.4,87.9,306.8,90.5
			z M339.4,131.4c2.4,0,4.1-1,5.9-1.8c2.2-0.9,4.3-1.9,6.4-2.9c0.8-0.4,1.6-0.8,1.6-1.9c0-1.5-5-8.7-6.4-9c-4-0.9-8-1.6-12.5-2.4
			C335.1,120.1,338,125.5,339.4,131.4z M267.4,110.8c2.5-1.4,4.3-2.6,6.2-3.4c3.2-1.5,4.5-0.8,4.9,2.9c0.1,1.3,0.2,2.1,1.6,2
			c1.6-0.1,3.1,0.9,5,0c-1-5.8-1.9-11.7-2.9-17.5C275,96.1,268.3,103.1,267.4,110.8z M283.8,87.4c3.8,0,6.6-0.5,9.2,0.1
			c5.1,1.2,9.3-0.3,13.3-2.9c2.1-1.4,4.8-2,7.1-5.3C302.6,80.6,292.8,80.6,283.8,87.4z M411.4,91.5c-1.7,3.8-0.8,7.2-0.4,10.5
			c0.4,3.3,1,3.6,4.2,3.4c2.2-0.2,3.6-0.9,4.4-3.2c0.9-2.9,3.2-4.1,6.3-4.1c3.7,0,3.7-0.2,4.7-4.6c-2.1,0-2.6,2.3-4.3,2.9
			c-2.4,0.8-2.9-2.3-5-2.3c-0.5,1.4-1,2.5-1.4,3.7c-0.6,1.7-1.6,3-3.5,2.7c-1.7-0.2-2.3-1.6-2.7-3.1C413.2,95.5,413,93.6,411.4,91.5
			z M263.2,151.5c1.8-5.2,3.4-9.5,3.5-14.1c-5-0.1-5.7,1.1-5.8,5.5C260.8,145.6,261.1,148.2,263.2,151.5z M355.7,116.9
			c0.3,2,1.3,3.3,2.1,4.6c0.5,0.9,1.3,1.3,2.2,0.8c3.6-2,7.1-4.2,9.8-7.4C365.2,116.4,360.6,116.4,355.7,116.9z M234.5,187.1
			c6.4-0.6,10.9-4,14.1-10.8C243.3,179.5,239.2,182.8,234.5,187.1z M343.3,171.4c-4.8,2.9-6.2,4.4-7.6,8.3
			C339.4,178,342,175.8,343.3,171.4z M273,120.6c1.7-0.3,3-1.1,4-2c1.2-1,0.1-1.9-0.5-2.7c-0.8-1-1.5-0.4-2,0.4
			C273.8,117.5,272.8,118.6,273,120.6z M427.6,104.7c0-1-0.7-1.2-1.4-1.3c-0.5,0-1.1,0.1-1.1,0.6c0,0.7,0.7,1.1,1.4,1.2
			C427,105.4,427.5,105.2,427.6,104.7z"/>
		<path fill="#222222" d="M223.7,118.8c7,0.3,13.7,1.7,20,4.8c1.4,0.7,2.7,1.4,2.4,3.2c-0.2,1.4-1.4,2.2-2.7,2.3
			c-7.4,0.8-13.6,4.8-20.4,7.5c-4.1,1.6-8,3.5-12.4,4.2c-3.2,0.4-6.3,0.4-8.3-2.6c-2-2.9-1.3-5.9,0.2-8.8c2.5-4.8,6.4-7.8,11.5-9.3
			C217.1,119,220.4,118.6,223.7,118.8z M232.8,125.8c-6.5-2.1-13-2.2-17.9-0.4c-2.4,0.9-4.6,2.2-6.1,4.3c-1,1.4-2.6,3.1-1.3,4.8
			c1.1,1.4,3.1,0.5,4.6,0C219,132.3,225.5,129.3,232.8,125.8z"/>
		<path fill="#222222" d="M207.7,193c-0.4,2.2-2.2,2.6-4,3.1c-6.3,1.6-12.7,3.2-19,4.9c-13.8,3.8-27.1,9.3-40.4,14.6
			c-1.7,0.7-3.9,2.5-5.1-0.2c-1.3-2.8,1.4-3.8,3.3-4.6c18.9-8,38-15.5,58.1-19.9c1.4-0.3,2.9-0.7,4.3-0.7
			C206.6,190.2,207.6,191.2,207.7,193z"/>
		<path fill="#222222" d="M212.9,98.2c0.1-3.3,2.9-6.7,6.6-7.8c2.7-0.8,5.4-0.8,8-0.1c8.8,2.5,16.2,7.1,21.4,14.7
			c1,1.4,1.9,2.8,0.5,4.4c-1.2,1.3-2.7,0.9-4,0c-3.3-2.2-7-1.5-10.6-1.5c-4.7,0-9.4,0.4-13.9-1.3c-2-0.8-4-1.6-5.6-3.2
			C213.8,102.1,212.8,100.4,212.9,98.2z M238.5,102c-2.9-2.7-5.4-3.8-7.8-5c-2.7-1.2-5.4-2-8.4-1.6c-1.5,0.2-2.9,0.7-3.3,2.3
			c-0.5,1.9,1.3,2.4,2.5,3C226.6,103.1,232,102.7,238.5,102z"/>
		<path fill="#222222" d="M590.1,95.9c-0.1-2.1,4.6-9,6.5-9.6c1.7-0.6,3.7,1,2.9,2.6c-1.5,3.2-3.3,6.5-6,8.9
			C592.2,98.9,590.2,97.7,590.1,95.9z"/>
		<path fill="#222222" d="M486.5,220.9c-0.3-0.2-1.2-0.4-1.5-0.9c-1.7-2.6-2.7-5.5-2.6-8.7c0-0.9,0.8-1.6,1.7-1.8
			c1-0.2,1.9,0.1,2.3,1c1.1,2.5,2.1,5,2.9,7.6C489.8,219.5,488.3,221,486.5,220.9z"/>
		<path fill="#222222" d="M576.4,93.3c0.1,1.6-0.3,2.8-1.9,3.1c-1.2,0.3-2.1-0.4-2.7-1.4c-1.3-2.4-1.7-5.1-2-7.8
			c-0.1-1.4,0.8-2.5,2.2-2.7c1.2-0.2,2.2,0.5,2.5,1.6C575.3,88.6,575.8,91.1,576.4,93.3z"/>
		<path fill="#222222" d="M463,95.1c0.4,0.2,1,0.2,1.4,0.5c2.2,2,3.2,4.6,4.5,7.1c0.5,1-0.2,2.1-1.3,2.6c-1.1,0.5-2.3,0.5-3-0.3
			c-1.9-1.9-3.3-4.3-3.9-6.9C460.3,96.7,461.3,95.6,463,95.1z"/>
		<path fill="#222222" d="M291.7,279.1c-1.7,0.2-3.1-1.4-2.4-3.2c0.9-2.3,2.2-4.5,3.6-6.6c1-1.4,2.6-1.5,3.6,0.1
			C298,271.7,294.4,278.8,291.7,279.1z"/>
		<path fill="#222222" d="M516.4,220.3c-1.9,0.1-3.3-1.9-2.3-3.8c1-1.9,2.4-3.6,3.7-5.3c0.7-0.9,1.8-1.1,2.9-0.6
			c1.1,0.6,1.3,1.6,1.1,2.8C521.3,216.2,518.2,220.2,516.4,220.3z"/>
		<path fill="#222222" d="M582.4,95.4c-0.7-0.3-1.3-0.4-1.7-0.7c-1.8-1.5-1.1-3.2-0.4-5c0.8-2,1.4-4.3,4.1-4.5
			c1.2-0.1,2.3,1,2.1,2.1c-0.5,2.4-1.4,4.8-2.3,7.1C583.9,94.9,583,95.1,582.4,95.4z"/>
		<path fill="#222222" d="M493.8,96.2c-0.6,2.2-1.3,4.7-3,6.7c-0.8,0.9-1.9,1-3,0.3c-0.9-0.5-1.3-1.5-1-2.3c0.7-2.2,1.6-4.4,2.6-6.5
			c0.5-1,1.6-1.5,2.8-0.9C493.3,93.9,493.8,94.8,493.8,96.2z"/>
		<path fill="#222222" d="M474,100c0.3-1.4,0.5-2.7,0.8-3.9c0.4-1.3,1.2-2.3,2.6-2.2c1.7,0.2,2.3,1.6,2.2,3.1
			c-0.1,1.2-0.4,2.5-0.6,3.7c-0.3,1.6-1,2.8-2.8,2.6C474.1,103.2,473.9,101.6,474,100z"/>
		<path fill="#222222" d="M278.8,273.2c-0.2,2.2,0.2,5.1-2.6,5.2c-3.1,0-2.5-2.9-2.5-5c0-2-0.7-5,2.4-5
			C279.1,268.3,278.4,271.3,278.8,273.2z"/>
		<path fill="#222222" d="M259.7,275.5c-0.2-2.1,0.2-3.3,1.6-3.7c1.2-0.3,2.2,0.3,2.7,1.3c0.8,1.8,1.5,3.7,2,5.6
			c0.3,1.4-0.4,2.5-1.8,2.9c-1.5,0.4-2.5-0.4-3-1.7C260.5,278.3,260,276.5,259.7,275.5z"/>
		<path fill="#222222" d="M504.1,213.2c-0.1,1.8-0.3,3.6-1.5,5.1c-0.6,0.7-1.5,1-2.4,0.8c-0.9-0.2-1.5-1-1.6-1.9
			c-0.2-1.6,0.3-3.2,0.7-4.8c0.5-1.5,1.1-2.9,2.9-2.6C504,210.2,504.1,211.7,504.1,213.2z"/>
		<path fill="#222222" d="M429.6,143.4c-0.5-0.2-1.6-0.4-2.6-0.9c-1-0.5-1.6-1.5-1.4-2.7c0.2-1.3,1.2-1.9,2.3-1.8
			c4.3,0.7,6.3-1.6,7.6-5.2c0.5-1.4,1.7-2.5,3.4-1.9c1.7,0.6,1.8,2.1,1.5,3.6C439.5,139.3,434.6,143.5,429.6,143.4z"/>
	</g>
</g>
<g id="_xFFFD__x9C__x96_撅_xFFFD__2_xA0_影像_1_">
</g>
</svg>
