<?xml version="1.0" encoding="utf-8"?>
<!-- Generator: Adobe Illustrator 18.0.0, SVG Export Plug-In . SVG Version: 6.00 Build 0)  -->
<!DOCTYPE svg PUBLIC "-//W3C//DTD SVG 1.1//EN" "http://www.w3.org/Graphics/SVG/1.1/DTD/svg11.dtd">
<svg version="1.1" xmlns="http://www.w3.org/2000/svg" xmlns:xlink="http://www.w3.org/1999/xlink" x="0px" y="0px"
	 viewBox="0 0 1362.1 513.1" enable-background="new 0 0 1362.1 513.1" xml:space="preserve">
<g id="_xFFFD__x83__x8C__xFFFD__x99__xA0_影像_1_">
</g>
<g id="_xFFFD__x9C__x96_撅_xFFFD__4_xA0_影像_1_">
	<g>
		<path fill="#F8F8F8" d="M443,243.1c3.4-0.2,6.4-0.5,9.8-0.7c-0.1-1.4-0.3-2.6-0.2-3.7c0.6-4.9,0.9-9.9,2-14.8
			c1-4.7,3.7-6.9,6.7-6.8c3.1,0,5.8,2.5,6.4,7.4c0.6,4.7,0.3,9.5,0.3,14.3c0,1-0.3,1.9-0.6,3.6c3.7-0.5,7.2-0.9,10.6-1.6
			c0.6-0.1,1.1-1.5,1.5-2.4c1.5-3.8,2.8-7.7,4.3-11.5c0.5-1.2,1.1-2.3,1.8-3.3c2-3.1,4.8-4.4,7.6-3.6c2.8,0.7,4.5,3.2,4.4,7
			c-0.2,8.3-0.6,16.5-0.9,24.8c0,1.2-0.2,2.3-0.2,3c2.9-1.3,5.7-3.1,8.7-3.8c3.3-0.7,5.2,1,7.2,5.7c1.2-0.3,2.6-0.6,3.8-1.1
			c4.9-2.2,9.1-5.3,11.9-10c4.5-7.4,7-15.4,7.2-24c0-2-0.2-4-0.6-5.9c-0.6-3.7-2.8-6.3-6.6-6.7c-5.4-0.6-10.9-1.3-16.3-1.1
			c-14.3,0.6-28.5,1.8-42.7,2.3c-5.8,0.2-11.6-0.6-17.3-1.3c-2-0.2-4-1.2-5.7-2.3c-3-1.9-4.1-5.2-2.8-8.3c0.6-1.5,0.1-2.1-0.7-3.3
			c-1.5-2.5-3.1-5.2-3.8-8c-1.1-4.1-1.8-8.4-2.1-12.6c-1.7-24.3-1.3-48.5,4.2-72.4c1.9-8.4,4.5-16.5,8.9-23.9
			c6.9-11.6,16.2-20,29.7-23c2.4-0.5,5.1-0.6,7.6-0.3c4.4,0.4,7.6,3.3,8.3,6.8c0.6,3.3-1.1,6-5.3,8.3c-8.8,4.9-14.8,12.2-18.4,21.5
			c-0.3,0.7-0.4,1.5-0.7,2.4c4.3-0.8,8.2-1.8,12.2-2.3c7.8-0.9,15.6-0.9,23.2,1.4c13,3.9,19.4,14,17.1,27.6
			c-1.8,10.9-5.4,21.3-10.2,31.3c-1.8,3.8-5.6,5.6-9.5,5.1c-6.4-0.8-12.5,0.8-18.6,1.5c-6.8,0.8-13.7,1.8-20.5,2.8
			c-0.8,0.1-2,0.8-2.1,1.4c-0.4,2.7-0.5,5.4-0.8,8.2c4.6-1,8.7-2.4,13-2.9c7.4-1,14.8-1.5,22.2-2.1c1.5-0.1,3.1,0.1,4.5,0.7
			c2.7,1,4.2,3.1,4.3,6.1c0,3-1.5,5-4.1,6.2c-0.4,0.2-0.8,0.4-1.3,0.4c-11,1.2-21.7,4.9-32.9,4.3c-2.5-0.1-5-0.4-7.8-0.6
			c-0.5,2.9-1,5.8-1.6,9.2c1.6-0.4,2.8-0.6,4-0.9c18.9-4.8,38-7.2,57.5-6.3c4.1,0.2,8.2,0.8,12.1,1.7c14.5,3.3,23.1,12.4,25.1,27
			c2.4,17.4-1.7,33.6-12.2,47.6c-8.6,11.6-20.4,16.9-35.1,14.4c-6.7-1.1-9-2.6-14.5-8.9c-0.8,3.7-1.6,7.1-2.4,10.5
			c-0.3,1.5-0.6,3-1,4.5c-1.5,5-5.4,7.8-9.9,7.2c-4.5-0.6-7.8-4.4-7.7-9.5c0.1-6.4,0.5-12.7,0.8-19.1c0.1-1.2,0.2-2.3,0.4-4.1
			c-3.4,1.3-6.4,2.4-9.4,3.6c-7.7,3.1-15.6,4.9-23.9,4.3c-12.4-1-18.7-9.9-15.5-21.8c1.1-4.1,2.9-8,4.5-11.9c0.7-1.5,1.8-2.9,3-4.2
			c1.5-1.6,3.4-2.4,5.7-1.6c2.3,0.8,3.2,2.7,3.3,4.8C443.1,233.8,443,238.2,443,243.1z M465.7,120.9c5.3-0.9,10.1-2,14.9-2.4
			c7.1-0.5,14.3-0.6,21.5-0.7c1.9,0,2.5-0.7,2.6-2.5c0.2-5-1.1-7.1-6-8.7c-10.3-3.4-20.2-1.7-30,2.1c-0.6,0.2-1.4,0.9-1.5,1.4
			C466.6,113.7,466.2,117.2,465.7,120.9z M464,145.8c0.5,0.2,0.7,0.3,0.9,0.3c11-1.5,21.9-3,32.9-4.7c0.7-0.1,1.7-0.8,1.9-1.5
			c0.7-1.6,1-3.3,1.6-5.1c-1.1,0-1.9,0-2.7,0c-7.8,0.4-15.6,0.8-23.4,1.2c-2.8,0.1-5.6,0-8.4,0.2c-0.8,0.1-2,0.8-2.1,1.4
			C464.2,140.4,464.1,143.2,464,145.8z"/>
		<path fill="#F8F8F8" d="M616,195.2c-3.8,1-7.2,2.3-10.6,2.8c-4,0.5-8.2,0.7-12.2,0.2c-12.1-1.7-20.6-10.9-21.8-23.4
			c-0.9-9.6,0.9-18.9,4.6-27.7c0.9-2.2,2.5-4.2,4.1-6.1c1.7-2,4.1-2.8,6.7-1.8c2.6,1,3.2,3.3,3.2,5.8c0,5.1-0.4,10.2-0.2,15.3
			c0.1,3.5,0.7,7,1.5,10.5c0.4,1.6,1.7,2.9,2.8,4.7c0.5-0.8,0.8-1.1,0.8-1.3c-0.7-15.1,2.9-29.6,6.1-44.2c0.7-3.1,1.5-6.2,2.3-9.3
			c0.4-1.3,0.8-2.6,1.4-3.8c1-2.1,2.6-3.6,5.1-3.5c2.4,0,4.2,1.5,4.9,3.7c1.1,3.3,2.3,6.8,2.6,10.2c1.6,15.9,0.3,31.6-3.6,47
			c-0.2,0.8-0.4,1.5-0.6,2.3c4,0.8,4,0.6,4.8-3c2.1-10,4.3-20.1,6.7-30c0.5-2.3,1.7-4.4,2.8-6.5c1.3-2.4,3.5-3.7,6.3-3.4
			c2.9,0.4,4.5,2.3,5.3,4.9c0.5,1.8,1,3.8,0.9,5.6c-0.7,15.4-1.6,30.8-2.4,46.2c0,0.6-0.1,1.2-0.2,2.1c0.5,0.1,0.9,0.2,1.3,0.1
			c21.5-4.7,43.3-6.5,65.2-8c2.4-0.2,3.5-0.8,3.8-3.4c0.8-7.3,1.8-14.6,2.7-21.9c0.1-0.8,0-1.7-0.5-2.8c-0.8,1-1.6,2.1-2.4,3.1
			c-3.5,4.9-6.9,9.8-10.4,14.7c-0.5,0.7-0.9,1.4-1.4,2c-1.6,1.8-3.5,2.7-5.8,1.6c-2.4-1.1-3.2-3.2-2.7-5.6c0.4-1.8,1.1-3.7,2.1-5.3
			c4.7-7.9,9.5-15.7,14.2-23.5c0.3,0.1,0.5,0.2,0.8,0.3c-0.4-0.5-0.7-1-1.1-1.4c-5.8-5.4-7.8-12.1-6.5-19.8c1.2-6.9,3.4-13.4,7-19.4
			c2.4-4.1,5.3-5.6,8.3-4.7c2.9,0.9,4,3.7,3.6,8.5c-0.2,2.2-0.3,4.3-0.5,6.5c0,0.3,0.1,0.5,0.2,1.2c4.8-0.2,9.7-0.4,14.5-0.7
			c2.6-0.2,5.3-0.6,6.5,2.5c0.9,2.2-0.4,5-3.6,6.6c-2.6,1.2-5.5,1.8-8.3,2.5c-2.5,0.6-5.1,0.8-8.5,1.4c1.7,1.4,2.8,2.3,3.9,3.2
			c10.7,8.3,14,18.5,9.8,31.4c-2.1,6.5-4.7,12.8-7,19.2c-0.3,0.8-0.6,1.7-0.9,2.7c8.4,0,16.5,0,24.7,0c0-7.2,0-14.1,0-21.2
			c-2.2,0-4.2,0.2-6.1-0.1c-1.6-0.2-3.4-0.5-4.6-1.5c-1.2-1-2.3-2.8-2.5-4.4c-0.3-2,1.5-3.3,3.4-3.7c2.7-0.5,5.4-0.8,8.1-1
			c1.7-0.1,2.4-0.6,2.5-2.4c0.1-2.4,0.4-4.9,0.6-7.3c-2.7-0.4-5.2-0.5-7.7-1.1c-3.2-0.7-4.9-2.6-5-5c-0.1-2.4,1.6-4.6,4.7-5.3
			c2.8-0.7,5.7-0.9,9.2-1.3c-0.4-3.6-0.5-7.5-1.4-11.1c-0.4-1.5-2.5-3-4.1-3.8c-2.3-1.1-4.5-2-4.7-5c-0.1-2.4,1.7-4.7,4.6-5.8
			c5.7-2.1,10.9-0.8,15.7,2.6c4.5,3.2,7,7.8,8.6,12.9c3.2,10.1,2.9,20.4,0.7,30.5c-2.3,10.7-5.4,21.3-8.2,31.9
			c-0.2,0.9-0.5,1.7-0.7,2.6c4.1,0.9,8,1.7,11.9,2.5c1.6,0.4,3.2,0.8,4.7,1.3c4.5,1.7,7.1,5.4,6.7,9.5c-0.4,4.2-3.4,7.4-8.2,8.2
			c-4.3,0.7-8.7,1.6-13,1.6c-36.7-0.1-73.4,2.3-110.1-0.4c-5.5-0.4-11-1.4-16.8-2.1c-0.4,1.6-0.9,3.5-1.4,5.3
			c-0.6,1.8-1.1,3.7-1.9,5.4c-1.4,2.9-3.8,4.4-7.1,4c-3.2-0.3-5.3-2.2-6-5.2c-0.7-3.3-0.9-6.6-1.2-10
			C616.4,201.5,616.2,198.5,616,195.2z"/>
		<path fill="#F8F8F8" d="M228.8,157.3c-4.1-0.3-8-0.3-11.7-0.9c-2.3-0.3-4.7-1.1-6.6-2.3c-6.2-3.6-6-11.2,0.2-14.7
			c2.1-1.2,4.5-1.9,6.8-2.7c3.4-1.1,6.8-2,10.2-2.8c2-0.5,2.5-1.5,2.6-3.4c1-15,2.2-29.9,3.4-44.8c0.2-2.2,0.6-4.4,1.3-6.4
			c2-5.3,8.4-6.4,11.7-1.8c1.7,2.2,2.9,5.2,3.2,7.9c1.2,9.7,2,19.5,2.8,29.3c0.3,3.4,0.4,6.9,0.4,10.4c0,2.1,0.8,2.5,2.8,2.4
			c4.1-0.4,8.2-0.5,12.2-0.5c2.1,0,4.2,0.3,6.2,0.7c3.5,0.8,6.1,2.9,7,6.5c0.9,3.6-0.2,6.8-2.9,9.1c-2.2,1.8-4.7,3.4-7.3,4.7
			c-4.4,2.1-9,3.9-13.6,5.8c0.1,0.1,0.1,0.4,0.3,0.5c8.8,4.7,14.5,12.8,21.6,19.4c0.9,0.8,1.6,2,2.1,3.2c2,4.5-0.6,9.1-5.5,9
			c-3,0-6.1-0.9-8.9-2c-3.5-1.4-6.7-3.3-10-5c-0.8-0.4-1.6-0.8-2.6-1.2c-0.1,0.9-0.3,1.5-0.3,2.1c-0.3,18.1-1.3,36.1-4.9,54
			c-0.7,3.6-0.8,7.2-1.5,10.8c-0.4,2-1.2,4-2.4,5.7c-2,2.9-5.1,4.1-8.6,3.4c-3.7-0.7-6.4-3-6.9-6.5c-0.8-6.4-0.9-13-1.3-19.5
			c0-0.6,0.1-1.3,0.1-1.9c-0.2-11.8-0.4-23.6-0.6-35.4c0-0.6-0.1-1.2-0.2-2.1c-0.5,0.4-0.8,0.6-1,0.8c-5.5,6.7-10.9,13.3-16.4,20
			c-2.4,2.9-6.2,3.6-9,1.7c-2.8-1.9-3.9-5.6-2-9c3.7-6.7,7.5-13.3,11.7-19.7c5.3-8,11.2-15.7,16.8-23.5
			C228.4,158.2,228.5,157.9,228.8,157.3z"/>
		<path fill="#F8F8F8" d="M1183.9,181.7c-0.2,1.2-0.4,2.3-0.5,3.4c-1.7,24.1-5.4,47.8-10,71.5c-0.7,3.4-1.5,6.8-2.6,10
			c-1.5,4.3-5.3,6.4-9.1,5.7c-3.8-0.7-6.4-3.8-6.4-8.3c0.1-7.2,0.4-14.3,0.8-21.5c0.7-12.5,1.4-25,2.1-37.6c0.2-4,0.6-8,0.9-12
			c0.1-1,0-1.9,0-3.7c-1.2,1.1-1.9,1.6-2.5,2.3c-2.4,2.7-4.8,5.4-7.2,8.2c-2.7,3.1-6.1,3.9-8.9,2.2c-2.9-1.8-4.1-5.5-2.1-9.1
			c6-11.3,11.9-22.7,21.2-31.9c2-2,2.9-4.2,3.1-7c0.1-1.9-0.5-2.6-2.4-2.6c-3.7,0-7.4-0.2-11.2-0.4c-0.6,0-1.3-0.2-1.9-0.3
			c-3.8-0.7-7.4-1.8-8.4-6.2c-1-4.5,1.6-7.4,4.9-9.8c5.6-4,12.1-5.8,18.7-7.1c2.7-0.5,3.6-1.8,4.2-4.4c1.5-6.3,3.1-12.5,5.3-18.5
			c0.9-2.6,3-5,5-7c2.4-2.3,5.8-2.4,8.3-0.8c2.8,1.8,3.5,4.4,3.2,7.9c-0.6,6.1-0.9,12.3-1.1,18.5c0,0.6,1.2,1.7,1.7,1.7
			c2.5-0.2,5.1-0.4,7.5-1.2c3.8-1.2,7.1-0.5,9.2,2.5c2.1,2.9,1.9,7.1-0.9,9.7c-1.9,1.8-4.2,3.1-6.5,4.3c-3.2,1.6-6.4,2.9-9.8,4.2
			c-2,0.8-2.6,2-2.9,4.1c-0.7,4.7,0.1,8.6,3.9,12c2.6,2.3,4.8,5.2,7,7.9c2.2,2.7,5.2,3.8,8.5,4.3c1.6,0.2,3.2,0.6,4.7,1.3
			c2.9,1.3,4.2,4.3,3.6,7.2c-0.6,2.8-3,4.8-6.1,5c-7.1,0.3-14.2,0-20.5-4c-0.5-0.3-1.1-0.6-1.7-0.8
			C1184.8,181.6,1184.5,181.7,1183.9,181.7z"/>
		<path fill="#F8F8F8" d="M664.8,409.5c1.2-0.2,2.2-0.3,3.1-0.5c11.7-2.1,23.4-3.5,35.2-1.7c3.9,0.6,7.9,1.6,11.5,3.2
			c8.6,3.7,13.1,11.4,12.4,20.8c-0.8,11-6.5,19.4-15.1,25.7c-7.5,5.5-17.1,1.2-18.8-8c-0.4-2.3,0-4.4,2.1-5.8c2-1.3,4.1-1.2,5.9,0.3
			c1.8,1.5,3,1,3.7-0.9c1.7-4.5,3.5-9,4.7-13.6c0.9-3.4-0.5-5.8-3.9-6.7c-3.7-1-7.7-1.9-11.5-1.8c-10.2,0.2-20.3,0.6-30.5,1.4
			c-14.1,1-14.5-2.4-16.1-12.8c-1.2-7.8-1.9-15.8-1.5-23.6c0.8-15,2.2-29.9,4-44.8c0.6-5.5,2.4-11,4.3-16.3
			c4-10.8,12.8-15.8,23.7-17.7c2.9-0.5,5.2,0.8,5.8,2.9c0.8,2.7-0.8,4.3-2.9,5.5c-1.3,0.8-2.6,1.6-3.9,2.5
			c-5.2,3.4-8.3,11.5-6.7,18.2c1-0.2,2.1-0.3,3.1-0.6c6.4-1.3,12.7-2,19.2-1.1c11.4,1.7,17.3,9.9,14.4,21.1
			c-1.4,5.5-4,10.7-5.9,16.1c-0.3,0.9-0.5,2.1-0.1,2.9c1.7,3.6,0.5,6.4-3.6,6.9c-8.2,1-16.4,1.8-24.7,2.4c-4.9,0.3-4.4-0.5-4.8,4.6
			c-0.1,1.5-0.2,3-0.4,4.6c1,0,1.7,0,2.4,0c7.8-0.3,15.6-0.7,23.4-1c0.8,0,1.6,0.1,2.4,0.3c1.9,0.4,3.5,1.4,3.6,3.6
			c0.1,2.3-1.4,3.5-3.5,3.9c-8.8,1.5-17.6,3-26.4,4.1C665.1,404.2,664.8,404.2,664.8,409.5z M683.9,352.5c0,0.1,0,0.2,0,0.3
			c2.1,0,4.2,0.1,6.3,0c1.2-0.1,3.4-0.4,3.5-0.9c0.3-1.6,0.1-3.5-0.6-4.9c-0.5-1-2.2-1.8-3.4-1.9c-4.8-0.2-9.6-0.4-14.4,0
			c-6.9,0.5-5.7,0-5.9,6.5c-0.1,2,0.7,2.5,2.6,2.3C675.9,353.2,679.9,352.9,683.9,352.5z M691.8,363.9c-1.7,0.2-2.8,0.3-3.8,0.4
			c-4.9,0.5-9.7,1-14.6,1.3c-4.4,0.3-4.8,0.6-4.3,4.9c0.1,0.6,1.1,1.6,1.7,1.6c5.4,0,10.9-0.1,16.3-0.4c0.9,0,2.2-0.5,2.5-1.1
			C690.5,368.6,691,366.5,691.8,363.9z"/>
		<path fill="#F8F8F8" d="M1047.5,212.9c-0.9,1-1.5,1.8-2.1,2.5c-4.9,6.5-9.8,13.1-14.8,19.6c-0.8,1.1-1.8,2.1-3,2.8
			c-2.1,1.3-4.3,1.3-6.5,0c-2.1-1.3-3.2-3.4-2.8-5.8c0.3-1.9,1-3.9,2-5.6c4.8-8.4,9.7-16.6,14.6-25c0.5-0.9,1.1-1.8,2-3.3
			c-1.5,0.1-2.5,0.1-3.4,0.2c-5.4,0.5-10.8,1.3-16.3,1.6c-3.6,0.2-7-0.7-8.5-4.5c-1.5-3.8,0.1-7.1,3-9.5c2.6-2.1,5.5-3.9,8.4-5.4
			c2.1-1.1,2.2-2,1.3-4c-2-4.5-4-9-5.1-13.7c-0.7-2.7-0.2-6,0.5-8.8c0.8-3.1,3.4-4.9,6.8-5c3-0.1,5.6,1.8,6.8,5
			c0.7,2.1,0.9,4.4,1.5,6.6c1,3.7,1.9,7.4,3.2,10.9c0.4,1.1,2,1.7,3,2.6c1.1-1.4,2.9-2.8,3-4.4c0.5-5.1,0.1-10.4,0.5-15.5
			c0.4-4.5,1.1-9,2.2-13.4c0.6-2.2,2.2-4.5,3.8-6.2c4.2-4.3,10.7-3.4,13.2,2c1.3,2.8,2.1,6.2,1.8,9.2c-0.8,6.5-2.5,12.8-3.8,19.2
			c-0.2,1.1-0.5,2.2-0.2,3.7c0.8-0.7,1.6-1.3,2.3-2.1c5.4-5.5,10.8-11.1,16.3-16.5c2.1-2,4.4-3.8,6.9-5.3c1.7-1,3.9-1.8,5.9-2
			c5.8-0.6,9.6,4.7,7,9.9c-1.5,2.8-3.8,5.3-6.1,7.6c-2.2,2.2-4.8,3.9-7.2,5.9c-0.7,0.5-1.3,1.2-1.7,2.4c1.2,0,2.4,0,3.6,0
			c2.3,0.1,4.6-0.1,6.7,0.4c3.1,0.7,5.1,2.8,5.6,6c0.5,3.2-0.8,5.8-3.4,7.5c-1.7,1.1-3.6,1.8-5.5,2.3c-7.1,2.2-14.3,4.3-21.4,6.3
			c-2.1,0.6-3.1,1.7-3.3,3.7c-0.1,1.9-0.5,3.8-0.6,5.7c-0.2,4.2,1.5,7.5,5.1,9.6c8.5,4.9,17.5,8.5,27.3,9.8c5.1,0.6,8,3,8.3,7
			c0.4,4.1-2.4,7.9-7,9.1c-1.8,0.5-3.8,0.8-5.6,0.6c-7.6-1.2-15.4-2-22.7-4.1c-9.7-2.7-17.2-8.5-20.8-18.4
			C1048.3,214,1048,213.7,1047.5,212.9z"/>
		<path fill="#F8F8F8" d="M119.8,204c0.4,2.7,0.8,5.3,1.4,7.9c0.1,0.4,1.2,0.9,1.8,0.9c9-0.7,17.9-1.4,26.9-2.2
			c0.6-0.1,1.3-0.1,1.9-0.1c4.3,0,7.6,2.4,8.5,6.2c0.9,3.9-0.9,7.9-4.9,9.6c-4.5,1.9-9.2,3.5-13.9,4.8c-5.4,1.5-11,2.6-16.5,3.7
			c-1.9,0.4-2.6,1-2.6,3c-0.1,12.2-2.8,24-6.4,35.5c-0.8,2.6-1.9,5.1-3.3,7.4c-1.6,2.7-4.2,3.6-6.7,3c-2.6-0.7-4.4-2.7-4.3-5.9
			c0.1-5.8,0.6-11.6,0.9-17.4c0.2-3.3,0.4-6.6,0.6-10.5c-1.2,0.9-1.9,1.5-2.5,2c-7.5,7-16.3,12.1-25.4,16.8c-0.3,0.2-0.7,0.3-1,0.5
			c-4.2,1.9-7.9,1.2-10-1.9c-2.2-3.1-1.5-6.9,2.1-10.2c5.5-5.1,11.2-10.1,16.8-15.2c0.5-0.5,1-1,1.9-1.8c-1.2-0.2-2-0.2-2.7-0.4
			c-2.4-0.4-4.9-0.6-7.2-1.4c-8.5-2.8-12.2-10.4-9.4-18.9c2.2-6.5,5.9-12.2,10-17.7c0.8-1,1.1-2.5,1.1-3.8c0-2.8,1-5,3.2-6.6
			c1.7-1.2,3.6-2.2,5.5-3c10.8-4.3,22-7.1,33.7-7.4c4.8-0.1,9.8,0.8,14.5,1.7c3.6,0.7,5.9,3.1,6.4,7c0.4,3.8-1.3,6.7-4.7,8.2
			c-4.3,2-8.7,3.5-13.1,5.2C121.5,203.6,120.7,203.8,119.8,204z M82.7,219.1c0.6,0.3,0.7,0.5,0.9,0.4c7.3-1.3,14.6-2.5,21.9-3.9
			c0.5-0.1,1.1-0.8,1.1-1.3c0.4-2.8,0.6-5.7,0.9-8.6c-6.2,0-12,0-17.9,0c-0.5,0-1.2,0.5-1.5,0.9C86.2,210.9,84.5,215,82.7,219.1z"/>
		<path fill="#F8F8F8" d="M328.5,447.8c-1.4,3.1-2.8,6.3-4.3,9.4c-0.7,1.5-1.3,3-2.4,4.2c-1.8,2.1-4.3,2.7-6.9,1.8
			c-2.5-0.9-4.1-2.8-4.3-5.5c-0.1-1.9,0.1-3.9,0.8-5.6c2.3-6.2,5-12.3,7.3-18.5c0.5-1.2,0.6-2.8,0.2-4.1c-2.8-9.2-5.8-18.3-8.6-27.5
			c-0.6-1.9-1.1-2.6-3.1-2c-8.2,2-16.4,4-24.7,5.9c-1.8,0.4-2.6,1.2-2.3,3.2c0.3,2.2,0.4,4.5,0.6,7.2c3.1-1.2,6-2.4,8.9-3.6
			c1.5-0.6,3-1.4,4.6-1.6c1.2-0.1,3,0.3,3.5,1.1c0.5,0.8,0.2,2.9-0.5,3.6c-1.9,1.9-4.1,3.6-6.4,5.1c-2.4,1.6-5.1,2.9-7.7,4.1
			c-1.6,0.8-2.1,1.9-2.1,3.6c-0.2,7.2-0.2,14.4-1.1,21.5c-0.4,3.5-2.2,7.1-4.3,10.1c-3.5,5.1-9.3,5.2-13.5,0.6c-1.7-1.9-3-4.1-4-6.4
			c-0.4-1,0-3.1,0.8-3.7c0.7-0.5,2.7,0,3.8,0.6c1.6,1,2.8,2.5,4.7,4.3c1.7-7.4,1.5-14.3,2.3-21.9c-2.7,2-4.9,3.5-6.9,5.1
			c-3.5,2.7-6.9,5.7-10.5,8.3c-0.9,0.7-2.8,1.1-3.6,0.6c-1-0.6-2-2.4-1.8-3.5c0.3-2,1.2-4,2.3-5.7c3.5-5,8.3-8.9,13.7-11.5
			c5.6-2.7,8-6.4,6.9-12.5c-0.2-1.3,0-2.7,0-4.5c-3.3,1.2-6.3,2.2-9.2,3.2c-3,1-6,2.2-9,3.1c-3.7,1.1-6,0.6-7.1-1.5
			c-1.2-2.2-0.4-5.2,2.8-7.2c5.5-3.4,11.2-6.7,17.1-9.5c2.8-1.4,3.8-2.6,3.9-5.9c0.1-6.3,1.1-12.6,1.9-18.9c0.3-2.1,1.5-3.6,3.8-3.5
			c2.4,0.1,3.5,1.7,3.7,3.9c0.4,5.2,0.7,10.3,1,15.5c0.1,0.9,0.2,1.8,0.4,2.9c0.9-0.2,1.5-0.3,2.2-0.5c7.6-2.1,15.2-4.2,22.9-6.1
			c2.2-0.6,2.9-1.3,2.8-3.8c-0.1-6.4,0.2-12.9,0.5-19.3c0.1-1.5,0.8-3.3,1.7-4.5c0.8-1,2.5-1.9,3.6-1.7c1.1,0.2,2.5,1.6,2.8,2.7
			c0.7,2.7,0.9,5.5,1.2,8.3c0.6,5,1.2,10,1.9,15.1c6.7-0.6,12.9-1.1,19.1-1.6c1.3-0.1,2.7-0.1,4,0.2c2.3,0.5,3.9,2,4.3,4.4
			c0.5,2.5-0.3,4.6-2.4,5.9c-1.4,0.8-2.9,1.4-4.5,1.8c-5.5,1.4-11.1,2.8-17.1,4.2c1.8,5.8,3.6,11.6,5.7,18.1
			c1.1-1.9,1.7-3.1,2.4-4.3c1.8-2.8,3.6-5.7,5.6-8.3c1.2-1.6,3-3,5.2-2c2.3,1.1,1.5,3.4,1.1,5.1c-1.9,7.2-3.9,14.4-6.2,21.4
			c-0.8,2.5-0.7,4.5,0.8,6.6c2.6,3.5,5.2,7.1,7.8,10.7c0.4-0.1,0.8-0.1,1.2-0.2c1-2.6,2.2-5.2,3-8c0.9-3,1.5-6.2,2.3-9.2
			c0.3-1.1,0.6-2.5,1.4-3.2c1-1,2.6-2.1,3.8-1.9c1.1,0.2,2.7,1.9,2.8,3.1c0.8,9.2,0.5,18.2-4.4,26.4c-0.4,0.7-0.9,1.4-1.4,2
			c-4.2,5.4-10.1,6.5-15.6,2.5C334.5,454,331.7,450.8,328.5,447.8z"/>
		<path fill="#F8F8F8" d="M806.5,170.8c0.1-11.6,2.1-23,5.1-34.1c0.7-2.6,1.9-5.2,3.3-7.4c2.5-4,6.1-5,10.6-3.6
			c1.1,0.3,2.7,0.2,3.7-0.4c7-3.8,14.4-4.9,22.2-3.6c8,1.3,13.8,5.8,17.2,13.2c3.6,7.9,4.2,16.3,3.7,24.8
			c-0.7,11.2-3.1,22.1-6.4,32.8c-0.7,2.2-1.7,4.5-2.9,6.4c-3.5,5.6-9.8,5.8-13.7,0.6c-1.1-1.4-2.1-1.6-3.7-1.3
			c-6.7,1.3-13.4,2.5-20.1,3.8c-8.3,1.6-15.3-3.1-16.8-11.4c-0.8-4.3-1.5-8.6-2-12.9C806.3,175.3,806.5,173,806.5,170.8z
			 M841.7,155.5C841.7,155.5,841.7,155.5,841.7,155.5c2.2,0,4.4-0.1,6.5,0c1.4,0,2.4-0.5,2.3-2c-0.3-4-0.4-8-1.2-11.9
			c-0.3-1.4-2.3-3.3-3.5-3.4c-3.8-0.2-7.7,0.3-11.5,0.8c-1.7,0.2-2.2,1.6-2.1,3.3c0.2,3.6,0.4,7.2,0.5,10.9c0.1,1.7,0.8,2.5,2.5,2.4
			C837.3,155.4,839.5,155.5,841.7,155.5z M829.3,185.2c0.6,0.2,0.9,0.4,1.1,0.4c5.9-1.1,11.7-2.2,17.6-3.5c0.8-0.2,1.7-1.6,1.8-2.5
			c0.3-2.9,0.3-5.8,0.4-8.7c0.1-2.1-0.8-2.8-2.8-2.4c-3.7,0.7-7.3,1.3-11,1.9c-4.3,0.8-4.3,0.8-5,4.9c-0.2,1.4-0.5,2.9-0.8,4.3
			C830.2,181.4,829.7,183.3,829.3,185.2z"/>
		<path fill="#F8F8F8" d="M919.3,172.8c-2.3-0.2-4.5-0.3-6.7-0.7c-4.1-0.8-6.8-3.6-7.3-7.1c-0.5-3.5,1.2-7.2,5.2-8.7
			c4.5-1.7,9.3-2.9,14.1-3.8c4.9-1,6.7-2.4,7.4-7.4c0.5-3.1,0.7-6.3,1.2-9.5c0.3-2.3-0.5-3-2.8-3.1c-6.3-0.2-12.7-0.4-19-1.2
			c-3.5-0.4-7-1.3-10.2-2.8c-7.8-3.6-8.4-12.4-1-16.7c3.9-2.3,8.5-3.9,12.9-4.8c6.6-1.4,13.4-2.2,20.2-2.9c2.8-0.3,3.8-1.4,3.9-4
			c0-3,0-6.1,0.6-9c0.6-2.7,1.6-5.5,3.1-7.7c3.2-4.7,8.8-4.7,12.4-0.2c2.6,3.2,3.5,7,3.7,10.9c0.1,2.3,0.1,4.6-0.3,6.8
			c-0.5,2.6,0.1,3.8,2.9,4.1c4.1,0.4,8.1,1.2,12.1,2c2,0.4,4.1,1.1,5.8,2.1c5.9,3.6,6.1,11.4,0.4,15.2c-2,1.3-4.4,2.2-6.8,2.7
			c-5.8,1.4-11.7,2.6-17.6,3.8c-1.8,0.4-2.9,1.1-3.3,3c-1,5.1-2.1,10.1-3.2,15.2c-0.5,2.1,0.9,2,2.2,1.9c4.1-0.2,8.2-0.5,12.2-0.6
			c2.1,0,4.2,0.2,6.2,0.7c4.6,1.3,6.2,6.3,2.9,9.8c-1.3,1.4-3.2,2.7-5,3c-14.8,3-29.6,5.8-44.4,8.6c-0.6,0.1-1.3,0.1-1.9,0.1
			C919.3,172.6,919.3,172.7,919.3,172.8z"/>
		<path fill="#F8F8F8" d="M1291.8,213.4c2.3-2.5,4-4.4,5.8-6.1c1.4-1.3,2.8-2.7,4.5-3.5c1.2-0.5,3.2-0.6,4.2,0.1
			c0.9,0.6,1.4,2.6,1.2,3.8c-0.4,2.2-1.3,4.3-2.2,6.4c-1.5,3.4-3.1,6.8-4.8,10.1c-0.8,1.6-0.8,2.9,0.3,4.3c2.2,2.8,4.4,5.7,7.1,9.1
			c0.8-2,1.3-3.2,1.8-4.4c0.6-1.7,1.8-3.1,3.6-2.6c1.2,0.4,2.6,1.8,2.9,3c0.6,2.6,0.8,5.4,0.6,8.1c-0.5,5.9-5.6,9.7-11.8,9.1
			c-4.2-0.4-7.6-2.5-10.5-5.4c-1-0.9-1.6-2.2-2.8-3.7c-1.2,1.7-1.8,2.6-2.3,3.5c-4.8,9-10.3,17.6-16.9,25.4
			c-1.3,1.6-2.8,3.1-4.5,4.3c-2.5,1.7-5.4,1.7-7.9-0.1c-2.6-1.8-3.5-4.4-2.9-7.4c0.4-1.7,1.1-3.3,1.8-4.8
			c5.6-11.6,12.8-22.2,20.4-32.5c1.6-2.1,1.5-3.7,0.5-6.1c-3.4-8.2-6.6-16.5-9.6-24.9c-0.8-2.2-1.7-2.9-4.1-2.8
			c-10.1,0.5-20.2,0.9-30.2,1.1c-2.4,0.1-4.9-0.4-7.3-0.9c-3.4-0.7-5.4-2.8-5.5-5.3c-0.2-3.1,1.7-5,4.3-6c2.9-1.2,5.9-2.4,9-3
			c8.4-1.7,16.8-3.2,25.2-4.6c2.5-0.4,3-1.3,2.7-3.7c-0.7-7.5-1.2-15-1.5-22.5c-0.1-2,0.7-4.1,1.6-6c0.5-1,2.1-2.1,3.1-2
			c0.9,0.1,2.2,1.6,2.4,2.7c2.1,8.5,3.9,17,5.9,25.5c1.1,4.4,1.2,4.2,5.8,4.2c7.3,0.1,14.5,0.5,21.8,0.9c1.1,0.1,2.2,0.3,3.2,0.7
			c2.9,1,4.8,3.4,4.9,6.2c0.1,3.2-1.4,5.4-4.3,6.7c-1.6,0.7-3.3,1.2-4.9,1.5c-5.4,1-10.7,2-16.1,2.8c-2.3,0.3-2.8,1.1-1.8,3.2
			C1287.1,202.7,1289.3,207.7,1291.8,213.4z"/>
		<path fill="#F8F8F8" d="M129.7,109c-22.2,0.4-44.1,4-66,7.8c-2.6,0.5-5.9,0.1-7.5,1.6c-1.4,1.4-0.7,4.8-1.4,7.2
			c-1.4,5.2-3,10.3-4.7,15.3c-1.2,3.4-2.8,6.7-4.1,10.1c-1.3,3.1-3.3,4.7-6.1,4.4c-2.7-0.3-5-2.3-5.2-5.5c-0.7-12.4,0.3-24.4,7.7-35
			c2.2-3.2,4.8-6.3,7.4-9.1c2.8-3,7-5.5,11-6.7C71,96.2,81.2,93,91.7,91.4c16.8-2.7,33.8-4.6,50.9-6c7.6-0.6,15.4,0.3,23,1.3
			c4,0.5,8.1,2.3,11.5,4.5c7.9,5,10.8,15.5,7.1,24.1c-2.2,5.2-6.2,8.4-11.7,9.8c-6.2,1.5-10.7-2.4-10.1-8.7c0.2-1.7-0.5-2.4-1.8-3.2
			c-5.2-2.8-10.8-3.8-16.5-4.1C139.3,108.9,134.5,109,129.7,109z"/>
		<path fill="#F8F8F8" d="M323.7,242.4c-3.5-3.1-6.8-6.2-10.2-9.2c0.2-0.3,0.4-0.5,0.7-0.8c-1,0.9-2,1.8-3.1,2.6
			c-2.2,1.4-4.5,1.6-6.6,0.1c-2.3-1.6-2.9-3.9-2.2-6.5c0.3-1.1,0.8-2.3,1.4-3.2c7.3-10.7,14.8-21.4,24.2-30.4
			c3.2-3.1,5.4-3.9,7.6-2.6c2.3,1.3,3.3,4.3,1.6,8.3c-2,4.8-4.6,9.2-7,13.8c-0.8,1.5-2,2.8-3.2,4.5c3.7,1.8,7.2,3.6,10.8,5.3
			c0.4,0.2,1.3-0.1,1.6-0.5c2.6-3.7,5.2-7.6,7.8-11.3c-0.2-0.2-0.3-0.5-0.5-0.7c-2.1,0-4.3,0.2-6.4-0.1c-1.5-0.2-3.5-0.9-4-2
			c-0.5-1.1,0.1-3.4,1.1-4.4c5.2-5.4,11.6-8.2,19.1-7.5c5.7,0.5,9.5,5.3,10,11.3c0.5,5-0.6,9.8-2.7,14.3c-1.6,3.6-3.4,7-5.4,10.4
			c-0.8,1.4-0.7,2.2,0.6,3.1c5.2,3.8,10.5,7.6,15.6,11.5c2,1.5,4,3.2,5.5,5.2c2.7,3.7,3,7.8,0.4,11.8c-2.6,3.9-6.6,5.3-11,4.2
			c-2.7-0.6-5.2-2-7.7-3.4c-6.5-3.5-12.8-7.3-19.3-10.8c-0.7-0.4-2.2-0.1-2.7,0.5c-8,7.7-17.3,13.6-26.7,19.3
			c-1.9,1.2-4,2.2-6.2,2.7c-5.1,1.2-9.6-1.7-10.6-6.5c-1-4.7,2.3-9.5,7.1-10.8c1.7-0.5,3.6-1.3,4.9-2.5c5-4.7,9.8-9.7,14.7-14.6
			C323.3,243.1,323.5,242.7,323.7,242.4z"/>
		<path fill="#F8F8F8" d="M931.1,239.8c-0.2,0-0.4-0.1-0.5,0c-8.7,7-19.2,6.1-29.4,6.6c-1.6,0.1-3.3-0.5-4.7-1.2
			c-3.3-1.6-5.2-4.3-5.2-8c0-3.6,1.9-6.3,5.1-7.8c2-0.9,4.4-1.5,6.6-1.5c4.1-0.1,8.2,0.5,12.2,0.6c3.4,0.1,6.9-0.4,10.3-0.2
			c2.6,0.1,5.1,0.9,8.1,1.4c0.1-0.2,0.4-1.2,0.6-2.2c0.6-3.4,1.1-6.8,1.6-10.2c0.6-3.8,0.4-3.8-3.4-3.5c-8.4,0.5-16.8,1-25.3,1.1
			c-2.7,0-5.6-0.8-8.1-2.1c-5.9-3.1-6.3-10.3-0.7-14c2.4-1.6,5.4-2.6,8.3-3.4c10.1-2.6,20.4-3.4,30.8-3.3c2.4,0,3.8-0.7,4.8-3
			c0.8-1.7,2-3.3,3.4-4.5c3.3-2.9,9.9-1.7,9.5,3.8c-0.1,2.1,1.1,2.8,3.1,2.6c2.9-0.3,5.8-0.5,8.7-0.5c4.6,0,7.8,2.4,8.6,6.1
			c0.8,3.9-1.2,7.5-5.6,9.1c-3,1.1-6.1,2-9.2,2.5c-2.8,0.5-3.5,1.7-3.4,4.4c0.6,16.4-3.1,31.8-11.5,45.9c-2.6,4.3-5.8,8.3-9.2,12
			c-2.8,3.1-6.7,4.7-11,4.5c-6.6-0.3-12.2-6.1-12.1-12.7c0.1-6.3,4.6-8.9,10.1-6c0.6,0.3,2.1,0.1,2.2-0.2c2-5.2,3.8-10.5,5.7-15.8
			C931.5,240.1,931.2,239.9,931.1,239.8z"/>
		<path fill="#F8F8F8" d="M953.8,375.5c-1.1-0.1-1.5-0.1-2-0.1c-1.8,0.1-3.5-0.2-4.1-2.3c-0.6-2.1,0.4-3.7,2-5
			c5.1-3.8,12.7-0.5,13.3,6.1c0.2,2.9-0.6,5.9-1.2,8.8c-0.4,1.7-1.2,3.2-1.9,5c6.4,4.1,9.4,10.1,9.3,17.7c0,5.1-1.3,9.9-3.6,14.4
			c-2.2,4.3-4.9,8.5-7.5,12.8c0.4,0.1,1,0.4,1.5,0.4c26.4,2.4,52.8,5,79.3,7c11.1,0.8,22.3,0.4,33.5,0.5c1.5,0,3.1-0.7,4.6-0.5
			c1.6,0.2,3.7,0.7,4.3,1.8c0.6,1.1,0.2,3.4-0.7,4.6c-1.9,3-5.2,4.3-8.6,4.8c-5.7,0.9-11.5,1.6-17.3,2.2
			c-27.9,3.3-55.7,1.5-83.5-1.9c-7.4-0.9-14.8-1.3-22.3-2c-2.8-0.3-5.7-0.5-8.3-1.3c-6.7-2.1-8.8-9-4.5-14.6
			c2.7-3.5,6.1-6.6,8.5-10.3c3.2-4.8,6.1-9.9,8.5-15.1c1.9-4.1,1.2-7.9-2.8-11.1c-4-3.3-4.4-7.2-1.8-11.7c1.1-1.9,2.3-3.7,3.3-5.6
			C952.8,378.8,953.1,377.3,953.8,375.5z"/>
		<path fill="#F8F8F8" d="M1002.8,345.2c0.9,8.1,2.1,16.1,2.5,24.1c0.9,16.7-0.4,33.2-5.6,49.3c-0.6,2-1.3,4-2.3,5.8
			c-1.3,2.7-3.6,3.8-6,3c-2.7-0.8-3.6-3-3.4-5.5c0.4-6,1.1-12,1.3-17.9c0.3-10.1,0.2-20.2,0.5-30.3c0.2-7.8,0.7-15.6,1.1-23.4
			c0.1-1.2,0.3-2.3,0.6-3.5c1.2-4.8,3.2-6.1,8.1-5.3c0.6-3.6,3.2-5.4,6.3-6.3c3.5-1,7-2,10.6-2.3c8-0.6,16-1,23.9-0.9
			c7.1,0.1,11.2,3.8,12.2,10.9c0.9,6.2,1,12.5,1.5,18.7c0.7,8.7,1.5,17.4,2.1,26.1c0.8,12.4-0.5,24.5-5.4,36.1
			c-1.2,2.9-3.1,5.5-5.1,7.9c-1.5,1.7-4.1,2.2-6,0.8c-1.4-1.1-2.6-3-3-4.7c-0.4-2.1,0.7-3.8,3.3-4.1c0.8-0.1,1.8-1.3,2.1-2.2
			c2.6-8.5,3.1-17.2,2.4-25.9c-1-12.5-2.4-25-3.7-37.4c-0.3-3.1-0.5-6.2-0.7-9.2c-0.3-3.7-0.4-3.9-4.2-3.9c-9.4,0-18.9,0.2-28.3,0.3
			C1005.7,345.2,1004,345.2,1002.8,345.2z"/>
		<path fill="#F8F8F8" d="M1126.3,395.4c5.2,0.3,10.3,1.5,14.9,0.4c3.6-0.9,6.2-0.5,9.1,1.1c2.1,1.1,3.5,2.7,3.4,5.1
			c0,2.5-1.4,4.5-3.7,5.2c-3.9,1.3-7.8,2.4-11.8,3.3c-3.6,0.8-7.3,1.2-11.3,1.8c0,0.9-0.1,1.8-0.1,2.7c0.4,14.1-1.6,27.9-3.4,41.8
			c-0.3,2.3-1.1,4.6-2.3,6.6c-1.6,2.9-4.8,4.1-7.7,3.3c-2.6-0.7-4.4-3.1-4.3-6.5c0.2-6.1,1-12.1,1.3-18.2c0.4-8.9,0.5-17.8,0.7-26.7
			c0-0.5-0.1-1-0.2-1.8c-3.4,0.2-6.8,0.5-10.1,0.6c-3.3,0.2-6.5,0.4-9.8,0.3c-2.8,0-5.1-1.3-6.3-4c-1.2-2.6-0.1-4.8,1.3-7.1
			c3.3-5.5,6.2-11.2,9.4-16.9c-0.9-0.5-1.2-0.8-1.5-0.8c-2-0.5-3.7-1.3-3.9-3.6c-0.3-2.4,1.1-4.3,3.1-4.9c5.6-1.7,11.3-3.2,17.1-4.2
			c2.9-0.5,4.2-1.2,4.6-4.2c0.5-3.4,1.6-6.7,2.7-9.9c0.7-1.9,2.1-3.3,4.4-3c2.5,0.3,2.8,2.3,3,4.3c0.3,3.8,0.4,7.6,0.6,11.6
			c1.8,0,3.4,0,5,0c1.5,0.1,3.1,0,4.6,0.4c2,0.5,3.3,2,3.4,4.1c0.1,2.3-1.1,3.9-3.1,4.6c-2.5,0.8-5.1,1.4-7.7,1.8
			c-1.5,0.3-2,1-1.9,2.4C1126,388.5,1126.1,391.8,1126.3,395.4z M1100.1,398.6c3.7-0.6,7.2-1.2,10.7-1.8c0.4-0.1,0.9-0.9,1-1.4
			c0.3-3,0.4-6.1,0.6-9c-3.7,0-7.1,0-10.4,0C1101.4,390.6,1100.8,394.4,1100.1,398.6z"/>
		<path fill="#F8F8F8" d="M319.8,120.3c2.4,0.1,4.1,0.4,5.8,0.3c10.3-0.9,20.6-2,30.9-2.9c2.1-0.2,2.6-1,2.7-3.1
			c0.2-2.6,0.7-5.3,1.8-7.6c2.1-4.5,7-5.8,11.3-3.3c1.5,0.9,2.9,2,3.9,3.3c7.6,9.2,10.3,19.8,8.5,31.6c-0.6,3.6-2.3,6.7-5.6,8.6
			c-4.9,2.8-9.4,0.6-10.3-4.9c-0.2-0.9-0.4-1.8-0.9-2.5c-1.1-2-2.5-3.8-3.6-5.8c-1.1-1.9-2.1-3.8-3.3-5.9c-0.7,0.2-1.5,0.4-2.2,0.7
			c-11.9,4.5-24.1,8.1-36.7,10.2c-3.9,0.6-8.1,0.7-11.9,0c-9.9-2-15-10.8-11.9-20.4c1.2-3.8,3-7.5,5.2-10.8
			c3.9-5.8,8.3-11.3,12.7-16.7c1.5-1.8,3.6-3.3,5.7-4.5c2.2-1.3,4.7-1.4,6.9,0.4c2,1.7,2.5,4.1,1.6,6.5c-2.2,5.9-4.7,11.6-7,17.5
			C322.3,113.9,321.2,116.8,319.8,120.3z"/>
		<path fill="#F8F8F8" d="M670.6,149.4c4.5-0.7,8.6-1.3,12.7-1.9c1.1-0.2,2.1-0.5,3.2-0.7c2-0.4,3.9-0.2,5,1.8
			c1.2,2.1,0.3,4.1-1.5,5.2c-3,1.9-6.2,3.7-9.6,5c-3,1.1-6.4,1.3-9.5,2.2c-1,0.3-2.1,1.3-2.4,2.3c-1.7,5.4-3.1,10.8-4.8,16.2
			c-0.6,2-1.6,4.1-2.9,5.8c-3,3.8-8.2,3.5-10.9-0.5c-0.9-1.3-1.6-2.9-1.9-4.5c-5.4-22.1-3.7-43.8,3.8-65.1c2-5.5,4.8-10.7,9.1-14.7
			c2.1-2,4.5-3.8,7.2-4.7c5.5-2,9.9,2,8.8,7.8c-1.3,6.9-2.7,13.7-4,20.6c-0.2,0.8-0.1,1.6-0.2,2.6c1.7,0,3.3,0.1,4.9,0
			c3.2-0.2,6.3-0.7,9.5-0.9c1.5-0.1,3.1,0.1,4.5,0.7c3.3,1.3,3.8,5,1,7.2c-1.3,1-3.1,1.6-4.7,2c-4.7,1.1-9.4,2-14.1,2.9
			c-1.6,0.3-2.4,0.9-2.4,2.6C671.2,143.7,670.8,146.2,670.6,149.4z"/>
		<path fill="#F8F8F8" d="M536.5,374.1c3.2-0.7,6.2-1.6,9.2-1.9c11-1.2,18.9,5.9,18.4,17c-0.4,10.3-5.1,19-11.6,26.7
			c-1.2,1.4-3,2.4-4.8,3c-5.1,1.6-9.8,4.4-15.4,3.7c-0.4-0.1-1,0.4-1.3,0.7c-4.2,3.6-9.1,2.9-11.2-2.3c-1.5-3.7-2.5-7.8-3-11.8
			c-2.1-14.4-1.8-28.8,2.4-42.9c1.1-3.5,2.7-6.9,4.4-10.2c0.8-1.6,2.3-3.1,3.8-4.2c4.7-3.3,10.4-0.4,10.4,5.3
			c0,4.2-0.6,8.3-0.9,12.5C536.7,371.2,536.6,372.6,536.5,374.1z M549.8,392.3c0-0.8,0.2-1.7,0.1-2.6c-0.1-3.8-1.3-4.9-5.1-4.5
			c-1.6,0.2-3.2,0.5-4.8,1c-5.4,1.5-6.7,3.8-5.8,9.4C539.3,394.5,544.3,393.4,549.8,392.3z M547.9,402c-0.5-0.1-0.6-0.1-0.7-0.1
			c-4.6,1.5-9.3,2.9-13.9,4.5c-0.4,0.1-0.9,0.9-1,1.4c-0.1,1.9,0,3.9,0,6.2c3.6-1.6,7-3.3,10.5-4.5C546.5,408.2,547,405.2,547.9,402
			z"/>
		<path fill="#F8F8F8" d="M482.9,390.9c-2.8,0.2-5.3,0.5-7.8,0.5c-2.9,0-5.9,0.1-8.6-0.6c-3.9-0.9-5.1-4-3.4-7.5
			c0.3-0.6,0.3-1.5,0.1-2.2c-3.6-9.9-1.9-19.5,1.6-29c0.8-2.3,2.6-3.8,5.4-3.8c0.9,0,1.9-0.6,2.6-1.1c8.4-6.2,18.6-3.6,22.9,5.9
			c2.7,6.1,3.5,12.6,3.8,19.1c1,19.1-1,37.9-6,56.4c-0.6,2.1-1.3,4.2-2.4,6c-1.4,2.5-3.8,3.6-6.7,3.2c-2.8-0.4-4.7-2.2-5.4-4.8
			c-0.6-2.3-0.7-4.8-0.8-7.3c0-1,0.4-2.5,1.2-2.9c2.6-1.5,2.4-3.8,2.5-6.1c0.4-7.5,0.7-15.1,1.1-22.6
			C483,393.2,482.9,392.2,482.9,390.9z M472.8,381c3.4,0,6.4,0.1,9.4-0.1c0.4,0,1.2-0.9,1.2-1.4c0.1-1.9,0.1-3.9,0.1-6
			c-2.8,0.6-5.4,1-7.9,1.6c-0.5,0.1-1.1,0.6-1.3,1.1C473.7,377.6,473.4,379.1,472.8,381z M483.4,364.9c-0.4-2.2-0.7-4.4-1.1-6.6
			c-0.4-1.9-1.6-2.4-3.4-1.7c-3.4,1.1-4.1,2.9-3,8.3C478.2,364.9,480.6,364.9,483.4,364.9z"/>
		<path fill="#F8F8F8" d="M893,374.7c2.6-0.2,4.2-0.5,5.8-0.4c6.3,0.5,12.6,0.7,18.8,1.7c3.5,0.6,5.9,3.3,6.1,7.1
			c0.1,3.8-2,6.3-5.3,7.9c-6.4,3.2-13.1,5.5-20.4,5c-0.9-0.1-1.8,0-2.7,0.1c-0.2,0-0.3,0.1-0.8,0.4c0,0.8,0,1.8,0,2.7
			c0,8.5,0,17.1-0.1,25.6c0,1.6-0.2,3.3-0.5,4.9c-0.6,3.2-2.9,5.2-5.7,5.2c-2.9-0.1-5.2-2-5.4-5.4c-0.6-9.5-1-19-1.4-28.6
			c-0.2-5.9,0.6-4.6-4.9-5.3c-5.8-0.7-11.5-1.5-17.3-2.4c-2-0.3-4.1-1.1-5.8-2.1c-3.9-2.2-4-6.6-0.2-9.1c1.7-1.1,3.7-2,5.7-2.4
			c6.4-1.3,12.9-2.5,19.3-3.2c2.8-0.3,3.7-1.3,3.9-4.1c0.7-6.8,1.8-13.5,2.9-20.2c0.2-1.5,0.8-3,1.7-4.2c0.6-0.9,2.1-1.8,3-1.6
			c0.9,0.1,2.1,1.5,2.3,2.5c0.6,2.6,0.8,5.4,0.9,8.1C893.1,362.5,893,368.3,893,374.7z"/>
		<path fill="#F8F8F8" d="M384.9,381.5c-1.9,2.1-3.3,3.9-4.9,5.5c-2.3,2.1-5,2.4-7.3,1.1c-2.2-1.2-3.5-3.9-3-6.8
			c2.6-12.6,8.1-23.8,16.8-33.4c0.4-0.5,0.9-0.9,1.4-1.3c2.7-2.2,5.6-2.6,7.8-1.2c2.1,1.4,2.9,3.9,1.9,7.3c-0.6,2.3-1.4,4.5-2.2,6.8
			c2.8,1.3,3.5,3.9,3.7,6.5c0.4,6,0.8,12,0.9,17.9c0.4,20,0.4,40-1.5,59.9c-0.1,0.8-0.1,1.6-0.3,2.4c-0.6,3.3-2.5,5.2-5.3,5.3
			c-2.8,0.1-5.2-1.5-5.8-4.7c-1.2-6.2-2.2-12.5-2.8-18.8c-1.5-14.4-1.1-28.8,0.3-43.3C384.8,383.8,384.8,382.8,384.9,381.5z"/>
		<path fill="#F8F8F8" d="M1297.6,146.8c0.5-0.9,0.8-1.9,1.4-2.8c1.9-2.7,3.5-5.8,5.9-8c3.3-3,7-1.8,8.2,2.5
			c2.7,10.5,1.8,20.7-2.9,30.5c-1.3,2.7-3.8,4.2-6.9,3.9c-3.2-0.3-5.2-2.3-5.9-5.3c-0.7-3-1-6-1.6-9.5c-1.4,0.6-2.7,1-3.8,1.7
			c-2.6,1.6-5,1.2-7.4-0.5c-4.2-3.1-5.8-8.2-4-13.9c0.9-2.9,2.1-5.6,3.3-8.4c0.9-1.9,0.8-3-1.5-3.8c-5.3-2-8-5.9-7.5-11.6
			c0.8-9.8,5-18.1,12.4-24.7c1.4-1.2,3.2-2.2,5-2.7c3.7-1.2,6.6,1.4,5.6,5.1c-0.8,3-2.2,5.7-3.4,8.6c-1.6,3.6-3.5,7-4.9,10.6
			c-0.5,1.2-0.4,3.3,0.4,4c1.6,1.4,2.5-0.6,3.7-1.5c3-2.4,6.1-4.8,9.4-6.7c1.9-1.1,4.3-1.2,6.1,0.6c1.6,1.7,0.9,3.6,0.1,5.3
			c-1.1,2.6-2.3,5.1-3.5,7.7c-2.6,5.3-5.3,10.6-7.9,15.9c-0.4,0.9-0.6,1.8-0.9,2.7C1297,146.5,1297.3,146.6,1297.6,146.8z"/>
		<path fill="#F8F8F8" d="M1235.8,121.3c1.8-1.1,3.6-2.4,5.5-3.3c1.5-0.7,3.2-1.3,4.9-1.4c3.4-0.2,5.5,2.7,4.2,5.8
			c-1,2.5-2.4,4.9-3.7,7.3c-3,5.8-6.2,11.5-9.1,17.4c-0.6,1.2-0.6,2.8-0.9,4.2c0.3,0.1,0.7,0.2,1,0.3c0.4-0.8,0.8-1.6,1.1-2.4
			c1-2.5,1.8-5.1,3.1-7.5c1.2-2.2,3.3-3.5,5.9-3.1c2.6,0.4,3.9,2.2,4.6,4.5c2.5,8.3,1.8,16.5-1.4,24.6c-0.9,2.4-2.8,3.8-5.5,3.7
			c-2.7-0.1-4.3-1.7-5.3-4c-0.6-1.5-0.9-3.5-2-4.3c-1-0.7-2.9,0.2-4.5,0.2c-1.9,0-3.8-0.2-5.7-0.3c-6.1-0.4-9.8-4.1-9-10.2
			c0.7-5.2,2.4-10.2,4-15.2c0.7-2.1,0.9-3.2-1.3-4.6c-3.8-2.3-5.9-6.1-5.8-10.5c0.2-7.8,2.3-15.2,8.4-20.5c2.3-2,5.3-3.6,8.3-4.4
			c4.5-1.2,7.3,1.8,6.2,6.4c-0.8,3.3-2.1,6.4-2.9,9.6c-0.6,2.4-0.8,4.9-1.2,7.3C1235.2,121.1,1235.5,121.2,1235.8,121.3z"/>
		<path fill="#F8F8F8" d="M664.1,446.1c2.1-0.3,4-0.4,5.8-1c0.9-0.3,1.7-1.5,2.2-2.5c1.6-3.3,3-6.8,4.6-10.2
			c0.6-1.2,1.4-2.3,2.4-3.2c3-2.6,7.2-1.7,8.3,2.1c0.8,2.6,1.1,5.6,0.9,8.3c-0.9,13.5-6,25.5-12.5,37.1c-0.7,1.2-1.8,2.3-3,3.1
			c-2.3,1.6-5.5,1.5-7.7-0.1c-2.2-1.6-3.1-4.1-2.3-7c0.8-3,1.8-5.9,2.7-8.9c0.3-0.9,0.5-1.9,0.8-3.4c-1.5,0.3-2.5,0.5-3.5,0.8
			c-6.9,1.8-13.8,2-20.6-0.8c-11.7-4.9-14.9-18-6.6-27.7c1.1-1.3,2.9-2.2,4.6-2.5c2.6-0.5,4.1,1.4,4,4.1c-0.1,2.4-0.1,4.7,0.1,7.1
			c0.2,2.7,4.3,5.2,6.7,4c0.6-0.3,0.9-1.2,1.1-2c0.8-4.4,1.5-8.8,2.3-13.1c0.7-4.2,2.8-5.8,6.8-5.3c2.9,0.4,4.4,2.8,4,6.6
			C665,436.4,664.6,441,664.1,446.1z"/>
		<path fill="#F8F8F8" d="M595.5,373.2c1.8-0.6,3.2-1,4.6-1.4c9.7-2.3,18.1,3,19.2,12.9c0.5,4.7,0,9.8-1.2,14.5
			c-2.3,9.2-7.2,17.3-13.4,24.4c-1.9,2.2-4.5,3.9-7.1,5.2c-2.4,1.2-4.8,0.4-6.7-1.6c-1.7-1.8-2.5-4-1.4-6.3c0.6-1.2,2.1-2.6,3.2-2.7
			c1.8-0.1,2.6-1,3.2-2.3c1.3-2.6,2.5-5.2,4-8.3c-1.5-0.1-2.5-0.2-3.5-0.3c-3.2-0.1-6.4,0-9.5-0.3c-3-0.3-5.8-1.3-6.8-4.6
			c-1-3.2,0.9-5.1,3.2-6.9c-5.6-2.7-6.6-4.4-5.1-10.6c1.7-6.9,3.7-13.7,5.6-20.5c0.4-1.5,1.1-3.3,2.2-4.3c1.4-1.2,3.4-2.2,5.1-2.3
			c2.3-0.1,3.8,1.8,4.2,4c0.4,2.7,0.4,5.4,0.5,8.1C595.9,371,595.7,371.9,595.5,373.2z M603.6,396.3c0.3-2.9,0.9-5.9,1-8.8
			c0.1-3.3-1-4.1-4.2-3.1c-5.8,1.7-10.2,5.2-13.5,9.9C592.3,394.9,597.6,395.5,603.6,396.3z"/>
		<path fill="#F8F8F8" d="M411,397.4c1.1-10.6,2.1-21.1,3.4-31.6c0.4-3.1,1.7-6.1,2.9-9c1-2.3,2.9-3.7,5.7-3.1
			c0.7,0.1,1.6-0.2,2.2-0.6c10.5-6.3,20.9-1.9,23.3,10.2c1.6,7.7,0,15.4-2,22.8c-0.5,1.9-2.6,3.7-4.4,4.7c-4.4,2.6-9.1,4.6-13.5,7
			c-0.8,0.5-1.6,1.9-1.6,2.9c0.1,7.9-0.8,15.6-2.8,23.2c-0.2,0.6-0.3,1.2-0.5,1.8c-0.7,2.5-2.1,4.2-4.9,4.4
			c-2.4,0.1-4.5-1.6-4.9-4.6c-1-6.7-1.7-13.5-2.4-20.2c-0.3-2.6,0-5.3,0-7.9C411.3,397.5,411.1,397.5,411,397.4z M427.1,372.5
			c3.9-0.9,7.5-1.7,11.8-2.7c-0.7-2.8-1.2-5.6-2.2-8.2c-0.7-2.1-2.6-2.8-4.7-2.1c-2.3,0.7-5.1,1.3-5.4,4.2
			C426.4,366.5,426.9,369.4,427.1,372.5z M427,390.4c11.4-3.7,12.4-4.2,11.5-15.2c-3.7,1.8-7.4,3.6-10.9,5.4
			c-0.3,0.2-0.6,0.9-0.6,1.4C427,384.7,427,387.4,427,390.4z"/>
		<path fill="#F8F8F8" d="M1099.7,336.4c10.7-2.8,21.2-4.3,31.8-2.7c4.4,0.7,8.8,2.1,13,3.8c4.4,1.8,6.3,5.9,5.2,9.9
			c-1,3.8-6,7.8-9.8,7.4c-1.3-0.1-2.6-1.4-3.9-2.1c-0.8-0.5-1.7-1.3-2.5-1.4c-10.1-0.2-20.2-0.2-30.3-0.2c-1.2,0-2.7,0.4-3.7,1.1
			c-5.6,4-13.9,0.9-14.8-5.9c-0.4-3.5-0.1-7.3,0.7-10.8c1.5-6.6,4.6-12.6,8.9-17.9c0.5-0.6,1.1-1.2,1.7-1.8c1.8-1.8,4-2.9,6.4-1.5
			c2.4,1.3,2,3.6,1.4,5.8C1102.4,325.5,1101.1,330.7,1099.7,336.4z"/>
		<path fill="#F8F8F8" d="M796.5,414.5c-13,0.7-25.1,1.4-37.1,2c-1.7,0.1-3.5,0.4-5.1,0c-1.5-0.4-3.6-1.4-4-2.5
			c-0.4-1.4,0.3-3.8,1.4-4.7c2.6-2.1,5.4-4.2,8.5-5.1c8.4-2.3,16.8-4.6,25.4-5.7c14.8-2,29.7-2.2,44.3,1.8c1.3,0.4,2.6,0.7,3.9,1.3
			c2.9,1.3,4.4,3.9,4,6.7c-0.4,2.9-2.5,4.9-5.8,5.2c-5.5,0.5-11,1-16.6,1.1C808.8,414.7,802.2,414.5,796.5,414.5z"/>
		<path fill="#F8F8F8" d="M109.3,68.5c0,3.2,0,6.3,0,9.5c0,1.4-0.1,2.7-0.3,4.1c-1.2,6-6.7,8.4-11.8,5c-1.6-1-3.1-2.4-4.1-3.9
			c-2.9-4.9-6-9.8-8.3-15c-4.2-9.4-3.7-18.9,0.3-28.3c1.5-3.4,4.4-5.4,8.1-5.6c3.5-0.2,5.7,1.8,7.5,4.6
			C107.1,49.3,109,55.9,109.3,68.5z"/>
		<path fill="#F8F8F8" d="M742.7,252.8c-0.4,5.3-0.5,9.2-1.2,13.1c-0.4,2.4-1.4,4.9-2.9,6.9c-2.3,3-5.7,3.9-9.3,2.7
			c-3.5-1.2-5.6-3.8-5.8-7.5c-0.7-10.7-1.4-21.3-1.9-32c-0.1-3.4,0.1-6.9,0.8-10.3c1.3-5.9,7.2-7.7,11.4-3.4
			c2.4,2.4,4.2,5.7,5.4,8.9c1.4,3.4,2.1,7.2,2.6,10.8C742.5,246,742.6,250.1,742.7,252.8z"/>
		<path fill="#F8F8F8" d="M152.6,165.3c0,5.3-3.7,8.7-8.1,7.3c-11.8-4-21.7-10.7-26.6-22.8c-1.7-4.2-2.1-8.7-0.9-13.1
			c1-3.8,3.1-6.6,7.2-7.3c4.1-0.6,6.7,1.7,8.7,4.9c3.2,5.4,6.2,10.9,9.6,16.2c1.5,2.3,3.5,4.4,5.5,6.3
			C150.5,159.3,152.5,162.1,152.6,165.3z"/>
		<path fill="#F8F8F8" d="M662.8,257.8c1.8-6.5,3.1-13.1,5.5-19.3c2.4-6.2,5.8-12.1,8.8-18.1c0.4-0.9,1.1-1.7,1.7-2.5
			c2.3-3.1,4.9-4.2,7.4-3.3c2.5,0.9,3.7,3.4,3.4,7.3c-0.8,9.1-3.6,17.6-7.3,25.8c-0.5,1.2-0.6,2.8-0.3,4c1.2,5.1-6.5,14.8-11.7,14.6
			C666.1,266.2,663.4,262.8,662.8,257.8z"/>
		<path fill="#F8F8F8" d="M356.5,157.6c3.3,0.8,6.9,1.1,10,2.5c5.9,2.7,11.6,5.9,17.2,9.3c3.3,2,4.7,5.5,3.9,9.5
			c-0.7,3.2-2.6,5.5-5.9,6.1c-1.5,0.3-3.5,0.4-4.7-0.4c-3.3-2.3-6.9-2.5-10.6-3c-7.1-1-13.1-4-18.2-9c-2.5-2.4-4.6-5.1-3.4-8.9
			c1.2-3.8,4.6-4.8,8.1-5.5c1.2-0.2,2.3-0.2,3.5-0.3C356.4,157.8,356.4,157.7,356.5,157.6z"/>
		<path fill="#F8F8F8" d="M793,379.5c-4.6-0.5-12.5-1.3-20.3-2.3c-2.9-0.4-6-1-6.6-4.6c-0.5-2.7,1.4-5.3,5.1-7
			c8.7-3.8,18.1-4.9,27.4-5c4.2-0.1,8.5,1.4,12.7,2.6c3,0.9,5.2,3,5.3,6.5c0.1,3.5-2.1,5.4-5,6.8C806.4,378.9,803.1,379.6,793,379.5
			z"/>
		<path fill="#F8F8F8" d="M1238.2,230c-1.6,3-3.1,5.9-4.6,8.8c-0.6,1-1.1,2.1-1.8,3c-2.2,3.1-5.6,4.1-8.6,2.6
			c-3-1.5-4.1-4.9-2.8-8.5c0.8-2.1,1.8-4.1,2.8-6.2c2.8-5.8,5.4-11.7,8.4-17.4c1.6-2.9,3.8-5.5,6.1-8c1.1-1.2,2.8-2.1,4.4-2.5
			c3.7-0.8,6.1,1.8,5,5.4c-0.8,2.8-2.1,5.4-2.9,8.2c-0.3,0.9-0.1,2.4,0.5,3.1c2.5,2.8,5.4,5.4,7.9,8.1c1.4,1.5,2.8,3.1,3.6,5
			c1.3,2.9-0.2,5.3-3.3,5.2c-2.5-0.2-5.1-0.8-7.4-1.9C1242.9,233.6,1240.7,231.7,1238.2,230z"/>
		<path fill="#F8F8F8" d="M330.9,162.3c-0.6,1.7-1.3,5.1-3.1,7.8c-2.7,3.9-5.9,7.6-9.4,10.8c-4.6,4.2-9.7,8-14.6,11.8
			c-3.2,2.5-6.7,2.6-9.2,0.3c-2.5-2.3-3-6-0.5-9.1c6.8-8.6,13.9-17,21-25.3c1.5-1.7,3.6-3.1,5.7-4.1
			C325.9,152,330.9,155.1,330.9,162.3z"/>
		<path fill="#F8F8F8" d="M105.9,141c-0.6,5.7-2.3,11.3-6.1,15.8c-4.8,5.7-10.3,11-15.7,16.1c-2.6,2.5-5.6,2.4-8,0.8
			c-2.3-1.6-3.4-4.6-2.2-7.8c4-10.2,8.3-20.4,16.6-28.1c1.4-1.4,3-2.7,4.7-3.7c2.5-1.5,5.1-1.9,7.7-0.2
			C105.4,135.5,105.9,138,105.9,141z"/>
		<path fill="#F8F8F8" d="M978.2,356.5c-0.4,2.9-0.7,6.3-1.5,9.5c-0.9,3.7-3.7,5.7-6.8,5.7c-2.9,0-5.1-1.9-6.4-5.5
			c-3.7-10.7-5-21.9-5.8-33.2c-0.2-2.6,0.7-5.7,2-8c2.4-4.2,8.2-3.8,9.9,0.8c2.8,7.1,5.2,14.3,7.5,21.6
			C978,350.2,977.9,353.2,978.2,356.5z"/>
		<path fill="#F8F8F8" d="M1025,377.2c2.5-0.3,4.8-0.5,7.1-0.7c2.6-0.2,5.1,0.1,7,2.2c2.3,2.5,1.5,6.3-1.8,6.9
			c-7.8,1.4-15.8,2.4-23.7,3.4c-1.2,0.2-2.7,0-3.7-0.6c-1.3-0.8-3-2.2-3.2-3.5c-0.1-1.3,1.1-3.4,2.3-4.1c2.3-1.4,5-2,7.6-3
			c-0.1-2.1-0.1-4.2-0.4-6.2c-0.1-0.6-0.8-1.2-1.3-1.6c-0.5-0.3-1.2-0.2-1.8-0.4c-3.6-1.1-4.7-5-1.6-6.7c4.3-2.2,7-5.3,8.7-9.7
			c0.4-1,1.8-1.8,2.9-2.2c2.5-0.9,3.8,0.4,3.4,3c-0.2,1.7-0.3,3.4-0.5,5.3c1.7,0,3.3,0.2,4.7-0.1c1.9-0.4,3.3-0.2,4,1.7
			c0.7,1.9,0.2,3.7-1.7,4.7c-1.8,0.9-3.8,1.7-5.8,2.2c-1.6,0.5-2.5,1.2-2.4,3C1025.1,372.6,1025,374.6,1025,377.2z"/>
		<path fill="#F8F8F8" d="M244.6,378c1.4-11.1,4.1-21,12.5-28.5c3.2-2.9,6.6-2.6,10.2-1.5c2.3,0.7,3.9,3.5,3.3,6.2
			c-0.5,2.1-1.4,4.4-2.7,6.1c-6.1,8-11,16.4-12.9,26.4c-0.4,2.1-1.7,3.7-4,3.9c-2.5,0.2-4-1.3-4.6-3.5
			C245.6,384,245.2,380.8,244.6,378z"/>
		<path fill="#F8F8F8" d="M360.6,359c-0.3,4.5-1.9,7.4-5.3,9.1c-3.6,1.9-7.4,1.8-10.5-0.7c-5.9-4.8-10.7-10.6-13.3-17.9
			c-1-2.9-0.8-5.8,1.5-8.1c2.3-2.4,5.3-2.9,8.3-1.9c8,2.8,13.9,8.3,18.2,15.5C360.3,356.4,360.3,358.1,360.6,359z"/>
		<path fill="#F8F8F8" d="M1007.2,410.3c0.9-3.7,1.6-7.2,2.7-10.7c0.8-2.4,2.5-3.7,5.3-3.2c0.8,0.1,1.7-0.4,2.5-0.6
			c2.5-0.8,4.9-1.9,7.5-2.3c6.1-0.9,11.2,3.1,10.9,9.2c-0.2,4.6-2.1,9.1-3.5,13.5c-0.3,1-1.7,2-2.8,2.4c-4.4,1.3-8.9,2.7-13.4,3.4
			c-4.9,0.8-6-0.4-7.1-5.3C1008.7,414.6,1007.9,412.5,1007.2,410.3z M1018.4,411.4c5.9,0.6,6.9,0,7.5-4.4c0.8-5.6-0.7-6.8-6.2-4.7
			c-0.6,0.2-1.2,1.1-1.3,1.6C1018.3,406.4,1018.4,408.9,1018.4,411.4z"/>
		<path fill="#F8F8F8" d="M1317.5,161.4c-0.1-1.8,0.4-4.1,3.1-5c2.2-0.8,4.5,0.3,6.1,3c1.2,2.1,2.3,4.4,2.9,6.7
			c1.6,5.9,3,11.8,4.3,17.7c0.8,3.8-0.7,6.5-3.6,7.3c-2.9,0.8-5.4-0.9-6.8-4.4C1320.5,178.8,1318.1,170.7,1317.5,161.4z"/>
	</g>
</g>
</svg>
