<?xml version="1.0" encoding="utf-8"?>
<!-- Generator: Adobe Illustrator 22.1.0, SVG Export Plug-In . SVG Version: 6.00 Build 0)  -->
<svg version="1.1" xmlns="http://www.w3.org/2000/svg" xmlns:xlink="http://www.w3.org/1999/xlink" x="0px" y="0px"
	 viewBox="0 0 1007.7 716.1" style="enable-background:new 0 0 1007.7 716.1;" xml:space="preserve">
<style type="text/css">
	.st0{fill:#FEFEFE;}
	.st1{fill:#85A48C;}
	.st2{fill:#FFFFFF;}
	.st3{fill:#F9F9F9;}
	#rain {
		animation: fade 3s ease-in-out infinite;
	}
	#hand {
		animation: enter 3s ease-in-out infinite;
	}
	#house {
		animation: fade2 3s ease-in-out infinite;
	}
	@keyframes enter {
	  0% {
	  	transform: translate(-30px, 0) rotateZ(-10deg);
	  }
	  30% {
	  	transform: translate(0px, 0) rotateZ(0deg);
	  }
	  70% {
	  	transform: translate(0px, 0) rotateZ(0deg);
	  }
	  100% {
	  	transform: translate(-30px, 0) rotateZ(-10deg);
	  }
	}

	@keyframes fade {
	  0% {
	  	opacity: 0;
	  }
	  30% {
	  	opacity: 0;
	  }
	  50% {
	  	opacity: 1;
	  }
	  80% {
	  	opacity: 1;
	  }
	  100% {
	    opacity: 0;
	  }
	}
	@keyframes fade2 {
	  0% {
	  	opacity: 0;
	  }
	  10% {
	  	opacity: 0;
	  }
	  30% {
	  	opacity: 1;
	  }
	  80% {
	  	opacity: 1;
	  }
	  100% {
	    opacity: 0;
	  }
	}
</style>
<g id="background">
	<g id="Background_White_xA0_影像_1_">
		<polygon class="st0" points="294,214 353.3,175.9 396.4,155.7 426.4,149.7 445.9,149.7 481.9,173.7 511.9,200.7 540.4,232.2 
			561.4,248.7 588.4,257.7 610.9,266.7 637.9,281.7 670.9,298.1 685.9,310.1 709.9,337.1 744.4,380.6 757.9,404.6 787.9,433.1 
			819.4,467.6 846.4,499.1 867.4,517.1 897.4,557.6 924.4,584.6 895.1,589.8 814.9,586.1 736.9,584.6 670.9,584.6 403.9,581.6 
			105.4,530.6 		"/>
	</g>
	<g id="Background_Color_xA0_影像_1_">
		<g>
			<path class="st1" d="M659.3,308.3c-4.8-0.5-9-0.8-13.2-1.4c-11.4-1.5-22.9-0.4-34.3-0.1c-9.3,0.2-18.5,1.2-27.8,0.5
				c-7.7-0.5-15.4-0.6-23.1,0.3c-7.5,0.9-12.4,5.3-15.6,11.8c-2.6,5.3-1.2,9.1,4.3,12.1c-2.4,1.1-4.2,0.7-6.3-1.2
				c-3.3-3.2-7.2-4.6-11.7-2.4c-4.4,2.2-7.5,5.4-7.7,10.7c-0.1,4.2,2.5,6.8,6.7,6.9c0.7,0,1.5,0.1,2.2-0.1c1.8-0.3,2.7,0,3.3,2
				c1.1,3.4,4.2,5.5,7.1,6.8c6.4,2.8,11.8,6.9,17.3,11.1c7.3,5.5,16.2,7.3,25.1,8.4c9.2,1.1,18.3,0.3,27.3-2.1
				c13.3-3.6,26.9-6.2,40.5-8.3c5.6-0.9,10.6,0.9,15.8,1.5c11.6,1.4,23.1,2.4,34.7,1c1.6-0.2,2.3,0.3,3,1.6
				c2.3,4.3,4.6,8.7,7.3,12.7c3.5,5.2,7.8,9.6,13.1,12.9c11.3,6.8,21,15.8,31.4,24c6,4.8,9.5,11.6,13.5,18c4.9,7.9,10,15.8,16,23
				c4.2,5.1,9.5,8.9,14.8,12.8c8,5.9,14.2,13.2,18.6,22.1c1,2,2.1,3.8,2.9,5.9c5,13.4,14.4,23.2,26.1,30.9
				c8.6,5.6,15.8,12.7,21.7,21.1c3.6,5.1,8.7,8.8,13.5,12.6c4.3,3.4,7.2,7.6,9.8,12.2c2.4,4.4,5,8.6,8.2,12.5
				c0.5,0.6,1.4,1.2,0.6,2.1c-0.6,0.7-1.6,0.6-2.3,0.1c-2.3-1.6-4.8-1.3-7.1-0.5c-8.3,2.9-16.8,2.4-25.3,2
				c-6.9-0.3-13.8-0.7-20.7-0.8c-7.5-0.1-14.8-1.3-22.3-1.9c-7.2-0.6-14.5-0.8-21.7-1.5c-13.2-1.3-26.5-0.7-39.8-0.5
				c-12.7,0.2-25.2-1.1-37.8-2c-5.3-0.4-10.5-0.1-15.8,0.1c-16.2,0.6-32.4,1.1-48.5-0.1c-19.4-1.5-38.7-0.8-58-0.5
				c-13.5,0.2-27,1.1-40.5,1.7c-1.1,0-2.5,0.2-3.1-0.7c-1.3-2-3.3-1.9-5.2-2.1c-10.9-0.8-21.9-2.4-32.9-1.3
				c-20.8,2-41.7,1.8-62.6,3.5c-0.6,0.1-1.3,0-1.9,0c-15.7-0.4-31.4,1-47.1,2.5c-9.2,0.9-18.3,2.7-27.5,3.8
				c-3.8,0.5-7.6,0.7-11.4,0.7c-8,0.1-16,0.2-24,0c-14.6-0.3-29,1.3-43.3,4.2c-5.6,1.1-11.3,2.1-17,1.9c-2.4-0.1-4.8-0.3-6-2.9
				c-0.4-1-1.3-0.9-2.1-0.8c-12.9,0.4-25.6-1.4-38.2-3.7c-9.2-1.7-18.6-2.5-27.8-4.6c-0.4-0.1-0.8-0.1-1-0.3
				c-4.8-3.6-10.5-2.5-15.9-3.2c-5.3-0.8-10.5-1.6-15.8-2.7c-11.8-2.4-23.7-2.7-35.5,0.6c-4.4,1.3-8.8,2.2-13.3,2.7
				c-9.3,1-18.3,3.7-27.1,6.9c-0.9,0.3-1.8,0.9-2.8,1c-5.7,0.6-11.2,2-16.6,3.7c-4.1,1.3-6.9-1.9-6-6.2c0.3-1.6,0.8-3.2,1.5-4.7
				c7-14.8,12.3-30.3,20-44.8c7.2-13.6,14.3-27.4,21.7-40.9c9.2-16.6,15.1-34.4,19.8-52.6c2.2-8.6,5.8-16.4,12.2-22.7
				c8.8-8.6,15-19.1,21.7-29.3c2.9-4.4,5.3-8.9,6.9-13.8c3.4-10.8,9.3-20.3,16.9-28.7c1.3-1.4,2.1-2.9,2.6-4.7
				c3.8-13,7.3-26,11.7-38.8c5-14.4,13-26.9,22.4-38.7c5-6.3,10.1-12.4,16.9-16.8c0.8-0.5,1.5-1.1,2.3-1.4
				c5.6-2.1,9.6-6.2,13.5-10.7c11.1-12.6,24-23.3,37.6-33.1c13-9.4,25.5-19.3,38.9-28c2-1.3,4.1-2.4,6-3.8c3.1-2.3,6.9-2.2,10.4-2.6
				c11.1-1.2,22-3.6,33.1-4.9c10.4-1.2,20.5,0.4,30.4,3.1c14.9,4.1,27.6,11.8,38.6,22.6c7.5,7.3,14.9,14.6,21.9,22.4
				c8.6,9.5,19.1,16.7,29.8,23.6c18.1,11.8,37,22,56.5,31.2c15.5,7.3,31.8,12.6,48.2,17.2c13.3,3.8,25.1,10,35.7,18.6
				C658.4,307.4,658.6,307.6,659.3,308.3z"/>
			<path class="st0" d="M209.3,453.3c0.2,0,0.4-0.1,0.5,0c3.3,1.8,5.8-0.1,8.4-1.8c8.6-5.4,17.8-4.7,27.1-2.3
				c9.5,2.5,18.9,2.4,28.7,0.3c9.6-2.1,19.2-4.7,29.2-4.7c8,0,15.1,2.1,21,7.6c4.1,3.9,8.6,7.6,11,13c0.6,1.3,1.6,1.2,2.8,1.2
				c4.4,0.1,8.9,0.3,13.3,0.5c1.3,0,2.3,0.3,3.2,1.6c1.3,1.9,3.1,2.1,4.9,0.5c0.3-0.3,0.8-0.8,1.1-0.7c3.5,0.7,7.4,0.3,10.4,2.7
				c2.3,1.8,2.8,4.5,1.6,6.8c-1.2,2.3-3.8,3.4-6.5,2.4c-2.5-0.8-5-0.6-7.5-0.8c-5.9-0.5-11.7-1.3-17.6-1.2c-0.8,0-1.6-0.2-2.2,0.5
				c-4.1,4.4-9,7.2-15.1,7.6c-7.7,0.5-15.1,2.9-22.7,4.3c-1.2,0.2-2.4,0.6-3.5,0.4c-8.2-1.6-15.9,1.5-23.8,2.4
				c-13.2,1.5-26.4,1.9-39.7,0.9c-3.5-0.3-6.7-1.8-9.6-3.7c-2.5-1.7-4.9-3.4-7.3-5.3c-3.7-2.8-4.2-5.3-1.8-9.3
				c0.5-0.9,0.3-1.5,0-2.2c-1.8-3.6-7.9-6.5-11.9-5.8c-0.9,0.2-1.8,0.2-2.7,0.2c-3,0-5.2-1.4-5.9-3.9c-0.8-2.7,0.2-5.1,2.4-6.5
				C200.7,455.5,204.6,453.4,209.3,453.3z"/>
		</g>
	</g>
	<g id="Background_xA0_影像_1_">
		<g>
			<g>
				<path d="M867.3,595.9c-17,0-32.6-2.1-48.2-4.1c-27.1-3.5-54.3-4-81.6-3.4c-5.4,0.1-10.7,0.5-16.1,0.7c-4.8,0.2-9.3-1.2-14-1.7
					c-9.7-1.1-19.2-0.6-28.8,0.8c-12.6,1.8-25.1,1.5-37.7-0.2c-15-2-30-2.8-45.1-1.9c-14.1,0.9-28.2,0.4-42.2-0.4
					c-17.7-1-35.4-0.6-53.2,0c-22.2,0.6-44.3,2.2-66.4,4.3c-13.6,1.2-27,3.3-40.6,4.9c-18.7,2.3-37.4,3.3-56.3,1.9
					c-8.7-0.6-17.4-0.4-26,1.1c-13.4,2.4-26.9,2.4-40.5,1.5c-23.1-1.6-45.6-6.4-68.2-11.4c-12.8-2.8-25.8-4.5-38.9-4.8
					c-16.1-0.3-31.5,3.4-46.8,8c-11.7,3.5-23.4,6.7-35.6,7.4c-1.7,0.1-3.5,0.1-5.2-0.2c-4-0.8-5.5-3.9-3.7-7.6
					c0.8-1.7,1.8-3.3,2.9-4.9c6.4-9.1,10.3-19.4,14.3-29.6c2.7-6.9,5.6-13.8,8.6-20.6c7.3-16.8,16-32.8,23.7-49.3
					c6.9-14.6,12.7-29.7,17.5-45.1c2.7-8.6,7.5-15.7,13.8-21.9c2.8-2.8,5.5-5.8,8.4-8.6c4.9-4.8,7.5-11,10.9-16.8
					c7.8-13.3,15.2-26.8,21-41.2c4.4-10.9,7.4-22.3,11.8-33.1c5.4-13,10.4-26.2,16.9-38.7c1-1.9,2-3.7,3.4-5.3
					c12.1-14.7,25.1-28.5,40-40.5c5.7-4.6,11.5-9.2,17.4-13.6c5.8-4.3,10.3-10,15.6-14.8c27.7-24.5,59.3-42.1,94.7-52.8
					c13-4,26.3-6.9,40.1-7.4c8.4-0.3,16.2,1.8,23.7,5.2c14.4,6.5,26.7,16,38.2,26.7c10.7,9.9,19.9,21.2,30.1,31.5
					c8.3,8.4,15.9,17.4,24.6,25.5c7.4,6.9,16.2,10.7,25.5,13.5c21,6.3,41.5,13.6,60.2,25.6c11.1,7.2,23.6,11.7,35.6,17.1
					c2,0.9,3.9,2,5.6,3.3c12.2,9.4,23.3,19.9,32.4,32.5c15,20.8,29.7,41.7,45.2,62.2c1.3,1.8,2.9,3.3,4.4,4.8
					c5.6,5.6,11.1,11.3,15.9,17.6c8,10.5,18.3,18.9,27.4,28.5c10.9,11.6,20.9,23.9,30.9,36.3c4.4,5.5,9.7,10.3,14.8,15.2
					c6.9,6.7,13.3,13.9,20.6,20.3c3.7,3.2,6.6,7.3,8.9,11.6c2.2,4.1,4.9,7.8,7.9,11.4c2,2.4,4,4.8,5.4,7.5c4,7.8,9.9,13.7,16.9,18.9
					c7.5,5.6,14.5,11.8,20.3,19.2c2.7,3.5,1.2,7.7-3,7.7c-12.4,0.3-24.4,3.4-36.6,5.2C880.7,595.5,873.4,596,867.3,595.9z
					 M919.1,584.6c0.9,0.3,1.7,0.1,2-0.8c0.4-1.2-0.7-1.7-1.5-2.3c-4.5-3.4-9.1-6.7-13.3-10.3c-13.8-11.9-24.4-26.6-34.5-41.6
					c-5.6-8.3-11.5-16.3-19.5-22.6c-5-3.9-10-7.8-14.1-12.8c-8.3-10.1-15.6-20.9-24.2-30.8c-8.9-10.1-17.6-20.3-27.5-29.5
					c-4.8-4.5-9.4-9.3-13.6-14.5c-3-3.8-5.7-7.9-10-10.4c-2.8-1.6-4.9-3.7-6.7-6.3c-9.5-13.1-19.1-26.1-28.6-39.2
					c-10.2-14.1-19.8-28.7-31.1-42.1c-10.4-12.5-22.6-22.7-38.1-28.7c-10.2-4-19.9-8.9-29.1-14.7c-12.6-7.9-26.2-13.7-40.3-18.4
					c-6.2-2.1-12.9-3-18.7-5.8c-12-5.6-23.8-12.1-32.9-22c-11.3-12.2-23.3-23.7-33.6-36.8c-2.8-3.5-5.7-6.9-9.2-9.6
					c-8.5-6.6-16.5-14-25.1-20.5c-10.4-7.8-22-12.2-34.9-13.1c-6.2-0.4-12.2,1.3-18.3,2.5c-29.2,6-56.4,17-81.7,32.9
					c-15.5,9.8-29.8,21-42.6,34.3c-3.5,3.6-7.1,7.1-11.2,9.9c-8.4,5.9-16.2,12.3-23.6,19.4c-9,8.7-18.6,17-25.1,27.9
					c-9.9,16.6-19,33.7-24.9,52.3c-6.9,21.8-15.5,42.8-28.2,62c-2.9,4.4-5.4,9-8.1,13.5c-4.1,6.9-8.8,13.3-14.7,18.8
					c-5.5,5.1-9.9,11-11.6,18.4c-2.9,13.1-9.7,24.8-13.2,37.7c-0.3,0.9-0.8,1.8-1.3,2.7c-5.2,9.9-10.7,19.6-15.5,29.7
					c-3.1,6.6-5.1,13.6-8.6,20c-4,7.3-6.3,15.4-10.2,22.8c-3.5,6.7-6.6,13.7-9.7,20.7c-1.8,4.1-5,7.4-6.8,11.5
					c-0.6,1.3-1.9,2.9-1.1,3.9c0.7,0.9,2.7,0.3,4.2,0.2c11.1-1.3,21.9-4.1,32.6-7.3c12.9-3.8,25.9-7.1,39.4-7.9
					c16.7-0.9,33.2,1.2,49.5,4.8c23.3,5.1,46.5,10,70.4,11.4c10.5,0.6,21,1.5,31.4-0.8c10.9-2.5,22.1-2.7,33.1-1.9
					c18.5,1.3,36.9,0,55.2-2.2c14.2-1.7,28.4-4,42.7-5.1c18.2-1.5,36.4-3,54.7-3.6c19-0.7,38-1.4,57-0.5c18.1,0.9,36.1,1.3,54.2,0.3
					c12.4-0.7,24.9-0.1,37.3,1.3c8,0.9,16.1,2.6,24.2,1.6c13.3-1.6,26.6-1.8,40-0.9c17.8,1.1,35.6-0.3,53.4-0.3
					c11.7,0,23.2,0.8,34.8,1.5c17.1,1,34.1,3.8,51.2,5.6c17.2,1.8,34.2,1.9,51.3-1.6C903.1,585.7,910.9,583.3,919.1,584.6z"/>
				<path d="M697.9,369.5c-6-1.4-13.5-1.6-20.9-1.6c-3.1,0-6.2,0-9.3-0.1c-1.2,0-2.5,0-3.4-0.9c-1.7-1.8-2.9-1-4.5,0.2
					c-3.3,2.5-7.3,1.9-11,2.1c-5.2,0.3-10.3,0.1-15.5,0.6c-2.4,0.2-4.6,0.8-6.8,1.8c-4.1,1.9-8.4,2.6-12.9,3
					c-6.1,0.5-12.3,1.3-18.4,2.3c-5.1,0.8-10.1,1.1-15.2,0.7c-5.9-0.5-11-3.3-15.5-6.8c-6.1-4.6-12.5-8.3-19.8-10.7
					c-4.9-1.7-9.2-4.4-11.3-9.5c-0.5-1.1-1.3-1.1-2.2-1.2c-2.7-0.1-5.1-1-7.3-2.7c-0.5-0.4-1.1-0.6-1.7-0.8
					c-3.1-0.9-3.9-2.1-3.5-5.3c0.9-7.5,7.3-14.5,14.7-16.2c1.3-0.3,2.8-0.6,4-0.1c1.6,0.6,2-0.1,2.4-1.4c3.5-12.6,10-17.8,23.3-18.9
					c21.5-1.8,43-0.6,64.6-0.2c3.4,0.1,6.8,0.2,10.1-0.3c12.6-1.8,24,2.2,35.4,6.7c12,4.8,16.6,14.6,19.1,26.2
					c0.6,2.9-0.4,6,1.7,8.7c0.8,1.1,1.4,1.6,2.8,1.5c6.8-0.4,12.5,2.6,17.2,6.9c6.1,5.4,3.8,12.9-4,14.9
					C706.5,369.1,702.9,369.4,697.9,369.5z M539.6,349c1.6,2.1,3.3,3.3,5.2,4.2c2,0.9,4,1.8,6,2.5c5.9,2.1,11.4,4.9,16.4,9
					c6.1,5.1,13.3,7.3,21.3,6.3c2.7-0.3,5.4-0.6,8.1-1.2c6.5-1.4,13.2-1.2,19.6-2.8c5.4-1.3,10.7-2.6,16-4.5c4.3-1.5,8.7-1.8,13.2-1
					c3.6,0.7,7.1,0.1,10.4-1.4c3.7-1.8,7.2-3.7,7.9-8.7c0.7-4.5,3.7-7.9,7.6-10.5c4-2.7,8.4-3.7,13.2-3.2c1.8,0.2,2.2-0.4,1.8-2.1
					c-1.3-4.6-2.9-9-5.4-13c-0.8-1.3-2-2.4-3.3-3.2c-9.9-6.1-20.6-10.6-32.2-10.5c-24,0.2-48-0.3-72,0.1c-4.5,0.1-8.9,0.4-13.3,1
					c-7.7,1.1-12.8,5.2-14.8,12.9c-0.5,1.7-0.8,3.5-1.2,5.3c-0.2,0.6,0,1.2,0.5,1.4c3,0.7,5.4,3.2,8.9,2.3c4.8-1.2,9.5,1,11.6,5
					c1.6,3.1,1.1,6.6-1.5,8.6c-3.7,2.9-7.8,3.7-12.3,1.8c-0.6-0.2-1-0.7-1.8-0.4C546.5,348,543.3,348.3,539.6,349z M681.2,364.4
					c2.2,0.3,4.3-0.8,6.4-0.9c2.6-0.1,3.4-1.4,3.5-3.5c0.2-4.3-0.2-8.5-1.8-12.5c-1-2.3-2.7-3.9-5.2-4.2
					c-9.1-1.2-17.9,7.2-17.3,16.3c0.1,1.5,0.7,2.3,2.2,2.9C672.9,364.2,677.1,364,681.2,364.4z M533.7,343.7
					c4.1-0.3,8.1-0.8,12.1-1.8c1.1-0.3,2.6-0.3,2.5-2s-0.5-3.3-2.5-3.8c-3.1-0.7-5.5-2.3-7.3-4.8c-1.3-1.8-3-2-5.1-1.4
					c-3.6,1.2-5.8,3.9-7.6,7c-1.1,1.8-1.2,3.1,0.9,4.4C528.8,342.9,531,344,533.7,343.7z M700.3,363.7c1.8-0.2,4.9-0.5,7.9-1
					c1.3-0.2,3-0.3,3.3-1.9s-0.5-3.1-1.7-4c-3.1-2.4-6.7-3.9-10.4-5.1c-1.8-0.6-3.4-0.1-3.3,2.5c0.1,1.9-0.3,3.8-0.6,5.7
					C694.9,363.6,695.1,363.9,700.3,363.7z M555.7,336.7c-0.6,0.3-2.2,0-1.6,1.5c0.6,1.5-1.5,4.3,1.9,4.3c1.8,0,4-0.1,4.4-2.5
					C560.6,338.6,557.9,336.7,555.7,336.7z"/>
				<path d="M249.7,498.8c-9.6-0.3-19.1-3.1-28-7.8c-5.9-3.1-10.2-8-10.7-15.1c-0.1-1.8-1.1-1.8-2.4-1.6c-3.3,0.5-6.7,0.7-10,0
					c-6.4-1.3-9.6-6.7-7.1-12.6c2.5-6,6.7-10.3,13.1-12.2c3.7-1.1,7.2-0.8,10.2,1.8c0.6,0.6,1.1,1.3,2.2,0.4
					c8.7-7.1,18.6-7.8,29.1-5c3.3,0.9,6.6,2,9.9,3.1c5.1,1.8,10.1,1.8,15.2,0c9.5-3.4,19.3-5.6,29.4-6.5
					c17.4-1.6,30.8,6.3,37.1,22.6c0.6,1.6,1.1,1.5,2.4,0.7c5.4-3.3,11.9-4,16.1,2.8c0.7,1.1,1.4,0.8,2.2,0.3
					c1.8-1.1,3.7-1.8,5.8-2.3c5.8-1.2,10.8,2.6,11,8.6c0.1,1.4-0.1,2.7-0.1,4.1c0.1,1.9-0.9,2.9-2.7,3.1c-4.7,0.3-9.4,0.6-14.1,0.8
					c-0.6,0-1.5-0.1-1.8-0.5c-1.7-2.1-3.9-1.3-6-1c-4.3,0.7-8.6,1.2-13,1.4c-1.1,0.1-1.9,0.4-2.6,1.2c-2.9,3.4-6.7,5.5-11,6.8
					c-7.7,2.4-15.6,3.2-23.5,4c-6.1,0.6-12.1,0.1-18.2-0.6c-9.2-1.1-18,1.4-26.9,3C253.8,498.6,252.1,498.7,249.7,498.8z
					 M219.5,457.7c0.8-0.1,1.2-0.2,1.5-0.2c9.3-2.5,14.7,0.5,17.4,9.7c1.4,4.9-2,9.5-6.4,8.5c-3.5-0.8-7.2-0.7-10.6-2.3
					c-1.4-0.7-3.5-0.4-4.7,0.5c-1.3,0.9-0.2,2.7,0.1,4.1c0.9,3.8,3.6,6.5,6.9,8c11.5,5.4,23.4,9,36.3,5.4c8.9-2.5,17.8-3.3,26.9-0.8
					c2.5,0.7,5,0.9,7.6,0.5c9.9-1.3,19.8-2.4,29.4-5.3c7-2.1,10.8-8.2,9.2-15.3c-3.1-13.3-14.4-21.7-28.7-21.5
					c-10.9,0.2-21.2,2.8-31.4,6.3c-6.2,2.2-12.5,2.1-18.7,0c-3.9-1.3-7.7-2.6-11.7-3.7c-6.2-1.7-12.3-1.1-18.1,1.5
					C222.5,453.9,220.4,454.9,219.5,457.7z M204.8,468.8c1.9-0.2,4.4-0.5,6.9-0.7c5.4-0.6,5.5-0.6,3.6-5.8c-1.2-3.2-2.4-6.9-6.2-7.7
					c-4.1-0.8-7.2,1.7-9.9,4.6c-0.2,0.3-0.5,0.6-0.7,0.8c-1.4,1.9-2.9,3.9-1.7,6.4c1.1,2.4,3.5,2.2,5.7,2.3
					C203.1,468.8,203.6,468.8,204.8,468.8z M341.5,477.9c3.3-0.4,6.6-0.8,9.9-1.2c0.6-0.1,1.5,0,1.6-1.1c0.2-2.3-3.3-6-5.6-5.8
					c-3,0.2-5.5,1.7-7.5,4c-0.9,1.1-1.1,2.6-0.7,3.9C339.4,478.3,340.6,477.8,341.5,477.9z M228.7,469.3c3.8,0.1,4.2-0.1,4-1.4
					c-0.8-4.8-5.2-7.2-9.8-5.5c-1.4,0.5-1.2,1.3-0.8,2.3C223.5,468,225.8,469.8,228.7,469.3z M360.9,477.8c2.6,0,5.2,0,7.9,0
					c0.6,0,1.3,0.2,1.5-0.7c0.3-1.3-1.9-4.5-3.3-4.5c-2.8-0.1-5.3,1.1-7.4,2.9c-0.7,0.6-0.7,1.5-0.4,2.3
					C359.5,478.5,360.3,478.1,360.9,477.8z"/>
				<path d="M609.8,343.2c0.1-0.4,0.2-1.1,0.6-1.7c2-3,1.6-5.9,0.3-9c-1.7-4-1.2-7.8,1.6-11.2c1.2-1.5,2.9-2.6,4.7-1.1
					c1.6,1.4,0.8,2.9-0.4,4.3c-1.8,2-1.7,4.2-0.6,6.6c2.1,4.6,2,9.1-0.8,13.5c-0.8,1.3-1.9,2-3.4,1.5
					C610.4,345.7,609.9,344.8,609.8,343.2z"/>
				<path d="M635.6,320.8c0,0.1,0,0.5-0.1,0.6c-2.5,3.2-1,6.3,0.1,9.4c1.3,3.7,0.9,7.5,0,11.3c-0.5,1.8-1.5,3-3.5,2.5
					c-1.8-0.5-2.3-2-1.8-3.7c1.2-4.2,0.7-8.2-1.1-12.2c-1.6-3.5-0.2-6.7,1.9-9.7c0.8-1,1.9-1.4,3.1-0.9
					C635.2,318.7,635.7,319.6,635.6,320.8z"/>
				<path d="M600.1,337.6c0.1,2.8-0.4,4.8-1,6.8c-0.5,1.6-1.6,2.5-3.3,2.1c-1.6-0.4-2.3-1.7-1.9-3.2c1.2-4.2,0.5-8.2-0.8-12.3
					c-0.9-3,0.2-5.9,1.5-8.7c0.6-1.3,1.8-1.9,3.2-1.4c1.3,0.4,2.2,1.6,1.6,2.7c-2,4.2-0.6,8.1,0.5,12.2
					C600.2,336.6,600.1,337.4,600.1,337.6z"/>
				<path d="M308.5,458c-2.5,3.2,0.4,6.3,0.9,9.7c0.4,2.7,0.3,5.4-0.6,8.1c-0.6,1.6-1.7,2.6-3.6,2.1c-1.7-0.5-2.1-2-1.7-3.5
					c1.1-3.5,0.5-6.7-0.8-10c-1.1-2.9-0.6-5.7,1.3-8.2c0.7-0.9,1.7-1.3,2.9-0.9C308,455.7,308.4,456.5,308.5,458z"/>
				<path d="M290.9,474.2c2.1-3.5,0.3-7.3-0.1-11.1c-0.2-2.3,0.8-4.3,2.4-5.9c1-1,2.3-1.1,3.5-0.3c1.1,0.8,1.4,2.1,0.6,3.1
					c-1.6,2.1-1,4.3-0.4,6.5c0.8,3.1,0.6,6.1-0.9,9c-0.7,1.2-1.7,1.9-3.1,1.6C291.6,476.8,291.1,475.7,290.9,474.2z"/>
				<path d="M283.4,462.5c-1.6,2.7,0.1,5.6,0.5,8.6c0.3,2.6,0,5.1-1.1,7.4c-0.7,1.5-1.8,2.4-3.5,1.8s-2.1-2.1-1.5-3.6
					c1.2-3,0.8-5.8,0-8.8c-0.6-2.5-0.4-5.1,1-7.4c0.7-1.1,1.7-1.6,3-1.2C283,459.9,283.4,460.9,283.4,462.5z"/>
			</g>
		</g>
	</g>
	<g id="Snd_Housing_Color_xA0_影像_1_">
	</g>
	<g id="Snd_Housing_xA0_影像_1_">
	</g>
	<g id="Hands_Color_xA0_影像_1_">
	</g>
	<g id="Hands__x26__House_xA0_影像_1_">
	</g>
	<g id="Rain__x26__Flood_Color_xA0_影像_1_">
	</g>
	<g id="Rain__x26__Flood_xA0_影像_1_">
	</g>
</g>
<g id="house">
	<g id="Snd_Housing_xA0_影像_2_">
		<g>
			<polygon class="st2" points="310.6,114.3 311.1,144.3 325.6,156.8 334.1,162.3 355.1,147.8 365.1,137.3 363.6,119.8 357.1,102.8 
				343.1,96.8 330.1,96.8 			"/>
			<polygon class="st2" points="345.6,159.8 322.1,173.8 324.1,205.8 405.6,201.3 407.6,179.8 387.6,159.8 387.1,143.8 355.1,147.8 
							"/>
			<polygon class="st2" points="342.6,225.8 338.1,247.3 344.1,258.8 381.1,256.3 386.1,242.3 380.6,225.8 			"/>
			<polygon class="st2" points="284.1,250.3 279.6,269.8 286.3,273.7 284.6,307.3 264.6,307.3 265.6,345.8 425.1,344.3 429.6,317.3 
				379.1,317.3 			"/>
			<polygon class="st2" points="287.1,249.3 288.6,293.3 382.1,331.3 435.6,320.3 389.6,299.8 337.1,281.8 			"/>
			<polygon class="st3" points="383.1,313.8 398.1,296.8 423.6,297.8 436.1,317.3 			"/>
			<polygon class="st3" points="287.1,249.3 309.6,243.8 339.6,253.3 337.6,267.8 331.6,285.8 			"/>
			<polygon class="st3" points="362.1,286.3 385.1,283.8 391.1,309.8 			"/>
			<polyline class="st3" points="392.9,401.1 397.1,438.3 430.2,436.7 431.6,401 392.9,401.1 			"/>
			<polygon class="st2" points="739.8,346.5 739.8,371.8 793.1,367.8 793.1,340.5 			"/>
			<polygon class="st2" points="737.8,390.5 717.1,404.5 719.1,473.8 815.8,463.8 818.4,398.5 794.2,384.6 761.1,385.8 			"/>
			<polygon class="st2" points="446.1,394.3 449.1,557.8 504.6,548.8 522.1,460.3 530.1,430.8 530.1,390.3 517.6,370.8 463.6,370.8 
							"/>
			<polygon class="st3" points="413.6,455.3 391.6,477.8 392.1,552.3 451.1,559.3 459.1,451.8 			"/>
			<g>
				<path d="M386.4,517.9c0-12.8,0.2-25.6,1.2-38.4c0.3-3.6,1.9-6.3,4.8-8.4c5.2-3.8,10.4-7.7,15.6-11.5c1.1-0.8,1.7-1.7,1.9-3.1
					c0.5-4.4,2.1-5.9,6.6-6.4c6.9-0.8,13.8-0.8,20.7-1c7.8-0.2,7.8-0.2,7.3-8c-0.2-3.6-0.6-7.2-0.6-10.9c0-1.9-0.6-2.5-2.5-2.4
					c-4.2,0.3-4.2,0.3-4.5,4.6c-0.3,4.6-1.8,6.4-6.1,7.9c-7,2.5-14.2,1.7-21.3,1.5c-4.3-0.1-8.5-0.6-12.8-0.9
					c-3.7-0.3-5.2-1.6-5.5-5.1c-0.9-10.4-1.7-20.8-1-31.3c0.4-5.6,7.3-12.1,12.9-12.2c7.8-0.1,15.6-0.3,23.4-0.6
					c2-0.1,3.5,0.5,4.8,2c1.9,2.2,3.8,4.4,5.8,6.5c1.5,1.6,0.9,3.4,1,5.2c0,1.3,0,2.5,1.8,2.1c1.4-0.3,3.6,0.6,3.5-2.1
					c0-3.4,0-6.7-0.1-10.1c-0.1-2.2,0.6-4,1.9-5.8c4.5-6.2,8.9-12.6,13.3-19c1.5-2.2,3-3.5,5.9-2.4c1.6,0.7,3.4-0.4,5.1-0.4
					c12.1-0.3,24.2-0.7,36.2-1c3.7-0.1,7.4,0.3,11.2,0.5c1.9,0.1,3.2,1,4.1,2.7c2.7,5.2,5.8,10.3,9.8,14.3c3.8,3.8,3.7,7.9,3.7,12.4
					c0.4,25.3-1.7,50.5-3,75.7c-0.2,4.4-0.5,8.9-0.7,13.3c-0.1,2.9-1.5,4.5-4.2,5.3c-2.6,0.7-6.2,0.3-7.5,2.3
					c-1.2,1.9-0.3,5.1-0.5,7.7c-1.1,15.7-1.7,31.4-5.3,46.8c-0.3,1.3-0.7,2.6-1,4c-0.8,3.3-2.9,5-6.2,6c-19.3,6.4-39.4,7.6-59.4,8.4
					c-11.2,0.5-22.5,1.2-33.8-0.4c-7.8-1.1-15.3-3.1-21.8-7.8c-1.7-1.3-2.7-2.8-2.9-4.9C387,541.3,386.6,529.6,386.4,517.9z
					 M493.6,391.5c0,0.3-19.8,0.8-29.7,0.8c-4.4,0-8.7,0.7-13,1.5c-1.5,0.3-2.1,0.9-2.1,2.5c0.1,4.5,0.1,9.1,0,13.6
					c-0.1,8.4,0.2,16.7,0.6,25.1c0.1,1.8,0.6,2.5,2.6,2.5c2.1,0,2.4-1,2.3-2.7c-0.1-1.4-0.1-2.7,0.2-4.1c0.2-1.4,1.1-2.3,2.6-2.3
					c1.5,0.1,2.2,1.1,2.3,2.5c0.1,1,0,2,0,3c0.1,1.1-0.5,2.5,1.6,2.4c1.6-0.1,2.9-0.3,2.7-2.4c-0.1-1,0.1-2,0.2-3
					c0.1-1.8,0.3-3.8,2.6-3.7c2.3,0.1,2.5,1.9,2.5,3.8c0,4.7,0.1,4.7,4.7,4.8c0.3,0,0.5,0,0.8,0c1.6,0.2,2-0.6,2-2
					c0-1.8-0.3-3.7,0.4-5.4c0.6-1.4,1.6-2.2,3.2-1.9c1.6,0.4,2,1.6,1.8,3.2c-0.2,1.3-0.2,2.7-0.4,4c-0.2,1.6,0.4,2.3,2.1,2.3
					c2.9-0.1,5.8-0.1,8.7,0c1.7,0.1,2.2-0.7,2.2-2.3c-0.1-1.3,0-2.5,0.1-3.8c0.1-1.6,0.8-2.9,2.6-2.9c1.9,0,2.4,1.4,2.4,3
					c0,1.5,0,2.9-0.1,4.4c-0.1,1.9,1.2,1.6,2.4,1.8c1.4,0.1,2-0.4,1.9-1.8c-0.1-1.6-0.1-3.3,0.1-4.9c0.1-1.5,0.9-2.6,2.6-2.7
					c1.7,0,2.4,1.1,2.5,2.7c0.1,1.7,0.1,3.5,0.1,5.2c0,1.2,0.4,1.5,1.6,1.6c4.7,0.1,5-0.2,5.5-4.9c0-0.4,0.1-0.7,0.1-1.1
					c0.2-1.3,1-2.1,2.4-2.1c1.4,0,2.2,0.8,2.5,2.1c0.1,0.8,0.1,1.6,0.1,2.4c0.1,1.2-0.6,3.1,1.8,2.7c1.8-0.4,4.6,1.3,4.8-2.5
					c0.7-12.7,0.8-25.4,0.7-38.2c0-3.4-0.3-3.7-3.7-3.9c-0.9,0-1.8-0.1-2.7,0C512.7,391,503.1,391.3,493.6,391.5z M444.1,489.5
					c12.2-0.5,24.5,0.3,36.8-1.2c5.3-0.7,5.3-0.3,6.3-5.6c1.6-8.5,1.6-17.1,1.4-25.8c0-1.4-0.5-2.1-2-2.2c-7.4-0.4-14.9-1-22.3-1.2
					c-8.6-0.3-17.2,0.8-25.8,1.1c-6.8,0.3-13.6,0.6-20.4,0.9c-1.3,0.1-2.5,0.2-2.7,2c-0.7,9.7-1.8,19.3-1.4,29.1
					c0.1,2,0.8,2.8,2.9,2.8C425.9,489.5,434.9,488.9,444.1,489.5z M453.1,387.2c23.8-0.8,47.3-1.6,71.1-2.4
					c-2.3-3.5-4.5-6.6-6.4-9.8c-0.9-1.5-1.9-2.1-3.7-2.2c-13.4-0.9-26.9,0.1-40.3-0.2c-3.2-0.1-6.3,0.5-9.5,1
					c-0.8,0.1-1.6,0.3-2.1,1C459.2,378.8,456.2,383,453.1,387.2z M417.5,403.7c-6.7-0.6-13.2,0.6-19.8,0.8c-1.9,0.1-2.3,0.6-2.4,2.5
					c-0.4,8.9,0.4,17.8,1.2,26.6c0.1,1.5,0.9,1.7,2.1,1.8c4.6,0.3,9.2,0.7,13.9,0.9c4.3,0.2,8.5,0.3,12.8-0.5
					c3.5-0.6,3.8-1.1,3.9-4.6c0.1-3,0.2-6,0.4-9c0.4-5.4,0.8-10.9,1.2-16.3c0.1-1.6-0.4-2.3-2.1-2.2
					C425,403.8,421.2,403.7,417.5,403.7z M489.2,528.7c2.2,0,4.4,0,6.5,0c1.1,0,2.1-0.3,3-1.1c3.5-3.1,6.7-6.6,9.6-10.4
					c0.5-0.7,1.3-1.5,0.3-2.4c-1.2-1.1-1.8,0.2-2.4,0.8c-2.9,2.8-5.8,5.5-8.5,8.4c-1,1-1.9,1.3-3.3,1.3c-9.5,0.3-19-1.1-28.6-0.6
					c-10.3,0.6-20.6,2-30.9,2.1c-5.4,0-10.9,0.3-16.3-0.4c-5.1-0.6-10.1,0.4-15.2,0.4c-1.5,0-2.6-0.4-3.4-1.7
					c-1.8-2.5-3.7-4.9-5.6-7.4c-0.3-0.4-0.7-1-1.3-0.6c-0.5,0.4-0.2,1,0,1.5c1.4,2.6,3.4,4.9,5,7.5c1.4,2.3,3.3,3,5.9,3
					c6.3-0.1,12.5-0.1,18.8,0.3c11.1,0.8,22.1-0.2,33.1-1.2c5.9-0.5,11.8-0.8,17.7-0.6C478.7,527.9,483.9,528.8,489.2,528.7z
					 M506.1,470.7c-3.3-2.4-6.4-4.7-9.6-7c-0.5-0.3-1-1.1-1.6-0.7c-0.6,0.3-0.4,1.1-0.4,1.7c-0.2,6.5-0.5,13-1.7,19.5
					c-0.6,3.1-0.3,3.3,2.8,2.9c1.5-0.2,2.2-0.9,2.2-2.4c0-1.8,0.2-3.6,0.4-5.4C499.1,472.2,499.1,472.2,506.1,470.7z M399.3,472.7
					c5.9,0.7,6.4,1.3,6.4,7.2c0,2.1,0,4.2,0,6.2c0,1.2-0.3,2.6,1.7,2.6c2.1,0,1.4-1.5,1.4-2.5c0-4.5,0-9,0-13.6c0-2.2,0-4.4,0-7
					C405.5,468.1,402.2,470,399.3,472.7z M437.5,418.8c-0.1,4.4,0.3,4.7,4.4,3.7c2.9-0.7,1.4-3,1.4-4.5c0.2-3.8,0-3.7-3.7-3.4
					C436.2,415,438,417.5,437.5,418.8z M418.2,541.3c-0.9-0.7,1.4-3.1-1.3-3.2c-4.6-0.1-5,0.5-5,5.4c0,1.3-0.3,2.5,1.8,2.4
					C418.1,545.8,418.1,545.9,418.2,541.3z M512.5,461C512.6,461,512.4,460.9,512.5,461c-0.2,2.5,0.3,4.5,0.3,6.8
					c0,0.8,0.4,1.4,1.2,1.6c0.1,0,0.5-0.5,0.6-0.8c0.4-4.4,0.8-8.8,1.1-13.3c0.1-1.5-1.1-1.4-2.1-1.4c-1.3-0.1-1.1,0.9-1.1,1.7
					C512.5,457.3,512.5,459.2,512.5,461z M507.5,464.8c0.2-3.2-0.1-6-0.2-8.9c-0.1-1.3-0.2-2.2-2-2.1c-1.9,0.1-2,1.1-1.8,2.5
					c0.2,1.2,0.5,2.4,0.4,3.5C503.5,462.7,505.2,463.7,507.5,464.8z M414,512.7c-0.4-1,1-2.7-0.6-3.5c-1-0.5-2.7-0.8-3.6,0.7
					c-0.7,1.2-0.2,6.9,0.5,7.2c0.2,0.1,0.5,0,0.8,0.1C413.8,517.3,414,517.1,414,512.7z M480.7,542.2c4.1-0.2,4.1-0.2,4.2-3.8
					c0-2-1.1-1.6-2.3-1.6c-4.1,0.2-4.2,0.4-4.4,3.4C478.2,542.6,479.5,542.3,480.7,542.2z M478.4,511.7L478.4,511.7
					c0.1,0.8,0,1.6,0.1,2.4c0.1,1-0.3,2.3,1.6,2.1c1.4-0.1,2.5-0.3,2.3-2.1c-0.1-1.6-0.1-3.3-0.1-4.9c0-1.5-0.9-1.7-2.1-1.7
					s-1.9,0.4-1.8,1.7C478.4,510.1,478.4,510.9,478.4,511.7z M419.4,512.7L419.4,512.7c0,0.3-0.1,0.6,0,0.8c0.3,1.2-0.9,3.1,1.8,3
					c2.2,0,2.8-1,2.6-3c-0.1-1-0.1-2,0-3c0.1-1.5-0.8-1.8-2-1.8c-1.3,0-2.4,0.1-2.3,1.8C419.4,511.3,419.4,512,419.4,512.7z
					 M491.4,512.7c0-1.1,0-2.1,0-3c0-1.9-1.5-1.4-2.6-1.6c-1.5-0.2-1.3,0.9-1.3,1.8c0,1.5,0.1,3.1,0,4.6c0,1.2,0.5,1.5,1.6,1.6
					C492.6,516.5,490.9,513.8,491.4,512.7z M423.2,541.3c0,0.8,0,1.3,0,1.8c0.1,1-0.5,2.3,1.4,2.3c1.7,0,2.3-0.7,2.2-2.3
					c-0.1-1.2-0.1-2.4-0.1-3.5c0-1.5-0.9-1.9-2.2-1.7C422.2,538.4,423.8,540.4,423.2,541.3z M492.9,538.8c-0.1-1,0.5-2.5-1.3-2.4
					c-2.3,0.2-1.2,2.2-1.6,3.4c-0.3,0.9-0.2,1.8,1.2,1.8C493.5,541.7,492.5,539.9,492.9,538.8z"/>
				<path d="M712,446.9c-0.6-14.7-0.2-27.3,1.8-39.9c0.7-4.5,3.5-7.4,6.8-10.4c8-7.2,17.4-10.5,27.7-12.3c1.3-0.2,1.6-0.8,1.6-2
					c-0.1-2.2-0.2-4.4,0-6.5c0.2-2.5-0.9-2.7-2.9-2.3c-2.7,0.5-5.4,1-8.1,1c-3.4,0-3.8-0.7-3.5-4c0.4-5.2,0.5-10.3,0.8-15.5
					c0.1-2.7,0.3-5.4,0.5-8.2c0.3-2.9,1.8-4.6,4.7-5.3c5.1-1.1,10.2-1.5,15.4-1.9c10.6-0.9,21.2-1.5,31.9-1.2
					c6.3,0.2,7.6,1.4,7.6,7.5c0,6.5,0.3,12.9,0.9,19.3c0.4,4-1.2,5.7-5.2,5.9c-4.8,0.2-4.9,0.2-4.9,5.1c0,2.4-0.9,5.4,0.4,7.2
					c1.3,1.7,4.4,0.9,6.7,1.4c6.4,1.4,12.8,2.9,18.9,5.2c6.9,2.6,10,8.2,11,15.2c1.6,11.4-0.2,22.8-0.4,34.2
					c-0.2,9.1-0.5,18.1-0.9,27.2c-0.2,6.6-0.6,13.2-0.9,19.9c0,1.4-0.7,2.2-1.8,2.8c-13.9,7.9-28.6,13.1-44.9,13.6
					c-10.3,0.3-20.5,1-30.8-0.2c-10.8-1.2-20.5-5.4-29-12.2c-1.9-1.5-2.6-3.3-2.7-5.8C712.7,471.3,712.3,458.1,712,446.9z
					 M768.8,388.6c-1.2-0.3-7.8,0-11.7,0.2c-0.7,0-1.5-0.1-1.9,0.8c-0.7,1.5,0.1,5.2,1.4,6.4c1.9,1.8,3.3,3.9,3.6,6.6
					c0.2,2.1-0.7,3.7-2.9,3.9c-3.1,0.3-6.1,0.7-9.1,1.5c-2.3,0.6-3.8-0.8-3.5-3.2c0.5-3.2,1.4-6.3,3.8-8.5c2-1.8,1.6-4,1-5.8
					c-0.5-1.5-2.5-0.1-3.8-0.1c-0.4,0-0.9,0.2-1.3,0.3c-9.2,1.9-17.3,5.8-24,12.6c-1.4,1.4-1.4,2.3,0.4,3.3c3.8,2.3,7.7,4,11.9,5.3
					c22.2,7,44.1,5.4,65.7-2.5c4.4-1.6,8.8-3.5,12.6-6.3c1.7-1.2,4.7-2.5,4.4-4c-0.5-2.3-3.4-3.7-5.8-4.4
					c-6.7-2.1-13.4-4.1-20.3-4.9c-0.7-0.1-1.7-0.6-2.1,0.4c-0.4,0.9,0.4,1.5,1,2c2.1,1.7,3.4,4.1,4.1,6.6c1,3.4-0.3,5.1-3.9,5.6
					c-2.2,0.3-4.3,0.6-6.5,1c-3.6,0.7-5.1-0.8-4.2-4.3c0.7-2.5,1.9-4.9,3.4-7.1c2-2.9,1.1-5.1-2.3-5.3
					C775.5,388.5,772.2,388.6,768.8,388.6z M749.2,367.7c-3.3-4.9-2.3-11.8,1.9-15.2c1.2-1,2.6-1.5,3.9-0.3c1.4,1.3,0.9,2.6-0.2,3.8
					c-0.5,0.5-1,1.1-1.3,1.7c-2.5,4.3-1.9,5.8,3,6.7c5.8,1.1,11.6,0.8,17.4,0.3c2.8-0.2,5.6-0.9,8.2-2c0.8-0.4,1.9-0.8,1.9-1.7
					c0-1.3-1.4-1.8-2.3-2.5c-1.1-0.9-1.3,0.4-1.8,0.9c-0.8,0.8-1.7,1-2.7,0.7c-1-0.4-1.8-1.3-1.6-2.3c0.5-2.2-0.2-4.1-1-6
					c-0.5-1.1-0.4-2.4,0-3.5c0.7-1.8,1.6-3.8,4-3.2c2.3,0.6,1.9,2.4,1.3,4.2c-0.5,1.6,0.8,4,2,4c5.8,0.2,9.2,5,7.5,10.5
					c-0.2,0.6-0.7,1.3,0.4,1.4c0.7,0.1,1.5,0.1,1.6-1c0-0.6,0-1.3-0.1-1.9c-0.6-5-0.6-10-0.5-15c0.1-2.6-0.7-3.4-3.3-3.5
					c-14.3-0.1-28.5,0.9-42.7,2.7c-1.9,0.2-2.6,1.1-2.6,3c-0.2,5.9-0.5,11.8-0.8,17.7c-0.1,1.5,0.5,1.7,1.7,1.5
					C745,368.4,747,368.1,749.2,367.7z M768.9,382.4c3.3,0.2,7.1,0.3,10.8,0.6c1.8,0.2,2.5-0.3,2.4-2.2c-0.2-2.6-0.2-5.3-0.1-7.9
					c0.1-1.6-0.5-2-2-1.9c-7.3,0.4-14.7,0.8-22,1.1c-1.8,0.1-2.6,0.5-2.5,2.5c0.2,2,0.1,4-0.1,6c-0.2,1.9,0.3,2.6,2.4,2.4
					C761.3,382.7,764.9,382.6,768.9,382.4z M767.5,446.8c0,1.2,0,2.4,0,3.5c0,0.9,0.3,1.4,1.3,1.4c3.4-0.1,7.1,0.3,9.8-1.5
					c1.8-1.3,0.6-4.8,0.8-7.3c0-0.2,0-0.4,0-0.5c0.1-1.2-0.4-1.6-1.6-1.3c-2,0.3-4,0.6-5.9,0.8C767.3,442.3,767.3,442.3,767.5,446.8
					z M732.7,436.7c-1,10.1-0.6,10.8,7.8,12.9c0.1,0,0.2,0,0.3,0.1c1.3,0.6,1.9,0.2,1.8-1.2c0-2.4,0-4.9,0-7.3c0-0.8-0.1-1.5-1-1.7
					C738.7,438.9,735.7,437.8,732.7,436.7z M813,428.1c-1.8,1.1-3.2,2.3-4.9,2.8c-4.5,1.2-5.9,4-4.8,8.3c0.1,0.3,0,0.5,0,0.8
					c0,1,0.2,1.4,1.4,1C812.4,438.3,813.5,436.6,813,428.1z"/>
				<path d="M260.8,323.5c0-4.7,0.8-9.6-0.2-14.1c-1.2-5.2,2-7.2,5-9.4c4.6-3.4,8.8-7.6,14.3-9.8c0.9-0.4,0.8-1.1,0.9-1.8
					c0.1-4.4-0.1-8.7,0.4-13.1c0.2-1.4-0.5-1.4-1.6-1.1c-3,0.8-4.5-0.5-3.6-3.5c2-6.8,4.1-13.6,6.3-20.3c0.7-2,2.4-3.1,4.3-3.8
					c14.3-5.6,28.7-6.5,43.5-2c5.1,1.6,4.9,1.5,5.4-3.8c0.5-4.7,1.5-9.3,2.4-13.9c0.4-1.9,1.9-2.7,3.6-3.3c9.4-3.4,19-3.9,28.7-2.5
					c4,0.6,8.1,1.3,12.1,1.8c2.2,0.3,3.4,1.6,3.8,3.7c2.2,10.3,2.3,20.5,0.1,30.8c-0.4,2-1.7,3-3.6,3c-5.3,0-10,2.5-15.2,2.9
					c-1.1,0.1-1.4,0.8-1.5,1.9c-0.3,3.8-0.4,7.6-0.2,11.4c0.1,1.9,0.8,2.3,2.5,2.1c5.3-0.5,10.7-0.8,16.1-0.4
					c2.8,0.2,4.1,1.6,4.6,4.1c0.8,3.9,1.3,7.9,1.2,11.9c0,1.9,0.3,2.8,2.4,1.8c7.6-3.6,15.6-3.9,23.7-2.3c3.4,0.6,6.9,0.2,10.1,2
					c4.3,2.4,7.4,6.1,10.1,10.2c2.5,3.9,4.4,8.1,6.4,12.3c0.9,1.9,0.9,3.7-0.1,5.5c-3.8,7.5-8.2,14.8-11.7,22.4
					c-0.7,1.5-2,1.7-3.4,1.8c-17.8,0.5-35.6,1.2-53.4,1.3c-26.2,0.2-52.3-0.1-78.5,0c-9.4,0-18.7,0.1-28,1c-4.2,0.4-5.8-1.2-6.3-5.6
					C260.5,337.7,260.3,330.6,260.8,323.5z M286.4,289.8c-0.1,0-0.1,0-0.2,0c0,4.8,0,9.6,0,14.5c0,4.6-1.5,6.1-6.2,6.2
					c-3.6,0-7.3,0.2-10.9,0c-2.7-0.1-3.4,0.9-3.4,3.5c-0.1,9.6,0.1,19.3,1.1,28.9c0.2,1.9,1,2.1,2.6,2.1c8.6-0.4,17.2-0.8,25.9-1.1
					c1.5-0.1,2-0.4,1.8-2c-0.5-4.6,0.6-8.9,3.5-12.6c5.9-7.6,17.1-6.1,20.8,2.8c1.2,2.8,1.6,5.8,1.5,8.8c0,2.1,0.5,2.8,2.7,2.8
					c24.5,0.2,49.1,0.1,73.6-0.6c1.8,0,2.3-0.6,2.3-2.4c0-3,0.9-5.7,2.7-8.1c1.9-2.5,4.3-4.1,7.5-3.4c3.1,0.6,4.7,2.9,5.5,5.8
					c0.6,1.9,0.7,3.8,0.6,5.7c0,1.7,1.1,1.7,2.2,1.5s3,1,3.2-1.4c0.4-6,1.1-11.9,0.9-18c0-1.5-0.7-2.1-2.1-2.7
					c-7.3-2.7-14.8-3.9-22.4-3.9c-6,0-12,0.1-17.6,2.7c-4.1,1.9-5.9,0.8-6.1-3.8c-0.1-4.6-0.2-9.3-0.3-13.9s-0.2-4.5-4.6-4.8
					c-10.8-0.8-21.6-1.3-32.3,0.5c-3.8,0.6-5.1-0.6-5.4-4.3c-0.5-6.5-1-13.1-1.1-19.6c-0.1-2.4-1-3.3-3.1-3.9
					c-13.3-3.9-26.4-2.3-39.6,0.7c-2.3,0.5-3.2,1.8-3.2,4C286.4,279.1,286.4,284.4,286.4,289.8z M382.2,241.9c0-2.2,0.1-3.9,0-5.6
					c-0.3-5.5-1.3-7.1-5.2-8.1c-5.2-1.3-10.5-2.2-15.8-2.3c-3.9-0.1-7.7,1.1-11.5,1.5c-3.9,0.4-6.1,2.3-7.2,5.9
					c-1.7,5.1-1.6,10.4-0.8,15.6c0.9,5.8,3.5,7.5,9.5,7.5c0.8,0,1.7-0.1,2.4,0.1c8.4,2,16.5,0.5,24.5-1.9c2.1-0.6,3.3-2.1,3.6-4.3
					C382.1,247.4,382.4,244.4,382.2,241.9z M421.6,307.4c-0.5,0.4-0.7,0.6-1,0.8c-1.1,1.1-2.4,1.4-3.7,0.4c-1.3-1-1.1-2.4-0.4-3.7
					c0.4-0.7,0.9-1.4,1.2-2.1c0.3-0.8,1.8-1.8,0.4-2.4c-1.2-0.5-3.1-1.9-4.1,0.6c-0.7,1.7-1.5,3.3-2.4,4.9c-0.7,1.2-2,1.7-3.3,1
					c-1.2-0.6-1.6-1.8-1.2-3c0.4-1.3,1-2.5,1.6-3.8c0.5-1.1,0.1-1.4-1-1.5c-1.9-0.2-3.6,0-4.4,2.2c-0.7,1.8-1.6,3.5-2.5,5.1
					c-0.8,1.5-2.2,2.4-3.9,1.6c-1.8-0.8-1.8-2.3-1.1-3.9c0.4-0.9,1.2-1.6,1.1-2.7c-4.9,0.2-9.6,6.2-11.4,11.4
					c6.2-1.3,12.3-1.4,18.5-1.2c6.3,0.2,12.4,1.3,18.6,3.3C422.6,311.8,422,309.7,421.6,307.4z M346.8,278.8L346.8,278.8
					c2.5,0,4.9,0,7.4,0c1.4,0,1.9-0.4,1.9-1.9c-0.1-3.9,0-7.8,0-11.7c0-0.8,0-1.7-1.1-1.8c-4.4-0.4-8.7-1.9-13.2-1.6
					c-0.8,0.1-1.5,0.1-1.4,1.2c0.4,2.1,0,4.3,1.1,6.3c1.4,2.4,0.2,4.3-2.6,4.4c-0.5,0-1.3-0.6-1.4,0.2c-0.1,1.4-0.1,2.9,0.2,4.3
					c0.2,0.9,1.4,0.5,2.2,0.5C342.2,278.8,344.5,278.8,346.8,278.8z M308.2,261.5c3.9-0.3,4-0.3,4.1-2c0.3-3.3,0.4-6.7,0.6-10.1
					c0-0.9,0.3-2.3-1.3-2.1c-1.4,0.2-3.5-1.1-4.1,1.4c-0.8,3.8-1.5,7.6-2.4,11.5c-0.3,1.4,0.2,1.6,1.4,1.4
					C307.2,261.6,307.8,261.5,308.2,261.5z M302,249.3c0-0.4,0.3-0.9-0.3-1.3c-0.8-0.5-4.3,0.8-4.6,1.9c-1,3.9-2,7.7-3,11.5
					c-0.1,0.5-0.4,1.1,0.2,1.5c1,0.6,5-0.9,5.2-2C300.4,257.1,301.2,253.3,302,249.3z M318,258.8c-0.3,0.8-1.1,2.1,0.2,2.3
					c1.9,0.4,3.9,0.4,5.9,0.5c0.1,0,0.3-0.6,0.2-0.9c-0.7-3.7-1.4-7.5-2.2-11.2c-0.4-1.6-2-1.5-3.2-1.5c-1.3,0-0.9,1.4-0.9,2.2
					C317.9,253,318,255.9,318,258.8z M334.9,263.2c-0.1-2.6-0.9-5.4-1.2-8.3c-0.3-2.7-1.6-3.9-4.2-4.4c-1.4-0.3-2-0.3-1.6,1.5
					c0.7,2.8,1.4,5.6,1.7,8.5c0.3,2.5,1.7,3.5,3.8,4.2C334.8,265,335.4,265.1,334.9,263.2z M381.8,307c5.3-7.2,2.2-14.2,2.1-21
					c-1.2,1.4-2.1,2.9-2.9,4.4c-0.4,0.8-1.1,1.4-0.5,2.5c0.9,1.5,0.7,3.2,0.8,4.8C381.3,300.5,381.1,303.4,381.8,307z M282.6,267
					c2-1.3,4.4-1.1,5-2.6c1.6-4.4,2.6-9.1,4-14.3c-2,1.2-3.9,1-4.5,2.9C285.7,257.3,284.3,261.7,282.6,267z M307.3,330.8
					c-3.8,1.9-6.3,8.1-4.9,11.4c0.7,1.8,2.2,1.2,3.5,1.3c1,0.1,1.5-0.4,1.5-1.4C307.3,338.4,307.3,334.7,307.3,330.8z M317.1,340.5
					c-0.2-5-1.1-7.7-3.1-9.2c-0.3-0.3-0.6-0.7-1.2-0.5c-0.6,0.2-0.4,0.8-0.4,1.2c0,2.9,0.2,5.8,0,8.7c-0.1,2.1,0.5,2.9,2.7,2.8
					C317.5,343.4,317.1,341.9,317.1,340.5z M412.4,339.8c-0.3-1.8,0.4-4.8-1.9-5c-2.5-0.3-3.1,2.6-3.6,4.7c-0.2,1-0.8,2.4,0.2,3
					c1.3,0.7,3,0.3,4.5,0C412.9,342.1,412.2,340.7,412.4,339.8z"/>
				<path d="M352.6,208c-7.9-0.9-16.6,1-25.3,1c-1.8,0-3.4-0.5-5-0.8c-1.5-0.3-2.2-1.6-2.3-3c-0.5-5.1-1.2-10.3-1.4-15.4
					c-0.3-5.6-0.2-11.3-0.3-16.9c-0.1-2.2,0.8-3.9,2.4-5.5c1.7-1.7,3.2-3.7,4.8-5.6c0.8-0.9,0.7-1.5-0.6-1.9
					c-13.7-5.2-21-19.3-19.3-36.1c1-10.3,5-19,14-24.6c8-5,16.6-8,26.4-5.5c11.1,2.8,19.6,12.1,21.7,24.1c0.7,3.9,0.9,7.8,0.1,11.6
					c-0.5,2.3,0.5,2.6,2.5,2.4c4.1-0.4,8.3-0.9,12.5-0.8c1.6,0,2.5,0.5,3.1,2c1.3,3.2,2.9,6.2,4.2,9.5c1.3,3.4,1.3,7.1,1.6,10.7
					c0.3,2.7,0.5,5.4,0.5,8.2c0,1.6,0.6,1.8,2,1.5c2.4-0.4,4.9-0.5,7.3-0.8c2.4-0.3,3.8,0.8,4.6,2.9c1.7,4.1,3.5,8.2,4.9,12.4
					c1,3.1,0.4,6.5,0.2,9.7c-0.3,4.8-1.1,9.5-1.4,14.3c-0.1,1.8-0.6,2.8-2.4,2.8c-15,0.6-29.8,3.1-44.8,3.9
					C359.4,208.1,356.4,208,352.6,208z M386.5,165.6c-0.3-5-0.5-10-0.8-15c-0.1-2.2-0.9-2.7-3-2.5c-6.3,0.6-12.7,1.2-19,1.4
					c-3,0.1-5.4,0.6-7.2,3.2c-1.8,2.7-6.1,3.2-6.8,6.5c-0.7,3.1-0.1,6.5-0.2,9.8c0,3.8-1,5.1-4.9,4.8c-5.7-0.4-11.2,0.7-16.8,1.4
					c-3.2,0.4-4,1.2-4,4.5c-0.1,6.6,0.4,13.2,1,19.8c0.4,4.4,1.3,5.3,5.5,4.5c8.5-1.7,17.1-1.8,25.8-1.5c5.5,0.1,10.9-0.4,16.3-0.9
					c9.5-0.9,19-2,28.4-2.8c2-0.2,2.9-0.8,3-2.6c0.3-4.6,0.6-9.2,0.7-13.8c0-1-0.5-2-1.7-2c-4.1,0.3-8.1,0.5-12.2,1
					c-3.1,0.4-4.2-0.4-4.2-3.5C386.5,173.7,386.5,169.7,386.5,165.6z M362.5,123.6c-0.1-1.1-0.2-2.6-0.5-4.1
					c-1.5-10.4-8.6-18.5-18.2-20.4c-5.2-1.1-10-0.1-15.1,1.6c-9.7,3.2-14.9,9.5-17,19c-1.1,4.8-1.2,9.8-0.3,14.6
					c1.8,9.8,6.7,17.4,16.6,20.4c9.8,2.9,18.5,0.5,25.5-7.2C359.5,140.8,362.2,132.9,362.5,123.6z"/>
				<path d="M470.1,421.8c-6.2,0-10.8-4.4-10.8-10.5c0-7.1,5.1-12,12.4-12c5.6,0,10,4.3,10.1,9.6C481.7,416,476.5,421.8,470.1,421.8
					z M472.4,415.4c4.2-3,4.8-7.7,1.8-9.5c-1-0.6-1.9-1-1.8,0.8C472.4,409.4,472.4,412.1,472.4,415.4z M466.7,414.9
					c0.2-2.8,0.3-5.5-0.2-8.3C463.9,409.5,464,412.7,466.7,414.9z"/>
				<path d="M501,411.1c0.1-6.2,3.9-11,9.8-12.3c4.8-1,10.5,3,11.5,8.2c1,5-2.3,11.5-6.9,13.7C508.4,424,500.9,419,501,411.1z
					 M514.1,405.2c0,3.1,0,6.1,0,9.3C517.8,411,517.7,407.1,514.1,405.2z M508.2,406.5c-2.7,3.4-2.5,6.5,0,8.1
					C508.2,412,508.2,409.5,508.2,406.5z"/>
				<path d="M492,423.3c0,2.4,0,4.7,0,7.1c0,1.5-0.8,2.7-2.4,2.7c-1.8,0.1-2.6-1.1-2.7-2.8c0-4.5,0-9.1,0.1-13.6
					c0-1.6,0.8-2.9,2.6-2.9c2,0,2.5,1.5,2.5,3.2c0,2.1,0,4.2,0,6.3C492.1,423.3,492,423.3,492,423.3z"/>
				<path d="M453.2,478c4.7,0.6,10,0.1,15.2-1.2c0.9-0.2,1.8-0.4,2.4-1.1c0.8-0.8,1.1-1.6-0.4-1.9c-1.8-0.3-2.9-2-4.7-2.5
					c-1.3-0.4-1.4-1.9-1.1-3c0.5-1.6,0.2-3-0.3-4.5c-0.8-2.2-0.5-4.3,0.9-6.2c0.9-1.1,2.1-1.6,3.4-0.9c1.4,0.6,1.7,1.9,1.1,3.2
					c-1.3,2.7,1.1,5,0.6,7.7c-0.1,0.6,0.8,0.5,1.3,0.7c4.1,1.2,5.4,2.4,5.6,5.3c0.2,3.5-1.6,6.8-4.9,8c-4.2,1.6-8.6,2.3-13.1,2.2
					c-5.7-0.1-11.4-0.6-17.1-0.9c-0.9-0.1-1.8-0.3-2.7-0.5c-3.8-1-5.9-3.3-6-6.1c-0.1-3,2.5-6.3,5.9-7.4c1.5-0.5,3-0.5,3.8,1.1
					c0.8,1.7-0.2,2.8-1.6,3.5c-0.4,0.2-0.8,0.4-1.2,0.7c-0.6,0.4-1.3,0.8-1.3,1.6c0.1,1,1.1,1.2,1.8,1.4
					C444.6,478.2,448.6,477.7,453.2,478z"/>
				<path d="M452.6,459.5c-0.1,0.3-0.1,0.9-0.5,1.2c-0.9,1.2-0.7,2.3-0.1,3.5c1.2,2.7,0.7,5.2-1.3,6.9c-1.1,1-2.4,1.3-3.7,0.4
					c-1.2-0.9-1.4-2.2-0.5-3.4c0.8-1.2,0.6-2.1,0.1-3.3c-1.2-2.9-0.4-5.8,1.7-7.4c1-0.7,2-0.9,3.1-0.3
					C452.2,457.7,452.6,458.4,452.6,459.5z"/>
				<path d="M460.5,460.6c-0.5,1,0,1.8,0.4,2.6c0.8,1.9,0.3,3.8-0.7,5.4c-0.7,1.2-1.9,1.7-3.3,1.1c-1.3-0.5-1.8-1.7-1.4-2.9
					c0.4-1.3,0.2-2.4-0.4-3.6c-0.6-1.4-0.2-2.8,0.5-4.1c0.8-1.3,1.8-2,3.4-1.5C460.5,458.1,460.8,459.3,460.5,460.6z"/>
				<path d="M411.4,429.2c2.7,0.2,5.4,0.3,8.1-0.4c1.7-0.5,2.6-0.9,1.7-3.1c-1.6-4-1.9-8.5-2.4-12.8c-0.2-2,0.6-3.8,2-5.2
					c0.8-0.8,1.8-1,2.8-0.5c1,0.4,1.8,1.5,1.3,2.4c-1.1,2.4,0.2,4.7-0.1,6.9c-0.4,3.1-0.4,5.6,2,8.2c2.1,2.3,0.6,6-2.2,8
					c-1.6,1.1-3.5,1.6-5.4,1.8c-5.5,0.8-11.1,0.7-16.5-0.3c-2.4-0.4-4.5-1.7-5.2-4.3c-0.6-2.3,0.3-4.3,1.9-5.9
					c0.4-0.4,0.9-0.6,1.3-1c0.8-0.6,2.5,0.4,2.6-0.7c0.2-2,1.4-3.8,0.3-6.1c-1.5-3-0.7-5.9,1.6-7.9c1.1-1,2.4-1.5,3.7-0.5
					c1.3,1,1.3,2.4,0.3,3.6c-1.1,1.3-1,2.5-0.3,4c0.9,2,1.1,4.2,0.1,6.3c-0.4,0.8-0.9,1.9-1.8,1.9c-2.2,0-2.4,1.7-3.3,3
					c-1.5,2.3-0.2,2.5,1.3,2.6C407.2,429.3,409.3,429.2,411.4,429.2z"/>
				<path d="M411.2,420.7c1-2.3,0-4.8-0.5-7.4c-0.3-1.9,0.4-3.6,1.6-5c1-1.2,2.3-1.6,3.6-0.7c1.3,0.8,1.5,2.1,0.7,3.3
					c-0.7,1.2-0.7,2.3-0.3,3.6c0.6,2.4,0.6,4.9-0.1,7.2c-0.4,1.5-1.4,2.4-3,2C411.8,423.6,411.3,422.5,411.2,420.7z"/>
				<path d="M764.1,348.5c-1.3,2,0.1,4.1,0.6,6.3c0.5,2.1-0.1,4-1.6,5.5c-1,1.1-2.2,1.3-3.4,0.6c-1.2-0.7-1.5-2-0.9-3.1
					c0.9-1.6,0.5-2.9-0.1-4.3c-1-2.4-0.4-4.7,0.9-6.7c0.6-1,1.6-1.5,2.8-1.2C763.5,345.9,764.1,346.8,764.1,348.5z"/>
				<path d="M767.3,355.3c-0.1-1.5-0.4-3.3-0.3-5.1c0.1-1.5,0.6-3,1.7-4.2c0.8-0.9,1.9-1.1,3-0.6c1.2,0.5,1.7,1.6,1.3,2.7
					c-1,2.3-0.6,4.6-0.3,6.9c0,0.2,0,0.4,0,0.5c-0.1,2.9-1.3,4.8-3.2,4.5C766.8,359.6,767.3,357.5,767.3,355.3z"/>
				<path d="M349.4,308.7c-0.3-6,2.1-6.2,7-6.2c3.7,0,4.7,1.4,4.6,6c-0.1,4.5-2.2,6.2-7.6,6.1C350.3,314.6,349.3,313.3,349.4,308.7z
					"/>
				<path d="M313.7,283.9c-0.1,2.9-2.4,5.1-5.3,5c-2.6-0.1-4.7-2.2-4.7-4.6c0-2.7,2.5-5.1,5.3-5.1
					C311.8,279.1,313.8,281.1,313.7,283.9z"/>
				<path d="M360.9,252.7c-3.3-0.2-6.9-0.4-10.4-0.6c-4-0.3-6.5-2.1-6.9-5c-0.5-3.1,2.3-7.5,5.4-8.7c0.6-0.2,1.3-0.5,1.8-0.2
					c3.5,1.5,2.5-0.5,2-2.4c-0.4-1.6-0.1-3.1,1.1-4.3c1.1-1.1,2.4-1.7,3.9-0.8s0.9,2.2,0.4,3.3c-0.4,0.9-0.4,1.8-0.2,2.9
					c1,3.9-0.6,5.5-4.4,4.9c-1-0.2-4.4,2.7-4.5,3.8c-0.1,0.9,0.6,1,1.3,1c6.9,0.8,13.8,0.7,20.7,0.4c0.7,0,2.8-0.1,1.4-1.8
					c-2-2.4,0.2-3.4,1.4-4.5c1.7-1.4,2.8,0,3.7,1.3c2.5,4,0.6,8.9-3.9,10.2c-3.2,0.9-6.5,0.4-9.8,0.4
					C362.9,252.7,362,252.7,360.9,252.7z"/>
				<path d="M370.2,230.8c0.7,0.1,1.3-0.1,1.8,0.8c1.5,2.7,0.8,8.7-1.6,10.7c-0.7,0.6-1.4,1.4-2.4,0.8c-1-0.7-1.3-1.8-0.7-2.9
					c0.9-1.6,0.6-3.1,0.2-4.7C367.1,232.9,368.3,230.9,370.2,230.8z"/>
				<path d="M364,230.3c1.2-0.1,2.5,0.6,1.8,1.8c-1.5,2.7-0.8,5.5-1,8.2c-0.1,1.5-1.2,2.3-2,2.6c-1.3,0.5-2.6-0.6-2.2-1.9
					c0.7-2.1-0.1-3.9-0.4-5.8C359.7,232.4,361.4,230.3,364,230.3z"/>
				<path d="M380.9,161.1c0,1.9,0.1,3.1,0,4.3c-0.3,3.3-1.6,4.7-4.8,5.3c-4.7,0.9-9.4,0.2-14.1,1c-1.7,0.3-2.9-0.9-3.3-2.7
					c-0.7-3.3-1-6.7-0.8-10c0.1-2.7,1.8-4.2,4.5-4.6c4.4-0.7,8.7-0.4,13.1-0.2c4.1,0.2,5,1.2,5.3,5.3
					C380.8,160.3,380.9,161.1,380.9,161.1z M375.6,162.4c-0.1-1.5,0.4-3.2-2.2-3c-1.5,0.1-2.3,0.6-1.9,2.1c0.4,1.4-1,3.7,1.8,4
					C375.7,165.6,375.7,164,375.6,162.4z M366.4,162.8c-0.3-1.1,0.5-2.5-0.6-3.2c-0.7-0.4-2.1-0.5-2.4,0.4c-0.5,1.8-0.5,3.8,0.3,5.5
					c0.4,0.9,1.5,0.6,2.2,0.3C367,165,366.2,163.8,366.4,162.8z"/>
				<path d="M348.5,192.2c0.1,4,0.1,3.9-3.4,3.7c-1.3-0.1-1.7-0.6-1.7-1.8c0-1.3,0-2.7,0-4c0-1.7,0.2-3,2.5-3c2.1,0,2.6,1.2,2.6,2.9
					C348.5,190.7,348.5,191.5,348.5,192.2z"/>
				<path d="M340.3,192.5c-0.5,1,1.2,3.2-1.7,3.5c-2.3,0.2-3.8-0.2-3.4-3c0.1-0.7,0-1.4,0-2.2c0-1.7,0-3.2,2.5-3.2
					c2.4,0,2.6,1.4,2.6,3.2C340.3,191.3,340.3,191.7,340.3,192.5z"/>
				<path d="M331.9,143.2c-2.1-0.1-5,0-7.7-0.8c-6.4-1.8-9.4-7.3-7.3-13.2c0.3-0.8,0.8-1.6,1.4-2.3c0.7-0.8,1.7-1,2.7-0.5
					c1.1,0.5,1.5,1.4,1.3,2.4c-0.1,0.8-0.4,1.6-0.6,2.4c-0.7,2.8,0,4.8,2.9,5.6c8.1,2.1,16,1.4,23.3-3.1c1.9-1.2,3-3.1,3.3-5.4
					c0.2-2,0.9-3.7,3.3-3.4c2.4,0.4,2.5,2.3,2.3,4.2c-0.6,5.6-4.1,8.9-8.9,11.1C343.1,142.5,337.9,143.4,331.9,143.2z"/>
				<path d="M329.5,114.3c-1.7,2.4,0.1,4.9,0.7,7.4c0.7,2.9-0.4,5.7-2.8,7.1c-1.2,0.7-2.4,0.8-3.5-0.2c-1-1-1.1-2.3-0.2-3.2
					c1.7-1.7,1.1-3.4,0.3-5.2c-1.2-2.7-0.9-5.3,0.9-7.7c0.8-1,1.9-1.4,3.1-0.9C329.2,111.9,329.5,112.8,329.5,114.3z"/>
				<path d="M339.7,122.4c-0.1,1.7-0.6,3.2-1.5,4.6c-0.8,1.2-1.9,1.7-3.3,1.2c-1.4-0.6-1.9-1.9-1.4-3.1c0.9-2.1,0.3-3.7-0.8-5.5
					c-1.5-2.3-1.1-4.9-0.2-7.3c0.6-1.6,1.7-2.4,3.4-1.9c1.6,0.5,2,1.9,1.5,3.3c-0.7,2-0.2,3.5,1,5
					C339.3,119.7,339.7,120.9,339.7,122.4z"/>
				<path d="M346.2,114.1c-0.3,1.7,0.6,3.1,1.4,4.5c1.1,2.1,1.4,4.3,0.8,6.6c-0.4,1.5-1.4,2.6-3.1,2.3c-1.8-0.3-2.4-1.7-2-3.3
					c0.5-1.8-0.4-3.2-1-4.6c-0.9-2-1.7-4-1.1-6.3c0.4-1.7,1.1-3.3,3.2-3C346.4,110.6,346.4,112.3,346.2,114.1z"/>
			</g>
		</g>
	</g>
</g>
<g id="hand">
	<g id="Hands__x26__House_xA0_影像_2_">
		<g>
			<polygon class="st2" points="520.9,99.4 521.1,150.1 579.1,149.4 580.2,96.6 547.7,95.2 520.1,99.4 			"/>
			<g>
				<path class="st1" d="M530.1,226.6c-4-0.6-7.5,0.2-10.9,1.2c-1.5,0.5-2.1,0-2.7-1.2c-9.4-20.2-19.3-40.1-25.8-61.5
					c-0.1-0.5-0.7-1-0.2-1.5c0.5-0.4,1.1-0.2,1.5,0.1c1.2,0.7,2.4,0.5,3.7,0.4c5.7-0.5,11.4,0.6,17.1,0.5c2.6-0.1,3.8,2.2,4.6,4.4
					c1.2,3.7,2.5,7.4,3.5,11.2c3.1,11.8,7.7,23.1,12.8,34.1c0.9,2,1.8,4,2.6,6c1.7,4.5,0.4,6.3-4.3,6.3
					C531.4,226.6,530.5,226.6,530.1,226.6z"/>
				<path class="st1" d="M577.7,225.4c-3.1-0.2-6.2-0.2-9.2,0.6c-3.5,0.9-4.5,0.4-6-2.9c-6.4-14.3-11.1-29.2-15.6-44.2
					c-0.7-2.3-1.5-4.5-2.1-6.8c-0.8-3.1,0-4.2,3.1-4.5c5.6-0.6,11.2-0.6,16.8,0.5c3,0.6,4.9,2.2,5.6,5.2c0.9,3.7,1.6,7.5,2.6,11.1
					c1.9,6.8,5.4,12.9,7.4,19.6c1.3,4.6,3.2,8.9,5,13.2c0.6,1.5,1.4,3,1.3,4.7c-0.1,2.1-1.2,3.4-3.4,3.5
					C581.5,225.5,579.6,225.4,577.7,225.4z"/>
				<path class="st1" d="M615.6,223.8c-2,0-2.8-1.1-3.2-2.6c-4.8-17.9-12-35-17.8-52.6c-0.2-0.7-0.6-1.4-0.7-2.1
					c-0.4-2.2,0.9-3.6,3.1-3.2c3.3,0.7,6.7,0.5,10,0c4.2-0.6,5.6,0.1,7.2,4c4.6,11.3,10.6,22.1,14.7,33.7c1.8,5.2,5.1,10,8.2,14.7
					c0.6,0.9,1.4,1.9,0.9,3c-0.5,1.1-1.8,0.4-2.7,0.6c-5.8,1.3-11.6,2.6-17.4,3.9C616.9,223.4,616.2,223.9,615.6,223.8z"/>
				<path class="st1" d="M534.8,128.2c0.5,0.6,1,1.1,1.4,1.7c2.7,4.7,7.1,4.7,11.6,4.3c3.3-0.3,6.7-0.8,10-0.8
					c5.2,0,7.8-3.8,10.9-6.9c0.2-0.2,0.2-0.5,0.3-0.8c3.1,4.9,1.7,9.7-3,11.5c-5.5,2.1-11.4,2.3-17.2,2.2c-3.7-0.1-7.5,0-11.1-1.2
					C533.1,136.6,531.7,132.3,534.8,128.2z"/>
				<path class="st1" d="M635.7,233.3c2.9,0,5.7,0.3,7.2,3.2c0.7,1.4,1,2.7-0.2,4c-0.8,0.9-1.3,1.9-1.6,3.1
					c-0.6,2.3-4.4,4.2-7.7,3.9c-1.4-0.1-2.9-0.2-4.3-0.4c-3.2-0.2-6.4-3.8-3.8-7.5C628.6,234.9,630.8,233.2,635.7,233.3z"/>
			</g>
			<polygon class="st2" points="610.4,161.1 636.4,209.1 657.4,194.1 676.4,190.1 689.4,192.1 687.4,209.1 650.4,225.1 638.4,229.1 
				637.4,247.1 673.4,247.1 728.4,246.1 761.4,226.1 809.4,196.1 883.4,168.1 938.4,135.1 993.4,105.1 923.4,15.1 774.4,124.1 
				740.4,133.1 675.4,128.1 650.4,125.1 			"/>
			<polygon class="st2" points="485.4,163.6 448.4,210.1 450.9,263.6 510.4,285.6 633.9,279.1 634.9,251.1 622.9,246.6 622.9,238.6 
				630.4,232.1 640.4,229.1 638.9,222.6 613.9,225.1 593.9,166.6 579.4,164.6 570.9,166.6 577.4,191.6 589.4,225.1 560.9,227.6 
				550.4,189.6 541.9,167.6 530.9,167.1 516.9,166.1 528.9,197.6 537.4,225.1 514.9,227.6 			"/>
			<g>
				<path d="M642.5,230.9c5.3,5,2.3,10.1,0.6,15.5c5.6-0.5,11.1-1,16.6-1.4c17.1-1.5,34.2-2.8,51.4-1.2c4.7,0.4,9.4,0.2,14.2,0.3
					c3.3,0.1,6.2-1.2,9.1-2.6c10.9-5.5,20.2-13.1,29.9-20.3c16.1-11.9,32.5-23.2,52.1-28.9c9.7-2.8,19.1-6.4,28.4-10.3
					c29-12.2,56.9-26.6,84-42.6c5-3,9.9-6.1,15.3-8.4c16.5-7.2,31.6-16.7,46.5-26.6c2.6-1.7,4.8-0.6,5.3,2.5
					c0.2,1.1-0.7,1.4-1.3,1.8c-14.1,9.2-28,18.6-43.5,25.3c-12,5.2-22.6,12.8-34,19c-26.3,14.3-52.7,28.1-80.8,38.6
					c-5.6,2.1-11.2,4.2-17,5.9c-14.8,4.3-27.8,12-40.4,20.4c-9.9,6.6-18.7,14.7-28.8,21.2c-4.3,2.8-8.6,5.4-13.1,7.8
					c-4.7,2.4-9.7,3.2-15,3.2c-13.3,0-26.5-1.8-39.8-0.9c-12.2,0.9-24.4,2-36.7,3.1c-2.1,0.2-4.9-0.9-6.1,0.9
					c-1,1.5-0.2,4.1-0.3,6.1c-0.2,5.6-1.3,11.2-1.3,16.8c0,3.4-2.9,6.2-6.5,6.7c-12.7,1.7-25.2,4.1-38.1,3.9
					c-17.2-0.2-34.4,0-51.5,1.1c-8.3,0.5-16.5,1.1-24.7,1.7c-3.4,0.3-6.5-0.7-9.3-2.4c-3.1-1.9-6.4-3.3-9.9-4.5
					c-5.9-1.9-11.4-4.6-17.5-6.1c-5.2-1.3-10.6-1.6-15.6-3.7c-2.9-1.2-6-2-9.1-2.5c-4.6-0.7-7.5-4-7.9-8.7c-1-11.4-2.1-22.8-3-34.2
					c-0.5-5.8,0.1-11.6,0.3-17.4c0.1-1.5,0.8-2.5,1.7-3.6c6.9-8.1,12.6-17.1,18.8-25.7c4.7-6.4,9.6-12.8,15.2-18.5
					c1.6-1.7,3.5-2.3,5.7-2.1c9.8,0.9,19.6,1,29.4,1.8c2.6,0.2,2.8-0.5,2.7-2.7c-1-18.1-0.4-36.2-0.2-54.2c0-0.7,0-1.5,0-2.2
					c0.2-5.4,1.1-6.8,6.6-7.5c18-2.2,36-3.4,54.1-1.1c5,0.6,6,2,5.4,7.1c-0.1,0.8-0.2,1.6-0.2,2.4c0,18.4-0.6,36.7-1.1,55.1
					c-0.1,2.4,0.5,3.3,3,2.8c6.6-1.3,13.2-0.5,19.9-0.5c1.8,0,3-0.2,3.7-2.2c0.4-1.3,1.6-2.4,2.5-3.5c9.5-10.6,20.3-19.4,32.1-27.3
					c5.9-3.9,12.3-5.2,19.2-4.4c18.6,2.1,37.2,4.1,55.9,5.1c14.8,0.8,29.4,0.3,43.8-3.8c4.3-1.2,8-3.6,11.4-6.2
					c34.5-27,71.1-51.1,107.9-74.9c11-7.1,22.3-13.7,31.8-22.9c2.1-2,4-4.2,6-6.3c1.2-1.4,2.7-2.2,4.2-0.9c1.6,1.3,0.9,2.9-0.2,4.3
					c-5.9,7.3-13.1,13.4-20.8,18.7c-18.6,12.7-37.9,24.4-56.5,37c-22.7,15.4-45.5,30.8-66.9,48c-8.5,6.8-18,9.8-28.4,11.5
					c-12.5,2.1-25,1.5-37.5,0.8c-17.6-0.9-35.1-3.3-52.6-4.8c-5.3-0.5-10,0.8-14.4,3.7c-11.5,7.7-22.2,16.4-31.4,26.8
					c-1.5,1.7-1.9,3-0.1,4.8c1.5,1.4,2,4.4,3.8,4.5c1.4,0,2.9-2.4,4.4-3.7c4.1-3.5,8.3-6.8,12.2-10.5c6.1-5.8,13.5-7.4,21.4-6.3
					c10,1.3,18.9,4.8,26.1,12.3c4,4.2,6.3,9.1,7.3,14.6c1.3,7.3,1.5,14.7,0.6,22.2c-1.3,11.2-6.8,18.8-17.5,22.7
					c-9.9,3.7-20.2,5.9-30,9.8C643.5,230.5,643.1,230.6,642.5,230.9z M635.9,226.7c-2.8,0.2-5.1,0.3-7.5,0.4
					c-8.2,0.3-16.3,0.6-24.5,1c-9.7,0.5-19.4,1.4-29.1,1.6c-18.6,0.4-37.2,0.8-55.9,1.7c-2,0.1-2.6,0.7-2.6,2.7
					c-0.1,9.9-0.3,19.8-0.9,29.7c-0.4,6.1-0.8,12.2-0.5,18.3c0.1,1.4,0.4,2.2,2.1,2c2.6-0.3,5.3-0.4,7.9-0.6
					c14.8-1.3,29.7-2.5,44.6-2.5c20.4,0.1,40.9-0.3,61.1-3.7c0.9-0.2,1.6-0.3,1.5-1.4c-0.2-6.8,1.4-13.4,1.5-20.1
					c0.1-2.6-0.5-3.8-3.3-4.2c-4.2-0.6-7.9-2.8-8.8-7.4c-1-4.6,0.6-8.6,4.3-11.7c1.2-1,2.5-1.8,3.9-2.5
					C631.5,228.9,633.6,227.9,635.9,226.7z M450.3,221.2c0,0.3,0,0.5,0,0.8c0.1,13.1,2.5,26,3,39.1c0.1,2.1,1.6,3,3.3,3.5
					c3.5,1.2,7.1,2.1,10.7,3.3c1.9,0.6,2.7,0.4,2.8-1.9c0-3.1,0.3-6.2,0.7-9.2c0.7-5.9,6.5-8.4,11.1-4.9c2.1,1.5,2.7,3.8,3.1,6.1
					c0.6,4,0.6,8,0.1,12c-0.2,1.5,0.1,2.3,1.7,2.7c6.6,1.7,12.8,4.6,19.6,5.7c1.9,0.3,2.1,0,2.2-1.7c0.3-13.4,1.9-26.8,2.4-40.3
					c0.2-6.1-0.4-11.8-3.2-17.1c-8-15.5-14.6-31.7-21.2-47.8c-1.9-4.7-3-4.8-6.4-0.9c-0.1,0.1-0.2,0.3-0.3,0.4
					c-7.3,9.7-14.8,19.1-22.1,28.7C452.6,206.3,448.6,212.7,450.3,221.2z M523.1,125.4C522.8,125.4,523.5,125.3,523.1,125.4
					c0.1,7.3,0.1,14.7,0,22c0,1.8,0.4,2.4,2.3,2.2c3.6-0.4,7.2-0.6,10.9-0.7c12.8-0.5,25.6-1,38.4-1.4c2.2-0.1,2.9-0.8,3-3
					c0.1-12.4,0.5-24.9,0.7-37.3c0-2.3,1.1-5.2-0.2-6.9c-1.4-1.7-4.4-1-6.8-1.1c-14.9-1.1-29.8-0.1-44.6,1.6c-1.9,0.2-2.8,0.9-2.7,3
					C524.2,111,523.1,118.2,523.1,125.4z M489.8,165.9c4.1,9.6,7.8,18.9,11.8,28c4.5,10.3,10.7,19.8,14.1,30.6
					c0.2,0.7,0.4,1.4,1.4,1.2c5.4-0.9,10.9-0.1,16.3-0.7c1.4-0.1,1.7-0.5,1.1-1.8c-1.4-3.4-2.7-6.7-3.9-10.1
					c-5.2-14.5-10.4-29-15.6-43.5c-0.4-1-0.7-2.1-2.1-2.2C505.3,166.9,497.7,167.3,489.8,165.9z M572.4,223.7
					c3.4,0.1,6.7-0.3,10.1-0.4c2.4-0.1,2.5-0.7,1.8-2.9c-5.5-16.4-10.9-32.9-16.2-49.4c-0.7-2.2-1.6-2.8-3.7-2.6
					c-5.1,0.5-10.1,1.1-15.2,1.2c-2.8,0.1-2.9,0.8-2.1,3.1c5.5,14.5,9.4,29.5,15.4,43.9c0.9,2.2,0.9,5.4,2.5,6.7
					C566.7,224.8,569.9,223.5,572.4,223.7z M603.2,166.1c-1.6,0-3.3,0.1-4.9,0c-2.1-0.2-2.2,0.6-1.6,2.3c2.6,7.7,5,15.5,7.7,23.2
					c3.2,9.3,7.3,18.4,9.6,28c0.3,1.5,1.2,1.3,2.2,1.3c5.6,0,11.2-0.7,16.8-1.1c3.8-0.3,3.6-0.2,2.3-3.6c-4-9.9-9.8-19.1-13.7-29
					c-2-5.1-4.2-10.2-7-15C611.9,167.9,609.1,164.3,603.2,166.1z M520.1,168.2c2.6,6.9,4.9,13.5,7.5,20.1c4.6,11.6,8.5,23.3,12.8,35
					c0.5,1.3,1.2,1.1,2,1.1c4.1-0.1,8.2-0.1,12.3-0.2c4.3-0.1,4.6-0.2,2.9-4.2c-5.7-14.1-9.9-28.7-14.5-43.1c-1.6-5-3.2-8.6-9.2-7.4
					c-0.3,0-0.5-0.1-0.8-0.1C528.9,169.1,524.6,168.7,520.1,168.2z M599,222.4c2.1-0.1,4.2-0.2,6.3-0.4c3.5-0.2,3.6-0.3,2.5-3.6
					c-5.5-16.7-11.8-33.2-16.5-50.1c-0.5-1.9-1.6-1.8-3.1-1.6c-4.3,0.7-8.6,1.5-13,1.5c-2.2,0-2.6,0.5-1.9,2.6
					c5.3,14.9,10.5,29.8,15.3,44.8C591,223.1,591.1,223,599,222.4z M643.9,224c9.3-3.5,19.1-5.7,28.4-9.1c7.2-2.7,11.3-7.7,13.2-15
					c0.5-2.1,0.2-2.9-2-3.3c-16.9-3.7-31.2,0.8-42.9,13.5c-0.9,1-1.3,1.8-0.6,3.1C642.1,216.5,642.4,220.4,643.9,224z M666.2,180.4
					c-6.2-0.2-13.5,0.8-19.9,5.7c-2.7,2-5.3,4.1-7.8,6.4c-1.9,1.7-5.3,2.7-5.4,5.2c0,2.3,2.1,4.7,3.2,7.1c0,0.1,0.1,0.2,0.1,0.3
					c0.4,1.2,1,1,1.7,0.2c1.3-1.3,2.6-2.5,3.9-3.7c10.9-9.9,23.7-13.5,38.2-11.2c6.8,1.1,6.9,1,6-6c0-0.2-0.1-0.4-0.1-0.5
					c-0.1-1.4-0.8-2.1-2.2-2.3C678.7,180.6,673.2,179.8,666.2,180.4z M543.5,154.2c-5.1-0.2-10.2,0.1-15.2,0.5
					c-5.7,0.5-4.5-0.5-4.7,5c-0.1,2.2,0.6,3.1,2.8,3.3c5.2,0.5,10.5,0.8,15.8,0.9c9.2,0.3,18.3-1.6,27.5-1.4c2.1,0,4.7,0.6,6.1-0.4
					c1.7-1.3,0-4,0.2-6.1c0.3-2.1-0.6-2.7-2.7-2.7C563.3,153.4,553.4,154.7,543.5,154.2z M677.2,163.6c0.1-0.7-0.5-1-0.9-1.3
					c-6.4-5.7-14.2-7.4-22.4-8.1c-5.1-0.5-9.8,1.1-13.8,4.6c-4.9,4.3-10,8.4-15,12.7c-3.5,3-3.3,3-1.4,7.1c0.9,2,1.7,1.8,3,0.4
					c3.2-3.2,6.7-6.1,10.4-8.8c6.3-4.7,13.3-7.5,21.3-7.9C664.8,162.1,671,162.8,677.2,163.6z M682.3,175.2c2.6,0.7,2.5-0.5,1.9-2.4
					c-0.5-1.4-1.3-2-2.7-2.3c-4.1-0.9-8.2-1.7-12.3-2.2c-11.9-1.3-22.8,0.4-32,8.7c-2.2,2-4.6,3.9-6.8,5.9c-3.5,3.1-3.5,3.1-1.4,7.3
					c0.1,0.2,0.2,0.3,0.3,0.5c0.5,1.5,1.2,1.5,2.4,0.5c2.6-2.4,5.3-4.7,8.1-6.9c6.3-5.1,13-9.1,21.5-9.4
					C668.2,174.7,675.2,174.1,682.3,175.2z M630,244.6c1.9,0.1,3.8-0.9,5.9-1.3c2.7-0.5,3.6-2.2,3.9-4.7c0.2-1.7-0.1-2.4-1.9-2.2
					c-2,0.2-4,0.2-6,0.3c-3.2,0.1-4.9,2-4.9,5.2C627,243.6,627.8,244.7,630,244.6z"/>
				<path d="M597.3,238.1c4.2,0,8.4-0.1,12.5,0c5.2,0.2,6.1,1.4,6,6.5c0,0.9,0,1.8-0.1,2.7c-0.2,4.2-1.6,5.5-5.8,5.4
					c-6.3-0.1-12.5,1.2-18.8,1.1c-3.2,0-4.3-0.9-4.5-4c-0.1-2.3-0.3-4.6,0-6.8c0.3-3.3,1.7-4.4,5-4.5c1.9-0.1,3.8,0,5.7,0
					C597.3,238.3,597.3,238.2,597.3,238.1z M594.8,248.3c1.5-0.2,3.5,0.7,3.4-2.3c-0.1-2.9-2.1-1.8-3.4-1.9
					c-1.5-0.1-3.3-0.5-3.2,2.2C591.7,249,593.4,248.1,594.8,248.3z M606.3,247.2c0.8,0,1.3,0,1.8,0c1.3,0.1,2-0.3,2-1.8
					s-0.9-1.5-1.9-1.5c-1.1,0-2.2,0.1-3.2,0.1c-1.2,0-1.5,0.7-1.4,1.8C603.6,248.2,605.5,246.9,606.3,247.2z"/>
				<path d="M530.9,249.5c0.2-2.5,0-4.6,0.5-6.7c0.5-2,1.6-2.9,3.6-2.9c6.3,0.2,12.7-0.1,19,0.7c3.6,0.5,5.1,1.9,4.8,5.5
					c-0.6,7.8-0.6,9.5-8.6,9.5c-4.6,0-9.2,0.8-13.8,1c-4.9,0.2-5.7-0.8-5.5-5.7C531,250.3,530.9,249.7,530.9,249.5z M536.4,249.3
					c0.1,0.3-1.1,2.3,1.2,2c1.6-0.2,4.3,0.8,4-2.7c-0.2-1.6,0.1-2.9-2.3-2.9C537.1,245.7,535.6,245.9,536.4,249.3z M546.8,248.2
					c0.3,0.8-0.3,2.6,1.5,2c1.6-0.5,4.8,1.3,4.6-2.3c-0.2-3.2-3.1-1.4-4.6-1.9C546.5,245.4,547.1,247.2,546.8,248.2z"/>
				<path d="M481.9,212.9c-1.8-0.3-4.6-0.6-7.4-1.1c-3.2-0.6-4.2-2.5-3.1-5.6s3.1-5.7,5-8.4c0.5-0.7,1-1.2,1.3-2
					c0.3-1.2,1.2-1.8,2.4-1.9c1.2-0.1,2.1,0.5,2.6,1.6c2,4.1,3.7,8.3,4.8,12.7C488.3,211.5,486.6,213,481.9,212.9z M481.3,207.3
					c-0.5-1.8-0.9-3.1-1.7-4.4c-1,1.2-1.8,2.3-2.3,3.8C478.5,206.9,479.6,207,481.3,207.3z"/>
				<path d="M543.6,143.7c-3.4,0-6.7-0.2-9.8-1.7c-6.3-3.1-7.3-10.5-2-15c1.3-1.1,2.7-1.8,4.1-0.5s0.8,2.7-0.3,4.1
					c-3,3.6-2.2,6,2.4,7.1c4.8,1.1,9.6,0,14.4-0.2c3.3-0.2,6.7-0.6,10-1c1.5-0.2,3.1-0.5,4.2-1.7c1.1-1.3,1.5-2.5-0.1-3.7
					c-0.4-0.3-0.8-0.7-1.2-1.1c-1-1.2-1.4-2.6-0.3-3.9c1.1-1.3,2.5-1.2,3.9-0.4c6,3.5,6.1,10.8,0.1,14.7c-2.3,1.5-4.9,1.9-7.5,2.1
					C555.6,143,549.6,143.3,543.6,143.7z"/>
				<path d="M544.9,109.6c-1.7,2.9-0.1,5.9,0.7,9.1c0.7,3-0.3,5.8-1.7,8.4c-0.7,1.4-2,1.9-3.5,1.3c-1.5-0.6-2-2.1-1.3-3.4
					c1.5-3.1,1.2-6,0-9.1c-1.1-2.6-0.1-5.4,1.1-7.9c0.6-1.2,1.7-1.7,3-1.4C544.5,106.8,544.9,107.9,544.9,109.6z"/>
				<path d="M566.5,105.5c-2.1,4,1.9,8.1,0.1,12.2c-0.4,1-0.5,2.1-1,3.1c-0.6,1.2-1.7,1.9-3.2,1.4c-1.4-0.5-2.1-1.7-1.7-3
					c1.1-3.3,0.7-6.3-0.2-9.6c-0.6-2.1,0-4.2,1.3-5.9c0.7-1,1.7-1.3,2.9-1C566,103.1,566.5,104,566.5,105.5z"/>
				<path d="M550,120.8c1-2.9,0.7-6.1-0.3-9.4c-0.6-1.8,0.1-3.6,1.2-5.1c0.8-1.1,2-1.6,3.3-1c1.2,0.6,1.7,1.8,1.2,3
					c-0.7,1.7-0.4,3.1,0.2,4.7c1.1,3.1,0.2,6.1-0.4,9.1c-0.4,1.8-1.4,2.8-3.3,2.5C550.2,124.3,550,122.8,550,120.8z"/>
			</g>
		</g>
	</g>
</g>
<g id="rain">
	<g id="Rain__x26__Flood_xA0_影像_2_">
		<g>
			<polygon class="st2" points="32,551 69.5,542 113,546.5 159.5,561.5 195.5,572 233,572 270.5,560 296,542 326,530 354.5,530 
				401,543.5 456.5,555.5 483.5,561.5 548,551 582.5,539 617,531.5 639.5,534.5 674,546.5 713,561.5 749,569 777.5,564.5 807.5,551 
				842,543.5 869,545 900.5,551 927.5,560 944,566 945.5,657.5 917,656 882.5,651.5 860,651.5 824,660.5 785,674 743,674 
				734.1,670.7 724.4,669.1 696.4,658.1 636.1,641.4 591.7,640.4 547.7,653.7 505.7,674.4 463.7,675.4 415.7,664.4 375.5,657.5 
				311,653 265.7,661.1 227.1,674.1 200.7,675.4 168.7,669.4 144.1,660.1 97.1,655.1 36.1,666.7 33.5,609.5 			"/>
			<path class="st2" d="M35,665"/>
			<polygon class="st2" points="269.1,389.7 242.7,432.1 238.4,455.1 246.7,451.4 257.7,431.7 269.1,410.1 			"/>
			<polygon class="st2" points="464.1,36.1 433.7,83.7 426.1,98.4 425.4,119.1 436.4,107.1 458.1,61.1 			"/>
			<polygon class="st2" points="413.7,231.4 400.4,262.1 397.1,283.4 399.7,284.7 413.7,261.4 419.1,245.4 			"/>
			<polygon class="st2" points="666.4,45.4 645.7,79.4 636.4,108.1 629.1,131.4 659.7,85.4 			"/>
			<polygon class="st2" points="797.1,286.1 777.1,314.7 762.4,349.4 757.1,371.4 763.1,372.1 789.7,324.1 803.1,297.4 			"/>
			<polygon class="st2" points="951.7,228.1 935.1,256.1 920.4,302.1 951.7,253.4 960.4,234.7 			"/>
			<polygon class="st2" points="907.1,388.7 874.4,458.1 867.1,489.4 893.1,437.4 899.7,423.4 			"/>
			<polygon class="st2" points="608.4,433.4 591.7,465.4 586.4,492.1 603.7,474.1 613.7,452.7 			"/>
			<g>
				<g>
					<path d="M948.6,610.6c0,14,0,28,0,42c0,0.5,0,1.1,0.1,1.6c1.6,7-3.8,9.7-8.7,9.2c-7-0.7-13.9-1.6-20.8-2.9
						c-14.2-2.7-28.4-5.3-42.9-6.1c-18.4-1-35.9,3.4-53,9.3c-10.8,3.8-21.3,8.5-32.6,10.6c-22.6,4.2-45,3-67.2-2.9
						c-12.9-3.4-25.4-7.5-37.4-13.3c-15.6-7.5-32.1-11.2-49.2-13.2c-14.5-1.6-29-2.1-43.5-1.1c-14,0.9-27.3,4.1-39.7,10.7
						c-7.8,4.1-15.6,8.3-23.3,12.4c-25.7,13.6-52.8,16.2-81,10.1c-19.5-4.3-38.8-9.5-58.6-12.6c-22.2-3.6-44.3-6.7-66.9-6.9
						c-25-0.3-49.4,3.1-72.5,12.9c-29.4,12.4-58.7,11.2-88.3,1.2c-10.8-3.7-21.6-7.7-32.9-9.8c-15.5-2.9-31-3.8-46.7-2.2
						c-5,0.5-9.9,1-14.9,1.5c-9.2,0.9-17.7,4.1-26,7.8c-3,1.3-5.8,0.5-8.5-0.1c-1.9-0.4-2.4-2.9-2.5-5c-0.2-12.8-0.4-25.6-0.6-38.4
						c-0.1-6.5-0.4-13.1-1.7-19.5c-0.7-3.5-0.5-7.1-0.2-10.6c0.9-10.1-0.3-20.2-0.4-30.2c-0.1-6,1.2-11.7,1.6-17.6
						c0.1-1.6,1-2.4,2.7-2.4c1.5,0,3.2-0.1,4.5-0.9c5.5-3,11.5-3.3,17.5-3.6c17.4-1,34.9-1.4,52.2,1.4c13,2.1,25.4,6,37.6,10.8
						c14.5,5.6,29.2,10.6,44.5,13.3c27.5,4.9,53.7,0.5,78.9-10.8c11.8-5.3,22.7-12.2,34-18.4c15.3-8.4,31.4-12.5,49-10.1
						c10.9,1.5,21.6,4.1,32.2,6.9c21.2,5.5,41.9,12.6,63.3,17.4c16,3.6,32.2,5.8,48.6,5.3c11.4-0.3,22.2-3.3,33.2-5.8
						c22.9-5.2,45.6-11.6,68.6-16.3c12.8-2.6,25.6-4.3,38.7-2.5c11.3,1.5,21.8,5.4,32.3,9.5c18.4,7.3,36.8,14.6,56.2,19.1
						c11.1,2.6,22.3,4.5,33.7,3.1c8.7-1.1,17-4,25.2-6.9c12.9-4.6,25.9-9.1,39.1-12.8c21.5-6.1,42.9-5.4,64.4-0.4
						c16.8,3.9,33.4,8.7,49.8,14.1c1.6,0.5,3.2,1.4,4.8,2c4.9,1.8,6.5,5.6,6.5,10.5c0,13.6,0,27.3,0,40.9
						C948.2,610.6,948.4,610.6,948.6,610.6z M36.7,607c0,4.8-0.1,9.6,0,14.4c0.2,13.5,0.5,27.1,0.7,40.6c0,2,0.4,2.5,2.5,1.6
						c8.7-3.6,17.5-7.2,27-8.2c7.2-0.8,14.4-1.6,21.7-2c17.3-1.1,34.3,0.2,51.1,4.5c11.4,2.9,22.4,7.4,33.8,10.7
						c16.2,4.6,32.6,6.4,49.3,4.1c8.7-1.2,16.9-4.2,25-7.4c20.2-7.9,41.1-12.6,62.8-13.5c28.7-1.1,56.9,2.6,85.1,7.4
						c18.5,3.2,36.7,8.1,55.1,12c22.6,4.9,44.7,4.2,66.3-4.7c10.9-4.5,21.2-10.4,31.6-16c13.5-7.3,27.8-11.3,43.1-12.4
						c15.8-1.1,31.6-0.6,47.3,1.2c17.2,2,33.8,5.9,49.4,13.5c11.1,5.3,22.7,9.2,34.5,12.5c19.2,5.3,38.7,7,58.6,4.7
						c11.4-1.4,22.1-5.1,32.7-9.1c13.1-4.9,26.4-9.1,40.3-11.2c16-2.4,31.9-0.6,47.7,1.9c12.6,2,24.9,5,37.6,6c2.8,0.2,3.1-0.6,3-3
						c-0.7-29.1-1.3-58.2-0.6-87.3c0-1.8-0.6-2.6-2.2-3.1c-18.1-5.9-36.4-11.4-55-15.8c-22.4-5.3-44.6-5.1-66.7,1.9
						c-11.8,3.7-23.5,7.7-35.1,11.9c-12.4,4.5-25,7.7-38.3,6.8c-8.4-0.6-16.6-2.2-24.7-4.2c-18.5-4.6-36.1-11.5-53.8-18.5
						c-9.4-3.7-18.8-7.2-28.8-9c-13.1-2.4-26.1-0.7-39,2c-24.6,5.1-49,11.5-73.4,17.5c-18.4,4.6-36.8,6-55.7,3.6
						c-16.3-2.1-32.1-5.9-47.9-10.3c-21-6-41.9-12.5-63.4-16.9c-18-3.7-35.1-1.8-51.2,7.1c-7.2,4-14.5,8-21.6,12.1
						c-22.1,12.8-45.8,20.1-71.4,20.9c-19.6,0.6-38.2-3.9-56.6-10.1c-11.6-3.9-22.9-8.8-34.7-12.2c-21.7-6.3-43.9-6.6-66.2-5.2
						c-5.5,0.3-11.1,0.7-16.5,2c-6.2,1.4-6.2,1.4-6.2,7.8C34.3,572.8,35.4,589.9,36.7,607z"/>
					<path d="M871.5,478.4c1.3-1.1,1.6-2.1,2-2.9c8.1-16.7,15.7-33.5,22.8-50.6c0.5-1.2,1.1-2.5,1.9-3.6c0.8-1.2,2.1-1.5,3.4-0.9
						c1.5,0.7,1.8,2,1.4,3.5c-0.4,1.4-1.1,2.7-1.7,4c-8.8,21-18.1,41.8-28.6,62c-1.1,2.2-2.4,4.3-3.7,6.3c-1.2,1.8-2.8,3.4-5.2,2.4
						c-2.3-1-2.1-3.2-1.7-5.2c1.8-10.1,4.7-20,7.7-29.8c7.8-25.6,18.7-49.7,32.5-72.6c1-1.6,1.9-3.4,3.4-4.5c1.1-0.8,2.4-1,3.5,0.1
						s1,2.2,0.2,3.5c-14,22-24.2,45.6-32.4,70.3C875.1,466.1,873.4,472,871.5,478.4z"/>
					<path d="M427.9,115.9c1.7-2.1,2.7-4.1,3.7-6.1c9.7-19.8,19.2-39.7,28.1-59.9c1.6-3.6,3-4.6,4.9-3.8s2,2.4,0.4,6.1
						c-9,20.5-18.7,40.7-28.6,60.9c-1.2,2.4-2.5,4.9-4.3,6.9c-3.8,4.2-8.3,3.2-9.9-2.2c-1.5-5.2-1-10.5,0.3-15.6
						c3.9-16,11.7-30.2,20.6-43.9c4.3-6.6,9-13,14.2-19c1.7-2,3.5-4,6.1-4.9c1.8-0.6,3.6-0.6,4.4,1.4s-0.6,3-2.3,3.5
						c-1,0.3-1.8,0.9-2.5,1.6c-15.7,18.9-28.7,39.3-35,63.3C427.1,107.9,426.6,111.7,427.9,115.9z"/>
					<path d="M759.9,369.7c2.8-1.8,4.2-4,5.7-6.1c6.5-9.1,11.3-19.2,16.2-29.3c5.5-11.4,11-22.9,16.5-34.4c0.4-0.7,0.7-1.5,1.2-2.2
						c0.9-1.3,2.2-1.9,3.8-1.2c1.5,0.7,1.6,2.1,1.3,3.5c-0.1,0.4-0.3,0.9-0.5,1.3c-8.7,17.5-16.5,35.4-25.7,52.6
						c-2.9,5.5-6.1,10.7-10,15.6c-1.8,2.3-3.7,4.5-6.4,5.8c-3.8,1.9-7.2,0-7.7-4.2c-0.5-4.6,0.5-9.1,1.8-13.4
						c6.3-21.9,15.3-42.7,27.2-62.2c1.1-1.9,2.2-3.8,4-5.2c1.1-0.8,2.3-1.1,3.5,0c1.1,1,1.1,2.3,0.3,3.4
						c-9.1,12.8-15.3,27.2-21.1,41.7c-4,10-7.8,20.1-9.7,30.9C760.1,367.3,760.1,368.2,759.9,369.7z"/>
					<path d="M633.5,122.8c4.5-6.3,8.3-13,11.9-19.7c4.9-9.1,9.3-18.5,13.6-27.9c0.3-0.7,0.7-1.5,1-2.2c0.9-1.9,2.2-3.4,4.5-2.2
						c2.1,1.1,1.6,3,0.8,4.8c-5.9,12.9-11.9,25.7-18.9,38c-3.7,6.5-7.5,13.1-11.9,19.2c-0.6,0.8-1.2,1.6-1.9,2.3
						c-1.2,1.2-2.7,1.6-4.3,0.9c-1.5-0.6-2-2-2.1-3.6c-0.2-4.2,0.9-8.3,1.9-12.3c6.7-25.9,18.5-49.6,33-72c0.9-1.4,1.9-2.9,3.3-3.9
						c1.6-1.1,3.5-1.6,4.8,0.3c1.2,1.8,0.1,3-1.5,4c-0.8,0.5-1.4,1.4-2,2.2c-14.1,22.3-25.5,45.8-32.2,71.5
						C633.5,122.3,633.5,122.6,633.5,122.8z"/>
					<path d="M921.5,298.3c4.9-6.4,8.8-13.3,12.6-20.3c6.8-12.1,13.3-24.4,19.5-36.8c0.9-1.8,1.9-3.5,3-5.2c1-1.5,2.5-2.3,4.2-1.2
						s1.5,2.7,0.7,4.3c-6.3,11.9-12.5,23.8-18.8,35.6c-4.8,8.9-9.7,17.7-15.2,26.1c-1.4,2.2-3,4.4-4.8,6.2c-1.5,1.5-3.2,2.6-5.4,1.7
						s-2.6-2.8-2.5-5c0.2-6.2,2.3-11.9,4.2-17.7c5.1-15.8,11.7-31.1,19.3-45.9c0.3-0.6,0.7-1.3,1.2-1.8c0.9-1.1,2.1-1.4,3.4-0.8
						c1.2,0.6,1.5,1.8,1.2,3c-0.3,0.9-0.7,1.9-1.2,2.7c-9,17.3-15.9,35.4-21.2,54.1C921.5,297.8,921.5,298,921.5,298.3z"/>
					<path d="M240.7,453c2.6-2.7,4.2-5.2,5.9-7.7c7.3-10.5,12.9-21.9,18.6-33.3c0.6-1.1,1.1-2.3,1.8-3.3c1-1.4,2.3-2.2,4-1.3
						c1.8,1,1.7,2.6,0.9,4.3c-3.4,6.7-6.7,13.5-10.3,20.1c-4.4,8.4-9.5,16.3-15.4,23.8c-0.9,1.1-1.9,2.2-3,3.2
						c-1.5,1.4-3.3,2-5.3,1.2s-2.7-2.6-2.8-4.6c-0.3-3.9,0.4-7.6,1.4-11.3c5.4-19,14.7-35.9,27-51.2c1.3-1.6,2.7-3.2,4.5-4.3
						c1.7-0.9,3.6-1.5,4.8,0.5c1.1,1.9-0.3,2.9-1.8,3.8c-0.8,0.5-1.7,1.2-2.3,1.9c-13.3,16.7-23.2,35.1-27.8,56.1
						C240.8,451.4,240.8,451.8,240.7,453z"/>
					<path d="M589.1,488.2c2.4-1.9,3.7-4,5-6c6.1-8.8,10.9-18.2,15.6-27.8c1-2,1.7-4.6,4.8-3.6c1.9,0.6,2,2.6,0.3,6.2
						c-5,10.4-10.3,20.6-17.1,30c-1.9,2.7-4,5.2-6.6,7.3c-1.7,1.4-3.6,2.2-5.8,1.2c-2.1-1-2.5-3-2.4-5.1c0.7-8.4,2.8-16.5,5.6-24.3
						c3.9-10.8,8.9-21.1,15.7-30.4c1-1.3,2-2.6,3.5-3.3c2-1,4.6-0.2,5.1,1.6c0.6,2.2-0.6,3-2.7,3.4c-1.6,0.3-2.3,2-3.1,3.3
						c-7.2,11.2-12.5,23.1-15.8,36C590.4,480.2,589.5,483.9,589.1,488.2z"/>
					<path d="M399.6,281.1c2.2-2.5,3.4-5,4.6-7.3c4.6-8.8,8.1-18.1,11.5-27.3c0.3-0.9,0.7-1.9,1.1-2.8c0.7-1.5,1.9-2.3,3.6-1.7
						c1.7,0.7,2.1,2.1,1.6,3.8c-0.4,1.4-1,2.7-1.5,4.1c-3.9,10.5-7.9,20.9-13.5,30.6c-1.3,2.3-2.7,4.6-4.6,6.4
						c-3.2,2.9-6.8,1.9-8-2.3c-1.2-4.1-0.6-8.2,0.2-12.2c3-14.9,9.2-28.5,17.1-41.3c0.7-1.1,1.5-2.1,2.4-2.9
						c1.1-1.1,2.5-1.2,3.8-0.4c1.3,0.7,1.7,2,1.3,3.3c-0.7,2.4-0.6,5.5-4.3,5.7c-0.6,0-0.9,0.6-1.1,1.1c-6.8,12.8-12.5,26-14.3,40.6
						C399.5,279.2,399.6,279.8,399.6,281.1z"/>
					<path d="M845.2,636.4c-3.7,0-7-1.1-10.3-2.5c-3.4-1.4-6.6-1.4-9.6,0.5c-6,3.8-12.3,4-18.7,1.3c-4-1.7-7.8-1.2-11.4,1.2
						c-0.9,0.6-1.9,1.1-2.8,1.7c-6.6,4.5-13.6,6.1-21.4,3.4c-4-1.4-7.3,0.2-10.2,2.9c-0.7,0.6-1.3,1.3-2,1.9c-1.1,1-2.4,1.4-3.7,0.4
						c-1.2-1.1-1-2.4-0.2-3.7c2.8-4.6,10.3-8.6,15.3-7c8.1,2.6,14.9,0.8,21.4-4.1c5.2-3.8,11-4.6,17-2c4.8,2,9.3,1.8,13.8-1
						s9.4-3,14.4-0.9c3.9,1.6,7.9,2.7,12.2,1.7c1.7-0.4,3.4,0,3.7,2.1c0.3,2.2-1,3.1-3,3.5C848.2,636,846.7,636.2,845.2,636.4z"/>
					<path d="M381.2,636.1c-3.6-0.2-8.7-1.1-13.3-3.9c-3.1-1.8-5.7-1.7-8.5,0.6c-1.8,1.4-3.7,2.7-5.5,4c-3.4,2.5-6.9,2.5-10.4,0.2
						c-1.4-0.9-2.7-1.9-4-2.8c-3.7-2.5-6.1-2.5-9.8,0c-2.3,1.5-4.2,3.4-6,5.5c-1.3,1.4-2.7,2.4-4.4,0.9c-1.6-1.5-0.6-3,0.5-4.3
						c2.2-2.5,4.6-4.8,7.4-6.7c5-3.4,10-3.4,15,0c7.4,5,5.7,4.9,12.6-0.5c5.2-4.1,10.3-5,16.3-1.5c6.6,3.8,13.6,4,20.7,0.9
						c2-0.9,4.1-1.6,6.1-2.3c1.8-0.6,3.6-0.6,4.3,1.5c0.7,2.1-0.6,3.2-2.4,3.8C394.4,633.4,389,636.2,381.2,636.1z"/>
					<path d="M596.2,583.5c-3.8,0.1-6.8-1.4-9.7-3.1c-6.2-3.6-9.6-2.5-12.6,4.1c-0.7,1.4-1.6,2.3-3.2,1.8c-1.8-0.6-1.9-2-1.7-3.6
						c0.9-6,9.5-11.2,15.3-9.4c1.9,0.6,3.7,1.6,5.4,2.7c3.8,2.4,7.6,2.6,11.6,0.5c1.2-0.6,2.5-1.1,3.7-1.7c3.7-1.7,7.4-2,11.1-0.4
						c6.7,2.9,13,2.6,19-1.8c1.6-1.1,3.5-1.6,4.8,0.4c1.3,2.1-0.2,3.3-1.8,4.4c-7,4.9-14.5,6.2-22.4,2.8c-3.6-1.5-6.8-1.2-10.2,0.5
						C602.5,582.2,599.5,583.6,596.2,583.5z"/>
					<path d="M168.1,600.7c-3.9-0.3-8.1-1.1-12.2-2.3c-2.7-0.8-5-0.4-7.2,1.2c-1.8,1.3-3.6,2.4-5.5,3.5c-5.8,3.2-11.3,2.7-16.5-1.3
						c-1.1-0.9-2.2-1.9-3.3-2.9c-3.6-3.3-4.2-3.4-8-0.3c-1.9,1.6-3.8,3.1-5,5.4c-0.7,1.3-1.8,1.8-3.2,1.2c-1.4-0.6-1.7-1.8-1.4-3.2
						c0.1-0.7,0.4-1.4,0.9-2c2.5-3.1,5.3-6,8.9-8c3.3-1.9,6.4-1.6,9.3,0.9c1.9,1.6,3.7,3.3,5.6,4.8c3,2.2,6.2,2.5,9.4,0.7
						c2.2-1.3,4.3-2.6,6.5-4c3.2-2.1,6.7-2.7,10.4-1.7c4.8,1.3,9.6,2.8,14.7,2c1.3-0.2,2.3,0.5,2.7,1.8c0.4,1.4,0,2.5-1.3,3.3
						C171.5,600.6,170,600.8,168.1,600.7z"/>
					<path d="M448.4,571.2c-3.7,0-6.9-0.9-9.7-2.7c-2.3-1.4-4.5-1.4-6.5,0.4c-4.1,3.6-8.6,3.8-13.1,1.1c-5.2-3.2-9.8-2.1-14.3,1.5
						c-0.5,0.4-1,0.8-1.5,1.1c-1.2,0.8-2.5,0.9-3.5-0.2c-1-1.1-0.8-2.3,0-3.5c3.4-4.8,12.1-7.5,17.7-5.5c0.3,0.1,0.5,0.1,0.8,0.3
						c4.5,2.8,8.7,3,13-0.8c2.2-2,5.5-1.9,8-0.3c5.5,3.5,11.2,3.1,17.1,1.5c1.7-0.4,3.4-0.8,5.1-0.9c1.7-0.2,2.9,0.7,3.1,2.4
						c0.2,1.6-0.6,2.7-2.1,3C457.7,569.7,452.9,570.9,448.4,571.2z"/>
					<path d="M911.1,587.3c-2.9,0.1-5.8-0.4-8.7-0.9c-3-0.6-5.8-0.4-8.3,1.4c-1.2,0.9-2.6,1.1-3.7-0.2c-1.1-1.4-0.6-2.8,0.6-3.9
						c2.8-2.5,6.2-3.4,9.6-2.8c7,1.1,13.9,0.8,20.9,0c1.7-0.2,3.4,0,3.8,2.1c0.3,2.3-1.3,3.1-3.1,3.3
						C918.6,586.8,914.9,587,911.1,587.3z"/>
				</g>
			</g>
		</g>
	</g>
</g>
</svg>
