<?xml version="1.0" encoding="utf-8"?>
<!-- Generator: Adobe Illustrator 18.0.0, SVG Export Plug-In . SVG Version: 6.00 Build 0)  -->
<!DOCTYPE svg PUBLIC "-//W3C//DTD SVG 1.1//EN" "http://www.w3.org/Graphics/SVG/1.1/DTD/svg11.dtd">
<svg version="1.1" xmlns="http://www.w3.org/2000/svg" xmlns:xlink="http://www.w3.org/1999/xlink" x="0px" y="0px"
	 viewBox="0 0 951.1 231" enable-background="new 0 0 951.1 231" xml:space="preserve">

<style>
	#title {
		filter:url(#dropshadow)
	}
</style>
<filter id="dropshadow" height="130%">
  <feGaussianBlur in="SourceAlpha" stdDeviation="8"/> <!-- stdDeviation is how much to blur -->
  <feOffset dx="2" dy="4" result="offsetblur"/> <!-- how much to offset -->
  <feComponentTransfer>
    <feFuncA type="linear" slope="0.2"/> <!-- slope is the opacity of the shadow -->
  </feComponentTransfer>
  <feMerge> 
    <feMergeNode/> <!-- this contains the offset blurred image -->
    <feMergeNode in="SourceGraphic"/> <!-- this contains the element that the filter is applied to -->
  </feMerge>
</filter>
<g id="title">
	<g>
		<path fill="#ffffff" d="M102.4,140.2c4.6-1.7,9.1-3,13.6-4.4c6.9-2.2,13.9-2.5,21-2.4c5.4,0,8.3,4.1,7.3,9.5
			c-0.7,3.3-2.4,6.1-4.3,8.7c-3.8,5.4-8.3,10.1-12.8,14.9c-1.7,1.8-1.4,2.6,0.5,3.8c7.6,5,15.5,9.5,22.5,15.4
			c3.2,2.7,6.3,5.5,8.1,9.4c1.7,3.9,1,6.6-2.1,9.3c-1.7,1.5-3.6,1.7-5.5,0.5c-2-1.3-4.1-2.5-5.8-4.1c-8.4-7.6-17.6-14.1-26-21.6
			c-1.6-1.5-2.6-1.5-4.2,0.1c-7.8,8-16.4,15-25.7,21.1c-2.7,1.7-5.4,3.4-8.4,4.5c-3,1.1-5.5,0.4-6.8-1.8c-1.2-2-0.9-4.5,1.4-6.6
			c7.2-6.5,14.5-13,21.8-19.4c2.4-2.2,4.9-4.3,7.4-6.4c1.1-1,1.1-1.6-0.1-2.5c-4.5-3-8.9-6-12.4-10.1c-0.8-1-1.4-0.5-1.9,0.3
			c-2,3.2-5.5,4.4-8.4,6.4c-1.9,1.3-4.1,1.6-6-0.1c-1.8-1.7-1.7-3.8-0.6-5.8c6.2-11.5,13.6-22.1,23.1-31.2c0.6-0.6,1.3-1,2-1.5
			c1.7-1.3,3.4-1.6,5.2-0.3c1.8,1.4,2.2,3.2,1.6,5.3c-0.8,2.5-2.1,4.8-3.4,7.1C103.1,138.9,102.8,139.5,102.4,140.2z M98.3,154.1
			c5.2,3.1,10.2,5.1,14.9,7.5c0.9,0.4,1.6,0,2.2-0.6c4.8-4.3,9.5-8.7,13.7-13.7c1.4-1.6,0.8-2.4-1-2.7c-1.1-0.2-2.2-0.1-3.2,0.1
			c-3.6,0.6-7.1,1.7-10.5,2.9C109.2,149.5,104,151.8,98.3,154.1z"/>
		<path fill="#ffffff" d="M888.2,58c9.3-0.2,17.2-0.1,25.1,0.4c2.6,0.2,5.1,0.6,7.3,2c5.2,3.4,4.9,10.1-0.5,13.1
			c-2.8,1.5-5.8,1.4-8.8,1.4c-1,0-2-0.1-2.1,1.4c-0.7,10.1-3.3,19.9-5,29.8c-2.8,16.7-5.7,33.3-9.8,49.7c-1.5,6.1-3.4,12.1-7.1,17.3
			c-4.2,5.9-10.4,8-16.7,5.8c-3.6-1.3-5.9-3.8-7.3-7.3c-0.8-2-0.5-4,1.2-5.4c1.8-1.4,3.7-1.1,5.5,0.2c4.4,2.9,5.7,2.6,7.7-2.2
			c3.7-8.8,5.4-18.1,7.2-27.4c3.2-16.6,5.8-33.3,10.9-49.5c1-3.3,2.1-6.6,3.4-9.8c0.7-1.8,0.6-2.3-1.5-2.3
			c-10.9,0.1-21.8-0.1-32.7-0.8c-3.9-0.3-7.8-0.5-11.7-1.2c-1.6-0.3-3.2-0.7-4.7-1.5c-3.9-2.2-4.1-6.5-0.4-9
			c2.6-1.7,5.6-2.2,8.5-2.6C867.8,58.5,878.7,58.5,888.2,58z"/>
		<path fill="#ffffff" d="M216.3,171.3c18.5,1.4,36.1,6.5,53.9,10.7c27,6.4,54.2,10.4,81.9,12.3c3.7,0.2,7.4,0.6,11.1,0.8
			c1.7,0.1,3.1,0.8,4.4,2c2.2,2.1,2.2,4-0.3,5.8c-2.5,1.8-5.3,2.2-8.3,2.1c-30.3-1.2-60.2-5.7-89.7-13.1c-14.8-3.7-29.6-7.6-44-12.6
			c-3.8-1.3-7.8-1.8-11.7-2.3c-1.3-0.2-2,0.5-2.7,1.3c-1.9,2.3-3.8,4.7-6.6,6c-1.6,0.8-3.3,1.4-4.8-0.2c-1.3-1.5-0.4-3.1,0.5-4.5
			c4.8-7.7,10.3-14.9,14.9-22.8c2.7-4.6,5.2-9.4,7.1-14.4c0.7-2,1.4-4.1,1.8-6.3c0.9-5.1-0.3-4.9-3.8-4.1c-2.5,0.6-5,0-6.4-2.4
			c-1.5-2.5-0.9-4.9,0.8-7.1c2.9-3.9,6.6-7.3,9.3-11.4c0.9-1.4,2.9-3,1.9-4.4c-0.7-1.1-3.1-0.1-4.7,0.1c-1.2,0.1-2.3,0.5-3.5,0.7
			c-1.3,0.2-2.6,0-3.4-1.2c-0.8-1.3-0.7-2.6,0.1-3.9c3.2-5.4,14.8-6.6,19.1-2c1.8,2,2.2,4.3,2,6.9c-0.5,5.1-2.8,9.4-5.7,13.3
			c-1,1.3-1.3,1.9,0.5,3c4.9,2.8,5.8,7.6,5.3,12.8c-0.7,6.7-3.7,12.5-7.3,18c-3.3,5-6.8,9.8-10.3,14.8
			C217.1,170,216.7,170.7,216.3,171.3z"/>
		<path fill="#ffffff" d="M576.6,79.9c1.6-3.2,3.2-6.3,4.7-9.3c4.4-8.6,8.9-17.1,13.9-25.3c1.3-2.1,2.6-4.2,4.6-5.7
			c2.2-1.7,4.5-2.4,7.1-1.1c2.6,1.4,3.2,3.8,3,6.5c-0.4,3.9-1.7,7.6-3.3,11.2c-3.4,8-7.3,15.8-12,23.2c-1.1,1.7-0.5,2.5,1.2,3
			c2.1,0.6,4.2,1.2,6.3,1.6c9.2,1.7,16.8,6.5,24,12.2c2.8,2.2,5.1,4.9,6.8,8.1c0.6,1.1,1.1,2.3,1.2,3.6c0.2,2.8-1.8,4.6-4.6,4.1
			c-3.2-0.6-6-2.1-8.8-3.6c-5.6-3-11.4-5.7-17.3-8c-4.5-1.8-8.4-4.7-12.5-7.1c-2.9-1.7-3.4-3-6,1.4c-4.4,7.5-9.4,14.7-14.2,22
			c-0.7,1-1.6,2-2.5,2.8c-2.1,1.9-4.9,2.1-7.1,0.8c-2.3-1.3-3.3-4-2.7-6.9c0.4-1.8,1.3-3.4,2.2-5c3.6-6.3,7.1-12.7,10.7-19
			c0.9-1.6,1.1-2.5-0.6-3.7c-1.9-1.3-3.7-2.9-5.7-4.2c-5.9-3.9-9.6-13.2-8-19.6c0.4-1.5,1-2.9,1.9-4.2c3.4-4.7,9.6-4.7,12.8,0.2
			c1.9,2.9,2.4,6.2,2.4,9.6C574.2,72.6,575.1,77,576.6,79.9z"/>
		<path fill="#ffffff" d="M633.3,195.1c-1-0.2-2.5-0.3-3.8-0.8c-8.4-2.8-16.5-6.3-23.7-11.5c-7.3-5.3-14.3-10.9-21.1-16.8
			c-1.6-1.4-2.2-1.3-3.4,0.5c-4.2,6.2-8.5,12.2-12.9,18.3c-0.6,0.9-1.4,1.7-2.2,2.4c-1.8,1.6-3.9,2-6.1,0.9c-2.2-1.1-3-3.1-2.7-5.5
			c0.1-1.4,0.5-2.9,1-4.2c3.8-9.9,7.1-20.1,13.1-29c1.3-2,0.7-2.3-1.4-2.4c-4.3-0.2-7.8-3.2-8.8-7c-0.5-2-0.2-3.8,0.9-5.5
			c2.4-3.6,5.4-3.6,7.6,0.2c1.5,2.6,3.2,4.4,6.7,3.8c1.2-0.2,1.9-0.5,2.6-1.5c2.3-3.6,4.7-7.2,7.4-10.5c1.6-2,3.4-3.8,5.8-4.8
			c2-0.8,3.9-0.7,5.6,0.7c1.6,1.3,1.7,3.2,1.3,5c-0.8,3.6-2.2,7.1-3.6,10.6c-1.4,3.5-2.8,7.1-4.4,10.6c-0.9,2.1-0.5,2.9,1.6,3.9
			c11.7,5.4,22.7,12.1,33,20c3.7,2.8,7.2,5.8,10.7,8.8c0.8,0.7,1.6,1.5,2.3,2.3c2.2,2.3,3.3,4.9,2,7.9
			C639.6,194.6,636.6,194.8,633.3,195.1z"/>
		<path fill="#ffffff" d="M285.9,76.7c0,4.9-1.2,9.7-0.8,14.7c0.1,1.7-0.6,3.1-2.5,3.4c-1.9,0.3-3.2-0.8-3.7-2.5
			c-2.3-7.5-3.2-15-0.2-22.4c1.7-4.2,5.7-6.6,9.4-9c2.3-1.5,4.9-2.4,7.5-3.1c1.4-0.4,2.2-1,2.2-2.6c0-1.1,0.3-2.2,0.6-3.2
			c0.5-1.4,1.3-2.5,3-2.3c1.7,0.3,2.3,1.6,2,3c-0.6,2.8,0.5,3.3,2.9,2.6c1-0.3,2.2-0.4,3.2-0.4c2.6-0.1,4.6-0.4,5.8-3.5
			c1.2-3.2,5.7-2.9,7.3,0.4c1,2.2,2.4,2.6,4.4,2.6c3.6,0.1,7.2,0.8,10.7,2c6.4,2.3,9.6,7.6,8.7,14.3c-0.7,5-3.3,8.7-6.3,12.8
			c-4.1,5.7-9.6,6.4-15.3,7.4c-8,1.4-16.2,2.5-24.3,3.6c-1.6,0.2-3.3,0.3-4.9,0.1c-2.4-0.3-4.3-1.6-5-4c-0.7-2.4,0.2-4.3,2-5.9
			c1.4-1.2,2.9-2.2,4.6-2.9c1.5-0.6,1.7-1.4,1.5-2.9c-0.5-3-0.9-6.1-1.1-9.2c-0.1-1.6-0.7-2.1-2.2-1.6c-2.3,0.7-4.5,1.4-6.8,1.8
			c-2.2,0.5-3,1.6-2.7,3.8C286,74.6,285.9,75.7,285.9,76.7z M319.8,75.3c3.7,0,7.1-0.2,10.4,0.1c2.8,0.2,3.9-1,4.4-3.6
			c0.6-3.6,0-5.9-2.3-6.8c-2.3-0.9-4.8-1-7.2-1.1c-1,0-1.4,0.6-1.6,1.5C322.8,68.7,321.5,71.8,319.8,75.3z M305,72.2
			c0,0-0.1,0-0.1,0c0,1.3,0,2.5,0,3.8c0,0.8-0.3,1.9,0.6,2.2c0.9,0.4,1.7-0.5,2.3-1.1c2-2,3-4.5,3.6-7.2c1.1-5.6,2.2-5.2-4.3-4.3
			c-1.4,0.2-1.8,0.9-1.8,2.2C305.2,69.3,305.1,70.7,305,72.2z"/>
		<path fill="#ffffff" d="M284.1,121.4c-2,0.4-4,0.9-5.9,1.2c-1.8,0.4-3.6,0.6-5.4,0.3c-1.4-0.2-2.4-0.9-2.8-2.2
			c-0.4-1.4,0.2-2.5,1.3-3.3c1-0.8,2.1-1.4,3.2-2c5.9-3,12-5.2,18.4-6.8c2.3-0.6,4.1-1.6,5.7-3.4c1.6-1.8,3.5-3.5,5.3-5.1
			c1.1-1,2.4-1.7,3.8-2c1.1-0.2,2.2-0.1,3,0.8c0.7,0.9,0.5,1.9,0.1,2.8c-0.4,0.9-0.9,1.8-1.4,2.9c2.3,0.3,4.3-0.3,6.3-0.6
			c9.5-1.4,19.2-2,28.8-2.3c4.4-0.1,6.6,1.2,7,4.1c0.3,2.9-1.7,4.9-6.1,5.6c-13,1.9-26.1,3.8-39.1,5.5c-3.8,0.5-6.3,2.1-8.3,5.3
			c-5.9,9.4-11.4,19-18.1,27.8c-3.5,4.7-7,9.6-12.4,12.4c-1.6,0.8-3.2,2.2-5,0.9c-1.8-1.3-2.4-3.2-2.2-5.5c0.2-1.8,0.7-3.3,1.5-4.9
			c5.5-10.5,13.4-19.4,20.8-28.6C283,123.5,283.9,122.8,284.1,121.4z"/>
		<path fill="#ffffff" d="M722.5,98.8c0.7,12.7-3.1,24.6-6.2,36.7c-1.3,5.1-2.7,10.2-4.1,15.3c-0.9,3.3-2.4,6.3-4.6,8.9
			c-1.6,1.9-3.6,3.3-6.2,2.1c-2.5-1.1-2.8-3.4-2.5-5.8c1.1-9.7,2.4-19.3,3.3-29c0.9-10.1,0.8-20.3,1-30.5c0.2-6.7,0.8-13.2,2.3-19.7
			c0.5-2.2,1.2-4.4,2.5-6.3c1.5-2.3,3.5-4,6.5-3.6c2.9,0.4,4.3,2.6,4.9,5.2c1.7,7.4,2.6,14.9,3,22.4
			C722.6,95.9,722.5,97.3,722.5,98.8z"/>
		<path fill="#ffffff" d="M162.5,53c2.1,0.5,3.7-0.2,5.1-1.7c1.2-1.2,2.4-2.5,4-3.2c1.8-0.9,3.7-1.1,5.4,0.3c1.5,1.3,1.7,3.1,1.2,5
			c-0.5,1.7-1.4,3.2-2.4,4.6c-3.3,4.7-6.7,9.5-9.9,14.5c4.6-2.1,10.5-1.9,13.2-7.7c1-2.2,3-3,5.4-2.7c1.8,0.2,3.2,1.2,4.3,2.6
			c3.7,4.6,3.3,15.9-0.7,20.2c-1.8,2-4.4,2-6.2,0.1c-0.5-0.5-0.8-1.2-1.1-1.8c-0.8-1.8-0.5-4.8-2.1-5.2c-1.4-0.3-3.4,1.7-5.1,2.6
			c-5,2.7-10.2,4-16,3c-5.4-0.9-8.2-4.8-6.9-10.2c0.7-2.9,2.2-5.4,3.8-7.8c0.5-0.7,1.3-1.3,1.4-2.4c-1.2-0.3-2.4-0.5-3.6-0.9
			c-4.8-1.5-7.2-5.4-5.7-10.1c2.6-8,7.2-14.6,14.6-19c1.9-1.2,4.2-2,6.1-0.2c1.8,1.7,2.3,4.2,1.3,6.6c-1.5,3.6-3.3,7.1-5,10.6
			C163.1,51,162.4,51.8,162.5,53z"/>
		<path fill="#ffffff" d="M298.6,147.1c-0.4-0.1-0.5-0.2-0.5-0.2c-1.7,0.3-3.7,1.6-4.8-0.8c-1.1-2.3,0.7-3.8,2.2-5.1
			c6-5,13.2-6.7,20.7-7.4c2.8-0.3,5.6-0.4,8.4,0.6c4.5,1.6,6.9,5.1,6.6,9.8c-0.3,4.2-1.4,8.1-4.1,11.4c-2.4,2.9-5.4,4.5-9.3,4.1
			c-1.6-0.1-3.1-0.7-3.7-2.3c-0.7-1.8,0-3.2,1.3-4.4c1.8-1.6,3.7-3.2,4.4-5.7c0.8-3,0.3-3.8-2.8-4.1c-0.5,0-0.9-0.1-1.4-0.1
			c-2.2,0-4.6-0.2-6.4,0.8c-2.2,1.2-0.6,3.9-1,5.9c-0.5,2.1-0.4,4.3-0.4,6.5c0,3.7,1.2,5.2,4.9,6.1c2.3,0.6,4.7,0.6,7,0.5
			c7.2-0.3,14.3-0.7,21.5-1.1c1.2-0.1,2.4-0.1,3.5,0.2c1.9,0.5,3.3,1.6,3.7,3.6c0.5,2.1-0.2,3.8-1.8,5.1c-0.6,0.5-1.3,1-2.1,1.2
			c-9.9,3.4-20,5.6-30.5,4.1c-0.7-0.1-1.4-0.2-2.1-0.4c-14.4-3.3-19.5-13-14.1-26.7C298.2,148.2,298.3,147.7,298.6,147.1z"/>
		<path fill="#ffffff" d="M674.7,102.5c-1.5,0-2.8,0.2-4.1,0c-4-0.7-5.4-4.6-2.8-7.8c3.6-4.4,18-7.3,23-4.6c4.2,2.3,5.9,6,6,10.6
			c0.1,3.3-0.8,6.5-1.8,9.6c-2.3,6.6-5.8,12.5-10.1,17.9c-4.4,5.5-8.8,10.9-13.2,16.3c-3.3,4-6.4,5-9.3,3.1c-2.9-1.9-3.4-5.6-1-10.1
			c5.4-9.9,10.7-19.8,15.7-29.9c0.1-0.2,0.3-0.5,0.4-0.7c0.5-1.3,2-2.8,1.3-3.9C677.9,101.5,675.9,102.7,674.7,102.5z"/>
		<path fill="#ffffff" d="M61.4,78.2c1.4-0.6,2.3-1.8,3.3-2.8c0.9-0.9,1.9-1.4,3.2-0.8c1.3,0.6,1.4,1.8,1.2,3.1
			c-0.8,5-6.6,9.9-11.7,9.8c-4.8-0.1-8.5-4.2-8.6-9.5c-0.1-4.4,1.7-8.3,3.8-12.1c0.9-1.7,0.8-2.2-1.3-2.2
			c-7.1-0.1-11.3-5.7-9.5-12.6c1.5-5.6,4.4-10.5,8.4-14.8c0.7-0.7,1.5-1.4,2.3-1.8c2.3-1.3,4.7-1.4,6.8,0.4c2,1.8,2.2,4.2,1.1,6.5
			c-1.7,3.6-3.8,7-5.8,10.5c-0.5,0.9-1.1,1.8-1.9,3.3c3.7-0.2,6.4-1.4,8.6-3.6c2-1.9,3.7-4,5.5-6c2-2.2,4.1-4.4,6.7-6
			c1.7-1.1,3.6-1.7,5.7-1.4c2.9,0.5,4.3,3.1,2.9,5.7c-1,1.8-2.2,3.5-3.5,5.2c-6.2,8.6-12,17.5-16.7,27.1
			C61.7,76.8,61.2,77.3,61.4,78.2z"/>
		<path fill="#ffffff" d="M843.9,118c0.2-6,1.5-11.7,3.5-17.3c0.8-2.1,1.8-4.2,3.5-5.8c2.2-2.1,4.9-2.4,7.1-0.5
			c1,0.9,1.8,0.8,2.9,0.4c12.6-4.7,20.7,1.5,19.8,14.8c-0.4,6.1-3.2,11.3-6.6,16.2c-1.6,2.3-4,3-6.8,2c-0.5-0.2-1.1-0.5-1.6-0.4
			c-4.9,1.5-9.9,0.7-14.8,1.2c-2.8,0.3-5.1-1-6.2-3.9C843.9,122.6,843.9,120.3,843.9,118z M866.1,107.2c-0.1-0.9,0.4-1.9-0.7-2.4
			c-2.4-1.2-5.7,0.5-6,3.2c-0.2,2.1-0.5,4.3-0.9,6.4c-0.3,1.6-0.3,2.3,1.8,1.9c4.7-1,4.7-0.9,5.4-5.7
			C865.8,109.5,865.9,108.4,866.1,107.2z"/>
		<path fill="#ffffff" d="M277.7,47.3c-0.2,0-0.4,0-0.5,0c-2.3,0-4.8,0-5.6-2.7c-0.8-2.8,1.3-4.1,3.4-5.2c8.7-4.6,18-7.3,27.6-8.9
			c13-2.3,26-3.2,39-0.3c1.1,0.2,2.1,0.4,3.2,0.7c3.3,1,5.2,3.3,5,6.2c-0.2,2.9-2.3,5.1-5.8,5.6c-4.4,0.6-8.9,1.1-13.3,1.2
			c-17,0.4-33.9,1.6-50.8,3.3C279.1,47.2,278.4,47.2,277.7,47.3z"/>
		<path fill="#ffffff" d="M535.9,130.8c-0.1,2.6-1.4,5.1-3.2,7.5c-4.4,5.6-9.3,10.7-14.4,15.6c-10.7,10.2-21.5,20.4-31.5,31.3
			c-2.1,2.3-4.6,4.2-7.6,5.1c-2,0.6-3.8,0.3-5.1-1.4c-1.4-1.7-0.7-3.2,0.1-4.8c1-1.9,2.4-3.7,3.8-5.3c14.2-16,28.5-31.9,44.2-46.3
			c2.3-2.2,4.8-4.2,7.6-5.7C533.2,124.8,535.9,126.3,535.9,130.8z"/>
		<path fill="#ffffff" d="M728.6,97c0-2.5,0.7-4.8,1.8-7.1c2.4-4.7,5.7-8.6,9.8-11.8c0.7-0.6,1.5-1,2.3-1.4c2.6-1.2,5.2-0.9,6.8,0.9
			c1.8,2.1,1.7,4.4,0.4,6.6c-1.6,2.7-3.6,5.3-5.3,7.9c-2.5,3.8-2.5,4.2,0.2,8c3,4.3,6.8,7.8,10,11.9c2,2.6,4.2,5,5.8,7.9
			c1.3,2.2,2.4,4.5,2.7,7.1c0.2,1.7-0.1,3.3-1.7,4.3c-1.7,1-3.5,0.9-4.8-0.4c-8.6-8.3-17.5-16.2-25.1-25.4
			C729.4,103.1,728.7,100.1,728.6,97z"/>
		<path fill="#ffffff" d="M125.1,41.2c3.3-0.1,6.5,0.2,9.7,0.9c1.7,0.4,3.1,1.2,3.3,3.1c0.2,1.9-1.1,3-2.7,3.6
			c-3.6,1.5-7.5,2.2-11.3,2.8c-7.6,1.1-15.1,3.1-22.8,3.9c-1.6,0.2-3.2,0.2-4.9-0.1C94.4,55,93,54,92.6,51.9c-0.4-2,0.6-3.5,2.3-4.6
			c3.1-1.9,6.5-2.8,10-3.5c1.9-0.4,2.5-1,1.9-3c-1.1-3.9-1-7.9,0-11.8c0.5-2,1.3-3.8,3.2-4.9c2.5-1.6,5.6-0.6,7,2.4
			c1.7,3.6,2.3,7.4,2.2,11.4c-0.1,3.8,0,3.8,3.8,3.5C123.6,41.3,124.3,41.2,125.1,41.2z"/>
		<path fill="#ffffff" d="M785.6,175.9c-4.1,0-6.5-3.3-5.7-7.3c0.5-2.9,1.9-5.6,3.9-7.7c6.8-7.1,13.3-14.4,20.6-21
			c1.7-1.5,3.6-2.8,5.7-3.7c2.3-1,4.6-1.2,6.5,0.9c1.8,1.9,1.6,4.1,0.5,6.3c-1.1,2.4-2.7,4.6-4.4,6.5c-6.1,6.7-12.2,13.5-18.3,20.2
			c-1.5,1.7-3.3,3.2-5.2,4.4C788,175.4,786.7,176,785.6,175.9z"/>
		<path fill="#ffffff" d="M114.1,118.1c-1.2,0.1-3.4,0.4-5.6,0.5c-3.1,0.2-5.4-1.1-6.4-4c-1.9-5.1-2.3-10.4-2.1-15.8
			c0.1-2.3,1.2-4.3,3.4-5.2c2.2-0.9,3.9,0.3,5.2,2c1,1.3,1.7,0.3,2.4-0.3c3-2.5,6.3-4.2,10.2-4.7c5.5-0.8,9.2,1.9,10,7.4
			c0.4,2.8,0,5.4-1,8c-0.7,1.8-1.8,3.4-0.5,5.5c0.8,1.3-0.6,2.5-1.7,3.4C125.7,116.7,120.3,118.1,114.1,118.1z M110.6,105
			c-0.2,1.3,0.1,2.7,0.5,4.1c0.2,0.5,0.3,1.1,0.9,1.2c0.8,0.2,7-2.5,7.5-3.3c1.4-2.3,2.2-4.7,2.6-7.4c0.2-1.5-0.3-2-1.8-1.6
			c-1.9,0.6-3.8,1.1-5.8,1.6C110.7,100.7,110.7,100.7,110.6,105z"/>
		<path fill="#ffffff" d="M799.6,53.5c8.6-0.1,19.9,8.7,22.1,17c1.6,5.9-2.7,10.8-8.5,9.3c-8-2-14.7-6.1-19.4-13.2
			c-0.4-0.7-0.8-1.4-1.2-2.1C789.8,58.4,793,53.6,799.6,53.5z"/>
		<path fill="#ffffff" d="M788.1,92.4c4.1,0.1,7.9,1.1,11.2,3.6c3.6,2.8,7.2,5.6,10.7,8.4c1.7,1.4,3.2,2.9,4,5.1
			c1.2,3.4-1.2,6.4-4.6,5.5c-6.9-1.7-13.8-3.7-20.7-5.7c-2-0.6-3.7-1.8-5.4-3.1c-3.5-2.7-4.8-6.1-3.7-9.2
			C780.8,94,783.8,92.4,788.1,92.4z"/>
		<path fill="#ffffff" d="M87.1,66.5c0,2.3-0.6,4.5-1.2,6.7c-1.6,5.5-3.6,10.9-5.7,16.2c-1.6,4-4.3,6.7-8.5,7.7
			c-2.2,0.5-4.3,0.3-5.4-1.9c-1.1-2-0.2-3.7,1.4-5.1c1.6-1.4,2.1-3.3,2.5-5.3c0.9-4.9,1.8-9.8,2.7-14.7c0.5-2.4,1.2-4.8,2.5-6.9
			c1.9-3.2,4.7-4.6,7.4-3.8C85.6,60.2,87.1,62.7,87.1,66.5z"/>
		<path fill="#ffffff" d="M486.2,118.4c-3.4,0-6.1-1.9-6.8-4.7c-0.7-2.7,0.4-5.7,3.4-7c8.6-3.9,17.6-6.8,27.3-7
			c2.5,0,4.7,0.7,6.2,2.8c1.7,2.3,0.6,5.1-2.2,5.2c-3.5,0.1-6.5,1.6-9.5,3c-3.9,1.8-7.7,3.7-11.5,5.6
			C490.8,117.4,488.5,118.3,486.2,118.4z"/>
		<path fill="#ffffff" d="M608.4,74.3c-3.9,0-5.4-2.4-3.3-5.5c3.6-5.3,6.7-11,9.6-16.7c1.5-3,4.2-4.9,7.7-4.8c3.1,0.1,5,2.2,6.4,4.9
			c1,1.9,1,3.9,0.1,5.8c-4.1,8.4-10.3,14.1-19.6,16.3C609,74.3,608.7,74.3,608.4,74.3z"/>
		<path fill="#ffffff" d="M604.4,140.2c-0.4,0-1.5-0.1-2.5-0.3c-1.7-0.4-2.7-1.4-3.1-3.1c-0.3-1.6,0.3-2.9,1.5-3.8
			c1-0.7,2.2-1.3,3.3-1.9c5-2.4,9.1-5.9,12.2-10.6c1.7-2.5,3.8-4.5,7.2-3.9c2.4,0.4,5,0.7,6,3.5c1.1,3,0.4,5.6-1.7,7.8
			c-3.2,3.4-6.7,6.4-10.7,8.8C613.2,138.9,609.3,140,604.4,140.2z"/>
		<path fill="#ffffff" d="M520.8,55.8c-0.1,2.4-0.6,4.3-2.7,5.3c-1.9,0.9-3.8,0.5-5.3-1c-1.4-1.3-2.9-1.4-4.5-1.1
			c-2.3,0.4-4.6,0.9-7,0.6c-3.3-0.4-5.9-2-7-5.3c-1-3.1-0.3-6,2.1-8.2c4.7-4.3,10.1-3.3,15.3-1.2C516.7,46.9,520.2,50.3,520.8,55.8z
			"/>
		<path fill="#ffffff" d="M177.5,96.7c0-4.7,1.3-7.1,3.6-7.9c2.8-1,5.1,0.3,6.7,2.4c4.1,5.1,6.6,11,8.6,17.1
			c0.9,2.6-0.5,5.3-2.7,6.5c-2.4,1.3-5.1,1.3-6.8-0.7C182.1,108.8,178.7,102.5,177.5,96.7z"/>
		<path fill="#ffffff" d="M43,108.8c0,1.8,0.1,3.6,0,5.4c-0.2,2.7-2,4.7-4.5,5.1c-2.4,0.5-5.2-0.6-6.1-3.1c-1.8-5.1-4-10.2-3.8-15.8
			c0-1.2,0.3-2.4,0.7-3.5c1.7-4.8,7.1-5.8,10.4-1.9c2.2,2.6,3.1,5.7,3.3,9.1C43,105.7,42.9,107.2,43,108.8
			C42.9,108.8,42.9,108.8,43,108.8z"/>
		<path fill="#ffffff" d="M83.6,115c0,0.5,0,1.1,0,1.6c-0.1,2.4-0.6,4.6-3.2,5.5c-2.6,0.9-4.6-0.3-6.2-2.3
			c-3.9-5.1-4.6-11.2-4.5-17.3c0-2.5,1.8-4.3,4.5-4.8c2.5-0.4,4.9,0.9,6.1,3.6C82.3,105.7,83.5,110.2,83.6,115z"/>
		<path fill="#ffffff" d="M111.3,86.8c-4.4,0.1-6.4-1-6.8-3.2c-0.5-2.4,0.9-4.6,3.9-5.8c4.5-1.9,9.3-3,14.1-3.9
			c0.9-0.2,1.8-0.1,2.7,0c2,0.3,4.3,0.3,4.9,3.1c0.5,2.6-0.5,4.9-3,6.4c-3.1,1.8-6.7,2.1-10.2,2.8C114.7,86.5,112.5,86.7,111.3,86.8
			z"/>
		<path fill="#ffffff" d="M240.1,75.6c0.1,2-0.3,3.6-2.2,4.1c-1.9,0.5-3.1-0.7-3.8-2.3c-2.9-7.2-5.5-14.6-9.5-21.4
			c-1.7-2.9-0.5-6.2,2.1-7.2c2.7-1,5.4,0.4,6.2,4c1.6,6.4,5.6,12.1,6.5,18.7C239.7,72.9,239.9,74.4,240.1,75.6z"/>
		<path fill="#ffffff" d="M335.2,117.9c6.3,0,13.4,5,15.7,10.9c1.1,2.7,0.3,5.4-2,6.6c-2.4,1.3-4.5,0.5-6.3-2.3
			c-2-3.1-5.3-4.3-8.3-5.9c-1.3-0.8-2.8-1.3-4.2-1.9c-1.3-0.6-2.3-1.5-2.4-3c0-1.7,1-2.6,2.4-3.3
			C331.8,118.2,333.5,117.8,335.2,117.9z"/>
		<path fill="#ffffff" d="M110.5,71.8c-0.7-0.1-2.1-0.1-3.4-0.3c-1.7-0.4-3-1.3-3.4-3.1c-0.4-1.8,0.4-3.2,1.8-4.2
			c1-0.7,2.2-1.3,3.4-1.7c4.1-1.3,8.3-1.9,12.6-1.8c1.6,0.1,3.6,0,4.1,1.9c0.6,2.1,0.5,4.3-1.2,6.1c-1.1,1.1-2.5,1.7-4.1,2
			C117.3,71.3,114.2,71.7,110.5,71.8z"/>
		<path fill="#ffffff" d="M170.2,99c-0.2,1.8,0.3,3.6,0.6,5.4c0.5,2.9-0.4,5.1-2.6,5.9c-2.4,0.9-5.3-0.1-6.3-2.8
			c-1.4-3.8-2.4-7.8-2.3-11.9c0-3.1,1.9-5.2,4.3-5.5c2.6-0.3,4.8,1.3,5.8,4.3C170.2,95.9,170.2,97.5,170.2,99z"/>
		<path fill="#ffffff" d="M154.7,102.6c-0.4,3.2-1.3,6.9-2.4,10.6c-0.4,1.5-1.7,2.3-3.3,2.3c-1.8,0-3-1.1-3.4-2.7
			c-1-3.7-2-7.4-2-11.2c0-4.4,2.5-7.3,5.7-7.2C152.6,94.5,154.8,97.6,154.7,102.6z"/>
		<path fill="#ffffff" d="M56.4,98c2.2,0.2,3.6,1.5,3.9,3.7c0.8,5.1,1,10.3,2.2,15.3c0.3,1.1-0.1,2.2-1.3,2.7
			c-1.2,0.5-2.3,0.1-2.9-0.8c-3.7-5-6.1-10.5-6.2-16.7C52,99.7,54,98,56.4,98z"/>
	</g>
</g>
</svg>
