<?xml version="1.0" encoding="utf-8"?>
<!-- Generator: Adobe Illustrator 18.0.0, SVG Export Plug-In . SVG Version: 6.00 Build 0)  -->
<!DOCTYPE svg PUBLIC "-//W3C//DTD SVG 1.1//EN" "http://www.w3.org/Graphics/SVG/1.1/DTD/svg11.dtd">
<svg version="1.1" xmlns="http://www.w3.org/2000/svg" xmlns:xlink="http://www.w3.org/1999/xlink" x="0px" y="0px"
	 viewBox="0 0 921.1 231" enable-background="new 0 0 921.1 231" xml:space="preserve">
	 
<style>
	#title {
		filter:url(#dropshadow)
	}
</style>
<filter id="dropshadow" height="130%">
  <feGaussianBlur in="SourceAlpha" stdDeviation="8"/> <!-- stdDeviation is how much to blur -->
  <feOffset dx="2" dy="4" result="offsetblur"/> <!-- how much to offset -->
  <feComponentTransfer>
    <feFuncA type="linear" slope="0.2"/> <!-- slope is the opacity of the shadow -->
  </feComponentTransfer>
  <feMerge> 
    <feMergeNode/> <!-- this contains the offset blurred image -->
    <feMergeNode in="SourceGraphic"/> <!-- this contains the element that the filter is applied to -->
  </feMerge>
</filter>
<g id="title">
	<g>
		<path fill="#ffffff" d="M58.9,121.8c0.3,5.1-0.8,10.8,0.1,16.5c0.3,1.7-0.1,3.4-2.1,3.9c-1.9,0.5-3.2-0.5-4-2.1
			c-2.4-4.7-4.5-9.6-4.8-15c-0.4-7.6-0.1-15.1,1.2-22.6c0.4-2.2,0.8-4.5,1.9-6.5c1-1.9,2.5-3.3,4.8-2.7c2.3,0.6,2.4,2.4,2.2,4.4
			c-0.1,0.6,0.1,1.3,0.1,1.9c0.1,1.9,0.8,2.1,2.3,1c5.9-4.3,12.4-7.2,19.4-9.2c1.6-0.4,2.2-1.3,2.2-2.9c0-3.5,0.1-6.9,0.4-10.4
			c0.2-2.2-0.7-2.6-2.7-2.4c-13.7,1.2-27.3,3.1-40.8,5.5c-3,0.5-6.1,1-9.2,0.8c-2.6-0.2-5-1-5.6-3.9c-0.6-2.9,1.3-4.6,3.6-5.7
			c8.7-4.2,18-6.7,27.4-8.9c8.4-1.9,16.9-3.6,25.5-4.6c2.6-0.3,3.6-1.3,3.9-3.8c0.2-2.4,0.9-4.8,2.2-7c0.9-1.5,2.1-2.6,4-2.1
			c1.9,0.4,2.2,2,2.3,3.6c0,0.1,0,0.2,0,0.3c0.5,7.3,0.5,7.3,7.9,6.6c5.5-0.5,11-1,16.6-1.5c5.5-0.5,10.9,0,16.2,1.5
			c1.5,0.4,3,0.9,4.2,1.8c4.1,3.1,3.3,8.7-1.7,10.9c-5.5,2.4-11.2,3.6-17.2,3.8c-7.4,0.3-14.9,0.9-22.3,1.2c-2.4,0.1-3.2,0.9-3,3.3
			c0.2,2.7,0.2,5.5,0.2,8.2c0,1.9,0.6,2.6,2.6,2.4c3.2-0.3,6.4-0.2,9.5,0.3c14,2.2,23.2,14.4,21.3,28.5c-0.7,5.3-2.4,10.3-5.2,14.8
			c-2.8,4.6-6.7,7.6-12.1,8.5c-0.6,0.1-1.6,0.1-1.8,0.5c-2.1,4.5-6.7,4.6-10.6,5.9c-2.4,0.8-3.5,1.8-3.3,4.4c0.1,2.3,0,4.7-0.2,7.1
			c-0.2,1.8,0.4,2.5,2.3,2.2c3.1-0.5,6.2-0.5,9.2,0.1c1,0.2,2,0.4,2.9,0.8c2.6,1,4.3,2.8,4.4,5.7c0.1,2.9-1.4,4.8-4,6
			c-3.8,1.7-7.9,1.8-12,2.3c-1.3,0.2-3.2-0.4-3.7,1c-0.8,2.1-1.1,4.4-1.1,6.7c0,1.2,1.5,0.7,2.3,0.6c5.4-0.4,10.9-1,16.3-1.4
			c8.1-0.6,16.2,0.2,24.2,0.6c1.2,0.1,2.3,0.3,3.4,0.8c2.3,0.9,3.8,2.5,4,5c0.2,2.6-0.9,4.6-3.1,5.9c-1.7,1.1-3.7,1.4-5.7,1.7
			c-11.6,2-23.3,2.8-35,3.4c-15.1,0.8-30,2.9-45,4.5c-3.4,0.4-6.9,0.3-10.3,0c-2.2-0.2-4.2-0.8-4.8-3.2c-0.6-2.5,1.1-3.8,3-4.9
			c4.2-2.5,8.7-4.1,13.4-5.2c6.7-1.7,13.5-3.1,20.3-4.3c3.5-0.6,3.7-0.8,3.6-4.4c0-0.5-0.1-1.1,0-1.6c0.3-2.2-0.5-2.9-2.8-2.5
			c-4.1,0.7-8.3,1.1-12.4,1.6c-2.4,0.3-4.8,0.2-6.1-2.5c-1-2.1,0-4.5,2.7-6.5c4.9-3.7,10.7-5.5,16.5-6.7c2.4-0.5,3.4-1.5,3.3-4
			c-0.1-1.7,0.2-3.4,0.4-5.2c0.2-1.8-0.6-2.2-2.2-1.9c-2.8,0.5-5.6,0.9-8.3,1.3c-1.2,0.1-2.5,0.1-3.8-0.1c-2.2-0.3-3.8-1.3-4.2-3.6
			c-0.4-2.2,0.7-3.7,2.5-4.7c3.9-2.3,8.2-3.5,12.5-4.5c4.5-1.1,4.6-1.1,4.7-5.8c0-2.4,1.2-5.6-0.4-7.1c-1.6-1.6-4.6,0.2-7,0.4
			c-2.6,0.2-5.2,0.7-7.8,0.9c-2.2,0.2-4.7,0.7-5.6-1.9c-1-2.8,1.5-4,3.5-5.1c4.6-2.5,9.4-4.4,14.5-5.3c2.8-0.5,3.6-1.8,3.4-4.4
			c-0.2-2.3,0-4.7,0.1-7.1c0.1-1.6-0.4-2.4-2.2-1.8c-6.4,2.2-12.7,4.3-18.7,7.5c-1.6,0.8-2.3,1.8-2.2,3.6
			C59,117,58.9,119.1,58.9,121.8z M94.4,107.1c0,0,0.1,0,0.1,0c0,1.6,0,3.3,0,4.9c-0.1,1.6,0.5,2.3,2.3,2.1c2.2-0.3,4.5-0.4,6.8-0.5
			c3.1-0.2,6.2-0.9,9,0.9c0.9,0.6,1.2,0.1,1.4-0.8c0.9-5.3-2.5-10.9-7.8-12.5c-2.3-0.7-4.6-0.8-7-0.8c-4.8,0-4.8,0-4.7,4.7
			C94.4,105.7,94.4,106.4,94.4,107.1z M112.3,122.1c-1.6,1-3.1,2-4.7,2.9c-1.3,0.8-2.9,1.5-4.1,0.4c-2.1-2.1-4.4-1-6.6-0.7
			c-1.6,0.2-2.2,1-2.1,2.5c0.1,2.7-0.1,5.4,0,8.2c0,1-0.7,2.9,1.1,2.8c1.9-0.1,4.5,0.9,5.6-1.5c0.9-2,2.3-2.9,4.1-3.6
			C110.1,131.2,112.6,127.3,112.3,122.1z"/>
		<path fill="#ffffff" d="M211.9,91.7c0.4-0.1,0.7-0.1,1-0.2c10.4-5.4,21.6-7.9,33.1-9.5c2-0.3,2.8-1,2.9-3c0.6-6.1,1.3-12.1,2.9-18
			c0.5-1.8,1.1-3.7,2.3-5.2c1-1.3,2.3-2,4.1-1.6c1.8,0.4,2.5,1.8,2.6,3.5c0.1,2.4,0,4.9,0,7.4c-0.1,4.3-0.2,8.5-0.3,12.8
			c-0.1,1.9,0.5,2.6,2.5,2.4c9.4-0.9,18.9-0.6,28.3-0.2c1.8,0.1,3.6,0.1,5.4,0.7c2.2,0.7,3.6,2.2,3.7,4.5c0.1,2.3-1.1,3.8-3.1,4.7
			c-1.6,0.8-3.3,0.8-5.1,1c-9.7,1.1-19.3,2.2-29,3.1c-2.3,0.2-3.1,1-3.1,3.3c0.1,6.9,0.1,13.8,0,20.7c0,2,0.6,2.8,2.6,2.8
			c1.8,0,3.6,0.3,5.4,0.7c9.9,2.2,13.6,10.4,8.8,19.3c-1.6,3-3.8,5.6-6.1,8c-3.3,3.5-7,6.6-10.7,9.7c-0.6,0.5-1.3,1.1-1.8,1.6
			c-0.6,0.6-1.1,1.3-0.8,2.2c0.4,1.1,1.4,0.6,2.1,0.6c7.9-0.3,15.8-0.4,23.7-0.1c6.6,0.3,13.1,1,19.4,2.7c5.6,1.5,8.4,4.5,8.1,8.7
			c-0.3,4.2-3.6,6.7-9.4,7.3c-4.4,0.5-8.9,0.7-13.3,0.4c-19.7-1.2-39.2,0.2-58.7,2.6c-2.3,0.3-4.5,0.5-6.8,0.1
			c-3.4-0.6-5.9-2.3-7.2-5.6c-1.2-3.3-0.3-6.3,1.9-8.8c2.3-2.6,5.3-4.4,8.2-6.2c6.4-3.9,13-7.4,18.9-11.9c1.2-0.9,1.9-1.7,1.9-3.3
			c0.1-3.5,0.1-7.1,0.4-10.6c0.2-2.2-0.8-2.7-2.7-2.2c-3.2,0.7-6.4,1.3-9.6,1.9c-1,0.2-2,0.4-3,0.4c-1.9,0.1-3.4-0.6-4.3-2.3
			c-0.9-1.9-0.4-3.6,0.9-5c1.4-1.6,3.1-2.8,4.9-3.8c3.7-2.1,7.7-3.7,11.9-4.6c1.7-0.4,2.4-1.1,2.4-2.9c0.1-7.2,0.3-14.4,0.5-21.5
			c0.1-1.8-0.4-2.5-2.3-2.2c-14.1,1.8-28.1,3.9-40.9,10.6c-3.5,1.8-5.8,0.2-5.4-3.7c1-11.1,4-21.8,8.1-32.1c0.6-1.6,1.4-3.2,2.7-4.4
			c1.2-1.2,2.6-1.7,4.2-1.2c1.7,0.5,2.4,1.8,2.7,3.5c0.3,2.2-0.1,4.4-0.7,6.5c-1.3,4.6-2.6,9.1-3.9,13.6
			C212.2,89.6,211.5,90.5,211.9,91.7z"/>
		<path fill="#ffffff" d="M820.6,159.3c-2.8,0.5-5.7,1-8.5,1.4c-2.9,0.5-5.7,1-8.6,1.4c-2,0.3-4.6,1.1-5.4-1.6
			c-0.9-2.9,1.8-3.6,3.7-4.5c5.7-2.9,11.6-5.4,17.9-6.4c7.6-1.3,13-4.8,16.4-11.7c1.2-2.4,3.1-4.5,4.8-6.6c1.2-1.4,2.8-2.6,4.8-1.7
			c2.1,1,1.6,2.9,1.2,4.5c-0.6,2.4-1.1,4.8-1.9,7.1c-0.9,2.2-0.6,2.8,1.9,2.6c7.8-0.7,15.6-1.3,23.4-1.9c1.2-0.1,2.4-0.1,3.5,0.1
			c2.7,0.4,4.5,2.2,4.7,4.6c0.2,2.4-1.1,4.5-3.7,5.4c-3.2,1.1-6.6,1.3-9.9,1.7c-9,1.1-18,2.2-27.3,3.3c0.6,1.2,1.6,1,2.4,1.2
			c13.5,3.4,25.9,8.9,36.5,18.1c2.4,2.1,4.5,4.2,5.4,7.4c0.7,2.6,0.4,4.9-1.7,6.7c-2.1,1.8-4.6,1.9-6.9,0.5
			c-13.5-8.2-28.5-13.8-40.9-23.8c-1.5-1.2-2.2-0.5-3,0.7c-5,7.9-12.1,14-18.9,20.3c-0.2,0.2-0.4,0.4-0.6,0.5
			c-1.6,1.3-3.4,2.6-5.3,0.9c-1.9-1.7-0.8-3.5,0.3-5.1c4.8-7,8.7-14.5,14-21.1c0.8-1.1,1.5-2.2,2.3-3.3
			C820.8,159.8,820.7,159.5,820.6,159.3z"/>
		<path fill="#ffffff" d="M596.1,110.6c-1.1,1.4-1.9,2.6-2.7,3.8c-0.6,0.8-1.3,1.3-2.3,1c-1-0.3-1.5-1.1-1.6-2
			c-0.3-1.7,0.1-3.3,0.6-4.8c4.9-16.4,12.4-31.6,22-45.7c1.2-1.7,2.6-3.3,4.5-4.3c1.5-0.9,3.1-1.1,4.6,0c1.5,1.1,1.4,2.7,0.8,4.2
			c-0.9,2.3-1.8,4.6-3,6.7c-4.7,8.7-9.5,17.4-14.3,26c-0.8,1.5-1.7,2.6,0.6,3.8c1.8,1,2.3,3.2,2.6,5.2c0.8,4.5,0.9,9,1,13.6
			c0.3,15.4,0.8,30.7,1.8,46c0.4,6.1,0.1,12.2-0.1,18.3c0,0.5-0.1,1.1-0.2,1.6c-0.5,2.5-1.7,4.4-4.5,4.7c-2.5,0.3-4.7-1.1-5.4-4
			c-1.2-5-2.4-10.1-3.1-15.2c-2.5-18.5-2.6-37.1-1-55.7c0.1-0.7,0.1-1.4,0.2-2.2C596.5,111.4,596.3,111.2,596.1,110.6z"/>
		<path fill="#ffffff" d="M547.8,114.8c2.6,0.1,5.1-0.1,7.6,0.5c3.5,0.8,5.7,3,6.2,6.1c0.5,3.2-1.1,6.1-4.4,7.7
			c-5,2.4-10.5,3.5-16,4.3c-24.6,3.4-48.5,9.3-72.1,16.9c-1.4,0.4-2.8,0.7-4.3,0.9c-2.1,0.2-3.8-0.5-4.8-2.4c-1.1-2-0.8-3.9,0.5-5.6
			c1.5-2.1,3.7-3.5,5.8-4.8c9.8-5.9,20.3-10.2,31.1-13.7C513.8,119.2,530.6,115.9,547.8,114.8z"/>
		<path fill="#ffffff" d="M633.8,142.7c-5.7,0.2-8.6-1.3-9.3-4.2c-0.7-3,0.8-5.4,5-7.5c11.8-5.9,24.6-8.8,37.5-11.1
			c13.7-2.4,27.5-2,41.3-1.6c1.5,0,2.9,0.3,4.2,0.9c2.8,1.2,4.5,3.4,4.5,6.5c0,3.1-1.6,5.4-4.4,6.6c-1.5,0.6-3.1,0.9-4.7,1.2
			c-21.7,3.7-43.6,5.5-65.4,8.3C639.3,142.1,636,142.5,633.8,142.7z"/>
		<path fill="#ffffff" d="M529.9,72.1c2.4,0.2,4.7,0.4,7,1.4c5.6,2.4,6.5,9,1.7,12.8c-2.5,2-5.5,2.9-8.6,3.1
			c-14.9,1-29.7,2.4-44.3,5.4c-1.4,0.3-2.9,0.3-4.3,0.2c-2.1-0.1-3.7-1-4.5-3c-0.8-2-0.4-3.8,0.9-5.4c1.5-1.9,3.5-3.1,5.7-4.1
			c9.9-4.6,20.5-6.9,31.2-8.4C519.6,73.3,524.8,72.8,529.9,72.1z"/>
		<path fill="#ffffff" d="M842.6,38.2c2.5,0,4.9,0.3,7.1,1.6c2.2,1.4,3.7,3.2,3.6,6c-0.1,2.7-1.8,4.3-4.1,5.3
			c-3.4,1.5-7.1,2.1-10.8,2.8c-9.4,1.8-18.5,4.7-27.3,8.5c-2.1,0.9-2.3,1.5-1,3.4c3.3,4.9,6.9,9.6,10.6,14.2c1,1.3,1.9,2.6,0.8,4.2
			c-1.1,1.6-2.8,1.4-4.4,0.7c-3.2-1.3-5.7-3.5-8-6c-2.1-2.2-4.3-4.5-6.4-6.7c-1.7-1.7-3.1-3.5-3.1-6.1c0-0.4-0.2-0.9-0.4-1.3
			c-2-3.8-1.9-4.9,0.8-8.2c2.8-3.4,6.3-5.8,10.3-7.5c7.3-3.2,14.7-6.2,22.1-9.2C835.7,38.7,839.1,38.2,842.6,38.2z"/>
		<path fill="#ffffff" d="M836.3,118.4c3.7-0.6,7.1-2.3,10.3-4.2c1.5-0.9,3.2-3.2,4.9-0.9c1.5,2-0.7,3.5-2,4.7c-5,5-11.1,7.8-18,9
			c-3.4,0.6-6.6,0.2-8.8-2.9c-2.1-3-1.7-6.3,0-9.3c1.3-2.3,1.3-3.1-1.6-3.7c-6.4-1.5-8.6-7.3-5.3-12.9c2.2-3.7,5.2-6.3,9.5-7.2
			c2.3-0.5,4.6-0.2,6.1,2c1.5,2.2,0.5,4.1-0.8,6c-1.2,1.7-2.4,3.3-3.8,5.2c2.9,0.5,5-0.3,6.8-1.9c3-2.6,6.1-5.1,9.3-7.6
			c1.9-1.5,3.9-2.6,6.3-3.1c2.8-0.6,5.4,0.4,6.4,2.4c1.2,2.6,0,4.6-1.8,6.3c-4.1,3.7-8.5,7.2-12.3,11.2c-2,2.1-3.8,4.3-5.7,6.4
			C836,118,836.2,118.2,836.3,118.4z"/>
		<path fill="#ffffff" d="M668.9,97.9c-3.7,0.2-7.4,0.4-11.2,0.6c-1.5,0.1-3.1,0.1-4.6-0.4c-3.4-1-4.7-4.3-2.6-7.3
			c1-1.4,2.4-2.5,4-3.2c11.7-5,23.8-7.7,36.6-6.6c5.3,0.5,8.1,2.9,8.4,6.6c0.3,3.8-2.1,6.5-7.4,8.1c-4.8,1.4-9.8,1.7-14.8,1.8
			c-2.8,0.1-5.6,0-8.4,0C668.9,97.7,668.9,97.8,668.9,97.9z"/>
		<path fill="#ffffff" d="M94.5,22.6c3.2,0,5.6,0.5,7.7,2.2c3.4,2.8,2.9,7.1-0.9,9.2c-1.5,0.8-3.1,1.2-4.7,1.3
			c-10.9,0.3-20,4.8-28,11.9c-0.9,0.8-1.8,1.6-2.8,2.2c-1.6,1-3.3,1.2-4.8-0.1c-1.6-1.3-1.6-3-0.9-4.7c1.7-3.8,4.2-7.1,7.4-9.6
			c7.2-5.6,15.2-9.5,24-11.9C92.6,22.7,93.8,22.7,94.5,22.6z"/>
		<path fill="#ffffff" d="M766.6,82.5c-3.6-0.1-7.9-0.7-12.3-0.5c-2.8,0.2-5.4-0.8-7.6-2.6c-4.5-3.7-3.9-10.1,1.1-13.1
			c2.6-1.5,5.5-1.9,8.4-1.4c3.1,0.5,6.1,0.8,9.2,0.9c4.4,0.2,8.2,1.7,10.8,5.5c1.6,2.4,2.3,5,1,7.7c-1.3,2.7-3.8,3.4-6.6,3.4
			C769.5,82.5,768.4,82.5,766.6,82.5z"/>
		<path fill="#ffffff" d="M750,177.2c-3.6,0.1-5.7-3.3-4.1-6.7c0.6-1.3,1.7-2.4,2.8-3.3c9.3-8.1,18.3-16.6,26.6-25.7
			c1.5-1.6,3.2-3.8,5.7-1.8c2.3,1.9,0.6,4-0.6,5.8c-6.8,10.7-14.8,20.4-24.4,28.7C753.4,176.4,751.8,177.2,750,177.2z"/>
		<path fill="#ffffff" d="M877.7,66.2c-0.1,2.5-1,4.6-2.8,5.8c-3.9,2.7-6.8,6.4-10,9.9c-1.6,1.8-3.5,3.5-5.6,4.8
			c-2.2,1.4-4.4,1.7-6.6,0c-2.1-1.7-2-4-1-6.2c1.4-3.3,3-6.4,5.3-9.1c2.2-2.6,4.5-5.2,6.9-7.7c2.6-2.7,5.7-4.2,9.6-2.9
			C876.2,61.7,877.5,63.6,877.7,66.2z"/>
		<path fill="#ffffff" d="M768.6,109c1.4,0,2.9-0.1,4.3,0c1.3,0.1,2.2,0.9,2.5,2.2c0.3,1.2,0,2.2-0.9,3c-0.7,0.7-1.6,1.2-2.4,1.7
			c-5.3,2.9-10.7,5.3-16.4,7.2c-1.4,0.4-2.8,0.8-4.3,0.8c-3.6,0.2-6.4-1.8-7-4.8c-0.6-3.2,1.2-6.2,4.8-7.1
			C755.6,110.3,762,108.9,768.6,109z"/>
		<path fill="#ffffff" d="M864.3,110.9c-1,6.3-2,12.9-5.2,19c-1.4,2.7-3.5,4.6-6.4,5.6c-1.2,0.4-2.4,0.4-3.3-0.6
			c-0.9-1.1-0.7-2.3,0.1-3.3c4.2-5.5,4.8-12,5.4-18.5c0.2-1.8,0.1-3.6,0.7-5.4c0.8-2.2,2-4,4.7-3.7c2.5,0.2,3.4,2.2,3.8,4.4
			C864.2,109,864.2,109.8,864.3,110.9z"/>
		<path fill="#ffffff" d="M843.4,76.3c0.2,1.3,0,2.6-1.3,3.3c-1.3,0.8-2.7,0.5-3.8-0.5c-3.8-3.4-5.1-7.9-5-12.7
			c0-2.7,2.7-4.5,5.4-4.3c2.7,0.2,4.8,2.3,4.8,5.3c0,1.5-0.3,3.1-0.4,4.6C843.1,73.4,843.3,74.9,843.4,76.3z"/>
	</g>
</g>
<g id="_xFFFD__x9C__x96_撅_xFFFD__17_xA0_影像_3_">
</g>
<g id="_xFFFD__x9C__x96_撅_xFFFD__7_xA0_影像_1_">
</g>
<g id="_xFFFD__x9C__x96_撅_xFFFD__8_xA0_影像_1_">
</g>
<g id="_xFFFD__x9C__x96_撅_xFFFD__9_xA0_影像_1_">
</g>
<g id="_xFFFD__x9C__x96_撅_xFFFD__10_xA0_影像_1_">
</g>
<g id="_xFFFD__x9C__x96_撅_xFFFD__11_xA0_影像_1_">
</g>
<g id="_xFFFD__x9C__x96_撅_xFFFD__12_xA0_影像_1_">
</g>
<g id="_xFFFD__x9C__x96_撅_xFFFD__13_xA0_影像_1_">
</g>
<g id="_xFFFD__x9C__x96_撅_xFFFD__14_xA0_影像_1_">
</g>
<g id="_xFFFD__x9C__x96_撅_xFFFD__15_xA0_影像_1_">
</g>
<g id="_xFFFD__x9C__x96_撅_xFFFD__16_xA0_影像_1_">
</g>
<g id="_xFFFD__x9C__x96_撅_xFFFD__17_xA0_影像_1_">
</g>
</svg>
