<?xml version="1.0" encoding="utf-8"?>
<!-- Generator: Adobe Illustrator 18.0.0, SVG Export Plug-In . SVG Version: 6.00 Build 0)  -->
<!DOCTYPE svg PUBLIC "-//W3C//DTD SVG 1.1//EN" "http://www.w3.org/Graphics/SVG/1.1/DTD/svg11.dtd">
<svg version="1.1" xmlns="http://www.w3.org/2000/svg" xmlns:xlink="http://www.w3.org/1999/xlink" x="0px" y="0px"
	 viewBox="0 0 1263.1 249" enable-background="new 0 0 1263.1 249" xml:space="preserve">

<style>
	#title {
		filter:url(#dropshadow)
	}
</style>
<filter id="dropshadow" height="130%">
  <feGaussianBlur in="SourceAlpha" stdDeviation="8"/> <!-- stdDeviation is how much to blur -->
  <feOffset dx="2" dy="4" result="offsetblur"/> <!-- how much to offset -->
  <feComponentTransfer>
    <feFuncA type="linear" slope="0.2"/> <!-- slope is the opacity of the shadow -->
  </feComponentTransfer>
  <feMerge> 
    <feMergeNode/> <!-- this contains the offset blurred image -->
    <feMergeNode in="SourceGraphic"/> <!-- this contains the element that the filter is applied to -->
  </feMerge>
</filter>
<g id="title">
	<g>
		<path fill="#ffffff" d="M601.8,170.1c-3,0-6.3,0-9.5,0c-1.2,0-2.4,0-3.5-0.1c-3.6-0.3-5.7-1.8-6.3-4.3c-0.6-2.6,0.9-4.9,4.1-6.7
			c2.5-1.4,5.2-2.3,7.9-3.1c7.2-2.2,14.7-3.4,22.1-4.8c3.9-0.7,3.8-0.7,3.9-4.5c0.1-3.7,0.2-7.5,0.5-11.2c0.2-2.3-0.4-3.1-2.9-2.6
			c-4.7,1-9.4,2-14.3,2.2c-4.6,0.2-7.1-0.9-7.9-3.8c-0.8-2.9,0.7-5.7,4.4-7.9c5.8-3.4,12.1-5.4,18.5-7.2c2.4-0.6,3.3-1.8,3.3-4.2
			c0-2.7,0.2-5.5,0.5-8.2c0.2-2.1-0.6-2.8-2.6-2.5c-5.3,0.7-10.6,1.3-16,1.8c-2.7,0.3-5.6,0.8-7.1-2.5c-1.1-2.4,0-5.2,3.1-7.8
			c2.1-1.7,4.4-2.9,6.8-3.9c4.9-2.1,9.9-3.6,15-4.8c1.8-0.4,2.8-1.2,3-3.2c1-9.2,1.9-18.5,4.5-27.4c0.5-1.9-0.5-2-1.9-1.8
			c-10.1,1.7-20,3.7-29.2,8.5c-1.8,0.9-3.5,2-5.6,2c-1.5,0-1.5,1-1.4,2.1c0.5,5,0.7,10,0.6,15c0,1,0.2,1.8,1.1,2.3
			c1.9,1,2.2,2.8,2.1,4.7c-0.2,3.6-0.6,7.2-1.5,10.8c-0.9,3.6-2.8,5.5-5.5,5.6c-2.6,0.1-5-1.5-6.2-4.9c-2.1-5.9-3.7-12-4-18.3
			c-0.5-11.6,1-23,4.1-34.2c0.3-1.1,0.7-2.1,1.5-2.8c1-1,2.1-1.9,3.6-1.3c1.4,0.5,1.8,1.7,2.1,3c0.9,4.2,0.9,4.2,4.3,1.6
			c3.5-2.7,7.4-4.7,11.4-6.3c16.7-6.7,33.9-8.4,51.6-5.2c5.1,0.9,9.8,2.8,14.1,5.6c6.7,4.5,10.5,10.9,10.5,19
			c0,11.1-2.9,21.6-8.7,31.1c-4.2,6.8-10.1,8.7-17.6,6.4c-1.1-0.3-2.1-0.4-3.2-0.1c-4.5,1-9.1,1.9-13.6,2.8c-1.7,0.3-2.6,1-2.7,2.8
			c-0.2,2.8-0.5,5.6-0.9,8.4c-0.3,2.1,0.6,2.5,2.5,2.2c6.4-0.9,12.8-1.7,19.3-0.8c1.8,0.3,3.6,0.4,5.3,1c3.1,1.1,4.9,3.6,4.8,6.5
			c-0.1,2.9-1.7,5.1-5,6.1c-6.5,1.8-13.1,3.1-19.8,3.9c-2.3,0.3-4.7,0.7-7,1c-1.9,0.2-2.7,1.1-2.8,3c-0.4,4.5-0.9,9-1.5,13.5
			c-0.3,2.3,0.9,2.3,2.6,2.1c6.5-0.8,13-1.5,19.5-2.3c7.8-1,15.4-0.1,23.1,0.8c4.2,0.5,6.7,3.2,6.9,6.8c0.2,3.6-2,6.5-6.1,7.6
			c-8,2.1-16.1,3.7-24.4,4.3C635.2,167.2,618.7,168.7,601.8,170.1z M637.5,77c0,0.5-0.1,0.9-0.1,1.4c0,0.9-0.6,2.2,0.7,2.6
			c1.2,0.5,2.3-0.1,3.1-1.2c0.5-0.7,1-1.5,1.5-2.3c2.6-4.4,5.2-8.8,7.7-13.1c0.9-1.6,1.9-3.1,3.4-4.2c2-1.5,4.1-2.1,6.3-0.6
			c2.2,1.5,2.9,3.7,2.2,6.2c-0.5,2.1-1.8,3.7-3.1,5.4c-1.7,2.1-3.3,4.3-4.9,6.5c-0.4,0.5-1.1,1.2-0.2,1.8c1.1,0.8,5.8-0.3,6.3-1.5
			c2.1-5.5,3.2-11.2,2.9-17.1c-0.2-3.7-2.2-6.2-5.7-7.5c-5.4-2-11.1-2.6-16.9-2.6c-1.4,0-2.2,0.5-2.1,2.1
			C638.9,60.9,638,68.9,637.5,77z"/>
		<path fill="#ffffff" d="M776.1,202.9c-4.7,0.1-9.3-0.4-13.8-1.4c-18.5-4.2-29.2-17.2-28.7-36.1c0.5-17,5.1-33,14.3-47.5
			c0.4-0.6,1.3-1.1,0.6-1.8c-0.5-0.6-1.4-0.1-2.1,0.1c-4.7,1.6-9.3,3.2-13.9,4.8c-4,1.4-6.4,1-7.6-1.2c-1.2-2.3-0.1-4.9,3.3-7.2
			c8.4-5.7,17.7-9.4,27.5-11.6c5.6-1.3,9.2-3.6,12.7-8.5c5.6-7.9,8.9-16.6,12.1-25.5c1.7-4.7,0.7-5.9-4.3-6
			c-8.3-0.1-16.1,2.4-23.9,4.8c-1,0.3-1.6,1.2-1.9,2.2c-0.8,2.2-1.6,4.4-2.4,6.7c-0.5,1.5-0.9,3.2-1.6,4.6c-1.1,2.3-3,3.4-5.6,2.9
			c-2.6-0.5-3.7-2.4-3.9-4.9c-0.1-1.7,0.4-3.2,0.9-4.8c1.7-4.8,3.3-9.6,5.1-14.4c2-5.5,5.1-10.2,9-14.5c0.6-0.6,1.2-1.2,1.8-1.6
			c1.9-1.4,4-2.5,6.2-0.9c2.1,1.6,1.3,3.7,0.6,5.7c-0.5,1.5-1.1,2.9-1.7,4.3c-0.8,1.8-0.2,2.4,1.7,1.9c3.7-1,7.4-1.8,11.2-2.2
			c4.5-0.5,8.9-0.5,13.3,0.5c7.1,1.7,11.1,6.5,11.3,13.8c0.2,5.1-1.4,9.8-3.7,14.4c-2.3,4.8-5.4,9.3-8.3,13.7
			c-2.5,3.7-2.5,3.8,1.9,4.1c4.8,0.3,9.4,1.3,13.7,3.5c9.9,5,14.6,14.6,12.2,25.4c-1.4,6.4-3.7,12.6-7.6,18
			c-3.5,4.8-8.2,7.1-14.2,5.9c-1.4-0.3-2.8-0.6-3.6-1.8c-1.2-1.8-2.6-1.5-4.3-0.9c-7.1,2.2-13.9,5.5-21.2,7.2
			c-2.7,0.6-5.5,1.4-8.3,1.7c-2.1,0.3-2.7,1.2-2.9,3.1c-0.2,3.1-0.3,6.2,0.1,9.2c1.1,8.4,5.3,13.1,13.6,14.9
			c7.5,1.7,15,0.8,22.4-0.8c5.4-1.1,10.5-3,15.4-5.5c3.5-1.8,7-3.5,10.7-4.8c1.7-0.6,3.5-1.1,5.3-1.1c4.2,0,7.5,1.6,9.3,5.5
			c1.7,3.8,0.7,7.4-2.1,10.3c-3.9,4.1-8.7,6.9-13.9,8.9C799.8,200.4,788.2,202.7,776.1,202.9z M794.4,123.3
			c0.1-7.1-1.7-10.1-6.9-11.7c-2-0.6-3.3-0.6-3.5,2c0,0.9-0.7,1.8-1.2,2.7c-2.7,4.8-5.4,9.6-8.1,14.5c-0.4,0.7-1.1,1.5-0.5,2.2
			c0.6,0.7,1.5,0.1,2.3-0.1c4.1-1.1,8.2-2.2,12.5-2.6c5.1-0.5,5.1-0.4,5.4-5.7C794.4,124.2,794.4,123.8,794.4,123.3z M753.6,137.6
			c0.1,1.3,0.2,1.5,1.1,1.6c2.7,0.1,8.2-3.5,9.3-6c2.9-6.7,3.9-14.2,7.8-20.6c0.6-1,0-1.6-1.1-1.5c-3.6,0.3-7.2,0.8-10.7,1.7
			c-1,0.2-1.4,0.8-1,1.8c0.9,1.9,0.2,3.7-0.3,5.5C756.9,125.9,755.2,131.8,753.6,137.6z"/>
		<path fill="#ffffff" d="M131.2,56.4c-11.6,0.9-11.6,0.9-16.6,11.4c-0.9,1.9-1.6,3.9-3,5.5c-2.5,2.9-5.7,2.7-7.5-0.7
			c-1.1-2-2.1-4.1-2-6.4c0.5-11.3,2.4-22.2,8.7-31.9c1.6-2.5,3.3-5,5.5-7.1c2-1.9,4.2-3.3,7.1-2.1c3,1.2,3.7,3.8,3.7,6.7
			c0,2.7-0.5,5.4-1.2,8.1c-0.4,1.5-0.1,2.3,1.7,1.9c0.3-0.1,0.5-0.1,0.8-0.1c15.9-3.4,29.1,9.2,25.6,27.5c-1,5.3-3.3,10.2-6.2,14.7
			c-1,1.5-1,2.4,0.9,2.9c9.4,2.8,13.7,9.4,14.5,18.9c0.8,9.5-0.9,18.6-4.2,27.5c-0.8,2.1-1.1,3.9-0.4,6.3c1.7,5.2-2.8,10-8.7,9.4
			c-2.1-0.2-4.4-0.3-6.4-1.2c-1.1-0.5-2.1-0.1-3.2,0.1c-9.1,1.6-18,4.4-27.3,5.3c-2.3,0.2-4.5,0.5-6.8,0.4c-4.1-0.2-6.3-2.4-6.8-6.4
			c-0.2-1.8-0.8-3.5-1.5-5.2c-4.9-12.8-4.1-25.8-1-38.9c0.5-2,1.4-3.8,2.8-5.2c1.9-1.9,4.2-2.7,6.7-1.3c1.6,0.9,2.5,0.5,3.8-0.6
			c4.9-4.4,10.6-7.4,16.8-9.2c2.1-0.6,3.4-1.8,4.7-3.4c4.8-5.8,6.3-12.6,6.5-19.8C138.3,57.1,137,55.9,131.2,56.4z M111.1,109.8
			c0.1,1.5,0.3,2.8,0.4,4c0.1,2,0.6,2.7,2.6,1.4c1.2-0.8,2.5-1.8,3.8-1.9c7-0.7,8.4-5.3,8.4-11.2c0-2-0.2-2.8-2.3-1.8
			c-3.9,1.9-7.7,3.9-11.4,6.3C111.4,107.5,110.8,108.5,111.1,109.8z M149.3,103.8c-0.2-2.3,0.2-4.9-2.6-6c-2.2-0.9-4.5-1.2-6.9-1.3
			c-1.2-0.1-1.8,0.4-1.9,1.7c-0.2,2.7-0.4,5.4-0.7,8.1c-0.2,1.8,0.5,2.2,2.1,2c2.2-0.4,4.5-0.9,6.7-0.8
			C148.9,107.5,149.6,106.2,149.3,103.8z M134.7,133c5.1-0.4,10-4.9,11.1-10.1c0.4-1.8-0.3-1.9-1.7-1.5c-1.6,0.5-3.3,1.3-4.9,1.5
			c-4.5,0.4-6.5,2.7-7,7.2C131.8,133.3,131.5,133.2,134.7,133z M123,127.9c0.3-1.4-0.4-1.7-1.7-1.6c-2.2,0.3-4.5,0.6-6.7,0.8
			c-1.1,0.1-1.2,0.8-1.3,1.7c-0.3,7.1,0.8,7.9,7.5,5.7c0.8-0.3,1.6-0.5,1.7-1.5C122.7,131.3,122.8,129.6,123,127.9z"/>
		<path fill="#ffffff" d="M1096.4,74.1c-0.1,1.7-0.3,3.6-0.3,5.6c0,1-0.7,2.5,0.7,2.8c1.3,0.3,1.7-1.2,2.2-2.1
			c2.1-3.8,4.2-7.6,5.7-11.8c0.6-1.6,1.3-3.2,2.6-4.4c1.3-1.2,2.7-1.9,4.5-1.2c1.8,0.7,2.2,2.2,2.3,4c0,1.8-0.5,3.4-1.2,5
			c-1.2,2.5-2.6,5-3.8,7.5c-0.4,0.7-1.4,1.6-0.2,2.3c0.9,0.5,1.9,0.5,2.8-0.3c1-0.9,1.7-1.9,2.2-3.1c2.3-5.2,3.3-10.8,3.3-16.4
			c0-3.7-1.1-4.8-4.7-5.5c-7.3-1.4-14.5-0.3-21.7,0.7c-7,1-13.6,3.2-20.2,5.4c-1.5,0.5-2.5,1.3-2.3,3.1c0.5,4.7-0.2,9.4-0.8,14.1
			c-0.2,1.8-0.1,3.5,0.7,5.3c1.2,2.7,0.8,5.6-0.4,8.2c-1.1,2.4-3.8,3-6,1.6c-1.2-0.8-2-1.9-2.5-3.1c-4-9.7-5.5-19.6-2.4-29.8
			c1.1-3.6,2.8-6.6,7.4-6c0.8,0.1,1.4-0.4,1.9-0.9c3.1-3.1,6.9-5,11-6.4c10.7-3.7,21.7-5.3,32.9-5.5c0.5,0,1.1,0,1.6,0
			c15.5,0.8,22.6,10.4,18.6,25.5c-1.6,6.1-4.6,11.7-8.2,16.8c-2.2,3.2-5.4,4.8-9.3,4.6c-0.9,0-1.8,0.1-2.7,0.4
			c-4.2,1.6-8.5,3.3-12.7,4.8c-1.5,0.5-2.2,1.3-2.2,2.9c-0.1,2.5-0.2,5.1-0.4,7.6c-0.2,2.2,0.7,2.7,2.7,2.2
			c4.5-1.2,9.2-1.2,13.8-1.1c1.3,0,2.6,0.2,3.8,0.5c4.7,1.5,5.9,6.7,2.3,10.1c-1.5,1.5-3.3,2.6-5.5,2.8c-6,0.5-11.2,3.7-17,4.8
			c-1.3,0.3-1.6,1.3-1.7,2.5c-0.3,2.9-0.6,5.8-0.8,8.7c-0.2,2.2,1.3,1.5,2.4,1.2c5.3-1.3,10.6-2.6,16-3.5c2-0.3,4-0.4,6,0
			c3,0.7,5.2,2.2,6,5.3c0.8,3.2-0.4,5.7-2.8,7.7c-2.4,2-5.2,3-8.1,3.7c-13.7,3.7-27.7,6.1-41.5,9.5c-1.1,0.3-2.3,0.6-3.4,0.9
			c-2.9,0.6-4.8-0.8-4.9-3.8c-0.1-2.7,1.1-4.9,2.9-6.9c1.8-2,4-3.5,6.3-4.7c3.2-1.7,6.6-3.1,10.1-4.2c2.1-0.7,3.1-1.4,2.1-3.8
			c-0.9-2.1-0.9-4.4-0.4-6.7c0.6-2.6,0-3.1-2.7-2.6c-1.9,0.3-3.8,0.7-5.7,0.6c-2.1-0.1-4-0.8-4.8-2.9c-0.9-2.1-0.1-3.9,1.3-5.5
			c2.3-2.5,5.2-4.4,8.3-5.6c3.1-1.2,4.3-3.1,4.2-6.4c-0.1-2.4,0.3-4.9,0.5-7.3c0.1-1.6-0.5-2.1-2.1-1.8c-2.6,0.5-5.2,0.9-7.8,1.3
			c-2,0.3-3.9,0.2-5-1.9c-1-2-0.4-3.9,0.9-5.6c2.6-3.1,6.1-4.8,9.7-6.3c1.5-0.7,3.1-1.1,4.6-1.7c0.8-0.3,1.4-0.9,1.4-1.8
			c0-1.2-0.9-1.2-1.7-1.3c-2.5-0.3-4.2-1.7-5.3-3.9c-1.2-2.4-2-5-2.6-7.7c-0.2-1.2-0.1-2.4,0.3-3.5c0.7-1.6,1.8-2.7,3.7-2.8
			c1.9,0,3.1,1,3.7,2.7c0.6,2,0.9,4.1,1.5,6.1c0.2,0.6,0.4,1.6,1.3,1.5c0.7-0.1,0.7-1,0.8-1.6c0.8-3.3,1.6-6.5,2.5-9.8
			c0.4-1.6,1.1-3.3,3.2-3.2c2.1,0.1,2.5,1.9,2.8,3.5C1096.6,67.2,1096.5,70.6,1096.4,74.1z"/>
		<path fill="#ffffff" d="M1023,103.8c-1.1,22.7-3.2,45.3-8.6,67.5c-0.6,2.3-0.8,4.7-1.3,7c-0.6,2.4-1.9,4.2-4.6,4.2
			c-2.2,0-4.3-1.9-4.3-4.8c0-3.2-1.4-3.3-4-3c-14.6,1.5-29.3,2.4-43.9,4.9c-17.2,2.9-34.4,5.8-51.5,9.2c-5.5,1.1-11.1,1.9-16.8,1.8
			c-11.8-0.1-19.8-5.5-24.2-16.4c-2.9-7.1-4.2-14.7-5.3-22.2c-1.6-11.6-2.1-23.2-0.8-34.8c0.1-1.3,0.5-2.7,0.8-4
			c0.3-1.1,0.9-2.1,2.3-2c1.4,0.1,1.7,1.2,1.8,2.4c0.5,4.8,1,9.6,1.6,14.4c1.4,10.8,3.4,21.5,6.5,32c1,3.5,2.2,6.9,4.1,10.1
			c2.3,4,5.8,5.9,10.3,6c4.1,0.2,8.1-0.7,12.2-1.4c26.3-5.2,52.7-9.9,79.3-13c8-1,16.1-1.8,24.2-1.4c2,0.1,2.9-0.6,3-2.5
			c0.2-3.1,0.5-6.2,0.6-9.2c0.6-17.8,3.6-35.4,5.8-53.1c0.4-3.2,0.8-6.5,1.3-9.7c0.2-1.3,0.4-2.5,0.8-3.7c0.7-2.2,1.5-4.5,4.3-4.6
			c2.9-0.1,3.9,2.3,4.7,4.5c1,3,1.5,6.2,1.6,9.4C1023.1,95.4,1023,99.6,1023,103.8z"/>
		<path fill="#ffffff" d="M273.8,74.7c-3.4,0.2-6.7,0.5-10.1,0.1c-5-0.6-6.8-4.9-3.7-8.9c2.1-2.7,5.1-4.3,8.2-5.7
			c4.5-2,9.2-3.6,13.9-4.8c1.9-0.5,2.7-1.4,2.8-3.3c0.3-4.2,0.9-8.3,1.5-12.5c0.4-3.3,2-5,4.4-5.1c2.5-0.1,4.4,1.7,4.8,5
			c0.4,3.1,0.5,6.2,0.5,9.2c0,2.4,0.6,3.3,3.2,2.8c3.6-0.7,7.2-1.2,10.8-1.6c1.8-0.2,2.7-0.9,3-2.8c0.3-2.5,0.9-5,1.4-7.5
			c0.7-3.2,2.7-5.7,4.9-8.1c0.8-0.8,1.6-1.6,2.8-1.2c1.2,0.3,1.6,1.4,1.9,2.5c0.9,4,1,8.1,0.3,12.2c-0.6,3.8-0.5,3.8,3.3,4.2
			c3.8,0.4,7.6,0.8,11.3,1.5c4,0.7,6.2,3.3,6.5,6.7c0.2,3.4-1.6,6.4-5.3,7.7c-5.4,1.9-10.9,3.5-16.6,4.4c-1.9,0.3-2.6,1.1-2.9,2.9
			c-1.3,6.5-1.3,6.5,5.1,6.9c2.4,0.1,4.9,0.3,7.3,0.7c4.3,0.7,6.6,2.9,6.9,6.2c0.3,3.4-1.7,6.2-6,7.3c-4.2,1.1-8.5,1.8-12.8,2.4
			c-14.4,2-28.8,4-43.2,5.9c-2.5,0.3-5.1,0.5-7.6,0.2c-2.7-0.3-4.7-1.5-5.3-4.3c-0.6-2.8,1-4.7,3.3-5.9c4.5-2.3,9.3-3.8,14.1-5
			c2.8-0.7,3.6-2,3-4.6c-0.2-1.1-0.2-2.3-0.4-3.5c-0.5-4.8,0.3-4.6-5.2-4.3C278,74.4,275.9,74.5,273.8,74.7z M295,81.5
			c-0.3,1.3,0.3,1.9,1.8,1.5c1.5-0.3,3-0.8,4.5-0.9c5.8-0.5,6.4-3.6,7.7-8.9c0.2-1,0-1.9-1.3-1.8c-3.7,0.4-7.7,0.2-10.9,1.7
			c-2.2,1.1-1.1,5.2-1.7,7.8C295,81.2,295,81.3,295,81.5z"/>
		<path fill="#ffffff" d="M421.5,107.9c1.1-0.2,1.5-1.3,2.1-2c3.2-3.8,7.2-6.7,11.9-8.5c7.4-2.8,13.7-0.4,17.6,6.5
			c3,5.5,4,11.4,4.5,17.6c0.8,9.7-0.9,19-4.9,27.9c-1.7,3.7-3.9,6.9-8.8,6.3c-0.8-0.1-1.4,0.4-1.9,0.9c-2.1,2.3-4.8,3.6-7.6,4.6
			c-5.3,1.8-10.3,4.7-15.7,6.2c-1,0.3-1.3,1.1-1.5,2.1c-0.2,1.1-0.3,2.2-0.6,3.2c-0.7,2.1-2,3.4-4.2,3.8c-2.3,0.4-4.1-0.6-5.4-2.5
			c-1.1-1.5-1.5-3.3-1.8-5.1c-5.5-25.8-3.6-51.5,1.7-77.1c1.3-6.3,3.5-12.4,7.1-17.9c1.5-2.2,3.2-4.2,5.9-5c2.1-0.6,4-0.2,5.5,1.4
			c1.4,1.5,0.5,3-0.2,4.5c-0.5,1.2-0.8,2.6-1,3.9c-1.5,8.9-2.1,17.9-3,26.8C421,106.4,420.8,107.3,421.5,107.9z M442.7,119.9
			c0-3.7,0.1-6.7-0.6-9.5c-0.8-3-1.8-3.6-4.7-2.4c-4.8,1.9-8.5,5.2-11.8,9c-0.8,0.9-1.4,2.1-2.7,2.2c-2.4,0.1-2.7,1.5-2.8,3.4
			c-0.7,11.6-0.8,23.2-2,34.8c-0.2,2,0.5,2.5,2.3,1.5c5.6-3,11.4-5.6,17.6-7.2c1.3-0.3,1.9-1.1,2.1-2.5c0.4-4.1,0.9-8.1,1.3-12.2
			c0.4-4.5-1.4-5.8-5.7-4.1c-2.9,1.1-5.7,2.4-8.6,3.5c-1.7,0.6-3.9,1.8-5-0.6c-1.1-2.2,0.6-3.7,2.2-5c0.6-0.5,1.3-1,2.1-1.3
			c4.2-1.9,8.7-2.5,13.3-2.3c2,0.1,2.6-0.5,2.7-2.3C442.5,123.1,442.6,121.1,442.7,119.9z"/>
		<path fill="#ffffff" d="M315,206c-7.1,0-13.7-1.8-19.8-5.2c-10.1-5.6-15.3-15.9-13.9-27.4c0.9-7.8,3.8-14.9,7.3-21.9
			c0.8-1.6,1.4-3.1,1-4.9c-0.4-2.4,0.6-4.5,2.3-6.2c4.4-4.4,9.7-6.7,15.9-6.5c4.6,0.2,7.8,2.6,9.5,6.9c2.4,6.2,0.4,14.6-4.6,19
			c-4.9,4.4-9.6,3.1-11.5-3.2c-0.2-0.7-0.1-1.9-1.1-1.9c-1,0-1,1.1-1.2,1.9c-1.4,5.1-2.6,10.2-3,15.5c-0.4,4.8,0.9,6.9,5.5,8.5
			c8.2,2.9,16.2,2.5,23.9-1.8c4.5-2.5,8.2-6,12-9.4c2.6-2.3,5-4.8,7.8-6.8c4.5-3.3,9.5-1.9,12,3.2c0.7,1.5,1,3.1,1.1,4.7
			c0.1,2.8-0.5,5.4-1.5,8C351.3,190.9,334,206.4,315,206z M302.4,147.9c-0.2,2-0.3,3.4,0.5,4.7c0.6,1,1.4,1.3,2.1,0.2
			c1.3-2.1,2.1-4.4,2.2-6.9c0.1-1.5-1-2-2.3-2.1c-1.4-0.1-2.3,0.3-2.4,1.9C302.5,146.6,302.4,147.6,302.4,147.9z"/>
		<path fill="#ffffff" d="M1185.3,110.3c-1.1,0.7-1.1,1.8-1.4,2.7c-3.2,10.4-7.7,20.2-12.7,29.8c-2.2,4.2-5.1,8-8.2,11.5
			c-2.2,2.4-4.8,2.9-6.8,1.6c-2-1.4-2.2-3.5-1.1-6.6c4.6-12.4,10.5-24.2,16.1-36.1c1.9-3.9,3.5-8,5.1-12c1.2-2.9,1.1-3-2.1-2.4
			c-4.7,0.8-9.3,1.7-14,2.3c-3.2,0.4-6.5,0.5-9.8,0.7c-1.2,0.1-2.4-0.2-2.9-1.5c-0.5-1.4,0.3-2.4,1.4-3.2c1.5-1.1,3.2-1.7,4.9-2.3
			c7.8-2.7,15.8-4.9,23.9-6.5c2.4-0.5,3.5-1.6,4-3.9c1.1-4.5,2.4-8.9,3.7-13.4c0.6-1.9,1.2-3.8,2.5-5.4c0.6-0.8,1.4-1.5,2.6-1.1
			c1.2,0.4,1.2,1.4,1.1,2.5c-0.2,5.5-0.4,10.9-1.2,16.3c-0.3,2,0.2,2.6,2.2,2.3c5.7-1,11.4-0.9,17.1-1c1.2,0,2.4,0.1,3.5,0.3
			c1.6,0.3,2.8,1.4,3,3.1c0.3,1.9-0.7,3.2-2.2,4c-1.5,0.8-3.1,1.1-4.7,1.3c-6.2,1.1-12.4,2.2-18.5,3.1c-1.7,0.3-2.2,0.4-1.2,2.3
			c6.3,12,14.6,22.3,24.7,31.3c5,4.4,9.5,9.3,13.6,14.5c1.4,1.8,2.6,3.7,3.4,5.9c1.8,4.9-1.7,9.2-6.9,8.2c-2.5-0.4-4.7-1.5-6.7-3
			c-2.5-1.8-4.8-3.8-6.9-6.1c-5.6-6.2-10.9-12.6-16-19.3c-3.9-5.2-6.7-11-8.8-17.1C1185.9,112,1185.6,111.2,1185.3,110.3z"/>
		<path fill="#ffffff" d="M998.1,109.8c-0.1,9.8-1,19.4-4.3,28.7c-0.7,1.9-1.2,3.8-2.4,5.5c-1.4,2-3.2,3.2-5.7,3
			c-2.6-0.3-4.3-1.9-5.1-4.4c-0.6-1.8-1-3.7-1.1-5.6c0-5.7-0.6-11.4,0.5-17.1c0.1-0.8,0.7-1.8-0.1-2.3c-0.8-0.5-1.5,0.3-2.2,0.6
			c-1.8,0.8-3.7,1.4-5.7,1.8c-5.7,1.1-10.3-1.7-11.9-7.3c-1.1-3.7-0.5-7.4,0.7-11c1.1-3.3,2.6-6.4,4.2-9.4c0.6-1.1,0.7-1.8-0.8-2.5
			c-5.7-2.7-8.3-7-7.2-13.1c1.5-8.8,5.9-16.1,12.4-22.2c1.4-1.3,3.2-2.3,5.2-1.2c1.9,1.1,1.7,3.1,1.3,4.9c-1,5-2.1,9.9-3.1,14.9
			c-0.2,1-0.9,2.3,0.4,2.9c1.3,0.6,2.5-0.2,3.4-1.2c1.8-2,3.5-4,5.9-5.2c1.8-0.9,3.7-1.5,5.4-0.3c1.8,1.2,1.3,3.2,1,5
			c-0.8,4.3-2.6,8.3-4.6,12.2c-3,6-6,12-8.4,18.3c-0.3,0.7-0.9,1.6-0.3,2.3c0.6,0.7,1.6,0.3,2.3,0c3.2-0.9,5.7-2.6,6.6-6.1
			c0.8-3,1.9-5.9,3.4-8.6c1.2-2.2,2.6-4.4,5.6-3.9c2.9,0.5,3.7,2.9,4.2,5.4C998.9,99.3,998.4,104.5,998.1,109.8z"/>
		<path fill="#ffffff" d="M541.7,109c-0.3,10.4-4.3,19.9-10.1,28.6c-4,5.9-8.7,11.2-13.8,16.2c-1.8,1.7-3.7,3.2-6.1,4
			c-3.4,1-6.8-0.1-8.4-2.8c-1.5-2.6-0.9-5.8,1.8-6.7c4.2-1.3,6.6-4.6,9.1-7.8c0.4-0.5,0.8-1,1.1-1.6c0.9-1.5,2.4-3,2.6-4.7
			c0.3-2-2.4-2.1-3.5-3.4c-2.2-2.6-4.7-5.1-6.9-7.7c-1-1.2-1.7-2.6-2.3-4c-1.1-2.8-1.7-5.7,0.7-8.2c1.8-2,5.3-2.1,8.7-0.4
			c3.8,1.8,6.2,5.2,9.1,8.1c1.9,1.9,2.2,1.9,3.2-0.7c1.8-4.5,3.3-9.1,3.3-14c0-7.9-4.7-11.7-12.4-10c-5.4,1.2-10.2,3.7-14.5,7.1
			c-1.8,1.5-2.9,3.4-3.8,5.6c-1.4,3.5-2.9,6.9-5.4,9.7c-1.2,1.3-2.4,2.7-4.4,2.1c-2.1-0.7-2.4-2.6-2.5-4.4c-0.1-1.8-0.1-3.7,0.3-5.4
			c2.3-10,5-19.9,9.4-29.3c0.8-1.7,1.6-3.5,3-4.8c1.9-1.9,4.2-1.5,5.2,1c0.9,2.2,0.9,4.6,0.7,7c-0.2,3.3-0.8,6.5-1.6,9.7
			c-0.1,0.6-0.5,1.4,0.1,1.8c0.8,0.6,1.3-0.3,1.8-0.7c4-3.1,8.3-5.5,13.3-6.5c9.7-2.1,17.3,2.3,20.5,11.7
			C541.2,101.9,541.7,105.3,541.7,109z"/>
		<path fill="#ffffff" d="M886.2,78.2c-0.1,3-0.3,6-0.4,9c0,0.9,0,2,1,2.3c1.2,0.4,1.5-0.7,2-1.4c1.9-3.1,3.8-6.2,6.1-9.1
			c1.3-1.6,2.8-3.2,4.8-4c3.5-1.4,6.5,0.6,6.5,4.4c0,2.5-0.9,4.8-1.8,7.1c-1.9,4.7-3.9,9.4-5.9,14.1c-3,7-5.6,14.2-7.5,21.6
			c-0.2,0.7-0.8,1.8,0.2,2.2c0.9,0.4,1.3-0.7,1.7-1.4c0.7-1.1,1.2-2.3,1.8-3.3c0.7-1.1,1.6-1.7,3-1.5c1.4,0.2,2.2,1.2,2.6,2.5
			c1.7,5.8-2.2,13.6-7.9,15.7c-5.6,2-12.1-1-14.8-7c-1.8-3.9-1.7-8-1-12c0.7-4.2,2.1-8.3,3.8-12.2c1-2.1,0.9-3.2-1.6-4.3
			c-7.5-3.2-11-9.4-10.3-17.4c0.5-6.1,2.6-11.7,6-16.7c0.6-0.9,1.3-1.7,2.2-2.4c3.9-3.4,8.7-1.8,9.6,3.4c0.3,1.8,0.2,3.6,0.2,5.4
			C886.3,74.7,886.3,76.4,886.2,78.2C886.3,78.2,886.2,78.2,886.2,78.2z"/>
		<path fill="#ffffff" d="M942.8,93.8c-0.8,17.7-0.8,35.4-3.1,53c-0.6,4.3-2.2,6.6-5,6.7c-2.9,0-4.7-2.2-5.2-6.5
			c-3-26.6-0.8-53,4.1-79.2c0.6-3.4,1.7-6.7,3.3-9.8c1-1.9,2.2-3.9,4.7-3.2c2.4,0.6,2.3,2.8,2.3,4.7c0.2,10.2-0.7,20.3-1.1,30.5
			C942.8,91.3,942.8,92.5,942.8,93.8z"/>
		<path fill="#ffffff" d="M256.1,169.1c-2.1,0.1-3.8-1.5-4.1-3.9c-0.2-1.7,0.4-3.2,1.2-4.7c10.6-19.7,23.5-37.5,39-53.7
			c1.3-1.3,2.6-3.5,4.7-2.2c2.3,1.4,1.1,3.8,0.5,5.7c-1.4,4.1-3.5,7.8-5.7,11.4c-9.4,15.7-19.6,30.9-31.5,44.8
			C259,167.8,257.9,169,256.1,169.1z"/>
		<path fill="#ffffff" d="M355.7,134.6c-2-0.3-5-0.6-7.9-1.2c-8-1.7-15.9-3.6-23.9-5.4c-1.6-0.4-3.1-0.9-4.6-1.6
			c-2-1-3.3-2.6-3.3-4.9c0-2.4,1.3-4.1,3.3-5.2c1.8-1,3.7-1.6,5.7-1.8c11.7-1.3,23.2-0.6,33.9,5c1,0.5,2.1,1.2,2.9,1.9
			c2.5,2.2,3.3,5.7,2.2,8.7C362.9,133.1,360.2,134.7,355.7,134.6z"/>
		<path fill="#ffffff" d="M238.1,91.8c-11.7-0.5-20.6-6.1-27.4-15.2c-2.5-3.4-2.8-6.6-1-9.4c1.8-2.8,5.5-4.1,9.5-2.8
			c6.2,1.9,12.1,4.5,17.2,8.7c2.8,2.3,5.6,4.6,7.7,7.6c1.7,2.4,2.1,5.1,0.6,7.7C243.3,91.1,240.8,91.8,238.1,91.8z"/>
		<path fill="#ffffff" d="M207.7,188.5c-4.4-0.1-7.1-3.6-6.2-7.9c0.6-2.8,2.2-5.3,4.3-7.1c7.5-6.6,14.2-14,21.5-20.8
			c2.3-2.1,4.9-3.8,7.9-4.8c1.9-0.6,3.6-0.5,5,1.1c1.3,1.6,1.2,3.4,0.4,5.1c-0.9,1.9-2.3,3.5-3.7,5c-5.1,5.8-9.8,11.9-14.3,18.2
			c-2.4,3.3-5.3,6.2-8.5,8.7C212.1,187.5,209.9,188.4,207.7,188.5z"/>
		<path fill="#ffffff" d="M26,194.1c0-1.7,0.6-3.2,1.5-4.6c8.6-12.4,16.8-25.1,27.9-35.5c0.9-0.8,1.7-1.7,2.6-2.4
			c2-1.6,4.1-1.5,5.9,0.2c1.9,1.7,1.3,3.5,0.2,5.4c-4.2,7.3-9.8,13.6-14.6,20.4c-4.1,5.9-8.5,11.6-12.7,17.4
			c-0.9,1.2-1.9,2.4-3.3,3.3c-1.6,1.1-3.4,1.4-5.2,0.4C26.8,197.6,26.1,196,26,194.1z"/>
		<path fill="#ffffff" d="M181,184.4c-0.1,3-1.4,5.7-4.3,7.4c-3.1,1.8-6.3,1.6-9.3-0.1c-2.4-1.3-4-3.4-5.2-5.8
			c-2.5-4.6-5.1-9.2-8.5-13.3c-0.9-1.1-1.5-2.3-1.7-3.7c-0.8-4.4,2.6-7.7,7-6.9c1.4,0.3,2.8,0.9,3.9,1.8c4.9,3.9,9.9,7.7,14.3,12.1
			C179.4,178.2,180.9,180.8,181,184.4z"/>
		<path fill="#ffffff" d="M60.3,78.9c-0.1,4.8-3.7,7.8-8.1,6.9c-2.8-0.6-5.3-1.8-7.8-3.1c-4.7-2.5-8.9-5.6-13.1-8.8
			c-1-0.8-1.9-1.7-2.6-2.8c-1.7-2.7-1.9-5.5-0.2-8.2c1.7-2.8,4.4-3.9,7.7-3.5c2.1,0.2,3.9,1.3,5.6,2.6c5,3.7,10.1,7.4,15.1,11.1
			C59.1,74.6,60.3,76.7,60.3,78.9z"/>
		<path fill="#ffffff" d="M627.5,200.4c0,1.5,0.2,4.2,0,6.9c-0.3,3.8-2.3,6.2-5.1,6.5c-2.8,0.3-5.6-1.6-6.4-5.2
			c-1.5-7.1-3.2-14.2-2.7-21.6c0.1-1.7,0.4-3.4,1-5.1c0.8-2.2,2.1-4.1,4.7-4.4c2.6-0.3,4.3,1,5.8,2.9c1.6,2.2,2.4,4.7,2.8,7.3
			C628.2,191.5,628,195.3,627.5,200.4z"/>
		<path fill="#ffffff" d="M587.5,185.6c-0.7,5.7-2.6,11.6-6,16.8c-3,4.7-6.9,8.7-11,12.4c-1.9,1.6-3.9,2.8-6.4,1.1
			c-1.9-1.3-2.5-3.9-1.1-6.7c4.6-9.4,9.8-18.5,16.8-26.3c0.4-0.4,0.8-0.8,1.2-1.1c1.3-1.1,2.8-1.9,4.5-1.1
			C587.2,181.6,587.5,183.3,587.5,185.6z"/>
		<path fill="#ffffff" d="M42.6,113.2c2.1,0.1,4.2,0.4,6.3,0.3c4.3-0.2,7.2,2.3,9.9,5c2.1,2.1,1.1,5.4-1.8,7.1
			c-3.1,1.7-6.5,2.9-10.1,3c-4.4,0.1-8.7-0.2-13-0.7c-0.3,0-0.5-0.1-0.8-0.1c-4.4-0.9-7-3.4-7-6.8c0-3.5,3-6.7,7.1-7.5
			c0.6-0.1,1.3-0.2,1.9-0.2C37.6,113.3,40.1,113.3,42.6,113.2C42.6,113.3,42.6,113.3,42.6,113.2z"/>
		<path fill="#ffffff" d="M76.4,194.4c0.2-0.8,0.3-1.6,0.5-2.4c2.1-7.5,5.9-14.1,10.8-20c2.5-3,6-3.8,8.8-2.3c2.9,1.5,4.1,5,3.2,8.8
			c-0.6,2.2-1.7,4.2-3.1,6c-2.5,3.5-5.1,6.9-7.6,10.3c-1.2,1.6-2.6,2.9-4.4,3.9c-1.8,1.1-3.7,1.8-5.6,0.6
			C77,198.4,76.4,196.5,76.4,194.4z"/>
		<path fill="#ffffff" d="M1228.4,57.8c-0.1,3-0.7,5.8-3.6,7.2c-2.9,1.5-5.5,0.3-7.9-1.4c-6-4.3-10.4-16.1-8.7-23.2
			c1.1-4.4,4.9-6.3,8.2-3.6C1223.1,42.2,1227.2,49.2,1228.4,57.8z"/>
		<path fill="#ffffff" d="M1069.8,187.6c-0.4,8.6-2.5,16.7-7.7,23.9c-1.8,2.5-4,3.4-6.3,2.6c-2.2-0.8-3.4-2.9-3.3-6
			c0.2-8.9,3.4-16.8,7.5-24.5c1.3-2.3,2.9-4.3,6-3.7c2.3,0.5,3.6,2.5,3.8,5.9C1069.8,186.4,1069.8,186.9,1069.8,187.6z"/>
		<path fill="#ffffff" d="M901.6,125.1c-0.2-3.8,0.2-8.9,1.3-14c0.2-0.8,0.4-1.6,0.7-2.3c0.8-2.2,2-4.2,4.7-4.2
			c2.7,0.1,3.9,2.1,4.5,4.4c1,3.5,1.1,7.1,1.2,10.8c0.1,5.6-0.5,11.2-1.3,16.8c-0.4,3.3-2.6,5.3-5.3,5.2c-2.6-0.1-4.6-2-5-5.2
			C902.1,133.2,902,129.9,901.6,125.1z"/>
		<path fill="#ffffff" d="M665.6,183.2c0-4.1,2.3-5.6,5.6-4c4.8,2.4,8.2,6.4,10.3,11.2c1.6,3.6,2.9,7.5,4,11.3
			c1.1,3.6-0.3,6.9-3.1,8.1c-2.8,1.2-5.6,0-7.7-3.4c-3.9-6.4-7.6-12.8-8.7-20.4C665.9,184.9,665.7,183.8,665.6,183.2z"/>
		<path fill="#ffffff" d="M145.7,182.7c-0.4,2.6,0.7,5.1,1.5,7.8c0.7,2.4,1.3,4.7,0.7,7.2c-0.7,2.6-2.2,4.4-4.9,4.9
			c-2.6,0.5-4.6-0.5-6.2-2.5c-0.3-0.4-0.7-0.9-0.9-1.4c-2.4-6.9-3.7-14-2.6-21.4c0.4-2.4,1.3-4.9,4.4-5.1c3.3-0.2,6.2,1.6,7.4,4.6
			C145.6,178.6,145.8,180.5,145.7,182.7z"/>
		<path fill="#ffffff" d="M109.5,186.9c-0.1-2.2-0.2-4.3-0.4-6.5c-0.1-1.5-0.1-2.9,0.3-4.3c0.9-3.2,3.1-5.2,5.8-5.3
			c2.7-0.1,5.2,1.8,5.9,5.1c1.6,7.2,1.6,14.4-0.4,21.5c-1.2,4.2-6.3,5.6-9.7,2.8c-0.7-0.6-0.8-1.4-0.9-2.2
			C109.6,194.3,109.6,190.6,109.5,186.9z"/>
		<path fill="#ffffff" d="M1137.5,186c0,0.7,0,1.6-0.2,2.5c-0.2,1.5-1,2.7-2.5,3.2c-1.6,0.5-3,0-4.2-1.2c-1.3-1.4-2.1-3.2-2.5-5.1
			c-1.2-5.2-2.4-10.4-3.6-15.6c-0.5-2.3-0.8-4.7-0.1-7c1.1-4.2,5.2-5.4,8.4-2.5c2.1,2,2.9,4.6,3.2,7.3
			C1136.6,173.7,1137,179.7,1137.5,186z"/>
		<path fill="#ffffff" d="M1091.4,188.9c0.1,4-0.8,7.7-2.3,11.4c-0.9,2.1-2.4,3.5-4.7,3.6c-2.4,0.1-4.3-1.1-5.3-3.2
			c-3.3-7-3.2-14,0.5-20.9c1.1-2,2.7-3.5,5.2-3.3c2.6,0.1,4.1,1.8,5.1,3.9C1091.2,183.1,1091.4,186,1091.4,188.9z"/>
		<path fill="#ffffff" d="M655.4,196.1c0.1,4.2-1.4,6.6-4,7.3c-2.6,0.7-5-0.7-6.4-3.8c-1.8-4.1-3.4-8.2-4-12.7
			c-0.3-2.2-0.3-4.4,0.4-6.5c0.7-2.2,1.9-3.9,4.3-4.4c2.4-0.5,4.2,0.6,5.7,2.4c1.7,2.1,2.7,4.6,3,7.2
			C654.8,189.4,655.1,193.2,655.4,196.1z"/>
		<path fill="#ffffff" d="M224.8,130.7c-2.3-0.1-4.5-0.3-6.8-0.3c-4.5,0-7.3-2.5-9.3-6.1c-2.4-4.2,0.2-9,4.9-8.4
			c7.5,0.9,14.7,3.3,20.7,8.1c1.5,1.2,2.3,2.9,1.5,4.8c-0.8,2-2.5,2.1-4.3,2c-2.3-0.1-4.5,0-6.8,0
			C224.8,130.8,224.8,130.8,224.8,130.7z"/>
		<path fill="#ffffff" d="M617.7,83.4c-1,0-2-0.1-2.9-0.6c-6.5-3.4-9.6-9.1-10.7-16.1c-0.4-2.5,1.1-4.6,3.4-5.7
			c2.1-1.1,3.8,0.2,5.3,1.6c1.5,1.3,2.6,2.7,3.3,4.6c0.9,2.5,2.4,4.6,3.9,6.9c0.7,1.1,1.4,2.2,1.8,3.3
			C623.5,82.1,622.6,83.3,617.7,83.4z"/>
		<path fill="#ffffff" d="M1115.7,180.6c-0.1,2.4-0.2,4.7-0.4,7.1c-0.2,2-1.2,3.5-3.3,3.8c-2,0.3-3.4-0.7-4.1-2.4
			c-2.4-5.9-4-11.9-3.3-18.3c0.4-3.2,2.1-5.1,4.6-5.3c2.5-0.2,4.8,1.4,5.8,4.4C1116.2,173.4,1116.1,177,1115.7,180.6z"/>
	</g>
</g>
<g id="_xFFFD__x9C__x96_撅_xFFFD__8_xA0_影像_1_">
</g>
<g id="_xFFFD__x9C__x96_撅_xFFFD__9_xA0_影像_1_">
</g>
<g id="_xFFFD__x9C__x96_撅_xFFFD__10_xA0_影像_1_">
</g>
<g id="_xFFFD__x9C__x96_撅_xFFFD__11_xA0_影像_1_">
</g>
<g id="_xFFFD__x9C__x96_撅_xFFFD__12_xA0_影像_1_">
</g>
<g id="_xFFFD__x9C__x96_撅_xFFFD__13_xA0_影像_1_">
</g>
<g id="_xFFFD__x9C__x96_撅_xFFFD__14_xA0_影像_1_">
</g>
<g id="_xFFFD__x9C__x96_撅_xFFFD__15_xA0_影像_1_">
</g>
<g id="_xFFFD__x9C__x96_撅_xFFFD__16_xA0_影像_1_">
</g>
<g id="_xFFFD__x9C__x96_撅_xFFFD__17_xA0_影像_1_">
</g>
</svg>
