<?xml version="1.0" encoding="utf-8"?>
<!-- Generator: Adobe Illustrator 18.0.0, SVG Export Plug-In . SVG Version: 6.00 Build 0)  -->
<!DOCTYPE svg PUBLIC "-//W3C//DTD SVG 1.1//EN" "http://www.w3.org/Graphics/SVG/1.1/DTD/svg11.dtd">
<svg version="1.1" xmlns="http://www.w3.org/2000/svg" xmlns:xlink="http://www.w3.org/1999/xlink" x="0px" y="0px"
	 viewBox="0 0 1467.1 249" enable-background="new 0 0 1467.1 249" xml:space="preserve">

<style>
	#title {
		filter:url(#dropshadow)
	}
</style>
<filter id="dropshadow" height="130%">
  <feGaussianBlur in="SourceAlpha" stdDeviation="8"/> <!-- stdDeviation is how much to blur -->
  <feOffset dx="2" dy="4" result="offsetblur"/> <!-- how much to offset -->
  <feComponentTransfer>
    <feFuncA type="linear" slope="0.2"/> <!-- slope is the opacity of the shadow -->
  </feComponentTransfer>
  <feMerge> 
    <feMergeNode/> <!-- this contains the offset blurred image -->
    <feMergeNode in="SourceGraphic"/> <!-- this contains the element that the filter is applied to -->
  </feMerge>
</filter>
<g id="title">
	<g>
		<path fill="#ffffff" d="M1204.3,121.5c3.3,0.3,7.4,0.6,11.4,1.1c1.7,0.2,2.3-0.3,2.4-1.9c0.3-3.8,0.6-7.6,1.1-11.4
			c0.2-1.8-0.4-2-2-1.5c-17.5,5.1-35.5,7.6-53.6,9.7c-7.9,0.9-15.8,1.2-23.6-0.3c-2.4-0.5-4.8-1.1-7.1-2.1
			c-10.5-4.2-15.9-12.1-15.6-23.5c0.2-9,2.9-17.3,7.3-25.1c0.8-1.4,1.8-2.7,3.2-3.7c1.3-1,2.8-1.4,4.3-0.5c1.5,0.9,1.3,2.4,0.9,3.9
			c-1.7,6.2-2.6,12.4-3.3,18.8c-0.2,1.6-0.3,3.3-0.3,4.9c-0.1,8.1,4.1,12.6,12.2,13c1.1,0.1,1.9,0,1.2-1.4c-0.8-1.6-0.9-3.3-0.9-5.1
			c0-2-0.5-3-2.8-2.4c-2.1,0.5-4.1-0.2-4.8-2.5c-0.7-2.2,0.3-3.9,2.2-5c0.2-0.1,0.5-0.3,0.7-0.4c4.3-0.7,5.2-3.7,5.2-7.4
			c0-1.3,0.3-2.7,0.5-4.1c0.2-1.2-0.1-1.9-1.4-2.2c-2-0.6-3.4-1.9-3.4-4.1c-0.1-2.4,1.4-3.8,3.4-4.4c2.7-0.9,3.5-2.8,3.7-5.3
			c0.1-1.3-0.3-1.9-1.6-1.9c-1-0.1-2-0.2-3-0.5c-2-0.5-3.5-1.5-3.9-3.7c-0.4-2.1,0.7-3.7,2.3-4.9c2.1-1.5,4.4-2.5,6.9-3.2
			c1.5-0.4,2.3-1.2,2.6-2.7c0.3-1.2,0.8-2.4,1.4-3.5c1-1.9,2.6-3.1,4.9-2.6c2.2,0.5,3.3,2.2,3.2,4.2c-0.1,3.1,1.3,3.4,3.8,3
			c1.4-0.2,2.9-0.2,4.3,0c2.4,0.3,4,1.8,4.2,4.3c0.2,2.4-1.1,4-3.3,4.7c-2.4,0.8-4.9,1.3-7.4,2c-2.2,0.6-4,5.4-2.9,7.4
			c0.4,0.8,1.2,0.6,1.9,0.7c1.3,0.1,2.5,0.3,3.6,1.1c1.8,1.4,2.4,3.2,1.5,5.3c-0.9,2.1-2.7,2.9-4.9,2.4c-3.2-0.7-3.3-0.7-3.6,2.6
			c-0.1,1-0.2,2-0.3,3c-0.5,4.5-0.5,4.5,3.7,3.4c0.5-0.1,1.1-0.3,1.6-0.5c1.4-0.5,2.9-1.1,3.9,0.6c0.9,1.6,0.1,3-1.1,4.2
			c-2,1.9-4.7,2.7-7.3,3.6c-1.7,0.6-2.6,1.5-3,3.4c-0.9,3.7-1.6,7.5-3.1,11c-0.8,1.9,0.8,1.4,1.6,1.4c6.1-0.1,12.2-0.8,18.2-1.6
			c8.8-1.1,17.6-2.5,26.5-3.6c2.2-0.3,3.2-1.3,3.4-3.4c0.5-4.7,1.4-9.3,2.5-13.9c0.3-1.1,0-1.8-0.8-2.6c-2.9-2.7-2.4-5.5,1.3-6.7
			c1.1-0.4,2-0.8,2.1-2.1c0.1-1.6-1.3-1.3-2.1-1.6c-1.8-0.8-3.1-2-3.1-4.1c0-2,1.3-3.2,3-3.8c1.2-0.5,2.4-0.8,3.7-1.1
			c1.2-0.3,1.8-0.9,2.3-2c1.3-3.4,1.4-3.4-2.2-3.8c-1.4-0.2-2.9-0.2-3.3-1.9c-0.4-1.6,0.8-2.5,2-3.3c0.5-0.3,1.1-0.7,1.7-0.9
			c4-1.2,7.5-2.6,10.1-6.6c2.1-3.2,6.2-2,7.2,1.7c0.4,1.4,0.8,2.2,2.3,2.5c1.4,0.2,2.2,1.2,2.2,2.7c0,1.5-1,2.2-2.3,2.6
			c-2.2,0.6-4.5,4.5-4.1,6.6c0.2,0.8,0.8,0.8,1.4,1c0.9,0.2,1.8,0.2,2.7,0.5c1.7,0.6,2.7,1.9,2.6,3.7c-0.1,1.9-1.1,3-2.9,3.5
			c-1.7,0.5-3.5,0.8-5.3,1.3c-0.6,0.2-1.3,0.4-1.7,0.8c-0.7,0.9-1.4,2.2-1,3.3c0.4,1.2,1.9,0.8,2.9,0.7c1.6-0.1,3.5-0.7,3.9,1.7
			c0.4,2.2-1.2,3.2-3.1,3.9c-0.2,0.1-0.4,0.1-0.5,0.1c-5.6-0.3-7.3,3.2-8.4,7.9c-0.6,2.8-1.8,5.5-2.8,8.3c-1,2.7-0.9,2.8,2,2.3
			c2.9-0.5,5.7-1.1,8.6-1.5c1.8-0.2,2.6-1.1,3.1-2.8c2-7,4.5-13.8,7.5-20.5c1.3-2.8,2.7-5.6,4.8-7.9c2.2-2.4,5-3.1,7.3-2
			c2.3,1.1,3.5,3.5,2.8,6.8c-0.8,4.2-1.8,8.3-2.9,12.5c-3,11.8-4.9,23.9-7.7,35.7c-1,4.2-2.2,8.4-3.3,12.7c-0.5,1.9-1.1,3.6-2.4,5.2
			c-2.3,2.8-5.7,3.7-8.7,1.9c-1.4-0.8-2.6-0.8-4.1-0.4c-5.3,1.3-10.7,2.3-16.1,2.5c-21,0.5-41.9,1.9-62.8,4.5
			c-2.4,0.3-4.9,0.4-7.3,0.4c-1.3,0-2.5-0.5-2.9-2c-0.4-1.3,0.2-2.3,1.2-3.1c2.4-2.1,5.3-3.5,8.3-4.7c8.6-3.5,17.5-5.4,26.6-6.8
			C1176.9,123.6,1190.2,122.4,1204.3,121.5z"/>
		<path fill="#ffffff" d="M724.4,94.4c4.5-0.1,7.4,1.5,7.9,4.3c0.5,2.8-1.4,4.6-5.8,6.5c-3.5,1.5-7.2,1.8-10.8,2.9
			c-1.5,0.5-2.2,1.2-2.1,2.9c0.2,4.6,0.4,9.3,0.5,13.9c0,1.8,0.8,2.2,2.4,1.8c6-1.4,12.2-1.6,18.2-3.5c3.2-1,6.2,0.5,7.4,3.4
			c1.1,2.6,0,5.4-2.8,7.2c-5,3.3-10.5,5.4-16.3,6.6c-2.3,0.4-4.6,1-7,1.4c-1.9,0.3-2.7,1.1-2.9,3.2c-0.5,8-1.3,15.9-1.9,23.9
			c-0.1,0.7-0.5,1.6,0.3,2c0.8,0.4,1.3-0.5,1.8-0.9c3.2-3.5,6.4-7,9.6-10.4c1-1.1,2-2.1,3.4-2.7c1.8-0.9,3.7-1,5.4,0.3
			c1.7,1.4,1.9,3.3,1.2,5.2c-1.1,3.2-3.1,6-5.4,8.4c-2.4,2.6-5,5.1-7.4,7.6c-0.5,0.5-1.3,1.1-1,1.8c0.4,0.9,1.3,0.4,1.9,0.3
			c8.8-1.4,17.7-1.6,26.6-2.1c1.9-0.1,3.8-0.1,5.7,0.5c2.4,0.9,4,2.5,4.3,5.1c0.3,2.7-1,4.7-3.3,6.1c-1.6,0.9-3.3,1.4-5.1,1.8
			c-24.4,4.5-48.8,8.9-73.2,13.4c-1.9,0.3-3.8,0.5-5.7,0c-2.9-0.8-4.9-2.9-5.2-5.7c-0.3-3,1.1-5.2,3.7-6.4c2.1-1,4.4-1.8,6.6-2.6
			c3.7-1.3,7.4-2.5,11.1-3.7c2-0.6,2.5-1.4,0.9-3.2c-2.6-3-5.1-6.2-7-9.7c-1.6-2.8-2.8-5.8-2.7-9c0.1-2.5,0.8-4.7,3.3-5.9
			c2.5-1.2,4.3,0.4,6,2c2.5,2.4,5,4.7,7.5,7.1c1.2,1.1,1.8,1,2-0.7c0.8-6.6,1.6-13.2,2.4-19.8c0.3-2.3-1.1-1.8-2.4-1.5
			c-7.5,1.8-15.1,3-22.6,5.1c-4,1.1-6-0.1-7.3-4c-0.9-3-0.3-4.8,2.6-6.3c3.1-1.7,6.5-2.9,9.8-4c6.7-2.4,13.5-4.4,20.3-6.3
			c1.3-0.3,2.3-0.8,2.6-2.3c1-4.9,1.6-9.8,2-14.8c0.1-2-0.7-2.2-2.4-1.9c-4.7,0.8-9.3,1.5-14.1,1.5c-0.9,0-1.8,0-2.7-0.2
			c-3.2-0.7-4.1-3.5-1.9-5.9c1.4-1.5,3.1-2.5,4.9-3.5C691.9,101.5,719.6,94.4,724.4,94.4z"/>
		<path fill="#ffffff" d="M925.4,113.8c-0.9,19.3-2.2,38.5-6.3,57.4c-1.2,5.4-3,10.7-5.6,15.6c-0.9,1.7-2,3.3-3.5,4.5
			c-4.1,3.5-9.7,2.6-12.4-2c-1.5-2.6-1.9-5.5-2-8.4c-0.1-1.8,0.9-3.3,2.6-3.8c1.8-0.5,2.3-1.8,2.6-3.4c2.4-11.2,3.4-22.5,4-33.8
			c0-0.7,0.1-1.5,0.1-2.2c0.4-5.5,0.4-5.5-4.9-5.1c-7.6,0.6-15.2,2.1-22.8,0.4c-0.3-0.1-0.5,0-0.8,0c-7.8,0.5-12.1-3.1-12-10.7
			c0.1-12.1,0.8-24.2,3.3-36.1c0.7-3.3,1.6-6.5,3.5-9.4c2.8-4.3,7.9-4.8,11.3-0.9c1.1,1.2,1.7,1.2,2.9,0.3c3.3-2.6,7-4.6,11-6
			c11-3.8,21,0.7,25.2,11.6c2.9,7.4,3.5,15.2,3.9,23C925.5,107.8,925.4,110.8,925.4,113.8z M891.1,119.5c0,0,0-0.1,0-0.1
			c2.5-0.2,5.1-0.4,7.6-0.6c8.1-0.9,8-0.9,7.9-9.1c0-2.2-0.8-2.6-2.8-2.4c-5.9,0.7-11.6,1.7-17.2,3.9c-4.4,1.7-4.5,1.9-3.8,6.4
			c0.2,1.3,0.7,1.9,2.1,1.9C886.9,119.4,889,119.5,891.1,119.5z M906.4,96.3c-0.3-2.9-0.4-5-0.7-7.2c-0.4-3.3-1.2-3.8-4.3-2.5
			c-5.7,2.4-10,6.5-13.5,11.5c-0.3,0.4-0.8,0.9-0.4,1.5c0.4,0.6,1.2,0.3,1.8,0.2c4.7-0.8,9.5-1.5,14.3-1.3
			C905.9,98.5,906.8,97.8,906.4,96.3z"/>
		<path fill="#ffffff" d="M403.6,123.7c5.4-0.1,6.9-1.4,7.6-6.7c0.1-1-0.2-1.4-1.1-1.4c-2.5,0-4.3-1-4.8-3.6
			c-0.6-2.8,0.9-4.8,3.2-6.1c4.5-2.7,9.6-3.5,14.7-3.3c10.1,0.3,15.9,5.8,17.2,15.8c0.2,1.5,0.4,3.1,0.2,4.6c-0.2,2.3,0.8,3,2.9,3.1
			c3.8,0.2,7.6,0.5,11.4,1.1c4.2,0.6,6.3,2.4,6.2,4.9c-0.1,2.4-2.1,3.9-6.3,4.6c-4.2,0.7-8.3,0.5-12.5,0.4c-2.8-0.1-4.1,0.9-5,3.6
			c-7.1,22.7-19.5,42.1-37.9,57.5c-1.7,1.4-3.3,2.8-5.3,3.8c-3.1,1.5-6.3,1-8.3-1.2c-2-2.2-2.2-5.1-0.5-8.1c0.6-1,1.2-2.1,2.1-2.8
			c6.7-5.1,10.6-12.4,15.1-19.1c3-4.5,2.9-4.5-2-6.8c-1.7-0.8-3.5-1.6-5.1-2.5c-8.1-4.4-13.2-11-14.6-20.2c-0.3-2-1.1-2.8-3.1-2.8
			c-2.3,0.1-4.5-0.1-6.8-0.4c-2.4-0.3-4.4-1.4-4.8-4c-0.4-2.6,1.2-4.1,3.3-5.1c3.2-1.7,6.6-2.6,10.1-3.2c2.1-0.3,3.1-1.3,3.7-3.3
			c2.5-7.5,5.9-14.5,10-21.1c1.7-2.8,3.7-5.4,6.1-7.7c1.4-1.3,3-2.4,4.9-2.7c1.9-0.3,3.7-0.2,4.9,1.6c1.1,1.6,0.2,3.1-0.7,4.5
			c-4.5,7.6-7.5,15.9-10.3,24.3c-0.6,1.9-0.1,2.5,1.8,2.4C401.2,123.7,402.4,123.7,403.6,123.7z M416.6,137.9c-4.1,0-4.1,0-5.4,4.1
			c-1.1,3.6-2.4,7.1-6.4,8.6c-1.4,0.5-0.6,1.3,0,1.8c1.4,1.1,2.9,2.1,4.3,3.3c1.4,1.1,2.4,0.8,3.2-0.8c2.4-4.8,4.8-9.5,7.3-14.3
			c1.1-2.1,0.4-2.8-1.8-2.6C417.5,138,417.1,137.9,416.6,137.9z M400.2,138.2c-1.2,0.4-3.4-0.8-4.2,0.7c-1,1.8,0.6,3.5,1.5,5.2
			c0.1,0.2,0.3,0.5,0.4,0.7c1.1,1.3,1.8,3.6,3.5,3.4c1.3-0.2,1.4-2.7,2.2-4c0.2-0.4,0.3-0.8,0.5-1.3
			C405.6,138.2,405.5,138.1,400.2,138.2z M422.5,124.2c1-0.1,2.6,0.8,3.1-1c0.7-2.4,0.9-4.8-0.1-7.2c-0.5-1.2-1.6-1.6-2.9-1.7
			c-1.4-0.1-1.5,1.1-1.8,2c-0.5,1.6-1,3.3-1.7,4.9c-0.8,1.9-0.6,3,1.7,2.9C421.5,124.1,421.9,124.2,422.5,124.2z"/>
		<path fill="#ffffff" d="M813.8,82c2.1-0.6,2.9-1.6,3.9-2.4c3.7-2.8,7.6-5,12.2-5.9c8.4-1.6,15.7,2.2,19.1,10
			c2.9,6.8,3,13.8,1.7,20.9c-1.3,7.4-4.1,14.3-7.9,20.8c-0.5,0.9-1.3,1.8-2.1,2.5c-8.9,7.3-17.5,15.2-28.4,19.5
			c-1.9,0.7-2,2.1-2,3.7c0.2,11.1,0.3,22.2,0.5,33.3c0.1,3.3,0.2,6.5-0.2,9.8c-0.5,4.6-3.3,7.5-7.1,7.6c-3.8,0.1-6.8-2.5-7.8-7
			c-0.7-3.2-0.6-6.5-0.7-9.8c-0.9-30.6-0.8-61.1,4.1-91.4c0.8-5,2.1-10,3.8-14.8c1.1-3,3-5.1,5.6-6.8c3-1.9,6.2-0.4,6.6,3.1
			C815.3,77.4,814.9,79.5,813.8,82z M835.7,93.1c0.2-5.1-0.9-6-5.9-4.7c-4.3,1.1-8.4,2.9-12.5,4.6c-3.4,1.4-5.6,3.8-5.3,7.9
			c0.1,1.5,0.3,2.3,2,1.6c5.5-2.1,11.3-2.6,17-3.6c4.3-0.8,4.3-0.7,4.6-5.2C835.7,93.5,835.7,93.3,835.7,93.1z M810.8,123.9
			c0,1.3,0,2.5,0,3.8c0,0.7-0.3,1.6,0.3,2.1c0.8,0.6,1.5-0.3,2.1-0.8c4.9-3.6,10-6.9,15.3-9.9c2.2-1.2,3.5-2.8,3.7-5.3
			c0.1-1,1-2.3,0.1-3.1c-1-0.9-2.2,0.1-3.3,0.5c-3.9,1.4-7.7,3.2-11.8,4.3C811.1,117.3,811.1,117.3,810.8,123.9z"/>
		<path fill="#ffffff" d="M239.8,47.5c2,0.1,4,0.1,6,0.4c2.7,0.3,4.6,1.7,5.1,4.5c0.5,2.8-0.9,4.7-3.4,5.9c-4.7,2.3-9.8,3.3-14.9,4
			c-2.9,0.4-4.2,1.7-4.5,4.4c-0.2,1.4-0.6,2.8-0.9,4.3c-0.7,3-0.5,3.2,2.5,2.9c4.1-0.5,8.1-1,12.2-1.4c8.5-0.9,17.1-0.5,25.6,0.6
			c0.8,0.1,1.6,0.3,2.4,0.5c3.3,1,5.4,3.6,5.3,6.7c-0.1,3-2,5.6-5.4,6.4c-4.7,1.1-9.5,1.7-14.3,2.1c-13,1-26,1.4-38.8,3.8
			c-8.6,1.6-17.1,3.4-25.7,5.1c-2.6,0.5-5.2,0.9-7.9,0.6c-2.1-0.2-3.9-1.1-4.6-3.3c-0.7-2.2,0.3-3.9,1.9-5.3
			c1.9-1.6,4.1-2.7,6.3-3.7c9.2-4.3,18.8-7.7,28.9-9.8c2.4-0.5,3.5-1.4,3.7-4c0.7-7.7,0.8-7.7-6.8-6.5c-3.6,0.5-7.2,1.2-10.8,0.2
			c-1.2-0.3-1.8,0.3-2.5,1.1c-2.8,3.4-5.7,6.8-8.6,10.2c-1.6,1.8-3.5,2.8-5.8,1.4c-2.2-1.4-2.4-3.6-1.5-5.8c2.1-4.9,3.8-10,6.9-14.5
			c3.4-4.9,6.8-9.9,10.2-14.8c0.6-0.8,1.2-1.6,1.9-2.3c1.2-1.3,2.7-2,4.4-1.2c1.7,0.8,2.1,2.4,1.9,4.2c-0.3,2.6-1.1,5.2-1.9,7.7
			c-0.2,0.6-0.6,1.3-0.2,1.8c0.6,0.7,1.4,0.1,2-0.1c3.5-1.3,7.1-2.4,10.7-3.1c1.8-0.4,2.6-1.3,2.9-3.1c0.4-3,1.3-5.8,2.6-8.6
			c0.6-1.2,1.2-2.4,2.2-3.4c1.4-1.4,3-2,5-1.3c1.8,0.7,2.5,2.3,2.5,4.2c0,2.3-0.3,4.6-0.9,6.7c-0.7,2.5,0.2,3.1,2.5,2.8
			c1.2-0.2,2.4-0.2,3.5-0.2C239.7,47.6,239.7,47.5,239.8,47.5z"/>
		<path fill="#ffffff" d="M614.8,116.6c-0.4,8.9-2.7,17.3-6.6,25.2c-5.5,11-11.9,21.5-19.3,31.3c-2,2.7-4.3,5.2-7.4,6.7
			c-4.4,2-9.1,0.3-10.6-3.9c-1.3-3.6,0.5-6.6,4.3-7c1.3-0.1,2-0.7,2.6-1.7c4.1-6.2,6.8-13,9.9-19.7c0.7-1.6-0.1-2.1-1.5-2.4
			c-3-0.5-6.1-1.1-9.1-1.7c-3.1-0.7-6.1-1.9-8.6-3.9c-2.6-2-4.2-4.6-3.3-8c0.3-1,0.1-1.7-1-2.2c-1.9-0.9-2.5-2.6-2.6-4.4
			c-0.2-2.5,0-4.9,0.6-7.3c2.5-10.4,6.4-20.3,11.6-29.6c0.8-1.5,1.8-3,3-4.2c3.5-3.3,8.3-2,9.5,2.7c1,3.8-0.1,7.4-0.9,11
			c-0.2,0.9-1.1,2-0.3,2.8c0.8,0.8,1.9-0.2,2.8-0.5c3-1,6.1-1.8,9.3-1.9c10-0.2,16.5,5.5,17.5,15.4
			C614.7,114.4,614.7,115.5,614.8,116.6z M593.9,111.5c-3.9,0-10.5,2-14.5,4.1c-2.6,1.3-3.3,4-4.8,6.1c-2.6,3.8-2.5,3.9,2.1,4.4
			c5,0.6,9.6,2.6,14.3,4.2c1.5,0.5,2.6,0.7,3.1-1.2c1.4-4.6,2.8-9.2,3.2-14C597.7,112,597.1,111.5,593.9,111.5z"/>
		<path fill="#ffffff" d="M1386.4,73.2c2.7-0.4,5.4-0.1,8.2,0c2.4,0.1,4.2,1.3,4.7,3.8c0.5,2.4-0.6,4.3-2.6,5.5
			c-2.4,1.5-5.2,2-7.9,2.8c-4.6,1.3-9.3,2.4-14.1,2.9c-1.7,0.2-2.6,0.8-3,2.5c-0.7,2.8-1.5,5.6-2.4,8.4c-0.6,1.8-0.2,2.3,1.7,1.8
			c13-3.3,26.2-5,39.5-6.5c1.9-0.2,3.8-0.3,5.7-0.2c2.1,0.1,3.6,1.2,4.1,3.4c0.5,2.2-0.5,4-2.5,5c-1.4,0.7-2.9,1.2-4.3,1.6
			c-30.7,6.5-61.5,13.1-92.1,20.3c-1.9,0.5-3.9,0.7-5.9,0.8c-1.7,0.1-3.1-0.6-3.5-2.4c-0.5-1.7,0.3-3.1,1.8-3.9
			c1.6-0.9,3.3-1.6,5-2.2c7.4-2.9,15-5.1,22.5-7.4c1.9-0.6,2.6-1.4,2.3-3.5c-0.6-3.7-0.8-7.4-1.1-11.1c-0.1-1.8-0.7-2.4-2.5-2.1
			c-4.7,0.7-9.3,1.4-14,1.9c-2.5,0.3-5,0.5-6.4-2.4c-1-2.2,0-5,2.7-7.1c4.7-3.5,10.2-5.1,15.8-6.3c2.8-0.6,4.3-1.6,4.2-4.7
			c-0.1-1.7,0.2-3.5,1-5c0.6-1.1,1.4-1.9,2.8-1.8c1.2,0.1,1.9,0.9,2.4,2c0.6,1.6,0.7,3.2,0.7,4.8c0,1.6,0.7,2.2,2.4,2
			c4.8-0.7,9.5-1.3,14.3-1.8c1.5-0.2,2.2-0.8,2.4-2.3c0.4-2.4,1-4.8,2.2-7c0.9-1.7,2.3-2.9,4.4-2.4c2.1,0.5,2.7,2.3,2.7,4.2
			c0,0.8-0.1,1.6-0.2,2.4c-0.6,4-0.6,4,3.6,3.9c1.7,0,3.5,0,5.2,0C1386,73.2,1386.2,73.2,1386.4,73.2z M1348.1,99.1
			c0,1.7,0,3.4,0,5.2c-0.1,2.1,0.7,2.8,2.8,2.1c2.9-1,5.9-1.8,8.9-2.5c1.8-0.4,2.8-1.4,3.3-3.2c0.9-3,1.3-6,1.9-9.1
			c0.3-1.5-0.2-2-1.7-1.8c-2.5,0.4-5,0.6-7.6,1C1348.2,91.8,1348.2,91.8,1348.1,99.1z"/>
		<path fill="#ffffff" d="M490.3,140c0.8-14.1,0.9-25.6,3.2-36.9c1.1-5.6,2.4-11.2,4.6-16.5c1.1-2.7,2.3-5.4,4.6-7.3
			c2-1.8,4.4-2.6,7-1.5c2.7,1.2,3.2,3.5,3,6.1c-0.5,8.8-1.8,17.5-3.3,26.2c-0.2,0.9-0.9,2.1,0,2.8c0.8,0.6,1.6-0.6,2.3-1
			c3.8-2.2,7.7-3.6,12.1-3.6c6.6,0,11.5,3.3,13.8,9.5c1.5,4.1,2,8.3,1.5,12.6c-0.7,6.5-2.2,12.7-4.6,18.7c-1.2,3.1-2.7,6-5.2,8.3
			c-2.7,2.5-5.8,3.4-9.3,1.9c-1.2-0.5-2.2-0.5-3.4,0c-4.2,1.7-8.3,3.4-11.6,6.5c-4.4,4.2-13.3,1.4-14.3-5.4
			C489.8,152.7,490.2,145,490.3,140z M526.8,126.6C526.8,126.6,526.7,126.6,526.8,126.6c-0.1-1,0-2-0.1-3c-0.4-4.4-1.7-5.3-6.1-4.4
			c-3.9,0.9-7.4,2.8-11,4.7c-2.7,1.5-4.1,3.5-4.5,6.6c-0.4,3.8-0.6,3.8,3.1,2.6c4.7-1.5,9.5-3.2,14.6-2.5c3.9,0.5,3.8,0.7,3.9-3.2
			C526.8,127.1,526.8,126.8,526.8,126.6z M521.6,139.2c-2.3,0.5-4.3,1.3-6.3,2.2c-2.9,1.4-5.7,3.5-8.8,4.1c-3.5,0.6-4.2,2.4-4.3,5.2
			c0,0.8-0.6,1.7,0.2,2.3c0.8,0.6,1.6-0.1,2.3-0.5c5.7-2.8,11.6-5.1,18-6c2.6-0.4,2.6-2.5,2.4-4.1
			C524.9,140.5,523.3,139.6,521.6,139.2z"/>
		<path fill="#ffffff" d="M76.1,188.9c0.1-2.9,0.7-5.8,1.5-8.6c4.8-17.8,5.4-35.9,3.1-54.1c-0.4-3.3-1.6-6.3-3.4-9.1
			c-1.1-1.6-1.6-1.9-2.8-0.2c-1.8,2.5-3.7,4.9-5.6,7.4c-7.4,9.8-15.2,19.3-23,28.7c-1.3,1.6-2.8,3.1-4.3,4.5
			c-3.4,3.3-7.7,3.5-12,3.1c-2.7-0.2-4.5-4.9-3.2-7.5c0.6-1.1,1.4-2.1,2.2-3.1c15.9-20.8,34-39.6,52.8-57.7c1.8-1.8,3.8-3.4,6-4.7
			c1.6-0.9,3.4-1.3,5.2-0.7c1.3,0.4,2.2,1.3,1.7,2.6c-1.6,4.7-3.4,9.3-7.5,12.5c-0.2,0.2-0.4,0.4-0.6,0.6c-3.5,3.5-3.5,3.5-0.4,7.4
			c3.9,4.9,5.5,10.8,6.8,16.8c4.2,19.4,2.9,38.7-0.8,57.9c-0.5,2.9-1.7,5.6-3.3,8c-2.1,3.2-4.9,4.5-7.8,3.6
			C77.6,195.5,76,192.8,76.1,188.9z"/>
		<path fill="#ffffff" d="M1047,93.7c1.6-1.8,3.1-3.7,4.7-5.5c3-3.3,6.1-6.5,10.2-8.6c4-2,7-1.2,9.4,2.5c1,1.6,0.5,2.9-0.8,4.1
			c-6.5,5.5-10.9,12.6-14.8,20c-0.3,0.6-1,1.3-0.6,2c0.5,0.9,1.5,0.3,2.2,0.1c5.8-1.3,11.3-3.5,16.8-5.6c1.9-0.7,1.4-2,1.2-3.4
			c-0.5-4.6,0.5-6.3,4.3-8.1c2.6-1.3,4.8-0.5,6.7,1.4c4.8,4.9,7.6,10.6,7.7,17.5c0.1,5.8-0.9,11.4-2.2,17c-0.7,2.7-2,5.1-4.8,6.3
			c-1.7,0.7-3.4,0.7-4.9-0.5c-1.4-1.2-1.8-2.7-1.3-4.4c1.6-6.2-1.6-11.5-2.8-17.3c-0.3-1.5-1.4-0.6-2.1-0.2c-5,2.9-9.9,5.8-14.8,8.7
			c-2.6,1.5-5.3,2.9-8.2,3.6c-9.5,2.5-16.5-4.2-14.3-13.7c0.6-2.4,0.4-3.6-1.8-5.2c-5.3-4-7.3-9.6-5.8-16.2c1-4.5,3.1-8.5,5.8-12.3
			c3.5-5.1,7.5-9.8,12.1-14c1.5-1.4,3.2-2.8,5.2-3.4c3.1-0.9,5.8,1,5.7,4.3c-0.1,2.3-0.6,4.5-1.7,6.5c-3.2,5.9-6.3,11.9-9.4,17.9
			C1047.6,89.1,1046.8,91.1,1047,93.7z"/>
		<path fill="#ffffff" d="M771.1,83.7c0,4-3.2,6.9-7.4,6.6c-2.5-0.2-4.8-1-7.1-2c-10.1-4.5-20.2-9.1-30.1-14.2
			c-5.8-2.9-11.8-5.2-18.1-6.8c-4.4-1.1-8.2,0-11,3.5c-11.1,13.8-24.5,25.3-36.4,38.4c-1.8,2-3.9,3.8-5.9,5.6
			c-1.1,1.1-2.4,2-3.8,2.6c-3.1,1.3-5.8,1-7.6-0.9c-2.1-2.3-2.1-4.9-1-7.6c0.8-2.2,2.4-3.9,4-5.5c8.8-8.9,17.6-17.9,26.6-26.6
			c6.4-6.2,13.2-11.9,19.9-17.8c2.1-1.9,3.4-4.5,5.8-6.1c1.3-0.9,2.6-1.7,4.1-2c1.5-0.2,3,0.1,3.4,1.6c0.5,1.8,1.8,2,3.2,2.5
			c17.1,5.2,34.2,10.6,50.7,17.5c3.1,1.3,6,3,8.3,5.6C770.1,79.7,771,81.5,771.1,83.7z"/>
		<path fill="#ffffff" d="M1353.4,172.2c-0.2,4.5,1.2,6.9,5.6,8.6c8,3.1,16.3,3.6,24.7,2.6c4.5-0.5,8.9-1.8,13.2-3.4
			c3.9-1.4,7.7-2.7,11.7-3.8c4.4-1.2,8.2,0.5,9.9,4.1c1.8,3.8,0.5,8.1-3.3,10.8c-2.4,1.7-5,3-7.7,4c-15.7,5.8-31.6,7-47.8,2.2
			c-2.9-0.9-5.7-2-8.3-3.5c-7.3-4.3-11.2-10.7-11.2-19.3c-0.1-5.7,0.9-11.3,3.4-16.4c4.2-8.5,11.1-13.7,20.7-14.7
			c5.6-0.6,9.9,2.9,10.7,8.6c0.6,4.6-0.6,8.9-2.9,12.8c-2.1,3.5-4.9,6.5-8.2,9C1359.5,177,1356.7,176.6,1353.4,172.2z M1362.3,151.8
			c-2,0.2-3.9,0.6-5.8,1.3c-0.6,0.2-1.2,0.5-1.3,1.2c-0.4,2.2-0.8,4.5-1.2,6.7c-0.1,0.7,0.1,1.3,0.8,1.5c1.5,0.4,2.1,1.7,2.6,2.9
			c0.5,1.3,1.2,1.5,2,0.2c2.3-3.6,4-7.5,4.8-11.7C1364.5,152.3,1363.9,151.7,1362.3,151.8z"/>
		<path fill="#ffffff" d="M233,194.4c0.9-15.3,1.9-29.6,3.5-43.9c0.4-3.4,0.8-6.9,1.9-10.2c1.1-3.3,3.3-5.1,6-5.1
			c2.8,0,5.1,2,6.1,5.3c0.6,1.9,0.9,3.9,0.9,5.9c0,2.3,0.8,3.3,3.3,2.7c4.3-0.9,8.7-0.7,13-1c0.6,0,1.3,0,1.9,0.1
			c1.7,0.3,3.2,1,3.5,2.9c0.3,1.9-0.8,3.1-2.5,3.8c-5.2,2-10.3,4.2-15.7,5.3c-0.5,0.1-1.1,0.2-1.6,0.3c-1.7,0.2-1.9,1.4-1.8,2.8
			c0.1,1.7,1.3,1.4,2.4,1.3c4-0.2,8-0.3,12-0.4c1.3,0,2.6,0,3.8,0.5c2,0.9,3,2.4,2.6,4.6c-0.4,2.2-1.8,3.2-4.1,3
			c-5.7-0.3-10.7,2.7-16.1,3.9c-1.6,0.3-1.1,2.1-1.1,3.3c-0.3,5.1-0.3,5.1,4.7,4c5-1.1,9.9-2.2,14.9-3.2c1.9-0.4,3.7-0.4,4.8,1.5
			c1.2,2,0.2,3.7-1.3,5.1c-2.1,2.1-4.7,3.4-7.6,4.2c-4.5,1.2-9,2.3-13.5,3.3c-2,0.4-2.6,1.4-2.7,3.3c-0.3,6.5-0.9,13.1-3,19.3
			c-1.5,4.8-3.8,7-7.1,6.7c-3.2-0.2-5.1-2.5-6-7.4C232.7,208.9,233,201.2,233,194.4z"/>
		<path fill="#ffffff" d="M1078.4,145.1c-0.3,4.8-2.5,9.4-5.6,13.5c-1.3,1.8-1.1,2.8,0.6,4.2c5.3,4,10.2,8.5,14.4,13.7
			c1.4,1.7,2.7,3.4,3.3,5.6c0.6,2.5,0.2,4.7-1.9,6.4c-2.1,1.7-4.4,1.7-6.6,0.5c-2.4-1.2-4.2-3.1-6.2-4.9c-4-3.8-8-7.4-11.8-11.3
			c-1.7-1.6-2.8-1.8-4.7-0.2c-4.8,4.2-10.1,7.7-15.8,10.7c-1.3,0.7-2.8,1.3-4.3,1.7c-1.8,0.5-3.5,0.1-4.7-1.4
			c-1.3-1.5-1.4-3.3-0.6-5.1c1-2.5,2.8-4.4,5.1-5.9c3.9-2.4,7.5-5.1,10.8-8.3c1.6-1.6,1.4-2.5-0.2-3.8c-2.1-1.6-4-3.5-5.8-5.4
			c-1.1-1.2-1.8-0.9-2.6,0.2c-2,2.6-4.2,5-6.6,7.2c-0.6,0.5-1.2,1.1-1.9,1.6c-2.6,1.9-5.3,2.1-7.1,0.8c-1.9-1.4-2.6-4.4-1.6-7.2
			c1.1-3.1,2.8-5.9,4.9-8.5c5-6.2,10.3-12.3,16.3-17.6c1.6-1.5,3.4-2.8,5.5-3.4c2.9-0.7,4.6,1,3.9,3.9c-0.1,0.5-0.3,1-0.5,1.5
			c-1.5,4-1.5,4,2.9,3.3c3.8-0.6,7.6-1.1,11.3-1.5C1074.7,135,1078.6,138.8,1078.4,145.1z M1052.1,148.4c8.6,5.5,9.6,5.3,13.9-1.6
			c0-0.1,0.1-0.1,0.1-0.2c0.3-0.5,0.9-1.1,0.5-1.7c-0.4-0.7-1.1-0.5-1.7-0.4C1060.6,144.8,1056.4,146.1,1052.1,148.4z"/>
		<path fill="#ffffff" d="M969.9,187c0.3-11.6,2.5-22.9,4.3-34.3c0.3-2,0.2-2.7-2.2-2.4c-1.9,0.3-4-0.1-5.9-0.4
			c-1.7-0.3-2.3-1.6-2.4-3.2c-0.1-4.5,0.6-8.8,3-12.8c8.2-13.7,17.3-26.7,28.6-38c0.8-0.8,1.7-1.7,2.6-2.4c3.3-2.6,6.8-1.6,8.4,2.3
			c0.4,1.1,0,1.9-0.5,2.8c-3.4,5.4-6.6,10.8-10,16.2c-2,3.3-3.3,6.6-3.7,10.6c-0.7,8.2-2,16.4-3.3,24.6c-2.3,15.1-4.3,30.2-7.6,45.1
			c-0.3,1.5-0.6,3-1.2,4.5c-1.1,2.9-3.5,4.3-6.2,3.8c-2.5-0.4-4.4-2.5-4.5-5.4C969.3,194.3,969.7,190.7,969.9,187z"/>
		<path fill="#ffffff" d="M1192.7,219.4c-14.5,0.6-29,2.3-43.4,3.9c-1.9,0.2-3.8,0.5-5.7,0.4c-3.7-0.2-5.6-3.2-4.3-6.7
			c1-2.8,3.2-4.6,5.6-6.1c5-3,10.5-4.6,16.1-5.8c2.4-0.6,3.2-1.3,2-3.8c-0.8-1.7-1-3.7-0.8-5.6c0.2-2,0.9-3.8,3-4.4
			c2.1-0.6,3.7,0.5,4.9,2.2c1.2,1.7,1.9,3.7,2.6,5.7c0.4,1.1,0,2.9,1.6,3.1c1.8,0.2,3.7,0.1,5-1.6c1.6-2.1,3.1-4.2,4.7-6.4
			c1.6-2.2,3.1-4.5,4.8-6.6c1.1-1.4,2.5-2.2,4.3-1.6c1.7,0.6,2.5,2,2.7,3.8c0.4,3.2-0.5,6.2-2.2,8.8c-1.3,1.9-1.1,2.5,1.3,2.6
			c6.9,0.2,13.8,0.4,20.4,3c0.7,0.3,1.4,0.5,2,0.8c3.5,1.6,5.3,4.2,5,7.3c-0.3,3.1-2.4,5.1-6.2,6c-6.1,1.5-12.3,1.3-18.4,1.1
			C1195.9,219.4,1194.3,219.4,1192.7,219.4z"/>
		<path fill="#ffffff" d="M400.8,82.6c-2.9-0.2-5.8-0.2-8.7-0.5c-1.6-0.2-2.6,0.3-3.2,1.8c-0.9,2.1-1.9,4.1-2.9,6.2
			c-1.1,2.1-2.7,3.4-5.3,2.8c-2.2-0.6-3.7-2.7-3.1-5.4c2.6-11.1,5.3-22.1,10.7-32.2c0.1-0.2,0.3-0.5,0.4-0.7c2.6-3.8,5.9-5.1,9-3.7
			c3.1,1.4,4.1,4.8,2.9,9.2c-0.8,2.8-0.7,3,2.3,2.5c10.4-1.7,20.8-1.5,31.1,1.2c3,0.8,5.9,1.7,8.2,4c2.6,2.5,3.3,6,1.9,9
			c-1.5,3.3-4.2,4.9-7.8,5.1c-1.1,0.1-2.4,0-3.1-0.8c-2.1-2.3-4.6-1.7-7.1-1.2C417.9,81.7,409.4,82.3,400.8,82.6z"/>
		<path fill="#ffffff" d="M1169.1,176.5c2.6-2.8,5.8-4,8.6-5.8c2.7-1.8,5.3-3.9,6.9-6.9c1.9-3.5,1.1-4.9-2.8-4.9
			c-3.2,0-6.3,0.6-9.4,1.4c-1.5,0.4-3.3,1.4-4.6-0.3c-1.3-1.7-0.5-3.5,0.4-5.1c4.3-7.8,17.2-11.3,25.3-7c7.9,4.2,10.3,14.3,5.5,23.1
			c-1,1.9-1.9,3.3-0.6,5.6c1.2,2.2,0,4.4-2.3,5.4c-6.1,2.7-12.3,5-19,5.4c-4.8,0.3-7-1.6-9.1-7.6c-0.3,0.2-0.6,0.4-0.8,0.6
			c-3.4,3.2-7.6,3-9.9-0.9c-4.4-7.6-4.5-15.8-1.7-24c1.3-3.6,5.4-3.7,7.6-0.6c1.8,2.6,2.3,5.7,2.9,8.7c0.3,1.4,0.5,2.8,1.8,3.8
			c1.1,0.8,1.1,2.2,1.2,3.5C1169.2,172.7,1169.1,174.3,1169.1,176.5z"/>
		<path fill="#ffffff" d="M214.6,166.4c-0.5,14.9-0.6,28.5-3.6,41.9c-0.4,1.8-0.6,3.6-1.5,5.2c-1.2,2.3-3.2,3.5-5.8,3.1
			c-2.6-0.4-4.1-2.1-4.7-4.7c-0.3-1.4-0.1-2.9,0.1-4.3c0.7-5.7,1.3-11.4,2-17.1c0.1-0.8,0.5-1.8-0.3-2.3c-0.8-0.5-1.5,0.4-2.2,0.8
			c-7,4.2-13.1,9.4-19.1,14.9c-1.7,1.6-3.5,3.2-5.3,4.7c-3.2,2.6-6.5,2.7-8.5,0.4c-2.1-2.3-1.5-5.6,1.5-8.4
			c6.5-6,13.2-11.7,20.5-16.7c4.6-3.1,9.2-6.2,13.9-9.2c1.4-0.9,1.6-2.1,1.7-3.4c0.5-6.2,1-12.3,1.5-18.5c0.2-3,0.4-6,1.2-8.9
			c0.4-1.5,0.8-3,3-2.9c2,0.1,3.1,0.9,3.4,2.8c0.4,1.9,0.9,3.7,1.1,5.6C214.3,155.5,214.2,161.6,214.6,166.4z"/>
		<path fill="#ffffff" d="M97.7,82.5c-19-1.5-37.5,2-56.2,4.4c-4.3,0.6-8.7,1.1-13,1c-1.2,0-2.4-0.1-3.5-0.4
			c-1.9-0.6-2.3-2.4-0.9-3.8c2.2-2.2,4.7-4,7.8-4.8c15.1-4.2,30.4-7.5,45.9-9.2c11.9-1.3,23.8-1.6,35.7-1.2c3.1,0.1,6.2,0.2,9.2,1
			c4.2,1.2,6.6,4.6,6,8.5c-0.6,3.6-3.7,5.9-8.1,5.7C113,83.4,105.3,82.9,97.7,82.5z"/>
		<path fill="#ffffff" d="M230.8,98.1c10.7,0,16.3,8.1,12.7,18.4c-1.1,3.1-2.8,5.9-2.6,9.5c0.2,2.6-2,4.5-4.2,5.6
			c-7.3,3.6-14.9,6.3-22.9,7.7c-1.6,0.3-3.3,0-4.9-0.2c-4-0.6-5.8-4.3-3.7-7.7c1-1.6,1-2.9,0.4-4.6c-1.9-5.1-1.7-10.4-0.9-15.6
			c0.5-3.4,3.6-5.3,6.2-7.2C215.9,100.6,224.4,98.1,230.8,98.1z M229.8,113.7c0.3-1.8-0.6-2.2-2.2-1.9c-4.4,0.9-8.9,1.9-13.3,2.8
			c-1.4,0.3-1.7,1-1.4,2.4c0.5,1.8,0.9,3.7,1.1,5.6c0.2,1.9,0.9,2,2.5,1.3c2.7-1.2,5.4-2.2,8.1-3.2
			C229,119.3,229.6,118.5,229.8,113.7z"/>
		<path fill="#ffffff" d="M1260.1,187.2c0.3-4.4,1.9-8.3,4.1-12.1c6.4-11.2,15.1-20.1,26-26.9c3.3-2,6.1-2,8.3,0
			c2.3,2.1,2.4,5.3,0.4,8.7c-6.1,10.3-13.9,19.2-22.5,27.5c-2.5,2.4-5.1,4.7-7.6,7c-1.7,1.5-3.4,3-5.8,1.8
			C1260.4,192,1260.2,189.6,1260.1,187.2z"/>
		<path fill="#ffffff" d="M304.9,171.6c0.1-2,0.7-3.8,1.9-5.3c11.7-15,22.2-31,36.5-43.9c0.9-0.8,1.8-1.6,2.7-2.3
			c2.3-1.6,4.6-1.6,6.2,0c1.8,1.8,1.6,3.9,0.5,6c-0.5,0.9-1.1,1.7-1.7,2.5c-5.1,7.1-10.4,14-16.3,20.4c-6.7,7.2-12.2,15.4-17.2,23.8
			c-0.6,1-1.2,2-2,2.9c-1.8,2.1-4,2.8-6.6,1.9C306.4,176.7,304.9,174.3,304.9,171.6z"/>
		<path fill="#ffffff" d="M112.8,129.7c1.1,0.2,2.3,0.4,3.5,0.8c10.8,3.4,21.2,7.7,30.5,14.2c1.6,1.1,3.1,2.2,4.1,3.9
			c1.5,2.4,1.8,5,0.2,7.5c-1.6,2.5-4,3.1-6.9,2.7c-6.3-0.9-12-3.5-17.5-6.6c-7-4-14-8.1-21-12.1c-1.7-1-3.4-1.9-3.3-4.2
			c0.1-2.3,1.8-3.5,3.6-4.4C108.1,130.5,110.3,129.9,112.8,129.7z"/>
		<path fill="#ffffff" d="M1383.5,120.3c2.1,0.1,4.5,0.9,6.9,1.9c6.7,2.9,12.4,7.2,17.6,12.2c3,2.9,5.9,6,8.8,9
			c0.6,0.6,1.1,1.2,1.5,1.9c1.9,3,1.8,6.5-0.2,8.9c-2,2.3-5.2,3.1-8.5,1.6c-4.3-1.9-8-4.6-11.6-7.6c-6.5-5.4-12.3-11.6-17.8-18
			c-0.6-0.8-1.2-1.6-1.7-2.5C1376.2,123.8,1378.4,120.3,1383.5,120.3z"/>
		<path fill="#ffffff" d="M1311.7,175.9c0-1.7,0.6-3.2,1.3-4.7c7.9-16.1,16.9-31.6,29.1-44.9c1.9-2.1,3.7-4.2,6.2-5.7
			c1.3-0.8,2.7-1.4,4-0.2c1.3,1.2,0.6,2.5,0,3.7c-7,14.2-14.8,27.9-23.9,40.9c-1.2,1.7-2.1,3.5-2.6,5.6c-0.9,3.8-3.2,6.9-6.2,9.4
			c-1.5,1.2-3.3,1.5-5.1,0.6C1312.5,179.6,1311.8,178,1311.7,175.9z"/>
		<path fill="#ffffff" d="M1192.7,55.4c-0.6,8.1-2.4,16-3.9,23.9c-0.7,3.7-1.6,7.5-2.5,11.2c-0.3,1.4-0.7,2.8-1.4,4.1
			c-1.1,2.1-3,3.2-5.4,2.8c-2.4-0.4-3.9-2-4.4-4.3c-0.2-1.1-0.3-2.4-0.1-3.5c1.8-11.5,3.4-23,6.4-34.3c0.5-1.7,1.1-3.5,1.8-5.1
			c0.9-1.9,2.4-3.2,4.7-3c2.4,0.2,3.7,1.8,4.3,3.9C1192.6,52.5,1192.7,53.9,1192.7,55.4z"/>
		<path fill="#ffffff" d="M964.2,120.8c-3.8,0-6.5-3-6.4-7c0.1-1.6,0.4-3.1,1.1-4.5c5.2-10.9,10.1-22,18.9-30.7
			c0.6-0.6,1.2-1.4,1.9-2c1.4-1.3,3-2.1,4.9-0.9c2.1,1.3,3,3.6,2.2,5.9c-0.3,0.9-0.8,1.8-1.3,2.7c-5.1,8.1-8.7,17-13.4,25.3
			c-0.7,1.3-1,2.5-0.5,4.1C972.6,117,968.5,120.8,964.2,120.8z"/>
		<path fill="#ffffff" d="M1273.1,112.8c3.1,0.2,6.4,1.6,9.6,3.2c4.4,2.3,8.8,4.6,13.2,7c2.8,1.5,5,3.7,5.5,7c0.7,4-2.1,7.2-6.2,6.4
			c-5.9-1-11.8-2.2-17.6-3.7c-5.2-1.4-9.4-4.4-11.7-9.5C1263.7,117.8,1266.9,112.7,1273.1,112.8z"/>
		<path fill="#ffffff" d="M1280.2,72.4c6.4,2,14,4.3,18.8,11.5c1.2,1.8,2.9,3,4.1,4.7c1.5,1.9,2.6,4,2.1,6.5
			c-0.4,2.5-2.8,3.8-4.6,2.2c-4.1-3.7-9.5-4.3-14.4-6c-3.7-1.3-7.4-2.4-10.6-4.8c-1.6-1.1-2.9-2.5-3.7-4.2
			C1269.6,77.1,1272.9,72.4,1280.2,72.4z"/>
		<path fill="#ffffff" d="M315.6,72.3c0.4,0.1,1.1,0.1,1.8,0.4c5.2,2,10.3,4.1,15.1,6.8c2.7,1.5,3.8,4.2,3.1,6.7
			c-0.3,1.3-1,2.4-2.4,2.8c-1.3,0.4-2.3-0.2-3-1.3c-0.8-1.2-2.1-1.3-3.4-1.5c-3.3-0.6-6.6-1.1-9.9-1.8c-2.7-0.6-4.9-2-6.2-4.5
			C308.7,76,311.1,72.2,315.6,72.3z"/>
		<path fill="#ffffff" d="M326.5,109.5c3.4,0,5.6,0.6,7.3,2.5c0.8,0.9,1.3,2,0.6,3.3c-0.7,1.3-1.9,1.4-3.1,1c-1.9-0.6-3.6,0-5.3,0.7
			c-3,1.3-5.8,3-8.6,4.7c-1,0.6-2,1.3-3.1,1.7c-2.7,1.1-5.3,0.2-6.4-1.9c-1.2-2.2-0.5-4.9,2-6.3C315.4,112,321.2,109.9,326.5,109.5z
			"/>
		<path fill="#ffffff" d="M199.6,149.4c-0.1,2.2-0.8,4-2.8,5.3c-5,3.1-10.6,4.6-16.1,6.6c-2.6,1-4.7-1.5-3.8-4.4
			c0.6-2.1,2.1-3.6,3.8-4.9c4.2-3.4,9.1-5.2,14.3-6.3C197.9,145,199.6,146.6,199.6,149.4z"/>
		<path fill="#ffffff" d="M176.9,176.6c-2.6,0-3.3-0.9-2.5-3.4c0.9-2.6,2.5-4.5,5.1-5.6c3.9-1.6,7.9-3.2,12.2-3.6
			c1.4-0.1,2.8-0.2,3.8,0.9c1.1,1,1.6,2.2,0.3,3.5C193.3,171.2,180.8,176.7,176.9,176.6z"/>
	</g>
</g>
<g id="_xFFFD__x9C__x96_撅_xFFFD__9_xA0_影像_1_">
</g>
<g id="_xFFFD__x9C__x96_撅_xFFFD__10_xA0_影像_1_">
</g>
<g id="_xFFFD__x9C__x96_撅_xFFFD__11_xA0_影像_1_">
</g>
<g id="_xFFFD__x9C__x96_撅_xFFFD__12_xA0_影像_1_">
</g>
<g id="_xFFFD__x9C__x96_撅_xFFFD__13_xA0_影像_1_">
</g>
<g id="_xFFFD__x9C__x96_撅_xFFFD__14_xA0_影像_1_">
</g>
<g id="_xFFFD__x9C__x96_撅_xFFFD__15_xA0_影像_1_">
</g>
<g id="_xFFFD__x9C__x96_撅_xFFFD__16_xA0_影像_1_">
</g>
<g id="_xFFFD__x9C__x96_撅_xFFFD__17_xA0_影像_1_">
</g>
</svg>
