<?xml version="1.0" encoding="utf-8"?>
<!-- Generator: Adobe Illustrator 18.0.0, SVG Export Plug-In . SVG Version: 6.00 Build 0)  -->
<!DOCTYPE svg PUBLIC "-//W3C//DTD SVG 1.1//EN" "http://www.w3.org/Graphics/SVG/1.1/DTD/svg11.dtd">
<svg version="1.1" xmlns="http://www.w3.org/2000/svg" xmlns:xlink="http://www.w3.org/1999/xlink" x="0px" y="0px"
	 viewBox="0 0 978.1 255" enable-background="new 0 0 978.1 255" xml:space="preserve">

<style>
	#title {
		filter:url(#dropshadow)
	}
</style>
<filter id="dropshadow" height="130%">
  <feGaussianBlur in="SourceAlpha" stdDeviation="8"/> <!-- stdDeviation is how much to blur -->
  <feOffset dx="2" dy="4" result="offsetblur"/> <!-- how much to offset -->
  <feComponentTransfer>
    <feFuncA type="linear" slope="0.2"/> <!-- slope is the opacity of the shadow -->
  </feComponentTransfer>
  <feMerge> 
    <feMergeNode/> <!-- this contains the offset blurred image -->
    <feMergeNode in="SourceGraphic"/> <!-- this contains the element that the filter is applied to -->
  </feMerge>
</filter>
<g id="title">
	<g>
		<path fill="#ffffff" d="M787.4,154.5c-0.7-0.8-1.6-0.6-2.5-0.6c-2,0-4,0.2-6,0.1c-4.4-0.4-7.4,1.1-9.8,5.1
			c-2.6,4.3-6.4,7.9-10.1,11.4c-4.1,3.9-8.3,7.6-12.2,11.7c-2.1,2.3-4.7,2.7-6.5,1.1c-1.9-1.5-2.1-4.1-0.2-6.6
			c4.9-6.4,10-12.7,15-19.1c1.1-1.3,1.8-2.1-0.4-3.1c-2-0.9-2-2.6-0.7-4.3c1.2-1.5,2.6-2.8,4.3-3.7c12.2-6.1,25-8.9,38.5-5.9
			c11.1,2.4,18.1,9.7,19.4,20.9c2.3,18.6-4.6,34-18.3,46.5c-2.8,2.6-6.1,4.6-9.2,6.8c-2.3,1.6-4.8,2.9-7.7,3.4
			c-4.6,0.7-8.1-1.2-9.7-5.6c-0.9-2.4-1.5-4.9-2.2-7.3c-0.4-1.5-1-2.1-2.3-0.6c-6.5,7.6-14,14.3-20.4,22c-2.9,3.6-6.7,4.4-9.8,2.3
			c-2.9-2-3.7-6-1.5-9.8c4.1-7.2,8.8-14,13.5-20.8c7.1-10.5,14.7-20.6,23.3-29.9c4.4-4.7,9-9.2,14.5-12.7
			C786.8,155.4,787.4,155.3,787.4,154.5z M798.5,164.9c0-1.8-0.1-3.6-0.9-5.3c-0.3-0.6-0.5-1.6-1.4-1.5c-0.7,0.1-0.7,1-0.9,1.6
			c-1.1,3.6-2.7,6.9-4.5,10.2c-4,7.3-8.5,14.2-13.2,20.9c-4.1,5.8-4.1,5.8-1,12.2c1.3,2.6,1.6,2.7,3.4,0.4
			c7-9.1,12.9-18.8,16.8-29.7C797.9,170.8,798.4,167.9,798.5,164.9z"/>
		<path fill="#ffffff" d="M586.6,196.6c-5.7,0-11.4-0.6-17-1.9c-3.5-0.8-6.8-2-10-3.6c-12.1-6-17.8-16.2-16-29.6
			c1.3-9.8,4.6-19.1,9.7-27.6c2.5-4.2,5.5-7.8,11.2-7.2c1,0.1,1.6-0.7,2.4-1.2c2.8-1.9,5.8-3.4,9.1-4.2c9-2.3,16.1,3.9,15.1,13.1
			c-0.2,1.6-0.5,3.2-0.9,4.8c-2.4,8.3-7.1,15.1-13.4,20.8c-3.3,2.9-7,5-11.7,3.4c-1.5-0.5-1.5,0.4-1.4,1.4c0.4,2.6,2.2,4.1,4.5,5.1
			c4.9,2.1,10.2,2.7,15.4,2.9c8,0.2,15.7-1.5,23.5-2.9c3.3-0.6,6.6-1.5,10-1.6c5-0.2,8.6,1.9,10,5.5c1.5,3.8,0.2,8-3.8,11
			c-9.8,7.6-21,11.4-33.4,11.8C588.8,196.7,587.7,196.6,586.6,196.6z M572.9,136.8c-0.3,0.1-0.5,0.2-0.8,0.2
			c-4.8,1.5-7.9,9.3-5.4,13.6c0.7,1.2,1.2,1.2,1.9,0.1c2.3-3.9,3.8-8.2,5.2-12.5C574,137.5,574,136.8,572.9,136.8z"/>
		<path fill="#ffffff" d="M875.4,137.9c-3,0-5.4,0.2-7.7-0.3c-3.2-0.7-5.1-2.4-5.5-4.9c-0.4-2.5,0.9-4.8,3.9-6.2
			c6.7-3.2,13.9-4.8,21-6.5c3.2-0.8,6.4-1.5,9.6-2.1c1.6-0.3,2.4-1,2.5-2.6c0.4-6,0.9-12,1.5-17.9c0.2-2.1-0.8-2.2-2.4-2.1
			c-6.2,0.6-12.5,1-18.8,1c-2.2,0-4.4,0-6.5-0.7c-1.6-0.6-2.9-1.6-3.1-3.4c-0.2-1.7,0.7-3,2-3.9c1.9-1.4,4-2.2,6.1-2.9
			c7.3-2.6,14.8-4.3,22.4-6c2-0.4,2.9-1.3,3.3-3.3c0.5-2.9,1.4-5.8,2.7-8.5c1.1-2.1,2.6-3.7,5.1-3.3c2.7,0.4,3.4,2.5,3.6,4.8
			c0.1,1.8,0.3,3.6,0.1,5.4c-0.2,2,0.5,2.7,2.4,2.4c4.4-0.6,8.7-0.2,13,0.3c1.1,0.1,2.2,0.3,3.2,0.5c2.4,0.5,4.2,1.9,4.5,4.5
			c0.4,2.7-1,4.6-3.4,5.6c-3.9,1.6-7.7,3.2-11.8,4.1c-1.5,0.3-3,0.7-4.5,1c-6.5,1.3-6.5,1.3-7.7,7.7c-0.8,4.2-1.5,8.4-2.4,12.6
			c-0.5,2.3,0.1,2.9,2.4,2.5c10-1.5,19.9-3.1,30.1-2.7c1.1,0,2.2,0,3.3,0.2c3.4,0.4,5.7,2.4,6.2,5.2c0.5,2.8-0.9,5.5-4,7
			c-4.8,2.2-9.6,4.3-14.8,5.4c-11.4,2.5-22.9,3.9-34.5,5.3C889.8,136.6,882.3,137.6,875.4,137.9z"/>
		<path fill="#ffffff" d="M159.9,84.4c-0.2,7.1-2.3,15.4-6.2,23.1c-4.3,8.4-9,16.6-14.5,24.3c-1.6,2.3-3.3,4.5-5.7,6.2
			c-4,2.8-9,2.1-11.7-1.5c-2.6-3.6-1.8-8.8,1.9-11.6c1.3-1,2.4-2,3-3.4c0.4-0.8,1.3-1.5,0.6-2.4c-0.6-0.9-1.7-0.6-2.5-0.4
			c-7.6,1.3-15.2,2.7-22.3,5.9c-3,1.3-6.1,2.4-9.4,2.9c-2.4,0.3-5,0.4-6.1-2.3c-1.1-2.6,0.5-4.5,2.4-6.1c1.2-1,2.4-2,3.8-2.6
			c9.1-3.5,18.1-7,27.8-8.6c3.7-0.6,7.5-0.7,10.7,1.8c0.9,0.7,1.5,0.3,1.9-0.6c4.6-10.1,9-20.2,8.3-31.6c-0.4-6.7-4-10.4-10.6-11.6
			c-5.2-0.9-10.3-0.2-15.4,1c-8.2,2-15.7,5.2-22.1,10.7c-1.8,1.5-3.7,2.7-5.8,1c-2.1-1.7-1.5-3.9-0.6-6c0.9-2.2,2.4-4.1,4.1-5.7
			c11.9-10.7,25.7-16.4,41.8-15C150,53.4,160,65.4,159.9,84.4z"/>
		<path fill="#ffffff" d="M596.8,87c-10.3,0.7-20.6,2.4-30.1,7.3c-2.6,1.3-4.5,3.1-5.6,6c-1.4,3.9-3.7,7.3-6.2,10.5
			c-1.4,1.8-3.1,3.1-5.6,2.6c-2.6-0.6-3.7-2.6-4.2-4.9c-1.1-5.4-1.4-10.8,0-16.2c2-7.3,3.6-14.7,6.6-21.6c0.9-2.1,1.8-4.2,3.2-6
			c2.1-2.7,5.1-3.8,7.9-2.9c3.2,1,4.7,3.4,5,6.5c0.3,3.1,0.1,6.2-0.5,9.2c-0.1,0.7-0.5,1.6,0.1,2.1c0.8,0.7,1.5-0.2,2.2-0.5
			c10.8-5.2,22.2-7.8,34.2-8.1c2.4-0.1,4.7,0.1,7.1,0.6c12,2.2,19.3,11.4,17.7,23.5c-1.7,12.7-5.8,24.8-11.5,36.2
			c-2.3,4.6-6,7.7-11.3,8.5c-2,0.3-4,0.1-5.8-0.9c-2.7-1.6-3.5-4.8-1.5-7.3c8.1-9.7,8.9-21.5,10.1-33.3c0.2-1.8-0.1-3.6-0.1-5.4
			c0-2.9-1.6-4.5-4.3-5.1c-0.9-0.2-1.8-0.4-2.7-0.5C600,87.1,598.5,87.1,596.8,87z"/>
		<path fill="#ffffff" d="M335.2,138.3c0.1,3.4-0.9,6.6-1.9,9.9c-0.4,1.3-0.4,2.4,0.4,3.6c2.2,3,2.1,6.3,0.7,9.6
			c-1.4,3.2-2.8,6.5-4.4,9.7c-0.8,1.6-0.6,2.8,0.5,4.2c4.1,5.4,7.2,11.5,11.1,17.2c2.5,3.6,2,7.4-0.5,9.7c-2.4,2.2-6,2.2-9.6,0
			c-3.7-2.2-5.6-5.9-7.9-9.3c-2.7-4.1-2.7-4.1-6-0.4c-2.5,2.9-5.1,5.7-7.7,8.5c-1.2,1.3-2.5,2.4-4.2,2.9c-2.6,0.9-5,0.7-7.2-1.1
			c-2-1.8-2.7-4.1-2.1-6.7c0.4-1.8,1.1-3.5,1.8-5.1c3-6.9,5.7-14,9.3-20.6c0.9-1.6,0.6-2.3-1.3-2.3c-1.5,0-3.1-0.1-4.6-0.3
			c-4.5-0.7-6.4-2.9-6.8-7.4c-0.1-1.5-0.5-3-0.9-4.5c-2.2-7.6-1.3-15.1,0.9-22.6c0.5-1.6,1.2-3,2.4-4.2c1.6-1.7,3.7-2.9,5.9-2
			c2.8,1.1,4.9,0.3,7.4-0.9c2.7-1.3,5.7-2,8.7-2.3C328.6,122.7,335.3,128.7,335.2,138.3z M320.3,143.1c-0.3-8.4-0.8-8.8-8.2-7.4
			c-1.9,0.3-2.6,1.1-2.4,3.1c0.2,2.5,0.2,5.1,0,7.6c-0.3,5.7-0.4,5.7,5.1,4.3C320.5,149.1,320.5,149.1,320.3,143.1z"/>
		<path fill="#ffffff" d="M79.7,178.1c0-2.4-0.1-7.2,0-12c0.1-3.5,1-4.6,4.5-5.4c1.1-0.2,1.5-0.9,1.8-1.8
			c3.2-10.2,19.9-17.6,28.9-15.7c4.9,1,8.4,3.8,10.7,8.1c2.3,4.1,3.3,8.6,3.6,13.3c0.7,12.7-1.3,25.2-4.9,37.4
			c-0.6,1.9-1.5,3.7-2.8,5.2c-0.4,0.5-0.9,1.1-0.9,1.6c0,3.5-2.2,3.8-5,4.4c-7.2,1.6-14.5,2.5-21.8,3c-6.4,0.5-11.2-3-12.8-9.2
			C78.9,198.3,79,189.4,79.7,178.1z M110,154.7c-7.7,1.2-14.3,4.5-19.1,10.8c-1.2,1.5,0.1,2.9,0.4,4.3c0.2,0.8,0.8,0.9,1.5,0.6
			c6.5-3.2,13.6-3.6,20.7-3.9c1.1,0,1.7-0.5,1.7-1.6c-0.1-2.8-0.4-5.6-1.6-8.2C112.8,155.1,111.6,154.6,110,154.7z M93.6,206.4
			c-0.5,1.8,0.5,1.8,1.8,1.3c2.7-1,5.5-2.1,8.4-2.2c3.5-0.1,6-0.3,7-4.8c0.7-3.1,1.9-6.1,2.6-9.3c0.4-1.9-0.4-2.2-2-1.7
			c-5,1.7-10,3.3-15,5c-1.2,0.4-1.8,0.9-1.9,2.3C94.1,200.1,93.8,203.3,93.6,206.4z M115,177.8c0.3-1.9-0.8-1.9-2.5-1.5
			c-4.8,1.3-9.6,2.8-14.5,3.6c-5.3,0.8-5.3,0.8-4.3,6.1c0,0.1,0,0.2,0,0.3c0.1,1.3,0.8,1.7,2.1,1.3c5.5-1.7,11.1-2.9,16.7-3.9
			c1.3-0.2,2.1-0.9,2.2-2.3C114.7,180.2,114.9,179.1,115,177.8z"/>
		<path fill="#ffffff" d="M276,149.6c-0.1,3.5-1.1,7.6-3.2,11.3c-0.7,1.3-1,2.1,0.5,3.1c3.8,2.8,4.1,7.1,0.6,10.2
			c-2.1,1.9-1.6,2.8,0.2,4.3c4.2,3.5,7.2,7.9,9.1,13c1.5,4,0.7,7.4-2.2,9.3c-2.8,1.9-6.4,1.5-9.5-1.3c-3.2-2.9-6-6.1-8.4-9.7
			c-1.3-2-2-1.9-2.9,0.3c-3.4,8.3-8.4,15.5-14.7,21.8c-1,1-1.9,1.9-3.3,2.4c-1.7,0.6-3.3,0.4-4.6-0.8c-1.6-1.4-1.9-3.3-1.2-5.2
			c1.5-4.5,3.4-8.8,5.6-13c1.9-3.7,4.2-7.2,6.5-10.7c1.7-2.5,1.7-2.5-1.2-3.1c-5-0.9-7.1-3.7-6.6-8.8c0.1-1.3-0.3-2.3-0.8-3.4
			c-4.3-9.1-3.5-18.4-0.7-27.6c1.4-4.6,3.1-5.5,7.8-5.1c1.1,0.1,2-0.3,2.9-0.6c4.5-1.5,9.1-2.5,13.9-1.8
			C271.6,135.3,276.1,140.7,276,149.6z M259.3,143.2c-1.8,0.1-4,0.6-6.2,1.1c-1.7,0.4-2.1,1.3-2,2.9c0.4,5.3,0.3,10.5-0.4,15.7
			c-0.2,1.7,0.4,1.9,1.8,1.5c2.1-0.7,4.1-1.3,6.3-1.9c1.2-0.3,1.9-1,2.3-2.1c1.4-4.1,2.6-8.3,3-12.7
			C264.4,144.3,263.3,143.2,259.3,143.2z"/>
		<path fill="#ffffff" d="M805.9,108c1.9,0,3.8,0,5.7,0c4.8,0.1,7.9,2.4,8.5,6.1c0.6,3.7-1.7,6.9-6.3,8.3
			c-8.8,2.7-17.6,5.1-26.8,6.2c-7.5,0.9-15,1.8-22.5,2.5c-2.5,0.2-3.9,0.8-5,3.4c-1.8,4.4-4.5,8.5-7.4,12.4
			c-6.7,9.2-14,17.9-22.4,25.6c-1.1,1-2.4,2-3.7,2.8c-1.6,0.9-3.3,1-4.9-0.3c-1.5-1.2-1.8-2.9-1.4-4.7c0.4-1.6,1.3-3,2-4.4
			c5-9,11.8-16.5,18.7-24c2.2-2.3,4.4-4.6,6.5-7c0.5-0.6,1.6-1,1.1-1.9c-0.4-0.8-1.5-0.3-2.3-0.3c-2.6,0.1-5.3,0.3-7.9,0.3
			c-1.4,0-2.9-0.1-4.3-0.4c-3.5-0.6-5.6-2.3-5.9-4.8c-0.4-3.2,1.5-5.1,4-6.5c6.1-3.3,12.7-4.8,19.4-6.1
			C769.4,112,787.6,109.6,805.9,108z"/>
		<path fill="#ffffff" d="M923.1,156.4c-0.1-2-0.2-4,0.3-6c1.5-5.4,7.5-7.1,11.6-3.2c1.7,1.6,2.6,3.7,3.3,5.9
			c3.3,10.5,6,21.2,7.4,32.1c0.3,2.3,0.4,4.5-0.2,6.8c-1.4,5.9-7.4,8-12,3.9c-2.9-2.5-5.2-5.5-3.9-9.7c0.3-0.9-0.1-1.8-0.4-2.6
			c-0.9-2.8-2-5.5-2.7-8.3c-0.6-2-1.3-2.4-3.2-1.4c-4.6,2.4-9.2,4.7-13.9,6.8c-5.9,2.7-12.1,4.4-18.6,5c-4.9,0.4-9.6,0-14.1-2.2
			c-6.6-3.3-10-10.2-7-16.9c6.5-14.7,16.6-25.9,32.7-30.5c0.3-0.1,0.5-0.2,0.8-0.2c1.6-0.3,3.2-0.2,3.9,1.5c0.7,1.6-0.3,2.8-1.6,3.7
			c-8.6,5.9-14.2,14.1-19.2,23c-0.6,1-1,2.1-1.5,3.2c-0.8,1.6-0.2,2.5,1.5,2.4c2.4,0,4.7-0.1,7.1-0.3c8.5-1,16.8-2.9,24.9-5.8
			C923.3,161.7,923.3,161.7,923.1,156.4z"/>
		<path fill="#ffffff" d="M761.1,76c-0.9,3.2-1.5,5.6-2.3,8c-1.2,3.7-2.9,5.4-5.6,5.4c-2.7,0-4.6-1.6-5.8-5.3
			c-2.1-6.4-3-12.9-2.6-19.6c0.2-4.7,2.5-7.9,5.9-9c2.1-0.6,4.2-0.6,6,0.7c1.7,1.2,2.7,0.6,3.8-0.8c2.5-3,5.6-5.4,9.1-7.3
			c12.3-6.6,23.9,0.1,24.2,14c0.2,10-2.5,19.4-7.9,27.9c-0.9,1.5-1.6,2.4,0.1,4.1c2.2,2.1,1.1,6.1-2.1,6.7c-7.3,1.3-14.1,5-21.8,4.3
			c-2-0.2-4-0.4-5.8-1.3c-1.8-0.9-3.1-2.2-3.2-4.4c-0.1-2.2,1.1-3.6,2.9-4.6c3.2-1.8,6.9-2.4,10.5-2.9c2.1-0.3,3.6-1.1,5-2.7
			c2.2-2.6,4.6-4.9,5.6-8.2c0.3-0.8,0.9-1.8,0.3-2.6c-0.7-0.9-1.7-0.2-2.5,0c-2.1,0.4-4.3,0.9-6.4,1.2C765.6,80,762.9,79.6,761.1,76
			z M763.6,71.3c1.6-0.6,3.2-1.2,4.8-1.6c1.8-0.4,3.6-0.7,5.4-1c5.7-0.8,5.7-0.8,5.3-6.5c0-0.2,0-0.4,0-0.5
			c-0.3-2.8-1.2-3.4-3.8-2.2C770,62,766.4,66.1,763.6,71.3z"/>
		<path fill="#ffffff" d="M68.1,124c1.5-1.9,2.6-4.2,5.3-2.9c2.7,1.3,2,3.8,1.7,6c-0.9,6.6-2.2,13.1-3.8,19.5
			c-0.4,1.6-0.9,3.2-1.6,4.6c-2.6,5.2-8.9,5.5-12.1,0.6c-1.2-1.8-1.7-3.8-2.3-5.8c-3-10.3-4.4-20.8-4.9-31.4
			c-0.7-15.1-1.2-30.1-1.7-45.2c-0.1-2.7-0.2-5.5,0.5-8.1c0.7-2.8,2.6-4.4,4.9-4.3c2.7,0.2,3.1,2.2,3.7,4.3
			c4.9,17.9,7.1,36.3,9.2,54.7c0.3,2.3,0.4,4.7,0.7,7C67.7,123.4,67.8,123.5,68.1,124z"/>
		<path fill="#ffffff" d="M287.3,54.5c4.2,0.1,8.2,1.3,12.1,2.9c9.7,3.9,19.1,8.5,28.3,13.3c4.6,2.4,8.6,5.7,12.1,9.6
			c2.7,3.1,4.3,6.6,2.3,10.7c-1.6,3.4-5.2,4.9-10,4.4c-6.1-0.6-11.9-2.6-17.3-5.5c-12.1-6.4-23.3-14.5-34.5-22.3
			c-5.1-3.5-4-9.9,1.7-12.2C283.7,54.7,285.5,54.5,287.3,54.5z"/>
		<path fill="#ffffff" d="M220.9,89.4c-0.2,5.6-2.3,11.1-4.8,16.5c-1,2.2-0.9,3,1.7,3.7c5.3,1.4,8.8,6.1,8.5,12.2
			c-0.4,10-2.8,19.6-8.5,28.1c-2.3,3.4-5.5,5.5-9.5,6.3c-1.4,0.3-2.8,0.2-3.4-1.4c-0.6-1.5,0.3-2.5,1.5-3.1
			c5.1-2.7,7.4-7.3,8.8-12.5c1.3-5.1,2.5-10.3,2.5-15.6c0-4.6-1.2-5.5-5.6-4.5c-1.2,0.3-2.5,0.6-3.7,0.7c-5.4,0.5-8.9-3.8-7-8.9
			c1.1-2.9,2.5-5.6,3.8-8.4c1.5-3.2,2.7-6.6,3.1-10.1c0.5-3.6-0.3-4.4-3.8-3.8c-2.8,0.5-5.5,1.3-8.2,1.9c-4.9,1.2-8.3,0.1-9.7-3.1
			c-1.4-3.3,0.2-7.1,4.4-9.5c6-3.5,12.5-4.9,19.4-3.1C217.1,76.7,221,82,220.9,89.4z"/>
		<path fill="#ffffff" d="M199,162.1c0.2,8.6-0.6,18.5-1.3,28.5c-0.1,2-0.6,4-1,5.9c-0.8,3.2-3,4.9-5.7,4.9c-2.8,0-5-2-5.6-5.3
			c-0.5-2.7-0.7-5.4-0.9-8.1c-1.1-19.3,0.3-38.5,2.4-57.7c0.4-4,0.9-8,1.9-11.8c0.2-1,0.5-1.9,0.9-2.9c0.7-1.5,1.7-2.7,3.5-2.5
			c1.9,0.1,2.6,1.5,3,3.1c1.3,5.2,1.6,10.6,2.1,15.9C199,141.6,199.1,151.1,199,162.1z"/>
		<path fill="#ffffff" d="M675.1,203.5c-4.7,0-8-4.1-7.1-8.9c0.4-2.3,1.5-4.3,2.7-6.2c11.9-19.2,25.8-37.1,39.1-55.4
			c0.5-0.7,1.2-1.4,1.9-1.9c1.3-0.9,2.7-1,4.1-0.2c1.4,0.8,1.9,2.1,1.8,3.7c-0.1,1.7-0.8,3.2-1.4,4.7c-3.5,8.8-8.3,16.9-13.6,24.8
			c-5.4,8-11.1,15.7-15.9,24.1c-1.9,3.2-3.7,6.4-4.5,10.2C681.5,201.5,678.5,203.5,675.1,203.5z"/>
		<path fill="#ffffff" d="M261.8,117.4c-1.2-0.1-3.1-0.1-5-0.4c-2.2-0.3-4.1-1.2-4.6-3.6c-0.6-2.5,0.8-4.2,2.7-5.5
			c3.2-2.3,6.9-3.7,10.6-4.9c11.5-3.9,23.3-6.2,35.4-7.1c3.4-0.3,6.9-0.5,10.3-0.7c1.6-0.1,3.3,0.1,4.8,0.6c2.3,0.8,3.9,2.4,4.2,4.9
			c0.3,2.4-0.7,4.3-2.6,5.6c-1,0.7-2.1,1.1-3.2,1.5C297.4,113.3,280.1,115.9,261.8,117.4z"/>
		<path fill="#ffffff" d="M269.1,59.8c3.7,0,6.4,2.9,6.1,6.8c-0.1,2-0.9,3.9-1.8,5.7c-6.4,12.8-13.9,24.7-25.8,33.2
			c-0.6,0.4-1.2,0.9-1.8,1.2c-2.6,1.5-5.6,1.2-7.6-0.7c-1.9-1.8-2.5-4.6-1.2-7.3c1.4-2.9,2.8-5.7,4.6-8.4c6.2-9.3,13-18.2,20.3-26.6
			C263.8,61.6,266,59.9,269.1,59.8z"/>
		<path fill="#ffffff" d="M691.3,57c5.8,0.2,11.6,0.7,17.3,2.2c4.6,1.3,8.5,3.7,10.8,8.1c1.7,3.1,2.2,6.5-0.1,9.5
			c-2.4,3.1-5.7,3.3-9.1,2.1c-6.6-2.4-13.5-1.8-20.2-2.5c-2.4-0.3-4.9-0.4-7.2-1.2c-4.6-1.6-7.4-5.3-7.1-9.5
			c0.3-4.3,3.7-7.7,8.6-8.5C686.6,56.7,688.9,56.9,691.3,57z"/>
		<path fill="#ffffff" d="M471.6,216.2c-3.5,0.1-6.3-2.5-6.8-6.2c-0.3-2.2,0.2-4.3,1.3-6c7.8-12.3,15.9-24.4,28.2-32.8
			c1.3-0.9,2.8-1.8,4.2-2.4c1.9-0.8,3.8-0.7,5.3,0.9c1.5,1.6,1.4,3.5,0.5,5.3c-1.6,3.2-3.7,6-6,8.8c-6.3,7.6-11.8,15.7-16.8,24.1
			c-1.3,2.2-2.7,4.3-4.6,6C475.5,215.2,473.7,216.1,471.6,216.2z"/>
		<path fill="#ffffff" d="M480.5,78.6c6.7,0.9,14,1.8,21.3,2.9c2.6,0.4,5,1.5,7,3.4c3.3,3.3,3.7,8.3,1,11.7c-2.4,3-5.9,3.3-8.4,0.5
			c-1.2-1.3-2.4-1.4-3.9-1.3c-4.9,0.4-9.8,0.9-14.7,1.4c-3.1,0.3-6.2,0.2-9.2-0.8c-4.7-1.5-7.4-5-7.2-9.1c0.2-4.1,3.4-7.3,8.2-8.1
			C476.4,78.8,478.1,78.8,480.5,78.6z"/>
		<path fill="#ffffff" d="M122.1,83.8c1.8,0,3.4,0.4,4.9,1.4c2.2,1.6,3,4.5,2,7c-1,2.5-2.9,3.5-5.9,3.1c-1.2-0.2-2.3-0.1-3.5,0.3
			c-7.6,2.1-15.3,3.8-22.7,6.6c-2.3,0.9-4.6,1.6-7.1,1.9c-2,0.2-3.9-0.2-4.9-2.2c-1-2-0.5-3.9,1-5.5c0.9-1,2-1.9,3.1-2.6
			C99.3,88.1,110.5,85.3,122.1,83.8z"/>
		<path fill="#ffffff" d="M494.5,126.2c5.7-0.1,8.8,2.4,8.7,6.3c-0.1,3.3-2.6,5.5-5.8,4.8c-1.6-0.3-2.8,0-4.1,0.8
			c-3.4,2.1-6.8,4.1-10.3,6.2c-2,1.2-3.9,2.3-6.3,2.6c-3,0.4-5.9-1-7.2-3.4c-1.3-2.5-0.9-5.5,1.2-7.8c0.5-0.6,1.1-1.2,1.8-1.6
			C479.7,129.8,487.2,126.9,494.5,126.2z"/>
		<path fill="#ffffff" d="M696.6,105.3c4.9,0,8.3,1.1,10.4,4.5c1.1,1.8,1.7,3.8,0.2,5.6c-1.6,1.9-3.5,1.6-5.4,0.4
			c-1.3-0.8-2.6-0.6-4-0.3c-5.1,1.1-9.4,3.7-13.6,6.7c-1.3,1-2.6,2-4.2,2.6c-2.8,1-5.7,0.3-7.4-1.9c-1.7-2.3-1.6-5.4,0.3-7.8
			c0.4-0.6,0.9-1.1,1.5-1.5C681.5,108.9,689.3,106.2,696.6,105.3z"/>
	</g>
</g>
<g id="_xFFFD__x9C__x96_撅_xFFFD__11_xA0_影像_1_">
</g>
<g id="_xFFFD__x9C__x96_撅_xFFFD__12_xA0_影像_1_">
</g>
<g id="_xFFFD__x9C__x96_撅_xFFFD__13_xA0_影像_1_">
</g>
<g id="_xFFFD__x9C__x96_撅_xFFFD__14_xA0_影像_1_">
</g>
<g id="_xFFFD__x9C__x96_撅_xFFFD__15_xA0_影像_1_">
</g>
<g id="_xFFFD__x9C__x96_撅_xFFFD__16_xA0_影像_1_">
</g>
<g id="_xFFFD__x9C__x96_撅_xFFFD__17_xA0_影像_1_">
</g>
</svg>
