<?xml version="1.0" encoding="utf-8"?>
<!-- Generator: Adobe Illustrator 18.0.0, SVG Export Plug-In . SVG Version: 6.00 Build 0)  -->
<!DOCTYPE svg PUBLIC "-//W3C//DTD SVG 1.1//EN" "http://www.w3.org/Graphics/SVG/1.1/DTD/svg11.dtd">
<svg version="1.1" xmlns="http://www.w3.org/2000/svg" xmlns:xlink="http://www.w3.org/1999/xlink" x="0px" y="0px"
	 viewBox="0 0 717.1 264" enable-background="new 0 0 717.1 264" xml:space="preserve">

<style>
	#title {
		filter:url(#dropshadow)
	}
</style>
<filter id="dropshadow" height="130%">
  <feGaussianBlur in="SourceAlpha" stdDeviation="8"/> <!-- stdDeviation is how much to blur -->
  <feOffset dx="2" dy="4" result="offsetblur"/> <!-- how much to offset -->
  <feComponentTransfer>
    <feFuncA type="linear" slope="0.2"/> <!-- slope is the opacity of the shadow -->
  </feComponentTransfer>
  <feMerge> 
    <feMergeNode/> <!-- this contains the offset blurred image -->
    <feMergeNode in="SourceGraphic"/> <!-- this contains the element that the filter is applied to -->
  </feMerge>
</filter>
<g id="title">
	<g>
		<path fill="#ffffff" d="M143.3,130.8c5.9-0.1,11.1,0,16.3,0.6c10.7,1.1,20.8,4.4,30.4,9.2c1.1,0.6,2.2,1.2,3,2.3
			c1.6,2.1,1.8,4.4,0.4,6.6c-1.4,2.3-3.6,2.6-6,1.7c-6.4-2.3-12.9-4.3-19.7-5.5c-12.9-2.4-25.7-1.1-38.5,1.4
			c-22.7,4.4-44.8,11.2-66.5,19.2c-2.8,1-5.7,2-8.5,2.8c-1.6,0.5-3.3,0.4-4.4-1.3c-1.1-1.7-0.7-3.3,0.3-4.9c1.4-2.1,3.3-3.6,5.2-5.2
			c5.9-4.8,12.7-8.1,19.7-10.9c2-0.8,2.6-1.7,2-3.8c-2.1-7.6-4.1-15.3-5.2-23.1c-0.3-2-1.2-2.3-2.9-1.9c-2.8,0.6-5.5,1-8.3,1.3
			c-2.7,0.3-5.2-0.2-6.4-3.1c-1.1-2.7,0.1-5,2-6.9c2.9-2.8,6.4-4.8,10-6.5c1.7-0.8,2.3-1.7,1.9-3.6c-0.7-3.3-1.1-6.6-0.7-10
			c0.6-3.9,2.6-6.2,5.6-6.4c2.9-0.2,5.1,1.7,6.3,5.4c0.7,2,0.6,4.1,0.7,6.2c0.1,1.9,0.9,2.2,2.6,1.6c3.9-1.3,7.8-2.5,11.7-3.5
			c1.7-0.4,2.4-1.3,2.6-3c0.3-2.6,0.8-5.2,2-7.6c1.8-3.5,4.2-3.8,6.7-0.8c1.4,1.6,2.3,3.5,2.7,5.6c0.3,1.7,1.1,2.3,2.9,1.9
			c3-0.7,6.1-1.2,9.1-1.7c1.3-0.2,1.9-0.8,2.1-2c0.4-2,0.9-4.1,1.5-6.1c0.6-2.1,2-3.3,4.1-3.4c2.2-0.1,3.6,1.2,4.3,3.1
			c0.6,1.6,0.9,3.3,1.2,5c0.2,1.6,0.9,2.1,2.5,2.1c3-0.1,6-0.1,9,0c1.6,0,2.3-0.7,2.7-2c0.8-2.2,1.5-4.5,2.5-6.6
			c1.6-3.4,4.7-3.5,6.8-0.4c1.7,2.5,2.1,5.4,2.1,8.3c0,1.9,0.7,2.7,2.6,2.4c2-0.3,4-0.2,6,0.3c3.2,0.8,4.9,2.7,4.8,5.7
			c-0.1,2.8-1.8,4.6-4.9,5.3c-2.6,0.6-5.3,0.2-7.9-0.2c-1.9-0.3-2.9,0.3-3.3,2.2c-0.2,1.1-0.6,2.1-0.9,3.1
			C153.1,113.1,150.7,122.7,143.3,130.8z M136.6,130.8c-3.7-3.1-3.7-6.7-2.2-10.6c1.5-3.9,3-7.8,4.5-11.7c0.4-1.2,2-2.8,0.9-3.6
			c-1.2-0.9-3.1,0.3-4.7,0.7c-0.8,0.2-0.9,1-1,1.8c-0.2,1.5-0.3,3.1-0.7,4.6c-0.8,3.6-3.2,5.7-6.4,5.6c-3-0.1-5.2-2.2-6-5.7
			c-0.8-3.8-0.8-3.8-4.7-3.2c-0.4,0-0.7,0.1-1.1,0.1c-5.7,1-5.3-0.1-4.8,6.2c0.3,4.1,1.1,8.1,0.8,12.2c-0.2,3.4-2.2,5.7-5.1,6.2
			c-2.9,0.5-5.6-1.1-6.8-4.2c-0.4-1.1-0.7-2.2-1-3.4c-0.8-3.6-1.1-7.2-1.3-10.8c-0.1-2.2-0.8-2.9-3-2.4c-3,0.8-6,1.4-9.1,1.9
			c-2,0.3-2.5,1.3-2.2,3.2c0.9,7.4,2.1,14.7,3.8,22c0.5,2.3,1.3,2.8,3.7,2.1c14-4.4,28.1-8.1,42.7-9.9
			C134,131.6,135.2,131.7,136.6,130.8z"/>
		<path fill="#ffffff" d="M293.6,154.4c-14.2,0.2-28.4,0.1-42.5,1.4c-8.1,0.8-16,2.5-23.8,4.5c-1.8,0.4-3.6,0.9-5.3,1
			c-3.8,0.2-5.8-2.9-4.3-6.4c0.8-1.8,2.2-3.1,3.7-4.3c5.2-4.4,11.4-7.1,17.9-9c4.9-1.5,9.9-2.5,14.9-3.1c1.8-0.2,2.8-0.9,3.3-2.9
			c1.8-7.3,1.7-14.8,2.5-22.2c0.2-1.9-0.9-2.1-2.4-1.8c-5.9,1-11.8,2-17.8,2.9c-2.2,0.3-4.3,0.7-6.5,0.4c-3.5-0.5-4.8-3.4-3-6.4
			c1-1.7,2.6-2.8,4.2-3.9c7.8-5.5,16.5-9.2,25.5-12.1c2.1-0.7,3.2-1.7,3.5-3.9c0.5-3.8,1.3-7.5,2.5-11.2c0.2-0.7,0.5-1.4,0.8-2
			c1.5-3.5,3.9-5.2,6.5-4.7c2.7,0.5,4.3,2.9,4.3,6.7c0,2.8-0.3,5.6-0.5,8.4c-0.1,1.6,0.4,2.2,2,1.9c6.4-1.2,12.9,0,19.3-0.2
			c4.4-0.1,7.1,2,7.9,5.6c0.8,3.8-1,7.4-5,9c-7.5,2.9-15.2,5.6-23.3,6.3c-2.4,0.2-3.3,1.1-3.4,3.4c-0.6,7.5-1.3,15-2.2,22.5
			c-0.3,2.4,1.1,2,2.5,2c12-0.6,24-0.9,36-0.9c6.9,0,13.8,0.1,20.6,1.5c1.8,0.4,3.6,0.7,5.3,1.3c3.7,1.4,5.7,4.5,5.4,8.2
			c-0.3,3.6-2.6,6.2-6.5,7.1c-2.1,0.5-4.3,0.6-6.5,0.6C317.2,154.4,305.4,154.4,293.6,154.4z"/>
		<path fill="#ffffff" d="M372.6,84.4c1.1-1.3,2.2-2.6,3.4-3.9c4.9-5.6,10.8-9.4,18.3-10.3c9.3-1.2,16.2,3.3,19,12.2
			c1.9,6,1.8,12.2,1,18.4c-1.6,12.8-3.4,25.6-7.6,37.9c-0.6,1.9-1.2,3.8-2.5,5.4c-2.4,3-5.6,3.8-8.9,1.8c-1.2-0.7-2.1-0.7-3.3-0.1
			c-2.3,1.2-4.8,2.2-7,3.7c-1.4,1-3.1,1.5-4.8,1.7c-2,0.2-3.1,1.2-2.9,3.4c0.1,1.7,0.1,3.5-0.6,5.1c-0.9,2.1-2.2,3.6-4.6,3.7
			c-2.2,0.2-3.8-1-5-2.8c-1.5-2.4-2-5.1-2.5-7.7c-1.9-9.8-2.6-19.8-3-29.8c-0.6-13.5-0.9-27.1,0.6-40.6c0.4-3.3,1-6.7,1.9-9.9
			c0.3-1,0.7-2.1,1.2-3c0.6-1.2,1.5-2.1,3-1.9c1.5,0.2,2.2,1.3,2.4,2.6c0.4,3.8,0.8,7.6,1.1,11.4C372,82.6,371.7,83.5,372.6,84.4z
			 M379.8,110.9c5.1-2.5,10.3-4.2,15.6-5.2c0.8-0.1,1.3-0.5,1.5-1.4c0.7-5.4,1.5-10.8,0.4-16.3c-0.3-1.8-1.4-2.1-3-1.8
			c-2.5,0.5-4.4,2-6.2,3.7C382.6,95.6,380.3,102.6,379.8,110.9z M394.6,123.2c0.2-3.7,0.3-3.6-2.9-2.6c-4.2,1.4-8.2,3.5-12.7,3.9
			c-2.9,0.3-3.8,1.7-3.2,4.6c0.4,1.8,0.4,3.8,0.5,5.7c0.1,1.9,0.6,2.5,2.4,1.1c3.7-2.9,7.7-5.3,11.9-7
			C393.7,127.6,395.2,125.9,394.6,123.2z"/>
		<path fill="#ffffff" d="M664.7,171c0.5-2.1,0.8-4.1,1.3-6c0.6-2.4,1.6-4.7,4.5-4.7c2.9,0,4,2.3,4.4,4.8c1.1,6.5,1.8,13,0.7,19.5
			c-0.7,3.7-1.8,7.3-4.3,10.2c-3.9,4.6-9.8,4.9-14.1,0.6c-2.4-2.4-3.8-5.5-5.2-8.6c-8.1-17.9-14.1-36.6-18.8-55.7
			c-1.2-4.9-2.1-9.8-3.1-14.7c-0.8-3.7-0.7-3.7-4.3-2c-7.1,3.3-14,7-21.4,9.6c-2.6,1-5.4,2.2-7.8-0.6c-1.8-2.2-1.5-5.5,0.9-8.8
			c1.7-2.5,3.9-4.5,6.3-6.4c6.3-5.1,13.1-9.4,20.2-13.3c2.1-1.1,2.7-2.5,2.5-4.8c-0.5-4.8-0.7-9.6,0.3-14.4c0.4-2,1-3.9,2.3-5.5
			c2.6-3.3,6.3-2.7,7.8,1.2c1.4,3.7,2,7.6,2.8,11.4c0.7,3.4,0.7,3.2,3.9,2.2c3.9-1.3,7.5-3.6,11.9-3.3c2.6,0.2,5,0.5,6.3,2.9
			c1.4,2.7,1.1,5.3-0.7,7.7c-2.3,3.1-5.3,5.5-8.5,7.7c-2.1,1.4-4.3,2.8-6.5,4c-1.3,0.7-1.7,1.7-1.4,3.1c4.3,21.1,9.7,41.8,18.1,61.6
			C663.3,169.5,663.4,170.4,664.7,171z"/>
		<path fill="#ffffff" d="M553.2,125.9c-1.4,0.7-1.7,1.9-2.2,2.9c-1.9,3.3-4,6.3-6.6,9c-3.2,3.3-7.4,2.1-8.5-2.3
			c-0.4-1.3-0.3-2.7-0.2-4.1c0.4-3.3,1.2-6.4,2.4-9.5c6.6-16.6,13.7-33,22-48.9c1.6-3.1,3.2-6.1,5.4-8.8c2.5-3.1,5.4-4.1,8.1-2.9
			c2.6,1.1,4.1,4.1,3.8,7.8c-0.2,2.3-0.9,4.4-1.7,6.6c-3.1,8.9-6.9,17.6-10.8,26.2c-0.7,1.6-0.9,2.8,0.4,4.4c2.7,3,3.4,7,4,10.9
			c1.8,12.7,1.8,25.5,1.4,38.3c-0.2,6.6-0.5,13.2-0.7,19.9c-0.1,3.3,0,6.7,0.9,10c0.9,3.3,0.5,6.7-0.5,10c-0.8,2.3-2.3,3.9-4.8,4.3
			c-2.5,0.3-4.4-0.9-5.8-2.9c-1.6-2.3-2.1-5-2.5-7.7c-2.9-19.4-4.4-39-3.7-58.7C553.5,128.9,553.7,127.5,553.2,125.9z"/>
		<path fill="#ffffff" d="M467.5,185.6c2.1,0.7,2.2-1,2.5-2.3c2-9.2,3.2-18.4,4.4-27.7c0.7-5.3,1.1-10.7,1.7-16
			c0.3-2.3-0.5-2.9-2.7-2.3c-12,3.3-24,6.5-36.1,9.7c-2.8,0.7-5.7,1.1-8.6,1.6c-1.7,0.3-3.4,0.2-5.1-0.2c-2.2-0.5-3.9-1.6-4.5-3.9
			c-0.6-2.3,0.1-4.3,1.8-5.9c2.4-2.1,5.2-3.6,8.1-5.1c14.4-7.4,29.6-12.5,45.5-15.6c2.3-0.5,3.5-1.3,3.7-3.8
			c0.2-2.4,0.7-4.7,1.9-6.8c0.9-1.5,2.1-2.7,4-2.3c2,0.4,2.3,2.1,2.4,3.8c0.3,7.1,0.3,7,7.4,6.2c2.9-0.3,5.8-0.7,8.7-0.8
			c3.9-0.1,6.6,1.9,7.2,5.3c0.7,3.5-1,6.6-4.7,7.9c-4.4,1.6-9,3.1-13.5,4.2c-3,0.8-4,2.1-4,5.3c0.2,11.3-0.4,22.5-1.8,33.7
			c-0.9,7.4-2.8,14.6-5.4,21.6c-1,2.7-2.1,5.2-4.3,7.2c-3.4,3.2-8,2.8-10.6-1c-1.9-2.7-2.8-5.7-2.6-9
			C463,186.7,464.5,185.4,467.5,185.6z"/>
		<path fill="#ffffff" d="M474.9,47.9c-0.2,5-0.8,4.8,4.5,4.3c4-0.4,8-0.5,12-0.7c1.8-0.1,3.6,0,5.4,0.5c2.6,0.7,4.2,2.4,4.7,5.1
			c0.5,2.8-0.4,5.1-2.8,6.6c-1.1,0.7-2.4,1.3-3.7,1.7c-7,1.9-13.9,4.1-21.1,5.6c-2.5,0.5-4.2,2.7-4.1,5.2c0.1,1.7,1.3,1.2,2.2,1.1
			c4.5-0.4,9-0.9,13.6-1.3c1.3-0.1,2.7-0.1,4.1,0.2c3.4,0.6,5.6,2.9,6.2,6.1c0.6,3.2-0.6,6.5-3.6,7.9c-7.2,3.3-14.2,6.9-22.1,8.5
			c-2.2,0.5-4.5,0.5-6.8,0.3c-7.8-0.9-12.3-7.5-10.1-15.1c0.6-2.1,1.6-4,2.4-6.1c0.2-0.6,0.8-1.4,0.2-2c-0.6-0.6-1.4-0.2-2.1,0
			c-2.9,0.7-5.8,1.5-8.7,2.2c-2.2,0.5-4.2,0.5-5.6-1.6c-1.3-2.1-1-4.2,0.2-6.2c1.2-2,2.9-3.7,4.8-5.1c4.2-3.3,8.8-5.8,13.8-7.5
			c2.4-0.8,3.4-2.2,3.8-4.6c0.4-2.5,1-5,1.7-7.4c0.4-1.4,1-2.7,1.8-4c1.1-1.9,2.7-3.3,5.1-2.9c2.5,0.4,3.3,2.4,3.7,4.5
			C474.7,44.6,474.8,46.2,474.9,47.9z"/>
		<path fill="#ffffff" d="M73.2,65.3c2.3-1.3,4.3-2.5,6.4-3.5c23.1-10.7,47.2-16.9,72.8-15.4c1,0.1,2,0.1,3,0.4c2.1,0.5,3.5,1.9,4,4
			c0.5,2.1-0.1,4-1.7,5.4c-1.8,1.5-4.1,2.5-6.3,1.9c-2.9-0.7-5.6-0.3-8.4,0c-23,2.2-45.8,5.7-68,12.5c-3.6,1.1-5.9,2.8-6.8,6.5
			c-0.7,2.9-1.8,5.7-3.9,8c-2.6,2.8-5.4,3.6-8.3,2.4c-4.1-1.8-5.5-4.2-4.9-8.4c0.5-3.9,1.7-7.6,3.3-11.2c5.1-11.6,10.5-23,17.4-33.6
			c0.5-0.8,0.9-1.6,1.5-2.3c1.4-1.9,2.8-4,5.7-3.1c2.3,0.8,3.9,3.9,3.6,6.7c-0.7,4.9-2.2,9.5-3.9,14.2c-1.8,4.8-3.6,9.7-5.4,14.6
			C73.1,64.4,73.2,64.6,73.2,65.3z"/>
		<path fill="#ffffff" d="M184.7,206.3c0,4.4-2,7.6-5.1,8.8c-3,1.1-6.3,0.1-8.8-3.2c-7.2-9.3-11.6-19.9-13.1-31.6
			c-0.4-3.1,0-6.1,3.1-7.8c2.7-1.5,6.7-0.7,9.4,1.7c1,0.9,1.9,1.9,2.7,3c5.6,8.2,9.3,17.2,11.5,26.9
			C184.7,205,184.7,205.9,184.7,206.3z"/>
		<path fill="#ffffff" d="M46,213.3c0.2-2.6,1-5.2,2.1-7.7c3.6-8.2,8.4-15.6,14.9-21.9c4-3.8,6.1-3.9,10.5-0.7
			c1.8,1.3,2.1,3.3,1.3,5.1c-4.9,11.1-10.8,21.6-20.2,29.6c-1.6,1.4-3.5,1.9-5.6,0.9C46.9,217.6,46.1,215.7,46,213.3z"/>
		<path fill="#ffffff" d="M125.7,174.5c0.2-3.3,1.3-6.7,2.4-10c1-2.9,3.7-3.3,6.1-1.1c1.2,1.1,2,2.3,2.5,3.8
			c2.7,7.5,5.9,14.7,9.7,21.6c0.7,1.3,1.2,2.7,1.6,4c0.8,3.3-0.4,6.8-3,8.5c-3,1.9-6,1.8-9-0.1c-2.5-1.5-4-3.9-5.3-6.5
			C127.6,188.4,126.4,181.6,125.7,174.5z"/>
		<path fill="#ffffff" d="M112.1,185c0,3.5,0,7.1,0,10.6c0,1.6-0.2,3.3-0.7,4.8c-0.7,2-2,3.5-4.2,3.8c-2.3,0.3-4-0.8-5.3-2.6
			c-6.8-9.4-6.4-19.8-4.3-30.4c0.2-1.1,0.8-2.2,1.4-3.3c2.7-5.1,8-5.3,11.2-0.4c1,1.6,1.6,3.3,1.6,5.1c0,0.7,0.1,1.5,0.1,2.2
			c0,3.4,0,6.7,0,10.1C112,185,112.1,185,112.1,185z"/>
		<path fill="#ffffff" d="M681.8,69c-0.2,1.7-0.5,3.2-1.1,4.6c-1.2,2.6-3,4.6-6,4.9c-3,0.2-4.9-1.6-6.2-4.1
			c-2.4-4.5-4.9-8.9-8.3-12.8c-2.2-2.5-3.4-5.6-3.5-9c-0.1-3.1,0.9-5.8,3.7-7.4c2.8-1.7,5.9-1.3,8.2,0.7
			C675.6,52.1,679.6,60.1,681.8,69z"/>
		<path fill="#ffffff" d="M446.9,152.6c0.5,0.1,1.1,0,1.7,0.2c6.8,2.5,12.4,6.7,17,12.1c1.6,1.8,1.6,4.3,0.1,6.3
			c-1.6,2.1-3.8,2-5.9,1.1c-5.1-2.1-10.2-4.2-15.1-6.9c-0.9-0.5-1.8-1.2-2.6-1.9c-2-2-2.6-4.8-1.5-7.2
			C441.8,153.7,444,152.7,446.9,152.6z"/>
	</g>
</g>
<g id="_xFFFD__x9C__x96_撅_xFFFD__14_xA0_影像_1_">
</g>
<g id="_xFFFD__x9C__x96_撅_xFFFD__15_xA0_影像_1_">
</g>
<g id="_xFFFD__x9C__x96_撅_xFFFD__16_xA0_影像_1_">
</g>
<g id="_xFFFD__x9C__x96_撅_xFFFD__17_xA0_影像_1_">
</g>
</svg>
