<?xml version="1.0" encoding="utf-8"?>
<!-- Generator: Adobe Illustrator 18.0.0, SVG Export Plug-In . SVG Version: 6.00 Build 0)  -->
<!DOCTYPE svg PUBLIC "-//W3C//DTD SVG 1.1//EN" "http://www.w3.org/Graphics/SVG/1.1/DTD/svg11.dtd">
<svg version="1.1" xmlns="http://www.w3.org/2000/svg" xmlns:xlink="http://www.w3.org/1999/xlink" x="0px" y="0px"
	 viewBox="0 0 1236.1 252" enable-background="new 0 0 1236.1 252" xml:space="preserve">
	 
<style>
	#title {
		filter:url(#dropshadow)
	}
</style>
<filter id="dropshadow" height="130%">
  <feGaussianBlur in="SourceAlpha" stdDeviation="8"/> <!-- stdDeviation is how much to blur -->
  <feOffset dx="2" dy="4" result="offsetblur"/> <!-- how much to offset -->
  <feComponentTransfer>
    <feFuncA type="linear" slope="0.2"/> <!-- slope is the opacity of the shadow -->
  </feComponentTransfer>
  <feMerge> 
    <feMergeNode/> <!-- this contains the offset blurred image -->
    <feMergeNode in="SourceGraphic"/> <!-- this contains the element that the filter is applied to -->
  </feMerge>
</filter>
<g id="title">
	<g>
		<path fill="#ffffff" d="M442.2,65.8c5.2-0.1,10.2,0.4,13.6,5.3c3.2,4.6,2.4,9.4-2.4,12.3c-2.2,1.4-4.4,2.9-7.1,3.4
			c-1.6,0.3-1.3,1.5-1.4,2.5c-1.6,13.7-0.4,27.6-2.3,41.3c-0.7,5.4-0.9,10.9-1.4,16.3c-0.2,1.8,0.1,2.7,2.1,1.7
			c1.5-0.7,3.1-0.9,4.1,0.8c0.9,1.6,0.1,3-1.1,4.1c-0.2,0.2-0.4,0.4-0.6,0.6c-5,2.8-5.9,7.3-6.2,12.6c-0.7,13.9-2,27.7-4.7,41.4
			c-0.7,3.3-1.3,6.6-2.7,9.7c-1.1,2.6-2.7,4.8-5.9,5c-2.6,0.1-4.3-1.4-5.2-3.7c-1.1-2.8-1.5-5.7,1.1-8c1.1-1,1.2-2.2,1.3-3.5
			c0.7-8.7,0.6-17.4,0.9-26.2c0-0.5,0.2-1.2-0.3-1.5c-0.7-0.4-1.2,0.3-1.6,0.7c-1.6,1.5-3.1,3.1-4.6,4.6c-9.1,8.7-19.3,15.7-31.2,20
			c-2,0.8-4.1,1.4-6.3,1.6c-5.2,0.4-7.8-3.3-5.9-8.1c0.9-2.1,2.3-3.9,3.8-5.6c4.4-5.1,9.7-9.3,15-13.5c1.5-1.2,2-2.1,1.1-4
			c-3.6-8.6-5.8-17.6-6.3-27c-0.7-15.1-0.4-30.2,3.3-45c0.5-2.1,0-2.6-2-2.3c-2.1,0.3-4.2,0.1-6.2-0.8c-5.1-2.2-6.2-8.3-2.2-12.1
			c0.8-0.7,1.7-1.4,2.6-1.9c15-9.2,31.1-15.7,48.2-19.7c1.7-0.4,3.4-0.7,5.1-0.9C438.8,65.9,440.5,65.9,442.2,65.8z M409.8,107.2
			c0,0-0.1,0-0.1,0c0,2.9,0.1,5.8,0,8.7c-0.1,1.8,0.6,2,2.1,1.3c5.2-2.4,10.7-3.4,16.4-3.4c1.8,0,2.6-0.6,3.2-2.5
			c1.8-6.4,1.4-13,1.8-19.5c0.1-2-1.2-1.4-2.2-1.1c-6.3,1.7-12.6,3.5-18.9,5.2c-1.6,0.4-2.2,1.1-2.2,2.8
			C409.9,101.5,409.8,104.4,409.8,107.2z M409.4,138.3c0,0.6,0,1.3,0,1.9c0,3.1,0,3.1,2.7,1.9c2.6-1.2,5.3-2,8-2.7
			c7.8-2,7.8-2.1,8.4-10.1c0.1-1.7,0-2.5-1.9-1.4c-3.9,2.2-8.2,3.4-12.5,4.6C409.4,133.7,409.4,133.6,409.4,138.3z M409.8,168.7
			c4.5-2.8,8.6-5.7,12.9-8.1c2.5-1.4,3.3-3.3,3.4-6c0.1-1.9-0.6-1.8-1.8-1c-3.9,2.5-8.2,4.3-12.6,5.7c-0.9,0.3-1.8,0.5-1.8,1.7
			C409.7,163.4,409.8,165.8,409.8,168.7z"/>
		<path fill="#ffffff" d="M297.8,108.4c-0.4,13-0.8,26-2.4,38.9c-0.2,1.9,0.4,2.3,2.1,1.7c7.5-2.7,15.3-3.8,23.1-5
			c2.3-0.3,3.2-1.3,3.2-3.7c-0.1-5.8,0.3-11.6,0.8-17.4c0.2-1.7,0.5-3.4,0.9-5.1c0.8-2.9,2.8-4.7,5.8-5c3.2-0.4,5.7,0.7,7.5,3.5
			c1.3,2.1,2,4.5,2.3,6.9c2.7,20,3.2,40,0.3,60c-0.3,2.1-0.4,4.2-1.1,6.2c-1.6,4.3-5.9,6.7-10.5,5.7c-4.6-0.9-7-4.2-6.6-9.2
			c0.5-6.3,0.1-12.5,0-18.8c0-3-0.4-3.3-3.2-2c-12.8,5.8-26.2,9.9-40,12.3c-10.5,1.9-21,3.2-31.7,1.1c-1.8-0.4-3.5-0.8-5.2-1.4
			c-10.3-3.7-15.2-11.8-12.9-22.5c2.3-10.8,5.8-21.4,9.3-31.9c0.7-2,1.7-3.8,3.3-5.2c3.1-2.6,6.9-1.6,8.3,2.2c0.7,2,0.6,4.1,0.6,6.2
			c-0.1,8-0.8,16-0.6,24c0.2,8.1,1.7,9.5,9.8,9c5.3-0.3,10.4-1.8,15.5-3.1c1.6-0.4,2.1-1.4,2.1-3c-0.1-4.9,0-9.8-0.1-14.7
			c-0.6-16.9,1.7-33.5,4.3-50.1c0.3-1.9,0.8-3.7,1.4-5.5c0.4-1.2,1-2.4,1.7-3.4c1.7-2.3,5.9-3.9,8.2-3.1c3,1,3.5,3.7,3.7,6.4
			C298.5,91,298,99.7,297.8,108.4z"/>
		<path fill="#ffffff" d="M624.3,209.8c-2.9,0-5.8,0.1-8.7,0c-6.9-0.4-10.2-3.8-10.5-10.6c0-0.9-0.3-1.8-0.6-2.6
			c-5.7-13.6-6.6-27.6-3.6-42c0.8-3.8,2.2-7.3,4.5-10.5c2-2.7,4.6-4.4,8.1-4.2c3.2,0.2,4.7,1.9,4.8,5.1c0,1-0.5,2.4,0.7,3
			c1.1,0.5,1.9-0.8,2.7-1.4c8.7-6.2,18.5-9.3,29.1-9.1c10.8,0.3,17.9,7.7,18,18.6c0.1,11-4.7,20.1-11.4,28.5
			c-0.7,0.9-2.2,1.7-1.7,2.9c0.5,1.4,2.2,0.8,3.4,1c3.4,0.4,6.9,0.6,10.3,1c2.6,0.3,5,1.1,7,2.8c3.8,3.2,3.6,8.2-0.4,11.2
			c-2.1,1.6-4.6,2.1-7.2,2.2C654,206.5,639.2,208.5,624.3,209.8z M618.3,180.5c-0.1,2.2-0.2,4.4-0.3,6.5c-0.1,2.8,0.4,3.2,2.9,2.3
			c12.7-4.7,21.6-13.4,26.4-26.2c0.9-2.4,1.3-4.9,1.1-7.5c-0.1-1.7-1-2.8-2.7-2.7c-8.8,0.3-17,2.2-23.2,9c-2.1,2.3-4.6,5-4.1,8.6
			C618.7,173.8,618.3,177.1,618.3,180.5z"/>
		<path fill="#ffffff" d="M1145.2,146.1c-0.1-2.8,1.3-4.8,3.2-6.1c8.8-6.1,18.6-8.2,29-5.9c5.9,1.3,8.8,6,9.5,11.7
			c1.2,10-0.4,19.7-3.5,29.3c-0.8,2.4-1.9,4.7-2.8,7.1c-0.8,2.1-2,3.8-3.9,5.1c-2.7,1.8-2.6,2.3,0.3,3.6c4.8,2.2,9.4,4.8,13.6,8
			c3.5,2.7,6.4,6,8.7,9.7c2.2,3.5,2.1,7.2,0.1,10c-2.2,2.9-6.1,4.1-10.1,2.9c-1.3-0.4-2.6-0.9-3.8-1.6c-9.1-4.8-17.3-10.9-25.8-16.8
			c-1.4-1-2.3-3.6-4-3.1c-1.3,0.3-2,2.6-2.9,4.1c-5,7.3-10.6,14.1-17.8,19.4c-1.2,0.9-2.5,1.8-4,2.2c-2.8,0.8-5.5-0.1-7.1-2.1
			c-1.6-2.1-1.7-4.9,0.2-7.3c1.7-2.2,3.6-4.3,5.6-6.3c4.5-4.5,9-9,13.5-13.5c0.5-0.5,1.4-1,1.2-1.7c-0.3-1-1.4-0.5-2.2-0.6
			c-2-0.2-4-0.4-6-0.6c-1.7-0.2-3.3-0.7-3.8-2.6c-0.5-1.9,0.4-3.5,2-4.4c2.1-1.2,2.4-2,0.5-4c-2.4-2.5-2.8-6.1-2.9-9.5
			c-0.2-10.7,1.3-21.2,3.9-31.5c0.2-0.8,0.6-1.5,1-2.2c0.6-1,1.4-1.7,2.6-1.6c1.3,0.1,1.9,1,2.3,2.1c1,3.2,1.4,6.6,1.7,9.9
			c0.3,3,0.2,3,2.9,1.8c8.7-3.9,17.7-6.1,27.3-4.3c2.2,0.4,2.5-0.5,2.1-2.3c-0.5-2.4-2.1-3.7-4.3-3.9c-8.6-1.1-16.9-0.4-24.4,4.5
			c-0.4,0.2-0.7,0.5-1.1,0.8C1145.9,146.1,1145.7,146.1,1145.2,146.1z M1169,163.6c0.5,0,0.9-0.1,1.4,0c2.8,0.5,4.3-0.5,4.3-3.5
			c0-0.4,0.1-0.9,0.2-1.3c0.4-1.8-0.1-2.3-1.9-1.7c-4.3,1.4-8.6,1.9-13.1,1.9c-4.3,0-8.7,0.1-13,0.3c-2.8,0.1-2.9,0.6-2.6,4.8
			c0.2,2.6,1.7,2.1,3.2,1.8C1154.5,164.7,1161.8,164.1,1169,163.6z M1150.8,176.4c-0.8,0-1.6,0-2.4,0c-4.7-0.1-4.6,0-6,4.6
			c-0.5,1.7,0.1,1.8,1.5,1.6c3.2-0.6,6.4-1.3,9.6-1.7c4.8-0.5,9.7-1,14.3,0.1c2.5,0.6,3.4-0.2,4-2.1c0.4-1.1,0.6-2.3,0.9-3.4
			c0.3-1.7,0.2-2.8-2.2-2.2C1164.1,174.8,1157.5,176.2,1150.8,176.4z"/>
		<path fill="#ffffff" d="M1022.4,150c-1.6,12.8-1.7,26.5-3.4,40c-0.4,3.1-1.1,6.1-2.3,9c-3.3,8-11.2,10.6-18.6,6.2
			c-2.1-1.3-4-2.9-5.7-4.6c-19.2-19-34.1-40.8-42.1-66.9c-0.7-2.1-1.5-2.4-3.5-1.8c-8.7,2.5-17.5,4.9-26.2,7.3
			c-1.3,0.4-2.7,0.6-4,0.6c-1.8,0.1-3.5-0.2-4.4-2c-0.9-1.8-0.3-3.4,0.8-4.8c1.8-2.2,4.1-3.9,6.5-5.4c7.3-4.5,15.1-8,23.1-10.9
			c2.7-1,3.5-2.1,3.1-5.1c-0.8-5.4-0.6-10.9,1-16.2c0.4-1.3,0.8-2.6,1.7-3.7c1-1.2,2.3-1.9,3.8-1.2c1.6,0.7,2.7,2.4,2.4,3.6
			c-0.9,3,0.2,5.7,0.5,8.6c0.2,2.1,1,4.1,1.3,6.1c0.3,2.1,1.1,2.6,3.2,1.9c5.6-1.9,11.1-4,16.9-5.2c2.2-0.5,4.5-0.9,6.7-0.8
			c3.2,0.1,5.9,1.1,7.2,4.4c1.1,2.8,0.1,5.9-2.5,8.3c-2.5,2.2-5.4,3.7-8.5,4.7c-4.9,1.7-9.8,3.2-14.8,4.6c-1.9,0.5-2.2,1.3-1.4,3
			c9,21,22.2,39.1,38.6,55c1.7,1.6,2.1,0.8,2.6-0.9c2.6-8.5,4.5-17.2,6.1-26c0.7-4.1,1.8-8,4.3-11.4c1.3-1.7,2.9-2.9,5.1-2.1
			C1022.1,145.3,1022.6,147.1,1022.4,150z"/>
		<path fill="#ffffff" d="M507.2,81.2c12.8,0,19.2,7.6,17.2,18.4c-1,5.3-3.2,10.1-6.1,14.5c-4.9,7.6-7.7,16.3-12.7,23.8
			c-0.9,1.3-0.3,2.2,0.7,3.1c2.6,2.5,5,5,7.6,7.4c7.8,7.3,14.2,15.8,19.8,24.9c1.2,2,2.3,4.1,2.2,6.6c-0.1,2.7-1.1,4.8-3.7,5.8
			c-2.4,1-4.4,0-6.1-1.7c-10.1-9.9-21.1-18.9-31.2-29c-1.3-1.3-2.1-0.9-3.1,0.2c-3.1,3.4-6.3,6.8-9.5,10.2c-1.8,1.9-3.8,3.7-6.2,4.9
			c-3.3,1.7-6.6,1.3-8.8-1c-2.2-2.3-2.7-6-1-9.1c1-1.9,2.5-3.6,4-5.2c3.7-4,6.7-8.3,9.4-13c0.9-1.6,0.8-2.6-0.4-3.8
			c-1.4-1.4-2.7-3-3.9-4.5c-3.4-4.3-1.2-9.8,4.2-10.7c3.1-0.5,5.9,0.6,8.6,2.1c1.4,0.8,2.2,0.8,3.1-0.7c3-5.7,5.8-11.5,7.7-17.7
			c0.3-0.9,0.9-2,0.1-2.8c-0.8-0.8-1.9-0.2-2.8,0c-5.5,1.6-9.9,4.9-13.6,9.1c-1.7,1.9-3.3,2.5-5.3,0.6c-0.5-0.5-1-0.6-1.7-0.7
			c-2.9-0.2-4.1-1.6-4.1-4.5c0-2.2,0.9-4.1,2-5.9c4.2-7.3,10.6-12.1,17.8-16C496.7,83.5,502.6,81.3,507.2,81.2z"/>
		<path fill="#ffffff" d="M68.5,79.4c0,4.1,0.1,8.2,0,12.3c0,1.9,0.5,2.6,2.5,2.2c3.7-0.8,7.5-1.3,11.4-1.2c2.7,0,5.2,0.5,7.7,1.6
			c5.4,2.3,6.6,8,2.5,12.2c-2.9,3-6.4,4.8-10.4,5.5c-3.6,0.6-7.2,1.2-10.8,1.6c-1.4,0.2-2.1,0.7-2,2.2c0.2,4.5,0.2,9.1,0.3,13.6
			c0,1.6,0.4,2.1,2.1,1.3c4.2-2,8.4-3.9,12.6-5.9c1.4-0.7,2.9-1.2,4.4-1.3c4-0.3,7.7,2.9,6.8,6.6c-1,3.9-2.5,7.9-6.7,9.6
			c-5.7,2.3-10.9,5.5-16.3,8.2c-1.8,0.9-2.5,2-2.4,4c0,8.2-0.3,16.4-1.7,24.4c-1.2,7-4.2,13.1-9.4,18c-1.2,1.1-2.5,2.2-3.9,3
			c-2.3,1.4-4.7,2-7.1,0.2c-2-1.4-2.5-3.6-1.9-5.8c0.7-2.9,2.1-5.5,5.3-6c1.7-0.3,2.3-0.8,2.6-2.3c1.6-7.9,2.5-15.8,2.1-23.8
			c-0.1-1.8-0.5-2.3-2.2-1.3c-5.3,2.9-11.1,5-16.5,7.7c-2.7,1.3-4.7,0.7-6.6-1.3c-1.9-2.1-2.2-4.2-0.7-6.7c1.2-2.1,3.1-3.6,4.9-5.1
			c5-4,10.4-7.3,16-10.4c2.4-1.4,3.4-2.8,3-5.8c-0.8-6.1-1.1-12.3-0.7-18.5c0.1-2-0.5-2.5-2.5-2.2c-3,0.5-6.1,0.7-9.2,0.9
			c-1.2,0.1-2.4,0.1-3.5,0c-3.9-0.3-6.4-2-7.1-4.9c-0.6-2.7,0.8-5.3,4.1-7.3c5.3-3.1,11.1-5,17-6.5c1.8-0.5,2.6-1.3,2.8-3.3
			c0.7-6.7,1.4-13.4,3.2-19.9c1-3.4,2.1-6.8,4.4-9.6c1-1.3,2.3-2.5,4.2-1.9c1.9,0.6,1.8,2.3,1.8,3.9c0,4,0,8,0,12
			C68.4,79.4,68.5,79.4,68.5,79.4z"/>
		<path fill="#ffffff" d="M700.4,145.7c0.4-10.3,1.1-21.3,2.9-32.3c0.7-4.3,1.7-8.6,3.5-12.6c2.3-5.1,5.9-9.1,10.8-11.8
			c2.4-1.3,4.8-1.9,7.2-0.2c2.3,1.7,2.3,4.2,1.7,6.7c-1.8,8-3,16.1-3.8,24.2c-0.2,2.1,0.1,2.6,2.2,1.8c6.8-2.4,13.7-2.7,20.5,0.2
			c5.5,2.3,7.3,5.2,6.9,11.2c-0.1,1.3,0.4,2.5,0.6,3.7c1.4,10.3,0.7,20.5-2.2,30.5c-1.1,3.7-3.5,7.2-7.2,7.4c-3.1,0.2-4,1.9-5.8,3.4
			c-7.4,6.2-15.3,11.7-24.5,14.9c-4.8,1.7-10.3-1.5-10.8-6.5C701,173.2,699.1,159.9,700.4,145.7z M718.6,168.6c0,2.3,0,4.5,0,6.8
			c0,0.8,0.1,1.5,1.2,1c5.5-2.3,9.8-6.2,13.7-10.5c0.1-0.1,0.2-0.3,0.2-0.5c1.5-4.4,2.5-8.9,3.4-13.5c0.3-1.8-0.4-2.1-2-1.6
			c-3.4,1.1-6.2,3.4-9.3,5.1C720.5,158.5,717.6,162.3,718.6,168.6z M720.8,142c-0.5,2.2,0.4,2.2,2.3,1.3c4.2-1.9,8.5-3.5,12.8-5.3
			c2.6-1.1,2.9-1.7,1.6-4.2c-0.7-1.4-1.8-2-3.3-1.8c-2.3,0.3-4.7,0.6-6.9,1.3C722.2,135.1,721.2,136.5,720.8,142z"/>
		<path fill="#ffffff" d="M634.2,78.3c5.7,0,11.4-0.1,17.2,0c4.9,0.1,7.8,2.7,8.3,6.6c0.5,4.1-1.7,7.7-6.2,9
			c-6.6,2-13.2,4.1-20.1,4.7c-1.9,0.2-3.1,0.9-4.1,2.6c-16.9,28.5-34.6,56.6-56.5,81.7c-1.7,2-3.2,4.2-4.9,6.2
			c-2.9,3.2-6.4,3.7-9.2,1.6c-3.2-2.4-4-6.1-1.8-9.7c7.1-11.5,14.8-22.5,23.3-32.9c6.5-7.9,12.4-16.1,17.1-25.2
			c3.7-7.1,8.8-13.3,13.7-19.7c0.5-0.7,1.6-1.4,1.2-2.3c-0.5-1-1.6-0.3-2.5-0.2c-11,1.1-22.1,2.2-33.1,3.3c-1.3,0.1-2.5,0.3-3.8,0.3
			c-2.6,0-4.9-0.7-6.2-3.1c-1.4-2.6-0.9-5.1,0.6-7.5c1.3-2.1,3.4-3.5,5.6-4.7c5.6-3.1,11.8-4.8,18-6.1
			C605,79.8,619.6,78.9,634.2,78.3z"/>
		<path fill="#ffffff" d="M139.1,64.2c-0.2-3.4-0.5-6.7-0.6-10.1c-0.2-4.3,1.6-7.1,4.6-7.2c2.9-0.1,5.1,2.4,5.6,6.6
			c0.7,6.4,1,12.9,0.7,19.3c-0.1,2.5,0.7,2.9,2.9,2.4c7.7-1.7,15.6-2.8,23.4-3.6c4.6-0.5,9.1-0.2,13.5,0.8
			c6.7,1.6,10.6,6.1,12.3,12.5c1.7,6.2,0.6,11.9-4.5,16.4c-1.3,1.2-1.8,2.9-2.8,4.3c-1.7,2.7-4,3.9-6,3c-2.6-1.2-2.9-3.6-2.5-6
			c0.6-3.7,1.4-7.3,2.3-10.9c0.5-1.9-0.1-2.7-2-2.9c-3.8-0.5-7.6-0.3-11.4-0.3c-1.4,0-1.9,0.6-1.7,2.1c1.3,8.4,0.5,16.9,1.9,25.2
			c0.4,2.2,0.1,4.5-0.6,6.7c-1.5,4.2-5.5,5.1-8.6,1.9c-1.8-1.9-3.1-4.1-3.8-6.5c-2.5-8.3-5.2-16.5-4-25.4c0.1-0.8,0.5-2-1-2
			c-1.1,0-2.6-0.1-2.8,1.5c-1.6,12.9-10.4,22.2-16.8,32.6c-0.5,0.8-1.2,1.6-2,2.2c-2.2,1.6-4.9,0.5-5.4-2.2
			c-0.4-1.7,0.1-3.3,0.7-4.8c3.4-8.1,6.5-16.4,11.1-24c0.3-0.6,1.2-1.2,0.5-1.9c-0.5-0.5-1.2-0.2-1.8,0c-6.7,1.7-13.4,3.4-20.1,5.1
			c-1.8,0.4-2.1,1.7-2.3,3.2c-0.5,4.9-1,9.8-1.6,14.6c-0.2,1.6-0.6,3.2-1.1,4.8c-1.3,3.6-4.3,5.6-7.7,5.1c-3.3-0.5-5.7-3-6.1-6.7
			c-0.5-4.9,0.4-9.8,1.3-14.6c1.1-5.7,3.5-10.9,5.6-16.2c1.2-3.2,3.5-3.9,6.6-2.4c1.2,0.5,2.1,0.3,3.1-0.2
			c6.3-3.1,12.7-5.9,19.5-7.8c1.6-0.4,1.8-1.6,1.8-3c0-3.9,0-7.8,0-11.7C139.3,64.2,139.2,64.2,139.1,64.2z"/>
		<path fill="#ffffff" d="M826.7,129.3c-0.1,8.6-1.8,16.8-5.2,24.7c-4.9,11.5-10.4,22.8-17,33.5c-2.6,4.3-5.5,8.4-9.4,11.6
			c-2.5,2.1-5.2,3.3-8.5,2.7c-2.4-0.5-4.2-1.8-4.8-4.3c-0.5-2.4,0.6-4,2.7-5.1c1.3-0.7,1.9-1.9,2.5-3.1c3.9-8.2,7.7-16.5,11.6-24.7
			c0.9-1.8,0.3-2.7-1.2-3.8c-4.2-3-8.6-5.3-13.3-7.3c-2.7-1.2-5.2-2.6-7.2-4.8c-2.4-2.7-3-5.9-1.6-8.5c1.4-2.5,4.1-3.5,7.9-2.9
			c2.1,0.3,4,1.1,5.9,2c4.8,2.5,9.3,5.3,13.6,8.6c1,0.7,1.8,1.5,2.4-0.3c2.2-7.8,4.7-15.5,4.6-23.7c0-0.6,0-1.3-0.1-1.9
			c-0.4-3.2-1-3.6-4.3-3.3c-5,0.5-9.6,2-13.6,5.2c-3.7,2.9-7.7,5.4-10.6,9.3c-1.7,2.3-4.7,2.8-7.2,1.6c-2.5-1.1-4-3.7-3.5-6.8
			c0.5-3.4,0.9-6.9,1.8-10.2c1.7-6.8,3.6-13.5,5.4-20.3c0.2-0.7,0.4-1.4,0.7-2.1c0.9-2.2,1.4-4.9,4.2-5.1c3-0.2,5,1.9,6.6,4.1
			c1.8,2.7,1.9,5.8,1.8,8.9c-0.1,3.1-0.1,3.1,2.6,1.9c3.1-1.4,6.2-2.6,9.5-3.2c8.9-1.6,16.4,2.2,20.5,10.4
			C826.1,117.7,826.9,123.4,826.7,129.3z"/>
		<path fill="#ffffff" d="M1059.3,105.2c-2.7,2.6-4.9,4.8-7.1,6.9c-1.4,1.4-2.9,2.8-4.7,3.7c-2.9,1.3-6,0.8-8.1-1.3
			c-2-2-2.5-5.1-1.1-7.8c0.5-1.1,1.2-2,1.9-3c10.9-14.7,23.1-28.3,37-40.3c2.4-2.1,5.1-3.8,8.5-3.9c4.5-0.2,7.1,2.7,6.3,7.2
			c-0.6,3.7-2.4,6.9-4.9,9.6c-4.2,4.7-8.4,9.3-12.8,13.8c-1.4,1.4-1.9,2.8-2,4.8c-0.8,30.7,0,61.4,0.4,92.1
			c0.1,6.4-0.1,12.9-0.3,19.3c-0.2,6.2-5.6,10.8-11.2,9.8c-4.2-0.8-7-4-6.9-8.9c0.6-31.5-0.2-63,3.8-94.4
			C1058.5,110.5,1058.9,108.2,1059.3,105.2z"/>
		<path fill="#ffffff" d="M146.5,156.2c-1.1-0.6-2,0-3,0.3c-4,1.1-8,2.3-12.1,3.4c-1.4,0.4-2.8,0.7-4.3,0.8
			c-1.9,0.1-3.7-0.5-4.6-2.3c-0.9-1.9-0.4-3.7,0.9-5.3c1-1.3,2.4-2.2,3.8-3c5.8-3.5,12-6.1,18.5-7.9c4.2-1.2,8.4-2.3,12.7-3.3
			c7.3-1.6,12.6,4.1,10.5,11.3c-0.8,2.7-2.4,4.9-4.1,7c-4.9,6.1-9.8,12.1-14.7,18.3c-2.6,3.3-4.9,6.8-6.6,10.6
			c-2.8,6.3-0.6,11.4,6.1,12.7c11.1,2.1,21.7-0.1,31.4-6c2.3-1.4,3.2-3.5,2.6-6.3c-0.8-3.9-0.7-7.8,0.2-11.6c1-4.3,3.6-6.9,7.1-7.2
			c3.5-0.4,6.6,1.7,8.4,5.7c1.7,3.9,2.7,7.9,2.6,12.2c-0.1,6.5-2.5,12.1-8,15.7c-12.2,8.1-25.8,12.9-40.5,12.6
			c-14.7-0.3-25.4-11.8-24.5-25.4c0.3-4.7,2-9,4.2-13.1c3.2-5.9,7.4-11,11.6-16.1C145.4,158.1,146.3,157.4,146.5,156.2z"/>
		<path fill="#ffffff" d="M877.8,149c-3.8,5.3-7.6,10.6-11.3,16c-1.2,1.7-2.6,2.7-4.6,3c-4.4,0.7-7.1-1.7-6.7-6.2
			c0.4-3.8,1.4-7.5,3-11c7.3-15.4,15.6-30.1,24.5-44.7c4-6.5,8-13,12-19.5c0.8-1.3,1.7-2.6,2.8-3.7c1.7-1.8,3.9-2.3,6.3-1.5
			c2.4,0.9,3.5,2.7,3.8,5.2c0.2,2.3-0.4,4.5-1.1,6.7c-3.4,10.4-8.2,20.2-13.2,29.9c-1,2-1.6,4-1.6,6.2c-0.3,18.8-0.9,37.6-0.9,56.4
			c0,4.9-0.3,9.8-0.4,14.8c0,1.7-0.2,3.5-0.6,5.1c-0.8,3.5-3.8,5.7-7.1,5.5c-3.2-0.2-5.8-2.6-6.4-6c-0.2-1.4-0.2-2.9-0.2-4.3
			c0-16.5,0.7-32.9,2.2-49.3c0.1-0.9,0.1-1.8,0.1-2.6C878.1,149.1,877.9,149,877.8,149z"/>
		<path fill="#ffffff" d="M1134.6,95.4c3-6.3,8.2-9.1,13.8-11.2c2-0.8,2.9-1.8,3.2-3.9c0.3-1.9,0.8-3.7,1.5-5.5
			c0.6-1.7,1.9-2.7,3.8-2.6c1.9,0.1,2.9,1.4,3.4,3.1c0.1,0.3,0.1,0.6,0.2,0.8c0.8,1.2-0.8,3.7,1.7,3.9c3.4,0.3,5.7-1.2,6.7-3.7
			c0.6-1.5,1.2-3.1,1.8-4.6c0.7-1.6,1.7-2.8,3.6-2.8c2,0.1,3.2,1.3,3.8,3c0.3,0.8,0.6,1.6,0.5,2.4c-0.4,2.9,1.1,3.2,3.5,3
			c4-0.3,8-0.1,11.9,1.2c7.8,2.5,12.1,9.1,11.1,17.2c-0.9,7.1-3.9,13.3-9.1,18.2c-4.2,4-9.3,5.8-15.2,5.1c-1.9-0.3-3.8,0.4-5.7,0.7
			c-9.7,1.8-19.6,3.1-29.4,4c-2.1,0.2-4.2,0.1-6.3,0c-1.5-0.1-3.3-0.6-3.5-2.1c-0.4-2.8-1.8-2.5-3.9-2.1c-2.1,0.3-3.5-1.2-4.5-2.9
			c-2.1-3.4-3.4-7-4.1-10.9c-1.1-6.2-0.7-12.3,0.2-18.4c0.5-3.2,2.3-4.8,4.6-4.9c2.4,0,4.2,1.5,5,4.6
			C1133.8,89.4,1134.1,92.1,1134.6,95.4z M1135.1,113.5c0,0.4-0.1,0.7-0.1,1c-0.1,1.1,0,2.3,1.1,2.9c0.9,0.5,1.6-0.5,2.4-0.9
			c1.2-0.7,2.4-1.3,3.7-1.8c4.4-1.7,8.9-3.2,13.5-4.3c1.8-0.4,2.8-1.3,3.5-3c1.5-4.4,3.1-8.7,4.2-13.3c0.2-0.7,0.8-1.7-0.1-2.3
			c-0.7-0.5-1.6-0.1-2.4,0.1c-1.6,0.3-1.9,1.8-1.6,2.7c0.9,3.1-0.7,5.9-1,8.8c-0.2,1.9-0.7,3.7-3,3.8c-2.2,0.1-3.2-1.5-3.7-3.4
			c-0.7-2.5-1-5-1.1-7.5c-0.1-2-0.9-2.4-2.8-1.9c-3.7,1.1-7.1,2.5-10.5,4.3c-3.4,1.7-2.9,4.1-2.7,6.8
			C1134.6,108.2,1134.9,110.9,1135.1,113.5z M1182.8,105.9c6.2,0,6.2,0,7.4-6c0.3-1.6,0.5-3.2,0.6-4.9c0.2-2.5-1.1-3.9-3.5-4.4
			c-3.6-0.8-7.2-0.7-10.8-0.5c-1.3,0.1-1.9,0.9-2.3,2c-1.7,4.3-3.3,8.6-5.1,12.9c-0.9,2.2-0.1,2.4,1.9,2.1
			C1175,106.6,1179,105.8,1182.8,105.9z"/>
		<path fill="#ffffff" d="M1146.8,64.7c-9.4-0.2-18.9-0.6-28.3-1.3c-1.7-0.1-3.4-0.3-5.1-0.7c-2.1-0.5-3.9-1.7-4.3-4
			c-0.5-2.4,0.6-4.2,2.5-5.7c2.4-1.8,5.2-2.6,8-3.3c8.6-2.2,17.4-3.1,26.1-3.7c12.5-0.9,25-1.9,37.6-1.4c5.2,0.2,10.3,1.4,15.2,2.8
			c3.4,1,6,3.2,6.2,7.1c0.2,3.9-2.4,6.1-5.6,7.6c-2.3,1-4.6,1.7-7.1,1.2c-2.4-0.4-4.7,0.5-7,0.8
			C1172.2,65.6,1159.5,64.9,1146.8,64.7z"/>
		<path fill="#ffffff" d="M975.9,72.6c0.1-3.3,2.4-5.6,5.7-5.7c3-0.1,5.5,1.3,7.5,3.4c6.1,6.3,11.6,13,16.1,20.5
			c1.5,2.6,2.7,5.3,3.1,8.4c0.2,1.6-0.1,3.1-1.8,3.9c-1.7,0.8-3.2,0.2-4.1-1.2c-4.9-7.2-12.1-12-18.7-17.3c-2.2-1.8-4.2-3.7-5.8-6.1
			C976.7,76.7,975.8,74.8,975.9,72.6z"/>
	</g>
</g>
<g id="_xFFFD__x9C__x96_撅_xFFFD__13_xA0_影像_1_">
</g>
<g id="_xFFFD__x9C__x96_撅_xFFFD__14_xA0_影像_1_">
</g>
<g id="_xFFFD__x9C__x96_撅_xFFFD__15_xA0_影像_1_">
</g>
<g id="_xFFFD__x9C__x96_撅_xFFFD__16_xA0_影像_1_">
</g>
<g id="_xFFFD__x9C__x96_撅_xFFFD__17_xA0_影像_1_">
</g>
</svg>
