<?xml version="1.0" encoding="utf-8"?>
<!-- Generator: Adobe Illustrator 18.0.0, SVG Export Plug-In . SVG Version: 6.00 Build 0)  -->
<!DOCTYPE svg PUBLIC "-//W3C//DTD SVG 1.1//EN" "http://www.w3.org/Graphics/SVG/1.1/DTD/svg11.dtd">
<svg version="1.1" xmlns="http://www.w3.org/2000/svg" xmlns:xlink="http://www.w3.org/1999/xlink" x="0px" y="0px"
	 viewBox="0 0 1290.1 267" enable-background="new 0 0 1290.1 267" xml:space="preserve">
<style>
	#title {
		filter:url(#dropshadow)
	}
</style>
<filter id="dropshadow" height="130%">
  <feGaussianBlur in="SourceAlpha" stdDeviation="8"/> <!-- stdDeviation is how much to blur -->
  <feOffset dx="2" dy="4" result="offsetblur"/> <!-- how much to offset -->
  <feComponentTransfer>
    <feFuncA type="linear" slope="0.2"/> <!-- slope is the opacity of the shadow -->
  </feComponentTransfer>
  <feMerge> 
    <feMergeNode/> <!-- this contains the offset blurred image -->
    <feMergeNode in="SourceGraphic"/> <!-- this contains the element that the filter is applied to -->
  </feMerge>
</filter>
<g id="title">
	<g>
		<path fill="#ffffff" d="M1211.8,190.6c9.3-5.3,14.6-13.9,20.9-21.5c0.7-0.9,0.8-1.7,0.2-2.7c-1.4-2.5-2.8-5.1-4-7.7
			c-0.6-1.2-1.1-1.2-2.3-0.7c-4.8,1.9-8.7-1.3-7.9-6.4c0.3-1.7,0.9-3.3,1.5-5c3.9-10.7,8.7-21,13.9-31.1c0.7-1.4,1.5-2.7,2.4-3.9
			c1-1.4,2.4-2.2,4.3-1.6c1.8,0.6,2.5,2,2.6,3.8c0.2,3.5-0.6,6.9-1.4,10.2c-0.5,2-1.1,4-1.8,6.4c1.6-0.6,2.8-1.1,4-1.6
			c9.3-3.2,16.6,1.9,16.7,11.7c0.1,4.9-1.4,9.5-3.3,13.9c-1.6,3.8-3.6,7.4-6,10.6c-1.3,1.7-1.4,3,0,4.7c5.6,7,9.8,14.8,13.8,22.8
			c0.9,1.9,1.8,3.8,2.1,5.9c0.4,2.7-0.2,5-2.6,6.3c-2.5,1.4-4.8,0.7-6.7-1.1c-1.4-1.4-2.7-2.9-3.9-4.5c-4.4-6-8.9-12-12.7-18.4
			c-1-1.7-1.6-1.6-2.9-0.2c-3.9,4.3-7.8,8.6-12.1,12.6c-1.5,1.4-3,2.7-4.6,3.8c-4,2.9-6.5,2.7-10.1-0.7c-0.8,0.4-0.5,1.3-0.6,1.9
			c-1.4,10.1-3.7,20-6.8,29.7c-0.6,2-1.4,4-2.7,5.6c-2.4,2.9-6.1,2.6-7.8-0.7c-0.8-1.5-1.3-3.2-1.4-4.9c0-0.9,0-2.1,0.9-2.4
			c2.6-0.8,2.3-2.9,2.5-4.9c1-8.9,2-17.7,2.9-26.6c0.5-5.5,0.7-11.1-0.7-16.5c-0.4-1.4-0.8-2.8-1.4-4.1c-2.3-5-6.4-6.8-11.7-5.1
			c-3,1-5.7,2.5-8.2,4.3c-6,4.4-11,9.7-15.8,15.4c-1,1.2-1.2,2.5-1.3,4c-0.6,8.2,0,16.4-1.5,24.5c-0.2,1.2-0.4,2.3-0.8,3.5
			c-1.1,3.3-3.3,5.2-6.1,5.4c-3,0.2-5.5-1.4-6.9-4.7c-1.5-3.6-2.3-7.5-2.6-11.4c-1-15.3,0.6-30.3,5.7-44.9c1-2.9,2.4-5.5,5-7.3
			c1.5-1,3.1-1.7,4.9-0.9c1.8,0.8,1.2,2.6,1.3,4.1c0.2,3.5,0.6,7,0.9,10.5c1.3-0.2,1.6-1.1,2.2-1.7c3.8-4,7.9-7.5,12.7-10.2
			c2-1.2,2.1-4.2-0.1-5.4c-6.7-3.6-10.7-9.7-14.4-16c-0.6-1.1-1.1-2.3-1.4-3.5c-0.9-3.5-0.1-6,2.3-7.1c4.8-2.2,6.8-1.8,9.4,1.9
			c1.1,1.6,2.3,3.2,3.6,5.1c0.8-1.6,0.5-2.8,0.5-3.9c0.1-4.3,0.4-8.5,2.1-12.6c1-2.2,2.4-4,5.1-3.6c2.6,0.3,3.6,2.3,4,4.5
			c0.8,4,0,8-0.4,11.9c-0.2,1.8-0.5,3.6-0.7,5.6c1.9-0.8,2.7-2.2,3.6-3.6c2.4-3.6,5.1-6.9,8.8-9.2c3-1.8,5.6-1.9,7-0.2
			c1.6,1.8,1.4,4.6-0.3,7.3c-4.7,7.5-10,14.5-14.5,22.1c-1.2,2-1,2.4,1.3,2.6c8.2,0.9,13.9,5.5,17.3,12.8c2.8,6,3.8,12.5,4,19.1
			C1211.8,188.1,1211.8,189.2,1211.8,190.6z M1248.6,140.6c0.3-2.4-0.9-2.2-2.1-1.8c-3.4,1.2-6.3,3.2-9,5.4
			c-3.8,3.2-3.8,3.2-0.5,6.9c0.4,0.4,0.7,0.8,1.1,1.2c3.3,3.8,3.3,3.8,5.8-0.8C1245.9,147.9,1247.9,144.3,1248.6,140.6z"/>
		<path fill="#ffffff" d="M1040.2,122.4c1.1-0.6,1.3-1.6,1.7-2.3c3.2-5.6,7.6-9.9,13.2-13c9.9-5.5,20-2.2,24.8,8.1
			c2.2,4.8,3.2,9.8,3.6,15c1.1,16.5-2.3,32.2-8.3,47.4c-1.1,2.7-2.9,4.5-5.7,5.4c-2.2,0.7-4.4,1.7-7,2.8c2.8,2,5.2,3.9,7.2,6.3
			c4.4,5.1,7.7,10.8,10.5,16.8c1.5,3.1,3,6.2,4.5,9.3c2.1,4.4,1.3,8.5-2.1,10.7c-3.4,2.1-7.7,1.2-10.5-2.6
			c-6.1-8.4-11.7-17.1-15.7-26.7c-1.2-2.8-2.5-5.6-4-8.9c-0.5,1.1-0.8,1.7-1,2.3c-4.4,12.1-11.8,22.2-20.3,31.7
			c-1.5,1.7-3.4,2.5-5.6,1.3c-1.9-1-2.5-3.3-1.3-5.8c2.6-5.4,5.8-10.5,9-15.6c3-4.8,6.1-9.5,9.1-14.2c0.5-0.7,1.2-1.4,1.2-2.4
			c-2.7-0.4-5.3-0.8-8-1.3c-1.6-0.3-3.2-0.9-4.5-1.9c-2.9-2.3-3-5.9,0-8c1.2-0.9,1.6-1.4,0.6-2.7c-0.8-1.1-1-2.5-1.1-3.9
			c-1.2-16-0.9-32.1,3.4-47.4c3-11,6.5-22.1,11.5-32.5c0.8-1.8,0.8-2.3-1.3-2.3c-4.4,0-8.7-0.6-13-1.3c-4.9-0.8-7.6-3.2-7.6-6.5
			c0-3.2,2.5-5.7,7.3-6.5c12-2,24-2.9,36,0.2c2.2,0.6,4.5,0.8,6.7,1.3c3.9,0.8,6,3.2,5.9,6.4c-0.1,3.2-2.6,5.3-6.5,5.7
			c-4.6,0.4-9.2,1-13.9,1c-2.7,0-4.1,1.1-5.4,3.2c-4.1,6.7-7.4,13.8-10.5,20.9c-0.8,1.7-1.5,3.5-2.4,5.2
			C1039.8,119.1,1039.7,120.6,1040.2,122.4z M1065.9,156.6c0.3-7.4,0.8-14.9,1-22.3c0.1-4.3-0.3-8.5-1.7-12.6
			c-1.1-3-1.9-3.4-4.9-2.4c-6.7,2.3-10.8,7.3-14.1,13.3c-1.1,2.1-0.8,2.6,1.6,2.4c5-0.6,10,0.4,14.9,1.3c1.9,0.3,3.5,1.3,3.6,3.5
			c0,2.2-1.6,3.1-3.5,3.6c-0.5,0.2-1.1,0.3-1.6,0.4c-5.5,1.1-11.1,1.9-16.8,1.4c-1-0.1-2.3-0.4-2.1,1.2c0.2,2.3-1.1,4.8,0.8,6.9
			c0.1,0.1,0.5,0,0.8,0c5.5-0.4,10.9,0.6,16.3,1C1062.2,154.4,1064.2,154.8,1065.9,156.6z M1065.5,158.5c-1.6,2.2-3.3,2.4-5,2.7
			c-3.9,0.6-7.9,1.2-11.8,1.9c-2.3,0.4-5.4-0.9-6.7,1c-1.2,1.7-0.6,4.6-1,6.9c-0.3,1.9,0.4,2.2,2,1.7c5.1-1.3,10.3-2.1,15.6-2.5
			c2.1-0.2,3.7-2.2,6-1.3c0.1,0,0.5-0.7,0.6-1.1C1065.5,165,1065.9,162.2,1065.5,158.5z"/>
		<path fill="#ffffff" d="M612.4,205.8c4.3-1.8,8.1-3.1,11.9-4.1c1.2-0.3,1.5-1.1,1.3-2.3c-0.2-0.9-0.4-1.8-0.4-2.7
			c0-1.6-0.4-2.2-2.2-2.3c-2.9-0.2-4.1-2.5-3.2-5.6c1.1-3.6,2.9-6.9,4.7-10.1c1.1-2,1-3.6-0.3-5.5c-1.9-2.6-3.4-5.4-4.5-8.4
			c-0.7-2-1.1-4,0.9-5.4c2-1.4,3.9-0.4,5.4,1c1.4,1.3,2.7,2.7,3.9,4.2c1.1,1.4,1.8,1.2,2.6-0.2c0.5-0.9,1.1-1.7,1.7-2.4
			c1.5-1.6,1.6-2.6-0.1-4.6c-2.9-3.3-2.2-7.7-1.6-11.8c0.3-2,1.5-4.4-0.1-5.7c-1.5-1.2-3.5,0.6-5.3,1.3c-3.4,1.3-6.3,3.6-8.9,6.2
			c-1.2,1.2-2.5,2.4-4.3,1.5c-1.8-0.9-1.7-2.7-1.5-4.3c0.5-4.3,2.6-7.8,6-10.4c9.6-7.4,20.4-9.8,32.1-6.4
			c7.3,2.1,11.8,7.6,14.5,14.5c2,5.2,3.1,10.7,3.5,16.2c1.1,16.1,0,32-4.6,47.5c-1,3.2-2.2,6.4-4,9.2c-2.3,3.5-5.3,5.1-8.4,4.4
			c-3.8-0.9-5.2-3.8-5.5-7.2c-0.2-2.5-1.4-2.6-3.4-2.3c-7,1-13.9,2.9-20.7,4.6c-3.4,0.9-6.9,1.8-10.5,1.7c-4.4-0.2-6.1-3.1-4-7
			c0.6-1.1,0.6-1.5-0.7-1.9c-2.5-0.6-3.7-2.5-4.4-4.8c-5.3-16.9-5.6-34.1-2.7-51.5c0.2-1,0.5-1.9,0.8-2.9c0.7-1.9,1.6-3.8,4.1-3.8
			c2.3,0,3.2,1.8,3.8,3.7c0.5,1.5,1,3,1.2,4.5c1.8,14.2,4.2,28.4,3.4,42.8C612.8,198.8,613.4,202,612.4,205.8z M654.2,174.6
			c0.2,0,0.5,0,0.7,0c1-6,1.8-11.9,1.8-18c0-4.1-0.6-8.2-2.2-12c-1.8-4.1-4.8-6.6-9.3-6.9c-1.6-0.1-3.5-0.7-4.8,0.3
			c-1.2,0.9,0.2,2.4,0.1,3.8c-0.3,3.3-0.3,6.5,0.6,9.7c0.3,1.1,0.6,1.7,2,1.2c3.8-1.3,5-0.3,4.6,3.7c-0.1,1.1-0.3,2.2-0.6,3.2
			c-1.6,6.2-4.4,11.9-7.9,17.3c-1.2,1.9-1.3,3.3-0.3,5.2c1.3,2.5,2.5,5.1,3.6,7.6c0.5,1.2,0.6,2.6-0.7,3.4c-1.3,0.9-2.5,0.4-3.4-0.6
			c-1.1-1.1-2.1-2.3-3-3.5c-2.7-3.4-2.7-3.5-5.4,0.2c-0.2,0.2-0.3,0.4-0.5,0.6c-0.5,0.6-0.4,1.2,0.4,1.5c2.4,1.1,3.2,3.4,3.8,5.7
			c0.4,1.5,1.3,2,2.8,1.7c3.9-0.7,7.9-1,11.9-0.6c1.4,0.2,2-0.5,2.2-1.8c0.5-2.7,1-5.4,1.6-8c0.3-1.4,0.2-2.1-1.5-1.7
			c-1.9,0.4-3.3-0.6-4.3-2.2c-1.8-2.8-2.6-5.8-2-9.1c0.5-2.4,1.3-4.7,4.1-5.2c2.6-0.4,4,1.3,5.1,3.3
			C653.8,174.1,654,174.3,654.2,174.6z"/>
		<path fill="#ffffff" d="M562.5,147.8c0,1.4,0.1,2.7,0,4.1c-0.4,3.8-2.3,5.8-6.2,6.3c-5.4,0.7-9.5-1.3-12.4-6
			c-4.1-6.7-4.9-14.4-6-21.9c-0.5-3.6-0.4-3.5-3.9-2.6c-17.8,4.9-34.9,12-52.8,16.6c-4.2,1.1-8.5,1.9-12.8,2.3
			c-9.7,0.9-16.6-5.2-16.9-14.9c-0.1-2.6,0.1-5.1,0.7-7.6c5.2-19.7,14.2-37.3,28.5-52c2.9-2.9,6.1-5.4,10-7c2.8-1.1,5.7-1.6,8.2,0.5
			c2.5,2.1,2.3,5,1.6,7.8c-1.2,5-3.6,9.5-5.8,14.1c-6,12.3-12.9,24.2-18.6,36.7c-0.8,1.8-1.5,3.7-2.3,5.5c-0.7,1.7-0.1,2.3,1.7,2.1
			c3.7-0.5,7.3-1.5,10.9-2.6c15.1-4.9,30.1-10.3,45.4-14.6c5.3-1.5,5.3-1.5,5.7-7c0.2-2.4,0.4-4.7,1.4-6.9c2.3-5.1,8-5.7,11.3-1.1
			c0.6,0.8,1.1,1.7,1.4,2.6c5.3,13.6,9.1,27.6,10.9,42.1c0.1,1.1,0.1,2.2,0.2,3.3C562.6,147.8,562.6,147.8,562.5,147.8z"/>
		<path fill="#ffffff" d="M851.7,139.8c5.8-0.5,11.1-1,16.3-1.5c1.1-0.1,1.4-1.1,1.7-1.9c0.9-2.3,1.7-4.6,3.2-6.6
			c1.2-1.5,2.7-2.7,4.7-1.8c2,0.8,1.8,2.7,1.7,4.5c-0.1,1.6-1.8,3.6-0.4,4.7c0.9,0.8,3.1-0.1,4.8-0.2c6-0.4,11.9-1.2,17.9,0.4
			c5.1,1.3,7.9,3.9,8,7.7c0.1,3.8-2.7,6.6-8.1,7.8c-4,1-8.1,1-12.2,0.9c-4.2-0.1-8.4-0.1-12.5-0.1c-1.3,0-2.1,0.5-2.8,1.7
			c-3.2,5.9-6.4,11.8-9.7,17.7c-0.8,1.5-0.6,2.1,0.8,2.9c2,1.1,3.8,2.4,5.7,3.7c1.6,1.2,3.2,2.1,5.4,2c2.8-0.1,5.5,2.6,6.1,5.7
			c0.7,3.2-0.7,6.3-3.5,7.9c-2.3,1.3-4.7,1.5-7.1,0.9c-5.7-1.4-11.7-1.9-16.9-5c-1.6-1-2.1,0.4-2.7,1.3c-4.4,6.9-9.2,13.5-15,19.4
			c-2.6,2.6-5.2,5.4-8.1,7.7c-1.3,1-2.6,2-4.1,2.6c-4.3,1.7-8.2-0.9-8.4-5.5c-0.2-4.1,1.3-6.4,5.1-7.8c0.8-0.3,1.2-0.8,1.6-1.4
			c5.6-8,11.2-16.1,16.9-24.1c0.8-1.2,0.8-2-0.2-3.1c-5.7-6.3-8.1-13.7-7.2-22.1c0.2-1.8-0.2-2.4-2.2-2.2c-6.2,0.9-12.4,2-18,5.1
			c-1.1,0.6-2.2,0.9-3.3,0.1c-1.1-0.8-1.3-2-1.1-3.2c0.3-2.1,1.5-3.7,3-5.1c3.8-3.8,8.6-6,13.6-7.8c2.1-0.8,4.3-1.7,6.5-1.8
			c6.8-0.2,9.9-4.8,12.7-9.9c1.5-2.7,3-5.4,5-7.8c1.5-1.8,3.1-3.4,5.6-3.6c2.9-0.2,4.4,1.9,3.3,4.6c-0.4,1-1,2-1.6,2.8
			C853.9,132.5,853.9,136.3,851.7,139.8z M858.7,154.5c-3.7,0-7,0-10.2,0c-0.8,0-1.4,0.3-1.5,1.2c-0.4,3.7,0.2,7,2.6,10
			c0.7,0.8,1.3,0.9,1.9-0.1C853.9,162,856.2,158.4,858.7,154.5z"/>
		<path fill="#ffffff" d="M1204.4,82.6c15.5,0.2,30.8,1.7,46.1,4c2.7,0.4,5.3,1.2,7.8,2.4c3.9,1.7,5.7,5,4.8,8.5
			c-0.9,3.6-4,5.8-8.4,5.3c-7-0.7-13.9-1.7-20.9-2.3c-20.9-2-41.8-0.6-62.6,1.8c-6.4,0.8-12.8,1.3-19.3,1.9c-1,0.1-2.3-0.1-2.1,1.6
			c1.4,14.9-2.5,29-6.5,43.1c-3.6,12.7-8.5,24.8-17.5,34.7c-1.1,1.2-2.1,2.5-3.4,3.5c-2.2,1.9-4.9,2.1-7.1,0.8
			c-2.1-1.4-3.2-3.9-2.4-6.7c0.8-2.5,1.8-5,2.9-7.4c5.7-12.9,12-25.5,16.3-39c3.1-9.6,5.9-19.3,7.8-29.2c0.3-1.6,0.3-2.8-1-4.2
			c-2.8-3.1-2-7.6,1.6-10.2c1.8-1.3,3.9-1.9,6-2.5c9.9-2.7,20-4.5,30.3-5.3c2.1-0.2,2.4-0.7,1.5-2.6c-1.6-3.4-2.4-7.1-2.4-10.8
			c0-1.6,0.2-3.1,0.7-4.6c0.8-2.3,2.2-4,4.8-4.2c2.5-0.2,4.1,1.2,5.1,3.4c2.2,4.9,3.1,10.1,2.8,15.4c-0.1,2.4,0.6,2.7,2.7,2.6
			C1196.2,82.5,1200.3,82.6,1204.4,82.6z"/>
		<path fill="#ffffff" d="M248.8,182.8c-11.7,0.2-27.2,1.6-42.7,2.1c-2.3,0.1-4.6,0.2-6.8-0.4c-2.6-0.7-4.5-2.1-4.8-4.9
			c-0.3-2.7,1.1-4.5,3.4-5.7c1.7-0.9,3.5-1.6,5.3-2.2c10.2-3.5,20.7-5.7,31.3-7.1c2.3-0.3,3.3-1.1,3.3-3.6c0-4,0.2-8,0.4-12
			c0.1-1.9-0.5-2.6-2.5-2.5c-4.8,0.3-9.6,0.5-14.4,0.7c-1.8,0.1-3.6-0.2-5.3-1c-3.3-1.6-3.9-5.3-1.4-8c1.7-1.9,4-2.8,6.4-3.6
			c5.1-1.8,10.3-2.9,15.6-3.6c2-0.3,2.8-1.1,3-3c0.3-3.2,1-6.3,1.9-9.3c1-3.4,2.7-6.1,5.9-7.8c2.5-1.3,4.2-0.8,4.9,1.9
			c1,3.8,0.6,7.6,0.4,11.4c-0.2,5-0.2,5,4.8,5c3.6,0,7.3,0.1,10.9,0.1c1.6,0,3.3-0.1,4.8-0.6c1.5-0.5,3.1-0.4,4.6,0.1
			c2.1,0.7,3.7,1.9,4.2,4.3c0.4,2.3-0.6,4.1-2.4,5.4c-1.8,1.5-4,2.2-6.2,2.7c-6.4,1.4-12.7,3.2-19.2,3.9c-1.5,0.2-2.2,0.6-2.3,2.3
			c-0.2,4.4-0.5,8.9-1,13.3c-0.2,2.1,0.9,2,2.3,1.9c17.1-1.4,33.9,0.5,50.8,2.7c2,0.3,4,0.6,5.7,1.6c2.8,1.5,4.4,3.9,4.2,7.1
			c-0.2,3.1-1.9,5.2-4.7,6.5c-2.4,1.1-4.9,1.2-7.5,1.2C285.3,181.5,269,182.2,248.8,182.8z"/>
		<path fill="#ffffff" d="M120.1,110.8c-0.1,4.1-0.1,4.1,4,3.6c1.2-0.2,2.3-0.3,3.5-0.3c2.3,0,4.2,0.6,4.9,3.1c0.6,2.4-0.7,4-2.7,5
			c-2.8,1.4-5.6,2.6-8.4,3.9c-2.9,1.3-5.2,5.7-4.7,8.8c0.2,1.2,0.9,0.9,1.6,0.7c2-0.5,4-1.2,6.1-1.5c2.8-0.4,5,0.8,5.5,2.9
			c0.6,2.6-0.9,4.2-3.1,5.1c-3,1.3-6.1,2.5-9.1,3.5c-2.4,0.8-3.6,2.3-4,4.9c-1.1,6.5-1.2,6.5,5.2,5.2c7.1-1.5,14.2-2.4,21.4-2.3
			c1.9,0,3.8,0.1,5.6,0.9c4.8,2.1,5.6,7.8,1.6,11.1c-1.4,1.2-3.1,1.9-4.8,2.4c-5.3,1.8-10.6,3.2-16.1,4c-11.8,1.7-23.4,4.5-34.9,7.6
			c-1.7,0.5-3.6,0.8-5.4,0.9c-2.5,0.1-4.7-0.8-5.7-3.4c-1-2.4-0.1-4.5,1.7-6.2c2.6-2.6,5.7-4.5,9-6.1c3.7-1.7,7.5-3.3,11.3-4.8
			c2.1-0.8,4.1-5.8,3-7.8c-0.5-0.8-1.1-0.4-1.6-0.2c-1.9,0.7-3.7,1.5-5.6,2.2c-1.3,0.5-2.6,0.9-3.9,1.2c-2.4,0.4-4.7,0.1-5.8-2.3
			c-1.2-2.5,0.1-4.5,2-5.9c4.1-3.1,8.8-5.2,13.4-7.2c2.5-1,4.4-5,3.5-7.4c-0.5-1.2-1.4-0.6-2-0.3c-3.7,1.3-7.4,2.5-11.3,3.3
			c-1.4,0.3-2.9,0.5-4.3,0.5c-2.2,0-3.9-1-4.7-3.1c-0.8-2.2,0.1-4,1.7-5.3c1.1-0.9,2.4-1.7,3.6-2.4c4.9-2.8,10.1-5,15.6-6.5
			c2.4-0.6,3.4-1.8,3.8-4.2c0.3-2.3,1.1-4.6,1.8-6.8c1.1-3.2,2.9-4.6,5.2-4.1c2.9,0.6,3.2,2.9,3.3,5.3
			C120.1,109.4,120.1,110.1,120.1,110.8z"/>
		<path fill="#ffffff" d="M991.7,169.9c0.6-15,1.9-29.9,1.3-45c0-0.8,0.3-1.6,0.3-2.4c0.1-0.8,0-1.7-0.9-2c-0.8-0.3-1.7,0-2.2,0.7
			c-0.7,1-1.3,2-1.9,3c-0.5,0.8-1.3,1.1-2.1,0.8c-0.8-0.2-0.6-1.1-0.6-1.6c0.2-5.1,0.9-10.1,3.6-14.6c3.1-5.1,9.1-5.9,13.6-2
			c2.8,2.5,4.3,5.8,5.4,9.3c2.6,8.4,3.6,17.1,3.7,25.8c0.3,21.1-1.1,42.1-3.6,63.1c-0.5,4.5-1.1,9-2,13.5c-1,5.2-3.9,7.9-7.7,7.7
			c-3.7-0.3-6.1-3-6.5-8.4c-1.1-14.4-1.3-28.9-0.7-43.3C991.6,173,991.6,171.4,991.7,169.9z"/>
		<path fill="#ffffff" d="M61.1,88.8C60,91,59,93.1,57.9,95.3c-1.5,3.1-2.9,6.3-4.9,9.1c-2.5,3.5-6.1,4.7-9.5,3.3
			c-3.4-1.4-5-4.9-4.1-9.1c0.3-1.6,0.8-3.2,1.5-4.7c4.6-10.1,9.9-19.8,16.2-29c1.3-1.9,2.8-3.8,4.6-5.3c3-2.5,6.1-2.9,8.5-1.2
			c2.4,1.8,3.2,5.3,1.6,8.7c-1.4,3.1-3,6.2-4.6,9.3c-0.8,1.5-0.6,2.8,0.8,3.5c3.8,2.2,5.1,5.8,6,9.6c1.8,7.3,2.6,14.9,3.1,22.4
			c1.4,19.9,2,39.8-0.8,59.6c-0.2,1.2-0.4,2.3-0.7,3.5c-0.7,2.3-2.3,3.7-4.9,3.5c-2.4-0.1-4-1.6-4.3-3.9c-0.7-5-2.3-9.9-2.3-15.1
			c-0.1-15.4-0.3-30.9-0.5-46.3C63.5,105.1,62.9,97,61.1,88.8z"/>
		<path fill="#ffffff" d="M529.5,198.6c2.9-0.7,5.3-1.4,7.8-1.9c6.1-1.2,11.7,0.2,17.1,3c2.7,1.5,4.1,3.7,4.4,6.8
			c0.3,2.5-0.6,3.9-3,4.7c-5.7,1.9-11.5,3.3-17.6,3.6c-8.3,0.5-16.4,1.6-24.4,3.8c-2,0.6-4.1,1-6.2,0.1c-3.1-1.2-5.4-3.3-5.9-6.6
			c-0.5-3.5,0.2-6.8,3.4-9.2c4.7-3.4,9.1-7.3,13.2-11.4c5.3-5.3,8.9-11.5,10.2-18.9c1.1-6.4-0.6-8-6.8-6.3c-3.4,0.9-6.5,2.4-9.5,4
			c-1.2,0.6-2.4,1.3-3.7,1.6c-2.1,0.6-4,0.2-5.5-1.5c-1.4-1.6-1.5-3.5-0.8-5.4c0.8-2.1,2.2-3.8,4-5.1c7.1-5,15.1-6.4,23.6-5.4
			c5.6,0.7,9.2,4.3,10.9,9.5c2.8,8.6,2.9,17-3.3,24.4C534.7,191.7,532.2,195,529.5,198.6z"/>
		<path fill="#ffffff" d="M764.9,152.5c-0.6,6.8-4.4,12.6-10.8,16.8c-3.4,2.3-3.9,5.4-1.2,8.5c6.4,7.3,10.4,15.9,14.3,24.7
			c1.4,3.1,0.4,6.1-1.8,7.6c-2.4,1.6-5.4,1.3-7.9-1.3c-4.6-4.7-8.7-9.8-11.9-15.5c-1.1-2-1.7-2.1-3.1-0.2c-2.8,4-5.8,7.9-8.7,11.9
			c-0.5,0.7-1.1,1.4-1.8,2c-2.1,1.9-4.8,2.2-7.1,0.9c-2.2-1.3-3.3-3.9-2.7-6.6c0.3-1.6,1.1-2.9,1.9-4.2c4.8-7.4,8.8-15.3,13.2-22.9
			c0.9-1.5,1.3-2.6-0.7-3.7c-2.2-1.3-2.7-3.6-2.6-6c0-4.2,0.3-8.4,1.5-12.4c1.5-5,9.1-13.6,16.6-13.6
			C759.4,138.5,765,144,764.9,152.5z M745.9,160.5c2.8-2.7,5.6-5.4,7-9.1c0.3-0.7,0.7-1.6-0.2-2.2c-0.7-0.5-1.4,0-2,0.4
			C747.2,152.4,746.2,156.2,745.9,160.5z"/>
		<path fill="#ffffff" d="M823.2,107c20.2-12.2,41.5-13.2,63.6-8.4c5,1.1,9.6,3.3,13.8,6.3c5.3,3.7,8.2,8.9,9.4,15.1
			c1.1,5.5-1.6,9.8-6.7,11c-4.1,1-6.7-1.6-5.5-5.6c0.5-1.5-0.1-2.3-1-3.3c-7.8-9.3-18.3-12.7-29.8-13.9c-11.4-1.1-22.7-0.2-33.7,3
			c-3.4,1-6.7,2.3-9.8,4.1c-2.9,1.6-5.5,3.5-7.2,6.4c-0.9,1.5-2.2,2.9-3.6,4.1c-2.4,2.1-5.3,0.9-5.7-2.3c-0.4-2.9,0.4-5.6,1.6-8.2
			c2.2-4.8,5-9.3,8.4-13.3c0.5-0.6,1-1.1,1.5-1.5c1.5-1.2,3.2-2.5,5.2-1.4c2.1,1.2,0.9,3.2,0.5,4.9
			C823.8,104.9,823.5,105.9,823.2,107z"/>
		<path fill="#ffffff" d="M719.1,80.5c1.2,0.1,1.7-0.3,2.2-0.7c5-3.7,10.3-3.6,15.8-1.6c5,1.8,9.5,4.6,13.5,8.1
			c6.1,5.2,12,10.6,17.9,16c1.7,1.5,3.1,3.3,4.1,5.4c1,2.3,0.9,4.6-0.8,6.6c-1.7,1.9-3.9,2.3-6.2,1.6c-2.8-0.9-4.9-2.6-6.9-5
			c-7.5-8.8-14.6-18.2-24.5-24.7c-2.6-1.7-5.5-2.8-8.6-3.3c-1.7-0.3-3.5-0.2-4.9,1.1c-0.6,0.6-1.5,1.2-2.2,0.7
			c-2.3-1.6-3,0.2-3.9,1.6c-5,8.2-10.1,16.4-15,24.7c-4.4,7.3-9.7,14.1-14.9,20.8c-2.1,2.7-4.6,3.5-6.8,2.1
			c-2.3-1.4-2.9-4.2-1.5-7.3c1.4-3,3-6,4.6-9C688,105,695.9,93,704.9,81.7c2-2.6,4.3-4.9,7-6.8c1.4-1,3-1.8,4.8-1.7
			c3.3,0.1,5,3,3.4,5.9C719.8,79.4,719.5,79.9,719.1,80.5z"/>
		<path fill="#ffffff" d="M953.9,132.9c-0.3,7.9-0.6,15.8-1,23.7c-0.1,1.1-0.1,2.1,1.1,2.7c1.6,0.8,1.6,2.4,1,3.8
			c-2.4,5.9-3.6,12.2-4.6,18.4c-0.3,1.9-1,3.7-2.1,5.3c-3,4-8.4,3.6-10.8-0.8c-1.2-2.2-1.4-4.7-1.4-7.1c0.3-12.8,1.5-25.6,2.5-38.3
			c0.8-10.3,1.7-20.6,4-30.8c0.4-1.9,0.9-3.7,1.9-5.4c1.1-1.9,2.7-3,4.9-2.7c2.3,0.3,3.6,1.9,3.9,4c0.4,2.2,0.6,4.5,0.6,6.8
			c0.1,6.8,0,13.6,0,20.4C954,132.9,953.9,132.9,953.9,132.9z"/>
		<path fill="#ffffff" d="M493.4,202.4c0.3,5.4-0.2,10.9,0.4,16.3c0.2,2.2-0.5,4.2-2.6,5.3c-2.2,1.2-4.2,0.7-6.2-0.6
			c-1.3-0.9-2.2-2.1-3.1-3.4c-3.7-5.8-5.9-12-5.9-18.9c-0.1-13.2,1.7-26.2,4.9-39c0.4-1.8,1.1-3.5,2.3-4.9c2.2-2.5,5.2-2.2,6.6,0.8
			c0.6,1.4,1,2.9,1.1,4.5C491.8,175.7,492.6,189,493.4,202.4z"/>
		<path fill="#ffffff" d="M1166,201.5c0.2-3.4,0.2-6.7,0.7-10.1c0.4-3.1,1.9-3.7,4.4-2c1.2,0.8,1.4-0.1,1.9-0.6
			c1.8-2,3.7-3.7,6.1-4.9c8.1-4.2,16.3,0.6,16.8,9.6c0.2,4.5-1.1,8.6-3.9,12.2c-1.1,1.4-1.1,2,0.7,2.5c2,0.5,3.4,1.9,3.5,4.1
			c0.1,2.3-1.3,3.9-3.3,4.5c-6.6,2-13.4,2.6-20.2,1.3c-3.7-0.7-6.1-4-6.3-7.9c-0.1-2.9,0-5.8,0-8.7
			C1166.2,201.5,1166.1,201.5,1166,201.5z M1175.6,202.4c3.2-1.6,5.9-3.7,6.9-8.2C1178.7,196.4,1176.8,199.1,1175.6,202.4z"/>
		<path fill="#ffffff" d="M116,75.7c0,1.9,0,3.8,0,5.7c0,1.5,0.5,1.9,2,1.7c2.9-0.4,5.8-0.8,8.7-1.1c1.7-0.2,3.4-0.4,5.2,0
			c3.5,0.8,5,4.1,3.3,7.2c-1.9,3.3-4.8,5.4-8.3,6.7c-1.1,0.4-2.3,0.5-3.1-0.3c-1.5-1.5-2.9-0.9-4.5-0.3c-9.4,3.4-18.8,6.7-28.2,10.1
			c-1.5,0.6-3.1,1.1-4.8,1.1c-2,0-3.8-0.7-4.8-2.5c-1-1.9-0.6-3.7,0.6-5.4c1.3-1.7,3-2.9,4.8-4c5.2-3.1,10.6-6,16.4-8
			c1.7-0.6,2.3-1.4,2.2-3.1c-0.1-4.9,0.5-9.8,1.4-14.6c0.6-3.2,2.3-4.8,4.8-4.6c2.4,0.1,4.1,2.1,4.4,5.1c0.1,1.1,0,2.2,0,3.3
			C116,73.7,116,74.7,116,75.7C116,75.7,116,75.7,116,75.7z"/>
		<path fill="#ffffff" d="M691.8,164.8c0.3-5.5,0.6-11.1,2-16.5c1-3.8,1.9-4.4,5.8-4.3c1,0,1.7-0.6,2.4-1.1c2.5-1.8,5.2-2.9,8.3-3.2
			c7.6-0.6,12.7,4.7,11.8,12.3c-0.4,3.8-1.9,7.2-4.2,10.2c-1.1,1.4-1.2,2.2,0.7,2.9c2,0.8,3.2,2.4,3.1,4.7c0,2.2-1.2,3.6-3.4,3.3
			c-3.3-0.5-6.3,0.6-9.3,1.6c-3.6,1.2-7.1,2.3-10.7,0.1c-0.4-0.3-1.1-0.2-1.6-0.2c-2.9-0.3-4.4-1.7-4.8-4.6c0-0.3-0.1-0.5-0.1-0.8
			C691.8,167.7,691.8,166.3,691.8,164.8z M702.3,162.4c3.8-2.6,6.8-5.4,8.5-9.5c0.2-0.4,0.2-1,0-1.3c-0.4-0.6-1-0.2-1.5-0.1
			C705.6,152.7,702.1,157.7,702.3,162.4z"/>
		<path fill="#ffffff" d="M632,84.6c-0.1,1.7-0.2,3.9-0.4,6.2c-0.2,1.8,0.2,2.5,2.2,2c4.9-1.3,9.9-1.2,14.9-1.6c0.5,0,1.1,0,1.6,0
			c4.5,0.1,7.2,2.1,7.7,5.5c0.4,3.4-1.7,6-6.2,7c-6.6,1.4-13,3.3-19.8,3.5c-1.5,0-2.1,0.7-2.2,2.1c-0.1,2.9-0.2,5.8-0.3,8.7
			c-0.1,3.4-1.6,5.5-4.2,5.8c-2.7,0.3-4.8-1.5-5.6-4.8c-0.2-0.6-0.3-1.2-0.3-1.9c-0.3-12.4-0.6-24.9,2.5-37.1c0.5-1.9,1-3.7,2.1-5.3
			c1-1.5,2.3-2.3,4.2-2c1.7,0.3,2.7,1.4,3.2,3C632.3,78.4,631.9,81.2,632,84.6z"/>
		<path fill="#ffffff" d="M159.5,223.8c0,1.4,0,2.9,0,4.3c-0.1,2.3-1.1,4-3.1,5c-2.2,1.1-4.2,0.7-6.2-0.7c-1.7-1.3-2.9-3-3.8-4.9
			c-5.5-11.1-8.3-23-9.9-35.2c-0.2-1.3-0.1-2.7,0-4.1c0.3-4.2,3.6-6.2,7.5-4.7c2.1,0.8,3.6,2.4,4.7,4.4c1.4,2.4,2.3,5,2.9,7.6
			c1.8,7.9,4,15.6,7.1,23.1C159.4,220.4,159.8,222.1,159.5,223.8z"/>
		<path fill="#ffffff" d="M683.4,213.1c0.3-2.4,1-4.6,2.2-6.7c4.4-8.4,9.3-16.5,14.2-24.5c0.9-1.5,1.8-4,4.2-3
			c2.3,1,1.2,3.4,0.9,5.1c-0.5,2.6-1.3,5.1-2.1,7.6c-0.5,1.4-0.4,2.1,1.2,2.7c3.9,1.5,6.9,4.3,9.3,7.7c0.5,0.8,1.1,1.4,2.1,1.5
			c2.3,0.2,3.2,1.8,3.4,3.9c0.3,2.9-0.1,5.7-2.8,7.5c-2.1,1.3-4.2,1-6.1-0.5c-3.6-2.9-6.8-6.3-9.1-10.3c-1.7-2.9-1.8-2.8-3.4,0.1
			c-2.1,4-4.1,8.1-7.1,11.6c-1.2,1.4-2.7,2.3-4.6,1.4C683.8,216.5,683.4,214.9,683.4,213.1z"/>
		<path fill="#ffffff" d="M963.9,147c0.1-6,0.7-12,1.8-17.9c0.7-4,2.8-6,5.9-6.1c3-0.1,5.3,1.9,6.3,5.7c2.8,10.6,1.7,21-1.4,31.4
			c-0.7,2.5-2.4,4.1-5.1,4.2c-2.8,0.1-4.6-1.5-5.6-3.9C963.9,156.1,963.8,151.5,963.9,147z"/>
		<path fill="#ffffff" d="M29.8,230.1c-0.2-1.2,0.1-2.4,0.4-3.7c2.4-9.2,7.4-17.1,13.5-24.3c0.9-1,1.9-1.9,3.2-2.5
			c2.7-1.1,5.4,0.1,6.4,2.8c0.8,2.4,0.4,4.9-0.4,7.2c-2.9,8.8-7.3,16.8-12.9,24.2c-1.6,2.1-3.1,4.5-6.4,3.5
			C31.3,236.6,29.8,233.8,29.8,230.1z"/>
		<path fill="#ffffff" d="M732.3,111.9c2.2,0,4.4,0.1,6.5,0.6c2.3,0.6,4,1.9,4.3,4.3c0.3,2.6-1,4.4-3.2,5.5c-3,1.5-6.3,1.5-9.6,1.9
			c-7.6,0.8-15.2,1.4-22.8,2c-2.1,0.2-4.4,0.2-5.2-2.4c-0.8-2.5,0.7-4.2,2.7-5.4c3.7-2.4,7.9-3.5,12.2-4.5
			C722.2,112.7,727.2,111.9,732.3,111.9z"/>
		<path fill="#ffffff" d="M72.5,206.7c0-2.9,0.1-5.8,1.1-8.6c0.8-2.3,2.2-4.3,5-4.4c2.8-0.1,4.9,1.1,6.3,3.6
			c1.1,2.1,1.4,4.3,1.3,6.6c-0.2,4.7-0.4,9.4-0.7,14.1c-0.2,2.8-2.1,5.4-4.2,5.8c-3,0.5-4.4-1.5-5.7-3.7
			C73.1,215.9,72.4,211.4,72.5,206.7z"/>
		<path fill="#ffffff" d="M101.9,198.6c0-3.8,1.2-6.1,3.5-6.7c2.9-0.8,6,0.6,7.6,3.8c2.7,5.3,3.9,11.1,5.9,16.6
			c0.8,2.1,0,4.5-2.1,5.7c-2.1,1.3-4,0.2-5.7-1.2C105.2,212.3,102.2,206.2,101.9,198.6z"/>
		<path fill="#ffffff" d="M862.6,84.4c0,2.3-0.7,3.8-2.2,4.7c-1.6,1-3.2,0.7-4.9-0.2c-2.1-1.2-3-2.5-2.9-5.3
			c0.1-3.8-1.1-7.7-1.8-11.5c-0.5-3.2,0.6-4.6,4.8-5.8c1.9-0.5,3.8,0.7,4.4,3.4C861.3,74.7,861.3,79.9,862.6,84.4z"/>
		<path fill="#ffffff" d="M613,174.8c0.2-1.9,0.6-3.8,2.9-4c2.2-0.2,2.9,1.4,3.2,3.3c0.2,1.5,0.5,3,0.7,4.5c0.2,0.9,0.1,1.8-0.8,2.4
			c-1,0.7-1.9,0.4-2.8-0.2C614.2,179.3,613.3,177.2,613,174.8z"/>
	</g>
</g>
<g id="_xFFFD__x9C__x96_撅_xFFFD__16_xA0_影像_1_">
</g>
<g id="_xFFFD__x9C__x96_撅_xFFFD__17_xA0_影像_1_">
</g>
</svg>
