<?xml version="1.0" encoding="utf-8"?>
<!-- Generator: Adobe Illustrator 22.1.0, SVG Export Plug-In . SVG Version: 6.00 Build 0)  -->
<svg version="1.1" xmlns="http://www.w3.org/2000/svg" xmlns:xlink="http://www.w3.org/1999/xlink" x="0px" y="0px"
	 viewBox="0 0 1030 732" style="enable-background:new 0 0 1030 732;" xml:space="preserve">
<style type="text/css">
	.st0{fill:#CF9479;}
	.st1{fill:#222222;}
	.st2{fill:#EFDDD5;}
	.st3{fill:#FFFFFF;}
	.st4{fill:#EBCF8A;}
	.st5{fill:#F8F0D9;}
	.st6{fill:#DFBAA8;}
	.st7{fill:#FAF5E7;}
	.st8{fill:#F8F1DC;}
	.st9{fill:#F3E2B8;}
	#Sign {
		animation: fade 3s ease-in-out infinite;
	}
	#hand {
		animation: enter 3s ease-in-out infinite;
	}
	@keyframes enter {
	  0% {
	  	transform: translate(70px, 0) rotateZ(-10deg);
	  	opacity: 0;
	  }
	  30% {
	  	transform: translate(0px, 0) rotateZ(0deg);
	  	opacity: 1;
	  }
	  70% {
	  	transform: translate(0px, 0) rotateZ(0deg);
	  	opacity: 1;
	  }
	  99% {
	  	transform: translate(0px, 0) rotateZ(0deg);
	  	opacity: 0;
	  }
	  100% {
	  	transform: translate(70px, 0) rotateZ(-10deg);
	  	opacity: 0;
	  }
	}

	@keyframes fade {
	  0% {
	  	opacity: 0;
	  }
	  20% {
	  	opacity: 0;
	  }
	  40% {
	  	opacity: 1;
	  }
	  80% {
	  	opacity: 1;
	  }
	  100% {
	    opacity: 0;
	  }
	}
</style>
<g id="background">
	<g id="_xFFFD__x83__x8C__xFFFD__x99__xA0_影像_1_">
	</g>
	<g id="Hands_Color_xA0_影像_1_">
	</g>
	<g id="Hands__x26_pollution_xA0_影像_1_">
	</g>
	<g id="Consequences_Color_xA0_影像_1_">
	</g>
	<g>
		<g id="Background_Color_xA0_影像_1_">
			<g>
				<path class="st0" d="M444,82.6c0.4-1.1-0.6-1.5-1-2.2c-0.6-1.1-0.8-2.2,0-3.3c0.9-1.2,2.1-1.3,3.4-0.9c2.6,0.7,3.9,2.8,3.8,5.8
					c-0.6,15.6-0.8,31.2-0.7,46.9c0.1,12.3-0.1,24.6,0.3,36.8c0.3,10.7,0.4,21.4,0.2,32.2c-0.1,5.4-0.3,10.7-0.5,16.1
					c-0.1,1.6-0.1,2.8,2.1,1.6c1.3-0.7,2.3-0.1,3.1,1c0.9,1.3,0.4,2.5-0.6,3.4c-2,1.7-4.1,3.3-6.2,4.9c-2,1.5-4.3,2.7-4.6,5.7
					c-0.1,1.1-1.2,1.8-2.2,2.3c-5.6,2.9-8.6,8.2-12,13.1c-0.8,1.2-0.7,2.6-0.7,4c0,3.4-2.2,4.8-5.2,3.5c-7.3-3.1-14.5-3.3-21.8,0.2
					c-3.3,1.6-4.4,1.3-6.8-1.4c-0.8-0.9-1.6-0.6-2.5-0.6c-5.3,0-10.5-0.1-15.8,0c-13.2,0.2-26.3-0.6-39.5-1
					c-9.5-0.3-18.8,0.9-28.2,1.7c-1.7,0.1-2.8,1-3.6,2.5c-0.9,1.8-2.3,3.1-4.4,2.2c-2.2-0.9-5.1-4.7-5-6.6c0.2-4.6,5.8-6.7,9-9.8
					c6.4-6.2,8.1-15.1,15-20.7c2.4-1.9,8.4-0.5,11,1.1c1,0.6,1.7-1.6,3-1.6c8.2,0,15.8-0.3,24-0.5c19.9-0.6,38.1-0.8,58-1
					c4.1,0,8.4-0.7,12.5-1c1.6-0.1,5,3.2,3.6,0.9c-1.8-3-2.6-6.6-2.7-10.1c-0.4-11.7-1.5-23.4-2.7-35c-0.3-3.3,0.7-4.8,3.8-5.3
					c1.2-0.2,1-0.8,1-1.5c-0.1-4.8-0.4-9.6-0.4-14.4c0-1.6-1.7-2.1-1.8-3.5c-0.2-2.1,0.1-4.2,0.9-6.2c0.8-2.1,0.9-4.2,0.9-6.4
					c0-16.1,1-32.1,1.5-48.2c0.1-2,1-3.1,3.1-3.4c2.2-0.4,4.6,0.9,6.5-1.1C442.1,82.2,443.2,82.6,444,82.6z"/>
				<path class="st0" d="M485.4,118.7c12.3,0.1,21.8-1.6,32.8-1c3.4,0.2,10.9,2.4,14.2,0.2c2.2-1.4,5.4,0.4,8,0.5
					c1.2,0.1,4.4,1.3,5.5,0.5c0.7-0.5-0.7,1,0.2,1.1c6.5,0.6,12.6-2.8,19.1-0.8c5.9,1.8,13.9-2.9,19.6,0c4.4,2.2,8.1,0.1,13,0.5
					c0.5,0,6.5,0.6,8.8,0c4-1,9.3,0.5,13,1c11.1,1.5,21.8,1.1,33,1.2c4.3,0.1,39.9,1.9,47.5-0.2c1.7-0.5,3.2,2.1,3.7,4.5
					c0.5,2.5-1.4,3.2-3.3,3.8c-5.6,1.9-11.3,3-17.3,1.9c-2.6-0.5-5.3-0.2-7.9-0.1c-10.6,0.5-21-1.3-31.6-0.9
					c-6.5,0.2-12.9-0.9-19.2-0.4c-7.7,0.6-15.3,0.6-23,0.7c-6.9,0.1-13.8-0.8-20.7-1c-3.9-0.2-7.8-0.4-11.7,0
					c-6.9,0.8-13.7-0.8-20.6,0c-9.2,1-18.5,0.8-27.7,0.6c-14.5-0.4-29-1-43.5-1.6c-1.4-0.1-2.7,0-4,0.4c-1.6,0.5-3.3,0.4-3.8-1.6
					c-0.5-1.8,3.2-6.5,4.8-7.1C479.8,118.9,480.2,116.9,485.4,118.7z"/>
				<path class="st0" d="M219.2,227.2c1.5-0.1,2.3,0.4,2.7,1.2c0.6,1.2,0.3,2.3-0.5,3.3c-1.8,2.2-3.6,4.3-5.4,6.5
					c-5.2,6.3-9.4,13.3-13.7,20.3c-0.5,0.8-0.9,1.6-1.5,2.2c-0.9,1-2.1,1.1-3.2,0.5c-1.2-0.7-1.8-1.8-1.3-3.2
					c0.3-0.9,0.8-1.8,1.4-2.7c5.3-8.7,11-17.1,17.8-24.7C216.5,229.2,217.6,227.5,219.2,227.2z"/>
				<path class="st0" d="M222.6,257.6c0-1.1,0.5-2,1.1-2.8c5.9-8.4,11.9-16.7,18.5-24.6c0.5-0.6,1-1.1,1.5-1.6
					c1.3-1.2,2.8-1.7,4.1-0.4c1.2,1.2,0.9,2.9-0.2,4.2c-7,7.8-12.7,16.5-18.7,25.1c-0.6,0.8-1.2,1.6-1.9,2.3c-0.9,0.8-2,0.9-3,0.3
					C222.9,259.5,222.5,258.6,222.6,257.6z"/>
				<path class="st0" d="M171.3,254.7c0-1.4,0.7-2.4,1.5-3.4c6.4-8.5,13.5-16.4,20.6-24.2c1.1-1.2,2.4-2.2,4-0.9
					c1.5,1.4,1,3-0.1,4.4c-2.6,3.1-5.3,6.2-8,9.3c-4.4,5.1-8.8,10.4-12.7,16c-0.8,1.2-1.9,2.1-3.4,1.6
					C172,257,171.3,256,171.3,254.7z"/>
				<path class="st0" d="M266.8,258c0-1.2,0.6-2,1.1-2.8c5.8-8.4,11.7-16.8,17.5-25.2c0.3-0.4,0.6-0.9,1-1.3c1.1-1,2.4-1.6,3.7-0.6
					c1.4,1,1.4,2.5,0.4,3.9c-1.6,2.3-3.2,4.6-4.8,6.9c-4.4,6.5-8.7,13-13,19.4c-0.5,0.7-1.1,1.5-1.8,2c-0.8,0.6-1.8,0.8-2.8,0.1
					C267.2,259.8,266.6,259.1,266.8,258z"/>
				<path class="st0" d="M248.9,261.6c-1,0-1.8-0.3-2.3-1.2c-0.7-1.2-0.4-2.3,0.4-3.3c4-5.6,7.9-11.3,11.9-16.9
					c2.1-3,4.2-6.2,6.3-9.2c1.1-1.6,2.4-3.1,4.4-1.8c2,1.4,1.1,3.1,0,4.7c-5.6,8.4-11.2,16.7-16.8,25.1
					C251.9,260.3,250.9,261.7,248.9,261.6z"/>
				<path class="st0" d="M660.2,233.1c0,1.4-0.5,2.4-1.8,2.8c-1.7,0.4-2.8-0.3-3.5-1.8c-2.3-5-4.5-9.9-6.8-14.9
					c-1.1-2.5-2.2-5-3.2-7.5c-0.7-1.9-0.7-3.8,1.4-4.6c2.2-0.8,2.9,1.1,3.6,2.7c3,6.8,6.2,13.5,9.3,20.3
					C659.6,231.1,660.2,232.1,660.2,233.1z"/>
				<path class="st0" d="M551.4,226.6c-0.1,1.3-0.5,2.3-1.8,2.9c-1.3,0.6-2.3,0-3.1-1c-0.5-0.6-0.8-1.4-1-2.2
					c-2.3-7.1-4.6-14.3-7-21.5c-0.6-1.7-1-3.6,1.2-4.4c2.1-0.8,3.2,0.7,3.8,2.5c2.5,7.6,5.1,15.1,7.6,22.7
					C551.2,226,551.3,226.3,551.4,226.6z"/>
				<path class="st0" d="M633.3,231.5c-0.2,1.6-0.7,2.8-2.1,3.1c-1.4,0.3-2.6-0.3-3.1-1.6c-2.9-6.7-5.8-13.5-8.6-20.3
					c-0.5-1.2-0.9-2.6-0.6-4c0.3-1.2,0.9-2.2,2.3-2.3c1.4-0.1,2.4,0.7,2.6,1.9c1.6,7.3,5.8,13.4,8.4,20.3
					C632.6,229.7,633,230.7,633.3,231.5z"/>
				<path class="st0" d="M553.2,205.1c-0.1-2,0.3-3.3,2.1-3.6c2-0.3,2.8,1,3.1,2.6c1.4,7.1,2.7,14.2,4,21.3c0.3,1.9,0.1,3.9-2.3,4.2
					c-2.1,0.3-2.9-1.4-3.2-3.3c-1.2-6.7-2.4-13.3-3.6-20C553.2,205.8,553.2,205.3,553.2,205.1z"/>
				<path class="st0" d="M644.8,229.4c0.1,1.8-0.5,2.8-1.8,3.1c-1.3,0.4-2.6,0.1-3.2-1.3c-0.9-1.9-1.6-3.8-2.3-5.8
					c-1.8-4.8-3.6-9.7-5.3-14.5c-0.6-1.7-1-3.6,1.2-4.4c2.3-0.8,3.2,0.9,3.9,2.7c2.2,5.9,4.5,11.7,6.7,17.5
					C644.2,227.8,644.6,228.8,644.8,229.4z"/>
				<path class="st0" d="M591.3,226.4c0.2,1.9-0.4,2.8-1.5,3.3c-1.2,0.5-2.4,0.2-3.1-0.9c-0.5-0.7-0.9-1.6-1.1-2.4
					c-1.8-6-3.6-12-5.4-18c-0.1-0.3-0.2-0.7-0.2-1.1c-0.1-1.5-0.4-3.1,1.6-3.6c1.9-0.5,2.9,0.6,3.5,2.3c1.9,6,3.8,11.9,5.7,17.9
					C590.9,224.9,591.2,226,591.3,226.4z"/>
				<path class="st0" d="M605.6,227.6c0.1,1.8-0.7,2.8-2,3.1c-1.7,0.4-2.7-0.7-3.3-2.2c-1.7-4.3-3.3-8.6-5-12.9c-0.8-2-1.7-4-2.5-6
					c-0.6-1.6-1-3.4,1-4.2c1.9-0.8,3.1,0.3,3.8,2c2.6,6.3,5.2,12.6,7.7,18.9C605.5,226.8,605.5,227.3,605.6,227.6z"/>
				<path class="st0" d="M618.2,228.5c0.1,1.5-0.4,2.6-1.7,2.9c-1.5,0.4-2.7-0.1-3.3-1.6c-0.9-2.3-1.8-4.5-2.6-6.8
					c-1.5-4.3-3-8.7-4.5-13.1c-0.6-1.7-0.6-3.4,1.4-4c2.1-0.7,3,0.8,3.7,2.6c2,5.8,4.2,11.6,6.3,17.3
					C617.8,226.8,618.3,227.7,618.2,228.5z"/>
				<path class="st0" d="M577.1,225.9c0,1.6-0.6,2.6-2.1,2.9c-1.7,0.3-2.9-0.5-3.3-2.1c-0.9-3.5-1.7-7-2.5-10.6c-0.7-3-1.4-6-1.9-9
					c-0.3-1.6-0.6-3.5,1.7-4c2.2-0.5,3.1,1,3.5,2.9c1.5,6.3,3,12.7,4.5,19C577.1,225.3,577.1,225.7,577.1,225.9z"/>
			</g>
		</g>
		<g id="Background_xA0_影像_1_">
			<g>
				<path class="st1" d="M425.4,163.5c0.2-20.7,0.6-41.4,2.3-62.1c0.6-6.8,1.6-13.5,1.6-20.4c0-2.4,2-4.1,4.9-4.5
					c1.1-0.1,2.2-0.1,3.3-0.2c0.8-0.1,1.8,0.3,2-0.8c0.2-1-0.2-2.1-1.2-2.5c-1.7-0.8-3.4-1.6-5.4-1.6c-11.5,0-23.1-0.4-34.6-1.5
					c-2.7-0.3-5.5-0.3-8.1-1.1c-8.2-2.5-16.7-1.9-25.1-2.7c-4.2-0.4-8.4-0.7-12.2-2.7c-4.3-2.3-6-5.9-4.5-9.8c1-2.8,3.3-4.3,6.2-4.5
					c2.9-0.1,5.6,0.6,8.3,1.4c14.4,4.4,29.3,6,44.3,6.8c10.6,0.6,21.2,1.8,31.6,3.8c1.7,0.3,2.3,1.5,3.3,2.7
					c2.9,3.5,3.8,7.5,4.4,11.7c0.2,1.2,1.3,1.2,2.1,1.3c5.2,0.3,5.3,2.7,5.1,6.5c-0.9,14.5-1.1,29.1-1.9,43.6
					c-1.2,21.7-0.7,43.4-1.5,65.1c-0.3,6.4-0.4,12.7-0.7,19.1c-0.1,1.9,0,3.2,2.5,3c0.8-0.1,1.6,0.3,2.2,0.8
					c8.7,8.3,17.9,16.3,25.6,25.6c2.5,3,3.8,6.1,3.6,10.1c-0.3,5.1,0,10.2,0,15.3c0,2.9-1.3,4-3.8,4.6c-9.5,2.3-19.1,4.5-28.7,6.5
					c-6.5,1.4-13,2.5-19.2,5c-4.6,1.9-9.2,0.7-13.7,0.2c-11.7-1-23.4-1.3-35.1-0.9c-16.6,0.6-33.2,1.4-49.9,1
					c-4.4-0.1-8.7,0.1-13.1-0.4c-6.3-0.8-12.5,1-18.8,0.4c-3.4-0.3-6.9-0.1-9.8-2.6c-0.3-0.3-1-0.4-1.5-0.4
					c-15.7-0.3-31.4-2.3-47.1-1.3c-19.6,1.1-39.2,0.9-58.8,1.8c-6.6,0.3-13,0.5-19.5-0.6c-2.2-0.4-2.6-1.1-2.3-3.2
					c0.9-6,1.5-12.1,2.5-18.1c0.4-2.3-0.5-2.4-2.2-2.2c-2.3,0.3-4.7,0.6-7,0.8c-1.9,0.2-4,0.4-5.1-1.6c-1.2-2,0.2-3.5,1.3-4.9
					c6.5-8.3,13.7-16.1,20.6-24c0.8-1,2-1.3,3.2-1.4c22.6-1.1,45.2-2.4,67.8-0.9c10.4,0.7,20.9,0.6,31.3,0.7
					c11,0.1,21.9,1.4,32.9,1.4c2.7,0,4.4-0.4,5.8-2.5c3.8-5.9,8.9-7.7,16.1-7.3c18.2,1,36.5-0.2,54.7-1.2
					c12.4-0.7,24.9-0.4,37.3-0.2c3.5,0.1,3.6,0,3.8-3.6c0.1-2.6,0-5.3-0.1-7.9C424.8,190.2,425.3,176.8,425.4,163.5z M446.3,220.4
					c-0.1-0.2-0.2-0.4-0.3-0.6c-2.6,0.1-5.3,0.2-7.9,0.4c-4.6,0.2-9.2,0.9-13.9,0.7c-16.4-0.7-32.7-0.5-49,0.5
					c-16.7,1-33.4,1.1-50.1,0.1c-1.8-0.1-3,0.5-4.2,1.8c-3.9,4.6-8,9.1-12,13.8c-3.4,3.9-6.9,7.6-10.1,12.1c1,0.1,1.7,0.2,2.4,0.2
					c39.8,0.2,79.6,0.5,119.4,0.8c1.7,0,2.7-0.6,3.6-1.9c3.8-5.7,8.2-10.9,12.5-16.2C439.7,228.1,442.8,224.1,446.3,220.4z
					 M306.1,231.8c-8.1,0-15.6-0.8-23.1-1.1c-12-0.4-24-0.2-36-0.8c-22.9-1.2-45.8-1.2-68.6,0.2c-1.6,0.1-2.7,0.6-3.8,1.8
					c-4.7,5.5-9.5,11-14.2,16.6c-0.4,0.5-1.2,1-0.8,2c1.1-0.1,2.3-0.2,3.5-0.3c15.5-1.6,31.1-3.3,46.8-2.5c27,1.3,53.9,1.2,80.9-0.5
					c0.8-0.1,1.7,0,2.3-0.7C297.3,241.8,301.5,237,306.1,231.8z M287.3,267.1c0,1.9-0.1,4.6,0,7.2c0.1,1.6,1.1,2.5,2.7,2.4
					c1.5-0.1,2.4-1,2.4-2.4c0.3-6.2-0.2-12.5-0.8-18.7c-0.1-1.1-0.6-2.2-2-2.1c-1.4,0.1-1.7,1.2-1.8,2.3
					C287.5,259.4,287.2,262.9,287.3,267.1z M427.2,265.8L427.2,265.8c0-2.7,0-5.4,0-8.1c0-0.9,0.1-2-1.1-2.2c-1.3-0.1-1.6,1-1.8,2
					c-1.1,5.5-0.5,11-0.9,16.5c-0.1,1.2,0.5,2.5,2,2.4c1.5,0,1.8-1.2,1.9-2.5C427.2,271.2,427.2,268.5,427.2,265.8z M403.3,262.8
					c0.2-3.2-0.5-4.1-3-4.2s-3.8,1-3.9,3.4c-0.2,4.2,0.2,4.8,2.7,5C402.6,267.1,403.1,266.6,403.3,262.8z M354.1,262.5
					c0.3-2.3-1.1-3.2-3.3-3.3c-2.4-0.1-3.5,1.4-3.6,4.6c-0.1,2.3,1.1,3,3.2,2.9C353.4,266.7,354.2,265.9,354.1,262.5z M326.9,262.2
					c0.1-1.7-0.1-3.6-3-3.6c-2.6,0-3.5,1.3-3.5,4.4c0,2.1,0.7,3.5,3.1,3.4C326.1,266.2,326.9,265.4,326.9,262.2z M184.7,263.6
					c2.7-0.6,5.7-0.6,8.6-0.9c1-0.1,2-0.5,1.9-1.8c-0.1-1.2-1-1.3-2-1.4c-3.2-0.2-6.3,0.3-9.3,1.5c-0.8,0.3-1.9,0.6-1.7,1.8
					C182.6,263.8,183.7,263.5,184.7,263.6z M439.7,145.8c-0.8,0.9-1.6,1.8-2.4,2.8c-0.9,1.1,1,6.3,2.3,6.6c0.2,0,0.4,0,0.5-0.1
					c1-1.3,3-2.3,3-4c-0.1-1.9-1.5-3.6-2.7-5.2C440.2,145.8,440,145.8,439.7,145.8z M372,263.1c-0.3,2,0.1,3.2,2.6,3.2
					c3.2,0.1,2.7-2.1,2.9-4c0.2-1.9-0.5-2.8-2.5-2.9C372.4,259.4,371.8,260.9,372,263.1z M439.6,107.7c-3.5,3.9-3.4,4.7,1,9.5
					C443.9,113.8,443.8,113.1,439.6,107.7z M431.1,159.8c0,1.3,0,2.5,0,3.7c0,0.7,0.3,1.3,1.1,1.3c1,0,3.9-4.5,3.3-5.3
					c-1.1-1.6-1.4-4.9-3.3-4.6C430.4,155.1,431.4,158.2,431.1,159.8z M397.6,64c9.7,0.9,19.4,1.7,29.1,1.2
					C417.1,63.2,407.3,64,397.6,64z M438.8,165.9c-3.8,3.8-3.9,4-1.9,6.9c0.4,0.6,0.8,2.3,1.8,1.3c1.1-1.1,3.6-1.8,2.7-4.1
					C440.8,168.5,440.1,167.1,438.8,165.9z M432.1,120.5c0,1.3-0.3,2.4,0.1,3.2c0.4,0.9,0.7,2.9,2.5,1.7c2.4-1.6,2.6-3.2,0.9-5.6
					c-0.8-1.1-1.3-3.4-2.5-3.1C431.4,117.2,432.4,119.4,432.1,120.5z M443.4,133c-0.9-1.7-1.8-3.4-2.8-5c-0.4-0.7-0.9-0.1-1.3,0.3
					c-2.3,2.3-2.4,3.2-0.1,6.2c0.4,0.5,0.7,1.9,1.7,1.3C442,135.2,443,134.3,443.4,133z M440.4,89.1c-3.6,3.6-3.7,4.5-0.5,8.2
					C444.3,92.5,444.1,93.1,440.4,89.1z M434.1,136.8c-2.6,1.1-2.8,3.2-2.6,5.5c0.1,1,0.8,1.4,1.4,1.8c0.8,0.5,1.1-0.2,1.5-0.6
					C437.2,140.8,437.2,140.7,434.1,136.8z M438.6,204.3c-0.9-1.4-1.8-3-2.9-4.4c-0.4-0.5-0.8,0.1-1.1,0.4c-2.3,2-2.3,2.7-0.1,5.5
					c0.5,0.6,0.7,2.1,1.8,1.5C437.3,206.7,438,205.6,438.6,204.3z M444.6,196c0-2-0.5-4.1-2.1-4.2c-1.1-0.1-2.5,1.7-3,3.2
					c-0.2,0.6,2.5,4.6,2.9,4.3C443.8,198.6,444.7,197.4,444.6,196z M446.5,107.8c0.3-0.1,0.5-0.2,0.8-0.3c0-2.5,0-5,0-7.5
					c0-0.6,0-1.6-1.1-1.5c-1.4,0.2-3,4.2-2.2,5.5C444.8,105.3,445.6,106.6,446.5,107.8z M367.1,60c-2.6-1.2-5.4-1.2-8.2-1.5
					c-1.7-0.2-3-0.5-3.3-2.5c-0.1-0.5,0-1.2-0.9-1c-0.8,0.2-0.8,0.9-0.6,1.6c0.2,0.7,0.8,1.2,1.5,1.5
					C359.2,59.9,363.1,60.1,367.1,60z M439.6,186.4c-0.6-0.8-1-1.9-1.7-2.3c-1-0.4-1.3,0.9-1.8,1.5c-1,1-1.2,2.1-0.3,3.3
					c0.3,0.4,0.6,1,1.2,0.5C437.9,188.6,439,187.8,439.6,186.4z M448.5,83.3c0-0.1,0.3-1.4-1-1.2c-1.4,0.2-2.6,1.7-2.8,2.8
					c-0.2,0.9,1.1,2.9,2.3,2.8C448.5,87.4,448.4,85.4,448.5,83.3z M458.7,253.2c1.2-0.2,2.9,0.2,2.8-2c0-0.9,0-2.2-1.3-1.7
					c-1.1,0.4-3.2-0.6-3.3,1.7C456.8,252.4,457,253.5,458.7,253.2z M433.2,106c3.7-3.1,3.7-3.9,0.5-7.6C433,101,433,103.4,433.2,106
					z M431.7,175.3c-0.6,0.2-0.7,0.6-0.7,1.1c0,0.9-0.1,1.8,0,2.7c0,0.9-0.4,2.1,0.6,2.4c1.2,0.4,1.5-1.1,2.1-1.7
					c1.2-1.1,0.2-1.9-0.4-2.8C432.8,176.3,432.5,175.5,431.7,175.3z M445.2,178.9c-0.6-0.6,0.7-2.5-0.9-2.4c-1.1,0-2.5,1.5-2.6,2.8
					c-0.1,1.2,0.9,2.8,2.1,2.9C445.7,182.2,445,180.3,445.2,178.9z M441.4,214.3c1.2,0,2.5,0,2.4-1.5c-0.1-1.2-0.9-2.9-2-2.9
					c-1.1-0.1-2,1.4-2.2,2.7C439.5,213.7,440.2,214.5,441.4,214.3z M458.1,239.5c-1.2,0.1-2.4,0.1-2.2,1.7c0.2,1.1,0,2.4,1.7,2
					c0.9-0.2,2.6,0.4,2.4-1.6C459.8,240.3,459.6,239.2,458.1,239.5z M450.6,242.5c-0.1-1,0.1-2.3-1.6-2.1c-1,0.1-2.1,0.1-1.9,1.6
					c0.2,0.9-0.4,2.4,1.4,2.3C449.7,244.3,450.8,244.1,450.6,242.5z M451.5,252.7c-0.1-0.7,0-1.8-1.4-1.6c-1,0.2-2.5-0.1-2.3,1.8
					c0.1,0.8,0.1,1.8,1.2,1.6C450,254.3,451.6,254.7,451.5,252.7z M446.3,125.5c0.1-1.4,0.2-2.8,0.2-4.2c0-0.4-0.3-0.9-0.6-1.1
					c-0.5-0.2-0.7,0.3-1,0.6C442.9,122.9,444.9,124.1,446.3,125.5z M445.1,157.8c-3,3.1-2.9,3.8,0,6.4
					C445.1,162.2,445.1,160.2,445.1,157.8z M434.6,82.9c0.1,1.5-0.6,2.8,0.3,4.1C436.1,85.6,438,84.3,434.6,82.9z"/>
				<path class="st1" d="M966.2,373.2c7.6,0.2,15,2.7,22.6,2.4c4.3-0.2,5.9,0.8,5.6,3c-0.5,3.5-3.3,2.7-5.6,2.7
					c-5.1,0-10.1-0.5-15.1-1.5c-5.3-1-10.9-0.8-16.3-1.1c-29.2-1.2-58.2-3.5-87.4-4.9c-17.7-0.9-35.2,0.2-52.7,2.8
					c-11.1,1.7-22.2,2.1-33.3,3.6c-14.9,1.9-29.7,3.8-44.7,5.2c-9.1,0.8-18.1,1.3-27.2,1.2c-27.1-0.1-54.1-2.1-81.2-3.4
					c-15.1-0.7-30.2-0.7-45.3,0c-27.5,1.2-55.1,0.9-82.6,1.1c-22.1,0.2-44.2,0.2-66.2,2c-15.7,1.3-31.3,2.8-46.9,4.5
					c-13.1,1.4-26.2,2.1-39.3,2.9c-16.5,1-33,1.9-49.6,1.7c-35.3-0.5-70.4-3-105.4-8c-16.5-2.3-32.9-4.9-49.4-6.9
					c-15.8-1.9-31.7-2.3-47.6-1.7c-12.4,0.5-24.9,0.8-37.3-0.8c-8.3-1-16.1-3.4-23.9-6.2c-1.4-0.5-2.3-1.5-1.9-3.1
					c0.4-1.5,1.6-1.9,3-1.8c0.8,0.1,1.6,0.2,2.4,0.5c15.2,5.8,31,6.6,47,6c9-0.3,18-0.4,27-0.5c0.2,0,0.4,0,0.5,0
					c0.4-0.1,1,0.2,1.2-0.3c0.1-0.2-0.1-0.7-0.3-1c-0.4-0.7-0.9-0.3-1.3,0c-2.1,1.6-3.7,1.1-4.6-1.4c-0.5-1.3-1-0.6-1.6-0.2
					c-1.3,0.9-2.7,1.2-4,0.2c-0.6-0.4-1.2-0.3-1.8-0.2c-2.6,0.4-4.2-0.7-4.6-3.4c-0.1-0.4-0.2-1.1-0.4-1.2c-3.9-1.8-4.3-4.6-2.1-8.1
					c-1.5-0.2-2.8-0.4-4-0.7c-3.5-0.9-4.5-3.7-2.4-6.6c1.8-2.4,4-4.5,6.2-6.5c0.9-0.8,1.6-1.5,1.3-3c-0.6-2.9,1.7-4.4,3.4-6.1
					c1.2-1.2,2.5-2,1.8-4.3c-0.6-2.1,1.4-3.6,2.6-5.1c1.1-1.3,1.9-2.1,0.1-3.6s-1.5-3.6-0.4-5.5c1.8-3,4.6-5.2,6.8-7.8
					c3.5-4.1,6.5-2.8,10-0.4c2.8,1.9,5.8,3.5,8.4,5.6c2.9,2.4,3.3,4.4,1.1,7.3c-1.1,1.4-0.8,2.1,0.5,3c2.5,1.7,3.9,4,3,7.2
					c-0.3,1.1,0.1,1.9,1,2.6c1,0.8,2,1.6,2.8,2.6c1.8,2,1.8,4.4-0.3,6c-1.7,1.3-1.4,2.1-0.1,3.3c0.8,0.7,1.5,1.6,2.1,2.5
					c1.6,2.1,1.8,4.4,0,6.5c-1.1,1.3-1,2.2,0,3.5c4.3,5.8,3.3,7.5-3.1,10.6c-4.5,2.1-8.5,2.2-13,1.2c-2.7-0.6-2.3,1.5-2.8,3
					c8.3,0.5,16.4,0.8,24.6,1.6c8,0.8,16,2,24,3.2c1.1,0.2,2.8,1.4,3-1.2c0.3-3.6,0.1-4-2.7-4s-5.6,0-8.5,0c-1.8,0-3.3-0.4-4.1-2
					c-0.5-0.9-1.3-1.1-2.1-1.6c-3.5-1.8-4.1-4.6-1.5-7.5c1.4-1.5,2.5-2.7,1.5-5.1c-0.8-1.8,0.9-3.3,2.2-4.7c0.9-1,1.9-1.7,0.5-3.3
					c-1.3-1.4-0.9-3.3,0.5-4.7c1.1-1.1,2.3-2.1,3.4-3.1c-0.3-0.9-1.1-1-1.7-1.4c-2.2-1.7-2.7-3.8-0.8-5.8c2.9-3,5.8-5.9,9.9-7.8
					c6-2.7,11.3-0.2,16.8,1c1.3,0.3,2.2,1.6,2,2.9c-0.2,1.9,0.6,2.6,2.3,3.3c3.3,1.4,4.2,4,2.7,7.6c-0.6,1.5-0.8,2.3,1,3.1
					c2.2,1,2.8,3,2.1,5.3c-0.2,0.8-0.5,1.4,0.5,2c2.2,1.4,2.1,3.4,1.1,5.5c-0.4,0.9-0.9,1.8-1.2,2.7c-0.7,1.6-0.4,2.8,1.4,3.4
					c1.7,0.6,2.7,1.9,2.5,3.8s-1.7,2.7-3.4,3.1c-3.2,0.7-6.5,0.7-9.8,0.8c-4.2,0.2-4.5,0.4-4.6,4.5c-0.1,4.8-0.1,4.8,4.6,5.5
					c21.1,3.3,42.3,5.5,63.6,7.1c23.4,1.8,46.8,2.5,70.3,2c3.9-0.1,5.6-2.6,4.2-6.3c-0.4-1.1-1.3-0.8-2.1-0.8
					c-3.5,0-6.9,0.1-10.3-0.5c-2.4-0.4-4.5-1.2-4.7-4.1c-0.1-1.1-0.8-1.2-1.6-1.6c-3.6-1.8-4.4-4.2-2.8-7.9c0.4-0.9,0.8-1.8,1.5-2.6
					c1.4-1.7,2.1-3.4,0.9-5.6c-0.9-1.7-0.4-3.5,0.6-5.2c1-1.8,2.4-3.2,3.9-4.5c1.8-1.5,3.9-2.7,1.8-5.7c-0.9-1.3,0-3.1,1-4.3
					c3.7-4.4,7.2-9,13.5-9.8c0.9-0.1,1-0.5,0.8-1.3c-0.6-2.4,0.5-4.4,1.9-6.3c2.6-3.6,5.7-6.9,9.1-9.8c1.7-1.5,3.5-2.9,6.1-2.6
					c1.1,0.1,1.8-0.7,2.7-1.1c3.8-1.7,7.2-1.1,9.8,2.1c1.2,1.5,2.6,2.5,4.3,3.2c5.7,2.4,6.7,4.4,5.1,10.3c-0.3,1.1,0,1.7,0.8,2.3
					c0.9,0.6,1.7,1.3,2.6,2c3.5,3.1,4,6.1,1.6,10.2c-0.4,0.7-0.9,1.4-1.3,2.1c-0.3,0.4-0.4,0.8,0,1.2c0.5,0.4,0.8,0,1.1-0.4
					c4.2-4.5,9.2-7.4,15.7-7c1,0.1,1.5-0.3,1.9-1.1c1.8-3.4,3.7-6.7,4.4-10.5c0.4-2.3,1.7-3.9,4-4.2c3.7-0.5,7.4-0.8,11.1-0.1
					c3.4,0.7,5.2,2.4,5,5.7c-0.2,2.9,0.9,4.8,3.1,6.5c2.7,2.1,3.7,4.9,3.1,8.2c-0.5,2.8,0.1,5.3,1.7,7.7c2.7,4.3,2.3,7.1-1.4,10.6
					c-0.9,0.8-1.3,1.4-0.9,2.8c1.5,4.5-0.3,7.5-5.1,8.6c-5.1,1.2-5.1,1.2-5.3,6.4c0,1.5,0.1,3.1-0.2,4.6c-0.4,2.1,0.5,2.4,2.3,2.3
					c11-1.1,22.1-2.2,33.1-2.9c20.5-1.3,41.1-1.5,61.6-1.6c16.3,0,32.5-0.1,48.8-0.2c0.9,0,1.8-0.1,2.7-0.1c1,0,1.5-0.5,1.5-1.5
					c0-1.2-0.9-0.9-1.6-1c-4.1-0.2-8.2-0.4-12.3-0.5c-3.9-0.2-4.3-0.9-5.8-4.4c-2.2-5.1-1.3-9.5,1.8-13.8c0.8-1.1,1.4-2.4,1.4-3.8
					c0.2-3.6,2.1-6.1,5-7.9c1.6-1,2.8-2,3.3-4.1c0.6-2.2,2.8-2.7,4.7-3.3c1.3-0.4,2.3-0.7,1.7-2.5c-0.5-1.5,0-3,0.9-4.4
					c4-6,9.3-10.5,15.6-13.7c3.4-1.7,10.4,1.1,11.9,4.5c0.5,1.2,1.4,1.9,2.4,2.5c1.2,0.8,2.5,1.5,3.7,2.4c2.8,2.1,3.1,4.8,1.2,7.6
					c-0.6,0.9-2.1,1.5-1.6,2.6c1,1.9,0.5,4.4,2.5,5.9c1.5,1.1,3.5,2.5,3.1,4.5c-0.6,3.2-0.3,6.9-3.2,9.3c-0.9,0.7-1,1.1-0.3,2.1
					c1.8,2.7,1,5-2.1,6.2c-2.8,1-5.7,1.2-8.6,1.2c-2.4,0-3.2,1.1-3.1,3.3c0,1.2-0.1,2.4-0.2,3.5c-0.4,4.5-0.4,4.5,4.3,4.4
					c12.6-0.2,25.3-0.8,37.9-0.4c1.5,0.1,2.1-0.4,2.1-2c0-2.3,0.3-4.5,0.4-6.8c0.1-2.9-0.3-3.4-3.1-2.5c-2.6,0.9-5.1,1.5-7.9,1.3
					c-1.9-0.1-3.8-0.1-4.6-2.1c-0.8-2.2,0.5-3.7,2.2-4.8c1.8-1.1,1.9-1.9,0.2-3.3c-2.3-2-2.3-3.7-0.6-6.3c0.6-0.9,0.8-1.6,0.3-2.7
					c-2.4-4.9-1.4-7.8,3.5-10.2c2-1,3.2-1.8,3.2-4.7c0-3.6,2.9-6.1,5.8-8.1c1.1-0.7,2.3-0.4,3.3,0.4c0.8,0.6,1.5,1.3,1.6,2.2
					c0.5,5.7,4.5,7.1,9.3,8c4.1,0.7,5,2.7,3.8,6.7c-0.4,1.5,0,2.1,1.2,2.8c4,2.4,4.4,4.3,1.7,8.1c-0.9,1.2-1.4,2.4-1,4
					c0.7,2.7-0.4,4.6-3,5.6c-1.6,0.6-3.3,1.4-4.9,1.5c-2.8,0.2-3.7,1.5-3.6,4.1c0,2.4-0.2,4.9-0.4,7.3c-0.1,1.3,0.4,1.7,1.7,1.8
					c30.9,1.6,61.9,4.2,92.9,3.1c17.8-0.6,35.5-3.2,53.1-5.5c9.1-1.2,18.3-1.7,27.4-2.8c12.9-1.5,25.7-3.4,38.7-4.2
					c13.7-0.8,27.3,0.2,40.9,0.9c17.1,0.9,34.1,2,51.2,3C946.7,372.6,956.5,373.1,966.2,373.2L966.2,373.2z M346.5,366
					c0-0.2,0-0.3,0-0.5c4.6,0,9.3,0,13.9,0c1.5,0,3.4-0.4,2.1-2.4c-1.6-2.6-1-4.4,1-6.2c0.6-0.6,1.6-1,1.1-2.2
					c-0.7-1.8,0-3.3,1.2-4.8c0.7-0.8,1.5-1.8,0.3-2.9c-3.4-3.1-2.6-6.2-0.1-9.4c1.5-1.9,1.3-3.4-0.7-4.7c-0.7-0.4-1.3-1-1.9-1.5
					c-3.1-2.6-3.7-4.3-2.2-8.1c0.7-1.7,0.1-2.5-1.4-3.1c-2-0.8-4.1-1.6-5.6-3.3c-3-3.2-3.8-3.3-7.2-0.4c-0.8,0.7-1.5,1.6-2.1,2.4
					c-0.8,1.1-2,1.8-3,1.1c-2-1.3-2.9-0.1-4,1.1c-1.1,1.4-2.3,2.8-3.4,4.2c-1.3,1.5-1.3,2.6,0.5,4c3.3,2.5,3.8,5.1,1.9,8.9
					c-0.8,1.7-1.8,3.4-2.8,5c-0.8,1.4-1,2.6,0,4c1.3,1.9,1,3.8-0.2,5.6c-0.7,1.1-1.5,2.1-2.2,3.1c-1.7,2.3-4.2,4.6-1.2,7.7
					c0.2,0.2,0.2,0.5,0.2,0.8c0,1.3,0.8,1.5,1.8,1.5C337.1,366,341.8,366,346.5,366z M95.8,351.7c1.4,0.1,1.9,0.1,2.4,0.2
					c4.6,0.3,5.9,2.6,3.8,6.8c-0.3,0.7-1.6,1.4-0.2,2.3c1,0.6,1.8,1.4,3.1,0.3c1.4-1.1,3.1-0.7,3.6,0.9c0.6,1.8,1.7,1.8,3.1,1.7
					c3.9-0.5,7.8,0.1,11.6,0.6c3.7,0.5,7.2,0.5,10.6-1c1.4-0.6,1.7-1,0.7-2.2c-1.6-2-3.1-4.5-1.5-6.7c2.1-3.1,0.7-4.6-1.4-6.5
					c-0.5-0.4-0.9-0.9-1.3-1.4c-1.8-2.4-1.8-4.2,0.4-6.2c1.4-1.2,0.9-1.8-0.1-2.7c-1.6-1.4-3.1-3.3-2.5-5.4c0.7-2.6-0.4-3.7-2.2-5.2
					c-3.1-2.5-3.4-4.6-1-7.7c0.9-1.2,0.8-1.8-0.4-2.6c-0.9-0.6-1.8-1.3-2.7-1.9c-6.2-4.1-6.9-4-11.4,1.8c-0.2,0.3-0.4,0.6-0.6,0.9
					c-0.4,0.5-0.2,0.9,0.2,1.4c3,3.6,3,4.7,0,8.3c-1.1,1.4-2.2,2.5-1.1,4.5c0.6,1.2-0.1,2.5-1.1,3.4c-1.2,1.1-2.4,2.2-3.6,3.4
					c-0.7,0.6-1.3,1.2-1,2.3c0.7,2.1-0.3,3.7-1.8,5.1C99.9,347.7,98.1,349.5,95.8,351.7z M159.2,364.1c6.4,2.9,6.4,2.9,13.1,2.7
					c2.8-0.1,5.6-0.2,8.3-1.1c2.2-0.8,4.4-1.1,6.7-1.1c2.4,0.1,3.5-0.4,2.8-3.1c-0.3-1,0-2.2,0.4-3.2c0.6-1.6,0.5-2.7-1-3.9
					c-1.5-1.1-1.4-2.8-0.7-4.5c0.3-0.6,0.8-1.1,0-1.9c-3.8-3.4-3.8-3.5-1.9-8.2c0.5-1.2,0.5-1.8-0.9-2.2c-2.5-0.7-4.1-2.2-4.3-5
					c0-0.7-0.3-1.1-1-1.4c-5.6-2.3-10.7-1.4-14.7,2.7c-1.2,1.2-1.3,1.6,0.5,2.3c3.2,1.2,3.7,3.9,1.4,6.5c-0.8,0.9-1.7,1.6-2.6,2.4
					c-0.6,0.6-1.2,1-0.5,2c1.5,2.2,0.7,4.2-0.9,5.9c-1.2,1.4-2.5,2.4-1.3,4.6c0.7,1.3,0,2.8-1,4C160.8,362.3,160,363.1,159.2,364.1z
					 M573.2,361c0-0.1,0-0.3,0-0.4c3.2,0,6.4,0,9.5,0c0.8,0,2,0.2,1.5-1.4c-0.7-2.5,0.5-4.1,2.6-5.1c2.8-1.3,1-4.8,3.3-6.3
					c0,0-0.1-0.3-0.3-0.4c-2.5-1.8-2.9-4.7-4.2-7.1c-2.3-4.3-2.7-4.2,0.8-7.7c1.1-1.2,0.9-1.7-0.3-2.4c-2.5-1.4-4.7-3-6.1-5.7
					c-0.9-1.6-5-2.1-6.6-1.1c-3.7,2.4-6.9,5.3-9.7,8.7c-1.3,1.6-1.3,2.6,0.6,3.8c3.1,2.1,3.3,4.7,0.7,7.5c-0.9,1-2,1.9-3,2.8
					c-0.5,0.5-1.1,0.8-0.3,1.7c2.6,3.2,2.4,3.9-0.5,6.7c-2.5,2.5,2.6,3.8,1.1,6.4c-0.3,0.6,1.1,0.5,1.8,0.5
					C567.2,361.4,570.2,361.1,573.2,361z M393,364.7c3,0.7,5.8-0.8,8.6-0.1c3.5,0.8,7,0,10.5-0.4c1-0.1,1.7-0.6,1.1-1.8
					c-1.7-3.2-0.5-5.7,2.1-7.5c2-1.5,2-2.9,0.6-4.8c-2.1-2.9-3-6.2-2.1-9.8c0.5-2.1-0.3-3.6-2-4.9c-2.7-2-4.3-4.6-4-8.2
					c0.1-1.1-0.1-2-1.5-2c-2.1,0-4.2,0-6.3,0.1c-0.8,0-1.3,0.4-1.5,1.3c-0.8,4-2.8,7.4-4.8,10.9c-1.3,2.4-1.6,4.7-0.3,7.3
					c1.5,3,1,5.8-1.6,8.1c-1.1,1-1.3,1.8-0.2,2.9C394.4,358.3,395.6,361.3,393,364.7z M398.5,369.8c-3.6,0.6-6.8,0.7-10.1,0.7
					c-1.8,0-3.5-0.5-4.2-2.3c-0.7-1.9,0.3-3.3,1.7-4.5c0.5-0.4,0.9-0.9,1.5-1.2c1.5-1,1.3-1.9,0.2-3.3c-3.6-4.3-3.5-5.6,0-9.8
					c0.8-1-0.1-7.9-1.2-8.5c-0.4-0.2-0.9-0.2-1.3-0.2c-2.8-0.1-8.8,4-9.8,6.7c-1.6,4.2-3.3,8.4-5.9,12.1c-0.7,1-0.1,1.4,0.3,2.1
					c1.4,2.4,1.4,4.8-0.8,6.6c-2.5,2.1-1.4,4.7-1.6,7.1c0,0.4,0.2,0.8,0.6,0.8c2.6-0.3,5.4,1.4,7.7,0.6c5.4-1.9,10.9-1.2,16.3-1.8
					C395,374.4,397.1,373.2,398.5,369.8z M331.6,335.8c-1.5,0.5-2.6,1.1-3.7,0.4c-1.2-0.7-2.3-0.3-3.3,0.4c-2.3,1.5-4.2,3.4-6,5.5
					c-0.6,0.7-0.8,1.2,0,2.1c2.5,3.1,2.3,4.6-0.8,7.2c-1.7,1.4-3.3,2.9-4.9,4.3c-1.3,1.2-1.8,2.5-0.8,4.3c1.1,1.9,0.8,3.9-0.3,5.7
					c-0.6,0.9-1.1,1.9-1.8,2.7c-1.3,1.7-1.4,2.8,1.2,3.1c2.1,0.2,3.7,1.2,3.8,3.5c0.1,1.6,1.2,1.3,2.1,1.4c7.5,0.4,14.8-0.6,22.3-1
					c0.4,0,0.7-0.1,1.1-0.2c1.4-0.3,1.1-1.5,1.2-2.4c0.1-1.1-0.9-0.9-1.6-0.9c-3.1-0.1-6.2-0.2-9.3-0.4c-5-0.4-6.6-1.4-6.4-4.4
					s-3.5-5.4-1.4-8.7c0.6-0.9,1.1-1.9,1.7-2.8c1-1.4,2-2.8,3.1-4.2c0.7-0.9,0.8-1.6,0.2-2.7c-1.3-2.2-1-4.5,0.1-6.8
					C329.2,340.1,330.4,338.1,331.6,335.8z M623,333c2.1,5.8-1.6,7.7-5.5,9.3c-2.3,1-3.3,2-1.5,4.3c0.4,0.5,1,1.6,0.7,2
					c-2.2,3.8,0.2,6.8,1.6,10c0.4,1,0.5,1.6,1.7,1.5c5-0.4,10-0.5,14.8-1.7c1.6-0.4,2.4-1,2.1-2.8c-0.2-1.5,0.2-2.9,1.1-4.1
					c0.8-1,0.9-1.8-0.4-2.6c-2.5-1.4-3.5-3.6-2.7-6.5c0.3-1,0.3-1.8-1-2C629.2,339.8,625,338.4,623,333z M351.2,379.9
					c0,2.1,0.2,4.2,0,6.3c-0.2,1.6,0.5,1.8,1.8,1.7c3.9-0.3,7.8-0.4,11.7-0.7c4.3-0.3,8.5-0.7,12.7-1c2.6-0.1,1.6-2.2,2-3.4
					c0.2-0.7-0.1-1.4-1-1c-4.2,1.7-8.4-0.9-12.6-0.3c-2.7,0.4-4-1.2-4.2-3.9c-0.1-2,1.3-4.9-0.2-5.9s-4.2-0.3-6.3-0.2
					c-4.3,0.1-3.8-0.3-3.8,3.8C351.2,376.8,351.2,378.3,351.2,379.9z M553.8,347.3c-3.1,2.1-6.7,3.8-6.5,8.5c0,1-0.7,2-1.2,3
					c-0.8,1.5-1.8,3-2.4,4.5c-1.3,3.1,0.6,6.1,3.9,6.2c6.6,0.2,13.2,0.5,19.8,1.3c1.7,0.2,2.2-0.4,2.3-2.1c0.1-1.8-0.9-1.8-2.2-1.8
					c-3.7,0.1-7.4,0.1-11.2,0c-2-0.1-3.8-0.7-4.4-2.9c-0.6-2.2,2.6-3.1,2.1-4.5c-0.5-1.8-1.5-3.2-0.5-5.1c0.7-1.5,1.1-5.2,0.6-6.6
					C554.1,347.7,554,347.6,553.8,347.3z M340.9,385c-0.7-1,1.6-3.5-1.6-3.6c-4.4-0.2-5.1,0.2-4.8,3.2c0.1,1.5-1.6,4.2,1.8,4.2
					C340.9,388.9,340.9,388.8,340.9,385z M398.5,379.1c-2.5,1.4-5,1.1-7.4,1.3c-1.9,0.1-3,0.6-2.4,3c0.4,1.5,0.9,1.9,2.3,1.7
					c1.2-0.2,2.3-0.3,3.5-0.4C399,384.3,399.1,384.1,398.5,379.1z"/>
				<path class="st1" d="M629.4,250.4c-19.7-0.6-40,0.5-60.4,1.6c-7.6,0.4-15.2-0.4-22.9-0.7c-5.8-0.3-11.6-0.2-17.3,0.8
					c-2.5,0.5-4.8-0.5-6.4-2.3c-4-4.3-7.9-8.8-11.8-13.2c-0.8-0.9-1.1-2-1.2-3.3c-0.4-6.1-0.9-12.1-1.3-18.2c-0.2-2.2,0.6-4,2.4-5.5
					c3.5-2.8,6.6-5.9,9.6-9.3c2-2.3,4.5-2.8,7.5-2.5c6.1,0.7,12.3,0.7,18.5,1.2c21.3,1.7,42.7,1.5,63.9,4
					c14.6,1.7,29.2,1.9,43.8,2.1c10.4,0.1,10.4,0.2,15.9,8.9c0.3,0.5,0.7,1.1,1,1.6c8.8,14.7,7,9.5,7.2,27.6
					c0.1,4.7-1.6,6.3-6.3,6.1C657.8,248.7,643.9,249.8,629.4,250.4z M661.9,225.3c2,0,4,0,6,0c1.4,0,1.6-0.6,0.9-1.6
					c-1.5-2.4-3.2-4.7-4.4-7.2c-1.9-4.3-5-5.4-9.6-5.5c-11.9-0.2-23.8,0.4-35.7-1c-11-1.3-22-2.3-33.1-2.8c-10.8-0.5-21.6-1-32.3-2
					c-7-0.6-13.9-1.1-20.9-1.7c-1.6-0.1-2.2,0.3-1.4,1.9c1.7,3.6,3.2,7.3,4.7,11c0.4,0.9,1,1.2,1.8,1.3c1.6,0.1,3.2,0.4,4.9,0.5
					c15.1,0.8,30.1,1.1,45.2,2.2c14.9,1.1,29.7,1.9,44.6,2.5C642.4,223.2,652.1,225.3,661.9,225.3z M538,230.3
					C537.9,230.3,537.9,230.3,538,230.3c-0.1-0.5-0.1-1.1-0.1-1.6c-0.1-1.1,0.4-2.6-1.3-2.8c-1.6-0.1-1.5,1.3-1.6,2.3
					c-0.5,3.8-1,7.7-1.5,11.5c-0.1,1.1-0.1,2.2,0.6,3.1c0.5,0.6,0.7,1.6,1.7,1.4c1-0.2,1.1-1.1,1.2-1.9
					C537.2,238.4,537.6,234.3,538,230.3z M525.3,221.1c0.1-2.4-1.4-4.2-3.4-4.1c-2.1,0-4.1,2.4-4.2,4.9c-0.1,2.3,1.4,4.1,3.4,4.1
					C523.4,226,525.2,223.9,525.3,221.1z"/>
				<path class="st1" d="M543.4,115.8c28.1,0.4,56.2-0.4,84.1,2.5c13.2,1.3,26.3,0.4,39.5,0c13.1-0.3,26.1,1.2,39.2,0.5
					c2.9-0.2,5.3,2.7,4.8,5.7c-0.7,4.8-1.2,9.6-2.4,14.2c-1.3,5.3-4.5,9.9-9.1,12.3c-2.7,1.4-6.1,3.3-9.4,3.1
					c-15.4-0.9-30.7,0.7-46.1-0.4c-15.1-1.1-30.2,0-45.2-1.1c-30.6-2.1-61.2-0.8-91.8-2.8c-13.6-0.9-27.2-0.7-40.8-0.3
					c-3.4,0.1-4.2-0.7-4.3-4.1c0-0.1,0-0.2,0-0.3c-0.3-14.3,1.3-18,11.7-27.9c1.1-1,2.4-1.3,3.7-1.3c19.6-0.4,39.2-1.4,58.9-0.3
					C538.7,115.9,541.1,115.8,543.4,115.8z M471.7,128c2.6,0,4.4,0,6.2,0c29.1,0.1,58.1-1.3,87.2-0.5c42,1.2,84.1,0.8,126.2,2.4
					c4,0.1,5.6-2.4,8.2-5c-10.9-0.2-21.1-1.2-31.4-0.9c-10.2,0.3-20.3,1.2-30.5,0.6c-20.9-1.3-41.9-3.1-62.9-2.9
					c-13.4,0.1-26.9,0.3-40.3-0.2c-18.4-0.8-36.9-0.1-55.3-0.3c-0.9,0-1.8-0.1-2.5,0.7C475.1,123.8,473.6,125.7,471.7,128z
					 M600.1,140.4c0-6.5,0-6.5-6.2-6.6c-6.5-0.1-6.5-0.1-6.5,6.4c0,6.3,0,6.3,6.3,6.5C600.1,147,600.1,147,600.1,140.4z
					 M642.7,134.3c-1.4,0-2.7,0-4.1,0c-0.9,0-1.6,0.1-1.6,1.2c-0.1,3.5-0.3,7-0.5,10.6c0,0.8,0.2,1.5,1.1,1.5c3,0.1,6.2,1.1,8.8-0.1
					c1.8-0.8,0.8-4,1.3-6.1c0.1-0.4,0.1-0.7,0.2-1.1C648.6,134.5,648.6,134.5,642.7,134.3z M686.6,148.3c5.4,0.3,5.4,0.3,6.2-5
					c0.1-0.8,0.2-1.6,0.2-2.4c0-5.4,0-5.4-5.3-5.4c-5.6,0-5.6,0-6,5.4c0,0.5-0.1,0.9-0.1,1.4C680.9,148,680.9,148,686.6,148.3z
					 M626.3,134.1c-5.2-0.2-5.3-0.2-5.4,5.1c0,2.6-1.4,5.9,0.4,7.6c1.7,1.6,5,0.3,7.6,0.5c1.6,0.1,2.3-0.3,2.3-2
					c-0.1-1.7,0.2-3.4,0.4-5.2C632.1,134.3,632.1,134.3,626.3,134.1z M582,139.9c0-6.2,0-6.2-5.1-6.2c-6.3-0.1-6.3-0.1-6.3,6.4
					c-0.1,5.6-0.1,5.6,5.4,5.7C582,145.9,582,145.9,582,139.9z M605.4,140.3L605.4,140.3c0,1.1,0,2.2,0,3.3c0,4.1-0.7,3.7,3.8,3.7
					c5.7,0,5.7,0,6.3-5.6c0.9-7.8,0.9-7.8-6.7-7.8c-3.5,0-3.5,0-3.4,3.7C605.4,138.5,605.4,139.4,605.4,140.3z M657.3,148.4
					c0.6,0,1.3-0.1,1.9,0c2.4,0.4,3.3-0.6,3-3c-0.2-1.4,0.1-2.9,0-4.3c-0.1-2,1.4-4.7-0.2-5.9c-1.4-1-4-0.3-6.1-0.5
					c-1.8-0.1-3,0-2.7,2.5c0.2,2.1-0.3,4.3-0.5,6.5C652.4,148.4,652.4,148.4,657.3,148.4z M467.5,139c0,1,0.1,2,0,3
					c-0.2,2,0.5,2.8,2.6,2.5s4.1-0.5,6.2-0.4c1.8,0,2.5-0.7,2.5-2.4c0-0.7,0.1-1.4,0.2-2.2c0.1-2,1.7-4.7,0.4-5.9
					c-1.3-1.3-4.1-0.4-6.3-0.4C467.4,133.4,467.4,133.4,467.5,139z M552.1,139.1c-0.1-6.4-0.1-6.2-6.3-6.4c-2.7-0.1-4.1,0.5-3.7,3.5
					c0.2,1.8,0,3.6,0,5.4c0,3.7,0,3.7,3.7,3.7C552.2,145.4,552.2,145.4,552.1,139.1z M667.6,141.5L667.6,141.5c0,0.4,0,0.7,0,1.1
					c0,5.9,0,5.9,5.9,5.6c1.8-0.1,2.4-0.7,2.4-2.4c0-1.9,0.4-3.8,0.5-5.7c0.4-5,0.3-5-4.6-5.2c-5.2-0.2-4-0.3-4.2,3.9
					C667.6,139.7,667.6,140.6,667.6,141.5z M489.1,143.5c5.4,0,5.4,0,5.8-5.3c0.4-5,0.4-5-4.8-5c-5.2-0.1-5.2-0.1-5.7,5
					C483.8,143.5,483.8,143.5,489.1,143.5z M514.8,139.3c0,5.2,0,5.2,5.1,5.3c0.4,0,0.7,0,1.1,0c1.6,0.3,2.3-0.4,2.4-2
					c0.1-2.1,0.4-4.2,0.6-6.2c0.3-3.3,0.3-3.3-3.1-3.2C514.8,133.2,514.8,133.2,514.8,139.3z M509.5,139.2c0-5.7,0-5.7-4.6-5.8
					c-4.7-0.1-4.7-0.1-4.8,4.4c0,1.1,0.1,2.2-0.2,3.3c-0.5,2.3,0.3,3.2,2.6,3c0.5-0.1,1.1,0,1.6,0
					C509.5,144.3,509.5,144.3,509.5,139.2z M565.6,139.4L565.6,139.4c0.1-1.5,0-3.1,0.1-4.6s-0.9-1.7-1.9-1.6
					c-2.2,0.3-4.6-1.1-6.6,0.8c-0.1,0.1,0,0.4,0,0.5c0.1,3.1,0.2,6.2,0.3,9.2c0,1,0.4,1.4,1.4,1.6c5.7,1,6.6,0.4,6.7-5.4
					C565.6,139.8,565.6,139.6,565.6,139.4z M536.8,138.9c0.1-6.3,0.1-6.2-5.2-6c-1.6,0.1-2.2,0.6-2.3,2.2c-0.1,2.6-0.3,5.3-0.6,7.9
					c-0.2,1.6,0.4,2,1.9,2.1c6.1,0.3,6.1,0.4,6.2-5.7C536.8,139.3,536.7,139.1,536.8,138.9z M705.1,127.9c-2.4,2.2-4.3,3.9-6.2,5.6
					c-0.4,0.4-0.7,0.9-0.6,1.4c0.7,3.1,0.3,6.4,0.3,9.6C703.9,140.4,704.2,134.5,705.1,127.9z"/>
				<path class="st1" d="M248.9,159.5c7.9,0,15.8,0.3,23.6-0.1c19.1-0.8,38.2,1.1,57.2,1c24.2-0.1,48.3,1.9,72.5,1.4
					c2.8-0.1,5.6-0.1,8.4-0.2c1.8,0,3.6,0.3,3.8,2.6c0.2,2.4-1.6,3-3.6,3.2c-1.6,0.1-3.3,0.1-4.9,0.1c-33,0.5-66-1.3-98.9-1.9
					c-19.6-0.4-39.3-0.2-58.9-0.2c-0.8,0-1.6,0.1-2.4,0.1c-5.1,0.5-5.1,0.5-8,5.5c2.9,0.5,5.8,0,8.6-0.2c15.7-1,31.4-0.6,47.1-1.2
					c27.4-1.1,54.7-0.3,82.1,0.2c14.4,0.3,28.7,1.1,43,2c0.5,0,0.9,0.1,1.4,0.2c1.7,0.4,2.8,1.4,2.6,3.2c-0.2,1.8-1.6,2.4-3.2,2.3
					c-3.1-0.1-6.2-0.2-9.3-0.5c-1.7-0.2-2.5,0.2-2.5,2.1c0,3.2,0,6.4-0.2,9.5c-0.1,1.4,0.5,1.7,1.7,1.6c3.4-0.2,6.9-0.3,10.4-0.4
					c1.8-0.1,3.1,0.5,3.3,2.4c0.2,2-1.1,3-3,3.1c-15.1,0.7-30.3,2.5-45.5,0.7c-6.9-0.8-13.8-0.5-20.7-0.2
					c-11.5,0.6-23.1,0.5-34.6,0.2c-21.2-0.5-42.3,0.2-63.5,0.4c-8.2,0.1-16.3,0.7-24.5,1.2c-1.8,0.1-2.9-0.4-3.5-2.2
					c-0.5-1.7-0.9-3.3-0.9-5.1c0.1-4.4,0.1-8.7,0.2-13.1c0-2.1,0.6-3.9,2.6-5c1-0.6,1.5-1.6,2.2-2.4c2.4-2.9,3.9-6.3,7-8.6
					c1.4-1,0.5-3,0-4.3c-0.5-1.2-2.2-2-3.7-1.7c-2.5,0.5-5,0.8-7.6,0.8c-1.3,0-1.7,0.6-1.7,1.8c0.1,1.5,0,2.9,0,4.4
					c0.1,2.7-1.8,3.6-3.9,4.2c-1.4,0.4-2.5-0.4-2.8-1.9c-0.4-1.6-0.8-3.2-1-4.8c-0.3-1.9-0.9-2.9-2.6-4.3c-2.6-2.2-5.4-2.6-8.1-3.6
					c-1.4-0.6-2.4-1.6-2.5-3.3c0-0.5,0-1.2-0.3-1.6c-2-2.5-1-4.6,0.6-6.6c0.9-1.1,1.2-2.1,0.7-3.7c-0.8-2.5,1.1-4.3,2.6-5.9
					c1.1-1.3,1.5-2.1,0-3.5c-2-1.8-2-4.2-0.9-6.5c2.4-4.9,6.6-8.2,11.2-10.9c3.1-1.8,6.2-0.8,8.4,2.2c1,1.3,1.9,2.7,2.4,4.2
					c1.2,3.4,4.2,4.8,6.8,6.8c0.4,0.3,0.7,0.3,1.2,0.1c6.9-2.6,12.2,0.6,12.8,7.8c0.1,1.4,0.7,2.3,1.9,3c3.2,1.7,4.3,4.5,3.9,8
					c-0.2,1.6-0.1,3.1,0.1,4.6c0.8,6.3-0.9,9.4-6.6,12.3C249.5,159.1,249.2,159.3,248.9,159.5z M227.7,150.6c1.3-0.6,3.5,0.8,4-1.3
					c0.8-3.7,2.4-7.4,0.9-11.4c-0.8-2-0.3-4.2,0.7-6.1c1.3-2.2,0.6-4.1-1.3-5.2c-3.5-2-5.5-5-7.4-8.4c-0.9-1.5-2.7-3.4-4.7-2.6
					c-2.6,1.1-4.6,3.1-6.3,5.4c-1.1,1.5-1.3,2.5,0.4,3.8c2.4,1.8,2.6,3.7,1.1,6.2c-0.5,0.9-1.2,1.6-1.8,2.4c-2,3-0.1,7.1-2.8,9.9
					c0,0,0,0.2,0.1,0.2c1.1,1.6,1.1,4.3,4.2,4c0.7-0.1,1.5,0.5,1.7,1.2c0.5,1.7,1.8,2,3.2,1.7C222.4,150,225.1,150.3,227.7,150.6z
					 M248.9,183.2c-0.1,0-0.1,0-0.2,0c0.1-1.8,0.2-3.6,0.4-5.4c0.1-1.1-0.2-1.5-1.3-1.5c-4.4,0.2-8.9,0.3-13.3,0.5
					c-1.3,0-2,0.8-2.1,2c-0.2,3.9-0.3,7.8-0.5,11.7c-0.1,1.1,0.3,1.7,1.6,1.6c4.7-0.3,9.4,0.1,14.1-0.6c1-0.1,1.6-0.2,1.4-1.6
					C248.7,187.7,248.9,185.5,248.9,183.2z M337.6,174.7c-1.9,0-3.8,0.1-5.7,0c-1.4-0.1-1.9,0.5-1.9,1.9c0.1,2.3,0,4.5,0,6.8
					c0,7.3,0,7.3,7.4,7.2c2.4,0,5.6,0.8,7.1-0.5c1.8-1.4,0.6-4.8,0.6-7.2c0-2.5,1.1-5.7-0.5-7.3C343.1,173.9,340,175.1,337.6,174.7z
					 M250.6,142.2c0.4-2.2-0.2-3.2-1.5-3.8c-2.9-1.4-4.1-3.7-3.9-6.9c0.2-2.8-1.4-3.9-4-4.1c-1.3-0.1-2-0.2-1.4,1.4
					c0.5,1.3,0.6,2.8-0.7,3.8c-1.8,1.4-1.7,3.3-1.3,5.2c0.8,3.3,0.8,6.5-0.3,9.7c-0.2,0.7-0.6,1.4-0.3,2.1c0.1,0.3,0.5,0.6,0.8,0.7
					c0.4,0.1,0.6-0.3,0.6-0.6c0.2-1.9,1.3-2.7,3.2-2.4c2.1,0.3,2.5,1.8,2.5,3.6c0,1.1-0.2,2.9,0.8,3.2c1.2,0.5,2.6-0.5,3.7-1.3
					c1.8-1.2,2.2-3,1.9-5C250.6,145.7,250.2,143.6,250.6,142.2z M280.7,190.3C280.7,190.4,280.7,190.4,280.7,190.3
					c2.1,0,4.2,0,6.2,0c1,0,1.7-0.1,1.7-1.4c-0.1-3.9-0.1-7.8-0.1-11.7c0-1.5-0.7-1.8-2-1.8c-3.7,0.1-7.4,0.1-11.1,0.1
					c-1.5,0-2.1,0.4-1.9,2c0.2,2.1,0.2,4.2,0.3,6.2c0.1,2.2-0.7,5.4,0.3,6.3C275.5,191.2,278.4,190.3,280.7,190.3z M402.4,183.9
					C402.5,183.9,402.5,183.9,402.4,183.9c0.1-1.9,0-3.8,0.1-5.7c0.1-1.4-0.6-1.9-1.9-1.9c-3.6-0.1-7.3-0.3-10.9-0.5
					c-1.6-0.1-2,0.5-2,2c0.1,3.7,0.1,7.5,0.1,11.2c0,1.8,0.8,2.2,2.3,2.1c2.9-0.1,5.8-0.2,8.7-0.2c2.4,0,4.4-0.1,3.5-3.4
					C402.1,186.4,402.4,185.1,402.4,183.9z M254.2,183.8h-0.1c0,1.9,0.1,3.8,0,5.7c-0.1,1.1,0.2,1.5,1.3,1.4
					c4.2-0.2,8.3-0.3,12.5-0.5c0.7,0,1.3,0,1-1c-1-3.8-0.3-7.8-0.5-11.6c-0.1-1.7-0.6-2.2-2.3-2.1c-3.1,0.2-6.2,0.3-9.3,0.2
					c-2.3-0.1-3,0.9-2.8,3.1C254.3,180.5,254.2,182.2,254.2,183.8z M307.1,183.6c0-2.8,0-4.9,0-7c0-1.2-0.4-1.8-1.7-1.8
					c-3.3,0.2-6.5,0.3-9.8,0.3c-1.3,0-2,0.4-1.9,1.9c0.1,3.7,0.2,7.4,0.2,11.2c0,1.6,0.6,2,2.1,2c3.1-0.1,6.2-0.1,9.3,0
					c1.6,0,2.3-0.4,2.1-2.2C307.2,186.4,307.2,184.7,307.1,183.6z M382.5,183.3L382.5,183.3c0-2-0.1-4,0-6c0-1.1-0.4-1.7-1.6-1.7
					c-3.3-0.1-6.5-0.3-9.8-0.4c-1,0-1.8,0-1.8,1.4c-0.1,3.9-0.3,7.8-0.5,11.7c0,0.9,0.1,1.6,1.3,1.6c3.5,0.3,7,0.6,10.6,1
					c1.4,0.1,2-0.4,1.9-1.8C382.4,187.1,382.5,185.2,382.5,183.3z M350.3,182.3c0.1,0,0.1,0,0.2,0c0,2,0,4,0,6
					c0,1.5,0.6,2.1,2.1,1.9c2.9-0.2,5.8-0.4,8.7-0.4c1.5,0,2.1-0.5,2.1-2c0.1-3.6,0.4-7.2,0.7-10.9c0.1-1.5-0.4-1.9-1.8-1.9
					c-3.4,0-6.7,0-10.1-0.1c-1.6-0.1-2,0.7-1.9,2.1C350.4,178.9,350.3,180.6,350.3,182.3z M324.9,182.8c0-2-0.1-4,0-6
					c0.1-1.6-0.4-2.3-2.1-2.2c-2.7,0.1-5.4,0.2-8.1,0.1c-1.9-0.1-2.3,0.7-2.2,2.4c0.1,3,0.1,6,0.2,9c0.1,5.4,0.1,4.3,4.4,4.4
					c2.4,0,5.5,1.1,7.1-0.3C325.9,188.4,324.4,185.2,324.9,182.8z"/>
				<path class="st1" d="M966.3,373.2c-4.8-0.7-9.7-1.2-14.5-2.1c-13.6-2.8-27.4-4.7-41.1-6.9c-15.6-2.6-31.2-3.1-47-1.1
					c-8.7,1.2-17.4,0.5-26.1,0.6c-13,0.3-25.9,1.5-38.8,3.1c-4.8,0.6-9.6,1.3-14.4,1c-11.4-0.7-22.6,1.3-33.9,2.2
					c-10.6,0.8-21,3.3-31.5,4.8c-11.5,1.6-23.1,1.1-34.5-0.3c-7.3-0.9-14.7-0.8-22-1.3c-6.1-0.4-11.9-2.2-18-3
					c-1.3-0.2-2.1-1.1-2.1-2.5s0.8-2.1,2.2-2.4c1.6-0.3,3.1-0.2,4.6,0.2c5.2,1.6,10.5,2.2,15.9,2.3c10.2,0.2,20.3,1.2,30.4,1.9
					c12.9,0.9,25.5-1.1,38.2-3.2c16.2-2.6,32.5-4.9,49-4.4c8.8,0.3,17.6-1.2,26.3-2.3c9.6-1.1,19.2-1.7,28.8-1.9
					c12.6-0.2,25.2-0.6,37.8-1.7c15.9-1.3,31.5,1.6,47.1,3.8c13.1,1.8,26,5.3,39.2,6.6c7.2,0.7,14.5,0.7,21.8,0.5
					c0.9,0,1.8-0.1,2.7-0.1c1.8-0.1,3.3,0.5,3.5,2.6s-1.3,2.9-3.1,3.1c-1.7,0.2-3.4,0.3-5.2,0.3
					C976.5,373.1,971.3,373.1,966.3,373.2C966.2,373.2,966.3,373.2,966.3,373.2z"/>
				<path class="st1" d="M503.7,170.7c-6.2-0.7-12.4-1.4-18.6-2.2c-7.7-1-15.4-0.6-23.1-0.8c-1.2,0-2.4-0.1-3.5-0.2
					c-1.3-0.1-2.2-0.9-2.2-2.3c-0.1-1.5,0.9-2.3,2.3-2.6c0.3-0.1,0.5-0.1,0.8-0.1c11.4-0.1,22.7-0.3,34,1.3c4.2,0.6,8.5,0.7,12.8,1
					c5.9,0.3,7.8,2,7.7,8c-0.1,5.3-0.6,10.5-1.6,15.7c-0.2,0.9-0.7,1.7-1.3,2.4c-1.9,2.4-3.9,4.8-5.8,7.2c-1.6,2-3.3,3.5-5.9,1.3
					c-0.5-0.4-1.4-0.3-2.1-0.3c-9,0.3-18-0.5-27-0.4c-4.1,0-8.3-0.4-12.5-1c-1.6-0.2-2.9-0.9-2.7-2.7c0.1-1.8,1.4-2.4,3-2.4
					c2.4,0.1,4.7,0.2,7.1,0.4c1.4,0.1,2-0.3,2-1.8c-0.1-2.9-0.1-5.8,0-8.7c0.1-1.6-0.6-2-2.1-2c-1.6,0.1-3.3,0-4.9,0.1
					c-1.7,0-3.2-0.3-3.3-2.3c-0.1-2,1.3-2.5,3-2.7c4.9-0.4,9.8-0.3,14.7-0.3c7,0,14,0,20.9,0.9c2.4,0.3,4.2-0.1,5.7-2.1
					c0.8-1,2-1.8,3.1-2.6C504,171.2,503.8,171,503.7,170.7z M482.7,187.1c0-1.3-0.1-2.5,0-3.8c0.2-1.9-0.5-2.6-2.4-2.6
					c-2.1,0.1-4.2,0-6.2-0.1c-1.4-0.1-1.9,0.5-1.9,1.9c0.1,2.9,0.1,5.8,0.1,8.7c0,1.5,0.5,2.1,2.1,2c0.7-0.1,1.4,0,2.2,0
					C482.7,193.3,482.7,193.3,482.7,187.1z M488.1,187.2c0.2,6.6,0.2,6.6,6.4,6.1c0.1,0,0.2,0,0.3,0c1.1,0.1,1.6-0.4,1.8-1.5
					c0.4-2.3,0.3-4.5,0.4-6.8c0.2-2.4-0.5-3.3-3.1-3.5C487.9,181.2,487.9,181.1,488.1,187.2z M502.4,192.6
					c4.4-3.8,6.8-11.6,5.5-17.1c-1.5,1.3-2.8,2.6-4.2,3.9c-0.6,0.5-1.3,1-1.2,2C502.9,185,502.5,188.6,502.4,192.6z"/>
				<path class="st1" d="M495,370.5c-7.7-0.8-15.2-0.6-22.8-1c-11.4-0.6-22.7,0.6-33.8,3.3c-3.4,0.8-6.9,1.5-10.5,1.4
					c-1.8-0.1-3.4-0.6-3.4-2.7c0-2,1.6-2.4,3.3-2.4c6,0,11.6-2.3,17.3-3.4c13.6-2.5,27.3-2.3,41-1.6c13.1,0.6,26.2,0.6,39.3,0.7
					c1.3,0,2.6,0,3.8,0.1c1.7,0.2,2.7,1.1,2.7,2.8c0,1.7-1.1,2.6-2.8,2.7c-2.5,0.1-5.1,0-7.6,0C512.7,370.5,503.8,370.5,495,370.5z"
					/>
				<path class="st1" d="M297.5,380.5c-13.3-1.7-26.9-0.3-40.4-1c-8.7-0.4-17.5,0.4-26.1-1.5c-4.9-1.1-9.8-2-14.7-2.7
					c-2.9-0.4-5.4-1.6-7.4-3.8c-1.2-1.2-1.9-2.6-0.6-4.1c1.3-1.5,2.8-1,4,0.2c2.9,2.9,6.6,2.7,10.2,3.1c2.2,0.3,4.3,0.6,6.4,1.2
					c4.1,1.2,8.4,1.6,12.7,1.6c15.4,0.2,30.7,0.6,46.1,0.3c4.2-0.1,8.3,1.1,12.5,1c1.8-0.1,3.3,0.8,3.3,2.9s-1.6,2.7-3.4,2.8
					C299.4,380.6,298.5,380.5,297.5,380.5z"/>
				<path class="st1" d="M844.5,494.1c-4.7-0.3-9.7-1.5-14.7-3c-3-0.9-6.1-1.8-9.2-2.6c-8.8-2.1-15.5,1.1-19.6,9.2
					c-0.4,0.7-0.7,1.5-1.2,2.1c-0.6,0.8-1.5,1-2.5,0.7c-0.9-0.3-1.5-1-1.6-2c-0.1-1.2,0.2-2.3,0.7-3.4c4.8-9.8,14.1-14.5,24.8-12.1
					c5.7,1.3,11.2,2.9,16.9,4.3c5.6,1.5,11.1,1.1,16.5-1.2c4-1.7,7.9-3.6,11.6-5.9c0.5-0.3,1.1-0.7,1.6-1c1.5-0.6,2.9-0.7,3.9,0.8
					s0.4,2.8-0.8,3.9C866.2,488.5,851.4,494.2,844.5,494.1z"/>
				<path class="st1" d="M565.3,487.8c-6.3,0-11.7-2.4-16.6-6.1c-2.5-1.9-4.9-3.8-7.4-5.5c-7-4.6-14.1-4.2-20.7,1
					c-0.7,0.5-1.5,1.1-2.3,1.3c-1.1,0.4-2.2,0-2.8-1.1c-0.8-1.3-0.2-2.4,0.8-3.4c6.2-6.3,16.7-8.1,25-4.2c3.6,1.7,6.9,4.1,9.9,6.6
					c7.4,6,15.4,7.1,24.2,3.6c2.8-1.1,5.5-2.3,8.1-3.8c1.6-0.9,3.4-1.5,4.6,0.3c1.3,1.9,0.2,3.5-1.5,4.5
					C580,485,573,487.7,565.3,487.8z"/>
				<path class="st1" d="M368.2,553.6c3.5-0.1,6.6,1.1,9.7,2.4c3.8,1.6,7.7,3.1,11.8,4c4.7,1,8.6-0.1,11.8-3.7
					c1.7-1.9,3.2-3.9,4.8-5.9c0.7-0.8,1.4-1.7,2.2-2.4c1.2-1.1,2.6-1.3,3.9-0.1c1.2,1.1,1.2,2.5,0.3,3.7c-3,3.6-5.6,7.7-9.2,10.7
					c-4.7,3.9-10.1,4.5-15.9,3.1c-4.6-1.1-8.9-3-13.3-4.8c-8-3.3-15.4-1-20.1,6.3c-0.9,1.4-2,2.6-3.7,1.7c-1.9-1-1.6-2.7-0.8-4.3
					C353.9,557.2,360.3,554.1,368.2,553.6z"/>
				<path class="st1" d="M179.6,468.8c4.8,0,8.7,1.7,12.4,3.9c3.2,2,6.4,4.2,9.9,5.6c6.4,2.6,12.1,0.9,17.4-3
					c0.4-0.3,0.8-0.7,1.2-1.1c1.5-1.1,3.1-1.5,4.4,0c1.3,1.5,0.7,3.1-0.7,4.3c-6.8,5.8-14.3,8.3-23.2,5.4c-4-1.3-7.5-3.7-11-5.9
					c-9.4-6.1-17.4-5.1-24.9,3.1c-1.1,1.2-2.4,2.2-4,0.9c-1.5-1.2-1-2.8,0-4.1C165.8,471.6,172.4,469.2,179.6,468.8z"/>
				<path class="st1" d="M940.4,420.1c5.1,0.2,9.6,1.6,14.2,2.8c2.9,0.7,5.8,1.5,8.7,2c5.7,1,10.7-1.4,15.5-4.1
					c1.6-0.9,3.1-1.9,4.7-2.8c1.5-0.8,3.1-0.9,4.1,0.7s0.4,3-1,4c-8.9,6-18.2,10.3-29.3,6.7c-4.5-1.4-9-2.9-13.7-3.6
					c-4.9-0.7-9.5-0.5-12.5,4.3c-0.7,1.1-1.9,1.4-3.1,0.8c-1.2-0.5-1.4-1.6-1.2-2.8c0.3-2.1,1.7-3.6,3.3-4.8
					C933.1,420.9,936.8,420.3,940.4,420.1z"/>
				<path class="st1" d="M961,535.1c-6.9,0-12.9-1.6-18.9-3.6c-4.4-1.5-8.9-2.5-13.6-1c-1.7,0.5-3.2,1.3-4.6,2.3
					c-1.3,1-2.8,1.3-3.9,0c-1.2-1.5-0.6-2.9,0.7-4c5.4-4.3,11.5-5,18-3.7c6,1.2,11.6,3.7,17.7,4.2c5.9,0.4,11.6-0.3,17.3-1.6
					c1.9-0.5,3.7-0.8,4.6,1.4c0.7,1.7-0.6,3.7-3.1,4.3C970.4,534.4,965.4,535,961,535.1z"/>
				<path class="st1" d="M88.2,367c-11.3-1.6-22.8-0.8-34.1-2.6c-4.1-0.7-7.7-2.8-11.7-3.5c-1.1-0.2-1.7-1.4-1.4-2.6
					c0.2-1.2,1-1.9,2.2-2.1c2-0.3,3.7,0.4,5.6,1c7.9,2.5,16.1,3.4,24.4,3c5.5-0.3,10.8,0.8,16.3,1.2c1.7,0.1,3,1.2,2.7,3.1
					C91.8,366.7,90.1,366.9,88.2,367z"/>
			</g>
		</g>
		<g id="Consequences_xA0_影像_1_">
		</g>
	</g>
</g>
<g id="hand">
	<g>
		<g id="Hands_Color_xA0_影像_2_">
			<g>
				<path class="st2" d="M479.3,576.9c0,0.2,0,0.3,0,0.5c-3.3,0-6.5,0-9.8,0c0-0.2,0-0.3,0-0.5C472.7,575.4,476,575.4,479.3,576.9z"
					/>
				<path class="st0" d="M479.3,576.9c-3.3,0-6.6,0-9.9,0c-0.8,0-1.6,0-2.4-0.1c-3.4-0.5-7,0.1-9.2-4.1c-1.3-2.5-4.3-4.1-6.7-5.9
					c-4.7-3.4-6.7-7.8-6.1-13.6c1.1-10,1.7-20.1,3.7-30c0.2-0.9,0.4-1.7,0.9-2.5c6.8-13.1-0.1-27-14.7-30.1
					c-5.1-1.1-10.3-2.5-15.1-4.4c-6.8-2.7-14-2.9-21-4.3c-4.4-0.9-8.9-1.5-13.4-2.3c-1.8-0.3-3.1-1.4-4.5-2.5
					c-8.4-7.1-17.2-13.6-26.9-19c-5.8-3.2-11-7.4-17.5-9.3c-18.6-5.7-37.4-7.5-56.7-3.8c-15,2.9-30,6.2-45.4,6.9
					c-10.7,0.5-20.9-2-31.2-4.1c-3.4-0.7-5.6-3.9-7.9-6.5c-3.9-4.3-7.6-8.8-12-12.6c-0.4-0.3-1-0.8-1-1.2c0-3.4-2.5-3.9-4.9-4.3
					c-2.7-0.5-4.7-2.3-7.2-3.3c-2.3-0.9-4.7-1.3-7.1-1.6c-0.5-0.1-1.2-0.1-1.6,0.2c-2.2,1.9-4.8,1.5-7.1,0.6
					c-3.5-1.3-6.5,0.6-9.8,0.6c-9.6-0.1-19.3-0.4-28.9-0.5c-17.5-0.2-32.9-6.3-47-16.3c-2.8-2-4.9-4.5-6.3-7.7
					c-5-11.1-10.1-22.1-12.4-34.2c-2.1-10.9,0.2-20.7,7.2-29.3c3.8-4.6,7.8-9.1,11.8-13.5c5.2-5.8,5.7-11.7,0.6-17.6
					c-5-5.8-7.7-12.7-10-19.8c-1-3.1-0.8-6,0.2-9.1c2-6.1,5.7-11.1,9.8-15.8c4.8-5.5,10.4-9.6,17.1-12.7c6.7-3,13.4-6.2,18.8-11.4
					c3.8-3.6,5.5-8.4,6.3-13.6c1.4-9.4,5.3-17.7,11.6-24.8c2.5-2.8,5.6-5.2,8.2-7.9c6.6-7.1,15.1-8.6,24.2-7.8
					c2.6,0.2,5.1,0.2,7.6-0.4c14.4-3.3,23,4.1,27.2,14.8c2.4,6,3,11.4-0.8,17.2c-2.9,4.5-4.9,9.5-7.3,14.3c-1.7,3.2-3.6,6.3-6.1,9
					c-2.1,2.4-4.2,4.8-5.7,7.6c-2.2,4-5.7,6.2-10,7.4c-1.3,0.4-2.6,0.7-3.8,1.5c-0.7,0.5-1.3,0.5-2.2,0.1c-2.7-1.2-4.7-0.2-5.8,2.7
					c-1.8,4.8,0.4,8.6,3.2,12.3c2.2,2.8,1.3,6.2-2,7.5c-0.8,0.3-1.7,0.5-2.6,0.6c-4.7,0.8-11.4,2.3-14.9,6
					c-5.9,6.2-5.7,13.1-4.8,21.6c0.5,4.8,1.1,9.7-0.6,14.4c-0.4,1-0.1,2.1,0.7,2.7c2.2,1.7,3.5,4.1,5.5,6.1c2.5,2.5,5.1,4.5,8.8,4.9
					c2.3,0.3,4.2,2.1,6.2,3.3c15.2,9.1,31.6,15.1,49.1,17.7c9.6,1.4,19.3,2.1,29,2.7c3.8,0.2,7.8-0.3,11.6-1.2
					c10.7-2.6,21.3-6.3,32.3-7.4c11.6-1.1,23.1-2.9,34.9-1.8c7.9,0.7,16,0.4,24,0.2c11.4-0.3,22.6,1.6,33.9,2.8
					c-2,3.4-1,5.2,2.8,5.5c12.7,1.1,25.2-0.7,37.8-1.5c5.9-0.4,11.8-0.7,17.7-1.2c1.6-0.1,2.9-0.5,3.5-2.1c0.4-1.2,1.4-1.3,2.3-1.7
					c15.4-6.2,30.3-13.7,45.5-20.3c3-1.3,6.3-2.5,8.4-5.3c0.6-0.8,1.6-0.7,2.5-0.7c9.8,0.1,19.6-1.2,29.4-1.5
					c5.8-0.2,11.6,0.3,17.4,0.3c4.5,0,8.9-0.6,13.3-1.3c9.1-1.6,15-7.7,20.6-14.2c4.6-5.3,7.1-11.8,9.9-18.1
					c3-6.8,6.1-13.6,11.1-19.2c2-4.9,5.5-8.8,9.4-12.1c8.9-7.5,19.2-11.9,30.6-13.9c2.9-0.5,5.8-0.5,8.7,0.1
					c1.3,0.3,2.7,0.3,4.1,0.3c2.9,0,5.4,1.7,8.1,2.5c1.5,0.5,2.8,1.1,4.3,0.2c1.7-0.9,3.5-0.4,4.7,0.9c2.9,3.3,4.3,5.1,2.2,8.9
					c-0.8,1.4-0.8,3.1-0.6,4.8c0.3,3.2,0.2,6.4-1.4,9.3c-0.5,0.9-0.6,1.9-0.6,2.9c-0.2,9.2,0.2,18.3,1,27.4c0.1,1.6,0.3,3.3-0.3,4.9
					c-0.5,1.4-0.1,2.4,1,3.4c5.6,4.9,11.3,9.4,18.1,12.5c0.8,0.4,1.6,0.9,2.5,1.1c4.3,0.6,7.2,3.5,10.2,6.3
					c8.4,8,14.6,17.6,20.5,27.4c0.6,0.9,1.2,1.8,1,3c-0.6,2.4-1.3,4.7-2.6,6.7c-1.5,2.3-1,5-0.3,7.4c1.8,7.3,6.9,12.4,12.1,17.4
					c7.1,7,16.1,9.5,25.6,11c2.1,0.3,4.1,0.7,6.2,0.9c2.1,0.3,4.3,0.4,5.3-2.2c0.3-0.7,0.8-0.9,1.5-0.8c12.2,2.6,24.8,2.4,36.8,5.9
					c8.9,2.6,16.8,7.1,24.2,12.8c0.9,0.7,1.2,1.3,0.8,2.5c-0.8,2.5-0.8,4.8,0.6,7.3c1.5,2.8-0.9,9.7-3.8,11.8
					c-3.5,2.4-7.2,4.3-11.5,5.3c-8.8,1.9-16.7,5.7-23.8,11.3c-9.5,7.5-20.5,9.4-32.4,8.2c-6.2-0.6-12.4-1.2-18.6-1.9
					c-1.6-0.2-3.5-0.2-4.8,0.5c-4.3,2.1-8.5,1.1-12.8,0.3c-2.3-0.5-4.5-0.6-6.8-0.4c-8.4,0.5-16.8,1.1-25.3,1.7
					c-8.2,0.5-14.5,5-20.1,10.4c-6.4,6.2-11.5,13.5-16.2,21.1c-0.7,1.1-1.4,2.1-2.5,2.8c-5.5,2.9-11,5.7-16.9,7.7
					c-0.8,0.3-1.7,0.4-2.3,0.8c-3.9,2.8-7.9,2-12.1,0.5c-4.4-1.7-8,1.1-12.3-0.9c-16.5-7.7-31-4.5-43.2,5.6
					c-9.9,8.2-17.5,18.5-23,30.4c-5.3,11.6-13.6,27.1-23.8,35C498,578.6,489.3,575.9,479.3,576.9z"/>
				<path class="st3" d="M708.4,353.2c-6.7-11.3-13.7-22.4-23.5-31.4c-2.2-2-4.5-3.6-7.6-4.4c-5.7-1.6-10.6-5.1-15.3-8.6
					c-2.3-1.7-4.4-3.7-6.7-5.6c-1.2-1-2-2-0.9-3.7c0.9-1.4,0.5-3,0.4-4.5c-0.9-9.4-1.1-18.8-1-28.2c0-0.1,0-0.2,0-0.3
					c2.4-4.8,2.2-9.9,2.3-15c0-0.5,0.3-1.1,0.5-1.6c1.4-3.6,0.8-5.8-2-8.3c-1.5-1.3-3.1-1.5-4.7-0.3c-1.2,0.9-2.1,0.9-3.3-0.1
					c-1.1-0.9-2.4-1.7-4-1.3c-0.2,0.1-0.6,0.1-0.8,0c-3.5-3-7.9-2-11.7-2.2c-9.7-0.4-18.3,3.6-26.7,8c-7.8,4.1-13.2,10.5-18.2,17.5
					c-5.2-6-11.4-10.9-16.9-16.5c-10.3-10.4-19.7-21.4-28.5-33c-3.6-4.8-6.3-10.2-8.2-15.9c-2.6-7.8-0.2-14.5,7.3-19.4
					c1.8-1.2,2-1.8,0.9-3.7c-2.8-4.8-5-9.8-5.9-15.4c-0.9-6,2.2-11.1,9-9.2c0.7,0.2,1.5,0.2,2.1-0.1c1.6-0.6,3-0.3,4.4,0.5
					c2.8,1.6,5.9,2.2,9.2,3.4c-0.3-1.7-0.8-2.9-1.7-4.1c-2.6-3.3-4.3-7.1-5.4-11.2c-0.3-0.9-0.5-2-1.2-2.7c-2-1.8-2.9-4.1-1.7-6.6
					c1.4-2.6,3.7-4.1,6.8-4.3c6.3-0.5,11.1,2.8,16,6c2.2,1.4,4.3,3,6.5,4.5c0.5,0.3,1.2,0.3,1.6,0.8c0.3,0.2-0.2,0.3,0.1,0.1
					c0.2-0.2-0.2-0.2-0.2-0.3c-0.6-0.4-0.5-1.2-0.9-1.6c-2.8-4.9-5.6-9.9-8.6-14.8c-1.5-2.4-1.8-5.3-3.2-7.7
					c-0.9-1.6,0.8-3.6,3.1-3.7c4.2-0.2,7.9,1.5,11.3,3.4c10.6,6.1,21.4,11.8,29.8,21.1c8.1,8.8,17.9,15.5,27.5,22.5
					c0.3,0.1,0.7,0.4,0.9,0c0.1-0.4,0.1-0.8-0.2-1.2c-2.5-7.9-4.2-15.9-5.9-24c-1.3-6,1-9.6,6.7-12c2.5-1.1,3.7-0.7,4.6,1.8
					c0.2,0.5,0.4,1,0.9,1.3c8.5,7.3,15.9,15.7,24.1,23.3c12.4,11.6,25.9,21.9,39.6,32c7.9,5.8,16.7,9.9,25.2,14.6
					c11.3,6.3,22.3,12.9,31.3,22.5c6.8,7.3,14.7,13.4,20.9,21.4c2.5,3.2,6,5.5,9.1,8.1c0.3,0.2,0.6,0.7,0.9,0.6
					c4.9-0.9,7.6,3.2,11.4,4.8c2.8,1.2,5.2,3.1,8.6,3.5c3,0.3,5.7,2.6,8.5,4c14,7,27.9,14.5,42.9,19.3c12.9,4.2,25.9,8.4,39,11.8
					c10.1,2.6,20.2,4.9,30.5,6.8c5.9,1.1,11.9,1.2,17.7,2.9c3.3,1,6,3.5,9.5,4c2.1,0.3,4.2,0.9,6.4,1.4c6.6,1.3,8.5,3.4,9.2,10.2
					c0.7,7.6,1.5,15.2,1,22.8c-1,16.3-0.9,32.8-5.4,48.8c-2.1,7.6-2.9,15.7-4.8,23.4c-1.1,4.6-2.8,8.7-6.8,11.6
					c-0.9,0.7-1.8,1.3-3,1.1c-3.2-0.6-6.4-0.7-9.4-2.3c-3.4-1.8-7.1-2.7-11-2.6c-6.1,0.2-12.1-0.5-18-2.2
					c-6.2-1.8-12.7-2.1-19.1-2.5c-8.9-0.6-17.6-2.2-26.2-4.5c-8.8-2.4-17.9-2.8-26.8-4.3c-9.9-1.6-19.4-4.3-28.9-7.7
					c-9.6-3.4-19.3-6.5-28.8-9.9c-17-6-34-12-51-18.1c-9-3.2-17.8-6.8-26.7-10.2C712.8,355.1,711,353.1,708.4,353.2z"/>
				<path class="st4" d="M622.7,501c5.4-3,11-5.7,16.9-7.7C635.1,498.5,629.6,501.3,622.7,501z"/>
				<path class="st5" d="M639.1,154c0.3,0.5,0.7,1,1,1.6c0.2,0.3,0.2,0.6,0.4,1c-1.2,0-1.5-0.8-2-1.4C639,155,639.1,154.5,639.1,154
					z"/>
				<path class="st6" d="M66.6,307"/>
				<path class="st7" d="M578.5,134.5c0.7,0.3,0.8,1,1.1,1.6c0.1,0.1,0.2,0.3,0.1,0.4c-0.1,0.1-0.1,0.2-0.2,0.2
					c-0.5-0.4-1.1-0.8-1.6-1.2C578.4,135.3,578.5,134.9,578.5,134.5z"/>
				<path class="st8" d="M545.7,183.6c-1.4-0.3-2.3-0.5-3.3-0.8C544.1,181.1,544.1,181.1,545.7,183.6z"/>
				<path class="st9" d="M579.6,136.7c0-0.2,0-0.4,0-0.6c0.5,0.5,1,1,0.8,1.8C579.7,137.8,579.7,137.2,579.6,136.7z"/>
			</g>
		</g>
		<g id="Hands__x26_pollution_xA0_影像_2_">
			<g>
				<path class="st1" d="M549.6,146.1c-1.5-3.7-3.1-6.9-4-10.5c-0.7-3-0.9-5.9,0.1-8.9c1.5-4.3,4.8-6.3,9.4-5.7
					c3.5,0.5,6.7,1.6,9.7,3.3c0.8,0.5,1.5,1.2,2.9,1.2c-0.9-1.9-1.7-3.7-2.5-5.5c-1.2-2.8-2.2-5.6-2.2-8.6c-0.1-4.5,2.4-7,7-6.6
					c6,0.5,11.4,2.9,16.6,5.7c12,6.5,22.2,15.4,32.1,24.7c4.3,4,8.5,8.1,13.3,11.9c-0.6-3.2-1.3-6.4-1.9-9.7
					c-1.2-5.9-1.7-11.7,1.4-17.3c3.1-5.6,8.8-7.4,14.4-4.4c3.4,1.8,5.9,4.5,8.2,7.4c5.7,7.2,11.2,14.5,17.2,21.5
					c10.5,12.3,23.7,20.7,38.1,27.6c17.7,8.5,34.6,18.1,50,30.3c5.4,4.3,10.2,9.3,15,14.3c15.2,15.8,33,27.8,53.1,36.5
					c25.1,11,50.3,21.8,76.8,29.3c14.8,4.2,29.8,7.2,44.7,10.8c3.9,0.9,7.7,2.2,11.5,3.4c1.6,0.5,2.8,4.8,1.7,6.1
					c-0.5,0.5-1,0.2-1.5,0c-23-7.6-47.2-10.3-70.1-18.2c-26.9-9.4-53.6-19.5-79-32.5c-18.1-9.3-33.3-22.3-47.2-37
					c-6.6-7-14.2-12.8-22.3-17.9c-12.5-7.8-25.3-15.1-38.6-21.3c-20-9.4-35.6-23.9-48.3-41.8c-2.8-4-5.7-8-9.3-11.3
					c-3.9-3.7-5.6-3.4-7.8,1.5c-2,4.3-2.1,9-1.9,13.6c0.5,11.1,6.3,19.9,12.8,28.3c3.5,4.5,7.4,8.8,11.7,12.5
					c6.2,5.4,9.5,11.9,10.3,20.2c2,20.1,11.7,36.2,27.2,49c4.3,3.6,8.7,7.2,13,10.8c1.2,1,2.3,2,3.5,3.1c1.3,1.3,1.9,2.8,0.6,4.3
					c-1.4,1.5-3,1.1-4.4-0.1c-4.1-3.4-8.3-6.8-12.4-10.3c-7.4-6.3-14.6-12.9-20.3-20.9c-8.1-11.3-11.6-24.3-13.3-37.9
					c-0.6-4.6-2.2-8.3-5.6-11.5c-8-7.5-15.3-15.7-21.5-24.9c-2.2-3.3-5.9-5.7-8.9-8.4c-11.7-10.7-23-22-36-31.2
					c-6.6-4.6-13.5-8.6-21.4-10.4c-2.7-0.6-3.2-0.1-2.4,2.6c1.9,6.7,5.4,12.7,9.4,18.4c11.8,16.8,25,32.3,39.1,47.2
					c2.5,2.6,4.9,5.4,7.3,8.1c1.3,1.5,2.6,3.2,0.7,5c-1.9,1.8-3.5,0.4-4.9-1.1c-14.3-15.5-28.4-31.1-41.3-47.9
					c-5.6-7.2-13-12.7-21.8-15.7c-5.6-1.9-7.9,0.5-6.4,6.3c1.5,5.9,4.4,11.1,7.3,16.4c8.3,15.1,19.2,28.2,31.4,40.3
					c3.5,3.5,6.8,7.3,9.8,11.3c1.2,1.6,1.8,3.4-0.1,4.8c-1.8,1.3-3.3,0.2-4.4-1.2c-5.1-6.7-11.1-12.6-16.9-18.6
					c-9-9.3-16.6-19.7-23.2-30.9c-2.2-3.7-9.5-6-13.5-4.4c-3.1,1.3-5.1,6.1-4.2,10.4c0.8,3.6,2.4,6.9,4.2,10
					c7.2,12.5,16.2,23.6,26.3,34c3.8,3.9,7.5,7.9,11.3,11.8c1.5,1.5,2.9,3.3,1,5.2s-3.6,0.5-5.1-1.1c-11.6-12.4-23.9-24.2-33.2-38.6
					c-1.4-2.1-4.3-1.9-6.2,0.5c-3,3.8-3.8,8.2-3.1,12.9c0.8,5.7,3.3,10.7,6.8,15.3c12.9,16.9,26.9,32.7,42.1,47.5
					c1.4,1.4,2.1,1.2,3.4-0.1c4.8-4.7,10.1-8.8,15.5-12.8c8.9-6.5,18.9-9.5,29.8-9.8c6.7-0.2,13.5-0.1,20.2,0c2.7,0.1,5-0.5,7-2.3
					c1.3-1.2,2.8-2,4.4-0.6c1.6,1.4,0.8,2.9-0.2,4.4c-2.2,3.2-2.9,6.8-2.9,10.6c0,10.8-0.7,21.6-3.2,32.2
					c-1.7,7.1-0.3,14.1,2.8,20.7c2.5,5.2,6.8,8,12.3,10c17.2,6.4,31.7,15.8,36.2,35.4c0.2,1,0.7,1.9,1.5,2.5
					c4.1,3.3,8.7,5.5,13.8,6.8c1.7,0.4,3.5,1.1,5.2,1.7c40.6,14.8,81.1,29.9,123.2,40.2c31,7.6,62.3,13.7,93.9,17.7
					c3.1,0.4,6.1,0.8,9.2,0.9c2.8,0.2,1.8,2.1,1.8,3.5c0.1,1.7-0.6,2.5-2.4,2.2c-9.6-1.1-19.1-2.2-28.6-3.7
					c-34.1-5.5-67.9-12.3-101.1-22c-25.2-7.3-49.8-16.4-74.7-24.9c-12-4.1-23.8-8.9-35.7-13.4c-0.3-0.1-0.5-0.2-0.8-0.3
					c-1.4-0.4-2.8-2.3-3.7-1.7c-1.2,0.9-0.4,3-0.5,4.6c-0.1,1.9,0,3.8,0.4,5.7c0.5,2.3,0.5,4.6,2.9,6c0.6,0.3,0.8,1.2,1.1,1.8
					c4.6,9.4,12.5,13.6,22.5,15.1c12,1.7,24.2,2.6,36.2,4.8c11.7,2.2,23.3,4.8,34.2,9.9c5.6,2.6,10.8,5.8,14.1,11.2
					c6,10,1.1,22.1-10,24.9c-1.8,0.4-3.6,0.5-5.4,0.1c-2.1-0.6-3.9-0.1-5.6,1.1c-6.6,4.3-13.3,8.5-20.1,12.6
					c-12.1,7.2-24.8,9.2-38.5,6.5c-20.7-4-41.2-2.7-61.7,1.4c-11.3,2.3-20.1,8.5-27,17.6c-3.6,4.7-7.1,9.4-11.2,13.7
					c-8.7,9.1-19.3,12.5-31.7,11c-6.1-0.7-12.3-1.5-18.3-3c-9.1-2.2-17.7-0.6-26.1,2.8c-7.3,2.9-13.8,7.2-19.8,12.3
					c-7.4,6.3-11.2,14.6-14.3,23.4c-2.4,6.9-4.9,13.7-8.6,20c-7.9,13.4-20,20-35.2,21c-8.5,0.6-16.9-0.7-24.7-4.2
					c-12.3-5.5-19.3-18.3-17.9-31.7c0.9-8.4,3.3-16.6,4.9-24.8c2.8-14.4-3.4-25.2-17.1-30.3c-7.8-2.9-16.1-3.5-24.3-4.8
					c-5.1-0.8-10.2-1.9-15.2-3c-8.5-1.8-15.2-6.7-21.7-12c-11.3-9-23.3-16.9-37.5-20.5c-23.1-5.9-46.1-6.6-69,1.3
					c-11.1,3.8-22.6,6-34.5,5.3c-17.3-1.1-31.8-7.6-42.5-21.6c-1.2-1.6-2.5-3.1-3.7-4.7c-5.3-7.3-12.8-10.5-21.5-10.2
					c-16.9,0.5-33.8,0.1-50.7-0.6c-8.8-0.4-17.5-1.9-26-4.5c-10.8-3.3-18.9-10.2-24.7-19.9c-9.5-15.8-13.2-32.7-9.4-51
					c1.6-7.6,5.5-14,10-20.1c2.6-3.5,5.3-6.9,7.6-10.7c2.1-3.5,2.2-7,0.3-10.6c-1.9-3.7-4.2-7.3-6.6-10.6c-7.5-10.4-6.7-20.6,0-30.9
					c6.5-10,15.1-17.9,25.5-23.7c4.9-2.7,9.8-5.5,14.7-8.2c4.7-2.6,7.4-6.4,8.1-11.9c1.4-10.4,5.3-19.8,12.4-27.7
					c5.8-6.5,12.7-11,21.4-12.7c8.9-1.7,17.7-2.9,26.8-1.7c13.6,1.8,20.9,10.8,23.1,23.6c2.1,11.6-2.6,21.6-9.4,30.6
					c-6.8,9-14.9,16.6-25.5,21.1c-2.4,1-4.8,2.3-6.8,4c-2.5,2.1-2.7,4.2-0.8,6.9c0.2,0.2,0.3,0.5,0.5,0.6c4.5,4.4,3.2,8.2-2,11.4
					c-4.3,2.7-9,4.2-13.9,5.4c-4.6,1.2-5.8,2.6-5.8,7.2c-0.2,7.8-0.4,15.6-1.5,23.4c-0.7,4.6,0.8,8.2,4.2,11.5
					c5.8,5.4,12.7,8.6,19.9,11.6c16.9,7,34.7,10.5,52.6,13.6c7.2,1.2,14.3,2.6,21.5,3.2c9.9,0.8,19.6-0.7,29.1-3.4
					c11-3.2,22.2-4.5,33.6-4.5c14.6,0,29.3-0.2,43.9-0.5c12.7-0.2,25.3,1.2,37.4,4.8c12.8,3.8,25.6,3.2,38.6,1.8
					c15.7-1.6,29.1-8.6,42.2-16.6c12.8-7.8,26.3-13.9,41.1-16.8c11.6-2.3,23.3-2,35-0.6c4.7,0.6,9.5,0.7,14.2,0.2
					c8-0.9,14.2-4.8,18.7-11.4c6.1-8.9,10.9-18.4,15.1-28.3c0.9-2.2,1.7-4.4,2.9-6.4c1-1.7,0.9-2.8-0.6-4.2
					c-10.2-9.8-19.9-20.2-29.1-31c-4.9-5.8-9.7-11.6-14.2-17.7c-3.3-4.4-5.6-9.3-6.9-14.7c-1.4-5.9-0.7-11.5,1.9-17
					c1.3-2.8,3.4-5,6.3-6.1c1.8-0.6,1.5-1.3,0.8-2.5c-2-3.5-3.7-7.1-4.5-11c-0.8-3.8-0.4-7.4,1.2-10.9c2.4-5,6.3-7.3,11.8-6.9
					C546.4,145.8,547.9,145.9,549.6,146.1z M652.8,252.4c0-2.9-0.1-5.8,0-8.7c0.1-1.8-0.6-2.1-2.2-2.1c-6.9,0.1-13.8,0-20.7,0.3
					c-8.9,0.4-17.2,2.9-24.6,7.9c-4.9,3.3-9.4,7.2-14,10.9c-5,4-8.2,9.1-10.5,14.9c-4.3,10.5-9.4,20.6-15.9,30
					c-5.4,7.7-12.6,12.4-22,13.7c-6.3,0.8-12.5,0.4-18.8-0.3c-9.9-1.1-19.8-1.3-29.6,0.6c-14.8,2.7-28.2,8.8-40.9,16.6
					c-14.4,8.9-29.2,16-46.5,17.3c-12.3,1-24.4,1.7-36.5-1.8c-13.9-4.1-28.1-5.6-42.6-5.1c-12.9,0.4-25.8,0.6-38.7,0.5
					c-10.9-0.1-21.5,1.3-32,4.2c-11.2,3.1-22.6,4.8-34.2,3.4c-8.9-1.1-17.8-2.8-26.6-4.3c-17.4-2.9-34.5-7.3-50.7-14.4
					c-7.3-3.2-14.1-7.1-19.5-13.1c-2.7-3.1-4.4-6.6-4-10.7c0.8-9.2,1.3-18.5,1.7-27.7c0.3-6.5,3.1-9.4,9.4-11
					c4.3-1.1,8.5-2.4,12.5-4.6c1.8-1,2.2-1.8,0.7-3.7c-4.6-5.7-3.7-11.4,2.1-15.8c2.8-2.2,6.1-3.7,9.3-5.2
					c11.1-5.2,19-13.9,25.2-24.2c4-6.7,6.2-14.1,4.2-22.2c-2.6-10.5-8.3-15.7-18.9-17.1c-10-1.4-19.7,0.4-29.3,3.3
					c-2.7,0.8-5.1,2.3-7.4,4.1c-9.4,7.4-14.9,17.1-16.4,28.9c-1.1,8.1-5,13.8-12.1,17.6c-4.6,2.5-9.1,5-13.6,7.5
					c-9.9,5.5-18,12.9-24.1,22.4c-5,7.8-6,15.6-0.1,23.6c2.5,3.4,4.6,7,6.7,10.6c3.6,6.1,3.6,12.2-0.3,18.2
					c-2.1,3.3-4.5,6.4-6.8,9.5c-3.9,5.3-7.7,10.6-9.2,17.1c-4.3,18.6-0.2,35.4,10.2,51.1c4.8,7.2,11.3,12,19.5,14.6
					c6.7,2.1,13.6,3.6,20.5,4c17.3,1.1,34.7,1.6,52,0.9c4-0.2,8,0.2,11.9,1.2c8.5,2,14.3,7.6,19.1,14.4
					c10.6,14.8,25.5,20.9,43.3,21.2c9.4,0.1,18.4-2,27.3-4.7c17.1-5.3,34.3-7.9,52.4-5.7c17.6,2.1,34,6.7,48.7,16.5
					c5.9,3.9,11.4,8.4,17.1,12.7c4.1,3.1,8.5,5.6,13.5,6.9c7,1.7,14,3,21.1,4c8.1,1.1,16.2,2.3,23.7,5.7
					c12.9,5.9,19.6,18.5,17.6,32.5c-1.2,8.2-3.8,16.1-5,24.3c-2.2,15.2,5,26.7,19.8,30.8c4.2,1.2,8.5,1.8,12.9,1.8
					c15.4,0,27.5-5.9,35.1-19.8c3.1-5.7,5.3-11.7,7.4-17.8c3-8.4,6.4-16.4,13-22.8c6.8-6.6,14.5-11.8,23.2-15.5
					c10-4.3,20.3-6,31.1-3.4c6.4,1.5,12.8,2.4,19.4,3c8,0.7,15.1-1.2,21.3-6.4c5.5-4.6,9.7-10.3,14-16c7.5-9.9,17-17,29.2-19.6
					c20.9-4.5,42-6,63.1-2.1c13.8,2.6,26.4,1.2,38.4-6.4c6.2-3.9,12.4-7.8,18.6-11.8c2.7-1.7,5.5-2.7,8.8-1.8c3,0.8,5.7-0.2,8.1-2.2
					c5.4-4.7,5.3-11.7-0.4-17.2c-3.1-3-6.9-5-10.8-6.7c-16.3-6.8-33.5-9.4-50.8-11.5c-7.5-0.9-15.1-1.3-22.3-3.3
					c-8.9-2.5-16.4-7-21.2-15.4c-3.5-6.1-4.6-12.5-4.5-19.3c0.3-16-5.9-28.5-20.2-36.6c-4.6-2.6-9.7-4.1-14.5-6.2
					c-4.7-2-9-4.5-11.9-8.8c-6.2-9.1-7.8-19.1-5.4-29.7C652.2,269.6,652.6,261.1,652.8,252.4z"/>
				<path class="st1" d="M603.1,232.8c0.1-1.7,1.3-3.1,2.5-4.4c4.8-5.6,10.5-10.3,16.7-14.2c3.6-2.3,7.2-4.5,10.8-6.8
					c1.6-1,3.3-1.6,4.5,0.3c1.2,1.9,0.2,3.5-1.5,4.6c-2.7,1.7-5.4,3.3-8.1,5c-7.7,4.6-15.1,9.7-20.3,17.3c-0.7,1.1-1.8,1.5-3.1,1
					C603.5,235,603.1,234.1,603.1,232.8z"/>
				<path class="st1" d="M117.9,335.9c0,1.3-0.4,2.3-1.6,2.8c-1,0.4-2,0.2-2.8-0.6c-1-0.9-1.5-2.1-2-3.2
					c-4.8-10.2-9.5-20.4-14.3-30.6c-0.8-1.7-1.4-3.4,0.7-4.5c1.9-0.9,3.1,0.4,3.8,2c5.2,10.8,10.4,21.6,15.6,32.4
					C117.6,334.8,117.8,335.4,117.9,335.9z"/>
				<path class="st1" d="M94.2,348.7c1.5,0.1,2.2,1.1,2.9,2.2c2.3,3.5,4,7.3,5.8,11.1c2.1,4.5,4,8.9,6.1,13.4c1,2.1,2,4.3,3.6,6.1
					c0.9,1.1,1.2,2.5,0.1,3.7c-1.2,1.3-2.7,0.9-3.9-0.1c-1.7-1.3-2.7-3.1-3.6-5.1c-2.5-5.6-5-11.3-7.5-16.9c-1.6-3.5-3.1-7-5.3-10.1
					c-0.7-1.1-1-2.2-0.3-3.3C92.6,348.9,93.3,348.7,94.2,348.7z"/>
				<path class="st1" d="M284.2,433.4c0,1.5-0.4,2.5-1.5,3c-1.2,0.5-2.3,0.1-3.2-0.9c-0.3-0.4-0.6-0.9-0.8-1.4
					c-3.5-8.1-7.3-16.2-10.2-24.6c-0.4-1.1-0.7-2.3-0.9-3.4c-0.2-1.4,0.1-2.8,1.7-3.2c1.7-0.4,2.7,0.5,3.2,2.2
					c1.7,5.8,4.3,11.4,6.7,16.9c1.4,3.1,2.8,6.1,4.1,9.2C283.8,431.9,284,432.8,284.2,433.4z"/>
				<path class="st1" d="M434.7,386.5c0.1-1.7,0.6-2.8,1.9-3.1c1.6-0.4,2.6,0.6,3,2c1.3,4.3,2.6,8.7,4,13c1.6,5,3.1,10,4.8,15
					c0.6,1.8,0.9,3.6-1.2,4.4c-2.2,0.9-3.3-0.8-4-2.6c-2.3-6.1-3.8-12.5-5.6-18.7C436.5,393,435.5,389.6,434.7,386.5z"/>
				<path class="st1" d="M658.9,438.3c0,1.1-0.3,2-1.2,2.4c-1.1,0.5-2.1,0.3-3-0.4c-1.5-1.3-2.3-3-3-4.8c-2.3-6.1-3.9-12.4-5.8-18.7
					c-0.5-1.6-1.1-3.2-1.6-4.9c-0.5-1.7-0.7-3.4,1.3-4.1c1.8-0.6,2.9,0.6,3.5,2.2c1.1,3.3,2.1,6.5,3.2,9.8c1.9,5.7,3.2,11.7,6.2,17
					C658.8,437.4,658.8,438,658.9,438.3z"/>
				<path class="st1" d="M466.7,399.8c0,1.7-0.4,2.7-1.8,3.1c-1.3,0.4-2.4-0.1-3-1.2c-0.5-0.9-0.8-1.8-1.1-2.7
					c-2.7-8.1-4.8-16.3-7.9-24.3c-0.6-1.5-0.7-3,1-3.8s3,0.1,3.7,1.7c1.1,2.6,2.1,5.2,2.9,7.9c2,5.8,3.8,11.7,5.7,17.6
					C466.5,398.8,466.7,399.5,466.7,399.8z"/>
				<path class="st1" d="M510.5,541.4c0,1.8-0.4,3-1.9,3.3c-1.6,0.3-2.6-0.4-3.2-1.9c-1.4-3.6-2.2-7.5-3.1-11.2
					c-1.1-4.6-2.1-9.2-3.1-13.8c-0.1-0.4-0.2-0.9-0.2-1.3c-0.2-1.6,0.2-3,1.9-3.4c1.8-0.3,2.6,0.8,3,2.4c1.5,6.2,2.9,12.3,4.5,18.5
					C509,536.6,509.8,539.2,510.5,541.4z"/>
				<path class="st1" d="M113.3,353.1c0.1,1-0.4,1.8-1.2,2.3c-0.9,0.6-2,0.5-2.8-0.2c-0.7-0.6-1.3-1.3-1.7-2.1
					c-4.2-6.7-7.9-13.8-12.5-20.4c-0.9-1.3-1-2.6,0.3-3.6c1.4-1.1,2.8-0.6,3.8,0.6c1.1,1.4,2.2,2.9,3.2,4.4
					c3.4,5.4,6.8,10.9,10.1,16.4C112.8,351.4,113.3,352.2,113.3,353.1z"/>
				<path class="st1" d="M248.5,416.7c1.1,0.1,1.9,0.7,2.4,1.6c3.9,7.5,7.9,15.1,11.8,22.6c0.7,1.4,0.6,2.8-0.8,3.6
					c-1.4,0.9-2.8,0.5-3.8-0.9c-0.8-1.1-1.4-2.3-2-3.5c-3.2-6.3-6.4-12.6-9.4-19C245.4,418.7,246.4,416.6,248.5,416.7z"/>
				<path class="st1" d="M533.8,354.8c0.1,1.2-0.4,2.2-1.5,2.6c-1.2,0.5-2.4,0.2-3.1-0.9c-0.5-0.7-0.9-1.6-1.2-2.4
					c-2.2-7.6-4.3-15.1-6.5-22.7c-0.4-1.6-0.3-3,1.4-3.7s2.9,0.3,3.4,1.8c2.5,8.2,5,16.4,7.4,24.7
					C533.8,354.4,533.8,354.6,533.8,354.8z"/>
				<path class="st1" d="M171.4,217.3c-0.1,1.2-0.3,2.2-1.4,2.6c-1.1,0.4-2.2,0.3-3-0.7c-1-1.2-1.5-2.7-1.9-4.2
					c-1.7-7-3.3-13.9-5.6-20.8c-0.6-1.7-0.6-3.4,1.4-4c1.9-0.6,2.9,0.7,3.4,2.3c2.3,6.5,3.9,13.2,5.7,19.9
					C170.4,214.2,170.9,215.8,171.4,217.3z"/>
				<path class="st1" d="M445.1,378.1c0.1-1.3,0.4-2.3,1.6-2.7c1.2-0.4,2.2-0.1,2.9,0.9c0.5,0.8,0.9,1.8,1.2,2.7
					c2.5,7,4.9,14.1,7.3,21.1c0.6,1.7,0.5,3.1-1.2,3.9c-1.6,0.7-2.9-0.2-3.6-1.6c-0.7-1.3-1.2-2.6-1.6-4c-2.1-6.2-4.1-12.4-6.1-18.6
					C445.4,379.2,445.2,378.6,445.1,378.1z"/>
				<path class="st1" d="M509.1,506.5c0.1-1.5,0.4-2.9,2-3.1c1.8-0.3,2.7,0.8,3,2.4c1.7,8,3.2,16,5.7,23.7c0.5,1.6,0,3-1.7,3.5
					c-1.8,0.5-2.9-0.6-3.5-2.2c-1.7-4.8-2.6-9.8-3.7-14.7C510.2,512.9,509.7,509.7,509.1,506.5z"/>
				<path class="st1" d="M631.5,446.7c0.1,1.9-0.4,3-1.9,3.4c-1.5,0.3-2.5-0.4-3-1.7c-1-2.6-1.8-5.3-2.7-8
					c-1.4-4.4-2.5-8.9-4.6-13.1c-0.7-1.5-0.9-3.1,0.9-4c1.8-0.8,2.9,0.4,3.7,1.8c2.4,4.5,3.6,9.5,5.2,14.3
					C630.1,442,630.9,444.6,631.5,446.7z"/>
				<path class="st1" d="M636.8,330.7c0.2,1.7-0.3,2.6-1.3,3.1c-1.1,0.6-2.1,0.4-3-0.5c-0.8-0.8-1.2-1.8-1.6-2.8
					c-2.3-6.1-4.1-12.4-6.8-18.3c-0.2-0.5-0.3-1-0.4-1.6c-0.1-1.4,0-2.8,1.7-3.3c1.8-0.4,2.6,0.6,3.2,2.1c2.3,6.2,4.7,12.4,7.1,18.5
					C636.2,329.1,636.6,330.2,636.8,330.7z"/>
				<path class="st1" d="M644.4,437.9c-0.1,1.4-0.6,2.3-1.8,2.7c-1.3,0.4-2.4,0-3-1.1c-0.6-1.2-1.1-2.5-1.5-3.8
					c-2-5.8-3.3-11.9-5.7-17.6c-0.6-1.4-0.5-2.8,1-3.5c1.6-0.8,2.8,0,3.6,1.4c1.3,2.3,2,4.8,2.8,7.3c1.4,4.3,2.8,8.6,4.2,12.9
					C644.1,436.9,644.3,437.5,644.4,437.9z"/>
				<path class="st1" d="M653.8,322c0.1,1.3-0.3,2.2-1.3,2.6s-2,0.4-2.8-0.4c-0.6-0.6-1.1-1.2-1.4-2c-3-6-6-12-8.9-18
					c-0.2-0.4-0.4-0.8-0.5-1.3c-0.4-1.3-0.1-2.4,1-3.1c1.3-0.7,2.7-0.4,3.3,0.9c3.6,6.8,7,13.7,10.5,20.6
					C653.8,321.6,653.8,321.9,653.8,322z"/>
				<path class="st1" d="M272.1,438.4c0,1.2-0.4,2.1-1.5,2.5s-2.2,0.2-3-0.7c-0.7-0.8-1.2-1.8-1.7-2.8c-2.7-5.8-5.3-11.7-7.9-17.6
					c-0.7-1.5-0.9-3.1,0.9-4c1.5-0.8,2.7-0.1,3.4,1.3c3.3,6.8,6.4,13.6,9.6,20.4C272.1,437.8,272.1,438.2,272.1,438.4z"/>
				<path class="st1" d="M526.6,520c-0.1,1.8-0.7,2.8-2.2,3.1c-1.6,0.3-2.7-0.7-3-2.1c-0.8-3.1-1.3-6.2-2-9.3
					c-0.8-3.7-1.5-7.5-2.2-11.2c-0.3-1.5,0.2-2.8,1.8-3.2c1.5-0.4,2.6,0.5,2.9,1.8C523.7,506.2,525.2,513.3,526.6,520z"/>
				<path class="st1" d="M544.8,348.1c0,1.9-0.3,3.1-1.9,3.4c-1.4,0.3-2.5-0.3-3.1-1.7c-0.6-1.6-1.1-3.3-1.5-4.9
					c-1.3-4.8-2.6-9.6-3.9-14.5c-0.4-1.6-0.8-3.5,1.3-4.2c2.2-0.8,3.1,0.9,3.6,2.7C541.3,335.5,543.1,342.1,544.8,348.1z"/>
				<path class="st1" d="M140,212.8c0-1.3,0.5-2.3,1.9-2.6c1.3-0.3,2.5,0.3,2.8,1.5c2,6.6,4.2,13.1,5.7,19.9
					c0.3,1.4-0.1,2.8-1.8,3.2c-1.5,0.4-2.8-0.3-3.2-1.8c-1.9-6.4-3.6-12.9-5.4-19.4C140,213.3,140,213,140,212.8z"/>
				<path class="st1" d="M644.4,326.1c-0.1,1.3-0.5,2.3-1.7,2.7c-1.2,0.4-2.2,0.1-2.9-0.9c-0.6-1-1.2-2-1.5-3.1
					c-1.7-5.1-3.4-10.3-5-15.5c-0.5-1.5-0.8-3.2,1.1-4c1.9-0.8,3.1,0.5,3.7,2.2c2.1,5.9,4.1,11.8,6.1,17.7
					C644.2,325.6,644.3,325.9,644.4,326.1z"/>
				<path class="st1" d="M157.3,221.3c-0.1,1.8-0.6,3-2.1,3.2c-1.6,0.2-2.7-0.6-3.1-2.1c-1-3.5-1.9-7-2.8-10.5
					c-0.7-2.5-1.4-5.1-1.9-7.7c-0.3-1.3,0.1-2.6,1.6-3.1c1.4-0.5,2.7,0.1,3.1,1.4C153.9,208.9,155.6,215.3,157.3,221.3z"/>
				<path class="st1" d="M556.4,343.8c-0.1,1.4-0.5,2.5-1.9,2.8s-2.6-0.3-3.1-1.6c-0.8-2.1-1.4-4.3-2.1-6.5
					c-1.1-3.6-2.3-7.3-3.4-10.9c-0.5-1.6-0.8-3.4,1.4-4.1c2.1-0.6,3,0.8,3.5,2.5c1.8,5.4,3.5,10.9,5.2,16.3
					C556.3,342.9,556.3,343.5,556.4,343.8z"/>
			</g>
		</g>
		<g id="Consequences_xA0_影像_2_">
		</g>
	</g>
</g>
<g id="Sign">
	<g>
		<g id="Consequences_Color_xA0_影像_2_">
			<g>
				<path class="st3" d="M861,375.2c-0.3,5.9,0.8,11.9-0.7,17.5c-1.8,7.1,0,14.2-1.4,21.3c-1.7,8.3,1.2,16.8,0.3,25.3
					c-0.7,6.4-0.6,11.9-1,18.3c-1,14.9-2.2,30.7-3,45.7c-0.3,5.6-1.8,11.7-2,17.3c2.6,13.1-1.5,26.9-2.7,40.7
					c-0.7,9.1-1.5,18.5-2,27.7c-0.3,6.2-1,12.4-1.7,18.7c-0.4,3.6-0.2,9.9-2.7,11.7c-2.2,1.6-10,1.6-13,1.7
					c-8.3,0.3-16.4,0.6-24.7,1.3c-12.3,1.1-24.9-1-37.2-2.7c-9.1-1.2-17.9,0.5-27.1,0.7c-9.5,0.2-19.8-1.6-29.3-0.7
					c-18.4,1.8-36.2-1.9-54.6-1.7c-7.7,0.1-15.4,1.1-23.1,0.9c-3.1-0.1-6.1-0.5-9.1-1.6c-3.4-1.2-7.7,0.5-8.9-2.9
					c-2.6-7.6-2.5-18.7-1.3-26.3c1.2-7.5,1.4-14.7,2-22.3c0.5-7.4,0.7-14.2,0.7-21.7c0-6.4,0.4-14,0.3-20.3
					c-0.1-8.9,0.4-17.1,0.7-26c0.1-3.2-0.1-6.5,0-9.7c0.3-8.5,1.5-17.8,0.7-26.3c-0.9-9.2,0.1-18.2,1-27.3
					c1.5-16.2-0.3-31.4-0.7-47.7c-0.2-9.4,0.9-20.6,0-30c-0.3-3.1,0.1-6.6,0.7-9.7c0.5-2.7,5.1-2.3,7-0.4c0.8,0.7,1.7-0.5,2.7-0.3
					c7.9,1.9,14.7,1.4,22.7,0.7c11.4-1,24.2-2.2,35.7-1.7c5.9,0.3,10.5-0.1,16.3-0.7c5.6-0.5,11.7,0.6,17.3,0.3
					c13.6-0.6,27.6,0.5,41.3,1.2c18.1,0.9,36.2-0.8,54.1,2.5c6,1.2,10.5,1.3,21,0c6.3-0.8,10.9-0.2,17,1.3c2.8,0.7,3.7,4.6,4.2,7.5
					C861.4,363.4,860.7,369.4,861,375.2z"/>
				<path class="st3" d="M932.1,457.7c-1.9,0.1-4.2,0-6.4,0.4c-3.7,0.6-4-1.6-4.1-5.5c-0.3-12-1.4-23.6,1.2-35.2
					c1.3-5.6,3.6-11.2,5.7-16.7c0.8-2.2,2.7-4.1,4.2-5.9c1.3-1.5,3.3-1.4,4.4,0.4c4.2,7.2,10.2,13.3,13.9,20.7
					c4,8.2,9.5,15.8,11.6,24.9c1.1,4.8,3.1,9.5,3,14.6c0,3.7-1.4,5-5,5.2c-5,0.2-9.9-1.1-14.8-1.8
					C941.3,458.1,936.9,457.6,932.1,457.7z"/>
				<path class="st3" d="M205.1,507.3c-0.1-1.8,0.1-3.6-0.4-5.4c-0.6-2.3,0.9-4,3.3-4.3c2.3-0.3,4.3,0.6,6.3,1.4
					c1.9,0.8,3.9,1.5,5.7,2.6c2.9,1.7,6,2.4,9.3,2.6c0.7,0,4.7-1.3,5.3-1c7,4.2,12.3,5.5,19.2,10c5,3.3,11.1,5.6,15.2,10.2
					c0.3,0.3-0.5,3.1-0.1,3.3c1.9,0.9,2.8,2.3,2,4.4c-1.2,3.3-2.4,4.1-5.1,3.5c-2.8-0.6-5.6-1.3-8.4-2.1c-5.3-1.5-10.4,0.5-15.6,0.9
					c-5.9,0.4-11.6,1.8-17.4,2.8c-2.5,0.4-5.7,1.3-6.4-2.9c-2.7-0.9-3.9-1.1-7.7-0.5c-1.6,0.3-2.1-5-2.4-6.6
					C206.8,520,205.1,513.7,205.1,507.3z"/>
				<path class="st3" d="M102.5,441.9c-0.1,7.2-1.1,14.4-1.4,21.6c-0.1,1.7-0.9,3-2.5,3.1c-1.9,0.1-1.5,1-1.2,2.1
					c0.2,0.6,0.4,1.2,0.6,1.8c0.5,1.5-2.2,0.1-3.5,0.8c-1.3,0.7-0.2,3.3-1.3,2.1c-0.6-0.7-1.2-1.2-2.3-1.2c-6,0-11.5-2.2-17.1-4
					c-3.7-1.2-4.4-3.9-2-7c6.3-8.1,12.6-16.2,21.6-21.6c1.2-0.7,2.4-1.4,3.6-1.8C100.3,436.7,102.8,438.6,102.5,441.9z"/>
				<path class="st3" d="M579.9,514.1c7.3,1,14.7,0.5,22,0.6c3.7,2.9,7.9,0.9,11.8,1.4c1.6,0.2,3.1,1.4,2.9,3.1
					c-0.4,2.3,0.5,4.3,1,6.3c0.4,1.6,0.1,2.9-1.1,3.9c-1.1,1-2.3,0.6-3.5,0c-1.7-0.8-3.1-1.1-4.4,0.8c-1.1,1.7-2.9,1.7-4.6,0.9
					c-1.1-0.5-2.4-0.7-3.2-1.3c-2.6-1.8-5.4-0.8-8.1-0.9c-1.1,0-1.9,0.6-2.6,1.3c-3,3-6.6,3.5-10.6,3c-6.5-0.9-11.1-10.9-6.2-17.1
					C575,513.8,577.5,514.2,579.9,514.1z"/>
			</g>
		</g>
		<g id="Consequences_xA0_影像_3_">
			<g>
				<path d="M928,592.5c2.1,1.8,3.8,3.2,5.6,4.6c1.4,1.2,2.3,2.6,1.1,4.2c-1.2,1.6-2.9,1.2-4.3,0.1c-2.4-1.9-4.9-3.8-7-6
					c-2.5-2.6-5.5-2.7-8.7-2.3c-2.2,0.3-4.4,0.9-6.7,1.4c-2.5,0.5-3.5,2.7-4.8,4.5c-2.9,4.1-5.2,8.5-7.6,12.9
					c-0.4,0.8-0.9,1.6-1.3,2.4c-0.9,1.4-2.2,1.9-3.7,1.1c-1.4-0.8-1.5-2.2-0.9-3.6c0.5-1.2,1.1-2.3,1.8-3.4c2.3-3.9,4.6-7.8,7-11.7
					c0.9-1.4,0.6-1.7-1-1.9c-4.7-0.7-9.2-0.3-13.7,1.3c-3.4,1.2-6.8,2-10.4,2.2c-2.8,0.2-5.5,0.9-8,2.3c-3.9,2.2-8.2,3.6-12.7,3.5
					c-1.4,0-1.9,0.5-2,1.9c-0.3,4.2-0.8,8.3-1.1,12.5c-0.3,5.3-1.2,6.3-6.3,6.3c-18.2,0-36.3,0.9-54.5,0.2
					c-10.4-0.4-20.9-0.9-31.3-0.8c-2.6,0-3.5,1-3.5,3.5c0.4,15.5-0.3,31.1-0.5,46.6c0,3.7-0.4,7.4-0.5,11.2c0,1.4-0.6,1.8-1.9,2
					c-4.2,0.7-8.5,0.7-12.8,0.6c-8.4-0.2-16.7-0.6-25.1-0.7c-2.2,0-3-0.6-3-2.9c0.3-19.8,0.1-39.6,1.3-59.4c0.1-2.3-0.4-3-2.8-3
					c-21.4,0.1-42.7-1.2-64.1-0.7c-7.4,0.2-14.7-0.5-22-1.3c-2.8-0.3-5.3-1.1-7.8-3c0.9,1.8,1.8,3.7,2.8,5.5
					c0.9,1.6,1.6,3.4-0.3,4.5c-2.1,1.2-3.4-0.2-4.4-1.9c-2.5-4.3-3.9-9.2-7-13.2c-1.3-1.7-1.8-1.6-2.6,0.2c-0.9,1.9-2.1,3.4-4.2,4
					c-1.1,0.3-1.8,1.2-2.5,2c-3.3,3.4-6.6,6.7-10,10c-1.4,1.3-3.1,2.5-4.7,0.7c-1.7-1.7-0.5-3.3,0.9-4.7c2-2,4-4.1,6.1-6.3
					c-3.4-0.2-4.8-2.3-4.8-5.4c0-1.8-0.9-2.1-2.4-2c-8.2,0.5-16.3,1-24.5,1.4c-12.9,0.6-25.6,3.2-38.5,4.1
					c-21.7,1.5-43.3,0.8-64.6-4.8c-13.4-3.5-27.2-5.6-40.8-8.5c-1.6-0.3-3.3-0.3-4.9-0.4c-2.6-0.3-5-0.2-6.5,2.6
					c-0.9,1.7-2.8,2.2-5,2.1c1.8,4.2,3.8,8.1,5.9,11.8c0.4,0.7,0.9,1.4,1.1,2.2c0.5,1.4,0.3,2.8-1.1,3.5c-1.3,0.7-2.6,0.2-3.4-0.9
					c-1-1.5-1.9-3.1-2.7-4.7c-1.4-2.8-2.8-5.7-4.3-8.6c-1.8,1.3-3,3.3-5.3,3.2c-2.5-0.1-3.3-1.8-4-4c-1.1,1.5-2.2,2.7-4.1,2.4
					c-1.2-0.2-1.5,0.9-1.9,1.6c-2.4,4.6-5.7,8.9-6.5,14.3c-0.2,1.4-1.4,2.1-2.8,2c-1.4-0.1-2.4-0.8-2.6-2.3c-0.3-1.4,0.2-2.7,0.7-4
					c1.9-4.4,4.3-8.6,6.8-13c-1.6-0.4-2.9-1.2-3.5-2.6c-0.5-1-1.5-0.8-2.3-1.1c-11-3.8-22.6-4-34.1-5.3c-3.8-0.4-7.5-1.4-11.2-2.2
					c-4-0.8-8.1-1.2-12.2-0.6c-6.4,0.9-12.7,0.6-19-0.6c-2.3-0.4-4.6-0.6-6.8-0.2c-6.4,1.1-12.5-0.2-18.4-2.6
					c-3.2-1.3-6.5-1.7-9.8-0.7c-6.3,1.9-12.4,1.1-18.4-1.3c-2.7-1.1-5.5-1.8-8.5-1.8c-5.7,0-11.2-1.1-16.5-3.3s-10.9-2.8-16.5-3.4
					c-3.4-0.4-6.8-1-10.1-2c-4.5-1.3-9-1.9-13.7-1.5c-5.9,0.5-11.7-0.6-16.9-3.4c-4.9-2.6-9.9-4.4-15.4-5.1c-1.5-0.2-3-0.6-4.5-1.1
					c-1.7-0.6-3.1-0.8-3.9,1.3c-0.2,0.5-0.7,1-1.2,1.1c-3.2,0.6-2.5,2.8-2.2,5c0.5,3.6,1,7.2,1.5,10.8c0.3,1.8,0.1,3.5-1.9,3.9
					c-2.2,0.4-3.2-1.2-3.4-3c-0.7-5-1.3-10.1-1.9-15.1c-0.1-0.9-0.2-1.8-0.3-2.7c-0.2-1.5-1.1-1.6-2.4-1.3c-3.8,1-6.5,3-8,7
					c-1.9,5.1-4.5,9.9-6.8,14.9c-0.4,0.8-0.8,1.7-1.3,2.4c-0.9,1.2-2.2,1.7-3.6,1c-1.3-0.7-1.6-1.9-1.2-3.3c0.2-0.9,0.7-1.7,1.1-2.5
					c3.1-6.4,6.2-12.8,9.2-19.1c0.2-0.5,0.8-1,0.3-2c-0.7,1.6-1.5,3.1-3.5,2.5c-1.9-0.6-2.4-2.2-2.2-3.9c0.2-1.6-0.6-1.8-1.8-1.9
					c-6.1-0.3-12.2-0.5-18.2-0.9c-7.9-0.6-15.7-1.9-23.4-3.8c-6.3-1.6-10.8-5.7-15.2-10.2c-1.1-1.1-1.1-2.5-0.5-3.8
					c0.4-1.1,1.2-1.8,2.5-1.8c1.6,0,1.8,1.3,2.6,2.3c2.9,3.9,6.6,6.7,11.3,8c8.1,2.2,16.4,3.2,24.7,3.8c6.3,0.4,12.5,0.6,18.8,0.9
					c2,0.1,4.3-2.6,3.9-4.7c-1.4-8.6-1.3-17.2-1.3-25.8c0-3.1,1.6-4.7,4-4.2c2,0.5,2.7,2.1,3,3.8c1,4.8,1.8,9.6,2.8,14.4
					c0.6,3.1,1.5,6.2,2.3,9.2c0.2,0.9,0.5,1.9,1.5,2.2c1.1,0.3,1.4-0.9,1.9-1.6c6.4-8.4,12-17.3,17.4-26.4c0.7-1.2,1.4-2.3,2.2-3.4
					c1-1.2,2.3-1.5,3.7-0.7s1.5,2.2,1,3.6c-0.2,0.7-0.7,1.3-1,1.9c-5.2,8.8-10.5,17.4-16.6,25.6c-0.3,0.4-0.6,0.9-1,1.7
					c3.4-0.3,4.9,1.5,5.4,4.3c0.2,1,0.4,1.6,1.6,1.5c1.8-0.2,3,0.8,3,2.7c0,1.3,0.7,1.6,1.7,1.7c7.2,0.8,13.6,3.6,20,6.7
					c3.8,1.9,8.1,2.1,12.3,1.8c5.3-0.4,10.5,0.3,15.6,1.9c4.1,1.2,8.3,2,12.6,2.2c5.4,0.3,10.3,1.8,15.3,3.7
					c4.6,1.7,9.2,2.7,14.1,2.6c3.2-0.1,6.3,0.8,9.3,2c5.2,2.1,10.5,2.7,16,1.1c4.1-1.2,8.1-0.8,12,0.8c5.3,2.3,10.7,3.3,16.5,2.6
					c3.3-0.4,6.7-0.1,10,0.5c5,0.9,9.9,0.9,14.9,0.3c7.3-1,14.5,0.6,21.6,2.2c5.7,1.3,11.5,2,17.3,1.9c6.4,0,12.3,2,18.4,3.6
					c2.4,0.6,3,0,3.2-2.3c0.1-1.7,0.6-3.4,1.1-5c0.4-1.6,1.3-2.8,3.2-2.8c1.9,0,2.9,1.2,3.3,3c0.1,0.4,0.3,0.8,0.6,1.5
					c1.6-2.5,2.1-4.7,1.2-7.5c-1.5-4.6-2.4-9.3-5.5-13.2c-1-1.3-1-2.8,0.4-3.9c1.3-1,2.8-0.7,3.9,0.4c1.6,1.6,2.9,3.5,3.7,5.7
					c2.1,5.6,3.1,11.7,7.5,16.6c0.4,0,0.5-0.9,0.8-1.5c4.3-8.4,10.3-15.6,15.8-23.2c1-1.4,2.3-1.8,3.8-0.9c1.4,0.8,1.5,2.3,0.9,3.6
					c-0.5,1.2-1.4,2.4-2.2,3.4c-3.5,4.5-7.1,9-10.2,13.8c-0.6,1-1.2,1.8,0.1,2.7c0.7,0.5,1.1,1.5,1.1,2.4c-0.1,2.8,1.4,3.4,3.9,3.2
					c11.4-1,22,3,33,5c13.1,2.3,25.9,6,38.9,7.9c17.4,2.5,35,2.7,52.4,0.1c18.4-2.8,36.9-3.7,55.4-4.5c2.2-0.1,2.8-0.9,3.7-2.9
					c2-4.2,0.7-7.2-1.9-10.5c-2.4-3.1-4.1-6.8-6.1-10.3c-1-1.7-1.5-3.6,0.6-4.7c2-1.1,3.2,0.4,4.1,2.1c3.7,7.1,7.8,13.9,13.6,19.6
					c1.3,1.3,1.9,2.8,2,4.6c0,0.8-0.2,1.8,0.9,2c1.1,0.2,1.7-0.4,2-1.3c1-2.6,2.2-4.9,5.6-4.4c0.2,0,0.4,0,0.5-0.1
					c2.3-3.5,6.4-6.2,6.6-10.6c0.9-16.8,1.7-33.6,2-50.4c0-2.3-0.6-2.9-2.9-3.4c-5.7-1.1-11.4-0.7-17.1-0.4c-1.5,0.1-2.3,0.7-3,1.9
					c-3.8,6.7-8.2,13.1-11.6,20c-1.9,3.8-4.8,6.8-8.5,9c-1.9,1.1-3.9,1.8-5.9,0.3s-2.2-3.6-1.6-5.9c1-4.2,3.4-7.6,5.8-11.1
					c2.5-3.7,5.3-7.1,8.2-10.6c0.6-0.7,1.5-1.3,1.7-2.7c-5.4-0.1-10.7-0.9-15.9-1.4c-1.9-0.2-3.7,0.7-5.3,1.9
					c-1.2,0.9-2.6,1.1-3.7-0.1c-1-1.2-0.9-2.8,0.3-3.7c3.5-2.3,5.6-5.9,8.8-8.5c0.9-0.7,1.9-1.4,3.1-1.6c0.6-0.1,1.1-0.4,0.9-1.1
					c-0.2-1-0.9-0.7-1.5-0.5c-1.6,0.6-3.3,1-4.7,2c-1.7,1.2-3.4,1-4.4-0.8s0-3.2,1.7-4c3.1-1.4,6.3-2.9,9.9-2.8c0.4,0,0.9,0.1,1-0.1
					c2.8-2.8,6.6-2.8,10.2-3.3c1-0.1,1.3-0.6,1-1.5c-0.6-1.6-0.9-3.2-2.3-4.5c-2.8-2.5-1.7-7.1,1.7-8.5c1.6-0.6,3-0.5,4.3,0.7
					c1.2,1.2,1.7,2.7,0.8,4.2c-1.7,3.1,0.5,5.6,1.1,8.3c0.2,0.9,1.1,0.7,1.9,0.7c3.2,0,6.4-0.1,9.5-0.1c1.1,0,2-0.3,2.4-1.3
					c1.3-3.4,4-6.1,4.1-10.1c0-2,1.7-3.4,3.9-3.6c1.4-0.1,2.5,0.6,3,1.9c0.6,2-0.1,3.6-1.9,4.6c-1,0.6-1.6,1.1-1.4,2.5
					c0.2,1.7-1,3.1-1.7,4.5c-0.6,1.2-0.2,1.6,1,1.8c2.3,0.3,4.7,0.1,7,0.8c1.5,0.5,0.9-1.1,0.9-1.6c0.2-5.3,0.4-10.5,0.5-15.8
					c1.1-47.8,1.7-95.6,1.1-143.4c-0.1-6.4,2.3-8.4,8.9-8c10.1,0.6,20.2,0.5,30.3,0.4c26.4-0.5,52.9-1.4,79.3-1.6
					c19.3-0.1,38.5,1.2,57.7,2.3c3.4,0.2,6.9,0.4,10.4,0.3c16.3-0.3,32.5,0.7,48.8,1c7.3,0.1,9.8,2.5,10.1,9.9
					c0.3,7.9,0.5,15.8,0.3,23.7c-0.3,21.3-0.8,42.5-1.3,63.8c-0.5,18.3-2.2,36.5-3.6,54.7c-1,14-1.9,27.9-2.9,41.9
					c-1.2,16-2.4,32.1-3.6,48.1c-0.2,3.2-0.4,6.4-0.7,9.5c-0.2,1.8,0.4,2.1,2.1,1.9c3.2-0.4,6.2-1.2,9-2.8c3-1.8,6.3-2.9,9.8-3.2
					c3.7-0.2,7.1-1.2,10.6-2.4c4-1.5,8.1-2,12.3-1.7c3.4,0.2,3.4,0.2,1.8-3c-2.1-4.1-4.6-7.8-7.1-11.6c-0.8-1.1-1.5-2.3-1.6-3.7
					c-0.1-1.5,0.2-2.8,1.8-3.3s2.6,0.3,3.3,1.7c1.4,3.2,3.7,5.8,5.4,8.8c0.5,1,0.9,1.4,2,0.4c1.4-1.2,2.9-1,4.1,0.3
					c0.9,1,1.3,1,2.3,0.1c2.3-2,3.9-1.9,6.3,0.1c0.3,0.3,0.8,1,1,0.6c1.3-2.4,4.6-2.5,5.7-5.2c2.1-5,4.8-9.8,7.6-14.4
					c0.4-0.7,0.8-1.4,1.4-2c1.1-1.3,2.5-2,4.1-0.8c1.6,1.1,1.3,2.6,0.4,4.1c-3.2,4.8-5.9,10-8.6,15.2c-1.5,3-1,6-1.2,9.1
					c-0.1,1.3,1,1.3,1.9,1.4c3.5,0.2,6.9-0.3,10.2-1.2c9.7-2.6,19.1-5.9,28.2-10.1c3.5-1.7,5.4-1.5,6.2,0.4c0.8,1.9-0.3,3.2-3.9,4.9
					c-10.8,4.9-21.8,8.9-33.4,11.4C931.2,592.1,929.9,592.2,928,592.5z M622.5,479.6c-0.6,21.7-1.1,43.4-1.8,65.1
					c-0.5,15.3-1.3,30.5-1.8,45.8c-0.2,6-0.2,12-0.1,18c0.1,4.9,0.9,5.5,5.7,6.1c6.9,0.8,13.8,1.2,20.7,1.1
					c25.5-0.4,51.1,0.7,76.6,1.2c23.4,0.4,46.9,1.7,70.3,2.3c15.3,0.4,30.7,0.4,46-0.8c4.5-0.4,6.1-1.6,6.4-6.3
					c0.5-7.1,0.9-14.1,1.4-21.2c1.3-18.3,2.8-36.6,4.1-54.9c1-14.1,1.9-28.3,3-42.4c1.4-18.6,3.1-37.1,3.5-55.8
					c0.4-17.3,0.8-34.5,1-51.8c0.1-10.3,0.5-20.5-0.3-30.8c-0.3-3.7-0.7-4.1-4.6-4.1c-11.7-0.3-23.4-0.5-35.2-0.7
					c-6.3-0.1-12.5-0.1-18.8-0.3c-22.2-0.9-44.4-2.5-66.7-2.4c-35.7,0.1-71.4,2.8-107.1,0.6c-1.9-0.1-2.3,0.7-2.2,2.4
					c0.2,7.4,0.3,14.9,0.6,22.3C624.2,408.6,623.1,444.1,622.5,479.6z M596,516.1c-4.3-0.3-9.7,0.6-14.3,0.9c-7.5,0.4-8.5,1.5-8.2,9
					c0.1,3.4,0.5,3.8,4,3.9c1.5,0,3.1-0.2,4.6-0.1c3.1,0.3,4.8-1.4,6.4-3.7c0.5-0.8,0.5-1.7,0.9-2.5c0.8-1.8,2-3.2,4.2-2.8
					c2,0.4,2.2,2.1,2.1,3.8c0,0.8,0.1,1.6,0,2.4c0,1.1,0.4,1.6,1.6,1.5c5.4-0.6,10.9-0.5,16.2,0.7c1,0.2,1.8,0,1.8-1.3
					c0.1-3.3,0.2-6.5,0.3-9.8c0-0.7-0.1-1.1-1.1-1.1C608.3,517.1,602.4,516.1,596,516.1z"/>
				<path d="M973.8,464.6c-7.8,0-16-0.9-24.1-2.3c-1.8-0.3-2.5-0.1-3.1,1.9c-3.6,10.7-4.9,21.8-5,33c0,3.4-0.4,6.7-2.2,9.7
					c-1.1,1.9-2.6,3.3-5,3c-2.5-0.2-3.2-2.2-4.1-4.2c-3.5-7.8-2-15.4,0.1-23.1c1.9-6.8,3.7-13.7,5.7-20.5c0.6-1.9,0.1-2.5-1.9-2.7
					c-4.9-0.4-9.6,0.7-14.3,1.4c-7.8,1.1-15.4,0.4-22.7-2.6c-6.3-2.6-12.6-3.3-18.9-0.1c-1.5,0.7-2.9,0.6-3.7-1.1
					c-0.7-1.6,0.1-2.8,1.5-3.6c6.1-3.2,12.5-3.6,19-1.7c4.4,1.3,8.7,3.1,13.4,3.7c3.5,0.5,6.9,0.1,10.3-0.3c1.4-0.1,1.2-0.6,0.8-1.8
					c-7.1-19.5-4.4-38,5.7-55.7c1.3-2.3,3.1-4.2,5.3-5.9c3.8-2.9,7.2-2.6,10.2,1.1c1.8,2.3,3.4,4.7,4.9,7.2
					c5.2,8.8,10.8,17.2,15.4,26.3c4.8,9.5,7.8,19.6,9.8,29.9c0.4,1.9,1,2.7,3,2.5c3.3-0.3,6.7-0.3,10.1-0.5c1.8-0.1,3.4,0.2,3.7,2.3
					c0.3,2.2-1.2,3-3.1,3.3C981.1,464.6,977.7,464.5,973.8,464.6z M921.3,432.5c0.1,2.3,0.2,4.5,0.5,6.8c0.5,4.5,2.5,8.7,3,13.3
					c0.2,1.7,0.8,1.7,2,1.5c3.2-0.5,6.3-0.6,9.5,0c1.5,0.3,1.9-0.5,2-1.7c0.3-2.8,0.6-5.6,0.4-8.4c-0.2-3.9-0.5-7.9,0.3-11.7
					c0.5-2.4-0.4-2.6-2.3-2.4c-3.7,0.3-7.4,0.2-11-1.3c-1.7-0.7-3.4-1.5-2.6-3.7c0.8-2.2,2.6-1.8,4.3-1.2c3.4,1.2,6.9,1.4,10.5,0.9
					c1.5-0.2,2.4-0.5,2.6-2.3c0.2-1.9,2.5-2.9,3.6-1.5c1.7,2.1,3.1,1.2,4.9,0.5c1.5-0.6,1.7-1.1,0.9-2.5c-1.8-2.8-3.5-5.8-5.2-8.6
					c-2.5-4.1-5.1-8.2-7.6-12.3c-1.2-2-2.5-2-4-0.3c-1.7,1.8-3.2,3.7-4.4,5.9C923.7,412.3,921.8,422.2,921.3,432.5z M963.7,458.5
					c2,0.3,2.2-0.7,1.8-2.3c-2.2-9.5-5.1-18.7-9.6-27.4c-2.2-4.2-2.2-4.1-6.5-2c-1,0.5-1.3,1-1.2,2.1c1.2,8.4-0.1,16.7-1.4,24.9
					c-0.3,1.7,0.1,2.3,1.7,2.5C953.6,457,958.6,457.8,963.7,458.5z"/>
				<path d="M281.7,536.1c-8.7,0.1-17.2-1-25.8-2.1c-6.8-0.9-13.4-0.3-19.9,2c-2.2,0.8-4.5,1.5-6.9,1.7c-1.8,0.1-2.2,0.9-2.1,2.6
					c0.5,5.3,1.5,10.6,2.4,15.9c0.4,2.5,0.5,5.1-0.3,7.6c-0.7,2.3-1.8,4.2-4.5,4.5c-2.6,0.2-4.3-1.3-5.4-3.4
					c-2.3-4.6-2.4-9.5-1.8-14.4c0.5-3.5,1.2-7,1.8-10.5c0.3-1.7,0-3.3-2.1-3.1c-2.6,0.2-4.9-0.7-7.4-0.9c-4.1-0.3-8.2,0.2-12.1,1.4
					c-1.6,0.5-3.4,0.9-4.2-1.2c-0.8-2.2,0.8-3.2,2.6-3.8c3.1-1.1,6.4-1.5,9.6-1.8c2-0.1,1.9-0.7,1.3-2.3c-3.2-7.5-5.6-15.2-5-23.5
					c0.1-1.1,0.2-2.2,0.4-3.2c0.8-4,2.8-5.7,6.8-5.5c7.7,0.3,15.2,2.3,22.7,4.1c5.1,1.2,10.1,3.1,14.8,5.5c3.3,1.6,6.5,1.7,10,1.5
					c3-0.2,6-0.3,9-0.2c5.9,0.3,9.2,3.8,8,9.5c-1.1,5.2,0.3,8.7,4.1,12c1.5,1.3,2.7,2.1,4.6,2c2.5-0.1,5.1,0,7.6-0.1
					c1.9,0,3.6,0.4,3.7,2.6c0.1,2.4-1.7,3-3.7,3C287.4,536.1,284.5,536.1,281.7,536.1z M270.7,529.9c-0.1-0.5-0.1-0.6-0.1-0.7
					c-9.2-9.7-20.1-16.6-32.6-21.1c-1.3-0.5-1.7-0.1-2.2,1.1c-1,2.5-2.2,5-3.3,7.5c-0.8,1.8-1.9,3.5-4.1,2.4c-2.2-1.1-1.5-3-0.7-4.7
					c0.9-2.1,1.9-4.1,2.9-6.2c0.8-1.6,0.4-2.4-1.4-2.8c-5.7-1.3-11.3-2.5-17.1-3.3c-4.2-0.6-4.4-0.4-4.6,3.9
					c-0.4,7.6,2,14.5,4.8,21.3c1,2.6,2.6,3.9,5.4,4.1c1.6,0.1,2.1,0,1.9-1.7c-0.2-2.2-0.3-4.5-0.1-6.8c0.3-2.6,2.5-3.7,4.2-2.2
					c1.6,1.4,3.2,3,2.9,5.5c-0.2,1.4,0,2.9,0,4.4s0.7,2,2.1,1.6c1.8-0.4,3.5-0.8,5.2-1.4c7-2.4,14-3.5,21.4-2.5
					C260.4,528.9,265.5,529.4,270.7,529.9z M267.9,518.7c0.3-2.2,1.5-4.1-0.1-5.3c-2.1-1.6-4.7-1.4-7.7-0.8
					C262.8,514.7,265.2,516.6,267.9,518.7z"/>
				<path d="M105.6,445c-0.6,6.4-1.2,12.8-1.9,19.2c-0.2,2,0.3,2.4,2.1,1.7c1.1-0.4,2.3-0.6,3.4-0.7c1.3,0,2.3,0.7,2.6,2
					c0.3,1.5-0.4,2.6-1.7,3c-5,1.2-9.6,4.2-15,3.5c-1.5-0.2-2,0.7-2.3,2c-1.1,4.3-1.1,8.6-0.8,13c0.1,2,0.3,4,0.2,6
					c-0.3,3.9-3.3,6.5-6.9,6.3c-3.4-0.2-6-3-6.1-6.8c-0.1-3.9,1.2-7.5,2.5-11.1c1.1-3,2.3-5.9,3.6-8.8c0.5-1.2,0.2-1.7-1-2.2
					c-7.5-3-14.5-3.1-20.7,2.8c-1.1,1.1-2.5,1.3-3.6,0.1c-1.2-1.2-0.9-2.5,0.1-3.7c2-2.4,4.7-4,7.6-5.1c1.4-0.5,2-1.2,2.4-2.8
					c3.2-11.6,12.4-24,27.1-26.6c1-0.2,2-0.2,3-0.2c4,0.1,5.4,1.6,5.4,5.5C105.5,443.2,105.5,444.1,105.6,445L105.6,445z
					 M99.9,448.7c0.2-7.1,0-7.2-5.1-5.4c-9.5,3.4-14.9,10.5-18.6,19.4c-0.5,1.3-0.2,1.7,1.2,1.9c2.2,0.4,4.4,0.9,6.6,1.5
					c3.1,0.8,2.9,0.9,3.2-2.3c0.1-1.4-0.4-2.2-1-3.2c-0.7-1.2-0.7-2.5,0.5-3.4c1.1-0.9,2.3-0.8,3.2,0.2c2,2,4.5,2.1,7.1,2.1
					c1.4,0,1.9-0.5,2.1-1.9C99.3,454.2,99.7,450.6,99.9,448.7z M97.1,465.9c0-1-0.8-0.8-1.4-0.8c-1.2,0-0.9,0.9-0.9,1.6
					s-0.1,1.4,0.9,1.3C96.9,467.8,96.7,466.6,97.1,465.9z"/>
				<path d="M667.6,512.2c-25.7,0-40.9-20.1-34.3-41.6c3.5-11.4,9.9-20.7,21.7-24.8c4.6-1.6,9.4-2,14.2-1c3.3,0.7,6.5,1.6,9.8,2.3
					c11.9,2.4,17.7,13,18.6,22.3c0.9,9.6-0.9,19.1-5.9,27.5C685.5,507,676.2,512,667.6,512.2z M682.2,499.3c1.9-1.4,3.2-3.2,4.3-5.1
					c4.5-7.8,6.1-16.3,5.3-25.2c-0.5-4.9-3.1-8.9-6.2-12.5c-1.1-1.3-2.8-2.9-4.3-2.3c-1.4,0.5-0.8,2.7-0.8,4.2
					c-0.2,3.4-0.3,6.7-1.6,9.9c-2.1,4.8-8.5,6-11.3,2.1c-2.2-3.1-2.2-6.7-1.3-10.2c0.3-1.3,1.4-1.9,2.8-1.7c1.4,0.2,2.1,1,2.3,2.3
					c0.1,1.2,0,2.4,0.1,3.5c0.1,0.9-0.2,2.4,1,2.6c1.3,0.2,1.8-1.1,2-2.2c0.8-3.7,1.1-7.5,1.2-11.4c0-1-0.4-1.5-1.3-1.7
					c-5.6-1.5-11.1-2.5-16.8-0.5c-2,0.7-2.1,1.3-1.3,3c3.6,7.3,7.4,14.4,11.6,21.3c0.8,1.3,1.6,1.8,3.1,1.6c2.4-0.2,4.7,0.2,6.9,1.1
					c1.4,0.5,2,1.6,1.7,3c-0.3,1.5-1.5,2-2.9,1.9c-1-0.1-1.9-0.3-2.9-0.5c2.6,1.5,4,3.3,2.5,6.3c-0.1,0.2,0.2,0.7,0.4,1
					C678.2,493,680.2,496.1,682.2,499.3z M653.3,477c-0.1-1.1-0.2-1.9-0.3-2.6c-0.1-1.4,0.2-2.6,1.8-2.9c1.6-0.4,2.6,0.5,3.1,1.9
					c0.2,0.7,0.5,1.4,0.6,2.1c0.3,1.3,1.3,1.3,2.1,1c1.5-0.5,0.2-1.3,0-1.9c-3.3-6.1-6.7-12.3-9.5-18.7c-0.8-1.9-1.5-1.4-2.6-0.4
					c-4.3,4-7.2,8.9-9.1,14.3c-5.7,15.9,2,31.4,17.6,35.6c6.3,1.7,12.6,1.4,18.6-1.6c1-0.5,2.2-0.8,1.2-2.4c-1.7-2.7-3.3-5.4-5-8.1
					c-0.4-0.6-0.9-1.2-1.7-0.5c-3.2,3.1-4.2,2.9-5.6-1.4c-0.5-1.4-1.1-2-2.7-2c-5.5-0.2-5.6-0.3-7.3,4.7c-0.5,1.3-1.3,2.3-2.8,2.1
					c-1.7-0.2-2.1-1.4-2.3-2.9c-0.1-0.8,0.6-1.5,0-2.3c-3.3,0.8-4.3,0.1-4-3.1c0.1-1.3-0.5-1.2-1.3-1.5c-2.1-0.8-2.6-2.6-1.1-4.3
					c0.9-1.1,2.1-1.9,3.2-2.8c-0.3-0.3-0.5-0.5-0.7-0.6c-1.6-0.9-3-2.1-1.9-4.1s2.9-1.3,4.5-0.5C649.7,475,651.3,475.9,653.3,477z"
					/>
				<path d="M742.9,513.8c-26.5,0-41.6-20.4-34.8-41.9c3.6-11.3,10-20.4,21.7-24.5c4.6-1.6,11.4-2.2,16.2-1.3c4.2,0.8,3.5,0.4,6.8,1
					c11.9,2.3,18.5,14.1,19.5,23.6c1,10.4-0.9,20.6-6.9,29.4C759.1,509.3,750.1,513.8,742.9,513.8z M756.9,501
					c2-1.5,3.3-3.3,4.4-5.3c4.4-7.8,6.1-16.2,5.1-24.9c-0.7-5.8-3.5-10.9-8.5-14.3c-1.6-1.1-2.5-1-2.5,1.4c0,4,0.4,8-0.3,12
					c-0.6,3.2-2.3,5.1-5.1,5.6c-2.9,0.5-5.9-1-7.3-3.7c-1.4-2.7-1.3-5.6-0.7-8.5c0.3-1.4,1.4-2.2,2.8-2c1.4,0.1,2.4,1,2.4,2.5
					c0.1,1.4-0.1,2.7,0,4.1c0,1,0.4,2.2,1.6,2.1c1.2-0.1,1.1-1.3,1.1-2.2c0.1-4.1,0.1-8.2,0.2-12.3c0-0.9-0.2-1.5-1.2-1.8
					c-5.7-1.6-11.3-2.6-17.1-0.5c-1.7,0.6-2.1,1-1.3,2.8c4.3,8.9,9.2,17.5,14.4,26c0.5,0.7,0.9,1.1,1.9,1.1c3.1,0,4.1,1.5,3,4.6
					c-0.3,0.8-0.5,1.5,0,2.3C752.3,493.4,754.6,497.1,756.9,501z M746.2,495.2c-0.4,2.5-0.6,4.3-1,6c-0.2,1.3-1,2.2-2.3,2.4
					c-1.3,0.3-2.3-0.4-2.9-1.5c-0.6-0.9-1.1-1.9-1.5-2.9c-1.7-3.7-1.7-3.7-5.4-2.1c-6.6,2.9-13.1,0.2-15.4-6.6
					c-1.8-5.4-1.2-10.6,1.8-15.4c1.4-2.2,3-4.9,6.1-4.1c2.9,0.7,3.4,3.4,3.8,6c0.8,5.1,3.5,7.5,7.8,7.4c1.9-0.1,2.6-0.5,1.4-2.5
					c-4.8-7.8-9.1-15.9-12.9-24.3c-0.7-1.6-1.2-1.6-2.4-0.5c-4.4,3.9-7.3,8.8-9.2,14.3c-5.7,15.7,1.6,31.2,17,35.7
					c6.5,1.9,12.9,1.6,19.1-1.5c1-0.5,2-0.9,1.2-2.4C749.9,500.6,748.5,498.1,746.2,495.2z M722.8,488.8c2.5,0,4.6-0.9,6.5-2.1
					c1.5-1,2.4-2.3,1.3-4.1c-1-1.6-2.6,0.1-4.1,1c-1.7,1-3.7,1.4-5.8,1c-1.2-0.2-1.7-0.9-2.1,0.2c-0.5,1.2,0,2.3,1,3.1
					C720.6,488.6,721.8,488.7,722.8,488.8z M727.2,477.3c-0.2-1.7-1.1-2.7-2.8-2.7s-2.7,0.9-2.8,2.6c0,1.8,1,2.9,2.8,2.8
					C726.2,480.1,727.1,479,727.2,477.3z"/>
				<path d="M818.2,514.4c-27,0-42.2-20.4-35.4-41.9c3.5-11.3,9.9-20.4,21.7-24.6c4.6-1.6,9.4-2,14.2-1c3.2,0.7,6.3,1.5,9.5,2.2
					c11.8,2.6,17.4,11.1,18.7,22.1c1.3,10.5-0.9,20.7-7,29.6C833.7,509.9,824.7,514.3,818.2,514.4z M830.3,480.3c0.1,0,0.1,0,0.2,0
					c0,0.4,0,0.7,0,1.1c0,2.2-0.8,4.8,0.2,6.4c1.1,1.7,4.2,1.1,6.2,2.1c1.8,0.9,2.2,0,2.6-1.4c1.1-4,1.7-8.2,2-12.3
					c0.6-10.3-5.3-18.8-15.2-21.4c-3-0.8-6-1.5-9-2.1c-3.6-0.7-7.2-0.1-10.7,0.9c-2.1,0.6-1.8,1.4-1.1,2.8c2.5,4.7,5,9.5,7.4,14.2
					c0.7,1.5,1.5,1.7,3,1c3.3-1.5,6.8-1.9,10.4-1.8c2.9,0.1,3.9,1.1,4,3.9C830.3,475.9,830.3,478.1,830.3,480.3z M803.6,464.8
					c-1.1-2.3-2.1-4.3-2.9-6.4c-0.8-2.2-1.7-1.8-3-0.5c-7.8,8-11.9,17.4-10.5,28.6c2.3,18.4,23.4,26.9,37.9,19.5
					c1.2-0.6,1.7-1.2,0.9-2.5c-1.5-2.4-3-4.8-4.4-7.2c-0.4-0.7-1-1-1.8-1c-2.2,0-4.2-0.9-6.2-1.8c-2.1-1-4.3-1.5-6.6-0.4
					c-0.8,0.4-2,0.7-2.6,0.1c-1.5-1.5-3.1-1-4.7-0.7c-3.4,0.5-4.9-0.9-4.9-4.4c0.1-4,0.6-8,1.2-11.9c0.2-1.3,0.2-2.4-0.4-3.6
					c-1.9-4.3,1.1-8.5,5.8-8.1C802.2,464.6,802.8,464.7,803.6,464.8z M825.4,482.2c-0.2-7.4-1.3-8.2-7.1-5.6c-0.1,0-0.2,0.1-0.3,0.1
					c-0.8,0.3-1.2,0.7-0.6,1.6c2,3.2,3.9,6.3,5.8,9.5c0.3,0.5,0.7,0.9,1.3,0.6c0.5-0.2,0.5-0.7,0.5-1.2
					C825.2,485.2,825.3,483.2,825.4,482.2z M817.3,489.3c-1.9-3.2-3.3-5.7-4.7-8.2c-0.3-0.5-0.6-1.3-1.4-0.8c-2.6,1.7-5,3.6-6.7,6.2
					c-0.2,0.4-0.2,1.1-0.1,1.6c0.2,0.6,0.7,0.3,1.2,0.1C809.3,486.7,813,487.3,817.3,489.3z M826.8,493.6c1.6,2.7,2.9,4.9,4.3,7.1
					c0.4,0.7,0.8,0.8,1.4,0.2c1.3-1.4,2.5-2.9,3.5-4.5c0.4-0.6,0.2-1.1-0.5-1.2C832.8,494.7,830.2,493.4,826.8,493.6z M806.1,469.7
					c-0.6,1.7-2,2.7-2.6,4c-0.7,1.3,1.1,2.8,0.9,4.6C810.4,474.3,809.5,475.8,806.1,469.7z"/>
				<path d="M648.5,386.6c-1,0.8-1.7,1.4-2.4,2c-1.2,0.9-2.5,1.1-3.7-0.1c-1.1-1.2-0.9-2.5,0.2-3.7c2.4-2.5,4.8-4.9,6.6-7.9
					c1-1.7,0.2-3.3,0.4-5c0.1-0.9-0.9-0.5-1.5-0.5c-1.2,0.1-2.3,0.4-3.5,0.3c-1.3,0-2.2-0.9-2.3-2.2c-0.1-1.2,0.6-2.1,1.7-2.5
					c1-0.3,2.1-0.5,3.2-0.7c1.7-0.3,3.4-0.3,3.6-2.7c0.1-1.3,1.3-1.9,2.7-1.7c1.3,0.2,2.1,1.1,2,2.2c-0.2,3.9,0.3,7.9-1.5,11.5
					c-1,1.9,0,1.8,1.3,1.7c2.9-0.3,5.8-0.8,8.7-1c5.6-0.3,7.9,1.6,7.3,6.7c0,0.3,0.1,0.6,0.1,1.3c1.8-0.9,3.1-2.1,4.2-3.4
					c1-1.1-0.7-4.5-2.3-4.8c-2.9-0.5-3.7-1.9-2.3-4.5c1.5-2.7,3.1-5.3,4.1-8.3c0.6-1.6,1.7-2.3,3.4-1.8c1.7,0.4,1.8,1.8,1.5,3
					c-0.5,2,0.4,2.1,1.9,1.9c1.6-0.2,3.2-0.4,4.9-0.6c1.5-0.2,2.8,0,3.4,1.6c0.5,1.4,0,2.5-1.3,3.2c-0.8,0.4-1.1,1-1.4,1.9
					c-0.5,1.5-1.1,2.9-1.8,4.2c-2.2,4.1-2.2,4.1,1.2,7.5c0.2,0.2,0.4,0.4,0.6,0.6c1.5,1.4,3.1,3.1,1.2,5c-2,1.9-3.6,0.1-5.1-1.3
					c-1.2-1.2-2.3-3.1-3.7-3.4s-2.4,1.9-3.8,2.7c-0.9,0.6-1.8,1.2-3,1.1c-0.7,0-1.7-1.2-2.1,0c-0.3,1-0.9,2.3,0,3.4
					c0.7,0.8,1.4,1.7,1.2,2.6c-0.8,2.8,1,2.4,2.6,2.4c3.1,0,6.2,0,9.3,0.1c1.9,0.1,3.6,0.6,3.5,2.9s-1.8,2.7-3.7,2.6
					c-9.4-0.4-18.7,0.3-28,1.2c-1.7,0.2-3.3-0.1-3.6-2c-0.3-2.1,1.2-2.9,3-3.1c3.3-0.4,6.7-0.7,10-1.1c0.6-0.1,1.5,0.2,1.4-0.8
					c-0.1-1.1-0.8-0.6-1.4-0.5c-0.6,0.1-1.6,0.3-1.8,0c-2.1-2.7-4.1-0.7-6.2-0.1c-1.3,0.4-2.7,0.4-4.1,0.4c-2.7,0-4.8-2-4.8-4.8
					C648.2,390.5,648.4,388.7,648.5,386.6z M650.5,384.9c2.3-0.1,4.4-0.3,6.5-0.3c3.5,0,4.9,1.3,5.4,4.7c0.1,0.7-0.5,1.9,0.8,1.9
					c1.1,0,1.8-0.8,1.9-1.9c0.2-2,0.4-4,0.6-5.9c0.2-1.5-0.5-1.9-1.9-1.9c-3.9-0.1-7.7,1.2-11.6,1.1
					C651.3,382.6,650.8,383.6,650.5,384.9z M680,375.5c1-1.2,1.7-2.2,1.8-3.5c-1-0.1-2.3-0.6-2.8,0.4
					C678.4,373.3,679.2,374.3,680,375.5z"/>
				<path d="M775.7,573.3c-2.8-0.1-5.1,0.2-5,3.8c0,0.5-0.3,1.1-0.4,1.6c-0.5,2.1-1.6,3.7-4,3c-2.3-0.7-2.1-2.6-1.5-4.5
					c0.1-0.3,0.2-0.5,0.2-0.8c0-0.8,1.1-1.9-0.4-2.2c-1.5-0.4-1.8,0.8-1.8,2c-0.1,1.1,0,2.2-0.2,3.3c-0.3,1.5-1,2.9-2.8,2.8
					c-1.9-0.1-2.7-1.4-2.5-3.2c0.4-4.6,0.9-9.2,1.3-13.8c0.2-1.9,0.4-3.8,0.4-5.7c0-2.6,1-4.4,3.6-5.1c1-0.3,2.1-0.7,3.1-1
					c2.6-0.7,3.6-2.3,3.2-4.9c-0.1-1-0.7-1.1-1.5-1.1c-1.6,0-3.3,0.1-4.9,0c-1.7-0.1-3.4-0.4-3.5-2.6s1.7-2.6,3.4-2.7
					c1.8-0.1,3.6-0.1,5.5-0.1c1.5,0,2.1-0.6,2.1-2.1c0-0.9,0-1.8,0.1-2.7c0.2-1.4,0.9-2.4,2.5-2.4s2.6,1.1,2.4,2.4
					c-0.5,4.3,1.5,4.6,4.9,3.9c1.6-0.3,3.1,0.5,3.2,2.5c0,1.9-1.3,2.6-3,2.8c-1.2,0.1-2.4,0.4-3.5,0.3c-1.7,0-2.2,0.6-2.5,2.3
					c-0.4,2.5,0,3.6,2.7,3.9c3.6,0.4,5.7,3,6.1,6.4c0.7,5.9,0.2,11.8-2,17.4c-0.6,1.5-1.4,3-2.8,3.9c-1.3,0.9-2.8,1-4-0.2
					c-1.3-1.2-1-2.6,0.1-3.9C774.9,575.7,775.7,574.8,775.7,573.3z M775.7,564.8c-1.5,0.2-3.5-0.4-3.2,2.2c0.3,2.4,2.5,1.1,3.7,1.5
					c1.5,0.5,1-1.4,1.2-2.3C777.7,564.6,776.7,564.6,775.7,564.8z M766.8,566.6c0.1-0.6-0.6-0.7-1.2-0.6c-1.1,0.1-1.9,0.4-1.9,1.8
					c0,1.1,0.9,0.9,1.6,0.9C766.5,568.8,766.7,567.9,766.8,566.6z M766,561.7c0.6-0.2,1.7,0,1.7-1.6c0-0.7-0.5-1.6-1.1-1.4
					c-0.9,0.3-2.3,0.1-2.3,1.5c0,0.3-0.1,1.4,0.2,1.7C764.8,562.3,765.5,561.8,766,561.7z"/>
				<path d="M812.8,548.7c10,2.8,11.6,5.5,9,15.4c-0.5,1.8-1.1,3.7-1.7,5.5c-0.5,1.4-1.6,2.5-3.1,2.1c-4.1-1.1-8.1-0.2-12.2-0.3
					c-2,0-4-0.2-6-0.3c-2.3-0.2-3.4-1.4-3.3-3.5c0.2-5.3,0.6-10.5,1-15.8c0.1-1.7,1.4-2.6,3.1-2.3c2.1,0.5,4.1-0.3,6.2-0.5
					c0.4,0,4.9-7.3,4.8-7.7c-0.2-0.6-0.6-0.6-1.1-0.6c-1.6,0-3.3,0-4.9,0.1c-1.2,0-1.1,1.1-1.3,1.8c-0.6,1.6-1.5,2.9-3.4,2.4
					c-2.1-0.6-2.1-2.3-1.7-4c0.8-3,1.7-5.9,3-8.7c0.8-1.7,1.8-3.2,3.9-2.4c2.2,0.9,1.6,2.7,0.9,4.4c-0.1,0.2-0.1,0.5-0.2,1
					c3.5,0.5,7.9-0.7,9.9,3.3C817.8,542.5,814.6,545.4,812.8,548.7z M812.3,565.8c2.7,0.6,3.7-0.5,4.1-2.6c0.2-1.3,0.6-2.6,0.9-3.9
					c0.6-2.6-0.6-3.9-3-4.5c-0.7-0.2-1.7-0.6-1.9,0.7c-0.1,1-0.5,2,1.1,2.2c1.8,0.2,3,1.1,2.6,3c-0.3,1.8-1.7,2.3-3.3,2.1
					c-1.8-0.2-2.9,0.5-2.8,2.3C810.2,566.9,811.8,565.4,812.3,565.8z M803.5,558.1c0.1,0,1-0.1,1.9-0.3c1.7-0.2,1.7-1.6,1.6-2.7
					c-0.1-1.3-1.3-0.6-2-0.6c-0.9,0-1.8,0.2-2.7,0.5c-1.3,0.3-0.9,1.4-0.9,2.3C801.4,558.1,801.9,558.4,803.5,558.1z M802.8,566.1
					c0.8-0.1,2,0.3,1.9-1.4c0-1-0.2-1.7-1.3-1.4c-0.9,0.2-2.4-0.4-2.5,1.4C800.9,566,801.6,566.2,802.8,566.1z"/>
				<path d="M659.7,543.3c2.8,2.4,5.4,4.5,7.9,6.7c0.5,0.4,0.8,0.1,1.1-0.2c2.3-2.2,4.8-4.3,6.8-6.9c-0.8-0.7-1.5-0.3-2.2-0.3
					c-1.3-0.1-2.3-0.6-2.5-2c-0.3-1.5,0.5-2.4,1.9-2.9c0.9-0.3,1.8-0.6,2.7-0.5c2.5,0.2,3.1-1.2,3.3-3.2c0.1-1.8,0.8-3.3,2.9-3.1
					c2,0.2,2.3,1.8,2.1,3.5c-0.2,1.6,0.6,1.8,1.9,1.7c1.8-0.2,3.7-0.1,3.9,2.3c0.2,2.3-1.7,2.9-3.5,3c-2.1,0.2-1.9,1-1,2.3
					c1.4,2.1,2.7,4.3,4,6.5c0.9,1.5,1.4,3.2-0.4,4.3c-1.7,1-3.1,0-4.1-1.5c-0.6-0.9-0.9-2-2.2-2.6c-0.3,2.1-0.6,4.2-0.8,6.2
					c-0.3,2-1,3.8-3.4,3.3s-2.3-2.4-2-4.4c0.3-1.7,0.4-3.4,0.7-5.9c-1.9,1.8-3.2,3-4.5,4.3c-1.6,1.5-3.2,2.2-4.9,0.2
					c-0.2-0.2-0.4-0.5-0.6-0.5c-1.6,0.1-3.3,0.2-4.6-1c-1.2-1-2.4-1.9-3.9-3.2c-0.3,2.4-0.6,4.4-0.9,6.4c-0.1,0.9-0.3,1.8-0.6,2.7
					c-0.5,1.6-1.6,2.5-3.3,2.1c-1.6-0.4-2.1-1.7-1.9-3.2c0.2-1.9,0.6-3.8,0.3-6.1c-1.4,1.3-2.8,2.5-4.1,3.8
					c-1.4,1.3-2.9,2.2-4.5,0.6c-1.6-1.7-0.5-3.2,0.8-4.5c2-2,4.4-3.7,6.3-6.2c-1.8-0.5-3.6-0.9-3.3-3.1s2.2-2.5,3.9-2.6
					c2-0.1,2.8-0.9,2.8-2.8c0-0.7,0-1.5,0.2-2.2c0.4-1.4,1.3-2.2,2.8-2.1c1.4,0.2,2.2,1.1,2.1,2.4c-0.3,2.9,0.7,3.4,3.3,2.7
					c1.5-0.4,3,0.1,3.4,1.9c0.4,1.9-0.8,2.9-2.4,3.3C662.3,542.8,661.2,543,659.7,543.3z"/>
				<path d="M662,576.4c-2.3-0.2-4.5,0.6-6.7,0.8c-1.8,0.2-3.6,0.4-5.4,0.4c-1.4,0-2.4-0.8-2.5-2.3c0-1.5,0.8-2.4,2.3-2.6
					c10.1-1.4,20.1-3.3,30.3-3.4c0.4,0,0.7,0,1.1,0c1.8,0.1,3,0.9,3,2.8c0,1.7-1.2,2.6-2.9,2.7c-3.3,0.2-6.7,0.4-10.5,0.6
					c1.8,1.9,3.7,2.9,5.4,4.1c2.6,1.9,5.2,3.7,7.7,5.6c1.4,1,2.1,2.4,1,4c-1.2,1.7-2.8,1.2-4.3,0.2c-3-2.2-6.1-4.3-9-6.6
					c-1.9-1.5-2.4-0.7-2.5,1.2c-0.3,3.3-0.7,6.7-1.1,10c-0.2,1.9-1,3.5-3.2,3.2c-2.1-0.3-2.4-2-2.2-3.7c0.3-3,0.8-6.1,1.2-9.9
					c-3.5,3.3-6.4,6.1-9.4,8.9c-0.5,0.5-1,1.1-1.6,1.5c-1.4,1-2.9,1.3-4.2-0.1c-1.3-1.4-0.8-2.9,0.5-4.1c3.8-3.4,7.6-6.7,11.1-10.5
					C660.9,578.3,661.8,577.7,662,576.4z"/>
				<path d="M714.4,575.9c-6.5-0.4-12.9,0.3-19.2,1.4c-1.2,0.2-2.3,0.2-3.5,0.2s-2-0.8-2.2-2s0.4-2.1,1.4-2.7
					c0.2-0.1,0.5-0.2,0.8-0.3c4.6-1.3,4.5-1.3,5-6.1c0.3-3.2,0.7-6.3,1.1-9.5c0.2-1.8,1-3.3,3.1-3c2,0.3,2.1,1.9,2,3.6
					c-0.4,3.5-0.7,7-1.1,10.6c-0.3,2,0.1,3,2.5,2.7c4.8-0.6,4.8-0.5,5.1-5.3c0.5-6.8,1-13.6,1.6-20.3c0.1-1.8,0.6-3.4,2.7-3.3
					c2.4,0.1,2.5,2,2.4,3.8c-0.1,2.5-0.1,5.1-0.3,7.6c-0.1,1.5,0.5,1.9,1.9,1.8c2.9-0.2,5.8-0.4,8.7-0.4c2,0,4.1,0.3,4.1,2.8
					c-0.1,2.5-2.1,2.5-4,2.5c-3,0-6,0.1-9,0.1c-1.5,0-2.1,0.7-2.3,2.3c-1,7.8-1,7.7,6.7,8.2c2.1,0.1,4.7-0.3,4.9,2.9
					c0.1,2.1-1.6,2.9-5.3,2.7c-1.2-0.1-2.4-0.2-3.5-0.2C716.7,575.9,715.6,575.9,714.4,575.9z"/>
				<path d="M773.7,381.2c1.5-0.1,2.6-0.1,3.8-0.2c1.7-0.1,2.9,0.6,3.1,2.3c0.2,1.8-1,2.7-2.6,3c-2.3,0.4-4.7,0.5-7,0.7
					c-2.8,0.2-5.6,0.5-8.4,0.7c-1.6,0.1-2.5,0.6-2.7,2.5c-0.9,6.7-3.5,12.7-7,18.4c-1,1.6-2.3,2.9-4.2,1.7c-1.9-1.1-1.4-2.9-0.5-4.5
					c3.6-6,6.6-12.1,6.8-19.3c0.1-2,1.5-2.7,3.1-3.3c2-0.8,4.1-0.6,6.2-0.8c1.6-0.2,2.8-0.5,3.4-2.3c0.4-1.2,1.5-2.2,2.7-3.9
					c-4.1,0.5-7.8-0.8-10.9,2.1c-1.1,1-2.3,1.1-3.5,0.2s-1.2-2.3-0.4-3.4c1.9-2.9,3.8-5.7,5.8-8.5c0.7-1,1.7-1.4,2.9-0.9
					c1.3,0.5,1.7,1.6,1.5,2.9c-0.1,0.8-0.4,1.5-0.8,2.7c2.6-0.1,4.9-0.4,7.3-0.4c4.3-0.1,5.8,2.1,4,6.1
					C775.5,378.2,774.6,379.5,773.7,381.2z"/>
				<path d="M719.6,391.5c1.2,0,2.4-0.1,3.5,0c1.6,0.1,2.8,0.9,2.8,2.7c0,1.7-1.2,2.6-2.9,2.6c-4.8,0.1-9.6-0.1-14.4,0.5
					c-2.2,0.3-4.5,0.6-6.7,1c-1.6,0.2-3,0.1-3.5-1.7c-0.5-1.9,0.7-2.9,2.4-3.3c2-0.5,4.1-0.7,6.2-1.1c1.7-0.3,3-3.1,2.4-5.7
					c-0.4-2-2-0.8-3.1-0.8c-1.6,0-2.9,0.6-3.7,2.2c-0.9,1.6-2.5,2.3-4.2,1.1c-1.6-1.1-1.1-2.7-0.2-4.1c1.4-2.1,2.7-4.3,3-6.9
					c0.2-1.4,1.1-2.3,2.6-2.2s2.2,1.1,2.3,2.5c0.1,0.8-0.5,2.3,1.3,1.9c1.2-0.2,2.9,0.2,3-1.9c0.1-1.2,0.3-2.3,0.5-3.5
					c0.3-1.7,1.1-3,3-2.8c1.8,0.2,2.2,1.7,2.1,3.3c0,0.5-0.1,0.9-0.1,1.4c-0.3,1.6,0.4,2.1,1.9,1.8c1-0.2,2-0.3,3-0.2
					c1.2,0.1,2,0.8,2.2,2.1c0.2,1.3-0.4,2.3-1.6,2.8c-0.4,0.2-0.9,0.2-1.3,0.3c-5,1.1-4.9,1.1-5.6,6.1c-0.2,1.7,0.2,2.4,1.9,2.2
					c1.1-0.1,2.2,0,3.3,0C719.6,391.6,719.6,391.6,719.6,391.5z"/>
				<path d="M751.8,545.2c0.7,0,1.1-0.1,1.6-0.1c1.5,0,2.7,0.6,2.8,2.3c0.1,1.6-0.8,2.4-2.3,2.8c-1.7,0.5-4.1-0.3-5.1,1.2
					c-0.8,1.4-0.5,3.5-0.6,5.3c-0.2,1.8-0.8,3.6,2,4.1c0.9,0.1,1.2,1.3,1.1,2.3c-0.1,1.1-0.7,2.1-1.7,2.2c-2,0.3-2.2,1.6-2.4,3.3
					c-0.4,3.1-0.7,6.3-1.9,9.3c-0.6,1.6-1.7,2.8-3.6,2.8c-1.8,0-3.1-1-3.8-2.6c-0.8-1.6-0.6-3.2,1.3-4.2c1.5-0.8,3-4.7,2.5-6.2
					c-0.3-0.8-0.8-0.6-1.3-0.5c-1.1,0.2-2.1,0.6-3.2,0.8c-1.6,0.3-3,0.1-3.5-1.7c-0.5-1.8,0.5-2.7,2.1-3.2c1-0.3,2.1-0.6,3.1-0.9
					c0.7-0.2,1.4-0.4,2.1-0.5c1.1-0.1,1.6-0.7,1.5-1.8c-0.1-2.7,1.2-5.4,0-8c-0.2-0.4-1.7-0.1-2.6-0.1c-1.5,0-2.8-0.4-3-2.1
					c-0.2-1.8,0.9-2.6,2.5-2.9c4.2-0.9,4.1-0.9,4.7-5.1c0.3-2,0-5,3.2-4.6c3.2,0.5,2.3,3.3,1.9,5.3
					C748.8,545,749.5,545.8,751.8,545.2z"/>
				<path d="M795,395.7c-0.2,3.7-0.4,7.1-0.6,10.6c-0.1,1.9-0.8,3.5-3,3.4c-2.1-0.1-2.6-1.7-2.5-3.5c0.7-10.1,1.3-20.3,2-30.4
					c0.2-3.2,1.4-3.8,4.5-3.1c0.9,0.2,1.8,0.2,2.7,0.4c4.4,0.6,6.3,3.7,4.5,7.8c-0.7,1.4-0.8,2.4,0.2,3.9c1.7,2.6,1.1,5.4-0.5,8
					C800.5,395.4,798.7,396.1,795,395.7z M795.5,385.9c-0.1,1.1-0.3,2.2-0.4,3.3c0,0.5-0.3,1.2,0.4,1.4c0.5,0.1,1.1-0.1,1.5-0.4
					C798.9,388.8,798.4,387.3,795.5,385.9z"/>
				<path d="M771.4,418.3c-7.8-0.2-10.1-2.9-9.4-10.2c0.4-3.6,0.9-7.2,1.3-10.8c0.3-2.7,2-4,4.4-4.6c2.7-0.7,5.5-1.7,8,0.5
					c1.7,1.5,1.6,3.5,1.3,5.6c-0.8,5.6-2.8,7.2-8.4,6.6c-0.3,0-0.6-0.2-0.7,0c-1,0.6-0.8,6.3,0.2,7c1.9,1.3,5.7,0.4,6.8-1.7
					c1.7-3.2,3.2-4.2,4.7-3c2.4,1.8,1.1,3.9,0.2,5.9C778,417.3,774.9,418.6,771.4,418.3z M771.7,398.1c0-1-0.8-0.7-1.3-0.6
					c-1.1,0.1-2.1,0.5-2.2,1.9c-0.1,1.1,0.5,1.1,1.3,1.1C771.1,400.4,771.4,399.4,771.7,398.1z"/>
				<path d="M811.6,382.6c4.8,0,8.9,0,12.9,0c1.7,0,3.2,0.4,3.4,2.4c0.1,1.6-0.8,2.6-2.4,2.7c-4.8,0.2-9.6,0.3-14.4,0.3
					c-1.3,0-2.5-0.7-2.6-2.3c0-1-0.5-1.3-1.3-1.8c-1.8-1.1-2-2.8-0.6-4.1c3.7-3.5,7.7-6.6,11-10.5c0.8-1,2.2-1.1,3.2-0.1
					c3,3,6.9,4.2,10.6,5.9c0.7,0.3,1.5,0.5,2.3,0.9c1.5,0.7,2.2,1.9,1.6,3.6c-0.6,1.5-2,1.8-3.4,1.4c-3-0.9-6-2.1-8.7-3.8
					c-2.5-1.7-4.4-1.7-6.4,0.8C815.4,379.5,813.6,380.8,811.6,382.6z"/>
				<path d="M835.2,397c0.1,1-0.1,2.1,0.2,3c1,2.5,0.2,3.9-2.3,4.5c-1.4,0.3-1.3,0.9-0.7,1.8c0.9,1.2,1.9,2.4,2.8,3.7
					c0.8,1.3,0.9,2.6-0.3,3.7c-1.3,1-2.5,0.6-3.7-0.4c-1.1-1-1.6-3-2.9-3c-0.9,0-1.8,1.8-2.8,2.7c-1.2,1.1-2.6,1.4-3.9,0.2
					c-1.2-1.1-0.9-2.5-0.1-3.7c0.3-0.4,0.5-0.7,0.9-1c1.9-1.6,2.4-3.2,0-4.9c-1-0.7-1.2-2-1.1-3.2c0.1-1.3,0.3-2.5,0.5-3.8
					c0.9-5.3,4.8-7.6,9.9-6.2C834.3,391,835.3,393,835.2,397z M827,398.3c-0.1,0.8-0.4,1.7,1,1.6c1.8-0.1,2-1.2,2-2.6
					c0-0.9,0.4-2-1.1-2C826.9,395.4,827.1,397,827,398.3z"/>
				<path d="M814,390.9c3.8,0,5.7,1.6,5.9,5.2c0.1,3.2,0,6.4-2.7,8.8c-0.6,0.5-0.6,0.8-0.1,1.3c0.4,0.4,0.8,0.8,1.1,1.2
					c1.1,1.2,1.7,2.5,0.5,3.9s-2.8,1.2-3.8-0.1c-2-2.5-3.2-1.3-4.7,0.5c-1.3,1.6-3,3.8-5.1,1.8c-2.3-2.1-0.2-4,1.4-5.4
					c1.7-1.5,1.6-2.9,0.5-4.7c-2.2-3.4-0.6-7,0-10.5c0.1-0.7,1-1.1,1.7-1.2C810.4,391.4,812.2,390.8,814,390.9z M814.5,398.3
					c0-1.1,0.2-2-1.3-2c-2.1-0.1-2,1.3-2.1,2.7c0,1-0.1,1.9,1.3,1.7C814.1,400.5,814.6,399.6,814.5,398.3z"/>
				<path d="M658,426.4c0-5.1,0.8-6,5.8-6.4c3.8-0.3,7.6-0.3,11.4-0.3c2.9,0,4,1.3,4.2,4.2c0.3,6.9-0.2,7.5-7,8.1
					c-2.5,0.3-5,0.6-7.6,0.7C659.4,433.1,657.9,431.7,658,426.4z M668.7,424.9C668.7,424.9,668.7,425,668.7,424.9
					c-1.4,0.1-2.7,0.2-4.1,0.3c-0.7,0-1.5,0-1.5,1.1c0,0.9,0.5,1.3,1.4,1.2c2.8-0.2,5.6-0.5,8.3-0.8c0.6-0.1,1-0.5,0.9-1.1
					c-0.1-0.5-0.5-0.7-1-0.7C671.4,424.9,670.1,424.9,668.7,424.9z"/>
				<path d="M711.2,401.2c1.2,0,1.7,0,2.1,0c7.3,0.1,9.9,4.3,7,11c-0.4,1-1,1.8-2,2c-4.5,1-9,1.6-13.6,1.7c-1.7,0.1-2.6-1.1-2.6-2.6
					c0-3.1,0.1-6.2,0.3-9.2c0.1-1.4,1.1-2.2,2.6-2.4C707.2,401.5,709.6,401.1,711.2,401.2z M711.9,406.2c-1,0.1-1.8,0.3-2.7,0.3
					c-2,0-2,1.4-2,2.8c0.1,1.9,1.5,1.2,2.4,1.2c1,0,2-0.1,2.9-0.5c1.2-0.6,3.6-0.2,3.2-2.4C715.3,405.5,713.1,406.6,711.9,406.2z"/>
				<path d="M668.1,410.5c-2.1,0-4.2,0-6.2,0c-1.5,0-2.7-0.6-2.8-2.3c-0.1-1.8,1-2.6,2.6-2.7c4.6-0.5,9.2-0.5,13.8-0.5
					c1.7,0,2.9,0.7,3,2.5c0.1,1.8-1.2,2.6-2.8,2.7c-2.5,0.1-5.1,0-7.6,0C668.1,410.3,668.1,410.4,668.1,410.5z"/>
				<path d="M670.3,416.9c-2.4,0.2-4.9,0.4-7.3,0.6c-1.7,0.1-3.5,0-3.8-2.1c-0.3-2.3,1.5-2.9,3.3-3.1c3.6-0.3,7.2-0.5,10.9-0.6
					c1.8,0,3.9,0.3,3.9,2.8s-2,2.6-4,2.6c-1,0-2,0-3,0C670.3,417,670.3,417,670.3,416.9z"/>
				<path d="M659.1,369.6c0.2-2.1,0.3-4.2,0.5-6.2c0.2-1.5,0.8-2.7,2.5-2.8s2.5,1,2.6,2.5c0.1,1.3,0.6,1.7,1.9,1.6
					c1.9-0.1,3.7,0.2,3.7,2.5s-1.9,2.5-3.7,2.8c-0.9,0.1-2.1-0.3-2.5,1.1c-0.5,1.6-1.5,2.6-3.2,2.1S659,371.2,659.1,369.6z"/>
				<path d="M671.5,560.1c2,0,4,0.1,4,2.6c0.1,2.3-1.7,2.7-3.6,2.8c-3.4,0.1-6.9,0.4-10.2,1c-1.7,0.3-3.7,0.5-4.1-1.9
					c-0.4-2.1,1.3-2.7,3-3.2C664.2,560.4,667.9,560.6,671.5,560.1z"/>
				<path d="M739.2,382.8c-0.2,2.3-0.3,4.7-0.7,7c-0.3,1.7-1.1,3.2-3.2,2.9c-2-0.3-2.3-1.9-2-3.5c0.5-2.8,0.5-5.6,0.6-8.4
					c0-1.8,0.6-3.4,2.7-3.4c2,0,2.4,1.6,2.5,3.2C739.2,381.3,739.1,382.1,739.2,382.8C739.1,382.8,739.2,382.8,739.2,382.8z"/>
				<path d="M830.9,580.9c0.1,2-0.5,2.9-1.6,3.4s-2.3,0.3-2.9-0.8c-1.7-2.9-3.3-5.8-4.8-8.8c-0.5-0.9-0.1-2,0.8-2.7
					c0.9-0.7,1.9-0.7,2.8-0.1C828.4,574.5,829.1,578.4,830.9,580.9z"/>
				<path d="M791.1,585.2c-2.4,0-3.8-2.1-2.4-3.9c1.8-2.5,3.9-4.7,6-7c0.7-0.8,1.8-0.7,2.8-0.1c0.8,0.6,1.3,1.5,1,2.4
					c-1.3,3.3-3.8,5.9-6.3,8.4C791.9,585.2,791.3,585.1,791.1,585.2z"/>
				<path d="M787.5,536.5c-0.1,1.3-0.3,2.4-1.6,2.8c-1.2,0.4-2.3,0.1-2.9-0.9c-1.2-2.3-2.4-4.7-3.4-7.1c-0.4-1.1,0-2.2,1.1-2.8
					s2.2-0.5,3,0.4C785.6,531.1,786.7,533.8,787.5,536.5z"/>
				<path d="M811.4,578.5c0-1.6,0.5-2.6,1.8-3c1.3-0.4,2.4,0.2,2.9,1.4c0.8,1.9,1.6,3.8,2.1,5.8c0.4,1.6-0.2,3.2-2,3.7
					c-1.8,0.6-3-0.5-3.5-2.1C812.2,582.3,811.8,580.2,811.4,578.5z"/>
				<path d="M807.5,582.3c0,1.1,0.1,2.2,0,3.3c-0.2,1.5-1.1,2.2-2.6,2.3c-1.4,0.1-2.3-0.7-2.5-2c-0.5-2.5-0.4-5.1,0.2-7.6
					c0.3-1.2,1.2-1.8,2.4-1.8c1.3,0.1,2.2,0.9,2.4,2.2C807.5,579.9,807.4,581.1,807.5,582.3C807.4,582.3,807.4,582.3,807.5,582.3z"
					/>
				<path d="M734.4,399.6c2.1,0.1,3.9,1.9,3.6,3.9c-0.2,2.1-1.4,3.3-3.6,3.2c-1.9-0.1-3.5-1.9-3.5-3.8
					C730.9,401,732.4,399.6,734.4,399.6z"/>
				<path d="M939,413.3c-0.1,2.8-2.2,5-4.8,4.9c-2.2,0-3.8-1.8-3.7-4.1c0.1-2.5,2.8-5.3,5-5.2S939.1,410.7,939,413.3z"/>
				<path d="M220.9,511.2c-0.2,1.5-1,2.5-2.6,2.5c-1.7,0-2.7-1-2.6-2.7c0.1-1.6,1.2-2.4,2.7-2.3C220,508.6,220.8,509.6,220.9,511.2z
					"/>
				<path d="M89.9,451c1.7,0.2,2.8,1,2.8,2.6c0,1.7-1,2.7-2.7,2.7c-1.6,0-2.5-1-2.5-2.6C87.5,452,88.5,451.3,89.9,451z"/>
				<path d="M810.5,502.5c-1.6-0.2-3-0.2-4.4-0.6c-2-0.4-3.9-0.7-5.8,0.1c-1.3,0.5-2.8,0.4-3.5-1.2s0.2-2.8,1.6-3.6
					c2.1-1.2,4.5-1.4,6.8-0.9c2.6,0.5,5.1,1.1,7.8,0.4c1.5-0.4,3,0.1,3.4,1.9c0.4,1.7-0.6,2.8-2.2,3.2
					C813,502.2,811.7,502.3,810.5,502.5z"/>
			</g>
			<path class="st3" d="M772.7,560.9l-0.2-1.7c-0.2-0.5,0.2-1.1,0.8-1.1h3.3c0.4,0,0.8,0.3,0.8,0.8v0.7c0,0.6-0.4,1.2-1.1,1.3
				l-2.1,0.4C773.6,561.3,772.9,561.4,772.7,560.9z"/>
			<path class="st3" d="M795.2,381.9c-0.3,0.1-0.6-0.1-0.6-0.4l-0.2-3.2c-0.2-0.5,0.4-1.2,1-1.2l1.8-0.1c0.1,0,0.9,0.1,1.4,0.3
				c0.2,0.1,0.3,0.3,0.3,0.5l-0.3,1.3c-0.2,0.4-1.3,1.6-1.7,1.6C797,380.9,796,381.6,795.2,381.9z"/>
			<polygon class="st3" points="653,391.7 652.8,389.1 656.8,388.8 656.8,391.4 			"/>
		</g>
	</g>
</g>
</svg>
