<?xml version="1.0" encoding="utf-8"?>
<!-- Generator: Adobe Illustrator 18.0.0, SVG Export Plug-In . SVG Version: 6.00 Build 0)  -->
<!DOCTYPE svg PUBLIC "-//W3C//DTD SVG 1.1//EN" "http://www.w3.org/Graphics/SVG/1.1/DTD/svg11.dtd">
<svg version="1.1" xmlns="http://www.w3.org/2000/svg" xmlns:xlink="http://www.w3.org/1999/xlink" x="0px" y="0px"
	 viewBox="0 0 196.7 184" enable-background="new 0 0 196.7 184" xml:space="preserve">
<g id="_xFFFD__x83__x8C__xFFFD__x99__xA0_影像_1_">
</g>
<g id="Color_xA0_影像_1_">
	<g>
		<path fill="#B7CBCE" d="M184,101.3c-0.5,8.4-2,16.5-4.8,24.5c-1.1,3.1-3.7,4.9-5.8,7.2c-5.5,6-11.3,11.8-18.1,16.4
			c-8.3,5.5-17.5,7.6-27,9.3c-9.7,1.8-18.9,0.9-28-2.8c-3.2-1.3-5.9-3.6-8.7-5.6c-1.1-0.8-2.1-1.2-3.5-0.5
			c-8.3,4.7-17.2,4.4-26.2,2.6c-10.2-2-19.6-5.8-28.3-11.5c-3.3-2.2-12.1-8.5-15.2-10.9c-0.5-0.4,3.3,1.6,2.8,1.4
			c-3.5-1.1-5-2.3-5.5-5.5c-1.5-9.2-3.8-18.8-1.9-28.5c-0.1-3.7,0.1-7.4,0.9-11.1c0.5-2,1.8-3.5,3.5-4.8c2,1.6,3.8-1.4,5.4,0.7
			c0.6,0.8,1,1.4,2.1,1.5c1.8,0.2,3.1,1.2,4.4,2.5c2.8,3,4.7,3,7.6,0.3c1.6-1.5,3-3,5.4-1.9c1,0.4,1.5-0.6,1.9-1.2
			c-0.9-5.6,6.6-8.7,11.4-11.8c4.1-2.7,4.1-7.7,0.7-11.3c-2.3-2.4-4.8-7.1-2.4-9.3c0.5-0.5,1.5-0.8,1.5-1.4
			c-0.1-3.1,1.3-2.9,2.2-5.7c0.6-1.6,1.7-1.8-0.8-2.6c-1.9-0.6-1.5-4.2-0.8-5.7c1.1-2.2,3.7-3.5,6.6-3.8c8.3-0.8,16.5-0.8,24.5,1.6
			c2.1,0.6,4.1,1.1,4.1,3.9c0,0.6,0.5,0.9,1,1.2c4.7,3,7.4,7.2,7.2,12.9c-0.1,2.4,1.1,1.4,2.1,0.9c7.5-4.1,15.1-8.3,23.4-10.1
			c10.9-2.3,21.8-0.2,31.9,4.6c3.9,1.8,7.7,4.2,11,7c4.1,3.4,5.7,8.6,7.3,13.5c1.2,3.7,2.5,7.4,4.2,10.9c2,4.1,2.5,8.5,2.9,12.9
			C183.5,94.6,184.3,97.9,184,101.3z"/>
		<path fill="#B7CBCE" d="M176.9,134.8c-0.2-1,0.4-1.4,1.5-2.2C177.9,133.8,177.9,134.4,176.9,134.8z"/>
		<path fill="#B7CBCE" d="M175.9,135.6c0.3,0.8,0.2,1.4-0.2,1.5c-0.9,0.2-0.4-0.4-0.3-0.7C175.4,136.2,175.6,136,175.9,135.6z"/>
		<path fill="#B7CBCE" d="M109,93.9c1.9,0.2,4-1.8,5.6,0.9c0.4-1.4,0.7-2.5,2.2-2.6c1.4-0.1,2.2,0.5,2.8,1.7
			c0.3,0.6,0.6,1.1,1.4,1.1c3.2,0,3.5,2.4,3.8,4.7c0.3,2.3-0.3,5,0.6,7c1.1,2.3,0.1,3.9-0.4,5.8c-0.5,2.4-2.1,1.9-3.9,2.1
			c-1.3,0.1-0.7,3.6-3.1,3.3c-3-0.4-4.7,1.6-6.5,3.2c-1.2,1-2.5,1.8-3.6,0.8c-2.1-1.7-3.5-0.6-5.5,0.6c2.3,1.1,4.3,2.1,6.3,3.1
			c1.5,0.7,2.8,1.7,2.1,3.6c-0.7,1.7-2.1,1.9-3.9,1.4c-6.9-1.8-14-2-20.9-3.4c-1.7-0.4-3.8-0.2-4.3-2.6c-0.4-2.2,1.2-4.6,3.6-5.3
			c1.2-0.4,2-0.8,2.7-2c1.4-2.4,4.1-1.7,6.6-2.3c-1.4-1.9-2.8-3.6-3.7-5.8c-3.4,3.5-6.2,3.4-9.2-0.1c-4.7-5.6-4-12.9,1.3-17.5
			c1.7-1.5,3.4-3,5-4.7c1.3-1.4,3.3-1,4.7,0.3c1.3,1.3,2.5,2.8,4.1,4.6c-0.4-3.4-0.8-6.2-1-9c-0.1-1.5-0.3-3.2,1.4-4.1
			c1.6-0.8,3.1-0.1,4.2,1.1c1.4,1.6,3.2,1.6,5,1.3c3-0.5,6-0.5,9-0.3c4.1,0.3,4.1,2,2.7,5.7c-1.8,4.6-5.8,4.7-9.1,6.3
			c-2.3,1.7-5.4,2.4-7.3,4.7C104.1,96.2,105.9,93.9,109,93.9z"/>
		<path fill="#B7CBCE" d="M171.6,85.2c0.1,2.1,0.1,4.2-1.2,6c-0.6,0.8-0.4,1.8-0.3,2.7c0.6,3.9,0,7.8-0.7,11.6
			c-0.1,0.6-0.3,1.2-0.6,1.8c-0.7,1.6-1.7,3.3-3.8,2.8c-2.1-0.5-2.3-2.4-2.1-4.2c0.4-5.9,0.9-11.7,1-17.6c0.1-7-2.6-13.5-3.9-20.2
			c-0.6-2.8-1-5.5-0.2-8.4c0.3-1,0.9-1.5,1.7-1c1.2,0.7,2.5,1.3,3.1,2.5C168.4,68.8,172.3,76.4,171.6,85.2z"/>
		<path fill="#B7CBCE" d="M156.9,127.8c0-3.5,1.2-4.8,4.5-4.8c1.2,0,1.5,0.7,1.6,1.7c0.2,2-0.4,3.9-0.8,5.9
			c-0.2,0.9-0.8,1.6-1.9,1.7c-1.1,0.1-1.9-0.3-2.5-1.2C157.1,129.9,156.8,128.8,156.9,127.8z"/>
		<path fill="#B7CBCE" d="M109,93.9c-0.8,0.1-1.8,0-2.2,0.9c-0.5,1.4-1.4,1.7-2.8,1.7c-1.2,0-1.7,1.2-1.7,2.4c0,0.5-0.1,1-0.7,1
			c-0.9,0-0.4-0.7-0.5-1.2c0-1.3,0.4-2.2,1.6-2.9c2-1.2,3.9-2.3,6.1-2.9C109,93.3,109,93.6,109,93.9z"/>
		<path fill="#B7CBCE" d="M102.1,114.3c-3.1-1.6-5.3-3.4-6.6-6.1c-1.1-2.2-0.3-5.4,1.5-7c0.7-0.7,1.7-0.5,1.6,0.2
			C98.1,106,100.6,109.8,102.1,114.3z"/>
		<path fill="#B7CBCE" d="M90.5,90.7c4.5,5.1,4.8,5.9,2.1,8.6C92.8,96.2,89.7,94.2,90.5,90.7z"/>
		<path fill="#B7CBCE" d="M101.3,86.9c1.3,0.5,2.9,1.3,3.1,2.7c0.1,1-1.7,2-2.6,1.8c-1.7-0.2-0.6-2-1-3.1
			C100.5,87.8,100.1,87,101.3,86.9z"/>
	</g>
</g>
<g id="white">
	<polygon fill="#FFFFFF" points="93.8,73.2 67.3,99.3 76.3,123.3 106.5,133.3 127,98.3 115.5,72.7 	"/>
	<polygon fill="#FFFFFF" points="153.3,60 158.7,91.3 158.7,111.3 166,108.7 170,86.7 166.7,72 160.7,60.7 	"/>
	<polyline fill="#FFFFFF" points="150.7,125.3 152.7,132.7 159.3,132.7 161.3,125.3 157.3,122.7 150.7,125.3 150.7,125.3 	"/>
</g>
<g id="Line_xA0_影像_1_">
	<g>
		<path fill="#222222" d="M14.6,74.1c0.9,1.6,1.7,3.1,2.9,4.3c3,3.2,6.2,3.7,9.7,1.1c1.5-1.1,2-0.6,2.4,0.7c0.1,0.3,0.2,0.5,0.3,0.8
			c1.2,2.4,2.6,5.1,5.6,4.9c3.1-0.3,5.7-2.2,7-5.4c0.3-0.8,0.8-1.8,0.7-2.6c-0.5-3.9,1.6-5.4,5-6.3c2.5-0.7,4.6-2.5,6.1-4.8
			c1.5-2.3,1.5-4.6-0.4-6.7c-1.4-1.5-2.7-3.2-4.3-4.6c-1.3-1.1-1.1-1.8,0.1-2.7c0.9-0.7,1.7-1.6,2.5-2.5c4.7-4.7,4.6-9.6,0.9-15
			c-1.3-1.8-1.2-2.5,0.8-3.5c16.7-7.9,34.5-5.8,47.6,10.7c0.7-0.3,0.7-0.9,0.9-1.5c3.1-10.3,8.9-19,15.5-27.3
			c2.8-3.6,6.4-6,11.4-4.7c0.6,0.2,1.2,0.3,1.8,0.6c4,1.6,4.5,4.8,1.1,7.5c-5.9,4.7-11.6,9.6-16.5,15.4c-2.6,3.1-5,6.3-7,9.7
			c-0.5,0.9-1.3,1.7-1.2,3.2c0.7-0.4,1.3-0.7,1.9-1c12.9-7.3,26.6-8.9,40.8-5.8c11.7,2.6,20.5,9.6,26.2,20.1
			c6.4,12,9.9,25,11.1,38.5c0.8,9-1.5,17.7-4.5,26.1c-2.9,8.2-6.8,16-11.4,23.5c-9.3,15.2-22.9,23.7-40.3,26.4
			c-8.2,1.3-16.3,0-24.4-1.2c-8-1.2-15.4-3.4-21.6-8.8c-0.9-0.8-1.5-0.1-2.1,0.4c-2.7,2-5.7,3.5-8.8,4.9c-7.6,3.4-15.3,3.3-22.7-0.2
			c-28.7-13.4-42.8-41-43.1-66.9c-0.1-9.2,2.4-18,5.4-26.6C14,74.7,14.3,74.5,14.6,74.1z M122.3,168.3c19.9-0.9,33.3-8.4,42.3-21.5
			c7.3-10.8,12.7-22.4,15.7-35.1c1.2-5.1,1.8-10.4,1.2-15.7c-1.2-10.4-3.9-20.3-8-29.9c-4.7-11.1-12.6-18.7-24.4-21.9
			c-5-1.3-10-1.6-15.1-1.3c-11.1,0.6-21.2,3.8-29.5,11.6c-1,0.9-2,1.3-3.2,0.8c-1.3-0.5-2.1-1.7-2-3c0.1-3-1.3-5.5-3.1-7.7
			c-9.6-11.4-22.9-14.4-36.4-9.1c-1.4,0.6-1.2,1.1-0.5,2.2c2.5,3.9,2.3,7.9,0.1,11.9c-0.7,1.3-1.5,2.5-2.5,3.6c-0.9,1-1,1.6,0.2,2.5
			c4.3,3.5,5.2,8.6,2.5,13.4c-2.2,3.9-5.6,6.4-9.6,8.1c-1.3,0.5-1.9,1.2-2.2,2.6c-0.9,4.3-3.1,7.9-6.9,10.3c-5,3.2-9.4,2.3-12.6-2.7
			c-0.9-1.4-1.8-1.7-3.3-1.2c-2.1,0.6-4.2,0.6-6.1-0.4c-1.5-0.9-1.9-0.4-2.3,1c-1.9,8.2-3,16.4-1.3,24.8
			c4.6,22.6,16.5,39.8,37.2,50.6c7.1,3.7,14.2,4,21.4,0.3c3.3-1.6,6.3-3.6,9.1-6c2.1-1.8,4-1.6,5.4,0.8c1,1.7,2.4,2.8,4.1,3.9
			c4.2,2.8,8.9,3.8,13.8,4.7C111.6,167,117.2,168.1,122.3,168.3z"/>
		<path fill="#222222" d="M78.5,131.4c-2.4,1.5-4.5,2.8-7,3.1c-6.3,0.7-10.1-2.5-12.9-7.6c-2.3-4.2-1.5-10,2.4-14.1
			c1.8-1.9,2.1-3.6,1.7-6c-1-5.9-0.9-11.8,0.1-17.6c1.3-7,5.1-12.6,10.7-16.9c7.8-6,16.6-9.1,26.7-8.4c6.3,0.5,12.7,0.6,18.6,3.4
			c15,7.3,23.2,26.8,13.3,43c-1.8,2.9-3.1,6.2-5.5,8.7c-0.8,0.9-0.3,1.6,0,2.5c1.4,3.2,1.8,6.6,1.6,10.1
			c-0.6,7.8-6.1,12.4-13.8,11.5c-2.1-0.2-4.1-0.6-6.2-1.1c-2.7-0.6-4.5-2.3-5.7-4.7c-0.8-1.5-1.2-1.3-2.2-0.2
			c-4.6,4.8-9.6,5.8-15.3,3.2C81.2,138.7,79.2,135.8,78.5,131.4z M108.6,116c3.6,0,7.6-3.5,9.1-8.2c1-3.1,0.4-5.9-1.5-7.2
			c-2-1.4-5.5-0.8-7.8,1.2c-2.4,2.1-3.7,4.9-4.5,7.9C102.9,113.4,104.8,115.9,108.6,116z M87.9,104.6c-0.1-3.3-0.5-5.8-1.8-8
			c-1.3-2.1-3.1-3.4-5.6-3c-2.7,0.4-4.2,2.2-4.6,4.7c-0.7,4.2,0.4,7.9,3.2,11.1c2.4,2.8,6.4,2.1,8-1.3
			C87.6,106.8,87.9,105.4,87.9,104.6z M101,126c0.1-1.1-0.1-2.3-1.4-2.2c-1.8,0.1-3.1,1-3.3,2.9c-0.1,1.2,0.5,2.2,1.8,2.2
			C100.1,128.9,100.7,127.6,101,126z M98.9,82.7c-0.3-0.8,0.3-2.6-1.2-2.4c-2,0.2-2.1,2.4-2.4,4c-0.1,1,0.1,2.2,1.4,2.1
			C98.9,86.2,98.6,84.4,98.9,82.7z M106.3,83.2c0-1,0-2.1-1.1-2c-2.2,0.3-2.1,2.4-2.5,4c-0.2,0.9,0.3,1.8,1.2,1.7
			C106.1,86.5,105.9,84.5,106.3,83.2z M84.9,120.7c-1.4,0.1-1.6,1.2-1.8,2.3c-0.2,1,0.3,1.8,1.4,1.8c1.1,0,1.5-0.8,1.6-1.8
			C86.2,122.1,86.2,121.1,84.9,120.7z M92.7,124.4c0-1-0.3-1.8-1.3-1.8c-1.2,0-1.7,0.9-1.9,2c-0.1,0.9,0.4,1.6,1.3,1.6
			C92.1,126.3,92.5,125.4,92.7,124.4z"/>
		<path fill="#222222" d="M155.3,96.1c0.7-12.1-0.7-23.3-4.9-34c-1.4-3.7,1.8-7.3,5.6-6.5c7,1.5,10.8,6.5,13.1,12.7
			c3.2,8.5,4,17.5,3,26.5c-0.6,5.1-1.6,10-4.1,14.6c-2.2,4.1-5.1,6-8,5.4c-2.9-0.6-4.6-3.6-4.7-8.3c-0.1-1.8,0-3.6,0-5.4
			C155.3,99.1,155.3,97.3,155.3,96.1z M155.8,61.4c2.3,6.5,3.7,12.6,4.6,18.7c1.1,8,0.3,16.1,0.5,24.2c0,1.3-0.2,2.7,0.7,4
			c0.4-0.4,0.7-0.6,0.8-0.9c0.3-0.5,0.7-1.1,0.9-1.6c4.9-12.5,4.4-25-0.5-37.4C161.7,65.5,159.6,63.1,155.8,61.4z"/>
		<path fill="#222222" d="M164.2,127.9c0,4.9-3.8,9-8.3,9.1c-4,0-7.5-3.4-7.5-7.4c0-5.2,3.9-9.6,8.7-9.5
			C161.4,120.1,164.2,123.3,164.2,127.9z M153.8,129.1c0,1.5,0.7,2.5,2.1,2.4c2.1-0.2,2.8-1.8,2.8-3.7c0-1.2-0.4-2.2-1.9-2.1
			C154.7,125.9,153.9,127.3,153.8,129.1z"/>
	</g>
	<path fill="#222222" d="M139,83.2"/>
</g>
</svg>
