<?xml version="1.0" encoding="utf-8"?>
<!-- Generator: Adobe Illustrator 18.0.0, SVG Export Plug-In . SVG Version: 6.00 Build 0)  -->
<!DOCTYPE svg PUBLIC "-//W3C//DTD SVG 1.1//EN" "http://www.w3.org/Graphics/SVG/1.1/DTD/svg11.dtd">
<svg version="1.1" xmlns="http://www.w3.org/2000/svg" xmlns:xlink="http://www.w3.org/1999/xlink" x="0px" y="0px"
	 viewBox="0 0 247 211" enable-background="new 0 0 247 211" xml:space="preserve">
<g id="_xFFFD__x83__x8C__xFFFD__x99__xA0_影像_1_">
</g>
<g id="Color_xA0_影像_1_">
	<g>
		<path fill="#B7CBCE" d="M208.8,146.7c-2.9-11.6-4.2-23-9.1-33.5c-3-6.5-10.2-9.2-16.7-12.9c-1.7-0.9,1.8-6,3.5-7.5
			c0.3-0.3,0.7-0.5,1-0.9c2-3.3,3.3-3.6,6.2-0.9c11.6,11,20.4,23.6,22.3,40c0.2,1.9,0.2,4.1,2.7,4.7c0.6,0.1,0.8,0.9,1,1.6
			c0.5,2.7,1.1,5.3,1.6,8c0.3,1.8,0,3.4-1.4,4.8c-1,1-1.5,2.1-1,3.7c2.8,10-2.8,18.9-13.1,20.8c-5.7,1.1-11.4,0.3-17.1-0.3
			c-9.6-0.9-19.1-3.4-28.8-3.5c-7-0.1-13.9,1-20.8,2.3c-4.3,0.8-8.7,0.9-13-0.3c-9.5-2.6-11.1-10.5-6-17.7c0.9-1.3,2.2-2.7,3.6-2.7
			c3.4-0.1,5.6-2.4,8.2-3.9c6.2-3.5,12.8-4.6,19.2-1.1c6,3.3,11.7,3.1,17.6,0c10.1-5.3,21-5,32-4.4
			C203.6,143,206.1,144.5,208.8,146.7z"/>
		<path fill="#B7CBCE" d="M95.2,176.7c0.2,1.9-0.7,3.1-2.1,4.1c-4,2.7-7.6,2.7-11.6-0.1c-1.5-1-2.8-1.4-4.5-0.8
			c-5.2,1.8-10.6,2.1-16,2.8c-1.6,0.2-3.1,0-4.5,1.3c-1.4,1.2-3.1,0.5-4.5-0.6c-1.7-1.4-3.2-3.3-5.9-2.1c-0.1,0-0.2,0-0.3,0
			c-2.4-2.5-6.1-1.1-8.8-2.9c-0.3-0.2-0.8-0.6-0.9-0.5c-1.8,2.1-4.1,0.9-6.1,0.9c-4,0-8,1.4-12-0.1c-1-0.4-1.8-0.8-2.4-1.6
			c-3.3-4.1-5-8.8-4.3-14.1c0.1-0.6,0.3-1.4,0.7-1.7c2.2-1.3,2.2-3.5,2.3-5.5c0.1-2,1.2-3,2.7-3.8c1.5-0.8,3.2-1.1,4.5-2.4
			c0.7-0.7,1.7-0.2,2.5,0.3c3.2,2,7.3,0.3,8.1-3.2c0.6-2.6,1.2-5.3,2.9-7.6c1.9-2.6,4.5-2.8,6.7-0.4c1.1,1.2,2.1,2.5,3.2,3.7
			c3.3,3.6,7.3,5.4,12.3,5.3c4.9-0.2,5.5,0.4,6.7,5.1c0.2,0.7,0,1.8,1.2,1.8c4.4-0.1,7.9,2.4,11.8,3.8c1.8,0.6,3.6,1.3,5.6,1.1
			c1.7-0.1,3,0.6,3.7,2.2c1.9,4.3,4.8,7.9,7.7,11.5C94.7,174.1,95.4,175.3,95.2,176.7z"/>
		<path fill="#B7CBCE" d="M112.8,103.1c0.1,2-1.4,3.2-3.2,2.6c-1-0.3-2.3-0.3-3.1-0.8c-2.4-1.3-5.1-1.3-7.5-2.5
			c-1.5-0.8-3.1-0.5-4.3,0.2c-1.4,0.8-3,1.1-4,2.9c-1,2-4.2,1.2-4.4-1.2c-0.4-4.7-1.8-9.5,2.1-13.9c1.2-1.4,3.3-3.4,2.7-6.4
			c-0.5-3.1,2.9-3,4.7-3.9c1.6-0.8,2.7,0.4,3.4,1.9c0.5,1.1,0.9,2.2,1.5,3.2c1.2,2.2,2,4.4,4.3,6.3c3.4,2.7,5.4,7,7.5,10.9
			C112.8,102.7,112.7,103,112.8,103.1z"/>
	</g>
</g>
<g id="white">
</g>
<g id="Line_xA0_影像_1_">
	<g>
		<path fill="#222222" d="M112,55.6c-5.3,8.1-10.3,15.8-14.9,24c5.5,0.9,6.4,4.9,6.6,9.2c0.1,1.5,0.2,2.3,2.1,2.7
			c3.7,0.7,6.1,3.4,7.2,6.8c1.3,4.2,1.2,8.5-0.8,12.6c-4.5,9.5-10.9,17.3-19.9,23c-5.4,3.5-11.4,5.1-17.8,5.3
			c-7.8,0.2-13.2-4-17.5-9.9c-6.1-8.3-8.5-17.9-10.1-27.9c-0.8-5.2,0.9-8.8,3.5-13C64.7,65.8,82.6,45.8,99.5,25
			c3.6-4.4,7.4-8.7,11-13.2c1.8-2.1,3.9-2.7,6.6-2.1c6.2,1.4,11.7,4.5,17.1,7.6c1.5,0.9,1.6,2.6,0.4,3.8c-3,2.8-2,5.6-0.7,8.8
			c6,14.4,13.3,28.3,19.9,42.4c1.5,3.2,3,6.4,4.3,9.7c0.6,1.4,1.3,2,2.8,1.8c12.2-1,23.6,2.1,34.6,7c8.3,3.7,14.7,9.4,19.2,17.5
			c5.5,10.1,8.5,20.8,8.7,32.3c0.1,4.2,0.4,8.4,0.5,12.5c0,1.2,0.4,2,1.4,2.7c10.5,6.3,8.7,18,2.7,25.5c-3.5,4.4-8.3,7-14.2,6.9
			c-5.4-0.1-10.7-0.2-16-1.6c-13.4-3.6-27-3.3-40.6-1.6c-8.6,1.1-17.1,2.5-25.7,3.1c-8.8,0.7-16-2.7-20.7-10.5
			c-4.3-7.2-2.7-16.2,4.1-21.1c1.5-1.1,1.9-2.3,2-4c0.9-15.4,3.8-30.3,12.4-43.5c1.2-1.8,2.4-3.7,3.9-5.2c1.7-1.7,1.8-3.2,0.7-5.3
			c-6.4-12.3-12.7-24.7-19-37.1C114,59.7,113.1,57.9,112,55.6z M128.9,159.6c-1.5-0.2-4.4,0.2-7.3,0.6c-2.8,0.3-5.5,1.2-7.1,3.9
			c-2.9,4.8-1.4,11.3,3.6,14.5c4.7,3.1,9.9,4.7,15.5,3.8c8.8-1.3,17.6-2.6,26.5-3.4c11.8-1.2,23.6-1.4,35.2,1.3
			c5.8,1.3,11.7,2.7,17.8,2.4c7.6-0.3,13.2-5.6,13.8-13.1c0.2-1.7-0.4-3.1-1.6-4.4c-3.8-4.1-9-5-14-5.9c-11.1-2.1-22.1-0.6-32.9,1.9
			c-5.9,1.3-11.8,2.4-18,1.5C150.4,161.2,140.4,159.9,128.9,159.6z M68.4,96.7c3.1,0.6,5.8,1.1,8.4,1.8c2.1,0.5,3.2,0,4.3-2
			c8.7-15.8,17.6-31.6,27.8-46.5c6.2-9.1,12.3-18.2,18.4-27.3c0.4-0.7,1.8-1.4,0.4-2.5c-1.2-0.8-2.3-1-3.2,0.4
			c-0.4,0.5-0.8,0.9-1.3,1.4c-14.6,16.8-27.5,35-40.1,53.3C78.2,82.3,73.4,89.3,68.4,96.7z M123.4,38.5c-2.4,3.6-4.5,6.9-6.8,10.1
			c-0.9,1.2-1,2.2-0.3,3.6c7,14.8,15.4,28.8,22.7,43.4c0.8,1.5,1.3,1.3,2.3,0.3c1.6-1.6,3.3-3.1,5.1-4.5c1.1-0.9,1.1-1.6,0.5-2.8
			C139.1,72.1,131.3,55.6,123.4,38.5z M217.3,147.3c-1.3-8.9-1.4-18.7-5.4-27.8c-2.9-6.5-5.7-13-10.9-18.1
			c-3.1-3.1-6.4-5.6-10.7-6.7c-1.3-0.4-3-0.5-3.7,0.7c-0.7,1.2,0.6,2.2,1.5,3.2c10.3,9.8,17,21.6,20.2,35.5
			c1.2,5.1,1.9,10.4,2.2,15.6c0.2,2.2,1.5,3,3.5,3c2.1-0.1,3.1-1.2,3.2-3.3C217.3,148.9,217.3,148.4,217.3,147.3z M172.9,106.7
			c-0.6,0-2.1-0.8-2.8,1.4c-1.4,4.8-2.9,9.5-4.5,14.3c-0.5,1.4,0,2,1.4,2.1c3.4,0.2,6.7,0.5,10,0.7c1.7,0.1,2.8-0.8,3.4-2.2
			c1.6-4.4,3.4-8.8,4.3-13.5c0.3-1.6-0.2-2.1-1.7-2.1C180,107.3,176.8,107,172.9,106.7z M150.8,124.1c0,0.1,0,0.1,0,0.2
			c1.7,0,3.4,0,5.2,0c1,0,1.7-0.3,2-1.3c1.5-4.6,3.1-9.3,4.6-13.9c0.4-1.3,0.2-2.3-1.5-2.4c-3.2-0.3-6.3-0.3-9.5,0.1
			c-0.8,0.1-1.3,0.5-1.6,1.2c-2.4,4.7-4.1,9.7-5.8,14.6c-0.4,1.2-0.1,1.7,1.2,1.6C147.2,124.1,149,124.1,150.8,124.1z M95.3,85.1
			c-1.1-0.4-1.5,0.3-1.9,1.1c-2.3,4-4.5,8.1-6.8,12c-0.8,1.4-0.5,1.7,1,2.1c5.7,1.1,11.4,2,17.2,2.7c1.2,0.2,3,1.2,3.5,0.1
			c0.7-1.4-0.2-3.1-1.2-4.5c-0.7-1-1.6-1.9-2.8-2c-3.9-0.5-6.4-2-5.5-6.5c0.2-0.8-0.4-1.7-0.5-2.6C98.1,85.5,97,84.9,95.3,85.1z"/>
		<path fill="#222222" d="M87.6,186.5c-2.4,0-4.8-0.2-6.6-1.9c-1-0.9-1.7-0.4-2.7,0c-12.7,5.7-25.1,4.2-36.7-2.6
			c-3.3-1.9-5.3-2.4-8.8-0.8c-7.8,3.5-15.6,2.5-22.5-3c-1.4-1.1-2.4-2.6-2-4.5c1.1-6,2-12,5.1-17.4c2.8-4.9,6.9-7.9,12.5-8.7
			c1.7-0.2,2.3-1,2.6-2.5c0.5-2.5,1.3-4.9,2.7-7.1c2.7-4.1,6.9-5,11.4-5.1c1.2,0,2.3,0.7,2.6,2.1c0.9,4.9,4.6,6.4,8.8,7.2
			c2.8,0.5,5.6,0,8.4-0.5c4.3-0.8,5.5,0.2,5.6,4.5c0.2,5,3.3,8.5,8.4,9.1c2.2,0.3,4.3,0.2,6.5-0.2c5.2-1.1,5.9-0.6,7.7,4.3
			c1.7,4.4,3.9,8.6,7,12.2c3.3,4,3.3,6.8,0.1,10.8C95.3,185.2,92,186.5,87.6,186.5z M87.9,180.9c1.3,0.1,2.6-0.2,3.8-0.8
			c2.6-1.4,3-3.2,1.1-5.6c-2.3-3-4.1-6.2-5.7-9.6c-2-4.2-2-4.2-6.8-3.8c-7.9,0.8-15.1-2.9-17-9.8c-1-3.5-2.5-4-5.7-3.7
			c-6.4,0.6-12-1.4-16-6.8c-1.9-2.7-4.3-2.7-6.1,0.2c-1.1,1.7-1.8,3.6-2,5.6c-0.4,4-2.6,5.9-6.5,6.4c-4.7,0.5-7.6,3.4-9.6,7.5
			c-1.7,3.7-2.2,7.6-3.3,11.5c-0.5,1.7,0.1,2.6,1.5,3.3c4.7,2.3,9.5,3,14.4,0.9c1.5-0.6,2.9-1.5,4.3-2.3c3.3-2,4.6-1.9,7.1,0.9
			c1.4,1.6,3,2.9,5,3.7c10.5,4.5,20.9,5.8,31.4-0.2c1.6-1,3.2-1,4.6,0.6C84,180.3,85.7,181,87.9,180.9z"/>
		<path fill="#222222" d="M32.8,164.2c-0.3,1.6-1.2,2.6-2.9,2.5c-1.6-0.1-2.5-1.1-2.4-2.7c0.1-1.7,1.1-2.6,2.8-2.5
			C31.9,161.5,32.7,162.6,32.8,164.2z"/>
		<path fill="#222222" d="M55.6,166.9c-1.5-0.2-2.5-0.9-2.5-2.6c0-1.7,1.1-2.6,2.8-2.6c1.6,0.1,2.5,1.1,2.4,2.7
			C58.2,166.1,57.2,166.8,55.6,166.9z"/>
		<path fill="#222222" d="M63.1,171.8c1.6,0.1,2.6,0.9,2.7,2.5c0.1,1.6-0.7,2.6-2.3,2.7c-1.7,0.1-2.7-0.8-2.8-2.6
			C60.6,172.8,61.7,172,63.1,171.8z"/>
		<path fill="#222222" d="M76.2,164.9c1.6,0.1,2.6,0.9,2.6,2.6c0,1.7-1,2.7-2.7,2.6c-1.6-0.1-2.4-1.1-2.4-2.6
			C73.7,165.8,74.7,165,76.2,164.9z"/>
		<path fill="#222222" d="M44.3,152.7c-0.2,1.6-0.9,2.5-2.4,2.5c-1.5,0-2.3-0.9-2.3-2.4c0-1.4,0.8-2.2,2.2-2.3
			C43.3,150.5,44,151.4,44.3,152.7z"/>
	</g>
</g>
</svg>
