<?xml version="1.0" encoding="utf-8"?>
<!-- Generator: Adobe Illustrator 21.1.0, SVG Export Plug-In . SVG Version: 6.00 Build 0)  -->
<svg version="1.1" id="圖層_1" xmlns="http://www.w3.org/2000/svg" xmlns:xlink="http://www.w3.org/1999/xlink" x="0px" y="0px"
	 viewBox="0 0 24 24" style="enable-background:new 0 0 24 24;" xml:space="preserve">
<style type="text/css">
	.st0{fill:none;}
	.st1{fill:#FFFFFF;}
</style>
<g>
	<polygon class="st0" points="0,0 24,0 24,24 0,24 	"/>
	<g>
		<g>
			<path class="st1" d="M6.9,19.7c-0.3,0-0.5-0.1-0.7-0.3c-0.2-0.2-0.3-0.5-0.3-0.8l0.2-2.9l0.1-2.9l0-1.3l-0.2-1.4
				c0-0.1,0-0.1,0-0.2l0-1.4L6.1,7l0-1.3c0-0.5,0.4-1,0.9-1l1.6-0.2c0,0,0.1,0,0.1,0l1.7,0.1c0.5,0,1,0.4,1,1l0,1.5l-0.2,2.9
				l0.2,1.4c0,0.1,0,0.2,0,0.3l-0.2,1.3l0,1.3l0.1,1.4c0,0,0,0.1,0,0.1l0,1.4l0,1.5c0,0.3-0.1,0.5-0.3,0.7c-0.2,0.2-0.5,0.3-0.7,0.3
				l-1.7-0.1L6.9,19.7C7,19.7,6.9,19.7,6.9,19.7z M7.9,9.8l0.2,1.4c0,0,0,0.1,0,0.1l0,1.4L8,17.6l0.6,0l0.8,0l0-0.5l0-1.4l-0.1-1.4
				l-0.1-1.5c0-0.1,0-0.1,0-0.2l0.2-1.3L9.3,10c0-0.1,0-0.1,0-0.2l0.2-2.9l0-0.5l-0.7,0L8.1,6.5l0,0.5c0,0.1,0,0.1,0,0.2L7.9,8.6
				L7.9,9.8z"/>
		</g>
		<g>
			<path class="st1" d="M15.6,19.6l-1.7-0.1c-0.5,0-1-0.5-1-1l0-1.4l0.1-2.9l-0.1-1.4l0-1.5l0-1.5l0-1.4c0,0,0-0.1,0-0.1L13,7l0-1.3
				c0-0.5,0.4-1,1-1l3.3-0.1c0,0,0,0,0,0c0.5,0,1,0.4,1,0.9l0.1,1.4c0,0,0,0.1,0,0.1l-0.1,1.4l0,1.4l-0.1,2.9l0,1.4l0.1,1.4
				c0,0,0,0.1,0,0.1l-0.1,1.4l0.1,1.4c0,0.3-0.1,0.5-0.3,0.7c-0.2,0.2-0.4,0.3-0.7,0.3L15.6,19.6z M15,17.6l0.7,0l0.6,0l0-0.4
				c0,0,0-0.1,0-0.1l0.1-1.4l-0.1-1.4l0-3l0.1-1.5l0-1.4L16.4,7l0-0.4l-1.3,0L15,7c0,0,0,0.1,0,0.1l-0.1,1.4l0,1.4l0,1.5l0,1.4
				l0.1,1.4c0,0,0,0.1,0,0.1L15,17.1L15,17.6z"/>
		</g>
	</g>
</g>
</svg>
