<?xml version="1.0" encoding="utf-8"?>
<!-- Generator: Adobe Illustrator 22.1.0, SVG Export Plug-In . SVG Version: 6.00 Build 0)  -->
<svg version="1.1" xmlns="http://www.w3.org/2000/svg" xmlns:xlink="http://www.w3.org/1999/xlink" x="0px" y="0px"
	 viewBox="0 0 1113.1 765.1" style="enable-background:new 0 0 1113.1 765.1;" xml:space="preserve">
<style type="text/css">
	.st0{fill:#369EBB;}
	.st1{fill:#404040;}
	.st2{fill:#FFFFFF;}
	.st3{clip-path:url(#SVGID_2_);}
	.st4{clip-path:url(#SVGID_4_);fill:#FFFFFF;}
</style>
<g id="background">
	<g id="摨_x95__xFFFD__x9C__x96__1_">
		<g id="_xFFFD__x9E__x83__xFFFD__x9C_曉_x92__x8C_瘝_xA0_影像_1_">
			<g>
				<g>
					<path class="st0" d="M877.5,466.3c0.3-6.1,1.4-10.9,4.7-14.9c0.7-0.8,1.3-1.8,1.9-2.7c2.9-4.3,2.9-7.1-1.4-10
						c-5.3-3.6-10.9-7-16.7-9.6c-2.5-1.1-6,0.1-9.1,0.1c-1.5,0-4,0.1-4.4-0.7c-0.7-1.4-0.9-3.9-0.1-5.1c4.5-6.8,5.3-14.5,6-22.3
						c0.4-4.3,1.5-8.6,2.5-12.8c1.2-5.3,4.7-8.9,9-11.9c3.6-2.6,6.4-1.6,9,1.8s5.4,6.8,10.7,6.3c3-0.3,6.2,0.1,9.1,0.7
						c2.2,0.5,4.7,1.4,6.3,2.9c6.7,6.6,14.9,10.2,23.8,12.7c6.7,1.9,8.7,5,7.5,11.8c-0.4,2.1-0.6,4.4-1.5,6.3
						c-1.8,3.8-0.3,6.7,2,9.4c1.2,1.4,2.5,2.7,3.8,3.9c3,2.8,3.3,6.3,2,9.7c-1.4,3.9-3.3,7.7-5.2,11.3c-0.6,1.2-2,2.2-3.2,2.8
						c-2,0.9-2.6,2.2-2.3,4.1c0.8,7.5,3,14.5,6.2,21.3c1.1,2.3,1.3,5.2,1.1,7.8c-0.2,2.2-2.4,3.1-4.5,3.3
						c-5.2,0.5-10.5,0.9-15.7,1.1c-2.7,0.1-5.1,0.7-7.1,2.8c-2.1,2.2-3.6,2.2-5.5-0.2c-2.3-2.8-4-6-6.3-8.8
						c-1.8-2.2-3.9-4.3-6.2-5.9c-4.1-3-8.5-5.6-12.7-8.4C878.5,471.5,877.3,468.7,877.5,466.3z"/>
					<path class="st0" d="M774.1,337c3.8,2,5.2,1.4,7.3-1.1c0.6-0.7,2.7-1.2,3.4-0.7c2.8,1.8,5.3,4,7.9,6.1c2,1.7,4.1,3.3,5.9,5.2
						c0.8,0.9,1.8,2.5,1.4,3.4c-0.3,0.9-2,1.8-3.2,2c-2.3,0.3-4.7,0.1-7-0.1c-3.2-0.2-6.3-0.4-9.5-0.7c-4.8-0.4-9.5-1-14.3-1.4
						c-2.9-0.2-5.9,0-8.9,0c-3.4,0-6.9,0.2-10.3-0.3c-3.4-0.4-5.3-2.9-5-6.4c0.3-4.5,1.1-9,1.8-13.5c1.1-6.8-0.5-12.7-5.7-17.6
						c-2.8-2.6-4.9-5.9-4.8-10c0.1-2.4,1.8-3.7,4.3-3.8c2.3-0.1,4.6-0.6,6.7-1.3c3.6-1.2,7-3,10.6-4c1.7-0.5,3.9-0.2,5.6,0.3
						c4.7,1.4,9.3,3,13.8,4.9c2,0.8,3.4,0.9,5.4,0.1c5.2-2.1,7.9-6.8,11.3-10.7c4.4-5,8.9-10,15.5-12.1c1.8-0.6,3.7-1,5.5-1.3
						c2.8-0.5,5.2-0.3,6.2,3.1c0.4,1.3,2.1,2.2,3,3.4c4.2,5.9,9.4,9.6,16.9,10.9c5.2,0.8,8.4,5.8,11.6,9.9
						c4.8,6.2,4.2,13.9-1.2,19.7c-2.2,2.3-3.2,5-3.2,8.1c0,4.4-1.1,5.4-5.5,5.4c-1.8,0-3.6,0-5.4-0.3c-5.6-0.9-10.4,1.3-15,3.8
						c-1.6,0.9-3,2-4.5,3.1c-3.6,2.8-7.4,2.9-11.2,0.5c-2.6-1.6-5-3.6-7.7-5.1c-2.8-1.6-5.8-3-8.9-4c-1.3-0.4-3.1,0-4.4,0.5
						C779.7,334.2,776.9,335.7,774.1,337z"/>
					<path class="st0" d="M187.4,562.3c-1.2,4.8,0.7,9.4,3.8,13.8c4.4,6.1,4,13.1,3.2,20.1c-0.1,1.1-0.8,2.2-1.4,3.2
						c-2.1,3.3-4.5,6.4-6.4,9.7c-3.5,6.1-8.9,10.2-14.2,14.5c-0.5,0.4-1.2,0.7-1.8,0.6c-7.4-0.4-14.7,0.2-21.9-3
						c-11.2-5-22.7-4.5-34.1,0.4c-2.5,1.1-5.3,1.9-8,2.2c-6.3,0.8-7.4-4.1-7.2-8.3c0.2-5.4,2.5-9.6,5.9-13.7
						c7-8.3,10.8-18.2,13.1-28.7c1-4.5,2.2-9,3.8-13.3c1.9-5.3,6.3-7.5,11.9-7.6c2.9-0.1,5.2,0.7,7.7,1.9c1.7,0.8,3.8,1.2,5.8,1.2
						c7.5,0.1,14.9,0,22.4,0c4.3,0,8.7,0,13,0C186.1,555.3,187.4,557.1,187.4,562.3z"/>
					<path class="st0" d="M751.1,520.8c0.5-4.2,1.7-9.5,5.5-13.7c1.1-1.2,2.6-2.3,4-3.1c5.1-2.7,10.4-5.1,15.4-8
						c5.2-3,9.1-7.4,12.1-12.7c3.6-6.3,12.4-10.7,19.5-9.5c1.2,0.2,2.3,1.2,3.2,2.2c0.2,0.3-1,1.6-1.3,2.5c-0.3,0.7-0.6,1.5-0.4,2.2
						c1.8,7.8,2.3,15.5,0.9,23.5c-0.8,4.7,1.8,7.8,6.5,8.8c1.2,0.2,2.3,0.4,3.5,0.5c7.9,0.5,14.5,3.3,19.7,9.6
						c1.2,1.5,3.3,2.2,4.9,3.4c5.2,3.6,6.6,9.2,7.4,14.9c0.5,3.5-2.3,5-5.8,4.3c-5.8-1.2-11.5-2.8-17.4-3.2
						c-4.5-0.4-9.1,0.7-13.7,1.2c-0.8,0.1-1.6,0.5-2.4,0.6c-4.6,0.8-6.4-0.5-7.2-5.1c-0.1-0.7-0.3-1.4-0.4-2.1
						c-1-8-6.7-13.1-14.8-12c-8.8,1.1-17.5,3-26.2,4.6c-0.9,0.2-1.7,0.5-2.6,0.7C754.1,531.9,751.1,529.6,751.1,520.8z"/>
					<path class="st0" d="M321.3,585.1c-0.3,0-1.5,0.1-2.5-0.2c-5.3-1.8-10.2-0.5-15,1.8c-3.2,1.5-6.6,2-10.2,2
						c-4,0-8.1,0.5-11.6,3.1c-2.3,1.7-4.5,1.2-5.5-1.4c-1.2-3.1-3.5-4.4-6.4-5.2c-4.1-1.1-5.8-3.3-5.5-6.9c0-0.2,0-0.4,0.1-0.5
						c2.7-3.1,0.8-6.1,0.2-9.3c-0.9-4.3,0.1-8.4,2.4-12.5c2-3.6,3-7.9,3.9-12c0.9-4,1-8.1,1.7-12.1c0.3-1.4,1.1-2.9,2-4
						c2.5-3.1,2.9-2.9,6.7-1.6c1.6,0.6,3.5,0.6,5.3,0.7c10.7,0.3,15.7,3.7,18.8,13.9c1.4,4.6,3.6,8.3,7.5,11.3
						c2.4,1.9,4.6,4.6,5.8,7.4c1.8,4.4,5,7.2,8.2,10.3c1.9,1.9,3.7,3.7,3.8,6.6C330.8,582.4,328.2,585.1,321.3,585.1z"/>
					<path class="st0" d="M248.6,223.8c0.9,7.8-3,13.5-14,12.3c-7-0.7-14.1-1.5-21-3c-4-0.9-7.8-3.3-11.6-5.3
						c-0.6-0.3-0.8-1.8-0.7-2.7c0.6-4.9,1.6-9.8,1.9-14.8c0.4-6.5-2.6-10.6-8.7-13c-2.5-1-5.2-1.8-7.7-2.8c-1.3-0.5-2.6-1.3-3.8-2.1
						c-2.5-1.7-3.2-4.1-2.6-6.9c0.6-2.5,2.6-3.7,4.9-4.3c4.6-1.3,9.3-0.6,13.7,0.9c2.9,1,5.3,0.6,7.6-1.3c1.8-1.5,3.6-3.1,5.7-4.2
						c4.2-2.3,8.8-1.9,13.3-1.1c1.6,0.3,3.5,1.4,4.5,2.8c3.8,5.5,5.9,11.5,5.7,18.3c-0.2,6.9,1.3,13.2,7.7,17.5
						C246.5,216.4,249.6,219.1,248.6,223.8z"/>
					<path class="st0" d="M440.2,425.6c1.9-0.3,3.7-0.7,5.6-1c9.1-1.6,16.4,0.9,19.5,7.1c2.3,4.4,4.1,9.1,6.1,13.7
						c0.3,0.7,0.4,1.4,0.7,2.1c2,4.2,2.7,8.4,1.6,13.2c-0.6,2.9,0,6.1,0.5,9.1c0.3,2.1-0.4,3.5-2.1,3.7c-3.6,0.3-7.2,0.5-10.7-0.1
						c-7.8-1.3-15.5-0.8-23.3,0.1c-1.2,0.1-2.4,0.3-3.5,0.2c-7.5-0.5-10.4-6.3-6.9-13c1.8-3.3,3-6.9,4.2-10.5
						c0.2-0.7-0.5-1.8-0.9-2.7c-1.4-2.6-3.3-5-4.2-7.8c-1.5-4.6-0.2-7.1,3.8-9.7c1.5-1,2.8-2.3,4.4-3.2c1.5-0.8,3.2-1.3,4.8-1.9
						C440,425.1,440.1,425.4,440.2,425.6z"/>
					<path class="st0" d="M524.5,444.9c0-3.5,1.5-6.4,3.8-8.7c2.5-2.6,5.4-4.8,7.9-7.5c1.4-1.5,2.6-3.3,3.2-5.2
						c2-5.7,3.1-11.8,7.8-16.2c2.6-2.4,3-2.4,5.1,0.4c1.3,1.7,3.1,3.3,5,4.4c2,1.2,4.1,1.1,6.1-0.9c3.2-3.1,7.2-2.3,11.1-1.8
						c0.6,0.1,1.2,0.4,1.8,0.6c4.2,1,3.9,0.9,2.6,5.2c-0.8,2.6-0.8,5.5-0.8,8.3c0,2.2-0.5,4-2.1,5.6c-5.2,5.1-8.4,11.2-9.9,18.4
						c-1.1,5.4-4.3,9.3-9.3,11.7c-2.4,1.1-4.9,2-7.3,3c-3,1.3-5.6,0.6-7.5-1.9c-3-3.9-7.2-5.7-11.5-7.4
						C526.2,451.1,524.5,448.9,524.5,444.9z"/>
					<path class="st0" d="M970.5,364.7c-0.8-2.9,0.6-5.4,2.2-7.7c3.6-5.3,5.3-11,5.3-17.4c0-5.8,2.8-9.4,8.4-11.3
						c0.9-0.3,2-0.5,2.9-0.3c2.4,0.6,4.8,1.3,7.1,2.3c1.2,0.6,2.3,1.7,3.2,2.8c1.7,2.2,3.3,4.6,4.9,6.9c1.6,2.3,3.4,4,6.4,4.7
						c2.7,0.6,3.6,2.9,3.9,5.6c0.5,4.5,1.3,9,2.2,13.4c0.4,2,1.4,3.5,4,3.8c2.4,0.3,3.9,3.1,3.4,5.4s-2.5,3.5-5.3,2.9
						c-1.9-0.4-3.7-1-5.4-1.7c-5.1-2.1-10.1-4.6-15.9-3.5c-0.8,0.1-1.8-0.4-2.7-0.4c-3.5,0-7,0.1-10.5,0.4c-1.8,0.1-3.5,0.9-5.3,1.3
						C972.7,373.3,970.6,371.6,970.5,364.7z"/>
					<path class="st0" d="M678.9,417.6c0,2.5-0.3,5,0,7.5c0.9,7.1,4,13.1,9.4,17.9c4.2,3.7,4.8,8.4,3.3,13.5
						c-2.1,7.3-10.2,10.1-16,5c-4-3.5-8-4-12.8-3c-8.3,1.8-13.4-3.4-13.2-11.9c0.1-6.1,1.6-11.6,3.3-17.2c0.3-1.1-0.3-2.6-0.7-3.9
						c-1.2-3.5-0.6-6.6,1.7-8.5c0.6-0.5,1.4-1,2.1-1.1c4.6-0.2,9.1-0.2,13.7-0.4c0.9,0,1.7-0.7,2.6-1c1.6-0.5,3.6-1.7,4.9-1.2
						c1.2,0.4,1.7,2.7,2.4,4.1C679.4,417.4,679.2,417.5,678.9,417.6z"/>
					<path class="st0" d="M551.7,149.7c7.8-1,14.4,3.1,21.4,5.8c3.1,1.2,3.7,2.9,3.5,6.2c-0.2,2.8-0.5,5.7-0.1,8.4
						c0.2,1.6,1.2,3.4,2.4,4.5c2.6,2.5,3.8,5.5,2.6,8.8c-0.3,0.9-1.6,1.7-2.5,2c-10.7,3-21.5,5.8-32.3,8.7c-0.7,0.2-2.2,0-2.4-0.4
						c-0.3-0.9-0.5-2.5,0.1-3c3.3-3.2,3.1-7.5,4.2-11.5c1.2-4.4-0.2-8-2.8-11.3c-1.3-1.7-3.1-3.1-4.7-4.5c-1.6-1.4-2-2.6-0.3-4.3
						c0.6-0.6,0.8-1.5,1.1-2.4C542.7,152.9,547.6,149.4,551.7,149.7z"/>
				</g>
				<g>
					<path class="st1" d="M336.7,589.7c2.2,1.4,4.6,1.4,6.9,1.8c8.8,1.7,14.8,8.1,15.7,17.1c0.4,4.4-0.9,8.5-3.8,11.9
						c-1.4,1.6-0.9,2,0.4,2.9c11.7,7.6,22.6,16.2,33.3,25c7.1,5.9,13.7,12.5,18.6,20.5c9,14.6,7.8,28.1-3.6,41
						c-5.2,5.8-11.1,10.8-17.3,15.3c-6.1,4.4-12.6,8.3-19,12.2c-1.7,1.1-3.7,1.8-5-0.3c-1.4-2.2,0.2-3.5,1.9-4.6
						c7.1-4.4,14.3-8.7,21-13.7c6.4-4.8,12.4-10.1,17.2-16.6c5.9-8,6.6-16.5,2.5-25.4c-3.5-7.7-8.9-13.9-15.1-19.5
						c-12.2-11-25.2-21.1-38.8-30.4c-1.1-0.7-2-1.1-3.2-0.2c-1.7,1.3-3.8,1.8-5.6,2.8c-8.8,4.8-17.8,4.5-26.6,0.7
						c-8.7-3.8-17.4-3.4-26.1-1.2c-6,1.5-11.8,3.6-17.7,5.5c-6,1.9-12.1,3.2-18.5,2.3c-6.2-0.9-11.3-3.5-13.7-9.7
						c-0.5-1.3-1.2-1.5-2.3-0.8c-5.1,3.6-11.3,4.9-16.9,7.5c-2.2,1.1-4.7,1.5-7.2,1.4c-6-0.1-12,0.1-18-0.7c-1.6-0.2-3.1,0.3-4.5,1
						c-3.1,1.6-6.3,3.2-9.3,5.1c-4.2,2.5-8.6,3.7-13.5,3.5c-7.7-0.3-15.5-1.1-21.8-5.8c-10.3-7.5-20.1-5.3-30.1,0
						c-2.6,1.4-4.9,3.1-7.3,4.8c-3.1,2.2-6.4,4.2-10.3,4.6c-8.8,0.9-16.2-5.4-16.7-14.5c-0.5-8.6,1.2-17,4.1-25.1
						c1.1-3,2.9-5.5,5.4-7.4c2.4-1.8,4.9-3.5,7.4-5.1c2.1-1.4,4.3-2.8,6-4.7c2.5-2.8,2.3-3.8-0.8-5.7c-3.3-2.1-6.4-4.6-9.1-7.4
						c-2.5-2.6-2.8-5.3-1.1-7.3c1.7-2.2,4.4-2.7,7.4-1c2.1,1.1,2.3,0.3,2.3-1.5c0-1.4,0.1-2.7,0.3-4.1c0.4-2,1.2-3.8,3.6-3.8
						c2.2-0.1,3,1.6,3.7,3.4c0.4,1,0.2,2.2,1.1,3.2c1.6-1.8,2.2-4,3.2-5.9c2.8-5.5,6.5-10.3,12.2-13.1c1.3-0.7,2.6-1.4,4.1-1.4
						c2.5,0.1,3-1.1,3.5-3.3c3.3-14.5,10.4-26.5,23.1-34.6c1.5-0.9,2.9-1.9,4.4-2.8c2.8-1.8,4.4-4.3,4.9-7.5
						c0.7-4.8,1.8-9.5,4.6-13.6c0.8-1.2,0.2-2-0.4-2.9c-1.5-2.1-3-4.1-4.3-6.3c-1.1-1.8-1.4-3.8,0.7-5c2.1-1.2,3.6,0,4.7,1.8
						c0.5,0.8,0.9,1.6,1.8,2.1c1-1.1,0.5-2.3,0.6-3.4c0.1-1.3,0-2.5,0.1-3.8c0.1-1.8,1-3.2,3-3.3c2.1-0.1,3.1,1.4,3.2,3.3
						c0.1,2.3,0.1,4.5,0.1,6.8c0,1.7,0.4,2.4,2.2,1.5c2.6-1.3,5.3-2.4,8-3.5c1.6-0.6,1.9-1.4,1.3-2.9c-0.5-1.1-0.7-2.3-1.3-3.3
						c-6-9.5-6.6-20.2-6.4-31c0.4-17.9,7.5-33.6,17.1-48.1c12.1-18.3,25-36.2,39.7-52.6c20.6-23,44.7-41.3,71.4-56.6
						c41.3-23.6,85.4-40.6,130.1-56.1c7.3-2.5,14.7-4.8,22.1-7.1c1.7-0.5,2.2-0.9,1.1-2.7c-4.2-6.8-5.9-14-3.3-21.9
						c0.3-0.8,0.2-1.8,0.1-2.7c-0.5-5.6,0.2-11,2.7-16.2c0.9-1.8,1.4-3.7,2.1-5.6c0.3-0.8,1-1.8,0.4-2.6c-0.7-0.9-1.7,0.1-2.5,0.2
						c-1.4,0.2-2.9,0.5-4.3,0.5c-1.8,0-3.3-0.7-3.5-2.8c-0.2-2,1.2-2.9,3-3.3c6.4-1.4,6.4-1.4,2.4-6.5c-0.2-0.2-0.3-0.4-0.5-0.6
						c-1.2-1.6-2.1-3.4-0.2-5.1c1.9-1.6,3.6-0.6,5,1c0.9,1,1.9,2,2.7,3.1c1.2,1.7,2,2.1,2.9-0.3c4.4-11.1,14.7-17.8,26.6-17.7
						c8.4,0.1,13.9,4.6,15.6,12.8c0.4,1.8,0.6,3.6,0.9,5.4c0.5,2.8,2.1,4.5,5,4.9c3.1,0.5,6.2,0.6,9.1,1.7c1,0.4,1.5-0.1,1.8-1
						c3.8-11,12.3-14.6,23-14.6c0.3,0,0.6,0,0.8,0c2.2,0.3,2.9-0.6,2.8-2.8c-0.2-2.3-0.1-4.5,0.1-6.8c0.1-1.9,1.1-3.4,3.2-3.3
						c2,0.1,2.7,1.6,2.9,3.4c0,0.2,0,0.4,0,0.5c0.2,1.5-0.8,3.6,0.6,4.3c1.3,0.6,2.5-1.4,3.8-2.2c3.2-2.1,5-2.3,6.3-0.7
						c1.3,1.8,0.5,3.3-2.7,5.8c-1.4,1.1-3.9,1.9-3.6,3.6c0.2,1.5,2.9,1.4,4.5,1.9c8.1,3,11.8,8,12.1,16.6c0,1.2,0.1,2.4,0,3.5
						c-0.2,2.4,0.1,4.5,2,6.2c1,0.9,1.7,2.2,2,3.5c0.5,2.6,1.6,3.2,4.3,2.5c17.4-4.6,34.8-8.9,52.2-13.5c6.3-1.7,12.5-3.7,18.8-5.5
						c1.9-0.6,3.8-1.3,5.4-2.6c3.5-2.7,4.1-6.2,1.7-9.8c-2.4-3.7-4.7-7.3-7.3-10.9c-3-4.2-3.2-8.5-1.3-13.2
						c2.1-5.2,5.5-9.3,9.9-12.7c10.8-8.2,22.9-13.7,35.8-17.4c5.1-1.5,10-3.2,14.8-5.4c2.6-1.2,5.4-2,8.6-1.6
						c-1.5,3.6-4.3,5.7-6.8,8c-4.9,4.5-9.9,8.9-14.7,13.4c-2.9,2.8-5.4,5.9-7.3,9.4c-3.1,5.7-2.9,11.1,1.5,16.1
						c1.7,1.9,3.4,3.7,5.3,5.5c3.2,3.1,6.3,6.3,9.1,9.7c2.5,3.1,4.5,6.4,5.6,10.2c3.5,11.3,0.5,20.9-8.9,28.1
						c-3.8,2.9-8,5.4-12.2,7.7c-5.9,3.2-11.8,6.5-17.6,9.8c-22,12.6-43.4,26.2-64.2,40.7c-17.3,12-35,23.4-52.7,34.8
						c-15.2,9.8-30.3,19.9-44.7,31.1c-7.6,6-15.2,11.9-21.2,19.5c-8.7,10.9-15.4,23-19.8,36.2c-3.1,9.2-3.2,18.5,0,27.9
						c2.7,7.7,3.9,16,8.8,22.8s9.4,13.9,16.3,18.9c1.6,1.2,2.5,1.2,3.8-0.3c2.4-2.6,5.1-4.9,8.1-6.9c2.5-1.7,5.1-2.9,8.2-2.6
						c2.7,0.3,2.3-1.7,2.5-3.2c0.2-2.1-1.4-1.4-2.4-1.5c-1.3-0.1-2.6,0-3.8-0.3c-1.8-0.3-3-1.4-2.9-3.4c0.2-1.8,1.5-2.8,3.2-2.7
						c3,0.1,2.7-0.9,1.2-2.8c-0.7-0.8-1.1-1.9-1.4-2.9c-0.4-1.4-0.2-2.7,1.1-3.7c1.3-0.9,2.6-0.9,3.8,0c1.6,1.1,3,2.3,4.5,3.6
						c0.8,0.7,1.5,1,2.2-0.1c2.3-3.5,5.9-5.1,9.8-6c2.4-0.5,3.1-1.7,3-3.9c-0.3-8.6,4.1-14.6,10.8-19.3c5.4-3.8,10.5-3.7,15.9,0.2
						c4.8,3.5,7,3.6,12.1,0.4s10-6.7,16.2-7.4c5.4-0.7,10.8-0.9,15.3,3c1.1,1,1.8,0.2,2.5-0.5c4.1-3.4,9-4.9,14.2-4.7
						c7.9,0.2,10.6,3.8,13.6,10.4c0.4,0.8,0.6,1.6,0.9,2.8c1.2-2.2,1.5-4.3,1.5-6.5c0.1-1.7,0.3-3.5,2.5-3.5c2.3,0,2.8,1.8,2.7,3.6
						c-0.1,1.9-0.3,3.8-0.5,5.9c1.5-0.2,2.8-0.8,4-1.4c1.6-0.8,3.2-1.8,4.7-0.1c1.5,1.7,0.2,3.2-0.9,4.6c0.8,0.8,1.9,0.6,2.9,0.8
						c12,1.9,18.2,13.8,12.8,24.7c-0.4,0.7-0.9,1.5-0.5,2.3c1.5,3.2,1.5,6.7,1.9,10.1c0.2,2.1,1.1,3.5,3,4.5
						c3.8,1.9,7.2,4.6,10.5,7.3c4,3.3,6,7.7,5.8,12.9c-0.6,13-3.9,20.1-18.9,26.3c-4,1.6-7.8,1.5-10.9-2.2c-1.2-1.5-2.9-1.4-4.5-1
						c-3.3,0.8-6.5,1.6-9.8,2.4c-6.5,1.5-8.3,0.8-11.9-5c-0.5-0.8-0.9-1.4-1.9-0.7c-5.1,4.1-10.7,2-16.2,1.1c-3.1-0.5-6-2.2-8.7-3.9
						c-5.6-3.6-11.6-3-17.7-1.6c-3.4,0.7-6.6,2-9.9,2.9c-3.4,0.9-6.8,1-10.2-0.1c-1.1-0.4-1.8-0.3-2.6,0.6c-2.2,2.5-5,3.9-8.2,4.6
						c0.2,0.8,0.9,0.7,1.4,0.8c9.2,1.9,18.2,4.2,27.2,6.8c13.5,3.9,27.2,6.4,40.9,9.2c14.1,2.9,28.1,6.8,42.4,8.8
						c12.4,1.7,24,6.3,36.4,7.8c5.2,0.7,10.4,1.5,15.6,2.4c2.2,0.4,3.5-0.2,4.1-2.5c2.2-8.7,8.3-12.5,16.8-13.2
						c2.5-0.2,5.1-0.3,7.6-0.6c3.3-0.4,6.5-3.4,7.3-6.5c0.3-1-0.4-1.2-0.9-1.7c-2.2-2.1-4.5-4.2-6.6-6.5c-1.4-1.6-2.3-3.6-0.4-5.3
						c1.9-1.7,3.7-0.7,5.2,1c0.4,0.5,0.7,1.2,1.5,1.1c0.9-0.2,0.8-1.1,0.9-1.8c0.4-1.7,0.6-3.4,1.1-5.1c0.5-1.9,1.8-3,3.8-2.6
						c1.9,0.4,2.6,1.9,2.4,3.7c-0.2,1.6-0.5,3.2-0.8,4.8c-0.3,1.5-0.7,3-0.8,4.6c2.7-1.7,5.2-3.4,7.9-4.9c4-2.3,8.1-3.5,12.8-3.2
						c3.4,0.2,6.7,0.2,10.1,0.4c1.4,0.1,2.2-0.1,2.6-1.6c2-7.1,6.4-12.8,10.7-18.6c0.7-1,1.5-1.8,1.5-3.1c0.1-5.2,2.7-9.3,6.2-13
						c3.1-3.2,6.7-5.9,10.1-8.8c1.6-1.4,3.2-3,4.7-4.5c1.6-1.6,2.5-3.6,2.3-5.9c-1-14.3,5.7-25.5,14.1-36.2c2.1-2.7,4.8-4.1,8.3-3.9
						c2.5,0.1,4.9-0.4,7.3-0.7c4.4-0.6,8.3,0.2,10.9,4.4c0.8,1.3,2.1,1.9,3.6,2.2c2.6,0.4,5.2,0.8,7.8,1.3c1.8,0.4,2.5-0.3,2.6-2.1
						c0.1-2.1,0.2-4.2,0.4-6.3c0.2-2.1,0.8-3.9,3.3-3.9c2.3,0,3.1,1.6,3.2,3.6c0.1,1.6,0.6,1.7,1.8,0.9c1.5-1,3.2-1.1,4.4,0.4
						c1.3,1.7,0.7,3.3-0.7,4.6c-1.3,1.3-2.6,2.6-3.9,3.8c-0.9,0.8-1.3,1.5,0,2.3c2.6,1.7,4,4.2,4.8,7.1c0.7,2.6,2.4,3.9,5.1,4
						c7,0.2,12.9,3.7,18.5,7.3c4.2,2.7,6.2,7,6.4,12c1.4,0,1.9-1.1,2.6-1.7c4.2-3.6,9.1-4,13.8-1.1c2.5,1.6,4.7,3.6,6.2,6
						c5.6,8.7,13.8,14.6,22.2,20.2c3.7,2.5,7.2,5.2,10.7,7.9c6.9,5.3,14,10.4,21.4,15c2.1,1.3,4.3,2.5,5.5,4.7
						c4.9,8.5,10.1,17.1,11,27.1c0.5,5.2,2.5,8.3,7,10.3c2.1,0.9,3.9,2.2,6,3.3c3.4,1.7,5.6,4.5,6,8.2c1.2,11.4-0.3,22.5-5.7,32.7
						c-1.8,3.4-5,5.2-8.7,5.9c-3.1,0.6-6.1,0.7-9.2,0.3c-7.8-1-15.6-0.9-23.4-1.4c-4.3-0.3-8.2,1.1-12.2,2.6
						c-8.8,3.3-17,7.8-25.2,12.2c-14.5,7.7-30,12.2-46.1,15.3c-6.4,1.2-12.8,2.1-19.4,0.6c-8.8-1.9-14.5-7-17-15.4
						c-1-3.6-2.9-4.9-6.3-5.3c-4.7-0.5-9.2-2-13.9-2.2c-0.2,0.8,0.4,1,0.8,1.3c4.4,3.4,8.1,7.4,10.9,12.1
						c7.6,13,14.7,26.1,17.3,41.2c4.2,24.3,3.2,48.5-2.3,72.5c-1.2,5-2.4,10.1-3.6,15.1c-0.3,1.2-0.8,2.1-2.2,2.4
						c-1.3,0.4-2.3,0-3.3-0.7c-1.1-0.8-0.5-1.8-0.3-2.7c2.8-10.1,5-20.3,6.6-30.6c3.3-21.8,2.9-43.5-3.1-64.8
						c-3-10.6-8.5-20.2-14-29.7c-4.5-7.6-11.6-12.5-18.6-17.3c-0.9-0.6-1.8-0.8-2.9-0.7c-4.5,0.5-8.9-0.5-13.1-1.8
						c-3.3-1-6.5-1.5-9.9-1c-4.4,0.6-8.9,0.6-13.1-1.5c-4.4-2.1-9.2-1.7-13.9-2.1c-2.9-0.2-5.4-1.3-7.1-3.5
						c-5.2-6.3-12-8.6-19.9-9.1c-6.8-0.5-13.3,1.4-19.9,2.7c-9.8,1.9-17.6-2.5-19.8-11.9c-1-4.3-0.3-8.7,0.3-13
						c0.2-1.3,0.3-2.2-1.5-2.5c-17.9-2.8-35.3-7.8-53.1-10.6c-9.6-1.5-19-4.2-28.6-5.3c-13.5-1.6-26.7-4.9-39.8-8.7
						c-13.4-3.9-26.9-7.4-40.7-10.1c-5.5-1.1-10.8-3.1-16.2-4.8c-1.6-0.5-2.9-0.6-4.3,0.5c-2.7,2-5.7,2.1-8.8,1
						c-9.7-3.5-19.1-7.4-27.2-13.9c-1.1-0.9-2.4-1.2-3.7-1.6c-4.8-1.5-7.2-4.5-7.3-9.6c-0.1-3,0.5-6,1.6-8.8
						c0.3-0.8,0.9-1.6-0.2-2.4c-8.6-5.5-14.1-13.7-19.4-22.2c-4.3-6.8-8.1-13.7-10.6-21.4c-3.6-11.2-3.4-22.4,0.8-33.4
						c3.8-9.9,7.8-19.8,13.9-28.6c10.2-14.9,23.7-26.3,38.4-36.3c21.2-14.5,42.7-28.7,64.6-42.2c10.3-6.3,19.5-14.2,29.1-21.6
						c13.3-10.2,28.1-18,42.8-25.9s28.9-16.8,43.3-25.3c1-0.6,1.9-1.3,2.9-2c10.7-7.6,10.5-18.4,5-27.6c-2.7-4.6-6.7-8.1-10.4-11.9
						c-2-2-4-4-5.8-6.1c-6.2-7.6-6.8-14.6-1.9-23.2c2.1-3.7,4.9-7,7.9-10.1c1.2-1.2,2.5-2.3,4-3.7c-1.4-0.7-2.2-0.1-3,0.1
						c-11,3.6-21.5,8.3-30.8,15.4c-3.8,2.9-6.7,6.4-8.4,10.8c-0.9,2.4-0.7,4.6,0.8,6.7c2.4,3.3,4.9,6.6,6.7,10.2
						c2.7,5.3,3.6,10.7-0.3,15.9c-2.1,2.8-5.1,4.5-8.3,5.4c-11.9,3.6-23.7,7.6-35.8,10.6c-13.6,3.4-27.2,7.2-40.8,11
						c-10,2.8-20,5.1-30,7.9c-24.8,7-49.9,13-74.5,20.7c-14.2,4.4-28.1,9.8-42.2,14.4c-32.6,10.5-64.4,23.4-95.4,37.9
						c-32.3,15.1-62.9,33-88.9,58c-12.2,11.8-23,24.8-33.5,38c-12.1,15.3-21.4,32.4-29.9,49.9c-7.3,15.2-8,30.9-1.9,46.8
						c1.2,3.1,3.1,5.7,5.1,8.4c1.3,1.8,3,2.8,5.2,3.2c5.6,1.1,10.9,2.9,14.2,8.1c1.1,1.8,3,2.8,4.9,3.8c4,1.9,7.2,4.8,9.9,8.4
						c0.5,0.7,0.9,1.4,1.6,1.9c5.1,3.5,7.8,8.7,10.1,14.2c2.7,6.7,7.3,11.1,14.5,12.7c3.5,0.8,6.7,2.4,9.6,4.4
						c1.3,0.9,2.3,0.9,3.7,0.1c11.2-6.5,27.3-2.5,34.3,8.4c0.8,1.3,1.6,2.6,2.3,4c1.8,3.6,4.3,6.4,7.9,8.3
						c8.9,4.8,15.9,11.5,20.2,20.7c3.3,7.1,4.5,14.4,0,21.6C339,587.1,337.8,588.4,336.7,589.7z M898.9,506.5c0.4,2.1,1.3,3.2,2,4.3
						c4,5.8,4.3,11.6,0.4,17.6c-5.2,8-7.1,16.8-6.8,26.4c0.2,6.2,2.8,11,6.6,15.3c2.7,3.1,6.4,4.5,10.7,4.5
						c8.1,0.1,15.9-1.6,23.7-3.4c4.4-1,8.9-1.4,13.3-2.8c15.4-4.7,29.3-12.5,43.7-19.5c6-2.9,12.3-4.6,19.2-3.8
						c7.2,0.9,14.5,1.6,21.7,1.7c5.2,0.1,10.8-1.1,13.2-6.4c3.4-7.3,5-15.2,3.6-23.3c-0.4-2-0.9-4.1-2.7-5.1c-6-3.3-11-8.1-18.9-7.9
						c-8.3,0.2-16.2-3.2-23.2-7.9c-3.4-2.3-6.9-3.4-11-3.3c-4.9,0.1-9.8,0.6-14.7,0.9c-7.6,0.5-15,3-22.7,2.6
						c-0.7,0-1.2,0.3-1.6,0.8c-4.4,5.4-10.5,7.1-17,7c-9.1-0.1-17.6,2.1-25.9,5.7c-1.7,0.7-3.5,0.9-5.3,0.9
						C904.1,510.5,901.6,508.8,898.9,506.5z M170.1,637.8c2.3,0.2,5.5-0.7,8.4-2.5c3.8-2.3,7.7-4.6,11.8-6.2
						c1.2-0.5,1.7-1.2,1.7-2.5c-0.1-4.3,0.3-8.6-0.1-12.8c-0.9-7.5-0.5-14.8,1.4-22.2c1.1-4.6,0.4-8.7-3.8-11.9
						c-6.7-5.1-8.7-12-6.8-20.2c0.3-1.3,1.5-2.9,0.4-3.8c-1.2-0.9-2.7,0.4-4,0.9c-1,0.4-2,0.9-3,1.4c-2.4,1.1-4.8,2.3-7.5,2.4
						c-10.4,0.4-20.5-0.5-29.7-6.2c-3.2-2-6.4-2.1-9.7,0.3c-3.1,2.2-5.3,5.2-7.1,8.5c-3.9,7.4-7,15-8,23.3
						c-0.5,4.6-2.8,8.3-6.4,11.3c-3.1,2.5-6.7,4.4-9.9,6.7c-2.6,1.8-4.7,4-5.6,7.1c-2,6.5-3.4,13.2-3.3,20.1
						c0.1,8.4,6.8,12.3,14.1,8.1c1.9-1.1,3.6-2.5,5.4-3.7c13.6-8.9,27.3-13.8,42.4-3C156,637,162.5,637.5,170.1,637.8z M270.3,532
						c0.3-1.7-0.8-3.6-3.4-4.6c-3-1.2-6-2.7-9.1-3.7c-8-2.4-13.5-7.4-16.1-15.3c-3.2-9.4-10.2-15.5-17.9-20.8
						c-3.2-2.2-6.1-4.4-8.7-7.2c-4.3-4.5-9.9-5.7-15.7-4.2c-4.9,1.3-9.5,3.5-14.1,5.8c-6,3-9.7,7.8-10.3,14.4
						c-0.8,7.9-4.8,13.3-11.7,16.9c-0.8,0.4-1.6,0.9-2.3,1.4c-10.3,7.3-16.2,17.4-19,29.5c-1,4.1-0.4,5.2,3.6,6.7
						c10.2,3.8,20.3,5.5,30.8,0.3c7.8-3.9,16-4.6,23.5,1.6c2.9,2.4,6.6,2.4,10.1,1.6c1.5-0.3,3-0.9,4.4-1.5
						c7.3-3.1,14.9-4.7,22.6-5.9c6.8-1,13.4-0.5,19.7,2.5c1.5,0.7,3,1.4,4.6,1.6c1.9,0.3,3.4-0.3,4.3-2.1
						C268.1,544,269.8,538.6,270.3,532z M878.8,552.3c2.5,0,5.1-0.1,7.6,0c1.2,0,1.7-0.3,1.7-1.5c0.2-2.4,0.6-4.7,0.5-7.1
						c-0.2-5.9,2.2-10.9,5.4-15.4c4.7-6.6,5.2-9,0.7-15.9c-2-3.1-2.8-6.3-2.3-9.9c0.7-4.9-2-9.6-6.8-11.2c-2.5-0.9-5.1-1.5-7.2-3.2
						c-3.5-2.7-7.2-4.8-11.3-6.5s-6.4-5-6.7-9.5c-0.2-4.7-0.2-9.5,0.9-14.1c1.2-5.3,3-10.3,7.6-13.8c0.7-0.6,2.1-0.9,1.7-2.1
						c-0.4-1.1-1.7-1.3-2.8-1.4c-0.6-0.1-1.3-0.1-1.9-0.1c-11-0.6-21.1,1.9-30.2,8.2c-1.5,1-3.1,2.3-4.9,2.2c-4.3-0.4-6.1,2.4-8,5.4
						c-1.2,1.9-2.5,3.8-3.7,5.7c-3.5,5.9-4.9,12.1-4,19.1c0.9,6.9,1.7,13.9,1,20.9c-0.4,3.8-0.1,4.3,3.6,5.5c3.9,1.3,8,2,11.7,3.8
						c11.4,5.5,22.5,11.5,22.5,26.7c0,0.4,0.2,0.9,0.3,1.3c0.7,3.1,2.3,5.4,5.1,7.4C865.3,551.2,871.6,553.1,878.8,552.3z
						 M913.3,448.1c2.7-0.1,5,0.8,7.3,1.9c4.4,2.1,9,3.8,13.8,5.2c2.9,0.8,5.3,0.3,7.5-1.9c5.1-5.2,6.3-11.7,6.7-18.5
						c0.1-1.4-0.9-1.8-2-2.3c-5.7-2.3-8.2-6.9-8.8-12.7c-0.2-2-0.2-4-0.2-6c-0.1-3.4-1.5-6-4.4-7.6c-4.8-2.8-9.6-5.5-15.4-5.7
						c-5-0.2-8.4-3-9.7-7.8c-1-3.4-3.2-5.2-6.5-5.8c-4-0.7-8.1-1.4-12.1-2.1c-3.2-0.5-6-1.6-7.8-4.4c-1.3-2-3-2.6-5.1-2.2
						c-3,0.5-6,1.4-9.1,1.2c-1.2-0.1-2,0.8-2.7,1.6c-7.1,9.2-13.2,18.8-12.3,31.1c0.3,4.6-1.4,8.3-4.5,11.6c-2.5,2.6-5.2,4.8-7.9,7
						c-2.8,2.2-5.6,4.4-7.8,7.2c-1,1.2-2.9,2.9-1.9,4.1c1.2,1.4,3.5,0.7,5.2-0.4c8.8-5.5,18.5-7.4,28.8-7.5
						c7.6-0.1,12.7,2.8,15.7,9.7c1.3,2.9,3.5,4.6,6.7,4.9c1.7,0.2,3.4,0.3,5.2,0.4C899,449.5,906.2,449.8,913.3,448.1z M198.3,619.5
						c0,2.2,0,4.4,0,6.5c0,1.4,0.6,2.4,2,2.5c6.4,0.5,12.9,1.7,19.1-0.8c6-2.5,12.3-4.4,17.8-8.2c1.2-0.8,2.6-1.6,4-1.7
						c7.3-0.8,13.3-4.3,18.9-8.7c2.5-2,5.8-3.1,8.5-4.8c4.5-2.8,5.4-6.8,2.9-11.5c-1.7-3.1-4.1-5.6-7-7.5c-3.4-2.3-4.9-5.5-4.9-9.5
						c0-2.6,0.1-5.1,0.6-7.6c0.6-2.6,0.9-5.2,0.7-7.8c-0.1-1.1-0.1-2.4-1.3-2.8c-5.1-1.8-9.9-4.7-15.6-4.5
						c-9.5,0.3-18.7,2.3-27.5,5.9c-7.9,3.2-15.3,3.2-22.3-2.3c-2.4-1.9-3.6-1.3-4.6,1.6c-2.6,7.8-1.7,11.9,4.6,17.2
						c4.3,3.6,6.2,7.9,5.8,13.4c-0.1,2-0.5,4-0.9,5.9c-1.2,4.8-1.8,9.7-1.2,14.6C198.2,612.8,198.4,616.1,198.3,619.5z M954.9,436.7
						c-0.7,7.8-2.6,16.2-10,22.4c-2.5,2.1-5.2,3.1-8.5,2.9c-2.8-0.2-3.2,0.3-2.6,3c0.2,1.1,0.7,2.3,1.2,3.3c1.4,2.6,3.2,5,4.2,7.7
						c1.9,5.2,5.3,8.6,10.3,10.5c2.3,0.9,4.5,2,6.9,2.4c2.6,0.5,5.3,1.2,8.1,0.7c9.6-1.7,19.2-2.8,29-3.1c5.9-0.2,11.1,1.3,15.9,4.6
						c5.5,3.8,11.7,5.7,18.3,6.7c3.8,0.6,4.1,0.1,3.7-3.7c-1-8.5-5.2-15.8-8.8-23.3c-1.1-2.4-3-4-5.2-5.4
						c-7.5-4.7-14.8-9.9-21.8-15.4c-3.4-2.7-6.9-5.3-10.5-7.8c-8.9-5.9-17.5-12.1-23.5-21.3c-1.2-1.8-2.8-3.3-4.6-4.6
						c-2.6-1.8-4.9-0.7-7,0.8c-2.4,1.7-3.9,5-3.2,7.1c0.4,1.4,1.4,2.2,2.8,2.8C954.2,428.9,955,430.2,954.9,436.7z M288.7,526
						c-9.1,0.5-12.1,1.5-12.5,10c-0.3,6.6-2.4,13-6.6,18.2c-2,2.5-2.9,4.6-2.6,7.7c0.4,4.1-1.2,8.1-1.4,12.2c-0.1,3,0.9,5.1,3.3,6.9
						c5.5,4.1,9.7,9.1,10,16.4c0.1,1.7,1,1.7,2.2,1.2c2.8-1.1,5.6-2.1,8.3-3.4c4.8-2.3,9.7-2.8,14.9-2.1c3.2,0.4,6.3,0.1,9.5-0.2
						c5.1-0.5,9.3-3.5,14-5.2c7.6-2.7,10.3-7.8,8-15.6c-2.5-8.9-7.5-16.2-15.5-20.9c-6.7-3.9-12-8.7-15.6-15.8
						C301.4,528.8,295.1,526.1,288.7,526z M469.7,197.2c-0.6,4.2,2.3,8,3.4,12.4c0.6,2.1,1.5,2,3.2,1.5c5.7-1.6,10.9-4.6,16.5-6.2
						c14.2-4,28.4-8,42.7-12c2.3-0.6,3.6-1.8,4.4-3.9c2.2-6.1,2-12.1,0.2-18.2c-0.6-2-1.8-3.5-3.5-4.8c-4-3.1-8.4-4.8-13.5-5.3
						c-7.9-0.7-11.2-4.1-12.5-11.9c-0.2-1.2-0.3-2.3-0.5-3.5c-1.1-5.2-4.1-7.6-9.4-7.7c-8.1-0.1-18.3,4.7-21.2,14.9
						c-1.5,5.4-3.3,10.8-5.2,16.1c-1.5,4.1-2.6,8.3-2.9,12.7c-0.2,2.8,0.3,5.6-0.8,8.4C470,191.8,469.8,194.2,469.7,197.2z
						 M834.4,520.4c0-0.3,0.1-0.5,0.1-0.8c-2.2-1.6-4.7-2.4-7.3-3.3c-3.9-1.2-7.9-2-11.7-3.7c-3.4-1.5-6-3.9-5.6-7.9
						c0.8-7.6-0.4-15.1-0.4-22.6c0-7.4,0-7.4-7.3-7.4c-10.7,0-19.6,3.1-25.2,13.4c-2.5,4.6-6.7,8-12.7,8.3c-3.2,0.2-6.3,0.9-9.4,1.3
						c-1.3,0.2-2.7,0.3-3.5,1.3c-2.5,3.4-5.4,6.6-6.5,10.6c-1.4,5.1-1.9,10.4-1.7,15.6c0.2,6.1,5.3,11.1,10.5,9.9
						c7.9-1.9,15.9-2.5,23.9-3.6c6.5-0.9,12.5-0.4,18.1,2.9c2,1.2,3.1,0.8,4.6-0.7c6.6-6.7,14.2-11.1,23.9-11.8
						C827.6,521.8,831,520.9,834.4,520.4z M565.1,465.1c1.3,0,2.2-0.1,3.1,0c4.9,0.3,8.1-1.9,9.9-6.4c1.5-3.7,2.1-7.5,1.6-11.5
						c-0.5-4.5-1.2-9-1.8-13.5c-0.8-5.3-1.3-10.6,0.7-15.9c1.3-3.3,0.3-4.6-3.3-4.3c-5.2,0.5-10.3,0.3-15.5,0.4
						c-3,0.1-5.3-1-6.9-3.6c-2.2-3.5-3.1-3.7-6.7-1.7c-1.2,0.7-2.1,1.7-2.8,2.9c-2.1,3.7-3.7,7.6-3.9,11.8c-0.1,2-0.9,2.8-2.6,3.6
						c-6.8,2.9-13.7,5.8-18.7,11.7c-2.6,3.1-5.5,6.1-5.3,10.6c0.1,2.3,0.8,3.8,3.2,4.3c2.1,0.4,3.9,1.4,5.6,2.7
						c7.3,6,16.4,8.7,24.6,13.2c1.4,0.8,3,0.7,4.4-0.3C555,465.9,559.9,464.5,565.1,465.1z M611.2,456.2c4.2-0.4,8.3,0.7,12.2,3
						c4,2.4,8.2,4.1,13,4.5c3.7,0.2,6.1-1.5,6.4-5.3c0.1-1.1,0.1-2.2,0-3.3c-0.4-5.2,0.4-10.1,2.1-15c1.3-3.8,2.6-7.6,3-11.6
						c0.5-5-1.7-8.6-6.5-9.9c-5.3-1.4-8.2-4.7-9.1-10c-0.3-2-0.9-3.9-2-5.6c-1.5-2.3-3.7-2.2-6.1-1.9c-2.3,0.3-2.5,1.9-2.8,3.7
						c-0.4,2.8-0.7,5.6-1.7,8.2c-2.1,5.4-6.7,8.1-12.2,6.7c-3.5-0.9-7-1.1-10.5-1.1c-2.5,0-5.1-0.2-7.6-0.8
						c-4.9-1.1-5.2-0.9-6.4,4.1c-0.4,1.8-0.5,3.6-0.3,5.4c0.4,3.4,0.9,6.8,1.4,10.2c1.1,7.1,2.4,14.2,0.1,21.3
						c-0.4,1.3,0.2,1.5,1.2,1.8c3.3,0.9,6.3-0.2,9.3-1.2C600,457.7,605.2,456,611.2,456.2z M867,467.7c-0.1,7-0.1,7.1,6.5,9.8
						c1.8,0.8,3.6,1.7,5.2,3c2.9,2.4,6.2,4.1,9.8,5.2c3.5,1,6.2,3.2,7.7,6.4c1.8,3.8,4.6,6.7,7.3,9.8c2.4,2.7,4.2,2.9,7.5,1.5
						c8.3-3.5,16.7-6.1,25.8-5.8c3.2,0.1,6.4-0.3,9.3-1.6c1.2-0.5,3-1,3-2.4c0-1.3-1.9-1.5-3-1.9c-5.9-2-9.9-5.9-12.2-11.7
						c-1-2.4-2.3-4.7-3.7-7c-2.2-3.5-3.5-7.2-3.1-11.3c0.1-1.5-0.5-2.3-1.9-2.8c-2.4-0.9-4.8-1.8-7-3c-2.6-1.3-5.2-1.7-7.9-1.1
						c-7.8,1.7-15.6,0.7-23.3,0.4c-3.7-0.1-7.1-1.3-9.8-4.2c-2.7-2.8-3.7-2.7-6.1,0.4c-1,1.3-1.7,2.8-2.3,4.3
						C867.5,459.7,867,463.6,867,467.7z M329.8,626.5c2.2,0.1,4.5,0,6.5-1.1c4.9-2.8,9.6-5.9,13.7-9.8c5.7-5.2,3.5-14-4-16.3
						c-4.5-1.4-9.3-2-13.6-3.8c-3.8-1.5-7-1.1-10.5,0.5c-6.3,3-12.9,4.2-19.9,2.5c-2.4-0.6-4.8-0.1-7.2,0.8
						c-5.7,2.2-11.2,5.3-17.3,6.4c-0.8,0.1-1.5,0.6-2.1,1.2c-2.9,2.4-6.2,4.2-9.5,5.8c-2.5,1.3-5,2.7-7,4.6c-3,2.8-6.4,4.8-10.6,5.1
						c-2.2,0.2-2.3,1.4-1.4,3c1.5,2.9,4.1,4,7,4.6c4.9,0.9,9.8,0.2,14.5-1.2c7-2,13.7-4.9,20.8-6.4c9.8-2.2,19.6-3,29.1,1.6
						C321.8,625.9,325.7,626.6,329.8,626.5z M649.2,454.5c0.5,1.5-0.9,3.8,0.8,5.3c1.2,1.1,1.9,2.4,2.4,3.8c1.3,3.5,1.8,3.7,5.5,2.8
						c3.4-0.8,6.7-1.8,10-2.4c3.5-0.7,7-0.6,9.6,2.3c1.7,1.9,3.3,1.8,5.3,1c8.8-3.4,13.9-9.4,14-19.3c0-4-1-7.1-4.2-9.5
						c-3.1-2.4-6.2-4.8-9.7-6.5c-2.8-1.4-4.4-3.7-5.1-6.7c-0.4-1.8-0.3-3.6-0.4-5.4c-0.1-4-0.4-4.2-4.2-4.4c-0.5,0-1.1,0-1.6-0.2
						c-5.3-1.6-10,0.4-14.5,2.9c-2.5,1.3-4.5,3-3.1,6.4c0.5,1.3,0.2,2.9,0.1,4.3c-0.3,4.7-1.9,9-3.3,13.4
						C649.7,446.2,648.8,450.1,649.2,454.5z M557.1,398.3c0,8,3.7,11,11.3,8.6c4.8-1.5,9-0.4,13,2.1c6.3,3.9,13.1,5.3,20.3,4.8
						c2.2-0.1,4.3-0.2,6.5,0.3c2.1,0.5,4.4,0.1,5.3-2.2c1.4-3.8,2.7-7.8,1.7-12c-0.8-3.6,0.3-6.4,2.7-8.9c0.9-1,2-1.9,2.9-2.9
						c2.1-2.4,2.2-3.9,0.3-6.6c-2.8-4-6.6-5.6-11.5-5.2c-5.9,0.6-10.7,3.3-15.4,6.5c-6.1,4.1-12.5,6-19.9-0.4
						c-2.9-2.5-5.7-2.4-8.7-0.1C560.3,386.4,557.1,391.5,557.1,398.3z M580.9,164.1c-0.1-1.8-0.1-3.6-0.3-5.3
						c-0.4-3.7-2.2-6.4-5.6-7.7c-6.3-2.5-12.8-4.5-19.8-4.4c-2.8,0.1-5.6,0.5-8.2,1.6c-3.7,1.5-6,4.4-7.1,8.1
						c-0.7,2-0.5,3.8,1.5,5.3c2.3,1.7,3.9,4.1,4.7,6.8c1.7,5.6,2.4,11.4,1.2,17.2c-0.6,3-0.6,3,2.3,2.3c11-2.8,22-5.5,33-8.3
						c3.6-0.9,4.4-2.6,1.7-5.4C581.3,171.4,580.3,168,580.9,164.1z M622.7,394.7c5.9-0.6,10.6,0.2,13.3,5.4c1.3,2.6,1.9,2,3.1,0
						c1.9-3.2,5.8-3.4,7.6-0.5c0.9,1.4,0.6,3,0.4,4.5c-0.1,0.9-0.5,2,1,2c1.9,0,3.3,0.7,3.5,2.6s-1.1,2.9-2.6,3.8
						c-0.6,0.4-2.2,0.5-1.3,1.8c0.7,1,1.7,1.9,3.2,0.7c6.5-5.3,14.1-7,22.2-6.4c2.7,0.2,4-1.1,4.7-3.4c1.7-5.6-2.1-11.8-8-13.1
						c-3.6-0.8-7.2-1-10.8-1c-9.3,0.1-9.6-0.1-11.8-8.9c-0.9-3.7-4.7-7.8-7.7-8c-4.1-0.3-7.9,0.8-11.3,3.2c-1.4,1-1.8,1.9-1,3.6
						c1.5,3.3,1.1,6.6-1.1,9.5C625.2,391.7,624.1,392.9,622.7,394.7z M849.2,551.7c0.2,0,0.7,0.1,1.1-0.1c0.9-0.3,2.2-0.4,2.5-1.4
						c0.3-0.8-0.9-1.2-1.5-1.8c-1.9-1.9-3.1-4.2-4-6.7c-1.1-3.2-2.3-6.3-3.4-9.5c-1.1-3.2-3.3-4.5-6.6-4.5c-2.8,0-5.6,0.3-8.3,1
						s-5.4,1.9-8.2,1.7c-8.2-0.4-13.5,4.3-18.2,10.1c-1.7,2.1-1.4,3.1,1.1,4.4c1.9,1,3.9,1.5,6.1,1.1c3.4-0.7,6.7,0,9.8,1.5
						c1.8,0.9,3.7,1.6,5.7,1.5c6.3-0.4,12.5,0.3,18.6,1.9C845.6,551.3,847.3,551.4,849.2,551.7z"/>
					<path class="st1" d="M757.8,230c3.2-1.5,6-3.5,9.4-1.2c0.8,0.5,1.9,0.7,2.5-0.1c1.5-1.7,2.2-0.3,3.5,0.3
						c7.4,3.7,12.9,9.9,18.9,15.4c7.2,6.6,13.7,14,20,21.5c0.1,0.1,0.1,0.1,0.2,0.2c1.4,4,4.6,5.6,8.4,6.8c3.8,1.3,5.5,4.8,7.5,8
						c0.7,1.2,1,2.7,2.7,4c0.5-3.3,1.3-6.2,2.6-8.9c0.7-1.7,1.5-3.3,2.4-4.9c1-1.6,2.5-2.5,4.4-1.5s2,2.8,1.2,4.5
						c-1.2,2.5-2.4,5.1-3.2,7.8c-0.2,0.5-0.4,1,0,1.6c0.7,0.3,1.2-0.2,1.7-0.5c1.9-1.1,3.7-2.3,5.5-3.5c1.9-1.2,3.8-2.1,5.6,0
						c1.3,1.6,0.6,3.5-2,5.4c-1.5,1-3,2.1-4.6,3c-1.3,0.8-1.6,1.3-0.2,2.5c5.3,4.5,9.6,9.9,12.1,16.5c0.2,0.5,0.5,1,0.9,1.3
						c4.9,3.3,12.2,1.2,14.7-4.2c1.9-4.1,3.8-8.2,6.7-11.8c5.7-7.3,17.9-8.6,24.8-1.2c1,1.1,2.1,3,3.6,2.7c1.7-0.4,0.8-2.6,1.3-4
						c0.9-2.5,1.8-5,3.3-7.2c1.1-1.6,2.6-2.4,4.4-1.4c1.8,1,1.9,2.7,1.1,4.5c-0.4,1.1-1.4,1.9-1.2,3.4c2.5-0.7,5.2-3.9,7.5-0.5
						c2.3,3.6-2,4.4-3.9,6.8c4.4,0.3,8.1,1.6,11.7,3.2c9.9,4.4,15.1,11.7,14.7,22.9c-0.2,5.6,0,11.3-1,16.8c-1.2,6.2-4.6,10-10.8,11
						c-8.3,1.3-16.7,1.2-25,1.1c-2.5,0-4.8-1.2-6.9-2.4c-2.8-1.6-5.7-1.7-8.6-0.6c-5.7,2.1-11.4,4.1-17.1,6.4
						c-10.4,4.3-20.9,4.8-30-3c-3.2-2.8-5.8-3.9-10-2.5c-2.2,0.8-4.9,0.3-7.3,0.3c-2.9,0-5.6,0.7-8.1,2c-1.6,0.8-3.1,1.5-2.7,3.8
						c0.1,0.6-0.4,1.5-0.8,1.9c-5.2,5.4-10.5,10-19.1,9.8c-9.1-0.2-17.9-0.7-26.3-4.6c-3.5-1.6-7.1-1.4-10.9-0.8
						c-5.4,0.8-10.3,2.8-15.3,4.9c-6.5,2.7-13,3.4-20.1,1.5c-8.8-2.4-17.8-1.9-26.8-0.4c-6.8,1.1-13.8,1.3-20.6,1.4
						s-10.6-3.6-10-10.4c0.7-8.5,1.4-17,4.5-25.1c1.5-3.9,4.3-6.3,8.2-7.3c2.6-0.6,3.6-1.9,3.6-4.6c0-11.4,5.9-19.5,14.8-25.8
						c2.5-1.8,5.2-2.9,8.4-3c1.4,0,2.1-0.4,1.2-1.9c-3.2-5.5-1.6-10.5,2.2-14.8c6-6.7,12.9-12.6,20-18c5.6-4.2,11-8.7,16.4-13.1
						c1.6-1.3,1.7-2.2-0.4-2.9c-2.2-0.7-4.3-1.5-6.4-2.4c-2-0.8-3.4-2.1-2.5-4.4c0.8-2.2,2.7-2.3,4.6-1.7c2.4,0.8,4.8,1.7,7.2,2.6
						c1.6,0.6,2,0.1,1.5-1.5c-0.5-1.5-1-2.9-1.4-4.4c-0.5-1.9-0.2-3.5,1.7-4.3s3.3,0.2,4.3,1.9C756.9,228,757.3,229,757.8,230z
						 M770.3,324.8L770.3,324.8c0.1,1.4,0,2.7,0.1,4.1c0.2,3.4,1.2,4.4,4.7,3.9c1.7-0.2,3.4-0.7,5.1-1.1c5.1-1.1,9.5-0.3,13,3.9
						c2.7,3.1,6.1,5.4,9.2,8.1c4.9,4.2,9.3,4.6,15,1.5c3-1.6,6-3.2,9.5-3c6.1,0.3,11.8-1.1,17.7-2.6c3.2-0.9,3.6-3.3,4.3-5.6
						c0.7-2.1-1.4-2.7-2.6-3.6c-0.3-0.3-0.8-0.5-1.1-0.8c-3.9-2.8-4.7-6.2-2.4-10.4c1.2-2.2,2.9-3.9,4.5-5.8s3.7-4.1,2.1-6.7
						c-3.9-6.4-7.8-13.1-16.7-13.5c-3.9-0.2-6.7-2.6-8.5-6.1c-0.9-1.8-1.9-3.6-3-5.2c-3.1-4.6-7.6-5.7-12.6-3.4
						c-2,0.9-4,1.8-6.1,2.4c-4.9,1.3-8.6,4.1-10.9,8.4c-3.4,6.4-8.6,11.2-14,15.8c-4.2,3.5-6.4,7.8-6.8,13.1
						C770.6,320.4,770.5,322.6,770.3,324.8z M919,344c5-0.3,9-0.5,13-0.9c4.6-0.5,6.1-2.2,6.8-6.7c1-6.1,0.8-12.1,0.6-18.2
						c-0.1-5.2-2.6-9-6.9-11.7c-5.4-3.4-11.1-5.2-17.6-4.7c-6.3,0.5-11.8-1.3-16.1-6.2c-2.3-2.7-5.4-3.4-8.9-2.9s-5.6,2.7-7.6,5.3
						c-2.5,3.4-3.7,7.5-5.7,11.1c-2,3.7-4.9,6.3-9.2,6.9c-2.4,0.3-4.8,0.4-7-0.3c-4.2-1.4-6.9,0.5-9.6,3.3c-3.6,3.7-3.6,4.3,0.6,7.4
						c4.2,3,5,5.4,3.3,10.3c-0.5,1.6-1.2,3.2-1.8,4.9c-0.2,0.6-0.7,1.3-0.2,1.8c2.2,2.2,3.6,5.3,7.1,6c4.8,0.8,9.5,0.7,13.9-1.3
						c5.8-2.7,11.8-4.6,17.8-6.8c4.5-1.6,8.9-1.5,13.1,1c2.6,1.5,5.3,2.1,8.3,2C915.4,343.9,917.7,344,919,344z M714.3,284.3
						c0,1.4,0.6,2.5,1.4,3.5c2.9,3.5,5.9,6.8,10,9.1c3.1,1.7,5.5,1.9,8.4-0.5c4.1-3.4,8.7-6.4,14.1-6.5c9.4-0.2,19-0.8,27.2,5.5
						c1.4,1.1,2.6,0.8,3.9-0.3c2.4-2,4-4.4,5.5-7c3.8-6.6,8.8-11.5,16.5-13.3c1.4-0.3,2.7-1,4.1-1.6c2.7-1.2,2.7-1.6,1-3.9
						c-3-4-7-7.2-10.1-11c-7-8.6-16-15.1-23.9-22.7c-0.7-0.7-1.6-1.1-2.5-1.6c-0.7-0.3-1.8-0.5-2,0.1c-0.9,2.5-3.8,3-5.1,5
						c-1.3,1.9-2.8,3.6-4.5,5.1c-7.3,6.2-14.6,12.6-22.4,18.3c-6.4,4.7-12.1,10.1-17.8,15.6C716.1,279.6,714.4,281.6,714.3,284.3z
						 M811.2,354.4c-0.5-0.8-1-0.9-1.4-0.9c-4.7-0.1-8.5-2.2-11.9-5.3c-3.5-3.1-7.3-6-10.5-9.5c-1.2-1.3-2.7-1.8-4.4-1.7
						c-2.7,0.2-5.4,0.5-8,1.5c-1.2,0.5-2.3,0.6-3.4,0.4c-4.3-0.6-7.1-3.7-7.4-8.8c-0.4-6.1-0.1-12.2,1.4-18.1c0.7-2.7,1.9-5,3.4-7.4
						c0.9-1.4,3.7-2,2.5-4.2c-0.8-1.5-2.9-2.1-4.6-2.8c-0.3-0.1-0.7-0.3-1-0.3c-10.2-1.7-20.3-3.3-28.8,4.8c-1.7,1.6-3.7,2.6-6,3
						c-2.8,0.5-3.3,1.8-1.4,4c1.3,1.6,2.9,3,4.3,4.5c5.5,6,7.3,12.7,4.1,20.6c-1.8,4.3-3.1,8.7-3.8,13.3c-0.6,4.1,0.1,7.9,2.6,11.4
						c2,2.9,2.6,3.1,5.8,1.6c6.2-2.8,12.6-5.2,19.4-6.1c3.6-0.5,7-0.4,10.5,0.7c4.1,1.2,7.8,3.4,12,4.2c5.9,1,11.8,0.4,17.7,0.4
						C806.1,359.9,808.4,356.8,811.2,354.4z M729.3,359.7c-3.4-7.5-1.7-14.8,0.6-22.1c0.6-1.9,1.2-3.8,2-5.7
						c2.1-4.9,1.1-9.2-2.4-13.1c-1.8-2-3.8-3.9-5.6-6c-1.9-2.1-2.6-4.6-2-7.3c0.5-2,0.6-3.6-1.7-4.4c-1.8-0.6-2.7-3-4.8-2.7
						c-1.8,0.3-3.4,0.1-5.1,0c-2-0.1-4,0-5.8,1.2c-7.7,5-13,11.5-13.1,21.2c-0.1,6.4-1.7,8.5-7.9,10.4c-2.4,0.7-3.8,2.1-4.7,4.4
						c-2.6,7-2.8,14.4-3.8,21.7c-0.4,3.2,0.7,4.3,4.1,4.2c5.5-0.2,11.2-0.1,16.6-1.1C706.8,358.4,717.9,359.7,729.3,359.7z"/>
					<path class="st1" d="M140.1,208.5c2.9-4.1,6.1-6.9,9.2-9.8c3.1-2.8,6.1-5.7,10-7.4c1-0.5,1.4-1.3,1.7-2.3
						c4.1-14.9,16.7-23,31.9-20.6c1.2,0.2,2.3,0.3,3.5,0.6c4.6,1,8.8,0.8,12.5-2.7c1.7-1.6,3.9-2.4,6.2-2.4c5.5,0,10.9,0.2,16.2,1.9
						c8.1,2.5,12.9,8.2,14.9,16.3c1.2,5,2.6,10,3.3,15.5c1.8-1.3,2.7-2.9,3.9-4.2c1.5-1.6,3-3.2,5.3-1.6c1.7,1.2,1.4,3-0.5,5.5
						c-1.4,1.8-2.7,3.5-4.3,5.6c1.9,0.4,3.1-0.3,4.4-0.4c1.7-0.2,3.2,0.3,3.6,2.1c0.5,1.8-0.6,2.9-2.2,3.6c-1.2,0.5-2.4,0.8-3.7,1.3
						c1.3,1.8,2.8,3.1,4.5,4.1c2.7,1.6,4.9,3.7,7.3,5.7c2.2,1.8,2.9,4.3,2,7.1c-2,6.1-6.4,9.4-12.6,10.2c-10.3,1.3-20.7,1.4-31,0.9
						c-2.1-0.1-3.2,0.2-4.4,2.3c-3.4,5.9-9.1,8.5-15.7,8.9c-9.3,0.4-18.7,0.4-28.1,0.9c-5.5,0.3-10.8,1-16.1,2.6
						c-7.4,2.1-14.8,1.8-22.1-0.3s-9.2-6.1-6.6-13.2c0.5-1.3,1-2.6,0.4-4c-1.9-4.3-1.5-8.5,0.2-12.7c0.9-2.2,0.1-2.8-2-2.6
						c-1.4,0.1-2.9,0.1-4.3-0.1c-2-0.4-3.7-1.3-3.9-3.6c-0.2-2.1,1.3-3.3,3-4.1c1-0.5,2.1-0.8,3.1-0.9c1.9-0.1,2.5-1.1,2.5-2.8
						s0.1-3.5,0.4-5.2c0.2-1.5,1.1-2.7,2.8-2.9c1.8-0.2,2.9,0.9,3.4,2.6C139.3,204,139.6,205.8,140.1,208.5z M236.7,232.1
						c5.5-0.3,12-0.6,18.6-1.1c2.8-0.2,5.4-1,7.3-3.2c1.8-2.1,1.8-3.4-0.3-5.1c-3.3-2.6-6.4-5.6-10-7.4c-6.1-3.1-8.7-7.8-9.1-14.4
						c-0.3-5.5-1.2-11-3.1-16.3c-1.4-3.9-3-7.8-6.7-9.9c-7.8-4.4-15.9-6.8-24.2-0.8c-3.3,2.4-7,2.9-10.9,2.1
						c-2.8-0.5-5.6-0.9-8.3-1.5c-9.8-1.8-17.3,4.6-21.3,11.6c-3.1,5.3,0.5,10.9,6.6,11.1c2.8,0.1,5.7-0.3,8.4,0.1
						c12.2,1.8,16.1,5.5,15.9,15.3c-0.1,6.1,2,10,6.7,13.1c0.8,0.5,1.6,1.2,2.4,1.9c2.5,2.1,5.4,3.3,8.7,3.5
						C223.5,231.4,229.6,231.8,236.7,232.1z M216.9,237c-3.3-0.5-6-1.2-8.4-2.6c-2.5-1.5-4.6-3.6-6.9-5.3c-5-3.5-7.3-8.2-7.5-14.3
						c-0.3-7.8-2.7-10.1-10.6-10.9c-3.9-0.4-7.8-0.8-11.7-1.2c-3-0.3-5.7-1.6-7.6-3.9c-1.6-2-2.9-1.7-4.6-0.5
						c-10.1,7.1-17.3,16.2-20.9,28.1c-0.4,1.3-0.7,2.7-0.3,4c1.2,3.9,0.9,7.7-0.6,11.4c-0.7,1.8-0.1,3.2,1.7,3.9
						c1.1,0.4,2.2,0.9,3.4,1.1c6.3,1.3,12.6,1.3,18.8-0.7c3.8-1.2,7.7-2,11.7-2.2c9.9-0.5,19.8-1.1,29.7-1
						C208.3,243.1,213,241.7,216.9,237z"/>
					<path class="st1" d="M418.9,472.2c0.2-5.3,2-10.5,4.5-15.5c1.8-3.7,2.2-7.5,1.1-11.4c-1.5-5.1-2.3-10.1,1.3-14.5
						c4.5-5.5,10-9.5,17.5-9.9c5.2-0.3,10.4-0.8,15.2,1.7c1.2,0.7,1.6-0.2,1.9-1.2c0.7-2.2,1.3-4.4,2-6.5c0.7-2,1.8-3.7,4.4-3.1
						c2,0.5,2.6,2.4,1.7,5.2c-0.6,2-1.2,4-1.8,6c-0.5,1.6,0,2.1,1.6,1.4c1.8-0.7,3.5-1.5,5.3-2.1c1.9-0.6,3.7-0.3,4.4,1.9
						c0.7,2-0.5,3.3-2.3,4c-1.5,0.7-3.7,0.8-4.2,2.1c-0.5,1.2,1.6,2.4,2.2,3.8c2.4,5.2,3.3,10.9,5.1,16.4c2.6,7.8,6.2,15.3,9.6,22.8
						c1.7,3.9,3.2,7.7,2.3,12.1c-0.7,3.4-3,5.5-6.5,5.3c-4.2-0.2-8.1-1.8-12.2-2.7c-5.4-1.3-10.6-3-16.1-4c-5.7-1.1-11,0.4-16.3,1.8
						c-3.4,0.9-6.7,1.5-10.2,0.7C422.4,485,418.3,479.6,418.9,472.2z M446.9,426.7c-4.5-0.1-6.7,0.6-11.5,3.7
						c-4.9,3.1-6.3,5.8-4.6,11.2c2,6.3,0.9,11.9-1.6,17.7c-1.7,3.9-3.1,8-3.5,12.2c-0.6,5.5,2.4,9.4,7.4,9.8c1.8,0.1,3.4-0.4,5-1.1
						c8.8-4.2,17.8-4.3,27-1.6c5.2,1.5,10.5,2.8,15.6,4.6c2.8,1,3.7,0.2,3.1-2.8c-0.1-0.5-0.3-1.1-0.5-1.6
						c-1.7-4.2-3.2-8.5-5.4-12.5c-3.9-7.3-5.5-15.6-8.9-23.1C464.7,433.7,458,427.2,446.9,426.7z"/>
					<path class="st1" d="M956.7,375.6c-0.1-10.8,3.9-20,11.4-27.7c2.5-2.6,3.8-5.7,4.5-9.1c0.7-3,1.1-6.1,2.6-8.9
						c1.8-3.4,4.2-5.9,8.3-6.3c2.3-0.2,2.9-1.1,2-3.4c-0.7-1.6-0.9-3.3-0.6-5.1c0.2-1.6,1.1-2.7,2.8-2.9c1.8-0.2,2.9,0.9,3.4,2.5
						c0.5,1.5,0,4.1,1.4,4.4c1.6,0.4,2.2-2.3,3.5-3.3c0.1-0.1,0.1-0.1,0.2-0.2c1.4-1.7,3-2.8,5.2-1.3c1.7,1.2,1.5,3.2-0.2,5.5
						c-1,1.3-2,2.6-3,3.9c-1,1.2-0.8,2.1,0.6,2.8c2.3,1.3,3.7,3.4,5,5.7c1.4,2.6,3.4,4.4,6.1,5.6c2.3,1,4.5,2.3,6.7,3.7
						c3.1,2.1,4.4,5.1,4.8,8.7c0.3,2.7,0.8,5.4,1.2,8.1c0.3,1.6,0.9,2.9,2.1,4c4.9,4.7,5.7,10.6,4.8,16.8c-0.7,5.2-4.9,6.8-9,7.8
						c-6.1,1.5-12.3,0.7-18.2-1.3c-3.7-1.2-7.2-3.1-11.1-3.6c-5.1-0.7-10,0.1-14.8,1.4c-3.4,0.9-6.8,1.3-10.1,2
						c-2.3,0.5-4.5-0.2-6.7-0.9c-1.9-0.6-2.5-2.3-2.6-4.1C956.6,378.9,956.7,377.3,956.7,375.6z M963,371.8c0.1,6.7,1.6,7.9,6.9,6.4
						c2.9-0.8,5.9-0.8,8.9-1.3c9.2-1.6,18.3-1.2,26.8,3.1c1.8,0.9,3.8,1.3,5.8,1.5c2.7,0.3,5.3-0.4,7.7-1.4c4.3-1.8,4.8-8.2,0.8-12
						c-3.2-3-4.6-6.6-4.7-10.9c0-1.3-0.1-2.5-0.3-3.8c-0.6-3.6-1.6-6.8-5.9-7.7c-2.1-0.4-3.7-2-4.9-3.7c-3-3.9-6.4-7.4-9.9-10.8
						c-3.3-3.2-8.4-3-11.2,0.7s-4.9,7.8-5.3,12.4c-0.5,5.3-3.1,9.1-7.1,12C964.8,360.5,963.7,366.6,963,371.8z"/>
					<path class="st1" d="M717.1,464c-1.5,0-2.9,0.1-4.4,0c-7.9-0.5-11.6-7.3-7.7-14.4c0.5-0.9,1-1.8,1.7-2.4
						c4.7-4.3,9.3-8.8,15.9-9.8c1.3-0.2,1.8-0.9,2-2.2c0.2-1.4,0.6-2.7,1.4-3.8c1-1.4,2.4-2.1,4-1.3c1.7,0.7,2.1,2.1,1.7,3.9
						c-0.1,0.3-0.2,0.5-0.2,0.8c-0.2,0.7-0.9,1.6,0,2.2c0.7,0.4,1.3-0.4,1.9-0.7c1.1-0.5,2.1-1.1,3.2-1.4c1.6-0.5,3.1-0.1,4,1.5
						c0.8,1.6,0.4,3.2-1.1,4c-2,1.1-1.6,2.1-0.1,3.2c2.5,2,2.6,4.5,1.9,7.4c-1.6,6.1-5.1,10-11.3,11.6
						C725.8,463.7,721.6,464.5,717.1,464z M726.5,443.2c-5.8,0.4-11.1,2.1-14.4,7.3c-3.2,5.1-2.4,6.5,3.5,7.4
						c5.6,0.9,10.8,0.5,15.6-2.7c2.5-1.6,4.5-5.4,3.4-7.1C732.8,445.2,730.5,442.7,726.5,443.2z"/>
					<path class="st1" d="M975.3,508c0-2.4,0.6-4.2,2.8-4.4c2.3-0.3,3.2,1.3,3.6,3.2c0.9,4.4,2.9,8.2,7.1,10.4
						c1.6,0.8,2.4,2.3,1.6,4.1c-0.8,1.8-2.5,2-4.2,1.5c-2.9-0.9-5-2.9-6.7-5.3C977.3,514.5,975.7,511.2,975.3,508z"/>
					<path class="st1" d="M943.8,522.2c-0.1,4.9-7.1,11.6-11.4,11.4c-1.4,0-2.5-0.6-2.9-2c-0.5-1.5-0.1-2.9,1.3-3.5
						c3.3-1.6,5.8-3.9,7.4-7.3c0.6-1.3,2.1-1.7,3.6-1.2C943.2,520.2,943.8,521.4,943.8,522.2z"/>
					<path class="st1" d="M154.8,578.5c-0.3,4.9-3.3,9.6-8.6,12.9c-1.5,0.9-3.2,1.4-5,1.1c-1.5-0.2-2.5-1.1-2.7-2.7
						c-0.2-1.4,0.5-2.6,1.8-3c5.7-1.6,7.8-5.6,7.9-11.2c0-2.1,1.2-3.4,3.4-3.4C153.9,572.3,154.8,574,154.8,578.5z"/>
					<path class="st1" d="M162,609.9c0-2.5,0.2-4.9,1-7.3c0.6-1.9,1.7-3.6,3.4-4.8c1.5-1,3.1-1.2,4.4,0.3c1.2,1.3,1.2,2.9,0,4.2
						c-2.7,2.9-2.4,6.5-2.4,10c0,1.2,0.7,2.2,1.3,3.2c1,1.4,1.2,2.9-0.2,4.2c-1.5,1.4-3,1-4.4-0.2C162.1,617,161.9,613.5,162,609.9z
						"/>
					<path class="st1" d="M211.9,512.6c-0.3-0.1-0.7-0.1-1.1-0.3c-5.6-2.8-9.8-6.9-11.2-13.2c-0.5-2,0-3.7,2.2-4.3
						c2-0.6,3.4,0.5,4,2.4c1.2,4.2,3.8,7.2,7.4,9.4c0.9,0.6,1.7,1.4,1.9,2.6C215.3,510.9,214,512.5,211.9,512.6z"/>
					<path class="st1" d="M219.5,533.7c-0.1-5.6,7.2-11.5,12.3-10.4c1.5,0.3,2.5,1.2,2.6,2.7s-0.6,2.9-2.1,3.1
						c-3.5,0.6-5.6,2.5-7,5.7c-0.6,1.4-2.1,2-3.7,1.5C220.2,535.8,219.6,534.7,219.5,533.7z"/>
					<path class="st1" d="M841.9,494.3c0.1,4.1-1.2,7.9-3.5,11.3c-1.2,1.7-2.8,2.9-4.8,1.6c-2.1-1.3-1.7-3.2-0.6-5
						c2.7-4.2,2.9-8.7,1.4-13.4c-0.1-0.2-0.1-0.3-0.2-0.5c-0.7-2.8,0-4.7,2-5.2c1.9-0.5,3.5,0.7,4.4,3.4
						C841.5,489.1,842,491.7,841.9,494.3z"/>
					<path class="st1" d="M873,507.6c2.6,0,4.4,2.7,2.8,4.6c-3.1,3.8-2.6,8.1-2.7,12.4c0,1,0,2-0.1,3c-0.2,1.5-1.1,2.5-2.7,2.6
						c-1.6,0.1-2.9-0.6-3.1-2.1c-0.7-5.9-1.4-11.9,1.7-17.5C869.8,509,871.2,507.8,873,507.6z"/>
					<path class="st1" d="M839.3,466.1c0.1-2.5,0.7-4.2,2.9-4.4c2.1-0.2,3.2,1.1,3.5,3c0.5,3.4,2.3,6.1,5.2,8
						c1.7,1.2,2.9,2.7,1.7,4.8c-0.9,1.7-3.1,1.9-5.3,0.5C842.7,475.1,840,471,839.3,466.1z"/>
					<path class="st1" d="M900.7,422.6c-0.8,5-3.7,9.3-8.5,12.3c-1.5,0.9-3.2,0.9-4.4-0.7c-1.2-1.7-0.6-3.3,0.9-4.5
						c2.9-2.2,4.9-5,5.6-8.7c0.4-1.9,1.6-3.1,3.7-2.8C899.8,418.3,900.8,419.9,900.7,422.6z"/>
					<path class="st1" d="M926.8,418c-1.3,3.2,0.3,5.7,2.5,8.3c1.1,1.2,0.9,2.7-0.3,3.9c-1.1,1.1-2.4,1-3.8,0.3
						c-4.3-2.3-6.7-9.5-4.7-13.9c0.8-1.6,1.9-2.7,3.9-2.3C926.1,414.8,926.8,416.1,926.8,418z"/>
					<path class="st1" d="M236.2,579.4c-5.7-0.5-10.8-2-13.8-7.4c-1.1-1.9-1.6-3.9-1.2-6c0.4-1.7,1.4-2.8,3.2-2.7
						c1.7,0,2.6,1.1,3,2.7c1.3,5.1,2.6,6.3,7.8,7.1c0.5,0.1,1.1,0.1,1.6,0.2c2,0.3,3.7,1,3.5,3.3C240.1,579,238.2,579.4,236.2,579.4
						z"/>
					<path class="st1" d="M231.3,604.5c-2.3,0.1-4.1-0.3-4.5-2.7c-0.3-1.9,1.2-3.4,3.8-3.7c4.1-0.5,7.4,1,10.1,4.1
						c1.3,1.4,1.6,3.1,0.1,4.6c-1.4,1.4-3,1-4.4-0.2C234.8,605.3,233.2,604.2,231.3,604.5z"/>
					<path class="st1" d="M988,464.8c4.1-0.1,7.7,1.3,10.8,3.8c1.6,1.3,2.7,2.9,1.3,4.9s-3.3,1.5-5,0.2c-2.4-1.8-5.1-2.6-8.2-2.4
						c-0.8,0.1-1.6,0-2.4-0.1c-1.6-0.3-2.6-1.3-2.6-3c0-1.6,0.8-2.6,2.3-3C985.4,464.9,986.7,464.9,988,464.8z"/>
					<path class="st1" d="M298.6,559.4c-4.7-0.2-9.4-1.8-12.1-7c-0.8-1.5-1.1-3.1,0.2-4.6c1.4-1.6,3.9-1.3,5,0.8
						c1.7,3.3,4.5,4.5,8,4.6c3.3,0.1,4.8,1.2,4.7,3.2C304.3,558.5,302.7,559.4,298.6,559.4z"/>
					<path class="st1" d="M506.4,171.3c-4.5,0-11-4.9-12.2-9.2c-0.5-1.6-0.1-2.9,1.3-3.8c1.3-0.8,2.7-0.5,3.7,0.6
						c0.7,0.8,1.3,1.7,2,2.6c1.5,2,3.3,3.6,6,3.9c1.8,0.2,3.2,1.2,3,3.2C510,170.7,508.3,171.3,506.4,171.3z"/>
					<path class="st1" d="M509.5,191.3c0,1.2-0.3,3.4-2.9,3.5c-2.5,0.1-3.1-1.8-3.3-3.8c-0.2-2.5-1.3-4.4-3.4-5.9
						c-1.7-1.2-2.7-2.9-1.2-4.9c1.4-1.9,3.4-1.5,5.1-0.3C507.5,182.4,509.4,185.9,509.5,191.3z"/>
					<path class="st1" d="M795,490.2c0,1.2-0.3,1.9-0.8,2.6c-2.7,3.9-5.4,7.7-8.2,11.6c-0.3,0.4-0.6,0.7-0.9,1c-2,2.1-4,2.5-5.5,1.1
						s-1.2-3.1,0.6-5.5c2.9-3.7,5.6-7.6,8.4-11.4c0.9-1.3,2-2.4,3.8-2.2C794.2,487.7,795,488.8,795,490.2z"/>
					<path class="st1" d="M548.1,451.1c-3.7-0.1-6.5-1.5-8.4-4.5c-0.9-1.6-1.1-3.2,0.5-4.4c1.6-1.2,3.2-0.8,4.3,0.7
						c1.4,2,3.2,2.5,5.4,2.1c2.1-0.4,4.3-0.3,4.6,2.4c0.3,2.7-1.9,3.1-4,3.5C549.7,451,548.8,451,548.1,451.1z"/>
					<path class="st1" d="M622.4,447.9c0-2.7,0.5-5.4,1.3-8c0.5-1.6,1.3-3,2.6-4s2.7-1.2,4-0.2s1.7,2.5,0.9,3.9
						c-2.1,3.4-2.4,7.1-2.4,11c0,2.1-0.6,3.9-3.1,4c-2.3,0-3-1.7-3.3-3.6C622.4,449.9,622.4,448.9,622.4,447.9z"/>
					<path class="st1" d="M913.4,474.4c-4.9-0.4-9.5-2.1-12.7-6.5c-1.5-2.1-1.2-4.2,0.5-5.2c1.6-0.9,3.1-0.6,4.2,0.8
						c2.3,3.1,5.5,4.3,9.1,4.8c2,0.3,3.5,1.4,3.1,3.7C917.2,474,915.5,474.5,913.4,474.4z"/>
					<path class="st1" d="M329.8,613.6c-4.4-0.1-8.1-4.7-7.3-8.7c0.3-1.5,1.1-2.5,2.7-2.7c1.5-0.2,2.8,0.5,3.2,2
						c0.5,1.9,1.4,3.2,3.4,3.7c1.5,0.4,2.1,1.8,1.7,3.3C333,613.2,331.4,613.6,329.8,613.6z"/>
					<path class="st1" d="M679.8,444.6c-0.3,3.9-2.3,7.5-5.5,10.3c-1.4,1.3-3.1,1.7-4.6,0.2s-1-3.2,0.2-4.6c1.8-2,3.2-4.1,3.4-6.9
						c0.2-3,1.4-4.4,3.5-4.2C678.7,439.5,679.9,441.3,679.8,444.6z"/>
					<path class="st1" d="M570.2,172.8c-1.3-0.1-2.5-0.7-3.5-1.4c-3.1-2.3-5-5.4-6.1-9.1c-0.6-1.8-0.2-3.5,1.8-4.3
						c2-0.7,3.4,0.3,4.1,2.1c1.2,3,2.7,5.7,5.6,7.4c1.2,0.7,1.6,2,1.1,3.4C572.7,172.2,571.6,172.8,570.2,172.8z"/>
					<path class="st1" d="M812.3,308.2c0,5.1-3.3,10.2-7.3,11.8c-1.9,0.8-3.9,1-5-1.2c-1-2,0.1-3.4,1.8-4.5c3-1.7,4.5-4.2,3.5-7.7
						c-0.2-0.7-0.2-1.4-0.1-2.2c0.2-1.7,1.1-2.9,2.9-3.1c1.7-0.2,2.8,0.7,3.3,2.3C811.9,305.5,812.1,307.3,812.3,308.2z"/>
					<path class="st1" d="M901.9,318.2c-3.9-0.1-9.4-5-9.9-8.9c-0.2-1.5,0.2-2.7,1.6-3.4c1.5-0.7,3-0.5,3.9,0.9
						c1.7,2.7,3.6,4.8,6.8,5.9c1.4,0.5,1.7,2.1,1.2,3.5C904.8,317.8,903.5,318.2,901.9,318.2z"/>
					<path class="st1" d="M885.1,324.8c-0.1,3.7-1.7,6.6-4.5,8.8c-1.6,1.2-3.4,1.7-4.9,0c-1.4-1.6-0.9-3.2,0.5-4.6
						c1.5-1.5,2.5-3,2.2-5.3c-0.3-2.1,0.3-3.9,2.7-4.3c1.9-0.3,3.4,1.1,3.8,3.7C885,323.7,885.1,324.3,885.1,324.8z"/>
					<path class="st1" d="M762.7,268.9c-0.4,4.9-2.1,9.3-4.8,13.4c-1,1.6-2.6,2.4-4.4,1.4c-1.8-1-2.1-2.7-1.2-4.5
						c2-3.8,3.6-7.7,4.2-12c0.2-1.8,1.5-2.9,3.5-2.7C761.8,264.8,762.8,266.4,762.7,268.9z"/>
					<path class="st1" d="M781.4,257.8c0,2.5-2.1,3.9-4.4,3.1c-4.4-1.5-7.2-9.2-5-13.2c0.7-1.2,1.7-1.9,3.1-1.7
						c1.4,0.2,2.6,1,2.6,2.4c0,3.3,0.7,6.2,3.4,8.5C781.4,257,781.4,257.6,781.4,257.8z"/>
					<path class="st1" d="M708.5,334.7c1.9,0,3,0.7,3.5,2.1c0.5,1.5,0.1,2.9-1.2,3.6c-4.3,2.2-6.6,6-8.6,10.2
						c-0.8,1.7-2.3,2.7-4.3,1.8c-1.7-0.7-2.2-2.3-1.7-3.9c1.9-5.4,4.9-10.1,10-13.1C707,335.1,707.9,334.9,708.5,334.7z"/>
					<path class="st1" d="M707,318.8c0.1-1.8,0.1-3.6,0.7-5.4c0.6-1.7,1.8-2.7,3.7-2.4c1.8,0.4,2.6,1.7,2.5,3.4
						c-0.2,2.9-0.9,5.9,1,8.6c0.6,0.9,0,2.1-0.8,2.9c-1.1,1-2.3,1-3.6,0.5C707,325,706.9,321.9,707,318.8z"/>
					<path class="st1" d="M227.4,212.5c0-2.2,0.1-3.7,0.7-5.2c0.7-1.8,1.9-3,3.9-2.5c2.1,0.5,2.6,2.1,2.3,4
						c-0.2,1.3-0.4,2.7-0.4,4.1c-0.1,1.4,0.6,2.6,1.6,3.7c1.2,1.4,1.5,3,0,4.4c-1.4,1.4-3,1-4.5,0
						C228.1,218.6,227.5,215.3,227.4,212.5z"/>
					<path class="st1" d="M228.4,195.1c-4-0.7-8.5-1.7-12-5.1c-1.6-1.5-2.5-3.4-0.9-5.2c1.6-1.9,3.2-0.6,4.7,0.5
						c2.8,2.1,5.7,4.2,9.4,4.5c1.7,0.1,3.3,1,2.9,3.2C232.2,194.8,230.7,195.2,228.4,195.1z"/>
					<path class="st1" d="M187.3,230.7c-0.3-0.1-0.9-0.1-1.3-0.4c-3-1.9-5.7-4.2-7.5-7.4c-0.8-1.5-1.1-3.1,0.6-4.1
						c1.6-1,3-0.1,3.9,1.4c1.4,2.4,3.6,4,5.8,5.7c1.1,0.8,1.6,2,1.1,3.4C189.5,230.2,188.6,230.7,187.3,230.7z"/>
					<path class="st1" d="M168.6,213.9c0,2.2-5.2,8.6-7.3,8.9c-1.1,0.2-2-0.2-2.6-1.1c-0.6-0.9-0.6-2,0.1-2.8
						c1.8-2.3,3.6-4.5,5.5-6.7c0.7-0.8,1.7-1,2.7-0.6C168.1,211.9,168.5,212.8,168.6,213.9z"/>
					<path class="st1" d="M455.9,452.7c-3.5,0.1-9.6-4.1-10.8-7.4c-0.5-1.5-0.3-2.9,1-3.9c1.4-0.9,3-0.8,3.9,0.4
						c1.9,2.5,4.4,4,7.1,5.2c1.4,0.6,2,1.9,1.6,3.4C458.5,452,457.4,452.7,455.9,452.7z"/>
					<path class="st1" d="M988.6,353.4c0.2-2.1-0.2-4.1-0.9-6.1s-0.7-3.8,1.6-4.8c1.8-0.8,3.6,0.3,4.6,2.7c1.2,2.8,1.5,5.8,1.2,8.8
						c-0.3,2.9-1.8,4.6-3.8,4.5C989.1,358.3,988.3,356.7,988.6,353.4z"/>
				</g>
			</g>
		</g>
	</g>
</g>
<g id="pollution">
	<g id="_xFFFD__x8B__x95__xFFFD__x85__x8B__xFFFD__x89_拐辣_2_">
		<g id="瘙_x22A5__x9F__x93__xFFFD__x92__x8C_瘞湔_xFFFD__xF880__xA0_影像_2_">
			<g>
				<path class="st1" d="M902.5,595.3c-3.7-0.5-7.3-0.8-10.7-1.5c-6.2-1.3-12.1-0.3-17.4,2.6c-5.9,3.2-11.4,7-17.1,10.5
					c-4.3,2.7-8.6,5.4-12.9,8.1c-4,2.4-8.5,3.3-13.1,2.9c-5.9-0.5-11.9-1.1-17.8-2.3c-5.9-1.2-9.8-4.9-10.8-11.2
					c0-0.1-0.1-0.2-0.1-0.3c-0.9-8.6-6.4-12.4-14.4-13.7c-12.4-2.1-23-8.2-33.3-15c-7.1-4.7-7.6-11.1-2.2-17.7
					c0.5-0.6,1-1.3,1.6-1.9c1.1-1.3,0.8-2.4-0.6-3.1c-2.2-0.9-4.4-1.6-6.6-2.5c-4.4-1.8-9-3.5-13.3-5.5c-7.6-3.6-5.3-16.3-0.1-19.9
					c0.5-0.3,1.6-0.3,2.1,0.1c1.7,1.4,3.6,2.9,4.9,4.6c5.7,7.4,13.2,9.2,21.9,7.4c3.4-0.7,6.7-1.7,9.9-2.9c6.7-2.6,13-0.9,19.3,1.5
					c4.5,1.7,5.8,6,7.8,9.7c2,3.9,4,4.7,8.3,4c2.2-0.4,4.6,0,6.9,0.2c3.5,0.2,7,0.5,10.5,0.9c4.3,0.4,8.8,0.3,12.8,1.6
					c5.4,1.7,10.4,1,15.5-0.2c4.4-1,8.4-0.8,12.8,0.5c3.6,1,7.7,0.4,11.5,0.5c3.3,0.2,6.8,0.1,10,0.9c1.9,0.5,3.8,2.2,5.1,3.9
					s1.8,3.9,2.5,6c2.4,7.4,8.3,12.1,16.2,11.5c7.6-0.6,15.1-2.1,22.6-3.2c1.1-0.2,2.1-0.6,3.2-0.7c12.5-0.5,23.3-5.8,34.1-11.4
					c7.5-3.9,14.8-8.1,22.2-12.1c4.7-2.6,9.8-2.5,14.9-2c5.8,0.5,11.6,2,17.3,1.8c5.5-0.2,11.1-1.7,16.4-3.4c1.7-0.5,2.8-3.3,4-5.1
					c2.4-3.6,4.5-7.4,7.2-10.7c1.1-1.3,4.1-2.3,5.3-1.6c1.7,0.9,2.6,3.4,3.5,5.4c0.4,0.8,0.3,2,0.1,3c-1.9,8.6-3.4,17.1-11.9,22.5
					c-6.3,4-12.4,6.8-20,7.5c-13.8,1.2-27.6,3.3-40.6,8.9c-4.9,2.1-9.6,4.7-14.1,7.5c-3.9,2.4-7.7,3.8-12.4,4
					c-11.1,0.5-22.2,1.1-33.1,2.7c-7.4,1.1-14.5,4.1-21.7,6.1C906.7,594.7,904.6,594.9,902.5,595.3z"/>
				<path class="st1" d="M607.8,460.8c2.4,0,4.9-0.1,7.3,0c2.7,0.1,4.3,1.5,5.6,4c1.8,3.5,2.6,6.6,1.6,10.6c-0.8,3.4,1.2,6.1,4,8
					c1,0.6,1.5,2.3,1.9,3.6c0.6,2.5,0.9,5.2,1.3,7.8c0.2,1.1,0.4,2.4,0.1,3.5c-1.7,6.4-13.9,13.7-20.8,8.4c-1-0.8-2.2-1.3-3.3-1.9
					c-2-1.1-3.9-1-5.9,0c-4.3,2.3-8.7,4.5-13.2,6.4c-6.9,2.9-10.9,1.8-14.5-4.5c-3.7-6.3-9.8-7.7-15.9-9.2c-1.7-0.4-3.4-0.5-5.1-0.8
					c-6.3-1.2-11-4.7-12.8-10.9c-0.8-2.9-0.9-6.3,1.9-8.7c5.6-5,11.2-10,18.1-13.3c3.9-1.8,6.2-4.9,7.4-9c1.5-5.3,2.9-10.7,4.2-16
					c0.8-3.1,2-6,4.7-8.1c3.9-3.1,5.4-7.2,5.6-12.1c0.2-5.5,1-11,1.8-16.4c0.2-1.3,0.9-2.7,1.8-3.6c1-0.9,2.5-1.6,3.8-1.7
					c0.5,0,1.3,1.9,1.6,3c1.9,6,3,12.5,5.8,18.1c2.2,4.3,1.7,7.5-0.3,11.3c-4,7.8-3.4,15.9-1,23.9c1.4,4.5,4.3,7.8,9.6,7.7
					c1.6,0,3.3,0.3,4.9,0.5C607.8,461.1,607.8,461,607.8,460.8z"/>
				<path class="st1" d="M330.7,590c4.1-5.3,8-10.6,12-15.7c2.6-3.3,6.9-4.2,10.5-1.8c2.2,1.5,4.3,3.5,5.6,5.7
					c1.6,2.7,3.3,2.9,6.1,2.3c4.7-1,9.5-1.9,14.2-2c7.5-0.2,13.7,5.9,14.1,13.4c0.2,3,0,6-0.2,9c-0.2,4-0.1,4.6,3.9,5.4
					c5.3,1.2,10.7,2,16.1,3c4.9,0.9,9.5,2.4,13.1,6.1c4.3,4.4,6.5,9.5,6.3,15.7c-0.2,5.6-3.8,10.3-9.3,11.7c-3.6,0.9-7.3,1-10.7-0.7
					c-8.3-4.1-17.1-4.7-25.8-3.3c-12.9,2.1-23.8-2.4-34.1-9c-2.3-1.5-4.1-3.9-6-5.9c-1.5-1.6-1.3-3.3,0.2-4.9
					c0.8-0.8,1.6-1.5,2.4-2.2c5.3-3.7,5.3-9.2,2.2-14.7c-4-6.9-10.9-8.8-17.7-11.2C332.7,590.6,331.8,590.3,330.7,590z"/>
				<path class="st1" d="M490.5,542.1c-1.1,0-2.2,0-3.3,0c-10,0-17.3-4.2-21.5-13.4c-0.2-0.3-0.4-0.6-0.5-1
					c-2.2-5.5-6.1-8.2-12.1-8.9c-8.5-0.9-14.5-5.4-16.4-14.3c-0.2-0.9-1.1-2-2-2.3c-2.8-1.1-5.7-2.3-8.7-2.8
					c-5.9-1.1-10.1-4.5-13-9.5c-2.5-4.3,0.2-11.9,4.9-13.1c2.3-0.6,5.2,0.8,7.8,1.5c0.9,0.2,1.7,1,2.6,1.5c3.8,2.4,7.5,3.2,12,1.2
					c4.7-2.1,10-1.7,15-0.9c9.8,1.6,19.5,3.2,29.2,5c2.9,0.5,5.8,1.7,8.4,3c3.1,1.5,4,5.6,2.8,9.6c-0.9,2.9-1.5,5.9-1.9,9
					c-0.3,2.8,1,5.1,3.6,6.5c2.1,1.1,4,2.4,6.1,3.6c3.3,1.9,5,4.7,4.8,8.5c0,1,0,2-0.1,3c-0.6,9.2-5.5,13.8-14.7,13.9
					C492.7,542.2,491.6,542.2,490.5,542.1C490.5,542.2,490.5,542.1,490.5,542.1z"/>
				<path class="st1" d="M214,419.2c2.7,0.6,5.4,1.1,8.2,1.7c2.2,0.4,4.4,1,5.1,3.4c0.7,2.4-0.9,3.9-2.2,5.5c-3,3.5-6.2,6.9-9,10.6
					c-2.3,3.1-1.8,4,1.3,6.1c2.3,1.5,4.6,2.9,6.6,4.8c4.2,3.8,4.2,8.3-0.1,11.9c-4.2,3.5-8.7,6.5-13,9.9c-1.9,1.5-3.6,3.2-6,5.5
					c3.1,1,5.2,1.9,7.5,2.3c4.1,0.8,8.2,1.4,12.3,2.1c0.8,0.1,1.8,0.2,2.3,0.7c0.7,0.8,1.6,2.1,1.5,3c-0.1,0.7-1.8,1.8-2.6,1.7
					c-6.8-1.1-13.7-2-20.3-4c-6.3-1.9-7.4-7-2.7-11.7c3.5-3.5,7.7-6.3,11.6-9.5c1.8-1.4,3.6-2.8,5.4-4.2c1.7-1.3,1.6-2.7,0-4
					c-1.8-1.4-3.7-2.6-5.6-3.9c-5.8-3.8-6.9-7.9-3.1-13.8c2.5-3.8,5.7-7.3,8.7-11c-2.5-0.6-5-1.1-7.5-1.9c-3.4-1.1-6.3-2.7-5.4-7.2
					c-5.7-0.9-11-2.6-15.6-5.9c-14-10-16.7-29.6-5.8-43.7c8.8-11.4,21-15.3,35-14.3c7.2,0.5,13.9,2.5,20,6.5
					c14.6,9.6,16.3,27,3.7,39c-2.3,2.2-5,4.2-7.8,5.9c-2.7,1.7-5.6,2.9-8.5,4.4c-0.2,3.9-1,5-4.9,6.2c-3,0.9-6,1.7-9,2.6
					C214,418.5,214,418.8,214,419.2z M223.4,371.8c-10.4-4.1-25.7,3.1-29.7,13.5c-3.8,9.8,0.3,17.8,10.6,20.4
					c12.7,3.2,31.1-3.5,38.8-14.1c5.5-7.5,5.3-15.5-1-22.3c-2.5-2.7-5.8-5-9.1-6.7c-6.7-3.4-13.9-3.9-21.3-3.2
					c-13,1.1-23.6,10.1-26.4,22.1c-1.3,5.4-1,10.6,1.6,15.6c-1.2-6.9,0-13.3,4-19c7.2-10,17.3-13.9,29.4-13.2
					c4.5,0.3,8.7,1.7,12.2,4.7c3.3,2.9,5,6.6,4.2,10.9c-0.8,4-1.6,8.2-6.6,9.2c-0.5,0.1-1,0.5-1.5,0.7c-7,3-14.1,3.5-21.1,0.4
					c-4.9-2.1-6-6.8-3-11.3c2.1-3.2,5.1-5.2,8.8-6C216.4,373,219.7,372.5,223.4,371.8z M215.1,387.1c-0.4-2.8-0.7-5.1-1-7.8
					c-1.2,0.7-2.4,1.1-3.1,1.9c-0.9,0.9-1.5,2.2-2.2,3.3c1.1,0.7,2.1,1.5,3.3,2C212.9,386.9,213.9,386.9,215.1,387.1z M221.4,386.2
					c2.3-2.1,2-3.4-1.5-5.2C220.4,382.7,220.9,384.3,221.4,386.2z"/>
				<path class="st1" d="M765,221.7c-1.7-1.5-3.8-2.5-4.3-4c-0.7-2.4,1.7-3.5,3.4-4.7c1.6-1.2,3.3-2.2,4.9-3.5
					c2.4-1.9,2.4-2.7,0.3-4.8c-2.2-2.1-4.6-4.1-6.8-6.3c-3.6-3.6-3.4-6.8,0.9-9.7c2.7-1.8,5.7-3.2,8.9-4.9c-2.2-1.2-4.3-2.2-6.3-3.3
					c-6.5-3.6-7.1-7.6-2.2-13c0.7-0.7,1.3-1.4,2.1-2.3c-1.1-0.4-2.1-0.7-2.9-1.2c-1-0.7-2.7-1.5-2.8-2.4c-0.3-3.2-2.7-3.4-4.9-4.2
					c-18-6.9-23.4-26.4-11.7-41.7c10.1-13.2,30-18.2,45-11.1c3,1.4,5.8,3.4,8.2,5.7c7.4,7.1,7.8,17.1,1.4,25.1
					c-8.8,11-27.3,14-39.1,6.3c-5.3-3.5-7.5-8.1-6.5-13.6c0.6-3.4,2.7-5.9,5.4-7.9c8.7-6.2,24.9-4.9,32.5,2.6
					c2.7,2.7,3.3,5.1,2.2,9.5c4.6-3.4,5.6-10.3,2-15.5c-4.2-6-10.4-8.8-17.4-9.4c-11.7-1.1-21.8,2.7-29.2,12
					c-4.9,6.2-6.8,13.3-3.4,20.9c3.4,7.9,10,11.7,18.2,13c1.4,0.2,2.9-0.2,4.3-0.5c1.9-0.5,3.8-0.6,4.6,1.6c0.8,2.3-0.7,3.5-2.7,4.2
					c-0.3,0.1-0.6,0.3-1.2,0.7c1.2,0.3,2.1,0.6,3.1,0.9c3.8,1.2,4.5,4.3,1.6,7c-2.1,2-4.2,4-6.6,6.3c1.5,1,2.5,1.7,3.5,2.3
					c2.4,1.3,4.9,2.4,7.2,3.9c3.8,2.6,3.7,6.3-0.3,8.7c-2.1,1.2-4.4,2.2-6.6,3.3c-1.1,0.6-2.2,1.2-4,2.2c1.5,1.2,2.6,2.2,3.8,3.1
					c1,0.8,1.9,1.6,2.9,2.5c6,5.4,5.8,9.9-0.4,14.8c-0.6,0.4-1.1,0.9-1.9,1.5c2.1,2.2,1.4,4.5,0.5,7c-0.9,2.4-1.6,5-1.9,7.6
					c-0.2,1.3,0.5,2.9,1.2,4c1,1.5,1.5,2.9,0,4.1c-1.6,1.2-3.2,0.6-4.3-0.8c-2.2-2.7-2.8-5.9-2.3-9.3
					C763.7,226.1,764.5,223.6,765,221.7z M778.4,123.3c-5.6-2.2-12.9-1.4-17.2,2c-3.6,2.8-4,6.7-1,9.9c5,5.4,17.9,6.9,24.6,2.7
					c-0.9,0.2-1.5,0.3-2.1,0.4c-5.1,0.6-10.2,0.4-14.7-2.4c-3.9-2.4-4.1-6.9-0.5-9.7c1.1-0.9,2.5-1.6,3.8-1.9
					C773.6,123.7,776,123.6,778.4,123.3z M775.3,132.5c-0.1-1.4-0.1-2.3-0.2-3.6c-1.6,0.6-2.7,1.1-3.9,1.6c0,0.2,0.1,0.4,0.1,0.7
					C772.5,131.5,773.7,132,775.3,132.5z"/>
				<path class="st1" d="M192.9,119.5c2.1,1.9,3.6,3.1,4.8,4.4c2.8,2.9,2.9,5.6,0.5,8.8c-1.9,2.4-3.9,4.8-6.1,7.5
					c1.8,0.6,3.3,1.1,4.6,1.6c3.7,1.5,4.4,4.6,1.8,7.6c-1.5,1.7-3.2,3.1-5.1,4.9c1.1,0.6,2,1.1,2.9,1.6c3.6,1.8,5.6,4.8,6.5,8.6
					c0.4,1.6,0.2,3-1.5,3.6s-3-0.2-3.4-1.8c-1-4.2-4.1-5.9-7.8-7.2c-4.2-1.5-4.9-4.4-1.8-7.7c1.4-1.5,3-2.9,4.7-4.5
					c-1.1-0.4-1.9-0.8-2.8-1.2c-3.8-1.7-5-4.8-3-8.4c1.2-2.1,2.8-4,4.4-5.9c2.4-2.9,2.4-2.8-0.2-5.3c-0.5-0.5-1.1-1-1.6-1.5
					c-2.5-2.7-2.7-5.6-0.6-8.7c0.4-0.6,0.9-1.2,1.6-2.1c-2-0.1-3.8-0.2-5.5-0.3c-9.7-0.6-16.7-5.3-20.5-14.3
					c-3.7-8.8-1.6-16.8,4.3-23.9c12.5-14.9,34.8-13.9,47.1-4.2c5.7,4.5,6.1,10.8,0.7,15.6c-8.3,7.3-18.1,9.5-28.7,7
					c-6.9-1.6-8.8-8.6-4.3-14.1c5.3-6.4,17.7-8.9,25.1-5.1c3,1.5,4.3,4,4.2,7.4c2.1-2.2,2.3-4,0.1-5.6c-2.3-1.8-5-3.4-7.7-4.4
					c-10.3-3.8-20.1-2.9-28.8,4c-8.2,6.5-10.1,16.2-5,24.2c3.5,5.4,8.7,7.7,14.8,7.7c4.5,0,9-0.7,13.5-1.2c1.9-0.2,3.8-0.5,4.7,1.6
					c0.9,2.2-0.7,3.2-2.3,4.3C199.5,114.5,196.5,116.8,192.9,119.5z M191.3,88.5c5.7-1.1,10.7-2.2,14.7-5.8c2-1.8,1.7-2.9-0.7-3.6
					c-5.7-1.6-11-0.6-15.6,3.1c-1.1,0.9-1.9,3-1.7,4.4C188.1,87.5,190.3,88,191.3,88.5z"/>
				<path class="st1" d="M1032,388.5c-0.2,2.4-0.4,4.9-0.6,7.3c-0.4,5.4-3.5,9.2-8,11.5c-1.8,0.9-4.5,1.1-6.5,0.4
					c-3.5-1.2-7.1-2.7-9.8-5.1c-4.3-3.8-8.5-6.7-14.3-7.9c-4.4-0.9-8.2-8.7-7.6-13.1c0.5-3.6,3.7-5.8,7.7-4.9
					c3.4,0.8,6.9,1.8,10.1,3.3c4.8,2.1,9.3,3,14.2,0.1c3.8-2.2,10.4-0.7,13.2,2.8c1.1,1.4,1.4,3.6,2.1,5.4
					C1032.4,388.4,1032.2,388.5,1032,388.5z"/>
				<path class="st1" d="M349.8,501.2c0.1-5,1.4-9.6,3.9-13.8c5.5-9.1,13-16,22.2-21.2c4.5-2.5,9.3-3.6,14.4-3.2
					c2,0.2,3.8,0.6,4.5,2.8c0.7,2.1-0.4,3.6-1.8,5c-7.6,7.7-14.5,16-20.4,25.1c-2.1,3.3-4.6,6.3-7,9.3c-0.8,1-1.8,1.8-2.8,2.6
					c-2.9,2.1-6,2.6-9.2,1C350.5,507.4,349.6,504.5,349.8,501.2z M384.5,470.3c-0.8,0-1.2,0-1.5,0.1c-1.1,0.4-2.3,0.7-3.3,1.3
					c-9,4.8-16.4,11.4-21.2,20.6c-1.2,2.3-1.7,5.1-2.2,7.8c-0.2,1,0.5,2.1,0.8,3.2c1-0.5,2.3-0.7,3-1.5c2.1-2.3,4.1-4.9,6-7.4
					c5.6-7.3,11.1-14.6,16.6-21.9C383.3,471.8,383.8,471.2,384.5,470.3z"/>
				<path class="st1" d="M379,415.7c8,0.6,14.9,4.8,21.4,9.7c1.6,1.3,2.4,3.1,0.9,5c-1.4,1.8-3,1-4.9,0.3c-5.3-2-10.7-2.2-16.2-0.6
					c-3.7,1-7.6,1.8-11.4,2.2c-2.5,0.3-5.3-0.2-6.5-2.9c-1.2-2.7,0.1-5.2,1.9-7.2C367.9,417.8,372.9,415.8,379,415.7z M380.7,423.3
					c-4-1.6-8.3-0.3-10.1,2.8C374.2,425.1,377.5,424.2,380.7,423.3z"/>
				<path class="st1" d="M686.6,636.2c0.2,4.6-0.8,9.6-3,14.2c-0.7,1.4-1.4,2.9-2.6,3.8c-0.9,0.7-2.5,0.5-3.8,0.7
					c-0.1-1.3-0.9-3-0.3-3.9c3.8-5.6,4.3-11.8,4.1-18.3c-0.1-3.7-1.6-6-5.2-7c-1.9-0.5-3.8-1.3-5.6-2c-6.8-2.7-10.4-7.9-11.7-14.9
					c-0.4-2-0.2-4,2.2-4.5c2.5-0.5,3.5,1.3,3.7,3.3c0.8,6.6,4.7,10.1,10.7,11.9c0.1,0,0.2,0.1,0.3,0.1
					C685,623.1,686.6,625.3,686.6,636.2z"/>
				<path class="st1" d="M321.2,375.8c-0.5-4.9,0.5-8.8,3.3-12.3c2-2.5,4.6-4,7.7-4.7c8.3-1.8,11.6-5.8,11.9-14.4
					c0-0.5-0.1-1.3,0.1-1.6c0.8-1,1.7-2.5,2.6-2.5s2.4,1.4,2.6,2.4c1.8,7.8-3.6,17.4-11.3,20.3c-1.3,0.5-2.6,0.8-3.9,1.1
					c-4.8,1.2-7.2,4.1-7.3,9.1c0,1.9,0.2,3.8,0.2,5.7c0,1.9-0.8,3.5-2.9,3.6c-2.2,0-2.9-1.5-3-3.4
					C321.1,377.8,321.2,376.5,321.2,375.8z"/>
				<path class="st2" d="M380.7,423.3c-3.2,0.9-6.4,1.8-10.1,2.8"/>
			</g>
		</g>
	</g>
</g>
<g id="hand">
	<g id="_xFFFD__x8B__x95__xFFFD__x85__x8B__xFFFD__x89_拐辣_3_">
		<g>
			<defs>
				<path id="SVGID_1_" d="M53.9,341.1c-1.8,7.1-2.4,15.6-1.8,25.6c0.9,15,4.3,39.7,4.3,45.7c0,6-1.8,37.1,0,44.7
					c1.2,5,1.8,8.4,1.8,10.2l54-43.4l81.6-53l54.2-26.6l71.5-25.3l88.9-15.6h55.8l40.9,8l19,10.9l31.3,52.9h15.8v-8.5l-9.4-44.3
					l3.4-6.3l19.4-12.7l7.3,2l16.6,30.4l-1.8,35l6.9,8.3l10.5-10l32.9-17.1l5.4-22.5l-3.4-30.7l-22.1-35.3l-26.5-25l-42-18.6
					L524,205l-62.9-8.8h-46.6l-54.4,5l-76.9,18.9l-117.6,43.5l-41.8,20l-70,55.2V341.1z"/>
			</defs>
			<clipPath id="SVGID_2_">
				<use xlink:href="#SVGID_1_"  style="overflow:visible;"/>
			</clipPath>
			<g class="st3">
				<defs>
					<rect id="SVGID_3_" x="1.5" y="-18.7" width="1108" height="812"/>
				</defs>
				<clipPath id="SVGID_4_">
					<use xlink:href="#SVGID_3_"  style="overflow:visible;"/>
				</clipPath>
				<rect x="46.9" y="191.2" class="st4" width="620.5" height="281.1"/>
			</g>
		</g>
		<g id="_xFFFD__x89__x8B__xA0_影像_3_">
			<g>
				
					<image style="overflow:visible;enable-background:new    ;" width="1126" height="512" id="Hand_white_xA0_影像" xlink:href="C06B9353C01CA57.png"  transform="matrix(0.5412 0 0 0.5431 49.4223 193.8783)">
				</image>
				<g>
					<path class="st0" d="M609.6,405.7c-0.6-0.1-1.5,0.1-2.3-0.2c-8.9-3.7-19-2.6-27.8-7c-3.1-1.6-7.6-0.3-11.4-0.3
						c-1.9,0-3.8,0.3-5.6-0.1c-4-0.9-5.4-4.8-2.9-8c2.4-3,5.3-5.6,7.9-8.5c1.6-1.8,3.2-3.7,4.5-5.7s1.7-4.6,4.4-5.7
						c0.5-0.2,0.8-1.2,0.9-1.9c0.7-4,2.6-7.2,6.1-9.2c1-0.6,2.9-0.9,3.9-0.4c3.2,1.8,5.8,4.2,6.6,8.1c0.1,0.5,0.5,1.4,0.6,1.4
						c2.4-0.3,3.2,2,4.9,2.8c1.8,0.8,2.3,2,2.4,3.6c0.2,2.8,0.2,5.6,0.2,8.4c0,2.4,0.8,3.6,3.4,3.3c0.9-0.1,1.9,0.4,2.8,0.8
						c1.4,0.5,3,0.9,4,1.8c1.5,1.4,3.2,3.1,3.8,5c0.8,2.6,1.1,5.6,0.9,8.3c-0.3,2.8-3,3-5.3,3.4
						C610.8,405.7,610.3,405.6,609.6,405.7z"/>
					<path class="st0" d="M555.8,368.8c0.4-0.4,1-1.8,1.7-1.8c0.9,0,2.4,0.8,2.6,1.5c1.3,3.7,2.4,7.4,3.3,11.2
						c0.2,0.7-0.5,1.9-1.2,2.4c-0.4,0.3-1.9,0-2.3-0.5c-1.1-1.3-2.1-2.7-2.6-4.2C556.6,374.8,556.3,372.1,555.8,368.8z"/>
					<path class="st0" d="M643.9,357.6c0.8-4.1,2.5-7.2,5.6-9.3c0.6-0.4,1.9-0.5,2.5-0.2c0.6,0.3,1.1,1.7,0.9,2.2
						c-1.5,3-3.1,5.9-4.9,8.6c-0.4,0.6-2,0.8-2.9,0.5C644.5,359.3,644.2,358.1,643.9,357.6z"/>
					<path class="st0" d="M630.9,366.5c1.9-3.2,3.4-6.2,5.3-9c0.3-0.5,1.8-0.3,2.8-0.4c0.1,1,0.4,2.1,0.1,2.9c-0.9,2.5-2,5-3.3,7.4
						c-0.4,0.8-1.7,2.1-2.1,1.9C632.8,368.9,632.1,367.8,630.9,366.5z"/>
					<path class="st0" d="M610.4,376.4c1.2-2.7,2-5,3.2-7.2c0.8-1.4,2.4-2.1,3.6-0.8c0.5,0.5,0.1,2.2-0.2,3.2
						c-0.5,1.8-1.1,3.6-2,5.2c-0.5,1-1.7,1.6-2.6,2.4C611.8,378.3,611.2,377.4,610.4,376.4z"/>
				</g>
				<g>
					<path class="st1" d="M566.7,369.4c-0.3-2.2-0.5-4.5-1-6.7c-2.7-12.3-5.3-24.7-8.3-37c-1-4-0.2-7.6,2.8-9.9
						c6.4-4.9,13-9.5,19.9-13.7c4-2.4,8.3-1.3,11.8,2c0.7,0.7,1.5,1.4,2,2.2c4.5,7.9,9.1,15.7,13.2,23.8c3.1,6.3,3,13.4,2.5,20.3
						c-0.3,3.8-0.4,7.6-0.6,11.4c-0.1,1.3,0,2.7,0,4.6c3.6-4.1,7.7-3.4,12-2.1c7-16.1,11.3-32.4,4.4-49.5
						c-3.8-9.6-9.1-18.4-17.1-25.3c-2.8-2.4-3.4-4.1-2-5.6s3.2-1.1,5.8,1.4c10.8,10.3,18.5,22.4,21.2,37.3
						c2.1,11.5-0.1,22.6-3.8,33.5c-0.5,1.3-0.9,2.7-1.2,4.1c5.5-9.5,7.5-8.8,13.4-7.3c0.3-0.8,0.7-1.6,1-2.4
						c4.1-13.5,3.9-27-0.5-40.5c-3.5-10.7-8.7-20.3-16-28.9c-1.2-1.4-1.2-2.9,0.1-4.1c1.4-1.3,2.7-0.7,3.8,0.5
						c6.5,7.9,12.8,15.8,15.8,25.8c2.4,7.7,5.1,15.4,5.2,23.6c0.1,4.5-0.6,9-1,13.6c-0.1,1.1-0.2,2.1-0.4,3.3
						c1.6,0.2,3.1,0.4,5.2,0.7c0.9-4.8,1.9-9.5,2.6-14.3c1.7-12.2-1.3-23.5-6-34.7c-6.3-14.9-16.1-27.3-26.3-39.5
						c-5.7-6.8-13.5-11-20.8-15.6c-7.8-4.9-15.9-9.5-24.4-13c-23.8-9.8-48.1-18.4-73.6-22.1c-39.3-5.7-78.6-8.8-118.4-4.7
						c-24.8,2.6-49,7.7-73,13.8c-33.4,8.6-66.1,19.2-98.1,32.2c-20,8.2-40.2,16-60.2,24.1c-23.4,9.4-44.8,22-63.8,38.7
						c-7.4,6.6-15.5,12.4-23,18.8c-4.6,3.9-8.6,8.3-13,12.4c-2.6,2.4-5.1,4.9-7.9,7.1c-0.7,0.6-2.2,0.1-3.4,0.1
						c0.1-1.1-0.3-2.7,0.4-3.4c6-6.1,11.9-12.6,18.5-18.1c14-11.7,28.5-22.9,42.7-34.3c8.3-6.6,17.3-12,27-16.2
						c14.8-6.5,29.7-12.7,44.7-18.9c4.5-1.9,9.2-3,13.7-4.9c6.8-2.8,13.4-6.1,20.2-8.9c10.4-4.2,20.9-8.6,31.5-12.2
						c20.8-6.9,41.5-13.9,62.6-19.6c19.5-5.3,39.2-9.8,59.1-13c25-4,50.4-5.9,75.8-4.4c8.9,0.5,17.8,0.7,26.7,1.6
						c23.6,2.3,47,5.9,69.6,13.2c10.5,3.4,21,7,31.5,10.6c4.7,1.6,9.5,3.1,14.1,5.1c7.3,3.2,14.5,6.6,21.6,10.2
						c12.9,6.6,23.2,16.2,31.5,28c5.3,7.5,10.2,15.2,15.3,22.8c1.1,1.7,2.8,3.1,3.8,4.8c8.1,13.9,8.7,28.8,5.4,44.1
						c-1,4.7-1.5,9.5-3,14c-1.3,4.1-3.5,7.9-5.5,11.8c-1.7,3.5-4.8,5-8.5,4.7c-1.6-0.1-2.3,0.5-2.9,1.7c-2.4,4.6-5.3,8.7-10.7,10.2
						c-3.1,0.8-6,1.4-8.5-1.4c-2.9,3.8-5.7,7.5-8.7,11.4c1.2,0.8,2.5,1.7,3.8,2.5c3.8,2.4,6.1,5.8,5.8,10.4
						c-0.5,7.4-1.8,14.6-9.5,18.3c-1.7,0.8-4.2,1.3-6,0.8c-11.4-2.9-22.8-6.2-34.1-9.2c-2.5-0.7-5.2-0.9-7.6,0.8
						c-0.9,0.6-1.9,1.1-2.8,1.6c-6.3,3.2-13.1-0.4-13.6-7.5c-0.4-6.1,1.2-11.5,6.2-15.6c0.6-0.5,1.2-1.1,1.6-1.5
						c-8.3-14.8-16.3-29.5-24.7-44.1c-3.2-5.6-7-10.9-10.7-16.1c-1.2-1.7-3.1-3-4.8-4.4c-6.8-5.1-14.2-8.8-22.8-9.5
						c-1.3-0.1-2.6-0.3-3.7-0.7c-13-4.7-26.4-5.5-40-5.6c-5.8,0-11.7,0.1-17.4-0.3c-12.3-0.9-24.3,0.7-36.4,2.1
						c-31.9,3.7-63.2,10.2-93.9,19.2c-13.9,4.1-27.4,9.7-41.1,14.5c-11.8,4.1-22.9,9.8-34.3,14.5c-12.2,5-23.7,11.5-35,18.1
						c-16.1,9.4-31.9,19.3-47.2,29.8c-21.6,14.8-42.7,30.2-63.7,45.9c-7.7,5.7-14.3,12.9-21.4,19.4c-0.5,0.4-0.9,0.9-1.3,1.4
						c-1.5,1.4-3.2,2-4.8,0.5c-1.6-1.6-1.2-3.4,0.2-4.9c2.4-2.6,5-5,7.5-7.5c12.7-12.4,27.3-22.3,41.7-32.5
						c19.2-13.6,38.5-27.1,58.1-40.1c11.7-7.8,24-14.6,36.3-21.6c7.8-4.5,15.6-9,23.8-12.5c16.4-7.1,32.8-14.3,49.7-20.3
						c22.2-7.9,44.5-15.8,68-19.7c12.5-2.1,24.7-5.4,37.2-7.4c12.3-1.9,24.7-3,37.1-4.2c5.1-0.5,10.3-0.4,15.5-0.3
						c9.7,0.1,19.4,0.3,29.2,0.6c16.8,0.6,33.2,3.4,49.2,8.8c11.9,4,20.5,11.8,26.6,22.5c5.4,9.5,10.9,19.1,16.2,28.7
						c1,1.7,1.8,2.3,4,1.8C561.7,362,563.7,363.2,566.7,369.4z M572.7,365.5c1-1.3,1.6-2.1,2.2-2.8c1.6-1.6,3-3.4,4.8-4.7
						c1.4-1,1.6-1.8,1.3-3.3c-0.5-2.7-0.7-5.4-0.7-8.1c0-1.8,1.2-3.3,3.3-3.3c1.9,0,2.8,1.4,3.2,3.1c0.2,0.9,0.4,1.9,0.6,3.3
						c1.5-1.8,2.7-3.2,3.9-4.5c1.4-1.5,3.2-2.5,5-0.8c1.8,1.6,1,3.4-0.2,5.1c-1.5,2-2.9,4-4.3,6c-0.8,1.1-0.6,1.8,0.4,2.7
						c1.3,1.3,2.8,2.8,3.3,4.5c1,3,3.1,4.5,6.1,6.2c0.5-3.4,1.1-6.4,1.4-9.5c0.9-9.2,2.5-18.7-1.7-27.4c-3.6-7.5-8.2-14.5-12.5-21.6
						c-0.6-1-1.7-2-2.8-2.5c-1-0.5-2.6-0.8-3.4-0.3c-5,2.8-9.8,5.9-14.7,8.9c-4.6,2.7-5.1,6.5-3.9,11.4c2.8,11.2,5.1,22.5,7.6,33.7
						C572.2,362.6,572.4,363.7,572.7,365.5z M614.2,398.5c-0.3-0.6-0.9-2.1-1.8-3.1c-1.5-1.6-3.2-3.2-5.1-4.4
						c-3.7-2.3-5.1-5.6-5.6-9.7c-0.6-4.7-2.8-8.2-7.2-10.5c-1.5-0.8-2.5-2.7-3.6-4.2c-0.7-1-1-2.4-1.7-3.4c-1.5-2.3-3.5-2.8-5.5-1
						c-1.8,1.7-3.3,3.8-4.8,5.8c-1.7,2.2-3.2,4.6-4.8,6.9c-0.9,1.3-1.8,2.6-2.6,4c-1.4,2.5-2.3,5.4-4,7.6c-2.8,3.7-6.3,7-9.2,10.7
						c-1.2,1.6-1.9,3.9-2,5.9c-0.1,3.6,1.4,4.2,4.5,2.6c7.9-4.1,15.8-4.1,23.7,0.1c2.1,1.1,4.2,2.4,6.5,2.8c5.8,1,11.7,1.3,17.3,3.4
						c2.5,0.9,4.5-0.7,4.9-3.3C613.4,405.5,613.7,402.5,614.2,398.5z M561.7,383c1.7-4.2,0.7-8-0.8-11.7c-1.8-4.5-3.2-4.9-8-2.6
						C555.2,373.9,557.2,379.1,561.7,383z M609,381.2c0.3,0.1,0.7,0.1,1,0.2c4-3.5,7.8-7.2,9.2-12.6c-3.9-2.1-5.5-1.7-7.4,1.8
						c-1.1,2.1-2.2,4.4-3,6.7C608.5,378.4,608.9,379.8,609,381.2z M631.8,369.2c6-2.3,6.7-7.5,8.6-12.9c-1.8,0.3-3.7,0-4.3,0.7
						C633.2,360.2,631.2,363.9,631.8,369.2z M653,348.5c-3.6-0.2-7.4,5.6-7.1,10.4C649.7,359.3,652.7,355,653,348.5z"/>
					<path class="st1" d="M595.9,386c-0.7,1-1.1,2.2-1.9,2.5c-0.9,0.4-2.6,0.5-3.2-0.1c-2.8-2.6-5.9-5.1-7-9.1
						c-0.5-2-0.4-3.9,1.8-4.8c2.3-0.8,3.4,0.6,4.4,2.5c1.2,2.1,2.7,4,4,6C594.6,383.9,595.2,384.8,595.9,386z"/>
				</g>
			</g>
		</g>
	</g>
</g>
</svg>
