<?xml version="1.0" encoding="utf-8"?>
<!-- Generator: Adobe Illustrator 22.1.0, SVG Export Plug-In . SVG Version: 6.00 Build 0)  -->
<svg version="1.1" xmlns="http://www.w3.org/2000/svg" xmlns:xlink="http://www.w3.org/1999/xlink" x="0px" y="0px"
	 viewBox="0 0 1068.1 741.1" style="enable-background:new 0 0 1068.1 741.1;" xml:space="preserve">
<style type="text/css">
	.st0{fill:#369EBB;}
	.st1{fill:#222222;}
	.st2{fill:#FFFFFF;}
	#pollutions {
		animation: fade 3s ease-in-out infinite;
	}
	#hand {
		animation: enter 3s ease-in-out infinite;
	}
	@keyframes enter {
	  0% {
	  	transform: translate(-30px, 0) rotateZ(-10deg);
	  }
	  30% {
	  	transform: translate(0px, 0) rotateZ(0deg);
	  }
	  70% {
	  	transform: translate(0px, 0) rotateZ(0deg);
	  }
	  100% {
	  	transform: translate(-30px, 0) rotateZ(-10deg);
	  }
	}

	@keyframes fade {
	  0% {
	  	opacity: 0;
	  }
	  30% {
	  	opacity: 0;
	  }
	  50% {
	  	opacity: 1;
	  }
	  60% {
	  	opacity: 1;
	  }
	  100% {
	    opacity: 0;
	  }
	}
</style>
<g id="background">
	<g id="_xFFFD__x9E__x83__xFFFD__x9C_曉_x92__x8C_瘝_xA0_影像_3_">
	</g>
	<g id="摨_x95__xFFFD__x9C__x96__1_">
		<g id="摨_x95__xFFFD__x9C__x96__xFFFD__x89_脣_xFFFD__x8A__xA0_影像_1_">
			<g>
				<path class="st0" d="M845.9,444.2c0.1-5.9,1.8-10.8,5.2-15.2c4.9-6.5,4.7-7.7-1.9-12.7c-4.3-3.3-9.2-5.5-14-7.8
					c-3.1-1.5-6.4,0-9.6,0.6c-1.9,0.4-3.6,0.5-4.9-1.3c-1.3-1.7-1.5-3.7-0.3-5.4c5.3-7.2,5.5-15.8,6.4-24.1
					c0.5-4.9,1.6-9.7,3.5-14.2c2-4.9,5.6-8.4,10.3-10.8c3.6-1.8,6.2-0.4,8.3,2.9c1.9,3,4,6.3,8.6,5.9c2.8-0.2,5.6,0.2,8.4,0.5
					c3.4,0.4,6.7,1.3,9.2,3.8c6.5,6.5,14.6,10.1,23.3,12.4c6.6,1.7,9.2,5.5,8.1,12.2c-0.4,2.5-0.8,5-1.7,7.4
					c-1.2,3.1-0.5,5.9,1.8,8.3c1.5,1.6,3.1,3.1,4.6,4.6c2.2,2.3,2.8,4.9,2,8c-1.3,4.7-3.2,9.1-5.8,13.2c-0.7,1.2-1.6,2.4-2.8,2.9
					c-2.6,0.9-2.8,2.6-2.5,4.9c0.9,7.1,2.6,13.9,6.4,20.1c3.6,5.8,0.7,11.7-6.3,12.3c-4.3,0.4-8.7,0.5-13.1,0.8
					c-3,0.2-5.8,0.5-8.1,3c-2,2.2-4.3,1.8-6.3-0.5c-2.7-3-4.4-6.6-6.7-9.9c-1.5-2.2-3.4-3.9-5.7-5.3c-4.5-2.6-8.6-5.8-13-8.5
					C846.5,450.4,845.7,447.2,845.9,444.2z"/>
				<path class="st0" d="M754.1,312.6c2.4,1.7,4.7,2.7,6,4.4c2.6,3.4,6.6,5,9.1,8.4c2,2.7,1.4,4.6-1.8,5.5c-2.8,0.8-5.6,0.9-8.4,0.3
					c-3.2-0.7-6.4-1-9.7-0.7c-3.4,0.3-7,0.3-10.3-0.7c-5.1-1.6-10.3-0.6-15.4-0.6c-2,0-4,0.1-6,0c-5.1-0.2-7.7-2.9-7.6-7.9
					c0.1-5.1,1.9-9.9,2-15.1c0.1-5-0.3-9.6-4.1-13.3c-2.8-2.8-5-5.9-6.4-9.7c-1.6-4.5,0.9-7.6,5.6-6.9c0.7,0.1,1.6,0.3,2.1,0
					c4.1-2.2,8.6-3.2,12.7-5.3c1.1-0.5,2-0.8,3.1-0.7c6.6,0.4,12.9,2.3,18.6,5.6c1.6,0.9,2.8,0.9,4.5,0.2c4.8-2.1,7.4-6.3,10.5-10
					c4.3-5,8.6-9.9,14.9-12.4c3.1-1.2,6.2-2.1,9.5-2.2c2.3-0.1,4.1,0.6,4.5,3.3c0.1,0.5,0.3,1.2,0.6,1.5c3.5,2.8,5.8,6.7,9,9.8
					c0.9,0.8,1.8,1.6,3.1,1.6c8.7-0.1,14,5.5,18.8,11.5c5.4,6.9,4.7,15.1-1.3,21.6c-1.6,1.7-2.6,3.7-2.5,6.1c0,1-0.1,2-0.2,3
					c-0.3,2.7-2.1,4.5-4.8,4.8c-1.3,0.1-2.8,0.3-4.1-0.1c-8-2.3-14.6,0.8-20.8,5.4c-2.6,1.9-5.2,3.6-8.7,3.1
					c-2.4-0.4-4.4-1.6-6.4-2.9c-2.5-1.7-4.9-3.4-7.4-5.1C760.5,313.3,757.9,312.1,754.1,312.6z"/>
				<path class="st0" d="M157.5,543c-0.3,3.9,0.6,7.4,3,10.7c4.1,5.8,5.8,12.2,4.4,19.3c-0.5,2.7-1.3,5.1-3.3,7
					c-1.9,1.8-3.3,4-4.4,6.5c-3.2,7.1-9.1,11.6-15,16.2c-2.5,1.9-5.5,1.5-8.4,1.3c-5.9-0.5-11.6-1.6-17.2-3.9
					c-11.4-4.7-22.7-3.6-33.8,1.3c-2.6,1.2-5.2,2.2-8.1,2.1c-4-0.2-6.8-2.8-7.1-6.8c-0.5-5.8,1.1-11,4.9-15.4
					c8.3-9.6,12.6-20.9,14.8-33.2c0.7-4.1,2.1-8.1,3.9-11.9c3.3-6.5,12.7-9,18.8-5.1c2.1,1.3,4.3,1.8,6.7,1.8
					c10.1-0.1,20.2,0.2,30.2-0.3c1.5-0.1,3.1-0.1,4.6,0.1c4.1,0.3,5.8,2.1,5.9,6.3C157.6,540.5,157.5,541.7,157.5,543z"/>
				<path class="st0" d="M774.9,451.6c1.3,0.1,2.5,0.2,3.8,0.2c1.4,0.1,2.1,0.9,2.6,2.1c0.4,1.2,0.2,2.3-0.8,2.9
					c-2,1.2-1.5,2.7-1.2,4.5c1.2,6.6,2.5,13.1,0.8,19.9c-1.6,6.3,1.3,9.7,8.3,9.8c6,0.1,11.1,2.4,16.1,5.3c1.8,1.1,3.4,2.4,4.6,4.2
					c1.3,2,3.7,2.5,5.5,3.9c1.8,1.3,3.2,2.8,4.1,4.9c1,2.4,2.1,4.6,2.9,7c1,2.6,1,5.3-1,7.4c-1.9,2.1-4.2,1.1-6.6,0.7
					c-8.6-1.4-17.1-3.7-25.9-2.6c-2,0.3-3.9,1-5.8,1.6c-4.6,1.3-7.4-0.3-8.4-4.9c-0.3-1.5-0.5-3-0.7-4.6c-0.7-5.5-4.9-9.3-10.6-9.6
					c-4-0.2-8,0-11.9,0.8c-6.3,1.3-12.7,2.3-18.9,4.2c-9.4,2.8-12.9-1-12-10.7c0.3-3.4,1.5-6.5,2.9-9.6c1.5-3.1,3.7-5.5,6.9-7
					c5.4-2.6,11.1-4.6,15.9-8.2c4.4-3.3,8.3-7,11.1-11.8C760.6,455,767.2,452.2,774.9,451.6z"/>
				<path class="st0" d="M291.5,564.9c-1.4-0.2-2.8-0.1-4-0.5c-5-1.7-9.5-0.4-14,1.7c-4.2,1.9-8.6,3-13.2,2.8
					c-3.5-0.1-6.6,0.6-9.4,2.9c-2.1,1.8-5.1,0.8-6.1-2.2c-0.9-2.8-2.7-4-5.4-4.7c-6.6-1.6-8.4-5.6-5.3-11.7c0.5-1,0.2-1.8-0.2-2.6
					c-2.6-5.9-1.9-11.4,1.8-16.7c2.5-3.7,3.6-7.9,3.6-12.4c0-4.3,0.6-8.5,1.8-12.6c1.6-5.5,5-6.9,10.4-4.8c1.9,0.8,4.3,0.7,6.4,0.7
					c8.1,0.2,13.4,4.2,16.5,11.6c0,0.1,0.1,0.2,0.1,0.3c1.4,6,4.3,10.9,9.5,14.7c2.9,2.1,4.5,5.6,5.9,9c0.7,1.7,1.7,3.1,3.3,4.2
					c2.4,1.6,4.4,3.9,6,6.2c2.2,3.2,1.8,6.8,0.2,10.1C297.9,564.1,294.9,565,291.5,564.9z"/>
				<path class="st0" d="M205.5,176.5c-0.4,2.7,1,6.7,2.7,10.7c0.8,1.8,2.1,3.1,3.7,4.2c7.2,4.7,8.7,9.3,6.1,17.4
					c-0.8,2.6-2.6,4.1-5,5.4c-5,2.8-10.1,1-15.1,0.7c-4.2-0.3-8.4-1.3-12.6-1.9c-5.6-0.8-10.1-3.8-14.9-6.3c-1.4-0.7-1.2-1.7-0.9-3
					c1.4-5.2,2.1-10.5,1.9-15.9c-0.2-5-2.3-8.7-7-10.7c-2.5-1-5.1-1.8-7.7-2.8c-2-0.8-4-1.7-5.7-3.2c-4.2-3.8-3.4-9.4,1.8-11.7
					c4.7-2,9.8-1.7,14.4,0.1c4,1.6,6.8,0.5,9.6-2.1c5.4-5,11.6-6,18.5-4.2c2.1,0.5,3.9,1.7,5,3.5
					C203.5,162.4,206.3,168.1,205.5,176.5z"/>
				<path class="st0" d="M394.9,443.8c0-1.4,0.2-3.2,1.3-4.4c2.7-3,2.2-7.2,4.2-10.5c0.7-1.1-0.5-2-1.2-2.8c-2.8-3.6-5-7.4-4.4-12.2
					c0.2-1.4,0.6-2.6,1.6-3.6c2.9-2.6,6.1-4.9,9.4-7c1-0.6,1.9-1,3-0.3c1,0.7,2.1,0.3,3.2,0c2.9-0.8,5.9-1.1,8.9-1
					c7,0.2,12.1,3.1,15.2,9.6c3.1,6.3,5.5,12.8,7.9,19.4c1.2,3.4-0.7,6.6-0.7,9.9c0,2.5-0.1,4.9,0.7,7.2c0.8,2.4-0.1,3.7-2.3,4.7
					c-3.2,1.5-6.4,0.7-9.4,0.1c-8.3-1.6-16.6-1.1-24.9-0.3c-2.2,0.2-4.4,0.3-6.5-0.3C396.5,451.1,394.9,448.9,394.9,443.8z"/>
				<path class="st0" d="M492.6,423.3c0.4-3.1,1.8-6.5,4.4-9.1c2.4-2.5,4.9-4.8,7.6-7c1.8-1.4,2.8-3,3.4-5.1
					c0.7-2.6,1.7-5.2,2.4-7.8c1.2-4.6,4.3-7.9,7.7-11c1.4-1.3,2.7-1.8,3.4,0.9c0.7,2.4,2.2,4.4,4.5,5.6c2.1,1.1,3.9,1.8,6.2-0.5
					c3.1-2.9,7.3-3,11.3-1.8c1.4,0.4,2.7,0.8,4.2,0.9c2.4,0.1,3.2,1.5,2,3.6c-1.7,3.1-2.4,6.2-1.8,9.7c0.4,2.6-0.3,4.8-2.4,6.8
					c-5.1,4.8-8.1,10.8-9.5,17.6c-1.3,6.2-5.1,10.5-11,12.9c-2.4,1-4.7,1.9-7.1,2.7c-2.7,0.9-5.2,0.3-6.9-1.9
					c-3.1-3.9-7.3-5.8-11.7-7.6S492.5,427.5,492.6,423.3z"/>
				<path class="st0" d="M989.2,355.1c-4.1-0.1-7.6-2.3-11.3-3.7c-1.3-0.5-2.5-1-3.9-0.9c-3.9,0.2-7.8-0.2-11.6-1.1
					c-2.6-0.6-5.2-0.3-7.8,0.4c-2.4,0.7-4.7,1.3-7.1,1.9c-5.3,1.2-8.7-1.2-9.1-6.7c-0.3-3.3,0.5-6.4,2.4-9c4.1-5.7,5.6-12.1,5.6-19
					c0-5.3,5.6-11.1,10.8-11.6c0.5,0,1.2-0.1,1.6,0.1c5,2.7,10.9,3.9,13.6,10.1c1.5,3.3,4,6.3,8.3,7.2c2.7,0.6,4,2.8,3.9,5.8
					c-0.2,4.8,0.5,9.4,2.1,13.9c0.6,1.7,1.3,2.9,3.5,3.2c2.7,0.3,4.1,3,3.7,6C993.5,354.1,992.1,355.1,989.2,355.1z"/>
				<path class="st0" d="M662.3,430.5c0.1,1.9-0.2,3.7-0.9,5.4c-3.1,8-11.2,10.2-17.6,4.4c-3.3-3-6.8-3.5-10.8-2.6
					c-9.3,2-14.9-2.4-15.5-12.1c-0.3-4.4,1-8.5,2.2-12.6c1.1-3.6,1.5-7.1,0.3-10.9c-1.4-4.4,2.5-9,7-8.6c1.6,0.1,3-0.1,4.5-0.5
					c1-0.3,2.2-0.5,3.2-0.4c3,0.3,6,1.1,8.6-1.6c0.9-0.9,2.8-1.2,4,0.1c1.7,1.8,2.3,4.2,1.7,6.6c-0.6,2.1-0.3,4,0,6.1
					c0.9,6.7,3.8,12.2,8.8,16.7C660.7,423.2,662.7,426.4,662.3,430.5z"/>
				<path class="st0" d="M546.6,139.7c-0.4,3.1-0.5,6.1-0.4,9.2c0.1,1.7,0.7,2.8,2.1,3.8c3.4,2.3,4.4,6.4,3,10.1
					c-0.4,1.1-1.3,1.3-2.1,1.5c-11.6,2.5-23.1,5.7-34.4,9.3c-1.9,0.6-2.8-0.2-2.9-2.1c-0.1-1.6,0.4-3.1,1.4-4.3
					c5.6-7.1,3.9-18.8-3.6-24.3c-3.2-2.3-3.1-2.9-0.8-6.3c1.3-1.9,1.8-4.3,3.6-5.9c3.5-3.1,7.3-4.4,12-3.6c6.5,1.2,12.4,4,18.5,6.5
					C545.8,134.8,546.9,136.9,546.6,139.7z"/>
				<path class="st0" d="M451,463.7c1.8-0.2,3.2-0.9,4.6-1.9C454.3,465.9,453.6,466.2,451,463.7z"/>
				<path class="st0" d="M744.7,316c1.1-1.1,2.2-1.5,3.3-1.9c0.7-0.3,1.3-0.1,1.4,0.8c0.1,0.7-0.1,1.3-0.9,1.3
					C747.3,316.3,746.1,316.6,744.7,316z"/>
			</g>
		</g>
		<g id="_xFFFD__x9E__x83__xFFFD__x9C_曉_x92__x8C_瘝_xA0_影像_1_">
			<g>
				<path class="st1" d="M306.8,568.5c2.2,1.4,4.6,1.4,6.9,1.8c8.8,1.7,14.8,8.1,15.7,17.1c0.4,4.4-0.9,8.5-3.8,11.9
					c-1.4,1.6-0.9,2,0.4,2.9c11.7,7.6,22.6,16.2,33.3,25c7.1,5.9,13.7,12.5,18.6,20.5c9,14.6,7.8,28.1-3.6,41
					c-5.2,5.8-11.1,10.8-17.3,15.3c-6.1,4.4-12.6,8.3-19,12.2c-1.7,1.1-3.7,1.8-5-0.3c-1.4-2.2,0.2-3.5,1.9-4.6
					c7.1-4.4,14.3-8.7,21-13.7c6.4-4.8,12.4-10.1,17.2-16.6c5.9-8,6.6-16.5,2.5-25.4c-3.5-7.7-8.9-13.9-15.1-19.5
					c-12.2-11-25.2-21.1-38.8-30.4c-1.1-0.7-2-1.1-3.2-0.2c-1.7,1.3-3.8,1.8-5.6,2.8c-8.8,4.8-17.8,4.5-26.6,0.7
					c-8.7-3.8-17.4-3.4-26.1-1.2c-6,1.5-11.8,3.6-17.7,5.5c-6,1.9-12.1,3.2-18.5,2.3c-6.2-0.9-11.3-3.5-13.7-9.7
					c-0.5-1.3-1.2-1.5-2.3-0.8c-5.1,3.6-11.3,4.9-16.9,7.5c-2.2,1.1-4.7,1.5-7.2,1.4c-6-0.1-12,0.1-18-0.7c-1.6-0.2-3.1,0.3-4.5,1
					c-3.1,1.6-6.3,3.2-9.3,5.1c-4.2,2.5-8.6,3.7-13.5,3.5c-7.7-0.3-15.5-1.1-21.8-5.8c-10.3-7.5-20.1-5.3-30.1,0
					c-2.6,1.4-4.9,3.1-7.3,4.8c-3.1,2.2-6.4,4.2-10.3,4.6c-8.8,0.9-16.2-5.4-16.7-14.5c-0.5-8.6,1.2-17,4.1-25.1
					c1.1-3,2.9-5.5,5.4-7.4c2.4-1.8,4.9-3.5,7.4-5.1c2.1-1.4,4.3-2.8,6-4.7c2.5-2.8,2.3-3.8-0.8-5.7c-3.3-2.1-6.4-4.6-9.1-7.4
					c-2.5-2.6-2.8-5.3-1.1-7.3c1.7-2.2,4.4-2.7,7.4-1c2.1,1.1,2.3,0.3,2.3-1.5c0-1.4,0.1-2.7,0.3-4.1c0.4-2,1.2-3.8,3.6-3.8
					c2.2-0.1,3,1.6,3.7,3.4c0.4,1,0.2,2.2,1.1,3.2c1.6-1.8,2.2-4,3.2-5.9c2.8-5.5,6.5-10.3,12.2-13.1c1.3-0.7,2.6-1.4,4.1-1.4
					c2.5,0.1,3-1.1,3.5-3.3c3.3-14.5,10.4-26.5,23.1-34.6c1.5-0.9,2.9-1.9,4.4-2.8c2.8-1.8,4.4-4.3,4.9-7.5
					c0.7-4.8,1.8-9.5,4.6-13.6c0.8-1.2,0.2-2-0.4-2.9c-1.5-2.1-3-4.1-4.3-6.3c-1.1-1.8-1.4-3.8,0.7-5c2.1-1.2,3.6,0,4.7,1.8
					c0.5,0.8,0.9,1.6,1.8,2.1c1-1.1,0.5-2.3,0.6-3.4c0.1-1.3,0-2.5,0.1-3.8c0.1-1.8,1-3.2,3-3.3c2.1-0.1,3.1,1.4,3.2,3.3
					c0.1,2.3,0.1,4.5,0.1,6.8c0,1.7,0.4,2.4,2.2,1.5c2.6-1.3,5.3-2.4,8-3.5c1.6-0.6,1.9-1.4,1.3-2.9c-0.5-1.1-0.7-2.3-1.3-3.3
					c-6-9.5-6.6-20.2-6.4-31c0.4-17.9,7.5-33.6,17.1-48.1c12.1-18.3,25-36.2,39.7-52.6c20.6-23,44.7-41.3,71.4-56.6
					c41.3-23.6,85.4-40.6,130.1-56.1c7.3-2.5,14.7-4.8,22.1-7.1c1.7-0.5,2.2-0.9,1.1-2.7c-4.2-6.8-5.9-14-3.3-21.9
					c0.3-0.8,0.2-1.8,0.1-2.7c-0.5-5.6,0.2-11,2.7-16.2c0.9-1.8,1.4-3.7,2.1-5.6c0.3-0.8,1-1.8,0.4-2.6c-0.7-0.9-1.7,0.1-2.5,0.2
					c-1.4,0.2-2.9,0.5-4.3,0.5c-1.8,0-3.3-0.7-3.5-2.8c-0.2-2,1.2-2.9,3-3.3c6.4-1.4,6.4-1.4,2.4-6.5c-0.2-0.2-0.3-0.4-0.5-0.6
					c-1.2-1.6-2.1-3.4-0.2-5.1c1.9-1.6,3.6-0.6,5,1c0.9,1,1.9,2,2.7,3.1c1.2,1.7,2,2.1,2.9-0.3c4.4-11.1,14.7-17.8,26.6-17.7
					c8.4,0.1,13.9,4.6,15.6,12.8c0.4,1.8,0.6,3.6,0.9,5.4c0.5,2.8,2.1,4.5,5,4.9c3.1,0.5,6.2,0.6,9.1,1.7c1,0.4,1.5-0.1,1.8-1
					c3.8-11,12.3-14.6,23-14.6c0.3,0,0.6,0,0.8,0c2.2,0.3,2.9-0.6,2.8-2.8c-0.2-2.3-0.1-4.5,0.1-6.8c0.1-1.9,1.1-3.4,3.2-3.3
					c2,0.1,2.7,1.6,2.9,3.4c0,0.2,0,0.4,0,0.5c0.2,1.5-0.8,3.6,0.6,4.3c1.3,0.6,2.5-1.4,3.8-2.2c3.2-2.1,5-2.3,6.3-0.7
					c1.3,1.8,0.5,3.3-2.7,5.8c-1.4,1.1-3.9,1.9-3.6,3.6c0.2,1.5,2.9,1.4,4.5,1.9c8.1,3,11.8,8,12.1,16.6c0,1.2,0.1,2.4,0,3.5
					c-0.2,2.4,0.1,4.5,2,6.2c1,0.9,1.7,2.2,2,3.5c0.5,2.6,1.6,3.2,4.3,2.5c17.4-4.6,34.8-8.9,52.2-13.5c6.3-1.7,12.5-3.7,18.8-5.5
					c1.9-0.6,3.8-1.3,5.4-2.6c3.5-2.7,4.1-6.2,1.7-9.8c-2.4-3.7-4.7-7.3-7.3-10.9c-3-4.2-3.2-8.5-1.3-13.2c2.1-5.2,5.5-9.3,9.9-12.7
					c10.8-8.2,22.9-13.7,35.8-17.4c5.1-1.5,10-3.2,14.8-5.4c2.6-1.2,5.4-2,8.6-1.6c-1.5,3.6-4.3,5.7-6.8,8
					c-4.9,4.5-9.9,8.9-14.7,13.4c-2.9,2.8-5.4,5.9-7.3,9.4c-3.1,5.7-2.9,11.1,1.5,16.1c1.7,1.9,3.4,3.7,5.3,5.5
					c3.2,3.1,6.3,6.3,9.1,9.7c2.5,3.1,4.5,6.4,5.6,10.2c3.5,11.3,0.5,20.9-8.9,28.1c-3.8,2.9-8,5.4-12.2,7.7
					c-5.9,3.2-11.8,6.5-17.6,9.8c-22,12.6-43.4,26.2-64.2,40.7c-17.3,12-35,23.4-52.7,34.8c-15.2,9.8-30.3,19.9-44.7,31.1
					c-7.6,6-15.2,11.9-21.2,19.5c-8.7,10.9-15.4,23-19.8,36.2c-3.1,9.2-3.2,18.5,0,27.9c2.7,7.7,3.9,16,8.8,22.8s9.4,13.9,16.3,18.9
					c1.6,1.2,2.5,1.2,3.8-0.3c2.4-2.6,5.1-4.9,8.1-6.9c2.5-1.7,5.1-2.9,8.2-2.6c2.7,0.3,2.3-1.7,2.5-3.2c0.2-2.1-1.4-1.4-2.4-1.5
					c-1.3-0.1-2.6,0-3.8-0.3c-1.8-0.3-3-1.4-2.9-3.4c0.2-1.8,1.5-2.8,3.2-2.7c3,0.1,2.7-0.9,1.2-2.8c-0.7-0.8-1.1-1.9-1.4-2.9
					c-0.4-1.4-0.2-2.7,1.1-3.7c1.3-0.9,2.6-0.9,3.8,0c1.6,1.1,3,2.3,4.5,3.6c0.8,0.7,1.5,1,2.2-0.1c2.3-3.5,5.9-5.1,9.8-6
					c2.4-0.5,3.1-1.7,3-3.9c-0.3-8.6,4.1-14.6,10.8-19.3c5.4-3.8,10.5-3.7,15.9,0.2c4.8,3.5,7,3.6,12.1,0.4s10-6.7,16.2-7.4
					c5.4-0.7,10.8-0.9,15.3,3c1.1,1,1.8,0.2,2.5-0.5c4.1-3.4,9-4.9,14.2-4.7c7.9,0.2,10.6,3.8,13.6,10.4c0.4,0.8,0.6,1.6,0.9,2.8
					c1.2-2.2,1.5-4.3,1.5-6.5c0.1-1.7,0.3-3.5,2.5-3.5c2.3,0,2.8,1.8,2.7,3.6c-0.1,1.9-0.3,3.8-0.5,5.9c1.5-0.2,2.8-0.8,4-1.4
					c1.6-0.8,3.2-1.8,4.7-0.1c1.5,1.7,0.2,3.2-0.9,4.6c0.8,0.8,1.9,0.6,2.9,0.8c12,1.9,18.2,13.8,12.8,24.7
					c-0.4,0.7-0.9,1.5-0.5,2.3c1.5,3.2,1.5,6.7,1.9,10.1c0.2,2.1,1.1,3.5,3,4.5c3.8,1.9,7.2,4.6,10.5,7.3c4,3.3,6,7.7,5.8,12.9
					c-0.6,13-3.9,20.1-18.9,26.3c-4,1.6-7.8,1.5-10.9-2.2c-1.2-1.5-2.9-1.4-4.5-1c-3.3,0.8-6.5,1.6-9.8,2.4c-6.5,1.5-8.3,0.8-11.9-5
					c-0.5-0.8-0.9-1.4-1.9-0.7c-5.1,4.1-10.7,2-16.2,1.1c-3.1-0.5-6-2.2-8.7-3.9c-5.6-3.6-11.6-3-17.7-1.6c-3.4,0.7-6.6,2-9.9,2.9
					c-3.4,0.9-6.8,1-10.2-0.1c-1.1-0.4-1.8-0.3-2.6,0.6c-2.2,2.5-5,3.9-8.2,4.6c0.2,0.8,0.9,0.7,1.4,0.8c9.2,1.9,18.2,4.2,27.2,6.8
					c13.5,3.9,27.2,6.4,40.9,9.2c14.1,2.9,28.1,6.8,42.4,8.8c12.4,1.7,24,6.3,36.4,7.8c5.2,0.7,10.4,1.5,15.6,2.4
					c2.2,0.4,3.5-0.2,4.1-2.5c2.2-8.7,8.3-12.5,16.8-13.2c2.5-0.2,5.1-0.3,7.6-0.6c3.3-0.4,6.5-3.4,7.3-6.5c0.3-1-0.4-1.2-0.9-1.7
					c-2.2-2.1-4.5-4.2-6.6-6.5c-1.4-1.6-2.3-3.6-0.4-5.3c1.9-1.7,3.7-0.7,5.2,1c0.4,0.5,0.7,1.2,1.5,1.1c0.9-0.2,0.8-1.1,0.9-1.8
					c0.4-1.7,0.6-3.4,1.1-5.1c0.5-1.9,1.8-3,3.8-2.6c1.9,0.4,2.6,1.9,2.4,3.7c-0.2,1.6-0.5,3.2-0.8,4.8c-0.3,1.5-0.7,3-0.8,4.6
					c2.7-1.7,5.2-3.4,7.9-4.9c4-2.3,8.1-3.5,12.8-3.2c3.4,0.2,6.7,0.2,10.1,0.4c1.4,0.1,2.2-0.1,2.6-1.6c2-7.1,6.4-12.8,10.7-18.6
					c0.7-1,1.5-1.8,1.5-3.1c0.1-5.2,2.7-9.3,6.2-13c3.1-3.2,6.7-5.9,10.1-8.8c1.6-1.4,3.2-3,4.7-4.5c1.6-1.6,2.5-3.6,2.3-5.9
					c-1-14.3,5.7-25.5,14.1-36.2c2.1-2.7,4.8-4.1,8.3-3.9c2.5,0.1,4.9-0.4,7.3-0.7c4.4-0.6,8.3,0.2,10.9,4.4
					c0.8,1.3,2.1,1.9,3.6,2.2c2.6,0.4,5.2,0.8,7.8,1.3c1.8,0.4,2.5-0.3,2.6-2.1c0.1-2.1,0.2-4.2,0.4-6.3c0.2-2.1,0.8-3.9,3.3-3.9
					c2.3,0,3.1,1.6,3.2,3.6c0.1,1.6,0.6,1.7,1.8,0.9c1.5-1,3.2-1.1,4.4,0.4c1.3,1.7,0.7,3.3-0.7,4.6c-1.3,1.3-2.6,2.6-3.9,3.8
					c-0.9,0.8-1.3,1.5,0,2.3c2.6,1.7,4,4.2,4.8,7.1c0.7,2.6,2.4,3.9,5.1,4c7,0.2,12.9,3.7,18.5,7.3c4.2,2.7,6.2,7,6.4,12
					c1.4,0,1.9-1.1,2.6-1.7c4.2-3.6,9.1-4,13.8-1.1c2.5,1.6,4.7,3.6,6.2,6c5.6,8.7,13.8,14.6,22.2,20.2c3.7,2.5,7.2,5.2,10.7,7.9
					c6.9,5.3,14,10.4,21.4,15c2.1,1.3,4.3,2.5,5.5,4.7c4.9,8.5,10.1,17.1,11,27.1c0.5,5.2,2.5,8.3,7,10.3c2.1,0.9,3.9,2.2,6,3.3
					c3.4,1.7,5.6,4.5,6,8.2c1.2,11.4-0.3,22.5-5.7,32.7c-1.8,3.4-5,5.2-8.7,5.9c-3,0.6-6.1,0.7-9.2,0.3c-7.8-1-15.6-0.9-23.4-1.4
					c-4.3-0.3-8.2,1.1-12.2,2.6c-8.8,3.3-17,7.8-25.2,12.2c-14.5,7.7-30,12.2-46.1,15.3c-6.4,1.2-12.8,2.1-19.4,0.6
					c-8.8-1.9-14.5-7-17-15.4c-1-3.6-2.9-4.9-6.3-5.3c-4.7-0.5-9.2-2-13.9-2.2c-0.2,0.8,0.4,1,0.8,1.3c4.4,3.4,8.1,7.4,10.9,12.1
					c7.6,13,14.7,26.1,17.3,41.2c4.2,24.3,3.2,48.5-2.3,72.5c-1.2,5-2.4,10.1-3.6,15.1c-0.3,1.2-0.8,2.1-2.2,2.4
					c-1.3,0.4-2.3,0-3.3-0.7c-1.1-0.8-0.5-1.8-0.3-2.7c2.8-10.1,5-20.3,6.6-30.6c3.3-21.8,2.9-43.5-3.1-64.8
					c-3-10.6-8.5-20.2-14-29.7c-4.5-7.6-11.6-12.5-18.6-17.3c-0.9-0.6-1.8-0.8-2.9-0.7c-4.5,0.5-8.9-0.5-13.1-1.8
					c-3.3-1-6.5-1.5-9.9-1c-4.4,0.6-8.9,0.6-13.1-1.5c-4.4-2.1-9.2-1.7-13.9-2.1c-2.9-0.2-5.4-1.3-7.1-3.5c-5.2-6.3-12-8.6-19.9-9.1
					c-6.8-0.5-13.3,1.4-19.9,2.7c-9.8,1.9-17.6-2.5-19.8-11.9c-1-4.3-0.3-8.7,0.3-13c0.2-1.3,0.3-2.2-1.5-2.5
					c-17.9-2.8-35.3-7.8-53.1-10.6c-9.6-1.5-19-4.2-28.6-5.3c-13.5-1.6-26.7-4.9-39.8-8.7c-13.4-3.9-26.9-7.4-40.7-10.1
					c-5.5-1.1-10.8-3.1-16.2-4.8c-1.6-0.5-2.9-0.6-4.3,0.5c-2.7,2-5.7,2.1-8.8,1c-9.7-3.5-19.1-7.4-27.2-13.9
					c-1.1-0.9-2.4-1.2-3.7-1.6c-4.8-1.5-7.2-4.5-7.3-9.6c-0.1-3,0.5-6,1.6-8.8c0.3-0.8,0.9-1.6-0.2-2.4
					c-8.6-5.5-14.1-13.7-19.4-22.2c-4.3-6.8-8.1-13.7-10.6-21.4c-3.6-11.2-3.4-22.4,0.8-33.4c3.8-9.9,7.8-19.8,13.9-28.6
					c10.2-14.9,23.7-26.3,38.4-36.3c21.2-14.5,42.7-28.7,64.6-42.2c10.3-6.3,19.5-14.2,29.1-21.6c13.3-10.2,28.1-18,42.8-25.9
					s28.9-16.8,43.3-25.3c1-0.6,1.9-1.3,2.9-2c10.7-7.6,10.5-18.4,5-27.6c-2.7-4.6-6.7-8.1-10.4-11.9c-2-2-4-4-5.8-6.1
					c-6.2-7.6-6.8-14.6-1.9-23.2c2.1-3.7,4.9-7,7.9-10.1c1.2-1.2,2.5-2.3,4-3.7c-1.4-0.7-2.2-0.1-3,0.1c-11,3.6-21.5,8.3-30.8,15.4
					c-3.8,2.9-6.7,6.4-8.4,10.8c-0.9,2.4-0.7,4.6,0.8,6.7c2.4,3.3,4.9,6.6,6.7,10.2c2.7,5.3,3.6,10.7-0.3,15.9
					c-2.1,2.8-5.1,4.5-8.3,5.4c-11.9,3.6-23.7,7.6-35.8,10.6c-13.6,3.4-27.2,7.2-40.8,11c-10,2.8-20,5.1-30,7.9
					c-24.8,7-49.9,13-74.5,20.7c-14.2,4.4-28.1,9.8-42.2,14.4C383.8,215.1,352,228,321,242.5c-32.3,15.1-62.9,33-88.9,58
					c-12.2,11.8-23,24.8-33.5,38c-12.1,15.3-21.4,32.4-29.9,49.9c-7.3,15.2-8,30.9-1.9,46.8c1.2,3.1,3.1,5.7,5.1,8.4
					c1.3,1.8,3,2.8,5.2,3.2c5.6,1.1,10.9,2.9,14.2,8.1c1.1,1.8,3,2.8,4.9,3.8c4,1.9,7.2,4.8,9.9,8.4c0.5,0.7,0.9,1.4,1.6,1.9
					c5.1,3.5,7.8,8.7,10.1,14.2c2.7,6.7,7.3,11.1,14.5,12.7c3.5,0.8,6.7,2.4,9.6,4.4c1.3,0.9,2.3,0.9,3.7,0.1
					c11.2-6.5,27.3-2.5,34.3,8.4c0.8,1.3,1.6,2.6,2.3,4c1.8,3.6,4.3,6.4,7.9,8.3c8.9,4.8,15.9,11.5,20.2,20.7
					c3.3,7.1,4.5,14.4,0,21.6C309.2,565.9,307.9,567.1,306.8,568.5z M869.2,485.3c0,1.9,0.9,2.9,1.7,3.9c4.3,6,4.5,12,0.5,18.3
					c-1.5,2.4-2.9,4.8-3.9,7.4c-2.4,6.2-2.8,12.5-2.6,19c0.2,11.9,8.4,20.2,20.3,19.3c15.4-1.2,30.3-4.4,44.8-9.9
					c11.2-4.3,21.6-10.4,32.4-15.5c6.2-2.9,12.6-4.8,19.7-4c7.2,0.9,14.5,1.6,21.7,1.6c5.5,0,11.1-1.3,13.5-7.3
					c2.2-5.4,3.6-11,3.7-16.9c0.1-6.1-1.6-10.7-7.7-13.7c-5-2.4-9.4-4.9-15.4-5c-7.9-0.1-15.3-3.1-21.9-7.6c-3.7-2.5-7.6-3.8-12-3.5
					c-2.1,0.1-4.2,0-6.3,0.2c-7.7,0.8-15.3,1.6-23,2.7c-5,0.8-9.5,1.4-13.6,5c-3.8,3.3-9.1,3.5-14,3.4c-7.7-0.2-15,1.7-22,4.7
					C879.4,489.9,874.3,490.2,869.2,485.3z M140.2,616.6c2.6,0.3,5.8-0.8,8.8-2.7c3.3-2,6.7-4.1,10.3-5.5c2.3-0.9,2.9-2.1,2.9-4.4
					c0.2-11.9-2-23.9,1.4-35.8c1-3.5-0.4-6.7-3.6-9.1c-7.4-5.6-9.4-13-7.1-21.8c0.2-0.9,1.1-2,0.1-2.8c-0.8-0.6-1.7,0.1-2.6,0.4
					c-1.1,0.4-2.2,0.9-3.3,1.4c-2.6,1.2-5.2,2.8-8.2,2.9c-10.5,0.5-20.7-0.3-30-6.1c-3.3-2-6.6-2.2-9.9,0.2c-3,2.1-5.1,4.9-6.8,8
					c-3.9,7.4-7.2,15.1-8.1,23.6c-0.5,4.9-2.8,8.8-6.8,11.7c-3.2,2.3-6.4,4.4-9.7,6.6c-2.5,1.7-4.6,3.9-5.5,6.9
					c-2.1,6.6-3.5,13.4-3.4,20.4c0.1,8.4,6.9,12.2,14.2,8c2-1.1,3.7-2.6,5.6-3.8c13.4-8.6,27-13.6,41.9-2.9
					C126,615.7,132.6,616.2,140.2,616.6z M173.2,454.1c-1.3,0.2-2.6,0.3-3.8,0.7c-4.7,1.6-9.3,3.5-13.8,5.7
					c-6.1,3-9.9,7.8-10.6,14.5c-0.8,7.8-4.7,13.2-11.5,16.7c-0.9,0.5-1.7,1-2.5,1.6c-10.3,7.3-16.2,17.4-19,29.5
					c-0.9,4.1-0.3,5.2,3.7,6.7c10.2,3.8,20.3,5.5,30.8,0.2c7.9-3.9,16-4.6,23.5,1.7c2.9,2.4,6.6,2.4,10.2,1.6c1.5-0.3,3-0.9,4.4-1.5
					c7.3-3.1,14.9-4.7,22.6-5.9c6.9-1.1,13.6-0.4,20,2.6c1.6,0.7,3.1,1.5,4.9,1.5c1.5,0.1,2.7-0.3,3.4-1.7c2.9-5.5,4.7-11.2,5-17.4
					c0.1-2.2-0.8-3.6-2.8-4.5c-3.1-1.3-6.1-2.9-9.3-3.9c-8.2-2.5-13.7-7.6-16.5-15.6c-3.4-9.8-10.9-16-19.2-21.4
					c-2.3-1.5-4.6-2.9-6.2-5.2C183.1,455.7,178.1,455,173.2,454.1z M848.9,531c2.5,0,5.1-0.1,7.6,0c1.1,0,1.7-0.3,1.8-1.4
					c0.2-2.4,0.6-4.7,0.5-7.1c-0.2-5.9,2.2-10.9,5.4-15.4c4.7-6.7,5.2-9,0.7-15.9c-2-3-2.8-6.3-2.3-9.9c0.7-4.9-2-9.6-6.7-11.2
					c-2.7-0.9-5.4-1.7-7.7-3.5c-3.3-2.5-6.8-4.5-10.6-6.1c-4.2-1.7-6.7-5-6.9-9.6c-0.2-4.7-0.2-9.5,0.9-14.1
					c1.2-5.3,3-10.3,7.6-13.8c0.7-0.6,2.1-0.9,1.8-2.1c-0.3-1.1-1.7-1.3-2.8-1.4c-0.6-0.1-1.3-0.1-1.9-0.1
					c-11-0.6-21.1,1.9-30.2,8.2c-2,1.4-4.3,2.5-6.8,2.4c-1.9-0.1-3.1,0.8-4.1,2.2c-2.2,3.3-4.4,6.4-6.4,9.8
					c-3.2,5.5-4.2,11.4-3.4,17.9c0.9,7,1.9,14.1,0.9,21.2c-0.4,2.9,0.7,4.4,3.4,5.2c3.8,1.1,7.6,1.9,11.2,3.5
					c11.8,5.4,23.2,11.4,23.3,27c0,0.7,0.3,1.4,0.5,2.1c0.7,2.8,2.3,4.7,4.6,6.4C835.2,529.9,841.6,531.9,848.9,531z M839.8,358.2
					c-2.3-0.3-4.1,0.3-5.5,2.2c-7.1,9.4-12.9,19.2-11.9,31.6c0.3,3.6-1.1,6.7-3.5,9.5c-2.7,3.1-5.8,5.7-9,8.3c-3,2.4-6,4.8-8.2,7.9
					c-0.8,1.1-2.3,2.4-1.3,3.5c1,1,2.9,0.6,4.4,0c0.2-0.1,0.5-0.2,0.7-0.4c9-5.7,18.8-7.6,29.4-7.6c7.4,0,12.3,2.9,15.3,9.5
					c1.4,3.1,3.8,5,7.1,5.1c7.1,0.3,14.3,1.3,21.4-0.1c4.6-0.9,8.9-0.5,13.2,1.7c3.9,2.1,8.2,3.4,12.5,4.7c3,0.9,5.5,0.4,7.7-1.9
					c5-5.2,6.3-11.7,6.6-18.5c0.1-1.2-0.8-1.7-1.8-2.1c-6.2-2.4-8.6-7.4-9.1-13.7c-0.1-1.7-0.1-3.4-0.1-5.2
					c-0.1-3.3-1.5-5.8-4.3-7.4c-4.8-2.8-9.6-5.6-15.4-5.8c-5.1-0.2-8.5-3-9.9-7.9c-1-3.5-3.2-5.1-6.5-5.7c-4-0.7-8.1-1.4-12.1-2.1
					c-3-0.5-5.8-1.4-7.4-4.1c-1.8-2.8-4.1-2.9-6.9-2.3C843.4,357.6,841.7,358.4,839.8,358.2z M168.4,597.7c0,2.5,0,4.7,0,6.8
					c0,1.5,0.6,2.6,2.1,2.7c6.2,0.5,12.6,1.7,18.6-0.7c6.1-2.4,12.5-4.4,18-8.3c1.2-0.8,2.6-1.6,4-1.7c7.4-0.8,13.4-4.3,19.1-8.8
					c2.6-2,5.9-3.1,8.8-5c4.1-2.7,5-6.5,2.8-10.9c-1.7-3.3-4.2-5.9-7.3-8c-3.3-2.2-4.8-5.3-4.9-9.2c0-2.6,0.1-5.3,0.6-7.9
					c0.6-2.6,0.9-5.2,0.7-7.8c-0.1-1.1-0.1-2.4-1.3-2.8c-5.3-1.8-10.2-4.8-16.1-4.5c-9.1,0.5-18,2.3-26.5,5.8
					c-8,3.3-15.6,3.5-22.9-2.2c-2.3-1.8-3.5-1.2-4.4,1.5c-2.7,7.7-1.7,12,4.6,17.5c2.7,2.4,5,5,5.5,8.8c0.5,3.4,0.3,6.7-0.5,10
					c-1.2,4.5-1.8,9.1-1.4,13.8C168.1,590.6,168.6,594.3,168.4,597.7z M925,415.3c-0.7,8-2.6,16.7-10.5,22.9
					c-2.2,1.7-4.5,2.6-7.3,2.5c-3.7-0.1-4.2,0.6-3.1,4.1c0.3,0.9,0.8,1.8,1.2,2.7c1.4,2.6,3.1,5.2,4.3,7.9c1.7,4.2,4.3,7.2,8.6,9
					c2.7,1.1,5.4,2.2,8.1,3c2.6,0.8,5.5,1.3,8.3,0.8c9.5-1.7,19-2.7,28.7-3.1c6-0.2,11.3,1.3,16.2,4.7c5.4,3.7,11.6,5.6,18,6.6
					c4,0.6,4.3,0.2,3.9-3.7c-1-8.4-5.2-15.6-8.7-23.1c-1.2-2.5-3.1-4.1-5.4-5.6c-7.5-4.7-14.6-9.8-21.6-15.2
					c-3.5-2.7-7-5.5-10.7-7.9c-8.9-5.9-17.5-12.1-23.4-21.3c-0.6-1-1.5-1.8-2.3-2.6c-4.4-4.3-10.3-2.8-12.3,3.1
					c-0.9,2.7,0.1,4.6,2.7,5.6C924.2,407.6,925.1,409,925,415.3z M258.8,504.7c-9.1,0.5-11.9,1.5-12.6,10c-0.6,7.6-2.7,15-8.7,20.6
					c-0.3,0.3-0.6,0.8-0.6,1.2c0.9,5.3-0.6,10.5-1.2,15.7c-0.4,3.4,0.9,5.7,3.7,7.8c5.3,3.9,9.3,9,9.6,16c0.1,1.7,0.9,1.7,2.2,1.3
					c2.8-1.1,5.6-2.1,8.3-3.4c4.8-2.3,9.7-2.8,14.9-2.1c3.2,0.4,6.3,0.1,9.5-0.2c5.1-0.5,9.3-3.5,14-5.2c7.6-2.7,10.3-7.8,8.1-15.6
					c-2.5-8.9-7.4-16.2-15.5-20.9c-6.7-3.9-12-8.7-15.6-15.8C271.5,507.5,265.2,504.8,258.8,504.7z M511.8,158.6
					c-0.1-1.3-0.3-2.8-0.4-4.2c-0.3-5.5-3-9.3-7.8-11.9c-3.2-1.8-6.5-2.6-10.1-3c-8-0.9-11.4-4.2-12.6-12.1
					c-0.2-1.3-0.3-2.5-0.6-3.8c-1.2-4.8-4-7.1-8.9-7.3c-8-0.3-18.5,4.5-21.5,14.8c-0.9,3.2-1.6,6.6-3,9.6c-4.9,10.5-5,22-7,33.1
					c-0.9,4.9,1.5,9.1,3,13.6c0.9,2.8,2,3.2,4.5,2.1c5.1-2.1,10.2-4.3,15.5-5.9c13.1-3.9,26.3-7.9,39.6-11c6.2-1.5,8.3-5,8.9-10.4
					C511.6,161.1,511.7,159.9,511.8,158.6z M805.4,499c-3.1-2.4-5.9-3.2-8.7-4.1c-3.7-1.2-7.6-1.9-11.2-3.5
					c-3.3-1.5-5.8-3.9-5.5-7.7c0.7-7.5-0.3-14.9-0.4-22.3c0-7.9,0-7.9-8.1-7.8c-10.5,0.1-19,3.4-24.4,13.3
					c-2.5,4.6-6.7,8.1-12.6,8.4c-3.3,0.2-6.5,0.9-9.7,1.3c-1.3,0.2-2.7,0.3-3.4,1.4c-2.4,3.3-5.3,6.4-6.4,10.4
					c-1.4,5.1-2,10.5-1.8,15.9c0.2,6.2,5.6,11.1,10.9,9.7c8.5-2.3,17.2-2.5,25.8-3.8c5.7-0.8,10.9,0.4,15.7,3.1
					c2.2,1.2,3.3,0.8,4.8-0.8c6.5-6.6,14.1-11,23.6-11.7C797.7,500.6,801.2,499.7,805.4,499z M535.3,443.8c1.3,0,2.2-0.1,3.1,0
					c4.9,0.3,8.1-1.9,9.9-6.4c1.5-3.7,2.1-7.5,1.6-11.5c-0.5-4.5-1.2-9-1.8-13.5c-0.8-5.2-1.3-10.5,0.6-15.6
					c1.3-3.6,0.5-4.9-3.2-4.5c-5.2,0.5-10.3,0.3-15.5,0.4c-3.1,0.1-5.4-1.2-7-3.8c-2-3.3-2.1-3.4-5.6-1.9c-1.6,0.7-2.8,1.7-3.6,3.2
					c-2.1,3.7-3.8,7.5-4,11.8c-0.1,2.2-1,3.1-2.9,3.9c-6.8,2.8-13.5,5.8-18.5,11.6c-2.6,3.1-5.4,6.1-5.3,10.6
					c0.1,2.3,0.9,3.8,3.2,4.3c1.7,0.4,3.4,0.9,4.7,2.1c3.5,3.2,7.5,5.5,11.8,7.1c4.8,1.8,8.8,5.1,13.6,6.7c1.6,0.5,3,0.7,4.4-0.4
					C525.2,444.7,530.1,443.3,535.3,443.8z M581.1,435c4.5-0.4,8.7,0.7,12.6,3.1c4,2.4,8.3,4.1,13,4.4c3.4,0.2,5.8-1.6,6.2-5
					c0.1-1.2,0.2-2.4,0.1-3.5c-0.4-5.2,0.4-10.1,2.1-15c1.2-3.7,2.5-7.4,2.9-11.3c0.6-5.3-1.6-8.9-6.7-10.3
					c-5.1-1.4-7.8-4.6-8.8-9.6c-0.4-2.1-0.9-4.1-2-5.9c-1.5-2.3-3.7-2.3-6.1-2c-2.3,0.3-2.6,1.9-2.8,3.7c-0.4,2.8-0.7,5.6-1.7,8.2
					c-1.7,4.2-5.8,9-12.4,6.8c-3.2-1.1-6.4-1.1-9.7-1.1c-2.8,0-5.6-0.2-8.4-0.9c-4.7-1.1-4.8-1.1-6.1,3.8c-0.5,2-0.6,4-0.4,6
					c0.4,3.4,0.9,6.8,1.4,10.2c1.1,7,2.4,14,0,21c-0.4,1.2,0.1,1.6,1.2,1.8c3,0.8,5.8-0.1,8.5-1C569.6,436.7,575.1,434.8,581.1,435z
					 M837.1,446.5c-0.1,6.9,0,7.1,6.3,9.7c2,0.9,4,1.8,5.7,3.2c2.8,2.3,5.9,3.9,9.3,4.9c3.6,1,6.4,3.2,8,6.6c1.8,3.9,4.7,6.9,7.5,10
					c2.2,2.4,4.1,2.7,7.1,1.4c8.5-3.6,17.2-6.2,26.6-5.9c2.4,0.1,4.7-0.3,7-0.9c1.4-0.4,2.7-1,3.9-1.8c1.3-0.9,1.3-1.6-0.2-2.3
					c-1.3-0.6-2.7-1.2-4-1.7c-3-1.3-5.8-2.9-7.4-5.8c-3-5.3-5.7-10.7-8.6-16.1c-0.4-0.8-0.9-1.8-0.7-2.6c1-6.2-2.8-8.4-7.8-9.7
					c-0.4-0.1-0.8-0.3-1.2-0.6c-2.6-1.5-5.3-1.8-8.2-1.2c-7.9,1.7-15.7,0.7-23.6,0.3c-3.6-0.2-6.9-1.4-9.5-4.2
					c-2.7-2.8-3.4-2.8-6,0.3c-1.1,1.3-1.8,2.9-2.4,4.6C837.6,438.5,837.1,442.4,837.1,446.5z M299.8,605.3c2.3,0.1,4.7,0,6.7-1.1
					c4.9-2.8,9.6-6,13.7-9.8c5.7-5.2,3.6-14-3.9-16.3c-4.7-1.4-9.6-2.1-14.1-3.9c-3.6-1.5-6.5-0.9-9.7,0.6c-6.4,3-13.1,4.4-20.1,2.6
					c-2.4-0.6-4.8-0.2-7.2,0.8c-5.7,2.2-11.2,5.3-17.3,6.4c-0.8,0.2-1.7,0.7-2.4,1.3c-2.8,2.3-5.9,4-9,5.6c-2.7,1.3-5.3,2.9-7.5,4.9
					c-2.9,2.8-6.3,4.6-10.3,5c-2.1,0.2-2.4,1.2-1.5,2.9c1.4,2.9,4.1,4.1,7,4.6c4.8,0.9,9.6,0.4,14.3-1.1c6.8-2.1,13.5-4.5,20.3-6.3
					c10.1-2.6,20.2-3.4,30.1,1.4C292.1,604.7,295.9,605.4,299.8,605.3z M619.4,432.8c0,1,0,2,0,3s-0.3,2.1,0.7,2.8
					c1.5,1,2,2.5,2.6,4c1.2,3.3,1.8,3.6,5.3,2.7c3.4-0.8,6.8-1.8,10.3-2.5s7-0.5,9.6,2.4c1.5,1.7,2.9,1.7,4.8,1.1
					c9.9-3.5,14.2-9.6,14.4-20.4c0.1-3.2-1-5.9-3.5-7.9c-2.7-2.3-5.4-4.7-8.6-6.1c-5.5-2.5-7.4-6.7-7.2-12.4
					c0.1-4.5-0.3-4.8-4.6-5.2c-0.4,0-0.7,0-1.1-0.1c-5.2-1.6-9.8,0.3-14.3,2.6c-2.6,1.4-4.9,3.1-3.5,6.8c0.5,1.2,0.2,2.7,0.1,4
					c-0.2,4.8-1.9,9.2-3.4,13.7C619.8,425,619,428.8,619.4,432.8z M527.3,377c0,8.2,3.7,11,11.4,8.7c4.7-1.4,8.8-0.3,12.7,2.1
					c6.3,3.9,13.2,5.4,20.6,4.8c2.2-0.2,4.3-0.1,6.5,0.3c2,0.4,4.3,0,5.1-2.2c1.4-3.8,2.7-7.8,1.8-12c-0.9-3.8,0.4-6.7,3-9.4
					c0.9-0.9,1.8-1.8,2.7-2.7c1.9-1.9,1.9-4,0.4-6.1c-2.9-4.2-6.8-6-11.9-5.5c-6,0.6-10.8,3.5-15.6,6.7c-6.1,4-12.4,5.5-19.4-0.5
					c-2.9-2.5-5.7-2.5-8.7-0.2C530.5,365,527.3,370.2,527.3,377z M551.1,143c-0.1-1.8-0.1-3.5-0.3-5.3c-0.3-3.6-2.2-6.4-5.5-7.8
					c-5.4-2.3-11-3.8-16.8-4.4c-3.7-0.4-7.4,0-11,1.4c-4,1.6-6.5,4.6-7.6,8.7c-0.5,1.9-0.2,3.5,1.5,4.8c2.6,1.9,4.2,4.5,5,7.6
					c1.5,5.6,2.2,11.3,0.9,17c-0.6,2.5,0.3,2.6,2.3,2c2.9-0.9,6-1.6,8.9-2.4c8.4-2.1,16.7-4.2,25.1-6.2c2.2-0.5,2.6-1.6,1.8-3.4
					c-0.3-0.7-0.5-1.4-1-1.9C551.2,150.3,550.5,146.8,551.1,143z M607.7,380.9c0.7-1.1,1.4-2.1,2.2-3.1c1.2-1.5,2.8-1.9,4.6-1.2
					c1.8,0.7,2.9,1.9,2.9,3.9c0,0.9-0.1,1.8-0.2,2.7c-0.1,0.8-0.1,1.6,0.9,1.6c1.8,0,3.3,0.5,3.6,2.5c0.3,2.1-1.1,3-2.7,4
					c-0.6,0.4-2.2,0.5-1.1,1.8c0.7,0.8,1.6,1.8,3,0.7c6.6-5.4,14.4-7.1,22.7-6.5c2.2,0.2,3.4-0.9,4.1-2.8c2.2-5.6-1.6-12.5-7.9-13.8
					c-3.6-0.8-7.4-1.1-11.1-0.9c-8,0.4-10.5-1.5-11.5-8.8c-0.5-3.8-2.9-7.5-7.4-8.1c-4.3-0.6-8.2,0.8-11.7,3.4
					c-1.1,0.8-1.5,1.6-0.8,3c1.9,4.1,1,7.8-1.9,11.1c-0.7,0.9-1.5,1.7-2.3,2.7C601.5,373.8,601.5,373.8,607.7,380.9z M819.1,530.4
					c0.5,0,0.9,0.1,1.2,0c0.9-0.4,2.2-0.6,2.6-1.3c0.5-0.9-0.8-1.4-1.4-2c-1.9-1.9-3.1-4.3-3.9-6.8c-1.2-3.4-2.4-6.8-3.7-10.2
					c-0.9-2.4-2.7-3.5-5.2-3.6c-3.2-0.2-6.3,0.1-9.4,1c-2.9,0.8-5.7,1.9-8.8,1.8c-8.1-0.3-13.2,4.6-17.8,10.3
					c-1.2,1.5-1.2,2.9,0.9,3.9c2.1,1,4.2,1.7,6.5,1.3c3.3-0.6,6.5,0,9.5,1.4c1.9,0.9,3.8,1.7,6,1.6c6.3-0.4,12.5,0.4,18.6,1.9
					C815.8,530.1,817.5,530.2,819.1,530.4z"/>
				<path class="st1" d="M886.1,267.7c2.5-0.7,5.2-3.9,7.4-0.5c2.3,3.6-2.1,4.4-3.8,6.8c5.2,0.4,9.6,2.1,13.9,4.3
					c8.2,4.2,12.5,10.8,12.5,20.1c0,6.2,0.2,12.4-1,18.5c-1.2,6.2-4.6,10-10.8,11c-8.3,1.3-16.7,1.2-25,1.1c-2.5,0-4.8-1.2-6.9-2.4
					c-2.8-1.6-5.7-1.7-8.6-0.6c-5.7,2.1-11.4,4.1-17.1,6.5c-10.2,4.2-20.5,4.9-29.5-2.7c-3.4-2.9-6.2-4.4-10.7-2.7
					c-2.2,0.8-4.9,0.3-7.3,0.3c-2.5,0-4.9,0.5-7.1,1.6c-1.8,0.9-4,1.6-3.4,4.4c0.1,0.4-0.3,1.1-0.6,1.5c-5.1,5.2-10.1,10.1-18.5,10
					c-9.5-0.1-18.7-0.6-27.4-4.6c-3.5-1.6-7-1.2-10.7-0.7c-5.4,0.8-10.3,2.8-15.3,4.9c-6.5,2.7-13,3.4-20.1,1.4
					c-8.8-2.4-17.8-1.9-26.8-0.4c-6.8,1.1-13.8,1.3-20.6,1.4s-10.5-3.6-10-10.4c0.7-8.4,1.4-16.8,4.5-24.9c1.5-3.9,4.2-6.4,8.1-7.4
					c2.8-0.7,3.8-2.1,3.9-4.9c0.2-12.2,6.8-20.5,16.7-26.7c2-1.2,4.2-1.8,6.5-1.8c1.5,0,2-0.4,1.2-2c-3.1-5.5-1.6-10.5,2.3-14.8
					c6-6.7,12.9-12.6,20.1-18c5.6-4.2,10.9-8.7,16.4-13.1c1.7-1.4,1.6-2.2-0.5-2.9c-2.2-0.7-4.3-1.5-6.4-2.4c-1.8-0.7-3.2-2-2.6-4.2
					c0.7-2.4,2.6-2.6,4.7-1.9c2.3,0.7,4.4,1.6,6.7,2.4c0.6,0.2,1.4,0.9,2,0.2c0.6-0.6,0-1.4-0.2-2c-0.4-1.3-0.9-2.6-1.3-3.9
					c-0.5-1.9-0.2-3.5,1.8-4.3c1.9-0.8,3.3,0.2,4.3,1.9c0.3,0.6,0.6,1.3,0.9,2c0.4,1.1,0.7,1,1.7,0.4c2.6-1.4,5.2-2.8,8.2-0.6
					c0.8,0.6,1.9,0.6,2.5-0.1c1.5-1.8,2.2-0.3,3.5,0.4c7.4,3.7,12.9,9.9,18.9,15.4c7.2,6.6,14,13.8,19.9,21.6c2.4,3.3,4.8,5.7,8.7,7
					c3.9,1.2,5.6,5,7.6,8.2c0.7,1.1,0.9,2.6,2.6,3.7c0.5-3.2,1.3-6.1,2.6-8.9c0.7-1.7,1.5-3.3,2.4-4.9c1-1.6,2.5-2.5,4.4-1.4
					c1.8,1,2,2.8,1.1,4.5c-1.2,2.5-2.4,5.1-3.2,7.8c-0.1,0.5-0.1,1-0.2,1.8c2.1-0.5,3.6-1.8,5.2-2.7c1-0.6,1.9-1.3,3-2
					c1.7-1,3.5-1.4,4.8,0.5s0.5,3.5-1.1,4.7c-1.8,1.4-3.7,2.6-5.6,3.8c-1.1,0.7-1.3,1.2-0.2,2.2c5.4,4.6,9.8,10,12.3,16.7
					c0.2,0.5,0.5,1,0.9,1.3c5,3.3,12.2,1.2,14.7-4.2c1.9-4.1,3.8-8.2,6.7-11.8c5.7-7.3,17.9-8.6,24.8-1.2c1.1,1.1,2.1,3.1,3.8,2.6
					c1.2-0.4,0.6-2.4,1-3.7c0.7-2.4,1.7-4.6,2.9-6.8c1.4-2.3,3.2-3.1,4.9-2.1c2.1,1.3,1.8,3.1,0.9,5
					C886.6,265.7,885.8,266.5,886.1,267.7z M740.4,303.5C740.5,303.5,740.5,303.6,740.4,303.5c0.1,1.5,0,2.9,0.1,4.4
					c0.2,3,1.2,3.9,4.1,3.6c1.9-0.2,3.7-0.8,5.6-1.1c4.6-0.9,8.8-0.6,12.2,3.2c2.9,3.3,6.5,5.9,9.8,8.7c5.1,4.3,9.4,4.8,15.2,1.7
					c3-1.6,6-3.2,9.5-3c5.9,0.2,11.5-1,17.1-2.5c3.3-0.9,4-3,4.8-5.5s-1.5-3-2.8-4.1c-0.3-0.3-0.8-0.5-1.1-0.8
					c-3.5-2.6-4.3-5.9-2.4-9.8c1.2-2.4,3-4.3,4.8-6.2c1.6-1.8,3.7-4,2.2-6.5c-3.9-6.3-7.4-13.1-16.3-13.6c-4.4-0.2-7.4-2.8-9.2-6.7
					c-1-2.1-2.2-4.2-3.7-6c-2-2.4-7.5-4.3-9.4-3.2c-2.7,1.6-5.5,2.8-8.5,3.6c-4.7,1.3-8.3,4-10.5,8.1c-3.5,6.5-8.6,11.4-14.1,16
					c-4.2,3.5-6.4,7.8-6.8,13.1C740.8,299.2,740.6,301.4,740.4,303.5z M889.9,322.8v-0.1c3.4-0.2,6.7-0.3,10.1-0.5
					c0.6,0,1.3-0.1,1.9-0.2c4.8-0.7,6.2-2.2,7-6.9c1-5.9,0.7-11.8,0.7-17.7c-0.1-5.6-2.8-9.6-7.4-12.5c-5.6-3.5-11.7-4.8-18.2-4.4
					c-5.7,0.3-10.4-1.6-14.4-5.7c-5.3-5.5-12-4.8-16.6,1.3c-2.1,2.8-3.4,6-4.8,9.1c-3.5,7.9-7.3,10.1-15.8,9.4
					c-1.5-0.1-3.1-0.4-4.6-0.7c-1-0.2-2-0.2-2.9,0.5c-2,1.6-4,3.2-5.5,5.2c-1.4,1.8-1.3,3,0.8,4.4c6.3,4.3,6.8,6.1,4.1,13.2
					c-0.4,1-0.8,2-1.1,3.1c-0.2,0.5-0.4,1.3-0.2,1.5c2.1,2.3,3.5,5.4,7,6.1c4.9,0.9,9.7,0.8,14.2-1.3c5.7-2.6,11.7-4.5,17.6-6.7
					c4.6-1.7,9.1-1.6,13.4,1c2.5,1.5,5.2,2.1,8.1,1.9C885.4,322.7,887.7,322.8,889.9,322.8z M684.5,263.2c0,1,0.4,2,1,2.8
					c2.7,3.5,5.7,6.7,9.6,9.2c3.7,2.3,6.6,2.4,10-0.5c3.9-3.4,8.5-6,13.7-6.1c9.3-0.1,18.9-0.7,26.9,5.5c1.3,1,2.4,0.8,3.7-0.2
					c2.4-1.9,4.1-4.4,5.6-7c3.8-6.7,8.9-11.7,16.6-13.5c1.5-0.4,2.9-1.1,4.3-1.7c2.1-0.8,2.2-1.9,0.9-3.7c-3-3.9-6.9-7-10-10.8
					c-7-8.5-15.9-15-23.6-22.6c-0.8-0.8-1.9-1.4-2.9-2c-0.7-0.4-2-0.6-2.3,0.1c-0.9,2.6-3.8,3-5.1,5c-1.2,1.9-2.8,3.6-4.5,5.1
					c-7.4,6.2-14.6,12.6-22.4,18.3c-6.3,4.6-12,10-17.6,15.4C686.3,258.2,684.5,260.3,684.5,263.2z M781.7,332.8
					c-1.1-0.3-1.5-0.5-1.9-0.5c-4.7-0.2-8.5-2.3-11.9-5.3c-3.5-3.1-7.3-6-10.5-9.5c-1.2-1.4-2.7-1.7-4.4-1.6c-2.7,0.2-5.4,0.5-8,1.5
					c-1.2,0.5-2.3,0.6-3.4,0.4c-4.3-0.6-7.1-3.7-7.4-8.8c-0.4-6.1-0.1-12.2,1.4-18.1c0.7-2.7,1.9-5,3.5-7.3c0.9-1.4,3.7-2,2.4-4.2
					c-0.9-1.5-2.9-2.1-4.6-2.8c-0.3-0.1-0.7-0.3-1-0.3c-10.2-1.7-20.3-3.2-28.8,4.8c-1.7,1.6-3.7,2.6-6,3c-2.8,0.5-3.3,1.8-1.4,4
					c1.3,1.5,2.8,2.9,4.1,4.3c5.6,6.1,7.5,12.8,4.2,20.8c-1.7,4.2-3.1,8.5-3.7,13.1c-0.6,4.2,0,8.1,2.6,11.6c2,2.8,2.6,3.1,5.8,1.6
					c5.9-2.6,11.9-4.9,18.3-5.9c4.3-0.6,8.4-0.6,12.6,0.8c3.7,1.3,7.1,3.2,11,3.8c5.9,1,11.8,0.4,17.7,0.4
					C776.3,338.7,778.6,335.5,781.7,332.8z M699.5,338.4c-2.9-6.1-2.2-12.2-0.6-18.3c0.9-3.2,1.9-6.5,3.1-9.6
					c1.9-4.8,1-8.9-2.3-12.6c-1.9-2.1-3.9-4.1-5.8-6.2c-1.9-2.1-2.7-4.7-2-7.3c0.8-2.6-0.1-3.9-2.4-4.8c-1.5-0.6-2.3-2.8-4.4-2.3
					c-1.5,0.4-2.9,0.2-4.3,0c-2.2-0.2-4.4-0.2-6.3,1.1c-7.7,5-13,11.5-13.2,21.2c-0.1,6.4-1.7,8.6-7.8,10.4
					c-2.5,0.8-3.9,2.2-4.8,4.7c-2.5,6.9-2.8,14.2-3.8,21.4c-0.5,3.3,0.7,4.4,4,4.3c6-0.3,12,0,17.9-1.2
					C677.7,337,688.5,338.6,699.5,338.4z"/>
				<path class="st1" d="M110.7,186.7c2.3-3.3,5.3-6,8.2-8.7c3.3-3,6.5-6.1,10.7-7.9c1.1-0.5,1.4-1.3,1.6-2.3
					c3.9-14.5,16.6-22.8,31.4-20.6c1.5,0.2,3.1,0.5,4.6,0.8c4.3,0.8,8.3,0.5,11.7-2.7c1.7-1.6,4-2.6,6.5-2.6
					c5.4,0,10.7,0.2,15.9,1.8c8.2,2.5,13.1,8.2,15.1,16.4c1.2,5,2.7,10,3.3,15.8c1.8-2.2,3.1-3.8,4.5-5.3c1.3-1.5,3-2.4,4.8-0.9
					s1.1,3.2-0.1,4.8c-1.5,2-3.4,3.7-4.5,6.2c1.6,0.5,2.8-0.3,4.1-0.4c1.7-0.1,3.1,0.3,3.6,2.2c0.4,1.7-0.5,2.8-2,3.4
					c-1.2,0.5-2.5,0.9-4,1.4c1.6,1.9,3.2,3.3,5.1,4.4c2.6,1.5,4.8,3.6,7,5.6c2.1,1.8,2.6,4.3,1.7,7c-2,6.1-6.4,9.4-12.6,10.1
					c-10.4,1.3-20.8,1.4-31.3,0.8c-1.9-0.1-2.9,0.3-3.9,2.2c-3.4,5.9-9,8.6-15.6,9c-9.4,0.5-18.9,0.4-28.3,1
					c-5.4,0.3-10.6,1-15.8,2.5c-7.4,2.1-14.8,1.9-22.1-0.2c-7.5-2.1-9.4-6-6.8-13.3c0.5-1.4,0.9-2.8,0.3-4.2c-1.8-4-1.3-8,0.1-12
					c1.1-3,0.9-3.2-2.4-3c-1.5,0.1-2.9,0.2-4.3-0.3c-1.6-0.5-3-1.4-3.3-3.2c-0.3-1.9,0.9-3.1,2.3-4c0.7-0.4,1.5-0.7,2.2-1
					c4-1.1,4-1.1,4.2-5.3c0-0.7,0.1-1.5,0.1-2.2c0.2-1.8,0.9-3.5,3-3.6c2.3-0.2,3.1,1.5,3.6,3.4c0.3,1.5,0.5,3,0.8,4.5
					C110.3,186.5,110.5,186.6,110.7,186.7z M206.8,210.9c5.5-0.3,12-0.6,18.6-1.1c2.9-0.2,5.5-1.1,7.5-3.4c1.4-1.7,1.6-3.3-0.3-4.7
					c-3.4-2.6-6.5-5.7-10.2-7.6c-6-3.1-8.6-7.7-9-14.1c-0.4-5.6-1.2-11.2-3.1-16.5c-1.4-3.9-3-7.8-6.8-9.9
					c-7.8-4.4-15.9-6.8-24.2-0.7c-3.2,2.3-6.8,2.9-10.6,2.1c-2.8-0.5-5.6-0.9-8.3-1.5c-9.7-1.8-16.9,3.8-21.4,11.3
					c-3.3,5.4,0.3,11.1,6.6,11.3c2.8,0.1,5.7-0.3,8.4,0.1c12.2,1.8,16,5.5,15.9,15.3c-0.1,5.9,1.8,9.9,6.5,13c0.9,0.6,1.7,1.3,2.6,2
					c2.5,2.1,5.4,3.3,8.7,3.5C193.7,210.2,199.7,210.5,206.8,210.9z M158.1,221.8c5.3,0,10.5,0.1,15.8,0c4.5-0.1,8.6-1.3,11.9-4.6
					c0.7-0.7,1.4-1.6-0.3-1.8c-5.7-0.6-9.6-4.4-13.9-7.6c-4.9-3.6-7.2-8.2-7.4-14.4c-0.2-7.7-2.7-10-10.4-10.8
					c-4-0.4-8-0.8-11.9-1.2c-3.1-0.3-5.8-1.7-7.8-4.1c-1.3-1.6-2.5-1.5-4-0.5c-10.4,7.1-17.8,16.5-21.4,28.7
					c-0.3,1.1-0.6,2.3-0.2,3.5c1.2,4,0.9,7.9-0.6,11.7c-0.7,1.9,0,3.2,1.8,3.9c0.8,0.3,1.7,0.7,2.6,0.9c5.2,1.1,10.6,1.9,15.7,0.3
					C137.8,222.7,147.9,222.4,158.1,221.8z"/>
				<path class="st1" d="M420.2,399.3c2.2,0,5,0.5,7.6,1.8c1.8,0.9,2.4,0.3,2.8-1.4c0.6-2.2,1.3-4.4,2-6.5c0.7-1.9,2-3.2,4.1-2.6
					c2.3,0.7,2.5,2.6,1.9,4.7c-0.6,2.3-1.4,4.5-2,6.8c-0.4,1.3,0.1,1.7,1.4,1.2c1.9-0.7,3.7-1.6,5.6-2.2s3.7-0.3,4.4,1.9
					c0.7,2-0.5,3.3-2.3,4c-1.5,0.7-3.7,0.8-4.2,2.1c-0.5,1.2,1.6,2.4,2.2,3.8c2.4,5.2,3.3,10.9,5.1,16.4c2.6,7.8,6.2,15.3,9.6,22.8
					c1.7,3.9,3.2,7.7,2.3,12.1c-0.7,3.4-3,5.5-6.5,5.3c-4.2-0.2-8.1-1.8-12.2-2.7c-5.4-1.3-10.6-3-16.1-4c-5.7-1.1-11,0.4-16.3,1.9
					c-3.5,1-6.9,1.5-10.5,0.7c-6.6-1.5-10.7-6.9-10.3-13.7c0.3-5.6,1.9-10.9,4.4-15.9c1.9-3.8,2.4-7.6,1.2-11.6
					c-1.5-5-2.3-9.9,1.2-14.3c4.4-5.5,9.8-9.5,17.1-10.1C415.1,399.5,417.3,399.5,420.2,399.3z M415.6,405.4
					c-3-0.3-6.6,1.4-10.1,3.7c-4.7,3.1-6.3,5.7-4.5,11c2.1,6.5,0.9,12.3-1.7,18.2c-1.6,3.7-2.9,7.6-3.4,11.7
					c-0.7,5.6,2.3,9.7,7.4,10c1.8,0.1,3.4-0.4,5-1.2c6.8-3.4,14.1-4.3,21.5-2.9c6.8,1.3,13.5,3.3,20.2,5.6c1.2,0.4,2.7,1.5,3.8,0.3
					c1-1.1,0.5-2.6,0-3.9c-1.6-3.9-2.7-7.9-4.8-11.5c-2-3.5-3.6-7.2-4.6-11c-1.4-5-3.3-9.9-5.5-14.5
					C434.3,411.9,427.6,405.7,415.6,405.4z"/>
				<path class="st1" d="M926.8,354.5c-0.1-10.8,3.8-20,11.4-27.7c2.5-2.6,3.8-5.7,4.6-9.1c0.7-3.2,1.1-6.4,2.8-9.3
					c1.8-3.1,4.2-5.5,8-5.9c2.4-0.2,3.1-1.2,2.1-3.5c-0.6-1.3-0.7-2.8-0.6-4.3c0.1-1.9,0.9-3.4,3-3.5c2-0.1,2.9,1.2,3.3,3
					c0.3,1.5-0.1,3.7,1.5,4c1.3,0.3,1.9-1.9,2.9-2.9c0.5-0.5,0.9-1.1,1.5-1.6c1.4-1.2,2.9-1.6,4.4-0.3c1.4,1.2,1.4,2.8,0.5,4.2
					c-1.1,1.7-2.3,3.2-3.6,4.8c-1,1.3-1.2,2.4,0.5,3.3c2,1.1,3.3,2.8,4.4,4.8c1.7,3.2,4.1,5.5,7.5,6.8c0.8,0.3,1.5,0.7,2.2,1.1
					c5,2.5,8.5,6,8.5,12.2c0,2.2,0.7,4.5,1.1,6.7c0.3,1.7,1,3.1,2.2,4.3c4.9,4.7,5.6,10.6,4.7,16.9c-0.7,5-4.9,6.6-8.9,7.6
					c-6.1,1.5-12.3,0.7-18.2-1.2c-3.7-1.2-7.2-3.1-11.1-3.6c-5.2-0.7-10.2,0.1-15.1,1.4c-3.4,0.9-6.8,1.3-10.1,2
					c-2.3,0.5-4.5-0.2-6.7-0.9c-1.9-0.6-2.4-2.4-2.5-4.2C926.7,357.6,926.8,356.1,926.8,354.5z M933.1,350.5c0,6.7,1.5,8,7,6.4
					c2.9-0.8,5.9-0.7,8.9-1.3c9.2-1.6,18.3-1.2,26.8,3.2c1.8,0.9,3.8,1.3,5.8,1.5c2.6,0.2,5.1-0.4,7.5-1.3c4.5-1.7,5-8.2,0.9-12.2
					c-3.1-3-4.5-6.5-4.6-10.7c0-1.5-0.1-3.1-0.4-4.6c-0.6-3.3-1.7-6.2-5.7-7c-2.2-0.4-3.8-2.1-5.2-3.8c-2.9-3.8-6.3-7.3-9.7-10.6
					c-3.5-3.4-8.6-3.1-11.5,0.8c-2.7,3.6-4.7,7.7-5.1,12.2c-0.4,5.3-3.1,9-7.1,12C935,339.2,933.8,345.3,933.1,350.5z"/>
				<path class="st1" d="M687.4,442.8c-1.5,0-2.9,0.1-4.4,0c-3.2-0.2-6.5-0.5-8.1-4c-1.7-3.8-1.5-7.6,0.7-11.2
					c0.6-0.9,1.3-1.8,2.1-2.5c4.6-3.9,8.9-8.1,15.2-8.9c1.2-0.2,1.7-0.9,1.8-2c0.2-1.4,0.6-2.9,1.5-4c1.1-1.4,2.4-2,4.1-1.2
					c1.5,0.7,2,2.1,1.6,3.7c-0.1,0.6-0.4,1.2-0.5,1.8c-0.1,0.4-0.2,1,0.1,1.3c0.4,0.3,0.8,0,1.2-0.2c1.3-0.6,2.6-1.4,3.9-1.9
					c1.7-0.6,3.3-0.2,4.2,1.6c0.8,1.6,0.2,3.1-1.3,4c-1.9,1-1.4,2-0.1,3c2.7,2.2,2.7,4.9,1.9,7.9c-1.6,6-5.3,9.7-11.4,11.3
					C695.9,442.4,691.7,443.2,687.4,442.8z M692.2,437.3c3.6-0.5,7.2-1.8,10.2-4.2c1.8-1.4,3.3-3.8,2.3-6c-1.3-2.8-3.5-5.1-7.1-5.1
					c-5-0.1-9.5,1.3-13.3,4.7c-2,1.8-3.4,4-3.8,6.7c-0.2,1.3,0,2.6,1.7,2.8C685.5,436.5,688.8,436.9,692.2,437.3z"/>
				<path class="st1" d="M957.7,501.7c-1.7-0.1-3.3-0.9-4.6-2c-3.9-3.1-6.3-7.2-7.5-12c-0.2-0.7-0.2-1.4-0.1-2.2
					c0.1-1.8,1-3.2,3-3.3c1.8-0.1,2.8,1,3.3,2.6c0.4,1.4,0.6,2.8,1.2,4.2c1.2,2.9,3,5.4,5.9,6.8c1.5,0.7,2.4,2,1.8,3.8
					C960.3,501,959.2,501.7,957.7,501.7z"/>
				<path class="st1" d="M913.9,501c-0.1,4.9-7.1,11.5-11.4,11.4c-1.4,0-2.5-0.6-2.9-2c-0.5-1.5-0.1-2.9,1.3-3.5
					c3.3-1.6,5.8-3.9,7.4-7.3c0.7-1.3,2.1-1.7,3.6-1.2C913.4,499,914,500.1,913.9,501z"/>
				<path class="st1" d="M124.9,556.2c-0.3,6.2-3.3,10.8-8.5,14c-1.5,0.9-3.2,1.4-4.9,1.1c-1.5-0.2-2.5-1.1-2.7-2.6
					c-0.2-1.4,0.5-2.6,1.8-3c5.7-1.6,7.8-5.6,7.9-11.2c0-1.9,1.1-3.4,3.2-3.4s3,1.4,3.2,3.3C125,554.9,124.9,555.5,124.9,556.2z"/>
				<path class="st1" d="M132.1,588.7c0-2.4,0.2-4.7,0.9-7c0.6-1.9,1.5-3.5,3-4.8c1.6-1.2,3.3-1.8,4.9-0.2c1.5,1.5,1,3.1-0.1,4.7
					c-2.8,4.2-3.3,8.5-0.7,13c0.9,1.5,1,3-0.4,4.2s-2.9,0.8-4.2-0.2C132.2,595.9,132.1,592.3,132.1,588.7z"/>
				<path class="st1" d="M182,491.3c-0.4-0.1-0.9-0.2-1.4-0.4c-5.1-2.7-8.9-6.5-10.7-12.1c-0.4-1.3-0.6-2.7,0.2-4
					c0.6-1,1.6-1.5,2.7-1.5c1.4,0.1,2.5,0.8,2.9,2.1c1.2,4.5,4,7.6,7.9,10c1.3,0.8,2,2.1,1.5,3.8C184.6,490.6,183.6,491.3,182,491.3
					z"/>
				<path class="st1" d="M189.7,512.4c0-5.6,7.4-11.4,12.3-10.3c1.5,0.3,2.4,1.2,2.6,2.8c0.1,1.5-0.7,2.8-2.1,3.1
					c-3.5,0.5-5.6,2.6-7,5.7c-0.6,1.4-2.1,2-3.7,1.4C190.3,514.5,189.7,513.4,189.7,512.4z"/>
				<path class="st1" d="M812.1,473.1c0.1,4.1-1.2,7.9-3.5,11.3c-1.2,1.7-2.8,2.9-4.8,1.6c-2.1-1.3-1.7-3.2-0.6-5
					c2.7-4.2,2.9-8.7,1.4-13.4c-0.1-0.4-0.3-0.9-0.3-1.3c-0.4-2,0-3.7,2.2-4.4c2-0.6,3.3,0.6,4,2.4
					C811.6,467.1,812.1,470.1,812.1,473.1z"/>
				<path class="st1" d="M836.9,500.5c0-2.9,0-5.8,1-8.6c0.8-2.2,1.9-4.1,4.1-5.2c1.4-0.7,2.7-0.5,3.7,0.7c1,1,1.3,2.5,0.4,3.5
					c-3.3,3.7-2.8,8.2-2.8,12.6c0,3.9-0.8,5.4-3,5.5s-3.3-1.7-3.4-5.5C836.9,502.5,836.9,501.5,836.9,500.5z"/>
				<path class="st1" d="M812.9,440.4c1.7,0.1,2.7,1.2,3,2.9c0.6,3.7,2.5,6.3,5.5,8.4c1.7,1.1,2.6,2.7,1.3,4.7
					c-1.2,1.8-3,1.7-4.6,0.8c-4.7-2.7-7.7-6.6-8.5-12C809.1,442.3,810.5,440.4,812.9,440.4z"/>
				<path class="st1" d="M870.9,401.3c-0.9,5.1-3.7,9.5-8.6,12.4c-1.5,0.9-3.2,0.8-4.3-0.8c-1.1-1.6-0.6-3.2,0.9-4.3
					c3-2.3,5-5.1,5.8-8.9c0.4-1.9,1.7-3.1,3.7-2.7C870.4,397.3,870.9,398.9,870.9,401.3z"/>
				<path class="st1" d="M890,399.8c0-2,0.2-3.4,0.9-4.7c0.8-1.5,2.1-2.3,3.8-1.8c1.6,0.5,2.5,1.8,2.1,3.4c-0.8,3.3,0.1,5.8,2.4,8.1
					c1.2,1.2,1.2,2.9,0,4.2c-1.3,1.3-2.8,1.2-4.2,0.1C891.9,406.6,890.2,403.3,890,399.8z"/>
				<path class="st1" d="M206.2,558.1c-5.8-0.5-10.8-2.1-13.8-7.5c-1-1.8-1.5-3.7-1.1-5.8c0.3-1.7,1.3-2.8,3.1-2.8s2.7,1.1,3.1,2.8
					c1,4.7,2.4,6,7.1,6.8c0.7,0.1,1.4,0.2,2.2,0.3c2.1,0.3,3.9,1,3.6,3.5C210.1,557.9,208.1,558.2,206.2,558.1z"/>
				<path class="st1" d="M201.9,576.8c3.7,0,6.6,1.5,8.8,4.2c1.2,1.5,1.6,3.1,0.1,4.6c-1.4,1.4-3,1-4.4-0.2
					c-1.5-1.4-3.2-2.3-5.4-2.1c-2.1,0.2-3.9-0.3-4.3-2.7c-0.3-1.9,1.2-3.3,3.8-3.7C201.1,576.9,201.6,576.9,201.9,576.8z"/>
				<path class="st1" d="M958.3,443.5c4.1,0,7.7,1.4,10.8,3.9c1.6,1.3,2.6,3,1.1,4.9c-1.4,1.8-3.2,1.3-4.8,0.1
					c-2.5-1.9-5.3-2.7-8.4-2.4c-0.8,0.1-1.6,0-2.4-0.2c-1.5-0.3-2.4-1.3-2.5-2.8c-0.1-1.6,0.7-2.7,2.2-3.1
					C955.5,443.7,956.9,443.7,958.3,443.5z"/>
				<path class="st1" d="M268.8,538.1c-4.7-0.1-9.4-1.8-12.1-7c-0.7-1.4-1.1-2.9,0-4.4c1.4-1.9,4.1-1.6,5.3,0.8
					c1.7,3.3,4.4,4.3,7.8,4.4c3.3,0.1,4.8,1.2,4.7,3.2C274.4,537.2,272.8,538.2,268.8,538.1z"/>
				<path class="st1" d="M477,150c-5-0.1-11.3-4.8-12.6-9.1c-0.5-1.6-0.3-2.9,1.2-3.8c1.4-0.9,2.8-0.6,3.9,0.6
					c0.7,0.7,1.2,1.6,1.8,2.4c1.5,2,3.3,3.7,5.9,4c1.9,0.3,3.4,1.2,3.1,3.4C480,149.6,478.3,150,477,150z"/>
				<path class="st1" d="M479.7,170.1c0,1.2-0.3,3.3-2.9,3.5c-2.5,0.1-3.1-1.8-3.3-3.8c-0.2-2.5-1.3-4.4-3.4-5.9
					c-1.7-1.2-2.7-2.9-1.2-4.9c1.4-1.9,3.4-1.5,5.1-0.3C477.7,161.1,479.6,164.7,479.7,170.1z"/>
				<path class="st1" d="M765.2,469.2c0,0.8-0.3,1.6-0.8,2.3c-2.8,3.9-5.5,7.9-8.3,11.8c-0.6,0.8-1.3,1.5-2.1,2.1
					c-1.4,1-2.9,1.1-4.2-0.2c-1.2-1.2-1.3-2.8-0.2-4c3.7-4.3,6.5-9.2,10-13.5c1-1.2,2.3-1.8,3.9-1.2
					C764.6,466.9,765.2,467.9,765.2,469.2z"/>
				<path class="st1" d="M518.5,429.9c-4-0.1-6.9-1.5-8.7-4.7c-0.9-1.6-0.9-3.2,0.8-4.3c1.5-1,3.1-0.6,4.1,0.8c1.5,2.2,3.6,2.5,6,2
					c2-0.3,3.8,0,4.1,2.4c0.3,2.3-1.4,3.1-3.4,3.4C520.3,429.7,519.2,429.8,518.5,429.9z"/>
				<path class="st1" d="M592.5,426.6c0-2.7,0.5-5.4,1.3-8c0.5-1.6,1.3-3,2.6-4s2.7-1.2,4-0.2s1.7,2.5,0.9,3.9
					c-2.1,3.4-2.4,7.1-2.4,11c0,2.1-0.6,3.9-3.1,4c-2.3,0-3-1.7-3.3-3.6C592.6,428.6,592.6,427.6,592.5,426.6z"/>
				<path class="st1" d="M883.5,453.2c-4.8-0.4-9.3-2.1-12.4-6.1c-1.3-1.7-2-3.7,0-5.3c2-1.6,3.7-0.6,5.1,1.2c1.7,2.2,4,3.3,6.7,3.8
					c0.5,0.1,1.1,0.2,1.6,0.3c2,0.4,3.5,1.3,3.2,3.6C887.4,452.8,885.7,453.3,883.5,453.2z"/>
				<path class="st1" d="M299.8,592.4c-4.3-0.2-8-4.8-7.1-8.8c0.3-1.5,1.2-2.5,2.7-2.6c1.6-0.2,2.7,0.6,3.1,2.1
					c0.5,1.8,1.2,3.1,3.2,3.5c1.6,0.4,2.3,1.8,1.9,3.4C303.1,592,301.4,592.3,299.8,592.4z"/>
				<path class="st1" d="M649.9,423.3c-0.3,3.9-2.3,7.5-5.5,10.3c-1.4,1.3-3.1,1.7-4.6,0.2s-1-3.2,0.3-4.6c1.8-2,3.2-4.1,3.4-6.9
					c0.2-3,1.5-4.4,3.5-4.2C648.9,418.3,650,420.1,649.9,423.3z"/>
				<path class="st1" d="M540.5,151.5c-1.5-0.1-2.8-0.8-3.9-1.7c-2.8-2.3-4.7-5.3-5.8-8.7c-0.6-1.8-0.3-3.6,1.6-4.3
					c2.1-0.8,3.5,0.2,4.3,2.2c1.1,2.9,2.6,5.5,5.4,7.2c1.3,0.8,1.7,2.1,1.1,3.6C542.8,150.9,541.8,151.5,540.5,151.5z"/>
				<path class="st1" d="M782.5,287.6c-0.3,5.4-3,8.8-7.2,11.2c-1.8,1-3.8,1.1-5-1s0-3.6,1.8-4.7c2.9-1.7,4.4-4,3.4-7.5
					c-0.2-0.6-0.2-1.3-0.2-1.9c0.1-1.8,0.8-3.2,2.7-3.5s3.1,0.8,3.6,2.6C782.1,284.5,782.3,286.2,782.5,287.6z"/>
				<path class="st1" d="M872.7,297c-4.4,0.1-10-5-10.5-9c-0.2-1.5,0.3-2.7,1.7-3.4c1.5-0.7,3-0.4,3.9,1c1.6,2.6,3.5,4.7,6.6,5.7
					c1.4,0.4,1.9,1.9,1.4,3.4C875.1,296.4,873.8,296.9,872.7,297z"/>
				<path class="st1" d="M848.6,302.6c-0.1-2.3,0.3-4.3,2.9-4.5c2.6-0.2,3.4,1.7,3.7,3.9c0.6,4.4-1.1,7.8-4.5,10.4
					c-1.5,1.2-3.2,1.5-4.6-0.1c-1.4-1.5-1-3.2,0.4-4.6C847.8,306.3,849,304.8,848.6,302.6z"/>
				<path class="st1" d="M732.9,247.3c-0.4,5.2-2.1,9.9-5,14.1c-1,1.5-2.6,2-4.3,1c-1.6-0.9-2-2.5-1.3-4c2-4.1,3.7-8.2,4.4-12.7
					c0.3-1.7,1.7-2.6,3.5-2.3C732.3,243.8,732.8,245.4,732.9,247.3z"/>
				<path class="st1" d="M741.4,230c0.1-0.7,0.1-1.4,0.3-2.2c0.4-1.9,1.4-3.3,3.5-3.1c2.1,0.1,3,1.6,2.9,3.6
					c-0.1,2.5,0.4,4.6,2.5,6.3c1.3,1.1,1.5,2.7,0.4,4.2s-2.7,1.6-4.2,0.8C743,237.5,741.7,234,741.4,230z"/>
				<path class="st1" d="M682.3,316.6c0,1.3-0.6,2.3-1.7,2.9c-3.9,1.9-6.1,5.4-7.8,9.1c-0.4,0.9-0.9,1.8-1.8,2.4
					c-1.1,0.7-2.2,0.8-3.3,0.1c-1.2-0.8-1.8-2-1.3-3.3c1.9-5.9,5-10.9,10.8-13.7C679.7,312.7,682.3,314.1,682.3,316.6z"/>
				<path class="st1" d="M684.1,293.7c-0.4,2.6-0.7,5.3,0.9,8c1.1,2-1,4.2-3.4,3.8c-2.1-0.4-3.7-1.6-4.2-3.8
					c-0.7-3.1-0.5-6.3,0.3-9.4c0.5-1.7,1.7-2.8,3.6-2.5C683.5,290.1,684.2,291.7,684.1,293.7z"/>
				<path class="st1" d="M197.6,190.8c0-1.7,0.1-3.3,0.8-4.8c0.7-1.8,2-2.9,4-2.4c1.9,0.5,2.4,2,2.2,3.9c-0.1,0.5-0.2,1.1-0.3,1.6
					c-0.4,2.3-0.3,4.5,1.5,6.3c1.2,1.3,1.3,2.8,0.1,4.2c-1.3,1.4-2.8,1.2-4.2,0.3C198.3,197.7,197.7,194.3,197.6,190.8z"/>
				<path class="st1" d="M198.5,173.8c-3.9-0.7-8.4-1.6-11.9-5c-0.6-0.6-1.3-1.4-1.6-2.2c-0.5-1.3-0.2-2.6,0.8-3.5
					c1.1-0.9,2.4-0.8,3.5,0.1c3.3,2.6,6.7,5,11.1,5.4c1.5,0.1,2.5,1.2,2.3,2.9C202.4,173.5,201,174,198.5,173.8z"/>
				<path class="st1" d="M148.1,199.7c0-1.2,0.5-2,1.6-2.4s2.3-0.1,2.9,0.9c1.7,2.7,4,4.7,6.5,6.5c1.1,0.8,1.5,2.1,0.9,3.4
					c-0.6,1.2-1.9,1.7-3,1.2c-3.9-1.9-7-4.8-8.8-8.9C148.1,200.2,148.1,199.9,148.1,199.7z"/>
				<path class="st1" d="M131,201.6c-1,0.1-1.8-0.4-2.3-1.2c-0.5-0.9-0.5-2,0.2-2.8c1.8-2.3,3.6-4.6,5.5-6.7
					c1.5-1.6,3.8-0.7,4.2,1.3C139.1,194.6,133.5,201.6,131,201.6z"/>
				<path class="st1" d="M426.4,431.5c-4,0-9.8-4-11.1-7.3c-0.6-1.6-0.4-3.1,1.1-4.1c1.4-0.9,3-0.7,3.9,0.6c1.8,2.4,4.2,3.9,6.9,5.1
					c1.5,0.6,2.2,1.9,1.7,3.6C428.6,430.8,427.4,431.5,426.4,431.5z"/>
				<path class="st1" d="M958.7,332c0.2-2.1-0.3-4.1-1-6.1c-0.7-1.9-0.6-3.8,1.5-4.6c2.2-0.9,3.6,0.3,4.5,2.3
					c1.3,2.8,1.7,5.8,1.4,8.8c-0.2,3.2-1.8,5.2-4,4.8C958.2,336.5,958.4,334.2,958.7,332z"/>
			</g>
		</g>
	</g>
	<g id="_xFFFD__x8B__x95__xFFFD__x85__x8B__xFFFD__x89_拐辣_1_">
		<g id="hand_white">
		</g>
		<g id="_xFFFD__x89__x8B_銝_x8A__xFFFD__x9E__x83__xFFFD__x9C_曄_x9A__x84__xFFFD__x89_脣_xFFFD__x8A__xA0_影像_1_">
		</g>
		<g id="瘙_x22A5__x9F__x93__xFFFD__x92__x8C_瘞湔_xFFFD__xF880__xA0_影像_1_">
		</g>
		<g id="Hand_white_xA0_影像_1_">
		</g>
		<g id="_xFFFD__x89__x8B__xA0_影像_1_">
		</g>
	</g>
</g>
<g id="pollutions">
	<g id="_xFFFD__x8B__x95__xFFFD__x85__x8B__xFFFD__x89_拐辣_2_">
		<g id="hand_white_1_">
		</g>
		<g id="_xFFFD__x89__x8B_銝_x8A__xFFFD__x9E__x83__xFFFD__x9C_曄_x9A__x84__xFFFD__x89_脣_xFFFD__x8A__xA0_影像_2_">
		</g>
		<g id="瘙_x22A5__x9F__x93__xFFFD__x92__x8C_瘞湔_xFFFD__xF880__xA0_影像_2_">
			<g>
				<path class="st1" d="M871.2,574.2c-3.5-0.5-7.1-0.7-10.5-1.5c-6.2-1.3-11.9,0.1-17.5,2.5c-6.2,2.7-11.6,6.7-17,10.7
					c-4.1,3-8.5,5.5-12.9,8.1c-4.1,2.3-8.5,2.9-13.1,2.9c-6,0-12-0.7-17.8-2.3s-9.8-5-10.8-11.3c0-0.1-0.1-0.2-0.1-0.3
					c-0.9-8.6-6.4-12.4-14.4-13.7c-12.4-2.1-23-8.2-33.3-15c-7.1-4.7-7.6-11.1-2.2-17.7c0.5-0.6,1-1.3,1.6-1.9
					c1.1-1.3,0.8-2.3-0.6-3.1c-2.1-1.2-4.4-1.8-6.6-2.5c-4.6-1.4-9-3.3-13.3-5.5c-7.5-3.8-5.3-16.3-0.1-20c0.8-0.6,1.4-0.6,2.1,0.1
					c1.6,1.6,3.5,2.9,4.9,4.7c5.7,7.4,13.2,9.1,21.9,7.5c3.4-0.6,6.7-1.6,9.9-2.9c6.7-2.7,13-1,19.3,1.5c4.5,1.7,5.8,6,7.8,9.7
					c2,3.9,4,5,8.3,3.9c2.4-0.6,4.6-0.6,6.9,0.3c3.4,1.3,7,1.2,10.5,0.9c4.4-0.4,8.8-0.1,12.9,1.5c5.2,2.1,10.4,1.1,15.5-0.1
					c4.4-1,8.5-1.2,12.8,0.6c3.7,1.6,7.7,0.2,11.6,0.3c3.4,0.1,6.7,0,10,0.8c2.4,0.6,4.2,1.8,5.2,4c0.9,2,1.7,4,2.4,6.1
					c2.4,7.4,8.3,11.6,16.2,11.6c7.7,0,15.1-1.8,22.6-3.4c1.1-0.2,2.1-0.6,3.2-0.7c12.5-0.5,23.3-6,34.1-11.4
					c7.6-3.8,15-7.7,22.2-12.1c4.6-2.8,9.8-2.4,14.9-2.1c5.8,0.3,11.4,2.3,17.3,2c5.7-0.2,11.1-1.7,16.4-3.5c2.3-0.8,3.3-3,4-5.2
					c1.3-4.3,4.9-7.1,7.2-10.8c1-1.7,3.5-2.4,5.4-1.7c2.2,0.9,2.9,3.3,3.5,5.5c0.2,0.9,0.3,2,0.1,3c-1.9,8.6-3.4,17.1-11.9,22.5
					c-6.3,4-12.4,6.8-20,7.5c-13.8,1.2-27.6,3.5-40.6,8.8c-5,2-9.8,4.3-14.1,7.5c-3.7,2.8-7.7,3.6-12.4,4.1
					c-11,1.2-22.2,0.4-33.1,2.6c-7.4,1.5-14.5,4.1-21.7,6.2C875.5,573.6,873.4,574,871.2,574.2z"/>
				<path class="st1" d="M576.2,440c2.9-0.2,5.3-0.6,7.8-0.3c2.6,0.3,4.3,1.6,5.6,4.1c1.8,3.5,2.6,6.6,1.6,10.6
					c-0.8,3.4,1,6.3,4.1,7.9c1.5,0.8,1.8,2.3,1.8,3.7c0,2.7,0.6,5.2,1.3,7.8c0.3,1.2,0.5,2.3,0.1,3.5c-1.8,6.4-13.9,13.7-20.8,8.4
					c-1-0.8-2.2-1.3-3.3-1.9c-2-1.1-3.9-1-5.9,0c-4.4,2.2-8.6,4.7-13.2,6.5c-7,2.6-10.9,1.8-14.6-4.6c-3.7-6.3-9.8-7.7-15.9-9.2
					c-1.7-0.4-3.4-0.5-5.1-0.8c-6.3-1.2-11-4.7-12.8-10.9c-0.8-2.9-0.9-6.3,1.9-8.7c5.6-5,11.2-10,18.1-13.3c3.9-1.8,6.2-5,7.4-9
					c1.5-5.3,3.7-10.4,4.3-16c0.3-3.2,1.9-6,4.6-8.1c3.9-3.1,5-7.3,5.7-12.1c0.8-5.5,1.1-11,1.6-16.5c0.1-1.4,0.8-2.6,1.7-3.6
					c1.1-1.1,2.4-1.9,3.9-1.7c1.6,0.2,1.3,2,1.6,3.1c1.9,6.1,2.7,12.6,5.7,18.1c2.4,4.3,1.7,7.5-0.3,11.3c-4,7.8-3.4,15.9-1,23.9
					c1.4,4.5,4.3,7.8,9.6,7.7C573.3,439.6,575,439.9,576.2,440z"/>
				<path class="st1" d="M299.6,568.7c4-5.2,7.9-10.4,11.9-15.5c2.6-3.3,6.8-4,10.5-1.9c2.4,1.4,4.5,3.2,5.6,5.8
					c1.3,2.9,3.3,3.2,6,2.3c4.6-1.6,9.4-2.1,14.2-2c7.5,0.1,13.7,6,14.2,13.5c0.2,3,0.1,6-0.2,9c-0.4,4-0.1,4.4,3.9,5.5
					c5.3,1.5,10.8,1.8,16.1,2.9c4.9,1,9.5,2.4,13.1,6.1c4.3,4.4,6.5,9.5,6.3,15.7c-0.2,5.6-3.8,10.3-9.3,11.7
					c-3.6,0.9-7.3,1-10.7-0.7c-8.3-4.1-17.1-4.7-25.8-3.3c-12.9,2.1-23.8-2.4-34.1-9c-2.3-1.5-4.1-3.9-6-5.9
					c-1.5-1.6-1.3-3.3,0.2-4.9c0.8-0.8,1.6-1.5,2.4-2.2c5.3-3.7,5.3-9.2,2.2-14.7c-4-6.9-11-8.8-17.7-11.3
					C301.5,569.5,300.4,569.6,299.6,568.7z"/>
				<path class="st1" d="M459.3,521c-1.1,0-2.2,0-3.3,0c-10,0-17.3-4.2-21.5-13.4c-0.2-0.3-0.4-0.6-0.5-1c-2.2-5.5-6.1-8.2-12.1-8.9
					c-8.5-0.9-14.5-5.4-16.3-14.3c-0.2-1.2-0.9-1.9-2-2.4c-2.8-1.2-5.5-2.5-8.7-2.9c-6-0.6-10.1-4.4-13-9.4
					c-2.5-4.3,0.2-11.7,4.9-13.2c2.6-0.8,5.3,0.2,7.8,1.5c0.9,0.5,1.7,1,2.6,1.5c3.8,2.4,7.5,3.2,12,1.2c4.7-2.1,10-1.7,15-0.8
					c9.7,1.7,19.4,3.7,29.2,5c2.9,0.4,5.8,1.7,8.4,3c3.1,1.5,4.2,5.7,2.7,9.6c-1.1,2.9-2,5.8-1.9,9c0.1,2.8,1.1,5.1,3.7,6.5
					c2.1,1.1,4,2.4,6.1,3.6c3.3,1.9,5,4.7,4.8,8.5c0,1,0,2-0.1,3c-0.6,9.2-5.5,13.8-14.7,13.9C461.5,521.1,460.4,521.1,459.3,521
					L459.3,521z"/>
				<path class="st1" d="M182.6,397.7c2.9,1.3,5.7,1.4,8.4,2c2.2,0.5,4.4,1,5.1,3.4c0.7,2.4-0.8,4-2.3,5.5c-3.2,3.4-6.6,6.6-9,10.5
					c-2,3.3-1.8,4.1,1.3,6.2c2.3,1.5,4.7,2.8,6.6,4.7c4.1,3.9,4,8.2-0.1,12c-3.2,2.9-6.8,5.2-10.2,7.7c-2,1.5-4,2.9-5.8,4.5
					c-3,2.7-2.8,3.3,0.9,4.5c3.4,1.1,6.9,1.6,10.4,2c2.4,0.3,4.9,0.7,7.2,1.5c1.6,0.5,2.6,1.5,2.1,3.3c-0.5,1.6-1.8,2.1-3.3,1.7
					c-5.8-1.5-11.9-1.4-17.7-3.2c-3.1-0.9-6.3-1.9-7.3-5.4c-1-3.7,1.4-6.2,3.8-8.5c4.1-3.9,8.9-6.9,13.4-10.3
					c4.8-3.7,4.7-4.6-0.3-7.9c-1.1-0.7-2.3-1.4-3.4-2.2c-5.2-3.5-6.1-7.2-3.1-12.8c1.9-3.5,4.6-6.3,7.2-9.2c0.7-0.7,1.3-1.5,2.2-2.4
					c-2.9-0.7-5.5-1.3-8-2.1c-3-1-5.6-2.3-5.3-6.2c0.1-1.5-1.2-1.1-2-1.2c-8.8-1.7-16.2-5.8-21.2-13.5c-9.5-14.6-4.3-35.2,11.6-44.4
					c15.3-8.8,30.9-7.9,45.7,1.3c9.3,5.7,13.6,16.3,11.2,25.8c-1.6,6.3-5.5,11.2-10.5,15.2c-3.7,3-7.8,5.3-12.2,7.1
					c-1,0.4-1.9,0.7-1.6,2.3c0.3,1.9-1,3-2.5,3.8c-2,1.1-4.2,1.6-6.5,2C185.9,395.9,184.2,396.2,182.6,397.7z M191.6,350.4
					c-9.7-3.8-25,3.4-29.1,13.7c-3.8,9.8,0.3,17.8,10.6,20.4c12.7,3.2,31.1-3.5,38.8-14.1c5.5-7.5,5.1-15.3-0.9-22.4
					c-2.5-3-5.6-5.1-9.2-6.7c-6.8-3-14-3.8-21.3-3.1c-12.9,1.2-23.5,10.1-26.3,22.2c-1.3,5.4-1,10.6,1.6,15.6c-1.2-6.9,0-13.3,4-19
					c7.2-10,17.3-13.9,29.4-13.2c4.5,0.3,8.7,1.7,12.2,4.7c3.3,2.9,5,6.6,4.2,10.9c-0.8,4-1.6,8.2-6.6,9.2c-0.5,0.1-1,0.5-1.5,0.7
					c-7,3-14.1,3.5-21.1,0.4c-4.9-2.1-6-6.8-3-11.3c2.1-3.2,5.1-5.5,8.8-5.9C185.4,352.3,188.5,351.3,191.6,350.4z M184.2,365.6
					c-1.1-2.3-0.9-4.8-1.1-7.3c-1.4,0.4-2.5,0.9-3.3,1.7c-1,0.9-2.3,1.8-2.1,3.3c0.3,1.6,2,1.7,3.2,2
					C181.8,365.6,182.7,366.1,184.2,365.6z M189.3,359.4c-0.8,1.8-0.1,3.2,0.6,4.5c0.2,0.4,0.5,0.8,1,0.7c0.6-0.1,0.9-0.7,0.9-1.2
					C192,361.6,190.8,360.5,189.3,359.4z"/>
				<path class="st1" d="M741,162.8c-2.7-1.4-5.1-2.6-7.3-3.9c-5.3-3.1-5.9-6.9-2-11.6c0.9-1,1.8-2,2.9-3.1c-1.1-0.4-2-0.8-2.9-1.2
					c-1.2-0.5-2.7-1.2-2.8-2.4c-0.2-3.2-2.7-3.4-4.8-4.2c-18-6.9-23.4-26.4-11.7-41.7c10.1-13.2,29.9-18.1,45-11.2
					c3.1,1.4,5.8,3.3,8.2,5.7c7.2,7.3,7.8,17.1,1.4,25.1c-8.8,11-27.3,14-39.1,6.3c-5.3-3.5-7.5-8.1-6.5-13.6
					c0.6-3.4,2.7-5.9,5.4-7.9c8.7-6.2,24.9-4.9,32.5,2.6c2.7,2.7,3.3,5.1,2.2,9.5c4.6-3.4,5.6-10.3,2-15.5c-4.2-6-10.4-8.8-17.4-9.4
					c-11.7-1.1-21.8,2.7-29.2,12c-4.9,6.2-6.8,13.3-3.4,20.9c3.4,7.9,10,11.7,18.2,13c1.5,0.2,2.9-0.2,4.3-0.6
					c1.9-0.5,3.8-0.6,4.6,1.6c0.8,2.3-0.7,3.5-2.7,4.2c-0.3,0.1-0.6,0.3-1.2,0.7c1.2,0.3,2.1,0.6,3.1,0.9c3.8,1.2,4.5,4.3,1.6,7
					c-1.6,1.5-3.2,3-4.8,4.5c-1.5,1.4-1.5,2.5,0.5,3.5c2.5,1.2,4.9,2.4,7.3,3.8c2,1.1,3.9,2.5,3.8,5.2c-0.1,2.6-2,3.8-4,4.8
					c-2.5,1.3-5,2.5-7.6,3.7c-1.5,0.7-1.5,1.5-0.3,2.6c2,1.7,4,3.4,5.9,5.3c4.7,4.6,4.5,9-0.6,13.2c-1.4,1.2-3.5,2-1.5,4.5
					c0.7,0.9,0.1,2.4-0.4,3.7c-0.7,1.9-1.5,3.7-1.9,5.7c-0.7,2.6-0.8,5.2,1.3,7.4c0.9,1,1,2.2,0.1,3.2c-0.9,1.1-2.2,1.2-3.5,0.6
					c-1.4-0.7-2.1-1.9-2.7-3.3c-1.7-4.2-1.1-8.4,0.5-12.5c0.6-1.6,0.6-2.5-1.4-2.7c-1.4-0.1-2.4-0.9-2.7-2.3
					c-0.4-1.5,0.4-2.7,1.5-3.5c2.2-1.7,4.6-3.2,6.8-5c2.4-1.9,2.4-2.7,0.3-4.8c-2.3-2.2-4.8-4.2-7-6.5c-3.4-3.4-3.1-6.4,0.8-9.4
					C734.5,165.7,737.8,164.7,741,162.8z M747.8,102.4c-6.2-2.5-13.5-1.6-17.8,1.8c-3.6,2.8-4,6.7-1,9.9c5,5.4,17.9,6.9,24.6,2.7
					c-0.9,0.2-1.5,0.3-2.1,0.4c-5.1,0.6-10.2,0.4-14.7-2.4c-3.9-2.4-4.1-6.9-0.5-9.8c1.1-0.9,2.4-1.5,3.8-2
					C742.4,102.2,744.9,102.5,747.8,102.4z M744,109.7c0-0.8,0-1.8-1.3-1.5c-1,0.3-2.6,0.2-2.5,1.5c0.1,1,1.7,1.1,2.8,1.3
					C744.3,111.4,744,110.4,744,109.7z"/>
				<path class="st1" d="M162,125.6c-0.7-0.3-1.1-0.5-1.6-0.7c-5.5-2-6.7-5.5-3.4-10.3c1.2-1.7,2.5-3.4,4-4.9
					c1.7-1.7,1.8-2.9-0.1-4.6c-5.2-4.6-5.3-6.6-1.2-12.6c-1.9-0.1-3.7-0.2-5.4-0.3c-9.7-0.6-16.7-5.3-20.5-14.3
					c-3.7-8.8-1.6-16.8,4.3-23.9c12.5-14.9,34.8-13.9,47.1-4.2c5.7,4.5,6.1,10.8,0.7,15.6c-8.3,7.3-18.1,9.5-28.7,7
					c-6.9-1.6-8.8-8.6-4.3-14.1c5.3-6.4,17.7-8.9,25.1-5.1c3,1.5,4.3,4,4.2,7.4c2.1-2.2,2.1-3.7,0.1-5.7c-2.2-2.2-4.9-3.4-7.7-4.4
					c-10.3-3.7-20.1-2.8-28.8,4.1c-8.2,6.5-10.1,16.2-5,24.2c3.5,5.4,8.7,7.4,14.8,7.8c4.6,0.3,9.1-0.3,13.5-1.3
					c1.9-0.4,3.8-0.6,4.7,1.6s-0.6,3.3-2.4,4.3c-2.9,1.5-5.5,3.5-7.7,5.9c-1,1.1-1.1,2,0.1,3c1,0.8,1.9,1.7,2.8,2.6
					c2.7,2.9,2.9,5.6,0.5,8.8c-1.5,2-3.2,4-4.8,5.9c-1.1,1.3-0.7,1.9,0.8,2.5c7.4,2.7,7.9,5.4,2,10.7c-0.1,0.1-0.3,0.2-0.4,0.4
					c-2.5,2.2-2.5,2.2,0.5,3.8c3.6,1.8,5.6,4.8,6.5,8.6c0.4,1.6,0.2,3-1.5,3.6c-1.9,0.6-3.1-0.4-3.5-2.1c-0.9-3.9-3.8-5.5-7.1-6.8
					c-5-1.8-5.6-4.6-1.7-8.5C159,128.3,160.4,127.1,162,125.6z M161.3,67.2c4.5-0.9,9.5-2,13.5-5.6c2-1.8,1.7-2.9-0.7-3.6
					c-5.7-1.6-10.9-0.5-15.6,3.1c-1.4,1.1-2.6,2.6-1.8,4.4C157.3,67.2,159.1,67.1,161.3,67.2z"/>
				<path class="st1" d="M1000.8,367.9c-0.2,1.9-0.4,4.4-0.6,6.8c-0.4,5.4-3.6,9-8,11.6c-2.1,1.3-4.4,1.4-6.5,0.4
					c-3.4-1.6-7.1-2.8-9.8-5.2c-4.3-3.8-8.5-6.7-14.3-7.9c-4.4-0.9-8.2-8.7-7.6-13.1c0.5-3.6,3.7-5.7,7.8-4.9
					c3.5,0.7,6.9,1.6,10.1,3.2c4.7,2.4,9.2,3.1,14.2,0.2c3.8-2.2,10.2-0.5,13.3,2.7C1000.9,363.4,1000.8,365.4,1000.8,367.9z"/>
				<path class="st1" d="M318.7,480.1c0.1-5,1.4-9.6,3.9-13.8c5.5-9.1,13-16,22.2-21.2c4.5-2.5,9.3-3.6,14.4-3.2
					c2,0.2,3.8,0.6,4.5,2.8c0.7,2.1-0.4,3.6-1.8,5c-7.6,7.7-14.6,15.9-20.4,25.1c-2.1,3.3-4.3,6.5-7.1,9.3c-0.9,0.9-1.8,1.8-2.8,2.6
					c-2.9,2.1-6,2.6-9.2,1C319.3,486.3,318.5,483.4,318.7,480.1z M352.9,449.2c-0.4,0-0.7,0-1,0.1c-1.1,0.4-2.3,0.7-3.3,1.3
					c-9,4.8-16.3,11.5-21.2,20.5c-1.3,2.4-2,5.1-2.2,7.8c-0.1,1.1-0.6,2.6,0.9,3.1c1.3,0.5,2.2-0.6,3.1-1.4c2.3-2.2,4.3-4.7,5.9-7.4
					c4.8-7.8,10.4-15.1,16.6-21.9C352.1,450.7,353,450.3,352.9,449.2z"/>
				<path class="st1" d="M347.9,394.5c8,0.6,14.9,4.8,21.4,9.7c1.6,1.3,2.4,3.1,0.9,5c-1.4,1.8-3,1-4.9,0.3
					c-5.3-2-10.8-2.3-16.2-0.6c-3.7,1.2-7.5,2.4-11.4,2.2c-2.6-0.1-5.3-0.2-6.5-3c-1.2-2.7,0.1-5.2,1.9-7.2
					C336.8,396.7,341.7,394.7,347.9,394.5z M350,401.7c-4.5-1.2-8.8,0.1-10.5,2.9C343.1,404.3,346.3,403.2,350,401.7z"/>
				<path class="st1" d="M655.4,615.1c0.2,4.6-0.8,9.5-3,14.2c-0.6,1.4-1.4,2.7-2.5,3.8s-2.5,1.7-3.9,0.6c-1.4-1.1-1.3-2.6-0.4-3.9
					c3.9-5.5,4.4-11.7,4.2-18.2c-0.1-3.7-1.6-6-5.2-7c-1.9-0.5-3.8-1.3-5.6-2c-6.8-2.7-10.4-7.9-11.7-14.9c-0.4-2-0.2-4,2.2-4.5
					c2.5-0.5,3.5,1.3,3.7,3.3c0.8,6.6,4.7,10.1,10.7,11.9c0.1,0,0.2,0.1,0.3,0.1C653.8,602,655.4,604.2,655.4,615.1z"/>
				<path class="st1" d="M290,354.7c-0.5-4.9,0.5-8.8,3.3-12.3c2-2.5,4.6-4,7.7-4.7c8.3-1.8,11.6-5.8,11.9-14.4c0-0.5,0-1.1,0.1-1.6
					c0.2-1.5,1-2.6,2.6-2.6c1.7,0,2.4,1.1,2.7,2.5c1.7,7.8-3.7,17.4-11.4,20.4c-1.3,0.5-2.6,0.8-3.9,1.1c-4.8,1.2-7.2,4.1-7.3,9.1
					c0,1.9,0.2,3.8,0.2,5.7c0,1.9-0.8,3.5-2.9,3.6c-2.2,0-2.9-1.5-3-3.4C290,356.7,290,355.4,290,354.7z"/>
			</g>
		</g>
		<g id="Hand_white_xA0_影像_2_">
		</g>
		<g id="_xFFFD__x89__x8B__xA0_影像_2_">
		</g>
	</g>
</g>
<g id="hand">
	<g>
		<polygon class="st2" points="529.6,350.4 524,358.3 525.2,369.7 531.8,369.7 542.3,365.2 571,373.7 582,374.8 587.3,371.3 
			587.3,363.9 		"/>
		<g id="_xFFFD__x8B__x95__xFFFD__x85__x8B__xFFFD__x89_拐辣_3_">
			<g id="hand_white_2_">
			</g>
			<g id="_xFFFD__x89__x8B_銝_x8A__xFFFD__x9E__x83__xFFFD__x9C_曄_x9A__x84__xFFFD__x89_脣_xFFFD__x8A__xA0_影像_3_">
				<g>
					<path class="st0" d="M579.4,368.5c-0.2,0-0.9,0.1-1.5-0.2c-9.2-3.7-19.6-2.4-28.5-7.4c-2.8-1.6-6.2-1.1-9.4-0.4
						c-2.1,0.4-4.1,0.4-6.2,0.4c-2.4,0-4.5-0.9-5.6-3.1c-1.1-2.3-0.3-4.4,1-6.4c2.4-3.3,4.9-6.5,8.5-8.7c1.8-1.1,2.8-3,3.7-4.9
						c1.1-2.3,1.6-4.9,4.4-5.9c0.8-0.3,0.8-1.4,0.9-2.2c0.6-4.6,3.8-7.3,6.9-10c0.7-0.6,1.8-0.7,2.6-0.2c3.7,2.2,7.2,4.6,8.1,9.3
						c0.1,0.3,0.2,0.7,0.2,1c2.6-0.8,3.3,1.8,5,2.6c2,0.9,2.4,2.2,2.5,4c0.1,3.1,1.7,6,1.7,9.1c0,1.7-0.5,2.5,1,2.2
						c1.9-0.4,3.2,0.3,4.3,1.6c0.3,0.3,0.7,0.9,1,0.9c1.7-0.3,3,0.1,4,1.6c1.6,2.3,3.2,4.7,2.9,7.7c0,0.5,0,1.1,0,1.6
						C587.3,366.5,585.3,368.5,579.4,368.5z"/>
					<path class="st0" d="M535.1,341.8c0.1,1.5-0.8,3.7-1.9,4.2c-1,0.5-2.5-0.6-3.4-1.4c-1.6-1.3-2.9-2.8-3.1-5.1
						c-0.2-2.5-3.5-5.6-4-8.1c-0.3-1.7,2.8-2.6,4.6-3.1s2.8,0.6,3.4,2.3C532.2,334.4,534.3,338.2,535.1,341.8z"/>
					<path class="st0" d="M615.3,320.3c0.8-3.9,2.4-7.4,5.8-9.7c1.3-0.9,2.7-1.1,4,0.1c1.2,1.1,0.7,2.3,0.1,3.5
						c-1.6,2.9-2.3,6.3-5.2,8.4c-1,0.7-2.1,1.1-3.3,0.5C615.6,322.5,615.2,321.5,615.3,320.3z"/>
					<path class="st0" d="M602,327.5c0.7-3.5,1.9-6.9,4.5-9.6c1.1-1.2,2.6-1.5,3.9-0.4c1.3,1.1,1.5,4,0.5,5.2c-1.6,2-2.3,4-2.6,6.5
						c-0.3,1.8-4,3.2-5.9,3S602.1,329.2,602,327.5z"/>
					<path class="st0" d="M578.3,340.4c0.5-2.7,3.8-7.3,5.4-9.6c1.3-1.9,5.3-2.4,6.6-1.2c1.8,1.6,0.1,4.9-1.1,6.4
						c-1.3,1.6-2.6,1.5-3,3.5c-0.3,1.6-1.7,2.8-2.6,4.4C581.9,346.7,578.4,342,578.3,340.4z"/>
				</g>
				<polygon class="st2" points="20.5,309 56.5,276 85.5,252 127.5,230 203.5,200 289.5,173 335.5,163 363.5,160 394.5,158 
					426.5,160 470.5,163 500.5,169 538.5,182 570.5,196 591.5,208 616.5,237 632.5,276 629.5,306 619.5,306 614.5,315 607.5,316.9 
					596.5,328 584.5,325 577.5,335 578.5,318 577.5,293 567.5,277 556.5,265 532.5,282 542.5,332 538.5,335 528.4,327.3 
					523.7,330.4 495.5,283 451.5,268 404.5,265 352.5,269 300.5,279 221.5,303 149.5,341 110.5,365 69.5,398 27.5,430 				"/>
			</g>
			<g id="瘙_x22A5__x9F__x93__xFFFD__x92__x8C_瘞湔_xFFFD__xF880__xA0_影像_3_">
			</g>
			<g id="Hand_white_xA0_影像_3_">
			</g>
			<g id="_xFFFD__x89__x8B__xA0_影像_3_">
				<g>
					<path class="st1" d="M536.9,331.5c0.3-2.9-0.1-5.2-0.6-7.4c-2.7-12.3-5.4-24.7-8.3-37c-1-4,0-7.4,2.8-9.9
						c6-5.5,12.6-10.2,19.9-13.7c4.3-2,8.3-1.3,11.8,2.1c0.7,0.7,1.5,1.4,2,2.2c4.8,7.7,9.8,15.3,13.3,23.8
						c2.7,6.6,2.7,13.4,2.6,20.4c-0.1,3.8-0.2,7.6-0.8,11.4c-0.2,1.4-0.2,2.7,0.2,4.3c3-3.3,6.5-3.4,10.2-2.2
						c1.1,0.3,1.5,0.2,2.1-0.9c4.2-8.5,6.1-17.6,7.2-26.9c1-9.1-1.4-17.6-5.3-25.8c-4-8.4-9.1-15.9-16.3-21.9
						c-1.5-1.2-2.2-2.9-0.7-4.5s3.2-1.1,4.6,0.2c14.5,13.5,23.7,29.6,23.2,50c-0.2,7.5-2.1,14.7-4.5,21.8c-0.5,1.3-0.9,2.7-1,4.2
						c1-1.7,2-3.4,3.2-5c2.1-3,4.7-4,8.1-2.8c2,0.7,2.5,0,3-1.7c4.1-13.4,4-26.8-0.3-40.2c-3.5-10.9-8.7-20.7-16.1-29.4
						c-1.2-1.4-1.2-2.9,0.1-4.1c1.4-1.3,2.7-0.7,3.8,0.5c6.5,7.9,12.8,15.8,15.8,25.8c1.9,6.1,3.9,12.1,4.9,18.4
						c1,6.5,0.3,12.9-0.7,19.3c-0.1,1-1.3,2.8,0.8,2.9c1.6,0.1,3.7,1.7,4.5-1.7c4-15.9,3-31-3.6-46.2c-6.5-14.9-16.1-27.5-26.4-39.8
						c-5.8-6.9-13.9-10.7-20.9-15.9c-7.5-5.6-16-9.4-24.5-12.9c-23.8-9.7-48.1-18.3-73.7-22c-39.3-5.7-78.6-8.8-118.4-4.7
						c-24.8,2.6-49,7.7-73,13.8c-33.4,8.6-66.2,19-98.1,32.3c-19.9,8.4-40.2,15.9-60.3,24c-23.4,9.4-44.8,22-63.8,38.7
						c-7.4,6.6-15.3,12.5-23.1,18.7c-4.7,3.7-9.1,7.8-12.9,12.5c-2.3,2.8-5.2,4.8-7.8,7.2c-1.1,1-2.3,1.1-3.4,0
						c-1.1-1.2-0.8-2.5,0.3-3.4c6.7-5.5,11.6-12.8,18.5-18.1c14.4-11.2,28.3-23.1,42.8-34.3c8.4-6.5,17.5-11.7,27-16.3
						c14.6-7.1,29.5-13.2,44.7-18.9c4.6-1.7,9.3-3.1,13.7-5c6.7-2.9,13.5-5.8,20.3-8.7c10.3-4.5,20.8-8.6,31.5-12.3
						c20.7-7.2,41.5-13.9,62.6-19.6c19.5-5.3,39.1-10.1,59.1-13c25.1-3.6,50.4-5.8,75.8-4.4c8.9,0.5,17.8,0.7,26.7,1.6
						c23.6,2.4,46.9,6.1,69.7,13.2c10.6,3.3,21.2,6.4,31.5,10.5c4.6,1.9,9.7,2.7,14,5.2c7,4,14.7,6.3,21.7,10.1
						c12.7,6.9,23,16.4,31.5,28c5.4,7.4,10.8,14.8,15.2,22.9c1,1.8,2.9,2.8,3.9,4.7c7.9,14,8.8,28.9,5.2,44.1
						c-1.1,4.7-1.3,9.5-2.8,14.1c-1.3,4.2-3.4,8-5.6,11.8c-1.9,3.4-4.8,4.9-8.5,4.7c-1.6-0.1-2.2,0.5-2.9,1.7
						c-2.4,4.5-5.1,8.7-10.4,10.1c-2.8,0.8-5.7,1.7-8.1-0.8c-0.9-1-1.2,0-1.6,0.5c-2.1,3.2-4.2,6.4-6.9,9.1c-1,0.9-0.7,1.5,0.3,2
						c0.8,0.5,1.5,1,2.3,1.5c4.5,2.7,6.8,6.6,6.3,11.8c-0.7,7-2.2,13.7-9.4,17.3c-2,1-3.9,1.2-6.1,0.8c-11.6-2.2-22.8-6-34.1-9.3
						c-2.5-0.7-5.2-0.9-7.6,0.8c-0.9,0.6-1.9,1.1-2.8,1.6c-6.4,3.3-13.2-0.6-13.6-7.8c-0.3-6.1,1.4-11.5,6.4-15.4
						c1.4-1.1,1.8-1.9,0.4-3.4c-1.6-1.7-2.8-3.8-3.8-5.9c-6-12.6-13.4-24.4-20.2-36.5c-3.1-5.5-6.9-10.5-10.4-15.7
						c-1.2-1.9-3.1-3-4.9-4.3c-6.8-5.1-14.2-8.7-22.8-9.5c-1.3-0.1-2.6-0.3-3.7-0.7c-13-4.7-26.4-5.6-40-5.5
						c-5.8,0-11.6,0.2-17.4-0.3c-12.2-1-24.3,0.7-36.4,2.1c-31.9,3.7-63.2,10.1-93.9,19.2c-13.9,4.1-27.6,9-41.2,14.4
						c-11.6,4.6-22.8,9.9-34.3,14.6c-12.2,5-23.4,11.9-35,18c-16.4,8.8-31.9,19.2-47.2,29.8c-21.6,14.8-42.8,30.1-63.7,45.9
						c-7.7,5.8-14.6,12.6-21.3,19.5c-0.4,0.5-0.9,0.9-1.3,1.4c-1.5,1.4-3.2,2-4.8,0.5c-1.6-1.6-1.2-3.4,0.2-4.9c2.4-2.6,5-5,7.5-7.5
						c12.7-12.4,27.3-22.3,41.6-32.5c19.2-13.7,38.2-27.6,58.1-40.1c11.9-7.5,23.7-15.1,36.2-21.8c7.9-4.2,15.5-9.1,23.8-12.5
						c16.6-6.8,32.8-14.4,49.7-20.2c22.3-7.7,44.6-15.6,68-19.6c12.4-2.1,24.7-5.6,37.2-7.4c12.3-1.8,24.7-2.9,37.1-4.2
						c5.2-0.6,10.3-0.7,15.5-0.3c9.7,0.8,19.4,0.3,29.2,0.6c16.8,0.6,33.2,3.4,49.2,8.8c11.9,4,20.6,11.7,26.6,22.6
						c5.3,9.6,11,19,16.3,28.7c1,1.7,1.8,2.3,4,1.8C532.2,323.4,534.2,324.6,536.9,331.5z M543.4,326.2c1.1-0.3,1.4-1.4,2-2.1
						c1.4-1.8,2.8-3.7,4.8-4.7c1.5-0.8,1.7-1.7,1.3-3.3c-0.7-2.6-1.2-5.3-0.7-8.1c0.3-1.8,1.3-3.3,3.4-3.3c1.9,0,2.8,1.4,3.2,3.1
						c0.2,0.9,0,2,0.9,2.9c1.2-1.4,2.3-2.8,3.6-4.1c1.4-1.5,3.2-2.5,5-0.8c1.8,1.6,1.1,3.5-0.2,5.1c-1.6,1.9-3,3.8-4.3,6
						c-0.7,1.1-0.7,1.9,0.5,2.7c1.7,1.1,3,2.8,3.5,4.7c0.6,2.4,2.4,3.7,4.2,5.1c1.3,0.9,1.7,0.5,1.9-0.8c0.4-2.7,0.9-5.4,1.2-8.1
						c0.9-9.1,2-18.3-1.6-27.2c-3.2-7.8-7.7-14.8-12.6-21.6c-0.7-1-1.8-1.7-2.8-2.6c-1.1-1-2.2-1.1-3.5-0.3c-5,2.8-9.9,5.7-14.6,8.9
						c-4.4,3-5.1,6.6-3.9,11.5c2.8,11.2,5.1,22.5,7.7,33.7C542.7,324,542.5,325.3,543.4,326.2z M584.6,360.7
						c0.3-1.6-0.5-2.9-1.7-3.9c-1.7-1.5-3.3-3.2-5.2-4.4c-3.7-2.3-5.1-5.6-5.6-9.7c-0.6-4.7-2.7-8.4-7.3-10.4
						c-1.9-0.8-2.8-2.4-3.6-4.2c-0.5-1.2-0.9-2.4-1.6-3.4c-1.5-2.3-3.3-2.6-5.6-1c-2.2,1.5-3.6,3.5-4.8,5.8
						c-1.2,2.6-2.5,5.1-4.8,6.8c-1.4,1.1-2.2,2.3-2.6,4c-0.7,2.8-1.9,5.5-3.9,7.7c-3.2,3.5-5.9,7.4-9.3,10.6c-1.8,1.6-2.2,3.7-2,6
						c0.3,3.7,1.5,4.2,4.6,2.6c7.9-4.1,15.8-4.2,23.7,0.1c2.1,1.1,4.1,2.5,6.5,2.8c5.8,0.8,11.7,1.3,17.3,3.3
						c2.5,0.9,4.5-0.7,4.9-3.3C583.9,366.9,584.2,363.9,584.6,360.7z M533.3,341.1c-0.4-3.6-0.9-7.3-3-10.5c-1.3-2-3.7-2.5-5.9-0.9
						c-1.8,1.2-0.1,2.5,0.3,3.5c1.3,3.3,2.9,6.4,5.1,9.3c0.6,0.8,1.2,2.2,2.4,1.9C533.6,343.9,533.1,342.3,533.3,341.1z M579,339.4
						c0,1.5,0.1,2.5,1,3c0.8,0.5,1.5-0.1,1.9-0.6c2.8-3.2,6-6,7.5-10.1c0.2-0.6,0.8-1.4-0.1-1.9c-1.8-0.9-3.7-1.6-5.3,0.1
						C581.2,332.6,580.4,336.4,579,339.4z M602.1,328.1c0.2,0.6-0.3,1.5,0.5,1.9c0.9,0.4,1.8-0.1,2.4-0.7c2.5-2.4,4.2-5.2,4.7-8.6
						c0.1-0.9,1.4-1.8,0.2-2.6c-1.2-0.7-2.6-1-3.7,0.4C604.1,321.3,602.4,324.4,602.1,328.1z M623.4,311.8c-0.1-1,0.5-1.7-0.4-2
						c-0.6-0.3-1.3-0.2-1.8,0.3c-2.1,2.4-4.4,4.6-4.8,7.9c-0.1,0.8-1,1.9,0.2,2.4c1.1,0.5,2.4,0.2,3.2-0.8
						C621.7,317.1,622.9,314.4,623.4,311.8z"/>
					<path class="st1" d="M566,347.1c0,1.3-0.5,2.2-1.5,2.8c-1.1,0.7-2.4,0.7-3.3-0.1c-2.7-2.7-5.9-5.2-6.9-9.2
						c-0.5-2-0.4-3.9,1.8-4.8c2.3-0.8,3.6,0.5,4.4,2.5c0.9,2.4,2.2,4.3,4.1,6C565.3,345.2,565.9,346.1,566,347.1z"/>
				</g>
			</g>
		</g>
	</g>
</g>
</svg>
