<?xml version="1.0" encoding="utf-8"?>
<!-- Generator: Adobe Illustrator 18.0.0, SVG Export Plug-In . SVG Version: 6.00 Build 0)  -->
<!DOCTYPE svg PUBLIC "-//W3C//DTD SVG 1.1//EN" "http://www.w3.org/Graphics/SVG/1.1/DTD/svg11.dtd">
<svg version="1.1" xmlns="http://www.w3.org/2000/svg" xmlns:xlink="http://www.w3.org/1999/xlink" x="0px" y="0px"
	 viewBox="0 0 583.5 565.5" enable-background="new 0 0 583.5 565.5" xml:space="preserve">
<g id="_xFFFD__x83__x8C__xFFFD__x99__xA0_影像_1_">
</g>
<g id="_xFFFD__x9C__x96_撅_xFFFD__13_xA0_影像_1_">
	<g>
		<path fill="#369EBB" d="M437.5,354.2c0.4-22.5,2.5-45,3.8-67.5c0.4-7.3,1.1-14.7,0.8-22.1c-0.1-3.3-0.7-6.3-3.2-8.7
			c-1-1-0.7-2.2-0.7-3.3c0.5-13.6,1.1-27.2,1.6-40.9c0.2-5.9-4.4-9.7-9.4-7.9c-2.8,1-4.2,3.3-4.8,6.1c-1,5.2-1.1,10.5-1.5,15.7
			c-0.9,12.6-1.8,25.2-2.7,37.8c-0.3,3.8,0.8,7.6-0.2,11.4c-0.2,0.8,0.4,1.3,1,1.8c0.7,0.7,1.1,1.7,0.6,2.5c-1.3,2-0.9,4.2-0.9,6.4
			c0.4,12.8,0.5,25.6-1.1,38.4c-0.2,1.3-0.3,2.7,0.8,3.8c0.6,0.6,0.6,1.3,0.5,2c-1.3,11.8-2.8,23.6-5.1,35.3c-0.8,4-1.5,8-2.5,11.9
			c-3.7,13.5-12.4,22.8-25,28.4c-6.2,2.8-12.8,3.9-19.5,5.1c-1.4,0.3-2.9,0.4-4.3-0.3c-0.9-0.5-1.5-0.1-2.3,0.2
			c-4.6,1.9-8.4,5.4-13.2,7c-1,0.3-1.3,1.5-1.6,2.4c-2.7,9.7-3.9,19.3-1.3,29.3c3.6,13.9,6.8,27.9,8.7,42.1
			c0.8,6.2,0.9,12.5,1.5,18.7c0.3,3.6,0.9,7.2,1.3,10.8c0.5,5.2-1.2,7.6-6.2,8.5c-5.8,1-11.7,1.4-17.3,3.7c-2.2,0.9-3.8-0.5-4.3-2.9
			c-0.1-0.4-0.1-0.7-0.1-1.1c0.9-16.4-3.2-32.3-3.8-48.6c-0.4-9.8,0.2-19.6-0.3-29.4c-0.9-15.5-1.2-31-4.1-46.4
			c-0.7-3.6-1.3-7.4-0.3-11.1c0.9-3.3,2.6-4.7,6-5c2.3-0.2,4.7,0.4,6.9-0.9c0.5-0.3,1.3-0.3,1.8,0.1c4.3,4,10,3.9,15.3,5
			c6.3,1.3,12.7,1.4,19,0c11.3-2.4,18.6-9.8,23.1-20.1c2.4-5.5,3.3-11.1,3.1-17.2c-0.6-19.1-2.9-38-3.9-57.1
			c-0.8-15.4-1.4-31,1.6-46.2c1.7-8.8,0.2-16.9-1.6-25.2c-1.1-5-2.9-9.7-4.9-14.4c-3.5-8.2-9.7-14.2-16.7-19.4
			c-4.2-3.2-8.9-3.8-13.5-0.9c-4.5,2.8-5.9,7.2-5.4,12.2c0.3,3.4,1,6.8,2.7,9.9c0.3,0.6,0.6,1.4,0.6,2.1c0.3,12.1,3.4,23.9,4.9,35.9
			c1.9,15.1,6.4,29.6,9.4,44.5c3,14.7,1.2,28.9-2.6,43.1c-1.3,4.8-5,8.1-8.6,11.4c-0.7,0.7-1.6,1.2-2.3,1.9
			c-7.1,6.1-15.1,9.1-24.6,7.8c-9.7-1.3-19.5-2.2-28.8-5.5c-4.2-1.5-8.2-3.5-11.8-6.2c-2.9-2.1-2.9-3.3-0.7-6.2
			c1-1.2,0.8-2.6-0.2-3.7c-5.5-6-7.3-13.1-5.6-21c0.2-1.2-0.2-1.8-0.9-2.6c-1.8-1.9-2.7-4.3-3.5-6.7c-0.4-1.5-0.3-3,1.3-3.8
			c1.4-0.7,3-0.5,3.9,0.9c2.5,3.4,5.7,5.2,10,4.8c1.1-0.1,1.2,0.9,1.6,1.5c2,3.4,4.9,4.4,8.7,4.3c13.3-0.2,27.4-15.9,29.1-30.1
			c1-8.5-0.2-16.7-1.4-24.9c-0.2-1.4-0.4-2.9-0.3-4.3c0-1.5-0.1-3.1-1.1-4.1c-3.5-3.7-4.3-8.5-5.4-13.2c-3.3-13.6-6.2-27.3-9.8-40.8
			c-2.6-9.9-6.1-19.5-9.3-29.2c-0.9-2.8,1.3-5.8,4.2-6c16.2-1.1,30.5,5.4,44.8,11.6c7.7,3.3,15.1,7.1,23.5,8.4
			c4.2,0.7,8.5,0.7,12.8,0.3c1.6-0.2,3.2-0.1,4.7,0.8c1.7,1,3.6,0.5,5.3,0.2c12.2-2,24.5-1.5,36.7-1.6c5,0,9.6-2,14.5-2.3
			c1.7-0.1,3.4-0.5,5.1-0.7c0.7-0.1,1.7-0.2,2.1,0.2c1.7,1.4,2.7,3.8,5.7,2.6c0.5-0.2,0.4,1.7,0.3,2.6c-1.1,8.6-1.2,17.2-1.6,25.8
			c-0.8,15.7-0.2,31.5-0.7,47.2c-0.8,27.2-0.5,54.4,0.1,81.5c0.4,17.3-1.2,34.5-3.4,51.6c-0.9,7.2-0.8,14.5-2.5,21.6
			c-1.5,6.6-4.1,12.8-7.6,18.5c-4.1,6.7-9.8,10.9-18.1,10.6c-0.8,0-1.6,0.3-2.4,0.5c-4.5,1.4-8.7,3.6-13,5.6
			c-8.7,4.1-12.7,11.1-12.9,20.4c-0.2,8.6,0.1,17.3,0.1,25.9c0,5-0.3,9.8,2.2,14.1c1.4,2.4,2.4,4.9,2.9,7.5c0.3,1.3,0.3,2.7,0.1,4.1
			c-0.3,2-1.6,3.4-3.7,3.1c-1.6-0.3-2.6,0.4-3.8,1.2c-3.7,2.2-7.8,3-12.1,2c-0.7-0.2-1.4-0.4-2.1-0.5c-4.3-0.7-5.1-1.7-5-6.2
			c0-1.6-0.4-3.2-1.6-3.9c-5.2-2.9-6.6-7.8-6.4-13c0.5-16.7-1.2-33.4,0.2-50.1c0.3-3.7,1.4-7.3,1.9-11c0.7-5.7,8.7-10.5,14.4-9.1
			c1,0.2,1.7,0.2,2.6-0.2c10.4-4.3,20.8-8.6,31.3-12.7c4.1-1.6,5.6-4.3,5.5-8.5c-0.5-11.6,6-22.9,7.5-34.3
			C441.1,370.2,437.1,362.1,437.5,354.2z"/>
		<path fill="#369EBB" d="M484.1,421.9c0-4.6,0-9.3,0-13.9c0-1.4,0.1-2.7,1.1-3.8c0.3-0.3,0.6-0.8,0.5-1.2
			c-0.6-4.3,0.4-8.7-1.1-12.9c-0.3-0.7-0.3-1.4-0.3-2.1c0.9-21.8,1.3-43.6,0-65.4c-0.3-4.9,1.3-9.4,1.4-14.2
			c0.3-38.4-0.8-76.7-1.1-115.1c0-4.9,0.9-9.7-1-14.6c-0.7-1.9,0.9-3.3,2.7-3.2c7.9,0.1,15.5-1.8,23.2-3.2c2.8-0.5,4.5,1.4,3.7,4
			c-3.5,11.1-4.4,22.6-5.5,34.1c-2,21.3-1.7,42.7-1.6,64c0.1,12.2-0.2,24.4,0.8,36.5c0.9,10.9,0.9,22,3.3,32.7
			c0.1,0.6,0.1,1.3,0.1,1.9c0.1,13.5-0.3,27.1,0.5,40.6c0.5,9.6-1.3,19-2.9,28.4c-2.1,12.5-2.1,24.9-0.6,37.5
			c0.3,2.3,0.3,4.5,0.4,6.8c0,0.4,0.1,1.1-0.1,1.3c-2.8,2.9-2.5,6.5-2.8,10.1c-0.3,2.8-2.8,4.7-5.5,5.9c-9.3,4.1-19.2,5.9-29.2,7.4
			c-2.4,0.4-4.8,0.8-7.3,1c-2,0.2-4,0-4,3c0,1.2-1.4,1.8-2.7,1.8c-1.4-0.1-2.4-0.8-2.9-2.1c-0.2-0.6-0.4-1.3-0.2-1.9
			c1.9-5.9,0.3-11.9,0.7-17.9c0.1-1.1,0.2-2.2,0.3-3.3c0.2-3.1,1.3-5.2,4.6-6.2c4.7-1.4,8.6-4.3,11.8-8c0.9-1,2-1.9,3.1-2.6
			c3-1.8,5.6-4.1,7.9-6.6c1.4-1.5,2.2-3.2,2.2-5.4c-0.1-4.5,0-9.1,0-13.6C483.7,421.9,483.9,421.9,484.1,421.9z"/>
		<path fill="#369EBB" d="M324.1,68.7c10.7,0.7,21.8,0.9,32.9,0.9c5.1,0,10.1,1.9,15.3,2.3c16.2,1.3,32.1,5,48.4,5.4
			c13.9,0.4,27-2.7,39.9-7.1c7.6-2.6,14.8-6.4,21.9-10.3c2.6-1.4,5.4-1.4,8.1-0.6c1.6,0.5,2.2,1.9,2,3.5c-0.5,5.3-1.2,10.6-2.4,15.9
			c-1,4.3-4,6.3-8,7.2c-3.6,0.8-7.3,1.4-11,1.9c-7.4,1-14.4,3.7-21.7,5.2c-13.4,2.8-26.9,2.6-40.4,0.5c-12.7-2-25.4-2.7-38.2-3.7
			c-39.7-3.1-77.1,6.1-113.6,20.7c-3.8,1.5-7.4,3.5-11,5.4c-6.7,3.5-13.4,7.2-20.1,10.8c-5.1,2.8-9.9,6.1-13.4,11
			c-1,1.4-2.5,2.3-4.2,1.3c-1.7-1-1.1-2.6-0.9-4.3c1.1-9,7.5-14.8,12.4-21.5c5-6.7,10.8-12.7,16.9-18.5c9.5-9,22.7-10.7,35-14.5
			C289.6,74.7,305.7,69.5,324.1,68.7z"/>
		<path fill="#369EBB" d="M288.2,220.4c-0.8-9.3-2.7-18.5-4.7-27.6c-0.7-3.1-1.6-6-3.4-8.7c-3.1-4.7-4.7-10.2-5.5-15.8
			c-0.3-1.9,0.1-3.7,2.1-4.6c1.7-0.8,3-0.1,3.9,1.4c0.6,1,1.6,0.7,2.5,0.7c6.4,0.1,9.4,2.9,10.9,8.8c4.1,15.8,9.5,31.2,14,47
			c4.5,15.8,2.3,31.4-2.9,46.5c-3.7,10.7-13.7,12.9-22,5.2c-5.8-5.5-9.8-12.4-13.8-19.2c-14.7-25-27.3-50.9-33.8-79.3
			c-0.4-1.9-0.9-3.7-0.8-5.6c0-0.9-0.1-1.5-0.9-2.1c-1.1-0.8-1.1-2.1-0.7-3.2c0.4-1.2,1.4-1.9,2.7-1.9c2.9,0,5.6,0.6,8.2,1.8
			c0.8,0.4,1.3,1.1,1.8,2c9.4,17.3,13.3,39.5,23,56.6c2.2,3.9,7.5,4,10.3,7.5c1.6,2,3.6,4.7,5.9,4.2c1.9-0.4,1.7-3.8,2.3-6
			C288,225.5,288.4,223,288.2,220.4z"/>
	</g>
</g>
<g id="_xFFFD__x9C__x96_撅_xFFFD__3_xA0_影像_1_">
	<g>
		<path fill="#222222" d="M289.3,326.5c0.9,5,1.8,10,2.7,14.9c0.2,1.1,1.2,1.5,2,2.2c9.4,7.8,20.5,11.1,32.3,12.5
			c7.1,0.9,14.2,1.8,21.4,0.8c6.8-1,11.7-4.6,15.3-10.3c4-6.3,5.5-13.4,6.5-20.6c3-21.2-0.2-41.6-6.8-61.7c-6-18.3-9.2-37.2-11-56.3
			c-0.3-3.4-0.2-6.7,0.3-10.1c1-6.5,5-10.1,11.5-9.3c10.5,1.3,19.2,5.9,25.1,15c5.2,8,6.8,17.1,7.6,26.4c1.1,12.6,0.3,25.3,0.2,37.9
			c0,20.9,1.6,41.8,1.8,62.7c0.1,10.4,0.9,20.9-0.9,31.3c-0.8,4.5-1.8,8.9-3.6,13.1c-5.2,12.5-15,18.5-28.2,19.2
			c-8.3,0.5-16.4-1.4-24.6-3c-3.5-0.7-7-1.2-10.5-1.1c-3.9,0.2-4.9,1.1-5.7,4.9c-1.5,7-0.9,13.9-0.1,20.9
			c3.2,29.4,6.9,58.7,8.3,88.2c0.4,7.6,0.5,15.3,0.1,22.9c-0.1,1.6-0.2,3.1-1.2,4.4c-0.9,1.2-2.2,1.6-3.6,1.1
			c-1.2-0.4-2-1.5-1.6-2.8c1.9-7.1,1.1-14.3,0.8-21.4c-1.1-28.6-4.4-57-7.8-85.5c-1.1-9-2-18.1-0.8-27.2c1.1-8,4.8-11.4,12.9-11.2
			c6.6,0.1,12.9,1.9,19.4,2.9c6.6,1.1,13.1,2,19.7,0.4c8.6-2,14.4-7,17.7-15.1c3.2-7.9,4.3-16.1,4.3-24.5
			c-0.1-21.5-0.8-43.1-1.7-64.6c-0.5-11.2-0.2-22.4,0.1-33.5c0.3-10.8,0.1-21.6-2.5-32.2c-3.1-12.5-10.8-20.5-23.5-23.4
			c-5.1-1.1-7.2,0.4-7.5,5.6c-0.6,7.9,0.8,15.7,1.8,23.6c2.5,19.4,9,37.8,13.7,56.6c4.6,18.8,4.3,37.6,0.3,56.5
			c-0.6,2.9-1.7,5.7-3,8.5c-5.4,11.6-14.4,17.8-27.3,17.8c-12.4-0.1-24.7-1.5-36.4-5.9c-4.5-1.7-8.7-4.1-13.1-7.2
			c0.9,5.3,1.6,9.9,2.4,14.5c2.3,13.3,3.1,26.7,4.2,40.1c1.6,19.4,2.9,38.8,3.6,58.2c0.4,11.6,0.7,23.3-0.1,34.9
			c-0.1,2.1-0.7,4-3.2,3.7c-2.5-0.3-2.6-2.2-2.4-4.3c1.2-13.6,0.5-27.3-0.1-40.9c-0.6-13.3-1.6-26.5-2.5-39.7
			c-1.6-24.8-4.2-49.4-9-73.8c-2.5-12.5-4.7-25-7.7-37.3c-2.8-11.9-8.5-22.6-14.5-33c-13.7-23.7-24.2-49-35.4-73.9
			c-5.1-11.3-10.8-22.2-15.5-33.6c-3.1-7.5-4.9-15.4-6.6-23.3c-2.3-10.7,1.8-20.2,7.8-28.9c6.2-9,14.6-15.4,24.1-20.3
			c19.1-9.9,39-17.7,60.4-21.4c13.2-2.3,26.6-2,40-1.7c24.1,0.4,47.8,3.5,71.5,7.3c17.1,2.8,33-0.8,48.5-7.9
			c6.4-2.9,12.8-6.2,19.2-9.2c3-1.4,6.1-2.3,9.2-3.4c4.2-1.5,6.9-0.2,9,3.5c-1.1,0.9-2.6,0.6-3.9,0.8c-5.6,1-10.8,3.2-15.8,5.7
			c-7.7,3.8-15.1,8-23.1,11c-16.1,6.2-32.6,7.1-49.6,4.1c-27-4.8-54.2-6.8-81.7-6.6c-19.4,0.1-37.8,4.4-55.7,11.4
			c-12.2,4.8-24.4,9.6-35,17.4c-9.8,7.1-16.9,16.2-19.2,28.4c-1.6,8.4,1.2,16.4,9.4,20.7c5.3,2.8,11,4.1,16.5,6.3
			c9,3.6,18.3,3.5,27.6,3.7c13.8,0.2,27.6-0.3,41.4-1.1c8.3-0.5,16.4,1.7,24.4,3.8c15.6,4.1,30.6,9.8,46.2,13.6
			c13.6,3.3,27.3,5.3,41.3,5.1c12-0.2,23.8-2.7,35.6-5.1c19.4-4,38.8-7.6,58.4-10.8c5.2-0.8,10.4-2,15.7-2.1c1.7,0,3.3,0.1,4.1,1.9
			c0.1,0.3,0.4,0.7,0.7,0.8c5.1,2.8,5.8,7.3,5.7,12.6c-0.9,28.5,1.4,57.1,1,85.6c-0.6,38.7-1.4,77.4-3,116.1
			c-0.7,18.2-1.3,36.3-2.4,54.5c-1.2,18.2-1.5,36.5-3.7,54.7c-0.3,2.7-0.8,5.4-1.6,8c-1.4,4.6-4.4,7.7-9.2,8.1
			c-11.1,1-21.8,3.8-32.7,5.8c-12.7,2.2-25.5,3.9-38.2,5.5c-3.5,0.4-7,1.2-10.5,1.1c-5-0.1-8-2.2-9.6-6.9c-1.7-5-1.8-10.2-2.1-15.3
			c-0.6-8.5-0.2-17.1,0-25.6c0-1,0.1-2,0.4-3c0.4-1.6,1.3-2.7,3.1-2.5c1.9,0.2,2.1,1.6,2,3.3c-0.4,11-0.7,22,0.9,32.9
			c0.3,2.1,0.9,4.3,1.3,6.4c0.6,2.8,2.4,3.8,5.2,3.7c5.7-0.1,11-2.3,16.6-3c11.4-1.5,22.8-3.7,34.3-4.4c8.2-0.5,16.1-2.6,24-4.8
			c3.7-1.1,6.2-4.2,7.7-7.9c2.3-5.5,3-11.4,3.6-17.3c2.8-23.8,3.3-47.8,4.4-71.8c2.4-50.3,3.8-100.6,3.9-151
			c0-16.8-0.8-33.6-1.1-50.4c-0.1-7.5,0.1-15.1,0.2-22.6c0-5.5-3.1-8.7-8.7-8c-7.3,0.8-7.3-0.5-9.4,8c-2.3,9.5-3.1,19.2-4,28.9
			c-1.9,20.7-3.2,41.5-3.5,62.3c-0.3,14.5,0.8,28.9,1.6,43.3c1.3,25.9,2,51.8,1,77.7c-0.9,22.2-2.7,44.5-2.6,66.7
			c0,4.2-0.4,8.3-0.9,12.5c-0.7,4.7-3.1,7.8-7.6,9.3c-7.4,2.5-15,4.2-22.7,5.6c-4.4,0.8-8.6,2.1-12.8,3.6c-2.8,1-5.7,1.7-8.7,2.3
			c-3.7,0.6-6.5-1.1-6.7-5.5c-0.4-7.7-0.1-15.4,0.6-23.1c0.4-3.8,2.3-6.2,5.9-7.4c3.4-1.2,6.8-2.6,10.3-3.4c5.1-1.2,7.7-4.8,9.5-9.2
			c2.8-6.8,2.9-14,3.9-21.1c2.4-17.3,2.2-34.8,3.5-52.2c0.5-7.4,0.3-14.7,0.3-22.1c-0.2-23.1-0.9-46.2-1.8-69.2
			c-0.7-16.4,0.4-32.9,0.4-49.4c0-14.8,0.1-29.6,0.4-44.4c0.1-2.5-2.4-3.3-2.6-5.4c0-0.1-0.5-0.2-0.7-0.2c-0.4,0-0.7,0.2-1.1,0.2
			c-7.4,1.3-7.4,1.3-8.4,8.7c-0.6,4.4-0.5,8.9-0.5,13.3c0,33.8-0.1,67.6,0.7,101.4c0.5,20.4-0.8,40.7-2.1,61
			c-0.6,9.9-1.1,19.8-1.8,29.7c-0.8,11.1-2.3,22-4.8,32.8c-2.3,9.8-8.3,16.4-17.7,19.8c-5.2,1.8-10.6,3.2-15.9,4.9
			c-3.7,1.2-7.3,2.7-10.8,4.6c-4.1,2.2-6.3,5.7-6.5,10.3c-0.5,10,0.5,20,1.4,29.9c0.7,7.4,2.2,14.7,2.6,22.2c0.1,1.1,0.1,2.2,0,3.3
			c-0.2,4.9-2.5,7.6-7.3,8.3c-6.5,1-13.1,0.4-19.5-0.7c-4.5-0.8-6.8-3.8-7.6-8.2c-2.8-13.7-4.5-27.4-4.8-41.4
			c-0.2-9.8-0.7-19.6,0.4-29.4c0.2-1.9,0.5-3.8,0.9-5.6c1.4-7.1,5.6-11.5,12.7-12.8c5.7-1.1,11.4-2.2,17.2-3.1
			c16.3-2.4,25-12.3,28.2-27.9c2.4-11.5,3-23.1,3.2-34.7c0.5-31.7,0.8-63.4,1.2-95.2c0.2-14.6,1.2-29.3,0.5-43.9
			c-0.3-5.4-0.7-10.7-2.2-15.9c-0.3-1.2-0.8-2.4-1.3-3.6c-0.7-1.7-1.5-1.5-2.3-0.1c-2.8,4.8-4.2,10-5.1,15.4
			c-2.1,12-1.2,24.1-1.3,36.2c0,19.5,1,39.1-0.5,58.6c-1.5,19.9-2.4,39.9-6.5,59.5c-3.9,19.1-15.8,30.5-34.2,35.7
			c-4.5,1.3-9.2,1.4-13.8,1.4c-4.8,0-9.6,0.2-14.4,1.1c-4.9,0.9-5.9,2-6.5,6.9c-0.7,5.9,0.3,11.8,0.9,17.6c2,18.2,4.2,36.5,6.3,54.7
			c0.9,8,2,16,3,24.1c0.2,2,0.5,4,0,6c-0.3,1.4-1.3,2.5-2.9,2.2c-1.6-0.2-2.1-1.4-2.1-2.7c-0.2-10.6-2.5-20.9-3.8-31.3
			c-2.6-20.9-5.1-41.8-7.2-62.8c-0.3-3.4-0.2-6.9,0.3-10.3c0.8-4.7,3.4-7.7,7.9-9.1c4.2-1.3,8.6-1.6,12.9-1.8
			c4.8-0.2,9.7-0.1,14.4-0.8c14.4-2.4,29.6-11.6,33.7-32.6c2.3-11.5,3-23,4.3-34.6c3.9-32.3,2.1-64.6,2.2-97
			c0-11.2,0.5-22.4,4.4-33.1c1-2.7,2-5.3,3.8-7.5c3.6-4.7,8.2-4.4,11,0.8c2.4,4.3,3.1,9.1,3.7,13.9c1.2,9.9,1.4,19.8,1,29.7
			c-1.3,34.4-0.8,68.9-1.6,103.3c-0.3,14.1-0.3,28.2-2.1,42.2c-0.6,5-1.7,9.8-3.1,14.6c-4.3,14.9-14.3,23.3-29.4,26.1
			c-5.8,1.1-11.6,2-17.4,3.2c-7.1,1.5-9,3.6-10.1,10.9c-1.1,7.1-1.1,14.3-1.1,21.5c0.2,16.7,1.5,33.2,4.9,49.6
			c0.8,3.9,1.5,4.4,5.3,5c4.4,0.6,8.9,0.7,13.3,0.5c4.3-0.2,5-0.9,4.8-5.1c-0.3-7.1-1.9-14-2.5-21.1c-1-11.2-2.4-22.4-1.5-33.7
			c0.5-6.4,3.9-10.8,9.4-13.8c6.4-3.6,13.4-5.6,20.4-7.6c2.5-0.7,5-1.5,7.5-2.4c7.3-2.7,11.8-7.9,13.6-15.5
			c2.5-10.4,4-21.1,4.7-31.8c1.4-20.5,2.4-41,3.5-61.5c1.3-22.9-0.1-45.8-0.2-68.7c-0.1-24-0.5-48,0.2-72c0.1-2.2,0.3-4.3,0.6-6.5
			c0.2-1.8-0.1-2.4-2.2-1.9c-9.6,2-19.3,3.7-29,5.2c-11.8,1.7-23.6,1-35.3-0.4c-19.6-2.4-38.2-8.8-56.9-14.7
			c-3.4-1.1-6.8-1.9-10.2-3c-2.3-0.7-2.7,0-2.2,2.1c2.1,8.6,4,17.2,6.1,25.7c6.3,26,14.3,51.6,20.2,77.8c2.5,10.9,4.4,21.9,4.9,33.1
			c0.2,5.4-0.2,10.7-2,15.9c-4.9,13.5-17.7,20.9-32.6,18.6c-12.6-1.9-23.8-6.9-33.1-15.8C290.6,327.1,290.3,326.5,289.3,326.5z
			 M454,475.7c0,2.5,0,5.1,0,7.6c0,1.2,0.1,1.9,1.7,1.5c12.7-3,25.5-5.9,38.2-8.9c3.3-0.8,5.3-3.6,6.6-6.3c1.3-2.8,1.7-6.1,1.8-9.3
			c0.4-16.5,0.4-33.1,1.7-49.6c2.1-26.9,1.7-53.8,0.7-80.7c-0.7-17.5-2-35-2.2-52.6c-0.2-23.9,1.6-47.8,3.8-71.6
			c1-10.1,1.8-20.3,4.6-30.1c0.5-1.8-0.7-1.5-1.7-1.3c-6.8,1-13.6,2.1-20.5,3.1c-1.8,0.3-2.4,1-2.3,2.8c1.6,42.8-1.3,85.6,0.9,128.4
			c1.4,26.9,1.4,53.8-0.3,80.7c-0.9,14.7-1.1,29.4-1.7,44.1c-0.6,14.3-4.8,19.9-18.4,24.6c-2.8,1-5.7,2-8.5,2.8
			c-2.4,0.7-3.6,2-3.7,4.6C454.2,469,454.1,472.4,454,475.7z M216.2,156.4c0.5,1.4,0.9,2.9,1.5,4.3c4.8,11.8,10.8,23,16.1,34.6
			c8.9,19.6,17,39.6,27,58.6c5.7,10.8,12.1,21.1,17.1,32.2c2,4.3,4.3,8.3,7.3,12c3.8,4.7,8.1,8.8,13.3,12c6.4,4,12.9,3.9,19.3-0.1
			c3-1.9,5.6-4.3,7.9-7.1c8.3-10,9.7-21.5,7.6-33.9c-2-12.3-5.9-24.2-9.8-36c-6.5-19.5-13.1-38.9-18.4-58.7
			c-0.7-2.5-0.3-5.9-2.1-7.4c-2-1.6-5.2-0.2-7.9-0.1c-3.8,0.2-3.8,0.2-2.8,4c4.4,17.1,10.4,33.7,15.4,50.5
			c3.2,11.1,6.2,22.2,6.2,33.9c0,5.9-1.5,11.3-5.1,16.1c-4.1,5.5-9.2,8.8-16.4,7.3c-3.6-0.8-6.7-2.8-9.6-5
			c-10.1-7.8-17.2-18.1-22.1-29.6c-10.8-25.4-23.1-50.1-30.4-76.9c-0.3-1.2-0.8-2.3-0.3-3.4c0.6-1.3-0.1-1.6-1-1.9
			C224.8,160.3,220.6,158.5,216.2,156.4z M285.1,306.9c0.8,4.4,2,7.9,4.9,11.4c9.8,11.5,22,18,36.7,19.7
			c12.4,1.4,22.3-5.6,25.4-17.8c1.8-7,0.9-14.1,0.1-21.1c-1.9-15.6-5.8-30.9-9.9-46c-7.4-27.5-15.2-54.9-20.4-83
			c-0.2-1-0.5-1.7-1.6-1.9c-3.3-0.6-6.6-1.2-10-1.4c-1.3-0.1-1.6,0.4-1.3,1.6c0.4,1.7,0.8,3.4,1.3,5c5.9,20.6,12.9,40.8,19.6,61.2
			c4.6,14.1,9,28.1,9.7,43.2c0.7,14.1-4.9,25.3-15.1,34.3c-9.9,8.7-21,8.9-31.6,1.2C290.3,311.3,287.9,309.1,285.1,306.9z
			 M235.4,163.8c3.5,10.8,5.9,21.6,10.6,31.6c2.5,5.3,4.6,10.7,6.9,16c5.9,13.7,11.1,27.9,18.7,40.8c4.4,7.4,10,13.6,17.1,18.5
			c6.1,4.2,10.8,3.4,15.3-2.5c3.3-4.3,4.3-9.3,4.1-14.6c-0.3-10.6-3-20.7-6-30.7c-4.7-15.9-10.1-31.7-14.2-47.8
			c-0.7-2.5-0.3-6-2.2-7.3c-2-1.4-5.3,0-8,0.1c-0.2,0-0.4,0-0.5,0c-1.3-0.1-1.6,0.5-1.2,1.7c1.1,3.3,1.8,6.7,3.2,9.8
			c4.5,10.5,7.4,21.4,9.9,32.5c1.5,6.6,2.8,13.2,1.3,20c-1.3,6.4-5.5,8.2-11,4.8c-4.2-2.6-7.4-6.2-10.1-10.2
			c-4.4-6.5-7.4-13.7-10.5-20.9c-5.3-12.3-9.5-25-14.2-37.4c-0.4-1-0.4-2.2-1.8-2.6C240.5,165.1,238.1,164.5,235.4,163.8z
			 M285.4,226c-0.1-0.9-0.1-1.6-0.2-2.4c-1.8-13.4-5.2-26.3-10.1-38.9c-1.9-4.9-3.8-9.8-4.8-15c-0.3-1.4-1-1.7-2.2-1.7
			c-5.5,0.1-10.9-0.3-16.3-1c-1.8-0.2-1.8,0.4-1.2,1.8c5.7,15.1,11.3,30.3,18.2,44.9c2.6,5.4,5.4,10.7,9.8,15
			c1.6,1.5,3.4,4.2,5.4,3.4C285.9,231.2,285,228,285.4,226z"/>
		<path fill="#222222" d="M138.1,347.5c-0.3,0.6,0.1,1.3,0.8,1.5c1.7,0.5,2.1,2.1,2.5,3.9c1.5,7,2.7,14.1,2.3,21.3
			c-0.1,1-0.1,2.3,1.2,2.4c1.5,0,0.9-1.4,1-2.3c0.6-5.5,1.1-11,1.2-16.5c0-0.2,0-0.4,0-0.6c0.3-1.8,0.8-3.4,2.9-3.3
			c2,0.1,2.6,1.6,2.5,3.3c-0.2,4.2-0.3,8.4-0.8,12.5c-0.5,4.9-0.8,9.8-2.4,14.5c-0.3,0.9-0.1,1.6,0.2,2.5c0.4,1,1.7,1,2.2,0.1
			c2.3-4.7,3.6-9.6,4.5-14.5c0.2-1.1,0.3-2.2,0.6-3.2c0.4-1.6,1.3-2.7,3.1-2.4c1.7,0.3,2.4,1.7,2.2,3.3c-0.4,2.6-0.8,5.2-1.5,7.7
			c-1.7,6-3.5,12.1-7.8,16.9c-0.6,0.6-0.5,0.7-0.2,2.7c1.4-0.4,1.8-1.7,2.4-2.7c2.9-5.1,4.7-10.6,6.7-16.1c1.2-3.4,2.7-4.8,4.6-3.8
			c2.7,1.4,1.4,3.6,0.7,5.5c-2,5.5-3.9,11.1-6.9,16.3c-1.6,2.8-3.3,5.5-6.2,7.2c-0.3,0.2-0.6,0.6-0.6,1c-0.2,3.2-2.2,5.2-4.4,7.1
			c-10.2,8.3-19.9,17-29.2,26.2c-1.8,1.8-3.7,3.5-5.9,4.8c-3.7,2.3-6.7,1.7-9.1-2c-3.8-6-6.8-12.4-9.7-18.9
			c-1.7-3.8-3.3-7.6-5.8-11.1c-4.4-6.4-6.2-13.9-6-21.7c0.1-2.2-0.5-3.7-2.2-5.3c-10.3-9.7-12.9-21.7-9.2-35.1
			c0.6-2.1,1.6-4.1,3-5.8c1.4-1.7,2.9-4.1,5.5-3.1c1.8,0.7,2.1,2.4,2.1,4.1c-0.1,5.7,0,11.5,1.2,17.1c0.5,2.4,1.3,4.7,2.4,6.9
			c0.7,1.4,1.3,1.3,2.3,0.1c1.2-1.5,2.5-3,3.9-4.4c1.6-1.7,3.3-3.9,5.9-2.5c2.3,1.2,2.2,3.4,1.8,5.5c-0.8,4.1-2.2,8.1-4,11.9
			c-1.5,3.2-0.9,6.5-0.6,9.6c0.5,3.9,1.1,7.8,1,12c0,1,1,1.6,1.8,1.1c2.1-1.4,3.9-3,5.7-4.7c1-0.9,0-7.4-1.1-7.8
			c-0.8-0.3-1.5-0.6-1.8-1.4c-4.6-10.1,1.1-16.4,8.1-13.5c0.6,0.3,1.3,0,1.6-0.6c0.5-1.2,0.9-2.4,1.8-3.4c3.5-3.7,8.9-2,10.3,5
			c0.4,1.9-0.2,3.8-1.6,5.2c-1,1-1.5,2-1.6,3.1c-0.1,1,1,1.7,1.9,1.1c1.4-1,2.7-2,4.1-3c0.8-0.6,0.6-1.4,0.5-2.2
			c-1.3-8.2-1.3-16.5-0.8-24.7c0.1-1.3-0.5-2.2-1.2-3.2c-4.6-6.6-6.9-14.1-8.4-21.8c0-0.1,0-0.2,0-0.3c0.2-1.9-0.6-4.3,2-5.2
			c1.7-0.5,4.9,1.5,5.6,3.5c0.6,1.7,1.1,3.5,1.7,5.2c0.5,1.2,2.3,0.9,2.3-0.4c0-0.1,0-0.2,0-0.4c0.4-6.1,1.5-12.3-0.1-18.4
			c-0.5-1.8-0.3-3.7,1.9-4.5c1.9-0.7,4.8,0.5,5.6,2.2c4.2,9.1,7,18.5,5.5,28.7C140.1,342.2,139.2,344.8,138.1,347.5z M104.4,427.3
			c-0.6,1.3,1.5,2.3,2.2,1c0.8-1.5,1.4-3.1,2.1-4.7c1.6-3.9,2.7-8,4.7-11.6c2.9-5.5,7.1-10,12-13.9c1.7-1.3,3.2-3.8,5.8-1.6
			c1.6,1.3,0.6,3.2-2.3,5.7c-5.4,4.6-10.5,9.3-12.5,16.6c-1,3.9-3.1,7.5-4.8,11.5c1.3-0.7,1.9-1.7,2.5-2.5
			c3.5-4.7,7.2-9.2,10.2-14.2c1-1.7,2.4-3.4,4.6-2c2.1,1.3,1,3.3,0,4.8c-1.2,2.1-2.6,4.1-4.1,6.1c-1.6,2.2-3.3,4.4-4.9,6.5
			c8.5-7.1,16.5-14.6,25.1-21.4c2.4-1.8,2.9-3.9,2.4-6.7c-1.1-6.1-3.1-12-5.2-17.7c-0.6-1.7-1.6-2.3-3.3-1.4c-2,1-4,1.7-6,2.7
			c-9.6,4.7-18.1,11.1-26.4,17.8c-2.5,2-4.1,4.1-4.5,7.3c-0.2,2-0.8,4.2-1.8,6c-1.2,2.1-0.8,3.8,0.1,5.5c0.5,0.8,1.6,0.8,2.1,0
			c0.4-0.6,0.6-1.3,0.9-1.9c1.6-3.7,3.2-7.5,4.4-11.4c0.5-1.6,1.6-2.7,3.5-2.2c1.6,0.4,2.2,1.8,1.7,3.2c-1.9,6.2-3.9,12.4-7.9,17.5
			C104.8,426.5,104.6,426.9,104.4,427.3z M135,369.7c0,1.6,0,3.3,0,4.9c0,0.7-0.4,1.6,0.3,2c0.8,0.4,1.5-0.3,2.3-0.5
			c1.3-0.4,0.9-1.6,1-2.5c0.2-6.8-1.1-13.3-2.6-19.9c-0.1-0.5-0.1-1.3-0.8-1.1c-0.7,0.2-1.6,0.5-1.7,1.5c0,0.5,0.1,1.1,0.2,1.6
			C134.4,360.3,135.3,365,135,369.7z M109.8,389.9c0,0.9,1,1.4,1.8,1c3.1-1.7,3.3-2.8,2.7-6.4c-0.1-0.7-0.4-1.2-1-1.5
			c-0.4-0.2-0.8-0.1-0.9,0.3C111.7,385.5,109.7,387.3,109.8,389.9z M106,382.9c0.9-1.3,0.9-2.7,0.2-4c-0.2-0.4-0.7-0.3-0.9,0.1
			C104.7,380.4,104.6,381.8,106,382.9z"/>
		<path fill="#222222" d="M159.9,263.3c1.3-6.9,2.6-13.7,4-20.6c3.2-15.2,6.6-30.3,11.5-45.1c0.4-1.2,0.8-2.4,1.4-3.5
			c0.6-1.2,1.7-1.6,3-1.2c1.2,0.4,1.6,1.4,1.6,2.6c0,0.4-0.1,0.9-0.2,1.3c-6.8,21-10.7,42.7-15,64.4c-0.2,1.1-0.5,2.3-1,3.4
			c-0.6,1.4-1.6,2.3-3.2,1.9C160.3,266.1,159.9,264.8,159.9,263.3z"/>
		<path fill="#222222" d="M192,225c-1.4,6.2-2.9,13.1-4.3,20.1c-3,14.5-5.2,29.1-6.9,43.8c-0.2,1.3-0.4,2.7-0.8,4
			c-0.5,1.7-1.5,3.1-3.5,2.6c-1.9-0.5-2-2.1-1.8-3.7c0.9-6.7,1.8-13.3,2.6-20c2.1-16.1,6.1-31.9,9.6-47.7c0.4-1.7,0.9-3.3,3.1-3
			C191.8,221.3,192.1,222.7,192,225z"/>
		<path fill="#222222" d="M114.3,477c-0.8,6-1.6,11.8-2.4,17.5c-1.5,11.1-2.2,22.2-3.1,33.3c-0.3,3.7-0.7,7.4-1,11.1
			c-0.1,1.3-0.6,2.5-1.4,3.5c-0.9,1-2,1.3-3.2,0.8c-1.2-0.5-1.6-1.5-1.4-2.7c2.2-16.3,2.5-32.8,5.2-49c0.8-4.9,1.6-9.8,2.4-14.8
			c0.3-1.7,1-3,3-2.8C114.2,474.2,114.4,475.7,114.3,477z"/>
		<path fill="#222222" d="M99.5,479.4c-0.9,4.5-1.9,9.2-2.8,13.9c-0.7,3.9-1.4,7.9-2.1,11.8c-0.1,0.8-0.3,1.6-0.6,2.3
			c-0.7,1.4-1.9,2.4-3.5,1.7c-1.5-0.6-1.9-1.9-1.6-3.4c1.5-7.4,2.9-14.8,4.4-22.1c0.4-1.8,0.8-3.5,1.2-5.3c0.3-1.4,1.2-2.3,2.7-2.1
			C98.9,476.4,99.5,477.6,99.5,479.4z"/>
	</g>
	<path fill="#FFFFFF" d="M105.5,383.4c0,0-1.6-0.4-1.3-2.4c0,0,0.1-1.6,0.7-2c0.7-0.4,1.4-1.1,2.4,0c1.2,1.2,0.5,3.1-0.1,3.7
		C106.7,383.4,105.5,383.4,105.5,383.4z"/>
	<path fill="#FFFFFF" d="M116,377.2c0,0-1.6-0.4-1.3-2.4c0,0,0.1-1.6,0.7-2c0.7-0.4,1.4-1.1,2.4,0c1.2,1.2,0.5,3.1-0.1,3.7
		C117.1,377.2,116,377.2,116,377.2z"/>
</g>
<g id="_xFFFD__x9C__x96_撅_xFFFD__14_xA0_影像_1_">
</g>
<g id="_xFFFD__x9C__x96_撅_xFFFD__4_xA0_影像_1_">
</g>
<g id="_xFFFD__x9C__x96_撅_xFFFD__15_xA0_影像_1_">
</g>
<g id="_xFFFD__x9C__x96_撅_xFFFD__5_xA0_影像_1_">
</g>
<g id="_xFFFD__x9C__x96_撅_xFFFD__16_xA0_影像_1_">
</g>
<g id="_xFFFD__x9C__x96_撅_xFFFD__6_xA0_影像_1_">
</g>
</svg>
