<?xml version="1.0" encoding="utf-8"?>
<!-- Generator: Adobe Illustrator 18.0.0, SVG Export Plug-In . SVG Version: 6.00 Build 0)  -->
<!DOCTYPE svg PUBLIC "-//W3C//DTD SVG 1.1//EN" "http://www.w3.org/Graphics/SVG/1.1/DTD/svg11.dtd">
<svg version="1.1" xmlns="http://www.w3.org/2000/svg" xmlns:xlink="http://www.w3.org/1999/xlink" x="0px" y="0px"
	 viewBox="0 0 759.1 654.1" enable-background="new 0 0 759.1 654.1" xml:space="preserve">
<g id="_xFFFD__x83__x8C__xFFFD__x99__xA0_影像_1_">
</g>
<g id="_xFFFD__x9C__x96_撅_xFFFD__13_xA0_影像_1_">
</g>
<g id="_xFFFD__x9C__x96_撅_xFFFD__3_xA0_影像_1_">
</g>
<g id="_xFFFD__x9C__x96_撅_xFFFD__14_xA0_影像_1_">
</g>
<g id="_xFFFD__x9C__x96_撅_xFFFD__4_xA0_影像_1_">
</g>
<g id="_xFFFD__x9C__x96_撅_xFFFD__15_xA0_影像_1_">
	<g>
		<path fill="#369EBB" d="M368.6,59.2c5.6,0,11.3,0,16.9,0c0.5,0,1,0.1,1.6,0.1c2,0.6,4.1-0.2,6.1,0.5c7.4,1,14.9,1.3,22.1,3.1
			c13.3,3.3,26,8.5,38.5,14.2c10.4,4.7,20.7,9.8,30.7,15.4c9.6,5.3,17.5,12.9,25.9,19.8c14,11.5,23,26.8,32,42
			c14.2,23.8,23.5,50.8,30.9,77.6c2.7,24.6,4,19.2-3,66.9c-8.6,18.3-14,41-24.4,58.3c-7,11.7-14.7,24.1-21.3,36
			c-8.4,15.3-17.6,29.7-26.7,44.7c-13.8,22.8-25.4,42.6-30.8,68.8c-1.9,9.3-1.6,18.7,1,27.8c4,14.2,13.9,22.1,28.3,24.6
			c14.5,2.6,29.1,2.5,43.7,1.3c16.7-1.4,33.4-3.4,50.3-3c17.2,0.5,31.5,7.8,44.4,18.4c0.5,0.5,1,1,1.7,1.8
			c-7.8,2.8-15.4,5.3-23.1,7.7c-6.9,2.2-14,1.9-21.1,1.9c-22.1-0.2-43.9,2-65.4,7c-7.6,1.7-15.3,1.6-23,2.3
			c-23,2.2-46.1,2.8-69.2,2.4c-7.8-0.2-15.3-2-23-2.8c-17.5-1.7-35-1.8-52.6-1.4c-21.5,0.5-43.1,0.1-64.6-1.2
			c-17.5-1.1-34.5-5.1-51.3-9.6c-22.4-6-45.2-10-68.3-12.4c-12-1.2-23.9-3.5-35.9-5.2c-10.4-1.5-20.7-3.3-31.2-2.5
			c-5,0.4-9.9,1.1-15.1,1.6c6.2-10.6,12.5-20.7,23.3-27.5c12.2-7.7,25.2-11.5,39.3-13.3c22.6-2.9,45.2-4.5,67.9-6
			c12.8-0.8,25.5-2.5,38.2-3.7c3.9-0.4,7.8,0.6,11.7,0.7c1.5,0-2.2,1.9-2.8,2.9c-2.6,4.7,0.7,8.8,0.5,14c-0.1,3.5,0.1,9.3,1,12.5
			c0.7,2.5,4.7,0.6,7.2,0.7c4.8,0.1,8.6,4,13.3,3.3c10.4-1.6,22.9-4,33.5-4c9.4,0,11.8-7.7,12.5-17.1c0.3-4.8-0.2-9.6-1.4-14.3
			c-1-3.8-3.9-0.5,0-1.5c11.4-2.9,25.5-9.4,36-15c20.2-10.7,37.7-24.8,53-41.8c5.4-5.9,9.2-12.8,12-20.3c3.5-9.2,8.2-18,13.2-26.5
			c2.4-4.2,3.9-8.6,3.8-13.4c0-2.1,0.4-4.1,1.2-6.1c6.9-17.3,9.7-34.5,16.6-51.8c4.8-12,9.9-24.5,9.1-37.3
			c-0.8-13.6-1.9-27.2-5.8-40.4c-4.2-14.1-8.1-28.3-15.6-41.1c-9.7-16.4-22.8-28.8-41-35.4c-8.1-3-16.4-3.8-24.9-3.5
			c-1.7,0.1-3.2-0.4-4.8-0.7c-15.2-3.4-30.2-3.6-44.1,4.7c-5.4,3.2-9.4,8.3-13.2,13.3c-3.1,4.1-6.5,8.1-6.6,13.7
			c0,0.6-0.7,1.2-1.2,1.7c-4.7,4.5-10.1,6.5-16.7,5.1c-3.9-0.9-7.7-2-11.4-3.6c-4.2-1.8-6-5.1-6.4-9.3c-0.5-6.5,0.7-12.8,2.2-19.1
			c2.5-11,10.9-17.2,18.4-24.3c7.9-7.4,17.5-11.7,27.4-15.2c1.7-0.6,3.4-1.3,5.1-1.9c0.9-0.3,1.3-0.9,1.3-1.8c0-1.1-0.9-0.9-1.6-1.1
			c-2.9-1-5.5-2.7-8.8-3.2c-13.8-1.9-27-0.2-39.6,5.7c-16.7,7.7-30.9,18.9-44.3,31.4c-1.9,1.8-4,3.4-5.9,5.2
			c-2.9,2.6-6.4,3.3-9.9,1.9c-3.8-1.5-5.3-4.8-5.6-8.7c-0.4-5.8,1.8-11.1,4-16.2c3.3-7.6,7.9-14.3,14-19.9
			c8.9-8.3,17.7-16.8,27.6-23.9c11.4-8.1,24.4-12.8,37.5-17.1c8.4-2.8,16.7-6.1,25.7-6.9c2.8-0.2,5.6-0.4,8.4-0.7
			c2.2-0.2,4.2-1,4.4-3.6c0.2-2.5-1.5-3.7-3.5-4.2c-14.3-3.4-28.5-7.6-43.4-6.6c-3.1,0.2-6.1,0.8-9.2,1c-0.9,0.1-2.3,1-2.6-0.8
			c-0.2-1.4,0.5-2.5,1.9-2.9c2.5-0.7,5-1.5,7.6-2.2c18.1-4.6,36.5-7.4,55.1-8.9c1.2-0.1,2.3-0.3,3.5-0.5c2.2-0.6,4.4,0.2,6.6-0.5
			C367.2,59.3,367.9,59.3,368.6,59.2z"/>
	</g>
</g>
<g id="_xFFFD__x9C__x96_撅_xFFFD__5_xA0_影像_1_">
	<g>
		<path fill="#222222" d="M219,102.6c1.8,0.2,3-0.6,4.4-1.1c10.6-4,20.2-9.9,30.3-14.8c11.8-5.8,23.7-11.6,36.8-14.1
			c15.9-3.1,31.6-1.9,47.1,2.7c3.8,1.1,7.2,2.9,10.5,5.2c1.6,1.1,3.2,2.4,4.4,4.1c2.5,3.6,1.5,7-2.7,8.4c-3.9,1.3-8,1.7-12,2.2
			c-35,3.9-63.7,20.1-87.9,45.1c-7.6,7.8-13.3,17-16.8,27.4c-1,2.9-1.6,5.8-1.1,8.8c0.5,3.1,1.6,3.7,4.5,2.5
			c5.7-2.4,10.4-6.3,14.9-10.4c8.5-7.8,16.9-15.7,27.1-21.4c14.7-8.3,30.1-14.1,47.4-12.7c3.9,0.3,7.7,1.1,11.3,2.7
			c1.8,0.8,3.6,1.8,5,3.3c2.8,2.9,2.3,6.4-1.3,8.3c-2.9,1.6-6.1,2.4-9.2,3.3c-22.3,5.9-33.1,22.1-38.6,43.1c-0.8,2.9-0.8,6-0.1,8.9
			c3.4,13.2,13.5,15.4,24.5,9.5c2.2-1.2,3.2-3.4,4.2-5.6c2.7-6.1,6.3-11.6,10.3-16.9c7.6-10,17.9-14.7,30-15.6
			c28.2-2.2,50.7,8.7,67.6,31.1c14.7,19.5,24.3,41.6,31.1,65c6.5,22.3,9.3,45,7.6,68.2c-3.4,45.5-17.5,87.1-46,123.2
			c-21.2,26.9-49.1,43.1-82.2,51.1c-22.2,5.4-44.6,7-67.3,5.6c-16.1-1-31.9-3.9-47.8-5.9c-18.1-2.3-36.3-4.6-54.6-2.9
			c-19.9,1.8-39.1,5.9-55.3,18.4c-10.4,8-19.9,17.1-25.6,29.3c-1.5,3.3-2.8,6.7-2.9,10.4c0,1.6-0.8,2.7-2.5,2.7
			c-1.6,0-2.3-1.2-2.5-2.7c-0.3-2.9,0.5-5.6,1.4-8.3c2-6.1,5.2-11.6,9.1-16.7c15.6-20,35.9-32,61-36.5c18.4-3.3,36.9-3.1,55.4-1.3
			c16.7,1.7,33.3,4.6,50,6.5c0.5,0.1,1.1,0.3,1.7-0.3c-6.4-11.9-8.4-24.2-3-37.1c3.4-8,11.1-15.7,19.4-19.5c0.7,6.6,1,13,0.5,19.5
			c-0.2,2.3-0.4,4.5-1.2,6.7c-0.4,1-0.6,2.3,0.6,2.9c1.2,0.6,2.3,0.2,3.2-0.7c1.4-1.6,2.7-3.2,4.1-4.8c2.9,7.3-0.8,20.3-9.7,34.3
			c5.2,1.4,28.3,1.1,37.3-0.5c-1.2-2-2.8-3.8-3.6-6c-1.3-3.3-1.6-6.7-1.6-10.2c0-1.5,0.4-2.8,2-3.1c1.6-0.4,2.7,0.5,3.3,1.8
			c2,3.8,5.2,6.5,8.6,9.6c0.9-3.5,0.6-6.7,0.1-9.8c-1-6.8-3.1-13.3-6.1-19.4c-0.8-1.6-1.5-3.1-2-4.8c-1.1-3.2,0.7-5.4,4-4.5
			c8.6,2.2,15.1,6.9,19.8,14.6c4.8,7.9,6,16,3.8,24.8c-0.5,1.8,0,2.3,1.8,1.8c25.2-6.6,47.5-18.2,66-36.9
			c20.5-20.8,33.8-45.7,43.2-73c9-26,13.4-52.8,12-80.4c-1.4-27.2-8.4-53-20-77.6c-7-14.9-15-29.2-27.1-40.5
			c-16.6-15.5-36.3-21.5-58.8-17.6c-10.3,1.8-17.7,7.8-23.4,16.4c-2.5,3.7-4.7,7.5-6.6,11.6c-4.1,8.9-13.5,13.8-23.3,12.3
			c-8.3-1.3-15-8.7-16.5-18.1c-0.8-4.7-0.2-9.3,1.1-13.7c4.5-15.2,12.4-28,25.7-37.1c5-3.4,10.7-4.9,16.3-6.7
			c2.3-0.7,4.7-1.2,7.2-2.6c-4-2.9-8.5-3.6-13-3.9c-7.2-0.5-14.3,0.4-21.3,2.5c-15.5,4.7-29,12.7-40.9,23.7
			c-5.9,5.4-11.5,11.1-18.5,15.3c-2.3,1.4-4.7,2.7-7.4,3.5c-4.7,1.3-8.4-0.7-9.7-5.4c-1.4-4.9-0.7-9.7,1-14.4
			c5.5-15.3,15.2-27.6,27.3-38.1c16.9-14.6,35.6-26.1,57.1-32.5c10-3,20.4-4.2,30.8-5.8c1.3-0.2,2.6-0.5,4.3-0.8
			c-0.7-1.7-2-2.4-3.2-3.1c-6.5-4.2-13.8-5.8-21.3-7c-19.3-3.2-37.5,0.3-55.1,8.5c-11,5.2-21.7,11-32.6,16.4
			c-4.6,2.3-9.4,4.4-14.4,5.8c-2.5,0.7-5,0.9-6.8-1.4c-1.8-2.2-1.1-4.7-0.1-7c1.8-4.1,4.7-7.5,7.7-10.8c12-13.4,26.7-23.2,42.4-31.6
			c21.3-11.4,44-17.2,68-18.7c15-0.9,30-1.1,45-0.4c15.5,0.8,30.3,4.7,44.7,10.2c24.7,9.5,48.4,20.8,70.2,35.9
			c36.3,25.1,59.8,59.2,73.2,100.9c6,18.9,9.7,38.1,11.6,57.8c3.6,38.3,0.6,76.1-9.3,113.2c-9.7,36.4-25.5,70-48.2,100.3
			c-10.8,14.4-20.4,29.6-28,46c-2.7,5.8-5,11.7-5.3,18.2c-0.1,2.7,0.1,5.4,0.8,8.1c2.4,9.6,8.9,14.1,18.7,13
			c6.5-0.7,12.8-2.4,19.2-3.9c19.3-4.3,38.7-7.4,58.6-7c18.4,0.4,34.4,6.8,48.3,18.7c4.5,3.8,8.9,7.7,14,10.8
			c6.3,3.8,13,5.5,20.3,4.1c1.8-0.3,3.5-0.1,3.9,1.9c0.4,2.1-1.1,2.9-2.8,3.3c-6.7,1.7-13.2,0.8-19.4-2c-6-2.7-11.2-6.7-16.2-11
			c-6.8-5.9-14-11.3-22.4-14.9c-12.6-5.3-25.8-6-39.3-5.2c-19.7,1.1-38.8,5.6-57.9,9.8c-4,0.9-8.1,1.2-12.2,0.7
			c-10.7-1.4-17.4-8.9-18.9-20.5c-1.2-9.3,1.5-17.7,5.2-25.8c5.6-12.5,12.9-24,20.4-35.4c9.2-14.1,19.8-27.2,28-41.9
			c16.7-30.1,28.2-62.1,33.8-96.1c3.8-23.3,5.6-46.7,4.3-70.3c-2.1-40.5-11.6-78.9-32.1-114.3c-11.9-20.6-28.3-37.1-47.3-51
			c-28.4-20.7-59.9-35.2-93.6-44.9c-11.6-3.3-23.7-3.7-35.7-3.8c-19.7-0.2-39.3,0.1-58.5,4.7c-31.6,7.6-59.1,22.5-81,46.9
			C221.9,97.4,220.1,99.6,219,102.6z"/>
		<path fill="#222222" d="M456.8,142.4c5,3,9.5,6.2,14.9,7.6c3.7,0.9,5.2,2.2,4.6,4.2c-0.5,1.9-2.3,2.5-5.8,1.6
			c-4.1-1-7.9-2.4-11.5-4.8c-4.9-3.2-10.6-2.6-16.2-2.1c-5.3,0.5-10.6,1.8-15.9,2.2c-6,0.5-11.6-0.4-16.6-3.9
			c-4.9-3.4-10.2-5-16.2-4.6c-1.4,0.1-2.6-0.2-3-1.7c-0.4-1.5,0.4-2.4,1.6-3.1c3.1-1.9,6.2-3.5,10-2.9c0.6,0.1,1.3-0.2,1.8-0.5
			c7.5-4,15.7-4.8,24-5c0.9,0,2.3,0.7,2.5-0.6c0.2-1.4-0.6-2.5-2.3-2.8c-10.8-2.1-17.3-8.9-21-18.9c-0.7-1.9-1.4-4,0.7-5.5
			c2.2-1.5,3.9-0.2,5.5,1.3c3.4,3.4,7,6.5,11.2,9.4c0.1-2-0.7-3.5-1.3-4.9c-2.4-5.7-5.8-10.9-9-16.2c-2-3.3-4-6.5-5.6-10
			c-2.4-5.1-0.5-8,5.1-7.7c10.6,0.6,18.9,5.6,24.8,14.3c5.5,8.1,6.6,17.3,4.4,26.6c-1,4.1-0.6,7.6,0.6,11.4c1,0.1,1.2-0.7,1.7-1.2
			c3.8-3.8,7.4-7.8,11.8-10.9c5.8-4.1,12-4.7,18.5-1.6c0.7,0.4,1.4,0.1,2.1,0.2c1.5,0.2,2.3,1.2,2,2.7c-0.3,1.5-1.4,2.1-2.9,1.7
			c-3.4-0.7-6.9-0.7-10.4-0.9c-2.3-0.1-4.4,0.9-6.3,2.3c-5.3,4.2-10.2,8.8-14.5,14c-0.4,0.4-1.2,1-0.7,1.6c0.7,0.9,1.3-0.2,1.7-0.6
			c2.8-2.5,6-4.5,9-6.7c4.3-3.2,9.1-4.4,14.4-3.7c3.7,0.5,7.4,0.9,11,1.8c1.9,0.5,3.5,1.6,2.9,3.9c-0.6,2.1-2.4,2-4.3,1.6
			c-2.7-0.6-5.6-1-8.3-1.6c-8.7-2.1-14.3,3.6-20.5,8c-0.3,0.3-0.7,0.6-0.3,1.1c0.4,0.6,1,0.8,1.7,0.5c1.4-0.5,2.7-1,4-1.7
			c3.7-1.9,7.5-2.5,11.6-2c6.5,0.8,13,1,19.5,2.2c1.5,0.3,3,0.7,4.4,1.2c1.5,0.6,2.6,1.9,1.9,3.7c-0.6,1.7-2.1,1.9-3.7,1.5
			c-7.5-2-15.3-2.2-22.9-3.3C463.9,139.1,460.6,140.5,456.8,142.4z"/>
		<path fill="#222222" d="M185.3,417.3c4.4,0,8,2.2,11.2,4.9c7.1,5.9,11.4,13.6,14.8,21.9c4.1,10,6.9,20.3,7.4,31.1
			c0.1,1.8,0.7,3.6,0.8,5.4c0.2,1.6-0.2,3.2-2.1,3.5c-1.9,0.3-2.9-0.9-3.2-2.6c-1.5-7.8-6.3-13.3-12-18.3
			c-7-6.1-13.8-12.4-19.7-19.6c-3.1-3.8-5.9-7.8-7.2-12.7C173.4,423.5,178,417.1,185.3,417.3z M212.2,465
			c-2.8-11.7-6.5-22.2-13-31.5c-3-4.3-6.5-8.1-11.5-10.1c-1.9-0.8-3.9-1-5.6,0.6c-1.7,1.5-1.8,3.4-1.3,5.5c1,4,3.3,7.2,5.9,10.3
			C194,449,203.2,456.4,212.2,465z"/>
		<path fill="#222222" d="M231.4,259.4c0.5-13,1.9-25.9,6.9-38.1c1.1-2.6,2.8-4.6,4.7-6.5c1-0.9,2.1-1.1,3.3-0.5
			c1.1,0.6,1.6,1.8,1.1,2.8c-2.1,4.6-0.3,8.9,0.5,13.3c1.9,11,4.1,21.9,4.8,33.1c0.4,6.8-0.8,13.4-3.9,19.5
			c-1.6,3.2-3.3,6.7-7.6,6.4c-4.4-0.3-5.4-4.2-6.5-7.5C232.1,274.7,231.5,267.1,231.4,259.4z M241.2,228.8c-0.2,0.8-0.5,1.5-0.7,2.3
			c-3,11.7-3.9,23.6-3.1,35.6c0.3,5.1,1.2,10.1,3.1,14.9c0.3,0.6,0.3,1.6,1.2,1.6c0.7,0,0.9-0.8,1.2-1.3c2.6-4.5,3.8-9.4,4.1-14.5
			c0.3-6.1-0.8-12.1-1.7-18.1C244.3,242.4,243.3,235.6,241.2,228.8z"/>
		<path fill="#222222" d="M189.9,137.7c1.5,0.2,3.3,0.3,5.1,0.6c1.5,0.2,2.6,1,2.6,2.6c0,1.5-1,2.2-2.5,2.3c-0.5,0-1.3-0.1-1.3,0.6
			c-0.2,3-2.7,3.6-4.6,5c-8.1,5.9-14.7,13.5-21.6,20.8c-3.6,3.8-7.2,7.7-11.8,10.4c-2.2,1.3-4.6,2.2-7.2,2.1
			c-3.6-0.2-6.1-2.5-6.5-6.1c-0.3-2.7,0.4-5.2,1.5-7.7c2.1-4.6,5.2-8.6,9-11.9c8.2-7.2,17.4-12.7,27.5-16.9
			C183.1,138.3,186.3,137.8,189.9,137.7z M186.3,143.3c-13.8,5.1-26.5,11.9-35.6,23.9c-1.3,1.7-2.1,3.6-2.7,5.6
			c-0.3,1.1-0.8,2.4,0.3,3.3c0.9,0.8,2.1,0.2,3.1-0.2c2.4-1,4.4-2.6,6.3-4.3C167.4,162.4,175.5,151.5,186.3,143.3z"/>
		<path fill="#222222" d="M674,487.8c2.9,0.1,5.3,0.6,6.6,3.1c1.3,2.5,0.2,4.8-1.3,6.8c-4.2,5.5-10.1,8.6-16.4,10.8
			c-9.4,3.4-18.8,6.6-28.3,9.8c-3.7,1.3-7.2,3-9.8,6.1c-1,1.2-2.3,1.6-3.6,0.8c-1.5-0.9-1.6-2.3-1-3.8c0.7-1.8,1.8-3.4,3.1-4.8
			c13.1-14.5,29-24.2,48.2-28.5C672.3,487.9,673.3,487.9,674,487.8z M636.7,511.3c9.7-2.9,19.3-5.8,28.5-10c3-1.3,5.8-3.1,8.1-5.4
			c0.6-0.6,1.6-1.2,1.3-1.9c-0.5-1.1-1.6-0.4-2.4-0.3C658.9,496.6,647.2,502.8,636.7,511.3z"/>
		<path fill="#222222" d="M286.7,550.8c-4.3-0.3-8.5-0.2-12.7-1.3c-5.9-1.5-8.1-4.6-7.6-10.7c0.2-2.6,0.5-5.2,0.8-7.8
			c0.2-1.8,0.8-3.6,3.1-3.3c2.3,0.3,2.1,2.1,1.9,3.8c-0.2,2.6-0.5,5.2-0.6,7.9c-0.1,3.4,0.5,4.4,4,5c7,1.2,14.1,1.6,21.1,0.6
			c10.4-1.6,20.7-3.8,31.3-3.7c2.8,0,4.4-1.3,5.1-4c0.7-2.7,1.8-5.3-0.2-8c-0.8-1-0.5-2.5,0.7-3.4c1.1-0.8,2.3-0.5,3.3,0.3
			c1.4,1.2,2.6,2.6,2.8,4.5c0.3,4.5-0.7,8.7-3.2,12.4c-1.5,2.3-3.8,3.5-6.5,3.5c-11.9,0-23.4,2.6-35.1,4.1
			C292.2,551.2,289.4,551,286.7,550.8z"/>
		<path fill="#222222" d="M629.2,479.9c2.6,0.1,5.3,0.4,6.5,3.1c1.2,2.8-0.2,5.1-2.2,7.1c-5.7,5.3-12.3,9.4-18.3,14.2
			c-3.2,2.6-6.4,5-9.7,7.6c-0.7,0.5-1.7,1-1.7,2c0.1,2.3-1.8,2.7-3.3,3.4c-1.2,0.5-2.3,0.4-3.3-0.6c-1-1-1.2-2.4-0.6-3.5
			c4-7.2,6.6-15.1,12.4-21.3c4.4-4.8,9.4-8.6,15.4-11C626,480.2,627.6,480,629.2,479.9z M629.8,486c-5.7-1.1-18.2,8.4-21.3,16.4
			C615.5,496.6,622.9,491.9,629.8,486z"/>
		<path fill="#222222" d="M137.3,438.2c1.7,0,3.3,0.3,4.8,1c10.7,5.1,19,12.5,22.7,24.2c0.5,1.6,1.1,3.3-0.6,4.4
			c-1.6,1.1-3.1,0.4-4.5-0.7c-2.6-2.1-5.8-2.8-8.9-3.9c-6.1-2-12.2-4.2-17.1-8.7c-1.6-1.4-2.9-3-3.8-4.9
			C127.2,443.9,130.9,438.1,137.3,438.2z M157,458.9c-4.5-6.8-10.2-12-17.8-14.8c-0.3-0.1-0.5-0.2-0.8-0.2c-1.2-0.2-2.4-0.2-3.2,0.9
			c-0.9,1.2-0.3,2.2,0.3,3.3c1.2,2.1,3.1,3.6,5.1,4.8C145.6,455.8,151.2,457.5,157,458.9z"/>
		<path fill="#222222" d="M250.3,579.2c0.7-2.9,1.3-6.1,2.2-9.2c1.4-5.2,2.3-10.5,4.5-15.4c0.7-1.6,1.7-3.1,3.7-2.2
			c2.1,0.9,1.6,2.7,1,4.4c-2.6,7.5-4.6,15.1-5.5,22.9c-0.2,2-1.1,3.1-3.1,3C251.1,582.6,250.5,581.2,250.3,579.2z"/>
		<path fill="#222222" d="M243.9,555c0.1-0.3,0.1-0.8,0.3-1.2c2.7-5.9,5.3-11.9,9.7-16.9c1.2-1.3,2.7-2.5,4.4-0.9
			c1.7,1.6,0.4,3.1-0.8,4.5c-3.8,4.6-6.2,10-8.3,15.4c-0.6,1.5-1.4,2.6-3.1,2.3C244.4,557.9,244.1,556.5,243.9,555z"/>
		<path fill="#222222" d="M247.1,530.4c1.9,0,3.7,0,3.9,2.2c0.2,2.4-1.6,2.7-3.5,2.8c-1.7,0-3.1,1-4.4,2c-2.8,2.3-5.6,4.7-7.9,7.4
			c-1.4,1.6-3.1,2.2-4.7,0.8c-1.7-1.5-0.7-3.1,0.6-4.4c3.1-2.9,6.1-5.9,9.6-8.4C242.6,531.3,244.7,530.2,247.1,530.4z"/>
		<path fill="#222222" d="M335.4,558.2c0,2.5,0,4.9,0,7.4c0,1.7-0.8,2.9-2.6,2.8c-1.6,0-2.4-1.2-2.4-2.7c-0.2-4.7-0.3-9.4-0.4-14.2
			c0-1.9,0.8-3.5,3-3.5c2.2,0.1,2.3,1.8,2.3,3.6c-0.1,2.2,0,4.4,0,6.5C335.3,558.2,335.3,558.2,335.4,558.2z"/>
		<path fill="#222222" d="M360.9,518.3c4.1,0.1,7.8,1.4,11.4,3.2c1.5,0.7,2.9,1.9,2,3.8c-0.9,2-2.6,1.5-4.2,0.8
			c-3.7-1.5-7.3-3.1-11.5-2.9c-1.6,0.1-2.9-0.6-3-2.4c-0.1-2,1.4-2.5,3.1-2.6C359.4,518.3,360.1,518.3,360.9,518.3z"/>
		<path fill="#222222" d="M350.8,553.5c-1.4,0.1-2.4-0.7-3.2-1.8c-1.3-1.9-2.4-3.8-3.6-5.7c-0.8-1.3-1.5-2.6-3.1-3.3
			c-1.2-0.5-1.6-1.8-1.1-3c0.5-1.4,1.8-1.8,3.1-1.6c1.8,0.3,3,1.6,4,3c1.9,2.8,3.6,5.8,5.7,8.5C354.1,551.4,352.9,553.4,350.8,553.5
			z"/>
		<path fill="#222222" d="M274.3,565.4c0.1,2.4-0.3,5,0.4,7.5c0.3,1.1-0.1,2.2-1.2,2.7c-1.2,0.5-2.3,0.2-3.2-0.8
			c-1.1-1.3-1.2-2.8-1.2-4.3c0-3.3,0.1-6.5,0.3-9.8c0.1-1.8,0.4-3.7,2.8-3.6c2.5,0.1,2.3,2.1,2.3,3.9
			C274.5,562.4,274.4,563.8,274.3,565.4z"/>
		<path fill="#222222" d="M361.2,533.2c0.1,1.9-1.8,3.3-3.6,2.3c-3.4-1.9-6.6-4.1-10.1-5.9c-1.2-0.6-1.6-2-0.9-3.3
			c0.7-1.2,1.8-1.5,3-1.1c3.8,1.5,7.3,3.5,10.6,6.1C360.9,531.8,361.2,532.5,361.2,533.2z"/>
		<path fill="#222222" d="M300,532.6c-2.7-0.1-5.4-0.6-8-1.4c-1.8-0.6-3.1-1.8-2.4-3.9c0.7-2,2.3-1.6,3.9-1c2.4,0.8,4.9,1,7.5,1.2
			c1.9,0.2,3.9,0.3,3.7,2.8c-0.2,2.3-2.2,2.2-3.9,2.2C300.5,532.6,300.2,532.6,300,532.6z"/>
	</g>
</g>
<g id="_xFFFD__x9C__x96_撅_xFFFD__16_xA0_影像_1_">
</g>
<g id="_xFFFD__x9C__x96_撅_xFFFD__6_xA0_影像_1_">
</g>
</svg>
