<?xml version="1.0" encoding="utf-8"?>
<!-- Generator: Adobe Illustrator 18.0.0, SVG Export Plug-In . SVG Version: 6.00 Build 0)  -->
<!DOCTYPE svg PUBLIC "-//W3C//DTD SVG 1.1//EN" "http://www.w3.org/Graphics/SVG/1.1/DTD/svg11.dtd">
<svg version="1.1" xmlns="http://www.w3.org/2000/svg" xmlns:xlink="http://www.w3.org/1999/xlink" x="0px" y="0px"
	 viewBox="0 0 2234.2 934.9" enable-background="new 0 0 2234.2 934.9" xml:space="preserve">
<g id="_xFFFD__x83__x8C__xFFFD__x99__xA0_影像_1_">
</g>
<g id="_xFFFD__x9C__x96_撅_xFFFD__3_xA0_影像_1_">
	<g>
		<path fill="#369EBB" d="M1338.6,341.7c-3.2-1.1-6.1-2.3-9.3-2.5c-1.7-0.1-3.2-0.8-2.9-2.8c0.2-1.9,1.7-2.4,3.4-2.4
			c0.2,0,0.4,0,0.5,0c10.1,1,20.1,2.5,28.5,9c2.6,2.1,5.6,3.7,8.7,5.1c1.7,0.7,3.2,1.6,4,3.5c0.5,1.2,1.9,1.9,3,2.7
			c0.8,0.7,1.7,1.4,2.3,2.2c0.7,1,0.7,2.2,0,3.3c-0.6,1-1.6,1.1-2.7,1c-3.3-0.5-6.5-1.3-9.6-2.7c-8-3.4-16-6.9-24-10.4
			C1337.2,346.3,1336.7,344.9,1338.6,341.7z"/>
		<path fill="#369EBB" d="M1836.4,374.3c1.7-0.9,1-3.9,0.4-5.2c-0.7-1.4-4.8-0.7-3.7-2c1-1.1,2.6,0.1,4,0.6c2.7,1.1,5.4,2.1,7.9,3.5
			c4.6,2.5,8.8,5.5,12.9,8.6c1.4,1,2.6,2.3,4.5,2.2c0.9-0.1,1.7,0.6,1.8,1.4c0.4,3.5,3.5,4.9,5.2,7.4c1.2,1.6,3.2,3.2,2.7,5.1
			c-0.8,2.9-1.3,5.7-1.1,8.6c0.1,0.9-1,1.8-1.1,3c-0.1,1.2,0.4-0.8-1-0.7c-1.5,0.1-3,0.6-3.3-0.7c-2.4-10.2-10.2-15.7-16.8-23.2
			c-2.8-3.1-6.2-5.6-9.7-7.9C1838.4,374.4,1837.5,373.6,1836.4,374.3z"/>
		<path fill="#369EBB" d="M898,339.1c-2,0.4-3.3-0.7-4.4-2.3c-8.6-12.6-20.7-20.9-34-27.8c-1.7-0.9-3.5-1.5-5.4-1.8
			c-1.5-0.2-2.9-1-2.7-2.8c0.2-1.9,1.8-2.4,3.4-2.3c1,0,2,0.2,2.9,0.5c4.3,1.4,8.6,2.9,12.6,4.6c12.2,5.5,22.9,13.3,30.1,25
			c0.3,0.5,0.6,0.9,0.8,1.4C903.2,337.2,902,339.1,898,339.1z"/>
		<path fill="#369EBB" d="M556.8,314.9c1.3,0.2,2.7,0.4,4,0.6c1.5,0.2,3,0.5,3.7-1.6c0.4-1.1,1.6-1.2,2.6-1c6.1,0.8,12.3,1.6,17.1,6
			c0.7,0.6,1.7,1.1,2.6,1.5c6.5,3,12.1,7.3,17.7,11.5c0.8,0.6,1.5,1.3,1.8,2.4c0.3,1.4,0.5,2.8-1,3.6c-1.3,0.7-2.5,0.3-3.7-0.7
			c-5.9-5-12.2-9.4-19.2-12.7c-4.5-2.1-9.3-2.1-14.1-2.8c-4-0.6-7.9,1-12,0.5c-1.8-0.2-3.8,1-3.6-1
			C553.1,319.2,555.1,314.9,556.8,314.9z"/>
		<path fill="#369EBB" d="M1060.2,405.8c4.9,0.2,9.8,0.6,14.6,1.5c1,0.2,2.3,0.4,2.6,1.2c1.6,3.5,5.1,3.3,8,4.3
			c0.3,0.1,0.7,0.1,1.1,0.3c1.7,0.7,3.2,1.7,2.6,3.8c-0.6,2.3-2.5,2.4-4.4,1.8c-5.5-1.7-10.9-3.4-16.6-4.4c-5.7-1-11.5-1.3-17.3-1.7
			c-3-0.2-5.6,1.3-8.1,2.8c-2.2,1.2-4.2,0.3-4.3-1.7c-0.1-1.4,0.8-2.1,1.8-2.8c3.8-2.6,8.2-3.9,12.7-4.4
			C1055.3,406,1057.7,405.5,1060.2,405.8z"/>
		<path fill="#369EBB" d="M971.4,340.2c0,2.1-2.3,5.4-3.8,5.7c-2.3,0.4-3.2-1.2-4.2-2.8c-4-6.5-8.3-12.8-13.6-18.3
			c-2.4-2.6-5-5-7.9-7c-1.4-0.9-1.9-2.3-1-3.8c1-1.6,2.4-1.5,3.8-0.6c1.2,0.8,2.4,1.4,4,1c1.1-0.3,2.1,0.4,3,1.1
			c7.8,6.4,14.3,13.8,19,22.8C971.2,339,971.3,339.9,971.4,340.2z"/>
		<path fill="#369EBB" d="M1913.4,393.2c0.8,0.9,1.3,1.3,1.6,1.8c1.3,2,2.2,1.4,5.1,0.1c0.7-0.3,2.1,2.4,2.8,3
			c0.9,0.8,1.7,0.9,2.9,0.5c1.6-0.6,2.8,0.4,3.5,1.8c2.4,4.8,4.3,9.8,5.9,14.9c0.1,0.3,0.2,0.6,0.1,0.8c-0.9,2.8-2.6,5.3-3.5,8.2
			c-0.5,1.6-3,1.2-4.1-0.4c-1-1.6-1.8-3.2-3.9-3.8c-0.6-0.2-1-1.2-1.4-1.9C1919,410.2,1916.3,402,1913.4,393.2z"/>
		<path fill="#369EBB" d="M1078.5,424c2.8,0.3,5.6,0.6,8.4,0.8c2.9,0.2,4.1,2.9,6.3,4.1c1,0.5,0.7,2.2,0.2,3.3
			c-0.7,1.3-1.9,1.7-3.3,1.5c-3.1-0.4-6.3-1.1-9.4-1.5c-9.2-1.2-17.3,0.8-23.3,8.4c-0.9,1.2-2.2,1.4-3.4,0.5
			c-1.4-1.1-1.6-2.6-0.7-4.1c5-9.1,7.7-11,18.4-12.4C1074,424.4,1076.2,423.9,1078.5,424z"/>
		<path fill="#369EBB" d="M1808.7,283c-1.5,0.5,1.8,0.6,1.1-0.8c-0.5-1-0.7-2.4,0-3.3c1-1.3-2-1.5-0.6-1.2c3.4,0.9,7.2-1.9,10.2,0.5
			c0.7,0.5,1.3,0.9,2,0.7c3-0.9,5.9,0.5,8.4,2.8c3.1,2.9,6.4,5.6,9.2,8.8c1,1.1,1.6,2.4,1.3,4c-0.4,1.8-2.3,3.1-3.6,2.1
			c-4.1-3.1-9.3-3.7-13.7-6.4c-2.9-1.7-5.8-3.3-8.7-5C1812.6,284.1,1810.7,283.2,1808.7,283z"/>
		<path fill="#369EBB" d="M1099,469.5c-1-0.2-2.1-0.4-2.1,1.4c0,1-0.9,1.6-1.7,2c-2,0.8-4,1.6-6.1,2.3c-0.7,0.2-1.7,0.4-2.1,0.1
			c-2.5-1.8-4.2-0.1-5.9,1.3c-3.6,2.9-7.6,5.4-9.9,9.6c-0.5,1-1.5,1.3-2.6,1.1c-1.2-0.3-1.8-1.2-1.9-2.4c-0.2-1.7,0.5-3,1.6-4.2
			c5.7-6,12.1-10.9,19.3-14.9c3.8-2.1,8.1-1.9,12.2-2.4c2.1-0.3,3.7,1.6,3.7,3.5C1103.5,468.8,1102.1,469.7,1099,469.5z"/>
		<path fill="#369EBB" d="M1568.3,317.4c3.1,0.1,6.2,0.7,9.2,1.8c9.1,3.4,17.5,7.9,23.9,15.5c1.3,1.5,2.7,3.1,0.8,4.9
			c-2,1.9-3.8,0.6-5.1-1c-5.4-6.6-12.5-10.6-20.2-13.8c-2.9-1.2-5.8-2-9-1.9c-1,0-1.9,0-2.8,0.8c-1.6,1.5-3.2,1.2-4.3-0.6
			c-1.1-1.8-0.4-3.4,1.3-4.4C1564,317.6,1566.1,317.4,1568.3,317.4z"/>
		<path fill="#369EBB" d="M1292.1,266.5c-8,1.2-15.9-0.6-23.8-1.6c-2.5-0.3-4.9-0.9-7.4,0c-1.3,0.5-2.6,0-3.1-1.5
			c-0.5-1.7,0.4-2.8,1.8-3.5c2.4-1.2,5.1-1,7.7-1.5c3-0.6,5.9-0.4,8.8,0.3c0.7,0.2,1.8,0.3,2.1,0c2.5-2.9,5.3-0.9,7.8-0.3
			c2.5,0.6,4.9,1.7,7.4,2.6c1.8,0.6,2.9,1.7,2.3,3.7C1295.3,266.5,1293.8,266.8,1292.1,266.5z"/>
		<path fill="#369EBB" d="M810.4,214.6c1.1,0.2,2.1,0,3-1c1.3-1.4,3.1-1.3,4.9-1.1c6.5,0.9,12.4,3.4,18,6.6c1.7,1,2.8,2.3,1.6,4.5
			c-2.3,4.3-2.8,4.7-5.5,3.4c-5.9-2.7-11.8-5.5-18.4-6.5c-1.3-0.2-2.7-0.4-4-0.5c-1.8-0.2-4-0.1-3.9-2.7
			C806.1,214.5,808.3,214.6,810.4,214.6z"/>
		<path fill="#369EBB" d="M601.3,388.5c-7.5-1.2-14.5,0.1-21.1,3c-3.7,1.6-7.4,3.4-9.7,7.1c-0.8,1.3-2.1,1.8-3.5,0.9
			c-1.3-0.8-1.6-2.1-0.9-3.6c1-2.1,2.6-3.7,4.4-5.1c4.5-3.4,9.5-5.5,14.9-7c2.1-0.6,4.1-1.2,6.2-2c4-1.5,7.8,0.4,11.5,1.5
			c1.2,0.4,1.6,1.7,1.3,3C603.8,388,602.5,388.5,601.3,388.5z"/>
		<path fill="#369EBB" d="M1058.7,463.2c0.2-1.8,1-3.2,2-4.5c4.2-5.6,10.2-8.3,16.7-9.9c5.1-1.3,10.4-1.6,15.6-2.3
			c1.9-0.2,3.6,0.2,3.9,2.4c0.3,2.2-1.3,3-3.2,3.3c-4.9,0.6-9.9,0.8-14.8,2c-4.7,1.1-9.2,2.8-12.7,6.4c-0.9,1-1.8,1.9-2,3.4
			c-0.2,1.6-1.3,2.4-2.9,2.2C1059.7,465.9,1058.9,464.8,1058.7,463.2z"/>
		<path fill="#369EBB" d="M562.1,346.3c-0.1-1.3,0.7-2.3,2-2.8c8.8-3.9,17.8-6.9,27.6-4.5c3.1,0.8,5.9,0.6,8.6,2.2
			c1.5,0.9,2.4,3.8,1.5,5.5c-0.9,1.8-2.6,1.9-4.2,1c-3.1-1.7-6.2-3.3-9.8-3.8c-7.8-1.1-14.7,1.4-21.4,4.6
			C563.8,349.7,562,348.9,562.1,346.3z"/>
		<path fill="#369EBB" d="M768.9,227.9c5,0,9.4,1.1,13.7,2.6c1.6,0.6,3,1.5,2.6,3.6c-0.5,2-2.1,2.4-3.8,1.8
			c-1.6-0.5-2.2,1.2-3.5,1.1c-5.2-0.6-10.7-0.1-15.5-2.8c-0.6-0.4-1.2-0.3-1.8-0.2c-1.6,0.2-3.2,0.4-4.8,0.6c-1.8,0.2-3.4,0-3.9-2
			c-0.4-2.1,1.2-2.9,2.9-3.2c3.1-0.5,6.3-0.9,9.4-1.2C765.8,228.1,767.6,228,768.9,227.9z"/>
		<path fill="#369EBB" d="M596.5,368c-10-2.1-18.6,1.5-26.8,6.6c-0.8,0.5-1.7,1-2.8,1.1c-1.6,0.1-3-0.3-3.4-2
			c-0.4-1.7,0.7-2.5,2.2-3.2c3.4-1.6,6.5-3.5,9.9-5.2c5.9-2.9,12.2-4,18.8-3.2c1.2,0.2,2.5-0.2,3.8,0c1.9,0.3,3.6,1.1,3.5,3.4
			c-0.2,2.3-1.9,2.5-3.8,2.5C597.4,368.1,597,368,596.5,368z"/>
		<path fill="#369EBB" d="M1240.4,282.1c-0.5,3.1-1.7,5.5-4.7,6.8c-5.1,2.1-10.5,2.8-15.8,3.8c-1.7,0.3-3.4,0.4-5.1,1
			c-1.3,0.5-2.6,0.2-3.2-1.2c-0.7-1.4-0.1-2.6,1.1-3.6c0.3-0.2,0.6-0.4,1-0.5c6.1-2.4,11.9-5.3,18.4-6.8c1.8-0.4,3.4-1.3,5.1-1.8
			C1239.1,279.2,1240.5,280.3,1240.4,282.1z"/>
		<path fill="#369EBB" d="M1576.2,340.7c7.2,1.2,14.5,2.6,21.1,6.3c0.9,0.5,1.7,1.1,2.4,1.8c1.2,1.1,1.5,2.5,0.6,3.9
			c-1,1.4-2.5,1.5-3.8,0.5c-5.3-3.9-11.1-2.9-17.3-4.3c-3.3-0.7-7-3.2-9.8-0.5c-0.9,0.8-2,0.8-3,0.1c-1.1-0.8-1.3-1.9-0.9-3.1
			c0.6-1.6,1.8-2.5,3.2-3.2C1571,341.2,1573.5,341.1,1576.2,340.7z"/>
		<path fill="#369EBB" d="M1210.1,395.2c4.4-0.1,8.3,0.1,12.2,0.6c1.1,0.2,2.2,0.3,3,1.1c1.1,1,1.5,2.3,0.9,3.7
			c-0.6,1.4-1.8,1.7-3.2,1.4c-8.7-2.2-17.5-1.4-26.3-0.6c-0.7,0.1-1.2,0.3-1.7,0.7c-1.6,1.3-3.2,1.2-4.1-0.6
			c-0.9-1.8-0.2-3.4,1.6-4.3c1.6-0.8,3.3-1,5-1.2C1201.9,395.4,1206.2,395,1210.1,395.2z"/>
		<path fill="#369EBB" d="M1584.4,381c2.1-0.2,4.8,3.3,6.8,3.8c1.6,0.4,2.9,1.3,2.6,3.3c-0.3,2-1.8,2.4-3.4,2.2
			c-9.6-1.3-18.9,0.3-28.1,2.7c-1.6,0.4-3,0.4-3.7-1.3c-0.7-1.8,0.4-3,1.9-3.6c3.3-1.3,6.7-2,10.3-2.4
			C1575.5,385,1579.6,381.1,1584.4,381z"/>
		<path fill="#369EBB" d="M730.3,402.7c0.1,1.4-0.3,2.4-1.5,2.8c-1.1,0.4-2.2,0.3-3-0.6c-0.8-0.9-1.5-1.8-2.2-2.7
			c-4.9-6.3-11.2-10.8-17.9-14.8c-0.5-0.3-1.1-0.6-1.6-1c-1.3-1-2-2.2-1.2-3.7c0.9-1.6,2.3-1.6,3.7-0.8c5.2,2.9,10.2,5.9,14.6,9.8
			c2.9,2.6,5.6,5.4,8,8.5C729.8,401.1,730.3,401.9,730.3,402.7z"/>
		<path fill="#369EBB" d="M1577.2,365.2c5.4,0.1,10.1,1,14.7,2.3c1.9,0.6,3.6,1.5,2.9,3.8c-0.7,2.3-2.5,2.3-4.4,1.7
			c-6.7-2.2-13.4-2.9-20.4-1.8c-1.8,0.3-3.5,0.5-5,1.8c-1.1,0.9-2.4,0.9-3.4-0.1c-1.1-1.1-0.9-2.3-0.2-3.5c1.2-1.9,3.2-2.6,5.3-3
			C1570.3,365.5,1574,365.5,1577.2,365.2z"/>
		<path fill="#369EBB" d="M1705.5,432.4c0,2.1-1.9,3.2-3.8,2.2c-1.1-0.6-1.8-1.5-2.3-2.6c-3.7-7-8.6-13.2-13.3-19.5
			c-1.2-1.6-3.2-3.5-0.9-5.4c2.4-2,3.7,0.4,5,2c5.1,6.7,10.5,13.2,14.4,20.7C1704.9,430.7,1705.4,431.4,1705.5,432.4z"/>
		<path fill="#369EBB" d="M715.7,335.7c6.8,0.8,13.7,1.3,20.3,3.2c1.5,0.4,2.9,1,3.9,2.3c0.9,1.1,1.1,2.3,0.3,3.5
			c-0.8,1.1-2,1.2-3.2,0.7c-7.7-3.3-15.9-3.9-24.2-4.6c-1.5-0.1-2.8-0.4-2.9-2.2c-0.1-1.8,1.1-2.6,2.6-2.9
			C713.7,335.6,714.7,335.7,715.7,335.7z"/>
		<path fill="#369EBB" d="M1222.9,458.8c0.1,1.1-0.3,2-1.3,2.4c-1.2,0.5-2.3,0.3-3.3-0.6c-1.8-1.8-3.6-3.6-5.5-5.3
			c-4.1-3.7-8.6-6.7-13.9-8.4c-1.3-0.4-2-1.2-1.9-2.6c0.1-1.5,1.1-2.2,2.4-2.6c1.1-0.3,2.1,0.2,3.1,0.7c7.3,3.2,13.7,7.9,19.1,13.7
			C1222.3,456.9,1222.9,457.7,1222.9,458.8z"/>
		<path fill="#369EBB" d="M1213.3,418.2c-5.3-0.1-10.7,0.3-16,0.9c-1.7,0.2-3.2-0.1-3.6-2c-0.4-2.1,1.1-3,2.8-3.2
			c8.3-1,16.6-1.3,24.9-1.2c1.8,0,3.2,0.8,3.1,2.9c-0.1,2-1.4,2.6-3.1,2.6C1218.8,418.2,1216.1,418.2,1213.3,418.2z"/>
		<path fill="#369EBB" d="M1701.5,365.6c7.1,1.6,14.2,3.7,20.8,7.1c1.3,0.7,2.3,1.8,2.2,3.5c-0.1,2.1-2,3.1-4,1.9
			c-5.1-3.1-10.8-4.7-16.4-6.5c-1.2-0.4-2.4-0.8-3.7-0.5c-1.8,0.4-3.2,0-3.5-2c-0.3-2,1-3,2.7-3.4
			C1700.2,365.6,1700.7,365.6,1701.5,365.6z"/>
		<path fill="#369EBB" d="M714.2,352.1c7,0.3,13.1,1.4,18.9,4c1,0.4,2,0.8,2.8,1.7c0.9,1,1.2,2.1,0.5,3.2c-0.7,1.3-1.9,1.6-3.3,1.2
			c-0.8-0.3-1.5-0.6-2.2-1c-5.5-2.5-11.3-3.8-17.4-3.6c-2,0.1-4.1,0.2-4.1-2.6c0.1-2.5,2.1-2.9,4.1-2.9
			C714,352.1,714.4,352.1,714.2,352.1z"/>
		<path fill="#369EBB" d="M1719.7,392.7c-0.1,2.4-1.8,3.5-3.6,2.4c-6.4-3.8-13.2-6.3-20.2-8.6c-1.5-0.5-2.3-1.5-1.9-3.1
			c0.4-1.7,1.7-2.2,3.1-1.9c1.8,0.3,3.5,0.9,5.2,1.5c4.7,1.6,9.4,3.4,13.8,5.7C1717.9,389.6,1719.6,390.7,1719.7,392.7z"/>
		<path fill="#369EBB" d="M1690.6,393c1.3,0.1,2.6,0.8,3.8,1.6c4.6,3,8.8,6.4,12.7,10.2c1.4,1.4,2.6,3,0.9,4.7
			c-1.7,1.7-3.4,0.4-4.7-0.8c-3.3-3.1-6.8-6-10.5-8.7c-1.2-0.8-2.5-1.4-3.8-2.2c-1.1-0.7-1.8-1.6-1.4-3
			C1688,393.6,1689,393,1690.6,393z"/>
		<path fill="#369EBB" d="M1199.9,427.9c5.5,0.8,10.7,2.5,16,4.1c1.5,0.5,1.9,1.9,1.4,3.4c-0.5,1.6-1.9,1.9-3.3,1.5
			c-3.2-0.8-6.3-1.8-9.4-2.7c-2.1-0.6-4.1-1.5-6.3-0.4c-1,0.5-2-0.1-2.5-1c-0.7-1.2-0.6-2.4,0.2-3.6
			C1197,428,1198.4,427.8,1199.9,427.9z"/>
		<path fill="#369EBB" d="M711.1,368.1c0.6,0.2,1.4,0.4,2.1,0.7c2.8,1.4,5.9,2.9,12.4,6.2c1.8,0.9,3.2,2.2,2.1,4.3
			c-1.1,2-2.9,1.3-4.5,0.6c-4.6-2.1-8.9-4.9-13.7-6.8c-1.4-0.5-2.1-1.5-1.7-3C708.3,368.6,709.5,368.1,711.1,368.1z"/>
		<path fill="#369EBB" d="M1196.8,340.8c0.1,2.2-0.3,3.6-2.4,3.7c-1.8,0.1-3-1.6-2.9-4.1c0.1-1.7,0.7-3.2,2.7-3.1
			C1196.7,337.4,1196.6,339.5,1196.8,340.8z"/>
	</g>
</g>
<g id="_xFFFD__x9C__x96_撅_xFFFD__2_xA0_影像_1_">
	<g>
		<path fill="#222222" d="M2235.2,545.6c-52.5,1.4-104.9-0.7-157.3-0.7c-58.5,0-116.9,1.3-175.3,1.7c-73.3,0.5-146.5,1.2-219.8,0.6
			c-33.1-0.3-66.2-1.4-99.2-3.1c-27.2-1.4-54.5-2.5-81.7-4c-95.8-5.1-191.7-4.7-287.6-2.7c-39.6,0.9-79.2,1.9-118.8,3.7
			c-26.6,1.2-53.2,2.1-79.8,3.5c-35.7,1.8-71.4,3.4-107.1,4.6c-25.1,0.8-50.2,1.3-75.2,1.8c-52.6,1.1-105.3,1.5-157.9,1
			c-40.3-0.4-80.5-1-120.8-2.1c-22.1-0.6-44.1-2.4-66.1-4.6c-6.8-0.7-13.6-1.3-20.4-0.4c-2.2,0.3-3.1,1.3-3.3,3.1
			c-0.5,3.3-2.5,5.2-5.5,6c-8,2.1-16.1,3.7-24.3,4.9c-7.5,1.1-14.9,2.9-22.4,4.4c-6.6,1.3-13.1,2.8-19.9,3.3
			c-8.5,0.6-16.3-0.8-22.9-6.5c-0.3-0.3-0.8-0.7-1.1-0.6c-3.9,1-5.2-2-6.5-4.5c-1.1-2.2-2.5-2.9-4.9-3c-33.9-1.7-67.7-3.9-101.6-3.7
			c-29.4,0.2-58.6,2.8-87.8,6.3c-21.4,2.6-42.8,4.9-64.3,6.4c-34.2,2.4-68.4,3.5-102.7,3.7c0-1.8,0-3.6,0-5.5
			c16.1-0.4,32.2-0.6,48.3-1.1c27.8-0.8,55.6-2.4,83.2-5.3c23.6-2.5,47.1-5.3,70.7-7.7c26.1-2.7,52.3-2.6,78.5-2.2
			c20,0.3,40,1.5,59.9,2.7c3.7,0.2,5.8-1.9,5.8-5.8c-0.2-16.2-0.5-32.4-0.7-48.5c-0.4-26.7-0.9-53.4-1.3-80.2c0-2.4-0.5-3.5-3.2-3.6
			c-7.6-0.3-15,1.1-22.5,1.9c-9.8,1.1-19.5,2-29.3,2c-4.6,0-8.6-1.1-11.9-4.4c-8.9-8.8-18.3-17.2-26.4-26.7
			c-5.1-6-5.9-12.8-6.2-20.1c-0.1-2.2,1.5-3.6,2.8-5.1c5.3-5.5,11.5-9.8,17.2-14.6c7.5-6.4,16.2-11.4,23.4-18.3
			c1.7-1.6,4.2-2,6.4-1.9c10.6,0.5,21-0.7,31.5-1.5c23.1-1.8,46.3-1.2,69.5-0.8c3.9,0.1,7.8,0.3,11.7,0.6c5.3,0.4,7.8,2.6,9.2,7.8
			c0.6,2.5,0.9,5,0.9,7.6c0,16.6,0.7,33.3,1.3,49.9c0.2,5.6-0.7,11.2-2.9,16.4c-1.4,3.4-3.7,5.4-7.5,5.9c-5.9,0.8-11.7,1.3-17.6,1.4
			c-5.8,0.1-11.6,1.5-17.4,0.8c-0.9-0.1-1.3,0.3-1.3,1.3c0,0.7,0,1.5,0,2.2c0.6,35.8,1.2,71.6,1.8,107.4c0,0.9-0.2,1.8,0.4,2.8
			c1.2-0.2,1.7-1.2,2.4-1.9c4.9-5,10.6-8.8,17.3-11.1c11.2-3.8,20.9-0.6,29.8,6.4c0.8,0.6,1.5,1.2,2.7,1.6c-1.5-3.8-3-7.5-4.5-11.3
			c-4.1-10.2-7.9-20.5-11-31.1c-0.2-0.8-0.5-1.6-0.7-2.4c-0.3-1.8-0.6-3.8,1.4-4.8c2-1,3.5,0,4.8,1.4c8.3,9,13.9,19.5,17.7,31
			c1.1,3.2,1.9,6.4,3,10.2c3-12.6,6.3-24.4,10-36.1c1.2-3.7,2.5-4.9,4.5-4.3c2,0.6,2.4,2.5,1.2,6.1c-3.4,9.8-3.9,20.1-4.5,30.2
			c0.5,0.4,0.8,0.2,1.1,0c3-1.6,5-0.5,4.9,3c-0.1,3-0.5,6-0.8,9c-0.1,1.4-0.2,2.7-0.4,4.1c-0.2,1.5,0.2,2.4,1.6,3.3
			c4.2,2.5,6,6.8,7.1,11.2c0.7,2.9,1.6,3.8,4.9,3.3c9.2-1.5,18.5-0.4,27.7,0.5c28,2.7,56,4.1,84.1,4.6c52.4,0.9,104.7,2,157.1,1.7
			c54.6-0.3,109.3-1.1,163.9-2.8c35.2-1.1,70.5-2.6,105.7-4.4c68.8-3.4,137.7-6.2,206.5-7.6c65.1-1.4,130.2-2.1,195.2-0.8
			c31.6,0.6,63.2,1.9,94.8,3.5c27.1,1.4,54.3,2.6,81.4,4c89.6,4.7,179.2,2.9,268.8,2.7c74.2-0.2,148.3-2.2,222.5-2
			c41.2,0.1,82.4,0.8,123.5,1.1c12,0.1,24-0.2,36-0.3C2235.2,541.9,2235.2,543.7,2235.2,545.6z M414,360c-0.4,0-0.8,0-1.1,0
			c0-4.4,0.1-8.7,0-13.1c-0.1-5.7,0.4-11.4-0.5-17.1c-0.7-4.7-1.5-5.3-6.3-5.7c-12.4-0.9-24.9-0.4-37.3-0.7
			c-13.2-0.2-26.4-0.2-39.5,0.8c-10.9,0.9-21.8,2.6-32.8,1.7c-2.6-0.2-4.8,0.8-6.7,2.8c-3.2,3.3-7.1,5.9-10.8,8.7
			c-8.6,6.6-17,13.3-25.1,20.6c-1.3,1.2-1.5,2.2-0.5,3.7c1.7,2.5,3.2,5.1,5.3,7.2c9.3,9.4,17.5,20,29.3,26.6
			c2.1,1.2,3.7,2.1,6.4,1.8c17.9-2.1,36.1-2.2,54-4c13.7-1.3,27.4-1,41.1-1.2c6.4-0.1,12.7,0.4,19.1-0.3c5-0.5,5.5-1.1,5.5-6.1
			C414,377.2,414,368.6,414,360z M391.4,561c7.1-0.1,14.6-2.2,22.2-3.6c5.4-1,10.9-2,16.3-3.2c2.3-0.5,5.3-1.3,5.2-4.3
			c-0.1-2.9,0.3-5.9-0.9-8.8c-1-2.4-1.8-4.9-2.8-7.4c-7.1-19.3-27.8-26-44.3-14.2c-8.1,5.7-13.8,13.6-18.7,22.1
			c-0.6,1-1.1,2.1-1,3.3c0.6,6.2,4.5,10.2,9.4,13.2C380.9,560.6,385.8,561.4,391.4,561z M352,474C352,474,352,474,352,474
			c0.4,22.7,0.7,45.4,1.1,68.1c0,1.1-0.3,2.4,1.3,3c2,0.7,3.9,1.3,6.1,1.3c0.1,0,0.4-0.3,0.3-0.4c-0.7-2.6,1.7-3.7,2.6-5.6
			c1.3-2.9,2.8-5.7,4.7-8.3c1.1-1.6,1.5-3.2,1.4-5.1c-0.5-24.9-0.8-49.8-1.3-74.7c-0.3-17.2-0.7-34.3-0.9-51.5c0-2.3-0.7-3-3-2.8
			c-2.7,0.2-5.4,0.1-8.2,0.3c-4.6,0.3-4.6,0.3-4.9,5c-0.1,1.3-0.3,2.5-0.2,3.8C351.2,429.5,351.6,451.8,352,474z M441.8,552.4
			c4.2-0.6,7.5-1.2,10.7-2c2.2-0.5,4.2-1,4-4c-0.1-1.1,0.8-2.3,1.7-3c1.6-1.2,1.4-2.4,0.4-3.9c-0.7-0.9-0.9-2.1-1.4-3.2
			c-1.1-2.4-2.1-4.6-4.8-6.1c-4.5-2.4-10-1-11.5,3.8c-0.6,1.9-1.1,3.9-1.5,5.8c-0.8,3.1,0.4,6.2,0,9.4
			C439.2,550.7,440.3,552.6,441.8,552.4z M252.7,371.8c0.4,0.6,0.7,1.3,1.2,1.8c8.6,11.5,19.6,20.7,29.9,30.4c1.1,1,2.5,1.4,4,1.5
			c9.7,0.6,19.2-0.5,28.8-1.5c8.8-0.9,17.6-3,26.5-2.2c0.9,0.1,1.4-0.3,1.3-1.2c0-1.2-0.8-1.2-1.7-1.1c-15.2,0.9-30.4,1.8-45.7,2.7
			c-0.8,0-1.8,0.1-2.3,0.5c-2.6,2.3-5.1,0.8-7.3-0.5c-9-5.1-16.6-11.9-23.6-19.5C260.3,379,256.4,375.4,252.7,371.8z M411.6,397.3
			c-2.6,0.5-5,0.5-7.3,0.5c-9.7,0.1-19.4,0.2-29.1,0.2c-2.1,0-2.4,0.9-2.3,2.6c0,1.7,0.4,2.6,2.4,2.6c3.4,0.1,6.7-0.4,10-0.7
			c7.7-0.6,15.4-0.7,23-2C410,400.3,411.2,399.5,411.6,397.3z M420.7,483.1c4,12.5,8.8,23.9,13.1,35.4
			C432.5,506.9,426,489.3,420.7,483.1z M443.8,512.9c-1.3,3.5-2.2,7-1.8,10.7c0.7-1.7,1.5-3.3,1.8-5.1
			C444,516.7,443.8,514.8,443.8,512.9z"/>
		<path fill="#222222" d="M595.6,335.7c-0.7-0.6-1-0.9-1.3-1.1c-14.3-6.4-29-10.6-44.9-7.9c-0.8,0.1-1.6,0.1-2.4,0.1
			c-1.5,0-2.6-0.9-3-2.3c-0.4-1.4,0.1-2.6,1.2-3.3c6.2-3.8,12.3-7.8,19.4-9.7c4.9-1.3,9.6-0.1,14.2,1.5c7.7,2.7,14.7,6.6,21.8,10.8
			c4.5-16.9,16.8-28.5,28.2-40.6c1.6-1.8,2.1-2.9,1.7-5.1c-0.7-3.9,0.6-7.5,2.3-11c1.8-3.6,4.1-6.9,7-9.7c1.5-1.5,3.3-2.6,5.4-1.3
			c2.1,1.3,1.7,3.4,1,5.4c-0.6,1.6-1.3,3.2-1.6,4.9c-0.9,3.8,1.3,6,5.1,5.4c1.8-0.3,3.5-1,5.1-1.9c0.9-0.5,1.8-0.9,2.7-1.3
			c1.3-0.5,2.5-0.4,3.5,0.7c0.9,1.1,0.8,2.4,0.3,3.6c-3.5,8.6-15.7,15.1-24.7,13.1c-1-0.2-1.7-0.1-2.5,0.4c-2,1.3-3.5,3.2-5.1,4.9
			c-6.1,6.4-12.2,12.7-17,20.2c-2.3,3.6-4.4,7.3-5.6,11.5c-0.6,2.1,0.1,2.9,2.3,2.5c8.5-1.5,16.7-4.1,25.2-5.9
			c0.7-0.2,1.3-0.5,1.6-1.3c2.2-5.5,5.7-10.3,8.7-15.4c0.8-1.4,1-2.2-0.5-3c-1.2-0.6-1.8-1.6-1.4-2.9c0.4-1.2,1.4-1.8,2.6-2.1
			c3.6-0.7,7.9,1.6,9.5,5c1.2,2.6-0.7,5.6-4.1,5.8c-1.5,0.1-2.2,0.8-2.9,1.9c-1.9,3.2-3.8,6.4-6.1,10.1c5.6-1,10.7-1.9,15.7-2.8
			c2.9-0.5,5.7-1,8.7-0.9c1.6,0.1,2.5-0.5,3.2-1.9c0.6-1.3,1.3-2.6,2.3-3.7c2.7-3.2,3.6-6-0.1-9.2c-1.5-1.3-0.4-3.4,1.6-3.8
			c5-1,10.6,3.5,10.9,8.6c0.1,2-1.3,3.6-3.4,3.2c-1.6-0.3-2.3,0.3-3,1.5c-0.9,1.6-2,3.2-3.1,5c3.5,0.7,6.7,1.5,9.9,1.9
			c5.3,0.6,10.4,1.9,15.3,3.9c1.1,0.5,1.9,0.7,2.6-0.7c3.1-5.9,7.1-11.2,12-15.7c0.9-0.8,1.1-1.4,0.2-2.4c-1.6-1.7-1.9-3.9-1.9-6.1
			c-0.1-9.3,4.6-15.9,11.7-21.3c1.2-0.9,2.5-1.3,3.8-0.4c1.3,0.9,1.2,2.2,1,3.7c-0.4,2.8-2.1,5.2-2.2,8.1c-0.1,4,1.2,5,4.9,3.6
			c2.6-1,4.7-2.7,7.1-4c1.5-0.8,3-1.6,4.5,0c1.3,1.5,0.9,3.1,0,4.5c-3.3,4.9-7.2,9.4-12.3,12.6c-1.6,1-3.5,2-5.3,2
			c-3.9-0.1-6.3,2.3-8.8,4.7c-4,3.8-7.2,8.1-9.9,12.9c-1.2,2.1-1.2,3.9,0.7,5.6c1,0.9,1.8,2.1,2.6,3.1c0.9,1.1,2,1.5,3.4,1.5
			c12.9-0.3,24.8,3.2,35.9,9.3c5.3,2.9,10.4,6.3,15.6,9.5c1.7,1.1,3.2,2.5,1.8,4.7c-1.3,2-3.1,2.2-5.2,1.2
			c-11-5.3-22.5-8.6-34.7-9.8c-4.2-0.4-8.3-1.1-12.5-1.1c-1.9,0-2.2,0.7-2.3,2.4c0,1.8,0.7,2.1,2.3,2c10-0.4,19.6,1.2,28.2,6.7
			c6.1,3.9,11.6,8.5,16.9,13.4c0.4,0.4,0.8,0.8,1.1,1.2c1.1,1.7,1.2,3.5-0.3,4.9c-1.4,1.4-3,0.9-4.4-0.2
			c-12.3-10.1-26.9-12.6-42.1-12.9c-1,0-2-0.2-2.2,1.3c-0.1,1.5,0.8,1.6,1.8,1.8c13,2.8,22.9,10.6,32,19.7c1.2,1.2,1.7,2.9,0.8,4.5
			c-0.9,1.6-2.4,0.9-3.9,0.9c-2.7-0.1-4.9-1.3-7-2.6c-7.5-4.7-15.9-7.1-24-10.3c-0.8-0.3-1.7-0.9-2.3,0.4c-0.5,1.3,0.4,1.6,1.2,2
			c18.9,8.4,27.4,24.9,33.4,43.2c0.7,2,0.9,4.2-1.8,5.2c-4.5,1.7-5,1.6-6.9-1.6c-3.9-6.8-7-14.2-12.1-20.3
			c-6-7.2-13.4-12.7-20.8-18.3c-0.5-0.4-1.1-0.7-1.8-0.5c-7.4,2.4-15.1,1.9-22.6,2.9c-13.3,1.8-26.6,3.7-40,5.4
			c-7.7,1-15.4,1.7-23.1,1.4c-3.9-0.2-7.6-0.8-10.1-4.3c-0.7-0.9-1.5-0.7-2.4-0.6c-10.1,1.1-19.9,3.1-28.4,9.3
			c-3.4,2.4-7.2,4.1-10.9,6.2c-1.6,0.9-3.4,1.4-4.7-0.3c-1.3-1.8-1.5-3.8,0.2-5.5c4.3-4.3,7.9-9.3,12.2-13.6
			c6.9-6.9,15.3-10.6,24.9-11.5c0.9-0.1,1.8,0.1,2.7,0c1.1-0.2,2.7,1.2,3.2,0.1c0.5-1.3,0.1-3,0-4.6c-0.1-1-1-0.9-1.7-1
			c-5.7-0.3-11.5-0.5-17,1.6c-7.5,2.8-15.2,4.9-22.3,8.7c-1.7,0.9-3.8,1.5-5.1-0.7c-1.2-2,0.3-3.3,1.7-4.6
			c4.1-3.6,8.3-7.1,12.2-10.9c6.4-6.3,14.2-8,22.8-7.3c2.4,0.2,4.7,0.5,7,0.8c1.5,0.2,2-0.2,2.2-1.8c0.5-5.1,0.5-5-4.3-6.5
			c-8.7-2.7-17.2-2.6-25.6,0.9c-4.1,1.7-8.6,2.4-12.9,3.3c-1.5,0.3-3.2,0.8-4.2-0.9c-0.9-1.7-0.6-3.7,0.7-4.8
			c5.2-4.3,9.4-9.7,15.2-13.3c5.3-3.3,11.2-2.5,17-1.8C589.6,334.5,592.3,335.1,595.6,335.7z M606.9,367.3
			c0.7,5.6,0.2,11.2,1.6,16.7c1.1,4.4,3.5,6.6,7.9,7.1c3.1,0.3,6.2,0.2,9.2-0.1c5.3-0.5,10.4-2.5,15.7-3.1c8.3-0.9,16.7-0.9,25-1.8
			c9.3-1.1,18.3-4,27.7-4.3c2.3-0.1,4.8-1.7,5.8-4.7c1.8-5.5,2.3-11.2,2.3-16.9c0.1-7.7,1.5-15.4,0.8-23.1c-0.4-5-2.5-8.6-7.1-11.1
			c-7.3-3.9-15.2-5.2-23.2-6.3c-8.1-1.1-15.9,0.9-23.7,2.3c-11.4,1.9-22.5,4.6-33.5,8.3c-4.4,1.5-7.1,4.2-7.5,9
			C607.2,348.6,607.3,358,606.9,367.3z M557.8,320.7c4.7,0.3,8.8-0.3,12.8,0.5c9.9,1.8,19.3,5.1,28.4,9.3c0.5,0.2,1.1,1,1.6,0.3
			c0.6-0.8-0.1-1.3-0.8-1.7c-8-4.2-15.9-8.8-24.6-11.5C569.1,315.6,563.7,317,557.8,320.7z M570.8,396.9c0.9-0.6,1.9-1,2.7-1.7
			c7.9-5.8,17.1-7.2,26.4-8.4c0.7-0.1,1.8,0.2,2-1c0.1-0.9,0.2-1.9-0.9-2.4c-2.1-0.9-4.1-1.9-6.5-1.5
			C584.8,383.9,576.4,388.1,570.8,396.9z M565.6,347.3c0.8,0.3,1.3,0.1,1.8-0.1c10.4-4.6,21-5.2,31.9-1.7c0.5,0.2,1.3,0.7,1.5-0.3
			c0.2-0.9,0.4-1.9-0.5-2.5c-0.6-0.4-1.3-0.6-2-0.8c-4.8-1.3-9.8-2-14.7-2.7C575.8,338.1,570.2,341.4,565.6,347.3z M738.7,341.8
			c-4.4-2.3-9.2-3.6-14-4.6c-3.6-0.7-7.3-1.4-11-1.1c-1.2,0.1-2.1,0.4-2,2c0.1,1.1,0.4,1.6,1.6,1.6
			C721.8,339.7,730.2,341,738.7,341.8z M572,371.1c9.1-4.4,18.7-6.1,28.8-5.7C591.2,362,577.9,362.4,572,371.1z M736.4,359.6
			c-0.2-0.4-0.2-0.6-0.3-0.7c-7.3-3.9-15.1-4.8-23.2-4.4c-1.1,0.1-1.4,0.7-1.4,1.6c0,1.1,0.8,1,1.6,1.1
			C720.9,357.3,728.6,357.8,736.4,359.6z M706.1,384.3c7.9,6.6,16.4,12.5,22.9,20.7C724,395,715.9,388.7,706.1,384.3z M726.4,377.6
			c-4.3-3.4-9.1-5.9-14.4-7.1c-0.6-0.1-1.3-0.5-1.6,0.4c-0.3,0.8,0.4,1,1,1.3C716.4,373.9,721.4,375.8,726.4,377.6z"/>
		<path fill="#222222" d="M1081.6,419.7c-4.4-1.2-8.9-1.5-13.3-2.3c-10.7-1.8-21,0.2-31.1,3.5c-0.9,0.3-1.9,0.6-2.9,0.7
			c-1.3,0.2-2.3-0.5-2.9-1.6c-0.6-1.2-0.5-2.4,0.4-3.3c5.4-5.2,10.6-10.6,17.5-13.7c5.1-2.3,10.5-1.6,15.8-0.6
			c6.3,1.1,12.4,2.9,18.4,4.9c1.2,0.4,1.8,0.6,1.9-1c0.3-8,3.1-15.3,6.6-22.3c3.8-7.6,8-15.1,13.1-22c0.4-0.6,0.6-1.1,0.3-1.7
			c-3.2-6.5-1.4-12.8,1.3-18.9c0.8-1.8,1.8-3.6,2.9-5.2c1.1-1.6,2.6-2.7,4.7-1.8c1.9,0.8,2.1,2.6,1.9,4.4c-0.2,1.8-0.6,3.6-0.6,5.4
			c-0.1,3.7,2.4,5.4,6,4.1c2.1-0.8,3.8-2.2,5.5-3.6c1.4-1.2,3-2.4,4.9-1c1.8,1.4,1.2,3.3,0.4,5c-2,4.4-4.6,8.2-8.2,11.4
			c-3.2,2.9-7,4.6-11.4,4.3c-1.5-0.1-2.7,0.3-3.5,1.6c-7.5,11.6-15.4,23-18.2,36.9c-1.1,5.4-0.4,6.1,4.5,4c6.9-3,13.6-6.4,20.4-9.7
			c0.8-0.4,1.3-0.9,1.5-1.8c1-5.6,3.3-10.8,5.1-16.1c0.5-1.6,0.6-2.6-1.2-3.1c-1.1-0.3-1.7-1.1-1.7-2.2c0-1.2,0.7-2,1.8-2.5
			c3.3-1.7,8.8-0.1,10.6,3.1c1.2,2.1,0,4.9-2.8,5.8c-1.7,0.5-2.3,1.5-2.7,3c-0.9,2.8-1.9,5.5-2.9,8.2c-0.2,0.5-0.5,1.1-0.1,1.5
			c0.5,0.5,1,0,1.5-0.2c4.1-1.7,8.2-3.4,12.4-5c1.2-0.5,2.4-1.2,3.6-1.3c8.2-0.3,7.8-7.4,10.1-12.4c0.3-0.7-0.1-1.2-0.7-1.6
			c-0.7-0.5-1.2-1.1-1.9-1.6c-1.1-0.8-2.4-1.6-1.9-3.3c0.5-1.8,2.1-1.9,3.5-2.1c4.3-0.6,8.1,1.7,9.8,5.8c1,2.3,0.1,3.9-2.3,4.5
			c-1.5,0.3-4.6,5.3-4.2,6.8c0.2,0.9,1,0.6,1.5,0.6c4.2,0,8.3-0.2,12.5-0.5c3.6-0.2,7.3,0.2,10.8,0.9c1.4,0.3,2-0.1,2.4-1.4
			c1.8-6.2,4.5-11.9,8.2-17.1c0.6-0.8,0.8-1.4-0.1-2.3c-4.1-4.4-5.2-13.9-2-19.4c1.7-3,2.9-6.3,5.6-8.7c1.1-1,2.1-1.9,3.6-1.2
			c1.5,0.6,1.6,2,1.7,3.4c0.1,2.7-0.9,5.4-0.4,8.1c0.7,3.7,2.2,4.4,5.4,2.4c2.3-1.4,3.9-3.5,5.9-5.2c1.2-1,2.5-2,4.1-1
			c1.7,1.1,1.7,2.8,1,4.4c-3.6,7.8-7.1,15.8-16.5,18.3c-0.9,0.3-1.5,1-2.1,1.7c-4.2,5.3-7.3,11-9.4,17.4c-0.9,2.6-0.3,4.3,1.9,6.1
			c2.8,2.3,5.4,3.2,9.1,2.5c13-2.6,25.7-0.8,38.1,3.6c4.2,1.5,8.4,3.1,12.5,4.7c1.8,0.7,3.1,1.9,2.3,3.9c-0.7,2-2.3,2.7-4.4,2.2
			c-12.8-3.3-25.9-3.6-39-2.1c-2.7,0.3-5.4,0.7-8.1,1.1c-1.7,0.2-2.6,0.7-2.1,2.8c0.4,2.1,1.6,1.8,3,1.4c6.2-1.6,12.5-2.2,18.9-1.4
			c10.6,1.4,19.5,6.8,28.4,12c1.9,1.1,2.5,3,1.4,4.9c-1.2,2-3,1.6-4.8,0.7c-10.8-5.4-22.2-6.4-34-4.9c-2.8,0.4-5.6,0.8-8.4,1.3
			c-1,0.2-2,0.3-1.8,1.8c0.2,1.3,1,1.3,2,1.3c12.8,0.1,23.7,5.4,34.2,12c1,0.6,1.9,1.5,2.1,2.8c0.3,1.8-0.3,3.1-2.3,3.2
			c-2.6,0.2-5.2,0.2-7.7-0.8c-8-3.1-16.6-3.8-25-5.2c-0.9-0.2-2.2-0.7-2.5,0.7c-0.4,1.6,1,1.7,2,1.9c14.3,3.5,25.2,11.8,33.2,23.9
			c2.3,3.4,4.6,6.8,6.7,10.3c1.6,2.7,1.3,4.1-0.9,5.6c-3.5,2.4-4.1,2.3-6.6-0.4c-4.7-5.3-8.8-11.1-14.2-15.8
			c-7.4-6.3-16.1-10.2-24.7-14.3c-0.7-0.3-1.4-0.6-2.1-0.2c-6.6,3.7-14,4.9-21.1,7.3c-15.9,5.5-31.4,11.9-47.6,16.5
			c-3.5,1-7,1.8-10.6,2.5c-3.9,0.8-7.8,0.9-11.1-2c-0.9-0.8-1.7-0.3-2.5,0c-9.5,3.1-18.4,7.2-25.3,14.8c-2.7,3-6,5.3-9,7.9
			c-1.3,1.2-2.9,1.8-4.4,0.5c-1.5-1.3-2.1-3.2-1-4.9c3.9-6,6.4-12.9,11-18.5c6.1-7.4,13.6-12.8,23.6-13.8c1.3-0.1,1.7-0.5,1.4-1.8
			c-0.7-3.9-0.9-4.1-4.8-3.4c-6,1.1-11.8,3-16.9,6.5c-5.4,3.8-11.5,6.7-16.6,11c-1.4,1.1-3.1,2-4.6,0.5c-1.7-1.7-0.6-3.3,0.5-4.8
			c3-4.1,6.2-8.1,9-12.4c5-7.6,12.2-11.1,20.9-12.2c2.2-0.3,4.3-0.5,6.5-0.6c1.4-0.1,2.1-0.5,1.9-2.2c-0.5-4.9-0.5-5-5.4-5.4
			c-8.6-0.8-16.6,0.9-23.9,5.8c-3.8,2.6-8,4.3-12.2,6.1c-1.4,0.6-2.8,1.3-4-0.1c-1.2-1.4-1.2-3.3-0.2-4.6c4.1-5.2,7-11.3,11.9-15.9
			c4.3-4,10-4.5,15.5-5c2.5-0.2,5,0,7.5,0C1081.5,420.4,1081.6,420,1081.6,419.7z M1162.2,388.8c-5.7,0.4-12.5,0.2-18.9,2.7
			c-13.9,5.3-27.7,10.9-40.6,18.5c-7.2,4.2-8.2,6.6-6.9,15.1c0.8,5,1.8,10,2.7,15c1.3,7.4,3.1,14.8,5.6,21.9c2.2,6,5.6,7.8,11.8,6.7
			c4.4-0.8,8.6-2.1,12.6-4.2c3-1.6,6.2-3,9.6-3.9c5.9-1.6,11.7-3.3,17.6-4.9c10.5-2.9,20-8.5,30.6-11.4c2.1-0.6,4.2-2.6,4.4-5.5
			c0.2-3.9,0.3-7.8-0.3-11.7c-0.9-5.6-1.7-11.1-2.6-16.7c-0.7-4.3-1.3-8.6-3-12.7c-1.3-3.4-3.6-5.5-7.1-6.6
			C1172.9,389.6,1168.1,388.9,1162.2,388.8z M1044.1,413.1c1.2,0.6,1.9,0.2,2.7,0c6.3-1.7,12.7-1.9,19.1-1.3
			c6.3,0.6,12.6,1.4,18.8,2.9c0.6,0.1,1.5,0.8,1.8-0.3c0.2-0.9-0.7-1.1-1.4-1.3c-3.4-1-6.8-2-10.2-2.9c-6.1-1.7-12.3-3.2-18.7-3
			C1051.2,407.2,1047.7,410,1044.1,413.1z M1071.8,483.4c0.3-0.2,0.6-0.4,0.8-0.6c6-6.5,13.3-10.8,21.7-13.3
			c1.1-0.3,2.2-0.8,3.3-1.2c0.6-0.2,1.3-0.4,1.2-1.2c-0.1-0.8-0.3-1.8-1.1-2c-1.7-0.4-3.5-1.2-5.3-0.5
			C1082.8,467.8,1075.6,473.7,1071.8,483.4z M1056.9,437.4c3.5-1.6,6.6-3.8,10.1-5.3c6.6-3,13.4-3.5,20.5-3.1c0.8,0,2,0.6,2.2-0.8
			c0.1-1.2-0.5-2.1-1.8-2.2c-0.8-0.1-1.6-0.2-2.4-0.2c-5-0.2-9.9,0.2-14.9,0.7C1063.4,427.1,1059.6,431.5,1056.9,437.4z
			 M1219.7,397.5c-5.5-1.7-11.1-1.9-16.7-1.6c-2.6,0.1-5.2,0.4-7.8,1.2c-1.1,0.4-1.6,1-1.2,2.3c0.3,1.1,1.1,1.3,2.1,1.1
			c2-0.4,3.9-0.8,5.9-1C1207.9,398.7,1213.8,398.1,1219.7,397.5z M1067.8,458.5c7.6-5.8,16.3-9.1,25.7-10.8
			C1082.8,446.5,1071.3,449.7,1067.8,458.5z M1221.3,414.4c-7.6-2.4-15.2-1.8-22.7,0.2c-0.9,0.3-1.4,0.9-1.1,1.8
			c0.3,1,1,0.9,1.7,0.7C1206.5,415.7,1213.9,414.8,1221.3,414.4z M1198.4,444.8c4.3,2.2,8.5,4.4,12.8,6.5c4.3,2.2,8.3,4.7,12.1,7.6
			C1216.9,450.9,1208.3,446.7,1198.4,444.8z M1215.4,433.9c0-0.2,0.1-0.5,0.1-0.7c-4.8-1.8-9.8-3.1-15.1-3.1c-0.5,0-1,0.1-1.1,0.7
			c-0.1,0.7,0.4,1,1,1C1205.4,432.5,1210.4,433.2,1215.4,433.9z"/>
		<path fill="#222222" d="M1595.5,342.2c0-1.2-0.8-1.5-1.3-1.9c-11.1-8.3-23.2-14.2-37.4-15.1c-1.8-0.1-3.6-0.5-3.9-2.7
			c-0.3-2.2,1.4-2.9,3.1-3.5c4.3-1.4,8.7-2.7,13.1-3.7c5.2-1.1,10.1-0.3,14.7,2.2c6.8,3.7,12.5,8.8,18.1,14c1.4,1.4,2.1,1.5,3.1-0.4
			c3.2-6.1,8-10.8,13.3-15c6.5-5.3,13.3-10.1,20.6-14.3c1-0.6,1-1.4,1-2.3c0.8-9,6.7-14.1,13.8-18.4c1.3-0.8,2.9-0.6,4,0.6
			c1.2,1.3,0.9,2.7,0.1,4.1c-0.9,1.7-2.1,3.2-2.9,4.9c-1.5,3.1-0.1,5.4,3.3,5.8c2.1,0.2,4.2-0.3,6.2-0.8c1.7-0.4,3.6-0.9,4.6,1
			c1.1,2.1-0.4,3.4-1.8,4.6c-3.1,2.6-6.5,4.7-10.3,6c-4.3,1.5-8.6,1.7-12.7-0.6c-1.2-0.7-2.3-0.7-3.3,0c-11.2,7-22.6,13.8-30.5,24.7
			c-2.8,3.9-2.4,4.8,2.4,4.9c7.1,0.2,14.2-0.1,21.3-0.1c1,0,1.7-0.3,2.3-1.2c3-4.2,6.9-7.7,10.5-11.5c1.1-1.2,1.5-1.9,0.3-3.4
			c-1.5-1.8-0.4-3.8,2-3.9c3.4-0.2,7.5,3.3,7.8,6.8c0.2,2.2-1.7,4.1-4.5,3.9c-1.8-0.1-2.9,0.6-3.9,1.8c-1.6,1.7-3.3,3.4-4.9,5.1
			c-0.5,0.5-1.3,1-0.9,1.8c0.4,0.8,1.3,0.6,2,0.6c4,0.2,8,0.4,12,0.5c1.1,0.1,2.3-0.1,3.2,0.3c7,3,9.7-3,13.6-6.5
			c1.1-1-0.1-1.8-0.3-2.7c-0.4-1.6-2.5-3.3-0.4-4.9c1.8-1.4,3.7-0.2,5.3,0.8c2.8,1.6,4.1,4,4.2,7.2c0.1,3-1.1,4-3.9,3.5
			c-1.3-0.2-5.8,3-6,4.3c-0.1,0.9,0.7,0.9,1.2,1.2c3.3,1.5,6.6,3,10,4.2c3.2,1.1,6.1,2.9,8.8,4.9c1.5,1.1,2.5,1.2,3.9-0.4
			c3.6-4.2,7.8-7.6,12.5-10.4c1.5-0.9,1.8-1.6,1.3-3.4c-1.6-5.5,1-10.2,4.2-14.3c2.5-3.2,6.1-5.4,9.8-7.2c1.4-0.6,2.8-1.1,4,0.2
			c1.1,1.2,0.4,2.5-0.1,3.8c-0.9,2.2-2.7,3.9-3.3,6.2c-1,3.7,0.1,5.1,3.9,4.4c2.3-0.4,4.5-1.4,6.8-2c1.5-0.4,3.2-0.8,4.1,0.9
			c0.9,1.6,0.1,3.1-1.1,4.1c-6.1,5.1-12.1,10.4-21,9c-1-0.2-2,0.2-2.9,0.7c-5.5,2.8-10.4,6.4-14.5,10.9c-2.9,3.2-0.8,10.3,3.4,11.2
			c13.6,3,24.8,10,34.6,19.7c2.6,2.6,5.1,5.2,7.7,7.8c1.3,1.3,2.3,2.8,0.7,4.5c-1.5,1.6-3.2,1.3-4.9,0c-11.5-9.4-24.8-15-38.9-19.1
			c-1-0.3-2.2-1-3.1,0c-0.6,0.6-0.8,1.6-0.7,2.6c0.1,1.1,1.1,1.1,1.9,1.2c17.1,2.5,27.3,14,36.2,27.4c1.2,1.8,1.5,3.7-0.4,5.1
			c-1.9,1.5-3.4,0.3-4.6-1.3c-6.9-8.7-16.1-14-26.5-17.3c-2.7-0.9-5.4-1.6-8.1-2.4c-0.9-0.3-1.9-0.4-2.3,0.7c-0.4,1.2,0.3,1.6,1.2,2
			c10.8,5.1,18,13.9,24.3,23.6c0.5,0.7,0.8,1.7,0.9,2.5c0.2,2.2-1.4,3.3-3.5,2.6c-2.6-0.9-4.8-2.4-6.8-4.4
			c-5.6-5.6-12.4-9.4-18.9-13.8c-0.7-0.5-1.6-1.2-2.4-0.1c-0.6,0.9,0.1,1.5,0.7,2c14.1,10.7,18.9,25.9,20.7,42.6
			c0.1,0.7,0.2,1.4,0.2,2.2c0.4,4.1-1.7,6.1-5.7,5.4c-1.6-0.3-2.2-1.5-2.5-2.9c-0.9-3.2-1.9-6.5-2.7-9.7c-1.6-6.3-4.1-12.3-7.8-17.6
			c-3.3-4.7-6.7-9.3-10.5-13.6c-0.7-0.7-1.2-1.7-2.4-1.6c-8.3,0.4-16.2-1.8-24.4-2.5c-16.1-1.5-32.3-2.1-48.2-5.1
			c-3-0.6-6.1-1.1-9-2.3c-2-0.8-3.9-1.9-4.8-3.9c-0.8-1.8-2.2-2-3.9-2.3c-11.8-2.4-22.7,1.4-33.6,4.9c-1.3,0.4-2.6,0.8-3.9,1.1
			c-1.5,0.4-3,0.3-3.7-1.3c-0.7-1.5-0.6-3.3,0.7-4.3c10.5-7.5,20.3-16.6,34.6-15.9c2.5,0.1,4.9,0.5,7.2,1.2c0.9,0.3,2.3,1.8,2.7-0.4
			c0.3-1.5,1.9-3.7-1-4.5c-4.8-1.4-9.7-2.6-14.8-2c-7.4,1-14.9,1.4-22.1,3.2c-1.7,0.4-3.6,0.7-4.4-1.4c-0.8-2.2,0.9-3,2.5-3.9
			c3.3-1.8,6.7-3.3,9.7-5.5c9.5-6.7,19.3-6.3,29.6-2.3c0.7,0.3,1.4,0.5,2,0.8c1.1,0.4,1.6,0.1,2.1-1c1.7-4.1,1.5-4.7-2.3-6.9
			c-7.3-4.2-15-6-23.3-4.6c-4.2,0.7-8.3,0.4-12.5,0.4c-1.4,0-2.9-0.1-3.3-1.8c-0.4-1.6,0.2-3.2,1.5-3.8c5.8-2.9,10.9-7.3,17.3-9.1
			c5.1-1.4,9.9,0.4,14.6,2C1591.2,340.4,1593.3,341.3,1595.5,342.2z M1598.5,386.4c-0.2,6.7,1.8,9.4,7.5,10.9
			c4.2,1.1,8.5,1.7,13,1.4c3.1-0.2,6.2,0,9.2,0.4c9.1,1.1,18.1,3.4,27.3,3.8c6.3,0.3,12.5,0,18.7,1.2c3.9,0.8,6.5-0.6,8.4-4.1
			c1.5-2.8,2.8-5.7,3.6-8.8c1.7-5.9,3.5-11.9,5.1-17.8c0.7-2.5,1.2-5.1,1.6-7.7c0.7-4.5-0.5-8.1-4.2-11.1
			c-8.3-6.9-17.9-11.2-28.4-12.3c-14.2-1.6-28.4-2-42.7-0.4c-7.8,0.9-9.6,2.2-11.7,9.8c-1.6,5.9-3.1,11.8-4.6,17.7
			C1600,375.2,1599,381.2,1598.5,386.4z M1567,321.6c5.1,1.4,10,2.6,14.7,5.1c6.6,3.5,12.9,7.4,18.8,11.9c0.5,0.4,1.1,1.3,1.8,0.4
			c0.4-0.6-0.2-1.2-0.7-1.6c-1.9-1.7-3.8-3.4-5.7-5c-5.1-4.3-10.2-8.7-16.5-11.4C1575.2,319.1,1571.1,319.9,1567,321.6z
			 M1562.8,392.2c0.3,0,0.7,0,1-0.2c7.7-3.1,15.7-3.7,23.8-2.6c0.9,0.1,1.8,0.1,2.7,0.2c0.7,0,1.5,0,1.8-0.9
			c0.2-0.8,0.1-1.5-0.6-2.2c-1.8-1.6-3.8-2.4-6.1-2.5c-4.7-0.1-9.2,0.6-13.6,2.1C1568.3,387.3,1565.3,389.3,1562.8,392.2z
			 M1567.5,347.1c2,0.6,3.5,0,5-0.2c6.5-0.9,12.8-0.2,18.9,2.3c2.1,0.9,4.1,1.9,6.1,2.9c0.6,0.3,1.3,0.9,1.9,0
			c0.5-0.8,0.5-1.8-0.3-2.4c-0.6-0.5-1.3-0.9-2.1-1.3c-4.1-2.1-8.4-3.8-12.8-5.3C1578,340.9,1572.8,342.8,1567.5,347.1z
			 M1722.7,377.4c-6-5-12.6-8.4-20.2-9.9c-1.1-0.2-2,0.1-2.2,1.4c-0.2,1.4,0.8,1.6,1.8,1.9c4.4,1,8.5,2.5,12.7,3.9
			C1717.4,375.6,1720.1,376.5,1722.7,377.4z M1568.6,369.8c9.3-2.2,17.9-1.5,26.4,0.5C1587.7,365.5,1574.6,363.2,1568.6,369.8z
			 M1717.3,392.6c-5.4-5.3-12.1-7.7-19.4-8.8c-0.7-0.1-1.2,0.3-1.4,1c-0.2,1,0.5,1.3,1.2,1.5c3.4,1,6.8,1.9,10.2,2.9
			C1711.2,390.2,1714.2,391.4,1717.3,392.6z M1686.7,409.8c5,7.2,11,13.6,15.1,21.5C1699.6,422.1,1694,415.3,1686.7,409.8z
			 M1704.3,406.5c0.2-0.2,0.4-0.5,0.5-0.7c-3.2-3.2-6.7-6-10.8-7.9c-0.5-0.2-1.1-0.4-1.5,0.1c-0.3,0.6,0.1,1,0.6,1.3
			C1696.9,401.7,1700.6,404.1,1704.3,406.5z"/>
		<path fill="#222222" d="M977,339.2c-0.1,1.1-0.2,2.2-0.4,3.2c-1.4,4.9-5.3,6.8-9.9,4.5c-4.2-2-7.3-5.4-10.4-8.7
			c-3.7-4.1-6.9-8.7-10.2-13.1c-3.3-4.4-7-8.4-10.7-12.3c-1.3-1.3-2.7-2.4-4.5-2.9c-1.5-0.4-2.2-1.5-2.1-3.1
			c0.2-1.7,1.3-2.3,2.7-2.5c0.7-0.1,1.5-0.3,2.2-0.2c8.1,1.9,16.9,1.3,24.1,6.7c7.7,5.7,13.9,12.5,17.7,21.4
			C976.4,334.4,977,336.7,977,339.2z M969.5,341.6c-0.1-3.5-1.7-6.2-2.9-9.1c-3.2-7.2-8.1-12.5-15.1-16.1c-1.8-1-2.1-0.4-2.7,1.2
			c-0.4,1.2,0.3,1.7,0.8,2.4c1.1,1.4,2.5,2.7,3.4,4.2c3.5,6,8,11.2,13.3,15.7C967.1,340.7,968,341.6,969.5,341.6z"/>
		<path fill="#222222" d="M849.5,298.4c14.3,1.6,28.2,4.2,40.3,12.6c7,4.8,11.9,11.4,15.2,19.1c0.9,2,1.5,4.1,1.1,6.3
			c-0.7,3.5-3.5,5.2-6.9,4.1c-2.3-0.7-4.2-2.2-6.1-3.5c-9.6-6.6-18.1-14.6-27.4-21.5c-5.7-4.2-11.8-7.8-17.6-11.9
			c-0.6-0.4-1.2-0.4-1.8-0.4c-1.6-0.1-2.7-0.8-2.6-2.5c0-1.8,1.3-2.5,2.9-2.5C847.5,298.4,848.5,298.4,849.5,298.4z M862.2,306
			c13.2,8.8,24.3,20.4,38,28.6C894,316.6,879.3,309.7,862.2,306z"/>
		<path fill="#222222" d="M1330.4,332.8c9.7,0,19.2,0.9,28.3,4.8c7.5,3.3,13.5,8.4,18.3,15.1c0.2,0.3,0.4,0.6,0.6,0.9
			c2.1,3.4,2.4,6.6,0.5,8.6c-2.4,2.7-5.3,1.8-8.1,0.8c-8.6-3.2-16.7-7.7-24.8-11.9c-9-4.6-18.3-8.4-27.8-11.9
			c-0.6-0.2-1.2-0.2-1.9-0.2c-1.5,0.1-2.8-0.2-3.1-1.9c-0.3-1.9,1-2.5,2.5-2.9c3.8-0.9,7.7-1.4,11.6-1.4
			C1327.9,332.8,1329.1,332.8,1330.4,332.8z M1331.1,338.6c14.8,5.7,27.5,14.3,42.2,19.8C1369.5,346.6,1345.1,335.2,1331.1,338.6z"
			/>
		<path fill="#222222" d="M1938.4,420c0,1.1,0,1.6,0,2c-0.4,3.7-1.4,7.2-5.3,8.4c-3.7,1.2-6.1-1.4-8.3-4c-3.5-4.1-5.9-8.9-8.1-13.8
			c-2.7-6.1-5.3-12.2-8.7-17.9c-1.5-2.5-2.8-5.1-5.4-6.7c-1.1-0.7-1.4-1.9-0.9-3.1c0.5-1.2,1.5-1.6,2.6-1.5c0.6,0,1.3,0,1.9,0.2
			c7.2,3.3,15.3,4.7,20.8,11.2c5.8,6.9,10,14.4,11.3,23.4C1938.4,419.2,1938.4,419.9,1938.4,420z M1931.2,421.1
			c0.5-1.8-0.9-3.5-1.2-5.5c-1.1-6.6-4.2-12.1-9.4-16.4c-0.7-0.6-1.3-2.1-2.6-1c-1.1,0.9-1.1,2.1-0.4,3.4c1,1.7,1.8,3.5,2.4,5.4
			c2.1,5.8,4.8,11.3,8.8,16.2c0.4,0.5,0.9,1.4,1.7,1.1c0.9-0.3,0.5-1.2,0.6-1.9C1931.2,422.1,1931.2,421.7,1931.2,421.1z"/>
		<path fill="#222222" d="M1875.7,403.8c0,2.6-0.6,5-3.2,6.1c-2.6,1.1-4.6-0.2-6.4-1.9c-4.6-4.4-8.6-9.4-12.4-14.5
			c-7.2-9.6-15.1-18.7-23.6-27.1c-0.7-0.7-1.5-1-2.3-1.4c-1.1-0.5-1.8-1.3-1.4-2.6c0.4-1.4,1.5-1.8,2.8-1.6c2.8,0.5,5.5,1.2,8.1,2.3
			c8.4,3.5,16.6,7.4,23.6,13.3c7.4,6.2,12.2,14.1,14.2,23.6c0.2,0.8,0.3,1.6,0.4,2.4C1875.6,402.9,1875.6,403.3,1875.7,403.8z
			 M1842.8,371.4c-0.3,0.7,0.2,1,0.6,1.4c6.7,7.3,12.5,15.3,18.7,23c1.9,2.4,4,4.7,6.1,7c0.5,0.5,0.9,1.4,1.7,1.1
			c0.9-0.4,0.3-1.4,0.3-2.2c0-0.4-0.2-0.9-0.3-1.3c-3.4-14.6-13.9-22.9-26.6-29C1843.2,371.2,1843,371.4,1842.8,371.4z"/>
		<path fill="#222222" d="M884.1,458.8c-1.1-0.2-2.8-0.6-4.4-1c-19.1-5.2-38.2-10.7-57.5-15.1c-7.3-1.7-14.5-3.4-21.8-5
			c-3.5-0.8-5.2-2.2-4.5-4c1.2-3,3.6-1.7,5.6-1.3c18.9,4.1,37.9,8.1,56.5,13.3c8.8,2.4,17.5,5,26.2,7.4c0.5,0.1,1.1,0.3,1.6,0.5
			c1.5,0.6,2.5,1.6,2.1,3.3C887.6,458.6,886.2,458.9,884.1,458.8z"/>
		<path fill="#222222" d="M1339.4,471.2c14,0.9,27.9,2.2,41.9,3.1c2.1,0.1,5-0.2,4.8,2.9c-0.2,3.1-3.1,2.5-5.2,2.4
			c-11.5-0.6-23-1.3-34.5-1.9c-15.6-0.8-31.2-1-46.8-1.4c-1,0-2,0-3-0.2c-1.5-0.3-2.9-0.9-2.8-2.8c0.1-1.8,1.5-2.3,3.1-2.3
			c3.5,0,6.9,0.1,10.4,0.1C1318,471.2,1328.7,471.2,1339.4,471.2z"/>
		<path fill="#222222" d="M820.4,209c5.9,0.2,11,1.2,15.7,3.8c2.4,1.3,4.5,3,6.2,5.2c3.9,5.1,2,10.5-4.4,11.9
			c-4.9,1-9.6-0.2-14.1-1.7c-6-2-11.7-5-17.9-6.3c-2.9-0.6-2.2-3.4-2.9-5.3c-0.5-1.5,0.7-2.5,1.9-3.3
			C809.7,210,815.3,209.6,820.4,209z M809.4,216.9c5.5,1.5,10.2,3.8,15.2,5.6c3.4,1.3,6.9,2.2,10.6,2.1c1.1,0,2.6,0,3.1-1.2
			c0.6-1.3-0.7-2.1-1.5-3C831.3,214.4,818,212.5,809.4,216.9z"/>
		<path fill="#222222" d="M773.1,239.2c-3.6-0.2-7.3-0.5-10.9-0.7c-2.1-0.1-4.1,0.2-6.3,1.1c-2.9,1.2-6.3,0.5-9.3-0.6
			c-2.3-0.9-2-4.3,0.2-6.1c5.5-4.4,12-6.4,18.6-7.9c4.2-1,8.5-1.8,12.9-1.7c2.6,0,5,0.6,7.1,2.3c4.3,3.5,3.8,9.3-1.1,11.9
			C781.9,238.9,778.7,239.4,773.1,239.2z M759.2,232.8c5.3,0.3,10.6,0.5,15.9,0.8c1.8,0.1,3.6,0,5.4-0.6c0.9-0.3,2.1-0.5,2.1-1.8
			c0-1.3-1.1-1.7-2.2-2.1c-2.6-0.9-5.2-0.3-7.8,0.1C768,229.9,763.4,230.7,759.2,232.8z"/>
		<path fill="#222222" d="M1831.6,512.7c-1.7-0.3-3.2-1.1-4.7-1.9c-12.4-6.5-24.7-13.2-37.1-19.6c-9.9-5.1-20.1-9.9-30.1-14.8
			c-1.8-0.9-4.5-1.8-3.2-4.4c1.3-2.6,3.5-0.8,5.2,0c23.5,10.7,46.5,22.3,69,35c0.9,0.5,1.9,1.1,2.7,1.8c0.8,0.7,1.1,1.7,0.6,2.7
			C1833.6,512.5,1832.7,512.8,1831.6,512.7z"/>
		<path fill="#222222" d="M1283.4,272.1c-3.8-0.1-7.6-0.8-11.3-1.4c-3.5-0.6-7-1.4-10.5-1.2c-3.2,0.1-3.8-2.3-4.7-4.4
			c-0.8-1.7,0.2-3,1.3-4.1c7.5-7.1,24-10.9,34.7-3.9c0.8,0.5,1.5,1.1,2.1,1.7c4,3.8,3.3,8.8-1.6,11.4
			C1291.1,271.5,1287.5,272.2,1283.4,272.1z M1263,263.9c5.7,0.4,10.6,1.6,15.6,2.3c3.2,0.5,6.5,0.6,9.8,0c1.3-0.2,3-0.5,3.4-1.9
			c0.4-1.6-1.3-2.2-2.4-2.9C1282.7,257.1,1269.8,258.1,1263,263.9z"/>
		<path fill="#222222" d="M1237.2,275.9c1.9-0.1,3.6,0.3,5.2,1.3c4.2,2.5,4.7,7.8,1.1,11.1c-1.7,1.6-3.8,2.5-6,3.1
			c-3.9,1.1-7.8,1.5-11.8,2.2c-3.3,0.6-6.6,0.7-9.7,3c-2.1,1.6-5.4,1.5-8.2,1.2c-2.4-0.2-3.4-3.6-1.7-5.6c1.6-2,3.4-3.8,5.5-5.3
			c6.3-4.6,13.3-7.7,20.7-10.1C1233.9,276.2,1235.5,275.9,1237.2,275.9z M1218.6,288.8c6-1,12.1-1,17.9-2.9c1.5-0.5,4-0.9,3.5-3
			c-0.6-2.2-3-1.7-4.7-1.3C1229.3,282.9,1223.8,285.4,1218.6,288.8z"/>
		<path fill="#222222" d="M810,382.9c6.3,0.8,11.9,1.6,17.6,2.3c13.1,1.8,26.3,3.6,39.1,7.1c2.5,0.7,4.9,1.5,7.3,2.3
			c1.8,0.6,3.2,1.7,2.5,3.8c-0.7,2-2.4,2-4.1,1.6c-6.8-1.7-13.5-3.7-20.4-5c-12-2.3-24-4.1-36-5.8c-2.2-0.3-4.3-0.8-6.4-1.3
			c-1.4-0.4-2.1-1.4-1.8-2.9C808,383.5,809.1,382.9,810,382.9z"/>
		<path fill="#222222" d="M875.1,431.7c-0.5-0.1-1.1-0.2-1.7-0.5c-6.8-3.7-14.3-5.3-21.6-7.2c-12.2-3.2-24.6-5.7-37-7.8
			c-0.7-0.1-1.4-0.2-2.1-0.5c-1.5-0.6-2.9-1.4-2.4-3.4c0.5-1.9,2.1-2.1,3.7-1.8c17,3,34,5.9,50.5,10.8c3.3,1,6.6,2,9.6,3.7
			c1.2,0.7,2.3,1.4,3.2,2.5c0.6,0.8,0.9,1.8,0.4,2.8C877.3,431.3,876.4,431.7,875.1,431.7z"/>
		<path fill="#222222" d="M1817.5,274.7c7.5,0,14.3,2.2,20,7.2c2.2,1.9,4,4.2,5,7c1.6,4.3-0.6,7.9-5.1,8.6c-2.6,0.4-5-0.2-7.5-1.1
			c-3.6-1.3-6.8-3.3-10-5.5c-3.4-2.4-6.8-4.9-10.6-6.6c-2.5-1.1-2.2-3.2-2.2-5.3c0-1.9,1.3-2.6,2.8-3.2
			C1812.4,274.9,1815,274.7,1817.5,274.7z M1813.7,279.8c0.3,0.6,0.3,0.9,0.5,1c4.6,3,9.2,6.1,13.9,9.1c2.1,1.3,4.4,2.2,6.8,2.6
			c0.9,0.1,1.9,0.3,2.5-0.6c0.7-0.9,0.1-1.7-0.4-2.5c-1.5-2.8-3.9-4.8-6.6-6.3C1825.3,280,1819.8,279,1813.7,279.8z"/>
		<path fill="#222222" d="M1332.1,446.9c10.2,0.2,20.4,0,30.5,1.5c2.4,0.3,4.6,0.9,6.7,2.1c1.4,0.8,2.3,1.9,1.6,3.6
			c-0.7,1.5-2.1,1.6-3.5,1.3c-17.7-3.9-35.6-2.8-53.5-2.8c-2.3,0-4.5,0.2-6.8,0.2c-1.9,0-4-0.3-3.9-2.7c0-2.4,2-2.5,3.8-2.5
			C1315.4,447.6,1332.1,447.2,1332.1,446.9z"/>
		<path fill="#222222" d="M1337.8,425.2c-12,0.3-22.9,1-33.8,1.7c-2.1,0.1-4.2,0.2-6.3,0.1c-1.5-0.1-2.6-0.9-2.6-2.6
			c0.1-1.5,1.1-2.3,2.5-2.4c19.9-1.1,39.8-3.7,59.8-2c1.3,0.1,2.5,0.3,3.8,0.6c1.4,0.3,2.3,1.2,2.2,2.7c-0.1,1.5-1.2,2.2-2.6,2.3
			c-0.9,0.1-1.8,0.1-2.7,0C1351,425.3,1343.9,425,1337.8,425.2z"/>
		<path fill="#222222" d="M1776.5,454.4c3.1,1.3,6.5,2.6,9.8,4c13.2,5.7,26.3,11.4,38.6,19c2.1,1.3,4,2.8,5.4,4.9
			c0.7,1.1,0.9,2.2,0,3.3c-1.1,1.2-2.3,0.9-3.4,0.1c-15.1-11.3-32.5-18-49.4-25.6c-1.1-0.5-2.2-0.8-3.1-1.7
			c-0.8-0.8-1.1-1.7-0.6-2.7C1774.2,454.6,1775.1,454.3,1776.5,454.4z"/>
		<path fill="#222222" d="M1833.2,457.7c-0.5-0.2-1.4-0.5-2.2-0.9c-15.2-8.5-31.4-14.6-47.6-20.8c-1.6-0.6-3.2-1.3-4.7-2.1
			c-1.3-0.7-2.3-1.7-1.6-3.3c0.7-1.6,2.1-1.5,3.5-1c16,6.3,32.3,11.6,47.6,19.6c2.3,1.2,4.6,2.6,6.8,4.1c1,0.7,1.6,1.8,1.1,3.1
			C1835.5,457.4,1834.6,457.7,1833.2,457.7z"/>
		<path fill="#222222" d="M1951.5,663.3c-1.2-4.4-2.9-8.4-4.6-12.3c-4.5-10.5-9.1-21-13.6-31.5c-0.4-0.9-0.7-1.9-1-2.8
			c-0.3-1.2,0-2.4,1.1-3.1c1.1-0.8,2.4-1,3.6-0.2c1.1,0.8,2.1,1.7,3,2.7c12.8,13.4,21.9,28.9,27.6,46.5c0.2,0.6,0.1,1.5,1.1,2
			c1.3-6.8,2.6-13.5,4.5-20c3.4-11.9,7.5-23.5,12.2-34.9c1.4-3.5,3-4.9,4.9-4c3,1.3,2.1,3.8,1.6,6.1c-2.7,13.6-3.5,27.4-4.4,41.1
			c-0.4,5.4-0.6,10.9-0.9,16.4c0.9,0.1,0.9-0.7,1.1-1.2c4.9-11.5,11.8-21.7,19.5-31.4c1.2-1.5,2.6-3.2,4.8-2.1
			c2.3,1.2,2,3.4,1.3,5.5c-4.3,12.2-7.9,24.5-10.6,37.2c-0.5,2.2,0,2.7,2.1,2.7c6.8,0.2,11.9,3.4,15.4,9.2
			c3.3,5.4,5.4,11.3,6.5,17.5c1.1,6.1-1.2,10.5-7.1,13.6c-5.2,2.7-10.8,4.3-16.6,5.2c-10,1.7-20,2.3-30.1,0.4
			c-3-0.5-5.7-1.5-6.8-4.7c-0.4-1.1-1-0.7-1.7-0.3c-7.4,5.2-15.9,6.5-24.6,6.5c-12.6,0-25.3,0.3-37.9-1.1
			c-10.7-1.2-18.1-6.4-21.5-16.9c-1.1-3.3-0.8-6.3,2-8.6c1.1-0.9,1.6-2.2,2-3.5c3.1-8.7,7.5-16.6,14.4-22.8
			c7.6-6.9,16.8-9.9,26.8-10.9c8.1-0.8,16.3-1.1,24.5-0.1C1950.5,663.4,1950.9,663.3,1951.5,663.3z M1925.7,721.5
			c6.7,0,13.7,0.4,20.7-0.3c10-1.1,18-5.3,22.9-14.5c1.8-3.5,2.5-7.1,1.3-11c-1.8-5.7-3.9-11.4-7.1-16.4c-2-3.2-3.7-7.1-8.4-7.2
			c-0.2,0-0.6-0.2-0.7-0.4c-1.5-2.7-4.2-2.5-6.7-2.9c-6.9-1-13.8-0.5-20.7,0.2c-11.6,1.1-21.8,5.2-29.3,14.7
			c-5.6,7.1-8.4,15.4-11.3,23.7c-0.3,0.9,0.1,1.6,0.4,2.3c2.5,6.1,7.3,9.2,13.6,10.4C1908.7,721.6,1917,721.1,1925.7,721.5z
			 M1986.9,721.2c3.8-0.1,8.7-0.4,13.5-1.2c6.1-1.1,12.1-2.5,17.5-5.6c2.4-1.4,3.8-3.4,3.3-6.3c-1.1-5.8-2.9-11.4-6.1-16.5
			c-2.4-3.9-5.9-6-10.5-6.4c-2.1-0.2-3.5,0-4.6,2.2c-1.2,2.3-4,2.4-4.6,0.3c-0.6-2.1-1.7-1.7-3.2-1.6c-2.3,0.2-4,2.2-6,2.2
			c-3.1-0.1-5.5,1.4-8.2,2.4c-2,0.7-2.9,1.8-2,4c0.5,1.3,0.6,2.8,0.7,4.3c0.4,5.6-1.9,10.2-4.9,14.7c-1.9,2.7-0.5,6.1,2.6,6.7
			C1978.1,720.9,1981.9,721.2,1986.9,721.2z M1982.6,633.5c-1.5,4.7-3.1,9.4-4.4,14.2c-2.8,10.7-6.2,21.3-4.8,32.6
			c0.1,0.9-0.4,1.5-0.9,2.2c-0.8,0.9,0.5,4.5,1.3,4.2c2-0.7,3.8-1.6,5.7-2.6c1.3-0.7,0.8-2.1,0.8-3.2c0.8-13.6,1.6-27.2,2.4-40.8
			C1982.9,637.8,1983.4,635.7,1982.6,633.5z M1964,669.9c-4.4-14.3-9.8-27.8-19.3-39.3c0.1,0.9,0.4,1.7,0.8,2.5
			c3.6,8.9,8,17.5,10.5,26.8C1957.2,664.6,1959.7,667.6,1964,669.9z M2002.6,652.9c-5.3,7.2-9.5,14.9-12.3,23.4
			c-1.6,4.7-1.6,4.6,3.2,4c1.5-0.2,2.9-0.2,3.2-2.2C1998.2,669.7,2000.5,661.4,2002.6,652.9z"/>
		<path fill="#222222" d="M344.1,363.4c0-1,0-2,0-3c-0.1-4.8,1.2-8.9,5.2-12c0.9-0.7,2.4-1.6,1.8-3c-0.5-1.3-2.1-1.4-3.3-1.5
			c-3.2-0.4-6.4-0.1-8.9,2.2c-1.7,1.6-3.5,1.2-5.1-0.2c-1.6-1.3-2-2.7-1-4.8c1.6-3.3,4-5.5,7.4-6.9c5-2,10.1-3.4,15.4-2
			c4.3,1.2,8.5,3.3,9.3,8.2c0.9,5.6-0.9,10.7-6.1,13.5c-4.9,2.6-6.1,3.9-4.3,11.4c1.3,5.4-0.2,7.3-5.6,7.2c-3.4-0.1-4.6-1.3-4.6-4.6
			C344,366.5,344,364.9,344.1,363.4C344.1,363.4,344.1,363.4,344.1,363.4z"/>
		<path fill="#222222" d="M354.9,381.1c0,2.4-2.7,4.6-5.8,4.7c-2.5,0.1-4.4-1.7-4.5-4.1c-0.1-2.6,2.2-4.6,5-4.6
			C352.6,377.1,354.9,378.8,354.9,381.1z"/>
		<path fill="#222222" d="M675.5,354.5c-3.5-1.7-7.6-1.5-11.5-1.5c-7.4,0-14.6,1-21.5,4c-1.2,0.5-2.5,0.8-3.7,0.1
			c-1.2-0.8-2.6-1.6-2.2-3.4c0.4-1.7,1.7-2.7,3.4-3.2c6.2-2,12.6-2.5,19-3c5.5-0.4,11-0.7,16.5,0.3c1,0.2,1.9,0.5,2.9,0.8
			c1.5,0.5,2.5,1.5,2.3,3.2c-0.2,1.8-1.5,2.3-3.1,2.4C677,354.2,676.4,354.3,675.5,354.5z"/>
		<path fill="#222222" d="M1161.8,415.9c0.3,0,0.5,0,0.8,0c2.1,0.2,4.4,0,4.6,3c0.1,1.7-2.3,3.3-5,3.2c-11.1-0.3-21,3.1-30.2,9
			c-1.4,0.9-2.7,1.5-4.3,0.7c-1.1-0.5-2.2-1.1-2.2-2.5c0-1.7,1-2.8,2.5-3.6c5.7-3.3,12-5.1,18.3-6.9
			C1151.4,417.3,1156.4,415.9,1161.8,415.9z"/>
		<path fill="#222222" d="M1642.1,370.9c-2.6-0.1-5.1,0.2-7.6,0.5c-2.6,0.4-4.9-1.1-4.7-3.2c0.2-2.4,2.1-2.9,4.1-3
			c10.3-0.4,20.3,1.2,30.1,4.1c1.7,0.5,3.2,1.2,4.6,2.3c1,0.8,1.6,1.8,1.1,3.1c-0.5,1.3-1.5,1.7-2.9,1.5c-1-0.2-2.1-0.2-2.9-0.6
			c-6-3.4-12.6-4-19.1-4.7C1644,370.8,1643,370.9,1642.1,370.9z"/>
	</g>
</g>
</svg>
