<?xml version="1.0" encoding="utf-8"?>
<!-- Generator: Adobe Illustrator 18.0.0, SVG Export Plug-In . SVG Version: 6.00 Build 0)  -->
<!DOCTYPE svg PUBLIC "-//W3C//DTD SVG 1.1//EN" "http://www.w3.org/Graphics/SVG/1.1/DTD/svg11.dtd">
<svg version="1.1" xmlns="http://www.w3.org/2000/svg" xmlns:xlink="http://www.w3.org/1999/xlink" x="0px" y="0px"
	 viewBox="0 0 764.9 330" enable-background="new 0 0 764.9 330" xml:space="preserve">
<g id="_xFFFD__x83__x8C__xFFFD__x99__xA0_影像_1_">
</g>
<g id="_xFFFD__x9C__x96_撅_xFFFD__8_xA0_影像_1_">
	<g>
		<path fill="#369EBB" d="M262.1,148c4.2,0.1,8.1,0.7,12.1,2.3c7.2,2.8,14.7,5,22.7,3c1.6-0.4,3.4-0.2,5.2-0.1
			c10.3,0.6,20.3-0.4,30.1-3.7c4.9-1.7,9.9-3,15-3.9c11.6-1.9,22.7,0.1,33,5.5c6.2,3.2,10.6,8.3,10.9,15.8c0.1,2.7-0.9,5.2-2.1,7.5
			c-6.2,11.8-16.2,18.9-28.5,22.9c-5.9,1.9-9.8,0-10.7-6c-0.8-5.4-3.7-7.1-8.5-7.4c-12-0.9-24-2.4-36.1-3
			c-7.4-0.4-14.9-0.6-22.3-0.5c-3.9,0-5.5,1.4-5.8,5.2c-0.4,5.1-0.7,10.1-1,15.2c-0.1,1-0.2,2-0.4,3c-0.9,4.1-4,5.2-6.9,2.2
			c-7.1-7.6-14.6-14.6-21.9-22c-5-5-7.8-11.2-6.6-18.6c1.7-10.4,9.7-17.2,20.3-17.3C261,148,261.6,148,262.1,148z"/>
		<path fill="#369EBB" d="M387.4,71.1c1.6-0.1,2.9,0.3,3.5,1.9c0.6,1.7-0.5,5.3-2.2,6.3c-2.4,1.3-4.9,2.4-7.3,3.7
			c-3.5,1.9-7,3.8-10.5,5.7c-1.7,0.9-3.6,1.4-5-0.3c-1.5-1.9-0.3-3.5,1.1-5c4.6-5.1,10.1-8.8,16.5-11.3
			C384.8,71.5,386,71,387.4,71.1z"/>
		<path fill="#369EBB" d="M391.9,103.3c-1.7-0.1-2.8-0.8-3.3-2.2c-0.5-1.4,0-2.6,1.1-3.4c4.9-3.2,10.1-5.8,15.7-7.3
			c2.6-0.7,4.9,1.3,7.1,2.4c2,1,1,3.8-1.8,4.8c-5.8,2.1-11.7,4-17.7,5.4C392.6,103.2,392.1,103.3,391.9,103.3z"/>
	</g>
</g>
<g id="_xFFFD__x89__x88__xFFFD__x9C_砌_xFFFD__x8C__xA0_影像_1_">
	<g>
		<path fill="#222222" d="M289.3,128c3.1-0.9,5.8-2.8,8.7-4.2c2.3-1.2,4.3-1.7,6.4,0.5c2,2,2.3,4,1,6.4c-1.2,2.2-2.5,4.4-3.8,6.6
			c-0.9,1.5-0.5,2.3,1.1,2.9c5.1,1.7,10.3,2.1,15.5,0.3c4.3-1.5,8.4-3.3,12.6-5.1c6.7-2.9,13.4-5.7,20.6-6.9
			c2.7-0.4,3.9-1.5,3.6-4.2c-0.2-1.8-0.2-3.8,1.8-4.7c2-1,3.9-0.1,5.6,1.1c0.9,0.6,1.9,1.3,2.3,2.2c2.2,4.8,6.4,6.2,11,7.8
			c7.5,2.7,13.6,7.6,18.7,13.6c8,9.3,6.9,19.6,2.3,29.7c-6.3,13.8-16.8,23.2-32,26.3c-13.6,2.8-26.6,7-39.6,11.8
			c-27,10-50.6,3.1-71.9-14.6c-6.2-5.2-10.8-11.8-13.5-19.5c-3.5-10-3-20.1-0.1-30c2.6-8.8,9-14.3,18.5-15.5c2-0.2,4-0.6,6-0.6
			c4.8-0.1,4.5,0,5.2-4.9c1.1-7.2,3.8-13.6,9-18.8c2.2-2.2,4.8-4,7.8-4.8c4.4-1.2,6.8,1.2,5.5,5.6c-1.3,4.5-2.7,9-3.1,13.8
			C288.4,124.4,287.8,126.2,289.3,128z M336,182.2c2.7,0.2,4.3,0.2,5.9,0.4c2.5,0.4,4-0.6,5.1-2.9c2.3-5,4.2-10,5.3-15.4
			c0.3-1.6,0.8-3.3-1.1-4.3c-3.1-1.7-4.6-4.6-5.9-7.6c-0.9-2.1-2-2.8-4.1-1.6c-1.4,0.8-3,1.3-4.5,1.9c-13.4,5.1-27,8.5-41.5,6.2
			c-3.6-0.6-7.1-1.4-10.6-2.5c-2.8-0.9-3.6,0.3-4,2.6c-0.4,2.9-0.4,5.8-0.2,8.7c0.8,9.7,1.9,10.8,11.5,11.1c7.5,0.2,5.5,0.4,6.5-6
			c0.3-2.1-0.8-3.4-1.9-4.8c-1.2-1.6-1.5-3.3-0.3-5c1.5-2.2,5-2.2,7.9-0.1c3,2.2,3.9,5.2,1.6,7.2c-2.3,2-2.2,4.4-2.3,6.9
			c-0.1,1.4,0.5,2.5,2,2.8c5,0.8,10,1.5,15.1,2.2c1.5,0.2,2.5-0.6,2.5-2.1c-0.1-3.6,1.2-7.1,0.3-10.8c-0.7-3,0.5-4.9,2.8-5.6
			c2.9-0.8,6.5,1.3,7.7,4.6c1,2.6,0.4,3.7-2.8,5.2c-2.2,1-3.4,4.2-2.7,7.3c0.6,2.7,2.8,1.6,4.5,1.8
			C334.1,182.3,335.6,182.2,336,182.2z M302.4,211.2c0.9-0.1,3.1-0.1,5.2-0.4c14.5-2.1,27.5-9.1,41.5-12.7c1.5-0.4,1.8-1.6,1.7-3
			c-0.1-3.5-1.4-5.2-4.9-6.2c-3.2-1-6.5-0.9-9.7-0.9c-8.7,0.1-17.4-0.4-26-2c-8.2-1.5-16.6-1.6-24.9-2.1c-4.4-0.3-5.1,0.4-5.4,4.8
			c-0.3,4.7-0.2,9.4-0.5,14.1c-0.2,3,1,4.6,4,5.4C289.3,209.8,295.1,211.1,302.4,211.2z M359.2,176.7c0.6,0.2,1,0.5,1.3,0.4
			c8.4-2.6,16.7-4,23.9,3.2c0.6,0.6,1.5,0.6,1.9-0.1c2.4-3.5,6-6.6,5.2-11.5c-1.4-8.3-10.5-17.8-18.6-19.7c-1.7-0.4-2.7-0.1-3.3,1.7
			c-1.5,4.1-3.9,7.8-6.9,11c-0.7,0.8-1.5,1.7-1.5,2.8C361.2,168.8,359.9,172.8,359.2,176.7z M247.2,180.6c3.4-3.7,6.1-7.3,10.7-8.8
			c4.4-1.5,8.8-0.5,13.5,0.2c-0.6-5.9-1.2-11.4,0.2-16.7c0.6-2.5-0.7-3.3-2.8-3.6c-4.7-0.7-9.4-0.8-14,0.5c-3.2,1-6,2.8-7.8,5.7
			C243.1,164.4,240.8,171.3,247.2,180.6z M285.7,150.6c5.2,1.7,9.4,2.7,13.7,3c13.4,1,25.9-2.3,38.1-7.5c5.8-2.4,5.8-2.5,4.3-9
			c-4.6,1.3-8.8,3.3-13,5.3c-9.7,4.8-19.6,6.5-29.9,2.4c-1.4-0.5-2.8-0.8-4.2,0.1C292,146.7,289.2,148.4,285.7,150.6z M272.8,146.3
			c-0.1-2.6-1.7-4.4-2.2-6.5c-0.4-1.4-1.3-2.1-2.8-2.1c-4.9-0.2-9.9-0.2-14.4,2c-4.6,2.2-7.2,5.9-8.7,11.5
			C254.9,145.4,259.2,144.7,272.8,146.3z M273.6,182.6c0.3-2.4-0.8-3.1-1.8-3.8c-6.7-4.7-13.1-3.5-18.9,3.7
			c-2.9,3.6-2.8,4.5,0.6,7.6c1.2,1.2,2.3,1.7,3.6,0.1C261.3,185,266.7,182.1,273.6,182.6z M394,159.1c-0.4-10.4-13.3-22.8-23-23.2
			c-0.2,6.5-0.2,6.5,5.4,8.5c3.4,1.2,6.6,3,9.3,5.4C388.6,152.2,390.9,155.2,394,159.1z M265,199.2c2-3.7,4.3-6.4,7.9-7.8
			c0.9-0.3,1.5-1.1,1.3-2.1c-0.2-1.5-1.5-1.3-2.6-1.3c-4.4-0.2-7.4,2.2-10.1,5.3c-1.6,1.8-1.3,3.2,0.7,4.3
			C263,198,263.7,198.4,265,199.2z M365.2,193.6c-2-2.8-4.4-4.2-7.4-4.4c-0.9-0.1-1.8,0.1-1.9,1.4c-0.3,3.4,1.9,5.6,5.2,4.9
			C362.4,195.1,364,195.3,365.2,193.6z M369.7,180.8c3,2.4,5.8,3.6,7.4,5.9c0.8,1.2,1.7,1.1,2.7,0.4c1.4-1.1,1-2.2,0-3.2
			C377.3,181.3,374.4,180,369.7,180.8z M273.7,197.2c-2.1,0.5-2.9,2-3.4,3.7c-0.5,1.9,1.2,2.4,2.5,2.7c1.5,0.4,1.7-0.8,1.7-2
			C274.5,200.2,275.1,198.5,273.7,197.2z M365.9,186c1.9,2.1,3.2,3.6,4.6,5.1c0.7,0.8,1.6,0.9,2.3,0.1c0.7-0.9,0-1.6-0.7-2.2
			C370.5,187.8,368.9,186.5,365.9,186z M354.5,135.5c0-1-0.3-1.8-1.5-1.5c-0.8,0.1-1.2,0.6-1,1.5c0.2,0.8,0.6,1.7,1.7,1.6
			C354.6,136.9,354.4,136,354.5,135.5z"/>
		<path fill="#222222" d="M450.4,126c0.5-3.1,0.8-5.6,1.4-8.1c1.1-4.5,3-8.7,7.6-10.7c2.1-0.9,2.2-2.6,2.5-4.4
			c1.4-9.2,3.2-18.2,5.6-27.2c1-3.6,2.9-5.2,6.3-5.6c0.9-0.1,1.8-0.3,2.7-0.4c9.3-0.8,11.2,0.6,12,9.9c0.5,6.3,1.7,12.6,2.6,18.9
			c0.4,2.7,1.2,4.3,4.4,5.2c6.7,1.8,9.8,7.2,11,13.6c1.1,6.2-0.8,11.5-5.8,15.4c-1.3,1-2.7,2-4.2,2.5c-10.6,3.7-21.4,5.7-32.6,2.7
			c-2.9-0.8-5.7-2.2-8.7-3.4c-0.7,5.2,0.6,10,1.1,14.8c0.9,9.4,2.1,18.8,3.2,28.1c0.6,5,0.7,5.1,5.6,5.9c7.7,1.3,13.6,4.7,16.2,12.6
			c1.2,3.7,1.3,7.5,0.7,11.3c-1.2,8.5-2.6,16.9-3.1,25.4c-0.2,2.5-1.4,4-3.3,5.3c-4.2,3-8.8,5.1-13.8,6.3
			c-14.3,3.5-28.7,4.3-43.2,1.7c-6.9-1.2-13.3-3.8-18.9-8.1c-3.8-2.9-6-6.4-5.8-11.6c0.4-7.6-0.4-15.2,1.9-22.7
			c2.7-8.8,7.8-15.1,16.9-17.5c2.3-0.6,2.7-1.9,2.8-3.9c1.1-14.7,2.3-29.3,3.5-44c0.2-2,0.4-4,0.6-6c0.5-5.2,3-7.7,8.3-8.3
			c3.8-0.4,7.6-0.5,11.4-0.3C443.1,123.9,446.6,125.1,450.4,126z M423.4,155c-1.8,17-2.7,33.4-2.9,49.9c0,2.2,1.1,3.3,3,4
			c10.3,4.2,20.7,5.2,31.2,0.7c3.6-1.5,3.7-1.7,3.1-5.7c-2-12.5-4-25.1-5.4-37.7c-0.4-3.7-0.8-7.5-1.2-11.6
			C441.9,157.1,432.9,158.9,423.4,155z M431.1,228.6c9.7,0.2,19.2-1.5,28.4-4.5c10.4-3.3,17.4-12,17.2-21.4
			c-0.1-7.7-4.4-12.6-12-13.7c-3.2-0.4-3.6-0.2-3.1,3.1c0.6,4.9,1.6,9.7,2.2,14.5c0.6,4.4,0.3,4.7-3.7,6.7
			c-13.1,6.6-26.2,5.8-39.4,0c-4.2-1.8-6.1-4.7-5.9-9.3c0.2-3.4,0.1-6.9,0.1-10.3c0-2.5-1.3-2.7-3.2-1.9c-1,0.4-2,1-2.8,1.6
			c-6.4,4.7-9.1,11.3-8.5,19c0.6,7.2,5.8,11,12,13.5c2,0.8,4.2,1.3,6.3,1.7C422.8,228.4,426.9,228.7,431.1,228.6z M399.9,225
			c-1.2,3.9,0.3,6.2,2.7,8.1c4.1,3.2,8.7,5.2,13.7,6.5c9.8,2.6,19.7,2.8,29.7,1.7c7-0.8,14.1-1.7,20.6-4.7c6.9-3.1,7.8-4.9,6.5-13.6
			c-3.4,2.3-6.5,4.9-10.4,6c-4,1.2-8,2.6-12.1,3.2C433.2,234.9,415.7,237,399.9,225z M460.5,112.9c-7.2,9.6-4.7,17.3,5.4,19.7
			c9.5,2.3,18.7,0.3,27.8-2.5c1.5-0.5,2.9-1.5,4.1-2.6c5.9-5.3,3.5-15.8-4.2-18.2c-0.9,1.8,0.2,3.6,0.4,5.3c0.4,2.8-0.3,4.6-3.1,6
			c-7.4,3.9-14.9,4.2-22.7,2.2C463.8,121.6,460.1,119.5,460.5,112.9z M468.6,97.1c-1.7,5.7-1.6,11-2.3,16.2c-0.2,2,0.7,3.1,2.4,3.7
			c5.5,1.9,11,2,16.5,0c1.9-0.7,3.1-1.9,2.6-4.1c-1-5.1-1.2-10.4-2.8-15.6C479.6,99.1,474.3,99.8,468.6,97.1z M449,135.2
			c-6.8,3-13.7,3.1-20.6,2.8c-3.8-0.2-4,0-4.1,3.8c-0.2,4,0.5,5,4.6,5.9c5.6,1.2,11.1,1.4,16.8,0.2c4.6-1,4.9-1.3,4.3-6.2
			C449.7,139.7,450.1,137.7,449,135.2z M477.9,90.2c5.6-0.1,7.1,0,5.8-5.5c-0.3-1.4-0.3-2.9-0.4-4.3c-0.4-5.4-1.3-6.1-6.7-5.6
			c-2.5,0.2-4,1.3-4.5,3.8c-0.3,1.6-0.6,3.2-1.2,4.7c-1.5,4,0.1,5.2,3.6,6.3C475.9,90,477.3,90.1,477.9,90.2z M443.4,130.5
			c-4.8-2.2-9.8-2.2-14.8-1.4c-1.2,0.2-2.4,0.6-2.2,1.9c0.1,1.3,1.5,1.4,2.6,1.5C433.9,132.6,438.8,132.9,443.4,130.5z"/>
		<path fill="#222222" d="M195.1,132.6c-1.1-0.4-1.8,0.2-2.6,0.6c-10.7,5.7-21.1,12.1-31.1,19c-3.1,2.1-4.3,4.4-4.1,8.1
			c0.2,4.9,0,9.8-0.2,14.7c-0.1,2.1,0.6,3.2,2.7,4c6.5,2.7,11,7.4,11.1,14.8c0.1,7.9-4.3,13.6-11.3,16.6c-9.8,4.2-19.7,3-28.7-2.6
			c-7.3-4.5-10.1-20-0.6-26.5c2.6-1.7,2.9-3.8,2.9-6.4c-0.4-20,1.5-39.9,2-59.9c0.1-4.5,0.9-5.4,5.6-5.3c3.4,0.1,5.8-1.2,8.4-3
			c14-9.8,28.5-18.7,43.8-26.5c6.4-3.3,12.6-4.1,19.3-4c5.4,0.1,7,1.6,6.6,6.9c-1.2,17.4-0.8,34.9-1.8,52.3c-0.2,3.4-0.1,6.2,4,7.7
			c3.3,1.2,5.2,4.4,6,8c2.1,9.4-0.2,19-12.3,22.6c-5.9,1.7-11.7,2.1-17.7,0.5c-7-1.9-11.4-6.4-12.6-13.5c-1.2-7.2,1.8-12.8,8.3-16.3
			c1.8-1,2.8-2.1,2.7-4.2C195.2,137.5,195.9,135,195.1,132.6z M151.5,152.2c-0.1-9.6,0.8-19.2,1.2-28.9c0.3-8,0.3-8-7.8-8.2
			c-4.5-0.1-4.8,0-4.8,4.3c-0.1,20.9-2,41.7-1.3,62.7c0.3,7.9,0.2,8,7.9,7.4c4.7-0.3,4.8-0.4,4.8-5.2
			C151.6,173.7,151.5,162.9,151.5,152.2z M158.1,147.6c1.6-0.2,2.7-1.2,3.8-2c8.4-6.1,17.2-11.4,26.3-16.4c1.4-0.8,2.8-2.1,4.4-1.8
			c2.8,0.4,2.9-1.1,2.8-3.1c-0.2-11.3-0.3-22.5-0.4-33.8c0-0.7,0-1.5-0.1-2.2c-0.2-1.4-1.1-1.8-2.3-1.4c-1,0.4-2,0.8-3,1.3
			c-11.4,6-22.5,12.6-33.2,19.8c-0.7,0.5-1.6,0.9-1.8,1.9c3.9,3.2,3.9,3.2,3.7,8.6c-0.1,2.4-0.3,4.7-0.3,7.1
			C158.1,132.7,158.1,140,158.1,147.6z M200.6,117.8c0.1,0,0.3,0,0.4,0c0,4.7,0,9.4,0,14.1c0,6.3,0,12.7-0.2,19
			c0,2.4,0.9,3.3,3.3,2.8c0.9-0.2,1.8-0.3,2.7-0.3c2.9-0.1,4-1.5,4.1-4.5c0-5.4,0.6-10.9,0.7-16.3c0.5-15.2,0.9-30.4,1.5-45.6
			c0.2-4.7,1.5-5.9-5.3-5.7c-0.5,0-1.1,0.1-1.6,0.1c-5.7,0.3-5.7,0.3-5.7,6C200.6,97.5,200.6,107.6,200.6,117.8z M132.7,186.7
			c-4.8,4.6-3.9,13.7,2.2,17c6.4,3.5,13.4,4.2,20.5,2.3c3.1-0.8,5.5-2.8,7.4-5.3c4.7-6,2.4-13.2-5.1-15.8c-1,0.8-0.6,2-0.7,3
			c-0.6,5.2-1.8,6.3-7.2,7c-3.4,0.4-6.9,0.8-10.3,0.6c-4.7-0.3-5.6-1.1-6.1-5.7C133.3,188.7,133.5,187.6,132.7,186.7z M195.3,148.9
			c-4.8,2.8-6.2,6-5.7,10.1c0.5,4.3,2.8,7.4,6.9,9c5.5,2.1,11,1.9,16.5,0.1c7.6-2.5,10.6-7.8,8.5-15.7c-0.6-2.1-1.5-4.8-3.9-4.4
			c-2,0.4-1.3,3.1-0.9,4.8c0.6,2.7-0.6,4.1-3.1,4.8c-4.2,1.2-8.5,2-12.8,2.2c-4.1,0.2-5.2-0.9-5.5-4.9
			C195.3,153.2,195.3,151.6,195.3,148.9z"/>
		<path fill="#222222" d="M388.6,68.2c4.1,0,7.3,1.9,8.2,5c1,3.6-0.5,6.4-3.3,8.6c-1.9,1.4-3.9,2.7-5.9,3.8
			c-3.2,1.7-6.4,3.4-9.7,4.9c-6.6,3.1-12.7,6.9-17.3,12.8c-1.3,1.6-2.9,3.8-5.4,2.4c-2.5-1.5-1.2-4-0.4-5.9
			c5-12.1,12.8-21.8,24-28.7C381.8,69.4,385,68.2,388.6,68.2z M368.1,87.9c0.3,0.3,0.5,0.7,0.8,1c6.3-3.2,12.6-6.4,18.7-9.7
			c1.6-0.9,4.4-1.8,3.2-4.2c-1-2.2-3.5-1.1-5.4-0.5C378,76.9,372.9,82.2,368.1,87.9z"/>
		<path fill="#222222" d="M417.8,93.8c-0.1,2.2-1.3,3.7-2.9,5c-3.1,2.7-6.8,4.6-10.7,4.9c-8.3,0.8-15.8,3.5-23.1,7.1
			c-1.3,0.6-2.3,1-3.4-0.1c-1-1-1.3-2.3-0.7-3.5c0.7-1.5,1.5-2.9,2.5-4.2c7.8-9.2,18-13.8,29.9-14.8c1.8-0.2,3.6,0.2,5.3,0.9
			C416.8,90,417.8,91.8,417.8,93.8z M393.3,99.2c5.7-0.8,11.8,0.2,17.5-5C403.6,93.9,398.3,95.9,393.3,99.2z"/>
		<path fill="#222222" d="M491.9,169.4c-1.5-0.2-4.2,1.2-4.2-2.6c0-1.7,0.5-2.8,2.4-2.9c5.4-0.3,10.8-0.6,16.3-0.9
			c1.4-0.1,2.5,0.4,2.5,2.1c0,1.7-0.2,3.3-2.5,3.4C501.7,168.7,497,169,491.9,169.4z"/>
		<path fill="#222222" d="M544.2,167.2c-2.7,0-5.4,0-8.1,0c-1.8,0-2.5-0.9-2.4-2.7c0.1-1.7,0.8-2.8,2.5-2.8
			c5.6,0.1,11.1,0.2,16.7,0.3c1.5,0,2.2,0.9,2.1,2.4c-0.1,1.6-0.2,2.9-2.2,3c-2.9,0-5.8,0-8.6,0
			C544.2,167.3,544.2,167.2,544.2,167.2z"/>
		<path fill="#222222" d="M583.6,167.5c-0.9,0-2.9,0-4.9,0c-1.7,0-2.7-0.6-2.7-2.5c0-1.7,0.7-2.8,2.5-2.9c5.2-0.3,10.4-0.7,15.7-1
			c1.4-0.1,2.5,0.3,2.5,2c0.1,1.7,0,3.3-2.3,3.5C591.2,166.8,587.9,167.1,583.6,167.5z"/>
		<path fill="#222222" d="M621.7,167.5c-0.8,0-2.2,0-3.7,0c-1.7,0.1-2.8-0.4-2.7-2.4c0.1-1.6,0.2-2.9,2.2-3c4.7-0.3,9.3-0.6,14-0.9
			c1.7-0.1,2.7,0.7,2.8,2.5c0.1,1.6-0.5,2.8-2.3,3C628.8,166.8,625.6,167.1,621.7,167.5z"/>
		<path fill="#222222" d="M313,193.6c3.7-0.1,7.2,0.7,10.5,2.3c1.4,0.7,2.4,1.8,1.7,3.5c-0.6,1.7-2.1,2-3.6,1.4
			c-6-2.8-12-2.1-18.1-0.7c-0.5,0.1-1.1,0.2-1.6,0.2c-1.2,0-2.2-0.5-2.5-1.7c-0.3-1.2,0.4-2.1,1.4-2.7c2.1-1.3,4.5-1.3,6.8-1.8
			C309.4,193.8,311.2,193.8,313,193.6z"/>
		<path fill="#222222" d="M188.9,116c0.1,8.8-6.4,16.2-14.3,16.3c-7.3,0.1-14.1-7.7-13.9-16c0.2-9.3,6.4-13.6,13.1-13.8
			C182.8,102.1,188.9,107.8,188.9,116z M166.4,114.1c-0.4,5.4,1.4,9.8,4.7,11.6c2.8,1.5,5.4,1.4,7.9-0.9
			C176.4,121.3,171.3,117,166.4,114.1z M182.5,119.1c1.8-7.4-3.3-12.6-10.1-10.8c-1.3,0.3-2,1.2-0.9,2.3
			C175,113.6,178.2,116.9,182.5,119.1z"/>
	</g>
</g>
<g id="_xFFFD__x9C__x96_撅_xFFFD__2_xA0_影像_1_">
</g>
</svg>
