<?xml version="1.0" encoding="utf-8"?>
<!-- Generator: Adobe Illustrator 23.0.1, SVG Export Plug-In . SVG Version: 6.00 Build 0)  -->
<svg version="1.1" id="Layer_1" xmlns="http://www.w3.org/2000/svg" xmlns:xlink="http://www.w3.org/1999/xlink" x="0px" y="0px"
	 viewBox="0 0 764.9 330" style="enable-background:new 0 0 764.9 330;" xml:space="preserve">
<style type="text/css">
	.st0{fill:#369EBB;}
	.st1{fill:#222222;}
</style>
<g id="_xFFFD__x83__x8C__xFFFD__x99__xA0_影像_1_">
</g>
<g id="_xFFFD__x9C__x96_撅_xFFFD__8_xA0_影像_1_">
	<g>
		<path class="st0" d="M333.1,148.8c-8-0.9-16.8-1.7-25.5-2.9c-17.9-2.4-35.7-5.3-53.4-8.6c-6.9-1.3-13.6-3.4-19.4-7.5
			c-1-0.7-1.7-0.7-2.6,0.2c-0.9,0.9-2.1,0.7-3,0.1c-2.1-1.3-3.9-3-5.2-5.1c-1.1-1.8-0.3-3.4,2-4.1c1.6-0.5,2.6-0.8,1.9-3.1
			c-0.9-2.7,1.3-4.6,4.1-3.9c1.6,0.4,3,1.2,4.5,2c17.3,9.5,35.7,15.4,55.4,17.5c3.9,0.4,7.8,0.6,11.6,1.3c4,0.8,7.9,1.7,12,2.2
			c5,0.6,10.1,0.7,15.1,1.9c0.6,0.1,1.3,0,1.9-0.2c4-1.5,8.2,0.5,9.7,4.6c0.8,2.2-0.2,4.1-2.5,4.9c-0.7,0.2-1.4,0.4-2.1,0.4
			C336.3,148.7,335.1,148.7,333.1,148.8z"/>
		<path class="st0" d="M365,90.2c-2.8,1.2-5.2,2.3-7.5,3.4c-6.3,2.7-10.3,0.8-12.4-5.7c-0.2-0.6-0.4-1.1-0.7-1.9
			c-2,1.7-3.6,3.6-5.9,4.6c-6.2,2.7-11.6,0.7-13.9-5.6c-1.1-2.9-1.8-2-3.2-0.5c-2,2.3-4,4.4-6.9,5.6c-5.6,2.2-11.3,0.1-14.5-5.6
			c-2.2-3.9-2.3-4-5.3-0.4c-3.5,4.2-7.5,6.9-13.2,5.3c-3.4-1-5.9-3.2-7.6-6.2c-1.1-2-2.1-1.6-3.2-0.1c-0.7,1-1.1,2.1-1.5,3.2
			c-1.3,4.2-3.3,5.7-7.8,5.8c-2.4,0.1-4.9,0-7.3,0.3c-2.6,0.3-3,1.6-1.3,3.6c0.6,0.7,1.3,1.3,1.9,2c1,1.1,1.1,2.3,0.2,3.5
			c-0.9,1.2-2.1,1.2-3.4,0.5c-3.3-1.7-5.5-5.9-5.1-9.6c0.3-2.6,2.4-4.5,5.6-5.2c2.9-0.6,5.8-0.6,8.7-0.6c1.8,0,2.8-0.6,3.3-2.5
			c0.8-3.2,2.7-5.7,5.4-7.6c2.6-1.8,4.9-1.7,7.1,0.6c1.1,1.2,2,2.6,3,3.9c2.8,3.7,6.5,4,9.6,0.7c1.6-1.6,3-3.5,4.6-5
			c3.3-3.1,6.9-2.6,9.4,1.2c0.8,1.2,1.3,2.6,2.1,3.8c2.3,4,6.2,4.6,9.6,1.5c1.5-1.4,2.9-3,4.4-4.5c4.3-4.2,8.3-3.3,10.3,2.3
			c0.1,0.2,0.1,0.3,0.2,0.5c1.9,5.3,5.1,6,9.1,2c1-1,1.8-2.1,2.8-3c2.9-2.6,5.8-2.1,7.7,1.2c0.6,1,0.9,2.8,1.6,2.9
			c1.7,0.3,3.6,0.2,5.3-0.3c1.8-0.5,3.3-1.1,4.7,0.6c0.7,0.8,1.6,0.1,2.3-0.1c2.5-0.7,4.7-0.4,6.5,1.5c1.9,2,1.9,4.5,1,6.9
			c-1.8,4.6-4.6,8.8-5.5,13.9c-0.3,1.5-1.7,2.2-3.2,1.8c-1.8-0.5-2.3-2-2.1-3.6c0.4-3.9,2-7.3,3.8-10.7
			C364,93.3,364.8,92.2,365,90.2z"/>
		<path class="st0" d="M390.4,171.7c0.2-3.2-0.2-6.7-1.3-10c-0.6-1.7-0.6-3.4,1.4-4.1c2.1-0.7,3.1,0.8,3.7,2.6
			c2.5,7.5,2.2,15.1,0.9,22.6c-3.9,22.7-14.9,41.8-29.4,59.3c-0.4,0.5-0.9,1-1.4,1.3c-1.3,1-2.7,1.3-4,0.1c-1.4-1.2-1.2-2.7-0.1-4.1
			c2.5-3.1,5.1-6.2,7.4-9.4c9.9-13.5,17.3-28.3,21.2-44.7C390,181,390.6,176.5,390.4,171.7z"/>
	</g>
</g>
<g id="_xFFFD__x89__x88__xFFFD__x9C_砌_xFFFD__x8C__xA0_影像_1_">
	<g>
		<path class="st1" d="M289.4,271.8c-6.5-0.8-16.7-0.4-26.8-0.3c-8.1,0.1-15.1-2.5-21.3-7.1c-21.5-16.1-36.5-37-42.6-63.3
			c-4.6-20-1.2-39.5,8.4-57.5c8.7-16.2,19.6-30.6,35.2-40.9c2.1-1.4,2.7-2.5,1.5-5.2c-2.1-5.1,0.6-9.9,6-11.4
			c2.1-0.6,4.3-0.9,6.4-0.9c2.6,0,3.9-1,4.7-3.5c1-3,2.9-5.4,5.5-7.3c5.1-3.7,10-2.9,13.8,2.1c0.8,1,1.3,2.2,2.2,3.1
			c2.4,2.8,3.6,2.8,6-0.1c1.2-1.4,2.2-2.9,3.6-4.1c5.6-5.2,11.4-4.4,15.4,2.1c0.5,0.8,0.8,1.6,1.4,2.3c1.7,2.2,2.8,2.3,4.9,0.3
			c0.9-0.9,1.7-1.9,2.5-2.9c1.3-1.6,2.8-2.9,4.6-3.8c5.4-2.8,9.7-1.9,12.4,3.5c2.7,5.3,3.9,6,7.9,1.4c0.7-0.8,1.7-1.4,2.6-2
			c4.6-2.6,8-1.7,10,3.2c1.1,2.8,2.2,3.8,5.1,2.1c1.9-1.1,4.2-1.2,6.4-1c4.4,0.3,7.6,2.3,9.1,6.6c1.4,4.2,0.4,7.9-2.6,11
			c-0.7,0.8-1.8,1.3-2.5,2.1c-2,2.2-1.9,4.8,0.5,6.5c3.7,2.7,7.3,5.4,10.5,8.6c1.4,1.4,2.6,1.6,4.3,0.5c2.1-1.4,4.3-2.7,6.7-3.7
			c3.5-1.5,5.7-0.7,6.9,2.9c2.8,8.3,4.7,16.8,4.1,25.6c-0.2,2.3-0.1,4.3,0.7,6.3c8.5,22.7,7.1,45.4-1.8,67.5
			c-6,15-15.2,28-27.1,39.2c-6.4,6-14.2,10.1-21.1,15.4c-1.1,0.8-2.4,0.8-3.6,1C330.5,272.5,311.8,272.4,289.4,271.8z M292.2,266.3
			c13.6-0.2,27.6,0.9,41.6-0.4c18.9-1.7,19-1.3,33.4-14.1c17.3-15.4,29.2-34.1,33.8-57.1c2.5-12.5,2-24.9-0.5-37.3
			c-0.6-3.1-1.9-5.2-5.3-5.9c-3.2-0.7-6.2-1.9-9.4-2.9c-2.5-0.8-4.9-1.7-6.4,1.7c-0.5,1.2-2,1.5-3.3,1.8c-4.6,1-9.2,2.1-13.5,4.1
			c-2,0.9-4,0.9-5.1-1.4c-1.2-2.5-2.7-1.8-4.4-0.7c-1.2,0.8-2.4,1.7-3.5,2.5c-6.1,4.7-6.6,4.6-10.5-2.1c-1.2-2.1-2.3-3.4-5.1-2.6
			c-2.2,0.6-4.7,0.5-7,0.5c-23.4,0.2-46.3-3.2-68.8-9.6c-11.5-3.3-23.4-5.3-33.7-12.1c-1.7-1.1-2.6-0.3-3.5,1
			c-3.2,4.6-6.4,9.3-8.9,14.3c-13.5,27.3-13,54.1,3,80.4c7,11.5,15.2,21.6,25.4,30.3c6.5,5.5,13.3,9.2,22,9.1
			C272.3,265.9,282.1,265.5,292.2,266.3z M347.4,80.7c-2.7,0.6-4,3-6,4.5c-3.8,2.8-7.7,2.3-10.5-1.3c-0.8-1-1.3-2.2-2-3.3
			c-2.3-3.9-4.2-4.2-7.6-1.1c-0.7,0.6-1.2,1.4-1.8,2c-6.7,7.8-11.1,7.5-16.9-1.2c-2.2-3.3-4.2-3.6-7-0.9c-1.6,1.5-2.7,3.4-4.2,5
			c-3,3.4-5.7,3.8-9.7,1.6c-2.5-1.4-4-3.6-5.5-5.9c-2.5-3.7-4.8-3.8-7.9-0.8c-1.2,1.2-2.2,2.5-2.4,4.2c-0.5,4.9-3.9,6-8,6.4
			c-2.2,0.2-4.4,0.1-6.4,0.9c-1.5,0.5-2.7,1.3-2.8,3c-0.1,1.8,1.1,2.6,2.6,3c5,1.5,7.9,4.4,8.7,9.9c0.5,3.6,2.7,4.3,6,2.5
			c2.1-1.1,3.9-2.6,5.9-3.9c6.8-4.3,10.4-3.4,14.8,3.4c0.2,0.3,0.3,0.6,0.5,0.9c2.9,4.2,7.1,5.1,11.3,2.2c1.6-1.1,3.1-2.5,4.6-3.8
			c6.9-5.8,12-5.5,18.2,1.1c2.5,2.7,3.9,2.9,7,0.7c2.1-1.5,3.9-3.3,5.9-4.8c5.3-4,9.5-4,14.9-0.2c0.9,0.6,1.7,1.3,2.7,1.9
			c5.4,3.2,9.1,1.6,10.2-4.6c0.6-3.2,1.4-5.9,4.5-7.6c2.4-1.4,2.8-3.7,1.9-6.2c-0.7-2-3.4-3.1-6.1-2.3c-1.7,0.5-3.3,1.5-5,2.1
			c-4,1.5-6,0.6-7.8-3.3C349,83.5,349.2,81.6,347.4,80.7z M377,120.1c-2.5-3.6-6.1-6.1-9.5-8.7c-1.4-1-2.5-0.8-3.9,0.2
			c-5.1,3.9-10.2,2.8-15.2-0.3c-7.2-4.6-7.2-4.6-13.4,0.9c-0.5,0.5-1.1,1-1.6,1.4c-6.7,5.4-11.1,5-16.8-1.4c-2.6-3-4.6-3.3-8-0.8
			c-2.5,1.8-4.7,4.1-7.2,5.8c-6.5,4.2-14.3,2.4-18.6-4.1c-0.4-0.6-0.7-1.3-1.1-1.9c-2-3-2.6-3.2-5.7-1.5c-2.8,1.6-5.4,3.7-8.3,5.2
			c-5.5,2.7-10.6,0.5-12.7-5.2c-0.5-1.4-0.6-2.9-1.1-4.2c-0.8-2-2.2-3.1-4.2-1.6c-4.1,2.9-8.5,5.5-12.1,9.4c1.4,1.7,3.2,2.2,4.8,3
			c6.5,3.4,13.6,5.2,20.5,7.4c20.5,6.5,41.2,12.1,63,10.4c2.7-0.2,5.7,0.6,7.9-1.2c2.1-1.6,0.8-4.4,1.2-6.7c0.6-3.6,2.2-5.1,5.9-4.9
			c2.4,0.1,4.8,0.3,7,0.9c6.1,1.7,12.1,3.4,18.5,1.4c1-0.3,2.2-0.2,3.3,0C372.8,124.1,375.2,123,377,120.1z M321.8,146.8
			c3.3-0.1,7.3,0.4,11.3-0.4c2.1-0.5,3.1-1.4,2.8-3.7c-0.4-2.2-0.7-4-3.6-3.5c-1.6,0.2-3.3,0.2-4.9,0.3c-13.3,1-26.5,0.1-39.4-3.2
			c-18.1-4.5-36.2-9.2-52.9-18c-1.5-0.8-2.7-0.8-3.8,0.6c-1.3,1.5-2.6,3.1-3.9,4.6c-1.3,1.5-0.8,2.6,0.7,3.5
			c2.5,1.6,5.1,2.7,7.9,3.7c8.2,3.2,16.7,4.8,25.1,7.1C280.7,143.2,300.7,146.4,321.8,146.8z M377.3,140.1c-0.4-3.2-0.4-6.9-2.7-10
			c-0.7-0.9-1.5-1.7-2.7-0.9c-0.9,0.6-0.8,1.5-0.3,2.4c1.2,2.1,1.5,4.4,1.9,6.8c0.6,3.1-0.3,4.8-3.4,5.7c-1.7,0.5-4.7,0.8-3.5,3.5
			c1,2.2,3.3,0.4,4.8-0.1C376.7,145.8,377.5,144.8,377.3,140.1z M383.3,137c-0.1-2.9-0.5-5.8-1.7-8.5c-0.6-1.2-0.9-3.1-2.9-2.3
			c-1.6,0.6-1.1,2.1-0.6,3.3c1.2,2.9,1.5,5.9,1.5,9c0,1.2-0.1,2.8,1.7,2.8c1.8,0.1,1.7-1.5,1.9-2.7
			C383.4,138.1,383.3,137.6,383.3,137z M356.7,137.9c-0.1,0-0.1,0-0.2,0c0-2,0-4,0-6c0-0.8-0.6-1.4-1.4-1.5s-1.5,0.4-1.6,1.1
			c-0.8,4.1-0.9,8.3-0.2,12.4c0.1,0.8,0.8,1.3,1.6,1.2c0.7-0.1,1.4-0.6,1.5-1.4C356.6,141.9,356.6,139.9,356.7,137.9z"/>
		<path class="st1" d="M532.6,170.6c-36.7,0-73.6,0-110.3,0c-1.5,0-3,0-4.6-0.2c-1.3-0.2-2.3-1.1-2.2-2.9c0.1-1.6,1-2.2,2.2-2.3
			c1.9-0.2,3.6-0.3,5.5-0.3c46.1-0.1,92.2-0.2,138.3-0.2c27.3,0,54.5-0.1,81.8-0.1c1.3,0,2.8,0,4.1,0.2c1.1,0.2,1.9,1.1,2,2.6
			c0,1.5-0.8,2.4-1.9,2.6c-1.5,0.2-3,0.3-4.6,0.3c-36.7,0-73.6,0-110.3,0C532.6,170.4,532.6,170.5,532.6,170.6z"/>
		<path class="st1" d="M149.9,171c-11.3,0-22.5,0-33.8,0c-1.1,0-2.2,0-3.3,0c-1.8,0-3.5-0.6-3.4-2.7c0.1-1.9,1.7-2.7,3.5-2.8
			c0.7,0,1.5-0.1,2.2-0.1c23.4-0.5,46.9-1,70.3-1.4c1.3,0,2.5,0,3.8,0.1c1.4,0.2,2.3,1.1,2.3,2.5c0,1.2-0.8,2.1-1.9,2.4
			c-1.4,0.3-2.9,0.4-4.3,0.4c-11.8,0.3-23.6,0.5-35.4,0.8C149.9,170.6,149.9,170.8,149.9,171z"/>
		<path class="st1" d="M273.3,219c-2.3,0.5-3.1,2.3-3.7,4.2c-0.6,1.5-0.9,3.1-1.5,4.7c-0.6,1.6-1.6,3-3.7,2.2
			c-1.7-0.7-1.8-2.3-1.3-3.7c1.5-4.9,2.6-10,7.8-12.5c2.7-1.2,3.1-3.3,2.6-5.8c-0.2-1.3-0.9-1.9-2.3-1.5c-2.8,0.7-5,2.1-6.2,4.8
			c-1,2.3-2.2,4.6-3.4,6.8c-0.8,1.4-2,2.2-3.6,1.4s-1.7-2.2-1-3.7c2.8-6.6,5.5-13.3,13.9-14.6c0.7-0.1,1.4-0.5,2-0.9
			c1-0.9,1.2-1.9-0.3-2.4c-1.7-0.5-3.5-0.6-5.4-0.4c-7.5,0.8-16.8-6.8-17.5-14.1c-0.2-2.2,0.7-3.9,3.1-3.1c2.9,1,3-0.8,3.2-2.6
			c0.2-1.7,0.4-3.3,2.5-3.7c1.8-0.3,3.1,0.7,4.2,2c2.7,3.1,4.2,6.8,5.3,10.7c0.6,2.1,1.5,2.8,3.7,3.2c4.3,0.8,8.4,1.6,12.4-1.4
			c1.8-1.3,4.4-1.5,6.7-2.1c2.3-0.6,2-2.1,0.7-3.1c-1.5-1.1-3.2-1.9-2.9-4.1c0.3-2,1.5-3.7,2.9-5.1c1-1,2.3-1.3,3.5-0.8
			c1.4,0.5,1.8,1.7,1.7,3.1c0,0.5-0.2,1.1-0.2,1.6c-0.1,5.9,1.3,7.3,7.1,7.4c0.9,0,1.8,0.1,2.7,0c1.2-0.1,2.8,0.6,3.4-0.9
			c0.7-1.8-0.3-3.1-2.1-3.8c-2.4-1-2.4-2.9-1.5-5c1.3-2.8,4.1-5.1,6.1-4.7c1.7,0.3,2.5,1.4,2.4,3.1c-0.1,0.7-0.5,1.4-0.6,2.1
			c-0.4,3,0.7,5.8,2.1,8.3c1.4,2.3,4,1.3,6,1.5c4.7,0.3,9.5,0.4,13.8,2.5c1.3,0.6,2.4,0.3,3.6-0.2c1.5-0.6,3-1.4,4.5-1.8
			c3.7-1.1,6.4-3.1,7.5-7.1c0.5-1.9,1.8-3.6,3-5.1c1.1-1.5,2.6-2.7,4.7-1.6c2,1,3,2.5,2.6,4.9c-0.2,0.8-0.8,1.6-0.3,2.6
			c1.3,0.9,2.3-0.4,3.5-0.6c1.3-0.2,2.6-0.3,3.4,0.9c1,1.4,0.6,2.8-0.2,4.1c-1.3,2.1-3.2,3.5-5.5,4.4c-2.5,1-5.2,1.8-8,1.7
			c-4.4-0.2-8.1,1.8-11.8,3.7c-1.2,0.6-2,1.4-2.2,2.9c-0.6,4.5,0.2,5.5,4.6,4.8c3.6-0.6,6,0.7,7.7,3.7c1.2,2.2,2.4,4.5,3.5,6.7
			c0.9,1.7,1.4,3.7-0.8,4.7c-2.3,1-3.2-0.9-4-2.5c-0.9-1.8-1.9-3.5-2.8-5.3c-0.8-1.6-2-2.6-3.9-2c-2,0.6-4.5,0.3-5.5,2.8
			c-0.6,1.6-0.5,2.9,1.6,3c1.1,0.1,2.2,0.1,3.3,0.3c2.3,0.3,4.2,1.5,4.9,3.8c0.9,2.9,1.7,5.9,2.3,9c0.3,1.5-0.1,3-1.9,3.4
			s-2.7-0.7-3.1-2.3c-0.6-2.1-0.9-4.3-1.6-6.3c-0.8-2.5-4.6-3.7-6.7-2c-1.3,1-1.1,2.5,0.5,2.9c6.4,1.5,5.4,6.9,6.2,11.4
			c0.3,1.8-0.4,3.4-2.4,3.6c-1.7,0.1-2.5-1.2-2.7-2.8s-0.5-3.2-0.7-4.8c-0.2-1.5-1.2-2.4-2.6-2.1c-1.4,0.4-2,2.4-1.5,3.1
			c2.9,3.6,2.4,7.9,2.9,11.9c0.2,1.6,1.2,2.5,2.8,3c3.3,1.1,6.5,2.2,9.8,3.3c1.4,0.5,2.8,1.1,3.2,2.7c0.5,1.8-1.7,3.6-3.9,3
			c-2.6-0.7-5.2-1.6-7.8-2.5c-1.9-0.6-3.6-1.7-5.6,0c-1.2,1-2.6,0.2-3.1-1c-1-2.7-3.4-3-5.7-3.5c-14.9-3.3-29.9-3.7-45-2.1
			c-2,0.2-3.1,1-3.9,3c-1.1,2.7-2.7,2.9-4.3,0.5c-1.5-2.1-2.9-1.7-4.7-1.3c-2,0.5-1.5,2.1-1.7,3.5c-0.1,1.4,0.4,3.2-1.3,3.8
			c-2.1,0.6-4.3,0.4-6.4-0.6c-1.1-0.5-0.9-1.5-0.7-2.4c0.8-2.8,1.1-5.7,1-8.6c0-2.5,1.1-2.8,3.1-1.7c0.6,0.4,1.2,0.9,1.9,1.1
			c1.2,0.3,2-0.1,2-1.7c0.1-5.9,1.2-11.4,5.5-15.9C275,223.1,274.8,222.9,273.3,219z M278.9,211.2c0.1,5.4,0.9,10.8,1.4,16.2
			c0.3,3,1.3,3.6,3.9,2c4.6-2.8,9.5-3.4,14.6-3.2c9,0.5,18.2,0,27,2.6c2.3,0.7,3.9,0.1,4.5-2.4c2.1-8.6,4.5-17.2,4.9-26.1
			c0.3-6-0.7-7.4-6.8-8.1c-11.9-1.4-23.9-1.4-35.8-0.4c-2.9,0.2-5.6,1.2-8.2,2.6c-3.5,1.9-5.6,4.5-5.5,8.6
			C278.9,205.7,278.9,208.5,278.9,211.2z M280.8,239c17.4-1.4,34.4-0.6,51.3,3.1c1-6.6,1-6.6-4.9-7.2c-0.9-0.1-1.8-0.3-2.7-0.5
			c-9.6-2.4-19.4-2.3-29.1-2.6C289.4,231.6,285.4,235.7,280.8,239z M273.6,240.4c1.3-2.3,3.3-4.5,1.7-8.5
			C273.7,235,273.2,237.5,273.6,240.4z"/>
		<path class="st1" d="M238.7,229.8c2.4-4.2,1-7.5-0.7-10.7c-2-3.8-2-7.7-0.4-11.5c0.4-1,1-2,1.7-2.7c1-0.9,2.2-1.3,3.4-0.3
			c0.9,0.8,1.3,1.9,0.6,2.9c-2.8,4.1-1.7,7.9,0.4,11.7c1.4,2.4,1.6,5.2,1.5,7.9c-0.1,1.3,0.5,2.2,1.9,2c1.6-0.1,1.5-1.4,1.2-2.4
			c-0.5-1.6-1.1-3.1-1.7-4.6c-0.9-2.3-1.1-4.6-0.2-6.9c0.5-1.3,1.4-2.2,2.9-1.9s2.3,1.4,1.9,2.8c-0.8,2.6,0.5,4.6,1.3,6.8
			c1.6,4.5,2.2,9.3,4,13.9c1.7,4.3,0.8,9.3-0.5,13.9c-0.5,1.6-1.3,2.1-2.8,1.6c-8.2-2.6-14.9-7.4-20.4-13.9c-0.9-1.1-1-2.4-0.6-3.6
			c0.8-3,0-5.6-1.6-8.3c-1.7-3-1.4-6.3,0.4-9.3c0.7-1.2,1.8-1.8,3.2-1.2c1.2,0.5,1.6,1.7,1.1,2.7C233.7,223.1,236.7,226,238.7,229.8
			z"/>
		<path class="st1" d="M308,204.9c3.8,0.2,7.2,1.4,10.1,3.7c1.4,1.1,2.3,2.6,1.1,4.2c-1.1,1.5-2.7,1.1-3.9,0.2
			c-4.3-3-8.5-3.8-13.1-0.8c-0.9,0.6-2.2,0.2-2.8-0.8c-0.6-1-0.4-2.2,0.4-3C301.9,205.8,304.9,205.2,308,204.9z"/>
	</g>
</g>
<g id="_xFFFD__x9C__x96_撅_xFFFD__2_xA0_影像_1_">
</g>
</svg>
