<?xml version="1.0" encoding="utf-8"?>
<!-- Generator: Adobe Illustrator 18.0.0, SVG Export Plug-In . SVG Version: 6.00 Build 0)  -->
<!DOCTYPE svg PUBLIC "-//W3C//DTD SVG 1.1//EN" "http://www.w3.org/Graphics/SVG/1.1/DTD/svg11.dtd">
<svg version="1.1" xmlns="http://www.w3.org/2000/svg" xmlns:xlink="http://www.w3.org/1999/xlink" x="0px" y="0px"
	 viewBox="0 0 764.9 330" enable-background="new 0 0 764.9 330" xml:space="preserve">
<g id="_xFFFD__x83__x8C__xFFFD__x99__xA0_影像_1_">
</g>
<g id="_xFFFD__x9C__x96_撅_xFFFD__8_xA0_影像_1_">
	<g>
		<path fill="#369EBB" d="M402.1,104c15.3,0,26-0.3,36.6,0.1c11.3,0.3,22.7,1.2,34,1.9c5.3,0.3,10.5,0.6,15.8,0.7
			c16.7,0.2,33.4,0.8,50.2,0.7c19.3-0.1,38.5,1,57.8,0.4c9.9-0.3,19.8-1.2,29.7-0.8c1,0,1.3-0.3,1.4-1.1c0.3-1.4,1.2-2.3,2.7-2.1
			c1.6,0.2,2.4,1.4,2.5,2.8c0.1,2,0.1,4,0,6c-0.1,2.4-0.3,4.9-0.5,7.3c-0.2,2.8-1.7,4.3-4.6,4.3c-16.7,0.2-33.4-0.1-50.1-0.8
			c-10.4-0.5-20.9-0.9-31.3-1.8c-19.6-1.7-39.2-2.6-58.8-2.1c-17,0.4-34,0.8-51,0.3c-13.3-0.4-26.5-1.1-39.8-0.4
			c-11.1,0.6-22.1,1.6-33,3.5c-6.3,1.1-10.9-3.5-9.9-9.9c0.6-3.9,5.1-7.7,9.2-7.9C377.6,104.7,392.2,104.3,402.1,104z"/>
		<path fill="#369EBB" d="M519.5,152.8c-1.8,0.6-3.6,0.2-5.4,0.6c-2.6,0.6-4.5-1-4.4-3.7c0-1.2-0.1-1.2-1.2-1.1
			c-3,0.2-4.2-2-2.8-4.7c0.6-1.1,1.5-1.8,2.4-2.5c6.3-4.7,12.9-9.1,18.2-15.1c2.8-3.1,3.5-2.9,6.3,0.4c0.4,0.4,1.1,0.5,1.7,0.8
			c1,0.6,1.6,1.5,1.5,2.7c0,1.3-0.6,2.1-1.9,2.3c-1.3,0.2-1.6,0.7-1.5,2c0.2,1.7-0.7,3.2-1.3,4.7c-2.2,5.8-4.3,11.6-5.8,17.6
			c-0.2,0.7-0.4,1.4-0.7,2c-0.7,1.2-1.8,1.8-3.2,1.5c-1.4-0.3-2.2-1.3-2.1-2.8C519.2,156,519.4,154.5,519.5,152.8z"/>
		<path fill="#369EBB" d="M564.4,154.3c-1.2,0-1.9-1.6-2.9-1.5c-1.8,0.1-3.6-1.2-5.5,0.8c-1.4,1.5-3.2-0.1-4.1-1.7
			c-2.4-4.2-4.7-8.4-7-12.6c-1.2-2.1-2.4-4.3-3.5-6.5c-0.8-1.5-0.9-3.1,0.7-4.1c1.5-0.9,2.5,0.1,3.9,0.9c7.8,5,13.2,12.4,19.8,18.7
			c0.7,0.7,1.4,1.4,1.7,2.4C568.1,152.7,566.6,154.5,564.4,154.3z"/>
		<path fill="#369EBB" d="M141.9,127.1c-1.4,0-2.7-0.2-4.1,0c-1.9,0.3-4.3-0.3-4.6,2.8c0,0.4-0.7,0.8-1.2,1
			c-2.3,0.8-4.2,2.1-6.1,3.4c-2.3,1.5-3.9,0.9-4.7-1.7c-0.1-0.4-0.2-0.9-0.4-1.3c-2-3.2-1.7-4.5,1.7-6c7.2-3.2,14.9-4.3,22.8-3.8
			c1.8,0.1,3.6,0.8,3.4,3c-0.2,2.3-1.9,2.5-3.8,2.5C143.9,127.1,142.9,127.1,141.9,127.1C141.9,127.1,141.9,127.1,141.9,127.1z"/>
		<path fill="#369EBB" d="M127.2,173.2c-1.5,0-2.6-0.4-3.1-1.6c-0.6-1.2-0.6-2.5,0.3-3.6c4.1-4.7,9.3-7.8,15-9.9
			c1.3-0.5,2.7-0.1,3.5,1.4c0.7,1.4,0.2,2.7-0.9,3.6c-3.8,2.9-7.5,5.7-10.8,9.1C130,173.4,128.3,172.7,127.2,173.2z"/>
	</g>
</g>
<g id="_xFFFD__x89__x88__xFFFD__x9C_砌_xFFFD__x8C__xA0_影像_1_">
	<g>
		<path fill="#222222" d="M650.8,173c-1.2,1-2.5,1.2-4,1c-5.9-0.7-11.9-1.3-17.8-2c-0.4,0-0.7-0.1-1.1-0.1c-1.4-0.2-2.4-0.9-2.3-2.5
			c0.1-1.6,1.3-2.2,2.6-2.2c5.8,0,11.6,0.4,17.3,1.1c2.1,0.3,3.8,1.1,5.4,2.4C650.8,171.6,650.8,172.3,650.8,173z"/>
		<path fill="#222222" d="M495.9,107.6c-43.4,0-86.9,0-130.3,0c-0.9,0-1.8,0-2.7,0c-5.2-0.2-5.6,2.4-5.3,6.7c0.2,1.8,1.1,3,3.2,3
			c1.5,0,2.9,0,4.4,0c51.1,0.3,102.1,0.6,153.2,1c25.8,0.2,51.6,0.6,77.4,0.7c10,0.1,20-0.3,30-0.3c2,0,4,0.2,5.9,0.6
			c1.5,0.3,2.8,1.1,2.6,2.9c-0.2,1.8-1.5,2.4-3,2.5c-3.3,0.1-6.5,0.3-9.8,0.3c-5.1,0.1-5.2,0-5.4,5c-0.2,7.5-0.4,14.9-1.9,22.2
			c-5.9,29.4-24.1,47.2-52.8,54.6c-15.1,3.9-30.6,4.4-46,1.8c-28.2-4.7-48-23.7-54.4-52c-2.1-9.3-2.7-18.7-1.4-28.1
			c0.7-4.7,0.5-4.8-4.3-4.9c-19.1-0.2-38.2-0.6-57.2-0.6c-9.6,0-19.2,1.5-28.9,1c-2.4-0.1-4.7-0.1-7.1-0.2
			c-6.8-0.4-9.8-3.5-9.9-10.4c0-2,0.3-4,0.8-5.9c1.1-4.2,2.4-5.2,6.8-5.5c3.9-0.3,4-0.3,4.4-4.3c1-10.1,3-20.1,5.1-30.1
			c0.1-0.5,0.1-1.1,0.3-1.6c0.6-1.9,1.1-4.5,3.7-3.8c2.7,0.7,1.7,3.2,1.3,5.1c-1.8,9.6-3.9,19.2-4.6,29c-0.4,5.7-0.4,5.7,5.2,5.7
			c35.6,0,71.2,0.1,106.9,0.1c48.3,0,96.7,0.1,145,0.1c1.6,0,3.3,0,4.9,0.2c1.4,0.2,2.3,1.2,2.3,2.6c0.1,1.5-0.8,2.4-2.2,2.6
			c-1.6,0.2-3.3,0.2-4.9,0.2c-43.8,0-87.6,0-131.4,0C495.9,107.7,495.9,107.7,495.9,107.6z M529.6,134.3c0.1-0.9,0.2-2-0.9-2.7
			c-1.1-0.7-2.1-0.1-3,0.5c-4.4,2.8-8.8,5.7-13.2,8.5c-1.6,1-1.7,2-0.7,3.6c2.8,4.3,6.8,6.8,11.6,8.4c2.1,0.7,3,0,3.3-2.1
			C527.6,145.1,528.6,139.8,529.6,134.3z M561,125.2C561,125.2,561,125.2,561,125.2c-2.5-0.1-5.1-0.1-7.6-0.1
			c-1.8,0-2.6,1.1-3.2,2.5c-0.7,1.7,0.8,2.2,1.7,2.9c2.5,1.9,5,3.7,7.4,5.6c6,4.7,6,4.7,8.8-2.4c0.1-0.3,0.3-0.7,0.4-1
			c2.5-7.2,2.3-7.4-5.4-7.5C562.5,125.2,561.8,125.2,561,125.2z M537.1,154.3c1.7-0.2,4.4-0.6,7.1-1c1.9-0.3,2.4-1.4,1.6-3.1
			c-2-4.5-4-8.9-5.9-13.4c-0.7-1.6-1.8-2.1-3.4-1.9c-1.7,0.2-1.9,1.5-2.1,2.8c-0.7,4.1-1.3,8.2-1.9,12.4
			C531.8,154.1,532,154.3,537.1,154.3z M508.5,136.6c5.1-2.5,9.3-5.7,13.5-8.7c0.7-0.5,1.3-1.2,1-2.3c-0.3-0.8-1.1-1-1.8-1
			c-4.3-0.1-8.7-0.1-13-0.1c-1.8,0-2.7,1-2.3,2.8C506.6,130.4,506.5,133.5,508.5,136.6z M544.5,132.2c1.2,6.2,3.9,10.5,5.9,15
			c1.7,3.7,2.3,3.8,5.6,1.7c1.4-0.9,2.6-1.9,3.8-3c0.8-0.7,0.9-1.6,0-2.3C555.2,139.9,550.7,135.9,544.5,132.2z"/>
		<path fill="#222222" d="M232.6,204.4c-0.1-2.7-1-4.7-1.6-6.8c-1.3-4.2-2.8-5.2-7.1-4.6c-2.5,0.4-4.9,1.3-7.2,2.5
			c-5.7,3-10.5,7.2-14.7,12c-4.9,5.6-8.9,11.9-13.3,18c-0.6,0.9-1.1,1.9-1.9,2.6c-1,0.9-2.4,1-3.5,0.2c-1.2-0.8-1.4-2-0.8-3.4
			c0.3-0.7,0.6-1.3,1.1-1.9c4.8-6.6,9.1-13.6,14.7-19.6c3.6-3.9,7.4-7.5,11.9-10.3c4.5-2.8,9.1-5.4,14.7-5.2
			c2.7,0.1,2.9-1.4,2.7-3.5c-0.2-1.6-1.2-2.6-2.1-3.8c-2.1-2.7-4.8-4.9-7.5-7.2c-3.6-3-7.4-4.4-12.5-4c-18.1,1.7-32-6.9-38.9-23.6
			c-1.4-3.4-2.3-6.9-1.9-10.6c0.2-2,0.7-4.1,3.1-4.7c2.3-0.6,3.8,0.8,5,2.5c1,1.3,1.8,2.8,2.7,4.1c2.1,3.2,4.5,6.1,7.8,8.7
			c1.1-1.8,0.4-3.4,0.3-4.8c-0.2-1.8-0.6-3.6-0.7-5.4c-0.4-5.6,2-7.2,7.3-5.3c3.2,1.2,5.5,3.5,7.4,6.2c4.1,5.8,7.8,11.9,10,18.7
			c1.2,3.6,3.2,5.1,6.6,6.2c6.4,2.1,12.5,5.1,17.1,10.2c0.5,0.5,1.1,1,1.5,1.6c3.3,4,3.3,4,8,2.3c4.9-1.8,9.9-3.5,14.7-5.2
			c0-1.8-1.3-1.7-2.3-1.9c-2.1-0.5-3.6-1.6-4.4-3.6c-1.2-3,0.1-5.5,3.2-5.3c3.8,0.2,7.5,0.8,9.4,5.1c1.9,4.2,2.6,4.2,7.3,3.4
			c5.4-0.9,10.7-1.8,16.1-2.8c2.6-0.5,3-1.8,1.2-3.6c-0.9-0.9-2.2-1.3-3-2.2c-1.4-1.5-2.4-3.3-1.4-5.4c1-2,2.9-2,4.7-1.9
			c3.8,0.2,5.7,1.8,6.9,5.5c1.4,4.4,3.5,5.9,7.9,5.2c5.9-0.9,11.9-0.7,17.9-1.1c0.7-2.5-0.9-4-2-5.5c-5.9-8.7-13.6-15.6-21.6-22.2
			c-1.9-1.6-4.2-2.2-6.5-2.7c-5.1-1.3-9.9-3.4-14.5-6c-6.2-3.5-9.6-9.2-12.5-15.4c-0.7-1.6-1.6-3.5,0.4-4.9c1.6-1.2,3.1-0.2,4.5,0.7
			c2.1,1.3,4,3.1,7.7,4.2c-2.2-3.7-3.8-6.6-5.6-9.4c-0.7-1.1-1.5-2-2.2-3.1c-0.9-1.5-1.4-3-0.1-4.5c1.2-1.4,2.7-1.7,4.4-1.4
			c2.3,0.5,4.5,1.5,6.5,2.8c12.3,7.7,20.4,18.4,22.6,33.1c0.4,2.4,1.2,4,2.9,5.5c4.9,4.6,9.8,9.2,14.5,14
			c4.9,5.1,9.8,10.2,11.2,17.6c0.2,1.3,1.3,1.5,2.4,1.8c8.6,2.8,11.1,6.4,11,15.6c0,1.5-0.1,2.9,1,4.1c4.3,4.9,3.9,10.3,1.5,15.8
			c-0.9,2.2-1.3,3.7,0.9,5.6c3.5,3.1,3.8,7.6,2.3,11.6c-2.2,6.1-4,12.2-4.2,18.9c-0.1,3.6-2.1,6.9-3.5,10.3
			c-3.2,7.5-8.3,14-10.9,21.9c-0.6,1.9-2.4,2.8-4.5,1.9c-1.8-0.8-2-2.5-1.4-4.2c0.5-1.4,1.2-2.6,1.9-3.9c3.1-5.7,6.4-11.4,9.4-17.2
			c0.7-1.4,1.9-2.7,1.3-4.8c-1.8,1-2.5,2.6-3.3,4.2c-1,1.9-2.4,2.8-4.4,1.6c-2-1.3-1.6-3.1-0.5-4.8c2.6-3.9,5.3-7.8,7.9-11.8
			c0.7-1,2-2.2,0.7-3.3c-1.3-1.1-2.9-1.2-4.3,0.3c-3.4,3.5-7.9,4.2-12.4,4.8c-11.9,1.4-23.9,2.3-35.7,4.2
			c-8.4,1.4-16.8,3.1-24.7,6.4c-2.9,1.2-6.1,1.1-8.8,2.8c-0.8,0.6-1.9,0.4-2.5-0.2c-2.2-2.2-3.3-0.7-4.5,1.2
			c-2.1,3.4-3.7,7.1-5.2,10.8c-0.6,1.5-1.2,3-1.8,4.5c-0.7,1.7-1.9,2.8-3.8,1.9c-1.6-0.8-1.6-2.3-1.1-3.8c2.6-7,5.2-14,10.3-19.7
			c2-2.3,2.5-4.2,1.2-6.7c-0.2-0.5-0.3-1-0.5-1.6c-2.1-6.2-2.6-6.4-7.8-1.9c-8.2,7.1-15,15.3-18.5,25.8c-0.5,1.6-1.5,2.6-3.2,2.2
			c-1.7-0.4-2.3-1.7-2.3-3.3c0-1.5,0.6-2.8,1.2-4.1c5.6-11.3,13.3-20.8,24-27.7c2-1.3,3-2.4,1.9-4.7c-0.7-1.5-1.1-3.1-1.6-4.6
			c-1.7-5.1-2.5-5.4-7.4-3.9c-3.7,1.2-7,3.1-9.8,5.8c-6.2,6.2-11.7,12.9-14.8,21.2c-0.2,0.5-0.4,1-0.7,1.4c-1.3,1.6-3,2.2-4.8,1.2
			c-2-1.1-2.1-3-1-4.7c6-8.9,11.2-18.3,20-25C222.1,207.4,227,205.6,232.6,204.4z M327.6,213.1c-1,0.1-1.2,0.8-1.5,1.5
			c-0.9,2.1-2.4,2.8-4.3,1.7c-1.7-1-1.7-2.7-0.9-4.3c1-1.9,2.3-3.7,3.3-5.6c1.1-2,2.9-3.8,2.9-6.4c-0.3-9.1-1-18.1-3.3-27
			c-1.1-4.2-2.6-5.2-7-5.4c-1.6-0.1-3.3,0-4.9,0c-8.5,0.4-17,1.7-25.4,3.2c-16.3,2.8-32.7,5-48,11.8c-5.2,2.3-5.3,2.1-3.8,7.5
			c4.5,15.5,9.5,30.9,14.6,46.2c1.4,4.2,1.5,4.3,5.8,2.8c5.3-1.9,10.6-3.7,16.1-5c14.7-3.6,29.8-4.6,44.7-6.3
			c1.9-0.2,4.2,0.3,5.4-1.9c2.1-3.9,6.7-6.3,6.9-11.4C328.1,214,327.8,213.6,327.6,213.1z M343.3,214.7c0-0.2,0-0.7-0.1-1.3
			c-0.3-1.3-0.8-2.5-2.2-2.8c-1.3-0.3-1.8,0.9-2.4,1.8c-1.3,1.7-2.6,3.4-3.7,5.3c-0.8,1.2-1.1,2.8,0.1,4c2.5,2.5,6.1,1.5,7.4-1.9
			C342.9,218.2,343.3,216.7,343.3,214.7z M340,192c-2.6,5.1-8.4,8.9-6.1,16.7C338,203.2,342,198.7,340,192z M330.5,174
			c0,5.4,0,5.4,5.9,6.2C336.8,174.5,336.3,173.9,330.5,174z M332.7,190.9c1.7-0.8,2.2-2.4,2.3-4c0-0.9-1.1-1.5-2-1.6
			c-0.9-0.1-1.3,0.6-1.2,1.4C332,188.1,331.7,189.6,332.7,190.9z"/>
		<path fill="#222222" d="M136.3,117.2c4.9-0.1,9.4,0.9,13.2,4.1c1.5,1.2,3.1,1.8,4.8,2.2c1.3,0.3,2.2,1.3,2.1,2.8
			c-0.1,1.5-1.3,2.1-2.5,2.5c-0.2,0.1-0.4,0.1-0.5,0.1c-7.4-0.2-13.5,3.7-20,6.2c-2.2,0.8-4.4,1.5-6.7,2.2c-2.8,0.8-5.5,0.4-7.4-1.9
			c-2.2-2.6-1.6-5.5-0.2-8.1C122.6,120.3,128.7,117.4,136.3,117.2z M143.3,124.4c-6.7-3.5-15.1-1.6-18.5,4c-0.5,0.9-1.4,1.9-0.5,2.9
			c0.6,0.8,1.7,0.5,2.6,0.2C132.4,129.7,137.8,127.2,143.3,124.4z"/>
		<path fill="#222222" d="M128.3,177.5c-5.2-0.1-7.9-3.3-6.9-7.6c0.3-1.4,0.9-2.8,1.6-4c3.8-6.1,15.3-10.2,22.2-8.2
			c2.1,0.6,3.7,1.8,4.1,3.9c0.5,2.2-1.4,3-3.1,3.9c-3.5,1.9-6,5.2-9.2,7.6C134.3,175.3,131.4,177.5,128.3,177.5z M138.5,163.4
			c-4.6,0.2-8.6,1.8-11.2,5.9c-0.4,0.6-0.5,1.4-0.1,2c0.6,0.8,1.4,0.5,1.9,0.2C133,169.7,136,166.9,138.5,163.4z"/>
		<path fill="#222222" d="M170,194.2c1.2,0,2.1,0.5,2.6,1.6c0.4,0.9,0.2,1.8-0.6,2.5c-3.5,3.4-3.7,8.2-5.3,12.4
			c-0.7,1.7-1.1,3.5-2.5,4.7c-0.8,0.7-1.8,1.2-3,0.6c-1.1-0.6-1.7-1.8-1.2-2.7c1.7-2.8,0.8-6.5,3.1-9.1c1.1-1.2,0.9-2.7,1.1-4.1
			C164.9,196.9,167.6,194.3,170,194.2z"/>
		<path fill="#222222" d="M360.4,173.5c0,0.9,0,1.8,0,2.7c-0.1,1.7-1.1,2.8-2.7,2.8c-1.7,0-2.7-1.2-2.6-2.9
			c0.4-5.2-2.5-9.6-3.2-14.6c-0.2-1.5-0.6-3,1.2-3.6c1.6-0.6,2.8,0.3,3.7,1.6c0.2,0.3,0.5,0.6,0.5,1
			C357.7,165,360.5,168.9,360.4,173.5z"/>
		<path fill="#222222" d="M643.8,144.8c0.9,0.1,2.4,0.1,3.8,0.3c1.1,0.2,1.9,1.2,1.8,2.3c0,1.2-0.8,2.2-1.9,2.3
			c-5.4,0.5-10.7,0.9-16.1,1.3c-1.6,0.1-3-0.8-2.9-2.5c0.1-1.6,1.4-2.4,3-2.5C635.4,145.6,639.3,145.2,643.8,144.8z"/>
		<path fill="#222222" d="M370.2,175.7c-0.1,1.2-0.1,1.7-0.3,2.3c-0.3,1.3-1,2.4-2.5,2.5c-1.5,0-2.4-0.9-2.4-2.4
			c0-4.1-1.7-7.8-2.5-11.6c-0.3-1.7-0.3-2.9,1.5-3.5c1.6-0.5,3.1,0.3,3.5,1.8C368.6,168.6,369.4,172.5,370.2,175.7z"/>
		<path fill="#222222" d="M637.3,161.1c-1.7,0.1-3.5,0.5-5.2-0.2c-0.9-0.3-1.5-1-1.5-2c0-1,0.5-1.8,1.4-2.1c4.4-1,8.8-1.6,13.4-1.3
			c1.1,0.1,2,0.8,2,2.1c0,1.2-0.8,1.9-1.9,2.3C642.8,160.9,640.1,160.8,637.3,161.1z"/>
		<path fill="#222222" d="M182.6,201.7c-3,2.6-2.9,7.4-6.3,10c-1.4,1.1-3.6-0.2-3.3-2.1c0.5-3,1.2-6,2.3-8.7c0.8-2,3.8-2.5,5.7-1.6
			C181.9,199.6,182.4,200.3,182.6,201.7z"/>
		<path fill="#222222" d="M287,193.9c-9.1-0.1-18.2,0.3-26.5,4.6c-1.4,0.7-2.8,0.9-3.8-0.7c-1-1.7,0.2-2.8,1.4-3.6
			c2.6-1.8,5.5-2.8,8.5-3.6c9.4-2.6,19-2.4,28.7-2.6c1.9,0,3.2,0.9,3.2,2.9c0,2-1.4,2.9-3.2,2.9C292.5,193.9,289.7,193.9,287,193.9z
			"/>
	</g>
</g>
<g id="_xFFFD__x9C__x96_撅_xFFFD__2_xA0_影像_1_">
</g>
</svg>
