<?xml version="1.0" encoding="utf-8"?>
<!-- Generator: Adobe Illustrator 22.0.1, SVG Export Plug-In . SVG Version: 6.00 Build 0)  -->
<svg version="1.1" id="圖層_1" xmlns="http://www.w3.org/2000/svg" xmlns:xlink="http://www.w3.org/1999/xlink" x="0px" y="0px"
	 viewBox="0 0 531.5 531.5" style="enable-background:new 0 0 531.5 531.5;" xml:space="preserve">
<style type="text/css">
	.st0{fill:#B6CACD;}
	.st1{fill:#FFFFFF;}
	.st2{fill:#F14900;}
	.st3{fill:#FFFFFF;stroke:#000000;stroke-miterlimit:10;}
	.st4{fill:#F7F9FD;}
	.st5{fill:#606060;}
	.st6{fill:none;stroke:#F7F9FD;stroke-miterlimit:10;}
	.st7{fill:#222222;}
	.st8{fill:#2E313A;}
	.st9{fill:#F3F9F9;}
	.st10{fill:#141F2A;}
	.st11{fill:#17212C;}
	.st12{fill:#18222D;}
	.st13{fill:#E9D08E;}
	.st14{fill:#E3EAEB;}
	.st15{fill:#DAE0E1;}
	.st16{fill:#FEFEFD;}
	.st17{fill:#FEFEFB;}
	.st18{fill:none;stroke:#FFFFFF;stroke-miterlimit:10;}
	.st19{enable-background:new    ;}
	.st20{fill:#628E94;}
	.st21{fill:#8CACB1;}
	.st22{fill:#B7CBCE;}
	.st23{fill:#B7CBCE;enable-background:new    ;}
	
		.st24{fill:none;stroke:#222222;stroke-width:12;stroke-linecap:round;stroke-linejoin:round;stroke-miterlimit:10;stroke-dasharray:10;}
	
		.st25{fill:none;stroke:#222222;stroke-width:4;stroke-linecap:round;stroke-linejoin:round;stroke-miterlimit:10;stroke-dasharray:10,20;}
	.st26{fill:#78B5C8;}
	.st27{opacity:0.46;}
	.st28{fill:none;stroke:#F14900;stroke-width:4;stroke-linecap:round;stroke-miterlimit:10;}
	.st29{fill:#FFFFFF;enable-background:new    ;}
	.st30{fill:#222222;stroke:#000000;stroke-width:4;stroke-miterlimit:10;}
	.st31{fill:#222222;stroke:#000000;stroke-width:5;stroke-miterlimit:10;}
	.st32{fill:#B6CACD;stroke:#FFFFFF;stroke-width:16;stroke-miterlimit:10;}
	.st33{fill:#CDDBDD;}
	.st34{fill:none;stroke:#F14900;stroke-width:4.5;stroke-miterlimit:10;}
	.st35{fill:#CF9479;}
	.st36{fill:#FFFFFF;stroke:#FFFFFF;stroke-width:5;stroke-linejoin:round;stroke-miterlimit:10;}
	.st37{fill:#222222;stroke:#FFFFFF;stroke-width:5;stroke-linejoin:round;stroke-miterlimit:10;}
	.st38{fill:#222222;stroke:#222222;stroke-width:0.5;stroke-miterlimit:10;}
	.st39{opacity:0.77;}
	
		.st40{fill:none;stroke:#F14900;stroke-width:4;stroke-linecap:round;stroke-linejoin:round;stroke-miterlimit:10;stroke-dasharray:10,20;}
</style>
<g>
	<g id="Hands_xA0_影像_4_">
		<g>
			<polygon class="st1" points="314.8,125.1 310.4,128.9 310.4,149.6 316.7,173.1 333.5,180.3 352.7,167.8 346.9,148.6 352.2,143.8 
				358.9,150.5 369,156.8 382.6,157.6 396.4,158.7 404.7,158.4 408.6,157.3 415.8,158.9 425.3,161.8 432.7,127 406.9,119.6 
				391.8,112.8 367,106.1 350.5,105 341.1,106.3 328.8,115.1 			"/>
			<g>
				<path class="st13" d="M301.6,122c0.2,0.2,0.5,0.2,0.7,0c0.3-0.4,0.7-0.3,1.1-0.2c1.1,0.5,1.7,1.4,2,2.5c0.2,1-0.9,2.2-2,2.2
					c-0.4,0-0.8,0-1.2,0.2c-0.5,0.1-1,0.1-1.4-0.3c-0.3-0.4-0.7-0.3-0.9,0.1c-0.5,0.7-1.3,0.9-1.9,0.4c-0.8-0.7-1.5-1.4-2.1-2.1
					c-0.4-0.5-0.4-1,0.3-1.3c0.2-0.1,0.4-0.2,0.2-0.4c-0.4-0.5-0.1-1.1-0.2-1.7c0-0.3,0.3-0.7,0.5-0.6c0.7,0.3,1.4-0.1,2.1-0.1
					C300,120.4,300.9,121.1,301.6,122L301.6,122z"/>
				<path class="st23" d="M336.1,134.7c-2,0-3.1-1.1-4.1-2.3c-0.3-0.3-0.2-0.7,0.1-1c0.4-0.3,0.8-0.4,1.1-0.1
					c0.7,0.6,1.5,0.2,2.3,0.3c0,0,0.1,0,0.1,0c0.7-0.1,1.5-0.1,2,0.5c0.6,0.6,0,1.3-0.2,1.9C337.2,134.6,336.5,134.7,336.1,134.7z"
					/>
			</g>
			<polygon class="st1" points="288.9,126.6 305.7,126.3 306.9,128.2 305.4,130.1 291.5,130.8 289.3,130.3 288.5,128.7 			"/>
			<g>
				<path class="st7" d="M303.3,108.9c-1,3.3-2.5,6.2-3.5,9.2c-0.1,0.4-0.2,0.6,0.4,0.7c0.8,0.1,1.3,0.6,1.7,1.3
					c0.2,0.3,0.3,0.5,0.7,0.4c1.6-0.2,2.6,0.7,3.3,2c4.2,7.1-1.4,15.4-8.1,16c-1.5,0.1-3,0-4.3-0.9c-2.4-1.6-4.1-3.7-4.6-6.6
					c-0.1-0.7-0.4-1.4-0.6-2.2c-0.4-1.4-0.4-2.8-0.1-4.2c0.7-2.8,1.3-5.6,2.3-8.3c1.9-5.2,4.2-10.3,7-15.1c0.9-1.5,1.7-3.2,2.8-4.6
					c0.8-1.1,1.1-1.2,2.2-0.5c2.6,1.6,4.7,3.7,6.4,6.2c3.2,4.4,6.1,9,8.9,13.7c0.4,0.6,0.6,0.7,1.2,0.4c1.9-1.1,3.9-1.9,6.1-2.2
					c0.9-0.1,1.9-0.2,2.8-0.3c0.5,0,0.9-0.2,1.2-0.5c3.5-3.4,7.6-6,12-7.9c1.9-0.8,3.8-0.9,5.8-1c4.3-0.3,8.6-0.6,13-0.2
					c3.6,0.3,7.2,1,10.8,1.9c4.2,1.1,8.3,2.3,12.4,3.5c6,1.7,12,3,17.6,5.8c1.6,0.8,3,2,4.7,2.7c3.8,1.6,7.7,2.8,11.6,4
					c3.6,1.1,7.3,1.3,10.8,2.4c1.3,0.4,2.7,0.7,3.9,1.4c0.5,0.3,1.1,0.6,0.7,1.3c-0.4,0.7-1,0.6-1.6,0.3c-2.8-1.3-5.9-1.8-8.9-2.4
					c-5.5-1.2-11.1-2.5-16.2-5.1c-1.7-0.9-3.4-1.8-5.1-2.6c-3.6-1.8-7.5-3.2-11.5-4.1c-4.4-1-8.7-2.6-13.2-3.7c-2.5-0.6-5-1.4-7.5-2
					c-5.5-1.4-11.2-2-16.9-2c-2.5,0-4.9,0.4-7.4,0.4c-1.3,0-2.6,0.5-3.8,1.3c-1.7,1-3.5,1.8-5.1,3c-1.4,1.1-2.9,2.1-4.2,3.5
					c0.3,0.2,0.7,0.2,1,0.2c2.2,0.1,4.4,0.6,6.4,1.5c0.4,0.2,0.8,0.1,1.2,0c1.7-0.8,3.5-1.3,5.3-1.6c0.8-0.1,1.6-0.3,2.3,0.1
					c3,1.3,6.1,2.3,8.6,4.5c4.3,3.7,7,8.3,8.5,13.6c0.7,2.5-0.1,3.6-2.9,3.7c-2.5,0-4.9-0.8-7.3-1.4c-2.8-0.8-5.6-1.3-8.4-1.6
					c-2.1-0.2-4.3,0-6.3-0.4c-0.5-0.1-0.4,0.4-0.4,0.6c-0.2,1.8-1.1,2.8-2.5,3c-0.7,0.1-1.4-0.1-2-0.4c-1.5-0.6-2.7-1.6-3.8-2.7
					c-0.2-0.2-0.3-0.4-0.6-0.5c-0.4,0.5-0.2,1,0,1.5c0.4,1,1,1.9,1.9,2.6c2.4,2,5.3,2.9,8.3,3.5s6.1,1.1,9.1,2
					c2.8,0.9,5,2.4,6.7,4.6c2.1,2.8,4.6,5.1,7.6,6.9c3.2,2,6.7,2.7,10.3,3.3c2.8,0.5,5.5,0.7,8.3,0.7c3.8,0,7.7,0.2,11.5,0
					c3.3-0.2,6.5-0.5,9.7-0.9c3.3-0.4,6.5-0.1,9.7,0.6c3.6,0.8,7.1,2,10.6,3.1c0.3,0.1,0.5,0.2,0.7,0.3c0.4,0.2,0.6,0.6,0.4,1
					c-0.1,0.4-0.4,0.6-0.9,0.6c-0.4,0-0.8-0.1-1.2-0.3c-3.9-1.3-7.8-2.6-11.8-3.3c-2.2-0.4-4.4-0.4-6.7-0.4
					c-3.8,0.1-7.4,1.1-11.2,1.2c-1.5,0.1-3.1-0.1-4.6-0.1c-4.4,0-8.7,0.1-13.1-0.5c-4.7-0.7-9.3-1.5-13.4-4.2c-3-2-5.6-4.4-7.7-7.2
					c-0.5-0.6-1-1.2-1.8-1.7c0.1,0.7,0.1,1.3,0.1,2c0.1,2.2,0,4.4-0.2,6.6c0,0.6,0.1,1,0.6,1.4c3.7,3.1,6.3,6.9,7,11.8
					c0.6,3.9-1,10.1-6.3,13c-3.3,1.7-6.7,2.7-10.4,3.2c-2.1,0.3-4.2,0.3-6.3,0.3c-1.7,0-3.3,0.1-5,0.2c-3.5,0.1-6.8-0.6-10.1-1.6
					c-4-1.2-7.5-3.4-10.3-6.5c-2.8-3-3.8-6.5-3.5-10.5c0.2-2.5,0.8-4.8,1.5-7.2c0.1-0.4,0.2-0.7-0.1-1.1c-1.7-2.2-2.3-4.9-2.7-7.6
					c-0.3-2.1,0-4.2,0.3-6.2c0.2-1.6,0.2-3.3,0.3-4.9c0.2-5.1,0.9-10.1,3-14.8c0.2-0.4,0.2-0.6,0-1c-2.8-4.3-5-9.1-7.2-13.9
					C303.6,109.3,303.5,109.2,303.3,108.9z M332.6,172.9c1.7,0,3.4,0.1,5.2,0c2.2-0.1,4.4-0.3,6.4-1.3c3-1.5,3.6-2.6,3-5.9
					c-0.4-2.7-1.7-5-4.4-6c-1.2-0.4-2.5-0.7-3.8-0.8c-2.1-0.1-4.2,0-6.3,0.2c-2.8,0.3-5.5,0.3-8.2,0.9c-2.8,0.6-5.4,1.6-5.8,5
					c0,0.3-0.1,0.5-0.1,0.8c-0.3,1.8,0.2,3.4,1.5,4.8c1.1,1.1,2.4,1.7,3.9,2C326.7,173.2,329.6,173.2,332.6,172.9z M337.4,130.3
					c-0.1-0.4-0.3-0.3-0.5-0.3c-4.4-0.4-8.8-0.4-13.2-0.7c-0.6,0-0.7,0.3-0.7,0.8c-0.3,5-0.1,10-0.2,14.9c0,0.5,0.2,0.7,0.7,0.7
					c2.5,0.1,5,0.2,7.5,0.3c1.8,0.1,3.6,0,5.3-0.1c0.8,0,1.2-0.3,1.3-1.2c0.1-0.7,0.2-1.5,0.4-2.2c0.1-0.6,0-0.9-0.7-1
					c-2.3-0.6-4.4-1.7-6.3-3.2c-1.3-1-2.2-2.3-2.7-3.9c-0.5-1.8,0.2-3.2,1.9-3.9c1.3-0.5,2.6-0.5,3.9-0.4
					C335.3,130.1,336.3,130.5,337.4,130.3z M311.2,139.2c0,1.5,0,3,0,4.5c0,0.4,0.1,0.7,0.6,0.8c2.3,0.4,4.6,0.8,7,0.8
					c0.4,0,0.6-0.1,0.6-0.6c-0.1-5,0.4-10,0.5-15c0-0.5-0.1-0.7-0.7-0.7c-1.9,0.1-3.8,0.3-5.7,0.3c-0.8,0-1.2,0.3-1.3,1.1
					C311.6,133.4,311.4,136.3,311.2,139.2z M352.4,127.7c-0.8,0.1-1.6,0.1-2.3,0.2c-0.4,0-0.6,0.2-0.4,0.6c0.3,0.8,0.6,1.6,0.8,2.4
					c0.1,0.4,0.4,0.6,0.8,0.7c1.1,0.2,2.1,0.4,3.1,0.8c2.3,0.7,4.7,1.3,7.1,1.8c1.1,0.2,1.6-0.4,1.3-1.5c-0.1-0.5-0.4-0.9-0.4-1.4
					c-0.2-1.2-0.8-1.8-2-2C357.7,128.5,355.1,127.8,352.4,127.7z M360.9,127.4c-0.4-0.9-0.9-1.7-1.2-2.4c-0.4-0.9-1-1.2-1.9-1.5
					c-3.4-1.2-6.8-1.3-10.3-1.1c-0.4,0-0.6,0.1-0.3,0.5c0.6,0.9,1.2,1.9,1.5,2.9c0.2,0.5,0.5,0.5,0.9,0.4c1.3-0.2,2.7-0.2,4-0.2
					C356,126.1,358.4,126.7,360.9,127.4z M355.8,121c-1.4-2.1-3.4-3.1-5.6-4c-2.5-1.1-5.1-1-7.6-0.2c-0.6,0.2-0.8,0.4-0.2,0.9
					c1.1,0.9,2,1.9,3,2.8c0.2,0.2,0.5,0.3,0.8,0.3C349.4,120.5,352.6,120.2,355.8,121z M293.4,127c-1,0-2,0-3,0
					c-0.7,0-1.2,0.3-1.2,1c0,0.8,0.6,0.9,1.3,0.9c4.7,0.1,9.3-0.4,14-0.6c0.4,0,0.7-0.1,1-0.2c0.5-0.2,0.7-0.6,0.6-1.1
					c-0.1-0.5-0.5-0.8-1-0.7c-1,0.2-2.1,0.1-3.1,0.2C299.1,126.7,296.3,127,293.4,127z M298.4,125.3c2-0.2,3.7-0.3,5.4-0.4
					c1.2-0.1,1.2-0.1,0.7-1.2c-0.4-0.7-0.7-1.4-1.7-1.3c-1.5,0.3-1.5,0.3-2.2-1.1c-0.2-0.4-0.3-0.8-0.9-0.7
					c-0.5,0.1-0.7,0.4-0.9,0.8c-0.3,0.9-0.6,1.8-1,2.7C297.4,125.3,297.4,125.3,298.4,125.3z M332.3,132c1.2,1.2,2.3,2.1,3.8,2.5
					c0.9,0.2,1.3-0.3,1.5-1.5c0.2-1-0.6-0.6-1-0.7c-0.6-0.1-1.2-0.2-1.8-0.3C334,131.9,333.2,131.8,332.3,132z M304,102.1
					c0-1-0.6-1.7-1.4-1.7c-1,0-1.7,0.7-1.7,1.7c0,1,0.6,1.7,1.4,1.7C303.3,103.9,304,103.1,304,102.1z"/>
				<path class="st7" d="M328.7,166.4c0,1.6-1,2.6-2.6,2.6c-1.2,0-2.3-1.2-2.3-2.7c0-1.4,1.1-2.5,2.5-2.5
					C327.7,163.9,328.7,164.9,328.7,166.4z M326.9,166.6c0-0.5-0.1-0.8-0.5-0.8c-0.5,0-0.6,0.4-0.6,0.8c-0.1,0.4,0.2,0.5,0.5,0.5
					C326.7,167.1,326.9,166.9,326.9,166.6z"/>
				<path class="st7" d="M336.7,165.9c0-1.4,1-2.5,2.2-2.5c1.3,0,2.4,1.1,2.4,2.4c0,1.3-1.1,2.6-2.3,2.6
					C337.8,168.4,336.7,167.3,336.7,165.9z M339.5,165.8c-0.1-0.3-0.2-0.5-0.5-0.5c-0.4,0-0.4,0.3-0.4,0.6s0.1,0.5,0.4,0.5
					C339.4,166.4,339.5,166.1,339.5,165.8z"/>
			</g>
		</g>
	</g>
</g>
<g>
	<path class="st13" d="M209.9,140.4c7-6.5,15.9-9.4,25.2-10.1c-2.8-10.2-8.2-25.4-15.7-25.3l-22,38l-0.4,11.7c0,0,0.5,5.5,2.1,7.7
		C200.4,154.1,203.6,146.2,209.9,140.4z"/>
	<path class="st23" d="M337.1,428.2c-1,1.1-2.4,1.7-4.3,1.7c-6.2-0.3-12.2,2.6-17.6,5.2c-7.1,3.4-13.9,7.2-21,10.4
		c-13.2,6-28.4,10.3-40.7,0c-2.4-2-2.3-4.9-0.9-7.1c-5.4-1.1-10.8-2.3-16.4-2.5c-0.3,0-0.5-0.1-0.8-0.1c-3,2.7-6.1,5.2-8.8,7.8
		c-6.8,6.9-13.8-0.9-7-7.7c2-2,3.8-4.2,5.5-6.5c-0.7-0.3-1.2-0.8-1.4-1.6c-1.6-6.3-2.7-12.8-3.5-19.3c-1.5-0.4-3-1.3-3.8-2.5
		c-18.4-26.5-5.6-59.8,3.7-87.9c0.2-1.7,0.4-3.4,0.3-5.2c-0.3-8.5-1.9-17.8-5.5-25.6c-3.2-6.9-7.7-13.5-9.5-20.9
		c-1.9-8,0.1-16.3,1.6-24.2c1.6-8.3,1.8-14.7-2.1-22.3c-3-5.9-6.5-12.3-5.8-19.1c1.5-15,22-18.5,32.8-24.5c0,0,0,0,0.1,0
		c0-0.1,0.1-0.1,0.1-0.2c-2.2,0-4.4-0.3-6.7-0.5c-3.5,0.6-6.9,1.3-10.4,1.6c-6.8,1.8-13.6,4.5-20.7,3.4c-0.8-0.1-1.7-1-1.8-1.8
		c-0.7-4.5-0.8-9.4,4.6-10.4c2.3-0.4,4.8,0,7.1-0.2c1.9-0.1,3.9-0.4,5.8,0c-0.3-1.4-0.1-3,0.5-4.5c0.3-0.6,0.6-1.2,0.9-1.8
		c-0.1,0.1-0.3,0.2-0.4,0.2c-2.3,1-4.7,1.2-7.2,1.1c-1.2,0.8-2.8,1.1-4.4,0.6c-1,1-2.8,1.1-3.7,0c-0.6,0-1.3-0.1-2-0.3
		c-2.2-0.5-4.1-1.6-5.8-3.1c-1.2-0.1-2.4-0.1-3.6-0.1c-4.7,0-7.2-5-5.2-9c0.6-1.3,1.7-6.3,1.7-7.5c0.4-18.3,19.2-31.8,29.5-45
		c2.7-3.4,6.6-2.2,8.6,0.6c0.2,0.1,0.4,0.2,0.5,0.3c0.3,0.2,0.5,0.4,0.8,0.5c6.6,1,11,7,10.3,14c-0.1,1-0.4,2-0.8,2.8
		c0.1,0.7,0.3,1.4,0.5,2.2c0.4,0.4,0.6,0.9,0.7,1.5c0,0.1,0,0.3,0,0.4c1.8,4,3.7,7.5,3.7,12c0,0.7-0.2,1.2-0.5,1.6
		c1,1.6,2.2,3.2,3.2,4.8c3.1,1.2,5.4,3.4,7.8,5.7c2,2,5.1,4.2,6.2,6.9c1,2.5,0,4.3-1.5,6.3c-1.3,1.8-3.1,3.9-3,6
		c3.6-4.9,7.6-9.9,12.1-14.1c-6.4-7-12.6-13.9-12.2-24.2c-1.3-5.3,0-12,2.6-15.8c5.1-7.5,16-9.8,23.7-13.5c9.4-4.5,18-10,20.6-20.7
		c0.3-1.4,1.5-1.9,2.6-1.8c0.5-3.5,0.7-7.1,0.7-10.6c0,0,0,0,0,0c-1.7-0.7-3.6-1.1-5.6-1.1h-1.2c-4.7-4.1-11.5-4.4-17.4-1.6
		c-13.7,6.6-30.3,10.6-45.2,11.2c-14.7,0.7-30.4,0.5-43.5,8.2c0,0-0.1,0.1-0.1,0.1c-7.3,4.4-12,11.6-16.7,18.5c0,0,0-0.1-0.1-0.1
		c-6.8,7.6-15.2,10.8-21.1,19.9c-6.3,9.8-9.9,21-16.8,30.5c-6.7,9.2-16.1,16.1-23.1,25.1c-14.7,18.8-16.3,46.8-3.9,67.2
		c5.4,8.8,12.9,16.2,18.1,25.2c16.7,28.8,2.8,62.7,13.5,93c2.8,7.9,6.9,15,13.1,20.8c2.3,2.2,4.9,4.2,7.3,6.3
		c1.3,1.1,2.5,2.3,3.7,3.6c0,0,0.3,0.4,0.6,0.7c0.3,0.5,0.9,1.5,1,1.6c0.1,0.1,0.1,0.2,0.2,0.3c0.3,0.9,0.6,1.8,0.8,2.7
		c0.3,1.4,0.6,2.8,0.8,4.2c0,0,0.3,2.6,0.4,3c0.4,2.9,0.7,5.9,1.2,8.8c1.4,8.3,5.1,15.8,10.2,22.4c18.5,24,50.8,37.2,80.7,36.1
		c18.3-0.7,33.8-1.8,51.2-6.5c2.2-0.6,4.5-1.2,6.8-1.6c0.9-0.2,1.7-0.3,2.6-0.5c0.2,0,1.6-0.3,1.6-0.3c3.7-0.4,8.3-5.9,12-6.2
		c9.5-0.7,20.4-3.8,24.5-13.5c0.8-1.9,1.4-3.8,1.7-5.6C349,433.1,342.6,428.7,337.1,428.2z"/>
	<path class="st23" d="M196.3,134.5c0.3-0.5,0.6-1,0.9-1.6c-0.9,1.4-1.7,2.9-2.4,4.4C195.2,136.4,195.8,135.4,196.3,134.5z"/>
	<path class="st23" d="M219.2,267.3c0-0.4,0.1-0.7,0.2-0.9c-0.7-0.5-1.3-1.1-1.8-1.7c0.4,1.6,1,3.2,1.7,4.9
		C219.3,268.8,219.2,268.1,219.2,267.3z"/>
	<path class="st13" d="M335.1,430.4c-1.8-0.5-3.7-0.7-5.5-0.9c-6.3,2.1-12.6,4-19.2,5.2c-8.4,1.5-15.6,5.1-23.8,7.2
		c-16,4.1-26.5-6.1-39.2-13.6c-0.1-0.1-0.2-0.1-0.3-0.2c-0.2,0.1-0.4,0.2-0.6,0.4c-0.5,0-0.9,0.1-1.1,0.2l-4.4,2.6
		c-0.9,0.5-0.5,1,0.1,1.2c-5.3,4.4-11,8.3-17.1,11.6c-1.7,0.9-4.9,3.4-6.9,1.8c-1.3-1-1.2-4.2-1.1-5.5c0.3-3.2,1.6-6.1,3.1-8.9
		c2-3.7,4.9-7.4,7.1-11.3c0.2-6-1.1-11.9-1.8-17.9c-0.4-0.4-0.7-0.8-1-1.4c-13.7-24.7-3.1-54.1-1.7-80.9c-4.2,4.9-8.4,9.7-12.6,14.6
		c-4.5,5.1-9.4,10.3-12,16.7c-2.8,6.8-2.3,14.4-1.4,21.6c1,8.2,3,16.1,5.8,23.9c0.1,0.4,0.5,0.5,0.9,0.5
		c-1.8,10.1-2.2,20.3-1.1,30.5c-0.4,3,0,5.9,1.3,9c0.2,0.4,0.8,0.5,1.5,0.4c1.5,7.4,4.9,14.2,12.7,16.9c3.1,1.1,6.5,0.7,9.5,2
		c2.7,1.1,4.6,2.9,7.6,3.2c7.3,0.8,15.3-1.3,22.6-1.6c8.1-0.3,16.2,0.2,24.3,0.8c6.4,0.5,12.6,0.3,18.5-2.4
		c12.9-5.8,24.9-15.7,36-24.5C335.9,431,335.7,430.5,335.1,430.4z"/>
	<path class="st23" d="M255.7,129.5c-0.8-1.7-1.4-3.5-1.9-5.3c-1.5-1.3-2.2-3.4-2.2-5.5C251,123,251.5,127.2,255.7,129.5z"/>
	<path class="st23" d="M253.1,113.9c1.2-1.7,3.1-3,5.8-3.2c2.2-0.1,4.2-1.6,6.1-2.7c0.5-0.3,1.1-0.6,1.6-0.9
		c2.2-1.6,4.4-3.5,6.4-5.2c-3.9,1.8-7.9,3.5-11.7,5.3C258,108.9,254.8,110.8,253.1,113.9z"/>
	<path class="st23" d="M285.1,433.9c-0.2,0.1-0.5,0.1-0.7,0.2c2.7-0.3,5.4-0.8,8-1.5c-0.8-0.4-1.7-0.8-2.5-1.3
		c-0.1,0-0.1-0.1-0.1-0.1C288.4,432.4,286.8,433.3,285.1,433.9z"/>
	<path class="st23" d="M227.9,297.4c0.4,2.6,0.8,5.2,1.1,7.9c0.1,0.9,0.2,1.7,0.2,2.5c0-0.8,0-1.6,0-2.4c0-1,0.2-2,0.5-2.8
		C229.2,300.9,228.6,299.2,227.9,297.4z"/>
	<path class="st23" d="M227.5,330.5c-0.1-1.5,0.2-2.7,0.8-3.7c0.1-1.4,0.2-2.7,0.3-4.1c-0.8,5.2-2,10.5-3.2,15.7
		c-1.2,4.8-2,9.7-2.5,14.7C224.9,345.6,227.8,338.3,227.5,330.5z"/>
	<path class="st23" d="M208.6,123.8c-1.9,2.8-3.8,5.7-5.5,8.6c-1.5,2.6-3.5,5.5-4.8,8.6c1.3-2.2,3-4.3,4.4-6.5
		C204.8,130.9,206.9,127.4,208.6,123.8z"/>
	<path class="st23" d="M292.2,92.2c0.4-1.4,0.8-2.8,1.2-4.3c-1.5,1.9-3.2,3.6-5.1,5.2C289.6,92.8,290.9,92.4,292.2,92.2z"/>
	<g>
		<g>
			<path class="st7" d="M347.6,431.9c-6.7-3.7-13.3-5.4-21-4.3c-8.9,1.3-17.3,5.7-26.3,6.4c-4.6,0.4-8-2-12.3-2
				c-3.3,0-6.1,1.8-9.3,2.2c-11.7,1.5-19.2-6.3-26.6-13.8c-0.8-0.8-2.7,0.1-3.3,0.7c-9.9,9-18.9,19.5-31.4,25
				c0.8,0.1,1.6,0.2,2.5,0.3c-0.8-0.1-1.6-0.2-2.5-0.3c0.8,0,1.6,0.1,2.5,0.1c0-1.3-0.6-1.9-0.9-3.1c-0.5-1.8,0-2.8,0.7-4.6
				c1.1-2.7,2.6-5.2,4.1-7.7c3.4-6.1,7.2-12,10.3-18.2c1.1-2.2,2.9-4.9,2.3-7.5c-0.4-1.7-1.7-3-2.6-4.4c-2.7-4.2-4.6-8.7-6.1-13.4
				c-4.1-13.4-3.9-27.6-2.1-41.3c0.9-6.5,2.1-12.9,3.4-19.3c1.3-6.5,3.8-13.1,2.8-19.7c-1.1-6.9-2.5-13.8-4-20.6
				c-0.8-3.8-1.7-7.5-2.5-11.2c-0.5-2.5-0.7-7.5-2.1-9.5c-0.5-0.8-2.6-1.7-3.4-2.4c-1.1-1-2.1-2.1-2.9-3.5c-0.9-1.6-1.5-3.4-1.8-5.2
				c-0.8-5.1,0.5-10.3,1.7-15.2c0.9-4.1,2-8.2,2.3-12.3c0.2-3.2-1.5-5.8-2.7-8.7c-1.4-3.2-2.7-6.4-3.9-9.7c-1.2-3.3-2.1-6.7-3-10.2
				c-0.5-2-1.3-4.3-0.4-6.3c1-2.2,0.2-0.5,1.3-1.6c4-4.2,8-1.5,11.6,0.1c1.5,0.7,2.6,1.5,4.3,1.4c5.9-0.2,15.8-15.7,8.4-17
				c-1.6-0.3-3.5,0.1-5.1,0.3c-4.9,0.5-9.8,1.2-14.7,1.7c-7.4,0.7-14.9,1.4-22.2,2.9c0.5,0.2,1,0.4,1.5,0.5c0.3-1.1-0.2-1.2-1.5-0.5
				c0.5,0.2,1,0.4,1.5,0.5c0.9-2.4,0-4.1-0.6-6.4c-1.2-4.9,7.2-5.1,10.7-5.3c2.1-0.1,4.6-0.3,6.5,0.5c1,0.4,1.9,1.4,3,1.7
				c1.4,0.4,2.8,0.5,4.1-0.1c2.1-0.9,3.7-3.3,5.3-4.8c2.6-2.6,5.3-5.2,7.6-8.1c1.3-1.7,4.6-5.5,4.5-7.9c-0.1-2.3-2.8-3.8-4.4-5
				c-0.7-0.6-2.8-0.1-3.3,0.7c-0.4,0.6-0.8,0.8-0.5,1.5c0.2,0.5,1.1,0.4,1.5,0.3c1.4-0.1,3.1-0.8,2.5-2.4c-0.4-1.1-3,0-3.5,0.5
				c-3.7,4.3-7.3,8.7-11.7,12.3c-5,4.2-10.1,5.3-16.5,5.4c0.3,0.2,0.7,0.4,1,0.6c0.1-0.1,0.1-0.2,0.2-0.3c-0.7,0.4-1.4,0.7-2.1,1.1
				c-0.3-0.1-0.5-0.3-0.8-0.4c0.7-0.4,1.4-0.7,2.1-1.1c-0.3,0.1-0.6,0.1-0.9,0.2c0.5,0.1,1,0.2,1.5,0.3c-0.5-5.8-2.4-11.6-1.9-17.5
				c0.5-5.4,3-10.5,5.6-15.2c5.1-9.1,11.8-17.1,16.9-26.2c-1.2,0.3-2.3,0.6-3.5,0.9c2.3,1.3,5,1.8,7.2,3.2c2.8,1.9,3.9,6.1,4.7,9.2
				c1.8,6.3,1.9,13.5,5,19.4c2.4,4.6,6.8,8.2,10.6,11.7c2.6,2.3,6.9,4.6,4.9,8.6c-1.2,2.4-4.4,4.5-6.3,6.3c-0.2,0.2-0.2,0.4,0,0.6
				c2.3,2.1,4.7,3.9,7,6c0.7,0.7,2.5,0,3.1-0.5c7.9-6,15.1-13,22.9-19.2c0.2-0.1,0.6-0.6,0.3-0.8c-1.5-1-6.3-1.3-6.5,1.4
				c-0.2,3.3,5.2,0.1,6.2-0.6c0.2-0.2,0.6-0.5,0.3-0.8c-6.7-6.6-15.4-10.2-19-19.2c-0.8-2-2.6-3.4-3.4-5.4c-0.9-2.3-0.7-4.9-0.4-7.3
				c0.9-6.1,6.8-8.7,11.7-11.6c4.4-2.7,9-5.1,13.5-7.5c3.9-2.1,10-4,13.3-7c2.5-2.3,3.5-7.4,4.1-10.6c1-5.2,1.1-10.5,2.1-15.7
				c0.2-1.1-3.4-0.5-3.6,0.6c-1.1,6.3-1.1,12.8-2.8,18.9c-1,3.8-2.2,6-5.5,8c-3.1,1.9-6.5,3.4-9.7,5.1c-5.8,3-11.5,6.2-17,9.6
				c-2.4,1.5-6.8,3.5-8.4,5.8c-1,1.4-1.2,3.9-1.4,5.7c-0.3,2.1-0.4,4.3,0.3,6.4c0.8,2.6,2.8,4.1,3.7,6.6c2,5.3,5.8,8.8,10.6,12
				c2.4,1.6,4.4,3.8,6.8,5.4c2.5,1.7,1.9,0.1,0.5,2c-1.1,1.4-3,2.4-4.3,3.6c-5.7,4.8-11.2,9.9-17.1,14.4c1-0.2,2.1-0.3,3.1-0.5
				c-1.4-1.3-3.6-2.5-4.7-4c-1.3-1.7-1.6-1.6-0.1-3.5c2-2.5,4.3-4.3,5.9-7.1c0.1-0.1,0-0.3-0.1-0.4c-3.4-3.9-7.5-7.1-11.2-10.8
				c-4.5-4.5-6.9-9.2-8.3-15.5c-1.2-5.4-1.9-10.9-4.1-16c-2.3-5.2-5.8-5.1-10.4-7.7c-1-0.5-2.9,0-3.5,0.9
				c-5.3,9.6-12.5,18-17.7,27.6c-2.3,4.3-4.6,9.1-5,14c-0.5,5.9,1.5,11.8,2,17.7c0,0.5,1.3,0.4,1.5,0.3c1.2-0.2,2.5-0.4,3.1-1.5
				c0.2-0.4-0.5-0.5-0.6-0.6c-1.5-0.3-3.2,0.2-4,1.5c-0.3,0.5,0.9,0.6,1,0.6c5.3-0.1,10.9-0.3,15.6-3c6.9-4,12.2-10.7,17.3-16.6
				c-1.2,0.2-2.3,0.4-3.5,0.5c0.6-0.1,1.1-0.1,1.7-0.2c0.5,0.1,1,0.2,1.5,0.3c0.1-0.2,0.2-0.5,0.2-0.7c-1.1,0.2-2.2,0.5-3.3,0.7
				c1.8,1.4,4.1,2.6,4,5.2c-0.1,1.7-2.1,3.8-3,5.2c-2.3,3.2-5.1,6-7.9,8.8c-0.8,0.8-2.8,3.5-3.7,3.6c-0.9,0.1-1.3-0.6-2.1-0.9
				c-2.4-0.9-4.8-1.2-7.4-1.2c-5.1,0-11.8,1-16.2,3.9c-3.8,2.5,0.7,6.5-0.6,10.2c-0.3,0.7,1.2,0.6,1.5,0.5c1-0.1,8.6-1.3,5.2-3.1
				c-1.8-0.9-6.4,0.4-6.7,2.6c-0.1,0.7,1.1,0.6,1.5,0.5c7-1.4,14.2-2.1,21.3-2.8c3-0.3,5.9-0.5,8.9-0.9c2.2-0.3,9.6-2.6,11.2-0.2
				c1.6,2.4-1.9,7.4-3,8.9c-2.4,3.3-4.1,2.9-7.5,1.4c-3.6-1.6-7.9-1.2-11.6,0.2c-2.4,0.9-5,1.9-5.9,4.5c-1.5,4.4,1.1,10.2,2.5,14.4
				c1.9,5.8,4.8,11.2,6.8,17c1.7,4.8-0.6,11-1.7,15.8c-1.7,7.4-3.8,16.3,1.5,22.8c0.8,1,1.8,1.7,2.7,2.6c1.7,1.7,2.3,2.8,3,5.1
				c0.9,3,1.4,6.3,2,9.4c1.7,7.5,3.4,15,4.7,22.5c0.6,3.6,1.6,7.3,1.1,10.9c-0.3,2.9-1.2,5.9-1.8,8.7c-1.5,7-2.9,14-4,21.1
				c-1.8,12.1-2.6,24.6-0.5,36.8c1.1,6.3,2.8,13.5,6.2,19c0.8,1.4,1.8,2.7,2.6,4.1c2.1,3.5,2.1,5.1,0.4,8.9
				c-3.2,6.9-7.4,13.2-11.1,19.8c-1.6,2.9-3.8,6.2-4.8,9.4c-0.7,2.4-0.8,0.9-0.5,2.5c0.3,1.5,1.4,2.3,1.4,3.9c0,0.8,2.2,0.2,2.5,0.1
				c0.8-0.4,1.6-0.6,2.1-1.3c0.1-0.1,0.3-0.5,0-0.6c-1.4-0.8-4.4-0.2-4.6,1.7c-0.1,1,2,0.5,2.5,0.3c13.4-5.9,22.8-16.6,33.4-26.3
				c-1.1,0.2-2.2,0.5-3.3,0.7c6.1,6.3,11,11.7,19.9,13.7c3.4,0.8,6.9,0.9,10.4,0.3c3.9-0.6,7.1-2.5,11.1-1.1
				c6.9,2.3,13.9,0.5,20.7-1.4c4.8-1.4,9.5-3.1,14.4-3.9c7-1.1,12.9,0.5,19,3.9C345.2,433.7,348.3,432.2,347.6,431.9L347.6,431.9z"
				/>
		</g>
	</g>
	<g>
		<g>
			<path class="st7" d="M227.2,309.4c-5.8,7.3-11.3,14.9-17.1,22.2c-5.9,7.5-11.9,15.2-14.4,24.5c-2.8,10.3-0.4,20.9,1.5,31.1
				c2.1,11.3,1.4,22,1.3,33.4c-0.1,8.8,1,17.7,6.6,24.8c5.2,6.6,13.1,10.7,21.2,12.9c9.9,2.7,20.2,2.4,30.3,2
				c10.4-0.4,21,0.3,31.4-0.7c9.8-0.9,18.5-4,26-10.5c7.9-6.8,14.3-16.2,25.5-17.2c1.9-0.2,2.9-2.5,0.4-2.3
				c-16.4,1.5-23.1,17.4-36.7,24.1c-9.3,4.6-20.2,4-30.2,4c-10.5-0.1-21,1-31.4,0.4c-9.5-0.5-19.1-2.7-27-8.4
				c-8.2-5.9-11.9-14.8-12.4-24.8c-0.5-9.6,1.2-19.2,0.2-28.8c-1.1-10.6-4.5-20.9-4.2-31.7c0.3-11.4,6.3-20.9,13.1-29.6
				c6.3-8.2,12.6-16.5,19-24.6C231.5,308.5,228.1,308.3,227.2,309.4L227.2,309.4z"/>
		</g>
	</g>
	<path class="st7" d="M215.7,341.6c-1.1,0.1-3.1,0.7-3.3,2.1c0,0.1,0,0.2,0.1,0.3c0,0.1-0.1,0.2,0,0.3c0.5,1,1.8,1.1,2.8,1
		c1.2-0.2,2.9-0.9,2.8-2.4C218,341.8,216.7,341.6,215.7,341.6z"/>
	<path class="st7" d="M222.1,117.8c-1.1,0.1-3.1,0.7-3.3,2.1c0,0.1,0,0.2,0.1,0.3c0,0.1-0.1,0.2,0,0.3c0.5,1,1.8,1.1,2.8,1
		c1.2-0.2,2.9-0.9,2.8-2.4C224.4,118,223.1,117.7,222.1,117.8z"/>
	<path class="st7" d="M304.5,439.2c-1.1,0.1-3.1,0.7-3.3,2.1c0,0.1,0,0.2,0.1,0.3c0,0.1-0.1,0.2,0,0.3c0.5,1,1.8,1.1,2.8,1
		c1.2-0.2,2.9-0.9,2.8-2.4C306.7,439.4,305.4,439.1,304.5,439.2z"/>
	<path class="st7" d="M210.1,354.1c-0.1-0.6-1.6-0.2-2-0.1c-0.3,0.1-1.5,0.4-1.6,0.9c-0.2,0.2-0.3,0.3-0.3,0.4
		c0.2,0.2,0.3,0.5,0.5,0.7c0.4,0.5,1.4,0.3,2,0.1c0.4-0.1,1.8-0.5,1.6-1.1C210.3,354.7,210.2,354.4,210.1,354.1z"/>
	<path class="st7" d="M223,131.1c-0.1-0.6-1.6-0.2-2-0.1c-0.3,0.1-1.5,0.4-1.6,0.9c-0.2,0.2-0.3,0.3-0.3,0.4
		c0.2,0.2,0.3,0.5,0.5,0.7c0.4,0.5,1.4,0.3,2,0.1c0.4-0.1,1.8-0.5,1.6-1.1C223.1,131.7,223,131.4,223,131.1z"/>
	<path class="st7" d="M251.7,450.3c-0.1-0.6-1.6-0.2-2-0.1c-0.3,0.1-1.5,0.4-1.6,0.9c-0.2,0.2-0.3,0.3-0.3,0.4
		c0.2,0.2,0.3,0.5,0.5,0.7c0.4,0.5,1.4,0.3,2,0.1c0.4-0.1,1.8-0.5,1.6-1.1C251.8,450.9,251.7,450.6,251.7,450.3z"/>
	<path class="st7" d="M214.8,370.2c-0.4-0.4-1.2-0.3-1.7-0.2c-0.6,0.1-1.3,0.4-1.7,0.9c-0.6,0.9-0.8,1.8-0.6,2.8
		c0,0.3,0.3,0.4,0.7,0.5c0.2,0.2,0.7,0.3,0.9,0.3c0.9,0,1.8-0.3,2.4-1C215.7,372.6,215.7,371.2,214.8,370.2z"/>
	<path class="st7" d="M206.6,363.8c-1-0.6-2.3-0.5-3.2,0.3c-0.4,0.3-0.7,0.8-0.6,1.3c-0.3,0.4-0.5,0.9-0.1,1.4
		c0.5,0.8,1.7,0.6,2.5,0.3c0.8-0.3,1.6-1,1.8-1.9C207,364.7,207.1,364.1,206.6,363.8z"/>
	<path class="st7" d="M211.9,131.6c-1-0.6-2.3-0.5-3.2,0.3c-0.4,0.3-0.7,0.8-0.6,1.3c-0.3,0.4-0.5,0.9-0.1,1.4
		c0.5,0.8,1.7,0.6,2.5,0.3c0.8-0.3,1.6-1,1.8-1.9C212.4,132.4,212.4,131.9,211.9,131.6z"/>
	<path class="st7" d="M278,444.3c-1-0.6-2.3-0.5-3.2,0.3c-0.4,0.3-0.7,0.8-0.6,1.3c-0.3,0.4-0.5,0.9-0.1,1.4
		c0.5,0.8,1.7,0.6,2.5,0.3c0.8-0.3,1.6-1,1.8-1.9C278.5,445.1,278.5,444.6,278,444.3z"/>
	<path class="st7" d="M209.5,392.7c-1.2,0.2-2.6,0.8-2.8,2.2c0,0.2,0,0.4,0.1,0.5c-0.4,0.5-0.6,1.1,0,1.5c0.7,0.5,1.9,0.2,2.6-0.2
		c1-0.7,1.7-1.8,1.7-3C211.2,392.9,210.3,392.5,209.5,392.7z"/>
	<path class="st7" d="M252.4,431.8c-1.2,0.2-2.6,0.8-2.8,2.2c0,0.2,0,0.4,0.1,0.5c-0.4,0.5-0.6,1.1,0,1.5c0.7,0.5,1.9,0.2,2.6-0.2
		c1-0.7,1.7-1.8,1.7-3C254.1,432.1,253.2,431.7,252.4,431.8z"/>
	<path class="st7" d="M218.7,396.5v0.8c0,0.6,3.6,0.1,3.6-1v-0.8C222.3,394.9,218.7,395.4,218.7,396.5z"/>
	<path class="st7" d="M238.5,444.7v0.8c0,0.6,3.6,0.1,3.6-1v-0.8C242.1,443.2,238.5,443.7,238.5,444.7z"/>
	<path class="st7" d="M214.9,383.7c-0.7-1-2.4-0.5-3.2,0c-0.7,0.4-1.2,1.1-1.3,1.9c-0.1,0.8,1,0.8,1.5,0.7c0.3,0,0.5-0.1,0.8-0.2
		c0.6-0.1,1.1-0.3,1.5-0.6C214.8,385.2,215.4,384.4,214.9,383.7z"/>
	<path class="st7" d="M261.8,443.4c-0.7-1-2.4-0.5-3.2,0c-0.7,0.4-1.2,1.1-1.3,1.9c-0.1,0.8,1,0.8,1.5,0.7c0.3,0,0.5-0.1,0.8-0.2
		c0.6-0.1,1.1-0.3,1.5-0.6C261.8,444.9,262.4,444.2,261.8,443.4z"/>
	<path class="st7" d="M218.8,409.5c-0.1-0.2-0.4-0.3-0.8-0.3c0,0,0-0.1,0-0.1c0.2-0.6-1.2-0.3-1.4-0.3c-0.5,0.1-0.9,0.2-1.4,0.4
		c-0.2,0.1-0.6,0.3-0.7,0.5c-0.3,0.7-0.1,1.4,0.4,1.9c0.3,0.3,1.3,0,1.6,0c0.6-0.1,1.2-0.3,1.7-0.7
		C218.7,410.5,218.9,410,218.8,409.5z"/>
	<path class="st7" d="M207.7,143.4c-0.1-0.2-0.4-0.3-0.8-0.3c0,0,0-0.1,0-0.1c0.2-0.6-1.2-0.3-1.4-0.3c-0.5,0.1-0.9,0.2-1.4,0.4
		c-0.2,0.1-0.6,0.3-0.7,0.5c-0.3,0.7-0.1,1.4,0.4,1.9c0.3,0.3,1.3,0,1.6,0c0.6-0.1,1.2-0.3,1.7-0.7
		C207.6,144.5,207.9,144,207.7,143.4z"/>
	<path class="st7" d="M295.1,448.8c-0.1-0.2-0.4-0.3-0.8-0.3c0,0,0-0.1,0-0.1c0.2-0.6-1.2-0.3-1.4-0.3c-0.5,0.1-0.9,0.2-1.4,0.4
		c-0.2,0.1-0.6,0.3-0.7,0.5c-0.3,0.7-0.1,1.4,0.4,1.9c0.3,0.3,1.3,0,1.6,0c0.6-0.1,1.2-0.3,1.7-0.7
		C295,449.8,295.2,449.3,295.1,448.8z"/>
	<path class="st7" d="M211.7,416.8c-0.3-0.8-1.1-0.8-1.7-0.7c-0.7,0.1-1.5,0.3-2.1,0.6c-0.3,0.1-0.6,0.3-0.8,0.6
		c-0.4,0.4-0.1,1,0.3,1.3c0.3,0.2,0.7,0.2,1,0.2c0.9,0,1.8-0.3,2.6-0.7C211.4,418,212,417.5,211.7,416.8z"/>
	<path class="st7" d="M214.9,421.4c-0.5,0.1-1,0.2-1.4,0.5c-0.2,0.2-0.7,0.5-0.7,0.8v1.9c0,0.8,0.9,0.9,1.6,0.8
		c0.5-0.1,1-0.2,1.4-0.5c0.2-0.2,0.7-0.5,0.7-0.8v-1.9C216.5,421.5,215.5,421.4,214.9,421.4z"/>
	<g>
		<g>
			<path class="st7" d="M237.5,135.8c-18.1-5.2-30.9,12.6-35.5,27.5c-0.5,1.6,3.2,1.2,3.6-0.3c3.8-12.3,14.2-29.3,29.7-24.9
				C236.9,138.6,239.7,136.4,237.5,135.8L237.5,135.8z"/>
		</g>
	</g>
	<g>
		<g>
			<path class="st7" d="M235.2,201.5V199c-1,0.1-1.9,0.2-2.9,0.3l-0.6-1.8c3.2-0.2,5.8-0.8,7.7-1.5l0.9,1.6c-1.1,0.4-2.1,0.7-3.2,1
				v2.8h3.4v1.8h-3.4v0.8c1.2,1,2.3,2.2,3.5,3.4l-1.2,1.7c-0.9-1.3-1.7-2.4-2.4-3.2v8.8h-1.9v-8.4c-0.8,1.7-1.9,3.3-3.2,4.8
				l-0.8-2.2c1.8-1.7,3.2-3.6,4-5.7v-0.1h-3.5v-1.8H235.2z M249.4,214.2h-1.9v-1.5H243v1.8h-1.9v-17.2h8.3V214.2z M247.5,210.8
				v-11.8H243v11.8H247.5z"/>
			<path class="st7" d="M264.6,207c-0.1,0.4-0.1,0.8-0.2,1.2h7.7v1.8h-8.4c-0.5,0.9-1.1,1.7-1.9,2.4c-1.4,1.2-3.8,2.2-7.2,2.9
				l-0.8-1.9c3-0.5,5.1-1.3,6.4-2.3c0.4-0.3,0.8-0.7,1.1-1.1h-6.5v-1.8h7.6c0.1-0.5,0.2-0.9,0.3-1.4L264.6,207z M259.4,197.9
				c-0.2-0.6-0.5-1.2-0.9-1.7l2-0.3c0.3,0.6,0.6,1.3,0.8,2h4.1c0.3-0.7,0.5-1.4,0.7-2.1l2,0.3c-0.2,0.6-0.4,1.2-0.7,1.8h4.3v1.8
				h-7.4v1.6h6.4v1.7h-6.4v1.6h8.1v1.8h-18.2v-1.8h8.1V203h-6.3v-1.7h6.3v-1.6H255v-1.8H259.4z M273,213.5l-1.1,1.7
				c-2.5-1.4-5-2.5-7.6-3.2l1-1.5C268.2,211.3,270.7,212.3,273,213.5z"/>
			<path class="st7" d="M281.6,204.3l-1.4,1.4c-0.8-1-2-2-3.5-3.1l1.3-1.3C279.4,202.3,280.6,203.3,281.6,204.3z M281.8,207.6
				c-0.9,2.6-2,5.1-3.1,7.4l-1.8-0.8c1.2-2.4,2.3-4.8,3.2-7.2L281.8,207.6z M282.1,199.3l-1.4,1.4c-0.8-0.9-2-1.9-3.5-3l1.3-1.3
				C280,197.4,281.1,198.3,282.1,199.3z M282.1,203.4l-1.2-1.5c2.1-1.4,3.9-3.4,5.4-6l1.9,0.4c-0.3,0.5-0.6,1-0.9,1.4h5.5v1.3
				c-0.5,0.8-1,1.5-1.6,2.1h3.2v9.1h-11.1v-7.9C282.9,202.8,282.5,203.1,282.1,203.4z M284.8,211.2c-0.5,1.5-1.1,2.9-2,4l-1.6-1
				c0.8-1,1.4-2.1,1.8-3.3L284.8,211.2z M290.5,199.4h-4.4c-0.5,0.6-1,1.2-1.6,1.8h4.5C289.5,200.7,290,200.1,290.5,199.4z M288,205
				v-2h-2.8v2H288z M288,206.6h-2.8v2h2.8V206.6z M288.3,214.7l-1.8,0.2c-0.1-1.6-0.4-2.8-0.8-3.6l1.6-0.2
				C287.9,212,288.1,213.2,288.3,214.7z M291.7,214.6l-1.8,0.2c-0.1-1.6-0.5-2.8-0.9-3.7l1.7-0.2
				C291.1,211.9,291.5,213.1,291.7,214.6z M289.8,205h2.9v-2h-2.9V205z M292.6,206.6h-2.9v2h2.9V206.6z M295.7,214.5l-1.7,0.6
				c-0.5-1.4-1.1-2.7-1.9-4.1l1.7-0.5C294.7,212,295.3,213.3,295.7,214.5z"/>
			<path class="st7" d="M304.3,204.4l-1.4,1.4c-0.8-1-2-1.9-3.4-3l1.4-1.3C302.3,202.4,303.4,203.4,304.3,204.4z M304.3,208.2
				c-0.8,2.4-1.6,4.7-2.6,6.8l-2-0.9c1.1-2.2,2-4.4,2.8-6.7L304.3,208.2z M304.9,199.4l-1.4,1.4c-0.9-1-2.1-2-3.7-3.1l1.4-1.3
				C302.7,197.3,304,198.4,304.9,199.4z M308,198.1v-2h1.9v2h3v-2h1.9v2h2.5v1.8h-2.5v2h3.1v1.8h-3.1c0.8,1.2,2.1,2.2,3.7,2.9
				l-0.8,1.7c-1-0.5-1.9-1.1-2.6-1.7v4.1H309v1.6c0,0.5,0.3,0.7,0.8,0.7h5.3c0.4,0,0.6-0.2,0.7-0.4c0.1-0.2,0.2-0.8,0.3-1.7l1.9,0.6
				c-0.1,1-0.3,1.8-0.4,2.2c-0.3,0.7-0.9,1.1-1.8,1.1h-6.7c-1.3,0-2-0.6-2-1.8v-5.7c-0.6,0.5-1.3,1-2,1.5l-1-1.7
				c1.9-1,3.2-2.2,3.9-3.4h-3v-1.8h3.1v-2h-2.3v-1.8H308z M314.3,205.6c-0.5-0.6-1-1.2-1.3-1.9h-3.2c-0.3,0.7-0.7,1.3-1.1,1.9H314.3
				z M313.4,208.9v-1.7H309v1.7H313.4z M313,201.9v-2h-3v2H313z"/>
		</g>
		<g>
			<path class="st7" d="M296.8,401l-1.1-1.6c3.6-1.6,6.5-3.6,8.7-6h1.6c1.9,2.4,4.8,4.4,8.6,6l-1.1,1.6c-1-0.4-1.9-0.9-2.8-1.4v1.1
				h-4.5v2.5h7.2v1.8h-7.2v5.1h1.9c0.6-1.3,1.2-2.7,1.7-4.1l1.8,0.6c-0.5,1.3-1,2.5-1.5,3.5h4v1.9h-17.8V410h4.1
				c-0.4-1.2-0.9-2.3-1.5-3.4l1.8-0.6c0.6,1.1,1.1,2.4,1.6,4h2V405h-7.2v-1.8h7.2v-2.5h-4.5v-1.2C298.7,400,297.8,400.5,296.8,401z
				 M305.1,395.2c-1.4,1.4-2.9,2.6-4.5,3.7h8.9C307.8,397.8,306.4,396.6,305.1,395.2z"/>
			<path class="st7" d="M323.2,401.6l-1.4,1.4c-0.8-1-1.9-1.9-3.4-3l1.4-1.4C321.1,399.6,322.3,400.6,323.2,401.6z M323.4,405
				c-0.8,2.6-1.8,5-2.9,7.3l-2-0.9c1.2-2.3,2.2-4.7,3.1-7.2L323.4,405z M323.8,396.6l-1.4,1.4c-0.9-1-2.1-2-3.6-3.1l1.4-1.4
				C321.6,394.6,322.8,395.6,323.8,396.6z M328.4,396.3c-0.8,3.7-1.9,6.6-3.3,8.6l-1.5-1.4c1.4-2.2,2.4-4.7,3-7.7L328.4,396.3z
				 M336.6,403.6c-1.9,4.5-5.7,7.4-11.4,8.8l-1.1-1.8c5.4-1.2,9-3.9,10.8-8L336.6,403.6z M331.6,393.3v12.4h-2v-12.4H331.6z
				 M337.6,401.2l-1.7,0.9c-1-2.2-2-4.3-3.1-6.1l1.7-0.8C335.5,397.1,336.6,399.1,337.6,401.2z"/>
			<path class="st7" d="M345.6,401.4l-1.3,1.3c-0.7-1-1.8-2-3.2-3.1l1.3-1.2C343.7,399.4,344.7,400.4,345.6,401.4z M345.9,404.8
				c-0.9,2.6-1.9,5-2.9,7.3l-1.8-0.8c1.2-2.4,2.2-4.8,3.1-7.2L345.9,404.8z M345.7,396.4l-1.3,1.3c-0.7-0.9-1.7-1.9-3-3l1.3-1.2
				C343.9,394.5,344.9,395.4,345.7,396.4z M347.1,400.5c-0.1,0.9-0.2,1.7-0.4,2.5l-1.1-0.4c0.2-0.7,0.4-1.5,0.5-2.4L347.1,400.5z
				 M350.6,399.7l-1.2,0.3c-0.1-0.2-0.1-0.4-0.1-0.6c-1,0.2-2.1,0.3-3.4,0.5l-0.2-1.1c0.4-0.1,1-0.8,1.8-1.9c-0.5,0-1,0.1-1.4,0.1
				l-0.2-1c0.6-0.6,1.1-1.6,1.6-2.8l1.3,0.4c-0.4,1-0.9,1.7-1.4,2.3c0.3,0,0.7-0.1,1-0.1c0.2-0.4,0.4-0.7,0.7-1.1l1.3,0.5
				c-0.6,0.9-1.1,1.6-1.5,2.2l1.1-0.3C350.1,397.8,350.4,398.7,350.6,399.7z M348.9,408h10.3c0,1.8-0.2,3-0.5,3.5
				c-0.3,0.5-1,0.8-2.1,0.8c-1,0-2,0-2.9-0.1l-0.4-1.6c1.1,0,2.1,0.1,3,0.1c0.5,0,0.8-0.1,0.9-0.3c0.1-0.2,0.1-0.5,0.2-1H347
				l0.6-3.9h9.2v-1h-9.4v-1.4h11.2v3.8h-9.4L348.9,408z M348.8,402.7l-1.2,0.1c0-1-0.1-1.8-0.1-2.4l1-0.1
				C348.7,400.9,348.8,401.7,348.8,402.7z M347.7,398.6l1.3-0.2c-0.1-0.3-0.2-0.6-0.3-0.9C348.3,397.9,348,398.3,347.7,398.6z
				 M350.6,402.2l-1,0.4c-0.1-0.7-0.3-1.4-0.5-2.1l1-0.3C350.3,400.9,350.4,401.5,350.6,402.2z M351.9,394.4c-0.1-0.4-0.2-0.7-0.4-1
				l1.6-0.3c0.1,0.4,0.2,0.8,0.4,1.3h1.7v1.3h-4.9v-1.3H351.9z M354.8,399.5v3.1h-4v-3.1H354.8z M354.6,396.3v1.1h-3.7v-1.1H354.6z
				 M354.6,397.9v1.1h-3.7v-1.1H354.6z M353.5,400.5h-1.4v1.1h1.4V400.5z M360.1,399.6l-1.1,0.3l-0.1-0.5c-1,0.2-2.2,0.4-3.4,0.5
				l-0.3-1.1c0.4-0.1,1-0.7,1.8-1.8c-0.5,0-0.9,0.1-1.4,0.1l-0.2-1c0.6-0.6,1.1-1.5,1.6-2.7l1.3,0.4c-0.4,0.9-0.9,1.7-1.4,2.2
				c0.3,0,0.7-0.1,1-0.1c0.2-0.3,0.5-0.7,0.7-1.1l1.3,0.5c-0.5,0.7-1,1.4-1.4,1.9l0.8-0.2C359.5,397.7,359.8,398.6,360.1,399.6z
				 M356.6,400.4c-0.1,0.8-0.2,1.7-0.3,2.5l-1.1-0.4c0.2-0.7,0.4-1.5,0.5-2.3L356.6,400.4z M358.4,402.6l-1.2,0.1
				c0-1-0.1-1.8-0.2-2.4l1-0.1C358.2,400.8,358.3,401.6,358.4,402.6z M357.1,398.6c0.5-0.1,1-0.2,1.4-0.3c-0.1-0.3-0.2-0.6-0.4-0.9
				C357.7,397.9,357.4,398.3,357.1,398.6z M360.2,402l-1,0.4c-0.2-0.7-0.4-1.4-0.6-2.1l0.9-0.3C359.7,400.8,360,401.4,360.2,402z"/>
		</g>
		<g class="st39">
			<path class="st40" d="M288.8,237.5c0,0,45.6,72.9-22,159.4"/>
			<polygon class="st2" points="263.1,379.2 262.5,399.5 286.4,395.3 			"/>
		</g>
		<g class="st19">
			<g>
				<path class="st26" d="M343.3,215.7c2.9,1,5.7,1,8.6,0c1.2-0.4,2.4-1,3.5-1.8c0.9-0.6,2.2-2.6,3.1-3c-0.9,0.1-1.7,0.1-2.6,0.2
					c3.2,1.7,4.1,3.9,8.2,3.1c3.9-0.8,4.4-3.2,7.1-5.5c-1,0.3-2,0.5-3.1,0.8c2.1,0.3,4.3,3.4,6.4,4.3c1.6,0.7,3.3,1.1,5.1,0.9
					c1.7-0.2,3.4-0.8,4.8-1.7c1.3-0.9,2-3.4,3.2-4c-1,0.2-2,0.3-3.1,0.5c1.7,0.8,2.7,3,4.4,4c1,0.6,2.1,1,3.2,1.2
					c2.5,0.4,5-0.1,7.3-1.2c2.8-1.3,0.2-2.4-1.7-1.5c-6.4,3-7.4-6.7-12.9-3.9c-2.9,1.5-2.1,5.4-6.9,3.9c-2.6-0.8-4.1-4-6.8-4.4
					c-1.2-0.2-2.4,0.1-3.5,0.8c-0.6,0.4-0.8,0.7-1.2,1.2c-0.6,2.2-2.2,2.8-4.7,2c-0.4-0.4-0.8-0.8-1.1-1.2c-5.9-3.2-7.4,5.8-14,3.6
					C345.6,213.3,341.7,215.1,343.3,215.7L343.3,215.7z"/>
			</g>
		</g>
		<g class="st19">
			<g>
				<path class="st26" d="M233.4,255.9c2.1,0.6,4.1,0.6,6.2-0.1c1.8-0.7,3.4-2.8,4.5-3.2c-0.9,0.1-1.7,0.1-2.6,0.2
					c2.3,1.2,3.1,2.7,6.1,2.1c2.8-0.6,3.4-2.3,5.3-4c-1,0.3-2,0.5-3.1,0.8c1.3,0.2,2.7,2.1,3.9,2.7c1.2,0.6,2.4,0.8,3.7,0.8
					c1.2-0.1,2.4-0.3,3.4-0.9c1.6-0.9,1.9-2.4,3.3-3.4c-1.2,0.2-2.3,0.5-3.5,0.7c2.2,1.1,2.7,3.1,5.5,3.5c1.9,0.3,3.6-0.2,5.4-0.9
					c2.8-1.1,0.2-2.5-1.7-1.7c-2.4,1-4-2.1-5.7-3c-1.1-0.5-2.6,0.1-3.5,0.7c-1.2,0.9-1.7,2.5-3.5,2.1c-1.5-0.3-2.5-2.4-4-2.8
					c-1.8-0.5-2.9,0.3-4.3,1.1c-0.3,0.2-0.4,0.8-0.6,1c-1,0.5-1.9-0.3-2.6-0.4c-0.6-0.2-1-0.6-1.7-0.6c-3.2-0.3-4.5,4.1-8,3.1
					C234.8,253.2,231,255.2,233.4,255.9L233.4,255.9z"/>
			</g>
		</g>
		<g class="st19">
			<g>
				<path class="st26" d="M311.9,360.2c2.4,0.8,4.7,0.8,7.1,0c1-0.3,2-0.8,2.9-1.3c1.1-0.7,2.2-2.4,3.3-2.9
					c-1.1,0.1-2.2,0.3-3.3,0.4c2.7,1.5,3.5,3.2,7,2.6c3.7-0.7,4.2-2.7,6.6-4.9c-1.1,0.4-2.2,0.7-3.4,1.1c1.6,0.2,3.3,2.7,4.9,3.4
					c1.7,0.8,3.3,1,5.1,0.7c1.1-0.2,2.3-0.5,3.3-1.1c1.7-1,1.9-2.6,3.4-3.8c-1.2,0.2-2.5,0.4-3.7,0.6c2.5,1.2,3.4,3.8,6.6,4.3
					c2.4,0.4,4.6-0.3,6.8-1.3c2.6-1.2-1.4-1.2-2.6-0.7c-1.6,0.7-4-1.4-5.1-2.2c-0.7-0.6-0.8-1.1-1.7-1.6c-1.1-0.5-2.8,0-3.7,0.6
					c-2.2,1.6-1.7,3.9-6.1,1.9c-1.4-0.6-2.2-2.2-3.7-2.6c-1.9-0.6-3.3,0.5-4.8,1.5c-0.3,0.2-0.3,0.8-0.6,1c-3.5,2.4-1.8,0.3-3.6-0.4
					c-0.8-0.3-1.1-0.8-2-0.8c-4.1-0.2-4.8,5.3-9.4,3.8C314.4,358.1,310.5,359.8,311.9,360.2L311.9,360.2z"/>
			</g>
		</g>
		<rect x="272.4" y="284.8" class="st1" width="70.2" height="26.9"/>
	</g>
	<g>
		<path class="st2" d="M281.8,295.8c-0.5,0.3-1.1,0.6-1.6,0.8v6.1c0,1.3-0.6,2-1.9,2h-1.8l-0.4-1.9c0.5,0.1,1.1,0.1,1.6,0.1
			c0.4,0,0.6-0.2,0.6-0.6v-4.8c-0.7,0.2-1.4,0.5-2.1,0.7l-0.5-1.9c0.9-0.2,1.7-0.5,2.5-0.8v-4.3H276v-1.9h2.3v-3.6h1.9v3.6h1.7v1.9
			h-1.7v3.5c0.5-0.3,1.1-0.6,1.6-0.8V295.8z M293.5,295.8h-9v6c0,0.5,0.3,0.7,0.9,0.7h5.9c0.6,0,1-0.2,1.2-0.6
			c0.1-0.3,0.3-1.2,0.5-2.7l1.8,0.6c-0.2,1.4-0.4,2.4-0.6,3c-0.3,1-1.1,1.5-2.3,1.5h-7.3c-1.4,0-2-0.6-2-1.8v-15.8h10.9V295.8z
			 M284.5,288.6v5.4h2.6v-5.4H284.5z M291.7,293.9v-5.4H289v5.4H291.7z"/>
		<path class="st2" d="M303.2,294l-1.4,1.4c-0.8-1-1.9-1.9-3.4-3l1.4-1.4C301.2,292.1,302.3,293,303.2,294z M303.5,297.4
			c-0.8,2.6-1.8,5-2.9,7.3l-2-0.9c1.2-2.3,2.2-4.7,3.1-7.2L303.5,297.4z M303.8,289.1l-1.4,1.4c-0.9-1-2.1-2-3.6-3.1l1.4-1.4
			C301.6,287,302.9,288.1,303.8,289.1z M308.4,288.7c-0.8,3.7-1.9,6.6-3.3,8.6l-1.5-1.4c1.4-2.2,2.4-4.7,3-7.7L308.4,288.7z
			 M316.6,296c-1.9,4.5-5.7,7.4-11.4,8.8l-1.1-1.8c5.4-1.2,9-3.9,10.8-8L316.6,296z M311.7,285.7v12.4h-2v-12.4H311.7z M317.6,293.7
			l-1.7,0.9c-1-2.2-2-4.3-3.1-6.1l1.7-0.8C315.5,289.5,316.6,291.5,317.6,293.7z"/>
		<path class="st2" d="M330.1,294.4v-2.6c1.6-1,3.2-2.1,4.7-3.4h-11.1v-1.8h13.7v1.8c-1.6,1.6-3.4,3-5.4,4.4v1.7h7.7v1.9h-7.7v6.3
			c0,1.3-0.7,2-2,2h-3.6l-0.5-1.9c1,0,2.2,0.1,3.4,0.1c0.6,0,0.8-0.3,0.8-0.8v-5.7h-8.5v-1.9H330.1z"/>
		<path class="st2" d="M350.6,295.7c-0.7,0.4-1.3,0.7-1.9,1v5.9c0,1.3-0.7,2-2,2h-1.8l-0.4-1.9c0.5,0.1,1,0.1,1.5,0.1
			s0.7-0.2,0.7-0.7v-4.6c-0.8,0.3-1.5,0.6-2.3,0.8l-0.5-2c1-0.2,1.9-0.5,2.8-0.8v-4.4h-2.5v-1.9h2.5v-3.6h2v3.6h1.9v1.9h-1.9v3.5
			c0.7-0.3,1.3-0.7,1.9-1V295.7z M362.4,304.7h-1.9v-0.9h-7.1v0.9h-1.9v-15.5h4.4v-3.5h2v3.5h4.5V304.7z M355.9,295.4v-4.3h-2.5v4.3
			H355.9z M355.9,301.9v-4.6h-2.5v4.6H355.9z M357.8,295.4h2.6v-4.3h-2.6V295.4z M357.8,301.9h2.6v-4.6h-2.6V301.9z"/>
		<path class="st2" d="M377.5,286.4v1.9h-5.2c-0.9,1.8-1.7,3.1-2.4,4.1c1.7-0.2,3.3-0.4,4.9-0.7c-0.4-0.6-0.8-1.3-1.3-1.9l1.5-1
			c1.4,1.8,2.4,3.4,3.1,4.7l-1.6,1.1c-0.3-0.5-0.6-1-0.8-1.6c-2.6,0.5-5.4,0.9-8.5,1.2l-0.4-1.8c0.3,0,0.6-0.1,0.8-0.2
			c0.7-0.6,1.6-1.9,2.7-4.1h-3.1v-1.9H377.5z M377.6,302.8c-3.2,0.7-6.7,1.2-10.3,1.7l-0.5-1.9c1.6-0.2,3.2-0.4,4.7-0.6v-3.4h-3.8
			v-1.9h3.8v-2.2h2v2.2h3.5v1.9h-3.5v3.1c1.4-0.2,2.8-0.5,4.1-0.8V302.8z M380.9,287.6v12.7H379v-12.7H380.9z M379.9,304.6l-0.4-1.9
			c1,0.1,1.9,0.1,2.8,0.1c0.5,0,0.8-0.3,0.8-0.8v-16.2h2v16.7c0,1.4-0.7,2.1-2.1,2.1H379.9z"/>
		<path class="st2" d="M390.6,293.4l-1.1-1.6c3.6-1.6,6.5-3.6,8.7-6h1.6c1.9,2.4,4.8,4.4,8.6,6l-1.1,1.6c-1-0.4-1.9-0.9-2.8-1.4v1.1
			H400v2.5h7.2v1.8H400v5.1h1.9c0.6-1.3,1.2-2.7,1.7-4.1l1.8,0.6c-0.5,1.3-1,2.5-1.5,3.5h4v1.9h-17.8v-1.9h4.1
			c-0.4-1.2-0.9-2.3-1.5-3.4l1.8-0.6c0.6,1.1,1.1,2.4,1.6,4h2v-5.1h-7.2v-1.8h7.2v-2.5h-4.5v-1.2C392.6,292.5,391.6,293,390.6,293.4
			z M399,287.6c-1.4,1.4-2.9,2.6-4.5,3.7h8.9C401.7,290.2,400.2,289,399,287.6z"/>
		<path class="st2" d="M417,294l-1.4,1.4c-0.8-1-1.9-1.9-3.4-3l1.4-1.4C415,292.1,416.1,293,417,294z M417.3,297.4
			c-0.8,2.6-1.8,5-2.9,7.3l-2-0.9c1.2-2.3,2.2-4.7,3.1-7.2L417.3,297.4z M417.7,289.1l-1.4,1.4c-0.9-1-2.1-2-3.6-3.1l1.4-1.4
			C415.5,287,416.7,288.1,417.7,289.1z M422.3,288.7c-0.8,3.7-1.9,6.6-3.3,8.6l-1.5-1.4c1.4-2.2,2.4-4.7,3-7.7L422.3,288.7z
			 M430.4,296c-1.9,4.5-5.7,7.4-11.4,8.8l-1.1-1.8c5.4-1.2,9-3.9,10.8-8L430.4,296z M425.5,285.7v12.4h-2v-12.4H425.5z M431.5,293.7
			l-1.7,0.9c-1-2.2-2-4.3-3.1-6.1l1.7-0.8C429.4,289.5,430.4,291.5,431.5,293.7z"/>
		<path class="st2" d="M439.5,293.8l-1.3,1.3c-0.7-1-1.8-2-3.2-3.1l1.3-1.2C437.6,291.8,438.6,292.8,439.5,293.8z M439.8,297.2
			c-0.9,2.6-1.9,5-2.9,7.3l-1.8-0.8c1.2-2.4,2.2-4.8,3.1-7.2L439.8,297.2z M439.6,288.8l-1.3,1.3c-0.7-0.9-1.7-1.9-3-3l1.3-1.2
			C437.7,286.9,438.7,287.9,439.6,288.8z M441,292.9c-0.1,0.9-0.2,1.7-0.4,2.5l-1.1-0.4c0.2-0.7,0.4-1.5,0.5-2.4L441,292.9z
			 M444.5,292.2l-1.2,0.3c-0.1-0.2-0.1-0.4-0.1-0.6c-1,0.2-2.1,0.3-3.4,0.5l-0.2-1.1c0.4-0.1,1-0.8,1.8-1.9c-0.5,0-1,0.1-1.4,0.1
			l-0.2-1c0.6-0.6,1.1-1.6,1.6-2.8l1.3,0.4c-0.4,1-0.9,1.7-1.4,2.3c0.3,0,0.7-0.1,1-0.1c0.2-0.4,0.4-0.7,0.7-1.1l1.3,0.5
			c-0.6,0.9-1.1,1.6-1.5,2.2l1.1-0.3C443.9,290.3,444.2,291.2,444.5,292.2z M442.8,300.5h10.3c0,1.8-0.2,3-0.5,3.5
			c-0.3,0.5-1,0.8-2.1,0.8c-1,0-2,0-2.9-0.1l-0.4-1.6c1.1,0,2.1,0.1,3,0.1c0.5,0,0.8-0.1,0.9-0.3c0.1-0.2,0.1-0.5,0.2-1h-10.4
			l0.6-3.9h9.2v-1h-9.4v-1.4h11.2v3.8H443L442.8,300.5z M442.7,295.1l-1.2,0.1c0-1-0.1-1.8-0.1-2.4l1-0.1
			C442.5,293.4,442.7,294.1,442.7,295.1z M441.6,291l1.3-0.2c-0.1-0.3-0.2-0.6-0.3-0.9C442.2,290.4,441.8,290.7,441.6,291z
			 M444.5,294.6l-1,0.4c-0.1-0.7-0.3-1.4-0.5-2.1l1-0.3C444.1,293.3,444.3,294,444.5,294.6z M445.8,286.9c-0.1-0.4-0.2-0.7-0.4-1
			l1.6-0.3c0.1,0.4,0.2,0.8,0.4,1.3h1.7v1.3h-4.9v-1.3H445.8z M448.7,292v3.1h-4V292H448.7z M448.5,288.7v1.1h-3.7v-1.1H448.5z
			 M448.5,290.3v1.1h-3.7v-1.1H448.5z M447.4,292.9h-1.4v1.1h1.4V292.9z M453.9,292.1l-1.1,0.3l-0.1-0.5c-1,0.2-2.2,0.4-3.4,0.5
			l-0.3-1.1c0.4-0.1,1-0.7,1.8-1.8c-0.5,0-0.9,0.1-1.4,0.1l-0.2-1c0.6-0.6,1.1-1.5,1.6-2.7l1.3,0.4c-0.4,0.9-0.9,1.7-1.4,2.2
			c0.3,0,0.7-0.1,1-0.1c0.2-0.3,0.5-0.7,0.7-1.1l1.3,0.5c-0.5,0.7-1,1.4-1.4,1.9l0.8-0.2C453.3,290.1,453.7,291.1,453.9,292.1z
			 M450.5,292.9c-0.1,0.8-0.2,1.7-0.3,2.5L449,295c0.2-0.7,0.4-1.5,0.5-2.3L450.5,292.9z M452.3,295.1l-1.2,0.1c0-1-0.1-1.8-0.2-2.4
			l1-0.1C452,293.3,452.2,294.1,452.3,295.1z M451,291.1c0.5-0.1,1-0.2,1.4-0.3c-0.1-0.3-0.2-0.6-0.4-0.9
			C451.6,290.4,451.3,290.8,451,291.1z M454,294.5l-1,0.4c-0.2-0.7-0.4-1.4-0.6-2.1l0.9-0.3C453.6,293.2,453.9,293.9,454,294.5z"/>
	</g>
</g>
</svg>
