<?xml version="1.0" encoding="utf-8"?>
<!-- Generator: Adobe Illustrator 22.0.1, SVG Export Plug-In . SVG Version: 6.00 Build 0)  -->
<svg version="1.1" id="圖層_1" xmlns="http://www.w3.org/2000/svg" xmlns:xlink="http://www.w3.org/1999/xlink" x="0px" y="0px"
	 viewBox="0 0 614.4 483" style="enable-background:new 0 0 614.4 483;" xml:space="preserve">
<style type="text/css">
	.st0{fill:#F4F4F4;}
	.st1{fill:#628E94;enable-background:new    ;}
	.st2{enable-background:new    ;}
	.st3{fill:#8CACB1;}
	.st4{fill:#B7CBCE;}
	.st5{fill:#E9D08E;}
	.st6{fill:#ADB0AE;}
	.st7{clip-path:url(#SVGID_2_);}
	.st8{fill:#FFFFFF;}
	.st9{fill:#B5B5B6;}
	.st10{fill:#888888;}
	.st11{fill:#DCDDDD;}
	.st12{fill:#404040;}
	.st13{opacity:0.29;fill:#606060;}
	.st14{fill:none;stroke:#AFAFB0;stroke-miterlimit:10;}
	.st15{fill:#EFEFEF;stroke:#AFAFB0;stroke-miterlimit:10;}
	.st16{fill:#AFAFB0;stroke:#AFAFB0;stroke-miterlimit:10;}
	.st17{fill:#FFFFFF;stroke:#D1D1D2;stroke-width:5;stroke-miterlimit:10;}
	.st18{fill:#7AB852;}
	.st19{fill:#35A8BF;}
	.st20{fill:#976B41;}
	.st21{fill:#FFFFFF;stroke:#AFAFB0;stroke-width:0.5;stroke-miterlimit:10;}
	.st22{fill:#606060;}
	.st23{fill:#2364A4;}
	.st24{fill:none;stroke:#E4E4E5;stroke-width:0.7925;stroke-miterlimit:10;}
	.st25{clip-path:url(#SVGID_4_);}
	.st26{clip-path:url(#SVGID_6_);}
	.st27{clip-path:url(#SVGID_8_);}
	.st28{clip-path:url(#SVGID_10_);}
	.st29{fill:#4A4A4A;}
	.st30{clip-path:url(#SVGID_12_);}
	.st31{clip-path:url(#SVGID_14_);}
	.st32{clip-path:url(#SVGID_16_);}
	.st33{clip-path:url(#SVGID_18_);}
	.st34{clip-path:url(#SVGID_20_);}
	.st35{clip-path:url(#SVGID_22_);}
	.st36{opacity:0.39;}
	.st37{fill:#FFFFFF;stroke:#FFFFFF;stroke-width:5.2481;stroke-miterlimit:10;}
	.st38{fill:#FFFFFF;stroke:#FFFFFF;stroke-width:6.5602;stroke-miterlimit:10;}
	.st39{fill:#848B91;}
	.st40{clip-path:url(#SVGID_24_);}
	.st41{clip-path:url(#SVGID_26_);}
	.st42{clip-path:url(#SVGID_28_);}
	.st43{clip-path:url(#SVGID_30_);}
	.st44{clip-path:url(#SVGID_32_);}
	.st45{fill:#84A48C;}
	.st46{fill:#90C0E5;}
	.st47{fill:#C6AC9E;}
	.st48{fill:#E4E1E0;}
	.st49{stroke:#FFFFFF;stroke-width:5;stroke-linecap:round;stroke-linejoin:round;stroke-miterlimit:10;}
	.st50{fill:#B6CACD;}
	.st51{fill:#CDDBDD;}
	.st52{opacity:0.5;}
	.st53{fill:#666666;}
	.st54{fill:#B7CBCE;enable-background:new    ;}
	.st55{fill:none;stroke:#000000;stroke-miterlimit:10;}
	.st56{fill:#DFDFDF;stroke:#000000;stroke-width:0.5;stroke-miterlimit:10;}
	.st57{stroke:#000000;stroke-width:0.5;stroke-miterlimit:10;}
	.st58{fill:#8CACB1;enable-background:new    ;}
	.st59{fill:#222222;}
	.st60{fill:none;stroke:#808080;stroke-width:3.098;stroke-linecap:round;stroke-linejoin:round;stroke-miterlimit:10;}
	.st61{fill:#1F2721;}
	.st62{fill:#2E313A;}
	.st63{fill:#F3F9F9;}
	.st64{fill:#141F2A;}
	.st65{fill:#17212C;}
	.st66{fill:#18222D;}
	.st67{fill:#E3EAEB;}
	.st68{fill:#DAE0E1;}
	.st69{fill:#FEFEFD;}
	.st70{fill:#FEFEFB;}
	.st71{fill:#0C0C0D;}
	.st72{opacity:0.25;fill:#606060;}
	.st73{fill:#628E94;}
	.st74{fill:#F14900;}
	.st75{fill:none;stroke:#FFFFFF;stroke-miterlimit:10;}
	.st76{opacity:0.78;fill:#3E85A3;}
	.st77{opacity:0.78;fill:#3E8543;}
</style>
<g>
	<g>
		<g>
			<g>
				<rect x="272.8" y="105.3" class="st1" width="67.2" height="10.9"/>
			</g>
		</g>
		<g class="st2">
			<g>
				<rect x="272.8" y="116.2" class="st3" width="67.2" height="45.5"/>
			</g>
		</g>
		<g class="st2">
			<g>
				<rect x="272.8" y="161.8" class="st4" width="67.2" height="29.8"/>
			</g>
		</g>
		<g>
			<g>
				<rect x="272.8" y="191.5" class="st5" width="67.2" height="217.4"/>
			</g>
		</g>
	</g>
	<rect x="118.1" y="105.3" class="st1" width="67.2" height="50.4"/>
	<rect x="118.1" y="155.7" class="st58" width="67.2" height="42"/>
	<rect x="118.1" y="197.7" class="st54" width="67.2" height="33"/>
	<rect x="118.1" y="230.8" class="st5" width="67.2" height="178.1"/>
	<g>
		<g>
			<g>
				<path class="st59" d="M61,403.2c0.7,1.2,1,2.7,1,4.6s-0.3,3.5-1,4.6c-0.8,1.3-1.9,2-3.5,2c-1.5,0-2.7-0.7-3.5-2
					c-0.7-1.2-1-2.7-1-4.6s0.3-3.5,1-4.6c0.8-1.4,1.9-2,3.5-2C59.1,401.1,60.2,401.8,61,403.2z M55.1,404.2
					c-0.4,0.9-0.5,2.1-0.5,3.6c0,1.5,0.2,2.7,0.5,3.6c0.5,1.2,1.3,1.9,2.5,1.9s2-0.6,2.5-1.9c0.4-0.9,0.6-2.1,0.6-3.6
					c0-1.5-0.2-2.7-0.6-3.6c-0.5-1.2-1.3-1.9-2.5-1.9S55.6,403,55.1,404.2z"/>
			</g>
			<g>
				<path class="st59" d="M48.1,341.4c0.8,0.7,1.2,1.6,1.2,2.7c0,1.1-0.4,2.1-1.3,3c-0.5,0.5-1.3,1.2-2.7,2.1
					c-1.6,1.1-2.6,2.1-2.8,3h6.8v1.3h-8.6c0-1.2,0.4-2.2,1.3-3.2c0.5-0.6,1.4-1.4,2.8-2.3c1-0.7,1.7-1.2,2-1.6c0.6-0.7,1-1.5,1-2.3
					c0-0.8-0.2-1.4-0.7-1.8c-0.5-0.4-1.1-0.6-2-0.6c-0.9,0-1.6,0.3-2,0.9c-0.5,0.6-0.8,1.4-0.8,2.6h-1.5c0-1.4,0.4-2.6,1.2-3.4
					c0.8-0.9,1.9-1.3,3.2-1.3C46.3,340.4,47.3,340.8,48.1,341.4z"/>
				<path class="st59" d="M61,342.4c0.7,1.2,1,2.7,1,4.6s-0.3,3.5-1,4.6c-0.8,1.3-1.9,2-3.5,2c-1.5,0-2.7-0.7-3.5-2
					c-0.7-1.2-1-2.7-1-4.6s0.3-3.5,1-4.6c0.8-1.4,1.9-2,3.5-2C59.1,340.4,60.2,341.1,61,342.4z M55.1,343.5
					c-0.4,0.9-0.5,2.1-0.5,3.6c0,1.5,0.2,2.7,0.5,3.6c0.5,1.2,1.3,1.9,2.5,1.9s2-0.6,2.5-1.9c0.4-0.9,0.6-2.1,0.6-3.6
					c0-1.5-0.2-2.7-0.6-3.6c-0.5-1.2-1.3-1.9-2.5-1.9S55.6,342.3,55.1,343.5z"/>
			</g>
			<g>
				<path class="st59" d="M47.8,279.9v8.7h2.1v1.2h-2.1v2.9h-1.4v-2.9H40v-1.4l6.5-8.5H47.8z M41.2,288.7h5.2v-6.8h-0.1L41.2,288.7z
					"/>
				<path class="st59" d="M61,281.7c0.7,1.2,1,2.7,1,4.6s-0.3,3.5-1,4.6c-0.8,1.3-1.9,2-3.5,2c-1.5,0-2.7-0.7-3.5-2
					c-0.7-1.2-1-2.7-1-4.6s0.3-3.5,1-4.6c0.8-1.4,1.9-2,3.5-2C59.1,279.7,60.2,280.4,61,281.7z M55.1,282.8
					c-0.4,0.9-0.5,2.1-0.5,3.6c0,1.5,0.2,2.7,0.5,3.6c0.5,1.2,1.3,1.9,2.5,1.9s2-0.6,2.5-1.9c0.4-0.9,0.6-2.1,0.6-3.6
					c0-1.5-0.2-2.7-0.6-3.6c-0.5-1.2-1.3-1.9-2.5-1.9S55.6,281.6,55.1,282.8z"/>
			</g>
			<g>
				<path class="st59" d="M49.2,222.4h-1.5c-0.3-1.5-1.2-2.2-2.7-2.2c-1,0-1.8,0.5-2.4,1.5c-0.6,0.9-0.8,2.1-0.8,3.6
					c0,0.1,0,0.2,0,0.5H42c0.3-0.7,0.8-1.2,1.4-1.5c0.6-0.4,1.2-0.6,2-0.6c1.2,0,2.2,0.4,3,1.2c0.7,0.8,1.1,1.8,1.1,3.1
					s-0.4,2.3-1.2,3.2c-0.8,0.8-1.9,1.3-3.1,1.3c-1.6,0-2.7-0.6-3.5-1.7c-0.8-1.1-1.1-2.6-1.1-4.6c0-2.1,0.4-3.7,1.2-5
					c0.8-1.3,2-2,3.5-2C47.5,219,48.9,220.1,49.2,222.4z M43,225.8c-0.6,0.6-0.8,1.3-0.8,2.2s0.3,1.6,0.8,2.2
					c0.5,0.6,1.2,0.9,2.1,0.9c0.9,0,1.6-0.3,2.1-0.9c0.5-0.6,0.8-1.4,0.8-2.3s-0.3-1.6-0.8-2.2c-0.5-0.6-1.2-0.8-2.1-0.8
					C44.2,224.9,43.5,225.2,43,225.8z"/>
				<path class="st59" d="M61,221c0.7,1.2,1,2.7,1,4.6s-0.3,3.5-1,4.6c-0.8,1.4-1.9,2-3.5,2c-1.5,0-2.7-0.7-3.5-2
					c-0.7-1.2-1-2.7-1-4.6s0.3-3.5,1-4.6c0.8-1.4,1.9-2,3.5-2C59.1,219,60.2,219.6,61,221z M55.1,222.1c-0.4,0.9-0.5,2.1-0.5,3.6
					c0,1.5,0.2,2.7,0.5,3.6c0.5,1.2,1.3,1.9,2.5,1.9s2-0.6,2.5-1.9c0.4-0.9,0.6-2.1,0.6-3.6c0-1.5-0.2-2.7-0.6-3.6
					c-0.5-1.2-1.3-1.9-2.5-1.9S55.6,220.8,55.1,222.1z"/>
			</g>
			<g>
				<path class="st59" d="M48.1,159.3c0.7,0.6,1,1.4,1,2.4c0,0.7-0.2,1.3-0.5,1.7c-0.4,0.5-0.9,0.9-1.5,1.1v0
					c0.7,0.2,1.2,0.5,1.7,1.1c0.5,0.6,0.8,1.3,0.8,2.2c0,1.1-0.4,2.1-1.2,2.7c-0.8,0.7-2,1.1-3.5,1.1c-1.5,0-2.6-0.4-3.5-1.1
					c-0.8-0.7-1.2-1.6-1.2-2.7c0-0.8,0.3-1.5,0.8-2.2c0.5-0.6,1-1,1.7-1.1v0c-0.7-0.2-1.2-0.6-1.5-1.1c-0.3-0.5-0.5-1-0.5-1.7
					c0-0.9,0.3-1.7,1-2.4c0.8-0.7,1.8-1,3.2-1C46.3,158.3,47.3,158.6,48.1,159.3z M42.6,165.9c-0.5,0.5-0.8,1.1-0.8,1.9
					c0,0.8,0.3,1.4,0.8,1.9c0.5,0.5,1.4,0.7,2.4,0.7c1,0,1.8-0.3,2.4-0.8c0.5-0.5,0.8-1.1,0.8-1.8c0-0.8-0.3-1.4-0.8-1.9
					c-0.6-0.5-1.4-0.8-2.4-0.8C43.9,165.2,43.1,165.4,42.6,165.9z M42.8,160.2c-0.5,0.4-0.7,0.9-0.7,1.5c0,0.6,0.2,1.2,0.6,1.6
					c0.5,0.5,1.2,0.7,2.2,0.7c1,0,1.7-0.3,2.2-0.7c0.4-0.4,0.6-0.9,0.6-1.6c0-0.6-0.2-1.2-0.7-1.5c-0.5-0.5-1.2-0.7-2.1-0.7
					C44,159.5,43.3,159.7,42.8,160.2z"/>
				<path class="st59" d="M61,160.3c0.7,1.2,1,2.7,1,4.6s-0.3,3.5-1,4.6c-0.8,1.4-1.9,2-3.5,2c-1.5,0-2.7-0.7-3.5-2
					c-0.7-1.2-1-2.7-1-4.6s0.3-3.5,1-4.6c0.8-1.4,1.9-2,3.5-2C59.1,158.3,60.2,158.9,61,160.3z M55.1,161.4
					c-0.4,0.9-0.5,2.1-0.5,3.6c0,1.5,0.2,2.7,0.5,3.6c0.5,1.2,1.3,1.9,2.5,1.9s2-0.6,2.5-1.9c0.4-0.9,0.6-2.1,0.6-3.6
					c0-1.5-0.2-2.7-0.6-3.6c-0.5-1.2-1.3-1.9-2.5-1.9S55.6,160.1,55.1,161.4z"/>
			</g>
			<g>
				<path class="st59" d="M35.8,97.8v12.9h-1.5V99.6c-0.8,0.8-1.8,1.4-3,1.8v-1.5c0.6-0.2,1.2-0.4,1.8-0.8c0.6-0.4,1.1-0.8,1.5-1.3
					H35.8z"/>
				<path class="st59" d="M48.4,99.6c0.7,1.2,1,2.7,1,4.6s-0.3,3.5-1,4.6c-0.8,1.4-1.9,2-3.5,2c-1.5,0-2.7-0.7-3.5-2
					c-0.7-1.2-1-2.7-1-4.6s0.3-3.5,1-4.6c0.8-1.4,1.9-2,3.5-2C46.5,97.5,47.6,98.2,48.4,99.6z M42.5,100.6c-0.4,0.9-0.5,2.1-0.5,3.6
					c0,1.5,0.2,2.7,0.5,3.6c0.5,1.2,1.3,1.9,2.5,1.9s2-0.6,2.5-1.9c0.4-0.9,0.6-2.1,0.6-3.6c0-1.5-0.2-2.7-0.6-3.6
					c-0.5-1.2-1.3-1.9-2.5-1.9S43,99.4,42.5,100.6z"/>
				<path class="st59" d="M61,99.6c0.7,1.2,1,2.7,1,4.6s-0.3,3.5-1,4.6c-0.8,1.4-1.9,2-3.5,2c-1.5,0-2.7-0.7-3.5-2
					c-0.7-1.2-1-2.7-1-4.6s0.3-3.5,1-4.6c0.8-1.4,1.9-2,3.5-2C59.1,97.5,60.2,98.2,61,99.6z M55.1,100.6c-0.4,0.9-0.5,2.1-0.5,3.6
					c0,1.5,0.2,2.7,0.5,3.6c0.5,1.2,1.3,1.9,2.5,1.9s2-0.6,2.5-1.9c0.4-0.9,0.6-2.1,0.6-3.6c0-1.5-0.2-2.7-0.6-3.6
					c-0.5-1.2-1.3-1.9-2.5-1.9S55.6,99.4,55.1,100.6z"/>
			</g>
			<g>
				<path class="st59" d="M51.9,68.7c0.5,0.6,0.7,1.4,0.7,2.5c0,1-0.2,1.8-0.7,2.5c-0.5,0.7-1.3,1-2.2,1c-1,0-1.7-0.4-2.2-1
					c-0.5-0.6-0.7-1.5-0.7-2.5c0-1,0.2-1.9,0.7-2.5c0.5-0.7,1.2-1.1,2.2-1.1C50.6,67.6,51.3,68,51.9,68.7z M48.4,69.4
					c-0.2,0.4-0.3,1-0.3,1.8c0,0.7,0.1,1.3,0.3,1.8c0.3,0.5,0.6,0.8,1.2,0.8c0.5,0,0.9-0.3,1.2-0.8c0.2-0.4,0.3-1,0.3-1.7
					c0-0.8-0.1-1.3-0.4-1.8c-0.3-0.5-0.6-0.8-1.2-0.8C49.1,68.6,48.7,68.9,48.4,69.4z M58.4,67.4l-7.2,13.4H50l7.2-13.4H58.4z
					 M61,74.5c0.5,0.6,0.7,1.4,0.7,2.5c0,1-0.2,1.8-0.7,2.5c-0.5,0.7-1.3,1-2.2,1c-1,0-1.7-0.4-2.2-1c-0.5-0.6-0.7-1.5-0.7-2.5
					c0-1,0.2-1.9,0.7-2.5c0.5-0.7,1.2-1.1,2.2-1.1C59.7,73.5,60.5,73.8,61,74.5z M57.6,75.2c-0.2,0.4-0.3,1-0.3,1.8
					c0,0.7,0.1,1.3,0.3,1.8c0.3,0.5,0.6,0.8,1.2,0.8c0.5,0,0.9-0.3,1.2-0.8c0.2-0.4,0.3-1,0.3-1.7c0-0.8-0.1-1.4-0.3-1.8
					c-0.3-0.5-0.7-0.8-1.2-0.8C58.2,74.4,57.8,74.7,57.6,75.2z"/>
			</g>
			<g>
				<path class="st59" d="M360.1,435l-0.9-1.1c1.8-1.4,3-3.2,3.7-5.6l1.4,0.3c-0.2,0.7-0.4,1.3-0.7,1.9h11.2v1.3h-5.7v2.9h5v1.2h-5
					v3.9h6.2v1.3h-6.2v4h-1.3v-4h-8.3v-1.3h3v-5.1h5.3v-2.9h-4.8C362.2,433.1,361.2,434.1,360.1,435z M367.8,439.8v-3.9h-4.1v3.9
					H367.8z"/>
			</g>
		</g>
	</g>
	<line class="st60" x1="76.7" y1="408.9" x2="76.7" y2="105.3"/>
	<g>
		<g>
			<line class="st60" x1="76.7" y1="408.9" x2="84.3" y2="408.9"/>
			<line class="st60" x1="76.7" y1="348.2" x2="84.3" y2="348.2"/>
			<line class="st60" x1="76.7" y1="287.5" x2="84.3" y2="287.5"/>
			<line class="st60" x1="76.7" y1="226.7" x2="84.3" y2="226.7"/>
			<line class="st60" x1="76.7" y1="166" x2="84.3" y2="166"/>
			<line class="st60" x1="76.7" y1="105.3" x2="84.3" y2="105.3"/>
		</g>
	</g>
	<line class="st60" x1="76.7" y1="408.9" x2="380.3" y2="408.9"/>
	<g>
		<g>
			<line class="st60" x1="76.7" y1="408.9" x2="76.7" y2="401.3"/>
			<line class="st60" x1="228.5" y1="408.9" x2="228.5" y2="401.3"/>
		</g>
	</g>
	<g>
		<g>
			<g class="st2">
				<circle class="st73" cx="434.9" cy="145.7" r="9.3"/>
			</g>
			<g>
				<path class="st59" d="M463.8,155.1l-1.1-1c1-1.9,1.4-4.4,1.5-7.7v-5h17.2v1.3h-15.8v3.5h3.5v-1.3h-2.5v-1.1h6.4v1.1h-2.5v1.3
					h3.6v1.1h-1.3v7.7h-1.4v-1.3c-1.4,0.2-3.2,0.4-5.6,0.6l-0.2-1.2l1.2-0.1v-5.8h-1.2V147C465.4,150.3,464.9,153,463.8,155.1z
					 M471.5,136.8v3.7h-6.9v-3.7H471.5z M470.1,138H466v1.4h4.1V138z M471.3,148.5v-1.2h-3.2v1.2H471.3z M471.3,150.6v-1.2h-3.2v1.2
					H471.3z M471.3,152.7v-1.1h-3.2v1.4C469.3,152.9,470.4,152.8,471.3,152.7z M480,136.8v3.7h-6.9v-3.7H480z M474.2,150.7l-0.9-1.1
					c1.1-1.6,1.8-3.7,2.2-6.4l1.3,0.2c-0.1,0.7-0.2,1.3-0.4,1.9h4.4v1.3h-1.1c-0.1,1.9-0.6,3.6-1.4,4.9c0.9,1,1.9,1.8,3.1,2.5
					l-0.9,1c-1.2-0.7-2.2-1.5-3-2.4c-0.8,1-1.9,1.8-3.1,2.4l-0.7-1.2c1.2-0.6,2.2-1.3,3-2.3c-0.6-0.8-1.1-1.7-1.5-2.6l1.1-0.6
					c0.3,0.7,0.7,1.4,1.2,2.1c0.6-1.1,1-2.4,1.1-3.8h-2.4C475.6,148.2,475,149.6,474.2,150.7z M478.6,138h-4.1v1.4h4.1V138z"/>
				<path class="st59" d="M494.2,142.2v-1.3h-8.1v-1.3h8.1v-1.5c-2.1,0.1-4.3,0.2-6.5,0.3l-0.2-1.2c5.4-0.2,10.1-0.5,14.3-0.9
					l0.5,1.2c-2,0.2-4.1,0.4-6.4,0.5v1.6h8.1v1.3h-8.1v1.3h6.4v6.9h-6.4v1.4h7.4v1.2h-7.4v1.6h8.4v1.3h-18.3v-1.3h8.4v-1.6h-7.3
					v-1.2h7.3v-1.4h-6.4v-6.9H494.2z M494.2,145v-1.6h-5v1.6H494.2z M494.2,146.2h-5v1.7h5V146.2z M495.7,145h5v-1.6h-5V145z
					 M500.7,146.2h-5v1.7h5V146.2z"/>
				<path class="st59" d="M513,144.4l-1,1c-0.9-1-2-1.9-3.5-3l1.1-1C510.9,142.4,512,143.4,513,144.4z M513,147.4
					c-0.9,2.6-1.9,5.1-2.9,7.5l-1.4-0.6c1.2-2.4,2.2-4.9,3-7.4L513,147.4z M513.5,139.4l-1,1c-0.8-0.9-2-1.9-3.5-3l1-1
					C511.4,137.5,512.5,138.4,513.5,139.4z M526.9,141.6v1.4h-8.4c-0.2,1.2-0.5,2.3-0.7,3.2h7.6c-0.1,4.6-0.5,7.2-1.2,7.8
					c-0.6,0.5-1.8,0.8-3.7,0.8h-1.4l-0.4-1.4c0.7,0,1.3,0,1.9,0c1.3,0,2.1-0.2,2.5-0.5c0.5-0.4,0.7-2.2,0.8-5.3H516
					c0.4-1.7,0.8-3.2,1-4.6h-3.2v-1.4H526.9z M525.9,137.1v1.4H515v-1.4H525.9z"/>
				<path class="st59" d="M535.4,141l-0.7,1.1c-1-0.7-2.1-1.3-3.1-1.7l0.7-1.1C533.4,139.7,534.4,140.3,535.4,141z M537.3,150.6
					c-1.3,1.6-2.9,3-4.8,4.2l-0.9-1.2c1.9-1.1,3.4-2.4,4.7-3.9L537.3,150.6z M539.8,147.6v-1.8h1.5v1.8h8.2v1.4h-8.2v6.1h-1.5V149
					h-8.2v-1.4H539.8z M537.2,142.7c-1.4,1.7-3,3.1-4.6,4.2l-1-1.1c1.7-1.1,3.2-2.4,4.5-3.9L537.2,142.7z M537,138.4l-0.7,1.1
					c-1.1-0.8-2.3-1.4-3.5-1.9l0.7-1.1C534.8,137,536,137.6,537,138.4z M542.3,136.1v2.2h4.1v5.8c0,0.3,0.1,0.5,0.5,0.5h0.7
					c0.3,0,0.5-0.1,0.7-0.4c0.1-0.2,0.2-1.1,0.4-2.6l1.3,0.4c-0.2,1.7-0.4,2.8-0.6,3.2c-0.3,0.4-0.8,0.7-1.5,0.7h-1.2
					c-1.1,0-1.6-0.5-1.6-1.5v-4.8h-2.7c-0.2,1.6-0.5,2.8-1.1,3.8c-0.7,1.2-2,2.1-3.6,2.8l-0.8-1.3c1.5-0.6,2.6-1.5,3.2-2.5
					c0.4-0.8,0.7-1.8,0.8-2.9h-2.9v-1.4h2.9v-2.2H542.3z M549.4,153.8l-1.1,1.1c-1.1-1.3-2.6-2.7-4.5-4.1l1-0.9
					C546.7,151.1,548.2,152.5,549.4,153.8z"/>
			</g>
		</g>
		<g>
			<g class="st2">
				<circle class="st3" cx="434.9" cy="187.5" r="9.3"/>
			</g>
			<g>
				<path class="st59" d="M473,177.8v3.7h7.4v9.7h-1.5v-1.3H473v7.1h-1.5v-7.1h-5.9v1.3H464v-9.7h7.4v-3.7H473z M471.5,188.5V183
					h-5.9v5.5H471.5z M478.9,188.5V183H473v5.5H478.9z"/>
				<path class="st59" d="M488.8,186.2c-0.1,4.4-0.8,7.9-2.2,10.6l-1.1-1c1.2-2.3,1.8-5.5,1.9-9.6v-6.7h8c-0.2-0.5-0.5-1-0.8-1.5
					l1.6-0.2c0.2,0.5,0.5,1.1,0.7,1.7h7.1v1.4h-15.1v2.4h3.5v-1.7h1.4v1.7h5.5v-1.7h1.4v1.7h3.2v1.4h-3.2v3.2h-8.4v-3.2h-3.5V186.2z
					 M502.2,189.3v1.1c-1.2,1.4-2.6,2.6-4.2,3.6c1.9,0.8,4,1.3,6.5,1.7l-0.6,1.3c-2.9-0.5-5.3-1.2-7.2-2.2c-2.1,1-4.5,1.7-7.2,2.2
					l-0.6-1.3c2.4-0.4,4.6-0.9,6.4-1.7c-1.5-1-2.8-2.1-3.7-3.4H490v-1.3H502.2z M496.4,193.3c1.4-0.8,2.7-1.7,3.8-2.7h-7.3
					C493.8,191.6,495,192.5,496.4,193.3z M493.8,186.6h5.5v-2h-5.5V186.6z"/>
				<path class="st59" d="M513,186.2l-1,1c-0.9-1-2-1.9-3.5-3l1.1-1C510.9,184.2,512,185.2,513,186.2z M513,189.2
					c-0.9,2.6-1.9,5.1-2.9,7.5l-1.4-0.6c1.2-2.4,2.2-4.9,3-7.4L513,189.2z M513.5,181.2l-1,1c-0.8-0.9-2-1.9-3.5-3l1-1
					C511.4,179.2,512.5,180.2,513.5,181.2z M526.9,183.4v1.4h-8.4c-0.2,1.2-0.5,2.3-0.7,3.2h7.6c-0.1,4.6-0.5,7.2-1.2,7.8
					c-0.6,0.5-1.8,0.8-3.7,0.8h-1.4l-0.4-1.4c0.7,0,1.3,0,1.9,0c1.3,0,2.1-0.2,2.5-0.5c0.5-0.4,0.7-2.2,0.8-5.3H516
					c0.4-1.7,0.8-3.2,1-4.6h-3.2v-1.4H526.9z M525.9,178.9v1.4H515v-1.4H525.9z"/>
				<path class="st59" d="M535.4,182.7l-0.7,1.1c-1-0.7-2.1-1.3-3.1-1.7l0.7-1.1C533.4,181.5,534.4,182.1,535.4,182.7z M537.3,192.4
					c-1.3,1.6-2.9,3-4.8,4.2l-0.9-1.2c1.9-1.1,3.4-2.4,4.7-3.9L537.3,192.4z M539.8,189.4v-1.8h1.5v1.8h8.2v1.4h-8.2v6.1h-1.5v-6.1
					h-8.2v-1.4H539.8z M537.2,184.4c-1.4,1.7-3,3.1-4.6,4.2l-1-1.1c1.7-1.1,3.2-2.4,4.5-3.9L537.2,184.4z M537,180.2l-0.7,1.1
					c-1.1-0.8-2.3-1.4-3.5-1.9l0.7-1.1C534.8,178.8,536,179.4,537,180.2z M542.3,177.9v2.2h4.1v5.8c0,0.3,0.1,0.5,0.5,0.5h0.7
					c0.3,0,0.5-0.1,0.7-0.4c0.1-0.2,0.2-1.1,0.4-2.6l1.3,0.4c-0.2,1.7-0.4,2.8-0.6,3.2c-0.3,0.4-0.8,0.7-1.5,0.7h-1.2
					c-1.1,0-1.6-0.5-1.6-1.5v-4.8h-2.7c-0.2,1.6-0.5,2.8-1.1,3.8c-0.7,1.2-2,2.1-3.6,2.8l-0.8-1.3c1.5-0.6,2.6-1.5,3.2-2.5
					c0.4-0.8,0.7-1.8,0.8-2.9h-2.9v-1.4h2.9v-2.2H542.3z M549.4,195.6l-1.1,1.1c-1.1-1.3-2.6-2.7-4.5-4.1l1-0.9
					C546.7,192.9,548.2,194.2,549.4,195.6z"/>
			</g>
		</g>
		<g>
			<g class="st2">
				<circle class="st4" cx="434.9" cy="229.3" r="9.3"/>
			</g>
			<g>
				<path class="st59" d="M466.2,221.6v-1.9h1.5v1.9h3v1.3h-3v1.6h2.6v8.1h-2.6v1.7h3.1v1.3h-3.1v3h-1.5v-3h-3.4v-1.3h3.4v-1.7h-2.7
					v-8.1h2.7v-1.6h-3.2v-1.3H466.2z M466.3,228v-2.3h-1.6v2.3H466.3z M466.3,229.2h-1.6v2.3h1.6V229.2z M467.5,228h1.5v-2.3h-1.5
					V228z M469,229.2h-1.5v2.3h1.5V229.2z M471.7,232.1v-1.4h9.5v1.4h-4.1v4.6h4.6v1.3h-10.8v-1.3h4.8v-4.6H471.7z M474.3,223.1
					c-0.6,1.3-1.2,2.4-1.8,3.2c0.7,0.8,1.3,1.9,2,3.2l-1.2,0.7c-0.7-1.4-1.4-2.8-2.3-3.9c0.8-1.2,1.5-2.5,2-3.8L474.3,223.1z
					 M481.4,220.6v1.4h-10.1v-1.4H481.4z M477.7,223.1c-0.6,1.3-1.2,2.4-1.8,3.2c0.6,0.7,1.3,1.8,1.9,3.1l-1.2,0.7
					c-0.7-1.4-1.4-2.6-2.2-3.7c0.8-1.2,1.4-2.4,1.9-3.7L477.7,223.1z M481.1,223.1c-0.6,1.3-1.2,2.3-1.8,3.1
					c0.7,0.7,1.3,1.8,2.1,3.1l-1.2,0.7c-0.7-1.4-1.5-2.6-2.3-3.7c0.8-1.2,1.5-2.4,2-3.7L481.1,223.1z"/>
				<path class="st59" d="M488.8,228c-0.1,4.4-0.8,7.9-2.2,10.6l-1.1-1c1.2-2.3,1.8-5.5,1.9-9.6v-6.7h8c-0.2-0.5-0.5-1-0.8-1.5
					l1.6-0.2c0.2,0.5,0.5,1.1,0.7,1.7h7.1v1.4h-15.1v2.4h3.5v-1.7h1.4v1.7h5.5v-1.7h1.4v1.7h3.2v1.4h-3.2v3.2h-8.4v-3.2h-3.5V228z
					 M502.2,231v1.1c-1.2,1.4-2.6,2.6-4.2,3.6c1.9,0.8,4,1.3,6.5,1.7l-0.6,1.3c-2.9-0.5-5.3-1.2-7.2-2.2c-2.1,1-4.5,1.7-7.2,2.2
					l-0.6-1.3c2.4-0.4,4.6-0.9,6.4-1.7c-1.5-1-2.8-2.1-3.7-3.4H490V231H502.2z M496.4,235c1.4-0.8,2.7-1.7,3.8-2.7h-7.3
					C493.8,233.4,495,234.3,496.4,235z M493.8,228.4h5.5v-2h-5.5V228.4z"/>
				<path class="st59" d="M513,227.9l-1,1c-0.9-1-2-1.9-3.5-3l1.1-1C510.9,225.9,512,227,513,227.9z M513,230.9
					c-0.9,2.6-1.9,5.1-2.9,7.5l-1.4-0.6c1.2-2.4,2.2-4.9,3-7.4L513,230.9z M513.5,223l-1,1c-0.8-0.9-2-1.9-3.5-3l1-1
					C511.4,221,512.5,222,513.5,223z M526.9,225.2v1.4h-8.4c-0.2,1.2-0.5,2.3-0.7,3.2h7.6c-0.1,4.6-0.5,7.2-1.2,7.8
					c-0.6,0.5-1.8,0.8-3.7,0.8h-1.4l-0.4-1.4c0.7,0,1.3,0,1.9,0c1.3,0,2.1-0.2,2.5-0.5c0.5-0.4,0.7-2.2,0.8-5.3H516
					c0.4-1.7,0.8-3.2,1-4.6h-3.2v-1.4H526.9z M525.9,220.6v1.4H515v-1.4H525.9z"/>
				<path class="st59" d="M535.4,224.5l-0.7,1.1c-1-0.7-2.1-1.3-3.1-1.7l0.7-1.1C533.4,223.2,534.4,223.8,535.4,224.5z M537.3,234.2
					c-1.3,1.6-2.9,3-4.8,4.2l-0.9-1.2c1.9-1.1,3.4-2.4,4.7-3.9L537.3,234.2z M539.8,231.1v-1.8h1.5v1.8h8.2v1.4h-8.2v6.1h-1.5v-6.1
					h-8.2v-1.4H539.8z M537.2,226.2c-1.4,1.7-3,3.1-4.6,4.2l-1-1.1c1.7-1.1,3.2-2.4,4.5-3.9L537.2,226.2z M537,221.9l-0.7,1.1
					c-1.1-0.8-2.3-1.4-3.5-1.9l0.7-1.1C534.8,220.5,536,221.2,537,221.9z M542.3,219.7v2.2h4.1v5.8c0,0.3,0.1,0.5,0.5,0.5h0.7
					c0.3,0,0.5-0.1,0.7-0.4c0.1-0.2,0.2-1.1,0.4-2.6l1.3,0.4c-0.2,1.7-0.4,2.8-0.6,3.2c-0.3,0.4-0.8,0.7-1.5,0.7h-1.2
					c-1.1,0-1.6-0.5-1.6-1.5v-4.8h-2.7c-0.2,1.6-0.5,2.8-1.1,3.8c-0.7,1.2-2,2.1-3.6,2.8l-0.8-1.3c1.5-0.6,2.6-1.5,3.2-2.5
					c0.4-0.8,0.7-1.8,0.8-2.9h-2.9v-1.4h2.9v-2.2H542.3z M549.4,237.3l-1.1,1.1c-1.1-1.3-2.6-2.7-4.5-4.1l1-0.9
					C546.7,234.6,548.2,236,549.4,237.3z"/>
			</g>
		</g>
		<g>
			<g class="st2">
				<circle class="st5" cx="434.9" cy="271" r="9.3"/>
			</g>
			<g>
				<path class="st59" d="M473,261.5v2.8h7.1v1.4H473v3.7h8.2v1.4h-6.8c1.4,2.6,3.8,4.9,7.2,7l-1,1.3c-3.5-2.5-6-5.2-7.3-8.3H473
					v9.4h-1.5v-9.4h-0.2c-1.5,3.4-4,6.2-7.5,8.4l-0.8-1.4c3.3-1.8,5.7-4.1,7.2-7h-6.8v-1.4h8.2v-3.7h-7v-1.4h7v-2.8H473z"/>
				<path class="st59" d="M490.3,261.2c-0.8,1.4-1.5,2.8-2,4.3c-0.6,1.8-0.9,3.6-0.9,5.4c0,1.8,0.3,3.6,0.9,5.4
					c0.5,1.5,1.1,2.9,2,4.3h-1.4c-0.9-1.3-1.6-2.8-2.1-4.3c-0.6-1.8-0.9-3.6-0.9-5.4c0-1.8,0.3-3.6,0.9-5.4c0.5-1.5,1.2-2.9,2.1-4.3
					H490.3z"/>
				<path class="st59" d="M495,262.9c2.4-0.2,4.4-0.7,6.2-1.3l0.5,1.3c-0.7,0.3-1.6,0.5-2.4,0.7v3.5h2.6v1.4h-2.6v1
					c0.9,0.9,1.9,2,2.8,3.1l-0.8,1.2c-0.8-1.3-1.4-2.3-2-3.1v9.5h-1.4v-9.2c-0.7,1.9-1.6,3.6-2.6,5.1l-0.6-1.6
					c1.5-1.8,2.6-3.8,3.2-6H495v-1.4h2.9v-3.1c-0.8,0.1-1.7,0.3-2.6,0.4L495,262.9z M508.3,261.4v5.5h4.1v11.6
					c0,1.2-0.6,1.7-1.9,1.7h-2l-0.4-1.4c0.7,0,1.3,0.1,1.9,0.1c0.6,0,0.9-0.3,0.9-0.9V275c-1.9,0.4-4,0.8-6.1,1.1l-0.4-1.3
					c2.3-0.2,4.4-0.6,6.5-1v-5.4h-6.7v2.2c1.3,0.1,2.3,0.2,3,0.4c0.7,0.1,1.5,0.2,2.5,0.5l-0.5,1.2c-0.9-0.2-1.8-0.4-2.8-0.5
					c-0.7-0.1-1.5-0.2-2.3-0.3v0.9c0,3.3-0.7,5.9-1.9,7.9l-1.1-1c1.1-1.8,1.7-4.1,1.7-6.8V267h4v-5.5H508.3z M505.3,265.6l-1.1,0.6
					c-0.6-1.4-1.3-2.6-2-3.7l1.2-0.6C504,263,504.7,264.3,505.3,265.6z M513.2,262.5c-0.6,1.3-1.3,2.5-2.2,3.7l-1.1-0.6
					c0.9-1.2,1.6-2.4,2.1-3.6L513.2,262.5z"/>
				<path class="st59" d="M519,261.2c0.9,1.3,1.6,2.8,2.1,4.3c0.6,1.8,0.9,3.6,0.9,5.4c0,1.8-0.3,3.6-0.9,5.4
					c-0.5,1.5-1.2,2.9-2.1,4.3h-1.4c0.8-1.4,1.5-2.8,2-4.3c0.6-1.8,0.9-3.6,0.9-5.4c0-1.8-0.3-3.6-0.9-5.4c-0.5-1.5-1.1-2.9-2-4.3
					H519z"/>
				<path class="st59" d="M541.7,271.2v1.3c-0.9,1.7-2.3,3.1-4.3,4.3c2,0.9,4.6,1.7,7.5,2.3l-0.9,1.3c-3.3-0.7-6-1.7-8.1-2.8
					c-2.3,1.2-5.2,2.1-8.6,2.8l-0.8-1.4c3.1-0.6,5.8-1.3,7.9-2.3c-1.9-1.2-3.2-2.6-4-4.2h-0.8v-1.4H541.7z M544.3,272.5h-1.4v-3.3
					h-14.4v3.3H527v-4.7h11.8c0.8-1.2,1.5-2.5,2.1-3.9l1.5,0.6c-0.7,1.3-1.3,2.4-2,3.3h3.9V272.5z M543.8,262.8c-4,0.6-9.4,1-16,1
					l-0.4-1.3c6.3,0,11.5-0.3,15.7-0.9L543.8,262.8z M532,267.1l-1.3,0.6c-0.6-1-1.3-2-2-2.8l1.3-0.7
					C530.7,265.2,531.3,266.1,532,267.1z M535.9,276.1c1.8-1,3.2-2.2,4.1-3.5h-8.1C532.8,273.9,534.1,275.1,535.9,276.1z
					 M536.8,266.9l-1.3,0.7c-0.6-1.1-1.3-2-2-2.9l1.3-0.6C535.5,264.9,536.2,265.9,536.8,266.9z"/>
				<path class="st59" d="M553.7,269.7l-1,1c-0.9-1-2-1.9-3.5-3l1.1-1C551.5,267.7,552.7,268.7,553.7,269.7z M553.7,272.7
					c-0.9,2.6-1.9,5.1-2.9,7.5l-1.4-0.6c1.2-2.4,2.2-4.9,3-7.4L553.7,272.7z M554.2,264.7l-1,1c-0.8-0.9-2-1.9-3.5-3l1-1
					C552.1,262.8,553.2,263.7,554.2,264.7z M567.6,266.9v1.4h-8.4c-0.2,1.2-0.5,2.3-0.7,3.2h7.6c-0.1,4.6-0.5,7.2-1.2,7.8
					c-0.6,0.5-1.8,0.8-3.7,0.8h-1.4l-0.4-1.4c0.7,0,1.3,0,1.9,0c1.3,0,2.1-0.2,2.5-0.5c0.5-0.4,0.7-2.2,0.8-5.3h-7.9
					c0.4-1.7,0.8-3.2,1-4.6h-3.2v-1.4H567.6z M566.6,262.4v1.4h-10.9v-1.4H566.6z"/>
				<path class="st59" d="M576.1,266.3l-0.7,1.1c-1-0.7-2.1-1.3-3.1-1.7l0.7-1.1C574.1,265,575.1,265.6,576.1,266.3z M578,275.9
					c-1.3,1.6-2.9,3-4.8,4.2l-0.9-1.2c1.9-1.1,3.4-2.4,4.7-3.9L578,275.9z M580.5,272.9v-1.8h1.5v1.8h8.2v1.4H582v6.1h-1.5v-6.1
					h-8.2v-1.4H580.5z M577.9,267.9c-1.4,1.7-3,3.1-4.6,4.2l-1-1.1c1.7-1.1,3.2-2.4,4.5-3.9L577.9,267.9z M577.7,263.7l-0.7,1.1
					c-1.1-0.8-2.3-1.4-3.5-1.9l0.7-1.1C575.5,262.3,576.7,262.9,577.7,263.7z M583,261.4v2.2h4.1v5.8c0,0.3,0.1,0.5,0.5,0.5h0.7
					c0.3,0,0.5-0.1,0.7-0.4c0.1-0.2,0.2-1.1,0.4-2.6l1.3,0.4c-0.2,1.7-0.4,2.8-0.6,3.2c-0.3,0.4-0.8,0.7-1.5,0.7h-1.2
					c-1.1,0-1.6-0.5-1.6-1.5V265h-2.7c-0.2,1.6-0.5,2.8-1.1,3.8c-0.7,1.2-2,2.1-3.6,2.8l-0.8-1.3c1.5-0.6,2.6-1.5,3.2-2.5
					c0.4-0.8,0.7-1.8,0.8-2.9h-2.9v-1.4h2.9v-2.2H583z M590.1,279.1l-1.1,1.1c-1.1-1.3-2.6-2.7-4.5-4.1l1-0.9
					C587.3,276.4,588.9,277.8,590.1,279.1z"/>
			</g>
		</g>
	</g>
	<g>
		<g>
			<path class="st59" d="M136.3,430.2c0.9,0.8,1.3,1.9,1.3,3.2c0,1.3-0.5,2.4-1.4,3.5c-0.6,0.6-1.6,1.4-3.1,2.4
				c-1.6,1.1-2.5,2-2.9,2.8h7.4v2h-10.2c0-1.5,0.5-2.8,1.5-3.9c0.5-0.6,1.7-1.5,3.3-2.7c1-0.7,1.7-1.3,2.1-1.7c0.7-0.7,1-1.6,1-2.4
				c0-0.8-0.2-1.4-0.7-1.9c-0.5-0.4-1.1-0.6-2-0.6c-0.9,0-1.6,0.3-2.1,1c-0.5,0.6-0.7,1.5-0.8,2.7h-2.3c0-1.7,0.5-3,1.4-4
				c1-1.1,2.2-1.6,3.8-1.6C134.2,429,135.4,429.4,136.3,430.2z"/>
			<path class="st59" d="M151.1,431.2c0.9,1.4,1.3,3.2,1.3,5.5c0,2.3-0.4,4.1-1.3,5.5c-1,1.4-2.3,2.2-4,2.2c-1.7,0-3.1-0.7-4-2.2
				c-0.9-1.4-1.3-3.2-1.3-5.5c0-2.3,0.4-4.1,1.3-5.5c1-1.5,2.3-2.2,4-2.2C148.8,429,150.1,429.7,151.1,431.2z M144.5,432.9
				c-0.4,0.9-0.5,2.2-0.5,3.8c0,1.6,0.2,2.8,0.5,3.8c0.5,1.3,1.3,2,2.6,2c1.2,0,2.1-0.7,2.6-2c0.4-0.9,0.5-2.2,0.5-3.8
				c0-1.6-0.2-2.9-0.5-3.8c-0.5-1.3-1.4-2-2.6-2C145.8,430.9,145,431.6,144.5,432.9z"/>
			<path class="st59" d="M165.6,431.2c0.9,1.4,1.3,3.2,1.3,5.5c0,2.3-0.4,4.1-1.3,5.5c-1,1.4-2.3,2.2-4,2.2c-1.7,0-3.1-0.7-4-2.2
				c-0.9-1.4-1.3-3.2-1.3-5.5c0-2.3,0.4-4.1,1.3-5.5c1-1.5,2.3-2.2,4-2.2C163.3,429,164.6,429.7,165.6,431.2z M159,432.9
				c-0.4,0.9-0.5,2.2-0.5,3.8c0,1.6,0.2,2.8,0.5,3.8c0.5,1.3,1.3,2,2.6,2c1.2,0,2.1-0.7,2.6-2c0.4-0.9,0.5-2.2,0.5-3.8
				c0-1.6-0.2-2.9-0.5-3.8c-0.5-1.3-1.4-2-2.6-2C160.3,430.9,159.5,431.6,159,432.9z"/>
			<path class="st59" d="M176.3,429.3v14.8H174V432c-0.9,0.8-2,1.5-3.4,1.9v-2.2c0.7-0.2,1.3-0.5,2.1-0.9c0.7-0.5,1.4-0.9,1.9-1.5
				H176.3z"/>
		</g>
	</g>
	<g>
		<g>
			<path class="st59" d="M291.6,430.2c0.9,0.8,1.3,1.9,1.3,3.2c0,1.3-0.5,2.4-1.4,3.5c-0.6,0.6-1.6,1.4-3.1,2.4
				c-1.6,1.1-2.5,2-2.9,2.8h7.4v2h-10.2c0-1.5,0.5-2.8,1.5-3.9c0.5-0.6,1.7-1.5,3.3-2.7c1-0.7,1.7-1.3,2.1-1.7c0.7-0.7,1-1.6,1-2.4
				c0-0.8-0.2-1.4-0.7-1.9c-0.5-0.4-1.1-0.6-2-0.6c-0.9,0-1.6,0.3-2.1,1c-0.5,0.6-0.7,1.5-0.8,2.7h-2.3c0-1.7,0.5-3,1.4-4
				c1-1.1,2.2-1.6,3.8-1.6C289.5,429,290.7,429.4,291.6,430.2z"/>
			<path class="st59" d="M306.4,431.2c0.9,1.4,1.3,3.2,1.3,5.5c0,2.3-0.4,4.1-1.3,5.5c-1,1.4-2.3,2.2-4,2.2s-3.1-0.7-4-2.2
				c-0.9-1.4-1.3-3.2-1.3-5.5c0-2.3,0.4-4.1,1.3-5.5c1-1.5,2.3-2.2,4-2.2S305.4,429.7,306.4,431.2z M299.8,432.9
				c-0.4,0.9-0.5,2.2-0.5,3.8c0,1.6,0.2,2.8,0.5,3.8c0.5,1.3,1.3,2,2.6,2c1.2,0,2.1-0.7,2.6-2c0.4-0.9,0.5-2.2,0.5-3.8
				c0-1.6-0.2-2.9-0.5-3.8c-0.5-1.3-1.4-2-2.6-2C301.1,430.9,300.3,431.6,299.8,432.9z"/>
			<path class="st59" d="M317.1,429.3v14.8h-2.3V432c-0.9,0.8-2,1.5-3.4,1.9v-2.2c0.7-0.2,1.3-0.5,2.1-0.9c0.7-0.5,1.4-0.9,1.9-1.5
				H317.1z"/>
			<path class="st59" d="M331.7,429.3v1.8l-5.2,13h-2.4l5.4-12.7h-7.7v-2H331.7z"/>
		</g>
	</g>
	<g>
		<path class="st8" d="M134,123.3v10.1h-1.5v-8.2c-0.6,0.6-1.4,1-2.3,1.3v-1.5c0.5-0.1,0.9-0.3,1.4-0.6c0.5-0.3,0.9-0.6,1.3-1H134z"
			/>
		<path class="st8" d="M144.4,125.9h-1.5c-0.2-1-0.8-1.5-1.8-1.5c-0.7,0-1.3,0.3-1.7,1c-0.4,0.7-0.6,1.5-0.6,2.4c0,0,0,0.1,0,0.2
			h0.1c0.3-0.5,0.6-0.8,1.1-1c0.4-0.2,0.9-0.3,1.4-0.3c1,0,1.8,0.3,2.4,0.9c0.6,0.6,0.9,1.5,0.9,2.4c0,1-0.3,1.8-1,2.5
			c-0.7,0.6-1.5,1-2.5,1c-1.2,0-2.2-0.5-2.8-1.4c-0.6-0.9-0.9-2.1-0.9-3.6c0-1.6,0.3-3,1-4c0.7-1,1.6-1.5,2.8-1.5
			C143,123.1,144.2,124,144.4,125.9z M139.5,128.6c-0.4,0.4-0.6,0.9-0.6,1.6c0,0.6,0.2,1.2,0.6,1.6c0.4,0.4,0.9,0.6,1.5,0.6
			c0.6,0,1.1-0.2,1.5-0.6c0.4-0.4,0.6-0.9,0.6-1.6c0-0.6-0.2-1.2-0.6-1.5c-0.4-0.4-0.9-0.6-1.5-0.6
			C140.4,128,139.9,128.2,139.5,128.6z"/>
		<path class="st8" d="M149.3,131.7c0.2,0.2,0.3,0.4,0.3,0.7s-0.1,0.5-0.3,0.7c-0.2,0.2-0.5,0.3-0.7,0.3c-0.3,0-0.5-0.1-0.7-0.3
			c-0.2-0.2-0.3-0.4-0.3-0.7c0-0.3,0.1-0.5,0.3-0.7c0.2-0.2,0.4-0.3,0.7-0.3S149.1,131.5,149.3,131.7z"/>
		<path class="st8" d="M159.6,125.9h-1.5c-0.2-1-0.8-1.5-1.8-1.5c-0.7,0-1.3,0.3-1.7,1c-0.4,0.7-0.6,1.5-0.6,2.4c0,0,0,0.1,0,0.2
			h0.1c0.3-0.5,0.6-0.8,1.1-1c0.4-0.2,0.9-0.3,1.4-0.3c1,0,1.8,0.3,2.4,0.9c0.6,0.6,0.9,1.5,0.9,2.4c0,1-0.3,1.8-1,2.5
			c-0.7,0.6-1.5,1-2.5,1c-1.2,0-2.2-0.5-2.8-1.4c-0.6-0.9-0.9-2.1-0.9-3.6c0-1.6,0.3-3,1-4c0.7-1,1.6-1.5,2.8-1.5
			C158.2,123.1,159.3,124,159.6,125.9z M154.7,128.6c-0.4,0.4-0.6,0.9-0.6,1.6c0,0.6,0.2,1.2,0.6,1.6c0.4,0.4,0.9,0.6,1.5,0.6
			c0.6,0,1.1-0.2,1.5-0.6c0.4-0.4,0.6-0.9,0.6-1.6c0-0.6-0.2-1.2-0.6-1.5c-0.4-0.4-0.9-0.6-1.5-0.6C155.5,128,155,128.2,154.7,128.6
			z"/>
		<path class="st8" d="M166.9,124.1c0.4,0.5,0.6,1.1,0.6,1.9c0,0.8-0.2,1.4-0.6,1.9c-0.4,0.5-1,0.8-1.8,0.8c-0.8,0-1.4-0.3-1.8-0.8
			c-0.4-0.5-0.6-1.1-0.6-1.9c0-0.8,0.2-1.5,0.6-1.9c0.4-0.6,1-0.8,1.8-0.8C165.9,123.3,166.5,123.6,166.9,124.1z M164.3,124.8
			c-0.1,0.3-0.2,0.7-0.2,1.2c0,0.5,0.1,0.9,0.2,1.2c0.2,0.4,0.4,0.6,0.8,0.6c0.4,0,0.6-0.2,0.8-0.6c0.1-0.3,0.2-0.7,0.2-1.2
			c0-0.5-0.1-0.9-0.2-1.2c-0.2-0.4-0.4-0.6-0.8-0.6C164.8,124.3,164.5,124.5,164.3,124.8z M172.1,123.1l-5.7,10.5h-1.1l5.7-10.5
			H172.1z M174.2,128.7c0.4,0.5,0.6,1.1,0.6,1.9c0,0.8-0.2,1.4-0.6,1.9c-0.4,0.5-1,0.8-1.8,0.8c-0.8,0-1.4-0.3-1.8-0.8
			c-0.4-0.5-0.6-1.1-0.6-1.9c0-0.8,0.2-1.5,0.6-1.9c0.4-0.6,1-0.8,1.8-0.8C173.2,127.9,173.8,128.1,174.2,128.7z M171.6,129.4
			c-0.1,0.3-0.2,0.7-0.2,1.2c0,0.5,0.1,0.9,0.2,1.2c0.2,0.4,0.4,0.6,0.8,0.6c0.4,0,0.6-0.2,0.8-0.6c0.1-0.3,0.2-0.7,0.2-1.2
			c0-0.5-0.1-0.9-0.2-1.2c-0.2-0.4-0.4-0.6-0.8-0.6C172,128.9,171.7,129,171.6,129.4z"/>
	</g>
	<g>
		<path class="st8" d="M134,170.1v10.1h-1.5V172c-0.6,0.6-1.4,1-2.3,1.3v-1.5c0.5-0.1,0.9-0.3,1.4-0.6c0.5-0.3,0.9-0.6,1.3-1H134z"
			/>
		<path class="st8" d="M143.5,170.7c0.6,0.5,0.9,1.2,0.9,2c0,1.1-0.6,1.9-1.7,2.2c0.6,0.2,1,0.5,1.4,0.8c0.3,0.4,0.5,0.9,0.5,1.5
			c0,0.9-0.3,1.7-1,2.3c-0.7,0.6-1.6,0.9-2.6,0.9c-1,0-1.9-0.3-2.5-0.8c-0.7-0.6-1.1-1.5-1.2-2.6h1.6c0,0.7,0.2,1.2,0.7,1.6
			c0.4,0.3,0.8,0.5,1.4,0.5c0.6,0,1.2-0.2,1.6-0.6c0.3-0.3,0.5-0.7,0.5-1.3c0-0.6-0.2-1-0.6-1.3c-0.3-0.3-0.8-0.4-1.5-0.4h-0.7v-1.2
			h0.7c0.6,0,1.1-0.1,1.4-0.4c0.3-0.3,0.5-0.7,0.5-1.2s-0.2-0.9-0.4-1.2c-0.3-0.3-0.8-0.4-1.4-0.4c-0.6,0-1.1,0.2-1.4,0.5
			c-0.3,0.3-0.6,0.8-0.6,1.4h-1.5c0.1-1,0.5-1.8,1.1-2.3c0.6-0.6,1.4-0.8,2.4-0.8C142.1,169.9,142.9,170.2,143.5,170.7z"/>
		<path class="st8" d="M149.3,178.5c0.2,0.2,0.3,0.4,0.3,0.7s-0.1,0.5-0.3,0.7c-0.2,0.2-0.5,0.3-0.7,0.3c-0.3,0-0.5-0.1-0.7-0.3
			c-0.2-0.2-0.3-0.4-0.3-0.7c0-0.3,0.1-0.5,0.3-0.7c0.2-0.2,0.4-0.3,0.7-0.3S149.1,178.3,149.3,178.5z"/>
		<path class="st8" d="M158.7,170.8c0.6,0.5,0.8,1.1,0.8,1.9c0,0.5-0.1,1-0.3,1.3c-0.3,0.4-0.6,0.7-1.1,0.9v0
			c0.5,0.1,0.9,0.4,1.2,0.8c0.4,0.5,0.6,1,0.6,1.7c0,0.9-0.3,1.6-1,2.2c-0.7,0.6-1.6,0.8-2.8,0.8c-1.2,0-2.1-0.3-2.8-0.8
			c-0.6-0.6-1-1.3-1-2.2c0-0.6,0.2-1.2,0.6-1.7c0.3-0.5,0.7-0.7,1.2-0.8v0c-0.5-0.2-0.9-0.5-1.1-0.9c-0.2-0.4-0.3-0.8-0.3-1.3
			c0-0.7,0.3-1.4,0.8-1.9c0.6-0.6,1.5-0.8,2.6-0.8C157.2,169.9,158,170.2,158.7,170.8z M154.4,176.1c-0.4,0.3-0.6,0.8-0.6,1.3
			c0,0.5,0.2,0.9,0.6,1.3c0.4,0.3,0.9,0.5,1.7,0.5c0.7,0,1.3-0.2,1.7-0.5c0.4-0.3,0.6-0.7,0.6-1.3c0-0.6-0.2-1-0.6-1.3
			c-0.4-0.4-0.9-0.6-1.7-0.6C155.4,175.5,154.8,175.7,154.4,176.1z M154.6,171.7c-0.3,0.3-0.5,0.6-0.5,1.1c0,0.5,0.1,0.9,0.4,1.1
			c0.3,0.3,0.8,0.5,1.6,0.5c0.7,0,1.2-0.2,1.6-0.5c0.3-0.3,0.4-0.7,0.4-1.1c0-0.4-0.2-0.8-0.5-1.1c-0.4-0.3-0.9-0.5-1.5-0.5
			C155.5,171.2,155,171.3,154.6,171.7z"/>
		<path class="st8" d="M166.9,171c0.4,0.5,0.6,1.1,0.6,1.9c0,0.8-0.2,1.4-0.6,1.9c-0.4,0.5-1,0.8-1.8,0.8c-0.8,0-1.4-0.3-1.8-0.8
			c-0.4-0.5-0.6-1.1-0.6-1.9c0-0.8,0.2-1.5,0.6-1.9c0.4-0.6,1-0.8,1.8-0.8C165.9,170.1,166.5,170.4,166.9,171z M164.3,171.7
			c-0.1,0.3-0.2,0.7-0.2,1.2c0,0.5,0.1,0.9,0.2,1.2c0.2,0.4,0.4,0.6,0.8,0.6c0.4,0,0.6-0.2,0.8-0.6c0.1-0.3,0.2-0.7,0.2-1.2
			c0-0.5-0.1-0.9-0.2-1.2c-0.2-0.4-0.4-0.6-0.8-0.6C164.8,171.1,164.5,171.3,164.3,171.7z M172.1,169.9l-5.7,10.5h-1.1l5.7-10.5
			H172.1z M174.2,175.5c0.4,0.5,0.6,1.1,0.6,1.9c0,0.8-0.2,1.4-0.6,1.9c-0.4,0.5-1,0.8-1.8,0.8c-0.8,0-1.4-0.3-1.8-0.8
			c-0.4-0.5-0.6-1.1-0.6-1.9c0-0.8,0.2-1.5,0.6-1.9c0.4-0.6,1-0.8,1.8-0.8C173.2,174.7,173.8,175,174.2,175.5z M171.6,176.2
			c-0.1,0.3-0.2,0.7-0.2,1.2c0,0.5,0.1,0.9,0.2,1.2c0.2,0.4,0.4,0.6,0.8,0.6c0.4,0,0.6-0.2,0.8-0.6c0.1-0.3,0.2-0.7,0.2-1.2
			c0-0.5-0.1-0.9-0.2-1.2c-0.2-0.4-0.4-0.6-0.8-0.6C172,175.7,171.7,175.9,171.6,176.2z"/>
	</g>
	<g>
		<path class="st8" d="M134,210.7v10.1h-1.5v-8.2c-0.6,0.6-1.4,1-2.3,1.3v-1.5c0.5-0.1,0.9-0.3,1.4-0.6c0.5-0.3,0.9-0.6,1.3-1H134z"
			/>
		<path class="st8" d="M143.7,212c0.6,0.9,0.9,2.2,0.9,3.7c0,1.6-0.3,2.8-0.9,3.7c-0.7,1-1.6,1.5-2.8,1.5c-1.2,0-2.1-0.5-2.8-1.5
			c-0.6-0.9-0.9-2.2-0.9-3.7c0-1.6,0.3-2.8,0.9-3.7c0.7-1,1.6-1.5,2.8-1.5C142.1,210.5,143.1,211,143.7,212z M139.2,213.2
			c-0.3,0.6-0.4,1.5-0.4,2.6c0,1.1,0.1,1.9,0.4,2.6c0.3,0.9,0.9,1.4,1.8,1.4c0.8,0,1.4-0.5,1.8-1.4c0.2-0.6,0.4-1.5,0.4-2.6
			c0-1.1-0.1-2-0.4-2.6c-0.3-0.9-0.9-1.4-1.8-1.4C140.1,211.8,139.5,212.3,139.2,213.2z"/>
		<path class="st8" d="M149.3,219.1c0.2,0.2,0.3,0.4,0.3,0.7s-0.1,0.5-0.3,0.7c-0.2,0.2-0.5,0.3-0.7,0.3c-0.3,0-0.5-0.1-0.7-0.3
			c-0.2-0.2-0.3-0.4-0.3-0.7c0-0.3,0.1-0.5,0.3-0.7c0.2-0.2,0.4-0.3,0.7-0.3S149.1,218.9,149.3,219.1z"/>
		<path class="st8" d="M158.8,211.9c0.6,0.9,0.9,2.1,0.9,3.6c0,1.6-0.3,3-1,4c-0.7,1-1.6,1.5-2.8,1.5c-2,0-3.1-0.9-3.3-2.7h1.5
			c0.2,1,0.8,1.5,1.8,1.5c0.7,0,1.2-0.4,1.7-1c0.4-0.6,0.6-1.5,0.6-2.4c0-0.1,0-0.1,0-0.2h-0.1c-0.3,0.4-0.7,0.8-1.1,1
			c-0.4,0.2-0.9,0.3-1.4,0.3c-1,0-1.8-0.3-2.4-1c-0.6-0.6-0.9-1.4-0.9-2.4c0-1,0.3-1.8,1-2.5c0.7-0.7,1.5-1,2.5-1
			C157.2,210.5,158.1,211,158.8,211.9z M154.5,212.4c-0.4,0.4-0.6,0.9-0.6,1.6c0,0.7,0.2,1.2,0.6,1.5c0.4,0.4,0.8,0.6,1.5,0.6
			c0.6,0,1.1-0.2,1.5-0.6s0.6-0.9,0.6-1.6c0-0.7-0.2-1.2-0.6-1.6c-0.4-0.4-0.9-0.6-1.5-0.6C155.4,211.8,154.9,212,154.5,212.4z"/>
		<path class="st8" d="M166.9,211.6c0.4,0.5,0.6,1.1,0.6,1.9c0,0.8-0.2,1.4-0.6,1.9c-0.4,0.5-1,0.8-1.8,0.8c-0.8,0-1.4-0.3-1.8-0.8
			c-0.4-0.5-0.6-1.1-0.6-1.9c0-0.8,0.2-1.5,0.6-1.9c0.4-0.6,1-0.8,1.8-0.8C165.9,210.7,166.5,211,166.9,211.6z M164.3,212.3
			c-0.1,0.3-0.2,0.7-0.2,1.2c0,0.5,0.1,0.9,0.2,1.2c0.2,0.4,0.4,0.6,0.8,0.6c0.4,0,0.6-0.2,0.8-0.6c0.1-0.3,0.2-0.7,0.2-1.2
			c0-0.5-0.1-0.9-0.2-1.2c-0.2-0.4-0.4-0.6-0.8-0.6C164.8,211.7,164.5,211.9,164.3,212.3z M172.1,210.5l-5.7,10.5h-1.1l5.7-10.5
			H172.1z M174.2,216.1c0.4,0.5,0.6,1.1,0.6,1.9c0,0.8-0.2,1.4-0.6,1.9c-0.4,0.5-1,0.8-1.8,0.8c-0.8,0-1.4-0.3-1.8-0.8
			c-0.4-0.5-0.6-1.1-0.6-1.9c0-0.8,0.2-1.5,0.6-1.9c0.4-0.6,1-0.8,1.8-0.8C173.2,215.3,173.8,215.6,174.2,216.1z M171.6,216.8
			c-0.1,0.3-0.2,0.7-0.2,1.2c0,0.5,0.1,0.9,0.2,1.2c0.2,0.4,0.4,0.6,0.8,0.6c0.4,0,0.6-0.2,0.8-0.6c0.1-0.3,0.2-0.7,0.2-1.2
			c0-0.5-0.1-0.9-0.2-1.2c-0.2-0.4-0.4-0.6-0.8-0.6C172,216.3,171.7,216.5,171.6,216.8z"/>
	</g>
	<g>
		<path class="st8" d="M134.9,312.4v1.4h-4.8l-0.3,2.9h0c0.3-0.3,0.7-0.6,1.1-0.7c0.4-0.2,0.8-0.2,1.2-0.2c0.9,0,1.7,0.3,2.3,0.9
			c0.6,0.6,0.9,1.5,0.9,2.6c0,1-0.4,1.9-1.2,2.6c-0.7,0.6-1.6,0.9-2.6,0.9c-0.9,0-1.7-0.3-2.3-0.7c-0.7-0.5-1.1-1.3-1.2-2.2h1.5
			c0.1,0.6,0.3,1,0.7,1.3c0.3,0.3,0.8,0.4,1.4,0.4c0.6,0,1.1-0.2,1.6-0.6c0.4-0.4,0.6-0.9,0.6-1.6c0-0.7-0.2-1.3-0.6-1.7
			s-0.9-0.6-1.6-0.6c-0.5,0-0.8,0.1-1.2,0.2c-0.4,0.2-0.6,0.4-0.8,0.8h-1.4l0.6-5.7H134.9z"/>
		<path class="st8" d="M144.2,313.1c0.6,0.5,0.8,1.1,0.8,1.9c0,0.5-0.1,1-0.3,1.3c-0.3,0.4-0.6,0.7-1.1,0.9v0
			c0.5,0.1,0.9,0.4,1.2,0.8c0.4,0.5,0.6,1,0.6,1.7c0,0.9-0.3,1.6-1,2.2c-0.7,0.6-1.6,0.8-2.8,0.8c-1.2,0-2.1-0.3-2.8-0.8
			c-0.6-0.6-1-1.3-1-2.2c0-0.6,0.2-1.2,0.6-1.7c0.3-0.5,0.7-0.7,1.2-0.8v0c-0.5-0.2-0.9-0.5-1.1-0.9c-0.2-0.4-0.3-0.8-0.3-1.3
			c0-0.7,0.3-1.4,0.8-1.9c0.6-0.6,1.5-0.8,2.6-0.8C142.7,312.2,143.6,312.5,144.2,313.1z M140,318.3c-0.4,0.3-0.6,0.8-0.6,1.3
			c0,0.5,0.2,0.9,0.6,1.3c0.4,0.3,0.9,0.5,1.7,0.5c0.7,0,1.3-0.2,1.7-0.5c0.4-0.3,0.6-0.7,0.6-1.3c0-0.6-0.2-1-0.6-1.3
			c-0.4-0.4-0.9-0.6-1.7-0.6C140.9,317.8,140.3,318,140,318.3z M140.2,313.9c-0.3,0.3-0.5,0.6-0.5,1.1c0,0.5,0.1,0.9,0.4,1.1
			c0.3,0.3,0.8,0.5,1.6,0.5c0.7,0,1.2-0.2,1.6-0.5c0.3-0.3,0.4-0.7,0.4-1.1c0-0.4-0.2-0.8-0.5-1.1c-0.4-0.3-0.9-0.5-1.5-0.5
			C141,313.4,140.5,313.6,140.2,313.9z"/>
		<path class="st8" d="M150,320.8c0.2,0.2,0.3,0.4,0.3,0.7s-0.1,0.5-0.3,0.7c-0.2,0.2-0.5,0.3-0.7,0.3c-0.3,0-0.5-0.1-0.7-0.3
			c-0.2-0.2-0.3-0.4-0.3-0.7c0-0.3,0.1-0.5,0.3-0.7c0.2-0.2,0.4-0.3,0.7-0.3S149.8,320.6,150,320.8z"/>
		<path class="st8" d="M159.8,312.4v1.2l-3.6,8.8h-1.6l3.7-8.7H153v-1.4H159.8z"/>
		<path class="st8" d="M166.9,313.2c0.4,0.5,0.6,1.1,0.6,1.9c0,0.8-0.2,1.4-0.6,1.9c-0.4,0.5-1,0.8-1.8,0.8c-0.8,0-1.4-0.3-1.8-0.8
			c-0.4-0.5-0.6-1.1-0.6-1.9c0-0.8,0.2-1.5,0.6-1.9c0.4-0.6,1-0.8,1.8-0.8C165.9,312.4,166.5,312.7,166.9,313.2z M164.3,313.9
			c-0.1,0.3-0.2,0.7-0.2,1.2c0,0.5,0.1,0.9,0.2,1.2c0.2,0.4,0.4,0.6,0.8,0.6c0.4,0,0.6-0.2,0.8-0.6c0.1-0.3,0.2-0.7,0.2-1.2
			c0-0.5-0.1-0.9-0.2-1.2c-0.2-0.4-0.4-0.6-0.8-0.6C164.8,313.4,164.5,313.6,164.3,313.9z M172.1,312.2l-5.7,10.5h-1.1l5.7-10.5
			H172.1z M174.2,317.8c0.4,0.5,0.6,1.1,0.6,1.9c0,0.8-0.2,1.4-0.6,1.9c-0.4,0.5-1,0.8-1.8,0.8c-0.8,0-1.4-0.3-1.8-0.8
			c-0.4-0.5-0.6-1.1-0.6-1.9c0-0.8,0.2-1.5,0.6-1.9c0.4-0.6,1-0.8,1.8-0.8C173.2,317,173.8,317.2,174.2,317.8z M171.6,318.5
			c-0.1,0.3-0.2,0.7-0.2,1.2c0,0.5,0.1,0.9,0.2,1.2c0.2,0.4,0.4,0.6,0.8,0.6c0.4,0,0.6-0.2,0.8-0.6c0.1-0.3,0.2-0.7,0.2-1.2
			c0-0.5-0.1-0.9-0.2-1.2c-0.2-0.4-0.4-0.6-0.8-0.6C172,318,171.7,318.1,171.6,318.5z"/>
	</g>
	<g class="st2">
		<path class="st73" d="M294.4,87.5c0.6,0.5,0.9,1.2,0.9,2c0,1.1-0.6,1.9-1.7,2.2c0.6,0.2,1,0.5,1.4,0.8c0.3,0.4,0.5,0.9,0.5,1.5
			c0,0.9-0.3,1.7-1,2.3c-0.7,0.6-1.6,0.9-2.6,0.9c-1,0-1.9-0.3-2.5-0.8c-0.7-0.6-1.1-1.5-1.2-2.6h1.6c0,0.7,0.2,1.2,0.7,1.6
			c0.4,0.3,0.8,0.5,1.4,0.5c0.6,0,1.2-0.2,1.6-0.6c0.3-0.3,0.5-0.7,0.5-1.3c0-0.6-0.2-1-0.6-1.3c-0.3-0.3-0.8-0.4-1.5-0.4h-0.7v-1.2
			h0.7c0.6,0,1.1-0.1,1.4-0.4c0.3-0.3,0.5-0.7,0.5-1.2s-0.2-0.9-0.4-1.2c-0.3-0.3-0.8-0.4-1.4-0.4c-0.6,0-1.1,0.2-1.4,0.5
			c-0.3,0.3-0.6,0.8-0.6,1.4h-1.5c0.1-1,0.5-1.8,1.1-2.3c0.6-0.6,1.4-0.8,2.4-0.8C293,86.8,293.8,87.1,294.4,87.5z"/>
		<path class="st73" d="M300.2,95.4c0.2,0.2,0.3,0.4,0.3,0.7s-0.1,0.5-0.3,0.7c-0.2,0.2-0.5,0.3-0.7,0.3c-0.3,0-0.5-0.1-0.7-0.3
			c-0.2-0.2-0.3-0.4-0.3-0.7c0-0.3,0.1-0.5,0.3-0.7c0.2-0.2,0.4-0.3,0.7-0.3S300,95.2,300.2,95.4z"/>
		<path class="st73" d="M310.5,89.6H309c-0.2-1-0.8-1.5-1.8-1.5c-0.7,0-1.3,0.3-1.7,1c-0.4,0.7-0.6,1.5-0.6,2.4c0,0,0,0.1,0,0.2h0.1
			c0.3-0.5,0.6-0.8,1.1-1c0.4-0.2,0.9-0.3,1.4-0.3c1,0,1.8,0.3,2.4,0.9c0.6,0.6,0.9,1.5,0.9,2.4c0,1-0.3,1.8-1,2.5
			c-0.7,0.6-1.5,1-2.5,1c-1.2,0-2.2-0.5-2.8-1.4c-0.6-0.9-0.9-2.1-0.9-3.6c0-1.6,0.3-3,1-4c0.7-1,1.6-1.5,2.8-1.5
			C309.1,86.8,310.2,87.7,310.5,89.6z M305.6,92.3c-0.4,0.4-0.6,0.9-0.6,1.6c0,0.6,0.2,1.2,0.6,1.6c0.4,0.4,0.9,0.6,1.5,0.6
			c0.6,0,1.1-0.2,1.5-0.6c0.4-0.4,0.6-0.9,0.6-1.6c0-0.6-0.2-1.2-0.6-1.5c-0.4-0.4-0.9-0.6-1.5-0.6C306.5,91.7,306,91.9,305.6,92.3z
			"/>
		<path class="st73" d="M317.8,87.8c0.4,0.5,0.6,1.1,0.6,1.9c0,0.8-0.2,1.4-0.6,1.9c-0.4,0.5-1,0.8-1.8,0.8c-0.8,0-1.4-0.3-1.8-0.8
			c-0.4-0.5-0.6-1.1-0.6-1.9c0-0.8,0.2-1.5,0.6-1.9c0.4-0.6,1-0.8,1.8-0.8C316.8,87,317.4,87.3,317.8,87.8z M315.2,88.5
			c-0.1,0.3-0.2,0.7-0.2,1.2c0,0.5,0.1,0.9,0.2,1.2c0.2,0.4,0.4,0.6,0.8,0.6c0.4,0,0.6-0.2,0.8-0.6c0.1-0.3,0.2-0.7,0.2-1.2
			c0-0.5-0.1-0.9-0.2-1.2c-0.2-0.4-0.4-0.6-0.8-0.6C315.7,88,315.4,88.2,315.2,88.5z M323.1,86.8l-5.7,10.5h-1.1l5.7-10.5H323.1z
			 M325.1,92.4c0.4,0.5,0.6,1.1,0.6,1.9c0,0.8-0.2,1.4-0.6,1.9c-0.4,0.5-1,0.8-1.8,0.8c-0.8,0-1.4-0.3-1.8-0.8
			c-0.4-0.5-0.6-1.1-0.6-1.9c0-0.8,0.2-1.5,0.6-1.9c0.4-0.6,1-0.8,1.8-0.8C324.1,91.6,324.7,91.8,325.1,92.4z M322.5,93.1
			c-0.1,0.3-0.2,0.7-0.2,1.2c0,0.5,0.1,0.9,0.2,1.2c0.2,0.4,0.4,0.6,0.8,0.6c0.4,0,0.6-0.2,0.8-0.6c0.1-0.3,0.2-0.7,0.2-1.2
			c0-0.5-0.1-0.9-0.2-1.2c-0.2-0.4-0.4-0.6-0.8-0.6C322.9,92.6,322.7,92.7,322.5,93.1z"/>
	</g>
	<g>
		<path class="st8" d="M287.9,132.6v10.1h-1.5v-8.2c-0.6,0.6-1.4,1-2.3,1.3v-1.5c0.5-0.1,0.9-0.3,1.4-0.6c0.5-0.3,0.9-0.6,1.3-1
			H287.9z"/>
		<path class="st8" d="M298,132.6v1.4h-4.8l-0.3,2.9h0c0.3-0.3,0.7-0.6,1.1-0.7c0.4-0.2,0.8-0.2,1.2-0.2c0.9,0,1.7,0.3,2.3,0.9
			c0.6,0.6,0.9,1.5,0.9,2.6c0,1-0.4,1.9-1.2,2.6c-0.7,0.6-1.6,0.9-2.6,0.9c-0.9,0-1.7-0.3-2.3-0.7c-0.7-0.5-1.1-1.3-1.2-2.2h1.5
			c0.1,0.6,0.3,1,0.7,1.3c0.3,0.3,0.8,0.4,1.4,0.4c0.6,0,1.1-0.2,1.6-0.6c0.4-0.4,0.6-0.9,0.6-1.6c0-0.7-0.2-1.3-0.6-1.7
			c-0.4-0.4-0.9-0.6-1.6-0.6c-0.5,0-0.8,0.1-1.2,0.2c-0.4,0.2-0.6,0.4-0.8,0.8h-1.4l0.6-5.7H298z"/>
		<path class="st8" d="M303.2,141c0.2,0.2,0.3,0.4,0.3,0.7s-0.1,0.5-0.3,0.7c-0.2,0.2-0.5,0.3-0.7,0.3c-0.3,0-0.5-0.1-0.7-0.3
			c-0.2-0.2-0.3-0.4-0.3-0.7c0-0.3,0.1-0.5,0.3-0.7c0.2-0.2,0.4-0.3,0.7-0.3S303,140.8,303.2,141z"/>
		<path class="st8" d="M312.7,133.9c0.6,0.9,0.9,2.2,0.9,3.7c0,1.6-0.3,2.8-0.9,3.7c-0.7,1-1.6,1.5-2.8,1.5c-1.2,0-2.1-0.5-2.8-1.5
			c-0.6-0.9-0.9-2.2-0.9-3.7c0-1.6,0.3-2.8,0.9-3.7c0.7-1,1.6-1.5,2.8-1.5C311.2,132.4,312.1,132.9,312.7,133.9z M308.2,135.1
			c-0.3,0.6-0.4,1.5-0.4,2.6c0,1.1,0.1,1.9,0.4,2.6c0.3,0.9,0.9,1.4,1.8,1.4c0.8,0,1.4-0.5,1.8-1.4c0.2-0.6,0.4-1.5,0.4-2.6
			c0-1.1-0.1-1.9-0.4-2.6c-0.3-0.9-0.9-1.4-1.8-1.4C309.1,133.7,308.6,134.2,308.2,135.1z"/>
		<path class="st8" d="M320.8,133.5c0.4,0.5,0.6,1.1,0.6,1.9c0,0.8-0.2,1.4-0.6,1.9c-0.4,0.5-1,0.8-1.8,0.8c-0.8,0-1.4-0.3-1.8-0.8
			c-0.4-0.5-0.6-1.1-0.6-1.9c0-0.8,0.2-1.5,0.6-1.9c0.4-0.6,1-0.8,1.8-0.8C319.8,132.6,320.4,132.9,320.8,133.5z M318.2,134.2
			c-0.1,0.3-0.2,0.7-0.2,1.2c0,0.5,0.1,0.9,0.2,1.2c0.2,0.4,0.4,0.6,0.8,0.6c0.4,0,0.6-0.2,0.8-0.6c0.1-0.3,0.2-0.7,0.2-1.2
			c0-0.5-0.1-0.9-0.2-1.2c-0.2-0.4-0.4-0.6-0.8-0.6C318.6,133.6,318.4,133.8,318.2,134.2z M326,132.4l-5.7,10.5h-1.1l5.7-10.5H326z
			 M328.1,138c0.4,0.5,0.6,1.1,0.6,1.9c0,0.8-0.2,1.4-0.6,1.9c-0.4,0.5-1,0.8-1.8,0.8c-0.8,0-1.4-0.3-1.8-0.8
			c-0.4-0.5-0.6-1.1-0.6-1.9c0-0.8,0.2-1.5,0.6-1.9c0.4-0.6,1-0.8,1.8-0.8C327,137.2,327.6,137.5,328.1,138z M325.5,138.7
			c-0.1,0.3-0.2,0.7-0.2,1.2c0,0.5,0.1,0.9,0.2,1.2c0.2,0.4,0.4,0.6,0.8,0.6c0.4,0,0.6-0.2,0.8-0.6c0.1-0.3,0.2-0.7,0.2-1.2
			c0-0.5-0.1-0.9-0.2-1.2c-0.2-0.4-0.4-0.6-0.8-0.6C325.9,138.2,325.6,138.4,325.5,138.7z"/>
	</g>
	<g>
		<path class="st8" d="M297.5,172c0.6,0.9,0.9,2.1,0.9,3.6c0,1.6-0.3,3-1,4c-0.7,1-1.6,1.5-2.8,1.5c-2,0-3.1-0.9-3.3-2.7h1.5
			c0.2,1,0.8,1.5,1.8,1.5c0.7,0,1.2-0.4,1.7-1c0.4-0.6,0.6-1.5,0.6-2.4c0-0.1,0-0.1,0-0.2h-0.1c-0.3,0.4-0.7,0.8-1.1,1
			c-0.4,0.2-0.9,0.3-1.4,0.3c-1,0-1.8-0.3-2.4-1c-0.6-0.6-0.9-1.4-0.9-2.4c0-1,0.3-1.8,1-2.5c0.7-0.7,1.5-1,2.5-1
			C296,170.6,296.9,171.1,297.5,172z M293.3,172.5c-0.4,0.4-0.6,0.9-0.6,1.6c0,0.7,0.2,1.2,0.6,1.5c0.4,0.4,0.8,0.6,1.5,0.6
			c0.6,0,1.1-0.2,1.5-0.6s0.6-0.9,0.6-1.6c0-0.7-0.2-1.2-0.6-1.6c-0.4-0.4-0.9-0.6-1.5-0.6C294.2,171.9,293.6,172.1,293.3,172.5z"/>
		<path class="st8" d="M303.2,179.2c0.2,0.2,0.3,0.4,0.3,0.7s-0.1,0.5-0.3,0.7c-0.2,0.2-0.5,0.3-0.7,0.3c-0.3,0-0.5-0.1-0.7-0.3
			c-0.2-0.2-0.3-0.4-0.3-0.7c0-0.3,0.1-0.5,0.3-0.7c0.2-0.2,0.4-0.3,0.7-0.3S303,179,303.2,179.2z"/>
		<path class="st8" d="M312.5,171.5c0.6,0.5,0.8,1.1,0.8,1.9c0,0.5-0.1,1-0.3,1.3c-0.3,0.4-0.6,0.7-1.1,0.9v0
			c0.5,0.1,0.9,0.4,1.2,0.8c0.4,0.5,0.6,1,0.6,1.7c0,0.9-0.3,1.6-1,2.2c-0.7,0.6-1.6,0.8-2.8,0.8c-1.2,0-2.1-0.3-2.8-0.8
			c-0.6-0.6-1-1.3-1-2.2c0-0.6,0.2-1.2,0.6-1.7c0.3-0.5,0.7-0.7,1.2-0.8v0c-0.5-0.2-0.9-0.5-1.1-0.9c-0.2-0.4-0.3-0.8-0.3-1.3
			c0-0.7,0.3-1.4,0.8-1.9c0.6-0.6,1.5-0.8,2.6-0.8C311.1,170.6,311.9,170.9,312.5,171.5z M308.3,176.8c-0.4,0.3-0.6,0.8-0.6,1.3
			c0,0.5,0.2,0.9,0.6,1.3c0.4,0.3,0.9,0.5,1.7,0.5c0.7,0,1.3-0.2,1.7-0.5c0.4-0.3,0.6-0.7,0.6-1.3c0-0.6-0.2-1-0.6-1.3
			c-0.4-0.4-0.9-0.6-1.7-0.6C309.2,176.2,308.7,176.4,308.3,176.8z M308.5,172.3c-0.3,0.3-0.5,0.6-0.5,1.1c0,0.5,0.1,0.9,0.4,1.1
			c0.3,0.3,0.8,0.5,1.6,0.5c0.7,0,1.2-0.2,1.6-0.5c0.3-0.3,0.4-0.7,0.4-1.1c0-0.4-0.2-0.8-0.5-1.1c-0.4-0.3-0.9-0.5-1.5-0.5
			C309.4,171.8,308.9,172,308.5,172.3z"/>
		<path class="st8" d="M320.8,171.7c0.4,0.5,0.6,1.1,0.6,1.9c0,0.8-0.2,1.4-0.6,1.9c-0.4,0.5-1,0.8-1.8,0.8c-0.8,0-1.4-0.3-1.8-0.8
			c-0.4-0.5-0.6-1.1-0.6-1.9c0-0.8,0.2-1.5,0.6-1.9c0.4-0.6,1-0.8,1.8-0.8C319.8,170.8,320.4,171.1,320.8,171.7z M318.2,172.3
			c-0.1,0.3-0.2,0.7-0.2,1.2c0,0.5,0.1,0.9,0.2,1.2c0.2,0.4,0.4,0.6,0.8,0.6c0.4,0,0.6-0.2,0.8-0.6c0.1-0.3,0.2-0.7,0.2-1.2
			c0-0.5-0.1-0.9-0.2-1.2c-0.2-0.4-0.4-0.6-0.8-0.6C318.6,171.8,318.4,172,318.2,172.3z M326,170.6l-5.7,10.5h-1.1l5.7-10.5H326z
			 M328.1,176.2c0.4,0.5,0.6,1.1,0.6,1.9c0,0.8-0.2,1.4-0.6,1.9c-0.4,0.5-1,0.8-1.8,0.8c-0.8,0-1.4-0.3-1.8-0.8
			c-0.4-0.5-0.6-1.1-0.6-1.9c0-0.8,0.2-1.5,0.6-1.9c0.4-0.6,1-0.8,1.8-0.8C327,175.4,327.6,175.6,328.1,176.2z M325.5,176.9
			c-0.1,0.3-0.2,0.7-0.2,1.2c0,0.5,0.1,0.9,0.2,1.2c0.2,0.4,0.4,0.6,0.8,0.6c0.4,0,0.6-0.2,0.8-0.6c0.1-0.3,0.2-0.7,0.2-1.2
			c0-0.5-0.1-0.9-0.2-1.2c-0.2-0.4-0.4-0.6-0.8-0.6C325.9,176.4,325.6,176.5,325.5,176.9z"/>
	</g>
	<g>
		<path class="st8" d="M291.3,281.9v1.2l-3.6,8.8h-1.6l3.7-8.7h-5.2v-1.4H291.3z"/>
		<path class="st8" d="M297.7,281.9V292h-1.5v-8.2c-0.6,0.6-1.4,1-2.3,1.3v-1.5c0.5-0.1,0.9-0.3,1.4-0.6c0.5-0.3,0.9-0.6,1.3-1
			H297.7z"/>
		<path class="st8" d="M303.2,290.3c0.2,0.2,0.3,0.4,0.3,0.7s-0.1,0.5-0.3,0.7c-0.2,0.2-0.5,0.3-0.7,0.3c-0.3,0-0.5-0.1-0.7-0.3
			c-0.2-0.2-0.3-0.4-0.3-0.7c0-0.3,0.1-0.5,0.3-0.7c0.2-0.2,0.4-0.3,0.7-0.3S303,290.1,303.2,290.3z"/>
		<path class="st8" d="M313.4,284.5h-1.5c-0.2-1-0.8-1.5-1.8-1.5c-0.7,0-1.3,0.3-1.7,1c-0.4,0.7-0.6,1.5-0.6,2.4c0,0,0,0.1,0,0.2
			h0.1c0.3-0.5,0.6-0.8,1.1-1c0.4-0.2,0.9-0.3,1.4-0.3c1,0,1.8,0.3,2.4,0.9c0.6,0.6,0.9,1.5,0.9,2.4c0,1-0.3,1.8-1,2.5
			c-0.7,0.6-1.5,1-2.5,1c-1.2,0-2.2-0.5-2.8-1.4c-0.6-0.9-0.9-2.1-0.9-3.6c0-1.6,0.3-3,1-4c0.7-1,1.6-1.5,2.8-1.5
			C312.1,281.7,313.2,282.6,313.4,284.5z M308.6,287.2c-0.4,0.4-0.6,0.9-0.6,1.6c0,0.6,0.2,1.2,0.6,1.6c0.4,0.4,0.9,0.6,1.5,0.6
			c0.6,0,1.1-0.2,1.5-0.6c0.4-0.4,0.6-0.9,0.6-1.6c0-0.6-0.2-1.2-0.6-1.5c-0.4-0.4-0.9-0.6-1.5-0.6
			C309.4,286.6,308.9,286.8,308.6,287.2z"/>
		<path class="st8" d="M320.8,282.8c0.4,0.5,0.6,1.1,0.6,1.9c0,0.8-0.2,1.4-0.6,1.9c-0.4,0.5-1,0.8-1.8,0.8c-0.8,0-1.4-0.3-1.8-0.8
			c-0.4-0.5-0.6-1.1-0.6-1.9c0-0.8,0.2-1.5,0.6-1.9c0.4-0.6,1-0.8,1.8-0.8C319.8,281.9,320.4,282.2,320.8,282.8z M318.2,283.5
			c-0.1,0.3-0.2,0.7-0.2,1.2c0,0.5,0.1,0.9,0.2,1.2c0.2,0.4,0.4,0.6,0.8,0.6c0.4,0,0.6-0.2,0.8-0.6c0.1-0.3,0.2-0.7,0.2-1.2
			c0-0.5-0.1-0.9-0.2-1.2c-0.2-0.4-0.4-0.6-0.8-0.6C318.6,282.9,318.4,283.1,318.2,283.5z M326,281.7l-5.7,10.5h-1.1l5.7-10.5H326z
			 M328.1,287.3c0.4,0.5,0.6,1.1,0.6,1.9c0,0.8-0.2,1.4-0.6,1.9c-0.4,0.5-1,0.8-1.8,0.8c-0.8,0-1.4-0.3-1.8-0.8
			c-0.4-0.5-0.6-1.1-0.6-1.9c0-0.8,0.2-1.5,0.6-1.9c0.4-0.6,1-0.8,1.8-0.8C327,286.5,327.6,286.8,328.1,287.3z M325.5,288
			c-0.1,0.3-0.2,0.7-0.2,1.2c0,0.5,0.1,0.9,0.2,1.2c0.2,0.4,0.4,0.6,0.8,0.6c0.4,0,0.6-0.2,0.8-0.6c0.1-0.3,0.2-0.7,0.2-1.2
			c0-0.5-0.1-0.9-0.2-1.2c-0.2-0.4-0.4-0.6-0.8-0.6C325.9,287.5,325.6,287.7,325.5,288z"/>
	</g>
	<g>
		<g>
			<path class="st74" d="M103.7,52.5l-1.1,1.1c-0.7-0.8-1.7-1.6-3-2.5l1.2-1.1C101.9,50.9,102.9,51.7,103.7,52.5z M103.8,55.2
				c-0.8,2.2-1.6,4.3-2.5,6.2l-1.5-0.7c1-2,1.8-4,2.5-6.1L103.8,55.2z M104.2,48.4l-1.1,1.1c-0.7-0.8-1.7-1.6-2.9-2.5l1.2-1.1
				C102.4,46.7,103.4,47.5,104.2,48.4z M110.2,52.7v1.4c0,0.3,0,0.6-0.1,0.9c0.3,2.5,2.1,4.2,5.3,5.1l-1,1.4
				c-2.4-0.9-4.1-2.2-4.9-3.9c-0.2,0.5-0.4,0.9-0.7,1.3c-0.9,1.1-2.3,2-4.2,2.6l-0.9-1.4c1.9-0.6,3.2-1.4,3.9-2.3
				c0.7-1,1-2.2,1.1-3.8v-1.4H110.2z M108.9,51.6c-0.8,0.9-2.2,1.7-4.1,2.2l-0.9-1.4c1.8-0.5,3.1-1.1,3.8-1.8c0.6-0.8,1-1.8,1.1-3.1
				v-1.8h1.6v1.8c0,0.8-0.2,1.5-0.3,2.1c1.8,0.8,3.5,1.7,5,2.8l-0.9,1.4c-1.6-1.2-3.1-2.1-4.7-2.8C109.2,51.2,109.1,51.4,108.9,51.6
				z M107,49.4l-1.4,0.6c-0.4-1.2-0.8-2.2-1.3-3.1l1.4-0.6C106.2,47.4,106.7,48.4,107,49.4z M106.9,57.1l-1.4,0.6
				c-0.3-1.1-0.7-2.1-1-2.9l1.3-0.5C106.2,55.2,106.6,56.1,106.9,57.1z M114.4,54.7c-0.4,1.2-0.9,2.2-1.6,3.1l-1.3-0.8
				c0.6-0.8,1.1-1.8,1.5-2.9L114.4,54.7z M114.4,46.8c-0.4,1.2-0.9,2.3-1.6,3.2l-1.3-0.8c0.6-0.8,1.1-1.8,1.5-3L114.4,46.8z"/>
			<path class="st74" d="M124.5,50v1.3c-0.8,3.8-2.6,6.7-5.2,8.7l-1-1.3c2.2-1.7,3.8-4,4.6-7.1h-4.1V50H124.5z M133.4,49.3
				c-1.3,1.6-2.7,3-4.1,4.1c1.3,2.1,3,3.8,5.1,5.2l-1,1.5c-2.8-2.3-4.8-4.8-6.1-7.5v7.1c0,1.2-0.6,1.8-1.7,1.8h-2.3L123,60
				c0.7,0.1,1.4,0.1,2.1,0.1c0.4,0,0.6-0.3,0.6-0.7V45.7h1.7v3.6c0.3,1,0.8,2,1.3,2.9c1.3-1.1,2.5-2.4,3.5-3.8L133.4,49.3z"/>
			<path class="st74" d="M141.4,52.7l-1.2,1.2c-0.7-0.8-1.6-1.6-2.8-2.5l1.2-1.1C139.7,51,140.6,51.8,141.4,52.7z M141.6,55.5
				c-0.7,2.2-1.5,4.2-2.4,6.1l-1.7-0.7c1-1.9,1.8-3.9,2.6-6L141.6,55.5z M141.9,48.6l-1.2,1.2c-0.7-0.8-1.7-1.7-3-2.6l1.2-1.1
				C140.1,46.8,141.1,47.7,141.9,48.6z M153.2,46.7v1.6h-1.3v11.5c0,1.2-0.6,1.8-1.7,1.8h-2.9L147,60c0.9,0.1,1.8,0.1,2.7,0.1
				c0.4,0,0.7-0.3,0.7-0.8V48.2h-8.2v-1.6H153.2z M148.5,50.5v6.7h-5.7v-6.7H148.5z M147,52h-2.6v3.7h2.6V52z"/>
			<path class="st74" d="M161.9,57.6c-1.2,1.4-2.6,2.7-4.3,3.8l-1-1.3c1.7-1,3.1-2.1,4.2-3.4L161.9,57.6z M161.7,61.5l-0.3-1.5
				c0.6,0.1,1.2,0.1,1.8,0.1c0.3,0,0.5-0.2,0.5-0.6v-3.5c-1.7,0.1-3.6,0.2-5.6,0.3l-0.5-1.4c0.5,0,1-0.1,1.4-0.3
				c1.5-0.5,3.1-1.2,4.9-2.2c-1.8,0.1-3.5,0.2-5.3,0.3l-0.2-1.4c2.2-0.6,4.4-1.7,6.6-3.3l-0.2,0.1c-1.5,0.4-3.5,0.8-6.2,1.2
				l-0.8-1.4c2-0.2,3.9-0.6,5.7-1c1.5-0.3,2.9-0.8,4.2-1.3l1.4,0.9c-1.3,0.6-2.7,1-4,1.4l1.2,0.8c-1.3,1-2.7,1.8-4.1,2.5
				c1.3-0.1,2.7-0.2,4-0.3c0.7-0.4,1.4-0.9,2.2-1.4l1.6,0.8c-3,2-5.7,3.4-7.9,4.4c2.4-0.1,4.6-0.3,6.5-0.5c-0.4-0.5-0.8-1-1.2-1.5
				l1.2-0.7c1.4,1.6,2.4,3,3.1,4.2l-1.3,0.9c-0.3-0.5-0.6-1.1-1-1.6c-1.2,0.1-2.6,0.2-4.1,0.3v4c0,1.1-0.5,1.6-1.6,1.6H161.7z
				 M171.7,60.2l-1.2,1.1c-1-1.2-2.3-2.5-4-3.9l1.1-1C169.2,57.7,170.6,59,171.7,60.2z"/>
			<path class="st74" d="M184.1,45.8V48h5.8v1.6h-5.8v2.7h6.7v1.6h-5.3c1.1,2,3.1,3.8,5.7,5.4l-1.2,1.5c-2.8-2.1-4.7-4.4-5.9-6.9
				h-0.1v7.7h-1.7v-7.7h-0.1c-1.2,2.8-3.2,5.1-6,6.9l-0.9-1.5c2.6-1.4,4.5-3.2,5.7-5.4h-5.3v-1.6h6.7v-2.7h-5.7V48h5.7v-2.2H184.1z"
				/>
			<path class="st74" d="M207.3,53.8v1.4c-0.7,1.3-1.7,2.4-3.2,3.4c1.6,0.7,3.6,1.2,5.9,1.7l-0.9,1.5c-2.6-0.6-4.8-1.3-6.6-2.2
				c-1.9,0.9-4.3,1.7-7.1,2.3l-0.9-1.6c2.5-0.4,4.6-1,6.3-1.7c-1.4-1-2.4-2.1-3.1-3.3h-0.6v-1.5H207.3z M209.6,55.1H208v-2.6h-11.6
				v2.6h-1.6v-4.1h2.9c-0.5-0.8-1-1.5-1.6-2.1l1.4-0.7c0.6,0.7,1.1,1.4,1.7,2.3l-1,0.5h3.6c-0.5-0.8-1-1.6-1.6-2.2l1.5-0.7
				c0.6,0.7,1.1,1.4,1.6,2.2l-1.4,0.7h2.8c0.6-1,1.2-2,1.6-3.1l1.7,0.6c-0.5,0.9-1,1.8-1.5,2.5h3.1V55.1z M209,47.2
				c-3.3,0.5-7.8,0.7-13.3,0.7l-0.5-1.5c5.2,0,9.5-0.2,13-0.7L209,47.2z M202.4,57.7c1.3-0.7,2.3-1.6,3-2.5h-6.1
				C200.1,56.2,201.1,57,202.4,57.7z"/>
			<path class="st74" d="M217.3,52.5l-1.1,1.1c-0.7-0.8-1.7-1.6-2.9-2.5l1.2-1.1C215.5,50.9,216.5,51.7,217.3,52.5z M217.4,55.2
				c-0.7,2.2-1.5,4.3-2.4,6.2l-1.5-0.7c1-2,1.8-4,2.5-6.1L217.4,55.2z M217.8,48.4l-1.1,1.2c-0.7-0.8-1.7-1.6-2.9-2.5l1.2-1.1
				C216,46.7,217,47.6,217.8,48.4z M228.9,50.2v1.6H222c-0.2,0.9-0.3,1.6-0.5,2.3h6.2c-0.1,3.9-0.4,6.1-0.9,6.6
				c-0.5,0.5-1.6,0.7-3.3,0.7h-1.2l-0.5-1.6c0.6,0,1.2,0,1.7,0c1,0,1.6-0.1,1.9-0.4c0.3-0.3,0.5-1.6,0.6-4h-6.5
				c0.3-1.4,0.6-2.7,0.8-3.8h-2.5v-1.6H228.9z M228,46.4V48h-9.2v-1.6H228z"/>
			<path class="st74" d="M237.4,58c-1.1,1.3-2.4,2.4-4,3.4l-1-1.3c1.5-0.9,2.8-1.9,3.8-3.1L237.4,58z M236,49.6l-0.8,1.2
				c-0.8-0.6-1.7-1-2.6-1.4l0.8-1.2C234.3,48.6,235.2,49.1,236,49.6z M237.6,51.3c-1.2,1.4-2.5,2.6-3.8,3.5l-1.1-1.3
				c1.4-0.9,2.6-2,3.7-3.2L237.6,51.3z M239.3,55.1v-1.3h1.7v1.3h6.7v1.5H241v4.9h-1.7v-4.9h-6.7v-1.5H239.3z M237.4,47.5l-0.8,1.2
				c-1-0.7-1.9-1.2-2.9-1.5l0.8-1.2C235.5,46.4,236.5,46.9,237.4,47.5z M241.8,45.7v1.7h3.4v4.8c0,0.2,0.1,0.3,0.3,0.3h0.4
				c0.2,0,0.4-0.1,0.5-0.3s0.2-0.8,0.3-2l1.4,0.5c-0.2,1.4-0.4,2.4-0.6,2.7c-0.2,0.4-0.7,0.6-1.3,0.6h-0.9c-1.1,0-1.6-0.5-1.6-1.5
				V49h-1.9c-0.1,1.2-0.4,2.2-0.9,3.1c-0.6,1-1.6,1.8-3,2.4l-0.9-1.4c1.2-0.5,2.1-1.2,2.6-2c0.3-0.6,0.5-1.2,0.6-2h-2.2v-1.5h2.3
				v-1.7H241.8z M247.8,60.3l-1.2,1.2c-0.9-1.1-2.1-2.2-3.6-3.4l1.1-1C245.5,58.1,246.7,59.2,247.8,60.3z"/>
			<path class="st74" d="M254,59.4c1.4-0.3,2.9-0.7,4.3-1.2l0.4,1.5c-2,0.6-4.1,1.2-6.3,1.7l-0.5-1.5c0.3-0.2,0.5-0.5,0.5-1V46h1.6
				v4.6h4.3v1.6H254V59.4z M261.2,61.1c-1.2,0-1.8-0.7-1.8-2V45.9h1.6v4.8l5.2-0.3V52l-5.2,0.3v6.6c0,0.4,0.2,0.7,0.7,0.7h2.4
				c0.2,0,0.5-0.1,0.7-0.3c0.2-0.2,0.4-1.2,0.5-3l1.6,0.5c-0.2,2.1-0.4,3.4-0.8,3.7c-0.4,0.4-0.9,0.6-1.5,0.6H261.2z"/>
			<path class="st74" d="M270.5,54.3l-0.5-1.7c1.4-2,2.5-4.3,3.2-7l1.6,0.7c-0.4,1.3-0.9,2.6-1.4,3.8v11.6h-1.6v-8.9
				C271.2,53.3,270.9,53.8,270.5,54.3z M280.6,46.6v1.6h-3c-0.1,0.7-0.2,1.4-0.3,2.1h3.1v1.4c-0.6,4.8-2.3,8.1-5.2,9.9l-0.8-1.4
				c1.3-0.9,2.3-2.1,3.1-3.6c-0.6-0.6-1.2-1.1-1.8-1.5c-0.3,0.6-0.7,1.1-1.1,1.6l-0.8-1.6c1.3-1.7,2-3.9,2.3-6.8h-1.2v-1.6H280.6z
				 M278.1,55c0.3-1,0.6-2.1,0.8-3.2h-1.9c-0.2,0.7-0.4,1.3-0.7,1.9C276.9,54.1,277.5,54.5,278.1,55z M282.6,47.3V58h-1.5V47.3
				H282.6z M281.8,61.5l-0.4-1.6c0.6,0.1,1.2,0.1,1.7,0.1c0.4,0,0.7-0.2,0.7-0.6V45.8h1.6v14c0,1.1-0.6,1.7-1.7,1.7H281.8z"/>
			<path class="st74" d="M297.1,45.7v5.2h6.4v1.6h-6.4v6.9h7.7V61h-15.4v-1.6h6.1V45.7H297.1z"/>
			<path class="st74" d="M317,47.1c-1,0.4-2,0.8-3,1.1v4h4.2v-6.2h1.6v6.2h3.8v1.6h-3.8v7.9h-1.6v-7.9h-4.3
				c-0.2,3.6-1.7,6.2-4.3,7.9l-1.2-1.1c2.3-1.5,3.6-3.8,3.8-6.9h-4v-1.6h4.1v-3.6c-1,0.2-2.1,0.3-3.2,0.4l-0.5-1.5
				c3.1-0.3,5.6-0.9,7.6-1.8L317,47.1z"/>
			<path class="st74" d="M336.4,53.2c0,1.7-0.8,2.9-2.3,3.7l-0.6-0.9c1-0.6,1.5-1.4,1.6-2.3c-0.1,0-0.2,0-0.3,0
				c-0.3,0-0.7-0.1-0.9-0.3c-0.2-0.2-0.4-0.5-0.4-0.9c0-0.4,0.1-0.7,0.4-0.9c0.2-0.2,0.5-0.3,0.9-0.3
				C335.8,51.1,336.4,51.8,336.4,53.2z"/>
			<path class="st74" d="M347.1,61.6l-1.2-1.1c0.7-1.5,1.1-3.6,1.2-6.3V50h14.6v1.4h-13v2.7h2.5v-0.8h-1.9v-1.2h5.2v1.2h-1.9v0.8
				h2.9v1.2h-1v6.3H353v-1c-1.1,0.2-2.6,0.3-4.4,0.5l-0.2-1.3l0.9,0v-4.5h-0.7C348.4,57.9,347.9,60,347.1,61.6z M353.4,46.2v3.3
				h-6.1v-3.3H353.4z M351.9,47.5h-3v0.8h3V47.5z M353,56v-0.7h-2.2V56H353z M353,57.8V57h-2.2v0.8H353z M353,59.5v-0.7h-2.2v0.9
				C351.6,59.6,352.3,59.5,353,59.5z M360.6,46.2v3.3h-6.1v-3.3H360.6z M356.5,56.8c-0.2,0.5-0.5,0.9-0.8,1.3l-1-1.2
				c0.9-1.3,1.5-3.1,1.8-5.2l1.4,0.2c-0.1,0.5-0.2,0.9-0.2,1.4h3.5v1.4h-0.8c-0.1,1.5-0.5,2.8-1.1,3.9c0.7,0.7,1.5,1.3,2.4,1.9
				l-1,1.1c-0.9-0.6-1.7-1.2-2.3-1.8c-0.7,0.7-1.4,1.3-2.4,1.9l-0.8-1.3c0.9-0.4,1.7-1,2.3-1.7C357.1,58,356.7,57.4,356.5,56.8z
				 M359,47.5h-3v0.8h3V47.5z M356.6,56.5l0.9-0.5c0.2,0.5,0.5,1,0.8,1.4c0.4-0.8,0.6-1.7,0.7-2.7h-1.7
				C357.1,55.3,356.9,55.9,356.6,56.5z"/>
			<path class="st74" d="M372,50.7v-0.8h-6.6v-1.4h6.6v-0.9c-1.7,0.1-3.4,0.2-5.2,0.2l-0.3-1.3c4.5-0.1,8.4-0.4,11.9-0.7l0.5,1.3
				c-1.6,0.1-3.4,0.3-5.3,0.4v1h6.6v1.4h-6.6v0.8h5.3v5.9h-5.3v0.9h6v1.3h-6v1h6.9v1.4h-15.3v-1.4h6.8v-1h-6v-1.3h6v-0.9h-5.3v-5.9
				H372z M372,53.1v-1h-3.7v1H372z M372,54.3h-3.7v1.1h3.7V54.3z M373.7,53.1h3.7v-1h-3.7V53.1z M377.4,54.3h-3.7v1.1h3.7V54.3z"/>
			<path class="st74" d="M388,52.5l-1.1,1.1c-0.7-0.8-1.7-1.6-2.9-2.5l1.2-1.1C386.2,50.9,387.2,51.7,388,52.5z M388,55.2
				c-0.7,2.2-1.5,4.3-2.4,6.2l-1.5-0.7c1-2,1.8-4,2.5-6.1L388,55.2z M388.4,48.4l-1.1,1.2c-0.7-0.8-1.7-1.6-2.9-2.5l1.2-1.1
				C386.7,46.7,387.7,47.6,388.4,48.4z M399.5,50.2v1.6h-6.9c-0.2,0.9-0.3,1.6-0.5,2.3h6.2c-0.1,3.9-0.4,6.1-0.9,6.6
				c-0.5,0.5-1.6,0.7-3.3,0.7H393l-0.5-1.6c0.6,0,1.2,0,1.7,0c1,0,1.6-0.1,1.9-0.4c0.3-0.3,0.5-1.6,0.6-4h-6.5
				c0.3-1.4,0.6-2.7,0.8-3.8h-2.5v-1.6H399.5z M398.7,46.4V48h-9.2v-1.6H398.7z"/>
			<path class="st74" d="M408.1,58c-1.1,1.3-2.4,2.4-4,3.4l-1-1.3c1.5-0.9,2.8-1.9,3.8-3.1L408.1,58z M406.7,49.6l-0.8,1.2
				c-0.8-0.6-1.7-1-2.6-1.4l0.8-1.2C405,48.6,405.9,49.1,406.7,49.6z M408.2,51.3c-1.2,1.4-2.5,2.6-3.8,3.5l-1.1-1.3
				c1.4-0.9,2.6-2,3.7-3.2L408.2,51.3z M410,55.1v-1.3h1.7v1.3h6.7v1.5h-6.7v4.9H410v-4.9h-6.7v-1.5H410z M408,47.5l-0.8,1.2
				c-1-0.7-1.9-1.2-2.9-1.5l0.8-1.2C406.2,46.4,407.2,46.9,408,47.5z M412.5,45.7v1.7h3.4v4.8c0,0.2,0.1,0.3,0.3,0.3h0.4
				c0.2,0,0.4-0.1,0.5-0.3s0.2-0.8,0.3-2l1.4,0.5c-0.2,1.4-0.4,2.4-0.6,2.7c-0.2,0.4-0.7,0.6-1.3,0.6h-0.9c-1.1,0-1.6-0.5-1.6-1.5
				V49h-1.9c-0.1,1.2-0.4,2.2-0.9,3.1c-0.6,1-1.6,1.8-3,2.4l-0.9-1.4c1.2-0.5,2.1-1.2,2.6-2c0.3-0.6,0.5-1.2,0.6-2h-2.2v-1.5h2.3
				v-1.7H412.5z M418.4,60.3l-1.2,1.2c-0.9-1.1-2.1-2.2-3.6-3.4l1.1-1C416.2,58.1,417.4,59.2,418.4,60.3z"/>
			<path class="st74" d="M424.7,59.4c1.4-0.3,2.9-0.7,4.3-1.2l0.4,1.5c-2,0.6-4.1,1.2-6.3,1.7l-0.5-1.5c0.3-0.2,0.5-0.5,0.5-1V46
				h1.6v4.6h4.3v1.6h-4.3V59.4z M431.9,61.1c-1.2,0-1.8-0.7-1.8-2V45.9h1.6v4.8l5.2-0.3V52l-5.2,0.3v6.6c0,0.4,0.2,0.7,0.7,0.7h2.4
				c0.2,0,0.5-0.1,0.7-0.3c0.2-0.2,0.4-1.2,0.5-3l1.6,0.5c-0.2,2.1-0.4,3.4-0.8,3.7c-0.4,0.4-0.9,0.6-1.5,0.6H431.9z"/>
			<path class="st74" d="M441.2,54.3l-0.5-1.7c1.4-2,2.5-4.3,3.2-7l1.6,0.7c-0.4,1.3-0.9,2.6-1.4,3.8v11.6h-1.6v-8.9
				C441.9,53.3,441.5,53.8,441.2,54.3z M451.3,46.6v1.6h-3c-0.1,0.7-0.2,1.4-0.3,2.1h3.1v1.4c-0.6,4.8-2.3,8.1-5.2,9.9l-0.8-1.4
				c1.3-0.9,2.3-2.1,3.1-3.6c-0.6-0.6-1.2-1.1-1.8-1.5c-0.3,0.6-0.7,1.1-1.1,1.6l-0.8-1.6c1.3-1.7,2-3.9,2.3-6.8h-1.2v-1.6H451.3z
				 M448.8,55c0.3-1,0.6-2.1,0.8-3.2h-1.9c-0.2,0.7-0.4,1.3-0.7,1.9C447.6,54.1,448.2,54.5,448.8,55z M453.3,47.3V58h-1.5V47.3
				H453.3z M452.5,61.5l-0.4-1.6c0.6,0.1,1.2,0.1,1.7,0.1c0.4,0,0.7-0.2,0.7-0.6V45.8h1.6v14c0,1.1-0.6,1.7-1.7,1.7H452.5z"/>
			<path class="st74" d="M475.4,46.5v1.6h-7.3v2.3c2.1,1,4.2,2.2,6.4,3.5l-1,1.5c-2.2-1.4-4-2.5-5.4-3.2v9.5h-1.6V48.1H460v-1.6
				H475.4z"/>
			<path class="st74" d="M484.7,46.3v1.3c-0.5,1.5-1.1,3.1-1.7,4.7c1,1.6,1.6,2.9,1.7,4.1c0,0.8-0.2,1.4-0.5,1.7
				c-0.5,0.4-1.3,0.7-2.5,0.7l-0.5-1.7c0.3,0.1,0.7,0.1,0.9,0.1c0.4,0,0.7-0.1,0.9-0.2c0.1-0.1,0.2-0.3,0.2-0.6
				c0-1.2-0.6-2.4-1.7-3.9c0.7-1.7,1.3-3.3,1.7-4.7h-2.2v13.8h-1.5V46.3H484.7z M489.1,46c-0.2,0.3-0.4,0.6-0.6,0.9h4.9v1.3
				c-0.5,1-1.3,1.9-2.4,2.7c1,0.4,2.2,0.7,3.6,0.9l-0.6,1.4c-1.8-0.3-3.4-0.8-4.6-1.4c-1.3,0.6-2.8,1.2-4.5,1.6l-0.8-1.4
				c1.4-0.3,2.7-0.6,3.8-1c-0.6-0.4-1.1-0.9-1.5-1.4c-0.4,0.4-0.8,0.7-1.2,1l-1-1.2c1.3-0.9,2.4-2.1,3.3-3.7L489.1,46z M485.8,55.4
				H485v-1.5h4v-1.1h1.6v1.1h2.9v1.5h-2.9v2.1h3.5V59h-3.5v2.7H489V59h-4.3L485.8,55.4z M489,55.4h-1.7l-0.6,2.1h2.2V55.4z
				 M491.6,48.4h-4.1l-0.1,0.2c0.5,0.7,1.2,1.3,2.1,1.7C490.4,49.7,491.1,49.1,491.6,48.4z"/>
			<path class="st74" d="M507.3,52c0.5,0.4,0.7,1,0.7,1.6c0,0.6-0.2,1.2-0.7,1.6c-0.5,0.4-1,0.7-1.7,0.7s-1.2-0.2-1.7-0.7
				c-0.5-0.4-0.7-1-0.7-1.6s0.2-1.2,0.7-1.6c0.4-0.4,1-0.7,1.7-0.7S506.8,51.6,507.3,52z M504.8,52.8c-0.2,0.2-0.3,0.5-0.3,0.8
				c0,0.3,0.1,0.6,0.3,0.8c0.2,0.2,0.5,0.3,0.8,0.3c0.3,0,0.6-0.1,0.8-0.3c0.2-0.2,0.3-0.5,0.3-0.8c0-0.3-0.1-0.6-0.3-0.8
				c-0.2-0.2-0.5-0.3-0.8-0.3C505.3,52.5,505,52.6,504.8,52.8z"/>
		</g>
	</g>
</g>
</svg>
