<?xml version="1.0" encoding="utf-8"?>
<!-- Generator: Adobe Illustrator 18.0.0, SVG Export Plug-In . SVG Version: 6.00 Build 0)  -->
<!DOCTYPE svg PUBLIC "-//W3C//DTD SVG 1.1//EN" "http://www.w3.org/Graphics/SVG/1.1/DTD/svg11.dtd">
<svg version="1.1" xmlns="http://www.w3.org/2000/svg" xmlns:xlink="http://www.w3.org/1999/xlink" x="0px" y="0px"
	 viewBox="0 0 1469.1 727.5" enable-background="new 0 0 1469.1 727.5" xml:space="preserve">
<g id="_xFFFD__x9C__x96_撅_xFFFD__10_xA0_影像_1_">
	<g>
		<path fill="#CF9479" d="M528.9,507.8c3.3-0.9,6.5-0.9,9.8,0C535.5,507.8,532.2,507.8,528.9,507.8z"/>
		<path fill="#CF9479" d="M520.2,503.9c-4-4.6-3.5-8.7,1.5-12.4c6.3-4.7,13.1-8.4,19.3-13.3c4.4-3.5,4.3-4.2-0.7-6.7
			c-9.6-4.8-20-7-30.5-8.9c-14.8-2.6-29.8-3.8-44.8-5c-11.3-0.9-22.6-1.6-33.9-2.2c-15.9-0.9-31.9-1.9-47.8-3.3
			c-13.7-1.2-27.4-2.7-40.9-5.8c-4.9-1.1-9.6-2.8-13.5-6.2c-3.9-6.6-3.1-11.1,3.3-15.6c8.4-5.9,17.8-10.2,27.2-14.3
			c17.8-7.6,36.2-12.9,55.4-15.7c13.1-1.9,26.3-1.7,39.4-0.9c1.1,0.1,2.2,0.1,3.3,0.1c5.6,0.2,7.1,1.9,6.4,7.5
			c6.9,0.5,13.8-0.2,20.6-0.6c12.1-0.8,24.1-1.1,36.2-0.6c8.8,0.4,17.6,0.4,26.4,0.1c12.2-0.4,24.4-0.7,36.5,0.7
			c11.3,1.3,22.6,2.2,34,1.7c1.3-0.1,2.6-0.1,3.8,0c3,0.2,4.9,2.5,4.7,5.5c-0.5,5.8-2.8,10.8-6.7,15.1c-5.3,6-12.4,9.4-19.2,13.3
			c-8.6,4.9-17.3,9.6-25.5,15.2c-2.7,1.9-5.2,3.9-7.1,6.7c-1.7,2.4-1.4,3.8,0.9,5.5c5.4,3.9,11.7,5.8,18,7.3
			c12.9,3.1,25.8,5.8,38.7,8.8c8.1,1.9,16.2,4.3,23.5,8.4c2.4,1.3,4.4,2.9,4.6,6c0.2,3.5-1.5,5.8-5,6.3c-2.7,0.4-5.4,0.7-8.1,0.4
			c-5.9-0.7-11.8-0.4-17.7-0.7c-8.3-0.4-16.7-0.9-25-0.3c-11.5,0.8-22.9,2.2-34.3,3.7c-10,1.3-20,2.6-30.1,2.8
			C528.7,506.6,524.2,506.2,520.2,503.9z"/>
		<path fill="#CF9479" d="M870.2,457.4c-6.9,1.1-13.8,2.2-20.7,3.3c-4.1,0.7-8.3,1-12.5,0.8c-7-0.4-10.5-6.2-7.6-12.5
			c1.3-2.8,2.9-5.4,4.5-8.1c0.9-1.5,0.5-2.4-1.1-2.7c-2.4-0.5-4.8-1.1-7.2-1.2c-9.7-0.4-19.4-0.4-29.1-1.2
			c-7.2-0.6-14.2-1.7-21.1-3.9c-8.2-2.6-10.3-8.3-6.2-16c2.6-4.8,6-8.9,10-12.5c2.4-2.2,5.1-3.5,8.4-2.1c0.7,0.3,1.7,0.8,1.9,1.5
			c1.2,3.6,3.8,2.9,6.5,2.5c9.3-1.6,18.8-1.9,28.2-2.2c10.8-0.3,21.6-0.6,32.4-1c4-0.1,6.5,1.1,8.6,5.1c2.8,5.3,7,9.9,10.7,14.8
			c4.4,5.9,8.4,12.1,11.6,18.7c4.2,8.6,8.8,16.9,12.6,25.7c2.5,5.8,2.6,12,3.5,18.1c0.3,2.3-0.6,4.4-2.9,5.4
			c-2.3,1.1-4.4,0.6-6.2-1.3c-0.6-0.6-1.3-0.9-2.1-1.1c-5-1.7-8.1-5.1-9-10.3c-0.5-2.7-1.4-4.8-3.9-6.4c-3-2-4.1-5.3-3.7-8.9
			c0.4-3.5-0.2-4.2-3.7-4.3c-0.6,0-1.3,0-1.9,0C870.3,457.5,870.3,457.4,870.2,457.4z"/>
		<path fill="#CF9479" d="M1049.8,477.5c0.5-8.6-2.2-16.5-4.2-24.6c-1.9-7.4-3.2-14.9-5.6-22.1c-1.3-4-2.6-8.1-5.4-11.4
			c-1.7-1.9-1.5-4.3,0.1-6.3c1.5-1.9,3.8-2.5,5.9-1.4c4.4,2.4,9.2,3.8,13.6,6.3c5.2,3,8.1,7.6,8.1,13.6c0,4.6,2.1,7.2,5.8,9.3
			c4.9,2.7,10.2,4.3,15.4,6.3c2,0.7,3.9,1.4,5.7,2.5c5.3,3.3,5.7,8.6,0.9,12.5c-2.7,2.2-5.5,4.1-8.3,6.1c-0.6,0.5-1.5,0.8-1.8,1.8
			c2.3,1.3,4.9,1.3,7.3,1.6c9.8,0.9,19.7,1.5,29.6,2.3c7.7,0.6,15.4,1.1,22.8,3.3c2.1,0.6,4.1,1.5,5.9,2.7c2.6,1.7,4.2,4.2,3.9,7.3
			c-0.3,3.2-2.3,5.2-5.2,6.4c-3.5,1.4-7.2,1.7-10.9,2.1c-12.3,1.3-24.6,2.3-36.9,2.2c-13.2-0.1-26.3-1.6-38.7-6.3
			c-3.9-1.5-7.6-3.3-11.4-5.2c-2.8-1.3-3.9-3.6-3.1-5.9c0.8-2.5,2.7-3.4,5.9-3C1049.3,477.5,1049.6,477.5,1049.8,477.5z"/>
		<path fill="#CF9479" d="M852.4,372.4c2.4,1.7,2.9,3.9,2.8,6.4c-0.2,1.9,0.2,3.8,1.1,5.5c0.9,1.6,0.8,3.4,0.4,5.1
			c-0.5,2.2-1.9,3.7-4.3,3.9c-2.3,0.2-3.9-0.8-4.8-2.9c-1.2-2.8-1.6-5.7-1.8-8.7c0-0.8,0.2-1.8-0.6-2.2c-4-2-4.1-5.9-4.7-9.6
			c-0.2-1.4-0.4-2.8-1-4.2c-1.1-2.4-0.7-4.8,0-7.2c0.6-1.8,0.4-3.1-1.5-4.3c-2.9-1.9-3-5.7-0.7-9.2c1.9-3,4.2-3.6,7.4-1.9
			c0.6,0.3,1.1,0.5,1.8,0.5c4.5,0.4,6.3,4.2,3.7,7.9c-2.2,3.1-0.7,6.6-0.9,10c0,0.7,0.7,0.7,1.3,0.5c2.9-0.8,4.8,0.3,5.9,2.9
			c1,2.4-0.2,4.8-2.8,6.7C853.3,371.8,853,372,852.4,372.4z"/>
		<path fill="#CF9479" d="M742.5,307.2c-2.1-1.5-3.9,0.2-6,1.3c-5.3,2.5-11.3-1.4-11.3-7.2c0-2-0.1-3.9-0.9-5.8
			c-1.4-3.5,0.9-6.3,4.6-7.1c3.3-0.7,6.8,0.2,9.9-2.1c2.3-1.8,6.2,0.4,7.4,3.6c1.5,3.9,1.6,8.2,1.8,12.3
			C748.2,305.1,745.8,307.2,742.5,307.2z"/>
		<path fill="#CF9479" d="M847.8,312c2.2,0,3.4,0.9,4.4,2.2c0.9,1,1.5,1.7,2.5,0.1c1.2-1.8,3.1-2,5.1-1.6c2.4,0.5,4.8,0.9,7.3,0.9
			c1.9,0,3.3,1,4,2.7c0.8,1.9,0.4,3.6-1.1,5c-0.7,0.7-1,1.2-0.7,2.3c1.1,4.2-2.4,8.2-6.8,7.3c-7.2-1.5-13-5.4-17.7-10.9
			c-1.3-1.5-1.5-3.5-0.5-5.4C845.1,313,846.4,312.1,847.8,312z"/>
		<path fill="#CF9479" d="M622.7,490.4c-0.4-0.1-1,0-1.2-0.2c-0.4-0.8,0.3-0.4,0.6-0.4c0.2,0,0.5,0.2,0.7,0.2
			C622.7,490.1,622.7,490.2,622.7,490.4z"/>
	</g>
</g>
<g id="_xFFFD__x9C__x96_撅_xFFFD__9_xA0_影像_1_">
	<g>
		<path fill="#222222" d="M995,339.7c0.4-5.4,0.8-10.1,1.2-14.8c0.8-9.7,1.7-19.4,2.5-29c0.1-0.7,0.1-1.5,0.1-2.2
			c0.2-2.1-0.6-3.2-2.9-3.1c-6.1,0.2-12.2,0.2-18.3,0.3c-1.6,0-3.3,0.1-4.9-0.1c-4.9-0.5-7.3-3.1-7-7.9c0.3-6.8,0.9-13.6,1.4-20.4
			c0.5-7.3,0.5-7.4-6.7-7.3c-7.5,0.1-15.1,0.2-22.6,0.3c-3.4,0.1-5.5-1.5-5.7-4.2c-0.2-2.6,1.5-4.6,4.8-4.9
			c10.9-0.9,21.8-1.5,32.7-1c3.9,0.2,6.3,2.3,7.2,6.3c1.3,6,0.6,12.1,0.3,18.2c-0.1,2.7-0.4,5.4-0.8,8.1c-0.3,2,0.3,2.7,2.4,2.6
			c5.9-0.3,11.8-0.2,17.7-0.3c1.5,0,3.1,0.2,4.6,0.5c5.1,1.1,7.5,3.8,7.9,9c0.7,7.7-0.7,15.2-1.3,22.8c-0.8,10.5-1.6,21-2.6,31.5
			c-0.2,2.1,0.5,2.6,2.5,2.7c7.9,0.3,15.8,0.4,23.5,2.6c7.2,2.1,9.2,4.5,9.1,12.1c-0.1,7.2-1.1,14.3-2.3,21.4
			c-0.6,3.5-3.1,5.4-6,4.9c-2.9-0.5-4.6-3.2-4.1-6.6c0.9-6.2,1.8-12.4,2.1-18.7c0.1-2-0.5-2.9-2.5-3.4c-5.9-1.5-11.8-1.6-17.8-1.9
			c-0.3,1.3,0.7,2,1.2,2.7c8.4,11.7,15,24.3,20.1,37.6c0.9,2.4,2.1,3.2,4.7,3.3c20.2,0.9,40.3,2,60.4,3.1
			c16.6,0.9,33.2,1.8,49.8,2.9c16.2,1.1,32.4,2.3,48.7,3.6c15.4,1.2,30.8,2.6,46.2,4c13.3,1.2,26.6,2.4,39.9,3.5
			c20.5,1.7,41,2.7,61.5,2.5c3.5,0,5.7,1.3,6.1,4.1c0.3,2.7-1.8,5.4-4.8,6.1c-1.1,0.2-2.3,0.3-3.5,0.3c-24.6-0.1-49.2-1.5-73.8-3.8
			c-23.4-2.2-46.9-4.1-70.3-6.2c-31-2.7-62-4.5-93-6.3c-21.3-1.3-42.7-2.2-64-3.3c-2-0.1-2.8,0-2,2.4c9.7,28.2,16.1,57.3,21.2,86.7
			c2.7,15.2,6,30.3,8,45.6c0.2,1.1,0.3,2,1.6,2.6c13.6,5.6,26.4,13.1,40,18.6c15.9,6.4,32.4,9.3,49.4,9.9
			c21.2,0.7,42.3-1.2,63.3-3.6c26.8-3.1,53.4-7.7,80.1-11.4c19.6-2.7,39.3-5,59.2-4.5c12.7,0.3,25.2,1.6,37.2,6
			c7.4,2.8,14.2,6.6,18.8,13.3c7.5,10.8,6.6,22.1,1.4,33.4c-6.4,14-16.7,24.5-29.4,32.9c-17.8,11.8-37.6,18.9-58,24.4
			c-29.9,8.1-60.3,11.1-91.2,10.6c-27.2-0.5-54.2-2.9-81.2-6.6c-28-3.9-55.9-8.2-83.9-11.9c-25.1-3.4-50.4-5.4-75.7-6.3
			c-36.1-1.3-72.2-0.2-108.2,1.3c-23.9,1-47.7,2.4-71.6,4.3c-24.2,1.9-48.3,4.3-72.4,6.8c-23.7,2.5-47.3,5.3-71.1,6.5
			c-22.8,1.1-45.6,1.2-68.4-0.2c-22.5-1.4-44.9-4.1-67.2-6.7c-27.3-3.1-54.7-3.9-82.2-3.8c-17.1,0-34.2,0-51.2-1.3
			c-22.5-1.6-44.6-5.9-66.3-12.1c-18.4-5.3-36.6-11.4-55.2-15.8c-22.7-5.4-45.7-6.9-69-4.9c-20.8,1.8-41.4,5.5-62,8.6
			c-12.8,1.9-25.6,3.8-38.5,2.5c-10.3-1.1-20-3.7-28.1-10.6c-10.4-8.8-11.3-21.2-2.5-31.5c7.1-8.3,16.6-12.5,26.6-15.7
			c12.7-4.1,25.8-6.2,38.8-8.4c17.6-2.9,34.9-7,52.4-10.4c19.9-3.9,39.8-4.8,59.9-2.1c15.9,2.2,31.8,4.5,47.8,6.5
			c19.6,2.4,39.1,2.3,58.7-0.6c18-2.6,35.7-6.7,53.7-9.2c12.8-1.8,25.5-1.7,38.3-0.1c10.1,1.3,20.1,2.9,30.4,2.2
			c13.2-0.9,25.8-4.3,38.1-8.8c14-5.1,27.8-10.7,41.7-16c18.5-7.1,37.9-10.8,57.3-14.2c11.9-2.1,23.7-4.8,34.9-9.5
			c2.5-1.1,4.9-2.3,7.3-3.6c7.1-3.9,10.8-9.8,11.2-18.1c0.2-5.5,1-11,2.7-16.4c0.3-1,0.8-2.1-0.7-2.7c-6.1-2.6-6.8-8.3-6.9-13.6
			c-0.5-18-0.6-36-0.8-54c0-2-0.1-3.3-2.6-3.6c-3.1-0.4-4.9-3.1-4.4-6.2c0.9-5.9,1.4-11.9,1.4-17.9c0-1.1,0.1-1.6-1.1-1.9
			c-5.8-1.1-8.2-5.5-9.9-10.6c-0.9-2.9-1.5-5.8-1.6-8.8c-0.2-4.2-1.9-7.6-4.9-10.6c-6.8-6.8-11.7-14.8-14-24.2
			c-4.4-18.3,1-32.2,16.6-42.7c9.5-6.4,19.7-10.6,31.2-11.8c14.1-1.4,29.4,8.1,34,22c0.8,2.5,1.5,2.3,3.4,1.2
			c12.3-7,25.5-11.8,38.9-16.2c5.3-1.7,10.6-3.7,16-5.5c1.2-0.4,1.9-0.8,1.1-2.3c-0.8-1.4-0.7-2.9-0.5-4.5c2.1-15.4,2.9-30.9,3-46.5
			c0-2.1-0.6-2.6-2.7-2.5c-4.7,0.3-9.4,1.2-14,2c-2.6,0.4-3.6,1.8-4.1,4.3c-1.1,6-2.2,12-3.8,17.8c-1.4,5.2-3.3,6.6-8.7,6.7
			c-2.5,0-4.9,0.1-7.4,0.1c-2.7-0.1-4.5-1.6-4.7-4c-0.2-2.4,1.1-4.2,3.7-5c1.9-0.6,3.8-0.5,5.7-0.4c1.7,0,2.4-0.6,2.7-2.3
			c1-5.8,2.1-11.6,3.2-17.4c0.9-4.9,3.9-7.9,8.6-9.1c7.9-2.2,16.1-3,24.3-3.2c4-0.1,6.5,2.1,7.1,6.1c0.9,6.6,0.5,13.2,0.2,19.9
			c-0.3,7.4-0.9,14.7-1.3,22c0,0.7-0.3,1.4,0.4,2.3c1.6-1.2,3.2-2.3,4.7-3.5c12.1-9.5,23.4-19.8,34.9-30.1c1.2-1,2.3-2.1,3.6-3
			c4-2.8,8.2-1.2,9.4,3.7c0.3,1.4,0.4,2.9,0.5,4.3c0.2,6,0.3,12,0.5,18c0,0.9,0,1.8-0.1,2.7c-0.5,3.3-2.6,5.1-5.5,4.9
			c-2.7-0.2-4.6-2.2-4.7-5.4c-0.1-3.5-0.1-7.1-0.1-10.6c0-1,0.2-2-0.7-3.2c-12.4,10.9-24.6,21.9-37.6,32.3c4.7-1.2,9.4-2.4,14.1-3.5
			c11.9-2.7,24-4,36.2-4.1c0.6,0,1.3-0.1,1.9,0c5,1.6,7.8-1.2,10.9-4.7c13.1-15,27.2-29,41.5-42.9c1.1-1.1,2.2-2.1,3.5-3.1
			c4.8-3.7,9.9-1.9,11,4.1c0.9,4.8,1,9.8,0.8,14.7c-0.4,10-0.9,20-1.8,29.9c-0.4,3.9-2.2,6-5.4,5.8c-3.2-0.1-5.2-2.7-4.8-6.6
			c0.8-9.2,1.4-18.5,1.7-27.7c0.1-2.2,0-4.5-0.6-7.1c-13.2,13.4-26.4,26.8-39.5,40.2C914.6,273.2,958.6,299.9,995,339.7z
			 M749.2,302.3c1,0.6,1.6,0.1,2.3-0.1c10.4-2.8,20.9-5.4,31.5-7.4c13.2-2.5,26.4-5,40-2c6.7,1.5,13.4,2.6,19.4,6
			c1.8,1,3.5,2.2,3.7,4.4c0.2,1.7,0.9,1.8,2.3,1.5c2.9-0.6,5.8-0.6,8.7-0.1c15.6,2.5,31.1,5.8,45.5,12.6c1.1,0.5,2.3,1.2,3.2,2
			c2.3,1.9,2.8,4.5,1.4,6.5c-1.4,2.1-3.8,2.5-6.5,1.1c-7.7-3.9-15.8-6.5-24.2-8c-0.9-0.2-1.4-0.2-1.7,1c-1.6,6.9-6,11.4-12.1,14.6
			c-0.6,0.3-1.4,0.3-1.7,1.3c5.5,3.6,11,7.1,16.4,10.7c8.3,5.4,15.7,11.8,21.5,19.9c6.5,9,12.2,18.5,17.1,28.5
			c2.1,4.4,4.5,8.6,6.2,13.3c3.1,8.7,5.9,17.6,12.4,24.6c1.4,1.5,2.6,3.3,3.6,5.1c1.6,2.8,0.5,6-2.1,7.2c-4.1,1.9-8.5,0.6-11.2-3.2
			c-2.6-3.6-3.4-7.8-5.1-11.7c-3.9-9-7.3-18.2-11.5-27c-2.7-5.7-5.2-11.6-8.5-17c-5-7.9-9.8-16-16.7-22.4
			c-7.8-7.3-17.2-12.5-26.1-18.2c-0.2-0.1-0.5,0-0.7,0c1.6,5.7,0.5,9.3-4,13.1c-2.8,2.3-6,3.6-9.5,4.6c-3.3,0.9-4.1,3.6-1.7,6
			c1.5,1.5,3.5,3.5,5.5,2.8c2.3-0.8,1.9-3.6,1.8-5.8c-0.1-3,1.5-5.2,4.1-5.6c2.8-0.4,5,1.1,5.9,4.1c1.2,3.9,0.3,7.5-1.4,11.1
			c-0.4,0.8-1,1.3,0,2.3c4,4,4.7,8.9,2.9,14.1c-0.5,1.4-0.3,2,0.9,2.8c2,1.4,4.3,2.2,6.1,4c3.2,3.1,6.1,6.3,8.7,10.1
			c6.9,10,13.5,20,17.4,31.6c4.5,13.5,11,26.3,14.8,40.1c4.2,15.2,7.4,30.5,9.6,46.1c1.1,7.8,1.9,15.7,2.4,23.6c0.1,2,0.8,2.4,2.7,2
			c4.6-0.9,9.3-1.5,14-2.2c20.9-3.4,41.6-7.9,62.6-10.3c18.1-2,36.1-1.9,53.7,3.5c1.9,0.6,2.6,0.5,2.1-1.8
			c-3.2-17.3-6.2-34.7-9.5-52c-5.2-27.6-11.4-54.9-21.8-81.1c-1.8-4.5-3.2-9.1-5.1-13.5c-10.6-24.3-26.4-44.9-45.4-63
			c-22.1-21-47.1-37.9-74.3-51.6c-14.3-7.2-28.4-15.2-44.7-17.3c-5.3-0.7-10.6-2.2-15.9-1.5c-8.8,1.2-17.7,2-26.4,4
			c-20.2,4.5-39.1,12.9-58.9,18.7c-1.1,0.3-1.4,1-1.2,2.1C752.5,291.9,752.4,297.4,749.2,302.3z M709.9,473c6,4,8.5,10.1,10.8,16.2
			c1.3,3.5,2.2,7.1,3.4,10.6c6,18.2,18.1,29.9,37.1,33.9c8.1,1.7,16.4,1.9,24.7,2.4c16.6,1.1,33.2,2.9,48.9,8.7
			c21.9,8.1,44.2,12.3,67.6,9.9c7.2-0.7,7.3-0.4,6.8-7.5c-1.7-21.7-5.7-43-11.2-64c-1.7-6.6-4.5-9.8-11.4-10
			c-4.1-0.1-8.3-0.9-12.2-2.5c-2.3-0.9-3.7-2.6-3.8-5.1c-0.1-2.5,1-4.4,3.2-5.6c1-0.6,2.2-1,3.3-1.3c3.4-0.8,6.7-1.5,10.1-2.1
			c1.6-0.3,2.1-0.7,1.4-2.2c-1.4-3.2-2.6-6.4-3.9-9.6c-0.6-1.5-1.4-2-3-2.1c-21.3-0.4-42.5,0.1-63.7,1.8c-1.5,0.1-2.8,0.5-3.7,1.9
			c-1,1.5-2.6,1.9-4.4,1.6c-2.5-0.5-4.6-2.8-4.8-5.3c-0.3-2.8,1-5,3.7-5.9c1.4-0.5,2.8-0.8,4.2-1c13-2,26.2-2.8,39.4-3.2
			c7.9-0.2,15.8-0.2,23.7-0.2c1.5,0,2.3-0.2,1.3-1.9c-4.2-7.2-8.3-14.5-13.8-20.9c-1.4-1.7-3-2.3-5.2-2.3
			c-19.3,0.3-38.5,0.2-57.8,0.8c-20.3,0.6-40.7,1-61,2.5c-3.7,0.3-7.7,1.9-11.2-1.6c-3.2,16.7-5.5,33-8.9,49.2
			c-0.3,1.5-1.3,2.9-0.5,4.7c1.3,2.9,0.5,4.7-2.3,6.4C714.5,470.6,712.3,471.7,709.9,473z M719.9,314.6c-0.2,4.1-0.4,7.7,0.1,11.3
			c0.7,4.9,1.7,9.7,1.3,14.6c-0.6,7.9-3.1,14.8-11.2,18.1c-2.3,0.9-0.7,2.4-0.9,3.7c-0.2,1.5,0.9,1.5,2,1.5
			c5.4-0.1,10.6,1.3,15.9,2.4c4,0.8,5.9,3.3,5.8,7.4c0,4.1-0.1,8.2-0.3,12.3c-0.1,3.3-0.4,6.6-1.9,9.8c-1,2.1-1.3,4.7-1.2,6.9
			c23.5-3.2,46.9-3.8,70.8-4.7c-0.7-0.8-0.9-1.2-1.2-1.5c-3.5-3.8-5.7-8.1-5.4-13.3c0.2-2.9-0.9-4.3-3.1-5.9
			c-9.3-6.7-14.3-15.3-11.7-27.2c0.3-1.4-0.6-2-1.3-2.8c-4.6-5-6.7-10.8-5.2-17.5c2.4-10.3,8.8-17.7,17.2-23.7
			c0.8-0.6,2-0.9,2.6-2.2c-1.1,0.2-1.9,0.3-2.8,0.4c-16,2.7-31.8,6.7-47.2,11.7C735,318.3,727.4,319.9,719.9,314.6z M711.1,298.2
			c0-1.1,0-2.2,0-3.3c0-11.2-12.6-22.1-22.8-21.3c-10.8,0.9-20.2,4.7-29,10.8c-11,7.6-14.6,17-11.8,30c1.8,8.4,6.1,15.3,12.1,21.2
			c4.2,4.2,6.6,9.2,6.9,15.3c0.2,3.3,0.6,6.7,1.8,9.9c0.8,1.9,1.8,2.1,3.6,1.1c2-1.2,2.6-2.6,1.7-5c-2.6-7.5-5.1-15.2-7.5-22.8
			c-1.2-3.9,0.1-7.1,3-8c3.1-1,5.4,0.7,6.7,4.9c3.2,10.5,6.5,21,9.6,31.5c0.6,2.1,1.3,3.1,3.7,2.5c2.3-0.5,4.7-0.5,7-0.7
			c4.3-0.4,4.5-0.4,3.2-4.6c-3.5-11.6-6.3-23.3-9.4-35c-1-3.9,0.2-6.8,3.1-7.6c3.2-0.9,5.7,0.9,6.8,4.9c0.2,0.9,0.4,1.8,0.6,2.6
			c1.7,7.2,3.3,14.3,5,21.5c0.2,0.8,0.1,2.1,1.1,2.3c1,0.2,1.8-0.8,2.4-1.6c0.6-1,1.1-2.1,1.4-3.2c1-3.2,0.9-6.5,0.3-9.7
			c-1.4-8-1.8-16.1-0.7-24.1C710.5,306,711.2,302.2,711.1,298.2z M843.1,335.6c-2.1-2.7-3.9-5.5-5.2-8.7c-2.2-5.5-2.7-11,0.5-16.2
			c1.1-1.8,0.4-2.1-1-2.9c-5.8-3.1-12.2-4.1-18.6-5.1c-3.8-0.6-7.6-1.5-11.6-0.9c0.9,4.9,0.2,6-4.5,7.9c-9.2,3.7-16,9.9-19.5,19.4
			c-1.1,2.9-1.2,5.9,0.3,8.7c1.3,2.4,3.4,4,5.7,5.4c10.6,6.4,22.4,8.8,34.5,10.2c1.6,0.2,2.1-0.6,2.3-1.9c0.5-2.7,1.2-5.3,2.7-7.6
			c1.1-1.6,0.6-2.2-1-2.9c-5.6-2.5-11.2-5.1-16.8-7.8c-1.6-0.8-3.3-1.6-4.4-3.1c-1.5-1.9-1.9-4-0.5-6c1.4-2.1,3.5-2.5,5.8-1.8
			c1,0.3,2,0.8,3,1.3C824,328.1,833.3,332.4,843.1,335.6z M706.8,396.7c-6.5,0.4-13,1-19.6,1.2c-2.6,0.1-3.1,1-3,3.4
			c0.5,15.9,1.7,31.7,1.7,47.6c0,1.8,0.4,2.3,2.3,1.8c6.7-1.7,13.4-2.3,20.2-0.4c1.7,0.5,2-0.3,2.2-1.7c1.3-7.2,2.6-14.5,4-21.7
			c1.8-9.1,3.7-18.1,5.7-27.2c0.5-2.3,0-2.9-2.4-3C714.2,396.9,710.5,396.6,706.8,396.7z M709.8,386.3c3.4,0.2,6.9,0.2,10.3,0.5
			c1.8,0.1,2.5-0.3,2.4-2.2c-0.1-2.3-0.1-4.5,0.1-6.8c0.1-1.7-0.6-2.3-2.2-2.7c-11.9-2.5-23.7-0.8-35.4,1.1c-8,1.2-6.5,0.8-6.7,7.8
			c0,0.5,0,1.1-0.1,1.6c-0.7,2.4,0.3,2.9,2.6,2.8C690.4,388,700,386.3,709.8,386.3z M834.7,376.7c-2.4-3-4.3-5.9-4.1-9.5
			c0.1-2.4-0.6-3.2-3-3.3c-13.2-0.8-25.9-3.3-38-8.9c-1.3-0.6-1.8-0.3-1.7,1.1c0.2,4.2,2.3,7.4,5.3,10.1c5.3,4.9,11.7,7.5,18.6,9.1
			C819.3,377.1,826.7,378.1,834.7,376.7z M803.4,384c0.9,4.8,3.9,7.1,7.9,8.4c6.9,2.4,14,2.7,21.2,2c4.3-0.4,4-0.4,3.8-4.6
			c-0.1-2.5-1.1-2.8-3.2-2.5c-5.4,0.8-10.8,0.1-16.3-0.5C812.3,386.4,808,385,803.4,384z M742.7,291.5c0-3.5-0.1-3.6-3.2-2.2
			c-2.8,1.2-5.7,2.5-8.4,3.8c-4,1.9-6.6,7.8-5.5,12c0.4,1.6,1.1,2.4,2.9,1.4c4-2.2,7.8-4.7,11.1-7.8
			C741.7,296.8,742.8,294.4,742.7,291.5z M865.8,316.5c-3.7-1.1-7.3-1.7-11.1-1.8c-1.8,0-4.2-1.1-5.2,0.9c-1.1,2.1,0.3,4.2,1.4,6.1
			c0.3,0.5,0.6,0.9,1,1.3c2.8,3.2,6.1,3.4,9.3,0.5C863.2,321.7,864.6,319.3,865.8,316.5z M837,353.6c2.9-0.3,5.7-1,8.2-2.6
			c0.8-0.6,1.8-1.2,0.5-2.3c-2-1.5-4.3-3.3-6.5-2.9c-1.9,0.3-2.6,3.2-3.2,5.3c-0.1,0.3-0.2,0.7-0.3,1
			C835.3,353.4,835.7,353.9,837,353.6z M845.6,388.2c0.3,0.7,0,2.3,1.3,2c1.6-0.4,3.6-1,3.5-3.1c-0.1-1.3-0.1-3.1-1.7-3.6
			C847.5,383.2,845.5,386.3,845.6,388.2z"/>
		<path fill="#222222" d="M563.2,395.5c13-0.3,32.7,0,52.4,1.1c12.2,0.7,24.4,1.9,36.7,2.9c3.8,0.3,7.6,0.3,11.4,0.4
			c4.3,0.1,6.7,1.9,6.8,5.1c0,3.3-2.5,5.2-6.9,5.2c-10.3,0.1-20.5-1-30.7-1.9c-9.9-0.9-19.7-1.5-29.6-1.9
			c-20.1-0.9-40.2-0.4-60.3-0.5c-23.1-0.1-46.1-1.2-69.2-2.7c-3.6-0.2-7.3-0.4-10.9-0.6c-1.6-0.1-3,0-4.4,1c-1.5,1-3.2,1-4.6-0.2
			c-1.4-1.2-2.9-1.3-4.5-1.4c-28-1.6-55.9-2.5-83.9-3.1c-32.9-0.7-65.8-1.2-98.7-0.5c-26.4,0.6-52.9,2-79.2,3.8
			c-24.8,1.7-49.6,3.8-74.4,5.7c-5,0.4-10,0.9-15,0.7c-3.6-0.1-5.6-1.7-5.7-4.5c0-2.8,1.9-4.5,5.5-4.7c15.5-0.8,30.9-3,46.4-4.3
			c18.6-1.5,37.1-3,55.7-4c6.4-0.3,12.9-0.6,19.3-1.1c9.3-0.7,18.5,0.4,27.8,0.6c15.1,0.3,30.1-1.6,45.2-2.1
			c34.5-1.2,68.9,0,103.3,0.9c16.8,0.4,33.6,1.2,50.4,2.1c0.6,0,1.3,0,1.9,0.1c2.7,0.5,3.2-0.7,3.1-3.2c-0.7-16,0.5-32,1.2-48
			c0.4-7.9,0.5-15.8,0.8-23.7c0.3-8.1,1.6-16.1,2.9-24.1c0.6-3.5,2.5-6,5.8-7.3c9.1-3.7,18.6-5.7,28.4-5.8c4.2,0,6.7,2,8.2,6
			c1.1,2.9,1.4,6,1.5,9.1c0.5,11.9-0.2,23.8-1,35.7c-0.3,3.8-2.4,5.9-5.6,5.7c-3.1-0.2-4.9-2.9-4.7-6.8c0.7-11.2,1.4-22.3,0.9-33.5
			c-0.3-7,0-6.1-6.5-5.4c-5.1,0.5-10,1.9-14.8,3.5c-1.6,0.5-2.3,1.4-2.6,3.1c-1.7,11.1-2.7,22.2-2.8,33.4
			c-0.1,13.3-1.1,26.5-1.9,39.8c-0.4,6.6-0.2,13.3-0.4,19.9c0,1.6,0.5,2.2,2.2,2.3c15.6,0.8,31.2,1.8,46.8,2.5
			C525.2,395.5,540.9,395.7,563.2,395.5z"/>
		<path fill="#222222" d="M1075.5,98.5c4.2,0,8.3,0.4,12.1,2.5c5.6,3,7.5,8.5,4.9,14.4c-2.2,4.9-5.9,8.4-9.9,11.8
			c-7,5.9-15,10.6-22.9,15.2c-14.6,8.4-29.4,16.2-43.8,25c-20.8,12.7-37.7,29.2-50,50.3c-1.4,2.5-2.7,5.2-5.2,7
			c-0.6,0.4-0.6,1.1-0.6,1.7c-0.3,2.3-1.5,3.7-3.8,4c-2.4,0.3-4-0.9-5-2.9c-1.3-2.8-1.3-5.8-1.1-8.8c0.9-12.1,4.5-23.6,10.2-34.2
			c22.2-41.5,55.6-69.7,100.8-83.7C1065.9,99.3,1070.7,98.6,1075.5,98.5z M1001.3,164.4c15.8-10.4,32.6-19.1,49-28.5
			c8.8-5.1,17.8-9.9,25.6-16.5c2.5-2.1,4.9-4.3,6.7-7.1c0.8-1.3,0.6-2.2-0.9-2.7c-0.9-0.2-1.8-0.5-2.6-0.6c-5.6-0.7-11.1,0.4-16.4,2
			c-31.7,9.7-57.1,28.4-77.7,54.1c-0.2,0.2-0.5,0.5-0.1,0.9c0.2-0.2,0.4-0.3,0.6-0.5c15.2-17.6,33.8-30.4,55.1-39.4
			c0.8-0.3,1.5-0.6,2.3-0.8c2.5-0.6,4.6,0,5.8,2.3c1.3,2.3,0.6,4.4-1.3,6.2c-1.2,1.2-2.7,1.8-4.2,2.5c-5.9,2.8-11.8,5.5-17.5,8.8
			C1016.7,150.3,1008.5,156.8,1001.3,164.4z"/>
		<path fill="#222222" d="M155.9,205.4c-4,2-7.7,3.2-10.8,5.7c-2.5,2.2-5.7,2.2-7.6,0.1c-1.9-2.2-1.4-5.5,1.5-7.6
			c4.8-3.4,10.3-5.8,15.6-8.3c7-3.2,14.1-6.2,21.4-8.8c1.6-0.6,2-1.3,2-3.1c0.2-5.7-0.6-11.2-2.5-16.6c-1.1-3.2,0.3-5.9,3-6.6
			c2.7-0.7,5.1,0.9,6.1,4.1c1.7,5.4,3.4,10.8,2.9,16.5c-0.2,2.2,1.2,1.3,2.1,1c8.1-2.5,16.1-5,24.2-7.5c1-0.3,2.1-0.7,3.2-0.7
			c2.6-0.2,4.8,1.3,5.4,3.7c0.6,2.4-0.4,4.7-2.8,5.9c-1.5,0.7-3.2,1.2-4.9,1.7c-14.5,4.4-29,8.9-43.2,14.2c-1.8,0.7-2.6,1.8-3.6,3.4
			c-4.9,7.5-4.9,16.2-6.9,24.4c-0.6,2.5,0.5,2.4,2.2,1.8c2.8-1,5.5-2.3,8.3-3.3c2.2-0.8,4.5-1.6,6.8-2.1c1.8-0.4,1.8-1.7,2.2-3
			c0.4-1.7-0.7-1.7-1.7-2.2c-1.7-0.8-2.6-2.3-2.5-4.2c0.1-1.9,1.1-3.2,2.8-4c5.5-2.7,10.8,0.6,11.1,6.9c0.2,3.9,0.2,4,4.1,3.5
			c9.7-1.3,19.4-1.6,29.1-1.5c2.2,0,3.4-0.6,4.4-2.6c4.3-8.9,7.7-18.2,11.3-27.4c1.2-3.1,3-4.4,5.6-3.8c2.4,0.6,3.9,3,3.3,6
			c-0.3,1.7-1,3.3-1.6,4.9c-2.7,7.1-5,14.4-8.2,21.3c-0.8,1.7-0.3,2,1.3,2.1c6.2,0.3,12.3,0.8,18.5,1.1c0.4,0,0.7,0,1.1,0.1
			c4.3,0.4,6.6,2.8,6.1,6.1c-0.5,3.3-4,5.5-7.8,4.6c-2.8-0.7-5.5-0.9-8.4-1.1c-19.1-1.4-38.1-1.5-57.2,0.6c-3.1,0.3-5,1.2-6.3,4.4
			c-2.3,5.5-5.4,10.7-8.8,15.7c-1.4,2-2.9,4-5.1,5.3c-3.4,2-7.5,1.3-9.5-1.7c-2-3-0.7-6.8,2.8-7.4c1.8-0.3,2.9-1.2,3.8-2.7
			c1.9-3,3.9-5.9,5.6-9.4c-2.7,0.4-4.9,1.5-7,2.6c-2.4,1.1-4.6,1.7-6.9-0.1c-1.5-1.1-1.3,0.4-1.5,1.2c-1.5,8-2.9,16.1-4.3,24.1
			c-3.4,19.3-6.9,38.6-10.3,57.9c-0.3,1.8-0.9,3.6,0.7,5.1c0.2,0.2,0.2,0.5,0.3,0.8c1.1,3.5-3.1,13.4-6.4,15.1
			c-1.7,0.9-3.5,0.9-5.2-0.1c-2.2-1.4-2.8-3.6-2.4-6c1-6.2,2-12.4,3.1-18.5c4.7-26.2,9.3-52.4,14.1-78.5
			C150.7,227.5,152.8,216.8,155.9,205.4z"/>
		<path fill="#222222" d="M493.1,466.8c5.9,1,11.4,1.5,16.7,2.8c2.8,0.7,5.6,1.5,8.2,2.9c6.1,3.4,6.5,9.6,0.9,13.6
			c-4.6,3.2-9.9,5-15.1,6.9c-9.9,3.6-20.1,6.3-30.2,9.4c-3.4,1-5.7,0.1-6.8-2.2c-1.1-2.5,0-4.8,3.2-6.6c5.3-3,11.2-4.2,16.9-5.9
			c6.1-1.9,12.1-3.8,18.1-6.1c0.9-0.3,1.9-0.5,2.8-1.6c-5.1-1.5-10.1-2-15.1-2.6c-6.3-0.8-12.7-0.9-18.9-2.2
			c-1.1-0.2-2.3-0.6-3.4-1.1c-4.7-2.3-5.1-7.8-0.8-10.8c2.5-1.7,5.4-2.5,8.3-3.3c13.9-3.9,28-7.2,42.1-10c0.9-0.2,1.7-0.4,2.6-1
			c-7.5-0.7-14.9-1.5-22.4-2.1c-15.9-1.2-31.9-2.3-47.8-3.5c-21-1.5-42.1-1.8-63.2-1.8c-15.2,0-30.4,0-45.5-0.8c-4-0.2-7.9-1-12-0.3
			c-2.1,0.3-4.1-0.9-5.6-2.4c-2.5-2.5-1.5-6.5,2-7.6c1.7-0.6,3.4-0.2,5.1,0c10.3,0.9,20.7,0.9,31.1,1c17.4,0,34.7,0,52.1,0.2
			c19.6,0.2,39.2,1.5,58.8,3.1c16,1.3,32.1,2.5,48.1,4c13.8,1.3,27.6,2.9,41.4,4.5c4.6,0.5,6.8,2.6,6.7,5.7c-0.1,3.2-3,5.3-7.5,5.6
			c-23.3,1.6-46.1,6.1-68.7,11.7C494.6,466.2,494.1,466.4,493.1,466.8z"/>
		<path fill="#222222" d="M750.9,41.8c3.7-0.1,7.5,0,11,1.3c7.9,2.8,9.9,10.4,4.3,16.7c-2.4,2.7-5.3,4.7-8.4,6.4
			C747,72.5,735.4,77.1,724,82.4c-12.2,5.7-24.3,11.5-35.3,19.3c-13.6,9.6-23.4,22.5-31.4,36.8c-2.5,4.5-4.9,9.1-7.8,13.4
			c-1.7,2.5-3.7,4.8-7.2,4.7c-0.8,0-1.1,0.4-1.4,1c-1.1,2.1-2.9,3-5.2,2.4c-2.5-0.7-3.4-2.7-3.5-5c-0.2-3.4-0.3-6.7,0.2-10.1
			c3.8-29.3,18.7-52.1,41.4-70.2c20-16,42.4-26.9,67.6-31.9C744.4,42.2,747.7,41.9,750.9,41.8z M655.5,110.7
			c0.2-0.2,0.4-0.3,0.6-0.5c13.2-15.2,29-27.4,46-38.1c1.5-1,3.1-1.9,4.9-2.4c3.5-0.9,6.5,0.6,7.4,4c0.5,1.9,1.3,1.1,2.3,0.7
			c7.1-3.2,14.3-6.3,21.3-9.7c6.4-3,12.9-5.9,18.6-10.1c0.6-0.4,1.5-0.8,1.3-1.6c-0.2-0.9-1.2-0.6-1.9-0.7c-4.8-0.7-9.4,0-14.1,1
			c-25.4,5.3-47.6,16.9-67.1,33.9C667.1,93.9,660.5,101.6,655.5,110.7z"/>
		<path fill="#222222" d="M640.5,172.9c5.9,0.2,11.8,0,17.7,1c4.8,0.8,7,3.4,7.7,8.3c1,7,0.1,14-0.3,20.9
			c-0.4,6.2-0.8,12.3-1.3,18.5c-0.2,2,0.5,2.7,2.5,2.6c4-0.1,8-0.1,12,0.1c1.7,0.1,2.4-0.6,2.7-2.2c1.1-6.1,2.2-12.2,3.5-18.2
			c1.6-7.4,3.7-9.1,11.2-9.9c7.9-0.8,15.8,0.3,23.6,1.1c4.1,0.4,6.3,2.9,6.6,7.1c0.6,10.4,0.8,20.7-0.4,31c-0.5,4.1-2.6,6.1-5.8,5.8
			c-3-0.4-4.7-3-4.4-6.7c0.5-6.4,0.8-12.9,0.7-19.3c-0.2-8.1-0.1-8.1-8.3-8.6c-3.4-0.2-6.7-0.6-10.1-0.4c-2,0.1-3.1,0.8-3.4,3
			c-1,5.8-2.1,11.6-3.3,17.4c-0.6,3-1.2,6.1-3.9,8.2c-1.8,1.4-3.9,1.9-6.1,1.9c-6.6,0-13.3,0-19.9-0.1c-5.3-0.1-7.7-2.6-7.7-8
			c0-10.6,1.3-21,1.9-31.6c0.2-2.9,0.1-5.8,0.2-8.7c0-1.6-0.6-2.4-2.4-2.5c-9.2-0.6-18.4-0.4-27.5-0.4c-2.1,0-3,1-3.5,3
			c-3,12.6-5.4,25.2-6.8,38c-1.8,16-3.2,32-4.7,48c-0.5,5.7-0.4,11.4-1.3,17.1c-0.7,4.9-3.4,7.9-8.1,9.2c-2.7,0.8-5.5,1.2-8.3,1.2
			c-3.3-0.1-5.3-1.9-5.4-4.6c0-2.6,1.8-4.3,5.1-4.6c7.1-0.7,7.4-0.7,7.5-7.6c0.3-19.8,2.9-39.5,4.9-59.2c1.4-13.5,4-26.8,7.1-39.9
			c0.5-2.2,1.2-4.4,2.4-6.3c1.6-2.6,4.1-3.7,7-4.1C628.1,172.6,634.3,173.1,640.5,172.9z"/>
		<path fill="#222222" d="M465.1,258.1c1.8-17.2,6.9-33.1,17-47.4c13.9-19.8,32.5-32.7,55.9-38.6c4.4-1.1,9-1.6,13.5-0.4
			c6.9,1.8,8.7,8.2,3.9,13.4c-1.9,2.1-4.3,3.6-6.7,5.1c-9.5,5.7-19.3,10.8-28.2,17.5c-15.3,11.4-28.3,24.7-36.3,42.4
			c-1.9,4.1-4,8.1-7,11.7c-0.6,0.7-0.7,1.4-0.9,2.2c-0.3,2-1.3,3.4-3.3,3.8c-2.1,0.5-3.8-0.2-5-1.9
			C466.2,263.6,464.8,261.1,465.1,258.1z M541.4,182.5c-8.4-0.3-32,12-37.2,19c1.3,0,2.7-0.4,3.7,0.3c1.5,1.1,2.5,0.5,3.8-0.5
			c6.7-5.2,13.8-9.8,21.1-13.9C535.6,185.9,538.3,184.3,541.4,182.5z"/>
		<path fill="#222222" d="M310.8,246.4c0-3.6,0-7.3,0-10.9c0-0.6,0.3-1.4-0.4-1.8c-0.8-0.4-1.3,0.5-1.8,0.9
			c-4.7,3.7-9.4,7.4-14.1,11.1c-0.6,0.5-1.3,1-2,1.4c-2.2,1.2-4.2,1.1-5.9-0.8c-1.5-1.6-1.5-4.3,0.1-6c1.9-2,4-3.7,6.1-5.4
			c5.1-4.3,10.3-8.7,15.5-13c1.5-1.2,2-2.5,1.9-4.4c-0.5-8.3-0.8-16.7-1.2-25c-0.1-1.9-0.5-2.5-2.4-1.3c-6.5,4.3-13.2,8.4-19.3,13.2
			c-1,0.7-1.7,1.6-2.3,2.6c-1.5,2.3-3.8,3-5.9,2c-2.1-1-3.1-3.6-2.5-6.1c0.5-1.7,1.6-3,2.9-4.2c7.8-6.9,16.4-12.6,25.1-18.2
			c2.5-1.6,3.3-3.1,2.9-6.1c-0.5-3.6-1-7.2-0.3-10.9c0.6-3.2,3.4-5.1,6.6-4.6c3.3,0.5,4.9,3.5,3.6,6.5c-0.2,0.5-0.7,0.9-0.8,1.4
			c-0.3,1.6-0.6,3.7,0.4,4.7c1,1.1,2.3-0.8,3.4-1.4c1.7-0.9,3.2-2,3.8-4.2c0.9-2.9,4.9-3.6,8.2-1.8c3.1,1.7,4.2,5.4,2.4,8.1
			c-0.8,1.3-2,2.1-3.2,2.9c-3.8,2.5-7.6,5-11.5,7.4c-1.5,0.9-2.2,1.9-2,3.7c0.8,7.6,1.5,15.2,1.8,22.8c0,0.5,0.1,1.2,0.4,1.5
			c0.7,0.5,1.1-0.3,1.5-0.7c5.5-4.7,10.9-9.6,16.1-14.7c1-1,2-1.9,3-2.7c2.1-1.6,4.5-1.7,6.2-0.2c1.8,1.6,2.1,4.1,0.6,6.4
			c-1.7,2.6-3.8,4.9-6,7c-6.1,5.9-12.6,11.5-19.2,16.9c-1.5,1.2-2,2.5-2,4.4c0.3,11.4,0.9,22.9-0.3,34.3c-0.3,3.3-0.8,6.5-1.8,9.6
			c-1.4,4.2-4.2,6.6-7.7,6.7c-3.3,0.1-8.2-3.3-9.4-6.5c-0.6-1.7-0.5-3.4,0.8-4.9c1.4-1.5,3.2-2,5-1.2c2,0.9,2.2,0,2.5-1.6
			C310.8,258,310.8,252.2,310.8,246.4z"/>
		<path fill="#222222" d="M770.4,116.1c4.3,0.1,8.5,0.6,12.5,2.3c7.9,3.4,9,10.8,2.3,16.3c-3.5,2.9-7.6,4.9-11.8,6.8
			c-16.3,7.3-31,17.1-43.7,29.7c-2.8,2.8-5.9,5.1-9.5,6.8c-2.2,1-4.5,1.6-6.9,0.7c-1.5-0.5-1.8,0-1.5,1.4c0.1,0.3,0.1,0.5,0.2,0.8
			c0.3,2.8-1,5-3.3,5.5c-2.4,0.6-4.8-0.8-5.7-3.5c-1.2-3.4-0.7-6.9,0.1-10.2c4.9-18.9,15.7-33.6,31.8-44.3
			c9.2-6.2,19.3-10.4,30.5-11.8C767.1,116.3,768.7,116.2,770.4,116.1z M777.2,127.5c-15.5-4.8-42.3,10-49.1,20.7
			c1.1-0.8,2-1.5,3-2.2c5.5-3.9,11.1-7.5,17.2-10.5c3.5-1.7,5.3-1.4,7.8,1.7c0.9,1.1,1.5,0.5,2.3,0.1c4.2-2.1,8.5-4.1,12.7-6.3
			C773.1,130.1,775.2,129.2,777.2,127.5z"/>
		<path fill="#222222" d="M569.9,223.6c2.1,0,4.2-0.1,6.3,0c4.1,0.3,6.5,2.3,7.4,6.4c1.2,5.8,0.3,11.6-0.2,17.4
			c-1.5,16.5-3.1,32.9-4.7,49.4c-0.1,1-0.2,2-0.6,2.9c-0.9,2.4-2.7,3.6-5.3,3.4c-2.5-0.2-4.3-2.1-4.4-4.8c0-2.9,0.2-5.8,0.5-8.7
			c1.5-15.7,3-31.5,4.7-47.2c0.9-8.7,1.1-8.7-7.5-8.4c-5.1,0.2-10.1,0.9-15.1,1.9c-2.6,0.5-3.6,1.7-4,4.3c-1.4,8.8-2,17.7-3.1,26.5
			c-1.3,10.3-2.7,20.5-4.1,30.8c-1.4,10.3-2,20.6-4.2,30.8c-1.6,7.6-4,10-11.6,11.4c-3.7,0.7-7.3,1.2-11,1.7
			c-3.2,0.4-5.4-0.9-5.9-3.5c-0.5-2.7,1-4.9,4.3-5.6c3.1-0.7,6.3-1.1,9.4-1.7c4.7-0.9,4.8-0.9,5.5-5.6c0.8-6.2,1.6-12.4,2.2-18.7
			c1.1-11.9,3.1-23.8,4.7-35.6c1.3-10.3,1.9-20.6,3.6-30.8c0.2-1.2,0.4-2.3,0.6-3.5c0.9-5.4,4.1-8.5,9.2-9.9
			C554.1,224.5,561.9,223.7,569.9,223.6z"/>
		<path fill="#222222" d="M415.8,157.4c3.3-3.1,6.7-5.7,10.2-8c1-0.6,2-1.3,3.1-1.6c2.3-0.8,4.4-0.1,5.6,2.1
			c1.2,2.2,0.8,4.3-1.1,5.9c-0.9,0.8-1.9,1.4-2.9,2c-3.7,2.6-7.8,4.7-10.1,8.9c-0.8,1.4-2.3,1.9-3.8,1.7c-1.9-0.2-1.5,1.1-1.5,2.1
			c0.1,1-0.6,2.2,1.4,2.5c4.6,0.7,8.7-1.3,13.1-1.8c1.6-0.2,3.2-0.5,4.9-0.4c4.6,0.3,7.5,5,5.8,9.3c-1.2,2.9-4.5,4-6.9,1.9
			c-1.3-1.1-2.4-1.2-3.9-1c-4.4,0.6-8.6,2.5-13.1,2.3c-0.9,0-1.1,0.4-1.1,1.2c0.1,4.5,0.3,9.1,0.5,13.6c0,0.9,0.6,1.1,1.4,1.4
			c1.6,0.5,3.2,0.5,4.8,0.1c6.5-1.4,13.1-2.3,19.7-2.9c3.8-0.4,7.5-0.2,10.6,2.3c2.3,1.9,3.1,4.3,1.9,6.5c-1.1,2.1-3.3,2.8-6.2,1.9
			c-5.3-1.6-10.6-0.3-15.9,0.2c-4.8,0.5-9.5,1.4-14.3,2c-2.1,0.2-1.6,1.6-1.6,2.8c0.2,15.5,0.9,31.1,0.6,46.6
			c-0.1,3.4-0.3,6.7-0.6,10.1c-0.3,2.9-1.2,5.5-3.6,7.3c-2.2,1.6-4.8,1.7-6.6,0.2c-1.9-1.5-2.3-3.8-0.9-6.4c1.3-2.5,1.3-5.3,1.3-8
			c0.4-23.4-0.4-46.7-1.3-70c-0.6-17.3,0.1-34.5,0.8-51.8c0-0.8,0.2-1.6,0.4-2.4c0.7-2.8,2.6-4.2,5.1-3.9c2.3,0.3,3.8,2.1,3.8,4.8
			c0,5.2-0.1,10.4-0.2,15.5C415.3,155.2,415.1,156.2,415.8,157.4z"/>
		<path fill="#222222" d="M369.3,227.8c-4.4,4.3-8.5,8.3-12.7,12.4c-1.2,1.1-2.4,2.2-4,2.8c-2.1,0.7-4,0.5-5.5-1.3
			c-1.5-1.7-1.4-3.7-0.2-5.6c0.7-1.1,1.5-2.1,2.5-2.9c8.1-6,13.7-14.2,20-21.8c0.6-0.8,1.5-2,0.5-2.6c-1.1-0.7-2.6-1.5-4.1-0.5
			c-2.3,1.5-4.6,3-6.8,4.5c-1.1,0.8-2.3,1.5-3.7,1.7c-2.4,0.3-4.4-0.3-5.4-2.6c-1-2.1-0.2-5.1,2.1-6.2c4.3-2.1,7.8-5.3,12-7.5
			c1-0.5,2.2-1.4,3.2-1.4c3.2,0.1,3.3-1.8,3.1-4.1c-0.1-2.6-0.1-5.3,0-7.9c0-1.5-0.4-1.9-1.9-1.5c-4.9,1.3-9,3.6-10.9,8.7
			c-0.7,1.8-2.1,2.9-4.2,2.9c-2.1,0-3.4-1.1-4.2-2.9c-1.1-2.5-0.6-4.9,1-7c3.6-4.8,8.3-8.3,13.7-10.9c2-0.9,4.1-0.6,6.1,0.4
			c0-4.2,0-8,0-11.9c0-3.3-0.2-6.6,0-9.8c0.2-3,2.1-4.8,4.6-4.7c2.6,0,4.3,2,4.5,5.1c0.8,18.9,2,37.8,1.5,56.7
			c-0.5,16.6-1.1,33.2-3.7,49.7c-0.3,2.1-0.8,4.1-1.8,6c-2.6,4.6-7.9,4.8-10.8,0.4c-2-3.1-3.2-6.5-3.9-10.1
			c-0.6-3.5,1.9-5.9,5.3-5.2c1.9,0.4,2.2-0.3,2.3-1.8C368.4,241.8,369.2,234.9,369.3,227.8z"/>
		<path fill="#222222" d="M228.7,263.6c-2.4,2.1-4.8,3.9-7.8,2.1c-3.2-2-2.5-5.1-1.9-8.1c0.8-3.9,1.4-7.9,2.1-11.8
			c0.7-3.3,2.6-5,5.3-4.6c2.6,0.4,4.1,2.5,3.7,5.7c-0.2,2.2-0.2,3.1,2.5,2.6c3.7-0.7,7,2.3,7.6,6.5c0.4,3,0,6-0.8,8.9
			c-0.3,1.2-0.7,2.4-1.1,4c1.8-0.5,3.3-1,4.9-1.4c6.6-1.6,11.6,2.3,11.8,9.1c0.2,7.2-2.7,13.7-5.7,20c-0.9,2-0.8,2.7,1.4,3.4
			c5.9,1.9,11.7,4,17.5,6.1c4.4,1.6,6.2,4.3,5.1,7.4c-1.1,3.1-4.1,4-8.6,2.3c-6.5-2.4-13-4.7-19.4-7.2c-1.6-0.6-2.4-0.4-3.4,1.1
			c-5.1,7.9-11.1,15-17.1,22.3c-0.7,0.9-1.6,1.7-2.5,2.5c-1.8,1.6-3.9,2.1-6.1,1.1c-2.2-1-3.5-2.9-3.5-5.4c0-2.6,0.8-5.1,3.4-6
			c2.1-0.7,3.3-2,4.6-3.6c3.5-4.6,7.1-9.2,10.6-13.8c1.2-1.6,1-2.2-1.1-2.5c-2.8-0.4-5.6-0.7-8.4-0.8c-3.4-0.1-5.4-1.7-5.5-4.4
			c-0.1-2.7,1.8-4.5,5.2-4.8c4.7-0.4,9.3,0.1,13.8,1.3c2,0.5,2.9,0,3.8-1.8c2.1-4.4,4-8.7,5.1-13.5c0.5-1.9,0.1-2.7-1.9-1.7
			c-2.4,1.1-4.8,2.2-7.2,3.2c-1.3,0.6-2.7,1.2-4.1,1.5c-4.8,1.1-8.4-2.7-6.9-7.4c1-3.1,2.4-6.1,3.7-9.1
			C228.4,265.9,228.9,265.1,228.7,263.6z"/>
		<path fill="#222222" d="M181.7,272.5c-2.5,0.3-4.2,1.4-6,2.1c-3.4,1.3-6.2,0.6-7.3-1.9c-1.1-2.5,0.1-4.9,3.3-6.5
			c3.4-1.7,6.9-3.3,10.6-4.1c5.4-1.2,9.4,1.9,9.5,7.4c0.1,5.3-2,9.9-4.2,14.5c-1,2-1.1,2.7,1.6,3c7.9,0.8,12.1,6.4,11.6,14.7
			c-0.5,7.7-3.3,14.6-6.8,21.4c-2.7,5.2-5.6,10.2-8.9,15c-2.4,3.5-5.5,4.5-8.3,2.7c-2.9-1.9-3.5-5.4-1.4-8.9
			c0.6-1.1,1.4-2.2,2.2-3.1c7.2-7.4,10.9-16.6,12.7-26.5c0.7-3.9-0.1-4.7-3.9-5.1c-1.5-0.1-3.1-0.3-4.6-0.5
			c-6.3-1.1-8.8-6.1-5.9-11.7c1.6-3.2,3.5-6.2,4.7-9.5C181,274.6,181.2,273.7,181.7,272.5z"/>
		<path fill="#222222" d="M216.4,203.2c0.3-2.2,0.6-5.5,1.1-8.8c0.3-2.3,1.5-4.1,3.8-4.9c1.9-0.6,3.8-0.5,5.3,1.1
			c1.4,1.5,1.5,3.2,0.7,5.1c-1.8,4.3-1.6,8.7-0.5,13c0.9,3.5,0.6,5.5-1.7,6.7c-2.3,1.1-4.8,0.1-6.7-2.6
			C216.7,210.2,216.4,207.4,216.4,203.2z"/>
	</g>
</g>
</svg>
