<?xml version="1.0" encoding="utf-8"?>
<!-- Generator: Adobe Illustrator 18.0.0, SVG Export Plug-In . SVG Version: 6.00 Build 0)  -->
<!DOCTYPE svg PUBLIC "-//W3C//DTD SVG 1.1//EN" "http://www.w3.org/Graphics/SVG/1.1/DTD/svg11.dtd">
<svg version="1.1" xmlns="http://www.w3.org/2000/svg" xmlns:xlink="http://www.w3.org/1999/xlink" x="0px" y="0px"
	 viewBox="0 0 1025.8 719.9" enable-background="new 0 0 1025.8 719.9" xml:space="preserve">
<g id="_xFFFD__x9E__x83__xFFFD__x9C_曉_x92__x8C_瘝_xA0_影像_3_" display="none">
</g>
<g id="摨_x95__xFFFD__x9C__x96__1_">
	<g id="摨_x95__xFFFD__x9C__x96__xFFFD__x89_脣_xFFFD__x8A__xA0_影像_1_">
	</g>
	<g id="_xFFFD__x9E__x83__xFFFD__x9C_曉_x92__x8C_瘝_xA0_影像_1_">
	</g>
</g>
<g id="_xFFFD__x8B__x95__xFFFD__x85__x8B__xFFFD__x89_拐辣_1_">
	<g id="瘙_x22A5__x9F__x93__xFFFD__x92__x8C_瘞湔_xFFFD__xF880__xA0_影像_1_">
		<g>
			<path d="M808.9,608.8c-3.7-0.5-7.3-0.8-10.7-1.5c-6.2-1.3-12.1-0.3-17.4,2.6c-5.9,3.2-11.4,7-17.1,10.5
				c-4.3,2.7-8.6,5.4-12.9,8.1c-4,2.4-8.5,3.3-13.1,2.9c-5.9-0.5-11.9-1.1-17.8-2.3c-5.9-1.2-9.8-4.9-10.8-11.2
				c0-0.1-0.1-0.2-0.1-0.3c-0.9-8.6-6.4-12.4-14.4-13.7c-12.4-2.1-23-8.2-33.3-15c-7.1-4.7-7.6-11.1-2.2-17.7c0.5-0.6,1-1.3,1.6-1.9
				c1.1-1.3,0.8-2.4-0.6-3.1c-2.2-0.9-4.4-1.6-6.6-2.5c-4.4-1.8-9-3.5-13.3-5.5c-7.6-3.6-5.3-16.3-0.1-19.9c0.5-0.3,1.6-0.3,2.1,0.1
				c1.7,1.4,3.6,2.9,4.9,4.6c5.7,7.4,13.2,9.2,21.9,7.4c3.4-0.7,6.7-1.7,9.9-2.9c6.7-2.6,13-0.9,19.3,1.5c4.5,1.7,5.8,6,7.8,9.7
				c2,3.9,4,4.7,8.3,4c2.2-0.4,4.6,0,6.9,0.2c3.5,0.2,7,0.5,10.5,0.9c4.3,0.4,8.8,0.3,12.8,1.6c5.4,1.7,10.4,1,15.5-0.2
				c4.4-1,8.4-0.8,12.8,0.5c3.6,1,7.7,0.4,11.5,0.5c3.3,0.2,6.8,0.1,10,0.9c1.9,0.5,3.8,2.2,5.1,3.9c1.3,1.7,1.8,3.9,2.5,6
				c2.4,7.4,8.3,12.1,16.2,11.5c7.6-0.6,15.1-2.1,22.6-3.2c1.1-0.2,2.1-0.6,3.2-0.7c12.5-0.5,23.3-5.8,34.1-11.4
				c7.5-3.9,14.8-8.1,22.2-12.1c4.7-2.6,9.8-2.5,14.9-2c5.8,0.5,11.6,2,17.3,1.8c5.5-0.2,11.1-1.7,16.4-3.4c1.7-0.5,2.8-3.3,4-5.1
				c2.4-3.6,4.5-7.4,7.2-10.7c1.1-1.3,4.1-2.3,5.3-1.6c1.7,0.9,2.6,3.4,3.5,5.4c0.4,0.8,0.3,2,0.1,3c-1.9,8.6-3.4,17.1-11.9,22.5
				c-6.3,4-12.4,6.8-20,7.5c-13.8,1.2-27.6,3.3-40.6,8.9c-4.9,2.1-9.6,4.7-14.1,7.5c-3.9,2.4-7.7,3.8-12.4,4
				c-11.1,0.5-22.2,1.1-33.1,2.7c-7.4,1.1-14.5,4.1-21.7,6.1C813.1,608.2,811,608.4,808.9,608.8z"/>
			<path d="M514.2,474.3c2.4,0,4.9-0.1,7.3,0c2.7,0.1,4.3,1.5,5.6,4c1.8,3.5,2.6,6.6,1.6,10.6c-0.8,3.4,1.2,6.1,4,8
				c1,0.6,1.5,2.3,1.9,3.6c0.6,2.5,0.9,5.2,1.3,7.8c0.2,1.1,0.4,2.4,0.1,3.5c-1.7,6.4-13.9,13.7-20.8,8.4c-1-0.8-2.2-1.3-3.3-1.9
				c-2-1.1-3.9-1-5.9,0c-4.3,2.3-8.7,4.5-13.2,6.4c-6.9,2.9-10.9,1.8-14.5-4.5c-3.7-6.3-9.8-7.7-15.9-9.2c-1.7-0.4-3.4-0.5-5.1-0.8
				c-6.3-1.2-11-4.7-12.8-10.9c-0.8-2.9-0.9-6.3,1.9-8.7c5.6-5,11.2-10,18.1-13.3c3.9-1.8,6.2-4.9,7.4-9c1.5-5.3,2.9-10.7,4.2-16
				c0.8-3.1,2-6,4.7-8.1c3.9-3.1,5.4-7.2,5.6-12.1c0.2-5.5,1-11,1.8-16.4c0.2-1.3,0.9-2.7,1.8-3.6c1-0.9,2.5-1.6,3.8-1.7
				c0.5,0,1.3,1.9,1.6,3c1.9,6,3,12.5,5.8,18.1c2.2,4.3,1.7,7.5-0.3,11.3c-4,7.8-3.4,15.9-1,23.9c1.4,4.5,4.3,7.8,9.6,7.7
				c1.6,0,3.3,0.3,4.9,0.5C514.2,474.6,514.2,474.5,514.2,474.3z"/>
			<path d="M237.1,603.5c4.1-5.3,8-10.6,12-15.7c2.6-3.3,6.9-4.2,10.5-1.8c2.2,1.5,4.3,3.5,5.6,5.7c1.6,2.7,3.3,2.9,6.1,2.3
				c4.7-1,9.5-1.9,14.2-2c7.5-0.2,13.7,5.9,14.1,13.4c0.2,3,0,6-0.2,9c-0.2,4-0.1,4.6,3.9,5.4c5.3,1.2,10.7,2,16.1,3
				c4.9,0.9,9.5,2.4,13.1,6.1c4.3,4.4,6.5,9.5,6.3,15.7c-0.2,5.6-3.8,10.3-9.3,11.7c-3.6,0.9-7.3,1-10.7-0.7
				c-8.3-4.1-17.1-4.7-25.8-3.3c-12.9,2.1-23.8-2.4-34.1-9c-2.3-1.5-4.1-3.9-6-5.9c-1.5-1.6-1.3-3.3,0.2-4.9
				c0.8-0.8,1.6-1.5,2.4-2.2c5.3-3.7,5.3-9.2,2.2-14.7c-4-6.9-10.9-8.8-17.7-11.2C239.1,604.1,238.2,603.8,237.1,603.5z"/>
			<path d="M396.9,555.6c-1.1,0-2.2,0-3.3,0c-10,0-17.3-4.2-21.5-13.4c-0.2-0.3-0.4-0.6-0.5-1c-2.2-5.5-6.1-8.2-12.1-8.9
				c-8.5-0.9-14.5-5.4-16.4-14.3c-0.2-0.9-1.1-2-2-2.3c-2.8-1.1-5.7-2.3-8.7-2.8c-5.9-1.1-10.1-4.5-13-9.5
				c-2.5-4.3,0.2-11.9,4.9-13.1c2.3-0.6,5.2,0.8,7.8,1.5c0.9,0.2,1.7,1,2.6,1.5c3.8,2.4,7.5,3.2,12,1.2c4.7-2.1,10-1.7,15-0.9
				c9.8,1.6,19.5,3.2,29.2,5c2.9,0.5,5.8,1.7,8.4,3c3.1,1.5,4,5.6,2.8,9.6c-0.9,2.9-1.5,5.9-1.9,9c-0.3,2.8,1,5.1,3.6,6.5
				c2.1,1.1,4,2.4,6.1,3.6c3.3,1.9,5,4.7,4.8,8.5c0,1,0,2-0.1,3c-0.6,9.2-5.5,13.8-14.7,13.9C399.1,555.7,398,555.7,396.9,555.6
				C396.9,555.7,396.9,555.6,396.9,555.6z"/>
			<path d="M120.4,432.7c2.7,0.6,5.4,1.1,8.2,1.7c2.2,0.4,4.4,1,5.1,3.4c0.7,2.4-0.9,3.9-2.2,5.5c-3,3.5-6.2,6.9-9,10.6
				c-2.3,3.1-1.8,4,1.3,6.1c2.3,1.5,4.6,2.9,6.6,4.8c4.2,3.8,4.2,8.3-0.1,11.9c-4.2,3.5-8.7,6.5-13,9.9c-1.9,1.5-3.6,3.2-6,5.5
				c3.1,1,5.2,1.9,7.5,2.3c4.1,0.8,8.2,1.4,12.3,2.1c0.8,0.1,1.8,0.2,2.3,0.7c0.7,0.8,1.6,2.1,1.5,3c-0.1,0.7-1.8,1.8-2.6,1.7
				c-6.8-1.1-13.7-2-20.3-4c-6.3-1.9-7.4-7-2.7-11.7c3.5-3.5,7.7-6.3,11.6-9.5c1.8-1.4,3.6-2.8,5.4-4.2c1.7-1.3,1.6-2.7,0-4
				c-1.8-1.4-3.7-2.6-5.6-3.9c-5.8-3.8-6.9-7.9-3.1-13.8c2.5-3.8,5.7-7.3,8.7-11c-2.5-0.6-5-1.1-7.5-1.9c-3.4-1.1-6.3-2.7-5.4-7.2
				c-5.7-0.9-11-2.6-15.6-5.9c-14-10-16.7-29.6-5.8-43.7c8.8-11.4,21-15.3,35-14.3c7.2,0.5,13.9,2.5,20,6.5c14.6,9.6,16.3,27,3.7,39
				c-2.3,2.2-5,4.2-7.8,5.9c-2.7,1.7-5.6,2.9-8.5,4.4c-0.2,3.9-1,5-4.9,6.2c-3,0.9-6,1.7-9,2.6C120.4,432,120.4,432.3,120.4,432.7z
				 M129.8,385.3c-10.4-4.1-25.7,3.1-29.7,13.5c-3.8,9.8,0.3,17.8,10.6,20.4c12.7,3.2,31.1-3.5,38.8-14.1c5.5-7.5,5.3-15.5-1-22.3
				c-2.5-2.7-5.8-5-9.1-6.7c-6.7-3.4-13.9-3.9-21.3-3.2C105.1,374,94.5,383,91.7,395c-1.3,5.4-1,10.6,1.6,15.6c-1.2-6.9,0-13.3,4-19
				c7.2-10,17.3-13.9,29.4-13.2c4.5,0.3,8.7,1.7,12.2,4.7c3.3,2.9,5,6.6,4.2,10.9c-0.8,4-1.6,8.2-6.6,9.2c-0.5,0.1-1,0.5-1.5,0.7
				c-7,3-14.1,3.5-21.1,0.4c-4.9-2.1-6-6.8-3-11.3c2.1-3.2,5.1-5.2,8.8-6C122.8,386.5,126.1,386,129.8,385.3z M121.5,400.6
				c-0.4-2.8-0.7-5.1-1-7.8c-1.2,0.7-2.4,1.1-3.1,1.9c-0.9,0.9-1.5,2.2-2.2,3.3c1.1,0.7,2.1,1.5,3.3,2
				C119.3,400.4,120.3,400.4,121.5,400.6z M127.8,399.7c2.3-2.1,2-3.4-1.5-5.2C126.8,396.2,127.3,397.8,127.8,399.7z"/>
			<path d="M671.4,235.2c-1.7-1.5-3.8-2.5-4.3-4c-0.7-2.4,1.7-3.5,3.4-4.7c1.6-1.2,3.3-2.2,4.9-3.5c2.4-1.9,2.4-2.7,0.3-4.8
				c-2.2-2.1-4.6-4.1-6.8-6.3c-3.6-3.6-3.4-6.8,0.9-9.7c2.7-1.8,5.7-3.2,8.9-4.9c-2.2-1.2-4.3-2.2-6.3-3.3c-6.5-3.6-7.1-7.6-2.2-13
				c0.7-0.7,1.3-1.4,2.1-2.3c-1.1-0.4-2.1-0.7-2.9-1.2c-1-0.7-2.7-1.5-2.8-2.4c-0.3-3.2-2.7-3.4-4.9-4.2
				c-18-6.9-23.4-26.4-11.7-41.7c10.1-13.2,30-18.2,45-11.1c3,1.4,5.8,3.4,8.2,5.7c7.4,7.1,7.8,17.1,1.4,25.1
				c-8.8,11-27.3,14-39.1,6.3c-5.3-3.5-7.5-8.1-6.5-13.6c0.6-3.4,2.7-5.9,5.4-7.9c8.7-6.2,24.9-4.9,32.5,2.6
				c2.7,2.7,3.3,5.1,2.2,9.5c4.6-3.4,5.6-10.3,2-15.5c-4.2-6-10.4-8.8-17.4-9.4c-11.7-1.1-21.8,2.7-29.2,12
				c-4.9,6.2-6.8,13.3-3.4,20.9c3.4,7.9,10,11.7,18.2,13c1.4,0.2,2.9-0.2,4.3-0.5c1.9-0.5,3.8-0.6,4.6,1.6c0.8,2.3-0.7,3.5-2.7,4.2
				c-0.3,0.1-0.6,0.3-1.2,0.7c1.2,0.3,2.1,0.6,3.1,0.9c3.8,1.2,4.5,4.3,1.6,7c-2.1,2-4.2,4-6.6,6.3c1.5,1,2.5,1.7,3.5,2.3
				c2.4,1.3,4.9,2.4,7.2,3.9c3.8,2.6,3.7,6.3-0.3,8.7c-2.1,1.2-4.4,2.2-6.6,3.3c-1.1,0.6-2.2,1.2-4,2.2c1.5,1.2,2.6,2.2,3.8,3.1
				c1,0.8,1.9,1.6,2.9,2.5c6,5.4,5.8,9.9-0.4,14.8c-0.6,0.4-1.1,0.9-1.9,1.5c2.1,2.2,1.4,4.5,0.5,7c-0.9,2.4-1.6,5-1.9,7.6
				c-0.2,1.3,0.5,2.9,1.2,4c1,1.5,1.5,2.9,0,4.1c-1.6,1.2-3.2,0.6-4.3-0.8c-2.2-2.7-2.8-5.9-2.3-9.3
				C670.1,239.6,670.9,237.1,671.4,235.2z M684.8,136.8c-5.6-2.2-12.9-1.4-17.2,2c-3.6,2.8-4,6.7-1,9.9c5,5.4,17.9,6.9,24.6,2.7
				c-0.9,0.2-1.5,0.3-2.1,0.4c-5.1,0.6-10.2,0.4-14.7-2.4c-3.9-2.4-4.1-6.9-0.5-9.7c1.1-0.9,2.5-1.6,3.8-1.9
				C680,137.2,682.4,137.1,684.8,136.8z M681.7,146c-0.1-1.4-0.1-2.3-0.2-3.6c-1.6,0.6-2.7,1.1-3.9,1.6c0,0.2,0.1,0.4,0.1,0.7
				C678.9,145,680.1,145.5,681.7,146z"/>
			<path d="M99.3,133c2.1,1.9,3.6,3.1,4.8,4.4c2.8,2.9,2.9,5.6,0.5,8.8c-1.9,2.4-3.9,4.8-6.1,7.5c1.8,0.6,3.3,1.1,4.6,1.6
				c3.7,1.5,4.4,4.6,1.8,7.6c-1.5,1.7-3.2,3.1-5.1,4.9c1.1,0.6,2,1.1,2.9,1.6c3.6,1.8,5.6,4.8,6.5,8.6c0.4,1.6,0.2,3-1.5,3.6
				c-1.7,0.6-3-0.2-3.4-1.8c-1-4.2-4.1-5.9-7.8-7.2c-4.2-1.5-4.9-4.4-1.8-7.7c1.4-1.5,3-2.9,4.7-4.5c-1.1-0.4-1.9-0.8-2.8-1.2
				c-3.8-1.7-5-4.8-3-8.4c1.2-2.1,2.8-4,4.4-5.9c2.4-2.9,2.4-2.8-0.2-5.3c-0.5-0.5-1.1-1-1.6-1.5c-2.5-2.7-2.7-5.6-0.6-8.7
				c0.4-0.6,0.9-1.2,1.6-2.1c-2-0.1-3.8-0.2-5.5-0.3c-9.7-0.6-16.7-5.3-20.5-14.3c-3.7-8.8-1.6-16.8,4.3-23.9
				c12.5-14.9,34.8-13.9,47.1-4.2c5.7,4.5,6.1,10.8,0.7,15.6c-8.3,7.3-18.1,9.5-28.7,7c-6.9-1.6-8.8-8.6-4.3-14.1
				c5.3-6.4,17.7-8.9,25.1-5.1c3,1.5,4.3,4,4.2,7.4c2.1-2.2,2.3-4,0.1-5.6c-2.3-1.8-5-3.4-7.7-4.4c-10.3-3.8-20.1-2.9-28.8,4
				c-8.2,6.5-10.1,16.2-5,24.2c3.5,5.4,8.7,7.7,14.8,7.7c4.5,0,9-0.7,13.5-1.2c1.9-0.2,3.8-0.5,4.7,1.6c0.9,2.2-0.7,3.2-2.3,4.3
				C105.9,128,102.9,130.3,99.3,133z M97.7,102c5.7-1.1,10.7-2.2,14.7-5.8c2-1.8,1.7-2.9-0.7-3.6c-5.7-1.6-11-0.6-15.6,3.1
				c-1.1,0.9-1.9,3-1.7,4.4C94.5,101,96.7,101.5,97.7,102z"/>
			<path d="M938.4,402c-0.2,2.4-0.4,4.9-0.6,7.3c-0.4,5.4-3.5,9.2-8,11.5c-1.8,0.9-4.5,1.1-6.5,0.4c-3.5-1.2-7.1-2.7-9.8-5.1
				c-4.3-3.8-8.5-6.7-14.3-7.9c-4.4-0.9-8.2-8.7-7.6-13.1c0.5-3.6,3.7-5.8,7.7-4.9c3.4,0.8,6.9,1.8,10.1,3.3c4.8,2.1,9.3,3,14.2,0.1
				c3.8-2.2,10.4-0.7,13.2,2.8c1.1,1.4,1.4,3.6,2.1,5.4C938.8,401.9,938.6,402,938.4,402z"/>
			<path d="M256.2,514.7c0.1-5,1.4-9.6,3.9-13.8c5.5-9.1,13-16,22.2-21.2c4.5-2.5,9.3-3.6,14.4-3.2c2,0.2,3.8,0.6,4.5,2.8
				c0.7,2.1-0.4,3.6-1.8,5c-7.6,7.7-14.5,16-20.4,25.1c-2.1,3.3-4.6,6.3-7,9.3c-0.8,1-1.8,1.8-2.8,2.6c-2.9,2.1-6,2.6-9.2,1
				C256.9,520.9,256,518,256.2,514.7z M290.9,483.8c-0.8,0-1.2,0-1.5,0.1c-1.1,0.4-2.3,0.7-3.3,1.3c-9,4.8-16.4,11.4-21.2,20.6
				c-1.2,2.3-1.7,5.1-2.2,7.8c-0.2,1,0.5,2.1,0.8,3.2c1-0.5,2.3-0.7,3-1.5c2.1-2.3,4.1-4.9,6-7.4c5.6-7.3,11.1-14.6,16.6-21.9
				C289.7,485.3,290.2,484.7,290.9,483.8z"/>
			<path d="M285.4,429.2c8,0.6,14.9,4.8,21.4,9.7c1.6,1.3,2.4,3.1,0.9,5c-1.4,1.8-3,1-4.9,0.3c-5.3-2-10.7-2.2-16.2-0.6
				c-3.7,1-7.6,1.8-11.4,2.2c-2.5,0.3-5.3-0.2-6.5-2.9c-1.2-2.7,0.1-5.2,1.9-7.2C274.3,431.3,279.3,429.3,285.4,429.2z M287.1,436.8
				c-4-1.6-8.3-0.3-10.1,2.8C280.6,438.6,283.9,437.7,287.1,436.8z"/>
			<path d="M593,649.7c0.2,4.6-0.8,9.6-3,14.2c-0.7,1.4-1.4,2.9-2.6,3.8c-0.9,0.7-2.5,0.5-3.8,0.7c-0.1-1.3-0.9-3-0.3-3.9
				c3.8-5.6,4.3-11.8,4.1-18.3c-0.1-3.7-1.6-6-5.2-7c-1.9-0.5-3.8-1.3-5.6-2c-6.8-2.7-10.4-7.9-11.7-14.9c-0.4-2-0.2-4,2.2-4.5
				c2.5-0.5,3.5,1.3,3.7,3.3c0.8,6.6,4.7,10.1,10.7,11.9c0.1,0,0.2,0.1,0.3,0.1C591.4,636.6,593,638.8,593,649.7z"/>
			<path d="M227.6,389.3c-0.5-4.9,0.5-8.8,3.3-12.3c2-2.5,4.6-4,7.7-4.7c8.3-1.8,11.6-5.8,11.9-14.4c0-0.5-0.1-1.3,0.1-1.6
				c0.8-1,1.7-2.5,2.6-2.5c0.9,0,2.4,1.4,2.6,2.4c1.8,7.8-3.6,17.4-11.3,20.3c-1.3,0.5-2.6,0.8-3.9,1.1c-4.8,1.2-7.2,4.1-7.3,9.1
				c0,1.9,0.2,3.8,0.2,5.7c0,1.9-0.8,3.5-2.9,3.6c-2.2,0-2.9-1.5-3-3.4C227.5,391.3,227.6,390,227.6,389.3z"/>
			<path fill="#FFFFFF" d="M287.1,436.8c-3.2,0.9-6.4,1.8-10.1,2.8"/>
		</g>
	</g>
	<g id="Hand_white_xA0_影像_1_">
	</g>
	<g id="圖層_10">
	</g>
	<g id="_xFFFD__x89__x8B_銝_x8A__xFFFD__x9E__x83__xFFFD__x9C_曄_x9A__x84__xFFFD__x89_脣_xFFFD__x8A__xA0_影像_1_">
	</g>
	<g id="_xFFFD__x89__x8B__xA0_影像_1_">
	</g>
</g>
</svg>
