<?xml version="1.0" encoding="utf-8"?>
<!-- Generator: Adobe Illustrator 22.1.0, SVG Export Plug-In . SVG Version: 6.00 Build 0)  -->
<svg version="1.1" id="Layer_1" xmlns="http://www.w3.org/2000/svg" xmlns:xlink="http://www.w3.org/1999/xlink" x="0px" y="0px"
	 viewBox="0 0 1449.1 365.8" style="enable-background:new 0 0 1449.1 365.8;" xml:space="preserve">
<g id="_xFFFD__x83__x8C__xFFFD__x99__xA0_影像_1_">
</g>
<g id="_xFFFD__x9C__x96_撅_xFFFD__4_xA0_影像_1_">
	<g fill="#ffffff">
		<path d="M481.5,254c3.4-0.2,6.4-0.5,9.8-0.7c-0.1-1.4-0.3-2.6-0.2-3.7c0.6-4.9,0.9-9.9,2-14.8c1-4.7,3.7-6.9,6.7-6.8
			c3.1,0,5.8,2.5,6.4,7.4c0.6,4.7,0.3,9.5,0.3,14.3c0,1-0.3,1.9-0.6,3.6c3.7-0.5,7.2-0.9,10.6-1.6c0.6-0.1,1.1-1.5,1.5-2.4
			c1.5-3.8,2.8-7.7,4.3-11.5c0.5-1.2,1.1-2.3,1.8-3.3c2-3.1,4.8-4.4,7.6-3.6c2.8,0.7,4.5,3.2,4.4,7c-0.2,8.3-0.6,16.5-0.9,24.8
			c0,1.2-0.2,2.3-0.2,3c2.9-1.3,5.7-3.1,8.7-3.8c3.3-0.7,5.2,1,7.2,5.7c1.2-0.3,2.6-0.6,3.8-1.1c4.9-2.2,9.1-5.3,11.9-10
			c4.5-7.4,7-15.4,7.2-24c0-2-0.2-4-0.6-5.9c-0.6-3.7-2.8-6.3-6.6-6.7c-5.4-0.6-10.9-1.3-16.3-1.1c-14.3,0.6-28.5,1.8-42.7,2.3
			c-5.8,0.2-11.6-0.6-17.3-1.3c-2-0.2-4-1.2-5.7-2.3c-3-1.9-4.1-5.2-2.8-8.3c0.6-1.5,0.1-2.1-0.7-3.3c-1.5-2.5-3.1-5.2-3.8-8
			c-1.1-4.1-1.8-8.4-2.1-12.6c-1.7-24.3-1.3-48.5,4.2-72.4c1.9-8.4,4.5-16.5,8.9-23.9c6.9-11.6,16.2-20,29.7-23
			c2.4-0.5,5.1-0.6,7.6-0.3c4.4,0.4,7.6,3.3,8.3,6.8c0.6,3.3-1.1,6-5.3,8.3c-8.8,4.9-14.8,12.2-18.4,21.5c-0.3,0.7-0.4,1.5-0.7,2.4
			c4.3-0.8,8.2-1.8,12.2-2.3c7.8-0.9,15.6-0.9,23.2,1.4c13,3.9,19.4,14,17.1,27.6c-1.8,10.9-5.4,21.3-10.2,31.3
			c-1.8,3.8-5.6,5.6-9.5,5.1c-6.4-0.8-12.5,0.8-18.6,1.5c-6.8,0.8-13.7,1.8-20.5,2.8c-0.8,0.1-2,0.8-2.1,1.4
			c-0.4,2.7-0.5,5.4-0.8,8.2c4.6-1,8.7-2.4,13-2.9c7.4-1,14.8-1.5,22.2-2.1c1.5-0.1,3.1,0.1,4.5,0.7c2.7,1,4.2,3.1,4.3,6.1
			c0,3-1.5,5-4.1,6.2c-0.4,0.2-0.8,0.4-1.3,0.4c-11,1.2-21.7,4.9-32.9,4.3c-2.5-0.1-5-0.4-7.8-0.6c-0.5,2.9-1,5.8-1.6,9.2
			c1.6-0.4,2.8-0.6,4-0.9c18.9-4.8,38-7.2,57.5-6.3c4.1,0.2,8.2,0.8,12.1,1.7c14.5,3.3,23.1,12.4,25.1,27
			c2.4,17.4-1.7,33.6-12.2,47.6c-8.6,11.6-20.4,16.9-35.1,14.4c-6.7-1.1-9-2.6-14.5-8.9c-0.8,3.7-1.6,7.1-2.4,10.5
			c-0.3,1.5-0.6,3-1,4.5c-1.5,5-5.4,7.8-9.9,7.2c-4.5-0.6-7.8-4.4-7.7-9.5c0.1-6.4,0.5-12.7,0.8-19.1c0.1-1.2,0.2-2.3,0.4-4.1
			c-3.4,1.3-6.4,2.4-9.4,3.6c-7.7,3.1-15.6,4.9-23.9,4.3c-12.4-1-18.7-9.9-15.5-21.8c1.1-4.1,2.9-8,4.5-11.9c0.7-1.5,1.8-2.9,3-4.2
			c1.5-1.6,3.4-2.4,5.7-1.6c2.3,0.8,3.2,2.7,3.3,4.8C481.6,244.7,481.5,249,481.5,254z M504.3,131.7c5.3-0.9,10.1-2,14.9-2.4
			c7.1-0.5,14.3-0.6,21.5-0.7c1.9,0,2.5-0.7,2.6-2.5c0.2-5-1.1-7.1-6-8.7c-10.3-3.4-20.2-1.7-30,2.1c-0.6,0.2-1.4,0.9-1.5,1.4
			C505.1,124.5,504.7,128.1,504.3,131.7z M502.5,156.7c0.5,0.2,0.7,0.3,0.9,0.3c11-1.5,21.9-3,32.9-4.7c0.7-0.1,1.7-0.8,1.9-1.5
			c0.7-1.6,1-3.3,1.6-5.1c-1.1,0-1.9,0-2.7,0c-7.8,0.4-15.6,0.8-23.4,1.2c-2.8,0.1-5.6,0-8.4,0.2c-0.8,0.1-2,0.8-2.1,1.4
			C502.8,151.2,502.7,154,502.5,156.7z"/>
		<path d="M654.6,206.1c-3.8,1-7.2,2.3-10.6,2.8c-4,0.5-8.2,0.7-12.2,0.2c-12.1-1.7-20.6-10.9-21.8-23.4c-0.9-9.6,0.9-18.9,4.6-27.7
			c0.9-2.2,2.5-4.2,4.1-6.1c1.7-2,4.1-2.8,6.7-1.8c2.6,1,3.2,3.3,3.2,5.8c0,5.1-0.4,10.2-0.2,15.3c0.1,3.5,0.7,7,1.5,10.5
			c0.4,1.6,1.7,2.9,2.8,4.7c0.5-0.8,0.8-1.1,0.8-1.3c-0.7-15.1,2.9-29.6,6.1-44.2c0.7-3.1,1.5-6.2,2.3-9.3c0.4-1.3,0.8-2.6,1.4-3.8
			c1-2.1,2.6-3.6,5.1-3.5c2.4,0,4.2,1.5,4.9,3.7c1.1,3.3,2.3,6.8,2.6,10.2c1.6,15.9,0.3,31.6-3.6,47c-0.2,0.8-0.4,1.5-0.6,2.3
			c4,0.8,4,0.6,4.8-3c2.1-10,4.3-20.1,6.7-30c0.5-2.3,1.7-4.4,2.8-6.5c1.3-2.4,3.5-3.7,6.3-3.4c2.9,0.4,4.5,2.3,5.3,4.9
			c0.5,1.8,1,3.8,0.9,5.6c-0.7,15.4-1.6,30.8-2.4,46.2c0,0.6-0.1,1.2-0.2,2.1c0.5,0.1,0.9,0.2,1.3,0.1c21.5-4.7,43.3-6.5,65.2-8
			c2.4-0.2,3.5-0.8,3.8-3.4c0.8-7.3,1.8-14.6,2.7-21.9c0.1-0.8,0-1.7-0.5-2.8c-0.8,1-1.6,2.1-2.4,3.1c-3.5,4.9-6.9,9.8-10.4,14.7
			c-0.5,0.7-0.9,1.4-1.4,2c-1.6,1.8-3.5,2.7-5.8,1.6c-2.4-1.1-3.2-3.2-2.7-5.6c0.4-1.8,1.1-3.7,2.1-5.3c4.7-7.9,9.5-15.7,14.2-23.5
			c0.3,0.1,0.5,0.2,0.8,0.3c-0.4-0.5-0.7-1-1.1-1.4c-5.8-5.4-7.8-12.1-6.5-19.8c1.2-6.9,3.4-13.4,7-19.4c2.4-4.1,5.3-5.6,8.3-4.7
			c2.9,0.9,4,3.7,3.6,8.5c-0.2,2.2-0.3,4.3-0.5,6.5c0,0.3,0.1,0.5,0.2,1.2c4.8-0.2,9.7-0.4,14.5-0.7c2.6-0.2,5.3-0.6,6.5,2.5
			c0.9,2.2-0.4,5-3.6,6.6c-2.6,1.2-5.5,1.8-8.3,2.5c-2.5,0.6-5.1,0.8-8.5,1.4c1.7,1.4,2.8,2.3,3.9,3.2c10.7,8.3,14,18.5,9.8,31.4
			c-2.1,6.5-4.7,12.8-7,19.2c-0.3,0.8-0.6,1.7-0.9,2.7c8.4,0,16.5,0,24.7,0c0-7.2,0-14.1,0-21.2c-2.2,0-4.2,0.2-6.1-0.1
			c-1.6-0.2-3.4-0.5-4.6-1.5c-1.2-1-2.3-2.8-2.5-4.4c-0.3-2,1.5-3.3,3.4-3.7c2.7-0.5,5.4-0.8,8.1-1c1.7-0.1,2.4-0.6,2.5-2.4
			c0.1-2.4,0.4-4.9,0.6-7.3c-2.7-0.4-5.2-0.5-7.7-1.1c-3.2-0.7-4.9-2.6-5-5s1.6-4.6,4.7-5.3c2.8-0.7,5.7-0.9,9.2-1.3
			c-0.4-3.6-0.5-7.5-1.4-11.1c-0.4-1.5-2.5-3-4.1-3.8c-2.3-1.1-4.5-2-4.7-5c-0.1-2.4,1.7-4.7,4.6-5.8c5.7-2.1,10.9-0.8,15.7,2.6
			c4.5,3.2,7,7.8,8.6,12.9c3.2,10.1,2.9,20.4,0.7,30.5c-2.3,10.7-5.4,21.3-8.2,31.9c-0.2,0.9-0.5,1.7-0.7,2.6
			c4.1,0.9,8,1.7,11.9,2.5c1.6,0.4,3.2,0.8,4.7,1.3c4.5,1.7,7.1,5.4,6.7,9.5c-0.4,4.2-3.4,7.4-8.2,8.2c-4.3,0.7-8.7,1.6-13,1.6
			c-36.7-0.1-73.4,2.3-110.1-0.4c-5.5-0.4-11-1.4-16.8-2.1c-0.4,1.6-0.9,3.5-1.4,5.3c-0.6,1.8-1.1,3.7-1.9,5.4
			c-1.4,2.9-3.8,4.4-7.1,4c-3.2-0.3-5.3-2.2-6-5.2c-0.7-3.3-0.9-6.6-1.2-10C654.9,212.4,654.8,209.3,654.6,206.1z"/>
		<path d="M267.4,168.2c-4.1-0.3-8-0.3-11.7-0.9c-2.3-0.3-4.7-1.1-6.6-2.3c-6.2-3.6-6-11.2,0.2-14.7c2.1-1.2,4.5-1.9,6.8-2.7
			c3.4-1.1,6.8-2,10.2-2.8c2-0.5,2.5-1.5,2.6-3.4c1-15,2.2-29.9,3.4-44.8c0.2-2.2,0.6-4.4,1.3-6.4c2-5.3,8.4-6.4,11.7-1.8
			c1.7,2.2,2.9,5.2,3.2,7.9c1.2,9.7,2,19.5,2.8,29.3c0.3,3.4,0.4,6.9,0.4,10.4c0,2.1,0.8,2.5,2.8,2.4c4.1-0.4,8.2-0.5,12.2-0.5
			c2.1,0,4.2,0.3,6.2,0.7c3.5,0.8,6.1,2.9,7,6.5s-0.2,6.8-2.9,9.1c-2.2,1.8-4.7,3.4-7.3,4.7c-4.4,2.1-9,3.9-13.6,5.8
			c0.1,0.1,0.1,0.4,0.3,0.5c8.8,4.7,14.5,12.8,21.6,19.4c0.9,0.8,1.6,2,2.1,3.2c2,4.5-0.6,9.1-5.5,9c-3,0-6.1-0.9-8.9-2
			c-3.5-1.4-6.7-3.3-10-5c-0.8-0.4-1.6-0.8-2.6-1.2c-0.1,0.9-0.3,1.5-0.3,2.1c-0.3,18.1-1.3,36.1-4.9,54c-0.7,3.6-0.8,7.2-1.5,10.8
			c-0.4,2-1.2,4-2.4,5.7c-2,2.9-5.1,4.1-8.6,3.4c-3.7-0.7-6.4-3-6.9-6.5c-0.8-6.4-0.9-13-1.3-19.5c0-0.6,0.1-1.3,0.1-1.9
			c-0.2-11.8-0.4-23.6-0.6-35.4c0-0.6-0.1-1.2-0.2-2.1c-0.5,0.4-0.8,0.6-1,0.8c-5.5,6.7-10.9,13.3-16.4,20c-2.4,2.9-6.2,3.6-9,1.7
			c-2.8-1.9-3.9-5.6-2-9c3.7-6.7,7.5-13.3,11.7-19.7c5.3-8,11.2-15.7,16.8-23.5C267,169.1,267.1,168.8,267.4,168.2z"/>
		<path d="M1222.5,192.6c-0.2,1.2-0.4,2.3-0.5,3.4c-1.7,24.1-5.4,47.8-10,71.5c-0.7,3.4-1.5,6.8-2.6,10c-1.5,4.3-5.3,6.4-9.1,5.7
			c-3.8-0.7-6.4-3.8-6.4-8.3c0.1-7.2,0.4-14.3,0.8-21.5c0.7-12.5,1.4-25,2.1-37.6c0.2-4,0.6-8,0.9-12c0.1-1,0-1.9,0-3.7
			c-1.2,1.1-1.9,1.6-2.5,2.3c-2.4,2.7-4.8,5.4-7.2,8.2c-2.7,3.1-6.1,3.9-8.9,2.2c-2.9-1.8-4.1-5.5-2.1-9.1
			c6-11.3,11.9-22.7,21.2-31.9c2-2,2.9-4.2,3.1-7c0.1-1.9-0.5-2.6-2.4-2.6c-3.7,0-7.4-0.2-11.2-0.4c-0.6,0-1.3-0.2-1.9-0.3
			c-3.8-0.7-7.4-1.8-8.4-6.2c-1-4.5,1.6-7.4,4.9-9.8c5.6-4,12.1-5.8,18.7-7.1c2.7-0.5,3.6-1.8,4.2-4.4c1.5-6.3,3.1-12.5,5.3-18.5
			c0.9-2.6,3-5,5-7c2.4-2.3,5.8-2.4,8.3-0.8c2.8,1.8,3.5,4.4,3.2,7.9c-0.6,6.1-0.9,12.3-1.1,18.5c0,0.6,1.2,1.7,1.7,1.7
			c2.5-0.2,5.1-0.4,7.5-1.2c3.8-1.2,7.1-0.5,9.2,2.5c2.1,2.9,1.9,7.1-0.9,9.7c-1.9,1.8-4.2,3.1-6.5,4.3c-3.2,1.6-6.4,2.9-9.8,4.2
			c-2,0.8-2.6,2-2.9,4.1c-0.7,4.7,0.1,8.6,3.9,12c2.6,2.3,4.8,5.2,7,7.9s5.2,3.8,8.5,4.3c1.6,0.2,3.2,0.6,4.7,1.3
			c2.9,1.3,4.2,4.3,3.6,7.2c-0.6,2.8-3,4.8-6.1,5c-7.1,0.3-14.2,0-20.5-4c-0.5-0.3-1.1-0.6-1.7-0.8
			C1223.3,192.5,1223,192.6,1222.5,192.6z"/>
		<path d="M1086.1,223.7c-0.9,1-1.5,1.8-2.1,2.5c-4.9,6.5-9.8,13.1-14.8,19.6c-0.8,1.1-1.8,2.1-3,2.8c-2.1,1.3-4.3,1.3-6.5,0
			c-2.1-1.3-3.2-3.4-2.8-5.8c0.3-1.9,1-3.9,2-5.6c4.8-8.4,9.7-16.6,14.6-25c0.5-0.9,1.1-1.8,2-3.3c-1.5,0.1-2.5,0.1-3.4,0.2
			c-5.4,0.5-10.8,1.3-16.3,1.6c-3.6,0.2-7-0.7-8.5-4.5s0.1-7.1,3-9.5c2.6-2.1,5.5-3.9,8.4-5.4c2.1-1.1,2.2-2,1.3-4
			c-2-4.5-4-9-5.1-13.7c-0.7-2.7-0.2-6,0.5-8.8c0.8-3.1,3.4-4.9,6.8-5c3-0.1,5.6,1.8,6.8,5c0.7,2.1,0.9,4.4,1.5,6.6
			c1,3.7,1.9,7.4,3.2,10.9c0.4,1.1,2,1.7,3,2.6c1.1-1.4,2.9-2.8,3-4.4c0.5-5.1,0.1-10.4,0.5-15.5c0.4-4.5,1.1-9,2.2-13.4
			c0.6-2.2,2.2-4.5,3.8-6.2c4.2-4.3,10.7-3.4,13.2,2c1.3,2.8,2.1,6.2,1.8,9.2c-0.8,6.5-2.5,12.8-3.8,19.2c-0.2,1.1-0.5,2.2-0.2,3.7
			c0.8-0.7,1.6-1.3,2.3-2.1c5.4-5.5,10.8-11.1,16.3-16.5c2.1-2,4.4-3.8,6.9-5.3c1.7-1,3.9-1.8,5.9-2c5.8-0.6,9.6,4.7,7,9.9
			c-1.5,2.8-3.8,5.3-6.1,7.6c-2.2,2.2-4.8,3.9-7.2,5.9c-0.7,0.5-1.3,1.2-1.7,2.4c1.2,0,2.4,0,3.6,0c2.3,0.1,4.6-0.1,6.7,0.4
			c3.1,0.7,5.1,2.8,5.6,6s-0.8,5.8-3.4,7.5c-1.7,1.1-3.6,1.8-5.5,2.3c-7.1,2.2-14.3,4.3-21.4,6.3c-2.1,0.6-3.1,1.7-3.3,3.7
			c-0.1,1.9-0.5,3.8-0.6,5.7c-0.2,4.2,1.5,7.5,5.1,9.6c8.5,4.9,17.5,8.5,27.3,9.8c5.1,0.6,8,3,8.3,7c0.4,4.1-2.4,7.9-7,9.1
			c-1.8,0.5-3.8,0.8-5.6,0.6c-7.6-1.2-15.4-2-22.7-4.1c-9.7-2.7-17.2-8.5-20.8-18.4C1086.8,224.9,1086.6,224.6,1086.1,223.7z"/>
		<path d="M158.4,214.9c0.4,2.7,0.8,5.3,1.4,7.9c0.1,0.4,1.2,0.9,1.8,0.9c9-0.7,17.9-1.4,26.9-2.2c0.6-0.1,1.3-0.1,1.9-0.1
			c4.3,0,7.6,2.4,8.5,6.2c0.9,3.9-0.9,7.9-4.9,9.6c-4.5,1.9-9.2,3.5-13.9,4.8c-5.4,1.5-11,2.6-16.5,3.7c-1.9,0.4-2.6,1-2.6,3
			c-0.1,12.2-2.8,24-6.4,35.5c-0.8,2.6-1.9,5.1-3.3,7.4c-1.6,2.7-4.2,3.6-6.7,3c-2.6-0.7-4.4-2.7-4.3-5.9c0.1-5.8,0.6-11.6,0.9-17.4
			c0.2-3.3,0.4-6.6,0.6-10.5c-1.2,0.9-1.9,1.5-2.5,2c-7.5,7-16.3,12.1-25.4,16.8c-0.3,0.2-0.7,0.3-1,0.5c-4.2,1.9-7.9,1.2-10-1.9
			c-2.2-3.1-1.5-6.9,2.1-10.2c5.5-5.1,11.2-10.1,16.8-15.2c0.5-0.5,1-1,1.9-1.8c-1.2-0.2-2-0.2-2.7-0.4c-2.4-0.4-4.9-0.6-7.2-1.4
			c-8.5-2.8-12.2-10.4-9.4-18.9c2.2-6.5,5.9-12.2,10-17.7c0.8-1,1.1-2.5,1.1-3.8c0-2.8,1-5,3.2-6.6c1.7-1.2,3.6-2.2,5.5-3
			c10.8-4.3,22-7.1,33.7-7.4c4.8-0.1,9.8,0.8,14.5,1.7c3.6,0.7,5.9,3.1,6.4,7c0.4,3.8-1.3,6.7-4.7,8.2c-4.3,2-8.7,3.5-13.1,5.2
			C160.1,214.5,159.3,214.6,158.4,214.9z M121.2,230c0.6,0.3,0.7,0.5,0.9,0.4c7.3-1.3,14.6-2.5,21.9-3.9c0.5-0.1,1.1-0.8,1.1-1.3
			c0.4-2.8,0.6-5.7,0.9-8.6c-6.2,0-12,0-17.9,0c-0.5,0-1.2,0.5-1.5,0.9C124.8,221.8,123,225.9,121.2,230z"/>
		<path d="M845.1,181.6c0.1-11.6,2.1-23,5.1-34.1c0.7-2.6,1.9-5.2,3.3-7.4c2.5-4,6.1-5,10.6-3.6c1.1,0.3,2.7,0.2,3.7-0.4
			c7-3.8,14.4-4.9,22.2-3.6c8,1.3,13.8,5.8,17.2,13.2c3.6,7.9,4.2,16.3,3.7,24.8c-0.7,11.2-3.1,22.1-6.4,32.8
			c-0.7,2.2-1.7,4.5-2.9,6.4c-3.5,5.6-9.8,5.8-13.7,0.6c-1.1-1.4-2.1-1.6-3.7-1.3c-6.7,1.3-13.4,2.5-20.1,3.8
			c-8.3,1.6-15.3-3.1-16.8-11.4c-0.8-4.3-1.5-8.6-2-12.9C844.8,186.2,845.1,183.9,845.1,181.6z M880.2,166.4L880.2,166.4
			c2.2,0,4.4-0.1,6.5,0c1.4,0,2.4-0.5,2.3-2c-0.3-4-0.4-8-1.2-11.9c-0.3-1.4-2.3-3.3-3.5-3.4c-3.8-0.2-7.7,0.3-11.5,0.8
			c-1.7,0.2-2.2,1.6-2.1,3.3c0.2,3.6,0.4,7.2,0.5,10.9c0.1,1.7,0.8,2.5,2.5,2.4C875.9,166.3,878.1,166.4,880.2,166.4z M867.8,196.1
			c0.6,0.2,0.9,0.4,1.1,0.4c5.9-1.1,11.7-2.2,17.6-3.5c0.8-0.2,1.7-1.6,1.8-2.5c0.3-2.9,0.3-5.8,0.4-8.7c0.1-2.1-0.8-2.8-2.8-2.4
			c-3.7,0.7-7.3,1.3-11,1.9c-4.3,0.8-4.3,0.8-5,4.9c-0.2,1.4-0.5,2.9-0.8,4.3C868.8,192.3,868.3,194.2,867.8,196.1z"/>
		<path d="M957.9,183.6c-2.3-0.2-4.5-0.3-6.7-0.7c-4.1-0.8-6.8-3.6-7.3-7.1s1.2-7.2,5.2-8.7c4.5-1.7,9.3-2.9,14.1-3.8
			c4.9-1,6.7-2.4,7.4-7.4c0.5-3.1,0.7-6.3,1.2-9.5c0.3-2.3-0.5-3-2.8-3.1c-6.3-0.2-12.7-0.4-19-1.2c-3.5-0.4-7-1.3-10.2-2.8
			c-7.8-3.6-8.4-12.4-1-16.7c3.9-2.3,8.5-3.9,12.9-4.8c6.6-1.4,13.4-2.2,20.2-2.9c2.8-0.3,3.8-1.4,3.9-4c0-3,0-6.1,0.6-9
			c0.6-2.7,1.6-5.5,3.1-7.7c3.2-4.7,8.8-4.7,12.4-0.2c2.6,3.2,3.5,7,3.7,10.9c0.1,2.3,0.1,4.6-0.3,6.8c-0.5,2.6,0.1,3.8,2.9,4.1
			c4.1,0.4,8.1,1.2,12.1,2c2,0.4,4.1,1.1,5.8,2.1c5.9,3.6,6.1,11.4,0.4,15.2c-2,1.3-4.4,2.2-6.8,2.7c-5.8,1.4-11.7,2.6-17.6,3.8
			c-1.8,0.4-2.9,1.1-3.3,3c-1,5.1-2.1,10.1-3.2,15.2c-0.5,2.1,0.9,2,2.2,1.9c4.1-0.2,8.2-0.5,12.2-0.6c2.1,0,4.2,0.2,6.2,0.7
			c4.6,1.3,6.2,6.3,2.9,9.8c-1.3,1.4-3.2,2.7-5,3c-14.8,3-29.6,5.8-44.4,8.6c-0.6,0.1-1.3,0.1-1.9,0.1
			C957.9,183.5,957.9,183.6,957.9,183.6z"/>
		<path d="M1330.4,224.3c2.3-2.5,4-4.4,5.8-6.1c1.4-1.3,2.8-2.7,4.5-3.5c1.2-0.5,3.2-0.6,4.2,0.1c0.9,0.6,1.4,2.6,1.2,3.8
			c-0.4,2.2-1.3,4.3-2.2,6.4c-1.5,3.4-3.1,6.8-4.8,10.1c-0.8,1.6-0.8,2.9,0.3,4.3c2.2,2.8,4.4,5.7,7.1,9.1c0.8-2,1.3-3.2,1.8-4.4
			c0.6-1.7,1.8-3.1,3.6-2.6c1.2,0.4,2.6,1.8,2.9,3c0.6,2.6,0.8,5.4,0.6,8.1c-0.5,5.9-5.6,9.7-11.8,9.1c-4.2-0.4-7.6-2.5-10.5-5.4
			c-1-0.9-1.6-2.2-2.8-3.7c-1.2,1.7-1.8,2.6-2.3,3.5c-4.8,9-10.3,17.6-16.9,25.4c-1.3,1.6-2.8,3.1-4.5,4.3c-2.5,1.7-5.4,1.7-7.9-0.1
			c-2.6-1.8-3.5-4.4-2.9-7.4c0.4-1.7,1.1-3.3,1.8-4.8c5.6-11.6,12.8-22.2,20.4-32.5c1.6-2.1,1.5-3.7,0.5-6.1
			c-3.4-8.2-6.6-16.5-9.6-24.9c-0.8-2.2-1.7-2.9-4.1-2.8c-10.1,0.5-20.2,0.9-30.2,1.1c-2.4,0.1-4.9-0.4-7.3-0.9
			c-3.4-0.7-5.4-2.8-5.5-5.3c-0.2-3.1,1.7-5,4.3-6c2.9-1.2,5.9-2.4,9-3c8.4-1.7,16.8-3.2,25.2-4.6c2.5-0.4,3-1.3,2.7-3.7
			c-0.7-7.5-1.2-15-1.5-22.5c-0.1-2,0.7-4.1,1.6-6c0.5-1,2.1-2.1,3.1-2c0.9,0.1,2.2,1.6,2.4,2.7c2.1,8.5,3.9,17,5.9,25.5
			c1.1,4.4,1.2,4.2,5.8,4.2c7.3,0.1,14.5,0.5,21.8,0.9c1.1,0.1,2.2,0.3,3.2,0.7c2.9,1,4.8,3.4,4.9,6.2c0.1,3.2-1.4,5.4-4.3,6.7
			c-1.6,0.7-3.3,1.2-4.9,1.5c-5.4,1-10.7,2-16.1,2.8c-2.3,0.3-2.8,1.1-1.8,3.2C1325.7,213.5,1327.9,218.6,1330.4,224.3z"/>
		<path d="M168.3,119.9c-22.2,0.4-44.1,4-66,7.8c-2.6,0.5-5.9,0.1-7.5,1.6c-1.4,1.4-0.7,4.8-1.4,7.2c-1.4,5.2-3,10.3-4.7,15.3
			c-1.2,3.4-2.8,6.7-4.1,10.1c-1.3,3.1-3.3,4.7-6.1,4.4c-2.7-0.3-5-2.3-5.2-5.5c-0.7-12.4,0.3-24.4,7.7-35c2.2-3.2,4.8-6.3,7.4-9.1
			c2.8-3,7-5.5,11-6.7c10.1-3.1,20.4-6.3,30.8-7.9c16.8-2.7,33.8-4.6,50.9-6c7.6-0.6,15.4,0.3,23,1.3c4,0.5,8.1,2.3,11.5,4.5
			c7.9,5,10.8,15.5,7.1,24.1c-2.2,5.2-6.2,8.4-11.7,9.8c-6.2,1.5-10.7-2.4-10.1-8.7c0.2-1.7-0.5-2.4-1.8-3.2
			c-5.2-2.8-10.8-3.8-16.5-4.1C177.9,119.7,173.1,119.9,168.3,119.9z"/>
		<path d="M362.2,253.3c-3.5-3.1-6.8-6.2-10.2-9.2c0.2-0.3,0.4-0.5,0.7-0.8c-1,0.9-2,1.8-3.1,2.6c-2.2,1.4-4.5,1.6-6.6,0.1
			c-2.3-1.6-2.9-3.9-2.2-6.5c0.3-1.1,0.8-2.3,1.4-3.2c7.3-10.7,14.8-21.4,24.2-30.4c3.2-3.1,5.4-3.9,7.6-2.6
			c2.3,1.3,3.3,4.3,1.6,8.3c-2,4.8-4.6,9.2-7,13.8c-0.8,1.5-2,2.8-3.2,4.5c3.7,1.8,7.2,3.6,10.8,5.3c0.4,0.2,1.3-0.1,1.6-0.5
			c2.6-3.7,5.2-7.6,7.8-11.3c-0.2-0.2-0.3-0.5-0.5-0.7c-2.1,0-4.3,0.2-6.4-0.1c-1.5-0.2-3.5-0.9-4-2s0.1-3.4,1.1-4.4
			c5.2-5.4,11.6-8.2,19.1-7.5c5.7,0.5,9.5,5.3,10,11.3c0.5,5-0.6,9.8-2.7,14.3c-1.6,3.6-3.4,7-5.4,10.4c-0.8,1.4-0.7,2.2,0.6,3.1
			c5.2,3.8,10.5,7.6,15.6,11.5c2,1.5,4,3.2,5.5,5.2c2.7,3.7,3,7.8,0.4,11.8c-2.6,3.9-6.6,5.3-11,4.2c-2.7-0.6-5.2-2-7.7-3.4
			c-6.5-3.5-12.8-7.3-19.3-10.8c-0.7-0.4-2.2-0.1-2.7,0.5c-8,7.7-17.3,13.6-26.7,19.3c-1.9,1.2-4,2.2-6.2,2.7
			c-5.1,1.2-9.6-1.7-10.6-6.5c-1-4.7,2.3-9.5,7.1-10.8c1.7-0.5,3.6-1.3,4.9-2.5c5-4.7,9.8-9.7,14.7-14.6
			C361.9,254,362.1,253.6,362.2,253.3z"/>
		<path d="M969.7,250.7c-0.2,0-0.4-0.1-0.5,0c-8.7,7-19.2,6.1-29.4,6.6c-1.6,0.1-3.3-0.5-4.7-1.2c-3.3-1.6-5.2-4.3-5.2-8
			c0-3.6,1.9-6.3,5.1-7.8c2-0.9,4.4-1.5,6.6-1.5c4.1-0.1,8.2,0.5,12.2,0.6c3.4,0.1,6.9-0.4,10.3-0.2c2.6,0.1,5.1,0.9,8.1,1.4
			c0.1-0.2,0.4-1.2,0.6-2.2c0.6-3.4,1.1-6.8,1.6-10.2c0.6-3.8,0.4-3.8-3.4-3.5c-8.4,0.5-16.8,1-25.3,1.1c-2.7,0-5.6-0.8-8.1-2.1
			c-5.9-3.1-6.3-10.3-0.7-14c2.4-1.6,5.4-2.6,8.3-3.4c10.1-2.6,20.4-3.4,30.8-3.3c2.4,0,3.8-0.7,4.8-3c0.8-1.7,2-3.3,3.4-4.5
			c3.3-2.9,9.9-1.7,9.5,3.8c-0.1,2.1,1.1,2.8,3.1,2.6c2.9-0.3,5.8-0.5,8.7-0.5c4.6,0,7.8,2.4,8.6,6.1c0.8,3.9-1.2,7.5-5.6,9.1
			c-3,1.1-6.1,2-9.2,2.5c-2.8,0.5-3.5,1.7-3.4,4.4c0.6,16.4-3.1,31.8-11.5,45.9c-2.6,4.3-5.8,8.3-9.2,12c-2.8,3.1-6.7,4.7-11,4.5
			c-6.6-0.3-12.2-6.1-12.1-12.7c0.1-6.3,4.6-8.9,10.1-6c0.6,0.3,2.1,0.1,2.2-0.2c2-5.2,3.8-10.5,5.7-15.8
			C970,251,969.8,250.8,969.7,250.7z"/>
		<path d="M358.4,131.2c2.4,0.1,4.1,0.4,5.8,0.3c10.3-0.9,20.6-2,30.9-2.9c2.1-0.2,2.6-1,2.7-3.1c0.2-2.6,0.7-5.3,1.8-7.6
			c2.1-4.5,7-5.8,11.3-3.3c1.5,0.9,2.9,2,3.9,3.3c7.6,9.2,10.3,19.8,8.5,31.6c-0.6,3.6-2.3,6.7-5.6,8.6c-4.9,2.8-9.4,0.6-10.3-4.9
			c-0.2-0.9-0.4-1.8-0.9-2.5c-1.1-2-2.5-3.8-3.6-5.8c-1.1-1.9-2.1-3.8-3.3-5.9c-0.7,0.2-1.5,0.4-2.2,0.7
			c-11.9,4.5-24.1,8.1-36.7,10.2c-3.9,0.6-8.1,0.7-11.9,0c-9.9-2-15-10.8-11.9-20.4c1.2-3.8,3-7.5,5.2-10.8
			c3.9-5.8,8.3-11.3,12.7-16.7c1.5-1.8,3.6-3.3,5.7-4.5c2.2-1.3,4.7-1.4,6.9,0.4c2,1.7,2.5,4.1,1.6,6.5c-2.2,5.9-4.7,11.6-7,17.5
			C360.9,124.8,359.8,127.7,358.4,131.2z"/>
		<path d="M709.1,160.3c4.5-0.7,8.6-1.3,12.7-1.9c1.1-0.2,2.1-0.5,3.2-0.7c2-0.4,3.9-0.2,5,1.8c1.2,2.1,0.3,4.1-1.5,5.2
			c-3,1.9-6.2,3.7-9.6,5c-3,1.1-6.4,1.3-9.5,2.2c-1,0.3-2.1,1.3-2.4,2.3c-1.7,5.4-3.1,10.8-4.8,16.2c-0.6,2-1.6,4.1-2.9,5.8
			c-3,3.8-8.2,3.5-10.9-0.5c-0.9-1.3-1.6-2.9-1.9-4.5c-5.4-22.1-3.7-43.8,3.8-65.1c2-5.5,4.8-10.7,9.1-14.7c2.1-2,4.5-3.8,7.2-4.7
			c5.5-2,9.9,2,8.8,7.8c-1.3,6.9-2.7,13.7-4,20.6c-0.2,0.8-0.1,1.6-0.2,2.6c1.7,0,3.3,0.1,4.9,0c3.2-0.2,6.3-0.7,9.5-0.9
			c1.5-0.1,3.1,0.1,4.5,0.7c3.3,1.3,3.8,5,1,7.2c-1.3,1-3.1,1.6-4.7,2c-4.7,1.1-9.4,2-14.1,2.9c-1.6,0.3-2.4,0.9-2.4,2.6
			C709.7,154.6,709.4,157.1,709.1,160.3z"/>
		<path d="M1336.1,157.6c0.5-0.9,0.8-1.9,1.4-2.8c1.9-2.7,3.5-5.8,5.9-8c3.3-3,7-1.8,8.2,2.5c2.7,10.5,1.8,20.7-2.9,30.5
			c-1.3,2.7-3.8,4.2-6.9,3.9c-3.2-0.3-5.2-2.3-5.9-5.3c-0.7-3-1-6-1.6-9.5c-1.4,0.6-2.7,1-3.8,1.7c-2.6,1.6-5,1.2-7.4-0.5
			c-4.2-3.1-5.8-8.2-4-13.9c0.9-2.9,2.1-5.6,3.3-8.4c0.9-1.9,0.8-3-1.5-3.8c-5.3-2-8-5.9-7.5-11.6c0.8-9.8,5-18.1,12.4-24.7
			c1.4-1.2,3.2-2.2,5-2.7c3.7-1.2,6.6,1.4,5.6,5.1c-0.8,3-2.2,5.7-3.4,8.6c-1.6,3.6-3.5,7-4.9,10.6c-0.5,1.2-0.4,3.3,0.4,4
			c1.6,1.4,2.5-0.6,3.7-1.5c3-2.4,6.1-4.8,9.4-6.7c1.9-1.1,4.3-1.2,6.1,0.6c1.6,1.7,0.9,3.6,0.1,5.3c-1.1,2.6-2.3,5.1-3.5,7.7
			c-2.6,5.3-5.3,10.6-7.9,15.9c-0.4,0.9-0.6,1.8-0.9,2.7C1335.6,157.4,1335.9,157.5,1336.1,157.6z"/>
		<path d="M1274.4,132.2c1.8-1.1,3.6-2.4,5.5-3.3c1.5-0.7,3.2-1.3,4.9-1.4c3.4-0.2,5.5,2.7,4.2,5.8c-1,2.5-2.4,4.9-3.7,7.3
			c-3,5.8-6.2,11.5-9.1,17.4c-0.6,1.2-0.6,2.8-0.9,4.2c0.3,0.1,0.7,0.2,1,0.3c0.4-0.8,0.8-1.6,1.1-2.4c1-2.5,1.8-5.1,3.1-7.5
			c1.2-2.2,3.3-3.5,5.9-3.1s3.9,2.2,4.6,4.5c2.5,8.3,1.8,16.5-1.4,24.6c-0.9,2.4-2.8,3.8-5.5,3.7s-4.3-1.7-5.3-4
			c-0.6-1.5-0.9-3.5-2-4.3c-1-0.7-2.9,0.2-4.5,0.2c-1.9,0-3.8-0.2-5.7-0.3c-6.1-0.4-9.8-4.1-9-10.2c0.7-5.2,2.4-10.2,4-15.2
			c0.7-2.1,0.9-3.2-1.3-4.6c-3.8-2.3-5.9-6.1-5.8-10.5c0.2-7.8,2.3-15.2,8.4-20.5c2.3-2,5.3-3.6,8.3-4.4c4.5-1.2,7.3,1.8,6.2,6.4
			c-0.8,3.3-2.1,6.4-2.9,9.6c-0.6,2.4-0.8,4.9-1.2,7.3C1273.8,132,1274.1,132.1,1274.4,132.2z"/>
		<path d="M147.8,79.4c0,3.2,0,6.3,0,9.5c0,1.4-0.1,2.7-0.3,4.1c-1.2,6-6.7,8.4-11.8,5c-1.6-1-3.1-2.4-4.1-3.9
			c-2.9-4.9-6-9.8-8.3-15c-4.2-9.4-3.7-18.9,0.3-28.3c1.5-3.4,4.4-5.4,8.1-5.6c3.5-0.2,5.7,1.8,7.5,4.6
			C145.7,60.2,147.5,66.8,147.8,79.4z"/>
		<path d="M781.3,263.7c-0.4,5.3-0.5,9.2-1.2,13.1c-0.4,2.4-1.4,4.9-2.9,6.9c-2.3,3-5.7,3.9-9.3,2.7c-3.5-1.2-5.6-3.8-5.8-7.5
			c-0.7-10.7-1.4-21.3-1.9-32c-0.1-3.4,0.1-6.9,0.8-10.3c1.3-5.9,7.2-7.7,11.4-3.4c2.4,2.4,4.2,5.7,5.4,8.9
			c1.4,3.4,2.1,7.2,2.6,10.8C781.1,256.9,781.1,261,781.3,263.7z"/>
		<path d="M191.2,176.1c0,5.3-3.7,8.7-8.1,7.3c-11.8-4-21.7-10.7-26.6-22.8c-1.7-4.2-2.1-8.7-0.9-13.1c1-3.8,3.1-6.6,7.2-7.3
			c4.1-0.6,6.7,1.7,8.7,4.9c3.2,5.4,6.2,10.9,9.6,16.2c1.5,2.3,3.5,4.4,5.5,6.3C189.1,170.2,191.1,173,191.2,176.1z"/>
		<path d="M701.4,268.7c1.8-6.5,3.1-13.1,5.5-19.3s5.8-12.1,8.8-18.1c0.4-0.9,1.1-1.7,1.7-2.5c2.3-3.1,4.9-4.2,7.4-3.3
			s3.7,3.4,3.4,7.3c-0.8,9.1-3.6,17.6-7.3,25.8c-0.5,1.2-0.6,2.8-0.3,4c1.2,5.1-6.5,14.8-11.7,14.6C704.7,277,702,273.7,701.4,268.7
			z"/>
		<path d="M395,168.4c3.3,0.8,6.9,1.1,10,2.5c5.9,2.7,11.6,5.9,17.2,9.3c3.3,2,4.7,5.5,3.9,9.5c-0.7,3.2-2.6,5.5-5.9,6.1
			c-1.5,0.3-3.5,0.4-4.7-0.4c-3.3-2.3-6.9-2.5-10.6-3c-7.1-1-13.1-4-18.2-9c-2.5-2.4-4.6-5.1-3.4-8.9c1.2-3.8,4.6-4.8,8.1-5.5
			c1.2-0.2,2.3-0.2,3.5-0.3C395,168.7,395,168.5,395,168.4z"/>
		<path d="M1276.7,240.8c-1.6,3-3.1,5.9-4.6,8.8c-0.6,1-1.1,2.1-1.8,3c-2.2,3.1-5.6,4.1-8.6,2.6s-4.1-4.9-2.8-8.5
			c0.8-2.1,1.8-4.1,2.8-6.2c2.8-5.8,5.4-11.7,8.4-17.4c1.6-2.9,3.8-5.5,6.1-8c1.1-1.2,2.8-2.1,4.4-2.5c3.7-0.8,6.1,1.8,5,5.4
			c-0.8,2.8-2.1,5.4-2.9,8.2c-0.3,0.9-0.1,2.4,0.5,3.1c2.5,2.8,5.4,5.4,7.9,8.1c1.4,1.5,2.8,3.1,3.6,5c1.3,2.9-0.2,5.3-3.3,5.2
			c-2.5-0.2-5.1-0.8-7.4-1.9C1281.4,244.5,1279.2,242.6,1276.7,240.8z"/>
		<path d="M369.5,173.2c-0.6,1.7-1.3,5.1-3.1,7.8c-2.7,3.9-5.9,7.6-9.4,10.8c-4.6,4.2-9.7,8-14.6,11.8c-3.2,2.5-6.7,2.6-9.2,0.3
			s-3-6-0.5-9.1c6.8-8.6,13.9-17,21-25.3c1.5-1.7,3.6-3.1,5.7-4.1C364.4,162.8,369.4,166,369.5,173.2z"/>
		<path d="M144.5,151.9c-0.6,5.7-2.3,11.3-6.1,15.8c-4.8,5.7-10.3,11-15.7,16.1c-2.6,2.5-5.6,2.4-8,0.8c-2.3-1.6-3.4-4.6-2.2-7.8
			c4-10.2,8.3-20.4,16.6-28.1c1.4-1.4,3-2.7,4.7-3.7c2.5-1.5,5.1-1.9,7.7-0.2C143.9,146.4,144.5,148.9,144.5,151.9z"/>
		<path d="M1356.1,172.3c-0.1-1.8,0.4-4.1,3.1-5c2.2-0.8,4.5,0.3,6.1,3c1.2,2.1,2.3,4.4,2.9,6.7c1.6,5.9,3,11.8,4.3,17.7
			c0.8,3.8-0.7,6.5-3.6,7.3s-5.4-0.9-6.8-4.4C1359.1,189.6,1356.6,181.6,1356.1,172.3z"/>
	</g>
</g>
</svg>
