<?xml version="1.0" standalone="no"?>
<!DOCTYPE svg PUBLIC "-//W3C//DTD SVG 20010904//EN"
 "http://www.w3.org/TR/2001/REC-SVG-20010904/DTD/svg10.dtd">
<svg version="1.0" xmlns="http://www.w3.org/2000/svg"
 width="896.000000pt" height="1280.000000pt" viewBox="0 0 896.000000 1280.000000"
 preserveAspectRatio="xMidYMid meet">
<g transform="translate(0.000000,1280.000000) scale(0.100000,-0.100000)"
fill="#ffffff" stroke="none">
<path d="M7426 12784 c-17 -10 -40 -14 -57 -10 -20 4 -31 1 -38 -12 -7 -12
-21 -16 -50 -16 -24 1 -42 -4 -45 -11 -2 -7 -26 -25 -53 -39 -26 -15 -58 -42
-71 -61 -14 -23 -30 -35 -45 -35 -18 0 -26 -10 -40 -51 -10 -28 -34 -68 -53
-88 -19 -21 -34 -46 -34 -55 0 -10 -14 -23 -32 -30 l-31 -14 24 -15 c13 -9 40
-23 59 -31 61 -25 89 -54 105 -108 22 -75 17 -91 -9 -32 -24 53 -88 114 -119
114 -23 0 -74 -26 -84 -44 -4 -7 -46 -33 -93 -56 -78 -39 -92 -43 -200 -51
-192 -15 -245 -27 -340 -77 -168 -89 -196 -101 -270 -119 -53 -12 -94 -30
-137 -60 -34 -23 -77 -49 -95 -57 -51 -22 -158 -128 -158 -156 0 -13 -7 -32
-16 -42 -13 -14 -14 -21 -5 -32 13 -16 -1 -56 -19 -56 -4 0 -13 -15 -19 -33
-6 -18 -32 -53 -57 -78 -29 -28 -61 -77 -90 -134 -24 -50 -44 -94 -44 -98 0
-4 -29 -48 -65 -97 -81 -109 -106 -165 -113 -248 -4 -55 -2 -67 13 -78 21 -15
25 -8 -77 -121 -39 -42 -48 -59 -48 -88 0 -32 -9 -46 -59 -97 -43 -44 -68 -61
-91 -64 -57 -7 -107 -24 -135 -46 -42 -33 -85 -98 -85 -128 0 -34 -14 -46 -62
-55 -20 -4 -45 -17 -56 -28 -19 -21 -67 -132 -137 -320 -38 -101 -86 -178
-160 -257 -72 -77 -141 -168 -158 -210 -7 -19 -31 -57 -51 -85 -32 -44 -92
-163 -111 -220 -6 -19 -7 -19 -19 4 l-14 24 -12 -24 c-7 -13 -24 -37 -39 -52
l-26 -29 22 -18 c16 -13 23 -29 23 -54 0 -20 -5 -36 -11 -36 -6 0 -9 9 -6 20
3 11 2 20 -2 20 -10 0 -24 -32 -41 -92 -10 -35 -20 -48 -37 -53 -13 -3 -23
-11 -23 -17 0 -7 -6 -4 -13 5 -14 20 -28 12 -45 -26 -19 -43 -15 -51 38 -82
28 -16 50 -32 50 -35 0 -3 -19 -5 -42 -5 -41 0 -42 -1 -51 -40 -16 -65 -42
-95 -85 -95 -45 0 -82 -24 -82 -52 0 -12 -19 -40 -44 -64 -46 -44 -106 -121
-106 -136 0 -4 13 -8 30 -8 38 0 89 45 104 91 8 23 18 35 34 37 25 4 27 -6 12
-58 -18 -61 -34 -73 -113 -85 -70 -10 -73 -12 -94 -50 -12 -22 -22 -44 -22
-48 -1 -5 33 -7 74 -5 41 2 75 1 75 -2 0 -3 -29 -22 -65 -43 -69 -40 -106 -88
-130 -170 -9 -31 -18 -43 -34 -45 -26 -4 -54 -43 -45 -65 3 -10 -2 -20 -14
-26 -11 -6 -32 -32 -46 -58 -28 -48 -24 -62 17 -63 16 0 16 -4 -6 -42 -14 -24
-30 -61 -37 -83 -18 -54 -87 -135 -122 -142 -30 -6 -35 -23 -18 -67 7 -18 21
-28 52 -36 62 -15 127 -40 133 -50 3 -5 -6 -5 -22 0 -103 32 -255 70 -263 65
-6 -3 -10 -13 -10 -21 0 -8 -7 -14 -16 -14 -11 0 -14 -6 -9 -20 5 -17 2 -20
-26 -20 -26 0 -87 -30 -138 -67 -2 -1 2 -9 9 -18 16 -19 -2 -69 -33 -90 -19
-13 -19 -15 -3 -40 18 -27 34 -29 79 -10 10 4 17 3 17 -4 0 -6 -9 -11 -20 -11
-11 0 -29 -9 -41 -21 -16 -16 -20 -31 -18 -77 1 -31 -2 -65 -6 -75 -6 -14 -2
-20 14 -24 20 -5 20 -6 -11 -52 -17 -25 -45 -66 -62 -91 -22 -32 -33 -63 -39
-110 -11 -88 -11 -87 -4 -234 5 -96 10 -133 22 -146 12 -13 13 -23 6 -44 -9
-23 -16 -26 -56 -26 l-46 0 3 -52 c3 -52 4 -53 35 -56 18 -2 41 2 53 8 28 15
38 -12 16 -45 -9 -13 -16 -33 -16 -43 0 -10 -9 -27 -20 -37 -24 -21 -26 -40
-5 -31 8 3 22 9 30 12 13 5 14 -7 9 -94 l-7 -100 28 -4 27 -3 -21 -26 c-11
-15 -34 -29 -51 -33 -26 -5 -30 -9 -25 -27 5 -14 1 -25 -11 -33 -19 -15 -51
-95 -64 -166 -17 -86 -23 -103 -42 -108 -10 -2 -20 -14 -22 -26 -20 -109 -26
-156 -23 -184 3 -25 2 -30 -8 -22 -9 8 -16 -9 -30 -71 -9 -45 -25 -100 -35
-123 -10 -22 -24 -70 -30 -106 -6 -36 -18 -77 -26 -93 -23 -42 0 -32 45 21 33
39 42 44 51 32 5 -8 10 -24 10 -36 0 -22 -41 -45 -110 -62 -33 -8 -36 -12 -53
-78 l-18 -69 24 -20 c14 -11 32 -34 41 -52 9 -19 36 -43 64 -59 141 -80 271
-181 297 -231 9 -18 20 -33 25 -33 21 0 44 -69 51 -155 4 -49 12 -114 19 -142
12 -56 47 -108 56 -85 9 19 20 14 32 -13 15 -33 15 -42 0 -27 -15 15 -45 16
-53 2 -4 -6 10 -37 30 -70 25 -42 34 -66 30 -81 -5 -14 0 -28 14 -43 20 -21
71 -134 71 -157 0 -6 27 -65 60 -130 72 -142 78 -185 30 -227 -36 -32 -37 -51
-5 -120 13 -29 22 -59 19 -66 -3 -8 47 -85 115 -178 67 -89 128 -174 137 -187
9 -13 40 -34 69 -47 29 -12 56 -28 60 -33 3 -6 36 -32 72 -58 62 -44 66 -46
79 -28 9 12 12 36 8 79 -4 45 -3 57 5 46 6 -8 11 -36 11 -62 0 -38 6 -53 35
-88 19 -23 35 -45 35 -48 0 -4 7 -15 14 -25 14 -17 16 -18 40 -2 30 20 59 13
74 -19 14 -32 5 -38 -30 -20 -16 8 -34 14 -40 12 -6 -2 26 -25 72 -51 57 -33
87 -44 94 -37 17 17 33 11 32 -11 -1 -17 18 -32 92 -73 128 -71 159 -98 192
-170 15 -33 44 -77 65 -96 46 -44 61 -72 70 -135 11 -71 42 -151 75 -188 44
-51 60 -92 86 -216 16 -73 38 -143 61 -191 l36 -75 -11 -90 c-9 -72 -15 -93
-32 -104 -11 -7 -20 -23 -20 -34 0 -11 -9 -31 -21 -43 -26 -28 -20 -66 20
-121 39 -54 51 -96 51 -180 0 -72 1 -76 34 -109 19 -19 40 -32 48 -29 8 3 23
33 33 67 26 79 43 90 85 55 17 -15 44 -30 58 -33 78 -16 138 -47 179 -92 24
-25 43 -52 43 -59 0 -7 9 -13 20 -13 11 0 20 2 20 5 0 25 -26 115 -41 139 -24
40 -26 141 -3 174 9 13 34 34 56 48 30 19 46 41 70 92 28 63 30 72 25 156 -5
72 -3 95 10 117 16 27 16 29 -10 55 -33 32 -34 60 -5 91 18 20 20 26 10 48
-16 35 -14 260 2 304 10 28 10 48 -2 105 -20 103 -19 220 2 286 10 30 36 85
57 121 21 36 39 69 39 75 0 13 69 230 92 289 11 28 30 91 43 140 52 202 71
247 121 290 44 39 46 43 54 110 10 94 37 151 94 200 25 22 73 64 104 92 32 29
80 62 108 74 70 31 216 170 254 241 17 31 44 67 60 78 37 26 37 39 4 95 -22
38 -24 48 -15 82 16 59 37 82 82 89 49 8 115 68 153 139 15 28 38 68 51 90 14
22 25 50 25 63 0 14 11 29 29 40 51 31 102 109 110 168 6 41 14 58 34 74 15
12 27 30 27 39 0 28 45 160 72 211 17 34 30 46 50 48 39 5 78 70 88 146 4 34
13 73 18 87 8 20 7 41 -4 80 -21 82 -18 104 15 129 23 16 31 31 36 68 11 75
41 189 62 229 11 22 33 45 51 53 38 19 55 64 72 205 10 74 23 122 50 185 44
102 54 151 35 177 -20 25 -19 30 13 45 l27 14 -4 106 c-3 102 -2 108 33 194
24 59 40 117 47 171 5 45 25 143 44 216 28 106 33 143 27 173 -7 32 -4 45 15
73 13 19 23 40 23 47 0 7 9 29 21 48 15 26 20 50 18 83 -5 106 0 139 31 184
39 58 56 115 80 277 24 160 24 152 5 152 -8 0 -15 4 -15 8 0 23 40 127 50 130
20 7 100 125 100 149 0 12 -13 37 -29 55 -61 71 -83 156 -61 238 9 35 27 60
80 110 74 71 88 103 71 167 -16 57 8 140 50 173 17 14 63 53 102 88 39 34 74
62 78 62 13 0 58 78 69 121 6 24 26 59 43 77 25 26 31 40 30 73 -1 23 13 89
32 151 19 60 35 125 35 143 0 74 21 137 61 180 22 23 39 49 39 57 0 19 87 88
111 88 31 0 30 17 -3 46 -18 15 -39 40 -45 57 -16 37 -16 37 4 37 43 0 134 75
119 99 -3 4 -10 39 -16 76 -6 38 -20 83 -30 100 -25 40 -13 59 34 53 20 -2 36
-2 36 2 0 3 -18 18 -40 33 -67 47 -110 163 -110 295 0 56 -3 71 -17 76 -12 5
-13 10 -5 18 9 9 7 19 -8 43 -31 50 -38 232 -15 375 21 129 37 158 152 282 51
54 73 85 73 103 0 18 11 32 41 50 22 15 50 42 61 61 20 33 63 61 148 94 71 28
150 81 150 100 0 25 -27 51 -46 43 -8 -3 -23 2 -34 12 -16 14 -29 16 -73 11
-50 -7 -56 -5 -85 22 -33 31 -43 80 -22 112 7 11 2 22 -16 41 -23 24 -24 30
-20 127 l4 101 -31 -7 c-32 -7 -111 -7 -244 0 -62 3 -75 7 -88 26 -9 12 -22
22 -29 22 -8 0 -19 7 -26 15 -7 8 -24 15 -37 15 -15 0 -37 13 -55 32 -24 26
-31 29 -39 17 -5 -8 -9 -24 -9 -36 0 -29 -5 -29 -44 4 -17 14 -58 38 -91 53
-38 17 -72 41 -90 64 -30 38 -81 92 -126 133 -56 53 -69 71 -69 100 0 67 -18
92 -113 154 -50 32 -98 59 -106 59 -9 -1 -29 -8 -45 -16z m-5011 -7701 c-4
-10 -12 -30 -17 -45 -5 -16 -16 -28 -22 -28 -9 0 -6 14 8 45 20 42 47 66 31
28z"/>
<path d="M8749 11069 c-14 -28 0 -42 35 -33 31 7 32 15 8 37 -24 22 -29 21
-43 -4z"/>
<path d="M3784 8915 c-4 -11 -16 -32 -27 -47 -19 -26 -18 -58 2 -58 12 0 44
96 38 113 -3 7 -8 5 -13 -8z"/>
<path d="M700 6940 c0 -5 -12 -21 -27 -34 -26 -25 -27 -26 -10 -43 17 -17 19
-17 38 10 12 15 27 27 35 27 12 0 12 4 -2 25 -16 25 -34 33 -34 15z"/>
<path d="M519 6629 c-19 -26 -19 -27 1 -50 19 -22 21 -23 30 -6 15 24 30 21
67 -15 26 -25 36 -29 45 -20 7 7 20 12 30 12 29 0 21 23 -22 65 -36 35 -47 40
-87 40 -37 0 -48 -4 -64 -26z"/>
<path d="M355 6505 c-33 -50 -35 -57 -21 -71 9 -8 16 -31 16 -51 0 -30 -3 -35
-20 -30 -24 6 -27 -8 -4 -21 28 -16 5 -66 -32 -70 -32 -3 -83 -37 -72 -47 4
-4 27 0 52 8 28 10 60 13 82 10 34 -6 36 -5 25 14 -17 33 -11 92 12 104 20 11
20 19 1 108 -6 31 -5 33 15 26 21 -6 30 8 11 20 -5 3 -10 15 -10 25 0 38 -19
29 -55 -25z"/>
<path d="M663 6463 c3 -10 15 -43 26 -73 20 -54 20 -55 2 -71 -10 -8 -21 -24
-23 -35 -5 -26 -31 -24 -43 4 -8 18 -17 22 -40 20 -22 -2 -29 -8 -27 -20 2
-10 -2 -27 -8 -38 -9 -18 -8 -20 15 -20 27 0 34 -17 10 -26 -12 -5 -13 -9 -4
-21 8 -9 28 -13 58 -11 41 3 46 1 49 -20 4 -28 -15 -54 -37 -50 -9 1 -22 -1
-28 -5 -24 -15 -84 4 -93 29 -11 28 -30 32 -30 6 0 -24 27 -48 63 -57 22 -6
27 -13 27 -36 0 -27 1 -28 27 -18 15 6 42 8 60 4 37 -7 49 6 31 34 -11 18 -9
24 14 48 14 15 31 38 37 51 25 47 146 67 193 32 33 -24 36 -25 40 -2 2 9 -6
30 -19 45 -15 19 -23 42 -23 66 0 47 -5 52 -39 40 -14 -6 -42 -11 -61 -11 -19
0 -40 -4 -47 -10 -17 -14 -33 -1 -33 26 0 17 -5 23 -17 22 -12 -1 -19 7 -21
24 -3 29 -23 72 -37 82 -17 13 -28 9 -22 -9z"/>
<path d="M440 5973 c-8 -3 -23 -12 -32 -21 -10 -8 -24 -12 -33 -9 -8 4 -15 1
-15 -5 0 -17 71 -1 94 22 20 20 16 24 -14 13z"/>
<path d="M304 5536 c0 -28 -4 -61 -8 -73 -8 -21 -5 -23 27 -23 24 0 45 8 62
24 l26 24 -28 45 c-19 31 -36 46 -54 49 -24 4 -25 2 -25 -46z"/>
<path d="M905 5080 c-7 -21 9 -59 17 -44 3 5 8 21 12 37 5 20 3 27 -8 27 -8 0
-17 -9 -21 -20z"/>
<path d="M707 5054 c-9 -10 2 -24 19 -24 8 0 14 7 14 15 0 15 -21 21 -33 9z"/>
<path d="M0 4964 c0 -14 11 -39 25 -56 14 -16 25 -40 25 -53 0 -14 9 -29 20
-35 17 -9 20 -8 20 10 0 11 9 25 20 32 11 7 20 23 20 35 0 16 8 25 25 29 18 4
25 13 25 30 0 30 -11 30 -48 -1 -39 -33 -66 -32 -92 5 -26 37 -40 38 -40 4z"/>
<path d="M7100 2883 c0 -10 7 -27 15 -37 8 -11 15 -28 15 -38 0 -10 10 -22 23
-27 13 -5 29 -16 36 -25 19 -23 56 -22 46 2 -9 19 -9 33 1 79 7 38 -6 47 -83
57 -47 6 -53 5 -53 -11z"/>
<path d="M3312 1684 c-12 -8 -22 -23 -22 -33 0 -10 -7 -24 -15 -31 -8 -7 -15
-19 -15 -26 0 -27 38 -14 83 29 36 34 43 46 36 60 -12 21 -38 22 -67 1z"/>
<path d="M7278 683 c-52 -4 -58 -6 -58 -26 1 -41 19 -100 33 -109 8 -4 34 -24
57 -43 23 -19 50 -35 61 -35 11 0 29 -12 42 -27 45 -54 58 -63 87 -63 23 0 33
7 45 29 19 38 13 52 -41 90 -56 41 -66 60 -65 131 l0 57 -52 0 c-29 -1 -78 -2
-109 -4z"/>
</g>
</svg>
