<svg xmlns="http://www.w3.org/2000/svg" width="807" height="293" viewBox="0 0 807 293">
	<style>
	#title {
		filter:url(#dropshadow)
	}
</style>
<filter id="dropshadow" height="130%">
  <feGaussianBlur in="SourceAlpha" stdDeviation="8"/> <!-- stdDeviation is how much to blur -->
  <feOffset dx="2" dy="4" result="offsetblur"/> <!-- how much to offset -->
  <feComponentTransfer>
    <feFuncA type="linear" slope="0.2"/> <!-- slope is the opacity of the shadow -->
  </feComponentTransfer>
  <feMerge> 
    <feMergeNode/> <!-- this contains the offset blurred image -->
    <feMergeNode in="SourceGraphic"/> <!-- this contains the element that the filter is applied to -->
  </feMerge>
</filter>
  <g id="title" fill="#FFF" fill-rule="evenodd">
    <path d="M389.33 52.64C392.71 53.32 395.69 50.25 398.69 52.97 397.81 56.27 394.75 56.82 392.49 57.79 388.17 59.63 387.04 62.55 388.06 67.16L400.06 66.32 400.47 67.76C397.4 71.98 391.47 71.13 387.56 74.18L384.15 99.93 411.39 95.77C410.21 92.12 411.66 89.14 413.21 86.08 415.67 81.22 417.91 76.25 420.09 71.26 421.526927 68.2822274 421.486217 64.8033316 419.98 61.86 419.140697 63.4366863 418.383029 65.0554906 417.71 66.71 415.469688 73.2607808 412.046332 79.3448628 407.61 84.66 406.42 86.11 405.24 88.48 402.85 87 400.46 85.52 401.71 83.38 402.6 81.64 406.6 73.9 410.71 66.22 415.02 58.05 408.72 50.88 411.57 42.87 414.33 34.89 414.762668 33.7054731 415.398894 32.6056149 416.21 31.64 416.732095 31.1815416 417.446429 31.009503 418.12 31.18 418.752354 31.4840671 419.196549 32.0775718 419.31 32.77 419.31 34.55 419 36.33 418.74 38.77 421.28 38.37 423.52 37.89 425.74 37.69 427.81 37.51 430.14 36.83 431.84 39.8 428.43 44.48 422.21 43.97 417.84 46.8 416.84 49.68 418.36 51.55 420.47 52.74 429.47 57.88 430.87 66.79 426.89 76.55 424.89 81.36 421.77 85.69 419.05 90.17 418.14 91.67 416.92 92.98 415.05 95.41L422.8 94.71C426.6 94.37 430.4 93.87 434.2 93.71 437.42 93.61 439.2 92.41 439.72 89.08 440.33 84.79 441.21 80.54 442.06 75.82 440.25 75.65 438.87 75.54 437.5 75.4 435.23 75.17 432.44 75.69 431.88 72.45 431.53 70.45 433.64 69.24 437.7 68.98 439.32 68.88 440.95 68.79 442.57 68.66 442.72 68.66 442.86 68.46 443.57 67.96L445.57 57.89C442.19 58.56 439.57 59.05 436.98 59.61 435.05 60.03 433.22 60.07 432.51 57.8 431.86 55.69 433.15 54.19 434.85 53.41 436.838572 52.5567521 438.919016 51.9359743 441.05 51.56 442.893267 51.3130006 444.750301 51.182741 446.61 51.17 448.591845 47.318758 449.086639 42.8727306 448 38.68L439.45 40.18C439.22 39.92 438.75 39.6 438.8 39.4 439.73 35.56 443.32 33.13 448.18 32.96 451.98 32.83 454.76 34.75 455.59 38.77 456.186827 41.6124989 456.345327 44.529569 456.06 47.42 454.49 62.03 453.3 76.73 448.24 90.72 448.152695 91.3436259 448.152695 91.9763741 448.24 92.6 450.24 92.94 452.17 93.15 454.06 93.6 457.62 94.48 459.52 96.38 459.54 98.81 459.56 101.24 457.66 103.19 454.08 103.96 452.292589 104.274171 450.484246 104.454671 448.67 104.5 429.28 105.69 409.89 106.97 390.48 107.99 383.42 108.36 376.32 108.31 369.25 108.06 366.79 107.97 362.62 108.45 362.52 105.2 362.41 101.77 366.52 102.57 369.02 102.08 371.65 101.55 374.34 101.35 377.02 101 373.12 82.28 374.97 64.2 379.52 46.33 380.748918 42.1622848 382.53506 38.1796256 384.83 34.49 386.156629 32.5582109 387.943827 30.9875384 390.03 29.92 391.306688 29.3833201 392.767383 29.5222551 393.92 30.29 394.61 30.94 394.48 32.91 394.14 34.13 392.67 39.34 390.96 44.49 389.42 49.68 389.265713 50.6589625 389.235475 51.6534722 389.33 52.64zM247.06 105.15C243.65 98.42 244.06 91.77 244.56 85.34 245.56 71.58 247.19 57.86 248.56 44.12 248.76 42.12 249.31 40.2 249.67 38.23 252.3 23.77 261.34 15.75 275.34 12.78 277.100076 12.3348026 278.926352 12.212825 280.73 12.42 281.93 12.62 282.96 13.85 284.06 14.62 283.24 15.62 282.62 17.04 281.55 17.62 278.55 19.21 275.21 20.31 272.14 21.86 266.97 24.47 263.55 28.66 262.6 34.4 261.33 42.09 260.35 49.84 259.37 57.58 258.97 60.76 258.88 63.98 258.6 67.82 262.42 66.35 265.6 65 268.79 63.94 272.93 62.58 277.13 61.43 281.32 60.24 285.51 59.05 285.45 59.09 286.1 53.42 282.1 54.12 278.24 54.89 274.34 55.42 271.652546 55.844915 268.939992 56.0921182 266.22 56.16 265.32 56.16 263.83 55.41 263.65 54.73 263.356292 53.5650926 263.614407 52.3298296 264.35 51.38 265.821437 50.0416187 267.57453 49.050592 269.48 48.48 274.91 47.07 280.41 45.89 285.92 44.84 289.5 44.16 290.41 43.25 290.22 39.42 290.07 36.31 288.75 34.89 285.09 35.53 280.131781 36.5558702 275.231547 37.8443516 270.41 39.39 268.535327 40.0728121 266.69927 40.8573093 264.91 41.74 265.32 39.65 265.15 38 265.91 37.29 267.84 35.44 269.91 33.4 272.37 32.54 276.94218 30.8174802 281.707349 29.6589298 286.56 29.09 294 28.41 298.56 33.01 298.83 40.45 299.02 46.03 297.35 51.19 295.14 56.23 294.59 57.5 293.71 59.15 294.14 60.23 295.53 64.08 293.29 65.79 290.48 66.94 286.469615 68.6016876 282.35806 70.0078328 278.17 71.15 273.26 72.45 268.22 73.25 263.26 74.35 257.09 75.72 257.1 75.75 257.34 83.06 260.52 82.47 263.66 81.8 266.84 81.35 268.83056 81.1118889 270.836304 81.0249733 272.84 81.09 274.57 81.09 276.92 80.63 277.17 83.09 277.42 85.55 274.94 85.74 273.33 86.09 267.53 87.54 261.67 88.75 255.14 90.21L252.67 97.35C254.035188 97.2406659 255.391544 97.0402193 256.73 96.75 267.18 93.55 277.79 91.1 288.73 90.43 292.166514 90.191713 295.618508 90.3123652 299.03 90.79 307.75 92.09 313.03 97.79 312.44 106.46 311.44 121.4 305.31 134.13 293.55 143.73 291.552145 145.271073 289.18833 146.266907 286.69 146.62 283.24 147.12 280.86 144.17 281.4 140.74 281.7 138.82 282.4 137.42 284.85 137.34 286.204477 137.273665 287.485111 136.702909 288.44 135.74 294.9 128.22 300.05 119.94 302.44 110.19 302.86545 108.615279 303.080651 106.991182 303.08 105.36 303 102.1 301.67 100.06 298.44 99.53 294.710575 98.8142671 290.895202 98.6592255 287.12 99.07 276.52 100.58 266 102.64 255.43 104.36 252.63 104.95 249.76 105 247.06 105.15z"/>
    <path fill-rule="nonzero" d="M748.63,65.12 L746.45,60.66 C743.91,62.15 741.31,63.72 738.68,65.22 C736.33,66.56 733.82,67.15 731.52,65.37 C728.99,63.42 728.9,60.54 729.92,57.91 C731.35,54.22 733.25,50.72 735.15,46.69 C731.02,46.13 726.86,45.69 724.61,41.22 C720.28,46.04 714.53,46.8 708.91,48.63 C708.59,50.17 708.28,51.73 707.91,53.28 C707.44,55.49 708.31,56.89 710.06,58.36 C714.06,61.74 717.84,65.46 721.68,69.05 C722.413437,69.5862281 723.029402,70.2668525 723.49,71.05 C723.895217,72.3290096 724.189636,73.640513 724.37,74.97 C723.03,75.24 721.44,76.11 720.37,75.67 C717.910392,74.5274052 715.566284,73.1510786 713.37,71.56 C711.31,70.18 709.37,68.61 706.68,66.56 C706.25,71.44 705.79,75.37 705.58,79.32 C704.668551,98.9252729 702.041849,118.413057 697.73,137.56 C697.269297,139.871687 696.582668,142.132539 695.68,144.31 C695.072478,145.333316 693.989031,145.980375 692.8,146.03 C691.93,145.87 690.89,144.43 690.68,143.4 C690.466926,141.780947 690.500642,140.138941 690.78,138.53 C692.71,120.83 694.7,103.14 696.62,85.45 C697.07183,82.0241602 696.984099,78.5486804 696.36,75.15 C695.06,76.5 693.79,77.88 692.47,79.15 C690.104794,81.6603865 687.611471,84.0469006 685,86.3 C683.835968,87.0231812 682.387592,87.116988 681.14,86.55 C680.184541,85.5691833 679.760166,84.1881036 680,82.84 C680.54567,80.922715 681.422186,79.1155336 682.59,77.5 C687.44,70.25 692.4,63.08 697.31,55.88 C698.31,54.43 699.23,52.94 700.78,50.57 C697.61,51.08 695.52,51.39 693.44,51.75 C692.19,51.96 690.95,52.32 689.7,52.48 C687.7,52.74 685.44,53.07 684.54,50.69 C683.64,48.31 685.54,46.99 687.36,46.13 C690.762454,44.4142977 694.277157,42.9309062 697.88,41.69 C701.08,40.69 702.53,38.87 703.09,35.69 C703.770396,32.3032135 704.665536,28.9631364 705.77,25.69 C706.23861,24.1253692 706.911047,22.6291959 707.77,21.24 C710.42,17.06 713.58,17.31 715.84,21.8 C717.72,25.51 719.5,29.28 721.49,32.93 C722.207866,33.9964413 723.050497,34.9733557 724,35.84 C728.15,30.99 732,26.27 736.14,21.77 C737.550208,20.3404007 739.257041,19.2377867 741.14,18.54 C742.3136,18.3081085 743.528851,18.6248103 744.44,19.4 C744.91,19.81 744.72,21.5 744.28,22.31 C743.16,24.38 741.63,26.22 740.43,28.25 C738.59,31.36 736.89,34.55 735.15,37.67 C739.27,40.31 740.15,40.28 742.89,37.76 C745.17,35.69 747.37,33.5 749.83,31.67 C751.49,30.43 753.51,29.22 756.26,31.44 C750.48,40.57 742.58,48.33 738.7,58.61 C743.7,58.93 746.86,56.81 748.41,52.47 C749.022442,50.6022129 749.990198,48.8704393 751.26,47.37 C752.63,45.87 754.92,46.76 754.7,48.67 C754.04,54.34 753.18,60.02 750.36,65.05 L748.63,65.12 Z M719,35.6 C717.84,31.06 716.6,27.43 712.94,24.12 C711.65,28.81 710.42,32.78 710.77,37.45 L719,35.6 Z"/>
    <path d="M630.24 58.64C631.69 56.84 633.04 54.94 634.62 53.25 637.22 50.48 639.87 47.73 642.7 45.2 644.29 43.78 646.34 42.2 648.54 43.97 650.89 45.83 649.42 48.1 648.24 49.8 645.941277 53.0550465 643.467641 56.1829769 640.83 59.17 638.73 61.59 636.34 63.75 634.08 66.03L634.62 67.03C638.29 66.51 641.94 65.81 645.62 65.54 649.221293 65.2615568 652.838707 65.2615568 656.44 65.54 658.64 65.72 660.66 66.86 661.03 69.54 661.371609 71.763395 660.106778 73.9215395 658 74.71 655.048188 76.0674392 651.956358 77.0969314 648.78 77.78 643.09 78.86 637.31 79.47 631.36 80.31 630.223925 84.5818204 630.779115 89.1272172 632.91 93 634.91 96.88 638.7 98 642.69 97.28 646.21 96.61 649.59 95.13 652.99 93.92 655.36 93.08 657.75 91.54 659.99 94.03 661.56 95.78 660.84 98.28 657.83 101.03 652.09 106.35 645.51 109.36 637.47 107.74 631.39 106.51 626.85 103.22 624.22 97.49 623.84 96.67 623.43 95.87 623 95.09 622.93 94.96 622.69 94.93 622.2 94.69 621.37 96.18 620.62 97.75 619.68 99.2 615.62 105.426667 611.526667 111.626667 607.4 117.8 606.870341 118.539627 606.281757 119.235225 605.64 119.88 604.3 121.32 602.5 122.46 600.98 120.88 600.2 120.05 600.15 117.7 600.74 116.54 603.28 111.54 606.23 106.71 608.95 101.78 612.36 95.61 615.7 89.4 619.72 82.01 616.83 82.44 615.16 82.65 613.51 82.94 609.57 83.62 605.65 84.39 601.71 85.03 600.10961 85.3637447 598.470784 85.4747945 596.84 85.36 593.92 85.01 592.9 82.3 594.98 80.26 596.430792 78.88363 598.126749 77.7914333 599.98 77.04 605.34 74.83 610.79 72.86 616.49 70.69 613.72 68.11 610.87 65.69 608.29 62.96 606.739433 61.4411884 605.511557 59.6248839 604.68 57.62 604.314184 56.1280811 604.686083 54.5512272 605.68 53.38 607.18 52.02 608.68 53.38 609.75 54.74 613.003333 58.8733333 616.243333 63.0166667 619.47 67.17 619.865261 67.7757919 620.200196 68.418866 620.47 69.09L621.47 68.48C621.95 62.76 622.37 57.04 622.92 51.34 623.22 48.27 623.68 45.22 624.18 42.18 624.410942 40.928542 624.78333 39.7073763 625.29 38.54 626.01 36.81 627 35.16 629.23 35.44 631.81 35.77 632.23 37.91 632.23 39.93 632.258998 41.7456079 632.09474 43.5591484 631.74 45.34 630.96 49.59 630.03 53.81 629.17 58.04L630.24 58.64zM117.13 59.58C113.79 60.33 110.46 61.11 107.13 61.82 105.89 62.09 104.52 62.63 103.41 62.33 101.99 61.95 100.08 61.1 99.63 59.96 99.18 58.82 99.95 56.82 100.83 55.7 101.94157 54.5061857 103.309122 53.5796698 104.83 52.99 108.252973 51.3115354 111.768651 49.8291409 115.36 48.55 118.36 47.55 119.67 46.04 120.06 42.83 120.8 36.71 122.06 30.65 123.23 24.59 123.67 22.37 123.87 19.13 126.91 19.41 129.95 19.69 129.47 22.89 129.43 25.16 129.35 29.7 129.05 34.23 128.88 38.77 128.82 40.36 128.88 41.96 128.88 43.89 132.82 43.66 136.38 43.42 139.95 43.24 141.204507 43.0383912 142.485146 43.0654946 143.73 43.32 144.97 43.74 146.82 44.73 146.9 45.62 146.964436 47.1604185 146.301585 48.6416508 145.11 49.62 141.937623 51.3795232 138.65016 52.9230276 135.27 54.24 133.11 55.15 130.85 55.82 128.17 56.76 128.03 59.76 127.59 62.84 127.87 65.84 128.201347 67.5599322 129.077982 69.1273557 130.37 70.31 134.12 74.01 138.17 77.39 141.92 81.09 142.77 81.92 142.86 83.52 143.31 84.76 141.98 85.08 140.52 85.9 139.31 85.61 137.42116 85.0061594 135.631856 84.1266707 134 83 132.15 81.88 130.43 80.55 128.54 79.23 126.71 80.76 127.48 82.7 127.38 84.36 126.65 96.36 126.55 108.36 125.1 120.22 124.28 126.95 121.28 133.41 119.23 139.98 118.972142 140.662865 118.636604 141.313808 118.23 141.92 117.13 143.78 115.66 145.15 113.35 144.36 111.04 143.57 110.89 141.42 111.35 139.36 115.69 121.36 115.15 102.92 116.48 84.65 116.461286 83.6762885 116.384483 82.7045614 116.25 81.74 114.88 83.28 113.97 84.27 113.1 85.29 108.19 91.12 103.31 96.97 98.39 102.79 97.7668519 103.677051 96.9359965 104.398041 95.97 104.89 94.9804303 105.240817 93.8878543 105.149769 92.97 104.64 92.2134336 103.908476 91.8433124 102.864734 91.97 101.82 92.322999 100.411771 92.9555333 99.0888899 93.83 97.93 99.19 90.38 104.62 82.93 110.03 75.36 112.03 72.56 114.03 69.77 116.03 66.94 117.68 64.79 118.47 62.48 117.13 59.58zM769.21 70.95L782.15 68.95C782.87 68.84 783.58 68.65 784.29 68.56 786.35 68.29 788.46 68.26 789.43 70.56 790.4 72.86 788.93 74.43 787.14 75.49 784.33 77.15 781.43 78.64 778.51 80.1 777.08 80.82 775.51 81.31 773.4 82.16L778.87 91.71C781.04 89.36 782.68 87.51 784.42 85.71 785.384165 84.6369302 786.511305 83.7223943 787.76 83 788.698035 82.5627664 789.787131 82.5924016 790.7 83.08 791.337427 83.88763 791.535707 84.9575936 791.23 85.94 790.06 88.79 788.59 91.51 787.23 94.27 786.43 95.87 785.57 97.43 784.63 99.27L789.8 105.19C792.88 102.43 792.86 97.53 797.28 96.6 799.47 97.67 799.5 99.52 799.11 101.3 798.349912 105.22255 797.392023 109.10417 796.24 112.93 794.58 118.05 790.45 119.49 785.94 116.49 783.25 114.7 780.94 112.33 778.09 109.89 775.94 112.89 773.9 115.89 771.8 118.76 770.714777 120.435353 769.450688 121.987801 768.03 123.39 767.25 124.08 765.39 124.54 764.69 124.08 763.583254 123.264409 762.883193 122.010132 762.77 120.64 762.914756 119.015903 763.427745 117.446156 764.27 116.05 766.67 111.37 769.21 106.77 771.8 101.94L762 84.49 752.17 86.37C750.92 91.31 749.94 95.85 748.58 100.27 747.89 102.5 748.05 104.05 749.93 105.51 751.81 106.97 753.34 108.75 755.24 110.1 757.056818 111.164739 757.673262 113.496504 756.62 115.32 756.243417 116.179202 755.520918 116.838984 754.631143 117.13621 753.741368 117.433437 752.767379 117.340363 751.95 116.88 749.22 115.57 746.72 113.79 743.47 111.81 742.514551 113.248352 741.45151 114.612255 740.29 115.89 737.727989 118.423427 735.034254 120.820083 732.22 123.07 731.294633 123.518647 730.203948 123.462037 729.33 122.92 728.75 122.39 728.66 120.92 728.87 120.02 729.243316 118.99988 729.780352 118.047401 730.46 117.2L749.35 87C743.46 87.91 738.92 88.7 734.35 89.28 731.658701 89.6341201 728.943281 89.7712288 726.23 89.69 725.23451 89.4829503 724.40236 88.8037967 724 87.87 723.908298 86.8392514 724.317568 85.8272388 725.1 85.15 726.561539 84.0741783 728.180677 83.2308771 729.9 82.65 737.81 79.98 745.76 77.44 753.7 74.87 755.24 74.37 756.82 73.98 758.79 73.42 758.48 70.28 758.04 67.27 757.93 64.25 757.832025 61.1716345 757.905472 58.0902018 758.15 55.02 758.28 53.32 759.15 51.53 761.15 51.86 762.441803 52.2784146 763.484126 53.2439352 764 54.5 765.42 58.42 766.46 62.5 767.67 66.5 768.08 67.84 768.59 69.18 769.21 70.95zM165.14 252.48C163.72 254.66 162.67 256.34 161.55 257.98 160.3 259.8 159.02 261.77 156.35 260.88 154.49 260.26 153.99 257.88 155.18 254.59 156.161848 251.854546 157.348545 249.197013 158.73 246.64 159.994581 244.61793 160.021605 242.058319 158.8 240.01 157.672502 237.733395 156.670992 235.396537 155.8 233.01 154.94 230.84 154.19 228.64 153.41 226.53 148.61 226.89 139.56 229.95 134.15 233 134.09 234.12 133.95 235.37 133.97 236.61 133.97 238.04 134.17 239.46 134.3 241.23 135.75 240.85 136.92 240.46 138.13 240.23 139.145865 240.115304 140.167713 240.061874 141.19 240.07 142.07 243.07 140.19 244.56 138.44 245.65 135.07 247.77 134.25 250.65 134.44 254.4 134.629604 258.20685 134.431922 262.023115 133.85 265.79 133.41222 268.091902 132.543668 270.290425 131.29 272.27 130.8811 273.002786 130.189207 273.535495 129.376235 273.743464 128.563263 273.951434 127.700556 273.816414 126.99 273.37 125.18 272.37 124.05 270.51 124.99 268.86 127.32 264.86 126.17 260.79 126.38 255.74 123.48 257.66 121.2 259.25 118.85 260.74 117.33 261.68 115.59 262.95 113.98 261.08 112.54 259.4 113.25 257.49 114.56 256.16 116.84 253.85 119.14 251.37 121.89 249.76 125.5 247.66 127.2 245.11 126.51 240.96 126.342767 239.442417 126.259307 237.91677 126.26 236.39 120.56 236.18 116.2 241.7 110.57 240.17 109.4 237.3 110.94 235.85 112.49 234.61 115.04 232.61 117.49 230.2 120.49 228.94 125.71 226.69 127.11 223.03 126.66 217.75 126.42 214.92 127.1 211.98 127.58 209.12 127.74 208.19 128.58 207.38 129.58 205.77 133.51 210.47 131.89 215.89 133.58 221.2L141.8 217.77 150.31 214.25C151.47 208.36 148.23 202.54 151.07 195.95 153.81 201.41 153.55 206.95 155.8 212.29 157.832125 211.630801 159.902655 211.096471 162 210.69 165.563138 210.153651 169.157394 209.849675 172.76 209.78 175.080926 209.756811 177.05062 211.477068 177.34 213.78 177.84 216.27 176.53 218.07 174.34 219.02 171.19 220.4 167.95 221.56 164.7 222.7 162.86 223.35 160.94 223.76 158.39 224.46L162.82 236.2 164.1 236.32C165.46 233.86 166.8 231.39 168.18 228.94 168.718726 227.795406 169.389989 226.71803 170.18 225.73 170.781863 225.11277 171.632249 224.803539 172.49 224.89 173.29507 225.233001 173.883977 225.944907 174.07 226.8 174.257202 228.416082 174.148769 230.05274 173.75 231.63 172.799049 235.317386 171.561965 238.924991 170.05 242.42 168.64 245.42 168.6 247.86 170.8 250.42 172.19 252.02 173.43 253.75 175.52 256.42L180.23 250.5C180.668949 253.933962 179.482069 257.376282 177.02 259.81 175.21 261.66 173.02 261.45 170.79 259.2 168.9 257.25 167.29 255 165.14 252.48z"/>
    <path fill-rule="nonzero" d="M53 104.57C52.34 111.87 51.79 118.92 51 125.95 50.4854778 131.946872 48.7354451 137.77237 45.86 143.06 45.2880459 144.189342 44.6188525 145.266744 43.86 146.28 41.86 148.73 39.6 149.19 37.75 147.69 36.7455697 146.775031 36.1567465 145.490697 36.1190196 144.132527 36.0812926 142.774357 36.597911 141.459317 37.55 140.49 38.26 139.74 39.42 139.11 39.62 138.24 41.13 131.96 42.73 125.66 42.74 118.14 41.11 119.66 40.15 120.63 39.11 121.5 33.2633333 126.366667 27.3933333 131.2 21.5 136 20.8680747 136.658676 20.0753356 137.141213 19.2 137.4 17.88 137.55 16.2 137.7 15.2 137.02 13.53 135.79 14.39 134.02 15.5 132.72 17.04 130.93 18.71 129.26 20.41 127.62 26.03 122.23 31.68 116.88 37.63 111.22 35.4 110.03 33.91 111.51 32.34 111.79 28.96 112.39 25.63 113.64 22.25 113.79 16.9 113.98 14.06 109.95 16.31 105.07 19.1118789 99.3760562 22.2025665 93.8288394 25.57 88.45 26.57 86.7 27.57 85.37 26.79 83.02 25.79 79.92 28.35 78.44 30.74 77.42 36.95 74.78 43.33 72.7 50.14 72.35 52.67 72.22 55.22 72.12 57.75 72.24 59.75 72.34 61.47 73.59 61.29 75.61 60.9410449 77.1020805 60.0080087 78.3917599 58.7 79.19 56.5195136 80.3608279 54.2529471 81.3637334 51.92 82.19L52.92 95.19 64.36 92.3C65.7179478 91.775805 67.1410765 91.4393679 68.59 91.3 70.04 91.35 72.24 91.67 72.75 92.62 73.85 94.62 71.97 95.85 70.31 96.72 68.65 97.59 67.06 98.34 65.4 99.07 61.29 101 57.14 102.76 53 104.57zM46.27 84.83C42.16 85.47 38.6 85.94 35.09 86.64 34.0533217 86.8522527 33.1372703 87.4534114 32.53 88.32 29.4025003 93.5530509 26.8254176 99.0959569 24.84 104.86 31.93 102.43 37.84 100.46 43.75 98.29 44.6574039 97.7439838 45.2707555 96.8184472 45.42 95.77 45.85 92.24 46 88.67 46.27 84.83zM674 207.89L675.34 195.75C673.54 195.6 671.99 195.55 670.47 195.32 667.47 194.87 664.27 194.74 661.47 193.73 657.03 192.14 655.47 188.4 657.28 184.05 658.46 181.23 659.37 177.74 664.07 177.41L664.07 186.07C666.062466 186.284331 668.066336 186.374505 670.07 186.34 676.41 185.89 682.72 185.19 689.07 184.76 691.33 184.61 694.26 184.11 694.86 187.3 695.46 190.49 692.5 191.01 690.39 191.8 687.17 193 683.86 193.96 679.94 195.23L680.57 206.53C683.2 206.53 685.67 206.53 688.14 206.53 689.89 206.53 692.14 206.05 692.6 208.53 693.12 211.25 690.79 211.72 688.89 212.29 686.29 213.08 683.67 213.78 680.64 214.63L680.17 219.21C680.751233 219.493369 681.371333 219.688836 682.01 219.79 686.53 219.47 691.01 219.08 695.58 218.79 696.668796 218.717534 697.761204 218.717534 698.85 218.79 700.57 218.89 702.47 219.33 702.23 221.38 702.11 222.38 700.58 223.74 699.44 224.09 694.44 225.62 689.27 226.81 684.2 228.18 679.96 229.33 679.87 229.37 679.78 233.58 679.62 240.84 679.83 248.12 679.47 255.37 678.99 265.15 678.22 274.92 677.35 284.68 677.046331 287.002796 676.310309 289.248172 675.18 291.3 674.78 292.08 673.04 292.59 672 292.47 671.38 292.39 670.6 290.88 670.5 289.94 670.477913 288.309642 670.561421 286.679565 670.75 285.06 671.216667 268.18 671.666667 251.3 672.1 234.42 672.049467 233.537412 671.942582 232.658955 671.78 231.79 668.49 232.68 665.41 233.53 662.31 234.34 660.24547 235.029798 658.123823 235.535111 655.97 235.85 652.19 236.14 650.31 233.16 651.97 229.72 652.43 228.72 653.21 227.92 653.75 226.98 655.89 223.27 658.91 220.06 659.13 215.31 659.19 214.1 661.38 212.59 662.89 211.93 666.2 210.39 669.86 209.32 674 207.89zM672.85 216.5C664.85 217.01 664.65 217.17 663.51 224.76L672.85 221.85 672.85 216.5zM370.78 224.47C376.24 223.47 380.66 221.6 385.38 223 381.88 226.14 377.66 227.33 373.33 228.12 371.33 228.49 369.72 228.8 370.6 231.81 371.93 231.7 373.3 231.6 374.67 231.45 380.26 230.85 385.83 230.05 391.43 229.73 393.972064 229.676683 396.504727 230.055399 398.92 230.85 403.38 232.17 406.28 235.4 406.12 240.03 405.74 251.13 402.33 261.03 393.24 268.27 392.095207 269.151546 390.753402 269.741803 389.33 269.99 387.12 270.36 385.38 269.59 385.14 266.65 393.07 261.86 395.97 253.7 398.55 245.35 398.879427 244.31279 399.097325 243.243413 399.2 242.16 399.55 238.09 398.29 236.34 394.15 236.04 390.705327 235.911341 387.256072 235.9848 383.82 236.26 382.37 236.33 380.94 236.65 379.5 236.84 371.4 237.9 371.4 237.89 366.04 242.09 365.47 240.22 364.61 238.63 364.56 237.02 364.17 222.12 363.83 207.19 366.67 192.47 367.48026 188.387191 368.924393 184.456312 370.95 180.82 373.25 176.68 376.04 176.34 380.85 178.69 376.85 181.94 374.32 185.79 375.1 191.45 376.465049 190.84588 377.864078 190.321662 379.29 189.88 382.05621 189.036784 384.895251 188.454245 387.77 188.14 393.16 187.85 396.3 190.81 396.83 196.14 397.51 202.94 394.72 208.53 390.56 213.59 390.141091 214.188863 389.552489 214.6486 388.87 214.91 384.87 215.85 380.76 216.83 376.66 217.43 375.54 217.59 374.23 216.51 373 215.99 373.84 214.99 374.48 213.34 375.54 212.99 378.61 211.99 381.85 211.46 385.79 210.59L387.79 205.59 372.64 207 370.78 224.47zM373.4 202.36C378.16 201.3 382.53 200.28 386.93 199.36 388.74 198.99 389.56 197.83 389.07 196.36 388.78 195.47 387.3 194.28 386.5 194.36 383.31 194.78 380.18 195.65 377.03 196.36 373.88 197.07 372.53 199 373.4 202.36zM484.06 53.93C486.71 55.2 488.63 54.13 490.94 52.31 499.47 45.57 508.94 48.7 511.44 59.31 514.27 71.4 512.37 83.14 506.85 94.31 505.958486 96.5879091 503.623821 97.9597828 501.2 97.63 499.33 97.49 497.38 98.31 495.47 98.7 492.28 99.34 489.11 100.4 485.91 100.52 482.05 100.66 480.91 99.33 480.25 95.44 478.41 84.72 479.57 74.05 480.93 63.44 481.33 60.1 481.42 56.75 484.06 53.93zM501.41 69.4C501.56 67.99 501.79 66.59 501.84 65.18 501.920711 63.7353575 501.873863 62.2864115 501.7 60.85 501.15 56.98 499.49 55.99 495.64 57.09 489 59 486.28 65.45 489.11 72L501.41 69.4zM489 80.12L489 92.69 499 90.49 500.54 75.33 489 80.12z"/>
    <path d="M552.65,91.59 C547.3,92.35 542.65,93.08 538.06,93.64 C532.66,94.3 527.25,94.85 521.83,95.35 C520.566497,95.4842811 519.28892,95.3687555 518.07,95.01 C517.05315,94.8004333 516.262266,93.99963 516.065389,92.9802467 C515.868513,91.9608634 516.304317,90.923146 517.17,90.35 C518.628934,89.288155 520.264094,88.4925802 522,88 C531.733333,85.1 541.486667,82.28 551.26,79.54 C553.2,78.99 555.16,78.85 555.85,76.42 C556.36,74.64 557.41,72.56 559.47,73.16 C560.8,73.55 561.66,75.56 562.97,77.16 C565.91,77.35 569.33,77.53 572.73,77.81 C574.64,77.97 576.37,78.65 576.86,80.74 C577.4,83.06 576.12,84.68 574.17,85.54 C570.38,87.21 566.48,88.64 562.31,90.3 C561.74,95.12 561.51,100.21 560.47,105.12 C559.311079,110.608281 557.74679,116.003072 555.79,121.26 C553.98,126.11 550.41,129.9 546.18,132.84 C544.535568,133.912635 542.63174,134.520754 540.67,134.6 C538.43,134.7 536.75,132.53 536.82,130.16 C536.88,128.16 537.21,125.96 539.97,126.01 C542.73,126.06 543.22,123.96 544.18,122.33 C548.71,114.68 550.35,106.11 551.88,97.52 C552.2,95.86 552.33,94.24 552.65,91.59 Z"/>
    <path fill-rule="nonzero" d="M179.56,87.86 C180.86,87.55 181.73,87.27 182.61,87.16 C187.92,86.44 191.44,89.28 191.83,94.58 C192.17,99.14 190.42,103.14 188.24,106.96 C186.98,109.16 185.49,111.22 183.85,113.73 C186.32,115.82 188.85,117.81 191.2,120 C193.918132,122.403233 196.451926,125.007224 198.78,127.79 C199.71,128.97 200.29,131.46 199.67,132.63 C198.5,134.84 196.12,133.98 194.39,132.91 C188.99,129.55 183.69,126.04 178.39,122.59 L176.58,121.41 C171.22,124.21 165.99,127.04 160.66,129.67 C158.746486,130.71661 156.653633,131.395007 154.49,131.67 C152.951019,131.619106 151.514455,130.886165 150.57,129.67 C149.51,128.14 150.57,126.67 152.1,125.58 C155.97,122.87 159.82,120.13 163.62,117.32 C165.06,116.26 166.35,114.98 167.96,113.59 C165.12,110.59 163.96,106.59 159.66,105.17 C158.86,104.92 158.23,102.81 158.29,101.6 C158.519577,100.346523 159.151497,99.2020451 160.09,98.34 C164.36,93.88 168.56,89.34 173.09,85.18 C176.7,81.87 178.14,82.55 179.56,87.86 Z M182.84,94.19 C176.29,94.87 171.36,96.8 167.72,102.34 L174.51,107.42 C178.33,103.53 181.41,99.85 182.84,94.19 Z"/>
    <path d="M357.15 86.54C355.150148 87.4801988 353.096582 88.3016251 351 89 348.254545 89.9049373 345.404891 90.4560497 342.52 90.64 333.98 90.64 328.29 85.04 328.78 76.54 329.08 71.35 330.68 66.24 331.78 61.11 331.986416 60.2218758 332.461257 59.4188353 333.14 58.81 333.786386 58.2235009 334.651858 57.9398588 335.52 58.03 336.271665 58.4473588 336.7938 59.1827608 336.94 60.03 337.068385 61.4731368 337.088441 62.9238656 337 64.37 337 67.64 336.82 70.92 337.1 74.16 337.54 79.27 339.02 80.23 345.35 79.64 345.35 77.95 345.35 76.2 345.35 74.45 345.25498 66.2667163 346.422018 58.1176882 348.81 50.29 349.09247 48.8758119 349.620446 47.5220253 350.37 46.29 351.15 45.29 352.7 44.13 353.72 44.29 354.74 44.45 356.05 46.04 356.28 47.2 356.633466 49.3493457 356.677244 51.5382401 356.41 53.7 355.84 60.03 355.13 66.34 354.46 72.7 354.26 74.61 354.03 76.52 353.8 78.55 357.18 78.71 358.65 77.55 359.31 74.7 360.349201 70.2890591 361.610812 65.9334962 363.09 61.65 363.75 59.75 365.18 58.11 366.17 56.51 369.54 57.39 369.37 59.51 369.27 61.51 368.773106 70.7694944 367.09278 79.9272737 364.27 88.76 364.019616 89.6309421 363.634999 90.4575315 363.13 91.21 361.52 93.43 359.13 93.21 358.07 90.72 357.642769 89.3559631 357.334944 87.9573633 357.15 86.54zM553 33.82C556.57 33.37 559.77 32.94 563 32.59 564.265227 32.4540033 565.539381 32.420561 566.81 32.49 569.1 32.61 571.25 33.19 571.81 35.81 572.273087 37.8732398 571.141417 39.961491 569.16 40.7 564.954962 42.8143727 560.611714 44.6418776 556.16 46.17 549.38 48.25 549.16 48.17 548.73 56.09 551.25 55.67 553.73 55.18 556.16 54.89 557.588755 54.6218061 559.058381 54.6627237 560.47 55.01 561.68 55.43 563.21 56.49 563.47 57.57 563.648489 58.9586262 563.193183 60.3539194 562.23 61.37 560.842987 62.8070896 559.126882 63.8848032 557.23 64.51 550.94 66.23 544.56 67.62 538.23 69.08 537.506572 69.177024 536.773428 69.177024 536.05 69.08 533.94 68.98 531.94 68.48 531.32 66.18 530.66 63.69 532.5 62.62 534.38 61.72 534.69325 61.5387225 535.029653 61.4007972 535.38 61.31 541.88 60.25 542.9 55.59 542.92 49.42L532.7 50.9C530.748396 51.3141812 528.764014 51.555118 526.77 51.62 525.5 51.62 523.38 50.85 523.2 50.07 522.989616 48.5450169 523.408348 47.0000387 524.36 45.79 525.585107 44.4460285 527.09062 43.3877318 528.77 42.69 532.39 41.02 536.02 39.16 539.85 38.19 544.03 37.13 545.98 34.9 546.29 30.75 546.369054 29.2972899 546.768606 27.8800747 547.46 26.6 548.01 25.67 549.38 24.51 550.2 24.6 551.02 24.69 552.2 26.17 552.41 27.2 552.767466 29.3893734 552.964657 31.6019178 553 33.82z"/>
    <path fill-rule="nonzero" d="M259.33,224.15 C256.22,224.6 253.4,225.15 250.56,225.38 C248.35,225.59 247.03,224.84 246.4,222.25 C244.72,215.25 245.63,208.53 247.83,201.89 C248.69,199.29 249.77,196.76 253.44,197.02 C254.55,197.1 255.73,196.02 256.88,195.57 C261.88,193.4 265.28,194.9 267.03,200.14 C267.576424,201.494443 267.913615,202.924133 268.03,204.38 C268.22,219.81 268.48,235.24 268.31,250.67 C268.31,254.38 266.88,258.14 265.74,261.76 C265.199903,263.488891 264.13366,265.006101 262.69,266.1 C261.325463,266.850961 259.702786,266.974941 258.24,266.44 C256.47,265.7 256.92,263.98 257.45,262.22 C258.478713,259.13393 259.100622,255.926894 259.3,252.68 C259.49,243.26 259.33,233.84 259.33,224.15 Z M254.46,219.62 L259.51,219.19 L259.51,212.5 C254.36,212.85 254.36,212.85 254.47,219.62 L254.46,219.62 Z M259.56,201.99 C256.9,203.42 255.27,204.68 255.15,207.64 L259.56,207.64 L259.56,201.99 Z"/>
    <path d="M196.27 221C195.559655 222.743408 194.689266 224.417232 193.67 226 192.9 227 191.03 228.35 190.4 228 189.21 227.41 188.4 225.82 187.77 224.47 187.46 223.77 187.87 222.7 188.09 221.82 190.564314 211.901107 195.433152 202.740274 202.27 195.14 204.04 193.14 206.09 190.24 209.02 192.08 212.36 194.18 209.39 196.89 208.49 199.22 207.787534 200.896863 206.965415 202.52105 206.03 204.08 204.85 206.18 203.83 208.08 205.61 210.56 206.43 211.71 206.22 213.73 206.18 215.35 205.8 233.35 205.38 251.323333 204.92 269.27 205.029227 270.537436 204.862045 271.813479 204.43 273.01 203.74 274.3 202.61 275.93 201.38 276.24 199.15 276.79 198.38 274.71 197.9 272.9 197.65961 271.837872 197.509078 270.757388 197.45 269.67 195.893022 254.11698 195.785894 238.452861 197.13 222.88 197.131177 222.356344 197.080936 221.833837 196.98 221.32L196.27 221zM619.28 186.18C607.28 184.48 596.28 187.31 585.22 190.51 584.29 186.27 586.78 184.85 588.97 184.11 594.075598 182.294303 599.319244 180.893099 604.65 179.92 608.957199 179.315199 613.320755 179.221215 617.65 179.64 623.95 180.11 626.34 182.85 626.42 189.11 626.42 192.37 626.06 195.63 625.95 198.89 625.56 209.77 625.24 220.65 624.84 231.53 624.63 237.37 623.96 243.21 621.1 248.38 619.465355 251.412792 617.293438 254.123454 614.69 256.38 610.78 259.64 607.55 257.83 606.8 251.99 610.68 251.54 612.45 248.68 613.23 245.25 614.572212 239.986548 615.574283 234.642169 616.23 229.25 617.47 216.07 618.29 202.86 619.23 189.66 619.33 188.77 619.28 187.88 619.28 186.18z"/>
    <path d="M552.16 232.13C558.53 241.4 553.74 248.8 547.35 256.2 548.160704 256.667484 549.002704 257.07846 549.87 257.43 565.56 262.34 581.57 265.63 598.05 265.31 606 265.16 613.92 263.7 621.86 262.85 624.296771 262.467271 626.782221 262.52145 629.2 263.01 628.511617 263.888722 627.6999 264.663389 626.79 265.31 625.314817 266.008731 623.769443 266.548438 622.18 266.92 604.7 271.58 587.12 272.78 569.38 268.43 559.693333 266.056667 550.01 263.67 540.33 261.27 537.47 260.56 536.6 258.35 538.33 255.96 539.16 254.79 540.43 253.96 541.33 252.85 543.428644 250.605629 545.354159 248.205421 547.09 245.67 548.98 242.6 549.6 239.24 546.94 236.05 544.68 233.33 545.62 230.72 547.2 228.05 548.78 225.38 551.08 223.21 550.89 219.05L543.5 219.52C543.21 218.95 542.67 218.36 542.79 218.03 544.02 214.69 548.5 212.64 552.16 213.64 553.867617 214.060578 555.329955 215.159174 556.20939 216.682143 557.088824 218.205112 557.309331 220.0208 556.82 221.71 555.8 225.09 553.93 228.27 552.16 232.13zM262.05 129.29C267.7 128.18 272.38 126.56 273.76 120.29 274.331393 118.377547 275.30287 116.608435 276.61 115.1 277.350716 114.358681 278.410765 114.032801 279.44 114.23 280.333258 114.744855 280.910884 115.671307 280.98 116.7 280.5 127.11 278.98 137.32 273.98 146.7 273.590515 147.51108 272.989385 148.202033 272.24 148.7 271.36 149.18 269.97 149.7 269.24 149.31 268.224912 148.659529 267.506502 147.635795 267.24 146.46 267.164622 145.197131 267.313591 143.930894 267.68 142.72 268.02 140.81 268.4 138.91 268.92 136.18 266.59 137.28 265.03 138.05 263.44 138.77 257.74 141.34 251.83 143.03 245.5 142.51 239.5 142.02 235.39 139.13 234.24 134.66 232.97 129.72 235.68 121.66 239.55 118.98 239.8 118.81 240.24 118.92 241.15 118.86 241.451917 119.932681 241.656084 121.030496 241.76 122.14 241.668953 123.226369 241.488339 124.303363 241.22 125.36 240.09 132.68 242.11 134.62 249.53 133.28 250.77 133.06 251.98 132.64 253.53 132.22 254.01 129.22 254.28 126.22 255.05 123.22 255.88261 119.888281 257.031146 116.643585 258.48 113.53 259.282161 112.187262 260.681536 111.312653 262.24 111.18 264.38 111.34 264.08 113.56 263.87 115.18 263.32 119.18 262.6 123.06 261.98 127.01 261.952261 127.77071 261.975647 128.532424 262.05 129.29zM335.47 205.62C331.225955 206.641499 327.413995 208.979781 324.58 212.3 323.96 212.96 323.58 214.06 322.86 214.36 321.48 214.93 319.75 215.6 318.5 215.19 317.57 214.88 316.36 212.69 316.66 211.78 318.74 205.44 321.1 199.19 323.66 193.01 323.96 192.27 325.79 191.74 326.82 191.87 327.42 191.95 328.12 193.49 328.24 194.44 328.38018 196.300037 328.403559 198.167036 328.31 200.03 330.1 199.44 331.44 198.93 332.83 198.56 337.97 197.17 342.18 198.96 343.5 204.11 344.511085 208.320409 344.82191 212.668584 344.42 216.98 343.57 227.12 340.31 236.49 333.36 244.21 331.863282 246.023243 330.016526 247.516292 327.93 248.6 326.278427 249.135071 324.475022 248.91559 323 248 321.12 246.72 322.08 244.84 323.28 243.27 327.5 237.73 330.08 231.42 332.42 224.53 329.42 224.29 326.95 224.2 324.49 223.87 322.63 223.62 320.72 222.92 320.81 220.63 320.91 217.98 323.08 217.37 325.13 217.71 328.048148 218.333544 330.932016 219.107916 333.77 220.03 335.26 215.95 336.52 211.36 335.47 205.62zM66.9 16.65C81.66 16.22 87.26 22.65 84.98 35.65 84.488514 38.1581102 83.7757259 40.6177308 82.85 43 82.05 45.19 80.56 46.9 77.96 46.42 75.36 45.94 75.27 43.8 75.12 41.75 74.93 39.03 74.83 36.3 74.51 33.6 73.85 28.08 73.42 27.6 68.1 28.3 59.1 29.56 50.17 31.11 41.22 32.65 38 33.21 34.86 34.16 31.65 34.81 30.068701 35.2244239 28.4318568 35.3864208 26.8 35.29 25.53 35.14 23.62 34.42 23.35 33.54 23.08 32.66 23.86 30.66 24.78 29.83 26.5539616 28.2785107 28.5407539 26.9887795 30.68 26 42.0401372 20.5842668 54.3379221 17.4096592 66.9 16.65zM503.54 224.08C499.34 224.08 495.54 224.14 491.83 224.08 490.024275 224.101384 488.22316 223.893046 486.47 223.46 485.390052 223.252331 484.594837 222.329036 484.549551 221.230235 484.504264 220.131434 485.220804 219.145833 486.28 218.85 488.662156 217.974706 491.096952 217.249945 493.57 216.68 497.07 215.79 500.57 215 504.32 214.11 504.6 211.71 504.8 209.56 505.13 207.42 505.416314 204.898062 505.890973 202.401088 506.55 199.95 507.024095 198.854897 508.015332 198.070168 509.19 197.86 509.95 197.86 511.09 199.35 511.34 200.35 511.629259 202.141579 511.75644 203.955586 511.72 205.77 511.83 207.77 511.96 209.71 512.1 212.09 515.54 212.09 518.73 211.97 521.9 212.09 524.35 212.21 527.46 211.84 527.9 215.3 528.35 218.57 525.46 219.6 523.14 220.4 519.57 221.63 515.82 222.4 511.98 223.4 511.45 230.32 511.14 237.21 510.33 244.03 509.6 250.15 508.42 256.22 507.24 262.27 506.74 264.83 505.79 267.36 501.47 265.99L503.54 224.08zM770.68 38.29C776.87 37.9 781.11 36.69 784.15 32.29 785.916926 29.9671271 788.043749 27.9415811 790.45 26.29 791.88 25.22 793.84 24.86 795.45 24.21 797.01 26.8 795.33 27.85 794.45 29.1 790.59 34.82 786.61 40.45 782.85 46.23 781.444226 48.7119311 780.175654 51.2691059 779.05 53.89 785.05 52.41 790.05 51.95 791.87 45.94 792.46 44 793.46 41.8 796.99 41.94 796.82 49.73 794.3 56.57 791.51 63.94 787.06 60.94 790.28 57.17 788.88 54.12 787.53 54.79 786.25 55.39 785 56.05 783.56 56.81 782.15 57.66 780.71 58.41 778.52 59.56 776.2 60.16 774.03 58.55 771.59 56.73 771.9 54.08 772.53 51.55 773 49.65 773.81 47.83 774.72 45.24L769.72 46.34C763.21 47.76 758.91 43.49 760.5 37.05 760.938256 35.2899119 761.635891 33.604805 762.57 32.05 765.01 28.05 767.57 24.05 770.23 20.15 771.070912 18.9679501 772.081823 17.9166026 773.23 17.03 774.55 15.97 776.32 15.09 777.58 16.64 778.264561 17.8129905 778.403332 19.2262602 777.96 20.51 776.72 23.91 775.05 27.16 773.63 30.51 772.74 32.88 771.89 35.21 770.68 38.29z"/>
    <path fill-rule="nonzero" d="M294.36 208C296.51 207.75 297.71 207.62 298.91 207.46 303.82 206.8 306.91 208.33 307.91 213.11 308.586464 217.019232 308.731108 221.001996 308.34 224.95 307.993955 227.65089 307.291158 230.293943 306.25 232.81 304.8 236.95 304.25 236.81 299.72 237.44 296.906439 237.891068 294.22062 238.934038 291.84 240.5 288.28 242.76 286.3 242.5 284.95 238.61 284.286337 236.72551 283.872807 234.762085 283.72 232.77 282.919946 222.782238 284.186271 212.736746 287.44 203.26 288.573 200.404934 290.083076 197.714376 291.93 195.26 293.02 193.7 295.13 192.82 296.62 194.41 297.43 195.27 297.4 197.36 297.11 198.75 296.46 201.65 295.41 204.47 294.36 208zM301.13 220.13L300.85 213.85C294.12 215.18 293.42 216.06 294.36 221.68L301.13 220.13zM299.9 225.53L293.5 228.15 293.5 233.21 299.74 231.73C300 230.03 300.24 228.8 300.36 227.55 300.294617 226.843356 300.140056 226.147828 299.9 225.48L299.9 225.53zM223.45 227.27C223.45 232.83 223.54 238.08 223.45 243.32 223.396095 245.307587 223.059381 247.277366 222.45 249.17 222.18 250 220.93 251.11 220.19 251.06 218.986814 250.9293 217.896012 250.292999 217.19 249.31 216.522427 248.021618 216.130762 246.608221 216.04 245.16 214.56745 233.424107 214.941988 221.529995 217.15 209.91 217.448077 208.301213 217.917414 206.728933 218.55 205.22 219.76 202.37 229.2 199.03 231.67 200.82 233.231732 202.018313 234.390098 203.665146 234.99 205.54 236.75 211.38 235.08 217.07 233.26 222.54 232.86 223.77 230.96 224.69 229.56 225.35 227.569359 226.128183 225.527954 226.769672 223.45 227.27zM224.14 212.09C230.19 211.23 230.42 210.82 228.47 205.04 225.52 206.31 224.11 208.44 224.14 212.1L224.14 212.09zM228.59 215.52C223.67 217.4 223.67 217.4 224.59 221.8 228.53 221.36 228.53 221.36 228.58 215.53L228.59 215.52z"/>
    <path d="M166.33 42.54C173.33 44.89 178.49 38.8 184.62 39.78 184.98 43.09 183.21 44.84 181.17 45.93 176.55 48.39 171.92 51.1 166.95 52.57 158.22 55.16 152.08 48.63 154.8 39.96 157.19 32.36 161.8 26.09 167.52 20.6 168.443876 19.7302862 169.541209 19.0657519 170.74 18.65 173.63 17.65 175.97 19.65 175.29 22.65 174.710877 24.5418926 173.943715 26.3710223 173 28.11 170.8 32.85 168.61 37.58 166.33 42.54zM424 245.89C423.25 245.3 421.32 244.52 421.14 243.44 420.96 242.36 422.06 240.37 423.14 239.6 425.28645 238.248685 427.57737 237.141798 429.97 236.3 438.74388 232.779972 448.024578 230.686835 457.46 230.1 460.896826 229.962639 464.334867 230.34015 467.66 231.22 469.274979 231.85391 470.524502 233.173055 471.07 234.82 471.72 237.12 469.77 238.54 467.75 239.04 464.42 239.87 461.01 240.45 457.62 240.96 447.62 242.47 437.53 243.9 427.48 245.36L424 245.89zM576.28 195C578.05 197.25 579.45 198.4 579.98 199.87 580.776481 202.088055 581.228391 204.415057 581.32 206.77 581.88 222.16 578.89 236.71 570.51 249.87 569.671329 251.262854 568.606799 252.506494 567.36 253.55 566.507322 254.126647 565.42294 254.239213 564.47 253.85 563.64485 253.0073 563.175749 251.879308 563.16 250.7 563.16 249.7 563.96 248.7 564.35 247.7 570.4 232.28 575.93 216.7 575.18 199.78 575.13 198.6 575.69 197.44 576.28 195zM375.4 260.32C372.55 261.58 370.49 262.81 368.27 263.39 365.490559 264.147573 362.629916 264.567268 359.75 264.64 356.42 264.64 353.63 263.03 352.67 259.71 351.61 256.08 352.09 252.49 354.94 249.65 355.35 249.24 356.25 249.32 357.35 249.07 357.54 250.51 357.79 251.67 357.83 252.83 358.02 258.18 358.57 258.57 364.18 256.94 365.8 253.15 364.18 248.17 367.95 244.94 370.61 246.94 370.61 246.94 370.4 254.94 375.9 254.08 375.88 254.07 376.97 249.11 377.42 247.11 377.27 244.6 380.87 243.9 381.43 245.12 382.4 246.43 382.62 247.9 383.478352 254.035279 382.790885 260.287788 380.62 266.09 380.391564 266.963961 379.924075 267.756962 379.27 268.38 378.457049 268.986933 377.451498 269.278294 376.44 269.2 375.9 269.11 375.21 267.87 375.17 267.11 375.06 265.14 375.28 263.16 375.4 260.32zM599.22 192.4C600.7 197.17 603.22 198.11 606.59 198.04 607.598337 198.182853 608.460929 198.837363 608.87 199.77 608.781397 200.787057 608.22287 201.704372 607.36 202.25 605.926515 203.026008 604.423231 203.66549 602.87 204.16 600.21 205.16 600.2 205.16 600.07 209.1 602.735752 208.940254 605.409648 208.97702 608.07 209.21 609.44 209.42 611.38 210.54 611.76 211.68 612.49 213.85 610.44 215.01 608.65 215.3 601.87 216.38 595.06 217.3 588.23 218.04 587.23 218.14 586.03 216.65 584.93 215.89 585.66 214.94 586.2 213.6 587.17 213.13 589.134731 212.204699 591.202608 211.516526 593.33 211.08 596.44 210.39 597.14 208.78 595.74 205.77 594.331534 205.800274 592.92306 205.709945 591.53 205.5 590.58 205.28 589.08 204.55 589.04 203.96 588.96 202.9 589.75 201.76 590.27 200.69 590.479707 200.38803 590.799064 200.17991 591.16 200.11 594.67 199.29 597 196.93 599.22 192.4zM173.66 65.21C173.206375 66.6167796 172.678978 67.9986933 172.08 69.35 166.542508 79.8159913 158.400543 88.6777829 148.44 95.08 146.69 96.23 144.8 97.08 143.08 95.13 141.36 93.18 142.28 91.3 143.7 89.78 148.006667 85.1133333 152.38 80.5266667 156.82 76.02 160.11 72.65 163.46 69.34 166.9 66.13 167.930291 65.1196496 169.199799 64.3868441 170.59 64 171.43 63.81 172.53 64.73 173.66 65.21z"/>
    <path fill-rule="nonzero" d="M604.61,237.5 C607.24,241.19 607.06,241.96 603.05,243.5 C602.380604,243.780045 601.687955,244.00089 600.98,244.16 C596.78,245 592.3,246.66 588.75,243.05 C585.7,239.94 585.42,231.59 587.39,227.67 L594.61,225.61 C595.804201,225.188407 597.01911,224.827939 598.25,224.53 C603.68,223.53 607.16,226.88 606.25,232.3 C605.835906,234.072391 605.287659,235.810734 604.61,237.5 Z M591.83,231.67 L593.33,239.98 C597.33,237.09 600.52,234.78 600.7,229.81 C597.55,229.07 595,230 591.84,231.67 L591.83,231.67 Z"/>
    <path d="M16.27 34.31C14.47 43.88 12.32 52.46 7.27 60 6.2 61.59 4.74 62.74 2.7 62 .48 61.24-.24 59.39.07 57.22 1.35903752 48.7923685 4.36440197 40.7190679 8.9 33.5 9.97 31.73 11.75 30.27 13.9 31.29 15.06 31.85 15.7 33.55 16.27 34.31zM203 50.26C202.27 51.31 201.6 53.35 200.5 53.62 198.804874 53.9321057 197.058525 53.4781282 195.73 52.38 192.120879 48.5076104 189.69237 43.6852855 188.73 38.48 188.166717 36.0167004 187.888226 33.4968545 187.9 30.97 188.10677 29.7644635 188.891451 28.7369052 190 28.22 191.190741 27.9577276 192.43408 28.3022675 193.32 29.14 197.938056 35.4550932 201.23077 42.6391949 203 50.26zM42.18 49.44C40.98 52.03 40.36 54.44 38.95 56.23 35.95 60.03 32.56 63.58 29.19 67.09 27.86 68.47 25.99 69.09 24.26 67.75 22.53 66.41 22.7 64.5 23.8 62.88 27.47 57.49 31.2 52.14 35.05 46.88 36.19 45.32 38.15 44.47 39.85 45.66 41 46.44 41.44 48.17 42.18 49.44zM433.06 134.07C432.99 135.07 433.22 136.18 432.79 136.85 431.89 138.27 430.79 140.26 429.49 140.52 428.19 140.78 426.28 139.46 425.13 138.33 424.223286 137.198252 423.657873 135.831547 423.5 134.39 422.66 129.78 421.83 125.16 421.37 120.51 421.23 119.16 422.25 116.51 422.86 116.51 424.4 116.41 426.86 117 427.46 118.12 429.432194 121.925231 431.133095 125.865039 432.55 129.91 432.890937 131.270323 433.062238 132.667605 433.06 134.07zM404.27 115.24C402.45 122.41 400.01 129.8 393.67 135.04 392.515245 135.811075 391.059729 135.978589 389.76 135.49 388.76 134.96 388.15 133.18 388.1 131.92 388.128902 130.465381 388.557927 129.04683 389.34 127.82 392.04 123.33 394.88 118.92 397.76 114.54 398.380232 113.644413 399.193551 112.899441 400.14 112.36 402.25 111.13 404.14 112.29 404.27 115.24zM52.9 47.12C53.3781999 44.9153195 54.0097352 42.746714 54.79 40.63 55.4419729 39.5991505 56.5704007 38.9672309 57.79 38.95 58.79 39.05 59.84 40.23 60.43 41.21 60.8399558 42.2115727 61.0341782 43.2883145 61 44.37 61.45 49.28 62.36 54.03 65.26 58.19 66.2 59.54 67.04 61.19 65.54 62.6 63.85 64.24 62.05 63.23 60.63 62.16 56.08 58.74 53.19 54.32 52.9 47.12zM197.81 64.66C200.62 65.09 204.38 65.56 208.08 66.28 209.516179 66.4952058 210.869176 67.088868 212 68 212.784641 68.9092893 213.147922 70.1081159 213 71.3 212.653468 72.2967335 211.825152 73.0497487 210.8 73.3 203.55 74.06 196.35 73.92 189.6 70.7 188.66 70.25 187.39 68.64 187.6 68 188.08507 66.7402118 189.091555 65.7519603 190.36 65.29 192.44 64.73 194.67 64.87 197.81 64.66zM444.75 216.24C441.62 216.24 438.37 216.4 435.14 216.14 434.14 216.06 433.27 214.85 432.33 214.14 433.07 213.23 433.65 211.77 434.58 211.48 442.510678 208.947987 450.883374 208.103224 459.16 209 460.16 209.11 461.76 210.63 461.65 211.22 461.43 212.35 460.31 214 459.33 214.22 454.56 215.08 449.72 215.58 444.75 216.24zM131.08 193.05C130.52 196.93 121.45 214.12 118.35 217.13 116.06 216.03 115.53 214.03 115.99 211.79 117.175875 205.180295 120.309965 199.075784 124.99 194.26 126.67 192.57 128.62 191.2 131.08 193.05zM794.6 65C795.32 64 796.05 62 797.03 61.83 798.553953 61.888859 799.948633 62.7024222 800.75 64 802.71097 68.0359621 804.381868 72.2065227 805.75 76.48 806.189465 77.5949198 806.155149 78.8408564 805.654983 79.929897 805.154817 81.0189377 804.232081 81.8568471 803.1 82.25 800.66 83.09 798.17 81.91 797.36 78.84 796.18 74.48 795.56 70 794.6 65zM41.13 10.76C41.2628962 12.1999164 41.2192389 13.6506802 41 15.08 40.72 16.15 39.81 17.67 39 17.83 37.81 18.05 35.87 17.6 35.22 16.72 32.2101193 12.7859976 31.0173352 7.7566669 31.94 2.89 32.4848532 1.41431003 33.7503654.322569687 35.29 0 36.79 0 39.05 1.11 39.63 2.37 40.8 4.91 41.05 7.87 41.68 10.65L41.13 10.76zM532.19 100.66C536.37 100.56 543.56 106.39 544.19 110.4 544.6 112.94 542.9 114.8 540.3 114.04 535.549953 112.679264 531.431839 109.687169 528.67 105.59 527 103.18 528.95 100.74 532.19 100.66zM560.53 203.73C557.05 200.09 555.04 195.73 553.3 191.31 552.98 190.49 554.1 188.31 554.99 188.03 556.319373 187.797452 557.67429 188.270537 558.57 189.28 560.93 193.72 562.09 198.46 560.53 203.73zM174.73 201.23C170.949289 200.357745 167.540561 198.313908 164.99 195.39 164.26 194.61 164.18 192.62 164.63 191.52 164.94 190.77 167.09 189.93 167.71 190.3 169.962781 191.703768 172.052313 193.353928 173.94 195.22 175.42 196.65 176.08 198.53 174.73 201.23z"/>
  </g>
</svg>
