<svg id="圖層_1" data-name="圖層 1" xmlns="http://www.w3.org/2000/svg" viewBox="0 0 805.99 292.45"><title>cover</title><path d="M389.33,52.64c3.38.68,6.36-2.39,9.36.33-.88,3.3-3.94,3.85-6.2,4.82-4.32,1.84-5.45,4.76-4.43,9.37l12-.84.41,1.44c-3.07,4.22-9,3.37-12.91,6.42l-3.41,25.75,27.24-4.16c-1.18-3.65.27-6.63,1.82-9.69,2.46-4.86,4.7-9.83,6.88-14.82a10.56,10.56,0,0,0-.11-9.4,52.1,52.1,0,0,0-2.27,4.85,56.59,56.59,0,0,1-10.1,17.95c-1.19,1.45-2.37,3.82-4.76,2.34s-1.14-3.62-.25-5.36c4-7.74,8.11-15.42,12.42-23.59-6.3-7.17-3.45-15.18-.69-23.16a10.83,10.83,0,0,1,1.88-3.25,2.11,2.11,0,0,1,1.91-.46,2.15,2.15,0,0,1,1.19,1.59c0,1.78-.31,3.56-.57,6,2.54-.4,4.78-.88,7-1.08,2.07-.18,4.4-.86,6.1,2.11-3.41,4.68-9.63,4.17-14,7-1,2.88.52,4.75,2.63,5.94,9,5.14,10.4,14.05,6.42,23.81-2,4.81-5.12,9.14-7.84,13.62-.91,1.5-2.13,2.81-4,5.24l7.75-.7c3.8-.34,7.6-.84,11.4-1,3.22-.1,5-1.3,5.52-4.63.61-4.29,1.49-8.54,2.34-13.26-1.81-.17-3.19-.28-4.56-.42-2.27-.23-5.06.29-5.62-2.95-.35-2,1.76-3.21,5.82-3.47,1.62-.1,3.25-.19,4.87-.32.15,0,.29-.2,1-.7l2-10.07c-3.38.67-6,1.16-8.59,1.72-1.93.42-3.76.46-4.47-1.81-.65-2.11.64-3.61,2.34-4.39a28.11,28.11,0,0,1,6.2-1.85,44.14,44.14,0,0,1,5.56-.39A17.63,17.63,0,0,0,448,38.68l-8.55,1.5c-.23-.26-.7-.58-.65-.78.93-3.84,4.52-6.27,9.38-6.44,3.8-.13,6.58,1.79,7.41,5.81a28.48,28.48,0,0,1,.47,8.65c-1.57,14.61-2.76,29.31-7.82,43.3a6.78,6.78,0,0,0,0,1.88c2,.34,3.93.55,5.82,1,3.56.88,5.46,2.78,5.48,5.21s-1.88,4.38-5.46,5.15a36.52,36.52,0,0,1-5.41.54c-19.39,1.19-38.78,2.47-58.19,3.49-7.06.37-14.16.32-21.23.07-2.46-.09-6.63.39-6.73-2.86-.11-3.43,4-2.63,6.5-3.12,2.63-.53,5.32-.73,8-1.08-3.9-18.72-2.05-36.8,2.5-54.67a48.26,48.26,0,0,1,5.31-11.84,14.1,14.1,0,0,1,5.2-4.57,4.13,4.13,0,0,1,3.89.37c.69.65.56,2.62.22,3.84-1.47,5.21-3.18,10.36-4.72,15.55A11.79,11.79,0,0,0,389.33,52.64Z" style="fill:#fff"/><path d="M247.06,105.15c-3.41-6.73-3-13.38-2.5-19.81,1-13.76,2.63-27.48,4-41.22.2-2,.75-3.92,1.11-5.89,2.63-14.46,11.67-22.48,25.67-25.45a15,15,0,0,1,5.39-.36c1.2.2,2.23,1.43,3.33,2.2-.82,1-1.44,2.42-2.51,3-3,1.59-6.34,2.69-9.41,4.24-5.17,2.61-8.59,6.8-9.54,12.54-1.27,7.69-2.25,15.44-3.23,23.18-.4,3.18-.49,6.4-.77,10.24,3.82-1.47,7-2.82,10.19-3.88,4.14-1.36,8.34-2.51,12.53-3.7s4.13-1.15,4.78-6.82c-4,.7-7.86,1.47-11.76,2a61.88,61.88,0,0,1-8.12.74c-.9,0-2.39-.75-2.57-1.43a3.91,3.91,0,0,1,.7-3.35,13.29,13.29,0,0,1,5.13-2.9c5.43-1.41,10.93-2.59,16.44-3.64,3.58-.68,4.49-1.59,4.3-5.42-.15-3.11-1.47-4.53-5.13-3.89a143,143,0,0,0-14.68,3.86,54.9,54.9,0,0,0-5.5,2.35c.41-2.09.24-3.74,1-4.45,1.93-1.85,4-3.89,6.46-4.75a60.1,60.1,0,0,1,14.19-3.45c7.44-.68,12,3.92,12.27,11.36.19,5.58-1.48,10.74-3.69,15.78-.55,1.27-1.43,2.92-1,4,1.39,3.85-.85,5.56-3.66,6.71a102.86,102.86,0,0,1-12.31,4.21c-4.91,1.3-9.95,2.1-14.91,3.2-6.17,1.37-6.16,1.4-5.92,8.71,3.18-.59,6.32-1.26,9.5-1.71a39.68,39.68,0,0,1,6-.26c1.73,0,4.08-.46,4.33,2s-2.23,2.65-3.84,3c-5.8,1.45-11.66,2.66-18.19,4.12l-2.47,7.14a30.74,30.74,0,0,0,4.06-.6c10.45-3.2,21.06-5.65,32-6.32a49.56,49.56,0,0,1,10.3.36c8.72,1.3,14,7,13.41,15.67-1,14.94-7.13,27.67-18.89,37.27a14.57,14.57,0,0,1-6.86,2.89c-3.45.5-5.83-2.45-5.29-5.88.3-1.92,1-3.32,3.45-3.4a5.43,5.43,0,0,0,3.59-1.6c6.46-7.52,11.61-15.8,14-25.55a18.49,18.49,0,0,0,.64-4.83c-.08-3.26-1.41-5.3-4.64-5.83a38.16,38.16,0,0,0-11.32-.46c-10.6,1.51-21.12,3.57-31.69,5.29C252.63,104.95,249.76,105,247.06,105.15Z" style="fill:#fff"/><path d="M748.63,65.12l-2.18-4.46c-2.54,1.49-5.14,3.06-7.77,4.56-2.35,1.34-4.86,1.93-7.16.15-2.53-1.95-2.62-4.83-1.6-7.46,1.43-3.69,3.33-7.19,5.23-11.22-4.13-.56-8.29-1-10.54-5.47-4.33,4.82-10.08,5.58-15.7,7.41-.32,1.54-.63,3.1-1,4.65-.47,2.21.4,3.61,2.15,5.08,4,3.38,7.78,7.1,11.62,10.69a6.66,6.66,0,0,1,1.81,2,23.39,23.39,0,0,1,.88,3.92c-1.34.27-2.93,1.14-4,.7a42.33,42.33,0,0,1-7-4.11c-2.06-1.38-4-2.95-6.69-5-.43,4.88-.89,8.81-1.1,12.76a336.15,336.15,0,0,1-7.85,58.24,36,36,0,0,1-2.05,6.75,3.52,3.52,0,0,1-2.88,1.72c-.87-.16-1.91-1.6-2.12-2.63a16.15,16.15,0,0,1,.1-4.87c1.93-17.7,3.92-35.39,5.84-53.08a33.08,33.08,0,0,0-.26-10.3c-1.3,1.35-2.57,2.73-3.89,4a100.14,100.14,0,0,1-7.47,7.15,4.1,4.1,0,0,1-3.86.25,4.25,4.25,0,0,1-1.14-3.71,17.11,17.11,0,0,1,2.59-5.34c4.85-7.25,9.81-14.42,14.72-21.62,1-1.45,1.92-2.94,3.47-5.31-3.17.51-5.26.82-7.34,1.18-1.25.21-2.49.57-3.74.73-2,.26-4.26.59-5.16-1.79s1-3.7,2.82-4.56a84.43,84.43,0,0,1,10.52-4.44c3.2-1,4.65-2.82,5.21-6a81.46,81.46,0,0,1,2.68-10,18.62,18.62,0,0,1,2-4.45c2.65-4.18,5.81-3.93,8.07.56,1.88,3.71,3.66,7.48,5.65,11.13A16.15,16.15,0,0,0,724,35.84c4.15-4.85,8-9.57,12.14-14.07a13.72,13.72,0,0,1,5-3.23,3.92,3.92,0,0,1,3.3.86c.47.41.28,2.1-.16,2.91-1.12,2.07-2.65,3.91-3.85,5.94-1.84,3.11-3.54,6.3-5.28,9.42,4.12,2.64,5,2.61,7.74.09,2.28-2.07,4.48-4.26,6.94-6.09,1.66-1.24,3.68-2.45,6.43-.23-5.78,9.13-13.68,16.89-17.56,27.17,5,.32,8.16-1.8,9.71-6.14a15.25,15.25,0,0,1,2.85-5.1c1.37-1.5,3.66-.61,3.44,1.3-.66,5.67-1.52,11.35-4.34,16.38ZM719,35.6c-1.16-4.54-2.4-8.17-6.06-11.48-1.29,4.69-2.52,8.66-2.17,13.33Z" style="fill:#fff"/><path d="M630.24,58.64c1.45-1.8,2.8-3.7,4.38-5.39,2.6-2.77,5.25-5.52,8.08-8.05,1.59-1.42,3.64-3,5.84-1.23,2.35,1.86.88,4.13-.3,5.83a110.17,110.17,0,0,1-7.41,9.37c-2.1,2.42-4.49,4.58-6.75,6.86l.54,1c3.67-.52,7.32-1.22,11-1.49a70.18,70.18,0,0,1,10.82,0c2.2.18,4.22,1.32,4.59,4A4.75,4.75,0,0,1,658,74.71a44.42,44.42,0,0,1-9.22,3.07c-5.69,1.08-11.47,1.69-17.42,2.53A17.17,17.17,0,0,0,632.91,93c2,3.88,5.79,5,9.78,4.28,3.52-.67,6.9-2.15,10.3-3.36,2.37-.84,4.76-2.38,7,.11,1.57,1.75.85,4.25-2.16,7-5.74,5.32-12.32,8.33-20.36,6.71-6.08-1.23-10.62-4.52-13.25-10.25-.38-.82-.79-1.62-1.22-2.4-.07-.13-.31-.16-.8-.4-.83,1.49-1.58,3.06-2.52,4.51q-6.09,9.34-12.28,18.6a16.88,16.88,0,0,1-1.76,2.08c-1.34,1.44-3.14,2.58-4.66,1-.78-.83-.83-3.18-.24-4.34,2.54-5,5.49-9.83,8.21-14.76,3.41-6.17,6.75-12.38,10.77-19.77-2.89.43-4.56.64-6.21.93-3.94.68-7.86,1.45-11.8,2.09a17.75,17.75,0,0,1-4.87.33c-2.92-.35-3.94-3.06-1.86-5.1a16,16,0,0,1,5-3.22c5.36-2.21,10.81-4.18,16.51-6.35-2.77-2.58-5.62-5-8.2-7.73a16.12,16.12,0,0,1-3.61-5.34,4.79,4.79,0,0,1,1-4.24c1.5-1.36,3,0,4.07,1.36q4.88,6.2,9.72,12.43a11.07,11.07,0,0,1,1,1.92l1-.61c.48-5.72.9-11.44,1.45-17.14.3-3.07.76-6.12,1.26-9.16a16.8,16.8,0,0,1,1.11-3.64c.72-1.73,1.71-3.38,3.94-3.1,2.58.33,3,2.47,3,4.49a25.6,25.6,0,0,1-.49,5.41c-.78,4.25-1.71,8.47-2.57,12.7Z" style="fill:#fff"/><path d="M117.13,59.58c-3.34.75-6.67,1.53-10,2.24-1.24.27-2.61.81-3.72.51-1.42-.38-3.33-1.23-3.78-2.37s.32-3.14,1.2-4.26a10.8,10.8,0,0,1,4-2.71,100.53,100.53,0,0,1,10.53-4.44c3-1,4.31-2.51,4.7-5.72.74-6.12,2-12.18,3.17-18.24.44-2.22.64-5.46,3.68-5.18s2.56,3.48,2.52,5.75c-.08,4.54-.38,9.07-.55,13.61-.06,1.59,0,3.19,0,5.12,3.94-.23,7.5-.47,11.07-.65a10.53,10.53,0,0,1,3.78.08c1.24.42,3.09,1.41,3.17,2.3a4.91,4.91,0,0,1-1.79,4,80.66,80.66,0,0,1-9.84,4.62c-2.16.91-4.42,1.58-7.1,2.52-.14,3-.58,6.08-.3,9.08a8.15,8.15,0,0,0,2.5,4.47c3.75,3.7,7.8,7.08,11.55,10.78.85.83.94,2.43,1.39,3.67-1.33.32-2.79,1.14-4,.85A20.14,20.14,0,0,1,134,83c-1.85-1.12-3.57-2.45-5.46-3.77-1.83,1.53-1.06,3.47-1.16,5.13-.73,12-.83,24-2.28,35.86-.82,6.73-3.82,13.19-5.87,19.76a9.52,9.52,0,0,1-1,1.94c-1.1,1.86-2.57,3.23-4.88,2.44s-2.46-2.94-2-5c4.34-18,3.8-36.44,5.13-54.71a24.48,24.48,0,0,0-.23-2.91c-1.37,1.54-2.28,2.53-3.15,3.55-4.91,5.83-9.79,11.68-14.71,17.5a6.64,6.64,0,0,1-2.42,2.1,3.66,3.66,0,0,1-3-.25,3.36,3.36,0,0,1-1-2.82,10.83,10.83,0,0,1,1.86-3.89c5.36-7.55,10.79-15,16.2-22.57,2-2.8,4-5.59,6-8.42C117.68,64.79,118.47,62.48,117.13,59.58Z" style="fill:#fff"/><path d="M769.21,70.95l12.94-2c.72-.11,1.43-.3,2.14-.39,2.06-.27,4.17-.3,5.14,2s-.5,3.87-2.29,4.93c-2.81,1.66-5.71,3.15-8.63,4.61-1.43.72-3,1.21-5.11,2.06l5.47,9.55c2.17-2.35,3.81-4.2,5.55-6A13.74,13.74,0,0,1,787.76,83a3.29,3.29,0,0,1,2.94.08,3.12,3.12,0,0,1,.53,2.86c-1.17,2.85-2.64,5.57-4,8.33-.8,1.6-1.66,3.16-2.6,5l5.17,5.92c3.08-2.76,3.06-7.66,7.48-8.59,2.19,1.07,2.22,2.92,1.83,4.7a118.56,118.56,0,0,1-2.87,11.63c-1.66,5.12-5.79,6.56-10.3,3.56-2.69-1.79-5-4.16-7.85-6.6-2.15,3-4.19,6-6.29,8.87a27.55,27.55,0,0,1-3.77,4.63c-.78.69-2.64,1.15-3.34.69a4.76,4.76,0,0,1-1.92-3.44,10.73,10.73,0,0,1,1.5-4.59c2.4-4.68,4.94-9.28,7.53-14.11L762,84.49l-9.83,1.88c-1.25,4.94-2.23,9.48-3.59,13.9-.69,2.23-.53,3.78,1.35,5.24s3.41,3.24,5.31,4.59a3.83,3.83,0,0,1,1.38,5.22,3.32,3.32,0,0,1-4.67,1.56c-2.73-1.31-5.23-3.09-8.48-5.07a34.19,34.19,0,0,1-3.18,4.08,102.56,102.56,0,0,1-8.07,7.18,3,3,0,0,1-2.89-.15c-.58-.53-.67-2-.46-2.9a10,10,0,0,1,1.59-2.82L749.35,87c-5.89.91-10.43,1.7-15,2.28a50.63,50.63,0,0,1-8.12.41A3.12,3.12,0,0,1,724,87.87a3.22,3.22,0,0,1,1.1-2.72,17.6,17.6,0,0,1,4.8-2.5c7.91-2.67,15.86-5.21,23.8-7.78,1.54-.5,3.12-.89,5.09-1.45-.31-3.14-.75-6.15-.86-9.17a83,83,0,0,1,.22-9.23c.13-1.7,1-3.49,3-3.16A4.62,4.62,0,0,1,764,54.5c1.42,3.92,2.46,8,3.67,12C768.08,67.84,768.59,69.18,769.21,70.95Z" style="fill:#fff"/><path d="M165.14,252.48c-1.42,2.18-2.47,3.86-3.59,5.5-1.25,1.82-2.53,3.79-5.2,2.9-1.86-.62-2.36-3-1.17-6.29a57.82,57.82,0,0,1,3.55-7.95,6.36,6.36,0,0,0,.07-6.63,69.33,69.33,0,0,1-3-7c-.86-2.17-1.61-4.37-2.39-6.48-4.8.36-13.85,3.42-19.26,6.47-.06,1.12-.2,2.37-.18,3.61,0,1.43.2,2.85.33,4.62,1.45-.38,2.62-.77,3.83-1a25.47,25.47,0,0,1,3.06-.16c.88,3-1,4.49-2.75,5.58-3.37,2.12-4.19,5-4,8.75a56.27,56.27,0,0,1-.59,11.39,18.61,18.61,0,0,1-2.56,6.48,3.06,3.06,0,0,1-4.3,1.1c-1.81-1-2.94-2.86-2-4.51,2.33-4,1.18-8.07,1.39-13.12-2.9,1.92-5.18,3.51-7.53,5-1.52.94-3.26,2.21-4.87.34-1.44-1.68-.73-3.59.58-4.92,2.28-2.31,4.58-4.79,7.33-6.4,3.61-2.1,5.31-4.65,4.62-8.8a41.55,41.55,0,0,1-.25-4.57c-5.7-.21-10.06,5.31-15.69,3.78-1.17-2.87.37-4.32,1.92-5.56,2.55-2,5-4.41,8-5.67,5.22-2.25,6.62-5.91,6.17-11.19-.24-2.83.44-5.77.92-8.63.16-.93,1-1.74,2-3.35,3.93,4.7,2.31,10.12,4,15.43l8.22-3.43,8.51-3.52c1.16-5.89-2.08-11.71.76-18.3,2.74,5.46,2.48,11,4.73,16.34a52.41,52.41,0,0,1,6.2-1.6,83.08,83.08,0,0,1,10.76-.91,4.57,4.57,0,0,1,4.58,4c.5,2.49-.81,4.29-3,5.24-3.15,1.38-6.39,2.54-9.64,3.68-1.84.65-3.76,1.06-6.31,1.76l4.43,11.74,1.28.12c1.36-2.46,2.7-4.93,4.08-7.38a16.16,16.16,0,0,1,2-3.21,2.83,2.83,0,0,1,2.31-.84,2.7,2.7,0,0,1,1.58,1.91,13.41,13.41,0,0,1-.32,4.83,73.24,73.24,0,0,1-3.7,10.79c-1.41,3-1.45,5.44.75,8,1.39,1.6,2.63,3.33,4.72,6l4.71-5.92a11.11,11.11,0,0,1-3.21,9.31c-1.81,1.85-4,1.64-6.23-.61C168.9,257.25,167.29,255,165.14,252.48Z" style="fill:#fff"/><path d="M53,104.57c-.66,7.3-1.21,14.35-2,21.38a43.62,43.62,0,0,1-5.14,17.11,21.81,21.81,0,0,1-2,3.22c-2,2.45-4.26,2.91-6.11,1.41a5,5,0,0,1-.2-7.2c.71-.75,1.87-1.38,2.07-2.25,1.51-6.28,3.11-12.58,3.12-20.1-1.63,1.52-2.59,2.49-3.63,3.36Q30.34,128.8,21.5,136a5.25,5.25,0,0,1-2.3,1.4c-1.32.15-3,.3-4-.38-1.67-1.23-.81-3,.3-4.3,1.54-1.79,3.21-3.46,4.91-5.1,5.62-5.39,11.27-10.74,17.22-16.4-2.23-1.19-3.72.29-5.29.57-3.38.6-6.71,1.85-10.09,2-5.35.19-8.19-3.84-5.94-8.72a186.49,186.49,0,0,1,9.26-16.62c1-1.75,2-3.08,1.22-5.43-1-3.1,1.56-4.58,3.95-5.6,6.21-2.64,12.59-4.72,19.4-5.07,2.53-.13,5.08-.23,7.61-.11,2,.1,3.72,1.35,3.54,3.37a5.72,5.72,0,0,1-2.59,3.58,48.7,48.7,0,0,1-6.78,3l1,13,11.44-2.89a16,16,0,0,1,4.23-1c1.45.05,3.65.37,4.16,1.32,1.1,2-.78,3.23-2.44,4.1s-3.25,1.62-4.91,2.35C61.29,101,57.14,102.76,53,104.57ZM46.27,84.83c-4.11.64-7.67,1.11-11.18,1.81a4.14,4.14,0,0,0-2.56,1.68,88.29,88.29,0,0,0-7.69,16.54c7.09-2.43,13-4.4,18.91-6.57a3.52,3.52,0,0,0,1.67-2.52C45.85,92.24,46,88.67,46.27,84.83Z" style="fill:#fff"/><path d="M674,207.89l1.34-12.14c-1.8-.15-3.35-.2-4.87-.43-3-.45-6.2-.58-9-1.59-4.44-1.59-6-5.33-4.19-9.68,1.18-2.82,2.09-6.31,6.79-6.64v8.66a48.32,48.32,0,0,0,6,.27c6.34-.45,12.65-1.15,19-1.58,2.26-.15,5.19-.65,5.79,2.54s-2.36,3.71-4.47,4.5c-3.22,1.2-6.53,2.16-10.45,3.43l.63,11.3c2.63,0,5.1,0,7.57,0,1.75,0,4-.48,4.46,2,.52,2.72-1.81,3.19-3.71,3.76-2.6.79-5.22,1.49-8.25,2.34l-.47,4.58a6.53,6.53,0,0,0,1.84.58c4.52-.32,9-.71,13.57-1a24.62,24.62,0,0,1,3.27,0c1.72.1,3.62.54,3.38,2.59-.12,1-1.65,2.36-2.79,2.71-5,1.53-10.17,2.72-15.24,4.09-4.24,1.15-4.33,1.19-4.42,5.4-.16,7.26.05,14.54-.31,21.79-.48,9.78-1.25,19.55-2.12,29.31a18.76,18.76,0,0,1-2.17,6.62c-.4.78-2.14,1.29-3.18,1.17-.62-.08-1.4-1.59-1.5-2.53a37.77,37.77,0,0,1,.25-4.88q.7-25.32,1.35-50.64a20.75,20.75,0,0,0-.32-2.63c-3.29.89-6.37,1.74-9.47,2.55a36.81,36.81,0,0,1-6.34,1.51c-3.78.29-5.66-2.69-4-6.13.46-1,1.24-1.8,1.78-2.74,2.14-3.71,5.16-6.92,5.38-11.67.06-1.21,2.25-2.72,3.76-3.38C666.2,210.39,669.86,209.32,674,207.89Zm-1.15,8.61c-8,.51-8.2.67-9.34,8.26l9.34-2.91Z" style="fill:#fff"/><path d="M370.78,224.47c5.46-1,9.88-2.87,14.6-1.47-3.5,3.14-7.72,4.33-12.05,5.12-2,.37-3.61.68-2.73,3.69,1.33-.11,2.7-.21,4.07-.36,5.59-.6,11.16-1.4,16.76-1.72a22.46,22.46,0,0,1,7.49,1.12c4.46,1.32,7.36,4.55,7.2,9.18-.38,11.1-3.79,21-12.88,28.24a8.92,8.92,0,0,1-3.91,1.72c-2.21.37-3.95-.4-4.19-3.34,7.93-4.79,10.83-12.95,13.41-21.3a15.31,15.31,0,0,0,.65-3.19c.35-4.07-.91-5.82-5.05-6.12a88.17,88.17,0,0,0-10.33.22c-1.45.07-2.88.39-4.32.58-8.1,1.06-8.1,1.05-13.46,5.25-.57-1.87-1.43-3.46-1.48-5.07-.39-14.9-.73-29.83,2.11-44.55a39.9,39.9,0,0,1,4.28-11.65c2.3-4.14,5.09-4.48,9.9-2.13-4,3.25-6.53,7.1-5.75,12.76a38.5,38.5,0,0,1,4.19-1.57,46.36,46.36,0,0,1,8.48-1.74c5.39-.29,8.53,2.67,9.06,8,.68,6.8-2.11,12.39-6.27,17.45a3.66,3.66,0,0,1-1.69,1.32c-4,.94-8.11,1.92-12.21,2.52-1.12.16-2.43-.92-3.66-1.44.84-1,1.48-2.65,2.54-3,3.07-1,6.31-1.53,10.25-2.4l2-5L372.64,207Zm2.62-22.11c4.76-1.06,9.13-2.08,13.53-3,1.81-.37,2.63-1.53,2.14-3-.29-.89-1.77-2.08-2.57-2-3.19.42-6.32,1.29-9.47,2S372.53,199,373.4,202.36Z" style="fill:#fff"/><path d="M484.06,53.93c2.65,1.27,4.57.2,6.88-1.62,8.53-6.74,18-3.61,20.5,7,2.83,12.09.93,23.83-4.59,35a5.3,5.3,0,0,1-5.65,3.32c-1.87-.14-3.82.68-5.73,1.07-3.19.64-6.36,1.7-9.56,1.82-3.86.14-5-1.19-5.66-5.08-1.84-10.72-.68-21.39.68-32C481.33,60.1,481.42,56.75,484.06,53.93Zm17.35,15.47c.15-1.41.38-2.81.43-4.22a24.61,24.61,0,0,0-.14-4.33c-.55-3.87-2.21-4.86-6.06-3.76C489,59,486.28,65.45,489.11,72ZM489,80.12V92.69l10-2.2,1.54-15.16Z" style="fill:#fff"/><path d="M552.65,91.59c-5.35.76-10,1.49-14.59,2.05-5.4.66-10.81,1.21-16.23,1.71a9.69,9.69,0,0,1-3.76-.34,2.57,2.57,0,0,1-.9-4.66A15.31,15.31,0,0,1,522,88q14.6-4.35,29.26-8.46c1.94-.55,3.9-.69,4.59-3.12.51-1.78,1.56-3.86,3.62-3.26,1.33.39,2.19,2.4,3.5,4,2.94.19,6.36.37,9.76.65,1.91.16,3.64.84,4.13,2.93.54,2.32-.74,3.94-2.69,4.8-3.79,1.67-7.69,3.1-11.86,4.76-.57,4.82-.8,9.91-1.84,14.82a113.47,113.47,0,0,1-4.68,16.14c-1.81,4.85-5.38,8.64-9.61,11.58a10.89,10.89,0,0,1-5.51,1.76c-2.24.1-3.92-2.07-3.85-4.44.06-2,.39-4.2,3.15-4.15s3.25-2.05,4.21-3.68c4.53-7.65,6.17-16.22,7.7-24.81C552.2,95.86,552.33,94.24,552.65,91.59Z" style="fill:#fff"/><path d="M179.56,87.86c1.3-.31,2.17-.59,3.05-.7,5.31-.72,8.83,2.12,9.22,7.42.34,4.56-1.41,8.56-3.59,12.38-1.26,2.2-2.75,4.26-4.39,6.77,2.47,2.09,5,4.08,7.35,6.27a72.46,72.46,0,0,1,7.58,7.79c.93,1.18,1.51,3.67.89,4.84-1.17,2.21-3.55,1.35-5.28.28-5.4-3.36-10.7-6.87-16-10.32l-1.81-1.18c-5.36,2.8-10.59,5.63-15.92,8.26a17.44,17.44,0,0,1-6.17,2,5.18,5.18,0,0,1-3.92-2c-1.06-1.53,0-3,1.53-4.09,3.87-2.71,7.72-5.45,11.52-8.26,1.44-1.06,2.73-2.34,4.34-3.73-2.84-3-4-7-8.3-8.42-.8-.25-1.43-2.36-1.37-3.57a5.86,5.86,0,0,1,1.8-3.26c4.27-4.46,8.47-9,13-13.16C176.7,81.87,178.14,82.55,179.56,87.86Zm3.28,6.33c-6.55.68-11.48,2.61-15.12,8.15l6.79,5.08C178.33,103.53,181.41,99.85,182.84,94.19Z" style="fill:#fff"/><path d="M357.15,86.54A56.2,56.2,0,0,1,351,89a34,34,0,0,1-8.48,1.64c-8.54,0-14.23-5.6-13.74-14.1.3-5.19,1.9-10.3,3-15.43a4.44,4.44,0,0,1,1.36-2.3,3.07,3.07,0,0,1,2.38-.78,2.84,2.84,0,0,1,1.42,2,29,29,0,0,1,.06,4.34c0,3.27-.18,6.55.1,9.79.44,5.11,1.92,6.07,8.25,5.48,0-1.69,0-3.44,0-5.19a79.63,79.63,0,0,1,3.46-24.16,12.35,12.35,0,0,1,1.56-4c.78-1,2.33-2.16,3.35-2s2.33,1.75,2.56,2.91a22.81,22.81,0,0,1,.13,6.5c-.57,6.33-1.28,12.64-1.95,19-.2,1.91-.43,3.82-.66,5.85,3.38.16,4.85-1,5.51-3.85a134.41,134.41,0,0,1,3.78-13.05c.66-1.9,2.09-3.54,3.08-5.14,3.37.88,3.2,3,3.1,5a108.64,108.64,0,0,1-5,27.25,8.72,8.72,0,0,1-1.14,2.45c-1.61,2.22-4,2-5.06-.49A24.66,24.66,0,0,1,357.15,86.54Z" style="fill:#fff"/><path d="M553,33.82c3.57-.45,6.77-.88,10-1.23a23.6,23.6,0,0,1,3.81-.1c2.29.12,4.44.7,5,3.32a4.23,4.23,0,0,1-2.65,4.89,104.37,104.37,0,0,1-13,5.47c-6.78,2.08-7,2-7.43,9.92,2.52-.42,5-.91,7.43-1.2a10.18,10.18,0,0,1,4.31.12c1.21.42,2.74,1.48,3,2.56a4.66,4.66,0,0,1-1.24,3.8,12.3,12.3,0,0,1-5,3.14c-6.29,1.72-12.67,3.11-19,4.57a8.2,8.2,0,0,1-2.18,0c-2.11-.1-4.11-.6-4.73-2.9-.66-2.49,1.18-3.56,3.06-4.46a4,4,0,0,1,1-.41c6.5-1.06,7.52-5.72,7.54-11.89L532.7,50.9a33.87,33.87,0,0,1-5.93.72c-1.27,0-3.39-.77-3.57-1.55a5.67,5.67,0,0,1,1.16-4.28,12.41,12.41,0,0,1,4.41-3.1c3.62-1.67,7.25-3.53,11.08-4.5,4.18-1.06,6.13-3.29,6.44-7.44a9.86,9.86,0,0,1,1.17-4.15c.55-.93,1.92-2.09,2.74-2s2,1.57,2.21,2.6A45.59,45.59,0,0,1,553,33.82Z" style="fill:#fff"/><path d="M259.33,224.15c-3.11.45-5.93,1-8.77,1.23-2.21.21-3.53-.54-4.16-3.13-1.68-7-.77-13.72,1.43-20.36.86-2.6,1.94-5.13,5.61-4.87,1.11.08,2.29-1,3.44-1.45,5-2.17,8.4-.67,10.15,4.57a14.4,14.4,0,0,1,1,4.24c.19,15.43.45,30.86.28,46.29,0,3.71-1.43,7.47-2.57,11.09a8.7,8.7,0,0,1-3.05,4.34,5.39,5.39,0,0,1-4.45.34c-1.77-.74-1.32-2.46-.79-4.22a37.42,37.42,0,0,0,1.85-9.54C259.49,243.26,259.33,233.84,259.33,224.15Zm-4.87-4.53,5.05-.43V212.5C254.36,212.85,254.36,212.85,254.47,219.62Zm5.1-17.63c-2.66,1.43-4.29,2.69-4.41,5.65h4.41Z" style="fill:#fff"/><path d="M196.27,221a30.47,30.47,0,0,1-2.6,5c-.77,1-2.64,2.35-3.27,2-1.19-.59-2-2.18-2.63-3.53-.31-.7.1-1.77.32-2.65a62.52,62.52,0,0,1,14.18-26.68c1.77-2,3.82-4.9,6.75-3.06,3.34,2.1.37,4.81-.53,7.14a37.93,37.93,0,0,1-2.46,4.86c-1.18,2.1-2.2,4-.42,6.48.82,1.15.61,3.17.57,4.79q-.57,27-1.26,53.92a8.79,8.79,0,0,1-.49,3.74c-.69,1.29-1.82,2.92-3.05,3.23-2.23.55-3-1.53-3.48-3.34a19.4,19.4,0,0,1-.45-3.23,252.1,252.1,0,0,1-.32-46.79,8,8,0,0,0-.15-1.56Z" style="fill:#fff"/><path d="M619.28,186.18c-12-1.7-23,1.13-34.06,4.33-.93-4.24,1.56-5.66,3.75-6.4a100.84,100.84,0,0,1,15.68-4.19,55.24,55.24,0,0,1,13-.28c6.3.47,8.69,3.21,8.77,9.47,0,3.26-.36,6.52-.47,9.78-.39,10.88-.71,21.76-1.11,32.64-.21,5.84-.88,11.68-3.74,16.85a28.45,28.45,0,0,1-6.41,8c-3.91,3.26-7.14,1.45-7.89-4.39,3.88-.45,5.65-3.31,6.43-6.74a126.6,126.6,0,0,0,3-16c1.24-13.18,2.06-26.39,3-39.59C619.33,188.77,619.28,187.88,619.28,186.18Z" style="fill:#fff"/><path d="M552.16,232.13c6.37,9.27,1.58,16.67-4.81,24.07a20.34,20.34,0,0,0,2.52,1.23c15.69,4.91,31.7,8.2,48.18,7.88,7.95-.15,15.87-1.61,23.81-2.46a20.78,20.78,0,0,1,7.34.16,11.59,11.59,0,0,1-2.41,2.3,23,23,0,0,1-4.61,1.61c-17.48,4.66-35.06,5.86-52.8,1.51q-14.53-3.56-29.05-7.16c-2.86-.71-3.73-2.92-2-5.31.83-1.17,2.1-2,3-3.11a60.81,60.81,0,0,0,5.76-7.18c1.89-3.07,2.51-6.43-.15-9.62-2.26-2.72-1.32-5.33.26-8s3.88-4.84,3.69-9l-7.39.47c-.29-.57-.83-1.16-.71-1.49,1.23-3.34,5.71-5.39,9.37-4.39a6.46,6.46,0,0,1,4.66,8.07C555.8,225.09,553.93,228.27,552.16,232.13Z" style="fill:#fff"/><path d="M262.05,129.29c5.65-1.11,10.33-2.73,11.71-9a14.08,14.08,0,0,1,2.85-5.19,3.16,3.16,0,0,1,2.83-.87,3.09,3.09,0,0,1,1.54,2.47c-.48,10.41-2,20.62-7,30a5,5,0,0,1-1.74,2c-.88.48-2.27,1-3,.61a4.59,4.59,0,0,1-2-2.85,10.71,10.71,0,0,1,.44-3.74c.34-1.91.72-3.81,1.24-6.54-2.33,1.1-3.89,1.87-5.48,2.59-5.7,2.57-11.61,4.26-17.94,3.74-6-.49-10.11-3.38-11.26-7.85-1.27-4.94,1.44-13,5.31-15.68.25-.17.69-.06,1.6-.12a18.46,18.46,0,0,1,.61,3.28,19.8,19.8,0,0,1-.54,3.22c-1.13,7.32.89,9.26,8.31,7.92,1.24-.22,2.45-.64,4-1.06.48-3,.75-6,1.52-9a54,54,0,0,1,3.43-9.69,4.86,4.86,0,0,1,3.76-2.35c2.14.16,1.84,2.38,1.63,4-.55,4-1.27,7.88-1.89,11.83A17,17,0,0,0,262.05,129.29Z" style="fill:#fff"/><path d="M335.47,205.62a20.68,20.68,0,0,0-10.89,6.68c-.62.66-1,1.76-1.72,2.06-1.38.57-3.11,1.24-4.36.83-.93-.31-2.14-2.5-1.84-3.41,2.08-6.34,4.44-12.59,7-18.77.3-.74,2.13-1.27,3.16-1.14.6.08,1.3,1.62,1.42,2.57a44.61,44.61,0,0,1,.07,5.59c1.79-.59,3.13-1.1,4.52-1.47,5.14-1.39,9.35.4,10.67,5.55a39.44,39.44,0,0,1,.92,12.87c-.85,10.14-4.11,19.51-11.06,27.23a17.5,17.5,0,0,1-5.43,4.39A5.9,5.9,0,0,1,323,248c-1.88-1.28-.92-3.16.28-4.73,4.22-5.54,6.8-11.85,9.14-18.74-3-.24-5.47-.33-7.93-.66-1.86-.25-3.77-.95-3.68-3.24.1-2.65,2.27-3.26,4.32-2.92a86.36,86.36,0,0,1,8.64,2.32C335.26,215.95,336.52,211.36,335.47,205.62Z" style="fill:#fff"/><path d="M66.9,16.65c14.76-.43,20.36,6,18.08,19A43.26,43.26,0,0,1,82.85,43c-.8,2.19-2.29,3.9-4.89,3.42s-2.69-2.62-2.84-4.67c-.19-2.72-.29-5.45-.61-8.15-.66-5.52-1.09-6-6.41-5.3-9,1.26-17.93,2.81-26.88,4.35-3.22.56-6.36,1.51-9.57,2.16a15.52,15.52,0,0,1-4.85.48c-1.27-.15-3.18-.87-3.45-1.75s.51-2.88,1.43-3.71A24.71,24.71,0,0,1,30.68,26,97.9,97.9,0,0,1,66.9,16.65Z" style="fill:#fff"/><path d="M503.54,224.08c-4.2,0-8,.06-11.71,0a21.3,21.3,0,0,1-5.36-.62,2.37,2.37,0,0,1-.19-4.61,60.59,60.59,0,0,1,7.29-2.17c3.5-.89,7-1.68,10.75-2.57.28-2.4.48-4.55.81-6.69a50.87,50.87,0,0,1,1.42-7.47,3.56,3.56,0,0,1,2.64-2.09c.76,0,1.9,1.49,2.15,2.49a30.2,30.2,0,0,1,.38,5.42c.11,2,.24,3.94.38,6.32,3.44,0,6.63-.12,9.8,0,2.45.12,5.56-.25,6,3.21.45,3.27-2.44,4.3-4.76,5.1-3.57,1.23-7.32,2-11.16,3-.53,6.92-.84,13.81-1.65,20.63-.73,6.12-1.91,12.19-3.09,18.24-.5,2.56-1.45,5.09-5.77,3.72Z" style="fill:#fff"/><path d="M770.68,38.29c6.19-.39,10.43-1.6,13.47-6a27.39,27.39,0,0,1,6.3-6c1.43-1.07,3.39-1.43,5-2.08,1.56,2.59-.12,3.64-1,4.89-3.86,5.72-7.84,11.35-11.6,17.13a78,78,0,0,0-3.8,7.66c6-1.48,11-1.94,12.82-7.95.59-1.94,1.59-4.14,5.12-4-.17,7.79-2.69,14.63-5.48,22-4.45-3-1.23-6.77-2.63-9.82-1.35.67-2.63,1.27-3.88,1.93-1.44.76-2.85,1.61-4.29,2.36-2.19,1.15-4.51,1.75-6.68.14-2.44-1.82-2.13-4.47-1.5-7,.47-1.9,1.28-3.72,2.19-6.31l-5,1.1c-6.51,1.42-10.81-2.85-9.22-9.29a18.29,18.29,0,0,1,2.07-5c2.44-4,5-8,7.66-11.9a14.73,14.73,0,0,1,3-3.12c1.32-1.06,3.09-1.94,4.35-.39a4.66,4.66,0,0,1,.38,3.87c-1.24,3.4-2.91,6.65-4.33,10C772.74,32.88,771.89,35.21,770.68,38.29Z" style="fill:#fff"/><path d="M294.36,208c2.15-.25,3.35-.38,4.55-.54,4.91-.66,8,.87,9,5.65a44,44,0,0,1,.43,11.84,30.79,30.79,0,0,1-2.09,7.86c-1.45,4.14-2,4-6.53,4.63a20.14,20.14,0,0,0-7.88,3.06c-3.56,2.26-5.54,2-6.89-1.89a22.84,22.84,0,0,1-1.23-5.84,72.94,72.94,0,0,1,3.72-29.51,34.42,34.42,0,0,1,4.49-8c1.09-1.56,3.2-2.44,4.69-.85.81.86.78,2.95.49,4.34C296.46,201.65,295.41,204.47,294.36,208Zm6.77,12.13-.28-6.28c-6.73,1.33-7.43,2.21-6.49,7.83Zm-1.23,5.4-6.4,2.62v5.06l6.24-1.48c.26-1.7.5-2.93.62-4.18A8.41,8.41,0,0,0,299.9,225.48Z" style="fill:#fff"/><path d="M223.45,227.27c0,5.56.09,10.81,0,16.05a20.94,20.94,0,0,1-1,5.85c-.27.83-1.52,1.94-2.26,1.89a4.26,4.26,0,0,1-3-1.75,10.44,10.44,0,0,1-1.15-4.15,113.28,113.28,0,0,1,1.11-35.25,22.94,22.94,0,0,1,1.4-4.69c1.21-2.85,10.65-6.19,13.12-4.4a9.66,9.66,0,0,1,3.32,4.72c1.76,5.84.09,11.53-1.73,17-.4,1.23-2.3,2.15-3.7,2.81A47,47,0,0,1,223.45,227.27Zm.69-15.18c6.05-.86,6.28-1.27,4.33-7.05C225.52,206.31,224.11,208.44,224.14,212.1Zm4.45,3.43c-4.92,1.88-4.92,1.88-4,6.28C228.53,221.36,228.53,221.36,228.58,215.53Z" style="fill:#fff"/><path d="M166.33,42.54c7,2.35,12.16-3.74,18.29-2.76.36,3.31-1.41,5.06-3.45,6.15-4.62,2.46-9.25,5.17-14.22,6.64-8.73,2.59-14.87-3.94-12.15-12.61,2.39-7.6,7-13.87,12.72-19.36a9,9,0,0,1,3.22-1.95c2.89-1,5.23,1,4.55,4A29.63,29.63,0,0,1,173,28.11C170.8,32.85,168.61,37.58,166.33,42.54Z" style="fill:#fff"/><path d="M424,245.89c-.75-.59-2.68-1.37-2.86-2.45s.92-3.07,2-3.84a34,34,0,0,1,6.83-3.3,88.6,88.6,0,0,1,27.49-6.2,34.49,34.49,0,0,1,10.2,1.12,5.84,5.84,0,0,1,3.41,3.6c.65,2.3-1.3,3.72-3.32,4.22-3.33.83-6.74,1.41-10.13,1.92-10,1.51-20.09,2.94-30.14,4.4Z" style="fill:#fff"/><path d="M576.28,195c1.77,2.25,3.17,3.4,3.7,4.87a23.07,23.07,0,0,1,1.34,6.9c.56,15.39-2.43,29.94-10.81,43.1a14.66,14.66,0,0,1-3.15,3.68,3.08,3.08,0,0,1-2.89.3,4.59,4.59,0,0,1-1.31-3.15c0-1,.8-2,1.19-3,6.05-15.42,11.58-31,10.83-47.92C575.13,198.6,575.69,197.44,576.28,195Z" style="fill:#fff"/><path d="M375.4,260.32c-2.85,1.26-4.91,2.49-7.13,3.07a35.84,35.84,0,0,1-8.52,1.25c-3.33,0-6.12-1.61-7.08-4.93-1.06-3.63-.58-7.22,2.27-10.06.41-.41,1.31-.33,2.41-.58.19,1.44.44,2.6.48,3.76.19,5.35.74,5.74,6.35,4.11,1.62-3.79,0-8.77,3.77-12,2.66,2,2.66,2,2.45,10,5.5-.86,5.48-.87,6.57-5.83.45-2,.3-4.51,3.9-5.21.56,1.22,1.53,2.53,1.75,4a37.2,37.2,0,0,1-2,18.19,4.86,4.86,0,0,1-1.35,2.29,4.19,4.19,0,0,1-2.83.82c-.54-.09-1.23-1.33-1.27-2.09C375.06,265.14,375.28,263.16,375.4,260.32Z" style="fill:#fff"/><path d="M599.22,192.4c1.48,4.77,4,5.71,7.37,5.64a2.94,2.94,0,0,1,2.28,1.73,3.27,3.27,0,0,1-1.51,2.48,26,26,0,0,1-4.49,1.91c-2.66,1-2.67,1-2.8,4.94a54.4,54.4,0,0,1,8,.11c1.37.21,3.31,1.33,3.69,2.47.73,2.17-1.32,3.33-3.11,3.62-6.78,1.08-13.59,2-20.42,2.74-1,.1-2.2-1.39-3.3-2.15.73-.95,1.27-2.29,2.24-2.76a27.37,27.37,0,0,1,6.16-2.05c3.11-.69,3.81-2.3,2.41-5.31a24.69,24.69,0,0,1-4.21-.27c-.95-.22-2.45-.95-2.49-1.54-.08-1.06.71-2.2,1.23-3.27a1.41,1.41,0,0,1,.89-.58C594.67,199.29,597,196.93,599.22,192.4Z" style="fill:#fff"/><path d="M173.66,65.21a42.1,42.1,0,0,1-1.58,4.14,68.88,68.88,0,0,1-23.64,25.73c-1.75,1.15-3.64,2-5.36.05s-.8-3.83.62-5.35q6.46-7,13.12-13.76c3.29-3.37,6.64-6.68,10.08-9.89A8.54,8.54,0,0,1,170.59,64C171.43,63.81,172.53,64.73,173.66,65.21Z" style="fill:#fff"/><path d="M604.61,237.5c2.63,3.69,2.45,4.46-1.56,6a12.42,12.42,0,0,1-2.07.66c-4.2.84-8.68,2.5-12.23-1.11-3.05-3.11-3.33-11.46-1.36-15.38l7.22-2.06a37.28,37.28,0,0,1,3.64-1.08c5.43-1,8.91,2.35,8,7.77A35.91,35.91,0,0,1,604.61,237.5Zm-12.78-5.83,1.5,8.31c4-2.89,7.19-5.2,7.37-10.17C597.55,229.07,595,230,591.84,231.67Z" style="fill:#fff"/><path d="M16.27,34.31c-1.8,9.57-3.95,18.15-9,25.69-1.07,1.59-2.53,2.74-4.57,2C.48,61.24-.24,59.39.07,57.22A62.29,62.29,0,0,1,8.9,33.5c1.07-1.77,2.85-3.23,5-2.21C15.06,31.85,15.7,33.55,16.27,34.31Z" style="fill:#fff"/><path d="M203,50.26c-.73,1.05-1.4,3.09-2.5,3.36a5.83,5.83,0,0,1-4.77-1.24,27.8,27.8,0,0,1-7-13.9,33,33,0,0,1-.83-7.51,3.73,3.73,0,0,1,2.1-2.75,3.68,3.68,0,0,1,3.32.92A58,58,0,0,1,203,50.26Z" style="fill:#fff"/><path d="M42.18,49.44c-1.2,2.59-1.82,5-3.23,6.79-3,3.8-6.39,7.35-9.76,10.86-1.33,1.38-3.2,2-4.93.66s-1.56-3.25-.46-4.87c3.67-5.39,7.4-10.74,11.25-16,1.14-1.56,3.1-2.41,4.8-1.22C41,46.44,41.44,48.17,42.18,49.44Z" style="fill:#fff"/><path d="M433.06,134.07c-.07,1,.16,2.11-.27,2.78-.9,1.42-2,3.41-3.3,3.67s-3.21-1.06-4.36-2.19a7.63,7.63,0,0,1-1.63-3.94c-.84-4.61-1.67-9.23-2.13-13.88-.14-1.35.88-4,1.49-4,1.54-.1,4,.49,4.6,1.61a91,91,0,0,1,5.09,11.79A17,17,0,0,1,433.06,134.07Z" style="fill:#fff"/><path d="M404.27,115.24c-1.82,7.17-4.26,14.56-10.6,19.8a4.31,4.31,0,0,1-3.91.45c-1-.53-1.61-2.31-1.66-3.57a7.92,7.92,0,0,1,1.24-4.1c2.7-4.49,5.54-8.9,8.42-13.28a7.28,7.28,0,0,1,2.38-2.18C402.25,111.13,404.14,112.29,404.27,115.24Z" style="fill:#fff"/><path d="M52.9,47.12a48.47,48.47,0,0,1,1.89-6.49,3.61,3.61,0,0,1,3-1.68c1,.1,2.05,1.28,2.64,2.26A7.7,7.7,0,0,1,61,44.37c.45,4.91,1.36,9.66,4.26,13.82.94,1.35,1.78,3,.28,4.41-1.69,1.64-3.49.63-4.91-.44C56.08,58.74,53.19,54.32,52.9,47.12Z" style="fill:#fff"/><path d="M197.81,64.66c2.81.43,6.57.9,10.27,1.62A8.18,8.18,0,0,1,212,68,4.25,4.25,0,0,1,213,71.3a3.11,3.11,0,0,1-2.2,2c-7.25.76-14.45.62-21.2-2.6-.94-.45-2.21-2.06-2-2.7a4.67,4.67,0,0,1,2.76-2.71C192.44,64.73,194.67,64.87,197.81,64.66Z" style="fill:#fff"/><path d="M444.75,216.24c-3.13,0-6.38.16-9.61-.1-1-.08-1.87-1.29-2.81-2,.74-.91,1.32-2.37,2.25-2.66A59.68,59.68,0,0,1,459.16,209c1,.11,2.6,1.63,2.49,2.22-.22,1.13-1.34,2.78-2.32,3C454.56,215.08,449.72,215.58,444.75,216.24Z" style="fill:#fff"/><path d="M131.08,193.05c-.56,3.88-9.63,21.07-12.73,24.08-2.29-1.1-2.82-3.1-2.36-5.34a33.69,33.69,0,0,1,9-17.53C126.67,192.57,128.62,191.2,131.08,193.05Z" style="fill:#fff"/><path d="M794.6,65c.72-1,1.45-3,2.43-3.17A4.58,4.58,0,0,1,800.75,64a94.46,94.46,0,0,1,5,12.48,4.4,4.4,0,0,1-2.65,5.77c-2.44.84-4.93-.34-5.74-3.41C796.18,74.48,795.56,70,794.6,65Z" style="fill:#fff"/><path d="M41.13,10.76A17.74,17.74,0,0,1,41,15.08c-.28,1.07-1.19,2.59-2,2.75-1.19.22-3.13-.23-3.78-1.11A17.42,17.42,0,0,1,31.94,2.89,4.57,4.57,0,0,1,35.29,0c1.5,0,3.76,1.11,4.34,2.37,1.17,2.54,1.42,5.5,2.05,8.28Z" style="fill:#fff"/><path d="M532.19,100.66c4.18-.1,11.37,5.73,12,9.74.41,2.54-1.29,4.4-3.89,3.64a21,21,0,0,1-11.63-8.45C527,103.18,528.95,100.74,532.19,100.66Z" style="fill:#fff"/><path d="M560.53,203.73c-3.48-3.64-5.49-8-7.23-12.42-.32-.82.8-3,1.69-3.28a3.89,3.89,0,0,1,3.58,1.25C560.93,193.72,562.09,198.46,560.53,203.73Z" style="fill:#fff"/><path d="M174.73,201.23a18.42,18.42,0,0,1-9.74-5.84c-.73-.78-.81-2.77-.36-3.87.31-.75,2.46-1.59,3.08-1.22a35.77,35.77,0,0,1,6.23,4.92C175.42,196.65,176.08,198.53,174.73,201.23Z" style="fill:#fff"/></svg>