<?xml version="1.0" encoding="utf-8"?>
<!-- Generator: Adobe Illustrator 18.0.0, SVG Export Plug-In . SVG Version: 6.00 Build 0)  -->
<!DOCTYPE svg PUBLIC "-//W3C//DTD SVG 1.1//EN" "http://www.w3.org/Graphics/SVG/1.1/DTD/svg11.dtd">
<svg version="1.1" xmlns="http://www.w3.org/2000/svg" xmlns:xlink="http://www.w3.org/1999/xlink" x="0px" y="0px"
	 viewBox="0 0 340 346" enable-background="new 0 0 340 346" xml:space="preserve">
<g id="Color_New_xA0_影像_1_">
	<g>
		<path fill="#B7CBCE" d="M77.1,182.2c-1.6-13.5-1.6-26.9-0.9-40.4c0.5-9.4-0.1-18.9,0.3-28.3c0.3-7.2,0.2-14.5,1.5-21.7
			c0.5-2.9,1.7-5.6,3.3-8c2-3,2.9-2.9,6-3.6c7.9-1.6,18.7-0.3,26.7,0.2c4.1,0.3,8.1,0.4,12.2,0.7c14.8,1.2,29.6-0.2,44.4-0.1
			c12,0.1,24-0.8,35.9-0.4c10.1,0.4,20.3,1.1,30.4,1.2c4.8,0.1,9.7,0.8,14,3.7c0.9,0.6,1.9,1.2,2.2,2.3c1.5,5.3,2.7,10.7,2.8,16.3
			c0,7.9,0.3,15.8-0.1,23.7c-0.6,11.3-0.7,22.7-1.1,34c-0.2,4.8-0.5,9.6-0.3,14.4c0.1,3-1.1,5.5-2.5,7.9c-0.6,1-1.5,1.9-2.8,2
			c-3.5,0.4-11.3,1.9-14.7-0.1c-3.3-1.9-2.5-1.2-6.2-1c-0.8,0.1-3.7,1.8-4.2,1.2c-2.6-2.4-3.9-6.6-7-7.8c-0.6-0.2-1.1-0.1-1.5,0.3
			c-0.5,0.4-1.1,0.8-1.7,0.6c-4.7-1.3-9.5-2.3-13.5-5.3c-1-0.7-1.3,6.2-0.5,5.2c0.9-1.1-2.7-7.5-3.2-8.5c-4.5-9-8-15.9-13.5-24.2
			c-0.4-0.6-1-0.3-2,0.2c-0.8,0.4-0.9-3.4-0.5-2.5c0.3,1-5,1.3-6,1.3c-4.7-0.1-3.1,4.8-2.8,8.5c1.1,10,5.7,19.6,7.9,29.4
			c0.5,2,0,2.4-2.1,2.7c-4.2,0.5-8.3-0.4-12.5-0.2c-1.2,0.1-1.8-0.2-1.4-1.7c0.5-1.9-0.1-3.6-1.8-4.8c-1.5-1-3-0.6-4.4,0.2
			c-1.7,1-2.9,2.5-2.3,4.5c0.5,1.8-0.4,1.8-1.6,1.7c-1.1,0-2.2-0.1-3.3,0c-2,0.1-3.7,0.2-3.7-2.8c0-1.6-1.5-2.6-3.2-2.7
			c-1.6-0.1-2.8,0.5-3.1,2c-0.5,2.6-2.1,2.9-4.5,3c-14.5,0.9-29.1,0.2-43.6,0.4c-2.8,0-5.3-0.1-7-3.3
			C83.3,179.3,81.1,179.5,77.1,182.2z"/>
		<path fill="#E9D08D" d="M254.7,296.8c-0.1,2.9-1.4,4.5-3.9,5c-12,2.4-23.1,7.3-34.6,11.2c-2.7,0.9-5.3,1.9-7.7,3.3
			c-2,1.1-3.8,0.4-4.5-1.9c-0.5-1.7-0.8-3.5-1.2-5.3c-0.4-1.8-0.7-3.7-2.5-4.9c-1.1-0.8-1.1-2.1-0.4-3.2c0.5-0.8,0.7-1.6,1-2.5
			c0.8-2.6,2.6-3.2,4.7-1.5c0.9,0.7,1.7,0.8,2.7,0.4c10.3-4.2,21.1-7.1,31.7-10.5c2.4-0.8,4.7-1.8,7.2-2.5c3.7-1.1,5.5,0.3,5.8,4.1
			c0.1,1.5,0.3,3.1,0.6,4.6C254,294.4,254.4,295.8,254.7,296.8z"/>
	</g>
</g>
<g id="CTA_Frame_New_xA0_影像_1_">
	<g>
		<path fill="#222222" d="M169.8,56.4c35.2,0.8,67.3,0.8,99.4,0.8c7.4,0,11.9,3.3,14,10.4c0.7,2.4,1.2,4.7,1.1,7.2
			c-0.6,17.9-1.4,35.8-1.4,53.7c0,18.8,0,37.6-0.1,56.4c0,5.1-0.2,10.2-0.6,15.3c-0.6,9-7.8,15.4-16.9,15.4c-5,0-10,0.2-15,0.2
			c-1.2,0-1.9,0.2-1.7,1.6c1.2,9.7-0.8,19.4-0.1,29.1c0.7,11.4,2.5,22.5,4.8,33.7c1.3,6,2.8,11.8,4.7,17.6c0.6,1.9,0.2,2.9-1.7,3.9
			c-5.8,2.8-11.8,4.6-18.2,5.2c-2.1,0.2-2.7,0.9-2.2,2.9c0.5,1.8,0.8,3.7,1.3,5.6c0.5,1.7,0.5,3.2-1,4.4c-1.6,1.2-3.1,0.7-4.6-0.2
			c-3-1.9-5.4-4.3-7.6-7c-1.2-1.4-2.4-1.7-4-1c-4.4,2-8.7,4-13.1,6c-3.6,1.7-5.4,1.1-6.5-2.8c-2.6-9-5.4-17.9-8.8-26.6
			c-4.4-11.4-11.4-21.3-17.2-31.9c-5.4-9.8-10.5-19.7-12.3-31c-0.5-2.9-0.6-5.8,0-8.7c0.5-2.2-0.3-2.6-2.3-2.6
			c-21.4-0.1-42.9-0.4-64.3-0.5c-13-0.1-26,0-39-0.1c-7.7,0-14-5.7-14.2-13.5c-0.2-9.8,0.1-19.6,0.2-29.4c0.4-31,0.8-62,1.1-93
			c0-3.8,0.9-7.4,1.6-11c0.8-4.1,8.1-9.1,12.4-9.5C96,53.4,134.5,57.3,169.8,56.4z M166.8,61.6c0-0.1,0-0.2,0-0.2
			c-7.8,0-15.6,0.1-23.5,0c-26.6-0.3-53.3-0.7-79.9-1c-7.3-0.1-14.1,4.5-14.3,12.8c-0.3,9.8-0.5,19.6-0.6,29.4
			c-0.3,31.8-1.2,63.6-0.9,95.4c0,4.5,3.1,8.2,7.5,9.4c1.9,0.5,3.9,0.8,5.9,0.8c33.6-0.2,67.2,1.1,100.9,0.4c1.5,0,2-0.5,2.5-1.8
			c2.5-6.2,6-11.8,11.3-16.1c0.9-0.7,0.7-1.5,0.5-2.2c-2.1-9-4.1-18.1-6.4-27c-1-3.8-1.7-7.6-1.7-11.5c0.1-7.1,6.7-10.8,12.9-7.3
			c2.5,1.5,4.7,3.4,6.5,5.8c5.3,7.1,8.2,15.3,11.2,23.5c0.5,1.5,1.1,2.4,2.9,2.7c2.4,0.3,4.4,1.5,6.3,3c0.6,0.5,1.1,1.1,2.1,0.7
			c5.6-2.1,10.1-0.2,13.8,4.2c0.7,0.9,1.5,1.1,2.6,1.1c7.2,0,12.4,3.5,16,9.6c2.6,4.4,4.2,9.1,4.8,14.1c0.2,1.9,0.9,2.8,2.8,2.7
			c5.3-0.1,10.6,0.1,15.8-0.4c6.4-0.6,9.2-3.8,9.9-10.3c0.8-7.3,1.1-14.7,1.1-22c0.4-29.2,0.7-58.4,1.1-87.5
			c0.1-5.7,0.7-11.5,0.1-17.2c-0.7-7-2.5-9.8-9.7-9.9C234.6,62.7,200.7,62.1,166.8,61.6z M177.3,196.7c-8.2,7.5-12,21.3-8.8,32.3
			c2.5,8.9,6.4,17.2,11.1,25.1c7.5,12.8,15.6,25.4,20.1,39.8c0.8,2.4,2.5,1.8,4,1.4c3.9-1,7.6-2.3,11.5-3.4c1.6-0.4,2.4-1.2,2.8-2.8
			c1.1-3.9,2.3-7.8,4.4-11.4c1.3-2.3,3.4-3.1,4.9-1.9c1.1,0.9,2.4,1.7,2.9,3.2c0.5,1.5,1.2,1.4,2.4,0.8c2.8-1.2,5,0,5.1,3
			c0.1,1.8,0.5,2.1,2,1.4c0.7-0.3,1.6-0.5,2.3-0.7c5.6-1.7,5.5-1.7,4.4-7.4c-2.9-14.2-4.7-28.5-3.7-43c0.7-9.9,0.4-19.8-2.1-29.5
			c-1.4-5.3-3.3-10.5-8.7-13.3c-1.3-0.7-2.9-1.8-4-1c-1.2,0.9,0.3,2.4,0.5,3.7c0.3,1.7,1,3.6-1.3,4.4c-2.2,0.7-3.3-0.8-4-2.7
			c-0.7-2.1-1.3-4.4-2.2-6.4c-1.2-2.5-2.8-4.7-5.8-5.3c-0.6-0.1-1.4-0.4-1.8,0.2c-0.5,0.6,0.2,1.2,0.5,1.7c1.2,2.2,2.2,4.4,2.7,6.8
			c0.4,1.8,0.1,3.4-1.9,3.9c-1.9,0.4-2.9-0.7-3.3-2.4c-0.5-1.9-1.1-3.8-2.2-5.6c-1.8-3.1-4-5.8-7.3-7.4c-0.6,1-0.2,1.7,0,2.4
			c0.8,4.9,1.7,9.8,2.4,14.8c0.3,1.7-0.3,3.2-2.3,3.4c-1.9,0.2-2.8-0.9-3.2-2.6c-0.2-0.9-0.4-1.8-0.5-2.7
			c-1.5-12.9-5.6-24.9-11-36.6c-1.6-3.4-3.5-6.6-6.3-9.1c-1.6-1.4-3.2-3.5-5.7-2.2c-2.2,1.2-1.6,3.6-1.2,5.4
			c1.5,7.5,3.1,14.9,4.9,22.3c2.4,10,4.5,20,4.1,30.4c0,0.9,0,1.9-0.2,2.7c-0.5,1.5-1.5,2.6-3.2,2.3c-1.8-0.3-2.3-1.7-1.9-3.3
			C178.4,203.9,177.5,200.6,177.3,196.7z M250.7,296.2c-0.4-2.1-1-4.8-1.6-7.5c-0.3-1.4-1.2-1.1-2.1-0.8c-3,0.9-5.9,1.8-8.9,2.7
			c-0.9,0.3-1.6,0.6-1.8,1.7c-0.3,2.4-0.6,4.9-1,7.3c-0.2,1.3,0.3,1.8,1.6,1.7c4.2-0.6,8.4-1.5,12.4-2.9
			C250.2,298.2,251.1,298,250.7,296.2z M217.6,305.3c-1.5-1.9-1.9-4.4-2-7c0-1.3-1.3-0.6-1.9-0.4c-3.3,0.9-6.6,1.9-9.9,2.7
			c-1.1,0.3-1.4,0.8-1.1,1.9c0.8,2.6,1.5,5.2,2.2,7.8c0.3,1,0.7,1.6,1.9,1c3.4-1.7,6.9-3.3,10.3-4.9
			C217.5,306.2,217.9,306.1,217.6,305.3z"/>
		<path fill="#222222" d="M150.7,112.8c0-2.8,1.9-4,4.3-2.7c7.7,4.1,15.6,8.1,22.2,14.1c2.6,2.4,2.6,4-0.2,6.1
			c-6.7,4.9-13.5,9.8-20.2,14.7c-1.2,0.9-2.5,1.6-4,0.9c-1.5-0.7-1.6-2.1-1.6-3.5c0-5,0-10,0-15
			C151.1,127.5,150.7,117.7,150.7,112.8z"/>
		<path fill="#222222" d="M133.4,180.6c0.4-5.7,0.2-11,1-16.2c0.1-0.5,0.1-1.1,0.2-1.6c0.4-1.8,1-3.5,3.3-3.1
			c2.2,0.4,2.1,2.2,1.9,3.9c-0.7,4.1-0.6,8.3-0.9,12.5c-0.1,1.4,0,2.1,1.9,1.7c3.8-0.8,6.1,0.7,7.3,4.4c1.4,4.4,1,8.6-2.1,12.3
			c-3.1,3.7-7.2,4.2-11.1,1.4c-1.3-1-1.4-2.5-1.5-3.9C133.4,188,133.4,184.1,133.4,180.6z M139.3,189.5c0.2,0.7-0.4,1.8,0.5,2.1
			c1,0.3,1.6-0.7,2.1-1.4c1.1-1.7,1.5-3.5,1-5.4c-0.4-1.5-1.2-1.5-2-0.4C139.6,185.8,139.3,187.6,139.3,189.5z"/>
		<path fill="#222222" d="M65.3,188c1.4-6.6-0.6-12.3-5-17.3c-1.4-1.5-2.3-3.5-3.1-5.4c-0.7-1.4-0.6-3,1-3.8
			c1.7-0.8,2.8,0.2,3.5,1.6c1.4,2.8,3.3,5.2,5,7.8c1.2,1.9,1.9,1.4,3-0.1c2.2-3.1,4.5-6.2,6.7-9.2c1.1-1.5,2.6-2.7,4.3-1.2
			c1.7,1.4,0.8,3.1-0.3,4.6c-2.8,3.7-5.5,7.5-8.2,11.2c-1.2,1.6-1.7,3.3-1.6,5.3c0.1,5.1,0.1,10.2,0.1,15.2c0,1.7-0.4,3.2-2.4,3.4
			c-2,0.2-2.8-1.1-2.9-2.8C65.3,194.2,65.3,191.1,65.3,188z"/>
		<path fill="#222222" d="M107.9,181.3c0-4.2-0.2-8.4,0.1-12.5c0.2-2.5-0.7-2.9-2.7-2.2c-0.9,0.3-1.8,0.5-2.6,0.6
			c-1.3,0.2-2.4-0.2-2.9-1.5c-0.5-1.3,0.1-2.3,1.2-3c0.4-0.3,1-0.5,1.5-0.7c5.7-1.2,11.4-2.4,17.3-1.4c1.6,0.3,2.8,1,2.7,2.8
			c-0.1,1.7-1.3,2.3-2.9,2.3c-0.3,0-0.5,0-0.8,0c-5.6-0.1-5.7-0.1-5.6,5.7c0.1,6.7,0.3,13.4,0.5,20.2c0,1.4,0.1,2.7,0,4.1
			c-0.1,1.6-0.8,2.9-2.6,2.9c-1.9,0-2.7-1.3-2.7-3.1c0-4.7,0-9.4,0-14.2C108.1,181.3,108,181.3,107.9,181.3z"/>
		<path fill="#222222" d="M150.3,187.6c0.3-2,0.3-4.5,1.4-6.7c1.8-3.5,5.3-5,8.6-3.8c3.4,1.3,6,5.9,5.2,9.2
			c-0.4,1.8-1.7,2.7-3.4,3.2c-1.3,0.3-2.7,0.4-4,0.7c-0.6,0.1-1.6-0.3-1.8,0.7c-0.2,0.9,0.5,1.5,1.2,2c1.7,1,3.5,0.8,5.3,0.6
			c1.9-0.3,3.6-0.2,4.1,2c0.4,2.2-1.1,3-2.9,3.6C156.2,201.2,150.1,196.3,150.3,187.6z M157.9,184.9c0.6-0.3,1.9,0.4,1.9-0.9
			c0-1-0.8-1.7-1.8-1.7c-1,0-1.6,1-1.6,1.9C156.4,185.2,157.3,184.8,157.9,184.9z"/>
		<path fill="#222222" d="M89.1,185.6c-0.1-1.6,0.1-3.4,0.5-5.2c0.4-1.5,1.3-2.4,2.9-2.2c1.5,0.3,2.1,1.4,1.9,2.8
			c-0.3,2.7-0.5,5.4,0,8.1c0.1,0.7,0.1,1.7,0.9,1.8c1,0.2,1.2-1,1.4-1.7c0.6-2.2,1.1-4.4,1.6-6.6c0.1-0.6,0.3-1.2,0.4-1.9
			c0.5-1.9,1.3-3.6,3.7-3.1c2.2,0.5,2.2,2.5,1.9,4.2c-0.9,4-1.6,8,0.7,11.9c0.6,1,0.2,2.2-0.8,2.9c-1.1,0.8-2.4,0.9-3.2-0.1
			c-1.2-1.3-2.1-1-3.5-0.4c-2.8,1.3-6-0.2-7.3-3.4C89.2,190.7,89.1,188.3,89.1,185.6z"/>
		<path fill="#222222" d="M120.9,190.3c1.3-1.1,1.5-2.4,1.8-3.6c0.6-1.8,1-3.7,1.5-5.5c0.5-1.9,1.2-4,3.7-3.5
			c2.6,0.5,2.2,2.8,1.8,4.6c-0.6,3.3-1,6.6,0.1,9.9c0.4,1.3,0.8,3-0.6,4c-1.5,1-2.7,0.1-3.7-1.1c-0.7-0.9-1.2-0.1-1.8,0.2
			c-3.3,2-6.3,1-7.5-2.7c-1.4-4.4-1.3-8.9-0.3-13.4c0.3-1.5,1.3-2.5,3-2.1c1.6,0.3,2.1,1.6,1.8,3.1
			C120.2,183.6,119.8,186.8,120.9,190.3z"/>
		<path fill="#222222" d="M87.5,186.7c0.1,3.2-0.9,6.1-2.7,8.7c-1.4,2.1-3.3,3.3-6,3c-2.7-0.4-4.5-2-5.4-4.4
			c-1.5-4.5-0.8-9,1.3-13.1c1-2,4.4-3.1,7.2-2.5c2.7,0.5,4.8,2.6,5.3,5.5C87.5,184.7,87.5,185.7,87.5,186.7z M82.1,186.3
			c0-0.1,0-0.8-0.2-1.5c-0.1-0.7-0.6-1.1-1.3-1.1c-0.7,0-1.5-0.1-1.8,0.8c-0.9,2.4-1.3,4.9-0.4,7.4c0.5,1.4,1.5,1.6,2.3,0.2
			C81.6,190.5,82.2,188.8,82.1,186.3z"/>
	</g>
</g>
</svg>
