<?xml version="1.0" encoding="utf-8"?>
<!-- Generator: Adobe Illustrator 18.0.0, SVG Export Plug-In . SVG Version: 6.00 Build 0)  -->
<!DOCTYPE svg PUBLIC "-//W3C//DTD SVG 1.1//EN" "http://www.w3.org/Graphics/SVG/1.1/DTD/svg11.dtd">
<svg version="1.1" xmlns="http://www.w3.org/2000/svg" xmlns:xlink="http://www.w3.org/1999/xlink" x="0px" y="0px"
	 viewBox="0 0 328 308" enable-background="new 0 0 328 308" xml:space="preserve">
<g id="Color_New_xA0_影像_1_">
	<g>
		<path fill="#B7CBCE" d="M29.8,126.2c1-20.1,8.7-38.5,20.3-55.1c0.5-0.7,1-1.5,1.6-2.2c1.8-1.8,4-1.6,5.2,0.6
			c1.2,2.2,2.2,4.3,3.2,6.6c0.6,1.5,1.2,1.3,2.1,0.3c0.8-0.9,1.5-1.8,2.2-2.8c0.7-1,1.5-1.7,2.9-1.5c1.4,0.2,2.2-0.7,3-1.6
			c1.1-1.2,1.7-1.1,2,0.6c0.9,5.5,2,11,2.6,16.6c0.6,6.2,7.5,9.9,10.6,15.1c4.2,6.9,10.9,14.2,16.2,20.2c1.6,1.8,2.7,7,4.2,8.8
			c0.9,1.1-3.2,2.9-4.2,3.8c-1.4,1.2-4-1.2-4.9,0.4c-1.1,2.1-3.2,8-5.4,7.6c-4.4-0.8-7.7-5.2-11.8-2.8c-4,2.4-6.8,7.9-12.2,8
			c-2.5,0.1-5.3,2.9-7.2,4.5c-1.7,1.4-3.5-1.7-5.2-2.8c-5.1-3.5-12.5-2.6-17.1-6.7C33.7,140.4,28.9,131.9,29.8,126.2z"/>
		<path fill="#E9D08D" d="M59.7,285.6c-1.7,0.2-3-1-4.5-1.9C45,277,34.4,270.8,23.6,265c-0.7-0.4-1.5-0.7-2.2-1.1
			c-4.6-2-5.4-3.8-3.3-8.2c1-2.1,2.1-4,3.2-6c1.2-2,2.9-2.8,5.1-1.6c4.9,2.7,10.2,4.1,15.3,6.3c3.9,1.6,7.4,3.9,10.7,6.4
			c4,3.1,8.2,5.9,12.8,8.3c3.4,1.7,3.8,3.5,2.1,6.9c-1.2,2.3-2.2,4.6-3.4,6.8C63.1,284.4,61.9,285.7,59.7,285.6z"/>
		<path fill="#B7CBCE" d="M121.5,175.1c-1.9,0.2-4.2,0-6.3-1c-2-1-3-2.5-2.9-4.8c0-2.3,1.3-3.6,3.4-3.8c2-0.3,2-1.4,2.2-2.8
			c0.3-1.6,0.9-3.5,2.7-3.7c1.9-0.2,2,1.9,2.6,3.2c1.1,2.5,2.4,5,3,7.7C127.5,175.1,127.5,175,121.5,175.1z"/>
		<path fill="#FEFEFE" d="M82.8,139.2c-2.4-2.3-6.9-0.9-9.8-4.4c-9-10.9-14.8-22.9-15.4-37.2c-0.1-2,0.2-3.7,2.8-3.7
			c2.4,0,2.6,1.6,2.7,3.5c0.4,6.7,3.2,12.6,6.5,18.3c4.2,7.1,9.3,13.4,15.6,18.7c1.1,0.9,1.6,2,1.1,3.3
			C86,139,84.9,139.3,82.8,139.2z"/>
	</g>
</g>
<g id="CTA_Frame_New_xA0_影像_1_">
	<g>
		<path fill="#222222" d="M60.9,73.6c1.9-2,3.4-3.8,5.1-5.4c5-4.7,9.2-3.6,11,3c0.9,3.2,1.5,6.6,1.8,9.9c1,10.3,6.8,18.1,12.9,25.9
			c7.9,10.1,16.1,19.9,22.6,31c0.7,1.3,1.3,1.3,2.6,0.7c2.2-1.1,4.6-1.8,7.1-1c3.2,1,4.8,3.4,4.2,6.6c-0.5,2.9-1.6,5.6-3.2,8
			c-0.9,1.4-1,2.5-0.1,3.9c3.1,4.9,5.3,10.2,6,15.9c0.6,4.7-0.3,9.4-1,14.1c-0.2,1.6-0.5,3.2-0.9,4.8c-0.8,3.2-2.2,4.1-5.5,3.6
			c-0.7-0.1-1.5-0.5-2,0.2c-0.5,0.7-1.4,1.5-1,2.4c0.4,0.8,1.5,0.4,2.2,0.4c32.2,0.1,64.4,0.2,96.5,0.3c18.9,0.1,37.8,0.1,56.7,0.3
			c2.5,0,3.1-0.7,3.1-3.2c0.1-41.8,0.2-83.6,0.4-125.4c0-1,0-2,0-3c0.2-5.1,0.2-5.1-5-5.2c-34.1-0.3-68.2-0.6-102.3-0.9
			c-24.4-0.2-48.7-0.5-73.1-0.8c-5.5-0.1-6.4,0.6-6.6,6.1c-0.3,6.8-0.2,13.6-0.3,20.4c0,1.4,0,2.7-0.1,4.1c-0.1,1.6-1.1,2.5-2.7,2.5
			c-1.6,0-2.6-0.8-2.9-2.4c-0.2-0.8-0.1-1.6-0.1-2.4c0-9.4,0-18.7,0.1-28.1c0-4.6,0.7-5.2,5.2-5.2c31.3,0.1,62.5,0.1,93.8,0.2
			c30.6,0.1,61.2,0.3,91.9,0.4c1.3,0,2.5,0,3.8,0c3.3,0.1,4.3,1.1,4.3,4.5c0,12.4,0,24.7-0.1,37.1c-0.1,36.4-0.3,72.9-0.4,109.3
			c0,1.1,0,2.2,0,3.3c-0.1,3.6-0.9,4.5-4.5,4.5c-12.1,0-24.2,0-36.3-0.1c-43.4-0.2-86.7-0.3-130.1-0.5c-2.2,0-3.6,0.6-5,2.4
			c-11.6,15.8-22.6,32.1-33.2,48.6c-4.2,6.6-8,13.4-11.3,20.5c-2.1,4.6-4.8,4.9-7.9,2c-3.9-3.6-8.8-5.7-13.4-8.3
			c-1.2-0.7-1.8-0.4-2.4,0.7c-0.5,1-1,1.9-1.5,2.9c-0.6,1.2-1.4,2.2-2.9,2c-1.4-0.2-2.2-1.2-2.7-2.4c-0.8-2.1-1.1-4.2-1-6.4
			c0.1-1.7-0.6-2.6-2.1-3.4c-5-2.8-9.9-5.7-14.8-8.7c-2.7-1.6-3.4-4.6-1.7-8.2c7.3-15.2,12.5-31.4,19.1-46.9
			c3.2-7.5,5.5-15.4,8.1-23.1c1.8-5.2,3.7-10.3,6.5-15c0.9-1.5,0.8-2.4-0.9-3.1c-0.9-0.4-1.7-1.1-2.6-1.5
			c-12.2-5-15.8-15.9-17.9-27.3c-1.3-7.2-0.8-14.7,0.8-22c1.1-4.9,2.9-9.7,4.5-14.5c3-8.7,6.5-17.2,10.8-25.3
			c1.7-3.2,3.7-6.2,6.6-8.6c5.4-4.3,9-3.1,10.8,3.5C60.4,72.2,60.6,72.7,60.9,73.6z M67.6,268.2c0.2-0.3,0.4-0.4,0.6-0.7
			c12.5-21.1,26.8-41,40.3-61.5c4.1-6.3,7.7-12.9,11-19.7c0.6-1.2,1-2.5,1.3-3.8c0.3-1.2,0.1-2.4-1.1-3.1c-1.2-0.6-2.5-0.4-3.3,0.6
			c-4.3,5.3-10,9.6-12,16.6c-0.5,1.9-1.9,2.7-3.8,2.2c-2.1-0.5-1.9-2.2-1.5-3.8c2.9-10.4,6.5-20.6,11.6-30.2
			c3-5.6,6.7-10.8,10.2-16.1c0.9-1.3,1.4-2.9-0.2-4.2c-1.5-1.2-3-1.1-4.4,0.3c-9.3,9.5-16.8,20-20.2,33.1c-0.7,2.6-1.5,5.2-2.2,7.8
			c-0.1,0.3-0.2,0.5-0.3,0.8c-0.5,2-1.7,3.4-3.8,2.9c-2.3-0.5-2.3-2.5-1.9-4.4c2.6-12.3,7.5-23.6,14.2-34.3c1.4-2.2,2.4-4.5,2.7-7.1
			c0.1-1.3,0.7-3-0.6-3.8c-1.5-0.9-2.8,0.4-3.8,1.3c-5.2,4.8-9.6,10.1-13.1,16.3c-4.2,7.5-6.5,15.7-8.5,24c-0.3,1.1-0.5,2.1-1.1,3.1
			c-1.2,2-3.3,1.9-4.5-0.1c-0.7-1.1-0.7-2.3-0.4-3.4c2.8-10.7,5-21.6,11.5-31c1.1-1.7,2-3.5,2.1-5.5c0.1-1.6-0.3-2.2-2-1.6
			c-2.5,0.8-4.1,2.6-5.6,4.6c-5.2,6.9-8.7,14.6-11.2,22.9c-1,3.4-2.1,6.8-4,9.8c-0.8,1.3-1.7,2.6-3.5,1.8c-1.7-0.8-1.9-2.3-1.3-3.9
			c1.4-4.2,2.7-8.5,4.2-12.6c1.6-4.2,3.4-8.2,5.2-12.3c0.3-0.7,1-1.5,0-2.2c-0.9-0.6-1.7,0-2.3,0.7c-0.3,0.4-0.5,0.7-0.8,1.1
			c-6.5,8.9-11.9,18.4-15.5,28.9c-7.3,20.6-14.8,41.2-22.8,61.5c-0.7,1.7,0.1,2.1,1.2,2.7c4.3,2.2,8.6,4.4,12.8,6.7
			c1.1,0.6,1.9,0.4,2.9-0.3c2.9-1.9,6.1-3.2,9.5-3.9c1.6-0.3,3.6-0.9,4.7,0.2c1.8,1.8,0,5.4,2.9,7.1c0.4,0.2,0.2,1.2-0.2,1.8
			c-0.6,0.9-1.2,1.8-2,2.6c-1.4,1.4-1.8,2.2,0.5,3.2C62.2,264.7,65,266.3,67.6,268.2z M53.5,100c0.1-1.3-0.3-3.4,0.8-5.2
			c0.7-1.2,1.8-1.9,3.2-1.4c1.4,0.5,1.9,1.7,1.5,3.1c-0.9,3.2-0.4,6.4,0.4,9.4c3.2,12.8,11.2,22.4,20.8,30.9c1.1,0.9,2,0.4,3,0
			c3.1-1,5.8-0.6,7.7,2.2c1,1.4,1.4,0.7,2.2-0.1c2.4-2.6,5-5.1,8.3-6.4c1.8-0.8,1.8-1.4,0.6-2.8c-5.6-7.2-11-14.7-16.7-21.9
			c-4.7-6-9.6-11.9-10.8-19.9c-0.7-4.8-1.8-9.6-2.7-14.4c-0.4-2.1-1.2-2.2-2.5-0.7c-1.9,2.2-3.8,4.4-5.8,6.5c-2.4,2.4-5.4,2-6.9-1
			c-0.7-1.4-1.2-2.9-1.5-4.4c-0.5-2.4-1.4-2-2.8-0.7c-1.9,1.8-3.3,3.9-4.5,6.1c-6.6,12.6-11.6,25.8-14.7,39.7
			c-1.2,5.5-2.6,11,0.9,16.3c3.6,5.4,7,11,13.8,12.8c3,0.8,5.9,1.7,8.5,3.5c1.8,1.3,2.8,1.2,4-0.8c2.1-3.3,5.1-5.7,9.3-4.7
			c2,0.5,3-0.1,3.9-1.6c0.4-0.6,0.8-1.2,1.4-1.7c1.3-1.1,1.3-1.9-0.1-3c-4.1-3.3-7.4-7.4-10.6-11.7C58.2,119.8,53.7,111.1,53.5,100z
			 M197.9,203.8c0-0.2,0-0.3,0-0.5c-26.1,0-52.2,0-78.2,0c-2.5,0-4.3,1.5-4.7,3.8c-0.1,0.7,0.1,1,0.8,1c0.7,0,1.5,0,2.2,0
			c35.3,0.2,70.7,0,106,0.5c17.4,0.2,34.9,0.1,52.3,0.2c1.8,0,2.8-0.1,2.8-2.4c0-2.4-1-2.6-2.9-2.6
			C250.1,203.8,224,203.8,197.9,203.8z M59.6,282.1c0.5,0,0.7-0.4,0.9-0.8c0.5-0.9,1-1.8,1.4-2.6c1-1.9,3.2-4.3,2.7-5.7
			c-0.6-1.6-3.5-2.4-5.5-3.4c-7.3-3.9-7.3-3.8-12.8,2.3c-1.1,1.2-1.1,1.8,0.4,2.5c4.2,2.2,8.3,4.4,12.1,7.2
			C59,281.8,59.3,282,59.6,282.1z M37.2,257.4c0.1-0.6-0.4-0.8-0.8-1c-3.7-2-7.5-4.1-11.2-6.1c-0.8-0.4-1.3-0.2-1.7,0.6
			c-1.1,2.4-2.3,4.7-3.5,7.1c-0.4,0.8-0.2,1.3,0.6,1.8c3.7,2.2,7.3,4.4,10.9,6.6c0.9,0.5,1.6,0.5,1.7-0.7c0.3-3.1,1.2-5.8,3.7-7.9
			C37.1,257.7,37.1,257.6,37.2,257.4z M32.5,143.5c0,2.2-0.1,4.4,1.2,6.2c3.2,4.6,6.5,9.2,12.3,11c1.3,0.4,2.6,1.3,3.7,2.2
			c1.5,1.2,2.1,0.8,3.1-0.7c3.5-5.8,3.6-5.7-3-7.9c-0.7-0.2-1.4-0.5-2.1-0.6c-5.3-1.2-9.6-4-13-8.3
			C34.2,144.6,33.8,143.6,32.5,143.5z M124.7,169.6c-0.7-2.6-1.9-5.4-3.3-8.1c-0.7-1.3-1.2-1.3-2-0.1c-1.9,2.7-3.5,5.5-5.1,8.4
			c-0.5,0.8-0.6,1.6,0.6,1.8c2.3,0.5,4.6,1,6.9,1.3C123.8,173.1,124.7,172,124.7,169.6z M114.1,176.2c-2.8-0.8-3.3-0.4-3.5,3
			C111.9,178.3,113.1,177.5,114.1,176.2z"/>
		<path fill="#222222" d="M173,126.8c-1.1,0.3-2.3,0-3.9-0.6c-3.1-1.2-6.4,0.1-9.7,0.3c-0.7,0-0.6,0.8-0.4,1.3
			c0.3,1.1,0.7,2.3,1,3.4c0.8,0.3,1.2-0.4,1.7-0.7c1.1-0.5,2.1-0.5,3,0.4c1,1,0.9,2.1,0.3,3.2c-0.7,1.4-2.6,2.3-2.1,3.9
			c0.7,2.3,2.1,4.4,3.6,6.4c0.2,0.3,0.6,0.5,0.8,0.7c1.5,1.3,1.7,2.9,0.4,4.3c-1.4,1.6-3.1,1.3-4.6,0c-1-0.9-1.7-2.1-2.4-3.3
			c-0.7-1.1-1.3-2.2-2.2-3.6c-1,1.1-1.7,2.1-2.6,3c-1.1,1.1-2.4,1.4-3.7,0.3c-1.3-1.1-1.1-2.4-0.3-3.7c0.1-0.2,0.2-0.3,0.3-0.4
			c5.8-4.1,2.2-8.9,1.2-13.6c-0.2-1-0.9-1-1.7-0.8c-1.7,0.3-3.4,0.5-5.1,0.8c-3.9,0.6-3.9,0.6-3.4,4.8c1.6-0.1,2.8-1.2,4.2-1.7
			c1.5-0.6,3.2-0.9,4.1,0.9c0.9,1.7-0.1,2.9-1.6,3.8c-0.4,0.2-0.8,0.6-1.2,0.7c-5.5,1.4-7.2,5.3-6.7,10.6c0.1,1.4,0,2.9-0.2,4.4
			c-0.2,1.9-0.9,3.6-3.3,3.4c-2-0.2-2.9-1.8-2.4-4.3c0.5-2.2,0.4-4.4,0.6-6.6c-1.2-0.2-1.6,0.4-2.1,0.9c-1.2,1.1-2.6,1.5-3.8,0.1
			c-1.2-1.4-1-3,0.4-4.1c1.4-1.2,3-2.1,4.5-3.1c1.6-1.1,2.8-4.7,2.1-6.5c-0.4-1-1.1-0.5-1.6-0.3c-1.5,0.6-3,1.3-4.5,1.9
			c-1.5,0.6-3.2,0.8-4-0.9c-0.8-1.8,0.2-3,1.8-3.7c1.6-0.8,3.3-1.5,5-2.2c4.2-1.6,4.2-1.6,3.7-6.5c-0.5,0.6-0.8,1.1-1.2,1.6
			c-0.8,0.9-1.8,1.3-2.9,0.8c-1.1-0.5-1.6-1.6-1.4-2.7c0.9-4.2,3-7.8,6.1-10.7c1-0.9,2.4-1,3.5,0c1.1,1,0.9,2.3,0.1,3.5
			c-0.7,0.9-1.6,1.7-1.9,2.9c4.1,0.5,4.2,0.7,3.4,4.9c-0.6,3.3-0.5,3.4,2.7,2.9c5.7-0.9,5.6-0.9,5.4-6.6c-0.1-1.4,0-2.9,0.2-4.3
			c0.3-1.6,1.3-2.7,3.1-2.4c1.7,0.3,2.1,1.6,1.9,3.1c-0.3,2.3,0,4.5,0.3,6.8c0.2,1.4,0.7,1.9,2.1,1.7c3.4-0.4,6.8-1,10.3-0.4
			c1.1,0.2,1.2-0.9,1.6-1.5c1.8-2.6,3.5-5.3,5.2-8c0.6-0.9,1.4-1.7,2.5-2c1.1-0.3,2.2-0.1,2.9,0.9c0.7,0.9,0.6,1.9,0,2.8
			c-0.6,0.9-1.4,1.7-2,2.6c-0.9,1.3-2.6,2.6-0.4,4.3c0.3,0.2,0.3,1,0.2,1.6c-1.3,8.4-0.9,16.8-1.1,25.3c0,0.3,0,0.5,0,0.8
			c-0.1,2-0.3,4.1-2.9,4.1c-2.7,0-2.6-2.2-2.6-4.2C173,140.4,173,133.6,173,126.8z"/>
		<path fill="#222222" d="M254.3,105.7c2.4,0,4.4-0.2,6.3,0c3.6,0.3,5.4,2.5,5,6.1c-0.4,3.2-0.9,6.5-1.6,9.7
			c-0.8,3.6-2.1,4.6-5.8,4.9c-4.1,0.3-5.7,0.7-7.5,2c1.4,0.5,2.5-0.3,3.7-0.5c1.4-0.3,2.7-0.6,4,0.1c1.2,0.6,1.7,1.6,1.5,2.9
			c-0.2,1.3-1.3,1.3-2.3,1.4c-2.1,0.2-4.2,0.3-6.2,0.5c-0.6,0.1-1.4,0.1-1.4,1c0,0.9,0.8,0.8,1.4,0.8c2.8,0,5.6,0,8.4,0
			c1.5,0,2.9,0,4.3,0.4c3.8,1,5.3,3,5.1,6.9c-0.2,3.7-1.3,7.1-3.4,10.2c-0.7,1-1.5,1.8-2.6,2.4c-1.6,0.9-3.2,1.1-4.4-0.5
			c-1.1-1.5-0.5-3,0.9-4c2.6-1.9,3.1-4.8,3.7-7.6c0.3-1.4-0.5-2.1-1.7-2.2c-3.7-0.2-7.4-0.3-11.2-0.4c-0.6,0-1.2,0.1-0.8,0.9
			c0.3,0.6,0.1,1.6,1.5,1.5c3.3-0.3,4,0.6,3.6,3.8c-0.5,4.4-1.3,5.1-5.7,5.8c-2.4,0.4-4.7,1.1-7.2,0.9c-3.4-0.3-5.1-2.4-4.3-5.7
			c0.4-1.7,0.9-3.3,1.7-4.9c0.9-1.8,2.6-2.3,4-0.9c1.5,1.5,1.7-0.2,2.4-0.7c1.3-0.9,0.3-1.4-0.3-2c-1.1-0.9-1.5-2.1-1.3-3.4
			c1.3-8.5,1.2-17.2,2.4-25.7c0.7-5.3,3.9-8.4,8.2-10.8c1.7-0.9,3.7-1.1,4.7,1c1,2.1-0.4,3.1-2.3,3.7
			C256.2,103.5,255.3,104.2,254.3,105.7z M257,110.8c-1.3,0.2-2.9,0.5-4.4,0.9c-0.7,0.2-1,0.7-0.8,1.5c0.2,0.7,0.8,0.6,1.3,0.6
			c2-0.1,3.9-0.3,5.9-0.4c0.9-0.1,1.3-0.5,1.3-1.3c0-0.9-0.7-1-1.3-1C258.4,110.8,257.8,110.8,257,110.8z M255.2,118.7
			c-0.7,0.1-1.9,0.2-3,0.4c-1.3,0.2-1.1,1.2-1,2.1c0.1,1.1,1,0.8,1.7,0.7c1.4-0.2,2.8-0.6,4.2-0.8c1-0.1,1.9-0.5,1.7-1.6
			c-0.2-1.2-1.3-0.6-2-0.7C256.3,118.6,256,118.7,255.2,118.7z"/>
		<path fill="#222222" d="M200.3,119.7c-1.8,1.1-2.5,2.4-3.4,3.7c-1.2,1.8-2.9,2.7-4.9,1.4c-1.3-0.9-1.5-0.2-1.8,0.8
			c-0.6,2-0.9,4.1-1,6.2c-0.1,1.9-0.6,3.8-3,3.7c-2.3-0.1-2.6-2-2.7-3.8c-0.2-4.8,0.1-9.6,0.5-14.4c0.1-0.9,0.4-1.8,0.8-2.6
			c0.7-1.3,2.4-2.1,3.1-1.1c1.6,2.3,4.4,0.9,6.1,2.5c0.8,0.8,1.3-0.2,1.8-0.6c2.2-1.7,4.3-3.8,7.3-2.4c3.1,1.4,2.7,4.5,2.7,7.2
			c0.1,6.3,0.6,12.5-0.7,18.7c-0.4,2-1,3.9-2.7,5.2c-1.3,0.9-2.7,1.2-4,0.1c-1.4-1.2-1.2-2.6-0.1-3.9c1.2-1.5,1.4-3.3,1.6-5.1
			C200.7,130.3,200.2,125.2,200.3,119.7z"/>
		<path fill="#222222" d="M211.2,127.5c-0.1-5.1,0.3-10.2,1.7-15.1c0.3-1.1,0.6-2.1,1.3-3c1.1-1.3,2.5-1.6,3.9-0.7
			c1.4,0.9,1.5,2.2,0.6,3.6c-1.2,1.8-1.3,2.8,1.3,3.1c2.9,0.4,3.8,2.9,4.2,5.4c0.6,3.5,0.4,7.1,0,10.6c-0.2,1.7-1.1,3-2.7,3.8
			c-2.2,1.1-4.6,1.5-7,2.1c-1.9,0.4-3.2-0.7-3.3-2.7C211.1,132.2,211.2,129.9,211.2,127.5z M217.3,131.1c0.9-0.1,1.6-0.4,1.6-1.4
			c0-0.6,0.4-1.4-0.6-1.5c-0.8,0-1.7,0.1-1.8,1.2C216.5,130,216.3,130.9,217.3,131.1z"/>
		<path fill="#222222" d="M230,122.5c0.8,0.1,1.8,0.3,2.9,0.5c0.6,0.1,1.3,0.1,1.6-0.7c0.2-0.7,0.4-1.5-0.1-2.1
			c-0.5-0.6-1.2-0.3-1.8-0.1c-0.6,0.2-1.2,0.5-1.8,0.6c-1.3,0.3-2.6,0.4-3.5-0.7c-0.9-1-0.8-2.1-0.3-3.3c1.1-2.7,2.1-5.4,3.1-8.1
			c0.7-1.7,1.8-3,3.7-2.2c1.9,0.7,1.7,2.4,1.2,3.9c-0.2,0.6-0.4,1.2-0.6,1.8c-0.6,1.3-0.8,2.2,1.2,2.5c2.8,0.5,4.5,2.5,4.4,5.4
			c-0.1,7.2-3.3,13.3-7.6,18.8c-1.1,1.4-3,2-4.6,0.4c-1.5-1.5-0.8-2.9,0.4-4.3c0.8-0.9,1.5-1.9,2-2.9c0.6-1.1,1.6-2.3,1.5-3.4
			c-0.2-1.2-2-0.7-3-1.2c-1.5-0.7-2.5-1.6-2.1-3.3C227.1,122.7,228.3,122.3,230,122.5z"/>
		<path fill="#222222" d="M252.8,77.2c-1.1,0-2.2,0.1-3.3,0c-1.3-0.1-2.6-0.7-2.9-2.1c-0.7-2.5-0.8-5.1,0-7.5
			c0.8-2.4,3.6-1.6,5.4-2.3c1.4-0.5,3-0.2,4.6,0.2c1.9,0.5,2.9,1.7,2.9,3.7c0,0.6-0.1,1.3-0.1,1.9C259,76.7,258.3,77.3,252.8,77.2z"
			/>
		<path fill="#222222" d="M265.7,66c1.4,1.1,2.6,0.5,4-0.6c0.7-0.5,1.7-0.3,2.5,0.5c0.7,0.7,1,1.7,0.5,2.5c-0.9,1.6-0.7,2.7,0.4,4.1
			c0.6,0.7,0.4,1.7-0.2,2.5c-0.7,0.9-1.7,1.2-2.7,0.8c-1.2-0.5-1.9-0.3-2.9,0.5c-0.9,0.8-2,0.8-3,0.1c-1.1-0.9-1.2-2.2-0.6-3.2
			c0.8-1.2,0.7-2-0.2-3.1c-0.8-0.9-0.8-2-0.2-3C263.8,66.3,264.6,65.9,265.7,66z"/>
		<path fill="#222222" d="M234.7,72.4c-1.4,0-2.7,0-4.1,0c-1.5,0-2.5-0.7-2.6-2.2c-0.1-1.5,0.8-2.5,2.2-2.6c3-0.1,6-0.2,9,0
			c1.5,0.1,2.6,1.1,2.4,2.7c-0.1,1.7-1.4,2.2-2.9,2.2C237.4,72.5,236.1,72.5,234.7,72.4C234.7,72.5,234.7,72.4,234.7,72.4z"/>
		<path fill="#222222" d="M165.2,109.5c2-0.1,4,1.8,4.1,3.9c0.1,1.6-0.5,2.7-2.2,2.8c-2,0.1-5-2.1-5-3.6
			C162.1,110.9,163.4,109.6,165.2,109.5z"/>
	</g>
</g>
</svg>
