<?xml version="1.0" encoding="utf-8"?>
<!-- Generator: Adobe Illustrator 18.0.0, SVG Export Plug-In . SVG Version: 6.00 Build 0)  -->
<!DOCTYPE svg PUBLIC "-//W3C//DTD SVG 1.1//EN" "http://www.w3.org/Graphics/SVG/1.1/DTD/svg11.dtd">
<svg version="1.1" xmlns="http://www.w3.org/2000/svg" xmlns:xlink="http://www.w3.org/1999/xlink" x="0px" y="0px"
	 viewBox="0 0 1112 392" enable-background="new 0 0 1112 392" xml:space="preserve">
<g id="_xFFFD__x83__x8C__xFFFD__x99__xA0_影像_1_">
</g>
<g id="_xFFFD__x9C__x96_撅_xFFFD__4_xA0_影像_9_">
</g>
<g id="_xFFFD__x9C__x96_撅_xFFFD__2_xA0_影像_1_">
</g>
<g id="敺_x9E__xFFFD__xF880_詨_x8F__x96_蝭_x84__xFFFD__x9C__x8D__xA0_影像_1_">
</g>
<g id="_xFFFD__x9C__x96_撅_xFFFD__3_xA0_影像_1_">
</g>
<g id="_xFFFD__x9C__x96_撅_xFFFD__4_xA0_影像_7_">
</g>
<g id="_xFFFD__x9C__x96_撅_xFFFD__4_xA0_影像_5_">
</g>
<g id="_xFFFD__x9C__x96_撅_xFFFD__4_xA0_影像_3_">
</g>
<g id="_xFFFD__x9C__x96_撅_xFFFD__7_xA0_影像_1_">
</g>
<g id="_xFFFD__x9C__x96_撅_xFFFD__4_xA0_影像_1_">
</g>
<g id="_xFFFD__x9C__x96_撅_xFFFD__9_xA0_影像_1_">
	<g>
		<g>
			<g>
				
					<path fill="#369EBB" stroke="#FFFFFF" stroke-width="20" stroke-linecap="round" stroke-linejoin="round" stroke-miterlimit="10" d="
					M624.4,43.4c0,0.2,0,0.3,0,0.5c-3.7,1.5-7.3,1.5-11,0c0-0.2,0-0.3,0-0.5C617.1,43.4,620.7,43.4,624.4,43.4z"/>
				
					<path fill="#369EBB" stroke="#FFFFFF" stroke-width="20" stroke-linecap="round" stroke-linejoin="round" stroke-miterlimit="10" d="
					M613.4,43.8c3.7,0,7.3,0,11,0c9.7,2.3,19.6,3.4,29.5,4.4c1.8,0.2,3.5,0.9,5.4,0.7c1.1-0.1,1.9,0.6,2.2,1.6c0.3,1,0.1,2-0.7,2.7
					c-1.7,1.6-3.5,2.9-5.5,4c-9.2,5.4-16.8,12.7-23.5,20.9c-1.9,2.3-1.7,3.3,1.2,4.2c5.1,1.5,10.2,1.4,15.2-0.8
					c0.4-0.2,0.8-0.5,1.2-0.6c7.6-2.5,14.1-6.8,20.8-11.3c9-6.1,19.5-8.2,30.4-3.8c6.1,2.5,12.2,2.6,18-1.2c2.5-1.6,5.3-1.7,8.1-0.4
					c4.1,1.9,8,4,10.8,7.6c2,2.5,4.9,2.7,7.7,2.9c4.4,0.2,7.1,2.4,9.2,6.1c4.6,8.3,5.1,8.4,14.2,5.9c1-0.3,1.9-0.5,2.9-0.2
					c1.2,0.3,1.9,1.1,2,2.3c0.2,1.6-0.6,2.7-2.1,3.2c-11,3.8-18,13.3-27.6,19.1c0.1,0.3,0.1,0.5,0.2,0.8c2.7-0.2,5.5-0.2,8.2-0.5
					c5.3-0.7,10.6-1,16-1.2c6.3-0.2,12.3-2.3,17.7-5.6c2.9-1.7,5.7-3.6,8.6-5.2c1.5-0.8,3.1-0.7,4,1c0.9,1.5,0.4,3-1,3.8
					c-7.1,4.6-12.9,10.9-19.9,15.6c-3.5,2.3-7.2,4.3-11.2,5.5c-3.7,1.1-7.1,2.8-10,5.3c-3.3,2.8-7.4,4-11.6,4.4
					c-5,0.4-10.2,0.6-15.2-0.3c-13.9-2.4-27.7-5.3-41.7-6.2c-18.4-1.2-36.5-5.3-54.8-7.1c-2.1-0.2-4.5-0.2-5.3-2.9
					c-0.2-0.7-1-0.6-1.7-0.7c-12.5-1.3-24.8-3.3-37.1-5.8c-12.9-2.6-26-3.9-39.2-4.7c-1-0.1-2-0.2-3-0.3c-5-0.6-9.7-0.1-14.1,2.7
					c-2.9,1.8-6.5,0.9-8.5-1.8c-1-1.4-0.9-3.2,0.6-3.7c2.8-1,3-3.4,2.7-5.4c-0.6-5,1.3-9,3.9-13c1.7-2.6,3-5.6,4.3-8.5
					c2.8-5.9,6.4-11.1,11.6-15.2c1.8-1.4,3.3-3.1,4.8-4.9c3.9-4.7,9.2-6.5,15-7.4c5.7-0.9,11.5-1.5,16.9-4c3.2-1.5,7.1-1.6,10.5-0.8
					c5.7,1.5,11.1,0.3,16.6-0.9C612,44,612.7,43.9,613.4,43.8z"/>
				
					<path fill="#369EBB" stroke="#FFFFFF" stroke-width="20" stroke-linecap="round" stroke-linejoin="round" stroke-miterlimit="10" d="
					M623.9,305.4c0.6,1.4,1.1,2.4,1.4,3.5c1.2,4-1,7.1-5.2,7.3c-2.4,0.1-4.7-0.3-7-0.9c-1.2-0.3-2-0.1-2.7,0.9
					c-1.6,2.3-4.1,3.2-6.9,3.2c-5.5,0-10.9,0.1-16.3-0.7c-1.2-0.2-1.9-0.1-2.3,1.4c-0.5,2-2.3,2.7-4.3,2.6
					c-7.1-0.2-13.4-2.6-18.1-8.1c-1.3-1.6-2.8-2.5-4.7-2.9c-3.9-0.8-7.7-2.3-11.1-4.4c-0.5-0.3-0.9-0.6-1.5-0.7
					c-7.9-2-13.6-7.1-18.4-13.3c-1.8-2.3-3.9-4-6.7-4.9c-0.7-0.2-1.3-0.5-2-0.8c-8.7-3.2-10.9-8.6-10.9-18.6c0-4.2,4-6.5,7.5-8.3
					c2.6-1.4,5.6-2.2,8.5-3c4.6-1.3,9.3-2.5,13.9-3.7c1.8-0.5,3.6-0.9,5.1,0.6c0.5,0.5,1.2,0.3,1.8,0.4c9.7,0.4,19.4-0.9,29.1-1.3
					c14.1-0.6,28.2-1.7,42.2-0.3c12.7,1.2,25.4,2.5,38,1.6c7.7-0.6,15.4-0.7,23-0.3c9,0.5,18-0.1,26.9-1.1c0.6-0.1,1.5-0.1,1.8-0.5
					c2.1-2.5,4-1.2,5.9,0.2c5.1,3.9,10.1,7.7,15.1,11.6c7.6,5.8,15.8,10.2,25.4,11.9c2,0.4,3.9,1.5,3.8,3.9c-0.1,2.3-1.9,3.2-4,3.3
					c-6.5,0.5-13,1-19.6,1.5c-3,0.2-6,0.4-9,0.7c-1,0.1-2,0.2-2.8,0.9c-4.1,3.5-9.1,4.3-14.2,5c-1.5,0.2-3,0.5-4.5,0.8
					c-1,0.2-1.7,0.7-2.1,1.9c-1.6,4.9-3.4,6.3-8.6,6.6c-4.5,0.3-8.9,0.1-13.4,0c-1.1,0-2.2,0-3.3,0c1.3,5.1-0.2,7.2-5.4,7.5
					c-1.3,0.1-2.1,0.6-3,1.4c-4.5,3.4-9.7,4.5-15.2,3.5c-8-1.5-15.8-4-23.4-7.1C626,306.2,625.1,305.9,623.9,305.4z"/>
				
					<path fill="#369EBB" stroke="#FFFFFF" stroke-width="20" stroke-linecap="round" stroke-linejoin="round" stroke-miterlimit="10" d="
					M460.7,45.7c3.1,0.1,6.2-0.1,9.4-0.6c3.6-0.6,5.2,0.7,6,4.3c0.4,1.9-0.3,4.4,1.3,5.6c2.3,1.8,5.2,2.5,8.1,2.9
					c4.6,0.7,5.6,2.2,4.3,6.7c-0.2,0.7-0.4,1.4-0.6,2.1c-1.2,3.8-1.2,3.9,2.5,5.1c2.9,1,3.6,3.7,1.3,5.6c-3.3,2.6-5,6.2-6.9,9.7
					c-0.8,1.6-0.4,2.3,1.2,2.8c1.1,0.3,2.3,0.7,3.3,1.3c2.5,1.3,2.9,3.9,0.8,5.8c-3.7,3.2-7.4,6.4-11.1,9.6c-2,1.7-4.5,1.9-6.9,2.2
					c-15.3,1.7-30.6,4.1-46,5.3c-10.7,0.9-21.4,1.6-32.1,2.3c-13,0.9-26.1,1.7-39.1,3.1c-0.6,0.1-1.3,0.1-1.9,0.1
					c-1.3-0.1-2.2-0.8-2.4-2.2c-0.1-1.2,0.5-2.4,1.6-2.5c3.6-0.4,4.8-3.5,6.8-5.7c9.2-10.1,16.9-21.6,26-31.8
					c4.1-4.6,8.5-9,13.4-12.8c4.7-3.7,9.8-6.1,16-5.7c6.1,0.4,11-2.2,16.1-5.3C440.5,48.4,449.9,44.7,460.7,45.7z"/>
				
					<path fill="#369EBB" stroke="#FFFFFF" stroke-width="20" stroke-linecap="round" stroke-linejoin="round" stroke-miterlimit="10" d="
					M359.3,308.5c-6.3,0-10.5,0-14.8,0c-1.7,0-3.3-0.3-4.3-1.9c-0.5-0.9-1.4-0.7-2.1-0.9c-1.5-0.3-2.9-0.7-3.4-2.3
					c-0.5-1.5-1.9-1.2-3-1.3c-6.5-0.3-12.7-1.9-19-3.2c-9.8-2-18.5-6.4-26.9-11.6c-8.3-5.2-16.5-10.6-24.8-15.9
					c-0.7-0.4-1.4-0.9-2-1.5c-1-0.9-1.2-2.1-0.5-3.2c0.7-1.1,1.8-1.2,2.9-1c0.2,0,0.4,0,0.5,0.2c3.3,3.6,7.9,2.6,12,3.1
					c4.4,0.6,8.6,0.5,13,0.2c14.3-1.1,28.6-1.9,43-0.7c5,0.4,9.7,2.5,14.4,4c10.7,3.3,21.5,5,32.7,3.9c4.2-0.4,8.5-0.2,12.8-0.2
					c2.4,0,4.8,0.8,6.4,2.6c4.6,4.8,10.5,6.9,16.6,8.8c1.7,0.5,3.5,1.1,5.1,1.8c1.5,0.6,2.6,1.7,2.5,3.5c-0.1,1.8-1.1,2.9-2.7,3.4
					c-2.9,0.9-5.8,1.5-8.7,2.2c-7,1.8-13.6,4.6-20.7,5.8c-2.4,0.4-4.9,0.6-7.3,0.9c-2.9,0.4-6-0.2-8.4,2.2c-0.4,0.4-1.4,0.5-2.1,0.5
					C366.2,308.2,361.7,308.4,359.3,308.5z"/>
				
					<path fill="#369EBB" stroke="#FFFFFF" stroke-width="20" stroke-linecap="round" stroke-linejoin="round" stroke-miterlimit="10" d="
					M760.2,266.6c-0.1,0-0.2,0-0.3,0c-7.5-3-16.2-2-23.2-6.8c-2.9-2-6.4-3.1-9.6-4.5c-1.8-0.8-3-2-2.1-4c0.8-1.8,2.5-1.8,4.2-1.2
					c10.1,3.7,20.1,7.3,30.2,11c0.8,0.3,1.7,0.7,2.4,1.2c1,0.7,1.3,1.8,0.9,2.9C762.4,266.2,761.4,266.6,760.2,266.6z"/>
			</g>
			<g>
				
					<path fill="#222222" stroke="#FFFFFF" stroke-width="20" stroke-linecap="round" stroke-linejoin="round" stroke-miterlimit="10" d="
					M396.3,297.7c-3.1-1.7-6.2-3.4-9.3-5c-1.5-0.8-2.8-1.7-2.1-3.5c0.8-2,2.5-2,4.1-1.2c5.9,3.1,11.7,6.2,17.5,9.4
					c1.2,0.7,1.9,1.8,1.5,3.2c-0.4,1.4-1.5,2-2.9,1.8c-0.5,0-1.1-0.4-1.5,0.2c-1.4,2.6-4.2,2.7-6.5,3.6c-19.3,7.4-39.4,8.4-59.6,5.6
					c-9.3-1.3-18.5-3.9-27.2-7.8c-1.8-0.8-3.7-1.5-5.8-1.3c-1.8,0.2-3.6-0.5-5.3-1.1c-17.8-6.7-34.3-15.3-47.2-29.8
					c-0.9-1-1.8-1.2-3-1.4c-5.4-0.4-10.9-0.9-16.3-1.6c-4.8-0.6-8.4-3.5-11.2-7.2c-4.2-5.5-10-7.3-16.4-7.6
					c-3.5-0.1-7.1,0.2-10.6,0.5c-9.4,0.8-18.4-1.4-27.3-3.9c-6.6-1.9-13.2-1.8-19.9-0.2c-7.1,1.7-14,0.6-20.1-3.4
					c-5-3.2-10.1-5.2-16.1-4.5c-3,0.3-5.2-1.1-6.1-3.9c-1.1-3.4-3.4-5.5-6.3-7.2c-7.9-4.7-15.5-9.9-22.6-15.7
					c-8.8-7.2-14.8-16.2-16.9-27.5c-0.1-0.6-0.3-1.3-0.2-1.9c0.2-2-0.5-3.3-2.4-4.3c-2.4-1.2-3.3-3.4-3.3-6.1
					c0.2-4.4,1.1-8.6,2.9-12.7c2.1-4.8,5.5-8.3,10.4-10.2c3-1.2,6-2.2,9-3.2c4.5-1.5,8.5-3.8,11.5-7.5c1.7-2,3.7-3.1,6.4-3
					c2.7,0,5.1-0.8,7.4-2.4c5-3.4,10.4-6.3,16.2-8.3c0.4-0.1,0.9-0.3,1.3-0.3c6.2,0.3,12.1-2.3,18.3-2.5c1.5-0.1,3.1,0,4.6,0.2
					c10.9,2,21.8,2.4,32.8,1.4c9.3-0.8,18.7-1.1,28-1.8c2.7-0.2,5.4-0.6,8.1-1.1c5.4-1,10.8-0.9,16.3-0.1c9.7,1.5,19.4,0,29.1-0.7
					c7.7-0.6,15.4-1,23.1,0c5.4,0.7,10.9,0.2,16.3-0.5c9.2-1.2,18.4-2.1,27.7-1.9c7.6,0.1,15-1.5,22.5-1.8c0.9,0,1.4-0.6,2-1.2
					c9.2-7.9,15.5-18.2,22.5-27.9c4.8-6.7,9.4-13.6,15.2-19.5c6.5-6.6,14.5-10.1,23.5-11.9c1.9-0.4,3.6-0.2,4.1,2
					c0.4,2.2-1.2,3.2-3,3.5c-10.3,1.9-18.6,7-25,15.3c-2,2.7-4.2,5.3-6.1,8c-7.1,10.2-14.4,20.3-22.6,29.7c-0.2,0.2-0.2,0.4-0.5,1
					c5.3-0.3,10.3-0.4,15.3-0.8c13.2-1,26.5-1.2,39.7-3.2c19.8-3,39.8-3.6,59.7-5.8c1.3-0.1,2.4-0.3,2.9-1.8c0.4-1.3,1.8-1.7,3-2.1
					c5.1-1.7,8.5-5.7,12.5-9c-0.4-0.3-0.6-0.5-0.8-0.6c-6.1-2.4-7.2-7.2-2.7-12c1.8-1.9,4-3.3,6.4-5.2c-5.7-2-8.9-5.5-8.3-11.6
					c-1.2-0.4-1.9,0.5-2.7,1c-7.3,4.3-14.5,8.6-21.8,13c-0.9,0.5-1.6,1.1-2.7,1.2c-1.2,0.1-2.2-0.2-2.8-1.3c-0.5-1-0.5-2.2,0.3-3.1
					c0.7-0.7,1.5-1.3,2.3-1.8c7.8-5,15.8-9.7,24.3-14.4c-1.5-0.3-2.5-0.5-3.4-0.8c-3.6-1.1-5.4-3.9-5.1-7.6c0.3-3.3,0.1-3.6-3.3-3.6
					c-1.9,0-3.6,0.6-5.3,1.2c-6.9,2.6-14.4,2.8-21.4,5.3c-13.5,4.9-23,14.2-29.4,26.9c-2.8,5.5-5.2,11.2-8.2,16.6
					c-1.6,2.9-3.4,5.6-5.8,7.9c-1.3,1.2-2.8,2.1-4.3,0.7c-1.6-1.5-0.7-2.9,0.5-4.2c5-5.3,7.8-12,10.6-18.6
					c3.8-8.8,8.8-16.6,15.9-23.2c7.8-7.2,16.8-11.7,27.1-13.6c9.5-1.8,19-4.1,28.7-5c9.3-0.9,18.6-1.9,28-0.8
					c0.9,0.1,1.8,0.3,2.6,0.6c1.1,0.5,1.6,1.4,1.5,2.6c-0.1,1.2-0.7,2.1-2,2.3c-1,0.2-2,0.2-3,0.1c-8.2-0.8-16.3-0.1-24.5,0.5
					c-3.4,0.2-2.3,2.9-2.8,4.5c-0.5,1.7,1.1,2.5,2.7,2.7c3.7,0.5,7.4-0.3,11.1-0.4c1.7-0.1,3.4-0.4,4.3,1.5c0.9,2-0.7,3-1.9,4.2
					c-1.8,1.8-3.3,3.8-4.1,6.3c-0.7,2.3,0.3,4.1,2.8,5.2c2.5,1.1,5.1,1.1,7.7,1.5c1.6,0.2,3.2,0.3,3.6,2.2c0.4,2.1-1,3.1-2.7,3.9
					c-3.8,1.6-7.1,4-10.2,6.8c-0.8,0.7-2,1.5-1.5,2.6c0.5,1,1.9,0.9,2.9,1c1.1,0.1,2.2,0,3.3,0.1c1.8,0.1,3.8,0,4.5,2.3
					c0.6,2-0.7,3.3-2.2,4.3c-4.7,3.3-8.8,7.3-13.2,10.9c0.2,0.7,0.7,0.5,1.1,0.5c5.5-0.3,10.9,0.2,16.2,1.8c2,0.6,3.6-0.1,5.2-0.9
					c3.7-1.9,7.7-2.7,11.8-2.9c1.7-0.1,2.3-0.8,2.7-2.3c2.8-9.1,5.4-18.3,8.7-27.2c5.9-15.7,17.5-25,34-28
					c5.3-0.9,10.5-2.2,15.5-4.2c7.3-3,14.7-4.5,22.6-2c2.3,0.7,4.9,0.8,7.3,0.1c8.4-2.5,16.7-1.9,25,0.2c8.8,2.2,17.9,2,26.7,3.7
					c3.8,0.7,7.3,2.2,10.8,3.6c1.4,0.5,2.2,1.6,1.9,3.2c-0.3,1.6-1.5,2.3-2.9,2.4c-2.4,0.2-4.7,0.1-7.1,0.1c-2,0-3.8,0.6-5.2,2.1
					c-7,7.2-15,13.2-22.7,19.5c-1.6,1.3-3.1,2.5-4.3,4.2c-0.4,0.6-1.3,1.3-0.8,2.1c0.4,0.7,1.3,0.4,2,0.4c9.8-0.5,19.1-2.6,26.5-9.6
					c1.6-1.6,3.5-2.9,5.1-4.5c5.6-5.4,12.4-8,20.1-8.7c4-0.4,7.8,0.9,11.5,1.9c8,2.2,15.7,2.1,23.5-0.8c6.1-2.3,11.2,0.1,15.3,4.3
					c3.5,3.6,7.8,4.7,12.5,5.3c6,0.8,7.4,1.9,8.7,7.8c0.6,2.8,1.9,4.3,4.9,4.6c4.8,0.5,9.6-0.1,14.4-0.6c2.8-0.3,5.6-0.8,8.4-0.3
					c1.5,0.2,2.9,0.7,3.3,2.4c0.5,1.8-0.3,3.3-1.9,4.1c-2.3,1.1-4.6,2.1-7,3c-9,3.3-16.4,8.8-23.7,15.5c5,0.8,9.6,0.6,14.2-0.6
					c1.3-0.4,2.6-0.7,3.9-1.3c9.2-4.4,18.9-7,28.9-8.6c2-0.3,4.4-1.3,5.6,1.3c1.1,2.5-0.7,4.2-2.6,5.4c-7.4,4.4-13.6,10.2-19.4,16.6
					c-6.1,6.7-14.5,9.8-22.9,12.6c-3.9,1.3-7.9,2.6-12.3,4.1c1.8,1,3.2,1.2,4.6,1.1c10.5-0.2,21,1.2,31.6,0.2c8.9-0.9,17.8-1,26.6-2
					c4.7-0.5,9.5-0.5,14.2-0.1c9.7,0.9,19.2,0.2,28.8-0.8c5.5-0.6,11.1-0.7,16.6-0.4c6.8,0.4,13.6,0.2,20.3-1
					c6.9-1.3,13.8-0.3,20.6,0.6c8.6,1,17-0.2,25.5-1.4c13.7-2,27.5-3.9,41.3-5.4c10.1-1,20.1,0,30.1,1.8c0.7,0.1,1.4,0.3,2.1,0.7
					c0.9,0.5,1.7,1.3,1.5,2.4c-0.2,1.4-1.4,0.8-2.2,0.8c-8.3,0.3-16.5,0.2-24.8-0.3c-4.1-0.3-8.2,0.1-12.2,0.7
					c-1.2,0.1-2.4,0.4-3.5,0.3c-8.5-1.3-16.5,1-24.7,2.8c-12.1,2.7-24.2,5.1-36.7,3.1c-7.3-1.1-14.5-0.8-21.7,0.5
					c-4.8,0.9-9.6,0.7-14.4,0.2c-1.6-0.2-3.3,0-5.1,0c1.6,2.8,0.5,4.8-2.4,6.5c1.9,0.6,2.7,2,3.8,3.1c2,2,2,4.2,0.8,6.5
					c-1.4,2.5-3.1,4.8-3.7,7.7c-0.3,1.4-0.1,1.9,0.9,2.5c1,0.6,2,1.2,3,1.8c3.8,2.4,4.9,4.9,3.1,9c-1.5,3.4-2.2,6.2,1,8.9
					c0.4,0.4,0.6,1.1,0.8,1.7c1.3,3.6,0.5,5.4-3.2,6.4c-1,0.3-2.1,0.5-3.2,0.7c-0.2-1.3,0.6-2.1,0.8-3c0.2-0.9,0.7-1.7-0.2-2.8
					c-1.5,2.2-3.5,3.8-5.6,5.3c-0.4,0.3-0.9,0.8-1.4,0.9c-2,0.3-4.5,0.3-5.6-1.3c-0.7-1,1.5-2.4,2.6-3.4c0.7-0.7,1.5-1.3,2.5-2.1
					c-2.6-1.9-6.4-2.4-7.2-6.1c-0.8-4.2,3-5.4,5.4-7.6c-2.9-1.3-6.5-1.4-7.7-4.6c-1.5-4,2.3-5,4.6-6.9c-8.7-3.5-9.6-5.4-5-10.1
					c-2-0.3-4-0.5-5.9-0.8c-1-0.1-2-0.4-2.8-1c-1.1-0.8-1.5-1.9-0.9-3.1c0.5-1.3,1.7-1.7,2.9-1.3c1.3,0.4,2.1,0.4,2.5-1.3
					c0.6-1.8,2.6-1.7,3.8-2.2c-10.9-3-22.3-1.8-33.6-2.5c-3.3-0.2-6.6,0.4-10,0.8c1.5,1,3.9,1.3,3.6,3.4c-0.4,2.8-0.7,5.7-1.6,8.2
					c-0.7,2-1.8,3.7-1.6,6.1c0.1,2.1-2.7,3-3,4.6c-0.3,1.5,2.8,2.9,1.8,4.9c-1.7,3.6-2.4,7.3-3.1,11.2c-0.2,1.5-1,2.6-0.2,4.2
					c0.7,1.3,0.5,3-0.3,4.2c-1.3,2.1-1.6,4.8-3.6,6.6c-1.2,1.1,0.1,1.5,0.7,2c3.8,2.8,3.8,3.4-0.5,5.5c-2.5,1.2-8,0.1-9.8-2.1
					c-1.3-1.6-1.3-3.4,0-5c0.6-0.8,1.5-1.3,2.2-2c1.3-1.3,2.5-2.4,0.3-4.3c-1.8-1.6-1.8-3.8-0.3-5.9c0.1-0.1,0.2-0.3,0.4-0.4
					c1.9-1.7-0.9-3.7,0.4-5.6c0.9-1.4,1.9-2.6,0.4-4.9c-2.2-3.4-0.2-7.8-1.3-11.7c-0.2-0.7,1.1-1.8,1.8-2.8c-0.9-0.3-1.8-0.6-2.7-1
					c-1.7-0.8-2.8-2.4-1.8-4c1.2-1.9,1.4-4.2,3.1-6.1c-2.2-0.3-4.5-0.4-4.6-3.4c0-0.7-1.1-0.5-1.7-0.4c-10.3,1.3-20.5-0.1-30.8-0.1
					c-1.8,0-3.5,0.8-5.8,0.2c1.4,2,0.9,3.6-0.4,5.1c1.7,0.7,3.2,0.5,4.7,0.7c1.8,0.3,3.4,1,3.7,3.1c0.2,2-1.1,3-2.8,3.5
					c-3.5,1-5.7,4.9-10,4.8c1.4,0.8,2.8,1.5,4.1,2.4c4.2,2.8,4.3,6.7,0.2,9.7c-1.7,1.3-3.9,1.8-6.3,2.8c2.2,0.7,3.9,1,5.4,1.6
					c3.5,1.4,4.1,5.1,1.4,7.7c-2.2,2.1-5.1,2.6-8,3.9c1.3,0.4,2.3,0.7,3.3,1.1c3.2,1.3,4.7,3.5,4.6,6.9c-0.1,2.9-2.1,4.5-5.5,4
					c-3.1-0.4-6.2-1.1-10.1-1.8c2-0.8,3.4-1.4,4.8-2c-3.7-0.9-6.3-3.7-9.6-5.2c-1.6-0.7-3.3-1.5-3.1-3.7c0.2-2.1,1.8-2.8,3.6-3.2
					c3.6-1,7.4-0.7,10.9-2.8c-0.9-1.1-2.1-1.1-3.2-1.3c-3-0.7-5.9-1.9-8.7-3.2c-1.5-0.7-2.5-1.9-2.2-3.7c0.4-1.7,1.7-2.2,3.2-2.4
					c2.9-0.4,5.9-0.5,9-1.8c-3.5-1.6-7.4-2.3-9.1-6c-1.2-2.5,0.2-8.2,2.1-9.8c-1.8-1-1.8-1-5.6-0.9c-1.3,0-2.6,0.2-3.4-1.1
					c-0.8-1.3,0.2-2.3,0.6-3.5c0.9-2.6,2.2-4.3,5.4-4.1c-2.3-1.4-4.7-2.3-4.8-5.3c0-0.8-0.9-0.7-1.5-0.9c-8-2-16.2-2.9-24.4-3.7
					c-3.1-0.3-6.1-0.9-9.2-1.4c-0.9-0.1-1.8-0.2-2.8-0.3c0.1,1.8-0.1,3.4,0.5,5c0.3,0.8,0.3,1.9-0.4,2.3c-2.1,1.5-1.8,3.5-1.8,5.6
					c0,2.3-1.9,3.6-3.7,4.7c-0.9,0.6-1.2,0.9-0.5,2c2.3,3.3,1.3,8.9-1.8,11.6c-2.1,1.8-4.6,2.6-7,3.5c-0.9,0.4-1.8,0.7-3,1.1
					c1.6,1.2,3.1,1.7,4.6,2.3c1.6,0.6,3.3,1.1,4.8,2c3.1,1.8,3.4,5.4,0.7,7.7c-3.8,3.2-8.6,3.6-13.2,4.4c-1,0.2-1.8-0.7-2.6-1.3
					c-1.1-0.9-1-1.6,0.2-2.2c1.6-0.8,3.3-1.6,4.8-2.5c0.9-0.5,1.9-1.2,1.8-2.2c-0.1-1.2-1.3-1.3-2.2-1.6c-1.6-0.6-3.3-1.1-4.9-1.7
					c-2.3-1-3.8-2.5-3.9-5.3c0-2.8,1.3-4.4,3.7-5.5c2.5-1,4.9-2.1,7.9-3.3c-2.4-0.6-4.4-1-6.2-1.6c-1.5-0.5-2.8-1.4-3-3.2
					c-0.2-1.8,0.8-2.9,2.2-3.7c0.5-0.3,1.5-0.2,1-1.4c-1.9-4.3-1.8-4.3,1.3-7.1c-2.5-1.4-5.1-1.5-7.8-1.3c-1.8,0.2-3.5-0.2-3.5-2.4
					c0-2.1,1.5-2.7,3.3-2.7c1,0,2,0.3,3.2-0.5c-1.9,0-3.5-0.2-4-2.1c-0.5-1.8,0.7-2.8,2-4.1c-15.6-0.4-30.5-4.7-45.7-7.4
					c-0.1,0.2-0.1,0.5-0.2,0.7c2.2,1,4.4,1.8,6.5,2.9c3.2,1.7,3.7,3,2.5,6.4c-0.4,1.2,0.2,1.4,0.9,1.9c3.7,2.7,3.8,5.8,0.5,9
					c-2.4,2.3-5.5,3.5-8.4,4.8c0,0.7,0.5,0.8,0.9,1c4.7,2.8,4.9,6.7,0.3,9.8c-1.9,1.3-4,2.3-6.1,3.5c5.8,4.2,5.7,10.2-0.1,14.7
					c-0.9,0.7-1.4,1.2-0.6,2.4c0.9,1.3,0.8,2.9-0.1,4.1c-0.9,1.1-2.2,0.4-3.3,0.2c-2.7-0.5-5.2-1.6-7.4-3.3c-2.2-1.6-2.5-3.9-0.7-6
					c1.1-1.3,2.5-2.4,4.1-3.2c1.7-0.9,2.7-1.7,0.5-3.3c-1.2-0.9-2.1-2.2-3.2-3.4c-1.7-2-1.5-4.6,0.7-6.5c1.7-1.5,3.7-2.3,5.7-3.2
					c1.2-0.5,2.5-1,3.9-1.6c-2.1-1-4-1.8-5.8-2.9c-3.7-2.2-3.5-6,0.4-7.8c2.5-1.1,5.1-1.8,7.7-2.7c1-0.4,2.1-0.4,3-1.5
					c-3.2-1.9-6.6-2.4-10.1-3c-0.6-0.1-1.3-0.1-1.9-0.3c-1.5-0.4-2.7-1.3-2.6-3.1c0.1-1.8,1.4-2.5,2.9-2.7c2.5-0.2,5.1,0,7.6,0.6
					c1.3,0.3,2.6,0.4,4.8,0c-3.8-1.8-7-2.8-10.3-3.4c-1.5-0.3-3-0.4-3.5-2.1c-0.6-1.7,0.6-2.6,2.2-3.7c-6.9-1.5-13.4-2-19.8-3
					c-4.9-0.7-9.9-1.1-14.9-1.6c-3.2-0.3-3.5,0-3,3.1c0.4,2.6-1.1,4-3.2,4.7c-2.3,0.8-4.7,1.3-7.1,1.9c-1.2,0.3-2.4,0.5-4.4,1
					c1.9,0.8,3,1.2,4.1,1.8c2.9,1.4,3.4,3.5,2,6.2c-1.9,3.7-4.9,6.1-8.4,8.1c0.4,1,1.2,1,1.8,1.1c4.9,0.9,6.4,4.5,7.1,8.7
					c0.3,2.1-1.7,3.5-1.9,5.1c-0.1,1.2,2.9,1.9,3.1,4c0.2,2.4-0.6,4.3-2.3,5.9c-1.2,1.1-1.9,1.9-0.5,3.4c1,1.1,1.1,2.6,0.7,4.1
					c-0.4,1.1-0.5,2.2-0.4,3.4c0.3,4.1-1.9,5.6-5.7,4.3c-2.4-0.8-4.9-1.6-7.5-2.5c0.9-1.4,2.6-1.5,3.6-2.7c-0.2-1-1.3-1-1.9-1.6
					c-1.3-1.2-2.3-2.7-1.5-4.3c1.1-2-0.1-2.5-1.4-3.2c-1.4-0.8-2.8-1.7-3.6-3.2c-1.2-2.1-0.9-4.9,1.3-6c3.4-1.7,4.7-5.5,8.4-7.3
					c-2.1-0.9-3.7-1.6-5.3-2.3c-1.9-0.8-3.8-1.8-5.2-3.4c-2.8-3-2.4-6.2,0.9-8.6c2.3-1.6,4.9-2.4,7.4-3.5c1.1-0.4,2.2-0.8,3.5-1.4
					c-1.9-1.3-3.9-1.6-5.7-2.3c-2-0.8-4.1-1.6-4.1-4.1c0-2.6,2.1-3.3,4.2-4c1.9-0.6,3.7-1.3,5.7-2.6c-3.1,0-5.9-0.1-8.6,0
					c-1.5,0.1-2-0.1-1.8-1.9c0.2-2.1,0.2-3.9,3-4.3c-2.3-0.9-4.6-1-6.7-0.6c-8.1,1.3-16.2,1.5-24.3,2.7c-4,0.6-8.1,0.3-11.9,2.4
					c-2.6,1.4-4.8,3-5.5,5.9c-0.3,1.2-1.2,1.5-2.2,2.1c2.4,2.3,1.5,3.7-0.5,6.1c-2.2,2.6-3.9,5.5-7,7.2c-0.4,0.2-0.7,0.6-1.1,0.7
					c-2,0.5-2.3,1.3-1.2,3.1c1.3,2.1,0.1,4.1-1.4,5.7c-1.3,1.3-1.7,2.9-2.4,4.5c-0.5,1.2-0.3,2.5,0.3,3.7c1.5,3,1.5,3-2,3.8
					c-0.3,0.1-0.7,0.1-1.3,0.3c2.3,2.1,2.3,4.4,1.8,7.1c-0.4,2.1-0.3,4.3,0.8,6.4c0.2,0.4,0.5,0.9,0.4,1.3c-0.5,3.3,1.1,5.7,3.2,8
					c0.9,1,0.8,1.5-0.5,2.2c-3.3,1.7-7.7,1.8-9.2-1.2c-1.1-2.1-3.4-2.9-4-5.2c-0.6-2.1-1.7-4.1-2.5-6.2c-0.7-2-3.4-3.5-5.7-4.6
					c-1.5-0.7-3.2-1.3-4.8-2c-1.7-0.8-3.4-1.4-2.2-4.1c0.6-1.3-0.4-2.8-1.6-3.8c-1.7-1.5-3.6-2.4-5.7-3c-3.7-1.1-6.8-2.9-8.5-6.6
					c-0.6-1.4-1.9-1.8-3.3-2.2c-1.4-0.4-2.7-1-3.2-2.5c0.4-0.6,1-0.6,1.5-0.6c1.7-0.2,3-1,3.1-2.9c0.1-1.9-1.3-2.7-2.9-3.2
					c-1-0.3-2.1-0.6-3.2-0.9c-1.5-0.4-2.9-0.7-3.3-2.7c-0.2-1.2-1.6-1.9-2.9-2.3c-6.4-2.3-13-3.9-19.8-5.1c-2.1-0.4-3.8,0.1-4.4,2.5
					c-0.2,1-0.9,1.5-1.8,1.9c-10.7,5-20.9,10.8-29.7,19c-3.9,3.6-8.6,6-13.2,8.6c-8.7,4.9-16.1,11.3-20.9,20.2
					c-5,9.3-13.9,12.2-23.2,14.7c-3.8,1-7.5,0.8-11.2-0.8c-3.6-1.6-7.3-2.7-10.6-5.3c-3.5-2.8-7.8-3.3-12.4-1.8
					c-4.7,1.6-9.6,2.8-14.4,3.9c-3.2,0.8-6.3,0-9.5-0.6c-4.2-0.7-8.3-0.5-12.4,0.9c-1.7,0.6-3.1,0.5-4.7-0.3
					c-6.9-3.8-14.1-4.2-21.2-0.8c-5,2.4-9.9,2.2-15.3,1.7c-10.6-1-21.3-2.1-32-2.4c-3.2-0.1-6.4-0.5-9.4-2.2
					c-2.6-1.5-5.6-1.1-8.5-0.1c-4.1,1.5-8,3.5-11.9,5.4c-2.3,1.1-4.6,1.7-7.1,1.3c-3.8-0.6-7.8-0.6-11.4-2.3
					c-2.5-1.2-4.8-0.3-6.6,1.6c-1,1.1-2.1,1.2-3.4,1c-4.4-0.8-8.1-3-10.9-6.3c-3.8-4.3-8.9-5.4-14.1-6.4c-1.6-0.3-3.5,0.7-5.3,0.9
					c-3.7,0.4-7.4,0.8-11.2,0.5c-2.1-0.2-2.4,0.6-2,2.5c2,10.2,7.4,18.3,15.4,24.7c6.5,5.1,13.2,9.9,20.3,14.2
					c4.2,2.5,8.5,5.1,10,10.3c0.4,1.2,1.4,1.3,2.4,1.2c6.4-0.8,11.9,1.4,17.2,4.8c5.2,3.5,11.1,4.5,17.2,2.9
					c8.9-2.2,17.7-1.3,26.3,1.4c7.8,2.5,15.8,3.4,23.9,2.4c2.2-0.3,4.4-0.3,6.5,1c1.7,1.1,3.9,1.4,5.9,2.1c1.9,0.7,4.1,1,5.5,2.2
					c4.6,3.9,10.4,5.3,15.6,8c4.3,2.2,9.2,1.7,13.9,2.3c6.9,0.9,13.8,0.1,20.7,1.2c5.5,0.9,10.9,2.1,16.4,2.3
					c4.6,0.2,9.1-0.2,13.4-1.6c7.3-2.5,14.7-2.4,22.3-0.8c14,2.9,28.3,4.3,42.3,7.8c6.8,1.7,13.7,1.7,20.6,0.8
					c8.9-1.1,17.9-1.3,26.9-2c9.8-0.8,19.6,0,29.3,1.5c6.5,1,13,0.6,19.6,0.2c15.5-0.9,30.3-4.6,44.4-11c7.6-3.4,15.7-5.6,24-7.1
					c11.7-2.2,23.3-3.3,35.2-1.8c10.6,1.4,21.2,0.1,31.8-0.8c14-1.3,28-0.1,42-0.1c10.7,0,21.4,0.4,32.2,0.8c12,0.5,24-0.5,35.9-2.1
					c2.4-0.3,4.9-0.5,7.3-0.4c8.6,0.3,17-0.5,25.5-1.9c9.6-1.6,19.3-1.9,29-2.9c7.7-0.8,15.3-1.8,23-2.8c8.6-1.2,17.2-0.6,25.9-0.3
					c6.4,0.2,12.7,0.4,19.1,0.6c1.4,0,2.7-0.1,3.9-1c0.7-0.5,1.7-0.7,2.6-0.7c8.7-0.2,17.3-2.3,25.9-3.1c2.7-0.3,5.3-0.1,7.9,0.2
					c9.1,1.1,18.2,1.1,27.2,0.3c6.7-0.7,13.5-0.5,20.2-1.4c7.2-1,14.4-1.5,21.7-2.2c4.3-0.4,8.5-0.8,12.8-0.8
					c23.1-0.2,46.2-0.4,69.3-0.6c0.6,0,1.3,0,1.9,0c0.5,0,1.2,0,1.3,0.7c0.1,0.6-0.2,1-0.5,1.5c-0.8,0.9-1.8,1.2-2.9,1.5
					c-16.4,4.5-32.8,8.7-50.1,7.8c-7.5-0.4-15.1,0.3-22.6,0.9c-9.6,0.7-19.3,0-28.8-1.6c-2-0.3-3.9-0.4-5.9,0
					c-3.7,0.8-7.4,1-11.1,0.8c-12.5-0.7-25.1,0.1-37.6-0.5c-4.3-0.2-8.9-0.1-13,0.9c-15,3.8-30.1,3-45.2,2.2
					c-13.4-0.7-26.5,1.4-39.6,2.9c-6.9,0.8-13.9,1.4-20.9,2c-1.2,0.1-2.5-0.1-4,0.7c6.6,2.9,13.2,5,20.2,5.7
					c2.6,0.3,5.2,0.7,7.8,1.2c1.6,0.3,2.9,1.3,2.8,3.2c-0.1,1.7-1.3,2.6-2.8,2.8c-15.2,2.8-30.2,3.3-44.4-4
					c-2.6-1.3-5.3-2.4-6.6-5.7c-0.6-1.6-3.2-0.3-5.6-1c2.1,2.8,4.3,4.5,6.3,6.3c10.3,9.6,22.5,14.4,36.7,14c1.5,0,3.1,0.3,4.6,0.5
					c1.5,0.2,2.7,1,3.2,2.6c0.4,1.7-0.3,3-1.6,4c-1.8,1.5-4,2.1-6.3,2.5c-11,2.3-22.1,4.7-33.5,3.5c-2.3-0.2-4.1,0.2-5.8,2.3
					c-2.5,3-6.5,3.4-10.3,3.5c-2.6,0.1-5.3-0.1-7.9-0.2c-1.7,0-2.5,0.7-2.6,2.6c-0.2,5.6-2.7,7.5-8.4,6.7c-4.9-0.7-9.9-1.4-14.8-2.2
					c-1.7-0.3-2,0.2-1.3,1.7c0.3,0.6,0.6,1.3,0.7,2c0.7,3.2-0.8,5.1-4.1,5.2c-2.9,0.1-5.8-0.7-8.6-1.3c-5.8-1.2-11.4-2.9-16.9-5.2
					c-1.8-0.7-3.2-1.8-2.4-3.8c0.8-2.1,2.7-1.7,4.4-1c6.7,2.8,13.7,4.5,20.9,5.6c0.5-0.9-0.1-1.5-0.3-2.2c-1.4-4.5,0.5-7.1,5.3-7
					c5,0.1,9.9,1.1,14.9,1.9c0.4,0.1,0.7,0.2,1.1,0.2c3.5,0.5,3.5,0.5,3.9-3c0.3-2.8,2-4.8,4.9-5.6c2.5-0.7,5-0.6,7.6-0.4
					c2.3,0.2,4.5,0.2,6.8-0.3c1.5-0.3,3-0.7,3.4-2.6c0.2-1,1.1-1.6,2.2-1.7c3.7-0.3,7.3-1.3,11.1-1c6.3,0.5,12.5,0.1,18.7-1.6
					c0.6-0.2,1.3-0.1,1.7-0.9c-16.9-1.6-28.8-11.7-39.6-23.4c-1.5-1.6-2.9-1.8-4.7-1.6c-7.1,0.8-14.2,1.9-21.4,2.2
					c-4.6,0.2-9.3,0.7-13.9-0.3c-4.1-0.9-8.1,0.5-12.1,0.3c-18.2-1.1-36.5-0.9-54.8-1c-8.2-0.1-16.3,0.6-24.5,1
					c-7.1,0.3-14.2-0.6-21.2-1.1c-8.8-0.6-17.4-0.2-25.9,2c-6.4,1.7-12.9,2.8-19.3,4.7c-3,0.9-4.2,2.9-4.3,5.4
					c-0.4,8.7,2,13.6,9.5,16c5.6,1.8,9.7,5.6,13.2,10.2c3,4,6.2,7.8,10.8,10.1c3.9,2,7.8,3.5,12.2,3.4c2.7,0,5.1,0.9,7.5,2.2
					c4,2.3,7.9,4.8,12.2,6.7c1.3,0.6,2.3,1,2.1-1.3c-0.2-2.8,1.6-4.5,4.8-4.1c4.5,0.6,8.9,1.6,13.4,2.4c1.9,0.3,3.8,0.6,5.6,0.9
					c1.1,0.2,2.2,0.1,2.8-1.3c-2.6-0.9-5-2-7.7-2.2c-1.7-0.2-2.7-1-2.6-2.8c0.1-1.9,1.4-2.7,3.2-2.6c1.2,0.1,2.5,0.5,3.7,0.9
					c6,1.9,12.1,2.9,18.9,3.2c-1.8-2.2-3.4-4-4.9-5.9c-1.2-1.5-2.1-3.1-0.9-5c1.2-1.8,3-1.8,4.9-1.5c3,0.6,5.7,1.9,8.4,3.2
					c9.5,4.6,19.4,7.8,30,8.5c1.1,0.1,2.2,0,3.3,0c1.5-0.1,2.7,0.4,3.1,2c0.4,1.7-0.4,2.8-1.9,3.5c-1.4,0.6-2.8,0.5-4.3,0.4
					c-10.8-0.9-21.1-3.6-30.9-8.4c-0.6-0.3-1.2-0.8-2.2-0.5c0.6,0.9,1.2,1.8,1.8,2.7c1.8,3.2,0.4,6.1-3.2,6.5c-4,0.4-8-0.3-11.9-0.9
					c-0.9-0.1-1.7-0.5-2.7-0.2c0.7,4.6-1.7,7-6.5,6.2c-5.4-0.9-10.7-1.9-16-2.8c-0.4,0.4-0.2,0.7,0,1c0.8,1.3,1.2,2.7,0.2,4.1
					c-1.1,1.5-2.7,1.8-4.4,1.5c-3.7-0.5-7.3-1.7-10.6-3.5c-3.4-1.8-6.8-3.8-10.2-5.7c-1.7-1-3.4-1.5-5.4-1.6
					c-9.3-0.4-16.9-4.4-23.1-11.2c-1.8-1.9-3.4-4.1-5-6.1c-2.4-3.1-5.4-5.3-9-6.8c-9.9-4-13.6-9.8-13.1-20.5c0.1-1.9,0-2.7-2.2-1.7
					c-13.1,5.9-26.8,8.7-41.1,9.9c-11,0.9-21.7-0.1-32.6-1.4c-8.7-1.1-17.3-0.3-26.4,0.4c1.9,1.9,4,2.9,5.9,4
					c3.7,2.2,7.4,4.3,10.7,7c0.9,0.7,1.7,1.4,2.2,2.4c0.6,1.5,0.6,2.9-0.9,3.8c-1.5,1-3,0.8-4-0.8c-0.6-0.8-1.2-1.6-2-2.2
					c-1-0.8-1.7-1.3-2.8,0.1c-0.8,1.2-2.3,0.8-3.5,0.3c-2.4-1-4.9-1.9-7.3-2.9c-1.5-0.6-3-1.2-2.7-3.2c0.2-2.1,1.9-2.2,3.7-2.2
					c-2.1-2.4-5.4-3-7.1-5.8c-0.2-0.3-1.2-0.3-1.8-0.2c-13.1,2-26.1,1.9-38.9-1.7c-0.3-0.1-0.7,0-1.5,0c1,0.5,1.6,0.7,2.1,1.1
					c1.1,0.7,1.7,1.7,1.3,3c-0.4,1.3-1.5,2-2.8,1.7c-3.6-0.7-7.1-1.7-10.4-3.2c-1.4-0.7-1.9-2.2-1.1-3.5c1-1.5,0.2-1.6-1-1.8
					c-5.2-0.7-10.4-1.4-15.6-2.2c-2.2-0.3-4.4-0.9-6.7-1.4c-4.8-1.1-9.7-1.7-14.3-0.1c-11.9,4.3-23.8,3.1-35.7,0.6
					c-1.8-0.4-3.7-0.4-6-0.7c1.5,1.6,2.6,3,3.9,4.2c8.6,7.2,18.1,13.1,28.6,17.2c2.9,1.1,5.7,2.5,8.5,3.6c2.3,0.9,4.6,1.7,7.1,1.4
					c2-0.2,3.7,0.9,5.4,1.5c12.6,4.8,25.4,8.7,39.1,8.7c1,0,2,0.2,3.1-0.3c-0.3-1.2-1.5-1.5-2.3-2c-7.5-4.7-14.9-9.5-21.3-15.5
					c-1.2-1.1-2.4-2.3-2.9-3.9c-0.6-1.8,0-2.8,1.8-3.8c5.5-3,10.1,0.9,15,1.8c1.3,0.2,1.7,1.6,1.4,2.9c-0.4,1.6-1.8,2.1-3.2,1.8
					c-2.4-0.5-4.7-1.3-7.3-1.6c0.7,0.6,1.3,1.2,2,1.8c7.2,5.6,14.8,10.6,22.8,14.8c1.6,0.8,3.4,1.5,4.3,3.2c0.3,0.6,0.8,0.7,1.4,0.6
					c7.7-1.3,15.8-1.1,23.5-4.8c-5-1.2-9.6-2.3-14.1-3.4c-2.1-0.5-4.5-0.8-4.4-3.9c0-0.7-0.7-0.7-1.2-0.9c-5-2.6-10-5.3-14.9-7.9
					c-1.6-0.9-3.1-2-2-4c1-1.9,2.7-1.4,4.3-0.6c4.8,2.5,9.5,5,14.3,7.4c0.8,0.4,1.9,0.9,1.9,1.8c0,2.9,2.1,2.8,4,3.2
					c6.3,1.4,12.5,2.8,18.8,4.3C396.2,298.1,396.2,297.9,396.3,297.7z M767.9,90.5c-2.6,0-5.2,0.1-7.8,0c-6.1-0.4-9.1-2.6-10.1-8.3
					c-0.6-3.2-2.2-3.9-5.1-4.3c-5.3-0.7-10.5-1.9-14.3-6.3c-3.2-3.8-7.1-4.5-12-2.6c-5.4,2.1-11.1,2.8-16.9,1.5
					c-3.9-0.9-7.8-1.9-11.7-2.5c-9.8-1.6-18,1.7-24.9,8.8c-9.5,9.8-21.4,13.6-34.7,13.3c-5.5-0.1-8.1-4-5.7-9
					c1.4-2.9,3.7-5.1,6.2-7.2c5.8-4.8,12-9.2,17.4-14.5c2.5-2.4,4.5-5.3,6.5-7.6c-8.2-1-17.3-1.5-26.1-3.8c-6-1.5-11.8-1.4-17.8,0.3
					c-3.8,1.1-7.8,1.1-11.6,0c-5.7-1.6-11.1-1-16.5,1.1c-5.6,2.2-11.2,4.1-17.2,5c-16.6,2.5-27.3,12-32.5,27.9
					c-2.5,7.6-4.7,15.3-7.8,22.6c-0.9,2.2,0.5,3.9,3.1,3.8c1.8-0.1,3.6-0.6,5.4-0.6c16.1-0.3,31.8,2.4,47.7,4.6
					c11.5,1.6,22.9,3.9,34.4,5.6c17.1,2.5,34.3,5.3,51.5,7.4c13.5,1.7,26.7,5.7,40.3,6.5c6,0.4,11.9,1.1,17.8,1.5
					c3.8,0.3,7.9-0.3,11.4,1.8c1,0.6,2.1,0.1,3.2-0.2c8.6-3,17.2-5.9,25.7-9c6-2.2,11.5-5.4,15.9-10.3c3-3.4,5.8-6.9,9.4-9.8
					c-3.7,0.4-7,1.6-10.4,3c-4.4,1.9-8.8,3.9-13.5,4.9c-7.8,1.7-16-0.4-23.8,2.3c-1.8,0.6-3.1-1.4-3.8-3c-0.7-1.6,1.3-1.1,1.8-1.9
					c0.2-0.2,0.4-0.4,0.6-0.6C750.4,104.2,758.1,96.3,767.9,90.5z M139.1,133.5c-6,0.5-11,3.4-14.5,8.5c-1.6,2.3-1.2,4.9,0.3,7.2
					c2,3,8.6,4.9,12.8,3.8c5.8-1.5,10.6-4.2,13.7-9.8c1.1-1.9,0.9-3.4-0.4-4.3C147.4,136.5,144,133.8,139.1,133.5z M726.2,256.8
					c5.9,4.4,19,7.8,24.3,6.5c-5-1.9-10.1-3.1-14.4-5.8C732.8,255.3,729.8,255.5,726.2,256.8z M438.5,147.1c6,2,11.5,0,17.1-1.2
					C449.9,145.4,444.2,143.5,438.5,147.1z M438.7,126.1c-3.1-0.3-6-0.3-8.6,1.4c-1,0.7-2.2,1-3.4,0.8c-3.4-0.6-6.6,0.4-9.8,0.7
					C424.3,129.7,431.6,129.4,438.7,126.1z M544.7,165.1c5,3.4,5.6,3.7,8.1-0.1C550.1,164.9,547.6,163,544.7,165.1z M467.4,141.1
					c-2.2-2.7-7.5-3.2-12.1-1C459.7,140,463.4,140.9,467.4,141.1z M463.6,129.6c4,0,7.5,0.5,11.2-1.8
					C470.8,127.5,467.2,126.7,463.6,129.6z M483.6,134.8c-0.1-0.2-0.2-0.5-0.3-0.7c-2.3,0.6-4.7,1.2-7,1.8c-1.1,0.3-1,1.1-0.7,1.9
					c0.4,0.9,0.8,1.4,1.8,0.7C479.5,137.3,481.6,136.1,483.6,134.8z M860.5,183.5c4,2.2,4,2.2,5.1-1.5c0.2-0.7,0.8-1.4,0.5-2.5
					C864.2,180.8,862.5,182,860.5,183.5z M677.5,147.4c-2.1,0.1-4.1,0.3-6.2,1.8C674.1,149.8,675.8,148.6,677.5,147.4z M858,159.2
					c2.8,1.1,4.3,0.7,5-2C861.4,157.8,860,158.4,858,159.2z"/>
				
					<path fill="#222222" stroke="#FFFFFF" stroke-width="20" stroke-linecap="round" stroke-linejoin="round" stroke-miterlimit="10" d="
					M403.1,184.9c-2.5-0.2-4.8,0.5-7.2,0.8c-10.1,1.4-20.3,2.4-30.4,2.2c-7.7-0.2-15.4-0.1-23.1-1.3c-1.2-0.2-3.1,0-2.8-1.7
					c0.2-1.5,1.5-3,3.4-2.9c2.4,0.1,4.9,0.5,7.3,0.6c18.9,0.5,37.7-1.1,56.4-4.5c2-0.4,3.9-0.6,5.1,1.3c1.3,2,0.2,3.6-0.9,5.2
					c-5.2,7.6-11.8,13.9-19.8,18.3c-18.5,10.3-37.8,19-58.1,25.2c-1.7,0.5-3.5,0.9-5.3,1.3c-1.1,0.2-2.2,0.2-3.2-0.3
					c-1-0.6-1.7-1.4-1.7-2.6c0-1.3,1.2-1.2,1.9-1.5c9-3.3,18.3-5.8,27.2-9.6c12.7-5.5,25.3-11,37.3-18c4.8-2.8,9-6.5,12.7-10.6
					C402.4,186.3,403.1,185.9,403.1,184.9z"/>
				
					<path fill="#222222" stroke="#FFFFFF" stroke-width="20" stroke-linecap="round" stroke-linejoin="round" stroke-miterlimit="10" d="
					M969,176.1c26.2-1,52,2.4,77.7,7.2c0.5,0.1,1.1,0.3,1.6,0.4c1.8,0.5,3,1.6,2.6,3.6c-0.4,2.1-2.1,2.3-3.8,2
					c-5.4-0.9-10.7-1.9-16.1-2.8c-26-4.6-52.2-5.5-78.5-4.5c-4.5,0.2-9.1,0.1-13.6,0.1c-1,0-2-0.2-2.9-0.5c-0.9-0.3-1.4-1.1-1.5-2.1
					c-0.1-1.1,0.4-2,1.5-2.4c0.7-0.3,1.6-0.5,2.4-0.4C948.5,176.9,958.8,176.2,969,176.1z"/>
				
					<path fill="#222222" stroke="#FFFFFF" stroke-width="20" stroke-linecap="round" stroke-linejoin="round" stroke-miterlimit="10" d="
					M967.3,157.5c15.3,0.3,33.2,2.4,51.1,5.2c6.3,1,12.6,1.6,18.9,2.4c0.2,0,0.4,0,0.5,0.1c2,0.2,3.7,0.9,3.5,3.3
					c-0.3,2.4-2.2,2.6-4.1,2.4c-5.7-0.6-11.4-1.2-17-2c-20.1-3-40.3-5.8-60.7-5.6c-8.5,0.1-17.1,0.2-25.3,3.1
					c-1.2,0.4-2.4,0.2-3.1-1c-0.7-1.3-0.3-2.5,0.7-3.4c1.6-1.4,3.6-1.7,5.5-2.1C946.4,158,955.4,157.6,967.3,157.5z"/>
				
					<path fill="#222222" stroke="#FFFFFF" stroke-width="20" stroke-linecap="round" stroke-linejoin="round" stroke-miterlimit="10" d="
					M1013.6,202c-19.3-1-38.6-1.6-57.9-3.4c-4.7-0.5-9.4-1.1-14.1-1.7c-1.9-0.2-4.5-0.1-4.2-3c0.3-2.7,2.7-2.5,4.7-2.3
					c7.6,0.8,15.1,1.9,22.7,2.2c23.7,1.1,47.3,2.7,71,3c2.4,0,4.9-0.3,7.3-0.3c1.9,0,3.9,0.3,4,2.7c0.1,2.6-1.9,3-3.9,3.1
					C1033.4,202.6,1023.5,202.6,1013.6,202z"/>
				
					<path fill="#222222" stroke="#FFFFFF" stroke-width="20" stroke-linecap="round" stroke-linejoin="round" stroke-miterlimit="10" d="
					M977,141.6c11.3,0,27.9,2.5,44.5,4.8c2.2,0.3,4.5,0.6,6.8,0.8c2,0.2,3.7,1,3.4,3.3c-0.2,2.3-2,2.6-3.9,2.4
					c-8.1-1-16.2-2-24.3-3.1c-22.7-3.2-45.4-3.7-68,1c-3.1,0.6-6.3,0.6-9.1,2.4c-1,0.6-2.2,0.3-2.9-0.7c-0.8-1.1-0.7-2.2,0.1-3.3
					c1-1.4,2.6-2.1,4.2-2.4C942.1,144.2,956.6,141.2,977,141.6z"/>
				
					<path fill="#222222" stroke="#FFFFFF" stroke-width="20" stroke-linecap="round" stroke-linejoin="round" stroke-miterlimit="10" d="
					M994.5,230.6c-13.6,0-26.1-1.4-38.7-2.8c-5.5-0.6-11-1-16.6-0.9c-1.9,0-3.7-0.2-3.7-2.5c-0.1-2.4,1.8-2.7,3.6-2.8
					c9-0.1,18,0.8,26.9,1.6c21.1,2,42.3,2.7,63.3-0.6c1-0.2,2-0.2,3-0.2c1.7,0,2.9,0.7,3,2.5c0.2,1.7-0.8,2.8-2.4,3.1
					c-2.4,0.4-4.8,0.8-7.3,1.1C1015.1,230.2,1004.4,231.3,994.5,230.6z"/>
				
					<path fill="#222222" stroke="#FFFFFF" stroke-width="20" stroke-linecap="round" stroke-linejoin="round" stroke-miterlimit="10" d="
					M175.6,222.6c-7.1-0.2-14.1-0.2-20.7-3.8c-2.5-1.4-5.3-0.6-8-0.3c-3.4,0.4-6.8,1-10.3,0.4c-6.4-1.1-10.7-5.1-14.4-10
					c-0.9-1.1-0.9-2.5,0.2-3.4c1.2-1.1,2.6-0.8,3.7,0.3c1,1,2,2.1,3,3.2c3.8,4,8.4,5.6,13.8,4.6c6.4-1.2,12.6-1.6,18.5,1.8
					c2,1.2,4.5,1.1,6.9,1.2c6.3,0.2,12.5,0.9,18.8,0.1c3.4-0.4,6.2-2,8.5-4.4c2.3-2.3,4.6-4.7,6.9-6.9c1.5-1.4,3.3-2.4,5-0.5
					c1.5,1.8,0.3,3.3-1.1,4.7c-2.1,2-4.2,4-6.2,6.2c-4.6,4.9-10.2,7-16.8,6.9C180.8,222.6,178.2,222.6,175.6,222.6z"/>
				
					<path fill="#222222" stroke="#FFFFFF" stroke-width="20" stroke-linecap="round" stroke-linejoin="round" stroke-miterlimit="10" d="
					M991.5,216.3c-14.2-0.7-27-1.1-39.7-2.4c-3.2-0.3-6.5-0.9-9.7-1.3c-1.7-0.3-3.4-0.8-3.1-3c0.3-2.2,2.2-2.5,4-2.2
					c5,0.7,10.1,1.4,15.1,1.7c19.6,0.9,39.2,2.1,58.8,2c2.2,0,4.6-0.5,5.1,2.6c0.3,2-1.2,3-5,3.1
					C1008.1,217,999.1,216.6,991.5,216.3z"/>
				
					<path fill="#222222" stroke="#FFFFFF" stroke-width="20" stroke-linecap="round" stroke-linejoin="round" stroke-miterlimit="10" d="
					M373.6,305.5c-0.4-0.1-1.1-0.3-1.6-0.6c-6.7-3.6-13.6-6.8-20-11c-1.4-0.9-2.8-1.8-3.8-3.1c-0.8-1-1-2.2-0.1-3.3
					c0.9-1.1,2.2-1.3,3.2-0.5c7.2,5.5,15.6,8.8,23.5,13.1c1.3,0.7,2.1,1.8,1.7,3.3C376,304.9,375.1,305.5,373.6,305.5z"/>
				
					<path fill="#222222" stroke="#FFFFFF" stroke-width="20" stroke-linecap="round" stroke-linejoin="round" stroke-miterlimit="10" d="
					M436.2,243.2c-2.1,0-4.3-1.8-4.1-3.5c0.2-2.2,1.7-3.1,3.7-3.2c1.6-0.1,3.4,2.2,3.4,4.2C439.1,242.2,437.9,243.2,436.2,243.2z"/>
				
					<path fill="#222222" stroke="#FFFFFF" stroke-width="20" stroke-linecap="round" stroke-linejoin="round" stroke-miterlimit="10" d="
					M451.3,238.9c2-0.1,3.2,0.5,3.2,2.3c0,1.7-2.8,4.2-4.7,4.1c-1.5-0.1-2.5-0.8-2.5-2.5C447.3,240.7,449.4,238.9,451.3,238.9z"/>
				
					<path fill="#222222" stroke="#FFFFFF" stroke-width="20" stroke-linecap="round" stroke-linejoin="round" stroke-miterlimit="10" d="
					M457.6,198c-1.6-0.4-4-0.2-4.2-2.9c-0.1-1.8,1.2-2.5,2.9-2.5c3.3,0,5,1.1,4.9,3.1C461,197.7,459.5,198.1,457.6,198z"/>
				
					<path fill="#222222" stroke="#FFFFFF" stroke-width="20" stroke-linecap="round" stroke-linejoin="round" stroke-miterlimit="10" d="
					M413.5,225.8c0.1-2,2.8-3.9,4.8-3.7c1.5,0.2,2.3,1.1,2.2,2.6c-0.1,1.5-3.3,4-4.8,3.8C414.1,228.3,413.5,227.1,413.5,225.8z"/>
				
					<path fill="#222222" stroke="#FFFFFF" stroke-width="20" stroke-linecap="round" stroke-linejoin="round" stroke-miterlimit="10" d="
					M551.4,236.4c-2.3,0-3.9-1.6-3.6-3.4c0.5-2.3,2-2.3,3.9-1.9c1.7,0.3,3.6,0.3,3.5,2.7C555.2,235.3,553.5,236.4,551.4,236.4z"/>
				
					<path fill="#222222" stroke="#FFFFFF" stroke-width="20" stroke-linecap="round" stroke-linejoin="round" stroke-miterlimit="10" d="
					M402.1,238.3c1.4,0.1,2.6,0.8,2.6,2.6c0,1.7-2.2,3.5-4.2,3.5c-1.6,0-2.6-0.8-2.7-2.4C397.7,240.2,400,238.2,402.1,238.3z"/>
				
					<path fill="#222222" stroke="#FFFFFF" stroke-width="20" stroke-linecap="round" stroke-linejoin="round" stroke-miterlimit="10" d="
					M701.8,202.8c1.2,0,2.3,0.8,2.4,2.5c0,1.4-2.4,3.6-3.9,3.5c-1.7-0.1-2.4-1.2-2.4-2.7C697.8,204.3,699.3,202.9,701.8,202.8z"/>
				
					<path fill="#222222" stroke="#FFFFFF" stroke-width="20" stroke-linecap="round" stroke-linejoin="round" stroke-miterlimit="10" d="
					M436.5,225.3c-1.7-0.1-2.8-0.7-2.9-2.4c-0.1-1.8,1.7-3.1,4.3-3.2c1.6,0,2.7,0.7,2.6,2.4C440.3,224.6,438.2,224.8,436.5,225.3z"
					/>
				
					<path fill="#222222" stroke="#FFFFFF" stroke-width="20" stroke-linecap="round" stroke-linejoin="round" stroke-miterlimit="10" d="
					M471.1,242.7c-2.1-0.2-3.4-1.1-3.5-3c-0.1-1.7,0.8-3,2.5-2.8c1.7,0.2,3.8,0.8,3.9,3.1C474.1,241.9,472.5,242.4,471.1,242.7z"/>
				
					<path fill="#222222" stroke="#FFFFFF" stroke-width="20" stroke-linecap="round" stroke-linejoin="round" stroke-miterlimit="10" d="
					M471.2,223.9c0,1.9-1,2.9-2.8,3c-1.8,0.1-2.6-1.1-2.6-2.8c0-1.9,0.6-3.6,2.8-3.7C470.8,220.3,470.9,222.3,471.2,223.9z"/>
				
					<path fill="#222222" stroke="#FFFFFF" stroke-width="20" stroke-linecap="round" stroke-linejoin="round" stroke-miterlimit="10" d="
					M514.7,212.9c-0.4,1.7-0.7,3.7-3.1,3.6c-1.7,0-2.8-1-2.6-2.7c0.2-2,1.5-3.3,3.5-3.4C514,210.3,514.6,211.4,514.7,212.9z"/>
				
					<path fill="#222222" stroke="#FFFFFF" stroke-width="20" stroke-linecap="round" stroke-linejoin="round" stroke-miterlimit="10" d="
					M741.9,218.7c1.2,0,2.1,0.8,2.2,2.3c0.1,1.6-1.8,3.6-3.4,3.6c-1.6,0-2.6-0.8-2.6-2.5C738,220.4,739.8,218.7,741.9,218.7z"/>
				
					<path fill="#222222" stroke="#FFFFFF" stroke-width="20" stroke-linecap="round" stroke-linejoin="round" stroke-miterlimit="10" d="
					M492.8,232c-0.1,1.5-1,2.3-2.4,2.4c-1.7,0.1-3.7-1.9-3.6-3.5c0.1-1.5,0.9-2.4,2.4-2.4C490.9,228.5,492.8,230.5,492.8,232z"/>
				
					<path fill="#222222" stroke="#FFFFFF" stroke-width="20" stroke-linecap="round" stroke-linejoin="round" stroke-miterlimit="10" d="
					M459.7,209.1c-1.6-0.3-3.4-0.8-3.6-3c-0.2-1.6,0.8-2.7,2.4-2.5c1.8,0.2,3.6,0.9,3.9,3C462.6,208.2,461.5,209,459.7,209.1z"/>
				
					<path fill="#222222" stroke="#FFFFFF" stroke-width="20" stroke-linecap="round" stroke-linejoin="round" stroke-miterlimit="10" d="
					M633.7,224.3c0,1.8-0.7,3.1-2.7,3c-1.6-0.1-3.1-0.7-3.1-2.7c-0.1-2,1.4-2.9,3.1-3C632.7,221.5,633.6,222.6,633.7,224.3z"/>
				
					<path fill="#222222" stroke="#FFFFFF" stroke-width="20" stroke-linecap="round" stroke-linejoin="round" stroke-miterlimit="10" d="
					M634.2,211.4c0.2-1.9,1.2-3,3-2.9c2,0.1,2.3,1.7,2.3,3.3c0,1.6-0.6,2.7-2.3,2.7C635.2,214.5,634.4,213.1,634.2,211.4z"/>
				
					<path fill="#222222" stroke="#FFFFFF" stroke-width="20" stroke-linecap="round" stroke-linejoin="round" stroke-miterlimit="10" d="
					M391.1,228.1c0.2-1.6,1-2.8,2.7-2.6c1.8,0.2,2.9,1.5,3,3.3c0.1,1.7-1.1,2.5-2.6,2.4C392.4,231,391.2,230.1,391.1,228.1z"/>
				
					<path fill="#222222" stroke="#FFFFFF" stroke-width="20" stroke-linecap="round" stroke-linejoin="round" stroke-miterlimit="10" d="
					M524.1,203.2c-1.8-0.2-3-1.2-3.1-3.1c-0.1-1.6,0.8-2.5,2.4-2.6c2.1-0.1,2.9,1.3,3.1,3.1C526.6,202.1,525.7,203,524.1,203.2z"/>
				
					<path fill="#222222" stroke="#FFFFFF" stroke-width="20" stroke-linecap="round" stroke-linejoin="round" stroke-miterlimit="10" d="
					M595.9,220.2c2.1,0,2.8,1.2,2.9,3c0,1.5-0.6,2.8-2.4,2.6c-1.9-0.1-3-1.3-3.1-3.2C593.3,221,594.4,220.2,595.9,220.2z"/>
				
					<path fill="#222222" stroke="#FFFFFF" stroke-width="20" stroke-linecap="round" stroke-linejoin="round" stroke-miterlimit="10" d="
					M548.8,206.8c0.4-1.5,1.1-2.8,3-2.8c1.7,0.1,2.4,1.2,2.2,2.8c-0.2,1.6-1.1,3-3,2.9C549.4,209.6,548.7,208.5,548.8,206.8z"/>
				
					<path fill="#222222" stroke="#FFFFFF" stroke-width="20" stroke-linecap="round" stroke-linejoin="round" stroke-miterlimit="10" d="
					M509.5,246.6c-2,0-3-0.8-3-2.4c0-1.8,1.2-2.8,2.9-2.9c1.6-0.1,2.9,0.7,2.8,2.5C512.1,245.6,510.9,246.4,509.5,246.6z"/>
				
					<path fill="#222222" stroke="#FFFFFF" stroke-width="20" stroke-linecap="round" stroke-linejoin="round" stroke-miterlimit="10" d="
					M838,201.4c-1.7-0.2-2.5-1.2-2.5-2.7c0-1.8,1.1-2.8,2.9-2.8c1.5,0,2.3,1,2.2,2.5C840.6,200,839.8,201.3,838,201.4z"/>
				
					<path fill="#222222" stroke="#FFFFFF" stroke-width="20" stroke-linecap="round" stroke-linejoin="round" stroke-miterlimit="10" d="
					M822.9,224.7c-1.7,0.1-2.7-0.7-2.8-2.1c0-1.9,1.3-2.9,3.1-3c1.5-0.1,2.5,0.6,2.6,2.1C825.8,223.8,824.4,224.5,822.9,224.7z"/>
				
					<path fill="#222222" stroke="#FFFFFF" stroke-width="20" stroke-linecap="round" stroke-linejoin="round" stroke-miterlimit="10" d="
					M541.8,203.3c-0.1,1.6-0.9,2.5-2.4,2.4c-1.7-0.1-2.9-1.1-3.1-2.8c-0.2-1.7,0.9-2.6,2.5-2.5C540.5,200.5,541.6,201.6,541.8,203.3
					z"/>
				
					<path fill="#222222" stroke="#FFFFFF" stroke-width="20" stroke-linecap="round" stroke-linejoin="round" stroke-miterlimit="10" d="
					M505,241.8c-1.5-0.1-2.7-0.7-2.7-2.4c0-2,1.5-2.6,3.1-2.6c1.5,0,2.6,0.7,2.6,2.4C508,241.1,506.7,241.8,505,241.8z"/>
				
					<path fill="#222222" stroke="#FFFFFF" stroke-width="20" stroke-linecap="round" stroke-linejoin="round" stroke-miterlimit="10" d="
					M599.7,208.9c-1.7-0.2-2.9-1-2.9-2.7c-0.1-1.7,1.1-2.5,2.6-2.5c1.5,0,2.7,0.8,2.7,2.5C602.1,207.7,601.2,208.6,599.7,208.9z"/>
				
					<path fill="#222222" stroke="#FFFFFF" stroke-width="20" stroke-linecap="round" stroke-linejoin="round" stroke-miterlimit="10" d="
					M589.7,217.9c-0.1,1.6-1,2.6-2.6,2.6c-1.6,0-2.6-0.9-2.6-2.5c0-1.6,0.9-2.6,2.5-2.6C588.7,215.4,589.5,216.4,589.7,217.9z"/>
				
					<path fill="#222222" stroke="#FFFFFF" stroke-width="20" stroke-linecap="round" stroke-linejoin="round" stroke-miterlimit="10" d="
					M732.7,225.1c1.6,0.1,2.6,0.9,2.6,2.5c0,1.6-1,2.5-2.6,2.5c-1.6,0-2.6-0.9-2.6-2.5C730.1,226.1,731.1,225.2,732.7,225.1z"/>
				
					<path fill="#222222" stroke="#FFFFFF" stroke-width="20" stroke-linecap="round" stroke-linejoin="round" stroke-miterlimit="10" d="
					M572.5,229.9c-0.1,1.8-0.8,2.8-2.4,2.8c-1.6,0.1-2.6-0.8-2.7-2.4c-0.1-1.7,0.8-2.7,2.6-2.8C571.5,227.5,572.3,228.5,572.5,229.9
					z"/>
				
					<path fill="#222222" stroke="#FFFFFF" stroke-width="20" stroke-linecap="round" stroke-linejoin="round" stroke-miterlimit="10" d="
					M639,204.1c-1.4-0.2-2.5-1-2.3-2.7c0.1-1.6,1.3-2.4,2.8-2.2c1.5,0.1,2.6,1.1,2.5,2.7C641.9,203.5,640.7,204.1,639,204.1z"/>
				
					<path fill="#222222" stroke="#FFFFFF" stroke-width="20" stroke-linecap="round" stroke-linejoin="round" stroke-miterlimit="10" d="
					M661,218.5c-1.4-0.1-2.5-0.8-2.5-2.3c0-1.7,1-2.7,2.7-2.8c1.5-0.1,2.4,0.7,2.5,2.2C663.7,217.5,662.6,218.3,661,218.5z"/>
				
					<path fill="#222222" stroke="#FFFFFF" stroke-width="20" stroke-linecap="round" stroke-linejoin="round" stroke-miterlimit="10" d="
					M420.8,211.5c-0.2,1.7-1.1,2.6-2.7,2.5c-1.6-0.1-2.5-1.1-2.4-2.7c0.1-1.6,1.1-2.5,2.7-2.4C420,209,420.7,210,420.8,211.5z"/>
				
					<path fill="#222222" stroke="#FFFFFF" stroke-width="20" stroke-linecap="round" stroke-linejoin="round" stroke-miterlimit="10" d="
					M848.1,227.3c-0.1,1.5-0.8,2.5-2.3,2.5c-1.6,0-2.6-0.8-2.8-2.4c-0.2-1.5,0.6-2.5,2.1-2.6C846.9,224.7,847.8,225.7,848.1,227.3z"
					/>
				
					<path fill="#222222" stroke="#FFFFFF" stroke-width="20" stroke-linecap="round" stroke-linejoin="round" stroke-miterlimit="10" d="
					M706.2,224.3c-0.2,1.6-1.2,2.5-2.7,2.5c-1.5,0-2.4-0.9-2.3-2.4c0.1-1.6,1.1-2.4,2.7-2.5C705.4,221.9,706.1,222.9,706.2,224.3z"
					/>
				
					<path fill="#222222" stroke="#FFFFFF" stroke-width="20" stroke-linecap="round" stroke-linejoin="round" stroke-miterlimit="10" d="
					M572.2,206.7c0.2-1.5,1-2.7,2.7-2.7c1.5,0,2.3,1,2.3,2.5c-0.1,1.6-1,2.6-2.5,2.6C573.2,209.2,572.4,208.3,572.2,206.7z"/>
				
					<path fill="#222222" stroke="#FFFFFF" stroke-width="20" stroke-linecap="round" stroke-linejoin="round" stroke-miterlimit="10" d="
					M762.1,217c1.5,0.1,2.6,0.9,2.6,2.5c0,1.5-1,2.3-2.5,2.3c-1.6,0-2.6-0.8-2.6-2.4C759.6,217.8,760.5,217,762.1,217z"/>
				
					<path fill="#222222" stroke="#FFFFFF" stroke-width="20" stroke-linecap="round" stroke-linejoin="round" stroke-miterlimit="10" d="
					M688.4,232.8c-1.5-0.2-2.3-1.1-2.2-2.6c0.1-1.6,1-2.6,2.6-2.5c1.5,0,2.3,1.1,2.2,2.6C690.9,231.7,690,232.7,688.4,232.8z"/>
				
					<path fill="#222222" stroke="#FFFFFF" stroke-width="20" stroke-linecap="round" stroke-linejoin="round" stroke-miterlimit="10" d="
					M864.3,228.1c-1.5-0.1-2.4-0.8-2.4-2.3c0-1.7,0.8-2.8,2.5-2.8c1.5,0,2.3,0.9,2.3,2.4C866.8,226.9,866,227.9,864.3,228.1z"/>
				
					<path fill="#222222" stroke="#FFFFFF" stroke-width="20" stroke-linecap="round" stroke-linejoin="round" stroke-miterlimit="10" d="
					M853.5,216.8c1.4,0,2.5,0.6,2.5,2.1c0,1.6-0.9,2.5-2.5,2.6c-1.5,0.1-2.5-0.6-2.5-2.1C850.9,217.7,852,217,853.5,216.8z"/>
				
					<path fill="#222222" stroke="#FFFFFF" stroke-width="20" stroke-linecap="round" stroke-linejoin="round" stroke-miterlimit="10" d="
					M428.3,197c-1.3-0.1-2.2-0.9-2.2-2.2c0-1.5,0.9-2.3,2.4-2.3c1.4,0,2.2,0.9,2.2,2.2C430.8,196.1,429.9,196.9,428.3,197z"/>
				
					<path fill="#222222" stroke="#FFFFFF" stroke-width="20" stroke-linecap="round" stroke-linejoin="round" stroke-miterlimit="10" d="
					M614.4,199.6c-0.1,1.5-0.8,2.3-2.1,2.3c-1.5,0.1-2.4-0.7-2.4-2.3c0-1.4,0.8-2.2,2.1-2.3C613.5,197.4,614.3,198.2,614.4,199.6z"
					/>
				
					<path fill="#222222" stroke="#FFFFFF" stroke-width="20" stroke-linecap="round" stroke-linejoin="round" stroke-miterlimit="10" d="
					M791.5,226.6c-1.3,0.1-1.8-0.7-1.8-1.8c-0.1-1.5,0.7-2.4,2.3-2.4c1.4,0,2.2,0.8,2.3,2.2C794.3,226.5,792.7,226.2,791.5,226.6z"
					/>
				
					<path fill="#222222" stroke="#FFFFFF" stroke-width="20" stroke-linecap="round" stroke-linejoin="round" stroke-miterlimit="10" d="
					M674.8,120.8c4.8-4.7,9.7-9,14.6-13c10.8-8.9,21.4-18,33.7-25c1.5-0.8,3-1.8,4.7-2.1c1.4-0.2,2.6,0.2,3.1,1.6
					c0.5,1.3-0.1,2.4-1.3,3c-16.9,8.8-30.6,21.8-44.7,34.1C681.4,122.4,678.6,122,674.8,120.8z"/>
				
					<path fill="#222222" stroke="#FFFFFF" stroke-width="20" stroke-linecap="round" stroke-linejoin="round" stroke-miterlimit="10" d="
					M560.1,103.7c1.7-2.6,3.3-5,4.9-7.5c7.5-11.9,15-23.8,22.5-35.6c0.7-1.1,1.4-2.3,2.2-3.4c1.1-1.5,2.4-2.9,4.3-1.5
					c1.7,1.3,1,2.8,0,4.3c-2.2,3.5-4.3,6.9-6.4,10.4c-6.1,10.2-12.3,20.3-18.7,30.3C565.9,105.3,565.9,105.3,560.1,103.7z"/>
				
					<path fill="#222222" stroke="#FFFFFF" stroke-width="20" stroke-linecap="round" stroke-linejoin="round" stroke-miterlimit="10" d="
					M629.7,113.9c11.9-11,23.2-22.3,36.6-31.2c0.7-0.4,1.4-0.8,2.2-1.1c1.1-0.3,2.3-0.1,2.9,1c0.6,1.1,0.4,2.3-0.5,3.2
					c-0.3,0.3-0.6,0.5-0.9,0.7c-10.8,7-20,15.9-29.1,24.9C637.5,114.7,634.4,116,629.7,113.9z"/>
				
					<path fill="#222222" stroke="#FFFFFF" stroke-width="20" stroke-linecap="round" stroke-linejoin="round" stroke-miterlimit="10" d="
					M596.3,82.8c-0.1-0.9,0.4-1.5,1.2-2.3c2.5-2.2,5.3-3.8,8.1-5.5c8-5,15.9-10.1,24.3-14.5c1.5-0.8,3.1-1.5,4.8-2
					c1.5-0.5,3-0.3,3.6,1.4c0.5,1.7-0.4,2.6-1.9,3.4c-8.4,4.2-17.2,7.7-25.3,12.6c-4.2,2.6-8.3,5.5-12.5,8.2
					C597.1,85.2,596.2,85,596.3,82.8z"/>
				
					<path fill="#222222" stroke="#FFFFFF" stroke-width="20" stroke-linecap="round" stroke-linejoin="round" stroke-miterlimit="10" d="
					M604.9,110.7c-4.3-0.1-4.5-0.5-2.4-4.1c2.7-4.4,5.8-8.6,8.9-12.6c1.1-1.4,2.5-2.8,4.3-1.3c1.6,1.3,0.9,2.9-0.2,4.3
					c-3,4.1-6.1,8.1-8.6,12.6C606.5,110.6,605.9,111,604.9,110.7z"/>
				
					<path fill="#222222" stroke="#FFFFFF" stroke-width="20" stroke-linecap="round" stroke-linejoin="round" stroke-miterlimit="10" d="
					M718.8,126.9c2.6-2,5.2-4.1,8-6c1.3-0.9,2.8-1,3.9,0.5c1,1.4,0.5,2.7-0.6,3.9c-2,2-4.3,2.8-7.1,2.4c-1.2-0.2-2.5,0-3.7,0
					C719,127.4,718.9,127.1,718.8,126.9z"/>
				
					<path fill="#222222" stroke="#FFFFFF" stroke-width="20" stroke-linecap="round" stroke-linejoin="round" stroke-miterlimit="10" d="
					M136.7,150c-3.1,0.5-5.5-0.5-7.7-2.4c-2-1.7-2.4-3.6-0.8-5.7c1.4-2,3.1-3.8,4.8-5.5c1.7-1.7,7.2-1.6,9.8-0.1
					c2.5,1.5,4,4.6,3.4,7.4c-0.6,3.3-3.2,5.8-6.6,6.3C138.5,150.1,137.5,150,136.7,150z"/>
			</g>
		</g>
		<polygon fill="#FFFFFF" stroke="#FFFFFF" stroke-width="20" stroke-miterlimit="10" points="129.5,242 72.8,201.6 56.2,163.5 
			100.8,137.2 142.7,136.3 262.8,125.6 511.2,117.8 924.8,139.6 1002.8,227.6 726.2,256.8 329.8,268.6 		"/>
	</g>
	<g>
		<g>
			<path fill="#369EBB" d="M626.8,45.6c0,0.2,0,0.3,0,0.5c-3.7,1.5-7.3,1.5-11,0c0-0.2,0-0.3,0-0.5
				C619.5,45.6,623.2,45.6,626.8,45.6z"/>
			<path fill="#369EBB" d="M615.9,46c3.7,0,7.3,0,11,0c9.7,2.3,19.6,3.4,29.5,4.4c1.8,0.2,3.5,0.9,5.4,0.7c1.1-0.1,1.9,0.6,2.2,1.6
				c0.3,1,0.1,2-0.7,2.7c-1.7,1.6-3.5,2.9-5.5,4c-9.2,5.4-16.8,12.7-23.5,20.9c-1.9,2.3-1.7,3.3,1.2,4.2c5.1,1.5,10.2,1.4,15.2-0.8
				c0.4-0.2,0.8-0.5,1.2-0.6c7.6-2.5,14.1-6.8,20.8-11.3c9-6.1,19.5-8.2,30.4-3.8c6.1,2.5,12.2,2.6,18-1.2c2.5-1.6,5.3-1.7,8.1-0.4
				c4.1,1.9,8,4,10.8,7.6c2,2.5,4.9,2.7,7.7,2.9c4.4,0.2,7.1,2.4,9.2,6.1c4.6,8.3,5.1,8.4,14.2,5.9c1-0.3,1.9-0.5,2.9-0.2
				c1.2,0.3,1.9,1.1,2,2.3c0.2,1.6-0.6,2.7-2.1,3.2c-11,3.8-18,13.3-27.6,19.1c0.1,0.3,0.1,0.5,0.2,0.8c2.7-0.2,5.5-0.2,8.2-0.5
				c5.3-0.7,10.6-1,16-1.2c6.3-0.2,12.3-2.3,17.7-5.6c2.9-1.7,5.7-3.6,8.6-5.2c1.5-0.8,3.1-0.7,4,1c0.9,1.5,0.4,3-1,3.8
				c-7.1,4.6-12.9,10.9-19.9,15.6c-3.5,2.3-7.2,4.3-11.2,5.5c-3.7,1.1-7.1,2.8-10,5.3c-3.3,2.8-7.4,4-11.6,4.4
				c-5,0.4-10.2,0.6-15.2-0.3c-13.9-2.4-27.7-5.3-41.7-6.2c-18.4-1.2-36.5-5.3-54.8-7.1c-2.1-0.2-4.5-0.2-5.3-2.9
				c-0.2-0.7-1-0.6-1.7-0.7c-12.5-1.3-24.8-3.3-37.1-5.8c-12.9-2.6-26-3.9-39.2-4.7c-1-0.1-2-0.2-3-0.3c-5-0.6-9.7-0.1-14.1,2.7
				c-2.9,1.8-6.5,0.9-8.5-1.8c-1-1.4-0.9-3.2,0.6-3.7c2.8-1,3-3.4,2.7-5.4c-0.6-5,1.3-9,3.9-13c1.7-2.6,3-5.6,4.3-8.5
				c2.8-5.9,6.4-11.1,11.6-15.2c1.8-1.4,3.3-3.1,4.8-4.9c3.9-4.7,9.2-6.5,15-7.4c5.7-0.9,11.5-1.5,16.9-4c3.2-1.5,7.1-1.6,10.5-0.8
				c5.7,1.5,11.1,0.3,16.6-0.9C614.4,46.2,615.1,46.1,615.9,46z"/>
			<path fill="#369EBB" d="M626.3,307.6c0.6,1.4,1.1,2.4,1.4,3.5c1.2,4-1,7.1-5.2,7.3c-2.4,0.1-4.7-0.3-7-0.9
				c-1.2-0.3-2-0.1-2.7,0.9c-1.6,2.3-4.1,3.2-6.9,3.2c-5.5,0-10.9,0.1-16.3-0.7c-1.2-0.2-1.9-0.1-2.3,1.4c-0.5,2-2.3,2.7-4.3,2.6
				c-7.1-0.2-13.4-2.6-18.1-8.1c-1.3-1.6-2.8-2.5-4.7-2.9c-3.9-0.8-7.7-2.3-11.1-4.4c-0.5-0.3-0.9-0.6-1.5-0.7
				c-7.9-2-13.6-7.1-18.4-13.3c-1.8-2.3-3.9-4-6.7-4.9c-0.7-0.2-1.3-0.5-2-0.8c-8.7-3.2-10.9-8.6-10.9-18.6c0-4.2,4-6.5,7.5-8.3
				c2.6-1.4,5.6-2.2,8.5-3c4.6-1.3,9.3-2.5,13.9-3.7c1.8-0.5,3.6-0.9,5.1,0.6c0.5,0.5,1.2,0.3,1.8,0.4c9.7,0.4,19.4-0.9,29.1-1.3
				c14.1-0.6,28.2-1.7,42.2-0.3c12.7,1.2,25.4,2.5,38,1.6c7.7-0.6,15.4-0.7,23-0.3c9,0.5,18-0.1,26.9-1.1c0.6-0.1,1.5-0.1,1.8-0.5
				c2.1-2.5,4-1.2,5.9,0.2c5.1,3.9,10.1,7.7,15.1,11.6c7.6,5.8,15.8,10.2,25.4,11.9c2,0.4,3.9,1.5,3.8,3.9c-0.1,2.3-1.9,3.2-4,3.3
				c-6.5,0.5-13,1-19.6,1.5c-3,0.2-6,0.4-9,0.7c-1,0.1-2,0.2-2.8,0.9c-4.1,3.5-9.1,4.3-14.2,5c-1.5,0.2-3,0.5-4.5,0.8
				c-1,0.2-1.7,0.7-2.1,1.9c-1.6,4.9-3.4,6.3-8.6,6.6c-4.5,0.3-8.9,0.1-13.4,0c-1.1,0-2.2,0-3.3,0c1.3,5.1-0.2,7.2-5.4,7.5
				c-1.3,0.1-2.1,0.6-3,1.4c-4.5,3.4-9.7,4.5-15.2,3.5c-8-1.5-15.8-4-23.4-7.1C628.4,308.4,627.5,308,626.3,307.6z"/>
			<path fill="#369EBB" d="M463.1,47.9c3.1,0.1,6.2-0.1,9.4-0.6c3.6-0.6,5.2,0.7,6,4.3c0.4,1.9-0.3,4.4,1.3,5.6
				c2.3,1.8,5.2,2.5,8.1,2.9c4.6,0.7,5.6,2.2,4.3,6.7c-0.2,0.7-0.4,1.4-0.6,2.1c-1.2,3.8-1.2,3.9,2.5,5.1c2.9,1,3.6,3.7,1.3,5.6
				c-3.3,2.6-5,6.2-6.9,9.7c-0.8,1.6-0.4,2.3,1.2,2.8c1.1,0.3,2.3,0.7,3.3,1.3c2.5,1.3,2.9,3.9,0.8,5.8c-3.7,3.2-7.4,6.4-11.1,9.6
				c-2,1.7-4.5,1.9-6.9,2.2c-15.3,1.7-30.6,4.1-46,5.3c-10.7,0.9-21.4,1.6-32.1,2.3c-13,0.9-26.1,1.7-39.1,3.1
				c-0.6,0.1-1.3,0.1-1.9,0.1c-1.3-0.1-2.2-0.8-2.4-2.2c-0.1-1.2,0.5-2.4,1.6-2.5c3.6-0.4,4.8-3.5,6.8-5.7
				c9.2-10.1,16.9-21.6,26-31.8c4.1-4.6,8.5-9,13.4-12.8c4.7-3.7,9.8-6.1,16-5.7c6.1,0.4,11-2.2,16.1-5.3
				C442.9,50.6,452.3,46.9,463.1,47.9z"/>
			<path fill="#369EBB" d="M361.7,310.6c-6.3,0-10.5,0-14.8,0c-1.7,0-3.3-0.3-4.3-1.9c-0.5-0.9-1.4-0.7-2.1-0.9
				c-1.5-0.3-2.9-0.7-3.4-2.3c-0.5-1.5-1.9-1.2-3-1.3c-6.5-0.3-12.7-1.9-19-3.2c-9.8-2-18.5-6.4-26.9-11.6
				c-8.3-5.2-16.5-10.6-24.8-15.9c-0.7-0.4-1.4-0.9-2-1.5c-1-0.9-1.2-2.1-0.5-3.2c0.7-1.1,1.8-1.2,2.9-1c0.2,0,0.4,0,0.5,0.2
				c3.3,3.6,7.9,2.6,12,3.1c4.4,0.6,8.6,0.5,13,0.2c14.3-1.1,28.6-1.9,43-0.7c5,0.4,9.7,2.5,14.4,4c10.7,3.3,21.5,5,32.7,3.9
				c4.2-0.4,8.5-0.2,12.8-0.2c2.4,0,4.8,0.8,6.4,2.6c4.6,4.8,10.5,6.9,16.6,8.8c1.7,0.5,3.5,1.1,5.1,1.8c1.5,0.6,2.6,1.7,2.5,3.5
				c-0.1,1.8-1.1,2.9-2.7,3.4c-2.9,0.9-5.8,1.5-8.7,2.2c-7,1.8-13.6,4.6-20.7,5.8c-2.4,0.4-4.9,0.6-7.3,0.9c-2.9,0.4-6-0.2-8.4,2.2
				c-0.4,0.4-1.4,0.5-2.1,0.5C368.6,310.4,364.1,310.5,361.7,310.6z"/>
			<path fill="#369EBB" d="M762.6,268.7c-0.1,0-0.2,0-0.3,0c-7.5-3-16.2-2-23.2-6.8c-2.9-2-6.4-3.1-9.6-4.5c-1.8-0.8-3-2-2.1-4
				c0.8-1.8,2.5-1.8,4.2-1.2c10.1,3.7,20.1,7.3,30.2,11c0.8,0.3,1.7,0.7,2.4,1.2c1,0.7,1.3,1.8,0.9,2.9
				C764.8,268.4,763.8,268.8,762.6,268.7z"/>
		</g>
		<g>
			<path fill="#222222" d="M398.7,299.9c-3.1-1.7-6.2-3.4-9.3-5c-1.5-0.8-2.8-1.7-2.1-3.5c0.8-2,2.5-2,4.1-1.2
				c5.9,3.1,11.7,6.2,17.5,9.4c1.2,0.7,1.9,1.8,1.5,3.2c-0.4,1.4-1.5,2-2.9,1.8c-0.5,0-1.1-0.4-1.5,0.2c-1.4,2.6-4.2,2.7-6.5,3.6
				c-19.3,7.4-39.4,8.4-59.6,5.6c-9.3-1.3-18.5-3.9-27.2-7.8c-1.8-0.8-3.7-1.5-5.8-1.3c-1.8,0.2-3.6-0.5-5.3-1.1
				c-17.8-6.7-34.3-15.3-47.2-29.8c-0.9-1-1.8-1.2-3-1.4c-5.4-0.4-10.9-0.9-16.3-1.6c-4.8-0.6-8.4-3.5-11.2-7.2
				c-4.2-5.5-10-7.3-16.4-7.6c-3.5-0.1-7.1,0.2-10.6,0.5c-9.4,0.8-18.4-1.4-27.3-3.9c-6.6-1.9-13.2-1.8-19.9-0.2
				c-7.1,1.7-14,0.6-20.1-3.4c-5-3.2-10.1-5.2-16.1-4.5c-3,0.3-5.2-1.1-6.1-3.9c-1.1-3.4-3.4-5.5-6.3-7.2
				c-7.9-4.7-15.5-9.9-22.6-15.7c-8.8-7.2-14.8-16.2-16.9-27.5c-0.1-0.6-0.3-1.3-0.2-1.9c0.2-2-0.5-3.3-2.4-4.3
				c-2.4-1.2-3.3-3.4-3.3-6.1c0.2-4.4,1.1-8.6,2.9-12.7c2.1-4.8,5.5-8.3,10.4-10.2c3-1.2,6-2.2,9-3.2c4.5-1.5,8.5-3.8,11.5-7.5
				c1.7-2,3.7-3.1,6.4-3c2.7,0,5.1-0.8,7.4-2.4c5-3.4,10.4-6.3,16.2-8.3c0.4-0.1,0.9-0.3,1.3-0.3c6.2,0.3,12.1-2.3,18.3-2.5
				c1.5-0.1,3.1,0,4.6,0.2c10.9,2,21.8,2.4,32.8,1.4c9.3-0.8,18.7-1.1,28-1.8c2.7-0.2,5.4-0.6,8.1-1.1c5.4-1,10.8-0.9,16.3-0.1
				c9.7,1.5,19.4,0,29.1-0.7c7.7-0.6,15.4-1,23.1,0c5.4,0.7,10.9,0.2,16.3-0.5c9.2-1.2,18.4-2.1,27.7-1.9c7.6,0.1,15-1.5,22.5-1.8
				c0.9,0,1.4-0.6,2-1.2c9.2-7.9,15.5-18.2,22.5-27.9c4.8-6.7,9.4-13.6,15.2-19.5c6.5-6.6,14.5-10.1,23.5-11.9
				c1.9-0.4,3.6-0.2,4.1,2c0.4,2.2-1.2,3.2-3,3.5c-10.3,1.9-18.6,7-25,15.3c-2,2.7-4.2,5.3-6.1,8c-7.1,10.2-14.4,20.3-22.6,29.7
				c-0.2,0.2-0.2,0.4-0.5,1c5.3-0.3,10.3-0.4,15.3-0.8c13.2-1,26.5-1.2,39.7-3.2c19.8-3,39.8-3.6,59.7-5.8c1.3-0.1,2.4-0.3,2.9-1.8
				c0.4-1.3,1.8-1.7,3-2.1c5.1-1.7,8.5-5.7,12.5-9c-0.4-0.3-0.6-0.5-0.8-0.6c-6.1-2.4-7.2-7.2-2.7-12c1.8-1.9,4-3.3,6.4-5.2
				c-5.7-2-8.9-5.5-8.3-11.6c-1.2-0.4-1.9,0.5-2.7,1c-7.3,4.3-14.5,8.6-21.8,13c-0.9,0.5-1.6,1.1-2.7,1.2c-1.2,0.1-2.2-0.2-2.8-1.3
				c-0.5-1-0.5-2.2,0.3-3.1c0.7-0.7,1.5-1.3,2.3-1.8c7.8-5,15.8-9.7,24.3-14.4c-1.5-0.3-2.5-0.5-3.4-0.8c-3.6-1.1-5.4-3.9-5.1-7.6
				c0.3-3.3,0.1-3.6-3.3-3.6c-1.9,0-3.6,0.6-5.3,1.2c-6.9,2.6-14.4,2.8-21.4,5.3c-13.5,4.9-23,14.2-29.4,26.9
				c-2.8,5.5-5.2,11.2-8.2,16.6c-1.6,2.9-3.4,5.6-5.8,7.9c-1.3,1.2-2.8,2.1-4.3,0.7c-1.6-1.5-0.7-2.9,0.5-4.2
				c5-5.3,7.8-12,10.6-18.6c3.8-8.8,8.8-16.6,15.9-23.2c7.8-7.2,16.8-11.7,27.1-13.6c9.5-1.8,19-4.1,28.7-5c9.3-0.9,18.6-1.9,28-0.8
				c0.9,0.1,1.8,0.3,2.6,0.6c1.1,0.5,1.6,1.4,1.5,2.6c-0.1,1.2-0.7,2.1-2,2.3c-1,0.2-2,0.2-3,0.1c-8.2-0.8-16.3-0.1-24.5,0.5
				c-3.4,0.2-2.3,2.9-2.8,4.5c-0.5,1.7,1.1,2.5,2.7,2.7c3.7,0.5,7.4-0.3,11.1-0.4c1.7-0.1,3.4-0.4,4.3,1.5c0.9,2-0.7,3-1.9,4.2
				c-1.8,1.8-3.3,3.8-4.1,6.3c-0.7,2.3,0.3,4.1,2.8,5.2c2.5,1.1,5.1,1.1,7.7,1.5c1.6,0.2,3.2,0.3,3.6,2.2c0.4,2.1-1,3.1-2.7,3.9
				c-3.8,1.6-7.1,4-10.2,6.8c-0.8,0.7-2,1.5-1.5,2.6c0.5,1,1.9,0.9,2.9,1c1.1,0.1,2.2,0,3.3,0.1c1.8,0.1,3.8,0,4.5,2.3
				c0.6,2-0.7,3.3-2.2,4.3c-4.7,3.3-8.8,7.3-13.2,10.9c0.2,0.7,0.7,0.5,1.1,0.5c5.5-0.3,10.9,0.2,16.2,1.8c2,0.6,3.6-0.1,5.2-0.9
				c3.7-1.9,7.7-2.7,11.8-2.9c1.7-0.1,2.3-0.8,2.7-2.3c2.8-9.1,5.4-18.3,8.7-27.2c5.9-15.7,17.5-25,34-28C570.9,50.3,576,49,581,47
				c7.3-3,14.7-4.5,22.6-2c2.3,0.7,4.9,0.8,7.3,0.1c8.4-2.5,16.7-1.9,25,0.2c8.8,2.2,17.9,2,26.7,3.7c3.8,0.7,7.3,2.2,10.8,3.6
				c1.4,0.5,2.2,1.6,1.9,3.2c-0.3,1.6-1.5,2.3-2.9,2.4c-2.4,0.2-4.7,0.1-7.1,0.1c-2,0-3.8,0.6-5.2,2.1c-7,7.2-15,13.2-22.7,19.5
				c-1.6,1.3-3.1,2.5-4.3,4.2c-0.4,0.6-1.3,1.3-0.8,2.1c0.4,0.7,1.3,0.4,2,0.4c9.8-0.5,19.1-2.6,26.5-9.6c1.6-1.6,3.5-2.9,5.1-4.5
				c5.6-5.4,12.4-8,20.1-8.7c4-0.4,7.8,0.9,11.5,1.9c8,2.2,15.7,2.1,23.5-0.8c6.1-2.3,11.2,0.1,15.3,4.3c3.5,3.6,7.8,4.7,12.5,5.3
				c6,0.8,7.4,1.9,8.7,7.8c0.6,2.8,1.9,4.3,4.9,4.6c4.8,0.5,9.6-0.1,14.4-0.6c2.8-0.3,5.6-0.8,8.4-0.3c1.5,0.2,2.9,0.7,3.3,2.4
				c0.5,1.8-0.3,3.3-1.9,4.1c-2.3,1.1-4.6,2.1-7,3c-9,3.3-16.4,8.8-23.7,15.5c5,0.8,9.6,0.6,14.2-0.6c1.3-0.4,2.6-0.7,3.9-1.3
				c9.2-4.4,18.9-7,28.9-8.6c2-0.3,4.4-1.3,5.6,1.3c1.1,2.5-0.7,4.2-2.6,5.4c-7.4,4.4-13.6,10.2-19.4,16.6
				c-6.1,6.7-14.5,9.8-22.9,12.6c-3.9,1.3-7.9,2.6-12.3,4.1c1.8,1,3.2,1.2,4.6,1.1c10.5-0.2,21,1.2,31.6,0.2c8.9-0.9,17.8-1,26.6-2
				c4.7-0.5,9.5-0.5,14.2-0.1c9.7,0.9,19.2,0.2,28.8-0.8c5.5-0.6,11.1-0.7,16.6-0.4c6.8,0.4,13.6,0.2,20.3-1
				c6.9-1.3,13.8-0.3,20.6,0.6c8.6,1,17-0.2,25.5-1.4c13.7-2,27.5-3.9,41.3-5.4c10.1-1,20.1,0,30.1,1.8c0.7,0.1,1.4,0.3,2.1,0.7
				c0.9,0.5,1.7,1.3,1.5,2.4c-0.2,1.4-1.4,0.8-2.2,0.8c-8.3,0.3-16.5,0.2-24.8-0.3c-4.1-0.3-8.2,0.1-12.2,0.7
				c-1.2,0.1-2.4,0.4-3.5,0.3c-8.5-1.3-16.5,1-24.7,2.8c-12.1,2.7-24.2,5.1-36.7,3.1c-7.3-1.1-14.5-0.8-21.7,0.5
				c-4.8,0.9-9.6,0.7-14.4,0.2c-1.6-0.2-3.3,0-5.1,0c1.6,2.8,0.5,4.8-2.4,6.5c1.9,0.6,2.7,2,3.8,3.1c2,2,2,4.2,0.8,6.5
				c-1.4,2.5-3.1,4.8-3.7,7.7c-0.3,1.4-0.1,1.9,0.9,2.5c1,0.6,2,1.2,3,1.8c3.8,2.4,4.9,4.9,3.1,9c-1.5,3.4-2.2,6.2,1,8.9
				c0.4,0.4,0.6,1.1,0.8,1.7c1.3,3.6,0.5,5.4-3.2,6.4c-1,0.3-2.1,0.5-3.2,0.7c-0.2-1.3,0.6-2.1,0.8-3c0.2-0.9,0.7-1.7-0.2-2.8
				c-1.5,2.2-3.5,3.8-5.6,5.3c-0.4,0.3-0.9,0.8-1.4,0.9c-2,0.3-4.5,0.3-5.6-1.3c-0.7-1,1.5-2.4,2.6-3.4c0.7-0.7,1.5-1.3,2.5-2.1
				c-2.6-1.9-6.4-2.4-7.2-6.1c-0.8-4.2,3-5.4,5.4-7.6c-2.9-1.3-6.5-1.4-7.7-4.6c-1.5-4,2.3-5,4.6-6.9c-8.7-3.5-9.6-5.4-5-10.1
				c-2-0.3-4-0.5-5.9-0.8c-1-0.1-2-0.4-2.8-1c-1.1-0.8-1.5-1.9-0.9-3.1c0.5-1.3,1.7-1.7,2.9-1.3c1.3,0.4,2.1,0.4,2.5-1.3
				c0.6-1.8,2.6-1.7,3.8-2.2c-10.9-3-22.3-1.8-33.6-2.5c-3.3-0.2-6.6,0.4-10,0.8c1.5,1,3.9,1.3,3.6,3.4c-0.4,2.8-0.7,5.7-1.6,8.2
				c-0.7,2-1.8,3.7-1.6,6.1c0.1,2.1-2.7,3-3,4.6c-0.3,1.5,2.8,2.9,1.8,4.9c-1.7,3.6-2.4,7.3-3.1,11.2c-0.2,1.5-1,2.6-0.2,4.2
				c0.7,1.3,0.5,3-0.3,4.2c-1.3,2.1-1.6,4.8-3.6,6.6c-1.2,1.1,0.1,1.5,0.7,2c3.8,2.8,3.8,3.4-0.5,5.5c-2.5,1.2-8,0.1-9.8-2.1
				c-1.3-1.6-1.3-3.4,0-5c0.6-0.8,1.5-1.3,2.2-2c1.3-1.3,2.5-2.4,0.3-4.3c-1.8-1.6-1.8-3.8-0.3-5.9c0.1-0.1,0.2-0.3,0.4-0.4
				c1.9-1.7-0.9-3.7,0.4-5.6c0.9-1.4,1.9-2.6,0.4-4.9c-2.2-3.4-0.2-7.8-1.3-11.7c-0.2-0.7,1.1-1.8,1.8-2.8c-0.9-0.3-1.8-0.6-2.7-1
				c-1.7-0.8-2.8-2.4-1.8-4c1.2-1.9,1.4-4.2,3.1-6.1c-2.2-0.3-4.5-0.4-4.6-3.4c0-0.7-1.1-0.5-1.7-0.4c-10.3,1.3-20.5-0.1-30.8-0.1
				c-1.8,0-3.5,0.8-5.8,0.2c1.4,2,0.9,3.6-0.4,5.1c1.7,0.7,3.2,0.5,4.7,0.7c1.8,0.3,3.4,1,3.7,3.1c0.2,2-1.1,3-2.8,3.5
				c-3.5,1-5.7,4.9-10,4.8c1.4,0.8,2.8,1.5,4.1,2.4c4.2,2.8,4.3,6.7,0.2,9.7c-1.7,1.3-3.9,1.8-6.3,2.8c2.2,0.7,3.9,1,5.4,1.6
				c3.5,1.4,4.1,5.1,1.4,7.7c-2.2,2.1-5.1,2.6-8,3.9c1.3,0.4,2.3,0.7,3.3,1.1c3.2,1.3,4.7,3.5,4.6,6.9c-0.1,2.9-2.1,4.5-5.5,4
				c-3.1-0.4-6.2-1.1-10.1-1.8c2-0.8,3.4-1.4,4.8-2c-3.7-0.9-6.3-3.7-9.6-5.2c-1.6-0.7-3.3-1.5-3.1-3.7c0.2-2.1,1.8-2.8,3.6-3.2
				c3.6-1,7.4-0.7,10.9-2.8c-0.9-1.1-2.1-1.1-3.2-1.3c-3-0.7-5.9-1.9-8.7-3.2c-1.5-0.7-2.5-1.9-2.2-3.7c0.4-1.7,1.7-2.2,3.2-2.4
				c2.9-0.4,5.9-0.5,9-1.8c-3.5-1.6-7.4-2.3-9.1-6c-1.2-2.5,0.2-8.2,2.1-9.8c-1.8-1-1.8-1-5.6-0.9c-1.3,0-2.6,0.2-3.4-1.1
				c-0.8-1.3,0.2-2.3,0.6-3.5c0.9-2.6,2.2-4.3,5.4-4.1c-2.3-1.4-4.7-2.3-4.8-5.3c0-0.8-0.9-0.7-1.5-0.9c-8-2-16.2-2.9-24.4-3.7
				c-3.1-0.3-6.1-0.9-9.2-1.4c-0.9-0.1-1.8-0.2-2.8-0.3c0.1,1.8-0.1,3.4,0.5,5c0.3,0.8,0.3,1.9-0.4,2.3c-2.1,1.5-1.8,3.5-1.8,5.6
				c0,2.3-1.9,3.6-3.7,4.7c-0.9,0.6-1.2,0.9-0.5,2c2.3,3.3,1.3,8.9-1.8,11.6c-2.1,1.8-4.6,2.6-7,3.5c-0.9,0.4-1.8,0.7-3,1.1
				c1.6,1.2,3.1,1.7,4.6,2.3c1.6,0.6,3.3,1.1,4.8,2c3.1,1.8,3.4,5.4,0.7,7.7c-3.8,3.2-8.6,3.6-13.2,4.4c-1,0.2-1.8-0.7-2.6-1.3
				c-1.1-0.9-1-1.6,0.2-2.2c1.6-0.8,3.3-1.6,4.8-2.5c0.9-0.5,1.9-1.2,1.8-2.2c-0.1-1.2-1.3-1.3-2.2-1.6c-1.6-0.6-3.3-1.1-4.9-1.7
				c-2.3-1-3.8-2.5-3.9-5.3c0-2.8,1.3-4.4,3.7-5.5c2.5-1,4.9-2.1,7.9-3.3c-2.4-0.6-4.4-1-6.2-1.6c-1.5-0.5-2.8-1.4-3-3.2
				c-0.2-1.8,0.8-2.9,2.2-3.7c0.5-0.3,1.5-0.2,1-1.4c-1.9-4.3-1.8-4.3,1.3-7.1c-2.5-1.4-5.1-1.5-7.8-1.3c-1.8,0.2-3.5-0.2-3.5-2.4
				c0-2.1,1.5-2.7,3.3-2.7c1,0,2,0.3,3.2-0.5c-1.9,0-3.5-0.2-4-2.1c-0.5-1.8,0.7-2.8,2-4.1c-15.6-0.4-30.5-4.7-45.7-7.4
				c-0.1,0.2-0.1,0.5-0.2,0.7c2.2,1,4.4,1.8,6.5,2.9c3.2,1.7,3.7,3,2.5,6.4c-0.4,1.2,0.2,1.4,0.9,1.9c3.7,2.7,3.8,5.8,0.5,9
				c-2.4,2.3-5.5,3.5-8.4,4.8c0,0.7,0.5,0.8,0.9,1c4.7,2.8,4.9,6.7,0.3,9.8c-1.9,1.3-4,2.3-6.1,3.5c5.8,4.2,5.7,10.2-0.1,14.7
				c-0.9,0.7-1.4,1.2-0.6,2.4c0.9,1.3,0.8,2.9-0.1,4.1c-0.9,1.1-2.2,0.4-3.3,0.2c-2.7-0.5-5.2-1.6-7.4-3.3c-2.2-1.6-2.5-3.9-0.7-6
				c1.1-1.3,2.5-2.4,4.1-3.2c1.7-0.9,2.7-1.7,0.5-3.3c-1.2-0.9-2.1-2.2-3.2-3.4c-1.7-2-1.5-4.6,0.7-6.5c1.7-1.5,3.7-2.3,5.7-3.2
				c1.2-0.5,2.5-1,3.9-1.6c-2.1-1-4-1.8-5.8-2.9c-3.7-2.2-3.5-6,0.4-7.8c2.5-1.1,5.1-1.8,7.7-2.7c1-0.4,2.1-0.4,3-1.5
				c-3.2-1.9-6.6-2.4-10.1-3c-0.6-0.1-1.3-0.1-1.9-0.3c-1.5-0.4-2.7-1.3-2.6-3.1c0.1-1.8,1.4-2.5,2.9-2.7c2.5-0.2,5.1,0,7.6,0.6
				c1.3,0.3,2.6,0.4,4.8,0c-3.8-1.8-7-2.8-10.3-3.4c-1.5-0.3-3-0.4-3.5-2.1c-0.6-1.7,0.6-2.6,2.2-3.7c-6.9-1.5-13.4-2-19.8-3
				c-4.9-0.7-9.9-1.1-14.9-1.6c-3.2-0.3-3.5,0-3,3.1c0.4,2.6-1.1,4-3.2,4.7c-2.3,0.8-4.7,1.3-7.1,1.9c-1.2,0.3-2.4,0.5-4.4,1
				c1.9,0.8,3,1.2,4.1,1.8c2.9,1.4,3.4,3.5,2,6.2c-1.9,3.7-4.9,6.1-8.4,8.1c0.4,1,1.2,1,1.8,1.1c4.9,0.9,6.4,4.5,7.1,8.7
				c0.3,2.1-1.7,3.5-1.9,5.1c-0.1,1.2,2.9,1.9,3.1,4c0.2,2.4-0.6,4.3-2.3,5.9c-1.2,1.1-1.9,1.9-0.5,3.4c1,1.1,1.1,2.6,0.7,4.1
				c-0.4,1.1-0.5,2.2-0.4,3.4c0.3,4.1-1.9,5.6-5.7,4.3c-2.4-0.8-4.9-1.6-7.5-2.5c0.9-1.4,2.6-1.5,3.6-2.7c-0.2-1-1.3-1-1.9-1.6
				c-1.3-1.2-2.3-2.7-1.5-4.3c1.1-2-0.1-2.5-1.4-3.2c-1.4-0.8-2.8-1.7-3.6-3.2c-1.2-2.1-0.9-4.9,1.3-6c3.4-1.7,4.7-5.5,8.4-7.3
				c-2.1-0.9-3.7-1.6-5.3-2.3c-1.9-0.8-3.8-1.8-5.2-3.4c-2.8-3-2.4-6.2,0.9-8.6c2.3-1.6,4.9-2.4,7.4-3.5c1.1-0.4,2.2-0.8,3.5-1.4
				c-1.9-1.3-3.9-1.6-5.7-2.3c-2-0.8-4.1-1.6-4.1-4.1c0-2.6,2.1-3.3,4.2-4c1.9-0.6,3.7-1.3,5.7-2.6c-3.1,0-5.9-0.1-8.6,0
				c-1.5,0.1-2-0.1-1.8-1.9c0.2-2.1,0.2-3.9,3-4.3c-2.3-0.9-4.6-1-6.7-0.6c-8.1,1.3-16.2,1.5-24.3,2.7c-4,0.6-8.1,0.3-11.9,2.4
				c-2.6,1.4-4.8,3-5.5,5.9c-0.3,1.2-1.2,1.5-2.2,2.1c2.4,2.3,1.5,3.7-0.5,6.1c-2.2,2.6-3.9,5.5-7,7.2c-0.4,0.2-0.7,0.6-1.1,0.7
				c-2,0.5-2.3,1.3-1.2,3.1c1.3,2.1,0.1,4.1-1.4,5.7c-1.3,1.3-1.7,2.9-2.4,4.5c-0.5,1.2-0.3,2.5,0.3,3.7c1.5,3,1.5,3-2,3.8
				c-0.3,0.1-0.7,0.1-1.3,0.3c2.3,2.1,2.3,4.4,1.8,7.1c-0.4,2.1-0.3,4.3,0.8,6.4c0.2,0.4,0.5,0.9,0.4,1.3c-0.5,3.3,1.1,5.7,3.2,8
				c0.9,1,0.8,1.5-0.5,2.2c-3.3,1.7-7.7,1.8-9.2-1.2c-1.1-2.1-3.4-2.9-4-5.2c-0.6-2.1-1.7-4.1-2.5-6.2c-0.7-2-3.4-3.5-5.7-4.6
				c-1.5-0.7-3.2-1.3-4.8-2c-1.7-0.8-3.4-1.4-2.2-4.1c0.6-1.3-0.4-2.8-1.6-3.8c-1.7-1.5-3.6-2.4-5.7-3c-3.7-1.1-6.8-2.9-8.5-6.6
				c-0.6-1.4-1.9-1.8-3.3-2.2c-1.4-0.4-2.7-1-3.2-2.5c0.4-0.6,1-0.6,1.5-0.6c1.7-0.2,3-1,3.1-2.9c0.1-1.9-1.3-2.7-2.9-3.2
				c-1-0.3-2.1-0.6-3.2-0.9c-1.5-0.4-2.9-0.7-3.3-2.7c-0.2-1.2-1.6-1.9-2.9-2.3c-6.4-2.3-13-3.9-19.8-5.1c-2.1-0.4-3.8,0.1-4.4,2.5
				c-0.2,1-0.9,1.5-1.8,1.9c-10.7,5-20.9,10.8-29.7,19c-3.9,3.6-8.6,6-13.2,8.6c-8.7,4.9-16.1,11.3-20.9,20.2
				c-5,9.3-13.9,12.2-23.2,14.7c-3.8,1-7.5,0.8-11.2-0.8c-3.6-1.6-7.3-2.7-10.6-5.3c-3.5-2.8-7.8-3.3-12.4-1.8
				c-4.7,1.6-9.6,2.8-14.4,3.9c-3.2,0.8-6.3,0-9.5-0.6c-4.2-0.7-8.3-0.5-12.4,0.9c-1.7,0.6-3.1,0.5-4.7-0.3
				c-6.9-3.8-14.1-4.2-21.2-0.8c-5,2.4-9.9,2.2-15.3,1.7c-10.6-1-21.3-2.1-32-2.4c-3.2-0.1-6.4-0.5-9.4-2.2
				c-2.6-1.5-5.6-1.1-8.5-0.1c-4.1,1.5-8,3.5-11.9,5.4c-2.3,1.1-4.6,1.7-7.1,1.3c-3.8-0.6-7.8-0.6-11.4-2.3
				c-2.5-1.2-4.8-0.3-6.6,1.6c-1,1.1-2.1,1.2-3.4,1c-4.4-0.8-8.1-3-10.9-6.3c-3.8-4.3-8.9-5.4-14.1-6.4c-1.6-0.3-3.5,0.7-5.3,0.9
				c-3.7,0.4-7.4,0.8-11.2,0.5c-2.1-0.2-2.4,0.6-2,2.5c2,10.2,7.4,18.3,15.4,24.7c6.5,5.1,13.2,9.9,20.3,14.2
				c4.2,2.5,8.5,5.1,10,10.3c0.4,1.2,1.4,1.3,2.4,1.2c6.4-0.8,11.9,1.4,17.2,4.8c5.2,3.5,11.1,4.5,17.2,2.9
				c8.9-2.2,17.7-1.3,26.3,1.4c7.8,2.5,15.8,3.4,23.9,2.4c2.2-0.3,4.4-0.3,6.5,1c1.7,1.1,3.9,1.4,5.9,2.1c1.9,0.7,4.1,1,5.5,2.2
				c4.6,3.9,10.4,5.3,15.6,8c4.3,2.2,9.2,1.7,13.9,2.3c6.9,0.9,13.8,0.1,20.7,1.2c5.5,0.9,10.9,2.1,16.4,2.3
				c4.6,0.2,9.1-0.2,13.4-1.6c7.3-2.5,14.7-2.4,22.3-0.8c14,2.9,28.3,4.3,42.3,7.8c6.8,1.7,13.7,1.7,20.6,0.8
				c8.9-1.1,17.9-1.3,26.9-2c9.8-0.8,19.6,0,29.3,1.5c6.5,1,13,0.6,19.6,0.2c15.5-0.9,30.3-4.6,44.4-11c7.6-3.4,15.7-5.6,24-7.1
				c11.7-2.2,23.3-3.3,35.2-1.8c10.6,1.4,21.2,0.1,31.8-0.8c14-1.3,28-0.1,42-0.1c10.7,0,21.4,0.4,32.2,0.8c12,0.5,24-0.5,35.9-2.1
				c2.4-0.3,4.9-0.5,7.3-0.4c8.6,0.3,17-0.5,25.5-1.9c9.6-1.6,19.3-1.9,29-2.9c7.7-0.8,15.3-1.8,23-2.8c8.6-1.2,17.2-0.6,25.9-0.3
				c6.4,0.2,12.7,0.4,19.1,0.6c1.4,0,2.7-0.1,3.9-1c0.7-0.5,1.7-0.7,2.6-0.7c8.7-0.2,17.3-2.3,25.9-3.1c2.7-0.3,5.3-0.1,7.9,0.2
				c9.1,1.1,18.2,1.1,27.2,0.3c6.7-0.7,13.5-0.5,20.2-1.4c7.2-1,14.4-1.5,21.7-2.2c4.3-0.4,8.5-0.8,12.8-0.8
				c23.1-0.2,46.2-0.4,69.3-0.6c0.6,0,1.3,0,1.9,0c0.5,0,1.2,0,1.3,0.7c0.1,0.6-0.2,1-0.5,1.5c-0.8,0.9-1.8,1.2-2.9,1.5
				c-16.4,4.5-32.8,8.7-50.1,7.8c-7.5-0.4-15.1,0.3-22.6,0.9c-9.6,0.7-19.3,0-28.8-1.6c-2-0.3-3.9-0.4-5.9,0
				c-3.7,0.8-7.4,1-11.1,0.8c-12.5-0.7-25.1,0.1-37.6-0.5c-4.3-0.2-8.9-0.1-13,0.9c-15,3.8-30.1,3-45.2,2.2
				c-13.4-0.7-26.5,1.4-39.6,2.9c-6.9,0.8-13.9,1.4-20.9,2c-1.2,0.1-2.5-0.1-4,0.7c6.6,2.9,13.2,5,20.2,5.7c2.6,0.3,5.2,0.7,7.8,1.2
				c1.6,0.3,2.9,1.3,2.8,3.2c-0.1,1.7-1.3,2.6-2.8,2.8c-15.2,2.8-30.2,3.3-44.4-4c-2.6-1.3-5.3-2.4-6.6-5.7c-0.6-1.6-3.2-0.3-5.6-1
				c2.1,2.8,4.3,4.5,6.3,6.3c10.3,9.6,22.5,14.4,36.7,14c1.5,0,3.1,0.3,4.6,0.5c1.5,0.2,2.7,1,3.2,2.6c0.4,1.7-0.3,3-1.6,4
				c-1.8,1.5-4,2.1-6.3,2.5c-11,2.3-22.1,4.7-33.5,3.5c-2.3-0.2-4.1,0.2-5.8,2.3c-2.5,3-6.5,3.4-10.3,3.5c-2.6,0.1-5.3-0.1-7.9-0.2
				c-1.7,0-2.5,0.7-2.6,2.6c-0.2,5.6-2.7,7.5-8.4,6.7c-4.9-0.7-9.9-1.4-14.8-2.2c-1.7-0.3-2,0.2-1.3,1.7c0.3,0.6,0.6,1.3,0.7,2
				c0.7,3.2-0.8,5.1-4.1,5.2c-2.9,0.1-5.8-0.7-8.6-1.3c-5.8-1.2-11.4-2.9-16.9-5.2c-1.8-0.7-3.2-1.8-2.4-3.8c0.8-2.1,2.7-1.7,4.4-1
				c6.7,2.8,13.7,4.5,20.9,5.6c0.5-0.9-0.1-1.5-0.3-2.2c-1.4-4.5,0.5-7.1,5.3-7c5,0.1,9.9,1.1,14.9,1.9c0.4,0.1,0.7,0.2,1.1,0.2
				c3.5,0.5,3.5,0.5,3.9-3c0.3-2.8,2-4.8,4.9-5.6c2.5-0.7,5-0.6,7.6-0.4c2.3,0.2,4.5,0.2,6.8-0.3c1.5-0.3,3-0.7,3.4-2.6
				c0.2-1,1.1-1.6,2.2-1.7c3.7-0.3,7.3-1.3,11.1-1c6.3,0.5,12.5,0.1,18.7-1.6c0.6-0.2,1.3-0.1,1.7-0.9
				c-16.9-1.6-28.8-11.7-39.6-23.4c-1.5-1.6-2.9-1.8-4.7-1.6c-7.1,0.8-14.2,1.9-21.4,2.2c-4.6,0.2-9.3,0.7-13.9-0.3
				c-4.1-0.9-8.1,0.5-12.1,0.3c-18.2-1.1-36.5-0.9-54.8-1c-8.2-0.1-16.3,0.6-24.5,1c-7.1,0.3-14.2-0.6-21.2-1.1
				c-8.8-0.6-17.4-0.2-25.9,2c-6.4,1.7-12.9,2.8-19.3,4.7c-3,0.9-4.2,2.9-4.3,5.4c-0.4,8.7,2,13.6,9.5,16c5.6,1.8,9.7,5.6,13.2,10.2
				c3,4,6.2,7.8,10.8,10.1c3.9,2,7.8,3.5,12.2,3.4c2.7,0,5.1,0.9,7.5,2.2c4,2.3,7.9,4.8,12.2,6.7c1.3,0.6,2.3,1,2.1-1.3
				c-0.2-2.8,1.6-4.5,4.8-4.1c4.5,0.6,8.9,1.6,13.4,2.4c1.9,0.3,3.8,0.6,5.6,0.9c1.1,0.2,2.2,0.1,2.8-1.3c-2.6-0.9-5-2-7.7-2.2
				c-1.7-0.2-2.7-1-2.6-2.8c0.1-1.9,1.4-2.7,3.2-2.6c1.2,0.1,2.5,0.5,3.7,0.9c6,1.9,12.1,2.9,18.9,3.2c-1.8-2.2-3.4-4-4.9-5.9
				c-1.2-1.5-2.1-3.1-0.9-5c1.2-1.8,3-1.8,4.9-1.5c3,0.6,5.7,1.9,8.4,3.2c9.5,4.6,19.4,7.8,30,8.5c1.1,0.1,2.2,0,3.3,0
				c1.5-0.1,2.7,0.4,3.1,2c0.4,1.7-0.4,2.8-1.9,3.5c-1.4,0.6-2.8,0.5-4.3,0.4c-10.8-0.9-21.1-3.6-30.9-8.4c-0.6-0.3-1.2-0.8-2.2-0.5
				c0.6,0.9,1.2,1.8,1.8,2.7c1.8,3.2,0.4,6.1-3.2,6.5c-4,0.4-8-0.3-11.9-0.9c-0.9-0.1-1.7-0.5-2.7-0.2c0.7,4.6-1.7,7-6.5,6.2
				c-5.4-0.9-10.7-1.9-16-2.8c-0.4,0.4-0.2,0.7,0,1c0.8,1.3,1.2,2.7,0.2,4.1c-1.1,1.5-2.7,1.8-4.4,1.5c-3.7-0.5-7.3-1.7-10.6-3.5
				c-3.4-1.8-6.8-3.8-10.2-5.7c-1.7-1-3.4-1.5-5.4-1.6c-9.3-0.4-16.9-4.4-23.1-11.2c-1.8-1.9-3.4-4.1-5-6.1c-2.4-3.1-5.4-5.3-9-6.8
				c-9.9-4-13.6-9.8-13.1-20.5c0.1-1.9,0-2.7-2.2-1.7c-13.1,5.9-26.8,8.7-41.1,9.9c-11,0.9-21.7-0.1-32.6-1.4
				c-8.7-1.1-17.3-0.3-26.4,0.4c1.9,1.9,4,2.9,5.9,4c3.7,2.2,7.4,4.3,10.7,7c0.9,0.7,1.7,1.4,2.2,2.4c0.6,1.5,0.6,2.9-0.9,3.8
				c-1.5,1-3,0.8-4-0.8c-0.6-0.8-1.2-1.6-2-2.2c-1-0.8-1.7-1.3-2.8,0.1c-0.8,1.2-2.3,0.8-3.5,0.3c-2.4-1-4.9-1.9-7.3-2.9
				c-1.5-0.6-3-1.2-2.7-3.2c0.2-2.1,1.9-2.2,3.7-2.2c-2.1-2.4-5.4-3-7.1-5.8c-0.2-0.3-1.2-0.3-1.8-0.2c-13.1,2-26.1,1.9-38.9-1.7
				c-0.3-0.1-0.7,0-1.5,0c1,0.5,1.6,0.7,2.1,1.1c1.1,0.7,1.7,1.7,1.3,3c-0.4,1.3-1.5,2-2.8,1.7c-3.6-0.7-7.1-1.7-10.4-3.2
				c-1.4-0.7-1.9-2.2-1.1-3.5c1-1.5,0.2-1.6-1-1.8c-5.2-0.7-10.4-1.4-15.6-2.2c-2.2-0.3-4.4-0.9-6.7-1.4c-4.8-1.1-9.7-1.7-14.3-0.1
				c-11.9,4.3-23.8,3.1-35.7,0.6c-1.8-0.4-3.7-0.4-6-0.7c1.5,1.6,2.6,3,3.9,4.2c8.6,7.2,18.1,13.1,28.6,17.2
				c2.9,1.1,5.7,2.5,8.5,3.6c2.3,0.9,4.6,1.7,7.1,1.4c2-0.2,3.7,0.9,5.4,1.5c12.6,4.8,25.4,8.7,39.1,8.7c1,0,2,0.2,3.1-0.3
				c-0.3-1.2-1.5-1.5-2.3-2c-7.5-4.7-14.9-9.5-21.3-15.5c-1.2-1.1-2.4-2.3-2.9-3.9c-0.6-1.8,0-2.8,1.8-3.8c5.5-3,10.1,0.9,15,1.8
				c1.3,0.2,1.7,1.6,1.4,2.9c-0.4,1.6-1.8,2.1-3.2,1.8c-2.4-0.5-4.7-1.3-7.3-1.6c0.7,0.6,1.3,1.2,2,1.8c7.2,5.6,14.8,10.6,22.8,14.8
				c1.6,0.8,3.4,1.5,4.3,3.2c0.3,0.6,0.8,0.7,1.4,0.6c7.7-1.3,15.8-1.1,23.5-4.8c-5-1.2-9.6-2.3-14.1-3.4c-2.1-0.5-4.5-0.8-4.4-3.9
				c0-0.7-0.7-0.7-1.2-0.9c-5-2.6-10-5.3-14.9-7.9c-1.6-0.9-3.1-2-2-4c1-1.9,2.7-1.4,4.3-0.6c4.8,2.5,9.5,5,14.3,7.4
				c0.8,0.4,1.9,0.9,1.9,1.8c0,2.9,2.1,2.8,4,3.2c6.3,1.4,12.5,2.8,18.8,4.3C398.6,300.3,398.7,300.1,398.7,299.9z M770.3,92.7
				c-2.6,0-5.2,0.1-7.8,0c-6.1-0.4-9.1-2.6-10.1-8.3c-0.6-3.2-2.2-3.9-5.1-4.3c-5.3-0.7-10.5-1.9-14.3-6.3c-3.2-3.8-7.1-4.5-12-2.6
				c-5.4,2.1-11.1,2.8-16.9,1.5c-3.9-0.9-7.8-1.9-11.7-2.5c-9.8-1.6-18,1.7-24.9,8.8c-9.5,9.8-21.4,13.6-34.7,13.3
				c-5.5-0.1-8.1-4-5.7-9c1.4-2.9,3.7-5.1,6.2-7.2c5.8-4.8,12-9.2,17.4-14.5c2.5-2.4,4.5-5.3,6.5-7.6c-8.2-1-17.3-1.5-26.1-3.8
				c-6-1.5-11.8-1.4-17.8,0.3c-3.8,1.1-7.8,1.1-11.6,0c-5.7-1.6-11.1-1-16.5,1.1c-5.6,2.2-11.2,4.1-17.2,5
				c-16.6,2.5-27.3,12-32.5,27.9c-2.5,7.6-4.7,15.3-7.8,22.6c-0.9,2.2,0.5,3.9,3.1,3.8c1.8-0.1,3.6-0.6,5.4-0.6
				c16.1-0.3,31.8,2.4,47.7,4.6c11.5,1.6,22.9,3.9,34.4,5.6c17.1,2.5,34.3,5.3,51.5,7.4c13.5,1.7,26.7,5.7,40.3,6.5
				c6,0.4,11.9,1.1,17.8,1.5c3.8,0.3,7.9-0.3,11.4,1.8c1,0.6,2.1,0.1,3.2-0.2c8.6-3,17.2-5.9,25.7-9c6-2.2,11.5-5.4,15.9-10.3
				c3-3.4,5.8-6.9,9.4-9.8c-3.7,0.4-7,1.6-10.4,3c-4.4,1.9-8.8,3.9-13.5,4.9c-7.8,1.7-16-0.4-23.8,2.3c-1.8,0.6-3.1-1.4-3.8-3
				c-0.7-1.6,1.3-1.1,1.8-1.9c0.2-0.2,0.4-0.4,0.6-0.6C752.8,106.4,760.5,98.4,770.3,92.7z M141.5,135.7c-6,0.5-11,3.4-14.5,8.5
				c-1.6,2.3-1.2,4.9,0.3,7.2c2,3,8.6,4.9,12.8,3.8c5.8-1.5,10.6-4.2,13.7-9.8c1.1-1.9,0.9-3.4-0.4-4.3
				C149.8,138.7,146.4,135.9,141.5,135.7z M728.6,259c5.9,4.4,19,7.8,24.3,6.5c-5-1.9-10.1-3.1-14.4-5.8
				C735.2,257.5,732.2,257.7,728.6,259z M440.9,149.3c6,2,11.5,0,17.1-1.2C452.3,147.6,446.6,145.7,440.9,149.3z M441.2,128.3
				c-3.1-0.3-6-0.3-8.6,1.4c-1,0.7-2.2,1-3.4,0.8c-3.4-0.6-6.6,0.4-9.8,0.7C426.7,131.9,434,131.6,441.2,128.3z M547.1,167.3
				c5,3.4,5.6,3.7,8.1-0.1C552.5,167.1,550,165.2,547.1,167.3z M469.8,143.3c-2.2-2.7-7.5-3.2-12.1-1
				C462.1,142.2,465.8,143,469.8,143.3z M466,131.8c4,0,7.5,0.5,11.2-1.8C473.2,129.7,469.6,128.9,466,131.8z M486,137
				c-0.1-0.2-0.2-0.5-0.3-0.7c-2.3,0.6-4.7,1.2-7,1.8c-1.1,0.3-1,1.1-0.7,1.9c0.4,0.9,0.8,1.4,1.8,0.7
				C481.9,139.5,484,138.2,486,137z M862.9,185.6c4,2.2,4,2.2,5.1-1.5c0.2-0.7,0.8-1.4,0.5-2.5C866.6,183,864.9,184.2,862.9,185.6z
				 M679.9,149.5c-2.1,0.1-4.1,0.3-6.2,1.8C676.5,152,678.3,150.8,679.9,149.5z M860.4,161.4c2.8,1.1,4.3,0.7,5-2
				C863.8,160,862.4,160.6,860.4,161.4z"/>
			<path fill="#222222" d="M405.5,187.1c-2.5-0.2-4.8,0.5-7.2,0.8c-10.1,1.4-20.3,2.4-30.4,2.2c-7.7-0.2-15.4-0.1-23.1-1.3
				c-1.2-0.2-3.1,0-2.8-1.7c0.2-1.5,1.5-3,3.4-2.9c2.4,0.1,4.9,0.5,7.3,0.6c18.9,0.5,37.7-1.1,56.4-4.5c2-0.4,3.9-0.6,5.1,1.3
				c1.3,2,0.2,3.6-0.9,5.2c-5.2,7.6-11.8,13.9-19.8,18.3c-18.5,10.3-37.8,19-58.1,25.2c-1.7,0.5-3.5,0.9-5.3,1.3
				c-1.1,0.2-2.2,0.2-3.2-0.3c-1-0.6-1.7-1.4-1.7-2.6c0-1.3,1.2-1.2,1.9-1.5c9-3.3,18.3-5.8,27.2-9.6c12.7-5.5,25.3-11,37.3-18
				c4.8-2.8,9-6.5,12.7-10.6C404.8,188.5,405.5,188.1,405.5,187.1z"/>
			<path fill="#222222" d="M971.5,178.3c26.2-1,52,2.4,77.7,7.2c0.5,0.1,1.1,0.3,1.6,0.4c1.8,0.5,3,1.6,2.6,3.6
				c-0.4,2.1-2.1,2.3-3.8,2c-5.4-0.9-10.7-1.9-16.1-2.8c-26-4.6-52.2-5.5-78.5-4.5c-4.5,0.2-9.1,0.1-13.6,0.1c-1,0-2-0.2-2.9-0.5
				c-0.9-0.3-1.4-1.1-1.5-2.1c-0.1-1.1,0.4-2,1.5-2.4c0.7-0.3,1.6-0.5,2.4-0.4C950.9,179.1,961.2,178.4,971.5,178.3z"/>
			<path fill="#222222" d="M969.7,159.7c15.3,0.3,33.2,2.4,51.1,5.2c6.3,1,12.6,1.6,18.9,2.4c0.2,0,0.4,0,0.5,0.1
				c2,0.2,3.7,0.9,3.5,3.3c-0.3,2.4-2.2,2.6-4.1,2.4c-5.7-0.6-11.4-1.2-17-2c-20.1-3-40.3-5.8-60.7-5.6c-8.5,0.1-17.1,0.2-25.3,3.1
				c-1.2,0.4-2.4,0.2-3.1-1c-0.7-1.3-0.3-2.5,0.7-3.4c1.6-1.4,3.6-1.7,5.5-2.1C948.8,160.2,957.8,159.8,969.7,159.7z"/>
			<path fill="#222222" d="M1016,204.1c-19.3-1-38.6-1.6-57.9-3.4c-4.7-0.5-9.4-1.1-14.1-1.7c-1.9-0.2-4.5-0.1-4.2-3
				c0.3-2.7,2.7-2.5,4.7-2.3c7.6,0.8,15.1,1.9,22.7,2.2c23.7,1.1,47.3,2.7,71,3c2.4,0,4.9-0.3,7.3-0.3c1.9,0,3.9,0.3,4,2.7
				c0.1,2.6-1.9,3-3.9,3.1C1035.8,204.8,1025.9,204.7,1016,204.1z"/>
			<path fill="#222222" d="M979.4,143.8c11.3,0,27.9,2.5,44.5,4.8c2.2,0.3,4.5,0.6,6.8,0.8c2,0.2,3.7,1,3.4,3.3
				c-0.2,2.3-2,2.6-3.9,2.4c-8.1-1-16.2-2-24.3-3.1c-22.7-3.2-45.4-3.7-68,1c-3.1,0.6-6.3,0.6-9.1,2.4c-1,0.6-2.2,0.3-2.9-0.7
				c-0.8-1.1-0.7-2.2,0.1-3.3c1-1.4,2.6-2.1,4.2-2.4C944.6,146.4,959,143.4,979.4,143.8z"/>
			<path fill="#222222" d="M997,232.8c-13.6,0-26.1-1.4-38.7-2.8c-5.5-0.6-11-1-16.6-0.9c-1.9,0-3.7-0.2-3.7-2.5
				c-0.1-2.4,1.8-2.7,3.6-2.8c9-0.1,18,0.8,26.9,1.6c21.1,2,42.3,2.7,63.3-0.6c1-0.2,2-0.2,3-0.2c1.7,0,2.9,0.7,3,2.5
				c0.2,1.7-0.8,2.8-2.4,3.1c-2.4,0.4-4.8,0.8-7.3,1.1C1017.5,232.4,1006.8,233.5,997,232.8z"/>
			<path fill="#222222" d="M178,224.8c-7.1-0.2-14.1-0.2-20.7-3.8c-2.5-1.4-5.3-0.6-8-0.3c-3.4,0.4-6.8,1-10.3,0.4
				c-6.4-1.1-10.7-5.1-14.4-10c-0.9-1.1-0.9-2.5,0.2-3.4c1.2-1.1,2.6-0.8,3.7,0.3c1,1,2,2.1,3,3.2c3.8,4,8.4,5.6,13.8,4.6
				c6.4-1.2,12.6-1.6,18.5,1.8c2,1.2,4.5,1.1,6.9,1.2c6.3,0.2,12.5,0.9,18.8,0.1c3.4-0.4,6.2-2,8.5-4.4c2.3-2.3,4.6-4.7,6.9-6.9
				c1.5-1.4,3.3-2.4,5-0.5c1.5,1.8,0.3,3.3-1.1,4.7c-2.1,2-4.2,4-6.2,6.2c-4.6,4.9-10.2,7-16.8,6.9
				C183.2,224.8,180.6,224.8,178,224.8z"/>
			<path fill="#222222" d="M993.9,218.5c-14.2-0.7-27-1.1-39.7-2.4c-3.2-0.3-6.5-0.9-9.7-1.3c-1.7-0.3-3.4-0.8-3.1-3
				c0.3-2.2,2.2-2.5,4-2.2c5,0.7,10.1,1.4,15.1,1.7c19.6,0.9,39.2,2.1,58.8,2c2.2,0,4.6-0.5,5.1,2.6c0.3,2-1.2,3-5,3.1
				C1010.5,219.2,1001.5,218.8,993.9,218.5z"/>
			<path fill="#222222" d="M376,307.7c-0.4-0.1-1.1-0.3-1.6-0.6c-6.7-3.6-13.6-6.8-20-11c-1.4-0.9-2.8-1.8-3.8-3.1
				c-0.8-1-1-2.2-0.1-3.3c0.9-1.1,2.2-1.3,3.2-0.5c7.2,5.5,15.6,8.8,23.5,13.1c1.3,0.7,2.1,1.8,1.7,3.3
				C378.5,307.1,377.5,307.7,376,307.7z"/>
			<path fill="#222222" d="M438.6,245.4c-2.1,0-4.3-1.8-4.1-3.5c0.2-2.2,1.7-3.1,3.7-3.2c1.6-0.1,3.4,2.2,3.4,4.2
				C441.5,244.3,440.3,245.4,438.6,245.4z"/>
			<path fill="#222222" d="M453.7,241c2-0.1,3.2,0.5,3.2,2.3c0,1.7-2.8,4.2-4.7,4.1c-1.5-0.1-2.5-0.8-2.5-2.5
				C449.7,242.9,451.8,241.1,453.7,241z"/>
			<path fill="#222222" d="M460,200.2c-1.6-0.4-4-0.2-4.2-2.9c-0.1-1.8,1.2-2.5,2.9-2.5c3.3,0,5,1.1,4.9,3.1
				C463.4,199.9,461.9,200.3,460,200.2z"/>
			<path fill="#222222" d="M416,227.9c0.1-2,2.8-3.9,4.8-3.7c1.5,0.2,2.3,1.1,2.2,2.6c-0.1,1.5-3.3,4-4.8,3.8
				C416.6,230.4,416,229.3,416,227.9z"/>
			<path fill="#222222" d="M553.8,238.5c-2.3,0-3.9-1.6-3.6-3.4c0.5-2.3,2-2.3,3.9-1.9c1.7,0.3,3.6,0.3,3.5,2.7
				C557.6,237.5,555.9,238.6,553.8,238.5z"/>
			<path fill="#222222" d="M404.5,240.5c1.4,0.1,2.6,0.8,2.6,2.6c0,1.7-2.2,3.5-4.2,3.5c-1.6,0-2.6-0.8-2.7-2.4
				C400.1,242.4,402.4,240.4,404.5,240.5z"/>
			<path fill="#222222" d="M704.2,205c1.2,0,2.3,0.8,2.4,2.5c0,1.4-2.4,3.6-3.9,3.5c-1.7-0.1-2.4-1.2-2.4-2.7
				C700.2,206.5,701.7,205.1,704.2,205z"/>
			<path fill="#222222" d="M438.9,227.4c-1.7-0.1-2.8-0.7-2.9-2.4c-0.1-1.8,1.7-3.1,4.3-3.2c1.6,0,2.7,0.7,2.6,2.4
				C442.7,226.8,440.6,227,438.9,227.4z"/>
			<path fill="#222222" d="M473.5,244.9c-2.1-0.2-3.4-1.1-3.5-3c-0.1-1.7,0.8-3,2.5-2.8c1.7,0.2,3.8,0.8,3.9,3.1
				C476.5,244.1,474.9,244.6,473.5,244.9z"/>
			<path fill="#222222" d="M473.6,226c0,1.9-1,2.9-2.8,3c-1.8,0.1-2.6-1.1-2.6-2.8c0-1.9,0.6-3.6,2.8-3.7
				C473.2,222.5,473.3,224.5,473.6,226z"/>
			<path fill="#222222" d="M517.1,215.1c-0.4,1.7-0.7,3.7-3.1,3.6c-1.7,0-2.8-1-2.6-2.7c0.2-2,1.5-3.3,3.5-3.4
				C516.4,212.5,517.1,213.6,517.1,215.1z"/>
			<path fill="#222222" d="M744.3,220.9c1.2,0,2.1,0.8,2.2,2.3c0.1,1.6-1.8,3.6-3.4,3.6c-1.6,0-2.6-0.8-2.6-2.5
				C740.4,222.6,742.2,220.9,744.3,220.9z"/>
			<path fill="#222222" d="M495.2,234.2c-0.1,1.5-1,2.3-2.4,2.4c-1.7,0.1-3.7-1.9-3.6-3.5c0.1-1.5,0.9-2.4,2.4-2.4
				C493.3,230.7,495.3,232.6,495.2,234.2z"/>
			<path fill="#222222" d="M462.1,211.3c-1.6-0.3-3.4-0.8-3.6-3c-0.2-1.6,0.8-2.7,2.4-2.5c1.8,0.2,3.6,0.9,3.9,3
				C465,210.4,464,211.2,462.1,211.3z"/>
			<path fill="#222222" d="M636.1,226.5c0,1.8-0.7,3.1-2.7,3c-1.6-0.1-3.1-0.7-3.1-2.7c-0.1-2,1.4-2.9,3.1-3
				C635.1,223.7,636,224.8,636.1,226.5z"/>
			<path fill="#222222" d="M636.6,213.6c0.2-1.9,1.2-3,3-2.9c2,0.1,2.3,1.7,2.3,3.3c0,1.6-0.6,2.7-2.3,2.7
				C637.6,216.7,636.8,215.3,636.6,213.6z"/>
			<path fill="#222222" d="M393.5,230.2c0.2-1.6,1-2.8,2.7-2.6c1.8,0.2,2.9,1.5,3,3.3c0.1,1.7-1.1,2.5-2.6,2.4
				C394.8,233.2,393.6,232.3,393.5,230.2z"/>
			<path fill="#222222" d="M526.5,205.4c-1.8-0.2-3-1.2-3.1-3.1c-0.1-1.6,0.8-2.5,2.4-2.6c2.1-0.1,2.9,1.3,3.1,3.1
				C529,204.3,528.1,205.2,526.5,205.4z"/>
			<path fill="#222222" d="M598.3,222.4c2.1,0,2.8,1.2,2.9,3c0,1.5-0.6,2.8-2.4,2.6c-1.9-0.1-3-1.3-3.1-3.2
				C595.7,223.2,596.8,222.4,598.3,222.4z"/>
			<path fill="#222222" d="M551.2,208.9c0.4-1.5,1.1-2.8,3-2.8c1.7,0.1,2.4,1.2,2.2,2.8c-0.2,1.6-1.1,3-3,2.9
				C551.8,211.8,551.1,210.7,551.2,208.9z"/>
			<path fill="#222222" d="M511.9,248.8c-2,0-3-0.8-3-2.4c0-1.8,1.2-2.8,2.9-2.9c1.6-0.1,2.9,0.7,2.8,2.5
				C514.5,247.8,513.3,248.6,511.9,248.8z"/>
			<path fill="#222222" d="M840.4,203.6c-1.7-0.2-2.5-1.2-2.5-2.7c0-1.8,1.1-2.8,2.9-2.8c1.5,0,2.3,1,2.2,2.5
				C843,202.2,842.2,203.4,840.4,203.6z"/>
			<path fill="#222222" d="M825.3,226.9c-1.7,0.1-2.7-0.7-2.8-2.1c0-1.9,1.3-2.9,3.1-3c1.5-0.1,2.5,0.6,2.6,2.1
				C828.2,226,826.8,226.7,825.3,226.9z"/>
			<path fill="#222222" d="M544.2,205.5c-0.1,1.6-0.9,2.5-2.4,2.4c-1.7-0.1-2.9-1.1-3.1-2.8c-0.2-1.7,0.9-2.6,2.5-2.5
				C543,202.7,544,203.8,544.2,205.5z"/>
			<path fill="#222222" d="M507.4,244c-1.5-0.1-2.7-0.7-2.7-2.4c0-2,1.5-2.6,3.1-2.6c1.5,0,2.6,0.7,2.6,2.4
				C510.4,243.3,509.1,244,507.4,244z"/>
			<path fill="#222222" d="M602.1,211.1c-1.7-0.2-2.9-1-2.9-2.7c-0.1-1.7,1.1-2.5,2.6-2.5c1.5,0,2.7,0.8,2.7,2.5
				C604.5,209.9,603.6,210.8,602.1,211.1z"/>
			<path fill="#222222" d="M592.1,220.1c-0.1,1.6-1,2.6-2.6,2.6c-1.6,0-2.6-0.9-2.6-2.5c0-1.6,0.9-2.6,2.5-2.6
				C591.1,217.6,591.9,218.6,592.1,220.1z"/>
			<path fill="#222222" d="M735.1,227.3c1.6,0.1,2.6,0.9,2.6,2.5c0,1.6-1,2.5-2.6,2.5c-1.6,0-2.6-0.9-2.6-2.5
				C732.5,228.2,733.5,227.4,735.1,227.3z"/>
			<path fill="#222222" d="M574.9,232c-0.1,1.8-0.8,2.8-2.4,2.8c-1.6,0.1-2.6-0.8-2.7-2.4c-0.1-1.7,0.8-2.7,2.6-2.8
				C574,229.7,574.7,230.7,574.9,232z"/>
			<path fill="#222222" d="M641.5,206.2c-1.4-0.2-2.5-1-2.3-2.7c0.1-1.6,1.3-2.4,2.8-2.2c1.5,0.1,2.6,1.1,2.5,2.7
				C644.3,205.7,643.1,206.3,641.5,206.2z"/>
			<path fill="#222222" d="M663.4,220.7c-1.4-0.1-2.5-0.8-2.5-2.3c0-1.7,1-2.7,2.7-2.8c1.5-0.1,2.4,0.7,2.5,2.2
				C666.1,219.7,665,220.5,663.4,220.7z"/>
			<path fill="#222222" d="M423.2,213.7c-0.2,1.7-1.1,2.6-2.7,2.5c-1.6-0.1-2.5-1.1-2.4-2.7c0.1-1.6,1.1-2.5,2.7-2.4
				C422.5,211.1,423.1,212.2,423.2,213.7z"/>
			<path fill="#222222" d="M850.5,229.5c-0.1,1.5-0.8,2.5-2.3,2.5c-1.6,0-2.6-0.8-2.8-2.4c-0.2-1.5,0.6-2.5,2.1-2.6
				C849.3,226.9,850.2,227.9,850.5,229.5z"/>
			<path fill="#222222" d="M708.7,226.5c-0.2,1.6-1.2,2.5-2.7,2.5c-1.5,0-2.4-0.9-2.3-2.4c0.1-1.6,1.1-2.4,2.7-2.5
				C707.8,224.1,708.5,225.1,708.7,226.5z"/>
			<path fill="#222222" d="M574.7,208.9c0.2-1.5,1-2.7,2.7-2.7c1.5,0,2.3,1,2.3,2.5c-0.1,1.6-1,2.6-2.5,2.6
				C575.7,211.4,574.8,210.5,574.7,208.9z"/>
			<path fill="#222222" d="M764.5,219.2c1.5,0.1,2.6,0.9,2.6,2.5c0,1.5-1,2.3-2.5,2.3c-1.6,0-2.6-0.8-2.6-2.4
				C762,219.9,762.9,219.2,764.5,219.2z"/>
			<path fill="#222222" d="M690.8,234.9c-1.5-0.2-2.3-1.1-2.2-2.6c0.1-1.6,1-2.6,2.6-2.5c1.5,0,2.3,1.1,2.2,2.6
				C693.3,233.9,692.4,234.9,690.8,234.9z"/>
			<path fill="#222222" d="M866.8,230.3c-1.5-0.1-2.4-0.8-2.4-2.3c0-1.7,0.8-2.8,2.5-2.8c1.5,0,2.3,0.9,2.3,2.4
				C869.2,229.1,868.4,230.1,866.8,230.3z"/>
			<path fill="#222222" d="M855.9,219c1.4,0,2.5,0.6,2.5,2.1c0,1.6-0.9,2.5-2.5,2.6c-1.5,0.1-2.5-0.6-2.5-2.1
				C853.3,219.9,854.4,219.2,855.9,219z"/>
			<path fill="#222222" d="M430.7,199.2c-1.3-0.1-2.2-0.9-2.2-2.2c0-1.5,0.9-2.3,2.4-2.3c1.4,0,2.2,0.9,2.2,2.2
				C433.2,198.3,432.3,199.1,430.7,199.2z"/>
			<path fill="#222222" d="M616.8,201.8c-0.1,1.5-0.8,2.3-2.1,2.3c-1.5,0.1-2.4-0.7-2.4-2.3c0-1.4,0.8-2.2,2.1-2.3
				C615.9,199.6,616.7,200.4,616.8,201.8z"/>
			<path fill="#222222" d="M793.9,228.8c-1.3,0.1-1.8-0.7-1.8-1.8c-0.1-1.5,0.7-2.4,2.3-2.4c1.4,0,2.2,0.8,2.3,2.2
				C796.7,228.7,795.1,228.4,793.9,228.8z"/>
			<path fill="#222222" d="M677.2,123c4.8-4.7,9.7-9,14.6-13c10.8-8.9,21.4-18,33.7-25c1.5-0.8,3-1.8,4.7-2.1
				c1.4-0.2,2.6,0.2,3.1,1.6c0.5,1.3-0.1,2.4-1.3,3c-16.9,8.8-30.6,21.8-44.7,34.1C683.8,124.6,681,124.2,677.2,123z"/>
			<path fill="#222222" d="M562.5,105.9c1.7-2.6,3.3-5,4.9-7.5c7.5-11.9,15-23.8,22.5-35.6c0.7-1.1,1.4-2.3,2.2-3.4
				c1.1-1.5,2.4-2.9,4.3-1.5c1.7,1.3,1,2.8,0,4.3c-2.2,3.5-4.3,6.9-6.4,10.4c-6.1,10.2-12.3,20.3-18.7,30.3
				C568.3,107.5,568.3,107.5,562.5,105.9z"/>
			<path fill="#222222" d="M632.1,116.1c11.9-11,23.2-22.3,36.6-31.2c0.7-0.4,1.4-0.8,2.2-1.1c1.1-0.3,2.3-0.1,2.9,1
				c0.6,1.1,0.4,2.3-0.5,3.2c-0.3,0.3-0.6,0.5-0.9,0.7c-10.8,7-20,15.9-29.1,24.9C639.9,116.9,636.8,118.2,632.1,116.1z"/>
			<path fill="#222222" d="M598.7,85c-0.1-0.9,0.4-1.5,1.2-2.3c2.5-2.2,5.3-3.8,8.1-5.5c8-5,15.9-10.1,24.3-14.5
				c1.5-0.8,3.1-1.5,4.8-2c1.5-0.5,3-0.3,3.6,1.4c0.5,1.7-0.4,2.6-1.9,3.4c-8.4,4.2-17.2,7.7-25.3,12.6c-4.2,2.6-8.3,5.5-12.5,8.2
				C599.5,87.4,598.6,87.2,598.7,85z"/>
			<path fill="#222222" d="M607.4,112.9c-4.3-0.1-4.5-0.5-2.4-4.1c2.7-4.4,5.8-8.6,8.9-12.6c1.1-1.4,2.5-2.8,4.3-1.3
				c1.6,1.3,0.9,2.9-0.2,4.3c-3,4.1-6.1,8.1-8.6,12.6C608.9,112.8,608.3,113.2,607.4,112.9z"/>
			<path fill="#222222" d="M721.2,129.1c2.6-2,5.2-4.1,8-6c1.3-0.9,2.8-1,3.9,0.5c1,1.4,0.5,2.7-0.6,3.9c-2,2-4.3,2.8-7.1,2.4
				c-1.2-0.2-2.5,0-3.7,0C721.4,129.6,721.3,129.3,721.2,129.1z"/>
			<path fill="#222222" d="M139.1,152.2c-3.1,0.5-5.5-0.5-7.7-2.4c-2-1.7-2.4-3.6-0.8-5.7c1.4-2,3.1-3.8,4.8-5.5
				c1.7-1.7,7.2-1.6,9.8-0.1c2.5,1.5,4,4.6,3.4,7.4c-0.6,3.3-3.2,5.8-6.6,6.3C140.9,152.3,139.9,152.2,139.1,152.2z"/>
		</g>
	</g>
</g>
</svg>
