<?xml version="1.0" encoding="utf-8"?>
<!-- Generator: Adobe Illustrator 18.0.0, SVG Export Plug-In . SVG Version: 6.00 Build 0)  -->
<!DOCTYPE svg PUBLIC "-//W3C//DTD SVG 1.1//EN" "http://www.w3.org/Graphics/SVG/1.1/DTD/svg11.dtd">
<svg version="1.1" xmlns="http://www.w3.org/2000/svg" xmlns:xlink="http://www.w3.org/1999/xlink" x="0px" y="0px"
	 viewBox="0 0 872 448" enable-background="new 0 0 872 448" xml:space="preserve">
<g id="_xFFFD__x83__x8C__xFFFD__x99__xA0_影像_1_">
</g>
<g id="_xFFFD__x9C__x96_撅_xFFFD__4_xA0_影像_9_">
</g>
<g id="_xFFFD__x9C__x96_撅_xFFFD__2_xA0_影像_1_">
</g>
<g id="敺_x9E__xFFFD__xF880_詨_x8F__x96_蝭_x84__xFFFD__x9C__x8D__xA0_影像_1_">
</g>
<g id="_xFFFD__x9C__x96_撅_xFFFD__3_xA0_影像_1_">
</g>
<g id="_xFFFD__x9C__x96_撅_xFFFD__4_xA0_影像_7_">
</g>
<g id="_xFFFD__x9C__x96_撅_xFFFD__4_xA0_影像_5_">
	<g>
		<g>
			
				<path fill="#369EBB" stroke="#FFFFFF" stroke-width="20" stroke-linecap="round" stroke-linejoin="round" stroke-miterlimit="10" d="
				M736,143.4c0.4,0.1,1.4,0.2,2.3,0.4c2,0.5,2.8,1.8,2.3,3.9c-0.7,2.8-2.5,5.1-4.5,7.1c-3.2,3.3-4.9,7-5,11.6
				c-0.1,4.1-1.7,8-3.2,11.8c-3.8,9-7.6,18.1-12.5,26.6c-2.3,3.9-4.3,8-5.7,12.3c-2.3,7-6,13.2-9.6,19.5c-0.8,1.5-1.1,2.6,0.1,4.6
				c2,3.3,1.9,7.5,2.7,11.3c0.7,3.4,1.2,6.6,3.8,9.6c5.2,5.9,7.2,13.6,9.7,20.8c0.6,1.6,1.2,3.2,1.6,4.9c1.7,7.6,6.5,13.1,12.2,17.9
				c3,2.6,5,6,7.1,9.2c1.2,1.8,1.4,4,0.8,6.1c-0.7,2.5-1.7,5-2.9,7.3c-1,2-3,2.5-5.1,2.4c-1.1,0-2.2-0.2-3.2-0.5
				c-3.5-0.9-7-1.3-10.7-1c-8.6,0.7-16.7-1.7-24.6-5.1c-14.3-6.1-25.4-16.1-34.8-28.1c-2-2.5-3.7-5.2-5.9-7.5
				c-3.9-4.3-5.4-9.5-6.6-15c-0.2-0.8-0.1-1.7,0.2-2.4c5.1-9.8,7.9-20.3,10.5-30.9c0.8-3.4,1.5-6.9,2.4-10.3c2.5-9.5,1-18.8-1.2-28
				c-0.8-3.3-2.2-6.5-5.6-8.5c-4.5-2.7-4.1-6.6,0.6-9.8c6-4.1,12.3-7.7,18.7-11.1c17.2-9.2,34.7-18,52.7-25.6
				C726.7,145,730.8,143.4,736,143.4z"/>
			
				<path fill="#369EBB" stroke="#FFFFFF" stroke-width="20" stroke-linecap="round" stroke-linejoin="round" stroke-miterlimit="10" d="
				M414,93.7c-1.6,0.2-3.2-0.2-4.5-1.6c-0.7-0.8-0.9-1.8-0.4-2.8c0.5-1,1.5-1.6,2.5-1.2c3.6,1.2,4.7-1.4,5.4-3.8
				c2.4-8.4,7.1-15.5,11.6-22.7c3.7-5.9,8.8-10.2,15.2-12.7c11.2-4.4,22.5-8.2,34.9-7.3c2.3,0.2,3.9,1,5.4,2.7
				c2.7,3.2,5.4,6.4,7.6,10c3.4,5.6,8.8,9.1,14.2,12.5c6.1,3.8,11.8,8.2,18,11.8c7.8,4.6,13.3,11,18.3,18.2c1.9,2.8,4.9,4.8,7.4,7.2
				c2,1.9,4.1,3.7,5.7,5.8c6.2,8.2,15.1,13.2,22.7,19.9c6.9,6,13.7,12.1,20.6,18.2c1.3,1.1,2.4,2.5,1.4,4.3c-1,1.8-2.6,1.6-4.3,1.3
				c-3.1-0.5-6.3-0.9-9.4-1.3c-2.1-0.3-4,0-5.6,1.9c-1.9,2.3-4.8,2-6.5-0.5c-2.8-4.4-6.7-7.6-11-10.4c-4.2-2.6-7.3-6.5-11.3-9.4
				c-2.2-1.5-4.4-2.9-6.8-3.9c-3.8-1.6-7.4-3.5-10.7-5.9c-4.6-3.3-10.1-4.4-15.6-5.2c-2.1-0.3-3.5-1.2-4.8-3.3
				c-2.2-3.5-6.1-4.6-10.2-4.9c-6.8-0.5-13.5-1.5-20.3-2.5c-12.2-1.7-24-4.8-35.9-7.6c-8.4-1.9-16.9-3.4-25.5-4.1
				c-2-0.2-3.9-0.6-5-2.3C416.1,93,415.2,93.7,414,93.7z"/>
			
				<path fill="#369EBB" stroke="#FFFFFF" stroke-width="20" stroke-linecap="round" stroke-linejoin="round" stroke-miterlimit="10" d="
				M288.9,288.1c-2.3-1.4-4.6-2.8-7.1-4c-3.3-1.6-5-4.8-7.7-7.1c-1-0.9-1.1-2.3-0.4-3.5c0.6-1,1.7-1.3,2.9-1.2
				c3.3,0.4,6.1,4,9.2,2.8c3.3-1.2,6.5-1.1,9.6-0.7c8.6,0.9,17.1,2.4,25.6,3.3c10.7,1.2,21.1,3.5,31.7,5.3c3.4,0.6,6.8,1.6,9.7,3.4
				c2.8,1.7,4.7,4.3,7.1,6.5c1.8,1.6,0.4,4.6-2.3,5c-2.3,0.3-4.7,0.3-7.1,0.4c-4.6,0.2-4.9,0.1-5.3,4.6c-0.3,2.9-0.9,4.2-4.2,3.4
				c-1-0.3-2.7,0.6-2.9,2.3c-0.4,3.2-2.7,4.3-5.3,5.1c-3,0.8-6.1,0.5-9.2,0.5c-0.5,0-1.7-0.5-1.4,0.8c0.4,1.7,0.1,3.2-1.6,3.8
				c-1.9,0.6-3.9,0.9-5.8-0.3c-1.6-1.1-3.1-2.2-4.5-3.5c-0.8-0.7-1.6-0.7-2.5-0.7c-3,0-6-0.3-9-0.5c-4-0.2-7.5-1.4-10.5-3.9
				c-1.6-1.3-3.6-1.7-5.5-2.2c-7-1.8-14-3.9-20.7-6.8c-2-0.9-3.9-1.8-3.3-4.6c0.2-1.1-0.5-1.2-1.3-1.2c-1,0-2,0-3-0.1
				c-2.3-0.2-5-3.7-4.4-5.8c0.6-2.3,2.4-2.1,4.2-1.6c8.2,2.3,16.5,0.8,24.7,1.2C288.8,288.5,288.9,288.3,288.9,288.1z"/>
			
				<path fill="#369EBB" stroke="#FFFFFF" stroke-width="20" stroke-linecap="round" stroke-linejoin="round" stroke-miterlimit="10" d="
				M463.5,389c-0.1,2.3-1,3.8-3.1,3.5c-7.6-1.2-14,2.2-20.3,5.6c-2.5,1.4-4.6,1.6-7.1,0.1c-14-8.3-24.5-20.1-33.4-33.5
				c-3.9-5.8-7.1-12.1-9.7-18.6c-0.4-1-0.9-2-1-3.1c-0.3-2.1,1.4-3.6,3.2-2.7c3.4,1.6,6.9,1.5,10.4,1.4c4.7-0.1,9.4-0.2,14.2-0.3
				c3.2-0.1,5.9,1,8.4,3.2c4.7,4.2,8.6,9,12.5,14c6.9,8.9,15.1,16.4,22.5,24.8C461.6,385.1,463.3,386.8,463.5,389z"/>
			
				<path fill="#369EBB" stroke="#FFFFFF" stroke-width="20" stroke-linecap="round" stroke-linejoin="round" stroke-miterlimit="10" d="
				M570.6,362.3c-4.4-0.3-7.5-3-9.5-7.1c-1.7-3.4-2.1-7.1-2.6-10.8c-1.3-8.7-4.4-16.8-8.6-24.5c-2.4-4.4-1.7-5.9,3.1-7.1
				c8.7-2.1,16.3-6.6,24-10.7c4.1-2.2,8.1-4.5,12.1-6.7c2-1.1,3.9-2.2,4.6-4.7c0.5-1.5,1.9-2.3,3.5-1.5c1.9,1,2.3,3.1,1.7,4.7
				c-0.7,1.7-0.2,2,1.1,2.7c3.4,1.9,3.5,4.8,0.2,6.8c-0.8,0.5-0.9,1-1.1,1.7c-2.2,8.5-5.1,16.7-8.8,24.5c-1.5,3.1-3.3,5.9-3.8,9.4
				c-0.1,0.8-0.4,1.8-1,2.2c-3,2.2-2.6,5.3-2.7,8.4C582.5,356.6,577.1,362.3,570.6,362.3z"/>
		</g>
		
			<polygon fill="#FFFFFF" stroke="#FFFFFF" stroke-width="20" stroke-linecap="round" stroke-linejoin="round" stroke-miterlimit="10" points="
			137.3,187.4 139.8,171.9 162.1,160.3 180.1,147.3 214.1,130.3 253.1,111.3 285.1,99.3 313.1,92.3 343.6,92.6 372.1,91.3 
			410.5,93.1 457.1,101.3 488.4,110.7 542.1,129.3 568.1,149.3 596.1,174.3 616.1,186.3 648.1,190.3 656.1,223.3 645.5,272.1 
			593.8,283.2 547.1,317.8 479.1,338.3 403.5,342.8 321.1,328.3 258.1,310.3 230.1,293.3 204.1,262.3 176.1,240.3 150.1,226.3 
			146.3,210.4 133.6,210.4 		"/>
		<g>
			
				<path fill="#222222" stroke="#FFFFFF" stroke-width="20" stroke-linecap="round" stroke-linejoin="round" stroke-miterlimit="10" d="
				M431.3,344.9c7.7,8.5,15.1,16.9,22.2,25.7c2.2,2.8,4.4,5.5,6.6,8.3c2.8,3.7,5.5,7.4,9.3,10.3c1.2,0.9,1.8,2.1,1.4,3.6
				c-0.5,1.6-1.7,1.8-3.2,2c-10.3,1.6-20.6,3.2-30.8,5.6c-3.7,0.9-6.5,0.4-8.8-2.9c-1.4-1.9-3-3.6-4.9-5.1
				c-9.2-7.5-17.2-16.2-25.4-24.7c-4.7-4.8-7.8-10.7-10.8-16.6c-1.2-2.3-2.3-4.5-3.4-6.8c-1.1-2.2-2.9-3.3-5.4-3.5
				c-17.3-1.5-34.3-4.8-51.3-8.5c-6.7-1.5-13.7-2.3-20.1-4.7c-8.9-3.3-18.6-3-27.5-6.3c-16.7-6-32.5-13.7-47-23.8
				c-11.4-7.9-21.4-17.4-29.9-28.6c-10.9-14.2-23.7-26.6-40.6-33.8c-2.7-1.1-5.2-2.5-7.8-3.9c-6.5-3.3-11.1-8.3-13.5-15.3
				c-0.4-1.2-1.1-1.8-2.1-2.3c-1.7-0.7-3.2-1.8-4.4-3.1c-2.5-2.7-2.6-4.8-0.3-7.7c1.9-2.5,1.9-3.8-0.2-6.1c-1.8-2-2.4-4.3-2-7
				c1.5-10.2,6.6-18,15.7-23c7.1-3.9,13.8-8.4,19.2-14.6c1.6-1.8,3.7-2.6,5.8-3.5c4.4-1.9,8.6-4.3,12.7-6.9
				c9.4-6.1,19.6-10.6,29.6-15.7c13.6-6.9,27.1-14.1,41.1-20.1c20.5-8.7,41.7-14.9,63.9-17.5c14.9-1.7,29.8-1.2,44.7-1.7
				c11.4-0.3,22.7-0.4,34,1.2c1.1,0.2,2.1,0.4,3.2,0.6c4.9,0.9,9.3-1.3,11.4-5.8c0.7-1.6,1.2-3.2,1.6-4.9
				c5.1-20.8,25.7-38,47.1-39.5C468,38,475,38.2,482,39.6c2.4,0.5,3.7,1.6,3.9,4.3c0.4,4.5,3.5,7.5,6.8,10.1
				c5.1,4,10.6,7.4,16.2,10.5c15,8.4,27.8,19.5,38.9,32.5c4.3,5.1,8.8,9.9,13.8,14.3c8.4,7.3,15.7,15.7,24.5,22.4
				c5.1,3.9,10.7,7.3,15.4,11.6c1.1,1,2.2,1.9,3,3.1c1.8,2.9,0.7,5.3-2.6,5.6c-2.8,0.2-5.6,0.1-8.4,0c-4-0.1-7.9,0.4-11.8,1.7
				c0,1,0.8,1.2,1.3,1.6c6.9,5.9,13.8,11.8,20.7,17.7c9.9,8.6,21.1,13.3,34.5,11.8c2.8-0.3,5.2-1.1,7.5-2.8
				c24.4-17.7,50.4-32.5,79.2-41.7c4.6-1.5,9.3-2.6,14-3.3c2.1-0.3,4.1-0.4,5.4,1.5c1.3,2,0.6,4-0.6,5.9c-2.5,3.7-5.1,7.3-7.5,11
				c-2.3,3.7-4,7.7-3.1,12.3c0.5,2.4-0.1,4.7-1.1,6.9c-3.7,7.8-6.7,15.9-9.5,24c-1.5,4.2-3.8,8-6.7,11.4c-3.5,4.1-6,8.6-7.8,13.6
				c-1.2,3.4-2.9,6.7-4.4,9.9c-0.9,1.9-1.1,3.6,0,5.4c1.8,3.1,1.6,6.7,1.9,10.1c0.3,2.6,1.3,4.8,2.6,7.1c4,7.2,8.3,14.2,10.8,22.1
				c1.9,6,5.2,11.6,7.1,17.6c0.6,1.9,2.4,3.2,4,4.4c1.5,1.2,3.1,2.2,4.6,3.4c5.6,4.5,7.5,11.3,5.1,18.1c-2.8,7.9-5.8,9.9-14.1,9.7
				c-23.5-0.6-43.9-9-61.3-24.7c-4.1-3.7-7.3-8.3-10.4-12.9c-4.2-6.4-8.4-12.7-13.6-18.4c-1.2-1.4-2.6-2-4.5-1.9
				c-5.3,0.2-10.3,0.9-15.5,2c-6.7,1.5-11.9,5-17.1,9c-0.4,0.3-0.9,0.3-0.8,1.1c0.5,4.6,0.6,9.2,1.2,13.9c0.3,2.7-1.3,5.1-3,7.1
				c-3.4,4.1-5.2,8.6-5.2,14c0,3.7-1.8,7.1-3.9,10c-3.2,4.6-5.1,9.4-5.5,15.1c-0.3,4.8-2.6,9.2-4.6,13.6c-1.8,3.8-4.8,4.9-8.8,4.1
				c-2.3-0.5-4.6-1-6.9-1.4c-2-0.4-2.9-1.9-4-3.4c-5.7-8.2-8.6-17.2-9.4-27.2c-0.4-5-1.8-9.8-3.1-14.6c-0.3-1.3-0.6-2-2.1-1.2
				c-19.4,11-41.1,15.1-62.5,20.3c-13.9,3.4-28,5.1-42.3,5.4C438.7,343.5,435.2,345.2,431.3,344.9z M437.9,337.7
				c9.5,0.4,18.9-0.5,28.3-1.7c11.3-1.5,22.1-5.2,33.2-7.3c17.6-3.3,34-9.9,49.3-18.9c15-8.8,29.8-18,45-26.6
				c9-5,17.9-9.9,27.9-12.7c5-1.4,10.2-1.6,15.3-2.4c1.1-0.2,2.2-0.1,2.7-1.4c1.6-4.3,4.1-8.3,5.4-12.8c1.4-4.6,1.6-9.5,3.4-14
				c1.2-3.1,2-6.4,2.4-9.8c1.5-12,1.4-23.9-3.7-35.3c-0.9-2-2.2-3.1-4.5-2.2c-2.7,1.1-5.5,1-8.3,0.5c-3.9-0.6-7.7-1.3-11.4-2.6
				c-11.5-3.8-22.6-8.3-30.8-17.7c-13.5-15.3-29.6-27.3-47.1-37.8c-17.9-10.8-36.9-18.6-56.8-24.6c-15.1-4.6-30.6-7.3-46.3-9.4
				c-19.8-2.6-39.4-6.6-59.4-7.3c-13-0.5-26-2.4-39.1-1.4c-6.3,0.5-12.7,0.3-19,1.1c-12,1.5-24,2.8-35.6,6.4
				c-17.5,5.5-34.5,11.7-50.8,20.7c-13.6,7.5-27.6,14.5-42,20.7c-2.3,1-4.6,2.1-6.7,3.5c-5.5,3.7-11.2,6.7-17.2,9.4
				c-1.7,0.8-3.2,1.7-4.4,3.1c-4.2,4.7-8.9,8.8-14.6,11.6c-1.8,0.9-3.4,2.1-5.1,3.2c-5.5,3.6-9.3,8.5-10.8,15.1
				c-1.1,4.8-1.2,5.1,2.9,7.9c5,3.4,9,7.6,11.6,13.1c2.2,4.6,0.8,7.1-4.3,7.6c-1.6,0.2-1.7,0.5-1,1.8c1.8,3.1,4.2,5.7,7.4,7.4
				c3.9,2.1,7.9,4.2,12,5.9c12.2,5,22.1,13.4,31.1,22.4c7,7,13.7,14.6,19.4,22.8c1.4,2,3.1,3.8,5.1,5.2c5.5,4,11,8.1,16.5,12.1
				c3.8,2.8,7.6,5.7,11.9,7.7c14.2,6.3,28.7,11.9,43.7,15.9c9.4,2.6,19.4,3.2,28.7,6.3c16.9,5.7,34.2,8.7,51.9,10.9
				C395.4,337,416.7,336.5,437.9,337.7z M737.6,145.5c-1-0.3-2,0.1-2.9,0.3c-16.2,3.8-31.2,10.7-46,18.2c-9.3,4.7-17.9,10.7-27.5,15
				c-3.6,1.6-6.7,4.1-9.7,6.5c-2.1,1.7-1.9,3.6,0.3,5.1c0.7,0.5,1.2,1.1,1.6,1.8c4.5,8.3,6.7,17.1,5.8,26.5
				c-1.1,11.3-3.5,22.4-7.1,33.2c-0.7,2-1.3,4-1.4,6.1c-0.2,4.4-1.9,8.3-4.7,11.6c-2.6,3.1-2.4,5,0.9,7.5c3.1,2.4,5.4,5.4,7.3,8.7
				c4.6,7.8,9.4,15.6,16.7,21.3c16,12.5,33.6,21.1,54.5,20.8c6-0.1,7.2-0.6,9.1-6.2c1.5-4.6,0.4-8.6-3.4-11.6
				c-1.7-1.4-3.5-2.6-5.2-3.9c-2.7-2-4.7-4.6-5.8-7.8c-2.7-8-6.3-15.5-9.6-23.2c-2.4-5.5-4.9-10.9-8.3-15.8
				c-1.3-1.9-1.8-4.1-2.1-6.4c-0.5-3.4-0.1-6.9-1.9-10.1c-1.7-3-1.5-6.1,0-9.1c1.9-3.8,3.8-7.7,5.2-11.7c1.5-4.2,3.6-8.1,6.5-11.6
				c2.9-3.5,5.7-7.1,7.2-11.5c2.9-8.3,6.1-16.5,10-24.4c0.7-1.5,1.2-3.1,0.8-4.8c-0.9-3.4-0.1-6.6,1.8-9.3
				C733,155.9,734.8,150.5,737.6,145.5z M591.9,147.1c-4.7-4.5-8.3-9.1-13.2-12.6c-7.7-5.5-13.7-13-21.3-18.7
				c-7.4-5.6-13.6-12.3-19.2-19.6c-7.3-9.5-16.1-17.2-26.3-23.4c-7.2-4.3-14.3-8.7-21-13.6c-4.3-3.2-7.9-7-9.6-12.2
				c-0.6-1.7-1.5-2.2-3.1-2.5c-5.5-0.8-11.1-1-16.6-0.5c-10.6,0.9-20,4.6-27.3,12.6c-8.4,9.2-13.2,20.3-16.2,32.3
				c-0.4,1.5,0,1.8,1.5,2c20.9,2.7,41.4,7.6,62,12c25.3,5.5,48.6,15.8,70.1,30.1c7.1,4.7,13.5,10.4,20.4,15.5
				c0.6,0.5,1.1,1.3,2.1,1.1C579.9,148.9,585.6,148,591.9,147.1z M461.4,389.9c-1.5-1.9-2.6-3.3-3.8-4.8
				c-10.8-14.3-22.3-28.1-34.8-41c-0.5-0.5-1.1-0.5-1.8-0.6c-10.9-0.5-21.7-1-33-1.6c4.2,8.2,7.8,16.3,14.2,22.7
				c3.9,3.8,7.7,7.7,11.5,11.6c5.1,5.3,11.3,9.5,16.1,15c2.7,3.1,5,3.9,8.9,2.9C446,392.4,453.5,391.4,461.4,389.9z M597.1,291.4
				c-1.7,1.5-3.5,1.5-4.9,2.5c-11.7,7.5-24.3,13.1-36.5,19.5c-1.9,1-2.1,2-1.5,3.8c1.8,6,3.6,12.1,4.1,18.3c0.6,7.8,3.5,14.6,7.6,21
				c1,1.6,1.9,2.4,3.9,2c1.7-0.3,3.5-0.9,5,0.8c1,1.1,1.7-0.2,1.9-1c1.3-4,3.7-7.7,3.9-11.9c0.2-6.3,2.6-11.6,6.1-16.6
				c2.2-3.1,3.4-6.5,3.5-10.4c0.1-3.6,1-7.2,3.4-9.9c4.1-4.7,5.9-9.6,3.7-15.7C597,293.3,597.1,292.6,597.1,291.4z M146.3,210.4
				c-1.1-2.9-2.8-5-4.8-6.8c-0.6-0.5-1.7-2.2-2.1-0.8c-0.5,1.5-3.8,2.8-0.9,4.9C140.7,209.3,143.2,210,146.3,210.4z"/>
			
				<path fill="#222222" stroke="#FFFFFF" stroke-width="20" stroke-linecap="round" stroke-linejoin="round" stroke-miterlimit="10" d="
				M277.1,284.7c-4-2.4-5.9-7.3-10.8-8.6c-1-0.3-1.4-1.3-1.3-2.5c0.2-2,3.5-4.7,5.5-4.3c5.8,1.1,11.8,1.3,17.6,1.3
				c12.8,0.1,25.3,2.5,37.9,4.3c9.3,1.3,18.6,3,27.9,4.7c5.9,1.1,11.3,3.4,16.2,6.9c2.4,1.7,4,7.7,2.7,10.4
				c-0.6,1.3-1.9,1.9-3.2,2.4c-2.7,1-5.6,1.6-8.5,2c-1.3,0.2-2.1,0.4-2.1,2.1c0,2.4-1.9,3.4-4.8,4.1c1.9,0.7,2.8,0.3,3.7,0.1
				c2.1-0.5,4-1.6,6.2,0.4c1.3,1.1,3.2-0.4,4.9-0.7c3.4-0.6,5.4-2.3,5.7-6c0.2-3,1.2-5.9,1.9-8.8c0.3-1.1,0.6-2.3,1.1-3.4
				c1-1.9,2.5-3.4,4.8-2.5c2.2,0.8,2.5,2.7,2.2,4.8c-1.3,7.5-3.8,14.4-10.4,19.1c-3.4,2.4-6.9,4.6-10.6,6.6c-1.8,0.9-3.2,0.2-4.4-1
				c-1.7-1.6-3.4-3.3-4.9-5.1c-1.2-1.3-2.4-1.2-3.2,0c-2.5,3.9-6.6,5.1-10.7,5.9c-13.6,2.6-27.1,2.9-40.5-2.4
				c-8.9-3.5-18.2-6.1-27.2-9.6c-3.4-1.4-5.7-4-8.2-6.2c-3-2.6-6.3-4.2-10-5.3c-3.9-1.2-7.8-2.5-11.6-3.9c-1.9-0.7-3.7-1.7-3.3-4
				c0.3-2.5,2.4-3,4.5-3.1c7.9-0.2,15.7,1.2,23.6,2C271,284.5,273.9,285.2,277.1,284.7z M262.1,289.4c1.9,1.3,3.4,2.1,4.6,3.2
				c4.2,3.7,9,6.4,14,8.8c7.2,3.5,15.1,4.6,22.4,7.8c11.5,4.9,23.2,4.2,35.1,2.4c0.9-0.1,2.2,0,2.7-1.1c0.9-2.1,2.8-2.6,4.6-3.6
				c2-1.1,4.5-2.4,4.9-4.3c1-5,4.7-6.9,8.7-8.5c1.7-0.7,3.5-1.2,5.6-1.9c-1.1-0.6-1.7-1-2.4-1.3c-8.6-4-18.5-4.3-27-8.6
				c-16.6-2.7-33.1-5.6-50-5.9c-2.9,0-5.8-1-9-0.4c2.5,2.6,5,4.4,7.7,6.2c1.7,1.2,3.5,2.3,5.1,3.6c1.2,0.9,1.5,2.3,1,3.7
				c-0.5,1.5-1.7,2.1-3.2,2c-1.2-0.1-2.4-0.1-3.5-0.2C276.3,290.8,269.5,290.1,262.1,289.4z"/>
			
				<path fill="#222222" stroke="#FFFFFF" stroke-width="20" stroke-linecap="round" stroke-linejoin="round" stroke-miterlimit="10" d="
				M294.2,202.1c-2.1,7.2-4.9,14-9.2,20.2c-6.4,9.1-13.4,17.7-21.4,25.4c-4.5,4.3-9.7,7.6-15.4,10.2c-1.4,0.6-2.9,1.2-4.5,1
				c-1.3-0.1-2.2-0.8-2.5-2.1c-0.2-1.2,0.4-2.3,1.5-2.6c12.7-3.8,20.6-13.5,28.5-23.2c6.7-8.2,13.3-16.6,16.3-27.1
				c5.6-19.4,2.7-37-10.5-52.6c-1.8-2.2-4-4-6.2-5.8c-1-0.8-1.9-1.7-2.4-2.9c-0.4-1.2-0.4-2.4,0.7-3.2c1.1-0.9,2.4-0.9,3.5,0
				c13,10.7,21.4,24,22.9,41.1c0.3,3.5,0.5,7.1,0.1,10.6c-0.1,1.2-0.2,2,1.5,2.1c2.2,0.1,2.7,1.9,2.8,3.7c0.4,5.4-0.1,10.7-1.1,16
				c-3.8,19.5-13.2,36-27.1,50c-2.3,2.3-4.8,4.1-7.5,5.8c-1.4,0.9-3,1.2-4.1-0.5c-1-1.7-0.1-2.8,1.3-3.9
				c17.6-13.3,27.1-31.6,31.9-52.6C294,208.5,294.7,205.4,294.2,202.1z"/>
			
				<path fill="#222222" stroke="#FFFFFF" stroke-width="20" stroke-linecap="round" stroke-linejoin="round" stroke-miterlimit="10" d="
				M186.3,193c-7.5,0-17.1-9.4-16.7-16.9c0.7-12.1,6.4-16.8,19.3-17.3c9.1-0.4,15.6,6.8,15.6,16.3C204.5,185.4,196.8,193,186.3,193z
				 M185.8,164.3c4,3.3,5.1,7.3,5.4,11.7c0.3,4.7-1.5,8.4-5.9,11.6c5.5-0.5,9.8-1.7,12.1-6.4c2.2-4.6,2.5-9.4-0.9-13.6
				C193.9,164.5,190.3,163.7,185.8,164.3z M187.6,175.1c0.1-1.2-0.1-2.4-0.6-3.6c-0.5-1.1-1.3-1.7-2.6-1.4c-1.2,0.3-1.6,1.4-1.3,2.4
				c1,3.3-0.3,5.8-2.2,8.3c-0.8,1-0.9,2.3,0.2,3.1c1.1,0.8,2.3,0.4,3.1-0.6C186.2,180.9,187.8,178.4,187.6,175.1z"/>
			
				<path fill="#222222" stroke="#FFFFFF" stroke-width="20" stroke-linecap="round" stroke-linejoin="round" stroke-miterlimit="10" d="
				M418.3,163.1c-0.9,6.9-2.4,13.8-5.9,20.1c-3.7,6.7-13.3,7.3-18,1.2c-0.8-1.1-1.1-2.2-1-3.6c0-0.9,1.4-2.1,0-2.5
				c-1.2-0.4-2.7-0.7-4.1,0.4c-2.2,1.8-4.7,3.5-7.1,5c-5,3.2-7.8,2.7-11.4-1.9c-0.6-0.7-1-1.5-1.7-2.1c-1.9-1.8-0.3-3,0.4-4.5
				c0.7-1.6,1.8-1.1,2.9-0.8c1.4,0.4,2.8,0.5,3.9,1.7c0.8,0.9,1.7,0.3,2.5-0.2c1.9-1.2,3.8-2.4,5.8-3.6c0.7-0.4,1.5-1.2,2.2-1
				c3.4,0.6,3.9-1.9,4.7-4c0.9-2.2,1.2-4.6,1.5-6.9c0.3-2.1,1.1-4.1,3.6-4c2.7,0.1,3.4,2.2,3.5,4.4c0.1,5.1-1.4,9.9-3.8,14.3
				c-0.8,1.5-1.4,2.7,1.2,2.5c0.9-0.1,1.7,0.6,2.5,1c3.5,2,4.9,1.7,7.2-1.7c2.7-3.9,4.1-8.3,5.2-12.8c0.2-0.7,0.2-1.4,0.5-2.1
				c0.6-1.8,1.7-3.1,3.8-2.8C419,159.6,418.1,161.5,418.3,163.1z"/>
			
				<path fill="#222222" stroke="#FFFFFF" stroke-width="20" stroke-linecap="round" stroke-linejoin="round" stroke-miterlimit="10" d="
				M210.2,158.7c-1-1.6-0.7-2.8-0.3-4c1.3-3.9,7.2-7,11.2-5.9c2.7,0.8,4.1,2.6,4.3,5.9c0.6,9.6-1.3,18.8-5.1,27.6
				c-4.6,10.5-10.3,20.4-17.8,29.2c-0.5,0.6-0.9,1.1-1.5,1.6c-1.2,0.9-2.6,1-3.7-0.1c-1.1-1-1.2-2.3-0.4-3.5c1.2-1.8,2.7-3.5,4-5.2
				c8.5-11.3,15.2-23.4,18.1-37.4c0.8-3.6,1-7.2,0.9-10.8c-0.1-2.6-0.7-3-3.2-2.3C213.9,154.6,212,156.4,210.2,158.7z"/>
			
				<path fill="#222222" stroke="#FFFFFF" stroke-width="20" stroke-linecap="round" stroke-linejoin="round" stroke-miterlimit="10" d="
				M357.8,237.1c-1.2,5.9-2.1,11.6-4.8,16.7c-1.2,2.3-3.7,3.7-6.2,4c-1.6,0.2-2.9,0.8-4.2,1.6c-3.2,1.9-6.3,4-9.7,5.5
				c-4.2,1.8-7.2,0.6-8.9-3.7c-0.8-1.8-1.2-3.8-2-5.6c-0.6-1.4,0.3-2,1.1-2.7c4.6-3.8,4.7-3.8,6.7,1.8c0.7,1.9,1.4,2.3,3,1.1
				c4-3,8.3-5.6,12.6-8c2.1-1.1,3.3-2.6,3.6-5c0.2-2,0.7-3.9,1.3-5.8c0.7-2.1,2.5-2.5,4.4-2.3C356.2,234.8,357.7,235.4,357.8,237.1z
				"/>
			
				<path fill="#222222" stroke="#FFFFFF" stroke-width="20" stroke-linecap="round" stroke-linejoin="round" stroke-miterlimit="10" d="
				M362.7,272c-2,0.1-3.1-0.6-4.2-1.4c-1.8-1.3-3-3.1-4.6-4.6c-1.4-1.5-1.1-2.2,0.4-3.3c2.9-2,2.9-2.1,4.5,1c0.8,1.6,1.7,2.1,3.4,1
				c5.4-3.4,10.8-6.8,16.2-10.1c1.1-0.7,1.6-1.6,1.8-2.9c0.7-3.2,1.5-6.4,2.3-9.5c0.4-1.8,1.2-3.3,3.5-2.8c2.4,0.6,4.2,2.8,3.7,4.9
				c-0.6,2.8-1.8,5.6-2,8.5c-0.4,6.4-4.2,9.9-9.4,12.7c-4.3,2.4-8.8,4.2-13.4,5.9C364,271.8,363.1,271.9,362.7,272z"/>
			
				<path fill="#222222" stroke="#FFFFFF" stroke-width="20" stroke-linecap="round" stroke-linejoin="round" stroke-miterlimit="10" d="
				M432.5,188c1.3-2.9,1.6-5.5,2.5-7.9c3.2-8.8,0-16.1-5-23.1c-1.2-1.7-2.2-3.4-1.5-5.5c0.7-2.2,2.1-3.7,4.4-3c2.1,0.6,2.6-0.4,3-2
				c0.6-2.5,1.2-4.9,1.8-7.4c0.4-1.6,0.3-2.8-1.1-4.2c-1.3-1.3-1.4-3.5-1.2-5.3c0.3-1.8,2.2-2.1,3.9-0.8c3.5,2.6,4.6,6.3,4.2,10.4
				c-0.4,5-1.2,10-3.2,14.6c-1.6,3.8-2,7.6-0.6,11.4c2.9,7.4-0.2,13.6-3.4,19.9C435.7,186.3,434.7,187.4,432.5,188z"/>
			
				<path fill="#222222" stroke="#FFFFFF" stroke-width="20" stroke-linecap="round" stroke-linejoin="round" stroke-miterlimit="10" d="
				M438.9,250.9c-0.4,3.8-1.3,7-2.3,10.2c-0.5,1.4-0.5,2.7,0.2,4.2c1.6,3.6-0.7,8.7-4.2,10.1c-0.2,0.1-0.4,0.2-0.5,0.1
				c-4.1-2-7.2,0.8-10.4,2.4c-3.2,1.6-5.8,1.6-8.3-1c-0.6-0.6-1.2-1.1-2-1.5c-2.3-1.2-2.4-2.4-0.7-4.5c1.7-2.1,2.8-2.5,4.4-0.2
				c1,1.4,2.2,1.4,3.5,0.4c0.1-0.1,0.2-0.1,0.2-0.1c8.5-4.7,8.5-4.6,11-14c0.8-2.8,1.2-5.7,2-8.5c0.3-1.1-0.2-3,1.6-3
				c1.9,0,3.9,0.6,4.7,2.6C438.7,249.1,438.7,250.2,438.9,250.9z"/>
			
				<path fill="#222222" stroke="#FFFFFF" stroke-width="20" stroke-linecap="round" stroke-linejoin="round" stroke-miterlimit="10" d="
				M408.9,241c2.3-0.1,3.8,1.7,3.4,3.7c-1,4.9-2.1,9.8-3.2,14.6c-0.3,1.3-1,2.5-0.1,3.9c0.4,0.7-0.1,1.4-0.5,2c-1.8,2.1-3,5-6.4,5.3
				c-0.9,0.1-1.8,1.1-2.6,1.9c-1.5,1.4-3.1,2.5-4.8,3.5c-3.8,2.2-5.4,1.8-7.9-1.8c-0.6-0.9-0.1-1.2,0.4-1.7
				c4.3-4.2,8.4-8.7,13.9-11.5c1.1-0.6,1.1-1.5,1.2-2.6c0.4-4.4,1.4-8.6,2.4-12.8C405.1,243,406.6,241.5,408.9,241z"/>
			
				<path fill="#222222" stroke="#FFFFFF" stroke-width="20" stroke-linecap="round" stroke-linejoin="round" stroke-miterlimit="10" d="
				M330.6,105.9c-0.6,8.3-3.1,15.8-8.9,21.9c-1.8,1.9-3.9,3.2-6.4,4.1c-4.3,1.6-8.2,0.2-10.4-3.9c-1.3-2.4-1-4.4,0.9-6.1
				c2.1-1.8,3.5-0.5,4.9,1c1,1,2,1,3.2,0.4c1.4-0.7,2.8-1.5,3.6-2.8c3.1-4.9,6.8-9.6,6.5-15.9c0-1.2-0.1-2.4,1-3.2
				c1.2-0.9,2.6-1.5,4.1-1.1c1.5,0.4,1.4,2,1.5,3.2C330.7,104.3,330.6,105.1,330.6,105.9z"/>
			
				<path fill="#222222" stroke="#FFFFFF" stroke-width="20" stroke-linecap="round" stroke-linejoin="round" stroke-miterlimit="10" d="
				M349.7,191.7c0.8,7.2-1.2,9.9-8,11.8c-0.5,0.1-0.9,0.6-1.3,1c-2.8,2.7-6.5,3.4-10.1,4.2c-1.3,0.3-2.4-0.6-3.4-1.5
				c-4.2-3.8-6.2-9.1-9.1-13.8c-0.7-1.2-0.5-2.7-0.1-4c0.8-3.2,1.8-6.5,2.5-9.7c0.4-1.6,1.3-1.7,2.3-1.1c1.1,0.6,3.8-0.6,3.2,2.4
				c-1.6,6.9,0.3,13,4,18.9c1.2,1.9,2.5,2.1,4.7,1.7C340.8,200.5,345.5,197,349.7,191.7z"/>
			
				<path fill="#222222" stroke="#FFFFFF" stroke-width="20" stroke-linecap="round" stroke-linejoin="round" stroke-miterlimit="10" d="
				M377.1,196.6c-1.5-3.4,0.8-5.4,3.5-7.2c0.6-0.4,1.5-1.1,2.3-0.5c0.8,0.5,1.1,1.5,0.9,2.4c-1,4.1-1.2,8.5-2.4,12.5
				c-1,3.5-3.1,7.4-7.3,8.9c-0.5,0.2-1.3,0.6-1.5,0.4c-1.7-1.7-2.4,0.1-3.2,0.9c-4.2,4.6-9.6,5.8-15.5,6.2c-1.7,0.1-3-0.4-3.8-2
				c-0.3-0.7-0.8-1.2-1.1-1.9c-3.4-5.5-3.4-5.5,2.4-8.1c0.7-0.3,1.4-0.8,1.8,0.3c1.5,4.5,5,4.5,8.6,3.6c4.6-1.1,8.5-3.5,12.1-6.4
				C376.5,203.6,377,200.2,377.1,196.6z"/>
			
				<path fill="#222222" stroke="#FFFFFF" stroke-width="20" stroke-linecap="round" stroke-linejoin="round" stroke-miterlimit="10" d="
				M348.1,136.9c-2,2.3-4.1,3.9-6.4,5.2c-3.7,2.1-8.4,0.6-10.4-3.1c-1.1-2.1-1-4.1,0.7-5.8c1.8-1.7,3.6-1.1,5.4,0.2
				c4.4,3.1,4.4,3.1,7.5-1.4c1-1.4,1.8-2.9,2.8-4.4c4-5.8,1.5-11.1-1.2-16.3c-0.6-1.2-1.6-0.9-2.6-0.6c-3.5,0.7-3.5,0.7-3.2-2.9
				c0.1-0.6,0.1-1.3,0.1-1.9c0-3.6,1.8-5.2,5.5-4.9c1.1,0.1,1.6,0.8,1.9,1.7c1.2,3.6,3.1,7,5.1,10.2c2.6,4.2,1.8,8.8,0.7,13.2
				c-0.5,2.1-3,3.1-4.6,4.5c-0.8,0.7-1.7,1.4-2.6,2c-0.9,0.7-1.8,1.4-1.5,2.7C345.5,136.7,346.8,136.6,348.1,136.9z"/>
			
				<path fill="#222222" stroke="#FFFFFF" stroke-width="20" stroke-linecap="round" stroke-linejoin="round" stroke-miterlimit="10" d="
				M482.9,274.2c1.2,0.9,1.3,2.3,1.8,3.4c0.6,1.4,1.2,1.7,2.3,0.5c3.8-4.1,7.9-8.1,7.3-14.5c-0.1-1.5,0.6-3.2,1.1-4.7
				c0.7-1.8,2-2.9,4-2.5c2,0.5,2.8,2.1,2.7,3.9c-0.2,3.2-0.9,6.3-0.9,9.5c0,2.1,1,4.1-0.1,6.2c-1.1,2-1.9,3.7-4.5,4.5
				c-4,1.4-7.4,4.2-10.6,7c-1.7,1.5-2.5,1.1-3.9-0.5c-2.9-3.5-4.9-6.7-0.6-10.5C482.2,276,482.5,275.1,482.9,274.2z"/>
			
				<path fill="#222222" stroke="#FFFFFF" stroke-width="20" stroke-linecap="round" stroke-linejoin="round" stroke-miterlimit="10" d="
				M482.7,259c-0.2,6.8-1.3,13.7-6.2,18.6c-3.8,3.8-8.8,6.5-13.3,9.7c-1.3,0.9-2.4,0.3-3.3-0.8c-1.4-1.6-2.1-3.7-2.5-5.7
				c-0.4-1.9,1.9-2.4,3-3.4c0.8-0.8,1.6-0.6,2.2,0.4c0.5,0.8,1.2,0.6,1.8,0c2.4-2.3,4.9-4.6,7.3-6.9c2.3-2.1,3-4.8,3.2-7.8
				c0.2-2,0.4-4,0.7-5.9c0.3-2,1.2-3.8,3.6-3.7c2.5,0.1,3.2,2,3.4,4.2C482.7,258.1,482.7,258.6,482.7,259z"/>
			
				<path fill="#222222" stroke="#FFFFFF" stroke-width="20" stroke-linecap="round" stroke-linejoin="round" stroke-miterlimit="10" d="
				M400.8,126.8c0.3-2.2-0.7-3.8-1.9-5.3c-1.4-1.8-2.6-3.7-2.3-6.2c0.2-1.7,0.9-3.2,2.7-3.7c1.9-0.6,3.2,0.4,4.2,1.8
				c2.1,2.9,2.7,6.4,2.7,9.8c-0.1,6-1.6,11.6-4.7,16.8c-2.4,4-6.1,6.4-10.2,8.2c-1.3,0.5-2,0.2-2.6-1c-0.6-1.2-1.3-2.5-2.2-3.4
				c-3-2.7-2.8-5.6-1.1-8.9c1.1-2.2,1.6-2.5,3.4-0.7c1.4,1.5,2.8,3.1,4,4.8c1.1,1.6,1.8,1.5,3.1,0.1
				C399.1,135.6,400.9,131.5,400.8,126.8z"/>
			
				<path fill="#222222" stroke="#FFFFFF" stroke-width="20" stroke-linecap="round" stroke-linejoin="round" stroke-miterlimit="10" d="
				M376.9,137.1c-0.6,3.9-1.1,7.7-5.1,9.9c-3.4,1.8-4.7,5.4-5.9,8.8c-1.1,3-5.2,4.9-8.3,4.1c-1.6-0.4-1.5-0.9-0.9-2.2
				c1.4-2.8,2.6-5.8,4-8.6c0.8-1.7,0.6-3.1-0.5-4.5c-1.1-1.4-2-3-2.9-4.6c-1.1-1.9-0.5-3.7,0.6-5.4c1.2-1.7,3.2-1.6,4.9,0.1
				c1.5,1.5,2,4.2,4.5,4.3c2.3,0.1,3.6-1.9,5.2-3.2c1.6-1.2,2.6,0.9,4,0.4C376.9,136.2,377.1,136.8,376.9,137.1z"/>
			
				<path fill="#222222" stroke="#FFFFFF" stroke-width="20" stroke-linecap="round" stroke-linejoin="round" stroke-miterlimit="10" d="
				M414.7,231.7c-2.1-0.4-3.4-1.6-4.9-2.7c-1.3-0.9-3.7-1.2-3.9-2.6c-0.2-1.3,1.5-2.8,2-4.3c0.9-2.4,1.8-2,3.3-0.4
				c2.1,2.4,2.5,2.4,4.1-0.3c3-5,6-10.1,8.8-15.3c1.1-2.1,1-4.6,1.2-6.9c0.1-1-0.4-2.7,1.6-2.3c1.5,0.3,3.3,1,2.7,2.7
				c-1.9,6-1.2,12.2-2.6,18.2c-0.3,1.4-1.2,2.7-2,3.8c-1.6,2.1-3.2,4.2-4.4,6.5C419.4,230.4,416.9,231,414.7,231.7z"/>
			
				<path fill="#222222" stroke="#FFFFFF" stroke-width="20" stroke-linecap="round" stroke-linejoin="round" stroke-miterlimit="10" d="
				M521.5,265.8c1,3.8-0.3,7.6,1,11.1c0.1,0.3,0,0.8-0.1,1c-1.4,2.6-3.1,5.2-5.3,7c-3.1,2.6-4.6,2.3-7.9-0.4c-0.4-0.3-0.9-0.7-1.3-1
				c-3.1-2.5-3.3-4.1-1.1-7.5c0.5-0.8,0.9-0.8,1.5-0.3c0.7,0.7,1.4,1.4,2.2,2.1c0.8,0.7,1.5,1.8,2.8,1c1.1-0.7,1.9-1.6,1.7-3.2
				c-0.8-5.3-0.3-10.7-0.4-16.1c0-1.2,0.1-2.4,0.4-3.5c0.5-1.7,1.6-3,3.5-2.8c2,0.2,3.1,1.6,3.1,3.5
				C521.5,259.9,521.5,263,521.5,265.8z"/>
			
				<path fill="#222222" stroke="#FFFFFF" stroke-width="20" stroke-linecap="round" stroke-linejoin="round" stroke-miterlimit="10" d="
				M450.9,264.4c0.4-5,1.2-9.9,2.6-14.7c0.5-1.7,1.7-3.1,3.9-2.6c2.4,0.5,3.3,2.3,2.9,4.5c-0.7,4.8-2,9.4-2.4,14.2
				c-0.3,3.3-1.7,6.3-4,7.6c-4.5,2.6-7.4,7-12,9.4c-2.1,1.2-3.3,1.3-4.6-0.6c-0.6-0.8-2.2-1.5-1.2-2.6c1-0.9,1.6-3.5,3.9-1.8
				c0.9,0.6,1.5-0.3,2-0.9c2.9-3.1,5.2-6.7,8.5-9.5C451.6,266.6,450.8,265.4,450.9,264.4z"/>
			
				<path fill="#222222" stroke="#FFFFFF" stroke-width="20" stroke-linecap="round" stroke-linejoin="round" stroke-miterlimit="10" d="
				M386.6,228.2c-2.4-0.1-4-1.5-5.5-2.9c-1.3-1.2-3.3-2.3-3.5-3.6c-0.2-1.8,2.6-1.6,3.7-2.8c1.1-1,2.2-2.2,3.7-0.3
				c0.6,0.8,1.7,0.3,2.5,0c3.1-1.1,5.4-3.6,8.8-4.2c1-0.2,1-1.4,1.1-2.3c0.8-4.8,1.6-9.7,2.3-14.5c0.2-1,0.2-2,0.9-2.8
				c0.6-0.7,1.4-1.4,2.3-1c0.8,0.4,0.2,1.3,0.1,2c-0.6,4.6-1.2,9.2-0.2,13.8c0.6,2.8-1.2,4.8-2.2,7.1c-2.3,5.7-6.4,9.4-12.2,11.1
				C387.9,227.9,387.2,228,386.6,228.2z"/>
			
				<path fill="#222222" stroke="#FFFFFF" stroke-width="20" stroke-linecap="round" stroke-linejoin="round" stroke-miterlimit="10" d="
				M455.6,207.9c-0.1,6.9-1.4,13.7-2.8,20.5c-1.3,6.5-8.4,9.2-13.9,5.6c-2-1.3-3.8-2.8-5.4-4.5c-0.8-0.8-1.1-1.5-0.4-2.6
				c0.8-1.1,1.7-0.7,2.3-0.1c3.1,3.5,6,0.7,9-0.3c1.2-0.4,1.5-1.5,1.7-2.6c0.8-3,1.5-6,2.3-9C449.5,211,451.4,209.2,455.6,207.9z"/>
			
				<path fill="#222222" stroke="#FFFFFF" stroke-width="20" stroke-linecap="round" stroke-linejoin="round" stroke-miterlimit="10" d="
				M381,316.8c2-2.1,3.5-3.8,4.6-5.8c0.7-1.2,1.6-1.5,2.6-0.5c3,2.6,5.8,2.3,8.7-0.1c0.3-0.3,0.8-0.5,1.2-0.7
				c5.5-1.8,8.8-5.1,8.9-11.3c0-2.4,2-3.3,4.1-2.5c2.7,0.9,3.3,2.1,2.5,4.5c-2.4,7.2-7,12.7-13.6,16
				C394.3,319.4,387.8,318.7,381,316.8z"/>
			
				<path fill="#222222" stroke="#FFFFFF" stroke-width="20" stroke-linecap="round" stroke-linejoin="round" stroke-miterlimit="10" d="
				M465.2,238.2c-0.6-0.1-1.8-0.2-3-0.5c-1.1-0.3-2.9-0.1-2.8-1.4c0-1.3,0.7-2.8,2.2-3.5c1.9-1,3.8-2.2,5.8-3
				c2.3-0.9,3.1-2.3,3.4-4.6c0.7-4.8,1.8-9.6,2.7-14.5c0.3-2,1.2-2.8,3.3-2.4c2.2,0.4,2.1,1.6,1.8,3.3c-0.6,3.8-0.9,7.6-0.4,11.4
				c1,7.1-5,12.6-9.1,14.9C468.1,238.5,467,238.3,465.2,238.2z"/>
			
				<path fill="#222222" stroke="#FFFFFF" stroke-width="20" stroke-linecap="round" stroke-linejoin="round" stroke-miterlimit="10" d="
				M472.7,323.8c-7.6-0.1-7.7-0.5-4.3-6.8c1-1.8,1.7-3.7,3.5-0.7c0.1,0.2,0.4,0.4,0.7,0.4c1.5,0.5,7.1-3.7,7.1-5.4
				c0-2.8-0.3-5.6,0.6-8.4c0.5-1.5,0.8-3.1,3-2.7c2.2,0.4,4.5,2.6,4.2,4.3c-0.5,3.1-0.4,6.1-0.2,9.2c0.1,1.7-0.4,3-1.8,4
				c-2.6,1.8-5.2,3.6-7.8,5.5C476.1,324.5,474.2,323.6,472.7,323.8z"/>
			
				<path fill="#222222" stroke="#FFFFFF" stroke-width="20" stroke-linecap="round" stroke-linejoin="round" stroke-miterlimit="10" d="
				M484.2,240.9c-1.3,0.1-1.9-0.1-1-1.6c1.6-2.6,2.4-6,5.9-7c1.2-0.4,1.6-1.7,1.9-2.8c1-3.9,2.1-7.9,3.1-11.8
				c0.5-2.1,2.7-3.7,4.8-3.3c2.2,0.3,3.4,2.2,2.8,4.7c-0.6,2.9-1.4,5.8-2.1,8.7c-0.3,1.4-0.5,2.7-0.4,4.2c0.2,2.4-2,3.9-3.7,5.4
				C494.1,238.7,486.3,240.9,484.2,240.9z"/>
			
				<path fill="#222222" stroke="#FFFFFF" stroke-width="20" stroke-linecap="round" stroke-linejoin="round" stroke-miterlimit="10" d="
				M327.5,226.6c-0.6,4.6-1.4,10-2.2,15.4c-0.5,3.5-3.4,5.2-5.9,6.7c-3,1.8-6,3.8-8.8,5.9c-0.8,0.6-1.7,1.1-2.6,1.5
				c-1.6,0.7-3.7,1.4-4.8-0.1c-1.3-1.7,0.3-3.4,1.5-4.8c0.7-0.9,1.8-1.3,2.8-1.6c9.4-2.7,13.4-9.6,14.8-18.6
				c0.3-2.1,0.4-4.3,0.7-6.5c0.1-0.8-0.6-2.3,1-2.3c1.5,0,2.9,0.5,3.4,2.1C327.6,224.9,327.5,225.4,327.5,226.6z"/>
			
				<path fill="#222222" stroke="#FFFFFF" stroke-width="20" stroke-linecap="round" stroke-linejoin="round" stroke-miterlimit="10" d="
				M462.2,179.5c-0.9,6.3-3.6,11.9-8.9,16.1c-1.7,1.3-2.9,1.3-4-0.9c-2-4.1-2.2-4.7,2.1-6.2c4.4-1.5,5.6-4.2,6.1-8.5
				c0.6-5.9,0.9-11.4-2.6-16.5c-0.9-1.3-1.8-2.8-3.2-3.3c-2.8-0.9-3.2-3.5-4.7-5.3c-0.6-0.7-0.5-1.6,0-2.3c0.5-0.8,1.3-0.4,2-0.3
				c2.7,0.4,4.7,2.1,6,4.3C458.9,163.7,461.3,171.2,462.2,179.5z"/>
			
				<path fill="#222222" stroke="#FFFFFF" stroke-width="20" stroke-linecap="round" stroke-linejoin="round" stroke-miterlimit="10" d="
				M446.6,325.4c-2.7-0.2-4.2-1.9-5.5-3.6c-0.7-0.8,0.4-1.4,0.9-1.6c2-0.8,2.7-4.8,5-3.3c2.8,1.9,4.2,1,6.2-0.8
				c2.8-2.4,4.3-5.3,4.5-8.9c0.1-2,0.7-3.2,3.1-3.1c1.6,0.1,3.4-1.8,4.6-0.7c1.2,1.1-0.3,3.1-0.3,4.7c0.3,7.4-4.5,11.3-10.3,14.2
				C452.1,323.6,449.2,324.4,446.6,325.4z"/>
			
				<path fill="#222222" stroke="#FFFFFF" stroke-width="20" stroke-linecap="round" stroke-linejoin="round" stroke-miterlimit="10" d="
				M563.6,231.8c1.3,0.8,2.1,1.9,2.7,3c1.6,2.6,4,3.1,6.7,2.8c1.6-0.2,1.6-1.5,1.4-2.4c-1.2-4.3,1.2-8.2,1-12.4
				c-0.1-1.2,0.5-1.4,1.5-1c2.1,0.9,3.6,2.3,3.4,4.7c-0.6,6.2-1.4,12.4-2.1,18.6c-0.3,2.3-1.5,3-3.8,2c-2.5-1.1-5.1-1.9-7.2-3.8
				C563.9,240.2,561.8,236.7,563.6,231.8z"/>
			
				<path fill="#222222" stroke="#FFFFFF" stroke-width="20" stroke-linecap="round" stroke-linejoin="round" stroke-miterlimit="10" d="
				M434.8,117.1c0.5,3.7-0.4,7-4,8.4c-3.8,1.5-7.8,2.7-11.6-0.6c-0.8-0.7-1.2-1.1-0.6-2.2c0.7-1.1,0.7-2.4,0.6-3.7
				c0-0.8,0.1-1.5,0.9-1.9c0.9-0.4,1.4,0.3,1.8,0.9c0.8,1.2,1.7,2,3.4,1.4c1.6-0.6,2.2-1.6,2.4-3.2c0.4-2.8,0.6-5.3-2.8-6.4
				c-0.9-0.3-1.5-1.1-2-1.8c-0.3-0.4-0.7-0.9-0.5-1.5c0.3-1,1-0.3,1.6-0.3c0.4,0,0.7,0,1.1-0.1c6.4-0.9,8,0.2,9.2,6.7
				C434.6,114.2,434.6,115.6,434.8,117.1z"/>
			
				<path fill="#222222" stroke="#FFFFFF" stroke-width="20" stroke-linecap="round" stroke-linejoin="round" stroke-miterlimit="10" d="
				M322.4,175.3c-3.8,0-8.8-4.7-9-8.2c-0.1-1.8,0.4-3.3,2.1-4.1c1.7-0.8,3,0,4.1,1.2c3.2,3.1,3.8,3.2,7.4,0.8c2.9-2,5.4-4.3,6.8-7.6
				c0.5-1.1,5.1-1.9,5.8-0.9c0.6,0.7,0,1.6-0.3,2.3c-2.1,4.4-5.2,8.1-9,11.1c-2.2,1.8-5.2,2.6-6.9,5.1
				C323.2,175.3,322.6,175.3,322.4,175.3z"/>
			
				<path fill="#222222" stroke="#FFFFFF" stroke-width="20" stroke-linecap="round" stroke-linejoin="round" stroke-miterlimit="10" d="
				M428.7,134.7c0,6-1.9,10.8-7.9,13.4c-2.2,1-4.4,1.9-5.9,4.1c-1.2,1.7-4.8,0.8-5.7-1.1c-0.8-1.6-1.6-3.3-1.3-5.2
				c0.4-2.8,2.8-3.9,5.2-2.6c2.4,1.3,6.3-0.2,7-2.8c0.6-2.1,1-4.2,1.4-6.4c0.6-3.1,1.2-3.7,4.3-3.4
				C428.1,131,428.8,131.9,428.7,134.7z"/>
			
				<path fill="#222222" stroke="#FFFFFF" stroke-width="20" stroke-linecap="round" stroke-linejoin="round" stroke-miterlimit="10" d="
				M533.1,273.7c1.3,1.1,1.4,2.4,2.1,3.5c0.6,1,0.8,2.7,2.5,2.3c1.6-0.4,2.7-1.5,2.7-3.3c0-4,0-8-0.1-12c0-0.8-0.1-1.6,0-2.4
				c0.3-1.8,1.1-3.1,3.1-3.3c2.1-0.1,3.3,1.1,3.6,3c0.7,3.8,0.5,7.6-1.2,11.1c-0.9,1.9-1.8,3.8-1.4,6c0.4,2.6-1,4.1-2.8,5.4
				c-1,0.7-2.2,1.2-3.4,1.6c-1.6,0.5-3.4,1.9-4.8,0.2c-1.4-1.8-3-3.8-1.7-6.7C532.4,277.5,532.6,275.7,533.1,273.7z"/>
			
				<path fill="#222222" stroke="#FFFFFF" stroke-width="20" stroke-linecap="round" stroke-linejoin="round" stroke-miterlimit="10" d="
				M472.6,156c7.9,10.1,13,20.7,8.6,33.6c-0.9,2.6-4.5,4.7-7.1,4.1c-1.4-0.3-0.9-1.3-0.6-2.1c0.7-1.6,1.8-3.1,2.4-4.8
				c3-8.1,1.3-15.5-3.3-22.2C470.7,161.5,471.3,159.1,472.6,156z"/>
			
				<path fill="#222222" stroke="#FFFFFF" stroke-width="20" stroke-linecap="round" stroke-linejoin="round" stroke-miterlimit="10" d="
				M563.8,164.7c-0.2,4.4-1.3,9-3,13.4c-0.8,2-2.3,3.6-4.6,3c-2.3-0.6-2.8-2.8-2.4-4.9c0.5-2.7,1.4-5.3,2-7.9c0.7-3,1-5.9-0.8-8.7
				c-0.7-1.2-0.8-2.6-0.4-4c0.6-1.9,2.1-2.4,3.8-1.3C562.5,157.1,563.7,159.4,563.8,164.7z"/>
			
				<path fill="#222222" stroke="#FFFFFF" stroke-width="20" stroke-linecap="round" stroke-linejoin="round" stroke-miterlimit="10" d="
				M548.8,167.8c0,1.4-0.3,4.2-1,7c-0.5,2.2-1.6,3.7-4.2,3.3c-2.5-0.3-3-2.2-3-4.2c0-1.6,0.3-3.3,0.5-4.9c0.6-3.8,0.5-7.4-2-10.6
				c-0.5-0.6-0.8-1.5-0.9-2.2c-0.3-1.8,0.1-3.5,2-4.4c1.7-0.8,3.2-0.1,4.4,1.2C547.6,156,549,160.7,548.8,167.8z"/>
			
				<path fill="#222222" stroke="#FFFFFF" stroke-width="20" stroke-linecap="round" stroke-linejoin="round" stroke-miterlimit="10" d="
				M223.9,194.7c-0.2,0.7-0.4,1.8-0.8,2.8c-2.8,8.9-7.7,16.8-12.8,24.5c-1,1.6-2.5,2.3-4.2,1.1c-1.6-1.1-1.3-2.7-0.4-4.1
				c2.5-4,5.1-7.9,7.5-12c2.4-4.1,4.2-8.4,5.6-13c0.5-1.5,1.4-2.6,3.2-2.3C223.4,192,223.8,193.1,223.9,194.7z"/>
			
				<path fill="#222222" stroke="#FFFFFF" stroke-width="20" stroke-linecap="round" stroke-linejoin="round" stroke-miterlimit="10" d="
				M500.4,180.3c-0.3,3.3-0.7,6.7-1.4,9.9c-0.6,2.6-1.9,3.3-4.2,2.3c-0.1,0-0.2,0-0.3-0.1c-3.8-1.1-3.7-1.1-2.7-4.9
				c1.2-4.8,2.2-9.5-0.8-14.2c-1.4-2.1,0.1-4.9,2.5-5.7c0.7-0.2,1.2,0,1.7,0.5C499.4,172.1,500.6,174.8,500.4,180.3z"/>
			
				<path fill="#222222" stroke="#FFFFFF" stroke-width="20" stroke-linecap="round" stroke-linejoin="round" stroke-miterlimit="10" d="
				M521.3,187.3c-0.1,1.6-0.3,3.6-0.5,5.7c-0.2,2-1.3,3.4-3,4.3c-1.4,0.7-2.8,1.4-4.4,0.5c-1.6-1-0.6-2.5-0.4-3.7
				c0.8-5.2,1.5-10.4-1.2-15.4c-1.1-2.1-0.2-4.7,1.6-5.4c2.3-1,3.8,0.2,5,2C520.8,178.7,521.1,182.7,521.3,187.3z"/>
			
				<path fill="#222222" stroke="#FFFFFF" stroke-width="20" stroke-linecap="round" stroke-linejoin="round" stroke-miterlimit="10" d="
				M420.3,323.2c-1.3-0.3-3.3,0.2-4.3-1.7c-0.8-1.7-0.3-3.4,0.6-4.9c0.7-1.1,1.5-1.6,2.6-0.4c0.9,1,1.9,0.9,2.9,0.3
				c2.2-1.3,4.7-2,7.1-2.5c3.1-0.7,5.2-2.5,6.4-5.3c0.6-1.4,1.6-2.4,2.9-3.1c0.7-0.4,1.6-1.4,2.4-0.6c0.8,0.8,1.5,2.1,0.6,3.2
				c-4.2,6-7.3,13.2-16,14.1C423.9,322.5,422.3,323.4,420.3,323.2z"/>
			
				<path fill="#222222" stroke="#FFFFFF" stroke-width="20" stroke-linecap="round" stroke-linejoin="round" stroke-miterlimit="10" d="
				M361.6,169.4c-0.5,3-2.9,4.6-5,5.9c-3.3,2.1-6.7,4.3-10.5,5.5c-1.2,0.4-2.2,0.7-3.3-0.2c-2.3-1.7-4.7-3.4-7-5.1
				c-0.4-0.3-0.9-0.8-0.9-1c0.8-2.4,3.1-3.6,4.6-5.5c0.9-1.2,1.8,0.1,2.5,0.7c7.7,5.5,5.8,5.5,13.7,0.4c1.4-0.9,2.9-1.4,4.5-1.7
				C361.1,168.3,361.8,168.4,361.6,169.4z"/>
			
				<path fill="#222222" stroke="#FFFFFF" stroke-width="20" stroke-linecap="round" stroke-linejoin="round" stroke-miterlimit="10" d="
				M625.8,231.4c0,3.9-0.1,6.8-3.1,8.6c-0.7,0.4-0.8,1.1-0.8,1.9c0,4.9-2.1,9.1-4.3,13.3c-0.6,1.1-1.5,2.1-2.8,2.5
				c-1,0.3-2,0.1-2.8-0.7c-0.9-0.9-0.2-1.7,0.2-2.5c2.1-4,4.1-8.1,4.1-12.8c0-0.4,0.1-0.9,0.5-1.2c4.8-3.3,3.8-8.5,4.2-13.3
				c0.1-1-0.8-2.4,0.5-2.9c1.5-0.5,2.5,0.7,3.2,2C625.7,228.1,625.9,230.2,625.8,231.4z"/>
			
				<path fill="#222222" stroke="#FFFFFF" stroke-width="20" stroke-linecap="round" stroke-linejoin="round" stroke-miterlimit="10" d="
				M566.4,264.1c-0.1,7.1-2.3,12.7-6.6,17.5c-0.9,1-1.7,1.3-2.9,0.7c-0.2-0.1-0.5-0.2-0.7-0.4c-1.6-0.7-3.2-1.4-4.9-2.2
				c1-1.7,1.9-3.5,2.9-5.2c0.6-1.2,1.3-1.8,2.4-0.4c0.4,0.5,0.8,1.1,1.6,0.8c0.7-0.3,0.5-1.1,0.6-1.7c0.1-2.5,0.2-5.1,0.4-7.6
				c0.1-1.1,0.2-2.2,0.4-3.2c0.5-1.8,1.5-3.2,3.6-3c2.1,0.1,2.9,1.6,3.2,3.5C566.4,263.4,566.4,264.1,566.4,264.1z"/>
			
				<path fill="#222222" stroke="#FFFFFF" stroke-width="20" stroke-linecap="round" stroke-linejoin="round" stroke-miterlimit="10" d="
				M491.9,153.7c-0.2,2.8-0.3,6.2-2.2,9.3c-0.8,1.2-1.9,3.2-3.5,2.3c-1.6-0.9-1.6-2.8-1.1-4.8c1.5-5.5,0.6-10.8-3.2-15.2
				c-1.4-1.7-1.9-2.7,0.1-4c0.6-0.4,1.2-1.2,1.5-1.9c1-2.5,1.9-2.2,3.4-0.3C490.7,144.1,491.9,147.1,491.9,153.7z"/>
			
				<path fill="#222222" stroke="#FFFFFF" stroke-width="20" stroke-linecap="round" stroke-linejoin="round" stroke-miterlimit="10" d="
				M530.5,220.5c-0.1,0.9-0.2,2.7-0.6,4.3c-0.8,3.6-0.3,7.1,1.3,10.3c0.5,1.1,0.6,2-0.1,3c-1.1,1.7-2,3.5-3.1,5.1
				c-2.5,3.7-3.5,4-7.6,2.3c-1.2-0.5-2.8-0.7-3.1-2.2c-0.2-1,3.4-4.6,4.5-4.6c1.5,0.1,1.9-0.8,2.1-2c1.2-5.8,3.4-11.5,3.8-17.5
				c0-0.8-0.5-2.5,1.4-2.4C530.8,217.1,530.6,218.5,530.5,220.5z"/>
			
				<path fill="#222222" stroke="#FFFFFF" stroke-width="20" stroke-linecap="round" stroke-linejoin="round" stroke-miterlimit="10" d="
				M517.2,231c-0.8,2.8-2.2,5.2-4.3,7.1c-2.3,2.1-5,3.9-8,5c-0.9,0.3-2.1,1-2.7-0.2c-0.5-1-0.9-2.2,0.1-3.3c1.8-1.8,3.3-3.9,5.3-5.4
				c1.6-1.3,2.3-2.7,2.4-4.6c0.2-2.9,0.4-5.8,0.5-8.7c0-3.2,2.8-2.1,4.2-2.5c1.3-0.4,1,1.6,1,2.5C515.8,224.3,516.1,227.7,517.2,231
				z"/>
			
				<path fill="#222222" stroke="#FFFFFF" stroke-width="20" stroke-linecap="round" stroke-linejoin="round" stroke-miterlimit="10" d="
				M531.1,162.6c0,1.9,0,3.8,0,5.7c0,0.6,0,1.3-0.7,1.7c-2,1-6.6-1.7-6.6-4c0.1-4.7-0.1-9.3-1.5-13.8c-0.2-0.6-0.2-1.3-0.1-1.9
				c0.1-1.9,0.9-3.4,2.9-3.8c1.9-0.4,3.1,0.8,3.8,2.4c1,2.3,1.6,4.8,1.9,7.4c0.3,2.1,0.4,4.2,0.5,6.2
				C531.2,162.6,531.1,162.6,531.1,162.6z"/>
			
				<path fill="#222222" stroke="#FFFFFF" stroke-width="20" stroke-linecap="round" stroke-linejoin="round" stroke-miterlimit="10" d="
				M541.5,190.2c0.4,5.4-1.7,10.4-4.9,15.1c-0.6,0.9-1.2,1.7-2.4,1.3c-1.3-0.4-1.6-1.5-1.5-2.6c0.3-2.4,0.8-4.8,1.3-7.2
				c0.7-3.4,0.9-6.8,0-10.2c-0.1-0.4-0.2-0.9-0.2-1.3c0-2.1,0.6-3.9,2.8-4.3c2.3-0.4,3.5,1.1,4.1,3.1
				C541.5,185.7,541.5,187.7,541.5,190.2z"/>
			
				<path fill="#222222" stroke="#FFFFFF" stroke-width="20" stroke-linecap="round" stroke-linejoin="round" stroke-miterlimit="10" d="
				M316.7,140.9c-0.2,3.3-0.9,7.3-2.8,11c-0.9,1.8-1.7,3.6-4.2,3.7c-0.7,0-1.4,0.8-2,1.3c-1.7,1.4-3.6,2.5-5.7,2.9
				c-1,0.2-2,0.4-2.5-0.8c-0.6-1.4,0.6-1.7,1.4-2.1c5.2-2.9,8.4-7.4,10.5-12.8c1-2.7,1.8-5.6-0.4-8.2c-0.7-0.9,0.1-1.4,0.7-1.7
				c1.9-0.9,3.3-0.1,4.3,1.6C316.7,137.2,316.7,138.6,316.7,140.9z"/>
			
				<path fill="#222222" stroke="#FFFFFF" stroke-width="20" stroke-linecap="round" stroke-linejoin="round" stroke-miterlimit="10" d="
				M581.8,267c0.3,3.4-0.3,7-2.8,10.2c-1.1,1.4-2.2,2.1-3.8,0.7c-0.5-0.5-1.2-0.8-1.9-1.1c-3-1.5-3.3-2-2.3-5.2
				c0.1-0.4,0.1-1.1,0.7-1c2.7,0.6,2.1-1.6,2.4-2.8c0.4-1.6,0.4-3.2,0.8-4.8c0.4-2,1.4-3.7,3.8-3.5c2.4,0.2,3.1,2,3.2,4
				C581.8,264.4,581.8,265.4,581.8,267z"/>
			
				<path fill="#222222" stroke="#FFFFFF" stroke-width="20" stroke-linecap="round" stroke-linejoin="round" stroke-miterlimit="10" d="
				M556.1,185.4c-0.5,5.5-1.2,10.9-3,16.1c-1,2.8-2.4,5.3-4.5,7.4c-0.9,0.9-2.2,1.5-3.2,0.8c-1.2-0.8-0.1-2,0.3-2.9
				c1.9-3.8,3.6-7.5,4.4-11.7c0.5-2.3,0.6-4.7,0.1-7c-0.3-1.2-0.4-2.5,0.1-3.8c0.6-1.7,1.9-2.7,3.8-2.3
				C555.9,182.3,556.5,183.6,556.1,185.4z"/>
			
				<path fill="#222222" stroke="#FFFFFF" stroke-width="20" stroke-linecap="round" stroke-linejoin="round" stroke-miterlimit="10" d="
				M634.9,231.1c-0.5,2.4-0.6,5.4-2.2,8.1c-0.9,1.5-1.2,3,0.3,4.4c0.8,0.8,0.8,1.7,0.5,2.8c-1.2,4-3.9,6.9-7.2,9.3
				c-1.3,0.9-1.8,0.2-1.9-1.1c-0.1-0.9,0-2,0.6-2.6c2.8-2.7,2.5-7,5.3-9.7c0.7-0.6,0.1-1.2-0.4-1.6c-1-0.9-1.5-2.1-1.4-3.4
				c0.3-3.3,0.9-6.6,1-10c0-1.1,0.7-2.2,1.8-2.5c1.3-0.3,1.8,1,2.4,1.8C634.5,227.9,634.9,229.1,634.9,231.1z"/>
			
				<path fill="#222222" stroke="#FFFFFF" stroke-width="20" stroke-linecap="round" stroke-linejoin="round" stroke-miterlimit="10" d="
				M583.2,198.6c-0.1,3-0.3,6-0.9,8.9c-0.5,2.3-1.6,3.3-3.9,2.5c-0.5-0.2-1.1-0.3-1.6-0.3c-1.7-0.2-2.4-0.7-1.5-2.6
				c2.1-4,2.4-8.3,1.4-12.7c-0.3-1.3-0.3-2.5,0.2-3.7c0.6-1.4,1.6-2.2,3.2-2.2c1.6,0.1,2.4,1,2.8,2.5
				C583.5,193.6,583.5,196.1,583.2,198.6z"/>
			
				<path fill="#222222" stroke="#FFFFFF" stroke-width="20" stroke-linecap="round" stroke-linejoin="round" stroke-miterlimit="10" d="
				M490.4,117.4c6.3,1.3,7.1,2.3,7,8.5c-0.1,2.6-0.4,5.2-0.8,7.8c-0.2,1.2-0.7,2.6-2.2,2.8c-1.3,0.2-2.2-0.6-3-1.5
				c-1.5-1.5-2.2-3.1-1.8-5.4C490.3,125.8,489.2,121.6,490.4,117.4z"/>
			
				<path fill="#222222" stroke="#FFFFFF" stroke-width="20" stroke-linecap="round" stroke-linejoin="round" stroke-miterlimit="10" d="
				M569.2,162.8c2.4,1.7,4.7,3.5,7.1,5.2c0.7,0.6,0.6,1.5,0.5,2.3c-0.4,3.5-1.4,6.8-2.8,9.9c-0.6,1.3-1.5,3-3.1,2.4
				c-1.7-0.7-3.9-1.5-3.8-4.1c0.1-1.1,0.3-2.2,0.6-3.2C569.1,171.4,570.2,167.4,569.2,162.8z"/>
			
				<path fill="#222222" stroke="#FFFFFF" stroke-width="20" stroke-linecap="round" stroke-linejoin="round" stroke-miterlimit="10" d="
				M446.7,126.6c-0.1-1.4,0-2.4,0.6-3c3.1-3.5,3.1-7.8,3.6-12c0.1-0.7-0.2-1.6,0.6-1.9c0.9-0.4,1.6,0.1,2.2,0.6
				c3,2.2,4.1,5.3,2.4,8.5c-1.1,2.2-0.5,4.9-2.2,6.9c-0.7,0.8-1.2,1.8-2,2.6c-1,1-2.1,2.5-3.6,1.9
				C446.8,129.5,446.9,127.6,446.7,126.6z"/>
			
				<path fill="#222222" stroke="#FFFFFF" stroke-width="20" stroke-linecap="round" stroke-linejoin="round" stroke-miterlimit="10" d="
				M596.7,206.4c0.1,3.2-0.5,6.1-1.9,8.9c-0.5,0.9-1.1,1.7-2.1,1.9c-1.3,0.3-2.7,1.1-3.8-0.3c-1-1.2-0.8-2.5-0.2-3.8
				c1.5-3,2-6.2,1.3-9.5c-0.2-1.1-0.1-2.2,0.1-3.2c0.4-1.6,1.4-2.5,3-2.6c1.8-0.1,2.6,1.1,2.9,2.7
				C596.3,202.4,596.5,204.4,596.7,206.4z"/>
			
				<path fill="#222222" stroke="#FFFFFF" stroke-width="20" stroke-linecap="round" stroke-linejoin="round" stroke-miterlimit="10" d="
				M588.2,248.1c-1.3,0.1-1.8-0.5-1.1-1.9c2.8-5.9,3.9-12.2,4.7-18.6c0.4-3,2.5-5,4.1-7.2c0.3-0.4,0.9-0.8,1.4-0.2
				c0.5,0.5,0.6,1,0.5,1.7c-0.8,4.4-1,9-3.7,13c-0.6,1-0.3,2.6-0.3,4c0,2.3-0.7,4.5-1.6,6.5C591.5,247,590.2,248,588.2,248.1z"/>
			
				<path fill="#222222" stroke="#FFFFFF" stroke-width="20" stroke-linecap="round" stroke-linejoin="round" stroke-miterlimit="10" d="
				M508.1,155.4c-0.1,3.2-0.6,6-2.6,8.2c-0.7,0.8-1.4,2.2-2.9,1.3c-1.4-0.8-2.8-1.7-2.4-3.8c0.6-2.8,1.1-5.7,1.1-8.6
				c-0.1-1.9-0.1-3.8-1.4-5.4c-1-1.3-0.4-1.7,1-1.7c2.7-0.1,6,2.6,6.6,5.8C507.9,152.7,508,154.3,508.1,155.4z"/>
			
				<path fill="#222222" stroke="#FFFFFF" stroke-width="20" stroke-linecap="round" stroke-linejoin="round" stroke-miterlimit="10" d="
				M291,126.7c1.5-4,4-7.5,5.3-11.5c0.5-1.6,0.8-3-0.5-4.5c-1.3-1.6,0.1-3.1,1.1-4.3c1.1-1.3,2.5-2.1,4.3-1.9c0.3,0,0.6,0.6,0.7,1
				C305,113.8,299.7,123.9,291,126.7z"/>
			
				<path fill="#222222" stroke="#FFFFFF" stroke-width="20" stroke-linecap="round" stroke-linejoin="round" stroke-miterlimit="10" d="
				M382.8,124.4c-0.1,2.5-0.6,4.1-2.6,4.7c-2,0.6-3.2-0.6-4.2-2.2c-1.3-2.3-2.6-4.6-3.8-6.9c-0.8-1.5-0.9-3.2,0-4.7
				c1-1.8,3.2-2.6,4.6-1.2C379.7,117.2,382,120.7,382.8,124.4z"/>
			
				<path fill="#222222" stroke="#FFFFFF" stroke-width="20" stroke-linecap="round" stroke-linejoin="round" stroke-miterlimit="10" d="
				M536.9,247c5.8-7,6.4-15.5,7-24.1c1.6,0.6,1.3,1.6,1.5,2.3c0.5,2,0.5,4,2.1,5.8c1.5,1.6,1.2,9.8-0.1,11.4
				c-0.2,0.2-0.4,0.5-0.6,0.6C543.5,244.3,540.2,245.6,536.9,247z"/>
			
				<path fill="#222222" stroke="#FFFFFF" stroke-width="20" stroke-linecap="round" stroke-linejoin="round" stroke-miterlimit="10" d="
				M476.7,134.6c-0.8-3-2.1-5.1-3.3-7.2c-1-1.7,0.1-3.7,0.1-5.6c0-3.2,0.8-6.3,0.4-9.5c5.1,0.8,7.2,3.8,6.4,8.6
				c-0.6,3.5-1.1,7-2.2,10.4C477.8,132.2,477.4,133.1,476.7,134.6z"/>
			
				<path fill="#222222" stroke="#FFFFFF" stroke-width="20" stroke-linecap="round" stroke-linejoin="round" stroke-miterlimit="10" d="
				M568.4,195.4c-0.1,3.9-0.8,7.7-1.7,11.5c-0.3,1-0.7,1.9-1.7,2.3c-1.2,0.5-2.6,1.7-3.8,0.9c-1.2-0.8-0.2-2.4,0.2-3.5
				c1.8-5.7,3.2-11.3,2.4-17.4c-0.1-1.1-0.4-2.7,1-3c1.2-0.2,1.9,1.2,2.5,2.2C568.6,190.6,568.3,193,568.4,195.4z"/>
			
				<path fill="#222222" stroke="#FFFFFF" stroke-width="20" stroke-linecap="round" stroke-linejoin="round" stroke-miterlimit="10" d="
				M464.9,160.4c-1.2-4.7-1.6-8.8-0.6-12.8c1.5-5.6-1.3-9.8-4.5-13.6c-2-2.3-2.3-3.7-0.3-5.8c0.5-0.5,0.5-1.3,1.3-1.7
				C467.4,137,469.5,147.9,464.9,160.4z"/>
			
				<path fill="#222222" stroke="#FFFFFF" stroke-width="20" stroke-linecap="round" stroke-linejoin="round" stroke-miterlimit="10" d="
				M613.6,205.9c-0.1,3.6-0.8,7-2,10.3c-0.6,1.7-3.3,2.7-4.9,2c-1-0.4-0.8-1-0.5-1.7c2.2-5.1,2.9-10.2,1-15.6
				c-0.4-1.1,0.1-2,1.2-2.4c1.4-0.6,2.7-0.3,3.7,0.9C613.7,201.3,613.6,203.6,613.6,205.9z"/>
			
				<path fill="#222222" stroke="#FFFFFF" stroke-width="20" stroke-linecap="round" stroke-linejoin="round" stroke-miterlimit="10" d="
				M385.4,115.7c1.2-3.6,2.5-7.4,3.6-11.3c0.4-1.5,2.3-1.7,3.8-1.3c1.5,0.4,2.1,1.6,1.9,3.2c-0.6,4.2-2.1,8-3.6,11.9
				c-0.4,1.2-0.8,2.5-2.5,2.3c-1.7-0.2-2.5-1.3-2.9-2.8C385.5,117.2,385.5,116.6,385.4,115.7z"/>
			
				<path fill="#222222" stroke="#FFFFFF" stroke-width="20" stroke-linecap="round" stroke-linejoin="round" stroke-miterlimit="10" d="
				M358.9,109.6c0.1-0.3,0.2-1,0.5-1.5c1.4-2.2,2.8-4.4,4.4-6.6c0.9-1.3,2.3-1.8,3.9-1.3c1.4,0.5,2.1,1.7,2.3,3.1
				c0.4,2.7-3.9,9.9-6.4,10.9C361,115.3,358.9,113.3,358.9,109.6z"/>
			
				<path fill="#222222" stroke="#FFFFFF" stroke-width="20" stroke-linecap="round" stroke-linejoin="round" stroke-miterlimit="10" d="
				M613.1,227.9c-0.3,4.7-2.1,8.5-4.8,11.9c-1.3,1.6-3.1,1.9-4.8,0.4c-1.7-1.4-0.9-2.8,0.3-4.2c2.8-3.4,5.4-7,5.1-11.9
				c-0.1-2,1.5-1.2,2.3-0.7C612.9,224.5,613,226.4,613.1,227.9z"/>
			
				<path fill="#222222" stroke="#FFFFFF" stroke-width="20" stroke-linecap="round" stroke-linejoin="round" stroke-miterlimit="10" d="
				M586.4,176.7c-0.6,2.2-0.8,4.7-2.5,6.6c-1.3,1.5-2.9,2.3-4.8,1.3c-2-1-2.6-2.9-1.9-4.9c1-2.6,2.3-5.1,2.2-8c0-0.6,0.4-1.1,1-0.7
				c1.9,1.3,3.7,2.6,5.5,3.9C586.5,175.3,586.4,176,586.4,176.7z"/>
			
				<path fill="#222222" stroke="#FFFFFF" stroke-width="20" stroke-linecap="round" stroke-linejoin="round" stroke-miterlimit="10" d="
				M636.6,208.4c0,3.1-0.3,6.2-1,9.2c-0.2,0.8-0.1,1.9-1.4,2c-1.2,0.1-2.1-0.5-2.7-1.4c-0.9-1.5-0.9-3.1-0.5-4.7
				c0.9-3.4,1.7-6.9,1.6-10.4c0-0.7,0.3-1.4,0.6-2c0.5-0.8,1.1-1.6,2.1-1.4c1.1,0.2,0.7,1.3,0.8,2.1
				C636.3,203.9,636.5,206.1,636.6,208.4z"/>
			
				<path fill="#222222" stroke="#FFFFFF" stroke-width="20" stroke-linecap="round" stroke-linejoin="round" stroke-miterlimit="10" d="
				M514.1,131.8c-0.7,2.2-1.5,4.5-3.5,5.9c-1.3,0.9-3,0.9-4.3-0.1c-1.4-1.1-1.6-2.6-0.9-4.2c1.1-2.5,2.1-5,2.8-7.6
				c0.3-1.3,1-1.4,1.9-0.7C512.2,126.8,513.4,129.1,514.1,131.8z"/>
			
				<path fill="#222222" stroke="#FFFFFF" stroke-width="20" stroke-linecap="round" stroke-linejoin="round" stroke-miterlimit="10" d="
				M587.6,267.5c-0.1-2.1,0-4.2-0.8-6.2c-0.4-0.9-0.7-1.7,0.2-2.4c0.8-0.7,1.8-0.9,2.8-0.6c1,0.3,1.7,1,2.2,1.9
				c1.5,2.8,0.9,10.1-1.1,12.5c-0.5,0.6-0.9,1.1-1.7,1.3c-1.4,0.2-2.8,0.6-2.1-1.9C587.5,270.7,587.4,269.1,587.6,267.5z"/>
			
				<path fill="#222222" stroke="#FFFFFF" stroke-width="20" stroke-linecap="round" stroke-linejoin="round" stroke-miterlimit="10" d="
				M518.1,308.6c0-0.9,0-1.8,0-2.7c0.1-2.8,2.2-4.5,5-4c0.8,0.1,1.5,0.5,1.8,1.1c1.1,2.7,0.7,5.6-0.1,8.1c-0.7,2.1-3.5,2.6-5.7,3.2
				c-1,0.3-1.1-0.7-1.2-1.4c-0.1-1.4,0-2.9,0-4.3C518.1,308.6,518.1,308.6,518.1,308.6z"/>
			
				<path fill="#222222" stroke="#FFFFFF" stroke-width="20" stroke-linecap="round" stroke-linejoin="round" stroke-miterlimit="10" d="
				M505,301.9c2.2,0,3,1,2.7,2.9c-0.7,4.3-3.7,6.8-7.2,8.7c-1.3,0.7-2.4,0.1-2.1-1.6c0.5-2.6,1-5.2,1.7-7.7
				C500.9,301.6,503.4,302.4,505,301.9z"/>
			
				<path fill="#222222" stroke="#FFFFFF" stroke-width="20" stroke-linecap="round" stroke-linejoin="round" stroke-miterlimit="10" d="
				M608.9,247.9c-0.7,3.2-2.1,6.1-4.4,8.6c-1.3,1.4-3.1,1.5-4.6,0.1c-1.6-1.6-1.1-2.9,0.5-4.3c2-1.8,3.4-4,4.4-6.5
				c0.3-0.8,0.1-2.3,1.5-2.2c1.3,0.1,2,1.2,2.3,2.4C608.8,246.5,608.8,247.2,608.9,247.9z"/>
			
				<path fill="#222222" stroke="#FFFFFF" stroke-width="20" stroke-linecap="round" stroke-linejoin="round" stroke-miterlimit="10" d="
				M616.6,215.5c0.9-3.8,1.7-7.2,2.6-10.6c0.4-1.6,1.5-2,2.9-1c2,1.4,3.7,3,2.2,5.7c-0.2,0.3-0.2,0.7-0.4,1
				c-0.8,1.6-1.3,3.5-2.4,4.8C620.1,217.3,618.5,214.3,616.6,215.5z"/>
			
				<path fill="#222222" stroke="#FFFFFF" stroke-width="20" stroke-linecap="round" stroke-linejoin="round" stroke-miterlimit="10" d="
				M410.5,120.2c-1-3-1.8-5.2-2.5-7.4c-0.9-2.9,0.8-5.3,1.8-7.7c0.5-1.2,2.7-0.7,3.1,0.7C414.1,110.7,413,115.2,410.5,120.2z"/>
			
				<path fill="#222222" stroke="#FFFFFF" stroke-width="20" stroke-linecap="round" stroke-linejoin="round" stroke-miterlimit="10" d="
				M525.2,138.5c0.4-1.5-0.1-3.9,1.3-4.8c1.2-0.7,2.8,1,4.3,1.7c2.7,1.4,2.1,3.5,1.3,5.5c-0.6,1.7-1.9,3-3.9,2.5
				C525.7,143,525.2,141,525.2,138.5z"/>
			
				<path fill="#222222" stroke="#FFFFFF" stroke-width="20" stroke-linecap="round" stroke-linejoin="round" stroke-miterlimit="10" d="
				M537,308c1-2.6,1.8-4.8,1.9-7.1c0.1-1.6,5.3-3.9,6.5-3.1c0.1,0.1,0.3,0.2,0.3,0.4c0.6,1.1-1.3,6.4-2.6,7
				c-1.1,0.6-2.3,1.1-3.4,1.6C539,307.2,538.3,307.5,537,308z"/>
			
				<path fill="#222222" stroke="#FFFFFF" stroke-width="20" stroke-linecap="round" stroke-linejoin="round" stroke-miterlimit="10" d="
				M557.3,292.3c1.5,0.1,2.9,0.2,3.5,1.9c0.7,1.9-0.7,2.6-2,3.3c-1.6,0.9-3.2,1.7-4.8,2.5c-1.3,0.7-1.7,0.3-1.3-1.1
				c0.4-1.5,0.7-3,1.2-4.4C554.5,293,555.6,292.2,557.3,292.3z"/>
			
				<path fill="#222222" stroke="#FFFFFF" stroke-width="20" stroke-linecap="round" stroke-linejoin="round" stroke-miterlimit="10" d="
				M540.1,147.1c-2.3,0-3.9-1.8-3.8-4.2c0-0.9-0.3-2.3,1.3-2.4c0.9,0,5.6,3.6,5.4,4.2C542.6,146.2,541.5,146.9,540.1,147.1z"/>
			
				<path fill="#222222" stroke="#FFFFFF" stroke-width="20" stroke-linecap="round" stroke-linejoin="round" stroke-miterlimit="10" d="
				M597.8,186.4c-1.8,0-3-0.9-3.5-2.5c-0.3-0.9-0.8-2.1,0.2-2.7c0.8-0.5,1.3,0.6,2,1.1c0.8,0.5,1.5,1,2.2,1.6
				c0.5,0.4,1.6,0.5,1.3,1.4C599.7,186.2,598.6,186.3,597.8,186.4z"/>
			
				<path fill="#222222" stroke="#FFFFFF" stroke-width="20" stroke-linecap="round" stroke-linejoin="round" stroke-miterlimit="10" d="
				M425.1,183.8c1.8,1.9,3.2,3.4,4.6,4.8C427.5,189.3,426.1,188.1,425.1,183.8z"/>
			
				<path fill="#222222" stroke="#FFFFFF" stroke-width="20" stroke-linecap="round" stroke-linejoin="round" stroke-miterlimit="10" d="
				M708.3,306.4c-3.7-0.4-7.1-1.6-10.4-3.3c-8.4-4.6-15.6-10.6-22.3-17.3c-5-5.1-10.5-9.8-14.6-15.8c-1.5-2.1-0.5-3.6,0.2-5.3
				c0.3-0.9,1.1-0.9,1.8-0.5c0.6,0.4,1.2,0.9,1.6,1.4c8.5,11,18.7,20.3,29.9,28.4c3.9,2.8,8.1,5.3,12.9,6.3c1.3,0.3,3.1,4.3,2.6,5.4
				C709.6,306.5,708.9,306.3,708.3,306.4z"/>
			
				<path fill="#222222" stroke="#FFFFFF" stroke-width="20" stroke-linecap="round" stroke-linejoin="round" stroke-miterlimit="10" d="
				M717.4,165.6c-0.1,0.9-0.2,1.9-0.2,2.9c0,2.1-1,3.3-3.1,4.1c-11.6,4.3-21.4,11.8-31.7,18.4c-5.6,3.6-10.9,7.4-16.8,10.5
				c-2-4.4-1.9-4.7,2.1-7.3c8.9-5.8,17.7-11.8,26.5-17.7c6.7-4.4,13.8-8.1,21.4-10.7C716,165.7,716.5,165.3,717.4,165.6z"/>
			
				<path fill="#222222" stroke="#FFFFFF" stroke-width="20" stroke-linecap="round" stroke-linejoin="round" stroke-miterlimit="10" d="
				M707.5,198.1c-1.3,4.5-3.4,7.2-7.8,8.6c-10,3.3-19.5,7.9-29,12.3c-0.8,0.4-1.8,1.7-2.8,0.5c-0.8-1-0.1-4.9,0.9-5.4
				c2.1-1.1,4.2-2.1,6.4-3.1c9.5-4.4,18.9-8.9,28.8-12C705,198.8,706,198.6,707.5,198.1z"/>
			
				<path fill="#222222" stroke="#FFFFFF" stroke-width="20" stroke-linecap="round" stroke-linejoin="round" stroke-miterlimit="10" d="
				M684.5,255.8c0.4,1.5-0.2,1.9-1.5,1.5c-5.8-1.8-11.6-3.5-17.3-5.4c-2.7-0.9-0.5-2.9-0.6-4.4c-0.1-1.5,1.2-0.9,2-0.6
				c5,1.5,10,3,15.1,4.4C685,251.9,684.1,254.1,684.5,255.8z"/>
			
				<path fill="#222222" stroke="#FFFFFF" stroke-width="20" stroke-linecap="round" stroke-linejoin="round" stroke-miterlimit="10" d="
				M681.1,228.5c0.5,0,1.1,0,1.6,0c1.3,0.1,3.2-0.8,3.6,1.2c0.5,2.4-1.5,4.4-3.8,4.3c-4.6-0.2-9.1,0.3-13.5,1.3
				c-1.5,0.3-2.2,0.5-2.2-1.7c0.1-2.9,1.2-3.9,3.9-4.2C674.2,229,677.6,228.5,681.1,228.5z"/>
			
				<path fill="#222222" stroke="#FFFFFF" stroke-width="20" stroke-linecap="round" stroke-linejoin="round" stroke-miterlimit="10" d="
				M465.3,53.8c-1.5,0.6-3,1.1-4.5,1.7C450,59.3,441,65.6,433.6,74.3c-1.9,2.2-3.5,4.7-4.6,7.3c-1,2.2-2.5,1.6-4.1,1.2
				c-1.9-0.4-0.7-1.7-0.6-2.6c0.6-5.1,3.9-8.8,7.3-12.2c7-6.9,14.8-12.8,24.3-16.2c1.2-0.4,2.4-0.7,3.7-1
				C462.1,50.1,464.2,50.7,465.3,53.8z"/>
			
				<path fill="#222222" stroke="#FFFFFF" stroke-width="20" stroke-linecap="round" stroke-linejoin="round" stroke-miterlimit="10" d="
				M486.1,64.7c-11.8,4.7-23.2,9.5-29,21.8c-1.1,2.4-4.5,2.9-6.6,1.4c-0.9-0.6-0.2-1.1,0.1-1.6c5.8-12.8,16.7-19.7,29-24.9
				c1.1-0.5,2-0.4,3,0.4C483.8,62.9,485,63.8,486.1,64.7z"/>
			
				<path fill="#222222" stroke="#FFFFFF" stroke-width="20" stroke-linecap="round" stroke-linejoin="round" stroke-miterlimit="10" d="
				M503.3,77.8c-0.5,1.4-1.8,2-3,2.4c-6.6,2.5-11.9,7-16.8,11.8c-0.5,0.5-1,1-1.5,1.6c-1.1,1.2-4.6,1.5-5.7,0.3
				c-0.5-0.5-0.2-1,0.1-1.4c0.7-1.1,1.3-2.2,2.2-3.1c5.7-6,11.7-11.4,19.5-14.5C499.9,74.3,503.5,76.2,503.3,77.8z"/>
			
				<path fill="#222222" stroke="#FFFFFF" stroke-width="20" stroke-linecap="round" stroke-linejoin="round" stroke-miterlimit="10" d="
				M517.6,89.5c0.1,0.8-0.6,1.4-1.5,1.8c-4.3,2.4-8.2,5.3-11.8,8.8c-1,1-5.1,0.7-6-0.3c-0.5-0.6,0-1,0.3-1.4
				c4.2-4.9,9.2-8.8,14.8-11.9C514.7,85.8,517.6,87.8,517.6,89.5z"/>
			
				<path fill="#222222" stroke="#FFFFFF" stroke-width="20" stroke-linecap="round" stroke-linejoin="round" stroke-miterlimit="10" d="
				M521.2,107.9c2.8-2,5.4-3.9,8.2-5.6c2.5-1.6,2.9,1.2,4,2.3c1.4,1.4-0.4,1.7-1.1,2.2c-0.7,0.6-1.6,0.9-2.2,1.5
				C527.1,111.3,524.3,110.6,521.2,107.9z"/>
			
				<path fill="#222222" stroke="#FFFFFF" stroke-width="20" stroke-linecap="round" stroke-linejoin="round" stroke-miterlimit="10" d="
				M552.9,123.4c-3.2,1.8-3.3,1.8-7.9-1.6C548.6,119.2,548.8,119.2,552.9,123.4z"/>
			
				<path fill="#222222" stroke="#FFFFFF" stroke-width="20" stroke-linecap="round" stroke-linejoin="round" stroke-miterlimit="10" d="
				M572.4,138.1c-3,1.5-5.7,0.7-7.1-1.8c-0.3-0.5-0.3-0.9,0.2-1.1c0.9-0.3,1.8-1,2.8-0.2C569.6,136,570.9,136.9,572.4,138.1z"/>
		</g>
	</g>
	<g>
		<g>
			<path fill="#369EBB" d="M738.5,143.8c0.4,0.1,1.4,0.2,2.3,0.4c2,0.5,2.8,1.8,2.3,3.9c-0.7,2.8-2.5,5.1-4.5,7.1
				c-3.2,3.3-4.9,7-5,11.6c-0.1,4.1-1.7,8-3.2,11.8c-3.8,9-7.6,18.1-12.5,26.6c-2.3,3.9-4.3,8-5.7,12.3c-2.3,7-6,13.2-9.6,19.5
				c-0.8,1.5-1.1,2.6,0.1,4.6c2,3.3,1.9,7.5,2.7,11.3c0.7,3.4,1.2,6.6,3.8,9.6c5.2,5.9,7.2,13.6,9.7,20.8c0.6,1.6,1.2,3.2,1.6,4.9
				c1.7,7.6,6.5,13.1,12.2,17.9c3,2.6,5,6,7.1,9.2c1.2,1.8,1.4,4,0.8,6.1c-0.7,2.5-1.7,5-2.9,7.3c-1,2-3,2.5-5.1,2.4
				c-1.1,0-2.2-0.2-3.2-0.5c-3.5-0.9-7-1.3-10.7-1c-8.6,0.7-16.7-1.7-24.6-5.1c-14.3-6.1-25.4-16.1-34.8-28.1
				c-2-2.5-3.7-5.2-5.9-7.5c-3.9-4.3-5.4-9.5-6.6-15c-0.2-0.8-0.1-1.7,0.2-2.4c5.1-9.8,7.9-20.3,10.5-30.9c0.8-3.4,1.5-6.9,2.4-10.3
				c2.5-9.5,1-18.8-1.2-28c-0.8-3.3-2.2-6.5-5.6-8.5c-4.5-2.7-4.1-6.6,0.6-9.8c6-4.1,12.3-7.7,18.7-11.1c17.2-9.2,34.7-18,52.7-25.6
				C729.1,145.4,733.3,143.9,738.5,143.8z"/>
			<path fill="#369EBB" d="M416.5,94.1c-1.6,0.2-3.2-0.2-4.5-1.6c-0.7-0.8-0.9-1.8-0.4-2.8c0.5-1,1.5-1.6,2.5-1.2
				c3.6,1.2,4.7-1.4,5.4-3.8c2.4-8.4,7.1-15.5,11.6-22.7c3.7-5.9,8.8-10.2,15.2-12.7c11.2-4.4,22.5-8.2,34.9-7.3
				c2.3,0.2,3.9,1,5.4,2.7c2.7,3.2,5.4,6.4,7.6,10c3.4,5.6,8.8,9.1,14.2,12.5c6.1,3.8,11.8,8.2,18,11.8c7.8,4.6,13.3,11,18.3,18.2
				c1.9,2.8,4.9,4.8,7.4,7.2c2,1.9,4.1,3.7,5.7,5.8c6.2,8.2,15.1,13.2,22.7,19.9c6.9,6,13.7,12.1,20.6,18.2c1.3,1.1,2.4,2.5,1.4,4.3
				c-1,1.8-2.6,1.6-4.3,1.3c-3.1-0.5-6.3-0.9-9.4-1.3c-2.1-0.3-4,0-5.6,1.9c-1.9,2.3-4.8,2-6.5-0.5c-2.8-4.4-6.7-7.6-11-10.4
				c-4.2-2.6-7.3-6.5-11.3-9.4c-2.2-1.5-4.4-2.9-6.8-3.9c-3.8-1.6-7.4-3.5-10.7-5.9c-4.6-3.3-10.1-4.4-15.6-5.2
				c-2.1-0.3-3.5-1.2-4.8-3.3c-2.2-3.5-6.1-4.6-10.2-4.9c-6.8-0.5-13.5-1.5-20.3-2.5c-12.2-1.7-24-4.8-35.9-7.6
				c-8.4-1.9-16.9-3.4-25.5-4.1c-2-0.2-3.9-0.6-5-2.3C418.5,93.4,417.6,94.1,416.5,94.1z"/>
			<path fill="#369EBB" d="M291.4,288.5c-2.3-1.4-4.6-2.8-7.1-4c-3.3-1.6-5-4.8-7.7-7.1c-1-0.9-1.1-2.3-0.4-3.5
				c0.6-1,1.7-1.3,2.9-1.2c3.3,0.4,6.1,4,9.2,2.8c3.3-1.2,6.5-1.1,9.6-0.7c8.6,0.9,17.1,2.4,25.6,3.3c10.7,1.2,21.1,3.5,31.7,5.3
				c3.4,0.6,6.8,1.6,9.7,3.4c2.8,1.7,4.7,4.3,7.1,6.5c1.8,1.6,0.4,4.6-2.3,5c-2.3,0.3-4.7,0.3-7.1,0.4c-4.6,0.2-4.9,0.1-5.3,4.6
				c-0.3,2.9-0.9,4.2-4.2,3.4c-1-0.3-2.7,0.6-2.9,2.3c-0.4,3.2-2.7,4.3-5.3,5.1c-3,0.8-6.1,0.5-9.2,0.5c-0.5,0-1.7-0.5-1.4,0.8
				c0.4,1.7,0.1,3.2-1.6,3.8c-1.9,0.6-3.9,0.9-5.8-0.3c-1.6-1.1-3.1-2.2-4.5-3.5c-0.8-0.7-1.6-0.7-2.5-0.7c-3,0-6-0.3-9-0.5
				c-4-0.2-7.5-1.4-10.5-3.9c-1.6-1.3-3.6-1.7-5.5-2.2c-7-1.8-14-3.9-20.7-6.8c-2-0.9-3.9-1.8-3.3-4.6c0.2-1.1-0.5-1.2-1.3-1.2
				c-1,0-2,0-3-0.1c-2.3-0.2-5-3.7-4.4-5.8c0.6-2.3,2.4-2.1,4.2-1.6c8.2,2.3,16.5,0.8,24.7,1.2C291.3,288.9,291.4,288.7,291.4,288.5
				z"/>
			<path fill="#369EBB" d="M466,389.4c-0.1,2.3-1,3.8-3.1,3.5c-7.6-1.2-14,2.2-20.3,5.6c-2.5,1.4-4.6,1.6-7.1,0.1
				c-14-8.3-24.5-20.1-33.4-33.5c-3.9-5.8-7.1-12.1-9.7-18.6c-0.4-1-0.9-2-1-3.1c-0.3-2.1,1.4-3.6,3.2-2.7c3.4,1.6,6.9,1.5,10.4,1.4
				c4.7-0.1,9.4-0.2,14.2-0.3c3.2-0.1,5.9,1,8.4,3.2c4.7,4.2,8.6,9,12.5,14c6.9,8.9,15.1,16.4,22.5,24.8
				C464.1,385.5,465.7,387.2,466,389.4z"/>
			<path fill="#369EBB" d="M573,362.7c-4.4-0.3-7.5-3-9.5-7.1c-1.7-3.4-2.1-7.1-2.6-10.8c-1.3-8.7-4.4-16.8-8.6-24.5
				c-2.4-4.4-1.7-5.9,3.1-7.1c8.7-2.1,16.3-6.6,24-10.7c4.1-2.2,8.1-4.5,12.1-6.7c2-1.1,3.9-2.2,4.6-4.7c0.5-1.5,1.9-2.3,3.5-1.5
				c1.9,1,2.3,3.1,1.7,4.7c-0.7,1.7-0.2,2,1.1,2.7c3.4,1.9,3.5,4.8,0.2,6.8c-0.8,0.5-0.9,1-1.1,1.7c-2.2,8.5-5.1,16.7-8.8,24.5
				c-1.5,3.1-3.3,5.9-3.8,9.4c-0.1,0.8-0.4,1.8-1,2.2c-3,2.2-2.6,5.3-2.7,8.4C585,357,579.6,362.7,573,362.7z"/>
		</g>
		<polygon fill="#FFFFFF" points="139.8,187.8 142.3,172.3 164.6,160.7 182.6,147.7 216.6,130.7 255.6,111.7 287.6,99.7 315.6,92.7 
			346.1,93 374.6,91.7 413,93.5 459.6,101.7 490.9,111.1 544.6,129.7 570.6,149.7 598.6,174.7 618.6,186.7 650.6,190.7 658.6,223.7 
			648,272.5 596.3,283.7 549.6,318.2 481.6,338.7 406,343.2 323.6,328.7 260.6,310.7 232.6,293.7 206.6,262.7 178.6,240.7 
			152.6,226.7 148.8,210.8 136,210.8 		"/>
		<g>
			<path fill="#222222" d="M433.8,345.3c7.7,8.5,15.1,16.9,22.2,25.7c2.2,2.8,4.4,5.5,6.6,8.3c2.8,3.7,5.5,7.4,9.3,10.3
				c1.2,0.9,1.8,2.1,1.4,3.6c-0.5,1.6-1.7,1.8-3.2,2c-10.3,1.6-20.6,3.2-30.8,5.6c-3.7,0.9-6.5,0.4-8.8-2.9c-1.4-1.9-3-3.6-4.9-5.1
				c-9.2-7.5-17.2-16.2-25.4-24.7c-4.7-4.8-7.8-10.7-10.8-16.6c-1.2-2.3-2.3-4.5-3.4-6.8c-1.1-2.2-2.9-3.3-5.4-3.5
				c-17.3-1.5-34.3-4.8-51.3-8.5c-6.7-1.5-13.7-2.3-20.1-4.7c-8.9-3.3-18.6-3-27.5-6.3c-16.7-6-32.5-13.7-47-23.8
				c-11.4-7.9-21.4-17.4-29.9-28.6c-10.9-14.2-23.7-26.6-40.6-33.8c-2.7-1.1-5.2-2.5-7.8-3.9c-6.5-3.3-11.1-8.3-13.5-15.3
				c-0.4-1.2-1.1-1.8-2.1-2.3c-1.7-0.7-3.2-1.8-4.4-3.1c-2.5-2.7-2.6-4.8-0.3-7.7c1.9-2.5,1.9-3.8-0.2-6.1c-1.8-2-2.4-4.3-2-7
				c1.5-10.2,6.6-18,15.7-23c7.1-3.9,13.8-8.4,19.2-14.6c1.6-1.8,3.7-2.6,5.8-3.5c4.4-1.9,8.6-4.3,12.7-6.9
				c9.4-6.1,19.6-10.6,29.6-15.7c13.6-6.9,27.1-14.1,41.1-20.1c20.5-8.7,41.7-14.9,63.9-17.5c14.9-1.7,29.8-1.2,44.7-1.7
				c11.4-0.3,22.7-0.4,34,1.2c1.1,0.2,2.1,0.4,3.2,0.6c4.9,0.9,9.3-1.3,11.4-5.8c0.7-1.6,1.2-3.2,1.6-4.9
				c5.1-20.8,25.7-38,47.1-39.5c7.1-0.5,14.2-0.2,21.2,1.1c2.4,0.5,3.7,1.6,3.9,4.3c0.4,4.5,3.5,7.5,6.8,10.1
				c5.1,4,10.6,7.4,16.2,10.5c15,8.4,27.8,19.5,38.9,32.5c4.3,5.1,8.8,9.9,13.8,14.3c8.4,7.3,15.7,15.7,24.5,22.4
				c5.1,3.9,10.7,7.3,15.4,11.6c1.1,1,2.2,1.9,3,3.1c1.8,2.9,0.7,5.3-2.6,5.6c-2.8,0.2-5.6,0.1-8.4,0c-4-0.1-7.9,0.4-11.8,1.7
				c0,1,0.8,1.2,1.3,1.6c6.9,5.9,13.8,11.8,20.7,17.7c9.9,8.6,21.1,13.3,34.5,11.8c2.8-0.3,5.2-1.1,7.5-2.8
				c24.4-17.7,50.4-32.5,79.2-41.7c4.6-1.5,9.3-2.6,14-3.3c2.1-0.3,4.1-0.4,5.4,1.5c1.3,2,0.6,4-0.6,5.9c-2.5,3.7-5.1,7.3-7.5,11
				c-2.3,3.7-4,7.7-3.1,12.3c0.5,2.4-0.1,4.7-1.1,6.9c-3.7,7.8-6.7,15.9-9.5,24c-1.5,4.2-3.8,8-6.7,11.4c-3.5,4.1-6,8.6-7.8,13.6
				c-1.2,3.4-2.9,6.7-4.4,9.9c-0.9,1.9-1.1,3.6,0,5.4c1.8,3.1,1.6,6.7,1.9,10.1c0.3,2.6,1.3,4.8,2.6,7.1c4,7.2,8.3,14.2,10.8,22.1
				c1.9,6,5.2,11.6,7.1,17.6c0.6,1.9,2.4,3.2,4,4.4c1.5,1.2,3.1,2.2,4.6,3.4c5.6,4.5,7.5,11.3,5.1,18.1c-2.8,7.9-5.8,9.9-14.1,9.7
				c-23.5-0.6-43.9-9-61.3-24.7c-4.1-3.7-7.3-8.3-10.4-12.9c-4.2-6.4-8.4-12.7-13.6-18.4c-1.2-1.4-2.6-2-4.5-1.9
				c-5.3,0.2-10.3,0.9-15.5,2c-6.7,1.5-11.9,5-17.1,9c-0.4,0.3-0.9,0.3-0.8,1.1c0.5,4.6,0.6,9.2,1.2,13.9c0.3,2.7-1.3,5.1-3,7.1
				c-3.4,4.1-5.2,8.6-5.2,14c0,3.7-1.8,7.1-3.9,10c-3.2,4.6-5.1,9.4-5.5,15.1c-0.3,4.8-2.6,9.2-4.6,13.6c-1.8,3.8-4.8,4.9-8.8,4.1
				c-2.3-0.5-4.6-1-6.9-1.4c-2-0.4-2.9-1.9-4-3.4c-5.7-8.2-8.6-17.2-9.4-27.2c-0.4-5-1.8-9.8-3.1-14.6c-0.3-1.3-0.6-2-2.1-1.2
				c-19.4,11-41.1,15.1-62.5,20.3c-13.9,3.4-28,5.1-42.3,5.4C441.2,343.9,437.6,345.6,433.8,345.3z M440.4,338.1
				c9.5,0.4,18.9-0.5,28.3-1.7c11.3-1.5,22.1-5.2,33.2-7.3c17.6-3.3,34-9.9,49.3-18.9c15-8.8,29.8-18,45-26.6
				c9-5,17.9-9.9,27.9-12.7c5-1.4,10.2-1.6,15.3-2.4c1.1-0.2,2.2-0.1,2.7-1.4c1.6-4.3,4.1-8.3,5.4-12.8c1.4-4.6,1.6-9.5,3.4-14
				c1.2-3.1,2-6.4,2.4-9.8c1.5-12,1.4-23.9-3.7-35.3c-0.9-2-2.2-3.1-4.5-2.2c-2.7,1.1-5.5,1-8.3,0.5c-3.9-0.6-7.7-1.3-11.4-2.6
				c-11.5-3.8-22.6-8.3-30.8-17.7c-13.5-15.3-29.6-27.3-47.1-37.8c-17.9-10.8-36.9-18.6-56.8-24.6c-15.1-4.6-30.6-7.3-46.3-9.4
				c-19.8-2.6-39.4-6.6-59.4-7.3c-13-0.5-26-2.4-39.1-1.4c-6.3,0.5-12.7,0.3-19,1.1c-12,1.5-24,2.8-35.6,6.4
				c-17.5,5.5-34.5,11.7-50.8,20.7c-13.6,7.5-27.6,14.5-42,20.7c-2.3,1-4.6,2.1-6.7,3.5c-5.5,3.7-11.2,6.7-17.2,9.4
				c-1.7,0.8-3.2,1.7-4.4,3.1c-4.2,4.7-8.9,8.8-14.6,11.6c-1.8,0.9-3.4,2.1-5.1,3.2c-5.5,3.6-9.3,8.5-10.8,15.1
				c-1.1,4.8-1.2,5.1,2.9,7.9c5,3.4,9,7.6,11.6,13.1c2.2,4.6,0.8,7.1-4.3,7.6c-1.6,0.2-1.7,0.5-1,1.8c1.8,3.1,4.2,5.7,7.4,7.4
				c3.9,2.1,7.9,4.2,12,5.9c12.2,5,22.1,13.4,31.1,22.4c7,7,13.7,14.6,19.4,22.8c1.4,2,3.1,3.8,5.1,5.2c5.5,4,11,8.1,16.5,12.1
				c3.8,2.8,7.6,5.7,11.9,7.7c14.2,6.3,28.7,11.9,43.7,15.9c9.4,2.6,19.4,3.2,28.7,6.3c16.9,5.7,34.2,8.7,51.9,10.9
				C397.9,337.4,419.2,337,440.4,338.1z M740.1,145.9c-1-0.3-2,0.1-2.9,0.3c-16.2,3.8-31.2,10.7-46,18.2c-9.3,4.7-17.9,10.7-27.5,15
				c-3.6,1.6-6.7,4.1-9.7,6.5c-2.1,1.7-1.9,3.6,0.3,5.1c0.7,0.5,1.2,1.1,1.6,1.8c4.5,8.3,6.7,17.1,5.8,26.5
				c-1.1,11.3-3.5,22.4-7.1,33.2c-0.7,2-1.3,4-1.4,6.1c-0.2,4.4-1.9,8.3-4.7,11.6c-2.6,3.1-2.4,5,0.9,7.5c3.1,2.4,5.4,5.4,7.3,8.7
				c4.6,7.8,9.4,15.6,16.7,21.3c16,12.5,33.6,21.1,54.5,20.8c6-0.1,7.2-0.6,9.1-6.2c1.5-4.6,0.4-8.6-3.4-11.6
				c-1.7-1.4-3.5-2.6-5.2-3.9c-2.7-2-4.7-4.6-5.8-7.8c-2.7-8-6.3-15.5-9.6-23.2c-2.4-5.5-4.9-10.9-8.3-15.8
				c-1.3-1.9-1.8-4.1-2.1-6.4c-0.5-3.4-0.1-6.9-1.9-10.1c-1.7-3-1.5-6.1,0-9.1c1.9-3.8,3.8-7.7,5.2-11.7c1.5-4.2,3.6-8.1,6.5-11.6
				c2.9-3.5,5.7-7.1,7.2-11.5c2.9-8.3,6.1-16.5,10-24.4c0.7-1.5,1.2-3.1,0.8-4.8c-0.9-3.4-0.1-6.6,1.8-9.3
				C735.5,156.3,737.3,150.9,740.1,145.9z M594.4,147.6c-4.7-4.5-8.3-9.1-13.2-12.6c-7.7-5.5-13.7-13-21.3-18.7
				c-7.4-5.6-13.6-12.3-19.2-19.6c-7.3-9.5-16.1-17.2-26.3-23.4c-7.2-4.3-14.3-8.7-21-13.6c-4.3-3.2-7.9-7-9.6-12.2
				c-0.6-1.7-1.5-2.2-3.1-2.5c-5.5-0.8-11.1-1-16.6-0.5c-10.6,0.9-20,4.6-27.3,12.6c-8.4,9.2-13.2,20.3-16.2,32.3
				c-0.4,1.5,0,1.8,1.5,2c20.9,2.7,41.4,7.6,62,12c25.3,5.5,48.6,15.8,70.1,30.1c7.1,4.7,13.5,10.4,20.4,15.5
				c0.6,0.5,1.1,1.3,2.1,1.1C582.3,149.3,588.1,148.5,594.4,147.6z M463.9,390.3c-1.5-1.9-2.6-3.3-3.8-4.8
				c-10.8-14.3-22.3-28.1-34.8-41c-0.5-0.5-1.1-0.5-1.8-0.6c-10.9-0.5-21.7-1-33-1.6c4.2,8.2,7.8,16.3,14.2,22.7
				c3.9,3.8,7.7,7.7,11.5,11.6c5.1,5.3,11.3,9.5,16.1,15c2.7,3.1,5,3.9,8.9,2.9C448.5,392.8,456,391.8,463.9,390.3z M599.6,291.8
				c-1.7,1.5-3.5,1.5-4.9,2.5c-11.7,7.5-24.3,13.1-36.5,19.5c-1.9,1-2.1,2-1.5,3.8c1.8,6,3.6,12.1,4.1,18.3c0.6,7.8,3.5,14.6,7.6,21
				c1,1.6,1.9,2.4,3.9,2c1.7-0.3,3.5-0.9,5,0.8c1,1.1,1.7-0.2,1.9-1c1.3-4,3.7-7.7,3.9-11.9c0.2-6.3,2.6-11.6,6.1-16.6
				c2.2-3.1,3.4-6.5,3.5-10.4c0.1-3.6,1-7.2,3.4-9.9c4.1-4.7,5.9-9.6,3.7-15.7C599.5,293.7,599.6,293,599.6,291.8z M148.8,210.8
				c-1.1-2.9-2.8-5-4.8-6.8c-0.6-0.5-1.7-2.2-2.1-0.8c-0.5,1.5-3.8,2.8-0.9,4.9C143.2,209.7,145.7,210.4,148.8,210.8z"/>
			<path fill="#222222" d="M279.5,285.1c-4-2.4-5.9-7.3-10.8-8.6c-1-0.3-1.4-1.3-1.3-2.5c0.2-2,3.5-4.7,5.5-4.3
				c5.8,1.1,11.8,1.3,17.6,1.3c12.8,0.1,25.3,2.5,37.9,4.3c9.3,1.3,18.6,3,27.9,4.7c5.9,1.1,11.3,3.4,16.2,6.9
				c2.4,1.7,4,7.7,2.7,10.4c-0.6,1.3-1.9,1.9-3.2,2.4c-2.7,1-5.6,1.6-8.5,2c-1.3,0.2-2.1,0.4-2.1,2.1c0,2.4-1.9,3.4-4.8,4.1
				c1.9,0.7,2.8,0.3,3.7,0.1c2.1-0.5,4-1.6,6.2,0.4c1.3,1.1,3.2-0.4,4.9-0.7c3.4-0.6,5.4-2.3,5.7-6c0.2-3,1.2-5.9,1.9-8.8
				c0.3-1.1,0.6-2.3,1.1-3.4c1-1.9,2.5-3.4,4.8-2.5c2.2,0.8,2.5,2.7,2.2,4.8c-1.3,7.5-3.8,14.4-10.4,19.1c-3.4,2.4-6.9,4.6-10.6,6.6
				c-1.8,0.9-3.2,0.2-4.4-1c-1.7-1.6-3.4-3.3-4.9-5.1c-1.2-1.3-2.4-1.2-3.2,0c-2.5,3.9-6.6,5.1-10.7,5.9
				c-13.6,2.6-27.1,2.9-40.5-2.4c-8.9-3.5-18.2-6.1-27.2-9.6c-3.4-1.4-5.7-4-8.2-6.2c-3-2.6-6.3-4.2-10-5.3
				c-3.9-1.2-7.8-2.5-11.6-3.9c-1.9-0.7-3.7-1.7-3.3-4c0.3-2.5,2.4-3,4.5-3.1c7.9-0.2,15.7,1.2,23.6,2
				C273.5,284.9,276.4,285.6,279.5,285.1z M264.5,289.8c1.9,1.3,3.4,2.1,4.6,3.2c4.2,3.7,9,6.4,14,8.8c7.2,3.5,15.1,4.6,22.4,7.8
				c11.5,4.9,23.2,4.2,35.1,2.4c0.9-0.1,2.2,0,2.7-1.1c0.9-2.1,2.8-2.6,4.6-3.6c2-1.1,4.5-2.4,4.9-4.3c1-5,4.7-6.9,8.7-8.5
				c1.7-0.7,3.5-1.2,5.6-1.9c-1.1-0.6-1.7-1-2.4-1.3c-8.6-4-18.5-4.3-27-8.6c-16.6-2.7-33.1-5.6-50-5.9c-2.9,0-5.8-1-9-0.4
				c2.5,2.6,5,4.4,7.7,6.2c1.7,1.2,3.5,2.3,5.1,3.6c1.2,0.9,1.5,2.3,1,3.7c-0.5,1.5-1.7,2.1-3.2,2c-1.2-0.1-2.4-0.1-3.5-0.2
				C278.8,291.2,272,290.5,264.5,289.8z"/>
			<path fill="#222222" d="M296.7,202.5c-2.1,7.2-4.9,14-9.2,20.2c-6.4,9.1-13.4,17.7-21.4,25.4c-4.5,4.3-9.7,7.6-15.4,10.2
				c-1.4,0.6-2.9,1.2-4.5,1c-1.3-0.1-2.2-0.8-2.5-2.1c-0.2-1.2,0.4-2.3,1.5-2.6c12.7-3.8,20.6-13.5,28.5-23.2
				c6.7-8.2,13.3-16.6,16.3-27.1c5.6-19.4,2.7-37-10.5-52.6c-1.8-2.2-4-4-6.2-5.8c-1-0.8-1.9-1.7-2.4-2.9c-0.4-1.2-0.4-2.4,0.7-3.2
				c1.1-0.9,2.4-0.9,3.5,0c13,10.7,21.4,24,22.9,41.1c0.3,3.5,0.5,7.1,0.1,10.6c-0.1,1.2-0.2,2,1.5,2.1c2.2,0.1,2.7,1.9,2.8,3.7
				c0.4,5.4-0.1,10.7-1.1,16c-3.8,19.5-13.2,36-27.1,50c-2.3,2.3-4.8,4.1-7.5,5.8c-1.4,0.9-3,1.2-4.1-0.5c-1-1.7-0.1-2.8,1.3-3.9
				c17.6-13.3,27.1-31.6,31.9-52.6C296.5,209,297.2,205.8,296.7,202.5z"/>
			<path fill="#222222" d="M188.8,193.5c-7.5,0-17.1-9.4-16.7-16.9c0.7-12.1,6.4-16.8,19.3-17.3c9.1-0.4,15.6,6.8,15.6,16.3
				C207,185.8,199.3,193.4,188.8,193.5z M188.2,164.7c4,3.3,5.1,7.3,5.4,11.7c0.3,4.7-1.5,8.4-5.9,11.6c5.5-0.5,9.8-1.7,12.1-6.4
				c2.2-4.6,2.5-9.4-0.9-13.6C196.4,164.9,192.8,164.1,188.2,164.7z M190.1,175.5c0.1-1.2-0.1-2.4-0.6-3.6c-0.5-1.1-1.3-1.7-2.6-1.4
				c-1.2,0.3-1.6,1.4-1.3,2.4c1,3.3-0.3,5.8-2.2,8.3c-0.8,1-0.9,2.3,0.2,3.1c1.1,0.8,2.3,0.4,3.1-0.6
				C188.6,181.3,190.3,178.8,190.1,175.5z"/>
			<path fill="#222222" d="M420.8,163.5c-0.9,6.9-2.4,13.8-5.9,20.1c-3.7,6.7-13.3,7.3-18,1.2c-0.8-1.1-1.1-2.2-1-3.6
				c0-0.9,1.4-2.1,0-2.5c-1.2-0.4-2.7-0.7-4.1,0.4c-2.2,1.8-4.7,3.5-7.1,5c-5,3.2-7.8,2.7-11.4-1.9c-0.6-0.7-1-1.5-1.7-2.1
				c-1.9-1.8-0.3-3,0.4-4.5c0.7-1.6,1.8-1.1,2.9-0.8c1.4,0.4,2.8,0.5,3.9,1.7c0.8,0.9,1.7,0.3,2.5-0.2c1.9-1.2,3.8-2.4,5.8-3.6
				c0.7-0.4,1.5-1.2,2.2-1c3.4,0.6,3.9-1.9,4.7-4c0.9-2.2,1.2-4.6,1.5-6.9c0.3-2.1,1.1-4.1,3.6-4c2.7,0.1,3.4,2.2,3.5,4.4
				c0.1,5.1-1.4,9.9-3.8,14.3c-0.8,1.5-1.4,2.7,1.2,2.5c0.9-0.1,1.7,0.6,2.5,1c3.5,2,4.9,1.7,7.2-1.7c2.7-3.9,4.1-8.3,5.2-12.8
				c0.2-0.7,0.2-1.4,0.5-2.1c0.6-1.8,1.7-3.1,3.8-2.8C421.5,160,420.6,161.9,420.8,163.5z"/>
			<path fill="#222222" d="M212.7,159.1c-1-1.6-0.7-2.8-0.3-4c1.3-3.9,7.2-7,11.2-5.9c2.7,0.8,4.1,2.6,4.3,5.9
				c0.6,9.6-1.3,18.8-5.1,27.6c-4.6,10.5-10.3,20.4-17.8,29.2c-0.5,0.6-0.9,1.1-1.5,1.6c-1.2,0.9-2.6,1-3.7-0.1
				c-1.1-1-1.2-2.3-0.4-3.5c1.2-1.8,2.7-3.5,4-5.2c8.5-11.3,15.2-23.4,18.1-37.4c0.8-3.6,1-7.2,0.9-10.8c-0.1-2.6-0.7-3-3.2-2.3
				C216.4,155,214.5,156.8,212.7,159.1z"/>
			<path fill="#222222" d="M360.3,237.6c-1.2,5.9-2.1,11.6-4.8,16.7c-1.2,2.3-3.7,3.7-6.2,4c-1.6,0.2-2.9,0.8-4.2,1.6
				c-3.2,1.9-6.3,4-9.7,5.5c-4.2,1.8-7.2,0.6-8.9-3.7c-0.8-1.8-1.2-3.8-2-5.6c-0.6-1.4,0.3-2,1.1-2.7c4.6-3.8,4.7-3.8,6.7,1.8
				c0.7,1.9,1.4,2.3,3,1.1c4-3,8.3-5.6,12.6-8c2.1-1.1,3.3-2.6,3.6-5c0.2-2,0.7-3.9,1.3-5.8c0.7-2.1,2.5-2.5,4.4-2.3
				C358.7,235.3,360.2,235.8,360.3,237.6z"/>
			<path fill="#222222" d="M365.2,272.4c-2,0.1-3.1-0.6-4.2-1.4c-1.8-1.3-3-3.1-4.6-4.6c-1.4-1.5-1.1-2.2,0.4-3.3
				c2.9-2,2.9-2.1,4.5,1c0.8,1.6,1.7,2.1,3.4,1c5.4-3.4,10.8-6.8,16.2-10.1c1.1-0.7,1.6-1.6,1.8-2.9c0.7-3.2,1.5-6.4,2.3-9.5
				c0.4-1.8,1.2-3.3,3.5-2.8c2.4,0.6,4.2,2.8,3.7,4.9c-0.6,2.8-1.8,5.6-2,8.5c-0.4,6.4-4.2,9.9-9.4,12.7c-4.3,2.4-8.8,4.2-13.4,5.9
				C366.4,272.2,365.6,272.3,365.2,272.4z"/>
			<path fill="#222222" d="M435,188.4c1.3-2.9,1.6-5.5,2.5-7.9c3.2-8.8,0-16.1-5-23.1c-1.2-1.7-2.2-3.4-1.5-5.5
				c0.7-2.2,2.1-3.7,4.4-3c2.1,0.6,2.6-0.4,3-2c0.6-2.5,1.2-4.9,1.8-7.4c0.4-1.6,0.3-2.8-1.1-4.2c-1.3-1.3-1.4-3.5-1.2-5.3
				c0.3-1.8,2.2-2.1,3.9-0.8c3.5,2.6,4.6,6.3,4.2,10.4c-0.4,5-1.2,10-3.2,14.6c-1.6,3.8-2,7.6-0.6,11.4c2.9,7.4-0.2,13.6-3.4,19.9
				C438.2,186.7,437.1,187.9,435,188.4z"/>
			<path fill="#222222" d="M441.3,251.3c-0.4,3.8-1.3,7-2.3,10.2c-0.5,1.4-0.5,2.7,0.2,4.2c1.6,3.6-0.7,8.7-4.2,10.1
				c-0.2,0.1-0.4,0.2-0.5,0.1c-4.1-2-7.2,0.8-10.4,2.4c-3.2,1.6-5.8,1.6-8.3-1c-0.6-0.6-1.2-1.1-2-1.5c-2.3-1.2-2.4-2.4-0.7-4.5
				c1.7-2.1,2.8-2.5,4.4-0.2c1,1.4,2.2,1.4,3.5,0.4c0.1-0.1,0.2-0.1,0.2-0.1c8.5-4.7,8.5-4.6,11-14c0.8-2.8,1.2-5.7,2-8.5
				c0.3-1.1-0.2-3,1.6-3c1.9,0,3.9,0.6,4.7,2.6C441.1,249.5,441.2,250.6,441.3,251.3z"/>
			<path fill="#222222" d="M411.4,241.5c2.3-0.1,3.8,1.7,3.4,3.7c-1,4.9-2.1,9.8-3.2,14.6c-0.3,1.3-1,2.5-0.1,3.9
				c0.4,0.7-0.1,1.4-0.5,2c-1.8,2.1-3,5-6.4,5.3c-0.9,0.1-1.8,1.1-2.6,1.9c-1.5,1.4-3.1,2.5-4.8,3.5c-3.8,2.2-5.4,1.8-7.9-1.8
				c-0.6-0.9-0.1-1.2,0.4-1.7c4.3-4.2,8.4-8.7,13.9-11.5c1.1-0.6,1.1-1.5,1.2-2.6c0.4-4.4,1.4-8.6,2.4-12.8
				C407.6,243.4,409.1,241.9,411.4,241.5z"/>
			<path fill="#222222" d="M333.1,106.3c-0.6,8.3-3.1,15.8-8.9,21.9c-1.8,1.9-3.9,3.2-6.4,4.1c-4.3,1.6-8.2,0.2-10.4-3.9
				c-1.3-2.4-1-4.4,0.9-6.1c2.1-1.8,3.5-0.5,4.9,1c1,1,2,1,3.2,0.4c1.4-0.7,2.8-1.5,3.6-2.8c3.1-4.9,6.8-9.6,6.5-15.9
				c0-1.2-0.1-2.4,1-3.2c1.2-0.9,2.6-1.5,4.1-1.1c1.5,0.4,1.4,2,1.5,3.2C333.2,104.7,333.1,105.5,333.1,106.3z"/>
			<path fill="#222222" d="M352.1,192.2c0.8,7.2-1.2,9.9-8,11.8c-0.5,0.1-0.9,0.6-1.3,1c-2.8,2.7-6.5,3.4-10.1,4.2
				c-1.3,0.3-2.4-0.6-3.4-1.5c-4.2-3.8-6.2-9.1-9.1-13.8c-0.7-1.2-0.5-2.7-0.1-4c0.8-3.2,1.8-6.5,2.5-9.7c0.4-1.6,1.3-1.7,2.3-1.1
				c1.1,0.6,3.8-0.6,3.2,2.4c-1.6,6.9,0.3,13,4,18.9c1.2,1.9,2.5,2.1,4.7,1.7C343.2,200.9,347.9,197.4,352.1,192.2z"/>
			<path fill="#222222" d="M379.6,197c-1.5-3.4,0.8-5.4,3.5-7.2c0.6-0.4,1.5-1.1,2.3-0.5c0.8,0.5,1.1,1.5,0.9,2.4
				c-1,4.1-1.2,8.5-2.4,12.5c-1,3.5-3.1,7.4-7.3,8.9c-0.5,0.2-1.3,0.6-1.5,0.4c-1.7-1.7-2.4,0.1-3.2,0.9c-4.2,4.6-9.6,5.8-15.5,6.2
				c-1.7,0.1-3-0.4-3.8-2c-0.3-0.7-0.8-1.2-1.1-1.9c-3.4-5.5-3.4-5.5,2.4-8.1c0.7-0.3,1.4-0.8,1.8,0.3c1.5,4.5,5,4.5,8.6,3.6
				c4.6-1.1,8.5-3.5,12.1-6.4C379,204,379.5,200.6,379.6,197z"/>
			<path fill="#222222" d="M350.5,137.3c-2,2.3-4.1,3.9-6.4,5.2c-3.7,2.1-8.4,0.6-10.4-3.1c-1.1-2.1-1-4.1,0.7-5.8
				c1.8-1.7,3.6-1.1,5.4,0.2c4.4,3.1,4.4,3.1,7.5-1.4c1-1.4,1.8-2.9,2.8-4.4c4-5.8,1.5-11.1-1.2-16.3c-0.6-1.2-1.6-0.9-2.6-0.6
				c-3.5,0.7-3.5,0.7-3.2-2.9c0.1-0.6,0.1-1.3,0.1-1.9c0-3.6,1.8-5.2,5.5-4.9c1.1,0.1,1.6,0.8,1.9,1.7c1.2,3.6,3.1,7,5.1,10.2
				c2.6,4.2,1.8,8.8,0.7,13.2c-0.5,2.1-3,3.1-4.6,4.5c-0.8,0.7-1.7,1.4-2.6,2c-0.9,0.7-1.8,1.4-1.5,2.7
				C348,137.2,349.3,137,350.5,137.3z"/>
			<path fill="#222222" d="M485.4,274.6c1.2,0.9,1.3,2.3,1.8,3.4c0.6,1.4,1.2,1.7,2.3,0.5c3.8-4.1,7.9-8.1,7.3-14.5
				c-0.1-1.5,0.6-3.2,1.1-4.7c0.7-1.8,2-2.9,4-2.5c2,0.5,2.8,2.1,2.7,3.9c-0.2,3.2-0.9,6.3-0.9,9.5c0,2.1,1,4.1-0.1,6.2
				c-1.1,2-1.9,3.7-4.5,4.5c-4,1.4-7.4,4.2-10.6,7c-1.7,1.5-2.5,1.1-3.9-0.5c-2.9-3.5-4.9-6.7-0.6-10.5
				C484.7,276.4,484.9,275.5,485.4,274.6z"/>
			<path fill="#222222" d="M485.1,259.5c-0.2,6.8-1.3,13.7-6.2,18.6c-3.8,3.8-8.8,6.5-13.3,9.7c-1.3,0.9-2.4,0.3-3.3-0.8
				c-1.4-1.6-2.1-3.7-2.5-5.7c-0.4-1.9,1.9-2.4,3-3.4c0.8-0.8,1.6-0.6,2.2,0.4c0.5,0.8,1.2,0.6,1.8,0c2.4-2.3,4.9-4.6,7.3-6.9
				c2.3-2.1,3-4.8,3.2-7.8c0.2-2,0.4-4,0.7-5.9c0.3-2,1.2-3.8,3.6-3.7c2.5,0.1,3.2,2,3.4,4.2C485.2,258.5,485.1,259,485.1,259.5z"/>
			<path fill="#222222" d="M403.3,127.2c0.3-2.2-0.7-3.8-1.9-5.3c-1.4-1.8-2.6-3.7-2.3-6.2c0.2-1.7,0.9-3.2,2.7-3.7
				c1.9-0.6,3.2,0.4,4.2,1.8c2.1,2.9,2.7,6.4,2.7,9.8c-0.1,6-1.6,11.6-4.7,16.8c-2.4,4-6.1,6.4-10.2,8.2c-1.3,0.5-2,0.2-2.6-1
				c-0.6-1.2-1.3-2.5-2.2-3.4c-3-2.7-2.8-5.6-1.1-8.9c1.1-2.2,1.6-2.5,3.4-0.7c1.4,1.5,2.8,3.1,4,4.8c1.1,1.6,1.8,1.5,3.1,0.1
				C401.5,136,403.3,131.9,403.3,127.2z"/>
			<path fill="#222222" d="M379.3,137.5c-0.6,3.9-1.1,7.7-5.1,9.9c-3.4,1.8-4.7,5.4-5.9,8.8c-1.1,3-5.2,4.9-8.3,4.1
				c-1.6-0.4-1.5-0.9-0.9-2.2c1.4-2.8,2.6-5.8,4-8.6c0.8-1.7,0.6-3.1-0.5-4.5c-1.1-1.4-2-3-2.9-4.6c-1.1-1.9-0.5-3.7,0.6-5.4
				c1.2-1.7,3.2-1.6,4.9,0.1c1.5,1.5,2,4.2,4.5,4.3c2.3,0.1,3.6-1.9,5.2-3.2c1.6-1.2,2.6,0.9,4,0.4
				C379.4,136.7,379.6,137.2,379.3,137.5z"/>
			<path fill="#222222" d="M417.2,232.1c-2.1-0.4-3.4-1.6-4.9-2.7c-1.3-0.9-3.7-1.2-3.9-2.6c-0.2-1.3,1.5-2.8,2-4.3
				c0.9-2.4,1.8-2,3.3-0.4c2.1,2.4,2.5,2.4,4.1-0.3c3-5,6-10.1,8.8-15.3c1.1-2.1,1-4.6,1.2-6.9c0.1-1-0.4-2.7,1.6-2.3
				c1.5,0.3,3.3,1,2.7,2.7c-1.9,6-1.2,12.2-2.6,18.2c-0.3,1.4-1.2,2.7-2,3.8c-1.6,2.1-3.2,4.2-4.4,6.5
				C421.9,230.8,419.4,231.4,417.2,232.1z"/>
			<path fill="#222222" d="M523.9,266.2c1,3.8-0.3,7.6,1,11.1c0.1,0.3,0,0.8-0.1,1c-1.4,2.6-3.1,5.2-5.3,7c-3.1,2.6-4.6,2.3-7.9-0.4
				c-0.4-0.3-0.9-0.7-1.3-1c-3.1-2.5-3.3-4.1-1.1-7.5c0.5-0.8,0.9-0.8,1.5-0.3c0.7,0.7,1.4,1.4,2.2,2.1c0.8,0.7,1.5,1.8,2.8,1
				c1.1-0.7,1.9-1.6,1.7-3.2c-0.8-5.3-0.3-10.7-0.4-16.1c0-1.2,0.1-2.4,0.4-3.5c0.5-1.7,1.6-3,3.5-2.8c2,0.2,3.1,1.6,3.1,3.5
				C524,260.3,523.9,263.4,523.9,266.2z"/>
			<path fill="#222222" d="M453.3,264.8c0.4-5,1.2-9.9,2.6-14.7c0.5-1.7,1.7-3.1,3.9-2.6c2.4,0.5,3.3,2.3,2.9,4.5
				c-0.7,4.8-2,9.4-2.4,14.2c-0.3,3.3-1.7,6.3-4,7.6c-4.5,2.6-7.4,7-12,9.4c-2.1,1.2-3.3,1.3-4.6-0.6c-0.6-0.8-2.2-1.5-1.2-2.6
				c1-0.9,1.6-3.5,3.9-1.8c0.9,0.6,1.5-0.3,2-0.9c2.9-3.1,5.2-6.7,8.5-9.5C454.1,267,453.3,265.8,453.3,264.8z"/>
			<path fill="#222222" d="M389.1,228.6c-2.4-0.1-4-1.5-5.5-2.9c-1.3-1.2-3.3-2.3-3.5-3.6c-0.2-1.8,2.6-1.6,3.7-2.8
				c1.1-1,2.2-2.2,3.7-0.3c0.6,0.8,1.7,0.3,2.5,0c3.1-1.1,5.4-3.6,8.8-4.2c1-0.2,1-1.4,1.1-2.3c0.8-4.8,1.6-9.7,2.3-14.5
				c0.2-1,0.2-2,0.9-2.8c0.6-0.7,1.4-1.4,2.3-1c0.8,0.4,0.2,1.3,0.1,2c-0.6,4.6-1.2,9.2-0.2,13.8c0.6,2.8-1.2,4.8-2.2,7.1
				c-2.3,5.7-6.4,9.4-12.2,11.1C390.4,228.3,389.7,228.5,389.1,228.6z"/>
			<path fill="#222222" d="M458.1,208.4c-0.1,6.9-1.4,13.7-2.8,20.5c-1.3,6.5-8.4,9.2-13.9,5.6c-2-1.3-3.8-2.8-5.4-4.5
				c-0.8-0.8-1.1-1.5-0.4-2.6c0.8-1.1,1.7-0.7,2.3-0.1c3.1,3.5,6,0.7,9-0.3c1.2-0.4,1.5-1.5,1.7-2.6c0.8-3,1.5-6,2.3-9
				C452,211.4,453.8,209.6,458.1,208.4z"/>
			<path fill="#222222" d="M383.5,317.2c2-2.1,3.5-3.8,4.6-5.8c0.7-1.2,1.6-1.5,2.6-0.5c3,2.6,5.8,2.3,8.7-0.1
				c0.3-0.3,0.8-0.5,1.2-0.7c5.5-1.8,8.8-5.1,8.9-11.3c0-2.4,2-3.3,4.1-2.5c2.7,0.9,3.3,2.1,2.5,4.5c-2.4,7.2-7,12.7-13.6,16
				C396.8,319.8,390.3,319.1,383.5,317.2z"/>
			<path fill="#222222" d="M467.6,238.6c-0.6-0.1-1.8-0.2-3-0.5c-1.1-0.3-2.9-0.1-2.8-1.4c0-1.3,0.7-2.8,2.2-3.5
				c1.9-1,3.8-2.2,5.8-3c2.3-0.9,3.1-2.3,3.4-4.6c0.7-4.8,1.8-9.6,2.7-14.5c0.3-2,1.2-2.8,3.3-2.4c2.2,0.4,2.1,1.6,1.8,3.3
				c-0.6,3.8-0.9,7.6-0.4,11.4c1,7.1-5,12.6-9.1,14.9C470.5,238.9,469.4,238.7,467.6,238.6z"/>
			<path fill="#222222" d="M475.2,324.2c-7.6-0.1-7.7-0.5-4.3-6.8c1-1.8,1.7-3.7,3.5-0.7c0.1,0.2,0.4,0.4,0.7,0.4
				c1.5,0.5,7.1-3.7,7.1-5.4c0-2.8-0.3-5.6,0.6-8.4c0.5-1.5,0.8-3.1,3-2.7c2.2,0.4,4.5,2.6,4.2,4.3c-0.5,3.1-0.4,6.1-0.2,9.2
				c0.1,1.7-0.4,3-1.8,4c-2.6,1.8-5.2,3.6-7.8,5.5C478.6,324.9,476.7,324,475.2,324.2z"/>
			<path fill="#222222" d="M486.7,241.3c-1.3,0.1-1.9-0.1-1-1.6c1.6-2.6,2.4-6,5.9-7c1.2-0.4,1.6-1.7,1.9-2.8
				c1-3.9,2.1-7.9,3.1-11.8c0.5-2.1,2.7-3.7,4.8-3.3c2.2,0.3,3.4,2.2,2.8,4.7c-0.6,2.9-1.4,5.8-2.1,8.7c-0.3,1.4-0.5,2.7-0.4,4.2
				c0.2,2.4-2,3.9-3.7,5.4C496.5,239.1,488.8,241.4,486.7,241.3z"/>
			<path fill="#222222" d="M330,227c-0.6,4.6-1.4,10-2.2,15.4c-0.5,3.5-3.4,5.2-5.9,6.7c-3,1.8-6,3.8-8.8,5.9
				c-0.8,0.6-1.7,1.1-2.6,1.5c-1.6,0.7-3.7,1.4-4.8-0.1c-1.3-1.7,0.3-3.4,1.5-4.8c0.7-0.9,1.8-1.3,2.8-1.6
				c9.4-2.7,13.4-9.6,14.8-18.6c0.3-2.1,0.4-4.3,0.7-6.5c0.1-0.8-0.6-2.3,1-2.3c1.5,0,2.9,0.5,3.4,2.1
				C330.1,225.3,330,225.8,330,227z"/>
			<path fill="#222222" d="M464.7,179.9c-0.9,6.3-3.6,11.9-8.9,16.1c-1.7,1.3-2.9,1.3-4-0.9c-2-4.1-2.2-4.7,2.1-6.2
				c4.4-1.5,5.6-4.2,6.1-8.5c0.6-5.9,0.9-11.4-2.6-16.5c-0.9-1.3-1.8-2.8-3.2-3.3c-2.8-0.9-3.2-3.5-4.7-5.3c-0.6-0.7-0.5-1.6,0-2.3
				c0.5-0.8,1.3-0.4,2-0.3c2.7,0.4,4.7,2.1,6,4.3C461.4,164.1,463.8,171.6,464.7,179.9z"/>
			<path fill="#222222" d="M449.1,325.8c-2.7-0.2-4.2-1.9-5.5-3.6c-0.7-0.8,0.4-1.4,0.9-1.6c2-0.8,2.7-4.8,5-3.3
				c2.8,1.9,4.2,1,6.2-0.8c2.8-2.4,4.3-5.3,4.5-8.9c0.1-2,0.7-3.2,3.1-3.1c1.6,0.1,3.4-1.8,4.6-0.7c1.2,1.1-0.3,3.1-0.3,4.7
				c0.3,7.4-4.5,11.3-10.3,14.2C454.6,324.1,451.7,324.8,449.1,325.8z"/>
			<path fill="#222222" d="M566,232.2c1.3,0.8,2.1,1.9,2.7,3c1.6,2.6,4,3.1,6.7,2.8c1.6-0.2,1.6-1.5,1.4-2.4
				c-1.2-4.3,1.2-8.2,1-12.4c-0.1-1.2,0.5-1.4,1.5-1c2.1,0.9,3.6,2.3,3.4,4.7c-0.6,6.2-1.4,12.4-2.1,18.6c-0.3,2.3-1.5,3-3.8,2
				c-2.5-1.1-5.1-1.9-7.2-3.8C566.4,240.6,564.3,237.1,566,232.2z"/>
			<path fill="#222222" d="M437.3,117.5c0.5,3.7-0.4,7-4,8.4c-3.8,1.5-7.8,2.7-11.6-0.6c-0.8-0.7-1.2-1.1-0.6-2.2
				c0.7-1.1,0.7-2.4,0.6-3.7c0-0.8,0.1-1.5,0.9-1.9c0.9-0.4,1.4,0.3,1.8,0.9c0.8,1.2,1.7,2,3.4,1.4c1.6-0.6,2.2-1.6,2.4-3.2
				c0.4-2.8,0.6-5.3-2.8-6.4c-0.9-0.3-1.5-1.1-2-1.8c-0.3-0.4-0.7-0.9-0.5-1.5c0.3-1,1-0.3,1.6-0.3c0.4,0,0.7,0,1.1-0.1
				c6.4-0.9,8,0.2,9.2,6.7C437,114.6,437.1,116,437.3,117.5z"/>
			<path fill="#222222" d="M324.9,175.7c-3.8,0-8.8-4.7-9-8.2c-0.1-1.8,0.4-3.3,2.1-4.1c1.7-0.8,3,0,4.1,1.2
				c3.2,3.1,3.8,3.2,7.4,0.8c2.9-2,5.4-4.3,6.8-7.6c0.5-1.1,5.1-1.9,5.8-0.9c0.6,0.7,0,1.6-0.3,2.3c-2.1,4.4-5.2,8.1-9,11.1
				c-2.2,1.8-5.2,2.6-6.9,5.1C325.7,175.7,325,175.7,324.9,175.7z"/>
			<path fill="#222222" d="M431.2,135.1c0,6-1.9,10.8-7.9,13.4c-2.2,1-4.4,1.9-5.9,4.1c-1.2,1.7-4.8,0.8-5.7-1.1
				c-0.8-1.6-1.6-3.3-1.3-5.2c0.4-2.8,2.8-3.9,5.2-2.6c2.4,1.3,6.3-0.2,7-2.8c0.6-2.1,1-4.2,1.4-6.4c0.6-3.1,1.2-3.7,4.3-3.4
				C430.6,131.4,431.2,132.3,431.2,135.1z"/>
			<path fill="#222222" d="M535.6,274.1c1.3,1.1,1.4,2.4,2.1,3.5c0.6,1,0.8,2.7,2.5,2.3c1.6-0.4,2.7-1.5,2.7-3.3c0-4,0-8-0.1-12
				c0-0.8-0.1-1.6,0-2.4c0.3-1.8,1.1-3.1,3.1-3.3c2.1-0.1,3.3,1.1,3.6,3c0.7,3.8,0.5,7.6-1.2,11.1c-0.9,1.9-1.8,3.8-1.4,6
				c0.4,2.6-1,4.1-2.8,5.4c-1,0.7-2.2,1.2-3.4,1.6c-1.6,0.5-3.4,1.9-4.8,0.2c-1.4-1.8-3-3.8-1.7-6.7
				C534.9,278,535.1,276.1,535.6,274.1z"/>
			<path fill="#222222" d="M475.1,156.4c7.9,10.1,13,20.7,8.6,33.6c-0.9,2.6-4.5,4.7-7.1,4.1c-1.4-0.3-0.9-1.3-0.6-2.1
				c0.7-1.6,1.8-3.1,2.4-4.8c3-8.1,1.3-15.5-3.3-22.2C473.2,161.9,473.8,159.5,475.1,156.4z"/>
			<path fill="#222222" d="M566.2,165.1c-0.2,4.4-1.3,9-3,13.4c-0.8,2-2.3,3.6-4.6,3c-2.3-0.6-2.8-2.8-2.4-4.9
				c0.5-2.7,1.4-5.3,2-7.9c0.7-3,1-5.9-0.8-8.7c-0.7-1.2-0.8-2.6-0.4-4c0.6-1.9,2.1-2.4,3.8-1.3C565,157.5,566.2,159.8,566.2,165.1z
				"/>
			<path fill="#222222" d="M551.3,168.2c0,1.4-0.3,4.2-1,7c-0.5,2.2-1.6,3.7-4.2,3.3c-2.5-0.3-3-2.2-3-4.2c0-1.6,0.3-3.3,0.5-4.9
				c0.6-3.8,0.5-7.4-2-10.6c-0.5-0.6-0.8-1.5-0.9-2.2c-0.3-1.8,0.1-3.5,2-4.4c1.7-0.8,3.2-0.1,4.4,1.2
				C550,156.4,551.5,161.2,551.3,168.2z"/>
			<path fill="#222222" d="M226.3,195.1c-0.2,0.7-0.4,1.8-0.8,2.8c-2.8,8.9-7.7,16.8-12.8,24.5c-1,1.6-2.5,2.3-4.2,1.1
				c-1.6-1.1-1.3-2.7-0.4-4.1c2.5-4,5.1-7.9,7.5-12c2.4-4.1,4.2-8.4,5.6-13c0.5-1.5,1.4-2.6,3.2-2.3
				C225.9,192.4,226.2,193.5,226.3,195.1z"/>
			<path fill="#222222" d="M502.9,180.7c-0.3,3.3-0.7,6.7-1.4,9.9c-0.6,2.6-1.9,3.3-4.2,2.3c-0.1,0-0.2,0-0.3-0.1
				c-3.8-1.1-3.7-1.1-2.7-4.9c1.2-4.8,2.2-9.5-0.8-14.2c-1.4-2.1,0.1-4.9,2.5-5.7c0.7-0.2,1.2,0,1.7,0.5
				C501.9,172.5,503,175.2,502.9,180.7z"/>
			<path fill="#222222" d="M523.8,187.7c-0.1,1.6-0.3,3.6-0.5,5.7c-0.2,2-1.3,3.4-3,4.3c-1.4,0.7-2.8,1.4-4.4,0.5
				c-1.6-1-0.6-2.5-0.4-3.7c0.8-5.2,1.5-10.4-1.2-15.4c-1.1-2.1-0.2-4.7,1.6-5.4c2.3-1,3.8,0.2,5,2
				C523.3,179.1,523.5,183.1,523.8,187.7z"/>
			<path fill="#222222" d="M422.8,323.7c-1.3-0.3-3.3,0.2-4.3-1.7c-0.8-1.7-0.3-3.4,0.6-4.9c0.7-1.1,1.5-1.6,2.6-0.4
				c0.9,1,1.9,0.9,2.9,0.3c2.2-1.3,4.7-2,7.1-2.5c3.1-0.7,5.2-2.5,6.4-5.3c0.6-1.4,1.6-2.4,2.9-3.1c0.7-0.4,1.6-1.4,2.4-0.6
				c0.8,0.8,1.5,2.1,0.6,3.2c-4.2,6-7.3,13.2-16,14.1C426.4,322.9,424.8,323.8,422.8,323.7z"/>
			<path fill="#222222" d="M364.1,169.8c-0.5,3-2.9,4.6-5,5.9c-3.3,2.1-6.7,4.3-10.5,5.5c-1.2,0.4-2.2,0.7-3.3-0.2
				c-2.3-1.7-4.7-3.4-7-5.1c-0.4-0.3-0.9-0.8-0.9-1c0.8-2.4,3.1-3.6,4.6-5.5c0.9-1.2,1.8,0.1,2.5,0.7c7.7,5.5,5.8,5.5,13.7,0.4
				c1.4-0.9,2.9-1.4,4.5-1.7C363.6,168.8,364.3,168.8,364.1,169.8z"/>
			<path fill="#222222" d="M628.3,231.8c0,3.9-0.1,6.8-3.1,8.6c-0.7,0.4-0.8,1.1-0.8,1.9c0,4.9-2.1,9.1-4.3,13.3
				c-0.6,1.1-1.5,2.1-2.8,2.5c-1,0.3-2,0.1-2.8-0.7c-0.9-0.9-0.2-1.7,0.2-2.5c2.1-4,4.1-8.1,4.1-12.8c0-0.4,0.1-0.9,0.5-1.2
				c4.8-3.3,3.8-8.5,4.2-13.3c0.1-1-0.8-2.4,0.5-2.9c1.5-0.5,2.5,0.7,3.2,2C628.2,228.6,628.3,230.6,628.3,231.8z"/>
			<path fill="#222222" d="M568.9,264.5c-0.1,7.1-2.3,12.7-6.6,17.5c-0.9,1-1.7,1.3-2.9,0.7c-0.2-0.1-0.5-0.2-0.7-0.4
				c-1.6-0.7-3.2-1.4-4.9-2.2c1-1.7,1.9-3.5,2.9-5.2c0.6-1.2,1.3-1.8,2.4-0.4c0.4,0.5,0.8,1.1,1.6,0.8c0.7-0.3,0.5-1.1,0.6-1.7
				c0.1-2.5,0.2-5.1,0.4-7.6c0.1-1.1,0.2-2.2,0.4-3.2c0.5-1.8,1.5-3.2,3.6-3c2.1,0.1,2.9,1.6,3.2,3.5
				C568.9,263.8,568.9,264.5,568.9,264.5z"/>
			<path fill="#222222" d="M494.3,154.1c-0.2,2.8-0.3,6.2-2.2,9.3c-0.8,1.2-1.9,3.2-3.5,2.3c-1.6-0.9-1.6-2.8-1.1-4.8
				c1.5-5.5,0.6-10.8-3.2-15.2c-1.4-1.7-1.9-2.7,0.1-4c0.6-0.4,1.2-1.2,1.5-1.9c1-2.5,1.9-2.2,3.4-0.3
				C493.2,144.5,494.3,147.5,494.3,154.1z"/>
			<path fill="#222222" d="M533,220.9c-0.1,0.9-0.2,2.7-0.6,4.3c-0.8,3.6-0.3,7.1,1.3,10.3c0.5,1.1,0.6,2-0.1,3
				c-1.1,1.7-2,3.5-3.1,5.1c-2.5,3.7-3.5,4-7.6,2.3c-1.2-0.5-2.8-0.7-3.1-2.2c-0.2-1,3.4-4.6,4.5-4.6c1.5,0.1,1.9-0.8,2.1-2
				c1.2-5.8,3.4-11.5,3.8-17.5c0-0.8-0.5-2.5,1.4-2.4C533.3,217.5,533.1,218.9,533,220.9z"/>
			<path fill="#222222" d="M519.7,231.4c-0.8,2.8-2.2,5.2-4.3,7.1c-2.3,2.1-5,3.9-8,5c-0.9,0.3-2.1,1-2.7-0.2
				c-0.5-1-0.9-2.2,0.1-3.3c1.8-1.8,3.3-3.9,5.3-5.4c1.6-1.3,2.3-2.7,2.4-4.6c0.2-2.9,0.4-5.8,0.5-8.7c0-3.2,2.8-2.1,4.2-2.5
				c1.3-0.4,1,1.6,1,2.5C518.2,224.8,518.6,228.1,519.7,231.4z"/>
			<path fill="#222222" d="M533.5,163c0,1.9,0,3.8,0,5.7c0,0.6,0,1.3-0.7,1.7c-2,1-6.6-1.7-6.6-4c0.1-4.7-0.1-9.3-1.5-13.8
				c-0.2-0.6-0.2-1.3-0.1-1.9c0.1-1.9,0.9-3.4,2.9-3.8c1.9-0.4,3.1,0.8,3.8,2.4c1,2.3,1.6,4.8,1.9,7.4c0.3,2.1,0.4,4.2,0.5,6.2
				C533.7,163,533.6,163,533.5,163z"/>
			<path fill="#222222" d="M544,190.6c0.4,5.4-1.7,10.4-4.9,15.1c-0.6,0.9-1.2,1.7-2.4,1.3c-1.3-0.4-1.6-1.5-1.5-2.6
				c0.3-2.4,0.8-4.8,1.3-7.2c0.7-3.4,0.9-6.8,0-10.2c-0.1-0.4-0.2-0.9-0.2-1.3c0-2.1,0.6-3.9,2.8-4.3c2.3-0.4,3.5,1.1,4.1,3.1
				C544,186.1,544,188.2,544,190.6z"/>
			<path fill="#222222" d="M319.1,141.3c-0.2,3.3-0.9,7.3-2.8,11c-0.9,1.8-1.7,3.6-4.2,3.7c-0.7,0-1.4,0.8-2,1.3
				c-1.7,1.4-3.6,2.5-5.7,2.9c-1,0.2-2,0.4-2.5-0.8c-0.6-1.4,0.6-1.7,1.4-2.1c5.2-2.9,8.4-7.4,10.5-12.8c1-2.7,1.8-5.6-0.4-8.2
				c-0.7-0.9,0.1-1.4,0.7-1.7c1.9-0.9,3.3-0.1,4.3,1.6C319.1,137.6,319.2,139,319.1,141.3z"/>
			<path fill="#222222" d="M584.3,267.4c0.3,3.4-0.3,7-2.8,10.2c-1.1,1.4-2.2,2.1-3.8,0.7c-0.5-0.5-1.2-0.8-1.9-1.1
				c-3-1.5-3.3-2-2.3-5.2c0.1-0.4,0.1-1.1,0.7-1c2.7,0.6,2.1-1.6,2.4-2.8c0.4-1.6,0.4-3.2,0.8-4.8c0.4-2,1.4-3.7,3.8-3.5
				c2.4,0.2,3.1,2,3.2,4C584.3,264.9,584.3,265.9,584.3,267.4z"/>
			<path fill="#222222" d="M558.6,185.8c-0.5,5.5-1.2,10.9-3,16.1c-1,2.8-2.4,5.3-4.5,7.4c-0.9,0.9-2.2,1.5-3.2,0.8
				c-1.2-0.8-0.1-2,0.3-2.9c1.9-3.8,3.6-7.5,4.4-11.7c0.5-2.3,0.6-4.7,0.1-7c-0.3-1.2-0.4-2.5,0.1-3.8c0.6-1.7,1.9-2.7,3.8-2.3
				C558.4,182.7,558.9,184.1,558.6,185.8z"/>
			<path fill="#222222" d="M637.3,231.5c-0.5,2.4-0.6,5.4-2.2,8.1c-0.9,1.5-1.2,3,0.3,4.4c0.8,0.8,0.8,1.7,0.5,2.8
				c-1.2,4-3.9,6.9-7.2,9.3c-1.3,0.9-1.8,0.2-1.9-1.1c-0.1-0.9,0-2,0.6-2.6c2.8-2.7,2.5-7,5.3-9.7c0.7-0.6,0.1-1.2-0.4-1.6
				c-1-0.9-1.5-2.1-1.4-3.4c0.3-3.3,0.9-6.6,1-10c0-1.1,0.7-2.2,1.8-2.5c1.3-0.3,1.8,1,2.4,1.8C637,228.3,637.4,229.6,637.3,231.5z"
				/>
			<path fill="#222222" d="M585.7,199.1c-0.1,3-0.3,6-0.9,8.9c-0.5,2.3-1.6,3.3-3.9,2.5c-0.5-0.2-1.1-0.3-1.6-0.3
				c-1.7-0.2-2.4-0.7-1.5-2.6c2.1-4,2.4-8.3,1.4-12.7c-0.3-1.3-0.3-2.5,0.2-3.7c0.6-1.4,1.6-2.2,3.2-2.2c1.6,0.1,2.4,1,2.8,2.5
				C586,194,586,196.5,585.7,199.1z"/>
			<path fill="#222222" d="M492.8,117.8c6.3,1.3,7.1,2.3,7,8.5c-0.1,2.6-0.4,5.2-0.8,7.8c-0.2,1.2-0.7,2.6-2.2,2.8
				c-1.3,0.2-2.2-0.6-3-1.5c-1.5-1.5-2.2-3.1-1.8-5.4C492.7,126.2,491.7,122,492.8,117.8z"/>
			<path fill="#222222" d="M571.6,163.2c2.4,1.7,4.7,3.5,7.1,5.2c0.7,0.6,0.6,1.5,0.5,2.3c-0.4,3.5-1.4,6.8-2.8,9.9
				c-0.6,1.3-1.5,3-3.1,2.4c-1.7-0.7-3.9-1.5-3.8-4.1c0.1-1.1,0.3-2.2,0.6-3.2C571.6,171.8,572.7,167.9,571.6,163.2z"/>
			<path fill="#222222" d="M449.2,127c-0.1-1.4,0-2.4,0.6-3c3.1-3.5,3.1-7.8,3.6-12c0.1-0.7-0.2-1.6,0.6-1.9
				c0.9-0.4,1.6,0.1,2.2,0.6c3,2.2,4.1,5.3,2.4,8.5c-1.1,2.2-0.5,4.9-2.2,6.9c-0.7,0.8-1.2,1.8-2,2.6c-1,1-2.1,2.5-3.6,1.9
				C449.2,129.9,449.4,128.1,449.2,127z"/>
			<path fill="#222222" d="M599.2,206.8c0.1,3.2-0.5,6.1-1.9,8.9c-0.5,0.9-1.1,1.7-2.1,1.9c-1.3,0.3-2.7,1.1-3.8-0.3
				c-1-1.2-0.8-2.5-0.2-3.8c1.5-3,2-6.2,1.3-9.5c-0.2-1.1-0.1-2.2,0.1-3.2c0.4-1.6,1.4-2.5,3-2.6c1.8-0.1,2.6,1.1,2.9,2.7
				C598.8,202.8,599,204.8,599.2,206.8z"/>
			<path fill="#222222" d="M590.6,248.5c-1.3,0.1-1.8-0.5-1.1-1.9c2.8-5.9,3.9-12.2,4.7-18.6c0.4-3,2.5-5,4.1-7.2
				c0.3-0.4,0.9-0.8,1.4-0.2c0.5,0.5,0.6,1,0.5,1.7c-0.8,4.4-1,9-3.7,13c-0.6,1-0.3,2.6-0.3,4c0,2.3-0.7,4.5-1.6,6.5
				C594,247.4,592.7,248.4,590.6,248.5z"/>
			<path fill="#222222" d="M510.6,155.8c-0.1,3.2-0.6,6-2.6,8.2c-0.7,0.8-1.4,2.2-2.9,1.3c-1.4-0.8-2.8-1.7-2.4-3.8
				c0.6-2.8,1.1-5.7,1.1-8.6c-0.1-1.9-0.1-3.8-1.4-5.4c-1-1.3-0.4-1.7,1-1.7c2.7-0.1,6,2.6,6.6,5.8
				C510.4,153.1,510.5,154.7,510.6,155.8z"/>
			<path fill="#222222" d="M293.4,127.1c1.5-4,4-7.5,5.3-11.5c0.5-1.6,0.8-3-0.5-4.5c-1.3-1.6,0.1-3.1,1.1-4.3
				c1.1-1.3,2.5-2.1,4.3-1.9c0.3,0,0.6,0.6,0.7,1C307.4,114.2,302.2,124.4,293.4,127.1z"/>
			<path fill="#222222" d="M385.2,124.9c-0.1,2.5-0.6,4.1-2.6,4.7c-2,0.6-3.2-0.6-4.2-2.2c-1.3-2.3-2.6-4.6-3.8-6.9
				c-0.8-1.5-0.9-3.2,0-4.7c1-1.8,3.2-2.6,4.6-1.2C382.1,117.6,384.5,121.1,385.2,124.9z"/>
			<path fill="#222222" d="M539.4,247.4c5.8-7,6.4-15.5,7-24.1c1.6,0.6,1.3,1.6,1.5,2.3c0.5,2,0.5,4,2.1,5.8
				c1.5,1.6,1.2,9.8-0.1,11.4c-0.2,0.2-0.4,0.5-0.6,0.6C546,244.7,542.7,246.1,539.4,247.4z"/>
			<path fill="#222222" d="M479.2,135c-0.8-3-2.1-5.1-3.3-7.2c-1-1.7,0.1-3.7,0.1-5.6c0-3.2,0.8-6.3,0.4-9.5
				c5.1,0.8,7.2,3.8,6.4,8.6c-0.6,3.5-1.1,7-2.2,10.4C480.3,132.6,479.8,133.5,479.2,135z"/>
			<path fill="#222222" d="M570.8,195.8c-0.1,3.9-0.8,7.7-1.7,11.5c-0.3,1-0.7,1.9-1.7,2.3c-1.2,0.5-2.6,1.7-3.8,0.9
				c-1.2-0.8-0.2-2.4,0.2-3.5c1.8-5.7,3.2-11.3,2.4-17.4c-0.1-1.1-0.4-2.7,1-3c1.2-0.2,1.9,1.2,2.5,2.2
				C571,191,570.8,193.4,570.8,195.8z"/>
			<path fill="#222222" d="M467.4,160.8c-1.2-4.7-1.6-8.8-0.6-12.8c1.5-5.6-1.3-9.8-4.5-13.6c-2-2.3-2.3-3.7-0.3-5.8
				c0.5-0.5,0.5-1.3,1.3-1.7C469.9,137.4,472,148.3,467.4,160.8z"/>
			<path fill="#222222" d="M616.1,206.3c-0.1,3.6-0.8,7-2,10.3c-0.6,1.7-3.3,2.7-4.9,2c-1-0.4-0.8-1-0.5-1.7
				c2.2-5.1,2.9-10.2,1-15.6c-0.4-1.1,0.1-2,1.2-2.4c1.4-0.6,2.7-0.3,3.7,0.9C616.2,201.7,616.1,204,616.1,206.3z"/>
			<path fill="#222222" d="M387.9,116.1c1.2-3.6,2.5-7.4,3.6-11.3c0.4-1.5,2.3-1.7,3.8-1.3c1.5,0.4,2.1,1.6,1.9,3.2
				c-0.6,4.2-2.1,8-3.6,11.9c-0.4,1.2-0.8,2.5-2.5,2.3c-1.7-0.2-2.5-1.3-2.9-2.8C387.9,117.6,388,117,387.9,116.1z"/>
			<path fill="#222222" d="M361.3,110c0.1-0.3,0.2-1,0.5-1.5c1.4-2.2,2.8-4.4,4.4-6.6c0.9-1.3,2.3-1.8,3.9-1.3
				c1.4,0.5,2.1,1.7,2.3,3.1c0.4,2.7-3.9,9.9-6.4,10.9C363.5,115.7,361.3,113.7,361.3,110z"/>
			<path fill="#222222" d="M615.6,228.3c-0.3,4.7-2.1,8.5-4.8,11.9c-1.3,1.6-3.1,1.9-4.8,0.4c-1.7-1.4-0.9-2.8,0.3-4.2
				c2.8-3.4,5.4-7,5.1-11.9c-0.1-2,1.5-1.2,2.3-0.7C615.4,224.9,615.5,226.8,615.6,228.3z"/>
			<path fill="#222222" d="M588.9,177.1c-0.6,2.2-0.8,4.7-2.5,6.6c-1.3,1.5-2.9,2.3-4.8,1.3c-2-1-2.6-2.9-1.9-4.9
				c1-2.6,2.3-5.1,2.2-8c0-0.6,0.4-1.1,1-0.7c1.9,1.3,3.7,2.6,5.5,3.9C589,175.7,588.9,176.4,588.9,177.1z"/>
			<path fill="#222222" d="M639.1,208.8c0,3.1-0.3,6.2-1,9.2c-0.2,0.8-0.1,1.9-1.4,2c-1.2,0.1-2.1-0.5-2.7-1.4
				c-0.9-1.5-0.9-3.1-0.5-4.7c0.9-3.4,1.7-6.9,1.6-10.4c0-0.7,0.3-1.4,0.6-2c0.5-0.8,1.1-1.6,2.1-1.4c1.1,0.2,0.7,1.3,0.8,2.1
				C638.8,204.3,638.9,206.5,639.1,208.8z"/>
			<path fill="#222222" d="M516.6,132.2c-0.7,2.2-1.5,4.5-3.5,5.9c-1.3,0.9-3,0.9-4.3-0.1c-1.4-1.1-1.6-2.6-0.9-4.2
				c1.1-2.5,2.1-5,2.8-7.6c0.3-1.3,1-1.4,1.9-0.7C514.7,127.3,515.9,129.5,516.6,132.2z"/>
			<path fill="#222222" d="M590,268c-0.1-2.1,0-4.2-0.8-6.2c-0.4-0.9-0.7-1.7,0.2-2.4c0.8-0.7,1.8-0.9,2.8-0.6c1,0.3,1.7,1,2.2,1.9
				c1.5,2.8,0.9,10.1-1.1,12.5c-0.5,0.6-0.9,1.1-1.7,1.3c-1.4,0.2-2.8,0.6-2.1-1.9C590,271.1,589.9,269.5,590,268z"/>
			<path fill="#222222" d="M520.6,309c0-0.9,0-1.8,0-2.7c0.1-2.8,2.2-4.5,5-4c0.8,0.1,1.5,0.5,1.8,1.1c1.1,2.7,0.7,5.6-0.1,8.1
				c-0.7,2.1-3.5,2.6-5.7,3.2c-1,0.3-1.1-0.7-1.2-1.4c-0.1-1.4,0-2.9,0-4.3C520.5,309,520.6,309,520.6,309z"/>
			<path fill="#222222" d="M507.5,302.3c2.2,0,3,1,2.7,2.9c-0.7,4.3-3.7,6.8-7.2,8.7c-1.3,0.7-2.4,0.1-2.1-1.6
				c0.5-2.6,1-5.2,1.7-7.7C503.4,302,505.9,302.8,507.5,302.3z"/>
			<path fill="#222222" d="M611.4,248.3c-0.7,3.2-2.1,6.1-4.4,8.6c-1.3,1.4-3.1,1.5-4.6,0.1c-1.6-1.6-1.1-2.9,0.5-4.3
				c2-1.8,3.4-4,4.4-6.5c0.3-0.8,0.1-2.3,1.5-2.2c1.3,0.1,2,1.2,2.3,2.4C611.3,247,611.3,247.6,611.4,248.3z"/>
			<path fill="#222222" d="M619.1,215.9c0.9-3.8,1.7-7.2,2.6-10.6c0.4-1.6,1.5-2,2.9-1c2,1.4,3.7,3,2.2,5.7c-0.2,0.3-0.2,0.7-0.4,1
				c-0.8,1.6-1.3,3.5-2.4,4.8C622.6,217.7,620.9,214.8,619.1,215.9z"/>
			<path fill="#222222" d="M413,120.6c-1-3-1.8-5.2-2.5-7.4c-0.9-2.9,0.8-5.3,1.8-7.7c0.5-1.2,2.7-0.7,3.1,0.7
				C416.6,111.1,415.5,115.6,413,120.6z"/>
			<path fill="#222222" d="M527.7,138.9c0.4-1.5-0.1-3.9,1.3-4.8c1.2-0.7,2.8,1,4.3,1.7c2.7,1.4,2.1,3.5,1.3,5.5
				c-0.6,1.7-1.9,3-3.9,2.5C528.2,143.4,527.7,141.4,527.7,138.9z"/>
			<path fill="#222222" d="M539.5,308.4c1-2.6,1.8-4.8,1.9-7.1c0.1-1.6,5.3-3.9,6.5-3.1c0.1,0.1,0.3,0.2,0.3,0.4
				c0.6,1.1-1.3,6.4-2.6,7c-1.1,0.6-2.3,1.1-3.4,1.6C541.5,307.6,540.8,307.9,539.5,308.4z"/>
			<path fill="#222222" d="M559.7,292.7c1.5,0.1,2.9,0.2,3.5,1.9c0.7,1.9-0.7,2.6-2,3.3c-1.6,0.9-3.2,1.7-4.8,2.5
				c-1.3,0.7-1.7,0.3-1.3-1.1c0.4-1.5,0.7-3,1.2-4.4C557,293.4,558.1,292.7,559.7,292.7z"/>
			<path fill="#222222" d="M542.6,147.5c-2.3,0-3.9-1.8-3.8-4.2c0-0.9-0.3-2.3,1.3-2.4c0.9,0,5.6,3.6,5.4,4.2
				C545.1,146.6,543.9,147.4,542.6,147.5z"/>
			<path fill="#222222" d="M600.3,186.8c-1.8,0-3-0.9-3.5-2.5c-0.3-0.9-0.8-2.1,0.2-2.7c0.8-0.5,1.3,0.6,2,1.1
				c0.8,0.5,1.5,1,2.2,1.6c0.5,0.4,1.6,0.5,1.3,1.4C602.2,186.6,601.1,186.7,600.3,186.8z"/>
			<path fill="#222222" d="M427.6,184.2c1.8,1.9,3.2,3.4,4.6,4.8C429.9,189.7,428.6,188.5,427.6,184.2z"/>
			<path fill="#222222" d="M710.8,306.8c-3.7-0.4-7.1-1.6-10.4-3.3c-8.4-4.6-15.6-10.6-22.3-17.3c-5-5.1-10.5-9.8-14.6-15.8
				c-1.5-2.1-0.5-3.6,0.2-5.3c0.3-0.9,1.1-0.9,1.8-0.5c0.6,0.4,1.2,0.9,1.6,1.4c8.5,11,18.7,20.3,29.9,28.4
				c3.9,2.8,8.1,5.3,12.9,6.3c1.3,0.3,3.1,4.3,2.6,5.4C712.1,306.9,711.4,306.7,710.8,306.8z"/>
			<path fill="#222222" d="M719.8,166c-0.1,0.9-0.2,1.9-0.2,2.9c0,2.1-1,3.3-3.1,4.1c-11.6,4.3-21.4,11.8-31.7,18.4
				c-5.6,3.6-10.9,7.4-16.8,10.5c-2-4.4-1.9-4.7,2.1-7.3c8.9-5.8,17.7-11.8,26.5-17.7c6.7-4.4,13.8-8.1,21.4-10.7
				C718.5,166.1,719,165.7,719.8,166z"/>
			<path fill="#222222" d="M710,198.6c-1.3,4.5-3.4,7.2-7.8,8.6c-10,3.3-19.5,7.9-29,12.3c-0.8,0.4-1.8,1.7-2.8,0.5
				c-0.8-1-0.1-4.9,0.9-5.4c2.1-1.1,4.2-2.1,6.4-3.1c9.5-4.4,18.9-8.9,28.8-12C707.5,199.2,708.5,199,710,198.6z"/>
			<path fill="#222222" d="M687,256.2c0.4,1.5-0.2,1.9-1.5,1.5c-5.8-1.8-11.6-3.5-17.3-5.4c-2.7-0.9-0.5-2.9-0.6-4.4
				c-0.1-1.5,1.2-0.9,2-0.6c5,1.5,10,3,15.1,4.4C687.4,252.3,686.6,254.5,687,256.2z"/>
			<path fill="#222222" d="M683.5,228.9c0.5,0,1.1,0,1.6,0c1.3,0.1,3.2-0.8,3.6,1.2c0.5,2.4-1.5,4.4-3.8,4.3
				c-4.6-0.2-9.1,0.3-13.5,1.3c-1.5,0.3-2.2,0.5-2.2-1.7c0.1-2.9,1.2-3.9,3.9-4.2C676.7,229.4,680.1,228.9,683.5,228.9z"/>
			<path fill="#222222" d="M467.8,54.2c-1.5,0.6-3,1.1-4.5,1.7C452.5,59.7,443.4,66,436,74.7c-1.9,2.2-3.5,4.7-4.6,7.3
				c-1,2.2-2.5,1.6-4.1,1.2c-1.9-0.4-0.7-1.7-0.6-2.6c0.6-5.1,3.9-8.8,7.3-12.2c7-6.9,14.8-12.8,24.3-16.2c1.2-0.4,2.4-0.7,3.7-1
				C464.6,50.5,466.7,51.1,467.8,54.2z"/>
			<path fill="#222222" d="M488.6,65.1c-11.8,4.7-23.2,9.5-29,21.8c-1.1,2.4-4.5,2.9-6.6,1.4c-0.9-0.6-0.2-1.1,0.1-1.6
				c5.8-12.8,16.7-19.7,29-24.9c1.1-0.5,2-0.4,3,0.4C486.2,63.3,487.5,64.2,488.6,65.1z"/>
			<path fill="#222222" d="M505.8,78.3c-0.5,1.4-1.8,2-3,2.4c-6.6,2.5-11.9,7-16.8,11.8c-0.5,0.5-1,1-1.5,1.6
				c-1.1,1.2-4.6,1.5-5.7,0.3c-0.5-0.5-0.2-1,0.1-1.4c0.7-1.1,1.3-2.2,2.2-3.1c5.7-6,11.7-11.4,19.5-14.5
				C502.3,74.8,506,76.6,505.8,78.3z"/>
			<path fill="#222222" d="M520,89.9c0.1,0.8-0.6,1.4-1.5,1.8c-4.3,2.4-8.2,5.3-11.8,8.8c-1,1-5.1,0.7-6-0.3c-0.5-0.6,0-1,0.3-1.4
				c4.2-4.9,9.2-8.8,14.8-11.9C517.2,86.2,520.1,88.2,520,89.9z"/>
			<path fill="#222222" d="M523.7,108.3c2.8-2,5.4-3.9,8.2-5.6c2.5-1.6,2.9,1.2,4,2.3c1.4,1.4-0.4,1.7-1.1,2.2
				c-0.7,0.6-1.6,0.9-2.2,1.5C529.6,111.7,526.8,111,523.7,108.3z"/>
			<path fill="#222222" d="M555.4,123.8c-3.2,1.8-3.3,1.8-7.9-1.6C551.1,119.6,551.3,119.6,555.4,123.8z"/>
			<path fill="#222222" d="M574.9,138.5c-3,1.5-5.7,0.7-7.1-1.8c-0.3-0.5-0.3-0.9,0.2-1.1c0.9-0.3,1.8-1,2.8-0.2
				C572,136.4,573.4,137.3,574.9,138.5z"/>
		</g>
	</g>
</g>
<g id="_xFFFD__x9C__x96_撅_xFFFD__4_xA0_影像_3_">
</g>
<g id="_xFFFD__x9C__x96_撅_xFFFD__7_xA0_影像_1_">
</g>
<g id="_xFFFD__x9C__x96_撅_xFFFD__4_xA0_影像_1_">
</g>
<g id="_xFFFD__x9C__x96_撅_xFFFD__9_xA0_影像_1_">
</g>
</svg>
