<?xml version="1.0" encoding="utf-8"?>
<!-- Generator: Adobe Illustrator 18.0.0, SVG Export Plug-In . SVG Version: 6.00 Build 0)  -->
<!DOCTYPE svg PUBLIC "-//W3C//DTD SVG 1.1//EN" "http://www.w3.org/Graphics/SVG/1.1/DTD/svg11.dtd">
<svg version="1.1" xmlns="http://www.w3.org/2000/svg" xmlns:xlink="http://www.w3.org/1999/xlink" x="0px" y="0px"
	 viewBox="0 0 864 304" enable-background="new 0 0 864 304" xml:space="preserve">
<g id="_xFFFD__x83__x8C__xFFFD__x99__xA0_影像_1_">
</g>
<g id="_xFFFD__x9C__x96_撅_xFFFD__4_xA0_影像_9_">
</g>
<g id="_xFFFD__x9C__x96_撅_xFFFD__2_xA0_影像_1_">
	<g>
		
			<polyline fill="#FFFFFF" stroke="#FFFFFF" stroke-width="20" stroke-linecap="round" stroke-linejoin="round" stroke-miterlimit="10" points="
			105.4,137.1 122.1,121 158.1,110.5 185.6,106.1 219.5,97 252.5,92.5 309.5,89.5 371,91 410,95.5 453.9,106.7 489.2,112.9 
			549.9,128.2 607.9,126.9 633.6,119.5 665.9,160.9 652.6,183.5 626.6,176.9 572.6,183.5 528.6,196.9 469.9,231.5 423.9,250.2 
			377.2,254.2 309.2,248.9 238.6,237.5 175.9,218.2 131.2,187.5 100.6,154.9 100.6,140.9 105.4,137.1 105.4,137.1 		"/>
		<g>
			
				<path fill="#369EBB" stroke="#FFFFFF" stroke-width="20" stroke-linecap="round" stroke-linejoin="round" stroke-miterlimit="10" d="
				M707.2,144.5c3.3-0.4,7.5,1.2,11.3,4c7.4,5.5,14.7,11,20.5,18.3c5.1,6.4,12.1,10.4,19.5,13.5c5.6,2.3,10.8,5.1,14.6,10
				c0.7,0.9,1.3,1.8,1.8,2.7c1.6,3.3,0.3,6-3.2,7c-1.6,0.5-3.2,0.4-4.9,0.3c-6.3-0.7-12.6-1.8-18.9-2.5c-9.8-1.1-19.7-2-29.6-1
				c-8,0.8-15.7-0.4-23.6-1.4c-10.6-1.4-20.8-4.4-31.2-6.5c-5.3-1.1-10.1-3.4-14.5-6.7c-2.9-2.2-3.4-4.1-2.1-7.6
				c1.6-4.3,2.1-9,3.8-13.3c0.9-2.3-0.9-4.2-2.6-5.2c-6.4-3.8-7.6-9.7-7.5-16.4c0.1-5.2-1.7-9.4-6.5-11.9c-2.1-1.1-2.5-2.8-1.6-4.8
				c0.5-1.1,1-2.1,1-3.3c0-0.9,0.7-1.4,1.4-1.9c8.3-5.1,16.7-10.2,25-15.3c3.5-2.2,7-4.2,10.8-5.9c5.2-2.3,10-5.1,14.7-8.3
				c4.3-2.9,9-5.1,14.1-6.2c3.6-0.8,6.6-3,9.5-5.2c2.2-1.6,4.3-3.3,6.6-4.9c1.4-1,3-1.8,4.6-2.3c5.7-1.6,8.6,1.2,7.8,7.1
				c-2,14.3-8.7,26.4-16.9,37.9c-3.2,4.6-6.4,9.3-8.4,14.6c-1.5,4-4.4,7.1-7.4,10c-2.4,2.3-2.3,2.7,0.8,4
				C699.2,144.4,702.4,144.7,707.2,144.5z"/>
			
				<path fill="#369EBB" stroke="#FFFFFF" stroke-width="20" stroke-linecap="round" stroke-linejoin="round" stroke-miterlimit="10" d="
				M530.9,195.6c3.1-0.4,6.5-1.5,9.8-2.7c3-1.1,6.2-0.3,9.1-1.8c1-0.5,2.2,0.2,2.8,1.2c0.7,1.4,0.3,2.7-0.8,3.7
				c-3.5,3.3-5.5,7.6-7.4,11.9c-3.6,8.4-5,17.4-6.7,26.3c-0.3,1.3,0.1,2.7,0.2,4.1c0.4,3.8,0,7.5-2.4,10.6c-3,3.7-3.2,7.4-1,11.6
				c1.2,2.2,2,4.5,2.9,6.8c0.8,2,1.4,4.1-0.6,5.8c-2,1.7-4.2,1.4-6.4,0.3c-10.2-5.2-19.4-11.7-28.4-18.6c-8.5-6.5-17-13-26.2-18.6
				c-1.1-0.7-1.8-1.5-1.6-2.9c0.2-1.3,1.1-1.8,2.3-1.9c0.3,0,0.9-0.2,0.9-0.3c0.8-4,4.6-3.6,7.2-4.9c1.3-0.7,2.6-1,2.9-2.8
				c0.2-1.3,1.5-2,2.4-2.9c7.3-6.2,15.2-11.4,23.6-16c4.1-2.3,8.3-4.4,12.2-7.2C527.1,196.2,528.6,195.1,530.9,195.6z"/>
			
				<path fill="#369EBB" stroke="#FFFFFF" stroke-width="20" stroke-linecap="round" stroke-linejoin="round" stroke-miterlimit="10" d="
				M326.6,218.3c-6.5-0.4-12.4-2.5-18.3-5.6c-11.1-5.8-22.1-11.9-34.8-13.5c-1.7-0.2-3.4-0.8-3.1-3c0.3-2.1,2-2.3,3.8-2
				c0.9,0.1,1.8,0.1,2.7,0.4c1.1,0.4,1.7,0.2,2.2-1c0.8-2,2.8-2.5,4.7-3c8.7-2.3,17.6-3.9,26.5-4.8c16.4-1.8,32.5-4.6,48.3-9.3
				c7.9-2.4,16.2-3.1,23.7-6.7c1.6-0.8,3.5-0.9,4.6,1c1,1.8,0,3.3-1.4,4.5c-9.2,8.5-18.1,17.3-28.2,24.8c-4.3,3.2-7.7,7.1-11.6,10.7
				C340.4,215.3,332.5,218.5,326.6,218.3z"/>
			
				<path fill="#369EBB" stroke="#FFFFFF" stroke-width="20" stroke-linecap="round" stroke-linejoin="round" stroke-miterlimit="10" d="
				M439.9,103.3c-0.5-0.1-1.5-0.4-2.4-0.7c-11.7-3.7-23.5-7-35.5-9.6c-1.4-0.3-2.4-0.9-2.4-2.5c0-1.3,0.6-2.2,1.8-2.4
				c3.6-0.6,6.5-2.7,9.5-4.5c4.3-2.5,8.2-5.6,12.2-8.6c14.5-10.9,29.1-21.7,43.7-32.6c0.6-0.4,1.2-0.8,1.8-1.2
				c1.2-0.6,2.4-0.7,3.6,0.1c1.2,0.9,1.3,2.2,1,3.5c-0.7,2.7-1.6,5.4-3,7.9c-5.5,9.4-9.9,19.4-14.5,29.3c-3.1,6.6-7,12.7-11.1,18.7
				C443.6,102.2,442.4,103.3,439.9,103.3z"/>
		</g>
		<g>
			
				<path fill="#222222" stroke="#FFFFFF" stroke-width="20" stroke-linecap="round" stroke-linejoin="round" stroke-miterlimit="10" d="
				M443.2,245.5c0.6,0.3,1,0.6,1.4,0.7c1.6,0.6,3,1.3,3.2,3.3c0.2,2.2-1.1,3.4-2.8,4.3c-6.6,3.4-13.6,5.1-21,4.8
				c-7.6-0.3-15.2-1.1-22.7-2.8c-2.6-0.6-5.2,0.3-7.9,0.4c-10.5,0.5-20.9-0.2-31.3-1.2c-9.3-1-18.6-1.7-28-1.9
				c-14.3-0.4-28.4-2.1-42.4-4.9c-14.4-2.9-29.1-4.3-43.5-7.1c-26.2-5.1-51.9-12.1-76.1-23.4c-17-8-32.3-18.8-45.7-32.1
				c-7.3-7.3-14.1-14.9-21.8-21.8c-4.2-3.8-6.9-8.4-6.1-14.4c0.1-0.6,0.1-1.3,0.3-1.9c0.4-1.1,1-2,2.4-1.8c1.3,0.3,1.8,1.3,1.6,2.5
				c-1.3,5.7,1.6,9.6,5.5,13.1c10.2,9,19.1,19.5,29.5,28.3c15.7,13.3,33.1,23.3,52.4,30.6c25.6,9.7,52,15.5,78.9,19.8
				c13.5,2.1,27,4.7,40.6,6.7c10.9,1.6,21.9,1.9,32.9,2.3c10.6,0.5,21.2,1.8,31.8,2.5c4.1,0.3,8.1,0,12.2,0
				c-0.4-0.8-1.4-0.8-2.2-1.1c-4.6-2-9.1-4.1-13.4-6.7c-2.2-1.3-4.4-2.6-7-2.9c-1-0.2-2-0.7-2.1-1.9c-0.1-1.3,0.8-1.9,1.9-2.3
				c1-0.4,2.1-0.7,3.2-0.2c3.7,1.8,7.8,1.8,11.7,2.2c6.6,0.6,13.2,0.7,19.8,1.3c10.5,0.9,21.1,0,31.6-0.2c2.3,0,4.4,0,5.8,2.1
				c0.7,1,1.7,0.8,2.7,0.4c10.7-3.6,20.9-8.4,31.1-13c7.8-3.5,14.5-8.6,21.3-13.5c6.9-4.9,14.5-8.6,22.1-12.4
				c14.1-7.2,28.4-13.7,43.8-17.7c15.9-4.2,31.8-7.3,48.2-8.1c6.3-0.3,12.6-0.2,18.8-2.3c4.4-1.4,9,0.2,13.3,1.6
				c14.4,4.6,29,8.4,43.6,11.9c14.2,3.4,28.7,4.9,43.4,5c14.6,0.1,29.2,0.5,43.8,2.5c1.8,0.2,4.2,1.1,5-1.2c0.8-2.3-1.6-3.2-3.1-4.2
				c-3.5-2.4-7.1-4.7-10.8-6.8c-8-4.6-14.3-11.2-20.8-17.5c-6.3-6.2-13.2-11.7-21.2-15.6c-4-2-8.1-3.2-12.6-3
				c-2.4,0.1-4.7-0.1-7-0.6c-3.5-0.8-4.7-3.2-3.5-6.6c0.6-1.7,1.6-3,2.6-4.4c11.1-15.3,19.1-32.3,27.2-49.3c2.1-4.3,3.2-9.1,3-14
				c-0.1-3-0.5-3.4-3.4-2.4c-8.5,3-16.4,7.4-24.2,11.9c-17.3,10.1-34.5,20.6-51.7,30.9c-11.6,6.9-23.9,12.4-37.3,14.5
				c-9.2,1.5-18.6,2.1-28,2.1c-13.4,0.1-26.7,0.1-40-1.7c-12.4-1.8-24.6-4.8-36.6-8.3c-17.1-5-34.6-8.2-51.8-13
				c-11.2-3.2-22.3-6.5-33.8-8.4c-10.7-1.8-21.5-2.6-32.2-3.6c-8-0.8-15.9-1.7-23.9-2.3c-5.6-0.5-11.2-0.8-16.9-0.9
				c-19.1-0.1-38.2-0.3-57.3,0c-21.2,0.3-42.2,3.1-63.1,6.7c-13.8,2.4-27.8,3.7-41.2,7.9c-13.9,4.3-28.2,6.9-42.4,9.8
				c-14.8,3.1-26.7,11.4-37.8,21.2c-0.8,0.7-1.6,1.5-1.2,2.8c0.5,1.5,1.8,1.1,2.7,1.1c5.6-0.1,9.8,2.2,12.7,7c0.7,1.2,1.4,2.6,0,3.6
				c-1.5,1.1-2.8,0.2-3.6-1.2c-2.1-3.7-5.3-5.1-9.5-5.2c-5.4-0.1-7.4-2.3-7-6.5c0.2-1.9,1.4-3.3,2.8-4.5
				c12.5-11.3,26.1-20.6,43.2-23.5c14.2-2.4,28.1-5.9,41.9-9.9c13-3.8,26.6-5,39.9-7.3c15.4-2.7,30.9-4.7,46.4-5.9
				c8.3-0.6,16.7-0.8,25.1-0.8c18,0.1,36,0.1,54,0.3c10.7,0.1,21.4,1.4,32,2.9c8.1,1.1,15.1-0.1,21.8-4.8
				c12.1-8.4,23.5-17.7,35.2-26.6c6.6-5.1,13.1-10.5,20-15.2c1.9-1.3,3.8-2.5,5.8-3.6c1.3-0.7,2.8-0.9,4.1,0c1.4,1,1.7,2.5,1.5,4.1
				c-0.4,2.4-1.3,4.7-2.3,7C464.7,65,458.5,79,452.4,92.9c-0.8,1.9-1.5,3.9-2.4,5.8c-0.8,1.6-0.3,2.1,1.3,2.5
				c13.7,3.7,27.5,6.9,41.2,10.2c15,3.7,29.8,8.1,44.9,11.2c8.1,1.6,16.2,2,24.4,2.3c12.1,0.4,24.1,0.5,36.2-0.5
				c7.4-0.6,14.5-1.8,21.7-3.6c9.9-2.5,18.7-7.4,27.4-12.5c18.7-10.9,36.9-22.6,55.7-33.2c6.6-3.7,13.1-7.4,20.5-9.4
				c5.1-1.4,7.7,0.7,8,6.1c0.3,5.9-0.9,11.4-3.3,16.7c-6.9,15.4-14.8,30.3-23.8,44.7c-1.5,2.4-3.3,4.6-4.9,6.9
				c-1.5,2.2-1.3,2.7,1.4,2.9c3,0.3,6,0.1,9,0.5c8.3,1.3,15,5.8,21.5,10.7c5.7,4.2,10.9,9.1,15.7,14.3c6.7,7.3,15.4,11.8,23.5,17
				c1.9,1.2,3.8,2.5,5.4,4.2c1.9,2.1,2.4,4.5,1.5,7.1c-0.9,2.5-2.9,3.8-5.6,4.1c-1.9,0.2-3.8-0.1-5.7-0.3c-18-1.9-36-2.6-54.1-2.7
				c-9.8,0-19.3-2.2-28.8-4.1c-15.4-3.2-30.5-7.4-45.5-12.1c-6.8-2.1-13.5-3.1-20.3-1.4c-6.6,1.7-13.3,1.7-20,2.2
				c-12.3,1-24.3,3.4-36.1,6.7c-1.1,0.3-1.9,1-2.7,1.8c-8.3,7.5-12.4,17.3-15.4,27.7c-2,6.9-2.1,14-1,21c0.5,3.6-0.3,6.9-2.7,9.7
				c-2.8,3.3-3,7.1-1.7,11c1,2.9,2.5,5.7,3.7,8.5c0.8,1.9,1.9,3.9,0.1,5.8c-1.7,1.8-3.8,0.8-5.6,0.3c-7.6-2.3-14.8-5.5-21.4-9.9
				c-14.1-9.3-27.3-20-40.8-30.1c-1.7-1.2-2.9-1.5-4.8-0.6c-7.7,3.7-15.5,7.1-23.5,10.1C444.7,244.8,444.1,245.1,443.2,245.5z
				 M513.1,208.4c2.2,2.4,4.8,4.3,7.3,6.2c1.3,1,2.3,2.2,1.2,3.6c-1.2,1.5-2.6,0.7-3.8-0.3c-2.5-2.1-5-4.2-7.5-6.4
				c-0.8-0.7-1.4-1.4-2.6-0.7c-1.7,0.9-3.3,1.8-5,2.7c-0.9,0.5-1.2,1-0.3,1.8c5.3,4.8,10.3,10,16.1,14.2c1.2,0.9,2.8,1.6,1.7,3.3
				c-1.1,1.8-2.8,1.4-4.3,0.4c-0.8-0.5-1.5-1.1-2.1-1.7c-4.2-3.8-8.3-7.6-12.5-11.4c-3.9-3.7-3.9-3.7-8.2-0.6
				c-3.2,2.3-3.2,2.2-0.5,5.1c8.7,9.6,19.4,16.7,30.1,23.7c0.8,0.5,1.7,1.1,2.3,1.8c0.8,0.8,0.8,1.8,0.2,2.7c-0.6,0.9-1.5,1-2.4,0.7
				c-0.8-0.3-1.5-0.7-2.1-1.2c-11.9-7.9-23.6-16-33-27c-0.5-0.6-1.1-1.2-2-0.5c-3,2.3-6.4,4.1-10,6.2c0.5,0.4,0.9,0.6,1.1,0.8
				c9.3,6.9,18.4,13.9,27.8,20.6c9.1,6.5,18.1,13.2,28.9,16.7c1.1,0.3,2.1,1.1,3.4,0.7c-1.2-2.9-2.8-5.6-3.6-8.6
				c-1.2-4.8-1.5-9.7,1.8-13.8c2.6-3.2,2.9-6.5,2.3-10.2c-0.2-1.2-0.4-2.3-0.4-3.5c-0.4-14.9,4.3-28.2,12.8-40.3
				c0.3-0.4,0.9-0.7,0.5-1.5c-4.9,1.3-9.5,3.2-14.3,5.2c1,1.2,2.6,2.1,1.5,3.8c-1.1,1.8-2.7,0.8-3.8,0c-3.3-2.2-5.9-0.4-8.7,1.3
				c1.5,1.8,3.4,2.4,5.1,3.4c1.1,0.6,1.9,1.6,1.4,2.9c-0.6,1.4-1.9,1.2-3.1,0.8c-1.1-0.4-2.4-0.8-3.1-1.6c-3.6-3.9-7.2-2.9-10.9-0.4
				C514,207.9,513.6,208.1,513.1,208.4z M468.3,44.5c-22.1,15.4-41.4,33.1-63.7,47c3.4,0.8,5.9,0.7,8.8-1.7
				c8.5-7.2,18.2-13,25.8-21.3c0.2-0.3,0.5-0.5,0.9-0.7c0.9-0.5,1.7-0.6,2.5,0.1c0.9,0.7,1,1.8,0.5,2.7c-0.4,0.7-1,1.3-1.5,1.9
				c-4.4,4.5-9.3,8.4-14.4,12.1c-3.6,2.7-7.3,5.3-11.2,8.2c4.2,1.2,7.5,1.7,10.6-1.6c3.1-3.3,6.8-6,10.3-8.9c1.3-1.1,3-2.6,4.4-0.7
				c1.4,1.7-0.3,2.9-1.6,4c-3.7,3-7.4,6.2-11.3,9.5c5.4,1.4,10.4,2.6,15.4,4c1.4,0.4,1.4-0.7,1.8-1.5c7.5-17.1,14.2-32.4,20.2-46.1
				C466.6,49.5,467.6,47.6,468.3,44.5z"/>
			
				<path fill="#222222" stroke="#FFFFFF" stroke-width="20" stroke-linecap="round" stroke-linejoin="round" stroke-miterlimit="10" d="
				M557.1,157.4c-9.2-0.3-18.2-2.1-27.3-2.9c-17.2-1.7-34.2-4.7-51.6-3.5c-9.6,0.7-19.1,2.2-28.6,3.5c-19,2.8-38.1,5.8-57.3,7.2
				c-20.9,1.5-40.6-3.3-59.7-11.1c-8.9-3.7-17.6-7.7-25.8-12.9c-2.2-1.4-4.2-2.9-5.7-5c-0.9-1.3-1.7-2.9,0-4.1
				c1.5-1,2.4,0.3,3.2,1.5c1.1,1.7,2.8,2.9,4.5,3.9c19.7,11.5,40.6,19.5,63.2,22.7c10.8,1.6,21.6,0.5,32.3-0.6
				c22-2.3,43.8-6.3,65.8-9c13.5-1.6,27-0.9,40.5,0.7c15,1.8,29.9,3.4,44.9,5.1c5.8,0.7,10.9-1.4,16.1-3.5c1.3-0.5,2.7-1.2,4-1.7
				c1.2-0.4,2.4-0.2,3,1.1c0.6,1.3,0,2.4-1.2,3C570.9,154.7,564.5,157.7,557.1,157.4z"/>
			
				<path fill="#222222" stroke="#FFFFFF" stroke-width="20" stroke-linecap="round" stroke-linejoin="round" stroke-miterlimit="10" d="
				M125.7,149.4c0.2-7.6,3-13.5,8.4-17.6c3.7-2.8,8.2-4.6,12.9-5.4c1.1-0.2,1.7-0.3,1.4-1.8c-0.4-2.1,1.4-2.5,3-2.6
				c1.6-0.1,3.2,0.3,3.8-1.9c0.2-0.8,1.3-0.9,2.1-0.9c5.9,0.4,11.2,1.8,14.8,7c0.8,1.2,2,2.1,2.8,3.3c0.9,1.2,1.1,2.6-0.6,3.4
				c-1.9,0.9-2.6,2.7-1.6,4.6c0.7,1.4,1.3,2.8,1.9,4.2c0.6,1.6,0.5,3.6,3.4,3.3c1.5-0.2,2.3,1.7,2.4,3.2
				c0.4,12.8-4.4,24.9-17.1,30.9c-4.1,2-5.5,1.4-7.7-2.8c-0.7-1.3-1.4-1.6-2.8-1.3c-1.8,0.5-3.7,0.7-5.6,1
				c-9.4,1.6-16.4-5.3-18.6-11.8c-0.6-1.8-1.2-3.6-1.6-5.5C126.4,155.4,126.1,152.1,125.7,149.4z M146.8,171.5
				c4.7-0.5,10.6-2.1,15.8-5.8c7.9-5.5,10.7-14.3,7.5-23c-2.7-7.4-9.2-12.4-16.8-12.8c-8.8-0.4-18.3,4.4-21.2,11.6
				c-3.6,8.9-1.7,17.5,3.3,25.4C137.5,170.4,141.1,172,146.8,171.5z"/>
			
				<path fill="#222222" stroke="#FFFFFF" stroke-width="20" stroke-linecap="round" stroke-linejoin="round" stroke-miterlimit="10" d="
				M270.5,195.6c15.4,4,29.5,11.1,43.7,17.7c2.6,1.2,5.5,1.9,8.3,2.7c1.6,0.4,3,0.2,4.5-0.5c1.4-0.6,3-0.9,3.7,0.9
				c0.7,1.8-0.6,2.6-2,3.3c-2.4,1.3-4.9,1.3-7.4,0.7c-5.6-1.2-10.7-3.6-15.7-6c-10.9-5.2-21.8-10.4-33.5-13.6c-3.9-1-7.7-2-11.6-2.9
				c-1.3-0.3-3-0.2-3-2c-0.1-2.1,1.7-2.1,3.1-2.4c8-1.9,16-3.5,24-4.9c15.2-2.6,30.2-6.3,45.2-9.9c13.4-3.2,27.1-5.3,40.6-7.8
				c4.1-0.8,8.2-1.8,12.1-3.1c1.6-0.5,3.4-1.2,4.1,1c0.6,2.1-1.1,2.8-2.7,3.3c-6.6,2.3-13.5,3.5-20.4,4.7
				c-15.1,2.7-30.2,5.6-45.1,9.3c-14.9,3.7-30,6.5-45.2,8.8C272.3,195.2,271.4,195.4,270.5,195.6z"/>
			
				<path fill="#222222" stroke="#FFFFFF" stroke-width="20" stroke-linecap="round" stroke-linejoin="round" stroke-miterlimit="10" d="
				M664.8,152.5c4.7,0,9.4,0,14.2,0c1.8,0,3.7,0,3.9,2.4c0.2,2.4-1.7,2.8-3.5,2.9c-8.2,0.4-16.3,0.8-24.5,1
				c-1.9,0.1-2.7,0.4-2.7,2.6c-0.1,3.3-0.6,6.7-1.1,10c-0.3,2.1-1.6,3.6-3.6,4.5c-1.1,0.5-2.2,0.4-2.9-0.8c-0.6-1-0.5-2.1,0.4-2.7
				c1.5-1.1,1.8-2.6,1.9-4.3c0.1-1.5,0.1-3.2,0.7-4.6c1.4-3.8-1.4-5.7-3.5-7.5c-4.6-4.1-5.9-9.4-6.7-15c-0.4-2.5-0.9-5-1.5-7.5
				c-0.3-1.4-1-2.7-2.4-3.4c-1.3-0.7-2.1-1.7-1.3-3.1c0.9-1.4,2.4-1.1,3.6-0.4c2.5,1.4,3.7,3.9,4.5,6.6c1,3.4,0.9,3.3,4.2,1.8
				c5.7-2.6,11.4-5.2,17.1-7.7c1.5-0.6,3.4-1.5,4.3,0.5c1,2.1-0.3,3.7-2.2,4.6c-6.5,3.2-13.1,6.2-19.7,9.3c-0.9,0.4-2.1,0.6-1.5,2.1
				c0.5,1.3,1.5,1,2.5,0.7c10.2-2.8,20.4-6,30.8-8.3c1.2-0.3,2.3-0.6,3.5-0.7c1.5-0.1,2.7,0.5,3.1,2.1c0.3,1.7-0.6,2.6-2.1,3
				c-1.7,0.5-3.3,0.9-5,1.3c-9.1,2.1-18,4.9-27,7.6c-0.7,0.2-1.9,0.1-2,1.1c-0.1,1,1,1.4,1.8,1.9c0.9,0.6,1.9,0.4,2.9,0.4
				c4.6,0,9.3,0,13.9,0C664.8,152.8,664.8,152.6,664.8,152.5z"/>
			
				<path fill="#222222" stroke="#FFFFFF" stroke-width="20" stroke-linecap="round" stroke-linejoin="round" stroke-miterlimit="10" d="
				M193,195.1c-7.6-0.4-15.1-2.5-22.7-4c-1.3-0.3-2.3-1.1-2.1-2.7c0.3-1.7,1.6-1.8,2.9-1.6c3.9,0.7,7.9,1.3,11.7,2.4
				c8,2.1,15.8,1.5,23.6-0.9c7.1-2.1,14.1-4.8,20.9-7.8c8.5-3.7,15.2-9.7,21.2-16.7c2.5-2.9,5.1-5.7,7.7-8.5
				c0.9-0.9,1.9-1.6,3.1-0.6c1.2,1,0.9,2.4,0,3.4c-7.8,8.5-14.5,18.1-24.9,23.8c-12,6.5-24.6,11.2-38.2,13.1
				C195.3,195.1,194.2,195,193,195.1z"/>
			
				<path fill="#222222" stroke="#FFFFFF" stroke-width="20" stroke-linecap="round" stroke-linejoin="round" stroke-miterlimit="10" d="
				M284.6,147.6c-0.3,14.4-2.9,27-7.9,39c-0.7,1.6-1.4,3.3-3.5,2.4c-2.1-0.9-1.3-2.7-0.7-4.2c3.3-8.4,5.8-17,6.9-26
				c1.1-8.8,0.8-17.5-1.5-26.2c-1.8-7-5.7-12.7-11.2-17.3c-3.2-2.7-6.3-5.5-9.9-7.6c-1.2-0.6-1.8-1.6-1.1-2.9c0.7-1.3,2-1.2,3.1-0.6
				c2.4,1.1,4.5,2.8,6.5,4.4C279.6,120.1,284.7,130.6,284.6,147.6z"/>
			
				<path fill="#222222" stroke="#FFFFFF" stroke-width="20" stroke-linecap="round" stroke-linejoin="round" stroke-miterlimit="10" d="
				M201.3,209c-6.5-0.4-12.8,0.1-18.7-2.1c-1.5-0.6-3.1-1.1-4.4-2.2c-0.9-0.7-1.1-1.7-0.5-2.7c0.6-1,1.6-1.2,2.6-0.7
				c8.2,4.3,17.1,3.7,25.9,3.1c18.3-1.1,32.8-10.3,45.8-22.3c0.3-0.3,0.6-0.7,0.9-1c1-0.8,2.1-1.3,3.2-0.3c1.2,1,1,2.3,0.1,3.4
				c-1.4,1.6-2.9,3.3-4.6,4.7c-10.5,8.6-21.9,15.5-35.3,18.9C211.3,209.1,206,208.6,201.3,209z"/>
			
				<path fill="#222222" stroke="#FFFFFF" stroke-width="20" stroke-linecap="round" stroke-linejoin="round" stroke-miterlimit="10" d="
				M341.3,203.9c-4.8,0.2-10.5-0.3-16.1-1.5c-1.4-0.3-3.2-0.5-2.9-2.5c0.3-2.2,2.3-1.8,3.7-1.5c5.4,1,10.8,1.7,16.2,1.5
				c3.2-0.1,6.3-0.3,9.5-0.6c1.3-0.1,2.7-0.2,3.8-1.3c0.9-0.9,1.9-1.1,2.9-0.2c1,1,0.8,2.2,0.2,3.3c-1,1.7-2.7,2-4.4,2.3
				C350.2,204,346.2,203.8,341.3,203.9z"/>
			
				<path fill="#222222" stroke="#FFFFFF" stroke-width="20" stroke-linecap="round" stroke-linejoin="round" stroke-miterlimit="10" d="
				M340.8,215.1c-10-0.7-19.5-3.2-28.7-7c-1.2-0.5-2-1.3-1.5-2.7c0.5-1.3,1.6-1.4,2.7-1.2c0.9,0.2,1.7,0.5,2.6,0.9
				c8.1,3.2,16.5,5,25.1,5.6c1.6,0.1,3.1,0.6,2.9,2.5C343.7,214.9,342.3,215.3,340.8,215.1z"/>
			
				<path fill="#222222" stroke="#FFFFFF" stroke-width="20" stroke-linecap="round" stroke-linejoin="round" stroke-miterlimit="10" d="
				M342.4,194.5c-1.1,0-2.2,0-3.3,0c-1.2,0-2.2-0.4-2.2-1.8c0-1.5,0.9-2,2.3-2.1c4.6-0.4,9.2-0.7,13.8-1.1c4.6-0.4,9.2-0.9,13.8-1.4
				c1.7-0.2,3.6-0.3,3.8,1.9c0.2,2-1.6,2.3-3.2,2.4c-8.3,0.7-16.6,1.5-24.9,2.3C342.4,194.7,342.4,194.6,342.4,194.5z"/>
			
				<path fill="#222222" stroke="#FFFFFF" stroke-width="20" stroke-linecap="round" stroke-linejoin="round" stroke-miterlimit="10" d="
				M621.1,146.6c0.1-0.8,0.2-2.3,0.5-3.7c0.3-1.3,1.1-2.1,2.5-1.9c1.4,0.2,1.6,1.4,1.4,2.5c-0.9,7.6,1.1,14.5,5.4,20.8
				c0.7,1,0.9,2.1,0,3c-1,1-2.2,0.8-3.2-0.1c-0.8-0.7-1.4-1.6-2-2.6C622.8,159.3,621.4,153.4,621.1,146.6z"/>
			
				<path fill="#222222" stroke="#FFFFFF" stroke-width="20" stroke-linecap="round" stroke-linejoin="round" stroke-miterlimit="10" d="
				M361.4,184.4c-1.3-0.1-2.4-0.2-2.7-1.6c-0.3-1.5,0.6-2.2,1.9-2.5c7.7-1.3,15.3-2.8,22.9-4.7c1.4-0.3,2.7-0.1,3,1.5
				c0.3,1.7-0.9,2.4-2.3,2.8c-5.9,1.5-11.9,2.6-17.9,3.6C364.6,183.9,362.9,184.2,361.4,184.4z"/>
			
				<path fill="#222222" stroke="#FFFFFF" stroke-width="20" stroke-linecap="round" stroke-linejoin="round" stroke-miterlimit="10" d="
				M137.7,152.5c0-0.9,0.1-1.8,0-2.7c-0.7-7.3,2.8-11.6,10-12.1c7.5-0.6,13.4,6.4,11.3,13.6c-1.6,5.5-4.9,9.6-10.4,11.7
				c-1,0.4-1.9,0.6-2.9,0.3C139.5,161.8,137.3,158.8,137.7,152.5z M150,144.2c0.6-0.1,1.4-0.2,1.4-1c0-1.2-1.1-1.2-2-1.2
				c-0.6,0-1.3,0-1.1,0.9C148.4,143.9,149.1,144.2,150,144.2z"/>
		</g>
	</g>
	<g>
		<polyline fill="#FFFFFF" points="105.7,135.5 122.4,119.4 158.4,108.9 185.9,104.5 219.9,95.4 252.9,90.9 309.9,87.9 371.4,89.4 
			410.3,93.9 454.2,105.1 489.5,111.3 550.2,126.6 608.2,125.3 633.9,117.9 666.2,159.3 652.9,181.9 626.9,175.3 572.9,181.9 
			528.9,195.3 470.2,229.9 424.2,248.6 377.5,252.6 309.5,247.3 238.9,235.9 176.2,216.6 131.5,185.9 100.9,153.3 100.9,139.3 
			105.7,135.5 105.7,135.5 		"/>
		<g>
			<path fill="#369EBB" d="M707.5,142.9c3.3-0.4,7.5,1.2,11.3,4c7.4,5.5,14.7,11,20.5,18.3c5.1,6.4,12.1,10.4,19.5,13.5
				c5.6,2.3,10.8,5.1,14.6,10c0.7,0.9,1.3,1.8,1.8,2.7c1.6,3.3,0.3,6-3.2,7c-1.6,0.5-3.2,0.4-4.9,0.3c-6.3-0.7-12.6-1.8-18.9-2.5
				c-9.8-1.1-19.7-2-29.6-1c-8,0.8-15.7-0.4-23.6-1.4c-10.6-1.4-20.8-4.4-31.2-6.5c-5.3-1.1-10.1-3.4-14.5-6.7
				c-2.9-2.2-3.4-4.1-2.1-7.6c1.6-4.3,2.1-9,3.8-13.3c0.9-2.3-0.9-4.2-2.6-5.2c-6.4-3.8-7.6-9.7-7.5-16.4c0.1-5.2-1.7-9.4-6.5-11.9
				c-2.1-1.1-2.5-2.8-1.6-4.8c0.5-1.1,1-2.1,1-3.3c0-0.9,0.7-1.4,1.4-1.9c8.3-5.1,16.7-10.2,25-15.3c3.5-2.2,7-4.2,10.8-5.9
				c5.2-2.3,10-5.1,14.7-8.3c4.3-2.9,9-5.1,14.1-6.2c3.6-0.8,6.6-3,9.5-5.2c2.2-1.6,4.3-3.3,6.6-4.9c1.4-1,3-1.8,4.6-2.3
				c5.7-1.6,8.6,1.2,7.8,7.1c-2,14.3-8.7,26.4-16.9,37.9c-3.2,4.6-6.4,9.3-8.4,14.6c-1.5,4-4.4,7.1-7.4,10c-2.4,2.3-2.3,2.7,0.8,4
				C699.5,142.8,702.8,143.1,707.5,142.9z"/>
			<path fill="#369EBB" d="M531.2,194c3.1-0.4,6.5-1.5,9.8-2.7c3-1.1,6.2-0.3,9.1-1.8c1-0.5,2.2,0.2,2.8,1.2
				c0.7,1.4,0.3,2.7-0.8,3.7c-3.5,3.3-5.5,7.6-7.4,11.9c-3.6,8.4-5,17.4-6.7,26.3c-0.3,1.3,0.1,2.7,0.2,4.1c0.4,3.8,0,7.5-2.4,10.6
				c-3,3.7-3.2,7.4-1,11.6c1.2,2.2,2,4.5,2.9,6.8c0.8,2,1.4,4.1-0.6,5.8c-2,1.7-4.2,1.4-6.4,0.3c-10.2-5.2-19.4-11.7-28.4-18.6
				c-8.5-6.5-17-13-26.2-18.6c-1.1-0.7-1.8-1.5-1.6-2.9c0.2-1.3,1.1-1.8,2.3-1.9c0.3,0,0.9-0.2,0.9-0.3c0.8-4,4.6-3.6,7.2-4.9
				c1.3-0.7,2.6-1,2.9-2.8c0.2-1.3,1.5-2,2.4-2.9c7.3-6.2,15.2-11.4,23.6-16c4.1-2.3,8.3-4.4,12.2-7.2
				C527.4,194.5,528.9,193.5,531.2,194z"/>
			<path fill="#369EBB" d="M326.9,216.7c-6.5-0.4-12.4-2.5-18.3-5.6c-11.1-5.8-22.1-11.9-34.8-13.5c-1.7-0.2-3.4-0.8-3.1-3
				c0.3-2.1,2-2.3,3.8-2c0.9,0.1,1.8,0.1,2.7,0.4c1.1,0.4,1.7,0.2,2.2-1c0.8-2,2.8-2.5,4.7-3c8.7-2.3,17.6-3.9,26.5-4.8
				c16.4-1.8,32.5-4.6,48.3-9.3c7.9-2.4,16.2-3.1,23.7-6.7c1.6-0.8,3.5-0.9,4.6,1c1,1.8,0,3.3-1.4,4.5c-9.2,8.5-18.1,17.3-28.2,24.8
				c-4.3,3.2-7.7,7.1-11.6,10.7C340.7,213.7,332.8,216.9,326.9,216.7z"/>
			<path fill="#369EBB" d="M440.3,101.7c-0.5-0.1-1.5-0.4-2.4-0.7c-11.7-3.7-23.5-7-35.5-9.6c-1.4-0.3-2.4-0.9-2.4-2.5
				c0-1.3,0.6-2.2,1.8-2.4c3.6-0.6,6.5-2.7,9.5-4.5c4.3-2.5,8.2-5.6,12.2-8.6c14.5-10.9,29.1-21.7,43.7-32.6
				c0.6-0.4,1.2-0.8,1.8-1.2c1.2-0.6,2.4-0.7,3.6,0.1c1.2,0.9,1.3,2.2,1,3.5c-0.7,2.7-1.6,5.4-3,7.9c-5.5,9.4-9.9,19.4-14.5,29.3
				c-3.1,6.6-7,12.7-11.1,18.7C443.9,100.6,442.7,101.7,440.3,101.7z"/>
		</g>
		<g>
			<path fill="#222222" d="M443.5,243.9c0.6,0.3,1,0.6,1.4,0.7c1.6,0.6,3,1.3,3.2,3.3c0.2,2.2-1.1,3.4-2.8,4.3
				c-6.6,3.4-13.6,5.1-21,4.8c-7.6-0.3-15.2-1.1-22.7-2.8c-2.6-0.6-5.2,0.3-7.9,0.4c-10.5,0.5-20.9-0.2-31.3-1.2
				c-9.3-1-18.6-1.7-28-1.9c-14.3-0.4-28.4-2.1-42.4-4.9c-14.4-2.9-29.1-4.3-43.5-7.1c-26.2-5.1-51.9-12.1-76.1-23.4
				c-17-8-32.3-18.8-45.7-32.1c-7.3-7.3-14.1-14.9-21.8-21.8c-4.2-3.8-6.9-8.4-6.1-14.4c0.1-0.6,0.1-1.3,0.3-1.9
				c0.4-1.1,1-2,2.4-1.8c1.3,0.3,1.8,1.3,1.6,2.5c-1.3,5.7,1.6,9.6,5.5,13.1c10.2,9,19.1,19.5,29.5,28.3
				c15.7,13.3,33.1,23.3,52.4,30.6c25.6,9.7,52,15.5,78.9,19.8c13.5,2.1,27,4.7,40.6,6.7c10.9,1.6,21.9,1.9,32.9,2.3
				c10.6,0.5,21.2,1.8,31.8,2.5c4.1,0.3,8.1,0,12.2,0c-0.4-0.8-1.4-0.8-2.2-1.1c-4.6-2-9.1-4.1-13.4-6.7c-2.2-1.3-4.4-2.6-7-2.9
				c-1-0.2-2-0.7-2.1-1.9c-0.1-1.3,0.8-1.9,1.9-2.3c1-0.4,2.1-0.7,3.2-0.2c3.7,1.8,7.8,1.8,11.7,2.2c6.6,0.6,13.2,0.7,19.8,1.3
				c10.5,0.9,21.1,0,31.6-0.2c2.3,0,4.4,0,5.8,2.1c0.7,1,1.7,0.8,2.7,0.4c10.7-3.6,20.9-8.4,31.1-13c7.8-3.5,14.5-8.6,21.3-13.5
				c6.9-4.9,14.5-8.6,22.1-12.4c14.1-7.2,28.4-13.7,43.8-17.7c15.9-4.2,31.8-7.3,48.2-8.1c6.3-0.3,12.6-0.2,18.8-2.3
				c4.4-1.4,9,0.2,13.3,1.6c14.4,4.6,29,8.4,43.6,11.9c14.2,3.4,28.7,4.9,43.4,5c14.6,0.1,29.2,0.5,43.8,2.5c1.8,0.2,4.2,1.1,5-1.2
				c0.8-2.3-1.6-3.2-3.1-4.2c-3.5-2.4-7.1-4.7-10.8-6.8c-8-4.6-14.3-11.2-20.8-17.5c-6.3-6.2-13.2-11.7-21.2-15.6
				c-4-2-8.1-3.2-12.6-3c-2.4,0.1-4.7-0.1-7-0.6c-3.5-0.8-4.7-3.2-3.5-6.6c0.6-1.7,1.6-3,2.6-4.4C708,119,716.1,102,724.1,85.1
				c2.1-4.3,3.2-9.1,3-14c-0.1-3-0.5-3.4-3.4-2.4c-8.5,3-16.4,7.4-24.2,11.9c-17.3,10.1-34.5,20.6-51.7,30.9
				c-11.6,6.9-23.9,12.4-37.3,14.5c-9.2,1.5-18.6,2.1-28,2.1c-13.4,0.1-26.7,0.1-40-1.7c-12.4-1.8-24.6-4.8-36.6-8.3
				c-17.1-5-34.6-8.2-51.8-13c-11.2-3.2-22.3-6.5-33.8-8.4c-10.7-1.8-21.5-2.6-32.2-3.6c-8-0.8-15.9-1.7-23.9-2.3
				c-5.6-0.5-11.2-0.8-16.9-0.9c-19.1-0.1-38.2-0.3-57.3,0c-21.2,0.3-42.2,3.1-63.1,6.7c-13.8,2.4-27.8,3.7-41.2,7.9
				c-13.9,4.3-28.2,6.9-42.4,9.8c-14.8,3.1-26.7,11.4-37.8,21.2c-0.8,0.7-1.6,1.5-1.2,2.8c0.5,1.5,1.8,1.1,2.7,1.1
				c5.6-0.1,9.8,2.2,12.7,7c0.7,1.2,1.4,2.6,0,3.6c-1.5,1.1-2.8,0.2-3.6-1.2c-2.1-3.7-5.3-5.1-9.5-5.2c-5.4-0.1-7.4-2.3-7-6.5
				c0.2-1.9,1.4-3.3,2.8-4.5c12.5-11.3,26.1-20.6,43.2-23.5c14.2-2.4,28.1-5.9,41.9-9.9c13-3.8,26.6-5,39.9-7.3
				c15.4-2.7,30.9-4.7,46.4-5.9c8.3-0.6,16.7-0.8,25.1-0.8c18,0.1,36,0.1,54,0.3c10.7,0.1,21.4,1.4,32,2.9
				c8.1,1.1,15.1-0.1,21.8-4.8C419,75.3,430.4,66,442.1,57c6.6-5.1,13.1-10.5,20-15.2c1.9-1.3,3.8-2.5,5.8-3.6
				c1.3-0.7,2.8-0.9,4.1,0c1.4,1,1.7,2.5,1.5,4.1c-0.4,2.4-1.3,4.7-2.3,7c-6.2,13.9-12.4,27.9-18.6,41.8c-0.8,1.9-1.5,3.9-2.4,5.8
				c-0.8,1.6-0.3,2.1,1.3,2.5c13.7,3.7,27.5,6.9,41.2,10.2c15,3.7,29.8,8.1,44.9,11.2c8.1,1.6,16.2,2,24.4,2.3
				c12.1,0.4,24.1,0.5,36.2-0.5c7.4-0.6,14.5-1.8,21.7-3.6c9.9-2.5,18.7-7.4,27.4-12.5c18.7-10.9,36.9-22.6,55.7-33.2
				c6.6-3.7,13.1-7.4,20.5-9.4c5.1-1.4,7.7,0.7,8,6.1c0.3,5.9-0.9,11.4-3.3,16.7c-6.9,15.4-14.8,30.3-23.8,44.7
				c-1.5,2.4-3.3,4.6-4.9,6.9c-1.5,2.2-1.3,2.7,1.4,2.9c3,0.3,6,0.1,9,0.5c8.3,1.3,15,5.8,21.5,10.7c5.7,4.2,10.9,9.1,15.7,14.3
				c6.7,7.3,15.4,11.8,23.5,17c1.9,1.2,3.8,2.5,5.4,4.2c1.9,2.1,2.4,4.5,1.5,7.1c-0.9,2.5-2.9,3.8-5.6,4.1c-1.9,0.2-3.8-0.1-5.7-0.3
				c-18-1.9-36-2.6-54.1-2.7c-9.8,0-19.3-2.2-28.8-4.1c-15.4-3.2-30.5-7.4-45.5-12.1c-6.8-2.1-13.5-3.1-20.3-1.4
				c-6.6,1.7-13.3,1.7-20,2.2c-12.3,1-24.3,3.4-36.1,6.7c-1.1,0.3-1.9,1-2.7,1.8c-8.3,7.5-12.4,17.3-15.4,27.7c-2,6.9-2.1,14-1,21
				c0.5,3.6-0.3,6.9-2.7,9.7c-2.8,3.3-3,7.1-1.7,11c1,2.9,2.5,5.7,3.7,8.5c0.8,1.9,1.9,3.9,0.1,5.8c-1.7,1.8-3.8,0.8-5.6,0.3
				c-7.6-2.3-14.8-5.5-21.4-9.9c-14.1-9.3-27.3-20-40.8-30.1c-1.7-1.2-2.9-1.5-4.8-0.6c-7.7,3.7-15.5,7.1-23.5,10.1
				C445,243.2,444.4,243.5,443.5,243.9z M513.4,206.8c2.2,2.4,4.8,4.3,7.3,6.2c1.3,1,2.3,2.2,1.2,3.6c-1.2,1.5-2.6,0.7-3.8-0.3
				c-2.5-2.1-5-4.2-7.5-6.4c-0.8-0.7-1.4-1.4-2.6-0.7c-1.7,0.9-3.3,1.8-5,2.7c-0.9,0.5-1.2,1-0.3,1.8c5.3,4.8,10.3,10,16.1,14.2
				c1.2,0.9,2.8,1.6,1.7,3.3c-1.1,1.8-2.8,1.4-4.3,0.4c-0.8-0.5-1.5-1.1-2.1-1.7c-4.2-3.8-8.3-7.6-12.5-11.4
				c-3.9-3.7-3.9-3.7-8.2-0.6c-3.2,2.3-3.2,2.2-0.5,5.1c8.7,9.6,19.4,16.7,30.1,23.7c0.8,0.5,1.7,1.1,2.3,1.8
				c0.8,0.8,0.8,1.8,0.2,2.7c-0.6,0.9-1.5,1-2.4,0.7c-0.8-0.3-1.5-0.7-2.1-1.2c-11.9-7.9-23.6-16-33-27c-0.5-0.6-1.1-1.2-2-0.5
				c-3,2.3-6.4,4.1-10,6.2c0.5,0.4,0.9,0.6,1.1,0.8c9.3,6.9,18.4,13.9,27.8,20.6c9.1,6.5,18.1,13.2,28.9,16.7
				c1.1,0.3,2.1,1.1,3.4,0.7c-1.2-2.9-2.8-5.6-3.6-8.6c-1.2-4.8-1.5-9.7,1.8-13.8c2.6-3.2,2.9-6.5,2.3-10.2
				c-0.2-1.2-0.4-2.3-0.4-3.5c-0.4-14.9,4.3-28.2,12.8-40.3c0.3-0.4,0.9-0.7,0.5-1.5c-4.9,1.3-9.5,3.2-14.3,5.2
				c1,1.2,2.6,2.1,1.5,3.8c-1.1,1.8-2.7,0.8-3.8,0c-3.3-2.2-5.9-0.4-8.7,1.3c1.5,1.8,3.4,2.4,5.1,3.4c1.1,0.6,1.9,1.6,1.4,2.9
				c-0.6,1.4-1.9,1.2-3.1,0.8c-1.1-0.4-2.4-0.8-3.1-1.6c-3.6-3.9-7.2-2.9-10.9-0.4C514.3,206.3,513.9,206.5,513.4,206.8z
				 M468.6,42.9c-22.1,15.4-41.4,33.1-63.7,47c3.4,0.8,5.9,0.7,8.8-1.7c8.5-7.2,18.2-13,25.8-21.3c0.2-0.3,0.5-0.5,0.9-0.7
				c0.9-0.5,1.7-0.6,2.5,0.1c0.9,0.7,1,1.8,0.5,2.7c-0.4,0.7-1,1.3-1.5,1.9c-4.4,4.5-9.3,8.4-14.4,12.1c-3.6,2.7-7.3,5.3-11.2,8.2
				c4.2,1.2,7.5,1.7,10.6-1.6c3.1-3.3,6.8-6,10.3-8.9c1.3-1.1,3-2.6,4.4-0.7c1.4,1.7-0.3,2.9-1.6,4c-3.7,3-7.4,6.2-11.3,9.5
				c5.4,1.4,10.4,2.6,15.4,4c1.4,0.4,1.4-0.7,1.8-1.5c7.5-17.1,14.2-32.4,20.2-46.1C466.9,47.9,468,46,468.6,42.9z"/>
			<path fill="#222222" d="M557.5,155.8c-9.2-0.3-18.2-2.1-27.3-2.9c-17.2-1.7-34.2-4.7-51.6-3.5c-9.6,0.7-19.1,2.2-28.6,3.5
				c-19,2.8-38.1,5.8-57.3,7.2c-20.9,1.5-40.6-3.3-59.7-11.1c-8.9-3.7-17.6-7.7-25.8-12.9c-2.2-1.4-4.2-2.9-5.7-5
				c-0.9-1.3-1.7-2.9,0-4.1c1.5-1,2.4,0.3,3.2,1.5c1.1,1.7,2.8,2.9,4.5,3.9c19.7,11.5,40.6,19.5,63.2,22.7
				c10.8,1.6,21.6,0.5,32.3-0.6c22-2.3,43.8-6.3,65.8-9c13.5-1.6,27-0.9,40.5,0.7c15,1.8,29.9,3.4,44.9,5.1
				c5.8,0.7,10.9-1.4,16.1-3.5c1.3-0.5,2.7-1.2,4-1.7c1.2-0.4,2.4-0.2,3,1.1c0.6,1.3,0,2.4-1.2,3C571.3,153,564.8,156.1,557.5,155.8
				z"/>
			<path fill="#222222" d="M126,147.7c0.2-7.6,3-13.5,8.4-17.6c3.7-2.8,8.2-4.6,12.9-5.4c1.1-0.2,1.7-0.3,1.4-1.8
				c-0.4-2.1,1.4-2.5,3-2.6c1.6-0.1,3.2,0.3,3.8-1.9c0.2-0.8,1.3-0.9,2.1-0.9c5.9,0.4,11.2,1.8,14.8,7c0.8,1.2,2,2.1,2.8,3.3
				c0.9,1.2,1.1,2.6-0.6,3.4c-1.9,0.9-2.6,2.7-1.6,4.6c0.7,1.4,1.3,2.8,1.9,4.2c0.6,1.6,0.5,3.6,3.4,3.3c1.5-0.2,2.3,1.7,2.4,3.2
				c0.4,12.8-4.4,24.9-17.1,30.9c-4.1,2-5.5,1.4-7.7-2.8c-0.7-1.3-1.4-1.6-2.8-1.3c-1.8,0.5-3.7,0.7-5.6,1
				c-9.4,1.6-16.4-5.3-18.6-11.8c-0.6-1.8-1.2-3.6-1.6-5.5C126.7,153.8,126.4,150.5,126,147.7z M147.1,169.9
				c4.7-0.5,10.6-2.1,15.8-5.8c7.9-5.5,10.7-14.3,7.5-23c-2.7-7.4-9.2-12.4-16.8-12.8c-8.8-0.4-18.3,4.4-21.2,11.6
				c-3.6,8.9-1.7,17.5,3.3,25.4C137.9,168.8,141.4,170.4,147.1,169.9z"/>
			<path fill="#222222" d="M270.8,194c15.4,4,29.5,11.1,43.7,17.7c2.6,1.2,5.5,1.9,8.3,2.7c1.6,0.4,3,0.2,4.5-0.5
				c1.4-0.6,3-0.9,3.7,0.9c0.7,1.8-0.6,2.6-2,3.3c-2.4,1.3-4.9,1.3-7.4,0.7c-5.6-1.2-10.7-3.6-15.7-6c-10.9-5.2-21.8-10.4-33.5-13.6
				c-3.9-1-7.7-2-11.6-2.9c-1.3-0.3-3-0.2-3-2c-0.1-2.1,1.7-2.1,3.1-2.4c8-1.9,16-3.5,24-4.9c15.2-2.6,30.2-6.3,45.2-9.9
				c13.4-3.2,27.1-5.3,40.6-7.8c4.1-0.8,8.2-1.8,12.1-3.1c1.6-0.5,3.4-1.2,4.1,1c0.6,2.1-1.1,2.8-2.7,3.3
				c-6.6,2.3-13.5,3.5-20.4,4.7c-15.1,2.7-30.2,5.6-45.1,9.3c-14.9,3.7-30,6.5-45.2,8.8C272.6,193.5,271.7,193.8,270.8,194z"/>
			<path fill="#222222" d="M665.1,150.8c4.7,0,9.4,0,14.2,0c1.8,0,3.7,0,3.9,2.4c0.2,2.4-1.7,2.8-3.5,2.9c-8.2,0.4-16.3,0.8-24.5,1
				c-1.9,0.1-2.7,0.4-2.7,2.6c-0.1,3.3-0.6,6.7-1.1,10c-0.3,2.1-1.6,3.6-3.6,4.5c-1.1,0.5-2.2,0.4-2.9-0.8c-0.6-1-0.5-2.1,0.4-2.7
				c1.5-1.1,1.8-2.6,1.9-4.3c0.1-1.5,0.1-3.2,0.7-4.6c1.4-3.8-1.4-5.7-3.5-7.5c-4.6-4.1-5.9-9.4-6.7-15c-0.4-2.5-0.9-5-1.5-7.5
				c-0.3-1.4-1-2.7-2.4-3.4c-1.3-0.7-2.1-1.7-1.3-3.1c0.9-1.4,2.4-1.1,3.6-0.4c2.5,1.4,3.7,3.9,4.5,6.6c1,3.4,0.9,3.3,4.2,1.8
				c5.7-2.6,11.4-5.2,17.1-7.7c1.5-0.6,3.4-1.5,4.3,0.5c1,2.1-0.3,3.7-2.2,4.6c-6.5,3.2-13.1,6.2-19.7,9.3c-0.9,0.4-2.1,0.6-1.5,2.1
				c0.5,1.3,1.5,1,2.5,0.7c10.2-2.8,20.4-6,30.8-8.3c1.2-0.3,2.3-0.6,3.5-0.7c1.5-0.1,2.7,0.5,3.1,2.1c0.3,1.7-0.6,2.6-2.1,3
				c-1.7,0.5-3.3,0.9-5,1.3c-9.1,2.1-18,4.9-27,7.6c-0.7,0.2-1.9,0.1-2,1.1c-0.1,1,1,1.4,1.8,1.9c0.9,0.6,1.9,0.4,2.9,0.4
				c4.6,0,9.3,0,13.9,0C665.1,151.2,665.1,151,665.1,150.8z"/>
			<path fill="#222222" d="M193.3,193.5c-7.6-0.4-15.1-2.5-22.7-4c-1.3-0.3-2.3-1.1-2.1-2.7c0.3-1.7,1.6-1.8,2.9-1.6
				c3.9,0.7,7.9,1.3,11.7,2.4c8,2.1,15.8,1.5,23.6-0.9c7.1-2.1,14.1-4.8,20.9-7.8c8.5-3.7,15.2-9.7,21.2-16.7
				c2.5-2.9,5.1-5.7,7.7-8.5c0.9-0.9,1.9-1.6,3.1-0.6c1.2,1,0.9,2.4,0,3.4c-7.8,8.5-14.5,18.1-24.9,23.8
				c-12,6.5-24.6,11.2-38.2,13.1C195.6,193.5,194.5,193.4,193.3,193.5z"/>
			<path fill="#222222" d="M284.9,146c-0.3,14.4-2.9,27-7.9,39c-0.7,1.6-1.4,3.3-3.5,2.4c-2.1-0.9-1.3-2.7-0.7-4.2
				c3.3-8.4,5.8-17,6.9-26c1.1-8.8,0.8-17.5-1.5-26.2c-1.8-7-5.7-12.7-11.2-17.3c-3.2-2.7-6.3-5.5-9.9-7.6c-1.2-0.6-1.8-1.6-1.1-2.9
				c0.7-1.3,2-1.2,3.1-0.6c2.4,1.1,4.5,2.8,6.5,4.4C279.9,118.4,285,129,284.9,146z"/>
			<path fill="#222222" d="M201.6,207.4c-6.5-0.4-12.8,0.1-18.7-2.1c-1.5-0.6-3.1-1.1-4.4-2.2c-0.9-0.7-1.1-1.7-0.5-2.7
				c0.6-1,1.6-1.2,2.6-0.7c8.2,4.3,17.1,3.7,25.9,3.1c18.3-1.1,32.8-10.3,45.8-22.3c0.3-0.3,0.6-0.7,0.9-1c1-0.8,2.1-1.3,3.2-0.3
				c1.2,1,1,2.3,0.1,3.4c-1.4,1.6-2.9,3.3-4.6,4.7c-10.5,8.6-21.9,15.5-35.3,18.9C211.6,207.5,206.4,207,201.6,207.4z"/>
			<path fill="#222222" d="M341.6,202.3c-4.8,0.2-10.5-0.3-16.1-1.5c-1.4-0.3-3.2-0.5-2.9-2.5c0.3-2.2,2.3-1.8,3.7-1.5
				c5.4,1,10.8,1.7,16.2,1.5c3.2-0.1,6.3-0.3,9.5-0.6c1.3-0.1,2.7-0.2,3.8-1.3c0.9-0.9,1.9-1.1,2.9-0.2c1,1,0.8,2.2,0.2,3.3
				c-1,1.7-2.7,2-4.4,2.3C350.5,202.4,346.5,202.2,341.6,202.3z"/>
			<path fill="#222222" d="M341.1,213.5c-10-0.7-19.5-3.2-28.7-7c-1.2-0.5-2-1.3-1.5-2.7c0.5-1.3,1.6-1.4,2.7-1.2
				c0.9,0.2,1.7,0.5,2.6,0.9c8.1,3.2,16.5,5,25.1,5.6c1.6,0.1,3.1,0.6,2.9,2.5C344,213.2,342.6,213.6,341.1,213.5z"/>
			<path fill="#222222" d="M342.7,192.9c-1.1,0-2.2,0-3.3,0c-1.2,0-2.2-0.4-2.2-1.8c0-1.5,0.9-2,2.3-2.1c4.6-0.4,9.2-0.7,13.8-1.1
				c4.6-0.4,9.2-0.9,13.8-1.4c1.7-0.2,3.6-0.3,3.8,1.9c0.2,2-1.6,2.3-3.2,2.4c-8.3,0.7-16.6,1.5-24.9,2.3
				C342.7,193,342.7,193,342.7,192.9z"/>
			<path fill="#222222" d="M621.4,145c0.1-0.8,0.2-2.3,0.5-3.7c0.3-1.3,1.1-2.1,2.5-1.9c1.4,0.2,1.6,1.4,1.4,2.5
				c-0.9,7.6,1.1,14.5,5.4,20.8c0.7,1,0.9,2.1,0,3c-1,1-2.2,0.8-3.2-0.1c-0.8-0.7-1.4-1.6-2-2.6C623.1,157.6,621.7,151.8,621.4,145z
				"/>
			<path fill="#222222" d="M361.7,182.8c-1.3-0.1-2.4-0.2-2.7-1.6c-0.3-1.5,0.6-2.2,1.9-2.5c7.7-1.3,15.3-2.8,22.9-4.7
				c1.4-0.3,2.7-0.1,3,1.5c0.3,1.7-0.9,2.4-2.3,2.8c-5.9,1.5-11.9,2.6-17.9,3.6C364.9,182.3,363.2,182.6,361.7,182.8z"/>
			<path fill="#222222" d="M138,150.9c0-0.9,0.1-1.8,0-2.7c-0.7-7.3,2.8-11.6,10-12.1c7.5-0.6,13.4,6.4,11.3,13.6
				c-1.6,5.5-4.9,9.6-10.4,11.7c-1,0.4-1.9,0.6-2.9,0.3C139.9,160.2,137.6,157.1,138,150.9z M150.3,142.6c0.6-0.1,1.4-0.2,1.4-1
				c0-1.2-1.1-1.2-2-1.2c-0.6,0-1.3,0-1.1,0.9C148.7,142.3,149.4,142.6,150.3,142.6z"/>
		</g>
	</g>
</g>
<g id="敺_x9E__xFFFD__xF880_詨_x8F__x96_蝭_x84__xFFFD__x9C__x8D__xA0_影像_1_">
</g>
<g id="_xFFFD__x9C__x96_撅_xFFFD__3_xA0_影像_1_">
</g>
<g id="_xFFFD__x9C__x96_撅_xFFFD__4_xA0_影像_7_">
</g>
<g id="_xFFFD__x9C__x96_撅_xFFFD__4_xA0_影像_5_">
</g>
<g id="_xFFFD__x9C__x96_撅_xFFFD__4_xA0_影像_3_">
</g>
<g id="_xFFFD__x9C__x96_撅_xFFFD__7_xA0_影像_1_">
</g>
<g id="_xFFFD__x9C__x96_撅_xFFFD__4_xA0_影像_1_">
</g>
<g id="_xFFFD__x9C__x96_撅_xFFFD__9_xA0_影像_1_">
</g>
</svg>
