<?xml version="1.0" encoding="utf-8"?>
<!-- Generator: Adobe Illustrator 23.0.1, SVG Export Plug-In . SVG Version: 6.00 Build 0)  -->
<svg version="1.1" id="Layer_1" xmlns="http://www.w3.org/2000/svg" xmlns:xlink="http://www.w3.org/1999/xlink" x="0px" y="0px"
	 viewBox="0 0 328 308" style="enable-background:new 0 0 328 308;" xml:space="preserve">
<style type="text/css">
	.st0{fill:#B7CBCE;}
	.st1{fill:#E9D08D;}
	.st2{fill:#D0D0D0;}
	.st3{fill:#FEFEFE;}
	.st4{fill:#DBDBDB;}
	.st5{fill:#DCDCDC;}
	.st6{fill:#EAEAEA;}
	.st7{fill:#F4F4F4;}
	.st8{opacity:0.1098;}
</style>
<g id="_xFFFD__x83__x8C__xFFFD__x99__xA0_影像_1_">
</g>
<g>
	<g id="_xFFFD__x9C__x96_撅_xFFFD__6_xA0_影像_1_">
		<g>
			<path class="st0" d="M157.2,125.6c-0.6,0-1.3,0-1.9,0c-1.5-0.8-3-0.8-4.5,0c-1.1,0.4-2.1,0.8-3.2,1.2c-1.8,0.9-3.7,1.8-2.2,4.3
				c1.3,2,3.5,2.4,5.5,3.1c2.1,0.7,4.1,1.4,5.4,3.4c-1.4,1.6,0.4,3.9-1.3,5.5c-1.1,1.6-1.2,3.8-3.6,4.4c-2.9,0.8-4.2,3.3-5,6
				c-0.8,2.6-1.4,5.2-2.2,7.9c-3.2,11.3-8.1,21.6-15.7,30.7c-3.4,4-6.5,8.2-8.9,13c-1.6,3.2-1.8,3.1-5,0.2c-2.6-1.8-6.5,1.3-8.6-2.3
				c-3.5-9.8-7.9-19.1-12.1-28.6c-1-2.3-1.8-4.7-2.1-7.3c-1.2-1.3,0.1-3.2-1.1-4.4c0-0.7,0-1.4-0.1-2.1c-0.8-4.4-0.9-8.7,0-13.1
				c0.3-8.4,4.3-15.3,8.6-22c7.1-11,15.3-21.2,24.1-30.9c4.1-4.6,7.9-9.5,13-13.1c3.5-2.5,3.4-2.8,6.7,0c2.5,2.1,4.9,1.7,7.6,0.7
				c3.2-1.1,3.3-1,4.3,3.1c-0.8,4.8-0.8,9.6,0,14.4c0,2.2,0,4.4,3.3,3.2c0.5,0.2,0.8,0.5,0.9,1c0.4,1.1,0.8,2.1,1.2,3.2
				c-1.3,1.7,0.3,3.9-1.1,5.6l0,0c-1.4,2.4,0.4,5.3-1.1,7.7c0,0.3,0,0.6,0,1C157.2,122.5,158.7,124.4,157.2,125.6z"/>
			<path class="st1" d="M208.6,208.5c1.1,0,2.1,0,3.2,0.1c3.2,1.4,6.7-0.4,9.9,1c2.6,0.2,5.3,0,7.9,0.8c3.6,1.1,3.8,1.5,3,5.7
				c-0.8,2-2.6,2.7-4.5,3.3c-2.5,0-5,0.1-7.5,0.1c-13.1,0.9-26.1,0.8-39.2,0c-5.4-3.5-5.4-5.5,0-9.9c1.3-1.1,3.1,0.1,4.4-1
				c1.8-0.4,3.6-0.8,5.4-1.1c2.2-0.8,4.3-0.8,6.5,0c0.7,0,1.4,0,2.1,0C202.6,208.9,205.8,207.1,208.6,208.5z"/>
			<path class="st2" d="M159.4,103.8c-0.3-0.3-0.6-0.7-0.9-1c0-1.5,0-2.9,0-4.4c1.4-3.9-0.4-8.1,1-12c0-0.7,0-1.5,0.1-2.2
				c1.2-1.3-0.1-3.1,1.1-4.4c0.2-1.2,0.4-2.4,1.1-3.4c3.2,2.6,1.3,5.8,1.1,8.9c0,0.4,0,0.7,0,1.1c-1.4,2,0.3,4.5-1.1,6.6
				c0,0.4,0,0.7,0,1.1c-1.3,1.6,0.2,3.8-1,5.5C160.3,100.9,159.8,102.3,159.4,103.8z"/>
			<path class="st3" d="M181.4,219.5c13.1,0,26.1,0,39.2,0c-1.6,1-3.4,1.1-5.2,1.1c-9.6,0-19.1,0-28.7,0
				C184.8,220.5,183,220.5,181.4,219.5z"/>
			<path class="st4" d="M156.2,74.1c-4.9,6.1-8.5,6.9-11.3,2.9c3.4,0.9,3.4,0.9,6.6-1.7C152.8,74.4,153.9,73,156.2,74.1z"/>
			<path class="st3" d="M110.9,98.8c2.6-6.3,7.9-10,12.2-14.7c0.3,0.3,0.6,0.6,1,0.9C119.6,89.6,115.3,94.2,110.9,98.8z"/>
			<path class="st3" d="M108.3,102.7c-2.8,3.3-5.5,6.6-8.3,9.8c0.7-4.9,4.4-7.6,7.2-10.9C107.9,101.7,108,102.3,108.3,102.7z"/>
			<path class="st3" d="M145.3,131.1c-2.3-2.8-2.9-5.6-0.4-8.6c2.4,0.7,0.3,3.8,2.5,4.3C146.6,128.2,145.7,129.5,145.3,131.1z"/>
			<path class="st3" d="M135.5,74.3c-1.9,2.4-4.5,3.9-7.1,5.6c1.4-2.7,3.5-4.8,6-6.6C134.9,73.4,135.3,73.8,135.5,74.3z"/>
			<path class="st5" d="M135.5,74.3c-0.4-0.3-0.7-0.7-1.1-1c1.1-2.1,2.2-4.3,4.5-5.5c1.2-0.6,2.3-0.8,2.1,1.2
				C138.8,70.4,137,72.2,135.5,74.3z"/>
			<path class="st3" d="M88.7,128.4c0.5,2.3-0.7,3.9-2.6,6.6C85.7,131.5,87,129.9,88.7,128.4z"/>
			<path class="st3" d="M155.1,99.6c-1.5-4.8-1.6-9.6,0-14.4C155.1,90,155.1,94.8,155.1,99.6z"/>
			<path class="st3" d="M90.8,147.5c0,4.4,0,8.7,0,13.1C89.2,156.2,89.2,151.8,90.8,147.5z"/>
			<path class="st3" d="M162.8,85.3c-0.2-3,0.6-6.1-1.1-8.9c0.7-1,1.6-1.2,1.8,0.1C164.1,79.5,164.3,82.5,162.8,85.3z"/>
			<path class="st3" d="M159.5,86.4c-0.3,4,0.7,8.1-1,12C158.7,94.4,157.6,90.3,159.5,86.4z"/>
			<path class="st3" d="M126,201.9c0,2.2-0.8,3.4-2.7,4.5C123.3,204.2,124,203,126,201.9z"/>
			<path class="st3" d="M106.1,203c2.6,1.9,6.1,0.4,8.6,2.3C111.8,204.8,108.2,206.6,106.1,203z"/>
			<path class="st3" d="M221.7,209.6c-3.3-0.1-6.7,0.5-9.9-1C215.1,208.8,218.5,207.9,221.7,209.6z"/>
			<path class="st3" d="M208.6,208.5c-3-0.1-6,0.4-8.8-1C202.8,207.6,205.8,206.9,208.6,208.5z"/>
			<path class="st3" d="M112.3,210.6c0.1-0.3,0.2-0.8,0.4-0.9c0.9-0.1,1.2,0.5,1.3,1.3c0,0.3-0.2,0.8-0.4,0.8
				C112.8,211.9,112.5,211.2,112.3,210.6z"/>
			<path class="st3" d="M158.4,120.2c0.1-2.6-0.3-5.3,1.1-7.7C159.4,115.1,159.9,117.8,158.4,120.2z"/>
			<path class="st3" d="M197.7,207.5c-2.2,0-4.3,0-6.5,0C193.4,206.1,195.5,206.1,197.7,207.5z"/>
			<path class="st6" d="M97.3,206.4c0.1,0.7,0.3,1.3,0.4,2c0.1,0.5,0.1,1.1-0.5,1.1c-0.3,0-0.6-0.6-0.9-1
				C95.6,207.3,95.4,206.3,97.3,206.4z"/>
			<path class="st3" d="M228.1,219.4c1.5-1.1,3-2.2,4.5-3.3C232.1,218.5,230.4,219.4,228.1,219.4z"/>
			<path class="st3" d="M161.7,92.9c0-2.2-0.2-4.5,1.1-6.6C162.8,88.6,163,90.9,161.7,92.9z"/>
			<path class="st7" d="M108.3,102.7c-0.4-0.4-0.7-0.7-1.1-1.1c0.8-1.4,1.9-2.5,3.3-3.3C110.1,100,109.1,101.3,108.3,102.7z"/>
			<path class="st3" d="M97.3,206.4c-0.4,0.7-0.7,1.4-1.1,2.1c-0.3-0.6-0.7-1.3-0.8-2c-0.2-0.6-0.3-1.6,0.6-1.7
				C96.8,204.8,97,205.8,97.3,206.4z"/>
			<path class="st3" d="M155,143.1c0.2-1.9,0.2-3.8,1.3-5.5C156.2,139.5,156.3,141.5,155,143.1z"/>
			<path class="st3" d="M160.7,99.4c0-1.9,0-3.8,1-5.5C161.7,95.8,161.8,97.7,160.7,99.4z"/>
			<path class="st3" d="M159.5,112.6c0-1.9,0-3.8,1.1-5.6C160.6,108.9,160.7,110.9,159.5,112.6z"/>
			<path class="st3" d="M140.9,68.9c-0.7-0.4-1.4-0.8-2.1-1.2C140.1,67.3,141.6,66.2,140.9,68.9z"/>
			<path class="st3" d="M160.6,79.8c0,1.5-0.2,3-1.1,4.4C159.5,82.7,159.7,81.2,160.6,79.8z"/>
			<polygon class="st3" points="101.6,213.7 102,214 101.6,214.2 			"/>
			<path class="st3" d="M185.8,208.6c-1.3,0.9-2.8,1-4.4,1C182.7,208.7,184.2,208.6,185.8,208.6z"/>
			<path class="st3" d="M157.2,125.6c0.2-1.5,0.3-3.1,1.2-4.5C158.4,122.8,158.3,124.3,157.2,125.6z"/>
			<path class="st3" d="M150.7,125.6c1.5-1,3-0.9,4.5,0C153.8,125.6,152.2,125.6,150.7,125.6z"/>
			<path class="st3" d="M90.8,162.7c0.9,1.4,1.1,2.9,1.1,4.4C91,165.8,90.8,164.2,90.8,162.7z"/>
			<path class="st3" d="M115.9,165.2c1.5-11.4,3.6-23.7,7.2-35.7c2.6-8.7,5.8-17.2,10.9-24.8c0.8-1.2,1.6-2.4,2.6-3.4
				c1-1.1,2.4-1.9,3.9-0.9c1.6,1.1,1,2.6,0.2,3.9c-3.5,5.4-5.3,11.5-7.4,17.5c-5.4,14.8-10.8,29.7-12.9,45.4
				c-0.2,1.8,0.1,4.8-2.6,4.6s-1.6-3.1-1.9-4.9C115.9,166.6,115.9,166.4,115.9,165.2z"/>
		</g>
	</g>
	<g id="_xFFFD__x9C__x96_撅_xFFFD__5_xA0_影像_1_">
		<g>
			<path d="M211.3,224.3c0.2,1.5,0.7,3.2,0.7,5c0,1.3-0.2,3.1-1,3.7c-1.5,1.2-3,0.1-4.1-1.3c-0.7-0.8-1.5-1.6-1.9-2.6
				c-1.9-4.4-5.2-5.2-9.6-4.9c-4.7,0.3-9.4,0-14.1-0.4c-6.1-0.5-6.4-1-6.5-6.9c-0.1-6.9,0.1-13.8-0.4-20.7
				c-0.7-9.6-1.5-19.2-2.9-28.7c-2-13.6-9.4-23.4-22.1-29c-2-0.9-3.9-2-5.6-3.4c-3.1-2.4-4.2-6.2-3.1-9.7c1-3.3,3.8-5.2,8-5.5
				c5-0.3,9.8,0.8,14.3,2.7c3.7,1.5,7.3,3.2,11,4.9c1.3-5.5,2.3-10.8,3.7-16c0.9-3.5,2.1-7,3.7-10.2c1.2-2.4,2.8-4.7,4.8-6.5
				c6.4-5.7,12.3-5.2,18.4,1.1c2.9-1.1,5.7-2.5,8.6-3.1c3.7-0.8,5.2,2.5,7,5.4c3.2-2,6.5-5,10-2.7c2.6,1.7,4,5.2,6.2,8.2
				c0,0,0.5,0,1-0.2c7.1-2.1,10.5,0,10.8,7.3c0.2,4.5,0,9.2-1.2,13.5c-2.5,9.5-3.6,19.3-4.7,29c-1.1,9.9-2.7,19.8-3.7,29.7
				c-1.1,10.7-1.6,21.4-2.5,32.1c-0.6,8-0.6,8-8.6,8.3c-5.1,0.2-10.1,0.3-15.2,0.4C212.1,223.7,212,223.9,211.3,224.3z M198.3,134.7
				c0.9-2.3,1.8-3.8,2.1-5.5c1.5-7.5,1.7-15.1,0.6-22.8c-0.3-2.1-0.7-4.3-1.4-6.4c-1.2-3.6-3.2-4.4-6.7-3.2s-5.7,3.8-7.1,7.1
				c-3.3,7.7-5.7,15.7-6.3,24.1c-0.3,4.6,2.6,9.8,6.9,10.8c10.3,2.2,15.6,17.9,14.2,27.3c-0.1,0.8-1.3,2-2,2s-2-1-2.2-1.8
				c-0.4-1.3-0.2-2.9-0.4-4.3c-0.8-6-1.8-13.2-7.2-15.7c-6.5-3-11.2-7.2-15.6-12.4c-0.3-0.4-0.9-0.7-1.3-0.9
				c-5.6-3.4-11.5-6.2-18-7.5c-1.6-0.3-3.3-0.6-4.8-0.3c-1.1,0.2-2.5,1-2.8,1.9s0.3,2.5,1.1,3.3c1.3,1.2,2.9,2.1,4.6,2.9
				c14.2,6.5,22.7,17.5,24.9,32.8c1.6,11.3,2.1,22.7,3.1,34.1c0.2,2.1,0.3,4.2,0.4,6.9c5.6,0,10.5-0.2,15.3,0.1
				c4.1,0.2,7.5-0.3,9.7-4.2c0.5-0.9,1.5-1.6,2.3-2.3c3.2-2.4,5.6-1.8,6.9,2c0.7,2.1,2,3.1,3.8,3.2c4.1,0.2,8.2,0.1,12.1,0.1
				c2.5-20.7,5-40.8,7.3-60c-3.5-1.9-6.3-3.4-8.9-4.9c-2,0.1-4.3,0.8-6.2,0.2c-2.1-0.6-4-2.2-6-3.3c-5.7,3.5-5.7,3.5-12.1-1.9
				c-0.3,0.2-0.6,0.3-0.9,0.6c-5.5,5.7-9.7,4.9-12.2-2.5c-2.2-6.5-2-13.3-1.5-20c0.1-1,1.7-2,2.6-2.9c0.9,1,2.3,1.9,2.4,3
				c0.4,2.7,0,5.4,0.2,8.2C195.6,126.4,195.4,130.4,198.3,134.7z M228.1,100.3c-5.1,0.1-6.8,1.8-7.1,6.5c-0.5,7.5-1.1,15.1-1.8,22.6
				c-0.3,3.9,1.3,5.8,5.8,6.4C229.9,127.4,231.6,107.3,228.1,100.3z M214,98.4c-5.8,0.3-7.6,2.4-7.3,7.8c0.3,6.2,0.3,12.3,0.1,18.5
				c-0.1,4.1,1,7.3,4.7,9.4C215.9,126.7,217.1,107.5,214,98.4z M235.7,138.6c1-1.3,2.5-2.5,2.9-4c1.7-7,3.1-14.1,4.4-21.2
				c0.3-1.8-0.4-3.7-0.7-5.7c-4.6,1.1-6.3,2.3-6.7,5.1c-1.1,6.6-2,13.2-2.9,19.9C232.4,134.9,232.6,137.1,235.7,138.6z M198.8,212.6
				c-5.9-0.2-11.1-0.5-16.4-0.7c-0.7,0-1.3,0.4-2.1,0.7c0,1.9,0,3.6,0,5.9c6.3,1,12.3,0.5,18.5,0.4
				C198.8,216.7,198.8,214.9,198.8,212.6z M230.7,211.8c-3.6-0.1-6.7-0.3-9.7-0.3c-5.5,0.1-5.7,0.4-6.2,6c5,0,10,0,15.2,0
				C230.2,215.6,230.4,214.2,230.7,211.8z"/>
			<path d="M157.8,74.6c-2.6,1.6-4.5,2.9-6.5,4.1c-5.5,3.2-9,1.8-10.5-4.4c-0.3-1.3-0.5-2.7-0.9-5c-2.9,2.4-5.5,4.1-7.5,6.3
				c-11,11.9-22,23.7-32.6,35.9c-5.5,6.3-10.1,13.3-13.1,21.2c-4.4,11.2-5.1,22.6-1,34.1c0.8,2.2,1.5,4.5,2.5,6.6
				c4.9,11,8.6,22.3,11.2,34.1c0.3,1.2,0.7,2.4,1.1,3.8c3.2-1.4,6.1-3.2,9.3-4c3.6-1,5.9,2,8,3.9c4.5-6.2,8.7-12.1,12.9-18.1
				c8.7-12.4,14-26.2,16.7-41c0.1-0.5-0.1-1.2,0.2-1.6c0.8-1.1,1.7-2.7,2.7-2.9c2-0.3,2.7,1.5,2.6,3.3c-0.2,2.5-0.3,5.1-1,7.5
				c-3.9,15.3-9.7,29.7-19.8,42.1c-4.3,5.2-8,10.8-9.9,17.4c-0.5,1.8-1.4,3.8-3.5,3.4c-1.3-0.3-2.4-1.8-3.3-3
				c-1.4-1.8-2.6-3.8-3.9-5.7c-3.4,0.5-5.4,2.3-7.2,4.4c-0.7,0.8-1.1,2-2,2.6c-1.2,0.8-2.8,1.9-4.1,1.7c-0.9-0.1-2-1.9-2.3-3.2
				c-1.2-4.8-1.7-9.7-3.2-14.3c-2.8-9.2-5.5-18.5-9.3-27.3c-9.5-21.4-7.1-41.4,6.1-60.3c1.4-2.1,2.8-4.3,4.5-6.2
				c11.8-13.1,23.6-26.2,35.5-39.1c2.4-2.6,5.5-4.7,8.6-6.7c5-3.2,7.3-2,7.9,3.8c0.2,1.9,0.4,3.9,0.7,6.9c3.1-2,5.5-3.5,7.8-5
				c2.4-1.5,4.9-3.9,7.9-2.1c2.9,1.8,1.6,5,1.2,7.5c-1.2,8.4-2.6,16.9-3.9,25.3c-0.2,1.1-0.1,2.3-0.6,3.2c-0.5,0.8-1.5,1.5-2.4,1.6
				c-0.5,0.1-1.6-1-1.7-1.7c-0.3-1.4-0.2-2.9-0.1-4.3c0.9-6.8,1.8-13.7,2.7-20.5C157.6,77.8,157.7,76.6,157.8,74.6z"/>
			<path d="M110.3,162.5c1-21.4,6.1-41.6,18.4-59.4c1.1-1.6,2.2-3.4,3.7-4.7c0.7-0.7,2.4-1.1,3.3-0.7c1.7,0.7,1.3,2.3,0.5,3.7
				c-0.4,0.6-0.8,1.2-1.2,1.8c-9.6,13.4-15.4,28.3-17.4,44.6c-0.9,7.5-1.3,15.2-1.9,22.7c-0.1,0.9,0.2,1.9-0.1,2.7
				c-0.5,1-1.6,2.6-2.1,2.5c-1.2-0.3-2.8-1.3-3-2.3c-0.4-2.1-0.1-4.3-0.1-6.5C110.3,165.4,110.3,164,110.3,162.5z"/>
			<path d="M186,68.2c0.6,1.1,1.3,2.1,1.7,3.3c1.1,2.9,0.5,5.4-1.9,7.3c-2.8,2.3-6.2,3-9.7,2.6c-2.1-0.2-3.7-1.5-3.7-3.9
				c-0.1-5.1-0.3-10.1-0.3-15.2c0-2.7,1.5-4.4,4-5.1c1-0.3,2.1-0.5,3.2-0.6c2.9-0.2,5.9-0.4,7.8,2.5c1.9,2.9,1,5.5-0.7,8
				C186.2,67.4,186.2,67.8,186,68.2z M177.5,66.9c2.1-1.7,3.5-2.7,5.4-4.2C178,62,178,62,177.5,66.9z M183.1,74
				c-2.3-1.5-3.8-2.1-5.3-0.7c-0.3,0.3,0.1,1.5,0.3,2.7C179.7,75.4,181,74.9,183.1,74z"/>
			<path d="M204.8,76c-2.9-0.4-5.2-0.8-6.1,2.4c-0.2,0.7-2,1.6-2.4,1.3c-0.9-0.6-2-1.9-2-2.8c0.5-5.7,1.7-11.2,6-15.3
				c3.6-3.5,7.8-2.5,9,2.5c1.1,4.3,1.1,8.9,1.4,13.4c0.1,1.7-0.5,3.6-2.5,3.4c-1-0.1-1.9-1.7-2.7-2.7C205,77.7,205,76.9,204.8,76z
				 M200.9,70.1c2.6,0.7,4.2,0.9,4-1.7c-0.1-0.7-0.6-1.4-1.3-2.8C202.5,67.4,201.9,68.5,200.9,70.1z"/>
			<path d="M241.2,69.3c2.5-1.6,4.2-2.9,6.1-3.9c0.8-0.4,2.6-0.1,2.8,0.4c0.4,0.9,0.5,2.7-0.1,3.3c-1.7,1.8-3.8,3.2-5.9,5
				c1.3,1.7,2.5,3,3.6,4.4c1.2,1.5,3,3.3,0.8,5.1c-1.9,1.5-3.3-0.2-4.5-1.6c-1.1-1.2-2.2-2.4-4-4.4c-0.6,2.3-0.7,4-1.4,5.5
				c-0.6,1.1-1.9,1.7-2.9,2.5c-0.7-1.1-2.1-2.3-2-3.3c0.7-5.6,1.7-11.1,2.7-16.6c0.3-1.5,0.8-2.9,2.7-2.7c1.9,0.2,2,1.7,2,3.3
				C241.1,67,241.1,67.7,241.2,69.3z"/>
			<path d="M226.9,82c-5.6,0.1-9.5-2.6-10.5-6.6c-1.2-4.5,1.4-11.3,5-12.9c1.2-0.5,3-0.8,4.1-0.3c1.1,0.4,1.9,1.9,2.4,3.1
				c0.1,0.4-1.6,2-2.4,2c-2.8-0.1-3.3,1.8-3.8,3.7c-0.8,3.2,0.1,4.7,3.3,5.6c0.5,0.1,1.1,0.2,1.6,0.3c1.7,0.3,3.6,0.8,3.1,2.9
				C229.2,80.8,227.4,81.6,226.9,82z"/>
		</g>
	</g>
	<g id="Square_xA0_影像_1_" class="st8">
	</g>
</g>
</svg>
