<?xml version="1.0" encoding="utf-8"?>
<!-- Generator: Adobe Illustrator 22.1.0, SVG Export Plug-In . SVG Version: 6.00 Build 0)  -->
<svg version="1.1" xmlns="http://www.w3.org/2000/svg" xmlns:xlink="http://www.w3.org/1999/xlink" x="0px" y="0px"
	 viewBox="0 0 255 240" style="enable-background:new 0 0 255 240;" xml:space="preserve">
<style type="text/css">
	.st0{fill:#2E313A;}
	.st1{fill:#F2F8F8;}
	.st2{fill:#141F2A;}
	.st3{fill:#16212C;}
	.st4{fill:#18232D;}
	.st5{fill:#A2A3A8;}
	.st6{fill:#E8CF8D;}
	.st7{fill:#E2E9EA;}
	.st8{fill:#D9DFE1;}
	.st9{fill:#FDFDFC;}
	.st10{fill:#FDFDFA;}
	.st11{fill:#15202B;}
	.st12{fill:#18232E;}
	.st13{fill:#19242E;}
	.st14{fill:#CED5D7;}
	.st15{fill:#C1C8CA;}
	.st16{fill:#DBE2E3;}
	.st17{fill:#FDFCFA;}
	.st18{fill:#FCFCF7;}
	.st19{fill:#F3F9F9;}
	.st20{fill:#17212C;}
	.st21{fill:#18222D;}
	.st22{fill:#E9D08E;}
	.st23{fill:#E3EAEB;}
	.st24{fill:#DAE0E1;}
	.st25{fill:#FEFEFD;}
	.st26{fill:#FEFEFB;}

	#t01 {
		z-index: 1;
	}
	#t02 {
		z-index: 2;
		animation: switch 2s linear infinite 0.1s;
	}
	#t03 {
		z-index: 3;
		animation: switch 2s linear infinite;
	}
	@keyframes switch {
	  0% {
	  	opacity: 1;
	  }
	  5% {
	  	opacity: 1;
	  }
	  6% {
	  	opacity: 0;
	  }
	  100% {
	  	opacity: 0;
	  }
	}
</style>
<g id="t01">
	<g id="敺_x9E__xFFFD__xF880_詨_x8F__x96_蝭_x84__xFFFD__x9C__x8D__xA0_影像_4_">
		<g>
			<path class="st0" d="M121.2,206.1c-15.4,0.4-29.7-3.6-42.4-12.2c-6.9-4.7-13.7-9.4-19.8-15.3c-9.3-9-15-20-19-32
				c-1.6-4.7-3.7-9.3-4.1-14.4c-0.1-1-0.3-2-0.3-3c-0.5-16.5,0.4-32.8,8.5-47.6C52.8,65.7,63.6,51.9,80.9,44
				c11.4-5.2,23.1-8.6,35.5-9.9c9.3-1,18.2,1.7,27,4.1c4.2,1.2,8.2,2.9,12.4,4.2c8.1,2.7,14.6,8,21.1,13.2
				c10.8,8.6,17.7,19.8,22.7,32.4c0.8,2,1.4,3.9,1.6,6c0.8,7.9,3.2,15.7,3.4,23.7c0,1.1,0.7,1.6,1.4,2.1c3.1,2.1,6.2,4.1,9.3,6.2
				c1.4,0.9,2.9,1.8,2.8,3.7c-0.1,2.1-2,2.7-3.6,3.3c-3.6,1.4-7.3,2.3-11.1,2.8c-1.6,0.2-2.3,0.9-2.8,2.4
				c-3.6,11.4-7.9,22.5-14.6,32.4c-6.8,10-14.4,19.4-25.4,25.4c-11.1,6.1-23,9.4-35.7,9.7C123.8,205.9,122.5,206,121.2,206.1z"/>
			<path class="st1" d="M211.8,128.8c-4.2,1.6-8,2.6-11.8,3.4c-1.2,0.3-1.8,0.7-2.2,1.9c-1.9,5.3-3.2,10.8-5.5,15.9
				c-6,13.1-13.7,25.2-24.5,34.9c-7.7,6.9-17.4,10.5-27.2,13.3c-15,4.2-29.6,2.8-44-2.8c-7.7-3-15.4-6-21.9-11.4
				c-11.2-9.2-21.6-18.9-27.9-32.5c-6.1-13.2-8.1-26.5-6.1-40.8c0.9-6.5,1.7-13,3.6-19.2c1.8-5.9,5-11.2,8.3-16.5
				c5.9-9.3,13.6-17,22.5-23c9.7-6.6,20.8-10.6,32.6-12.4c6.8-1,13.7-1.8,20.4-0.6c17.3,3.2,33.6,8.6,47.1,20.8
				c15.8,14.3,23.7,31.7,24.5,52.7c0.1,2.3,0.7,4.7,0.3,7c-0.2,1.3,0.9,1.9,1.7,2.5c1.5,1.1,3.1,2.2,4.7,3.3
				C208,126.4,209.6,127.4,211.8,128.8z"/>
			<path class="st2" d="M144.7,166.6c-1.2-0.6-2.1-0.2-3.2,0.6c-8.2,6.3-18.3,5.5-24.8-2.6c-11.3-13.9-21.1-28.9-29.1-45
				c-3-6-5.7-12.1-6.6-18.9c-1.6-11.8,5.5-20.4,17.1-23c1.6-0.4,3.2,0,4.7,1c7.1,4.8,11,11.7,12.7,19.9c0.5,2.6-0.4,5.1-1.7,7.3
				c-1.1,1.8-1.2,3.6-0.3,5.4c3.8,7.8,8.7,14.9,13.9,21.8c0.6,0.8,1.1,0.6,1.8,0.3c4.2-1.9,7.8-0.5,11.2,2
				c6.2,4.8,9.6,15.4,7.5,22.9c-0.4,1.4-1.1,2.8-1.7,4.3c1.5,0.5,2.8,0.3,4.1-0.2c3.6-1.2,3.7-1.5,1.8-4.6c-0.6-1-1.1-2.1-1.1-3.3
				c-0.1-2.3,0.8-4.2,2.9-5.1c2.2-1,3.8,0.3,5.2,1.9c0.8,0.9,1.3,2,1.7,3.1c0.2,0.6-0.1,1.8,0.9,1.7c1.2-0.1,1.7-1.2,2.3-2.2
				c0.4-0.8,0.2-1.4-0.5-1.8c-1.7-1-3-2.4-3.5-4.3c-0.6-2.2-0.5-4.2,1.7-5.5c1.9-1.1,4-0.5,5.7,1.7c0.5,0.7,1,1.5,1.7,2.5
				c1.2-1.8,0.7-3.5,0.7-5.1c0-0.9-0.2-1.8-0.2-2.7c0-1.1,0.5-2,1.7-2.2c1.1-0.2,1.7,0.5,2.1,1.4c1.9,3.3,1.2,10.4-1.7,12.8
				c-1.9,1.6-3.2,3.3-4.1,5.6c-0.4,1.1-1.4,1.9-2.1,2.8c-5.2,2.1-9.3,6.3-14.9,7.6C148.6,167,146.7,167.1,144.7,166.6z"/>
			<path class="st3" d="M121.9,69.1c0.2,1.2-0.4,2-2.1,2.1c-1.6,0.1-3.3,0.3-4.9,0.3c-2,0-2.9,0.8-2.5,2.8c0,0.1,0,0.2,0,0.3
				c0,1.4,1.1,3.5-1.2,3.9c-2.3,0.4-2.2-1.9-2.5-3.4s-0.6-3-0.8-4.6c-0.4-2.8,0.5-3.9,3.3-4c3.9-0.3,3.9-0.3,3.9-4.2
				c0-1.7,0-3.4,0.1-5.2s1.2-2.6,2.9-2.7c1.7-0.1,2.2,1.1,2.3,2.4C121,60.8,121.4,64.7,121.9,69.1z"/>
			<path class="st4" d="M117.8,86.4c0.2-1.7,0.4-3.4,0.7-5.1c0.7-4,1.3-4.6,5.4-5.1c1.4-0.2,2.3-0.7,2.9-2.1
				c0.4-0.9,0.9-1.8,1.5-2.6c0.6-0.9,1.5-1.4,2.6-1c1.2,0.4,1.4,1.4,1.3,2.4c-0.4,2.5-0.9,5-1.5,7.5c-0.4,1.6-1.8,2.1-3.2,1.8
				c-2.8-0.4-4,1-4.6,3.4c-0.2,0.8-0.5,1.6-1,2.2c-0.7,0.9-1.7,1.4-2.9,1C117.8,88.5,117.7,87.4,117.8,86.4z"/>
			<path class="st5" d="M144.7,166.6c5.3,0.3,9.8-1,13.9-4.7c1.7-1.6,4.7-1.5,6.8-2.9c-0.1,0.2-0.1,0.7-0.3,0.7
				c-5.3,1.8-9.1,6.6-14.8,7.4C148.4,167.3,146.5,167.7,144.7,166.6z"/>
			<path class="st6" d="M131.5,167.3c-4.9-0.1-8.2-1.9-10.6-4.9c-10.8-13.3-20.3-27.4-28.1-42.7c-3.1-6.1-6.5-12.1-7.8-18.9
				c-0.8-4.3,0.1-7.9,3.2-11.2c2.8-2.9,6-4.9,9.7-6.4c2.6-1.1,5-0.6,6.6,1.5c4.8,6.4,8.8,13.2,4.6,21.6c-0.9,1.8-0.5,3.6,0.3,5.2
				c4.7,9.1,9.1,18.4,15.7,26.5c1,1.3,2,2.4,4.1,1.6c5.9-2.3,6.2-2.1,10.5,2.6c1.2,1.3,2.4,2.8,3.4,4.2c2.8,4.1,2.7,8.1-0.3,12.2
				c-1.8,2.5-4,4.7-6.4,6.7C134.8,166.7,132.8,167.5,131.5,167.3z"/>
			<path class="st7" d="M166.1,147.4c0,1.1-0.5,1.9-1.6,1.9c-1.4,0-2.1-1-2.2-2.3c-0.1-1.1,0.6-2,1.7-2
				C165.6,145.1,165.9,146.2,166.1,147.4z"/>
			<path class="st8" d="M155.5,156.9c-1.1-0.3-1.8-1-1.7-2.3c0-1.2,0.7-1.9,1.9-1.7c1.3,0.2,1.8,1.2,1.7,2.4
				C157.4,156.3,156.8,156.9,155.5,156.9z"/>
			<path class="st9" d="M131.6,160.9c-0.3,1.4-0.2,3-1.7,3.8s-3.2,0.5-4.7-0.5c-0.8-0.5-1.7-1.3-0.1-1.8c1.7-0.6,1.4-1.7,1.4-3
				c-0.1-4.7-2.7-8.2-5.3-11.7c-7-9.6-12.7-19.8-18.4-30.2c-3.4-6.2-7.2-12.2-11.9-17.5c-0.8-0.9-1.3-2-1.8-3
				c-0.4-0.8-1.1-1.7,0-2.4c1-0.7,2-0.5,3,0.2c2.3,1.8,4.3,3.9,5.9,6.3c7.5,11,13.7,22.7,20.3,34.2c3.6,6.3,7.5,12.4,11.2,18.6
				C130.9,156,131.1,158.4,131.6,160.9z"/>
			<path class="st10" d="M108.7,97.9c0,1.3,0.1,2.7-1.7,2.8c-1.8,0.1-2-1.3-2-2.6c0-4.1-2.2-7.2-4.5-10.2c-0.6-0.8-1.6-1.6-0.5-2.5
				c1-1,2.1-0.6,3.2,0.3C105.7,87.7,108.7,94.2,108.7,97.9z"/>
		</g>
	</g>
</g>
<g id="t02">
	<g id="敺_x9E__xFFFD__xF880_詨_x8F__x96_蝭_x84__xFFFD__x9C__x8D__xA0_影像_11_">
	</g>
	<g id="敺_x9E__xFFFD__xF880_詨_x8F__x96_蝭_x84__xFFFD__x9C__x8D__xA0_影像_9_">
	</g>
	<g id="敺_x9E__xFFFD__xF880_詨_x8F__x96_蝭_x84__xFFFD__x9C__x8D__xA0_影像_7_">
	</g>
	<g id="敺_x9E__xFFFD__xF880_詨_x8F__x96_蝭_x84__xFFFD__x9C__x8D__xA0_影像_5_">
	</g>
	<g id="敺_x9E__xFFFD__xF880_詨_x8F__x96_蝭_x84__xFFFD__x9C__x8D__xA0_影像_3_">
	</g>
	<g id="敺_x9E__xFFFD__xF880_詨_x8F__x96_蝭_x84__xFFFD__x9C__x8D__xA0_影像_13_">
		<g>
			<path class="st0" d="M121.3,206.1c-15.4,0.4-29.7-3.6-42.4-12.2c-6.9-4.7-13.7-9.4-19.8-15.3c-9.3-9-15-19.9-19-32
				c-1.6-4.8-3.8-9.5-4.2-14.6c-0.1-0.9-0.2-1.8-0.3-2.7c-0.5-16.5,0.5-32.8,8.5-47.7c8.7-16,19.6-29.8,37-37.7
				c11.4-5.1,23-8.5,35.2-9.8c9.3-1,18.2,1.7,27,4.1c4.2,1.1,8.2,2.9,12.4,4.2c8.1,2.7,14.6,8,21.1,13.2
				c10.8,8.6,17.7,19.8,22.7,32.4c0.7,1.9,1.4,3.8,1.6,5.8c0.9,8,3.3,15.8,3.5,24c0,1.1,0.6,1.6,1.4,2.1c3.2,2.1,6.3,4.2,9.5,6.4
				c1.3,0.9,2.7,1.8,2.6,3.6c-0.1,2-1.8,2.6-3.3,3.2c-3.6,1.4-7.3,2.3-11.1,2.8c-1.8,0.2-2.6,1-3.1,2.7
				c-3.6,11.3-7.8,22.3-14.5,32.2c-6.9,10.2-14.7,19.7-25.8,25.6c-11.1,5.9-22.9,9.2-35.5,9.5C123.7,206,122.5,206,121.3,206.1z"/>
			<path class="st1" d="M211.8,128.9c-4,1.5-7.8,2.5-11.6,3.3c-1.3,0.3-1.9,0.8-2.4,2.1c-2,5.6-3.3,11.5-6,16.9
				c-4.8,9.9-10.6,19.1-17.7,27.5c-8,9.4-18.4,14.6-29.7,18.4c-16.1,5.4-31.9,4.4-47.7-1.7c-7.8-3-15.6-6.1-22.1-11.5
				c-11.1-9.2-21.5-18.8-27.7-32.3c-6.1-13.2-8.1-26.7-6.1-41.1c0.9-6.5,1.7-13,3.6-19.2c1.6-5.2,4.3-10,7.1-14.6
				C57.6,66.8,65.6,58.5,75,52c9.9-6.7,21-10.6,32.7-12.5c6.8-1,13.7-1.8,20.4-0.6c17.5,3.2,33.9,8.7,47.6,21.1
				c15.6,14.2,23.2,31.6,24.2,52.3c0.1,2.3,0.8,4.7,0.4,7c-0.2,1.4,0.9,2.1,1.9,2.8C205.1,124.3,208.3,126.5,211.8,128.9z"/>
			<path class="st11" d="M96.8,167.1c-9.8-5.7-12.3-11-10.7-22c2.7-18.5,6.5-36.8,13-54.5c2-5.5,4.7-10.6,8.8-14.6
				c8-7.9,17.5-7.6,26.8-1.4c1.3,0.9,1.9,2.4,2.2,4c1.4,8-0.5,15.3-4.7,22.1c-1.6,2.5-4.1,3.8-6.9,4.6c-1.8,0.5-3.1,1.4-3.7,3.2
				c-3,8.2-4.5,16.8-5.7,25.4c-0.1,0.8,0.2,1.3,1,1.7c5.4,2.3,7,6.9,6.5,12c-0.9,9-4.6,16.4-13.5,20.1c-0.7,0.5-0.8,1-0.2,1.8
				c1.1,1.4,2.7,1.9,4.2,2.3c1.3,0.4,1.3-0.7,1.5-1.6c0.5-2.9,1.6-5.4,4.8-6.3c2.7-0.8,5.4,1,5.5,3.9c0.1,1.6-0.2,3.1-0.8,4.5
				c-0.3,0.7-1.1,1.4-0.2,2.2c0.4,0.4,1,0.2,1.6,0.1c1.1-0.4,1.3-1.3,1.1-2.2c-0.4-2.1,0.1-3.9,1.3-5.6c1.2-1.7,2.6-2.8,4.8-2.2
				s3.4,2.6,3.2,5c-0.1,0.7-0.4,1.4,0.1,2.3c1.5-0.3,2.3-1.6,3.1-2.7c0.6-0.7,1-1.5,1.8-2c0.9-0.5,1.9-0.7,2.8,0.1
				c0.8,0.7,0.8,1.6,0.6,2.5c-1,3.5-7.6,10-12.3,8.2c-1.1-0.4-1.9-0.1-2.9,0.4c-3.6,1.8-7.2,1.7-10.6-0.5c-0.8-0.5-1.6-0.7-2.5-0.7
				c-4.8-0.1-8.8-2.1-11.7-5.9c-1.2-1.6-2.5-2.6-4.5-2.9C99.2,168.1,97.9,167.9,96.8,167.1z"/>
			<path class="st12" d="M165.5,73.9c-0.3,0.4-0.6,1.2-1.1,1.8c-2.2,2.9-4.6,5.6-6.8,8.5c-1.3,1.7-2.5,1.8-4,0.4
				c-1.1-1-2.2-1.9-3.2-3c-1.4-1.4-2.5-1.3-3.8,0.3c-0.9,1.1-1.8,3.5-3.7,2s0.1-3,0.9-4.4c0.3-0.5,0.7-1,1.1-1.5
				c3.4-4.7,3.4-4.7,7.8-1.2c1.3,1,2.1,1,3.2-0.2c1.5-1.7,3.2-3.2,4.8-4.8c1-0.9,2.1-1,3.3-0.4C164.9,71.8,165.6,72.4,165.5,73.9z"
				/>
			<path class="st13" d="M149.7,89.4c1.4-0.1,2.3,0.6,3,1.4c1.4,1.5,3,1.8,4.9,1c0.8-0.4,1.7-0.5,2.6-0.6c1-0.1,1.8,0.4,2.2,1.3
				s0.1,1.7-0.6,2.2c-2.3,1.6-4.6,3.2-7,4.6c-1.3,0.8-2.5-0.2-3.3-1.2c-1.6-2-3.4-2.1-5.4-0.8c-0.6,0.4-1.3,0.6-2,0.8
				c-1.3,0.3-2.4,0-3-1.2s0.1-2,1.1-2.7C144.5,92.2,146.7,90,149.7,89.4z"/>
			<path class="st14" d="M96.8,167.1c1.8,0.3,3.5,0.8,5.3,1c1.2,0.1,1.7,0.9,2.3,1.7c2.9,4.2,6.9,6.3,11.9,6.6
				c1.1,0.1,2.1,0.3,3.1,0.9c3,2.1,6.3,2.2,9.6,0.7c1.5-0.7,2.8-0.9,4.4-0.6c4.1,0.6,10-3.5,11.2-7.6c0.3-0.9,0.4-1.9-0.5-2.5
				c-1-0.6-1.9-0.3-2.7,0.5c-1.2,1.3-2.3,2.6-3.4,3.8c-0.5,0.5-1.1,1.2-1.8,0.9c-1-0.4-0.2-1.3-0.1-1.9c0-0.6,0.1-1.3,0.2-1.9
				c0.1-2-0.8-3.3-2.7-4s-3.4,0.2-4.5,1.7c-1.2,1.6-1.7,3.4-1.3,5.4c0.4,2.3-0.5,3.2-2.7,3c-1.3-0.1-1.9-0.6-1.1-1.9
				c0.8-1.3,1.3-2.6,1.4-4.1c0.1-1.9-0.2-3.7-2.2-4.5c-2.1-0.8-4-0.2-5.4,1.4c-1.2,1.3-1.8,2.9-1.8,4.7c0,1.6-0.7,1.9-2.1,1.5
				c-1.8-0.6-3.6-1.2-4.9-2.8c-1.1-1.4-0.2-1.7,1-1.6c0.1,1.8,2.9,4.2,4.4,3.7c0.7-0.2,0.5-0.9,0.6-1.4c0.7-2.9,1.9-5.5,5.1-6.5
				c3.3-1.1,6.3,0.9,6.4,4.4c0,1.7-0.5,3.2-1,4.7c-0.2,0.5-1,1.2,0,1.5c0.8,0.3,1.4-0.3,1.5-1.2c0.1-1,0-2,0-3c0.2-2.9,2.6-5.8,5-6
				c3.6-0.3,5.7,2.7,5,7.3c1.5-0.6,2.1-1.9,3-3c1.2-1.4,2.6-3,4.6-1.7c1.9,1.3,1.1,3.2,0.3,4.9c-2.6,5-7,7.4-12.4,6.7
				c-0.9-0.1-1.6,0.2-2.3,0.5c-3.7,1.6-7.4,1.6-10.9-0.6c-0.7-0.5-1.5-0.6-2.3-0.6c-5,0-9-2.2-11.9-6.1c-1.3-1.7-2.6-2.8-4.8-3
				C98.8,168.3,97.5,168.3,96.8,167.1z"/>
			<path class="st6" d="M103.3,163.2c-10,0.9-13.7-6.4-12.9-13.9c1.8-17,5-33.8,10.6-50c1.8-5.1,3.2-10.3,5.8-15.2
				c4.4-8.3,9.7-9.4,17.8-8.1c1.8,0.3,3.5,1.1,5.1,1.8c3,1.2,4.3,3.3,3.9,6.6c-0.7,4.9-2.4,9.5-5.3,13.6c-1.4,2-3.5,2.9-5.6,3.6
				c-2.3,0.8-3.8,2.2-4.5,4.4c-3.2,9.8-6.6,19.6-7.7,30c-0.3,2.3,0.5,3.5,2.7,4.3c4.1,1.5,5,3.1,4.8,7.4c-0.1,2.1-0.3,4.2-0.6,6.2
				c-0.6,5-4.5,9.1-10.6,9.3C105.6,163.3,104.4,163.2,103.3,163.2z"/>
			<path class="st15" d="M133.8,169.8c-0.3,1.2-0.7,2.4-2.3,2.4c-1.3,0-1.7-0.9-1.6-2c0.1-1.3,0.7-2.3,2.1-2.3
				C133.1,167.8,133.7,168.6,133.8,169.8z"/>
			<path class="st16" d="M120.2,171.5c-1.3-0.2-1.8-0.9-1.8-2.1c0.1-1.1,0.6-1.9,1.8-2c1.2-0.1,1.8,0.7,1.8,1.8
				C122,170.5,121.3,171.2,120.2,171.5z"/>
			<path class="st17" d="M118.1,86.3c-0.4,6.6-2.5,13.4-4.2,20.4c-2.8,11.6-6.6,23-9.2,34.7c-1,4.8-1.8,9.6-4.7,13.8
				c-0.5,0.7-1.1,1.4-1.8,2c-2.6,2.1-4.7,1.4-5.8-1.7c-0.5-1.5-1-2.9,1.6-2c1.2,0.4,1.7-0.7,2.4-1.4c3.1-3,3.8-6.9,4.4-10.8
				c2-12.9,5.7-25.4,9.1-38c1.6-5.9,3.1-11.9,3.3-18.1c0-1.2,0.6-2.4,1-3.7c0.2-0.9,0.7-1.5,1.7-1.5s1.4,0.7,1.8,1.5
				C118.3,82.7,118,84.2,118.1,86.3z"/>
			<path class="st18" d="M132.2,83.3c-0.8,4.7-1.6,9.2-5,12.7c-0.9,0.9-1.9,2-3.2,0.8c-1.1-1.1-0.7-2.3,0.4-3.3
				c2.9-2.8,3.7-6.4,4-10.1c0.1-1.4,0.3-2.8,1.9-2.7C132,80.7,131.9,82.3,132.2,83.3z"/>
		</g>
	</g>
	<g id="敺_x9E__xFFFD__xF880_詨_x8F__x96_蝭_x84__xFFFD__x9C__x8D__xA0_影像_2_">
	</g>
	<g id="敺_x9E__xFFFD__xF880_詨_x8F__x96_蝭_x84__xFFFD__x9C__x8D__xA0_影像_12_">
	</g>
</g>
<g id="t03">
	<g id="敺_x9E__xFFFD__xF880_詨_x8F__x96_蝭_x84__xFFFD__x9C__x8D__xA0_影像_8_">
		<g>
			<path class="st0" d="M121.4,206.1c-15.4,0.4-29.7-3.6-42.5-12.2c-6.9-4.7-13.7-9.4-19.8-15.3c-9.3-9-15-19.9-19-32
				c-1.6-4.8-3.8-9.5-4.2-14.6c-0.1-1-0.3-2-0.3-3c-0.5-16.5,0.5-32.8,8.6-47.6c8.8-15.9,19.7-29.7,37-37.5
				c11.4-5.1,23-8.5,35.2-9.8c9.4-1.1,18.4,1.7,27.3,4.2c4.1,1.1,8,2.8,12.1,4.2c8.1,2.7,14.6,7.9,21.1,13.2
				c10.7,8.5,17.6,19.6,22.6,32.2c1,2.5,1.6,5,1.9,7.6c0.9,7.6,3.1,14.9,3.2,22.6c0,1.1,0.8,1.5,1.6,2c3.2,2.1,6.4,4.2,9.5,6.4
				c1.3,0.9,2.6,1.8,2.4,3.7c-0.2,1.7-1.7,2.3-3,2.9c-3.4,1.4-6.9,2.4-10.5,2.8c-2.4,0.3-3.5,1.2-4.3,3.6
				c-3.5,11-7.7,21.8-14.3,31.4c-6.9,10.2-14.7,19.7-25.8,25.7c-11.1,5.9-22.9,9.2-35.4,9.5C123.7,205.9,122.6,206,121.4,206.1z"/>
			<path class="st19" d="M211.9,128.9c-4.2,1.5-8,2.5-11.8,3.3c-1.3,0.3-1.7,0.8-2.2,2c-2.2,6.3-3.7,12.9-6.8,18.9
				c-5.6,10.7-12,20.9-20.6,29.5c-7.2,7.2-16.3,11.2-25.7,14.4c-16.1,5.6-32.1,4.6-48-1.5c-7.8-3-15.6-6.1-22.1-11.5
				c-11-9.1-21.4-18.7-27.6-32.1c-6.3-13.3-8.3-26.8-6.3-41.3c0.9-6.5,1.7-13,3.6-19.2c1.7-5.4,4.5-10.3,7.4-15.1
				c6-9.8,13.9-17.9,23.2-24.3c9.8-6.7,21-10.7,32.8-12.5c3.6-0.6,7.2-0.8,10.9-0.9c17.5-0.2,33.6,5,48,14.5
				c8.1,5.4,15.8,11.7,21,20.3c7.1,11.8,12.1,24.4,12.1,38.5c0,2.4,0.8,4.8,0.4,7.3c-0.3,1.4,0.8,2.1,1.8,2.8
				C205.1,124.3,208.2,126.4,211.9,128.9z"/>
			<path class="st2" d="M85.9,151.6c2.1,3.5,2.9,3.5,5.1,0.9c0.7-0.8,1.6-1.5,2.6-1.9c2.8-1.2,5.2-0.7,6.3,1.3
				c1.2,2.2,0.4,4.3-2.3,6.2c-0.6,0.4-1.4,0.5-1.6,1.4c1.6,1,3.3,0.6,5,0.5c0.9,0,1.8-0.2,2.7-0.2c1,0,1.8,0.5,2,1.5
				c0.3,1.1-0.4,1.7-1.2,2.2c-3.8,2.3-11.3,0.9-13.9-2.7c-0.7-1-1.5-1.7-2.7-2.1c-3.8-1.3-6.4-3.8-7-7.9c-0.2-1.1-0.8-1.8-1.5-2.5
				c-3.4-3.7-4.7-8.1-3.7-13.1c0.2-1.3,0.2-2.1-0.7-3.2c-6.4-8.3-5.4-18.2,2.7-25c9.4-7.8,19.6-14.3,30-20.8
				c7-4.4,14.3-8.2,21.8-11.3c7.7-3.2,15.6-5.5,23.9-1.6c6.7,3.2,9.6,9.1,11.1,15.8c0.3,1.6-0.2,3-1.2,4.3
				c-4.6,6.6-11,10.3-18.7,12.3c-2.9,0.7-5.7,0.1-8.1-1.4c-2.1-1.3-4.1-1.3-6.2-0.2c-7.5,3.9-14.5,8.5-21.2,13.7
				c-0.7,0.6-0.7,1.1-0.3,1.8c1.9,4.2,0.6,7.9-2,11.1c-4.1,5-13.8,10.2-22.9,7.5c-0.7-0.2-1.4-0.5-2-0.7c-0.7-0.3-1.5-1.3-2.2-0.8
				c-0.8,0.6-0.4,1.8-0.3,2.8c0.2,0.9,0.5,1.7,0.9,2.6c0.7,1.7,1.3,2.9,3.3,1c2.2-2.1,5.2-2.2,7.3-0.9c2.5,1.6,2.9,4.3,0.8,6.5
				C90.3,150.3,88.2,151.1,85.9,151.6z"/>
			<path class="st20" d="M168.6,102.7c-1.3,0.1-2.2,0.3-3.1,0.3c-0.9,0-1.6-0.3-1.9-1.3c-0.3-1,0.2-1.7,1.1-1.9
				c2.9-0.9,5.8-1.5,8.8-1.4c1.6,0.1,2.2,1.2,2.3,2.9c0.1,4.9,0.1,4.3,4.7,4.2c1.6,0,3.3,0,4.9,0.1c1.6,0.1,2.3,1.2,2.5,2.8
				c0.2,1.7-1,2.3-2.3,2.4c-4,0.5-8.1,0.9-12.2,1.4c-1.5,0.2-2.2-0.4-2.3-1.9c-0.1-1.7-0.3-3.4-0.3-5.1
				C170.6,103.5,170.1,102.4,168.6,102.7z"/>
			<path class="st21" d="M157.4,108.3c0.8,0.1,2.4,0.3,3.9,0.6c3.7,0.7,4.3,1.4,4.7,5.1c0.1,1.5,0.7,2.5,2.2,3.1
				c1,0.4,1.9,1,2.8,1.6c0.8,0.6,1.1,1.5,0.7,2.4c-0.3,0.9-1.1,1.3-1.9,1.2c-2.8-0.5-5.5-0.9-8.3-1.7c-1.5-0.4-1.7-1.9-1.5-3.2
				c0.4-2.6-0.8-3.9-3.2-4.4c-0.4-0.1-0.7-0.3-1-0.4c-1.7-0.5-2.8-1.6-2.4-3.4C153.7,107.5,155.3,108.1,157.4,108.3z"/>
			<path class="st22" d="M74.9,121.8c0-4.8,1.8-8.1,4.7-10.5c13.1-10.8,27.2-20.2,42.4-28c6.3-3.2,12.4-6.7,19.4-8
				c4.1-0.8,7.7,0.1,10.9,3.1c3.1,2.9,5.1,6.3,6.7,10.1c0.9,2.2,0.4,4.1-1.1,5.7c-5,5.8-14.8,8.2-21.9,5.2c-2-0.8-3.8-0.6-5.5,0.3
				c-9.1,4.7-18.4,9.1-26.5,15.6c-1.2,1-2.5,1.9-1.7,4c2.3,6,2.1,6.2-2.5,10.5c-1.3,1.2-2.7,2.2-4,3.3c-3.3,2.7-9.5,2.7-12.7-0.2
				c-2.3-2.1-4.6-4.1-6.6-6.5C75.4,125,74.5,123.2,74.9,121.8z"/>
			<path class="st23" d="M94.9,152.6c1.3,0.1,2.2,0.6,2.2,1.8c0,1.5-1.2,1.9-2.4,2c-1,0.1-1.8-0.4-1.8-1.5
				C92.8,153.4,93.9,153,94.9,152.6z"/>
			<path class="st24" d="M87.3,144c1.2,0.2,2,0.6,1.9,1.7c0,1.5-1.1,2-2.4,2c-1,0-1.7-0.7-1.6-1.8C85.3,144.7,86.3,144.3,87.3,144z"
				/>
			<path class="st25" d="M81.1,121.8c-3.2,0.1-4.8-2.1-3.7-5.2c0.3-0.8,0.6-1.7,1.4-1.9c1-0.2,0.9,0.9,1.2,1.4
				c0.4,0.6,0.9,0.9,1.6,0.8c2.8-0.6,5.8-0.4,8.3-2.3c14.4-10.9,30.7-18.6,45.8-28.4c2-1.3,3.9-2.9,5.8-4.5c1.1-0.9,2.1-1.7,3.4-2.2
				c0.9-0.3,2-1.4,2.9,0c0.7,1.2,0.2,2.2-0.6,3.2c-2,2.6-4.6,4.6-7.3,6.4c-9.2,6.1-18.9,11.6-28.5,17c-6.1,3.4-12.2,6.8-17.9,10.8
				C89.8,119.5,85.8,121.4,81.1,121.8z"/>
			<path class="st26" d="M144.2,99c-1.3,0-2.7,0-2.7-1.8c0-1.6,1.2-1.9,2.4-1.9c4.1,0.1,7.2-2.1,10.3-4.4c0.8-0.6,1.7-1.8,2.7-0.6
				c1,1.2,0.5,2.4-0.6,3.3C152.8,96.5,148.9,98.7,144.2,99z"/>
		</g>
	</g>
</g>
</svg>
