<svg id="圖層_1" data-name="圖層 1" xmlns="http://www.w3.org/2000/svg" viewBox="0 0 440.41 388.12"><defs><style>.cls-1,.cls-10,.cls-11,.cls-3,.cls-5{fill:#fff;}.cls-1,.cls-10,.cls-3,.cls-5,.cls-8,.cls-9{stroke:#fff;}.cls-1,.cls-3,.cls-4,.cls-5{stroke-miterlimit:10;}.cls-1,.cls-10,.cls-8,.cls-9{stroke-width:10px;}.cls-2,.cls-4,.cls-9{fill:#222;}.cls-3{stroke-width:3px;}.cls-4{stroke:#222;stroke-width:0.25px;}.cls-6,.cls-8{fill:#e9d08d;}.cls-7{fill:#b7cbce;}.cls-10,.cls-8,.cls-9{stroke-linecap:round;stroke-linejoin:round;}</style></defs><title>大事記</title><path class="cls-1" d="M394.22,58.55c-3.05-10.29-9.56-15.07-20.29-15.07-46.5,0-93,0-144-1.16C178.78,43.63,123,38,67.37,43.19c-6.23.58-16.8,7.83-18,13.77-1,5.21-2.32,10.43-2.32,15.93q-.66,67.36-1.59,134.74c-.15,14.2-.58,28.39-.29,42.59.29,11.3,9.41,19.56,20.57,19.56,18.83.15,37.67,0,56.5.15,31,.14,62.15.58,93.16.72,14.29.09,131.11,2.61,131.11,2.61,7.25,0,14.49-.29,21.73-.29,13.19,0,23.62-9.27,24.49-22.31q.87-11.08.87-22.17c.14-27.24.14-54.47.14-81.71,0-25.93,1.16-51.87,2-77.8A32,32,0,0,0,394.22,58.55Z"/><g id="CTA_Frame_New_影像" data-name="CTA Frame New 影像"><path class="cls-2" d="M215.44,270.65c-31-.14-62.15-.58-93.16-.72-18.83-.15-37.67,0-56.5-.15-11.16,0-20.28-8.26-20.57-19.56-.29-14.2.14-28.39.29-42.59q.87-67.37,1.59-134.74c0-5.5,1.3-10.72,2.32-15.93,1.16-5.94,11.73-13.19,18-13.77,55.64-5.21,111.41.44,162.56-.87,51,1.16,97.5,1.16,144,1.16,10.73,0,17.24,4.78,20.29,15.07A32,32,0,0,1,395.81,69c-.87,25.93-2,51.87-2,77.8,0,27.24,0,54.47-.14,81.71q0,11.08-.87,22.17c-.87,13-11.3,22.31-24.49,22.31-7.24,0-14.48.29-21.73.29C346.55,273.26,229.73,270.74,215.44,270.65Z"/></g><path class="cls-3" d="M346.12,265c7.68-.14,15.35.14,22.89-.58,9.27-.87,13.33-5.5,14.34-14.92a293.37,293.37,0,0,0,1.6-31.88c.57-42.3,1-84.6,1.59-126.76.14-8.26,1-16.66.14-24.92-1-10.14-3.62-14.2-14.05-14.35-48.82-.14-97.94-1-147-1.73,0-.15-22.6-.15-34.05-.29-38.53-.44-77.22-1-115.75-1.45C65.2,48,55.35,54.64,55.06,66.66q-.66,21.3-.87,42.6c-.44,46.07-1.74,92.14-1.31,138.21,0,6.52,4.5,11.88,10.87,13.62a34,34,0,0,0,8.55,1.16s185.09,2.17,201.36,2.75S346.12,265,346.12,265Z"/><path class="cls-4" d="M107.48,245.67h-4c-1.28,0-1.92-.4-1.92-1.21s.71-1.36,2.14-1.36h.45v-9a3,3,0,0,1-1.15.61,1.34,1.34,0,0,1-1-.41,1.26,1.26,0,0,1-.42-.94,1.57,1.57,0,0,1,.68-1.15l1.15-.84,1.24-1a2.52,2.52,0,0,1,1.48-.55c.61,0,.91.36.91,1.1s0,1.94-.1,3.41-.1,3.55-.1,6.28v2.46h.67a1.35,1.35,0,0,1,1,.38,1.21,1.21,0,0,1,.4.93,1.23,1.23,0,0,1-.4.94A1.38,1.38,0,0,1,107.48,245.67Z"/><path class="cls-4" d="M121.44,240.15a9.5,9.5,0,0,1-1.13.32,4.67,4.67,0,0,1-.92.1,6,6,0,0,1-3.58-1.09,4.45,4.45,0,0,1-1.87-3.84,5.2,5.2,0,0,1,1.91-4.37A6.67,6.67,0,0,1,120,230a5,5,0,0,1,3.64,1.58,5.43,5.43,0,0,1,1.69,4,12.41,12.41,0,0,1-1,4.93,8.68,8.68,0,0,1-2.95,3.92,16.11,16.11,0,0,1-2.45,1.32,8.11,8.11,0,0,1-2.71.86,1.3,1.3,0,0,1-1-.43,1.32,1.32,0,0,1-.36-.92,1.34,1.34,0,0,1,1-1.24l1.67-.54a8.19,8.19,0,0,0,2.34-1.3A7,7,0,0,0,121.44,240.15Zm-1.7-7.69a2.67,2.67,0,0,0-3,3,2.27,2.27,0,0,0,.88,1.9,3.34,3.34,0,0,0,2.08.61,3.07,3.07,0,0,0,1.21-.32,9.83,9.83,0,0,0,1.58-.94,8.1,8.1,0,0,0,.1-1.12,3.18,3.18,0,0,0-1-2.12A2.63,2.63,0,0,0,119.74,232.46Z"/><path class="cls-4" d="M135.9,233.1c-.76,0-2.17,0-4.24-.09-.52,0-1.29,0-2.31-.07s-1.36-.51-1.36-1.31a1.23,1.23,0,0,1,.41-.94,1.41,1.41,0,0,1,1-.37c.85,0,2.14,0,3.85.07s3,.08,3.85.08H139a2.12,2.12,0,0,1,1,.21.84.84,0,0,1,.52.79,2.31,2.31,0,0,1-.61,1.33l-1,1.14a17.31,17.31,0,0,0-2.39,3.52c-.23.44-.84,1.71-1.82,3.82q-.19.42-.87,2.28a10.91,10.91,0,0,1-1,2.2,1.33,1.33,0,0,1-1.13.58,1.49,1.49,0,0,1-1-.38,1.19,1.19,0,0,1-.44-.94,7.65,7.65,0,0,1,.68-2q1.11-2.56,2.19-5.13A21.59,21.59,0,0,1,135.9,233.1Z"/><path class="cls-4" d="M148.19,246.06a5.12,5.12,0,0,1-4.88-2.91,12,12,0,0,1-1.12-5.57,8.92,8.92,0,0,1,1.48-5.11,5.54,5.54,0,0,1,4.84-2.63,5.16,5.16,0,0,1,4.52,2.35,8.31,8.31,0,0,1,1.35,4.79q0,4.54-1.54,6.81A5.24,5.24,0,0,1,148.19,246.06Zm.31-13.58a3,3,0,0,0-2.65,1.64,6.22,6.22,0,0,0-.87,3.31,12,12,0,0,0,.47,3.83,2.78,2.78,0,0,0,2.74,2.17,2.7,2.7,0,0,0,2.51-1.53,9.82,9.82,0,0,0,.83-4.56,7,7,0,0,0-.76-3.65A2.51,2.51,0,0,0,148.5,232.48Z"/><path class="cls-4" d="M182.61,245.67h-4.05c-1.28,0-1.92-.4-1.92-1.21s.72-1.36,2.15-1.36h.45v-9a3.09,3.09,0,0,1-1.15.61,1.37,1.37,0,0,1-1-.41,1.26,1.26,0,0,1-.42-.94,1.6,1.6,0,0,1,.68-1.15l1.15-.84,1.25-1a2.49,2.49,0,0,1,1.47-.55c.61,0,.92.36.92,1.1s0,1.94-.1,3.41-.11,3.55-.11,6.28v2.46h.68a1.37,1.37,0,0,1,1,.38,1.21,1.21,0,0,1,.4.93,1.23,1.23,0,0,1-.4.94A1.4,1.4,0,0,1,182.61,245.67Z"/><path class="cls-4" d="M196.57,240.15a10.18,10.18,0,0,1-1.14.32,4.6,4.6,0,0,1-.92.1,6,6,0,0,1-3.57-1.09,4.45,4.45,0,0,1-1.88-3.84,5.18,5.18,0,0,1,1.92-4.37,6.64,6.64,0,0,1,4.18-1.24,5.07,5.07,0,0,1,3.65,1.58,5.43,5.43,0,0,1,1.69,4,12.77,12.77,0,0,1-1,4.93,8.68,8.68,0,0,1-2.95,3.92,16.31,16.31,0,0,1-2.46,1.32,8,8,0,0,1-2.7.86,1.36,1.36,0,0,1-1.37-1.35,1.35,1.35,0,0,1,1-1.24l1.67-.54a8,8,0,0,0,2.33-1.3A7,7,0,0,0,196.57,240.15Zm-1.7-7.69a2.68,2.68,0,0,0-3,3,2.28,2.28,0,0,0,.89,1.9,3.34,3.34,0,0,0,2.08.61,3,3,0,0,0,1.2-.32,9.41,9.41,0,0,0,1.58-.94,8.42,8.42,0,0,0,.11-1.12,3.23,3.23,0,0,0-1-2.12A2.63,2.63,0,0,0,194.87,232.46Z"/><path class="cls-4" d="M209.06,246.21a6.56,6.56,0,0,1-3.7-1,3.76,3.76,0,0,1-1.71-3.27,4.62,4.62,0,0,1,2-4.31,3.61,3.61,0,0,1-1.47-2.94,4.23,4.23,0,0,1,1.52-3.33,5.3,5.3,0,0,1,3.51-1.28,4.7,4.7,0,0,1,3.65,1.29,4.47,4.47,0,0,1,1,3.12,3.53,3.53,0,0,1-.4,1.78,3.27,3.27,0,0,1-1.19,1.09,4.56,4.56,0,0,1,1.78,1.61,5.12,5.12,0,0,1,.62,2.67,4,4,0,0,1-1.7,3.42A6.58,6.58,0,0,1,209.06,246.21ZM209,238.8a6.59,6.59,0,0,0-1.93,1.13,2.5,2.5,0,0,0-.64,1.95,1.65,1.65,0,0,0,.95,1.48,3.47,3.47,0,0,0,1.68.39,2.86,2.86,0,0,0,2.2-.67,2.53,2.53,0,0,0,.47-1.69,2.06,2.06,0,0,0-.83-1.7A5.92,5.92,0,0,0,209,238.8Zm.15-6.16c-1.48,0-2.22.69-2.2,2.09,0,.7.64,1.21,1.92,1.54a6.88,6.88,0,0,0,1.47-.54,1.33,1.33,0,0,0,.73-1.19,2,2,0,0,0-.49-1.56A2.25,2.25,0,0,0,209.15,232.64Z"/><path class="cls-4" d="M223.32,246.06a5.12,5.12,0,0,1-4.89-2.91,12.15,12.15,0,0,1-1.12-5.57,9,9,0,0,1,1.48-5.11,5.54,5.54,0,0,1,4.84-2.63,5.15,5.15,0,0,1,4.52,2.35,8.24,8.24,0,0,1,1.36,4.79q0,4.54-1.55,6.81A5.23,5.23,0,0,1,223.32,246.06Zm.3-13.58a3,3,0,0,0-2.64,1.64,6.13,6.13,0,0,0-.88,3.31,12.24,12.24,0,0,0,.47,3.83,2.79,2.79,0,0,0,2.75,2.17,2.68,2.68,0,0,0,2.5-1.53,9.68,9.68,0,0,0,.84-4.56,7.07,7.07,0,0,0-.76-3.65A2.52,2.52,0,0,0,223.62,232.48Z"/><path class="cls-4" d="M259.05,245.67h-4c-1.28,0-1.92-.4-1.92-1.21s.71-1.36,2.14-1.36h.45v-9a3,3,0,0,1-1.15.61,1.34,1.34,0,0,1-1-.41,1.26,1.26,0,0,1-.42-.94,1.6,1.6,0,0,1,.68-1.15l1.15-.84,1.24-1a2.52,2.52,0,0,1,1.48-.55c.61,0,.91.36.91,1.1s0,1.94-.1,3.41-.1,3.55-.1,6.28v2.46h.67a1.33,1.33,0,0,1,1,.38,1.22,1.22,0,0,1,.41.93,1.24,1.24,0,0,1-.41.94A1.37,1.37,0,0,1,259.05,245.67Z"/><path class="cls-4" d="M273,240.15a9.5,9.5,0,0,1-1.13.32,4.6,4.6,0,0,1-.92.1,6,6,0,0,1-3.58-1.09,4.47,4.47,0,0,1-1.87-3.84,5.18,5.18,0,0,1,1.92-4.37,6.62,6.62,0,0,1,4.18-1.24,5,5,0,0,1,3.64,1.58,5.4,5.4,0,0,1,1.69,4,12.57,12.57,0,0,1-1,4.93,8.7,8.7,0,0,1-3,3.92,16.11,16.11,0,0,1-2.45,1.32,8.11,8.11,0,0,1-2.71.86,1.27,1.27,0,0,1-1-.43,1.28,1.28,0,0,1-.37-.92,1.34,1.34,0,0,1,1-1.24l1.66-.54a8.05,8.05,0,0,0,2.34-1.3A6.84,6.84,0,0,0,273,240.15Zm-1.7-7.69a2.67,2.67,0,0,0-3,3,2.28,2.28,0,0,0,.89,1.9,3.29,3.29,0,0,0,2.07.61,3.07,3.07,0,0,0,1.21-.32,9.83,9.83,0,0,0,1.58-.94,8.1,8.1,0,0,0,.1-1.12,3.21,3.21,0,0,0-1-2.12A2.65,2.65,0,0,0,271.31,232.46Z"/><path class="cls-4" d="M287.3,240.15a9.5,9.5,0,0,1-1.13.32,4.69,4.69,0,0,1-.93.1,6,6,0,0,1-3.57-1.09,4.45,4.45,0,0,1-1.87-3.84,5.2,5.2,0,0,1,1.91-4.37A6.65,6.65,0,0,1,285.9,230a5.06,5.06,0,0,1,3.64,1.58,5.43,5.43,0,0,1,1.69,4,12.41,12.41,0,0,1-1,4.93,8.68,8.68,0,0,1-2.95,3.92,16.11,16.11,0,0,1-2.45,1.32,8.11,8.11,0,0,1-2.71.86,1.3,1.3,0,0,1-1-.43,1.32,1.32,0,0,1-.36-.92,1.34,1.34,0,0,1,1-1.24l1.67-.54a8.19,8.19,0,0,0,2.34-1.3A7.19,7.19,0,0,0,287.3,240.15Zm-1.7-7.69a2.67,2.67,0,0,0-3,3,2.27,2.27,0,0,0,.88,1.9,3.34,3.34,0,0,0,2.08.61,3.07,3.07,0,0,0,1.21-.32,9.83,9.83,0,0,0,1.58-.94,8.1,8.1,0,0,0,.1-1.12,3.23,3.23,0,0,0-1-2.12A2.63,2.63,0,0,0,285.6,232.46Z"/><path class="cls-4" d="M299.77,246.06a5.12,5.12,0,0,1-4.89-2.91,12,12,0,0,1-1.12-5.57,8.92,8.92,0,0,1,1.48-5.11,5.54,5.54,0,0,1,4.84-2.63,5.16,5.16,0,0,1,4.52,2.35A8.31,8.31,0,0,1,306,237q0,4.54-1.54,6.81A5.23,5.23,0,0,1,299.77,246.06Zm.3-13.58a3,3,0,0,0-2.65,1.64,6.22,6.22,0,0,0-.87,3.31,12.24,12.24,0,0,0,.47,3.83,2.79,2.79,0,0,0,2.75,2.17,2.69,2.69,0,0,0,2.5-1.53,9.7,9.7,0,0,0,.83-4.56,7.08,7.08,0,0,0-.75-3.65A2.54,2.54,0,0,0,300.07,232.48Z"/><g id="CTA_Frame_New_影像-2" data-name="CTA Frame New 影像"><path class="cls-2" d="M77.36,147.88c0-6.87.2-13.77.25-20.64,0-4.18,0-8.35,0-12.52,0-2.47,2.78-4.49,6.6-4.56,4.79-.06,9.59,0,14.38.07q22.76.18,45.5.35a42.65,42.65,0,0,1,5.38.51c2,.26,4.45,2.6,4.64,4,1.77,12.33-.14,24.69.3,36-.39,11.3-.39,21.6-.39,31.9,0,2.38-1.62,3.82-5.09,4.5a16.49,16.49,0,0,1-3.52.35c-8.76-.19-17.52-.45-26.27-.45q-13.8,0-27.59,0c-2.5,0-5-.07-7.49-.19-4.4-.2-7.53-2.51-7.53-5.43,0-1.6-.1-3.21-.1-4.81C76.48,176.93,77.33,151,77.36,147.88Z"/></g><g id="CTA_Frame_New_影像-3" data-name="CTA Frame New 影像"><path class="cls-5" d="M82.58,148c0-5.92.17-11.88.21-17.8,0-3.6,0-7.2,0-10.8,0-2.13,2.41-3.88,5.7-3.93,4.14-.06,8.27,0,12.41,0q19.62.17,39.24.31a36.85,36.85,0,0,1,4.64.44c1.73.22,3.84,2.24,4,3.43,1.52,10.64-.13,21.3.25,31.07-.34,9.75-.34,18.63-.34,27.52,0,2.05-1.39,3.3-4.38,3.88a14.06,14.06,0,0,1-3,.3c-7.56-.17-15.11-.39-22.66-.39q-11.89,0-23.8,0-3.23,0-6.46-.17c-3.79-.17-6.49-2.16-6.49-4.68,0-1.38-.09-2.77-.09-4.15C81.82,173.09,82.56,150.76,82.58,148Z"/></g><g id="CTA_Frame_New_影像-4" data-name="CTA Frame New 影像"><path class="cls-6" d="M86.71,148.23c0-5,.12-10,.15-15,0-3,0-6.07,0-9.11,0-1.8,1.79-3.27,4.23-3.32,3.07,0,6.14,0,9.21,0q14.55.14,29.12.26a24.14,24.14,0,0,1,3.44.37,4.4,4.4,0,0,1,3,2.9c1.12,9-.1,18,.18,26.21-.25,8.22-.25,15.72-.25,23.22,0,1.73-1,2.78-3.25,3.27a9.56,9.56,0,0,1-2.26.26c-5.6-.14-11.21-.33-16.81-.33q-8.83,0-17.66,0c-1.6,0-3.2-.05-4.79-.14-2.82-.14-4.82-1.83-4.82-4,0-1.17-.07-2.34-.07-3.51C86.14,169.37,86.69,150.54,86.71,148.23Z"/></g><g id="CTA_Frame_New_影像-5" data-name="CTA Frame New 影像"><path class="cls-7" d="M224.15,54.32c28.63,0,57.4.1,86,.13q26.08,0,52.18,0c10.31,0,18.74,1.48,19,3.5,2.11,3.15,2.61,9.35,2.48,11.89-.54,8,.77,12.68-2.33,20,0,1-1.2,1.91-2.14,2.85S366.65,94.89,360.9,95c-51.38.94-102.9-.07-150.14.16-47.1-.21-90-.21-133-.21-9.9,0-15.93-.85-18.74-2.69-.93-.62-1.6-1.22-1.47-1.87a100.69,100.69,0,0,1-.72-13.5,48.36,48.36,0,0,1,1.66-14.35c0-1.32,1.34-3.32,1.87-4.64.8-2.33,10.44-4,22.62-4,6.69,0,13.38,0,20.07,0C103.05,53.85,210.94,54.3,224.15,54.32Z"/></g><g id="CTA_Frame_New_影像-6" data-name="CTA Frame New 影像"><path class="cls-2" d="M218.35,187.33c-6.86-.05-13.77-.19-20.64-.24-4.17-.05-8.34,0-12.51-.05-2.48,0-4.5-2.79-4.56-6.6-.07-4.8,0-9.59.06-14.39q.2-22.74.36-45.49a40.87,40.87,0,0,1,.51-5.38c.26-2,2.6-4.45,4-4.65,12.33-1.76,24.68.15,36-.29,11.3.39,21.61.39,31.91.39,2.38,0,3.82,1.61,4.49,5.09a15.87,15.87,0,0,1,.36,3.52c-.2,8.76-.45,17.51-.45,26.27q0,13.78,0,27.59c0,2.49-.07,5-.2,7.48-.19,4.41-2.5,7.54-5.42,7.54-1.61,0-3.21.09-4.82.09C247.4,188.21,221.52,187.36,218.35,187.33Z"/></g><g id="CTA_Frame_New_影像-7" data-name="CTA Frame New 影像"><path class="cls-5" d="M218.51,182.11c-5.93,0-11.88-.16-17.81-.21-3.59,0-7.19,0-10.79,0-2.14,0-3.88-2.4-3.94-5.69-.05-4.14,0-8.28.06-12.41q.16-19.62.3-39.24a34.9,34.9,0,0,1,.45-4.64c.22-1.73,2.24-3.84,3.43-4,10.63-1.52,21.29.12,31.07-.25,9.74.33,18.63.33,27.52.33,2,0,3.29,1.4,3.87,4.39a13.35,13.35,0,0,1,.31,3c-.17,7.55-.39,15.1-.39,22.66q0,11.9,0,23.8,0,3.22-.16,6.45c-.17,3.8-2.16,6.5-4.68,6.5-1.39,0-2.77.08-4.16.08C243.56,182.87,221.24,182.14,218.51,182.11Z"/></g><g id="CTA_Frame_New_影像-8" data-name="CTA Frame New 影像"><path class="cls-2" d="M361.57,150.11c0,6.87-.19,13.77-.24,20.64-.05,4.17,0,8.34-.05,12.51,0,2.48-2.79,4.5-6.6,4.56-4.8.07-9.59,0-14.38-.06q-22.76-.19-45.5-.35a40.86,40.86,0,0,1-5.38-.52c-2-.25-4.45-2.6-4.65-4-1.76-12.32.15-24.68-.29-36,.39-11.3.39-21.61.39-31.91,0-2.37,1.62-3.82,5.09-4.49a15.87,15.87,0,0,1,3.52-.36c8.76.2,17.51.45,26.27.45q13.8,0,27.59,0c2.49,0,5,.06,7.48.19,4.41.19,7.54,2.5,7.54,5.42,0,1.61.1,3.21.1,4.82C362.46,121.06,361.6,146.94,361.57,150.11Z"/></g><g id="CTA_Frame_New_影像-9" data-name="CTA Frame New 影像"><path class="cls-5" d="M356.36,150c-.05,5.93-.17,11.88-.21,17.81,0,3.6,0,7.2,0,10.79,0,2.14-2.4,3.88-5.69,3.94-4.14,0-8.27,0-12.41-.06q-19.62-.17-39.24-.3a35.07,35.07,0,0,1-4.64-.45c-1.73-.22-3.84-2.24-4-3.43-1.52-10.63.13-21.29-.25-31.07.33-9.74.33-18.63.33-27.52,0-2,1.4-3.29,4.39-3.87a14.07,14.07,0,0,1,3-.31c7.55.17,15.11.39,22.66.39q11.89,0,23.8,0,3.23,0,6.45.16c3.8.17,6.5,2.16,6.5,4.68,0,1.39.09,2.77.09,4.16C357.12,124.9,356.38,147.22,356.36,150Z"/></g><path class="cls-2" d="M345.43,211.91c-4.36.32-8.69.74-13,.72-46.83-.21-85.05,0-129.92-1.07-4.64-.12-9.23,0-13.81,0H174.21c-24.12,0-48.17,0-72.68,0H90.6c-2.1,0-3.82-1.27-3.82-2.81h0c0-1.55,1.72-2.81,3.82-2.81,29.39.4,59.51,1,89.27.81q6.38,0,12.73-.14c47.34.84,92.3.07,142.08.5,4.88,0,11.73-1.17,14.5,1.91C349.18,210.59,347.49,211.88,345.43,211.91Z"/><g id="Color_New_影像" data-name="Color New 影像"><path class="cls-8" d="M357.35,342.41c-.09,2.7-1.31,4.19-3.64,4.66-11.19,2.24-21.54,6.81-32.26,10.44a38.26,38.26,0,0,0-7.18,3.08c-1.87,1-3.54.37-4.2-1.77-.46-1.59-.74-3.26-1.12-4.94s-.65-3.45-2.33-4.57a2.11,2.11,0,0,1-.37-3,9.86,9.86,0,0,0,.93-2.33c.75-2.42,2.43-3,4.39-1.4a2.27,2.27,0,0,0,2.51.38c9.61-3.92,19.68-6.62,29.56-9.79,2.24-.75,4.38-1.68,6.72-2.33,3.45-1,5.12.28,5.4,3.82a35,35,0,0,0,.56,4.29C356.7,340.17,357.07,341.48,357.35,342.41Z"/></g><g id="CTA_Frame_New_影像-10" data-name="CTA Frame New 影像"><path class="cls-9" d="M356,326.93a223.75,223.75,0,0,1-4.47-31.43c-.65-9,.89-18.05.09-27.13-.41-4.65-.9-6.79-1.3-9.32a37,37,0,0,0-4.48-13.15c-3.36-5.69-8.21-9-14.92-9a2.68,2.68,0,0,1-2.42-1c-3.45-4.1-7.65-5.87-12.87-3.92-.93.38-1.4-.18-2-.65a11.89,11.89,0,0,0-5.87-2.8,3.07,3.07,0,0,1-2.71-2.51c-2.8-7.65-5.5-15.3-10.44-21.92a20.92,20.92,0,0,0-6.06-5.4c-5.78-3.27-11.94.18-12,6.8a42.19,42.19,0,0,0,1.58,10.73c2.15,8.3,4,16.78,6,25.17a1.66,1.66,0,0,1-.46,2.05,36.09,36.09,0,0,0-10.54,15,3.6,3.6,0,0,1-.58,1.06,27.27,27.27,0,0,0-1.23,3.45,28.7,28.7,0,0,0-.72,3.94,34.64,34.64,0,0,0,.38,8.8c1.68,10.53,6.44,19.76,11.47,28.9,5.41,9.89,11.94,19.12,16,29.75,3.17,8.11,5.78,16.41,8.21,24.8,1,3.64,2.7,4.2,6.06,2.61,4.1-1.86,8.11-3.73,12.21-5.59a2.85,2.85,0,0,1,3.73.93,29.42,29.42,0,0,0,7.09,6.53c1.4.84,2.8,1.3,4.29.18s1.4-2.51.93-4.1c-.46-1.77-.74-3.54-1.21-5.22-.47-1.86.09-2.52,2.05-2.7a49.26,49.26,0,0,0,17-4.85c1.77-.94,2.15-1.87,1.59-3.64A163.83,163.83,0,0,1,356,326.93Zm-33.75,24.43c-3.17,1.49-6.44,3-9.61,4.57-1.11.56-1.49,0-1.77-.93-.65-2.43-1.3-4.85-2.05-7.28-.28-1,0-1.49,1-1.77,3.07-.74,6.15-1.68,9.23-2.52.56-.18,1.77-.84,1.77.38.09,2.42.47,4.75,1.87,6.52C323,351.08,322.66,351.17,322.29,351.36Zm30-7.46a60.87,60.87,0,0,1-11.56,2.7c-1.21.1-1.68-.37-1.49-1.58.37-2.24.65-4.57.93-6.81.19-1,.84-1.3,1.68-1.58,2.8-.84,5.5-1.68,8.3-2.52.84-.28,1.68-.56,2,.74.56,2.52,1.12,5,1.49,7C354,343.53,353.15,343.71,352.31,343.9Z"/></g><path class="cls-10" d="M336.74,326.56c-1.12.56-1.77.65-2.24-.75s-1.67-2.14-2.7-3c-1.4-1.12-3.36-.38-4.57,1.77a44.27,44.27,0,0,0-4.1,10.63,3.16,3.16,0,0,1-2.61,2.61c-3.64,1-7.09,2.24-10.73,3.17-1.39.37-3,.93-3.73-1.31-4.19-13.42-11.74-25.17-18.74-37.11A97.2,97.2,0,0,1,277,279.19c-3-10.26.56-23.13,8.21-30.12.18,3.64,1,6.71.37,10-.37,1.49.09,2.79,1.77,3.07s2.52-.74,3-2.14a11.47,11.47,0,0,0,.18-2.52c.37-9.7-1.58-19-3.82-28.35-1.68-6.9-3.17-13.8-4.57-20.79-.37-1.68-.93-3.92,1.12-5,2.33-1.21,3.82.75,5.31,2.06a25.63,25.63,0,0,1,5.88,8.48c5,10.91,8.86,22.1,10.26,34.13a24.72,24.72,0,0,0,.46,2.52c.37,1.58,1.21,2.61,3,2.42s2.42-1.58,2.14-3.17c-.65-4.66-1.49-9.23-2.24-13.8a2.38,2.38,0,0,1,0-2.24,16.19,16.19,0,0,1,6.81,6.9,19.34,19.34,0,0,1,2.05,5.22c.37,1.59,1.31,2.62,3.08,2.24s2.14-2,1.77-3.63a23.14,23.14,0,0,0-2.52-6.34c-.28-.47-.93-1-.46-1.59s1.11-.28,1.67-.19c2.8.56,4.29,2.61,5.41,5,.84,1.86,1.4,4,2.05,6,.66,1.78,1.68,3.17,3.73,2.52s1.5-2.52,1.22-4.1c-.19-1.21-1.59-2.61-.47-3.45s2.52.28,3.73.93c5,2.61,6.81,7.46,8.11,12.4,2.33,9.05,2.61,18.28,2,27.51-.93,13.52.75,26.86,3.45,40.1,1,5.31,1.12,5.31-4.1,6.9a17.58,17.58,0,0,0-2.15.65c-1.4.65-1.77.37-1.86-1.31C341.4,326.56,339.35,325.44,336.74,326.56Z"/><g id="Color_New_影像-2" data-name="Color New 影像"><path class="cls-6" d="M357.35,342.41c-.09,2.7-1.31,4.19-3.64,4.66-11.19,2.24-21.54,6.81-32.26,10.44a38.26,38.26,0,0,0-7.18,3.08c-1.87,1-3.54.37-4.2-1.77-.46-1.59-.74-3.26-1.12-4.94s-.65-3.45-2.33-4.57a2.11,2.11,0,0,1-.37-3,9.86,9.86,0,0,0,.93-2.33c.75-2.42,2.43-3,4.39-1.4a2.27,2.27,0,0,0,2.51.38c9.61-3.92,19.68-6.62,29.56-9.79,2.24-.75,4.38-1.68,6.72-2.33,3.45-1,5.12.28,5.4,3.82a35,35,0,0,0,.56,4.29C356.7,340.17,357.07,341.48,357.35,342.41Z"/></g><g id="CTA_Frame_New_影像-11" data-name="CTA Frame New 影像"><path class="cls-2" d="M356,326.93a223.75,223.75,0,0,1-4.47-31.43c-.65-9,.89-18.05.09-27.13-.41-4.65-.9-6.79-1.3-9.32a37,37,0,0,0-4.48-13.15c-3.36-5.69-8.21-9-14.92-9a2.68,2.68,0,0,1-2.42-1c-3.45-4.1-7.65-5.87-12.87-3.92-.93.38-1.4-.18-2-.65a11.89,11.89,0,0,0-5.87-2.8,3.07,3.07,0,0,1-2.71-2.51c-2.8-7.65-5.5-15.3-10.44-21.92a20.92,20.92,0,0,0-6.06-5.4c-5.78-3.27-11.94.18-12,6.8a42.19,42.19,0,0,0,1.58,10.73c2.15,8.3,4,16.78,6,25.17a1.66,1.66,0,0,1-.46,2.05,36.09,36.09,0,0,0-10.54,15,3.6,3.6,0,0,1-.58,1.06,27.27,27.27,0,0,0-1.23,3.45,28.7,28.7,0,0,0-.72,3.94,34.64,34.64,0,0,0,.38,8.8c1.68,10.53,6.44,19.76,11.47,28.9,5.41,9.89,11.94,19.12,16,29.75,3.17,8.11,5.78,16.41,8.21,24.8,1,3.64,2.7,4.2,6.06,2.61,4.1-1.86,8.11-3.73,12.21-5.59a2.85,2.85,0,0,1,3.73.93,29.42,29.42,0,0,0,7.09,6.53c1.4.84,2.8,1.3,4.29.18s1.4-2.51.93-4.1c-.46-1.77-.74-3.54-1.21-5.22-.47-1.86.09-2.52,2.05-2.7a49.26,49.26,0,0,0,17-4.85c1.77-.94,2.15-1.87,1.59-3.64A163.83,163.83,0,0,1,356,326.93Zm-33.75,24.43c-3.17,1.49-6.44,3-9.61,4.57-1.11.56-1.49,0-1.77-.93-.65-2.43-1.3-4.85-2.05-7.28-.28-1,0-1.49,1-1.77,3.07-.74,6.15-1.68,9.23-2.52.56-.18,1.77-.84,1.77.38.09,2.42.47,4.75,1.87,6.52C323,351.08,322.66,351.17,322.29,351.36Zm30-7.46a60.87,60.87,0,0,1-11.56,2.7c-1.21.1-1.68-.37-1.49-1.58.37-2.24.65-4.57.93-6.81.19-1,.84-1.3,1.68-1.58,2.8-.84,5.5-1.68,8.3-2.52.84-.28,1.68-.56,2,.74.56,2.52,1.12,5,1.49,7C354,343.53,353.15,343.71,352.31,343.9Z"/></g><path class="cls-11" d="M336.74,326.56c-1.12.56-1.77.65-2.24-.75s-1.67-2.14-2.7-3c-1.4-1.12-3.36-.38-4.57,1.77a44.27,44.27,0,0,0-4.1,10.63,3.16,3.16,0,0,1-2.61,2.61c-3.64,1-7.09,2.24-10.73,3.17-1.39.37-3,.93-3.73-1.31-4.19-13.42-11.74-25.17-18.74-37.11A97.2,97.2,0,0,1,277,279.19c-3-10.26.56-23.13,8.21-30.12.18,3.64,1,6.71.37,10-.37,1.49.09,2.79,1.77,3.07s2.52-.74,3-2.14a11.47,11.47,0,0,0,.18-2.52c.37-9.7-1.58-19-3.82-28.35-1.68-6.9-3.17-13.8-4.57-20.79-.37-1.68-.93-3.92,1.12-5,2.33-1.21,3.82.75,5.31,2.06a25.63,25.63,0,0,1,5.88,8.48c5,10.91,8.86,22.1,10.26,34.13a24.72,24.72,0,0,0,.46,2.52c.37,1.58,1.21,2.61,3,2.42s2.42-1.58,2.14-3.17c-.65-4.66-1.49-9.23-2.24-13.8a2.38,2.38,0,0,1,0-2.24,16.19,16.19,0,0,1,6.81,6.9,19.34,19.34,0,0,1,2.05,5.22c.37,1.59,1.31,2.62,3.08,2.24s2.14-2,1.77-3.63a23.14,23.14,0,0,0-2.52-6.34c-.28-.47-.93-1-.46-1.59s1.11-.28,1.67-.19c2.8.56,4.29,2.61,5.41,5,.84,1.86,1.4,4,2.05,6,.66,1.78,1.68,3.17,3.73,2.52s1.5-2.52,1.22-4.1c-.19-1.21-1.59-2.61-.47-3.45s2.52.28,3.73.93c5,2.61,6.81,7.46,8.11,12.4,2.33,9.05,2.61,18.28,2,27.51-.93,13.52.75,26.86,3.45,40.1,1,5.31,1.12,5.31-4.1,6.9a17.58,17.58,0,0,0-2.15.65c-1.4.65-1.77.37-1.86-1.31C341.4,326.56,339.35,325.44,336.74,326.56Z"/><path class="cls-2" d="M146.15,209.45a12.5,12.5,0,0,1-12.68,12.61c-6.26,0-12.53-6.26-12.53-12.53S127.21,197,133.47,197c3.76,0,6.27,1.25,9,3.63A12.49,12.49,0,0,1,146.15,209.45Z"/><path class="cls-7" d="M141.61,209.48a8,8,0,0,1-8.11,8.07c-4,0-8-4-8-8s4-8,8-8a8.1,8.1,0,0,1,5.76,2.33A8,8,0,0,1,141.61,209.48Z"/><g id="CTA_Frame_New_影像-12" data-name="CTA Frame New 影像"><path class="cls-6" d="M240.17,149.85c0,5-.13,10-.16,15,0,3,0,6.07,0,9.11,0,1.8-1.78,3.27-4.23,3.31-3.06,0-6.13,0-9.2,0q-14.56-.15-29.12-.26a24,24,0,0,1-3.44-.37,4.4,4.4,0,0,1-3-2.9c-1.13-9,.09-18-.19-26.21.25-8.23.25-15.72.25-23.22,0-1.73,1-2.78,3.26-3.27a8.93,8.93,0,0,1,2.25-.26c5.61.14,11.21.33,16.82.33q8.82,0,17.66,0c1.59,0,3.19,0,4.79.14,2.82.14,4.82,1.82,4.82,3.95,0,1.17.06,2.33.06,3.5C240.73,128.71,240.19,147.55,240.17,149.85Z"/></g><g id="CTA_Frame_New_影像-13" data-name="CTA Frame New 影像"><path class="cls-6" d="M294.47,148.23c0-5,.12-10,.15-15,0-3,0-6.07,0-9.11,0-1.8,1.78-3.27,4.22-3.32,3.07,0,6.14,0,9.21,0q14.55.14,29.12.26a24.14,24.14,0,0,1,3.44.37,4.4,4.4,0,0,1,3,2.9c1.12,9-.1,18,.18,26.21-.25,8.22-.25,15.72-.25,23.22,0,1.73-1,2.78-3.25,3.27a9.44,9.44,0,0,1-2.26.26c-5.6-.14-11.21-.33-16.81-.33q-8.83,0-17.66,0c-1.6,0-3.19-.05-4.79-.14-2.82-.14-4.82-1.83-4.82-4,0-1.17-.07-2.34-.07-3.51C293.9,169.37,294.45,150.54,294.47,148.23Z"/></g><path class="cls-2" d="M314.54,88.71H283q-49-.36-98.92,0H166.65a12.38,12.38,0,0,1-12.36-12.37V75a12.38,12.38,0,0,1,12.36-12.37h8.2c3.65.08,7.31.16,11,.21,32.58-.38,66.58-.38,99.4-.21h29.32A12.39,12.39,0,0,1,326.91,75v1.33A12.39,12.39,0,0,1,314.54,88.71Z"/><path class="cls-2" d="M142.56,73A12.5,12.5,0,0,1,129.88,85.6c-6.26,0-12.53-6.27-12.53-12.53s6.27-12.53,12.53-12.53c3.76,0,6.27,1.25,9,3.63A12.47,12.47,0,0,1,142.56,73Z"/><path class="cls-11" d="M138,73a8,8,0,0,1-8.11,8.07c-4,0-8-4-8-8s4-8,8-8a8.09,8.09,0,0,1,5.76,2.32A8,8,0,0,1,138,73Z"/><rect class="cls-2" x="140.08" y="75.57" width="4.96" height="17.41" rx="2.48" transform="translate(-14.53 136.69) rotate(-49.04)"/><path class="cls-2" d="M141.73,155.68c-.07-1.44-.28-2.89-1.92-3.29a17.54,17.54,0,0,0-4-.08h-7.46c.15-3.16.38-6.33.7-9.48a2,2,0,0,0-2-2l-18.56-.59a2,2,0,0,0-2,2l-.81,11.08c-3.84.12-7.67.33-11.49.66a2,2,0,0,0-2,2l0,16.29c0,2.58,4,2.58,4,0V157.84c3.78-.3,7.57-.51,11.36-.59a2.05,2.05,0,0,0,2-2c.27-3.65.53-7.3.8-10.95l14.53.46a181.48,181.48,0,0,0-.42,27.09c.15,2.56,4.15,2.58,4,0-.31-5.17-.39-10.36-.25-15.54h9.58c.15,2.24.18,4.51.29,6.74.14,2.86.29,5.71.43,8.57a2,2,0,0,0,4,0Q142.13,163.66,141.73,155.68Z"/><path class="cls-2" d="M117.17,150.57a2.08,2.08,0,0,0-1.41-.58,2,2,0,0,0-1.42.58,2.08,2.08,0,0,0-.58,1.42v3.59a2,2,0,0,0,2,2,2,2,0,0,0,1.41-.59,2.07,2.07,0,0,0,.59-1.41V152A2.09,2.09,0,0,0,117.17,150.57Z"/><path class="cls-2" d="M120.76,161.14a1.43,1.43,0,0,0-.64-.42,1.58,1.58,0,0,0-.77-.17,2,2,0,0,0-2,2v2.54a2.06,2.06,0,0,0,.58,1.41,2.2,2.2,0,0,0,1.42.59,2,2,0,0,0,2-2v-2.54A2.07,2.07,0,0,0,120.76,161.14Z"/><path class="cls-2" d="M113.79,161.35a2,2,0,0,0-1.42-.59,2,2,0,0,0-2,2v3.6a2.07,2.07,0,0,0,.59,1.41,2,2,0,0,0,1.41.59,2,2,0,0,0,2-2v-3.6A2.06,2.06,0,0,0,113.79,161.35Z"/><path class="cls-2" d="M103.65,162.19a2.26,2.26,0,0,0-1.42-.58,2,2,0,0,0-1.41.58,2.11,2.11,0,0,0-.59,1.42v2.53a2.08,2.08,0,0,0,.59,1.42,1.5,1.5,0,0,0,.64.41,1.47,1.47,0,0,0,.77.17,2,2,0,0,0,1.42-.58,2.07,2.07,0,0,0,.58-1.42v-2.53A2.1,2.1,0,0,0,103.65,162.19Z"/><path class="cls-2" d="M248.7,154.15c-1.43-1.46-2.8-3-4.09-4.57s-2.5-3.75-5-3.41a22.35,22.35,0,0,0-5.67,2,31.86,31.86,0,0,1-5.38,1.91l-.24.08-.14-.13a32.51,32.51,0,0,0-9.95-5.95,7.58,7.58,0,0,0-6.48.66c-2,1.17-3.75,2.69-5.58,4.05l-13.3,9.81a2.06,2.06,0,0,0-.72,2.73,2,2,0,0,0,2.74.72L205.8,154l5.36-4c1.51-1.11,3.13-2.76,5.15-2.34a16.41,16.41,0,0,1,4.87,2.23,33.51,33.51,0,0,1,4.31,3.05,72.42,72.42,0,0,1,7.65,7.62c2.72,3.07,5.33,6.23,8.11,9.25,1.75,1.89,4.58-.94,2.83-2.83-4.16-4.51-7.94-9.41-12.32-13.72,2.57-.89,5-2.18,7.61-3,.12,0,.49-.09.64-.16.09.13.27.34.29.37q.88,1.16,1.8,2.28,1.8,2.16,3.77,4.17C247.68,158.82,250.51,156,248.7,154.15Z"/><path class="cls-2" d="M228.38,163l-.46-.31-.18-.13c-.28-.23-.56-.46-.82-.7s-.53-.52-.77-.79l-.37-.42-.13-.16a20,20,0,0,0-1.41-1.78,5.57,5.57,0,0,0-2.19-1.42,1.79,1.79,0,0,0-2.19,1.23,1.77,1.77,0,0,0,1,2.07l0,0a2.41,2.41,0,0,1,.42.22l.1.06c.21.2.41.39.6.61,0,.06.1.13.16.19a3.15,3.15,0,0,0,.22.29c.26.36.53.71.8,1.05a14.72,14.72,0,0,0,3.44,3.05,1.77,1.77,0,1,0,1.8-3Z"/><path class="cls-2" d="M218.91,163.56a1.82,1.82,0,0,0-.46-.78l-.13-.15a2.43,2.43,0,0,1-.26-.44,2,2,0,0,0-.76-.88,1.29,1.29,0,0,0-.66-.21,1.43,1.43,0,0,0-.71,0l-.42.18a1.68,1.68,0,0,0-.64.63l-.18.42a1.87,1.87,0,0,0,0,.94,5.39,5.39,0,0,0,.5,1.06c.15.22.32.43.48.63a3.57,3.57,0,0,0,.27.28,1.44,1.44,0,0,0,.57.37,1.33,1.33,0,0,0,.68.15,1.34,1.34,0,0,0,.69-.15,1.44,1.44,0,0,0,.57-.37l.28-.36A1.71,1.71,0,0,0,219,164Z"/><path class="cls-2" d="M351.74,155.37a20.91,20.91,0,0,0-1.48-3.48,14.33,14.33,0,0,0-.93-1.37c-.14-.19-.26-.37-.38-.57a1.59,1.59,0,0,1-.08-.18,2,2,0,0,1-.07-.23,3.43,3.43,0,0,0,0-.45c0-.21,0-.43.05-.64,0-.06,0-.31.05-.37.05-.27.09-.55.14-.83a7.77,7.77,0,0,0,0-3.46,3.1,3.1,0,0,0-3.15-2.42,19.63,19.63,0,0,0-3.89.49c-1.41.3-3,.67-3.45,2.28a4.4,4.4,0,0,0,.26,2.21l.48,1.76.09.35-.1.13c-.19.21-.4.42-.61.61a3.84,3.84,0,0,1-.45.36c-.25.17-.49.32-.74.47l-.55.28a9.39,9.39,0,0,1-1.63.47,1.7,1.7,0,0,0-.32.1,26.79,26.79,0,0,0-6.92-4.8,34.82,34.82,0,0,0,3.76-7.37,2,2,0,0,0-.92-2.26,10.92,10.92,0,0,0-7.42-.73c-2.6.52-5.05,1.71-7.73,1.73a2,2,0,0,0-2,2,10.2,10.2,0,0,0,1.56,5.91,13.9,13.9,0,0,1-1.56,1,6,6,0,0,1-2,.31,12.59,12.59,0,0,0-8,3.71c-5,4.95-5.36,12.27-4.76,18.87a2.06,2.06,0,0,0,2,2,2,2,0,0,0,2-2c-.47-5.22-.65-11.34,3.08-15.52a8.72,8.72,0,0,1,5.47-3,11,11,0,0,0,4.23-.87,8.7,8.7,0,0,1,2.86-1.07,3.52,3.52,0,0,1,2-.05c1.33.12,2.67.2,4,.21a23,23,0,0,1,14.77,21.95c-.08,2.58,3.92,2.57,4,0a26.27,26.27,0,0,0-5.45-16.68,10.69,10.69,0,0,0,3.68-2.3,17.2,17.2,0,0,0,3.78.73,1.58,1.58,0,0,0,.55-.09,15.54,15.54,0,0,1,1.17,1.81,17.33,17.33,0,0,1,.83,2.08,2,2,0,0,0,2.46,1.4A2,2,0,0,0,351.74,155.37ZM324,144.9c-1.41,0-2.83-.12-4.24-.27a6.35,6.35,0,0,1-1.9-3.37,46.75,46.75,0,0,0,5-1.28,11.15,11.15,0,0,1,4.32-.57A28.13,28.13,0,0,1,324,144.9Zm19.8.67c.37-.07.65-.1,1-.14l.4,0v.4c0,.14,0,.29-.05.43s0,.21,0,.27c-.06.35-.12.69-.17,1s-.08.69-.1,1a15,15,0,0,1-1.48-.31,4.61,4.61,0,0,0-.07-.5c-.13-.58-.31-1.15-.47-1.72l-.07-.26Z"/><path class="cls-2" d="M330.73,163.75c-.18-1.21-.37-2.41-.56-3.62a2,2,0,0,0-.91-1.19,2.09,2.09,0,0,0-1.55-.21,2,2,0,0,0-1.19.92l-.2.48a1.91,1.91,0,0,0,0,1.06l.56,3.62a2,2,0,0,0,.92,1.2,2.06,2.06,0,0,0,1.54.2,2,2,0,0,0,1.19-.92c.07-.16.14-.32.2-.48A1.91,1.91,0,0,0,330.73,163.75Z"/><path class="cls-2" d="M322.3,157.45a2.11,2.11,0,0,0-.59-1.42,2,2,0,0,0-3.41,1.42,18.14,18.14,0,0,1-.11,3.21,1.37,1.37,0,0,0,0,.75,1.53,1.53,0,0,0,.23.75,2.09,2.09,0,0,0,1.2.92,2,2,0,0,0,1.54-.21,1.93,1.93,0,0,0,.92-1.19A20,20,0,0,0,322.3,157.45Z"/><path class="cls-11" d="M166.65,66.91a8.1,8.1,0,0,0-8.1,8.1v1.33a8.11,8.11,0,0,0,8.1,8.11h17.47q49.92,0,98.92,0h31.5a8.11,8.11,0,0,0,8.1-8.11V75a8.1,8.1,0,0,0-8.1-8.1H286c-33.63.56-58.28-.06-101.91,0-3.56,0-6.69,0-9.27,0Z"/><rect class="cls-2" x="168.34" y="72.56" width="51.19" height="5.94" rx="2.97"/></svg>