<svg id="圖層_1" data-name="圖層 1" xmlns="http://www.w3.org/2000/svg" viewBox="0 0 800 400"><defs><style>.cls-1{opacity:0.5;}.cls-2{fill:#b5b5b6;}.cls-3{font-size:28.4px;fill:#666;font-family:PingFangTC-Semibold-B5pc-H, PingFang TC;font-weight:700;}</style></defs><title>UI</title><g class="cls-1"><path class="cls-2" d="M801.21,190.83c-27,17.41-56,34.7-88.11,40.25-15.26,2.64-31,1.78-45.62-3.62-14.27-5.28-26.27-15-37.47-25.06-11-9.91-21.77-20.18-34.08-28.55a173,173,0,0,0-37.26-19,179,179,0,0,0-83.54-9.95,155.39,155.39,0,0,0-41.08,10.79c-13.9,5.86-23.88,14.73-33.29,26.38-19,23.52-39.9,44-67,58-51.09,26.42-120.35,24.56-161.88-19-10.9-11.45-19.12-25.15-30.19-36.45a86,86,0,0,0-33.07-20.91c-24.47-8.63-52.91-6.94-76,5a83.93,83.93,0,0,0-15.69,10.73c-5.15,4.4,2.31,11.81,7.44,7.44,19.69-16.81,48-21.67,72.81-15.64a76,76,0,0,1,34,17.79c11.62,10.83,19.92,24.55,30.42,36.37,39.16,44.08,106.45,52.48,159.55,31.78a194.72,194.72,0,0,0,72-49.65c9.85-10.7,17.77-23.38,28.86-32.89,10.6-9.09,25.61-13.56,39-16.65,27.91-6.45,57.5-4.68,84.83,3.61a165.74,165.74,0,0,1,38.56,17.25c12.5,7.66,23.26,17.35,34.06,27.19s22.11,19.84,35.25,26.66A92.29,92.29,0,0,0,697.41,243c31.74-.42,61.85-14.72,88.69-30.48,6.9-4.06,13.69-8.31,20.42-12.65,5.67-3.65.4-12.76-5.31-9.08Z"/><circle class="cls-2" cx="631.53" cy="208.91" r="19.74"/><circle class="cls-2" cx="314.36" cy="254.69" r="19.74"/><text class="cls-3" transform="translate(504.75 254.52)">Hualien</text><text class="cls-3" transform="translate(231.39 212.61)">Yunlin</text></g></svg>