<?xml version="1.0" encoding="utf-8"?>
<!-- Generator: Adobe Illustrator 22.0.1, SVG Export Plug-In . SVG Version: 6.00 Build 0)  -->
<svg version="1.1" id="圖層_1" xmlns="http://www.w3.org/2000/svg" xmlns:xlink="http://www.w3.org/1999/xlink" x="0px" y="0px"
	 viewBox="0 0 719.4 264.1" style="enable-background:new 0 0 719.4 264.1;" xml:space="preserve">
<style type="text/css">
	.st0{fill:#B7CBCE;enable-background:new    ;}
	.st1{fill:#FFFFFF;enable-background:new    ;}
	.st2{fill:#FFFFFF;}
	.st3{filter:url(#Adobe_OpacityMaskFilter);}
	.st4{opacity:0.75;fill:url(#SVGID_2_);}
	.st5{mask:url(#SVGID_1_);}
	.st6{clip-path:url(#SVGID_4_);}
	.st7{clip-path:url(#SVGID_6_);}
	.st8{fill:#222222;stroke:#FFFFFF;stroke-width:20;stroke-miterlimit:10;}
	.st9{fill:#222222;}
	.st10{fill:#606060;}
	.st11{fill:#E9D08D;}
	.st12{fill:#B7CBCE;}
	.st13{filter:url(#Adobe_OpacityMaskFilter_1_);}
	.st14{opacity:0.75;fill:url(#SVGID_8_);}
	.st15{mask:url(#SVGID_7_);}
	.st16{clip-path:url(#SVGID_10_);}
	.st17{clip-path:url(#SVGID_12_);}
	.st18{filter:url(#Adobe_OpacityMaskFilter_2_);}
	.st19{opacity:0.75;fill:url(#SVGID_14_);}
	.st20{mask:url(#SVGID_13_);}
	.st21{clip-path:url(#SVGID_16_);}
	.st22{clip-path:url(#SVGID_18_);}
	.st23{fill:#399EBB;}
	.st24{filter:url(#Adobe_OpacityMaskFilter_3_);}
	.st25{opacity:0.75;fill:url(#SVGID_20_);}
	.st26{mask:url(#SVGID_19_);}
	.st27{clip-path:url(#SVGID_22_);}
	.st28{clip-path:url(#SVGID_24_);}
	.st29{filter:url(#Adobe_OpacityMaskFilter_4_);}
	.st30{opacity:0.75;fill:url(#SVGID_26_);}
	.st31{mask:url(#SVGID_25_);}
	.st32{clip-path:url(#SVGID_28_);}
	.st33{clip-path:url(#SVGID_30_);}
	.st34{filter:url(#Adobe_OpacityMaskFilter_5_);}
	.st35{opacity:0.75;fill:url(#SVGID_32_);}
	.st36{mask:url(#SVGID_31_);}
	.st37{clip-path:url(#SVGID_34_);}
	.st38{clip-path:url(#SVGID_36_);}
	.st39{filter:url(#Adobe_OpacityMaskFilter_6_);}
	.st40{opacity:0.75;fill:url(#SVGID_38_);}
	.st41{mask:url(#SVGID_37_);}
	.st42{clip-path:url(#SVGID_40_);}
	.st43{clip-path:url(#SVGID_42_);}
	.st44{stroke:#FFFFFF;stroke-width:17.7494;stroke-linecap:round;stroke-linejoin:round;stroke-miterlimit:10;}
	.st45{fill:#B6CACD;}
	.st46{fill:#CDDBDD;}
	.st47{fill:#0A4704;}
	.st48{fill:#81A053;}
	.st49{opacity:0.9765;}
	.st50{fill:#222222;stroke:#FFFFFF;stroke-width:20;stroke-linecap:round;stroke-linejoin:round;stroke-miterlimit:10;}
	.st51{stroke:#FFFFFF;stroke-width:20;stroke-miterlimit:10;}
	.st52{fill:#FFFFFF;stroke:#000000;stroke-width:5;stroke-miterlimit:10;}
	.st53{fill:none;stroke:#000000;stroke-width:6;stroke-linecap:round;stroke-miterlimit:10;stroke-dasharray:20.2316,20.2316;}
	.st54{fill:#F1E2B9;}
</style>
<g>
	<path class="st51" d="M596.8,119.7c3.4-4,5.4-6.7,7.8-8.9c2.2-2.1,5.5-4.3,8.1-1.9c1.4,1.3,1.5,5.2,0.8,7.5
		c-1.4,4.7-3.8,9.2-5.8,13.7c-0.5,1.2-1,2.5-1.7,4.4c3.5,4.1,7,8.2,10.9,12.6c4.6-5.1,0.6-10.5,3.1-15.9c1.8,1.1,3.8,1.9,5.1,3.3
		c5.7,6.4,4.8,19.3-1.7,25.1c-4,3.6-9,3.9-14.6,0.7c-2.1-1.2-4.2-2.8-5.9-4.5c-1.7-1.8-3-4-5.2-6.9c-4.2,5-7.4,8.7-10.5,12.4
		c-2.5,3.1-5.4,4.8-9.4,3.2c-3.3-1.4-4.8-5.3-3-10.1c2.2-5.9,5.5-11.4,8-17.3c0.9-2.1,1.7-4.9,0.9-6.8c-5-12.2-10.5-24.3-16.4-37.6
		c-15.3,2.6-31.5,5.4-47.9,8.2c0,7.6,0,14.1,0,21.3c2.8-1.4,4.8-2.7,7.1-3.5c4.7-1.7,9.3-3.7,14.1-4.5c6.9-1.2,12.7,2.7,15,9
		c3,8.1-0.4,22.1-7,27.6c-1.5,1.2-4.6,2.4-5.7,1.7c-1.6-1.1-2.9-3.9-2.9-6c0-3.8,1.1-7.6,1.6-11.5c0.2-2.1,0-4.3,0-7.4
		c-2.8,0.4-5.3,0.5-7.5,1.2c-3.7,1.2-7.2,3-10.9,4.1c-6,1.7-8.9,5.5-10.2,11.5c-1.2,5.3-3.7,10.4-5.7,15.5c-0.7,1.8-1.5,3.8-2.9,5
		c-1.3,1.1-3.6,2.1-5,1.6c-1.4-0.4-3.1-2.6-3.2-4.1c-0.2-3.5,0-7.3,0.9-10.7c3.6-13.6,7.5-27.2,11.1-40.8c0.6-2.3,1.4-5.2,0.6-7.2
		c-2.5-6,0.4-9.9,4.8-12.7c5.8-3.6,12-6.9,18.4-9.3c9.8-3.6,20-6.3,30.5-9.6c0.6-11.7-5.2-23.3-1.8-35.8c8.6,2.7,8.3,9.7,10.3,15
		c2,5.4,3.5,11,5.5,17.3c4-0.5,7.7-0.9,11.5-1.4c6.6-0.7,10.7,0.8,12.2,4.6c1.6,4.1-0.8,8.6-6.6,12c-1.7,1-3.5,1.7-5.2,2.5
		c-1.5,0.7-3,1.4-5.2,2.4C586.1,99.4,590.6,108.9,596.8,119.7z"/>
	<path class="st51" d="M210.7,148c-7.4,1.7-12.7,2.9-18.1,4c-2.7,0.6-5.5,1-8.2,1.1c-3,0.1-6.5,0.7-7.6-3.2
		c-1.1-3.8,1.8-5.4,4.6-6.8c3.2-1.6,6.5-3.1,9.8-4.4c6.2-2.4,12.4-4.6,19.6-7.3c-1.4-5.7-2.9-11.2-4.2-16.7c-1-4.3-2.4-8.6-2.6-13
		c-0.3-6.4,2.6-7.8,9.1-4.8c3.4-5,2.7-10.5,1.8-15.8c-0.6-3.4-3.2-5.2-6.7-4.9c-3.3,0.3-6.5,1.2-9.8,1.5c-1.5,0.1-3.7-0.1-4.4-1
		c-0.7-1-0.7-3.5,0.1-4.5c4.8-6.2,11.8-8,19.2-7.8c6.7,0.2,11.5,3.7,14.1,9.9c4.1,10-2,26.4-12.3,31.8c0.5,3.5,1.1,7.3,1.6,11.1
		c0.5,3.8,0.9,7.6,1.4,12.1c8.9-1.8,17.2-3.5,25.5-5c3-0.5,6.2-1.1,9.1-0.6c2.1,0.4,4.7,2.1,5.6,3.9c1.4,2.8-0.5,5.4-3.3,6.7
		c-5.1,2.2-10.2,4.2-15.4,6.1c-2.8,1.1-5.8,1.8-9.1,2.9c0,3.1-0.1,6,0,9c0.8,16.7,0,33.3-3.9,49.5c-1.2,4.9-4.1,9.6-7,13.9
		c-2,3.1-5.7,4.6-9.6,3.4c-4.2-1.3-6.1-4.7-6.5-8.8c-0.3-2.6-0.1-5.3-0.1-9c2.9,1.4,4.7,2.2,7.6,3.5c2.1-14.4,4.1-28.1,6.2-41.9
		c-0.5-0.2-1-0.4-1.5-0.6c-1.2,1.7-2.5,3.3-3.7,5c-9.2,12.1-18.4,24.2-27.7,36.3c-1,1.3-2.1,3-3.5,3.4c-1.9,0.6-4.7,0.9-6-0.1
		c-1.3-1-1.8-3.9-1.4-5.8c0.5-2.3,2-4.5,3.5-6.5c9.2-12.8,18.5-25.6,27.8-38.4C206.1,154.1,207.7,151.9,210.7,148z"/>
	<path class="st51" d="M379.1,111c-1.5,7-3,13.9-4.3,20.9c-0.5,3-1.3,5.7-4.7,5.9c-3.9,0.3-5.3-2.6-5.6-5.9
		c-1.1-12.4,1.1-24.3,6.4-35.6c1.3-2.8,3-5.6,6.8-5c4.1,0.7,3.8,4.1,3.9,7.2c0,1.1,0.1,2.2,0.2,4.1c5.2-3.8,9.8-7.7,14.9-10.8
		c4.9-3,10.4-5.1,16.5-8.1c0.5-6.8,1-14.2,1.7-21.6c0.3-3.3,0.7-6.6,1.5-9.8c0.9-3.6,3.3-5.9,7.2-5.5c3.9,0.4,5.9,3.2,6,6.8
		c0.1,4.4-0.3,8.8-0.9,13.2c-0.6,4.3-1.6,8.5-2.6,13.6c4.5-0.5,8-1.2,11.5-1.2c6.3,0,12.8-0.2,19,0.9c8,1.5,12.5,7,13,14.1
		c0.7,8.7-4,18.4-10.5,21.1c-1.8,0.7-4.5,0.6-6.1-0.2c-0.9-0.5-0.6-3.4-0.6-5.2c0-0.8,0.5-1.6,0.8-2.3c2.9-8.8,1.7-10.9-7.8-11.2
		c-19.2-0.7-37.4,3.5-54.7,11.6c-3.1,1.5-6.5,2.4-9.7,3.6C380.2,111.4,379.7,111.2,379.1,111z"/>
	<path class="st51" d="M409.7,195.5c-6.8,8.5-13.2,16.5-19.6,24.5c-1,1.3-2.1,2.6-3.2,3.8c-2.2,2.3-4.3,6.5-7.9,3.5
		c-3.3-2.7-0.4-6.2,1.5-8.8c6.8-9.8,13.8-19.4,20.7-29.1c0.9-1.3,1.8-2.6,3.6-5.2c-3.7,0.5-6.1,0.8-8.4,1.1
		c-3.6,0.6-7.1,1.6-10.6,1.8c-1.9,0.1-4.8-0.7-5.6-2.1c-1.6-2.7,0.8-4.6,3.1-5.8c1.9-1.1,4-1.9,6-2.8c16.4-7,33.7-10.7,51.1-14.3
		c0.8-0.2,1.8-0.5,2.4-0.2c1.8,0.9,4.1,1.8,4.9,3.3c0.5,1-0.9,3.6-2.2,4.7c-1.6,1.4-3.9,2.1-5.9,2.9c-5.9,2.3-11.9,4.4-18.1,6.7
		c-0.8,8.7,3.5,14.4,10.7,16.9c8,2.7,16.6,3.8,25,5.5c3,0.6,6.2,0.1,9,1.1c2,0.7,4.2,2.8,5,4.8c1.1,2.8-0.6,5.4-3.3,6.9
		c-1.9,1-4.1,1.7-6.2,2.3C442.3,221.5,422.8,213.7,409.7,195.5z"/>
	<path class="st51" d="M114.2,157.3c0.5-8.1,1-16,1.5-24.6c-2.9,0.4-5,0.6-7.1,1c-3.3,0.6-6.5,1.8-9.7,1.9c-2.1,0-4.3-1.5-6.4-2.4
		c1.1-2,1.7-4.8,3.3-6c4.3-2.9,9-5.7,13.9-7.3c6.6-2.1,9.9-6,10.7-12.9c0.6-5.2,2-10.3,3.6-15.3c0.6-1.7,2.7-3,4.2-4.4
		c1.4,1.5,3.5,2.9,3.9,4.6c0.7,3.2,0.5,6.6,0.4,9.9c-0.1,3-0.5,6-0.9,10c7.7-1.3,14.6-2.5,21.6-3.7c1.4-0.2,2.8-1.2,4-0.9
		c1.9,0.5,4.7,1.3,5.3,2.7c0.6,1.4-0.4,4.3-1.7,5.7c-1.6,1.7-4.1,2.7-6.4,3.6c-7.5,2.9-15,5.7-22.6,8.3c-3,1-4.6,2.4-5.2,5.6
		c-1.2,6.8-2.9,13.5-4.6,21.7c6.6-1.9,12.3-3.4,18-5.1c3.4-1,6.8-2.5,10.3-3.3c1.6-0.3,4.8,0.3,5,1.1c0.5,1.8,0,4.3-1,6
		c-1.1,1.8-3.1,3.2-5,4.3c-14.8,8.9-30.6,15.4-47.5,19.1c-0.8,0.2-1.8,0.7-2.4,0.5c-2.2-0.8-4.9-1.4-6.1-3c-0.7-1,0.4-4.3,1.7-5.6
		c2.3-2.3,5.2-4.1,8.1-5.7C106.7,160.9,110.5,159.2,114.2,157.3z"/>
	<path class="st51" d="M277.3,94.3c-2.1-7.5-0.1-12.8,1.9-17.9c1.9-5.2,4.4-10.2,6.9-15.1c1.6-3,3.9-5.8,7.9-4.5
		c4.3,1.4,3.5,5,2.7,8.3c-0.1,0.5,0.1,1.1,0.1,2.3c4.3-1,8.4-2.2,12.6-2.8c3.2-0.5,6.7-0.7,9.8-0.1c8.5,1.6,13,8,11.1,16.4
		c-1.3,5.6-3.9,10.9-6.3,16.1c-1.4,3-3.5,5.6-5.6,9c2.4,4.1,5.1,8.2,7.3,12.5c1.5,2.9,2.8,6.1,3.3,9.3c0.3,1.5-1.1,4.1-2.4,4.6
		c-1.2,0.5-3.8-0.4-4.9-1.6c-3.4-3.6-6.4-7.6-9.6-11.4c-0.7-0.8-1.6-1.4-3-2.6c-2.8,2.8-5.4,5.5-8.2,8.1c-1.8,1.7-3.6,3.7-5.8,4.5
		c-1.7,0.7-4.5,0.3-6-0.7c-1-0.7-1-3.6-0.5-5.3c0.6-2,2.1-3.9,3.3-5.7c2.6-3.9,5.3-7.7,8.2-11.8c-1.2-2.7-2.8-5-3.3-7.6
		c-0.4-2.2-0.2-5.1,0.9-6.9c1.6-2.5,4.4-1.6,6.7-0.3c1.2,0.7,2.3,1.3,4.4,2.6c3.1-5.6,5.9-10.7,9.2-16.8c-9.3-2.6-16.3,0.7-23.7,2.6
		C286.7,81.7,285.2,91.1,277.3,94.3z"/>
	<path class="st51" d="M287,172.4c-4.2,1.2-8.3,2.6-12.6,3.3c-1.8,0.3-4.8-0.4-5.7-1.7c-1.8-2.6,0.3-4.8,2.7-5.9
		c5.2-2.5,10.4-5.3,15.9-7.1c5.3-1.6,8.8-4.2,10-9.7c0.3-1.6,1-3.3,2.1-4.5c1-1.1,2.8-2.2,4-2c1.2,0.2,2.5,2,2.9,3.3
		c0.6,1.8,0.4,3.8,0.6,6.6c2.7,0.1,5.3,0.2,7.9,0.4c15,1.1,22,12.1,16.8,26.3c-3,8.2-8.7,14.1-16.3,18.1c-6,3.1-9.1,1.1-10.8-5.9
		c9.7-0.2,18.6-11.1,16.5-20.8c-0.4-2-2.7-4.7-4.5-5.1c-3.9-0.8-8.1-0.2-12.3-0.2c-1.1,3.1-2.1,5.7-2.9,8.3
		c-5.5,16.6-14.8,30.9-25.5,44.4c-1,1.3-2.2,2.9-3.6,3.3c-1.9,0.5-4.7,0.8-6.1-0.2c-1.3-1-2-3.9-1.8-5.7c0.3-2.4,1.8-4.6,3-6.8
		c4.8-8.4,9.7-16.8,14.5-25.2c2.2-3.8,4.1-7.8,6.1-11.7C287.6,173.4,287.3,172.9,287,172.4z"/>
	<path class="st51" d="M57.5,153.5c-0.6,13.8-0.9,27.6-1.9,41.3c-0.5,7.4-2.9,10-6.6,9.7c-3.6-0.3-5.7-3.4-6.6-10.2
		c-0.6-5.2-1.4-10.5-1-15.7c1.2-19.3,2.8-38.5,4.4-57.7c0.3-3.5,1.6-7,2.8-10.3c0.4-1,2.2-2.3,3.1-2.1c1.3,0.3,3.1,1.7,3.3,2.9
		c0.8,4,1.2,8.2,1.3,12.3c0.2,9.9,0.1,19.9,0.1,29.8C56.7,153.5,57.1,153.5,57.5,153.5z"/>
	<path class="st51" d="M53.8,79.3c4.3,0,6.5,2.6,5.5,5.7c-0.7,2.3-2,4.6-3.4,6.6c-6.5,9.6-13.2,19.1-19.6,28.8
		c-2.6,3.9-4.1,8.4-6.7,12.3c-1,1.5-3.4,2.1-5.1,3.1c-0.9-1.6-2.4-3.1-2.6-4.7c-0.2-1.8,0.4-3.9,1.2-5.6
		c6.8-14.6,14.3-28.7,24.7-41.1C49.7,82.1,52.3,80.5,53.8,79.3z"/>
	<path class="st51" d="M406.2,152.1c-2.5-0.2-5.1,0.1-7.4-0.6c-1.6-0.5-3.9-2.1-3.9-3.4c-0.1-1.8,1.2-4.1,2.6-5.4
		c1.3-1.3,3.4-1.9,5.2-2.4c10.8-2.4,21.6-4.7,32.4-6.9c1.1-0.2,2.2-0.2,3.3-0.2c3-0.1,5.8,0.3,6.5,3.7c0.8,3.4-1.6,4.9-4.4,6.1
		C429.5,147.5,418.3,151.5,406.2,152.1z"/>
	<path class="st51" d="M685.4,160.4c0,9.1-4,13.8-12.9,15.1c-6.9,1-12.4-3.7-11.4-10.5c0.6-4.5,2.4-9.1,4.5-13.2
		c2.6-4.8,7.4-6.5,12-5.3c4.3,1.1,7.3,5,7.8,10.6C685.5,158.2,685.4,159.3,685.4,160.4z"/>
	<path class="st51" d="M138.6,70c0.9,0.3,3.3,0.6,4.8,1.9c1.1,1,1.5,3.3,1.4,5.1c0,0.8-1.7,2-2.9,2.3c-7,2.2-14.1,4.2-21.2,6.2
		c-5,1.4-10,2.9-15.1,3.9c-2.7,0.5-5.8,0-6.8-3.2c-1.1-3.3,1.3-5,3.9-6.4C113.5,73.8,125.1,70.9,138.6,70z"/>
	<path class="st51" d="M669.1,95c2-7.4,4-16.3,6.9-24.8c1.9-5.5,5.4-7.4,8.4-6.4c3,1,4.1,4.5,2.5,10.2c-2.4,9.1-5.2,18-7.9,27
		c-0.4,1.3-1,2.6-1.8,3.7c-2.2,2.8-5.1,2.5-6.3-0.8C670,101.7,669.8,99.2,669.1,95z"/>
	<path class="st51" d="M615.9,59.6c-3.6-2.1-6.8-3.6-9.5-5.8c-1.3-1.1-2.6-4-2.1-5.2c0.6-1.4,3.4-2.9,5.1-2.8
		C615.6,46.3,618.4,52.3,615.9,59.6z"/>
</g>
<g>
	<path d="M596.8,119.7c3.4-4,5.4-6.7,7.8-8.9c2.2-2.1,5.5-4.3,8.1-1.9c1.4,1.3,1.5,5.2,0.8,7.5c-1.4,4.7-3.8,9.2-5.8,13.7
		c-0.5,1.2-1,2.5-1.7,4.4c3.5,4.1,7,8.2,10.9,12.6c4.6-5.1,0.6-10.5,3.1-15.9c1.8,1.1,3.8,1.9,5.1,3.3c5.7,6.4,4.8,19.3-1.7,25.1
		c-4,3.6-9,3.9-14.6,0.7c-2.1-1.2-4.2-2.8-5.9-4.5c-1.7-1.8-3-4-5.2-6.9c-4.2,5-7.4,8.7-10.5,12.4c-2.5,3.1-5.4,4.8-9.4,3.2
		c-3.3-1.4-4.8-5.3-3-10.1c2.2-5.9,5.5-11.4,8-17.3c0.9-2.1,1.7-4.9,0.9-6.8c-5-12.2-10.5-24.3-16.4-37.6
		c-15.3,2.6-31.5,5.4-47.9,8.2c0,7.6,0,14.1,0,21.3c2.8-1.4,4.8-2.7,7.1-3.5c4.7-1.7,9.3-3.7,14.1-4.5c6.9-1.2,12.7,2.7,15,9
		c3,8.1-0.4,22.1-7,27.6c-1.5,1.2-4.6,2.4-5.7,1.7c-1.6-1.1-2.9-3.9-2.9-6c0-3.8,1.1-7.6,1.6-11.5c0.2-2.1,0-4.3,0-7.4
		c-2.8,0.4-5.3,0.5-7.5,1.2c-3.7,1.2-7.2,3-10.9,4.1c-6,1.7-8.9,5.5-10.2,11.5c-1.2,5.3-3.7,10.4-5.7,15.5c-0.7,1.8-1.5,3.8-2.9,5
		c-1.3,1.1-3.6,2.1-5,1.6c-1.4-0.4-3.1-2.6-3.2-4.1c-0.2-3.5,0-7.3,0.9-10.7c3.6-13.6,7.5-27.2,11.1-40.8c0.6-2.3,1.4-5.2,0.6-7.2
		c-2.5-6,0.4-9.9,4.8-12.7c5.8-3.6,12-6.9,18.4-9.3c9.8-3.6,20-6.3,30.5-9.6c0.6-11.7-5.2-23.3-1.8-35.8c8.6,2.7,8.3,9.7,10.3,15
		c2,5.4,3.5,11,5.5,17.3c4-0.5,7.7-0.9,11.5-1.4c6.6-0.7,10.7,0.8,12.2,4.6c1.6,4.1-0.8,8.6-6.6,12c-1.7,1-3.5,1.7-5.2,2.5
		c-1.5,0.7-3,1.4-5.2,2.4C586.1,99.4,590.6,108.9,596.8,119.7z"/>
	<path d="M210.7,148c-7.4,1.7-12.7,2.9-18.1,4c-2.7,0.6-5.5,1-8.2,1.1c-3,0.1-6.5,0.7-7.6-3.2c-1.1-3.8,1.8-5.4,4.6-6.8
		c3.2-1.6,6.5-3.1,9.8-4.4c6.2-2.4,12.4-4.6,19.6-7.3c-1.4-5.7-2.9-11.2-4.2-16.7c-1-4.3-2.4-8.6-2.6-13c-0.3-6.4,2.6-7.8,9.1-4.8
		c3.4-5,2.7-10.5,1.8-15.8c-0.6-3.4-3.2-5.2-6.7-4.9c-3.3,0.3-6.5,1.2-9.8,1.5c-1.5,0.1-3.7-0.1-4.4-1c-0.7-1-0.7-3.5,0.1-4.5
		c4.8-6.2,11.8-8,19.2-7.8c6.7,0.2,11.5,3.7,14.1,9.9c4.1,10-2,26.4-12.3,31.8c0.5,3.5,1.1,7.3,1.6,11.1c0.5,3.8,0.9,7.6,1.4,12.1
		c8.9-1.8,17.2-3.5,25.5-5c3-0.5,6.2-1.1,9.1-0.6c2.1,0.4,4.7,2.1,5.6,3.9c1.4,2.8-0.5,5.4-3.3,6.7c-5.1,2.2-10.2,4.2-15.4,6.1
		c-2.8,1.1-5.8,1.8-9.1,2.9c0,3.1-0.1,6,0,9c0.8,16.7,0,33.3-3.9,49.5c-1.2,4.9-4.1,9.6-7,13.9c-2,3.1-5.7,4.6-9.6,3.4
		c-4.2-1.3-6.1-4.7-6.5-8.8c-0.3-2.6-0.1-5.3-0.1-9c2.9,1.4,4.7,2.2,7.6,3.5c2.1-14.4,4.1-28.1,6.2-41.9c-0.5-0.2-1-0.4-1.5-0.6
		c-1.2,1.7-2.5,3.3-3.7,5c-9.2,12.1-18.4,24.2-27.7,36.3c-1,1.3-2.1,3-3.5,3.4c-1.9,0.6-4.7,0.9-6-0.1c-1.3-1-1.8-3.9-1.4-5.8
		c0.5-2.3,2-4.5,3.5-6.5c9.2-12.8,18.5-25.6,27.8-38.4C206.1,154.1,207.7,151.9,210.7,148z"/>
	<path d="M379.1,111c-1.5,7-3,13.9-4.3,20.9c-0.5,3-1.3,5.7-4.7,5.9c-3.9,0.3-5.3-2.6-5.6-5.9c-1.1-12.4,1.1-24.3,6.4-35.6
		c1.3-2.8,3-5.6,6.8-5c4.1,0.7,3.8,4.1,3.9,7.2c0,1.1,0.1,2.2,0.2,4.1c5.2-3.8,9.8-7.7,14.9-10.8c4.9-3,10.4-5.1,16.5-8.1
		c0.5-6.8,1-14.2,1.7-21.6c0.3-3.3,0.7-6.6,1.5-9.8c0.9-3.6,3.3-5.9,7.2-5.5c3.9,0.4,5.9,3.2,6,6.8c0.1,4.4-0.3,8.8-0.9,13.2
		c-0.6,4.3-1.6,8.5-2.6,13.6c4.5-0.5,8-1.2,11.5-1.2c6.3,0,12.8-0.2,19,0.9c8,1.5,12.5,7,13,14.1c0.7,8.7-4,18.4-10.5,21.1
		c-1.8,0.7-4.5,0.6-6.1-0.2c-0.9-0.5-0.6-3.4-0.6-5.2c0-0.8,0.5-1.6,0.8-2.3c2.9-8.8,1.7-10.9-7.8-11.2
		c-19.2-0.7-37.4,3.5-54.7,11.6c-3.1,1.5-6.5,2.4-9.7,3.6C380.2,111.4,379.7,111.2,379.1,111z"/>
	<path d="M409.7,195.5c-6.8,8.5-13.2,16.5-19.6,24.5c-1,1.3-2.1,2.6-3.2,3.8c-2.2,2.3-4.3,6.5-7.9,3.5c-3.3-2.7-0.4-6.2,1.5-8.8
		c6.8-9.8,13.8-19.4,20.7-29.1c0.9-1.3,1.8-2.6,3.6-5.2c-3.7,0.5-6.1,0.8-8.4,1.1c-3.6,0.6-7.1,1.6-10.6,1.8
		c-1.9,0.1-4.8-0.7-5.6-2.1c-1.6-2.7,0.8-4.6,3.1-5.8c1.9-1.1,4-1.9,6-2.8c16.4-7,33.7-10.7,51.1-14.3c0.8-0.2,1.8-0.5,2.4-0.2
		c1.8,0.9,4.1,1.8,4.9,3.3c0.5,1-0.9,3.6-2.2,4.7c-1.6,1.4-3.9,2.1-5.9,2.9c-5.9,2.3-11.9,4.4-18.1,6.7c-0.8,8.7,3.5,14.4,10.7,16.9
		c8,2.7,16.6,3.8,25,5.5c3,0.6,6.2,0.1,9,1.1c2,0.7,4.2,2.8,5,4.8c1.1,2.8-0.6,5.4-3.3,6.9c-1.9,1-4.1,1.7-6.2,2.3
		C442.3,221.5,422.8,213.7,409.7,195.5z"/>
	<path d="M114.2,157.3c0.5-8.1,1-16,1.5-24.6c-2.9,0.4-5,0.6-7.1,1c-3.3,0.6-6.5,1.8-9.7,1.9c-2.1,0-4.3-1.5-6.4-2.4
		c1.1-2,1.7-4.8,3.3-6c4.3-2.9,9-5.7,13.9-7.3c6.6-2.1,9.9-6,10.7-12.9c0.6-5.2,2-10.3,3.6-15.3c0.6-1.7,2.7-3,4.2-4.4
		c1.4,1.5,3.5,2.9,3.9,4.6c0.7,3.2,0.5,6.6,0.4,9.9c-0.1,3-0.5,6-0.9,10c7.7-1.3,14.6-2.5,21.6-3.7c1.4-0.2,2.8-1.2,4-0.9
		c1.9,0.5,4.7,1.3,5.3,2.7c0.6,1.4-0.4,4.3-1.7,5.7c-1.6,1.7-4.1,2.7-6.4,3.6c-7.5,2.9-15,5.7-22.6,8.3c-3,1-4.6,2.4-5.2,5.6
		c-1.2,6.8-2.9,13.5-4.6,21.7c6.6-1.9,12.3-3.4,18-5.1c3.4-1,6.8-2.5,10.3-3.3c1.6-0.3,4.8,0.3,5,1.1c0.5,1.8,0,4.3-1,6
		c-1.1,1.8-3.1,3.2-5,4.3c-14.8,8.9-30.6,15.4-47.5,19.1c-0.8,0.2-1.8,0.7-2.4,0.5c-2.2-0.8-4.9-1.4-6.1-3c-0.7-1,0.4-4.3,1.7-5.6
		c2.3-2.3,5.2-4.1,8.1-5.7C106.7,160.9,110.5,159.2,114.2,157.3z"/>
	<path d="M277.3,94.3c-2.1-7.5-0.1-12.8,1.9-17.9c1.9-5.2,4.4-10.2,6.9-15.1c1.6-3,3.9-5.8,7.9-4.5c4.3,1.4,3.5,5,2.7,8.3
		c-0.1,0.5,0.1,1.1,0.1,2.3c4.3-1,8.4-2.2,12.6-2.8c3.2-0.5,6.7-0.7,9.8-0.1c8.5,1.6,13,8,11.1,16.4c-1.3,5.6-3.9,10.9-6.3,16.1
		c-1.4,3-3.5,5.6-5.6,9c2.4,4.1,5.1,8.2,7.3,12.5c1.5,2.9,2.8,6.1,3.3,9.3c0.3,1.5-1.1,4.1-2.4,4.6c-1.2,0.5-3.8-0.4-4.9-1.6
		c-3.4-3.6-6.4-7.6-9.6-11.4c-0.7-0.8-1.6-1.4-3-2.6c-2.8,2.8-5.4,5.5-8.2,8.1c-1.8,1.7-3.6,3.7-5.8,4.5c-1.7,0.7-4.5,0.3-6-0.7
		c-1-0.7-1-3.6-0.5-5.3c0.6-2,2.1-3.9,3.3-5.7c2.6-3.9,5.3-7.7,8.2-11.8c-1.2-2.7-2.8-5-3.3-7.6c-0.4-2.2-0.2-5.1,0.9-6.9
		c1.6-2.5,4.4-1.6,6.7-0.3c1.2,0.7,2.3,1.3,4.4,2.6c3.1-5.6,5.9-10.7,9.2-16.8c-9.3-2.6-16.3,0.7-23.7,2.6
		C286.7,81.7,285.2,91.1,277.3,94.3z"/>
	<path d="M287,172.4c-4.2,1.2-8.3,2.6-12.6,3.3c-1.8,0.3-4.8-0.4-5.7-1.7c-1.8-2.6,0.3-4.8,2.7-5.9c5.2-2.5,10.4-5.3,15.9-7.1
		c5.3-1.6,8.8-4.2,10-9.7c0.3-1.6,1-3.3,2.1-4.5c1-1.1,2.8-2.2,4-2c1.2,0.2,2.5,2,2.9,3.3c0.6,1.8,0.4,3.8,0.6,6.6
		c2.7,0.1,5.3,0.2,7.9,0.4c15,1.1,22,12.1,16.8,26.3c-3,8.2-8.7,14.1-16.3,18.1c-6,3.1-9.1,1.1-10.8-5.9
		c9.7-0.2,18.6-11.1,16.5-20.8c-0.4-2-2.7-4.7-4.5-5.1c-3.9-0.8-8.1-0.2-12.3-0.2c-1.1,3.1-2.1,5.7-2.9,8.3
		c-5.5,16.6-14.8,30.9-25.5,44.4c-1,1.3-2.2,2.9-3.6,3.3c-1.9,0.5-4.7,0.8-6.1-0.2c-1.3-1-2-3.9-1.8-5.7c0.3-2.4,1.8-4.6,3-6.8
		c4.8-8.4,9.7-16.8,14.5-25.2c2.2-3.8,4.1-7.8,6.1-11.7C287.6,173.4,287.3,172.9,287,172.4z"/>
	<path d="M57.5,153.5c-0.6,13.8-0.9,27.6-1.9,41.3c-0.5,7.4-2.9,10-6.6,9.7c-3.6-0.3-5.7-3.4-6.6-10.2c-0.6-5.2-1.4-10.5-1-15.7
		c1.2-19.3,2.8-38.5,4.4-57.7c0.3-3.5,1.6-7,2.8-10.3c0.4-1,2.2-2.3,3.1-2.1c1.3,0.3,3.1,1.7,3.3,2.9c0.8,4,1.2,8.2,1.3,12.3
		c0.2,9.9,0.1,19.9,0.1,29.8C56.7,153.5,57.1,153.5,57.5,153.5z"/>
	<path d="M53.8,79.3c4.3,0,6.5,2.6,5.5,5.7c-0.7,2.3-2,4.6-3.4,6.6c-6.5,9.6-13.2,19.1-19.6,28.8c-2.6,3.9-4.1,8.4-6.7,12.3
		c-1,1.5-3.4,2.1-5.1,3.1c-0.9-1.6-2.4-3.1-2.6-4.7c-0.2-1.8,0.4-3.9,1.2-5.6c6.8-14.6,14.3-28.7,24.7-41.1
		C49.7,82.1,52.3,80.5,53.8,79.3z"/>
	<path d="M406.2,152.1c-2.5-0.2-5.1,0.1-7.4-0.6c-1.6-0.5-3.9-2.1-3.9-3.4c-0.1-1.8,1.2-4.1,2.6-5.4c1.3-1.3,3.4-1.9,5.2-2.4
		c10.8-2.4,21.6-4.7,32.4-6.9c1.1-0.2,2.2-0.2,3.3-0.2c3-0.1,5.8,0.3,6.5,3.7c0.8,3.4-1.6,4.9-4.4,6.1
		C429.5,147.5,418.3,151.5,406.2,152.1z"/>
	<path d="M685.4,160.4c0,9.1-4,13.8-12.9,15.1c-6.9,1-12.4-3.7-11.4-10.5c0.6-4.5,2.4-9.1,4.5-13.2c2.6-4.8,7.4-6.5,12-5.3
		c4.3,1.1,7.3,5,7.8,10.6C685.5,158.2,685.4,159.3,685.4,160.4z"/>
	<path d="M138.6,70c0.9,0.3,3.3,0.6,4.8,1.9c1.1,1,1.5,3.3,1.4,5.1c0,0.8-1.7,2-2.9,2.3c-7,2.2-14.1,4.2-21.2,6.2
		c-5,1.4-10,2.9-15.1,3.9c-2.7,0.5-5.8,0-6.8-3.2c-1.1-3.3,1.3-5,3.9-6.4C113.5,73.8,125.1,70.9,138.6,70z"/>
	<path d="M669.1,95c2-7.4,4-16.3,6.9-24.8c1.9-5.5,5.4-7.4,8.4-6.4c3,1,4.1,4.5,2.5,10.2c-2.4,9.1-5.2,18-7.9,27
		c-0.4,1.3-1,2.6-1.8,3.7c-2.2,2.8-5.1,2.5-6.3-0.8C670,101.7,669.8,99.2,669.1,95z"/>
	<path d="M615.9,59.6c-3.6-2.1-6.8-3.6-9.5-5.8c-1.3-1.1-2.6-4-2.1-5.2c0.6-1.4,3.4-2.9,5.1-2.8C615.6,46.3,618.4,52.3,615.9,59.6z"
		/>
</g>
</svg>
