<?xml version="1.0" encoding="utf-8"?>
<!-- Generator: Adobe Illustrator 22.0.1, SVG Export Plug-In . SVG Version: 6.00 Build 0)  -->
<svg version="1.1" id="圖層_1" xmlns="http://www.w3.org/2000/svg" xmlns:xlink="http://www.w3.org/1999/xlink" x="0px" y="0px"
	 viewBox="0 0 800 400" style="enable-background:new 0 0 800 400;" xml:space="preserve">
<style type="text/css">
	.st0{fill:#ADB0AE;}
	.st1{clip-path:url(#SVGID_2_);}
	.st2{fill:#FFFFFF;}
	.st3{fill:#B5B5B6;}
	.st4{fill:#404040;}
	.st5{fill:#888888;}
	.st6{fill:#DCDDDD;}
	.st7{opacity:0.29;fill:#606060;}
	.st8{fill:none;stroke:#AFAFB0;stroke-miterlimit:10;}
	.st9{fill:#EFEFEF;stroke:#AFAFB0;stroke-miterlimit:10;}
	.st10{fill:#AFAFB0;stroke:#AFAFB0;stroke-miterlimit:10;}
	.st11{fill:#FFFFFF;stroke:#D1D1D2;stroke-width:5;stroke-miterlimit:10;}
	.st12{fill:#7AB852;}
	.st13{fill:#35A8BF;}
	.st14{fill:#976B41;}
	.st15{fill:#FFFFFF;stroke:#AFAFB0;stroke-width:0.5;stroke-miterlimit:10;}
	.st16{fill:#606060;}
	.st17{fill:#2364A4;}
	.st18{fill:none;stroke:#E4E4E5;stroke-width:0.7925;stroke-miterlimit:10;}
	.st19{clip-path:url(#SVGID_4_);}
	.st20{clip-path:url(#SVGID_6_);}
	.st21{clip-path:url(#SVGID_8_);}
	.st22{clip-path:url(#SVGID_10_);}
	.st23{fill:#4A4A4A;}
	.st24{clip-path:url(#SVGID_12_);}
	.st25{clip-path:url(#SVGID_14_);}
	.st26{clip-path:url(#SVGID_16_);}
	.st27{clip-path:url(#SVGID_18_);}
	.st28{clip-path:url(#SVGID_20_);}
	.st29{clip-path:url(#SVGID_22_);}
	.st30{opacity:0.39;}
	.st31{fill:#FFFFFF;stroke:#FFFFFF;stroke-width:5.2481;stroke-miterlimit:10;}
	.st32{fill:#FFFFFF;stroke:#FFFFFF;stroke-width:6.5602;stroke-miterlimit:10;}
	.st33{fill:#848B91;}
	.st34{clip-path:url(#SVGID_24_);}
	.st35{clip-path:url(#SVGID_26_);}
	.st36{clip-path:url(#SVGID_28_);}
	.st37{clip-path:url(#SVGID_30_);}
	.st38{clip-path:url(#SVGID_32_);}
	.st39{fill:#84A48C;}
	.st40{fill:#90C0E5;}
	.st41{fill:#C6AC9E;}
	.st42{fill:#E4E1E0;}
	.st43{stroke:#FFFFFF;stroke-width:5;stroke-linecap:round;stroke-linejoin:round;stroke-miterlimit:10;}
	.st44{fill:#B6CACD;}
	.st45{fill:#CDDBDD;}
	.st46{opacity:0.5;}
	.st47{fill:#666666;}
	.st48{font-family:'PingFangTC-Semibold-B5pc-H';}
	.st49{font-size:28.4022px;}
	.st50{fill:#F4F4F4;}
	.st51{fill:#2E313A;}
	.st52{fill:#F3F9F9;}
	.st53{fill:#141F2A;}
	.st54{fill:#17212C;}
	.st55{fill:#18222D;}
	.st56{fill:#E9D08E;}
	.st57{fill:#E3EAEB;}
	.st58{fill:#DAE0E1;}
	.st59{fill:#FEFEFD;}
	.st60{fill:#FEFEFB;}
	.st61{fill:#B7CBCE;enable-background:new    ;}
	.st62{fill:none;stroke:#000000;stroke-miterlimit:10;}
	.st63{fill:#DFDFDF;stroke:#000000;stroke-width:0.5;stroke-miterlimit:10;}
	.st64{stroke:#000000;stroke-width:0.5;stroke-miterlimit:10;}
	.st65{fill:none;stroke:#000000;stroke-width:3.098;stroke-miterlimit:10;}
	.st66{fill:#628E94;enable-background:new    ;}
	.st67{fill:#8CACB1;enable-background:new    ;}
	.st68{opacity:0.24;}
</style>
<g>
	<g class="st46">
		<g>
			<g>
				<path class="st3" d="M114.1,187.6c28.5-12.3,59.6-23.9,91-17.2c29.5,6.3,54.8,24.3,78.6,41.8c24.9,18.4,49.7,38.5,79.1,49.3
					c13.7,5,28.6,7.7,43.2,6.5c14.4-1.2,28.5-5.2,41.8-10.9c26.1-11.2,48.3-29.1,70.3-46.8c21.1-17.1,44.7-35,73-36.5
					c31.8-1.6,60.3,16.6,87.3,30.9c13.9,7.3,28,14.5,42.9,19.4c15,4.9,30.7,7.2,46.5,7.6c33,0.8,65.9-5.5,98.8-2.4
					c25.5,2.4,52.8,10.2,70.7,29.6c5,5.4,8.8,11.6,11.8,18.3c2.7,6.2,11.8,0.8,9.1-5.3c-11.4-25.8-36.3-41.1-62.7-48.1
					c-30.2-8.1-61.3-5.8-92.2-3.8c-16.9,1.1-33.9,2-50.8,0.2c-16.1-1.7-31.9-6.7-46.6-13.4c-28.8-13.2-55.6-32.5-86.6-40.4
					c-29.4-7.5-57.3,0.1-82.2,16.5c-23.7,15.7-44,35.8-68.1,51c-25.2,15.9-55.6,28.2-85.9,22.3c-31.4-6-58-26.2-83.1-44.9
					c-24.4-18.1-49.1-37.2-78.2-47.2c-30.8-10.6-61.9-5.8-91.8,5.5c-7.2,2.7-14.3,5.7-21.4,8.8C102.6,181.2,107.9,190.3,114.1,187.6
					L114.1,187.6z"/>
			</g>
		</g>
		<circle class="st3" cx="272.9" cy="196.1" r="19.7"/>
		<circle class="st3" cx="586.7" cy="168.4" r="19.7"/>
		<g>
			<text transform="matrix(1 0 0 1 182.7714 246.255)" class="st47 st48 st49">Tainan</text>
		</g>
		<g>
			<text transform="matrix(1 0 0 1 511.7621 119.0664)" class="st47 st48 st49">Pingtung</text>
		</g>
	</g>
</g>
</svg>
