<?xml version="1.0" encoding="utf-8"?>
<!-- Generator: Adobe Illustrator 22.1.0, SVG Export Plug-In . SVG Version: 6.00 Build 0)  -->
<svg version="1.1" xmlns="http://www.w3.org/2000/svg" xmlns:xlink="http://www.w3.org/1999/xlink" x="0px" y="0px"
	 viewBox="0 0 1108 812" style="enable-background:new 0 0 1108 812;" xml:space="preserve">
<style type="text/css">
	.st0{fill:#FFFFFF;}
	.st1{fill:#369EBB;}
	#pollutions {
		animation: fade 3s ease-in-out infinite;
	}
	#hand {
		animation: enter 3s ease-in-out infinite;
	}
	@keyframes enter {
	  0% {
	  	transform: translate(-30px, 0) rotateZ(-10deg);
	  }
	  30% {
	  	transform: translate(0px, 0) rotateZ(0deg);
	  }
	  70% {
	  	transform: translate(0px, 0) rotateZ(0deg);
	  }
	  100% {
	  	transform: translate(-30px, 0) rotateZ(-10deg);
	  }
	}

	@keyframes fade {
	  0% {
	  	opacity: 0;
	  }
	  30% {
	  	opacity: 0;
	  }
	  50% {
	  	opacity: 1;
	  }
	  60% {
	  	opacity: 1;
	  }
	  100% {
	    opacity: 0;
	  }
	}
</style>
<g id="pollutions">
	<g transform="translate(117)">
		<path d="M785.5,613.3c-3.7-0.5-7.3-0.8-10.7-1.5c-6.2-1.3-12.1-0.3-17.4,2.6c-5.9,3.2-11.4,7-17.1,10.5c-4.3,2.7-8.6,5.4-12.9,8.1
			c-4,2.4-8.5,3.3-13.1,2.9c-5.9-0.5-11.9-1.1-17.8-2.3c-5.9-1.2-9.8-4.9-10.8-11.2c0-0.1-0.1-0.2-0.1-0.3
			c-0.9-8.6-6.4-12.4-14.4-13.7c-12.4-2.1-23-8.2-33.3-15c-7.1-4.7-7.6-11.1-2.2-17.7c0.5-0.6,1-1.3,1.6-1.9
			c1.1-1.3,0.8-2.4-0.6-3.1c-2.2-0.9-4.4-1.6-6.6-2.5c-4.4-1.8-9-3.5-13.3-5.5c-7.6-3.6-5.3-16.3-0.1-19.9c0.5-0.3,1.6-0.3,2.1,0.1
			c1.7,1.4,3.6,2.9,4.9,4.6c5.7,7.4,13.2,9.2,21.9,7.4c3.4-0.7,6.7-1.7,9.9-2.9c6.7-2.6,13-0.9,19.3,1.5c4.5,1.7,5.8,6,7.8,9.7
			c2,3.9,4,4.7,8.3,4c2.2-0.4,4.6,0,6.9,0.2c3.5,0.2,7,0.5,10.5,0.9c4.3,0.4,8.8,0.3,12.8,1.6c5.4,1.7,10.4,1,15.5-0.2
			c4.4-1,8.4-0.8,12.8,0.5c3.6,1,7.7,0.4,11.5,0.5c3.3,0.2,6.8,0.1,10,0.9c1.9,0.5,3.8,2.2,5.1,3.9s1.8,3.9,2.5,6
			c2.4,7.4,8.3,12.1,16.2,11.5c7.6-0.6,15.1-2.1,22.6-3.2c1.1-0.2,2.1-0.6,3.2-0.7c12.5-0.5,23.3-5.8,34.1-11.4
			c7.5-3.9,14.8-8.1,22.2-12.1c4.7-2.6,9.8-2.5,14.9-2c5.8,0.5,11.6,2,17.3,1.8c5.5-0.2,11.1-1.7,16.4-3.4c1.7-0.5,2.8-3.3,4-5.1
			c2.4-3.6,4.5-7.4,7.2-10.7c1.1-1.3,4.1-2.3,5.3-1.6c1.7,0.9,2.6,3.4,3.5,5.4c0.4,0.8,0.3,2,0.1,3c-1.9,8.6-3.4,17.1-11.9,22.5
			c-6.3,4-12.4,6.8-20,7.5c-13.8,1.2-27.6,3.3-40.6,8.9c-4.9,2.1-9.6,4.7-14.1,7.5c-3.9,2.4-7.7,3.8-12.4,4
			c-11.1,0.5-22.2,1.1-33.1,2.7c-7.4,1.1-14.5,4.1-21.7,6.1C789.7,612.7,787.6,612.9,785.5,613.3z M490.8,478.8c2.4,0,4.9-0.1,7.3,0
			c2.7,0.1,4.3,1.5,5.6,4c1.8,3.5,2.6,6.6,1.6,10.6c-0.8,3.4,1.2,6.1,4,8c1,0.6,1.5,2.3,1.9,3.6c0.6,2.5,0.9,5.2,1.3,7.8
			c0.2,1.1,0.4,2.4,0.1,3.5c-1.7,6.4-13.9,13.7-20.8,8.4c-1-0.8-2.2-1.3-3.3-1.9c-2-1.1-3.9-1-5.9,0c-4.3,2.3-8.7,4.5-13.2,6.4
			c-6.9,2.9-10.9,1.8-14.5-4.5c-3.7-6.3-9.8-7.7-15.9-9.2c-1.7-0.4-3.4-0.5-5.1-0.8c-6.3-1.2-11-4.7-12.8-10.9
			c-0.8-2.9-0.9-6.3,1.9-8.7c5.6-5,11.2-10,18.1-13.3c3.9-1.8,6.2-4.9,7.4-9c1.5-5.3,2.9-10.7,4.2-16c0.8-3.1,2-6,4.7-8.1
			c3.9-3.1,5.4-7.2,5.6-12.1c0.2-5.5,1-11,1.8-16.4c0.2-1.3,0.9-2.7,1.8-3.6c1-0.9,2.5-1.6,3.8-1.7c0.5,0,1.3,1.9,1.6,3
			c1.9,6,3,12.5,5.8,18.1c2.2,4.3,1.7,7.5-0.3,11.3c-4,7.8-3.4,15.9-1,23.9c1.4,4.5,4.3,7.8,9.6,7.7c1.6,0,3.3,0.3,4.9,0.5
			C490.8,479.1,490.8,479,490.8,478.8z M213.7,608c4.1-5.3,8-10.6,12-15.7c2.6-3.3,6.9-4.2,10.5-1.8c2.2,1.5,4.3,3.5,5.6,5.7
			c1.6,2.7,3.3,2.9,6.1,2.3c4.7-1,9.5-1.9,14.2-2c7.5-0.2,13.7,5.9,14.1,13.4c0.2,3,0,6-0.2,9c-0.2,4-0.1,4.6,3.9,5.4
			c5.3,1.2,10.7,2,16.1,3c4.9,0.9,9.5,2.4,13.1,6.1c4.3,4.4,6.5,9.5,6.3,15.7c-0.2,5.6-3.8,10.3-9.3,11.7c-3.6,0.9-7.3,1-10.7-0.7
			c-8.3-4.1-17.1-4.7-25.8-3.3c-12.9,2.1-23.8-2.4-34.1-9c-2.3-1.5-4.1-3.9-6-5.9c-1.5-1.6-1.3-3.3,0.2-4.9c0.8-0.8,1.6-1.5,2.4-2.2
			c5.3-3.7,5.3-9.2,2.2-14.7c-4-6.9-10.9-8.8-17.7-11.2C215.7,608.6,214.8,608.3,213.7,608z M373.5,560.1c-1.1,0-2.2,0-3.3,0
			c-10,0-17.3-4.2-21.5-13.4c-0.2-0.3-0.4-0.6-0.5-1c-2.2-5.5-6.1-8.2-12.1-8.9c-8.5-0.9-14.5-5.4-16.4-14.3c-0.2-0.9-1.1-2-2-2.3
			c-2.8-1.1-5.7-2.3-8.7-2.8c-5.9-1.1-10.1-4.5-13-9.5c-2.5-4.3,0.2-11.9,4.9-13.1c2.3-0.6,5.2,0.8,7.8,1.5c0.9,0.2,1.7,1,2.6,1.5
			c3.8,2.4,7.5,3.2,12,1.2c4.7-2.1,10-1.7,15-0.9c9.8,1.6,19.5,3.2,29.2,5c2.9,0.5,5.8,1.7,8.4,3c3.1,1.5,4,5.6,2.8,9.6
			c-0.9,2.9-1.5,5.9-1.9,9c-0.3,2.8,1,5.1,3.6,6.5c2.1,1.1,4,2.4,6.1,3.6c3.3,1.9,5,4.7,4.8,8.5c0,1,0,2-0.1,3
			c-0.6,9.2-5.5,13.8-14.7,13.9C375.7,560.2,374.6,560.2,373.5,560.1C373.5,560.2,373.5,560.1,373.5,560.1z M97,437.2
			c2.7,0.6,5.4,1.1,8.2,1.7c2.2,0.4,4.4,1,5.1,3.4c0.7,2.4-0.9,3.9-2.2,5.5c-3,3.5-6.2,6.9-9,10.6c-2.3,3.1-1.8,4,1.3,6.1
			c2.3,1.5,4.6,2.9,6.6,4.8c4.2,3.8,4.2,8.3-0.1,11.9c-4.2,3.5-8.7,6.5-13,9.9c-1.9,1.5-3.6,3.2-6,5.5c3.1,1,5.2,1.9,7.5,2.3
			c4.1,0.8,8.2,1.4,12.3,2.1c0.8,0.1,1.8,0.2,2.3,0.7c0.7,0.8,1.6,2.1,1.5,3c-0.1,0.7-1.8,1.8-2.6,1.7c-6.8-1.1-13.7-2-20.3-4
			c-6.3-1.9-7.4-7-2.7-11.7c3.5-3.5,7.7-6.3,11.6-9.5c1.8-1.4,3.6-2.8,5.4-4.2c1.7-1.3,1.6-2.7,0-4c-1.8-1.4-3.7-2.6-5.6-3.9
			c-5.8-3.8-6.9-7.9-3.1-13.8c2.5-3.8,5.7-7.3,8.7-11c-2.5-0.6-5-1.1-7.5-1.9c-3.4-1.1-6.3-2.7-5.4-7.2c-5.7-0.9-11-2.6-15.6-5.9
			c-14-10-16.7-29.6-5.8-43.7c8.8-11.4,21-15.3,35-14.3c7.2,0.5,13.9,2.5,20,6.5c14.6,9.6,16.3,27,3.7,39c-2.3,2.2-5,4.2-7.8,5.9
			c-2.7,1.7-5.6,2.9-8.5,4.4c-0.2,3.9-1,5-4.9,6.2c-3,0.9-6,1.7-9,2.6C97,436.5,97,436.8,97,437.2z M106.4,389.8
			c-10.4-4.1-25.7,3.1-29.7,13.5c-3.8,9.8,0.3,17.8,10.6,20.4c12.7,3.2,31.1-3.5,38.8-14.1c5.5-7.5,5.3-15.5-1-22.3
			c-2.5-2.7-5.8-5-9.1-6.7c-6.7-3.4-13.9-3.9-21.3-3.2c-13,1.1-23.6,10.1-26.4,22.1c-1.3,5.4-1,10.6,1.6,15.6c-1.2-6.9,0-13.3,4-19
			c7.2-10,17.3-13.9,29.4-13.2c4.5,0.3,8.7,1.7,12.2,4.7c3.3,2.9,5,6.6,4.2,10.9c-0.8,4-1.6,8.2-6.6,9.2c-0.5,0.1-1,0.5-1.5,0.7
			c-7,3-14.1,3.5-21.1,0.4c-4.9-2.1-6-6.8-3-11.3c2.1-3.2,5.1-5.2,8.8-6C99.4,391,102.7,390.5,106.4,389.8z M98.1,405.1
			c-0.4-2.8-0.7-5.1-1-7.8c-1.2,0.7-2.4,1.1-3.1,1.9c-0.9,0.9-1.5,2.2-2.2,3.3c1.1,0.7,2.1,1.5,3.3,2
			C95.9,404.9,96.9,404.9,98.1,405.1z M104.4,404.2c2.3-2.1,2-3.4-1.5-5.2C103.4,400.7,103.9,402.3,104.4,404.2z M648,239.7
			c-1.7-1.5-3.8-2.5-4.3-4c-0.7-2.4,1.7-3.5,3.4-4.7c1.6-1.2,3.3-2.2,4.9-3.5c2.4-1.9,2.4-2.7,0.3-4.8c-2.2-2.1-4.6-4.1-6.8-6.3
			c-3.6-3.6-3.4-6.8,0.9-9.7c2.7-1.8,5.7-3.2,8.9-4.9c-2.2-1.2-4.3-2.2-6.3-3.3c-6.5-3.6-7.1-7.6-2.2-13c0.7-0.7,1.3-1.4,2.1-2.3
			c-1.1-0.4-2.1-0.7-2.9-1.2c-1-0.7-2.7-1.5-2.8-2.4c-0.3-3.2-2.7-3.4-4.9-4.2c-18-6.9-23.4-26.4-11.7-41.7
			c10.1-13.2,30-18.2,45-11.1c3,1.4,5.8,3.4,8.2,5.7c7.4,7.1,7.8,17.1,1.4,25.1c-8.8,11-27.3,14-39.1,6.3c-5.3-3.5-7.5-8.1-6.5-13.6
			c0.6-3.4,2.7-5.9,5.4-7.9c8.7-6.2,24.9-4.9,32.5,2.6c2.7,2.7,3.3,5.1,2.2,9.5c4.6-3.4,5.6-10.3,2-15.5c-4.2-6-10.4-8.8-17.4-9.4
			c-11.7-1.1-21.8,2.7-29.2,12c-4.9,6.2-6.8,13.3-3.4,20.9c3.4,7.9,10,11.7,18.2,13c1.4,0.2,2.9-0.2,4.3-0.5
			c1.9-0.5,3.8-0.6,4.6,1.6c0.8,2.3-0.7,3.5-2.7,4.2c-0.3,0.1-0.6,0.3-1.2,0.7c1.2,0.3,2.1,0.6,3.1,0.9c3.8,1.2,4.5,4.3,1.6,7
			c-2.1,2-4.2,4-6.6,6.3c1.5,1,2.5,1.7,3.5,2.3c2.4,1.3,4.9,2.4,7.2,3.9c3.8,2.6,3.7,6.3-0.3,8.7c-2.1,1.2-4.4,2.2-6.6,3.3
			c-1.1,0.6-2.2,1.2-4,2.2c1.5,1.2,2.6,2.2,3.8,3.1c1,0.8,1.9,1.6,2.9,2.5c6,5.4,5.8,9.9-0.4,14.8c-0.6,0.4-1.1,0.9-1.9,1.5
			c2.1,2.2,1.4,4.5,0.5,7c-0.9,2.4-1.6,5-1.9,7.6c-0.2,1.3,0.5,2.9,1.2,4c1,1.5,1.5,2.9,0,4.1c-1.6,1.2-3.2,0.6-4.3-0.8
			c-2.2-2.7-2.8-5.9-2.3-9.3C646.7,244.1,647.5,241.6,648,239.7z M661.4,141.3c-5.6-2.2-12.9-1.4-17.2,2c-3.6,2.8-4,6.7-1,9.9
			c5,5.4,17.9,6.9,24.6,2.7c-0.9,0.2-1.5,0.3-2.1,0.4c-5.1,0.6-10.2,0.4-14.7-2.4c-3.9-2.4-4.1-6.9-0.5-9.7c1.1-0.9,2.5-1.6,3.8-1.9
			C656.6,141.7,659,141.6,661.4,141.3z M658.3,150.5c-0.1-1.4-0.1-2.3-0.2-3.6c-1.6,0.6-2.7,1.1-3.9,1.6c0,0.2,0.1,0.4,0.1,0.7
			C655.5,149.5,656.7,150,658.3,150.5z M75.9,137.5c2.1,1.9,3.6,3.1,4.8,4.4c2.8,2.9,2.9,5.6,0.5,8.8c-1.9,2.4-3.9,4.8-6.1,7.5
			c1.8,0.6,3.3,1.1,4.6,1.6c3.7,1.5,4.4,4.6,1.8,7.6c-1.5,1.7-3.2,3.1-5.1,4.9c1.1,0.6,2,1.1,2.9,1.6c3.6,1.8,5.6,4.8,6.5,8.6
			c0.4,1.6,0.2,3-1.5,3.6c-1.7,0.6-3-0.2-3.4-1.8c-1-4.2-4.1-5.9-7.8-7.2c-4.2-1.5-4.9-4.4-1.8-7.7c1.4-1.5,3-2.9,4.7-4.5
			c-1.1-0.4-1.9-0.8-2.8-1.2c-3.8-1.7-5-4.8-3-8.4c1.2-2.1,2.8-4,4.4-5.9c2.4-2.9,2.4-2.8-0.2-5.3c-0.5-0.5-1.1-1-1.6-1.5
			c-2.5-2.7-2.7-5.6-0.6-8.7c0.4-0.6,0.9-1.2,1.6-2.1c-2-0.1-3.8-0.2-5.5-0.3c-9.7-0.6-16.7-5.3-20.5-14.3
			c-3.7-8.8-1.6-16.8,4.3-23.9c12.5-14.9,34.8-13.9,47.1-4.2c5.7,4.5,6.1,10.8,0.7,15.6c-8.3,7.3-18.1,9.5-28.7,7
			c-6.9-1.6-8.8-8.6-4.3-14.1c5.3-6.4,17.7-8.9,25.1-5.1c3,1.5,4.3,4,4.2,7.4c2.1-2.2,2.3-4,0.1-5.6c-2.3-1.8-5-3.4-7.7-4.4
			c-10.3-3.8-20.1-2.9-28.8,4c-8.2,6.5-10.1,16.2-5,24.2c3.5,5.4,8.7,7.7,14.8,7.7c4.5,0,9-0.7,13.5-1.2c1.9-0.2,3.8-0.5,4.7,1.6
			c0.9,2.2-0.7,3.2-2.3,4.3C82.5,132.5,79.5,134.8,75.9,137.5z M74.3,106.5c5.7-1.1,10.7-2.2,14.7-5.8c2-1.8,1.7-2.9-0.7-3.6
			c-5.7-1.6-11-0.6-15.6,3.1c-1.1,0.9-1.9,3-1.7,4.4C71.1,105.5,73.3,106,74.3,106.5z M915,406.5c-0.2,2.4-0.4,4.9-0.6,7.3
			c-0.4,5.4-3.5,9.2-8,11.5c-1.8,0.9-4.5,1.1-6.5,0.4c-3.5-1.2-7.1-2.7-9.8-5.1c-4.3-3.8-8.5-6.7-14.3-7.9
			c-4.4-0.9-8.2-8.7-7.6-13.1c0.5-3.6,3.7-5.8,7.7-4.9c3.4,0.8,6.9,1.8,10.1,3.3c4.8,2.1,9.3,3,14.2,0.1c3.8-2.2,10.4-0.7,13.2,2.8
			c1.1,1.4,1.4,3.6,2.1,5.4C915.4,406.4,915.2,406.5,915,406.5z M232.8,519.2c0.1-5,1.4-9.6,3.9-13.8c5.5-9.1,13-16,22.2-21.2
			c4.5-2.5,9.3-3.6,14.4-3.2c2,0.2,3.8,0.6,4.5,2.8c0.7,2.1-0.4,3.6-1.8,5c-7.6,7.7-14.5,16-20.4,25.1c-2.1,3.3-4.6,6.3-7,9.3
			c-0.8,1-1.8,1.8-2.8,2.6c-2.9,2.1-6,2.6-9.2,1C233.5,525.4,232.6,522.5,232.8,519.2z M267.5,488.3c-0.8,0-1.2,0-1.5,0.1
			c-1.1,0.4-2.3,0.7-3.3,1.3c-9,4.8-16.4,11.4-21.2,20.6c-1.2,2.3-1.7,5.1-2.2,7.8c-0.2,1,0.5,2.1,0.8,3.2c1-0.5,2.3-0.7,3-1.5
			c2.1-2.3,4.1-4.9,6-7.4c5.6-7.3,11.1-14.6,16.6-21.9C266.3,489.8,266.8,489.2,267.5,488.3z M262,433.7c8,0.6,14.9,4.8,21.4,9.7
			c1.6,1.3,2.4,3.1,0.9,5c-1.4,1.8-3,1-4.9,0.3c-5.3-2-10.7-2.2-16.2-0.6c-3.7,1-7.6,1.8-11.4,2.2c-2.5,0.3-5.3-0.2-6.5-2.9
			c-1.2-2.7,0.1-5.2,1.9-7.2C250.9,435.8,255.9,433.8,262,433.7z M263.7,441.3c-4-1.6-8.3-0.3-10.1,2.8
			C257.2,443.1,260.5,442.2,263.7,441.3z M569.6,654.2c0.2,4.6-0.8,9.6-3,14.2c-0.7,1.4-1.4,2.9-2.6,3.8c-0.9,0.7-2.5,0.5-3.8,0.7
			c-0.1-1.3-0.9-3-0.3-3.9c3.8-5.6,4.3-11.8,4.1-18.3c-0.1-3.7-1.6-6-5.2-7c-1.9-0.5-3.8-1.3-5.6-2c-6.8-2.7-10.4-7.9-11.7-14.9
			c-0.4-2-0.2-4,2.2-4.5c2.5-0.5,3.5,1.3,3.7,3.3c0.8,6.6,4.7,10.1,10.7,11.9c0.1,0,0.2,0.1,0.3,0.1
			C568,641.1,569.6,643.3,569.6,654.2z M204.2,393.8c-0.5-4.9,0.5-8.8,3.3-12.3c2-2.5,4.6-4,7.7-4.7c8.3-1.8,11.6-5.8,11.9-14.4
			c0-0.5-0.1-1.3,0.1-1.6c0.8-1,1.7-2.5,2.6-2.5c0.9,0,2.4,1.4,2.6,2.4c1.8,7.8-3.6,17.4-11.3,20.3c-1.3,0.5-2.6,0.8-3.9,1.1
			c-4.8,1.2-7.2,4.1-7.3,9.1c0,1.9,0.2,3.8,0.2,5.7s-0.8,3.5-2.9,3.6c-2.2,0-2.9-1.5-3-3.4C204.1,395.8,204.2,394.5,204.2,393.8z"/>
		<path class="st0" d="M263.7,441.3c-3.2,0.9-6.4,1.8-10.1,2.8"/>
	</g>
</g>
<g id="background">
	<g transform="translate(37 20)">
		<path class="st1" d="M840.5,464.3c0.3-6.1,1.4-10.9,4.7-14.9c0.7-0.8,1.3-1.8,1.9-2.7c2.9-4.3,2.9-7.1-1.4-10
			c-5.3-3.6-10.9-7-16.7-9.6c-2.5-1.1-6,0.1-9.1,0.1c-1.5,0-4,0.1-4.4-0.7c-0.7-1.4-0.9-3.9-0.1-5.1c4.5-6.8,5.3-14.5,6-22.3
			c0.4-4.3,1.5-8.6,2.5-12.8c1.2-5.3,4.7-8.9,9-11.9c3.6-2.6,6.4-1.6,9,1.8c2.6,3.4,5.4,6.8,10.7,6.3c3-0.3,6.2,0.1,9.1,0.7
			c2.2,0.5,4.7,1.4,6.3,2.9c6.7,6.6,14.9,10.2,23.8,12.7c6.7,1.9,8.7,5,7.5,11.8c-0.4,2.1-0.6,4.4-1.5,6.3c-1.8,3.8-0.3,6.7,2,9.4
			c1.2,1.4,2.5,2.7,3.8,3.9c3,2.8,3.3,6.3,2,9.7c-1.4,3.9-3.3,7.7-5.2,11.3c-0.6,1.2-2,2.2-3.2,2.8c-2,0.9-2.6,2.2-2.3,4.1
			c0.8,7.5,3,14.5,6.2,21.3c1.1,2.3,1.3,5.2,1.1,7.8c-0.2,2.2-2.4,3.1-4.5,3.3c-5.2,0.5-10.5,0.9-15.7,1.1c-2.7,0.1-5.1,0.7-7.1,2.8
			c-2.1,2.2-3.6,2.2-5.5-0.2c-2.3-2.8-4-6-6.3-8.8c-1.8-2.2-3.9-4.3-6.2-5.9c-4.1-3-8.5-5.6-12.7-8.4
			C841.5,469.5,840.3,466.7,840.5,464.3z M737.1,335c3.8,2,5.2,1.4,7.3-1.1c0.6-0.7,2.7-1.2,3.4-0.7c2.8,1.8,5.3,4,7.9,6.1
			c2,1.7,4.1,3.3,5.9,5.2c0.8,0.9,1.8,2.5,1.4,3.4c-0.3,0.9-2,1.8-3.2,2c-2.3,0.3-4.7,0.1-7-0.1c-3.2-0.2-6.3-0.4-9.5-0.7
			c-4.8-0.4-9.5-1-14.3-1.4c-2.9-0.2-5.9,0-8.9,0c-3.4,0-6.9,0.2-10.3-0.3c-3.4-0.4-5.3-2.9-5-6.4c0.3-4.5,1.1-9,1.8-13.5
			c1.1-6.8-0.5-12.7-5.7-17.6c-2.8-2.6-4.9-5.9-4.8-10c0.1-2.4,1.8-3.7,4.3-3.8c2.3-0.1,4.6-0.6,6.7-1.3c3.6-1.2,7-3,10.6-4
			c1.7-0.5,3.9-0.2,5.6,0.3c4.7,1.4,9.3,3,13.8,4.9c2,0.8,3.4,0.9,5.4,0.1c5.2-2.1,7.9-6.8,11.3-10.7c4.4-5,8.9-10,15.5-12.1
			c1.8-0.6,3.7-1,5.5-1.3c2.8-0.5,5.2-0.3,6.2,3.1c0.4,1.3,2.1,2.2,3,3.4c4.2,5.9,9.4,9.6,16.9,10.9c5.2,0.8,8.4,5.8,11.6,9.9
			c4.8,6.2,4.2,13.9-1.2,19.7c-2.2,2.3-3.2,5-3.2,8.1c0,4.4-1.1,5.4-5.5,5.4c-1.8,0-3.6,0-5.4-0.3c-5.6-0.9-10.4,1.3-15,3.8
			c-1.6,0.9-3,2-4.5,3.1c-3.6,2.8-7.4,2.9-11.2,0.5c-2.6-1.6-5-3.6-7.7-5.1c-2.8-1.6-5.8-3-8.9-4c-1.3-0.4-3.1,0-4.4,0.5
			C742.7,332.2,739.9,333.7,737.1,335z M150.4,560.3c-1.2,4.8,0.7,9.4,3.8,13.8c4.4,6.1,4,13.1,3.2,20.1c-0.1,1.1-0.8,2.2-1.4,3.2
			c-2.1,3.3-4.5,6.4-6.4,9.7c-3.5,6.1-8.9,10.2-14.2,14.5c-0.5,0.4-1.2,0.7-1.8,0.6c-7.4-0.4-14.7,0.2-21.9-3
			c-11.2-5-22.7-4.5-34.1,0.4c-2.5,1.1-5.3,1.9-8,2.2c-6.3,0.8-7.4-4.1-7.2-8.3c0.2-5.4,2.5-9.6,5.9-13.7c7-8.3,10.8-18.2,13.1-28.7
			c1-4.5,2.2-9,3.8-13.3c1.9-5.3,6.3-7.5,11.9-7.6c2.9-0.1,5.2,0.7,7.7,1.9c1.7,0.8,3.8,1.2,5.8,1.2c7.5,0.1,14.9,0,22.4,0
			c4.3,0,8.7,0,13,0C149.1,553.3,150.4,555.1,150.4,560.3z M714.1,518.8c0.5-4.2,1.7-9.5,5.5-13.7c1.1-1.2,2.6-2.3,4-3.1
			c5.1-2.7,10.4-5.1,15.4-8c5.2-3,9.1-7.4,12.1-12.7c3.6-6.3,12.4-10.7,19.5-9.5c1.2,0.2,2.3,1.2,3.2,2.2c0.2,0.3-1,1.6-1.3,2.5
			c-0.3,0.7-0.6,1.5-0.4,2.2c1.8,7.8,2.3,15.5,0.9,23.5c-0.8,4.7,1.8,7.8,6.5,8.8c1.2,0.2,2.3,0.4,3.5,0.5
			c7.9,0.5,14.5,3.3,19.7,9.6c1.2,1.5,3.3,2.2,4.9,3.4c5.2,3.6,6.6,9.2,7.4,14.9c0.5,3.5-2.3,5-5.8,4.3c-5.8-1.2-11.5-2.8-17.4-3.2
			c-4.5-0.4-9.1,0.7-13.7,1.2c-0.8,0.1-1.6,0.5-2.4,0.6c-4.6,0.8-6.4-0.5-7.2-5.1c-0.1-0.7-0.3-1.4-0.4-2.1c-1-8-6.7-13.1-14.8-12
			c-8.8,1.1-17.5,3-26.2,4.6c-0.9,0.2-1.7,0.5-2.6,0.7C717.1,529.9,714.1,527.6,714.1,518.8z M284.3,583.1c-0.3,0-1.5,0.1-2.5-0.2
			c-5.3-1.8-10.2-0.5-15,1.8c-3.2,1.5-6.6,2-10.2,2c-4,0-8.1,0.5-11.6,3.1c-2.3,1.7-4.5,1.2-5.5-1.4c-1.2-3.1-3.5-4.4-6.4-5.2
			c-4.1-1.1-5.8-3.3-5.5-6.9c0-0.2,0-0.4,0.1-0.5c2.7-3.1,0.8-6.1,0.2-9.3c-0.9-4.3,0.1-8.4,2.4-12.5c2-3.6,3-7.9,3.9-12
			c0.9-4,1-8.1,1.7-12.1c0.3-1.4,1.1-2.9,2-4c2.5-3.1,2.9-2.9,6.7-1.6c1.6,0.6,3.5,0.6,5.3,0.7c10.7,0.3,15.7,3.7,18.8,13.9
			c1.4,4.6,3.6,8.3,7.5,11.3c2.4,1.9,4.6,4.6,5.8,7.4c1.8,4.4,5,7.2,8.2,10.3c1.9,1.9,3.7,3.7,3.8,6.6
			C293.8,580.4,291.2,583.1,284.3,583.1z M211.6,221.8c0.9,7.8-3,13.5-14,12.3c-7-0.7-14.1-1.5-21-3c-4-0.9-7.8-3.3-11.6-5.3
			c-0.6-0.3-0.8-1.8-0.7-2.7c0.6-4.9,1.6-9.8,1.9-14.8c0.4-6.5-2.6-10.6-8.7-13c-2.5-1-5.2-1.8-7.7-2.8c-1.3-0.5-2.6-1.3-3.8-2.1
			c-2.5-1.7-3.2-4.1-2.6-6.9c0.6-2.5,2.6-3.7,4.9-4.3c4.6-1.3,9.3-0.6,13.7,0.9c2.9,1,5.3,0.6,7.6-1.3c1.8-1.5,3.6-3.1,5.7-4.2
			c4.2-2.3,8.8-1.9,13.3-1.1c1.6,0.3,3.5,1.4,4.5,2.8c3.8,5.5,5.9,11.5,5.7,18.3c-0.2,6.9,1.3,13.2,7.7,17.5
			C209.5,214.4,212.6,217.1,211.6,221.8z M403.2,423.6c1.9-0.3,3.7-0.7,5.6-1c9.1-1.6,16.4,0.9,19.5,7.1c2.3,4.4,4.1,9.1,6.1,13.7
			c0.3,0.7,0.4,1.4,0.7,2.1c2,4.2,2.7,8.4,1.6,13.2c-0.6,2.9,0,6.1,0.5,9.1c0.3,2.1-0.4,3.5-2.1,3.7c-3.6,0.3-7.2,0.5-10.7-0.1
			c-7.8-1.3-15.5-0.8-23.3,0.1c-1.2,0.1-2.4,0.3-3.5,0.2c-7.5-0.5-10.4-6.3-6.9-13c1.8-3.3,3-6.9,4.2-10.5c0.2-0.7-0.5-1.8-0.9-2.7
			c-1.4-2.6-3.3-5-4.2-7.8c-1.5-4.6-0.2-7.1,3.8-9.7c1.5-1,2.8-2.3,4.4-3.2c1.5-0.8,3.2-1.3,4.8-1.9
			C403,423.1,403.1,423.4,403.2,423.6z M487.5,442.9c0-3.5,1.5-6.4,3.8-8.7c2.5-2.6,5.4-4.8,7.9-7.5c1.4-1.5,2.6-3.3,3.2-5.2
			c2-5.7,3.1-11.8,7.8-16.2c2.6-2.4,3-2.4,5.1,0.4c1.3,1.7,3.1,3.3,5,4.4c2,1.2,4.1,1.1,6.1-0.9c3.2-3.1,7.2-2.3,11.1-1.8
			c0.6,0.1,1.2,0.4,1.8,0.6c4.2,1,3.9,0.9,2.6,5.2c-0.8,2.6-0.8,5.5-0.8,8.3c0,2.2-0.5,4-2.1,5.6c-5.2,5.1-8.4,11.2-9.9,18.4
			c-1.1,5.4-4.3,9.3-9.3,11.7c-2.4,1.1-4.9,2-7.3,3c-3,1.3-5.6,0.6-7.5-1.9c-3-3.9-7.2-5.7-11.5-7.4
			C489.2,449.1,487.5,446.9,487.5,442.9z M933.5,362.7c-0.8-2.9,0.6-5.4,2.2-7.7c3.6-5.3,5.3-11,5.3-17.4c0-5.8,2.8-9.4,8.4-11.3
			c0.9-0.3,2-0.5,2.9-0.3c2.4,0.6,4.8,1.3,7.1,2.3c1.2,0.6,2.3,1.7,3.2,2.8c1.7,2.2,3.3,4.6,4.9,6.9s3.4,4,6.4,4.7
			c2.7,0.6,3.6,2.9,3.9,5.6c0.5,4.5,1.3,9,2.2,13.4c0.4,2,1.4,3.5,4,3.8c2.4,0.3,3.9,3.1,3.4,5.4c-0.5,2.3-2.5,3.5-5.3,2.9
			c-1.9-0.4-3.7-1-5.4-1.7c-5.1-2.1-10.1-4.6-15.9-3.5c-0.8,0.1-1.8-0.4-2.7-0.4c-3.5,0-7,0.1-10.5,0.4c-1.8,0.1-3.5,0.9-5.3,1.3
			C935.7,371.3,933.6,369.6,933.5,362.7z M641.9,415.6c0,2.5-0.3,5,0,7.5c0.9,7.1,4,13.1,9.4,17.9c4.2,3.7,4.8,8.4,3.3,13.5
			c-2.1,7.3-10.2,10.1-16,5c-4-3.5-8-4-12.8-3c-8.3,1.8-13.4-3.4-13.2-11.9c0.1-6.1,1.6-11.6,3.3-17.2c0.3-1.1-0.3-2.6-0.7-3.9
			c-1.2-3.5-0.6-6.6,1.7-8.5c0.6-0.5,1.4-1,2.1-1.1c4.6-0.2,9.1-0.2,13.7-0.4c0.9,0,1.7-0.7,2.6-1c1.6-0.5,3.6-1.7,4.9-1.2
			c1.2,0.4,1.7,2.7,2.4,4.1C642.4,415.4,642.2,415.5,641.9,415.6z M514.7,147.7c7.8-1,14.4,3.1,21.4,5.8c3.1,1.2,3.7,2.9,3.5,6.2
			c-0.2,2.8-0.5,5.7-0.1,8.4c0.2,1.6,1.2,3.4,2.4,4.5c2.6,2.5,3.8,5.5,2.6,8.8c-0.3,0.9-1.6,1.7-2.5,2c-10.7,3-21.5,5.8-32.3,8.7
			c-0.7,0.2-2.2,0-2.4-0.4c-0.3-0.9-0.5-2.5,0.1-3c3.3-3.2,3.1-7.5,4.2-11.5c1.2-4.4-0.2-8-2.8-11.3c-1.3-1.7-3.1-3.1-4.7-4.5
			c-1.6-1.4-2-2.6-0.3-4.3c0.6-0.6,0.8-1.5,1.1-2.4C505.7,150.9,510.6,147.4,514.7,147.7z"/>
		<path d="M299.7,587.7c2.2,1.4,4.6,1.4,6.9,1.8c8.8,1.7,14.8,8.1,15.7,17.1c0.4,4.4-0.9,8.5-3.8,11.9c-1.4,1.6-0.9,2,0.4,2.9
			c11.7,7.6,22.6,16.2,33.3,25c7.1,5.9,13.7,12.5,18.6,20.5c9,14.6,7.8,28.1-3.6,41c-5.2,5.8-11.1,10.8-17.3,15.3
			c-6.1,4.4-12.6,8.3-19,12.2c-1.7,1.1-3.7,1.8-5-0.3c-1.4-2.2,0.2-3.5,1.9-4.6c7.1-4.4,14.3-8.7,21-13.7
			c6.4-4.8,12.4-10.1,17.2-16.6c5.9-8,6.6-16.5,2.5-25.4c-3.5-7.7-8.9-13.9-15.1-19.5c-12.2-11-25.2-21.1-38.8-30.4
			c-1.1-0.7-2-1.1-3.2-0.2c-1.7,1.3-3.8,1.8-5.6,2.8c-8.8,4.8-17.8,4.5-26.6,0.7c-8.7-3.8-17.4-3.4-26.1-1.2
			c-6,1.5-11.8,3.6-17.7,5.5c-6,1.9-12.1,3.2-18.5,2.3c-6.2-0.9-11.3-3.5-13.7-9.7c-0.5-1.3-1.2-1.5-2.3-0.8
			c-5.1,3.6-11.3,4.9-16.9,7.5c-2.2,1.1-4.7,1.5-7.2,1.4c-6-0.1-12,0.1-18-0.7c-1.6-0.2-3.1,0.3-4.5,1c-3.1,1.6-6.3,3.2-9.3,5.1
			c-4.2,2.5-8.6,3.7-13.5,3.5c-7.7-0.3-15.5-1.1-21.8-5.8c-10.3-7.5-20.1-5.3-30.1,0c-2.6,1.4-4.9,3.1-7.3,4.8
			c-3.1,2.2-6.4,4.2-10.3,4.6c-8.8,0.9-16.2-5.4-16.7-14.5c-0.5-8.6,1.2-17,4.1-25.1c1.1-3,2.9-5.5,5.4-7.4c2.4-1.8,4.9-3.5,7.4-5.1
			c2.1-1.4,4.3-2.8,6-4.7c2.5-2.8,2.3-3.8-0.8-5.7c-3.3-2.1-6.4-4.6-9.1-7.4c-2.5-2.6-2.8-5.3-1.1-7.3c1.7-2.2,4.4-2.7,7.4-1
			c2.1,1.1,2.3,0.3,2.3-1.5c0-1.4,0.1-2.7,0.3-4.1c0.4-2,1.2-3.8,3.6-3.8c2.2-0.1,3,1.6,3.7,3.4c0.4,1,0.2,2.2,1.1,3.2
			c1.6-1.8,2.2-4,3.2-5.9c2.8-5.5,6.5-10.3,12.2-13.1c1.3-0.7,2.6-1.4,4.1-1.4c2.5,0.1,3-1.1,3.5-3.3c3.3-14.5,10.4-26.5,23.1-34.6
			c1.5-0.9,2.9-1.9,4.4-2.8c2.8-1.8,4.4-4.3,4.9-7.5c0.7-4.8,1.8-9.5,4.6-13.6c0.8-1.2,0.2-2-0.4-2.9c-1.5-2.1-3-4.1-4.3-6.3
			c-1.1-1.8-1.4-3.8,0.7-5c2.1-1.2,3.6,0,4.7,1.8c0.5,0.8,0.9,1.6,1.8,2.1c1-1.1,0.5-2.3,0.6-3.4c0.1-1.3,0-2.5,0.1-3.8
			c0.1-1.8,1-3.2,3-3.3c2.1-0.1,3.1,1.4,3.2,3.3c0.1,2.3,0.1,4.5,0.1,6.8c0,1.7,0.4,2.4,2.2,1.5c2.6-1.3,5.3-2.4,8-3.5
			c1.6-0.6,1.9-1.4,1.3-2.9c-0.5-1.1-0.7-2.3-1.3-3.3c-6-9.5-6.6-20.2-6.4-31c0.4-17.9,7.5-33.6,17.1-48.1
			c12.1-18.3,25-36.2,39.7-52.6c20.6-23,44.7-41.3,71.4-56.6c41.3-23.6,85.4-40.6,130.1-56.1c7.3-2.5,14.7-4.8,22.1-7.1
			c1.7-0.5,2.2-0.9,1.1-2.7c-4.2-6.8-5.9-14-3.3-21.9c0.3-0.8,0.2-1.8,0.1-2.7c-0.5-5.6,0.2-11,2.7-16.2c0.9-1.8,1.4-3.7,2.1-5.6
			c0.3-0.8,1-1.8,0.4-2.6c-0.7-0.9-1.7,0.1-2.5,0.2c-1.4,0.2-2.9,0.5-4.3,0.5c-1.8,0-3.3-0.7-3.5-2.8c-0.2-2,1.2-2.9,3-3.3
			c6.4-1.4,6.4-1.4,2.4-6.5c-0.2-0.2-0.3-0.4-0.5-0.6c-1.2-1.6-2.1-3.4-0.2-5.1c1.9-1.6,3.6-0.6,5,1c0.9,1,1.9,2,2.7,3.1
			c1.2,1.7,2,2.1,2.9-0.3c4.4-11.1,14.7-17.8,26.6-17.7c8.4,0.1,13.9,4.6,15.6,12.8c0.4,1.8,0.6,3.6,0.9,5.4c0.5,2.8,2.1,4.5,5,4.9
			c3.1,0.5,6.2,0.6,9.1,1.7c1,0.4,1.5-0.1,1.8-1c3.8-11,12.3-14.6,23-14.6c0.3,0,0.6,0,0.8,0c2.2,0.3,2.9-0.6,2.8-2.8
			c-0.2-2.3-0.1-4.5,0.1-6.8c0.1-1.9,1.1-3.4,3.2-3.3c2,0.1,2.7,1.6,2.9,3.4c0,0.2,0,0.4,0,0.5c0.2,1.5-0.8,3.6,0.6,4.3
			c1.3,0.6,2.5-1.4,3.8-2.2c3.2-2.1,5-2.3,6.3-0.7c1.3,1.8,0.5,3.3-2.7,5.8c-1.4,1.1-3.9,1.9-3.6,3.6c0.2,1.5,2.9,1.4,4.5,1.9
			c8.1,3,11.8,8,12.1,16.6c0,1.2,0.1,2.4,0,3.5c-0.2,2.4,0.1,4.5,2,6.2c1,0.9,1.7,2.2,2,3.5c0.5,2.6,1.6,3.2,4.3,2.5
			c17.4-4.6,34.8-8.9,52.2-13.5c6.3-1.7,12.5-3.7,18.8-5.5c1.9-0.6,3.8-1.3,5.4-2.6c3.5-2.7,4.1-6.2,1.7-9.8
			c-2.4-3.7-4.7-7.3-7.3-10.9c-3-4.2-3.2-8.5-1.3-13.2c2.1-5.2,5.5-9.3,9.9-12.7c10.8-8.2,22.9-13.7,35.8-17.4
			c5.1-1.5,10-3.2,14.8-5.4c2.6-1.2,5.4-2,8.6-1.6c-1.5,3.6-4.3,5.7-6.8,8c-4.9,4.5-9.9,8.9-14.7,13.4c-2.9,2.8-5.4,5.9-7.3,9.4
			c-3.1,5.7-2.9,11.1,1.5,16.1c1.7,1.9,3.4,3.7,5.3,5.5c3.2,3.1,6.3,6.3,9.1,9.7c2.5,3.1,4.5,6.4,5.6,10.2
			c3.5,11.3,0.5,20.9-8.9,28.1c-3.8,2.9-8,5.4-12.2,7.7c-5.9,3.2-11.8,6.5-17.6,9.8c-22,12.6-43.4,26.2-64.2,40.7
			c-17.3,12-35,23.4-52.7,34.8c-15.2,9.8-30.3,19.9-44.7,31.1c-7.6,6-15.2,11.9-21.2,19.5c-8.7,10.9-15.4,23-19.8,36.2
			c-3.1,9.2-3.2,18.5,0,27.9c2.7,7.7,3.9,16,8.8,22.8c4.9,6.8,9.4,13.9,16.3,18.9c1.6,1.2,2.5,1.2,3.8-0.3c2.4-2.6,5.1-4.9,8.1-6.9
			c2.5-1.7,5.1-2.9,8.2-2.6c2.7,0.3,2.3-1.7,2.5-3.2c0.2-2.1-1.4-1.4-2.4-1.5c-1.3-0.1-2.6,0-3.8-0.3c-1.8-0.3-3-1.4-2.9-3.4
			c0.2-1.8,1.5-2.8,3.2-2.7c3,0.1,2.7-0.9,1.2-2.8c-0.7-0.8-1.1-1.9-1.4-2.9c-0.4-1.4-0.2-2.7,1.1-3.7c1.3-0.9,2.6-0.9,3.8,0
			c1.6,1.1,3,2.3,4.5,3.6c0.8,0.7,1.5,1,2.2-0.1c2.3-3.5,5.9-5.1,9.8-6c2.4-0.5,3.1-1.7,3-3.9c-0.3-8.6,4.1-14.6,10.8-19.3
			c5.4-3.8,10.5-3.7,15.9,0.2c4.8,3.5,7,3.6,12.1,0.4c5.1-3.2,10-6.7,16.2-7.4c5.4-0.7,10.8-0.9,15.3,3c1.1,1,1.8,0.2,2.5-0.5
			c4.1-3.4,9-4.9,14.2-4.7c7.9,0.2,10.6,3.8,13.6,10.4c0.4,0.8,0.6,1.6,0.9,2.8c1.2-2.2,1.5-4.3,1.5-6.5c0.1-1.7,0.3-3.5,2.5-3.5
			c2.3,0,2.8,1.8,2.7,3.6c-0.1,1.9-0.3,3.8-0.5,5.9c1.5-0.2,2.8-0.8,4-1.4c1.6-0.8,3.2-1.8,4.7-0.1s0.2,3.2-0.9,4.6
			c0.8,0.8,1.9,0.6,2.9,0.8c12,1.9,18.2,13.8,12.8,24.7c-0.4,0.7-0.9,1.5-0.5,2.3c1.5,3.2,1.5,6.7,1.9,10.1c0.2,2.1,1.1,3.5,3,4.5
			c3.8,1.9,7.2,4.6,10.5,7.3c4,3.3,6,7.7,5.8,12.9c-0.6,13-3.9,20.1-18.9,26.3c-4,1.6-7.8,1.5-10.9-2.2c-1.2-1.5-2.9-1.4-4.5-1
			c-3.3,0.8-6.5,1.6-9.8,2.4c-6.5,1.5-8.3,0.8-11.9-5c-0.5-0.8-0.9-1.4-1.9-0.7c-5.1,4.1-10.7,2-16.2,1.1c-3.1-0.5-6-2.2-8.7-3.9
			c-5.6-3.6-11.6-3-17.7-1.6c-3.4,0.7-6.6,2-9.9,2.9c-3.4,0.9-6.8,1-10.2-0.1c-1.1-0.4-1.8-0.3-2.6,0.6c-2.2,2.5-5,3.9-8.2,4.6
			c0.2,0.8,0.9,0.7,1.4,0.8c9.2,1.9,18.2,4.2,27.2,6.8c13.5,3.9,27.2,6.4,40.9,9.2c14.1,2.9,28.1,6.8,42.4,8.8
			c12.4,1.7,24,6.3,36.4,7.8c5.2,0.7,10.4,1.5,15.6,2.4c2.2,0.4,3.5-0.2,4.1-2.5c2.2-8.7,8.3-12.5,16.8-13.2
			c2.5-0.2,5.1-0.3,7.6-0.6c3.3-0.4,6.5-3.4,7.3-6.5c0.3-1-0.4-1.2-0.9-1.7c-2.2-2.1-4.5-4.2-6.6-6.5c-1.4-1.6-2.3-3.6-0.4-5.3
			c1.9-1.7,3.7-0.7,5.2,1c0.4,0.5,0.7,1.2,1.5,1.1c0.9-0.2,0.8-1.1,0.9-1.8c0.4-1.7,0.6-3.4,1.1-5.1c0.5-1.9,1.8-3,3.8-2.6
			c1.9,0.4,2.6,1.9,2.4,3.7c-0.2,1.6-0.5,3.2-0.8,4.8c-0.3,1.5-0.7,3-0.8,4.6c2.7-1.7,5.2-3.4,7.9-4.9c4-2.3,8.1-3.5,12.8-3.2
			c3.4,0.2,6.7,0.2,10.1,0.4c1.4,0.1,2.2-0.1,2.6-1.6c2-7.1,6.4-12.8,10.7-18.6c0.7-1,1.5-1.8,1.5-3.1c0.1-5.2,2.7-9.3,6.2-13
			c3.1-3.2,6.7-5.9,10.1-8.8c1.6-1.4,3.2-3,4.7-4.5c1.6-1.6,2.5-3.6,2.3-5.9c-1-14.3,5.7-25.5,14.1-36.2c2.1-2.7,4.8-4.1,8.3-3.9
			c2.5,0.1,4.9-0.4,7.3-0.7c4.4-0.6,8.3,0.2,10.9,4.4c0.8,1.3,2.1,1.9,3.6,2.2c2.6,0.4,5.2,0.8,7.8,1.3c1.8,0.4,2.5-0.3,2.6-2.1
			c0.1-2.1,0.2-4.2,0.4-6.3c0.2-2.1,0.8-3.9,3.3-3.9c2.3,0,3.1,1.6,3.2,3.6c0.1,1.6,0.6,1.7,1.8,0.9c1.5-1,3.2-1.1,4.4,0.4
			c1.3,1.7,0.7,3.3-0.7,4.6c-1.3,1.3-2.6,2.6-3.9,3.8c-0.9,0.8-1.3,1.5,0,2.3c2.6,1.7,4,4.2,4.8,7.1c0.7,2.6,2.4,3.9,5.1,4
			c7,0.2,12.9,3.7,18.5,7.3c4.2,2.7,6.2,7,6.4,12c1.4,0,1.9-1.1,2.6-1.7c4.2-3.6,9.1-4,13.8-1.1c2.5,1.6,4.7,3.6,6.2,6
			c5.6,8.7,13.8,14.6,22.2,20.2c3.7,2.5,7.2,5.2,10.7,7.9c6.9,5.3,14,10.4,21.4,15c2.1,1.3,4.3,2.5,5.5,4.7
			c4.9,8.5,10.1,17.1,11,27.1c0.5,5.2,2.5,8.3,7,10.3c2.1,0.9,3.9,2.2,6,3.3c3.4,1.7,5.6,4.5,6,8.2c1.2,11.4-0.3,22.5-5.7,32.7
			c-1.8,3.4-5,5.2-8.7,5.9c-3.1,0.6-6.1,0.7-9.2,0.3c-7.8-1-15.6-0.9-23.4-1.4c-4.3-0.3-8.2,1.1-12.2,2.6c-8.8,3.3-17,7.8-25.2,12.2
			c-14.5,7.7-30,12.2-46.1,15.3c-6.4,1.2-12.8,2.1-19.4,0.6c-8.8-1.9-14.5-7-17-15.4c-1-3.6-2.9-4.9-6.3-5.3
			c-4.7-0.5-9.2-2-13.9-2.2c-0.2,0.8,0.4,1,0.8,1.3c4.4,3.4,8.1,7.4,10.9,12.1c7.6,13,14.7,26.1,17.3,41.2
			c4.2,24.3,3.2,48.5-2.3,72.5c-1.2,5-2.4,10.1-3.6,15.1c-0.3,1.2-0.8,2.1-2.2,2.4c-1.3,0.4-2.3,0-3.3-0.7c-1.1-0.8-0.5-1.8-0.3-2.7
			c2.8-10.1,5-20.3,6.6-30.6c3.3-21.8,2.9-43.5-3.1-64.8c-3-10.6-8.5-20.2-14-29.7c-4.5-7.6-11.6-12.5-18.6-17.3
			c-0.9-0.6-1.8-0.8-2.9-0.7c-4.5,0.5-8.9-0.5-13.1-1.8c-3.3-1-6.5-1.5-9.9-1c-4.4,0.6-8.9,0.6-13.1-1.5c-4.4-2.1-9.2-1.7-13.9-2.1
			c-2.9-0.2-5.4-1.3-7.1-3.5c-5.2-6.3-12-8.6-19.9-9.1c-6.8-0.5-13.3,1.4-19.9,2.7c-9.8,1.9-17.6-2.5-19.8-11.9
			c-1-4.3-0.3-8.7,0.3-13c0.2-1.3,0.3-2.2-1.5-2.5c-17.9-2.8-35.3-7.8-53.1-10.6c-9.6-1.5-19-4.2-28.6-5.3
			c-13.5-1.6-26.7-4.9-39.8-8.7c-13.4-3.9-26.9-7.4-40.7-10.1c-5.5-1.1-10.8-3.1-16.2-4.8c-1.6-0.5-2.9-0.6-4.3,0.5
			c-2.7,2-5.7,2.1-8.8,1c-9.7-3.5-19.1-7.4-27.2-13.9c-1.1-0.9-2.4-1.2-3.7-1.6c-4.8-1.5-7.2-4.5-7.3-9.6c-0.1-3,0.5-6,1.6-8.8
			c0.3-0.8,0.9-1.6-0.2-2.4c-8.6-5.5-14.1-13.7-19.4-22.2c-4.3-6.8-8.1-13.7-10.6-21.4c-3.6-11.2-3.4-22.4,0.8-33.4
			c3.8-9.9,7.8-19.8,13.9-28.6c10.2-14.9,23.7-26.3,38.4-36.3c21.2-14.5,42.7-28.7,64.6-42.2c10.3-6.3,19.5-14.2,29.1-21.6
			c13.3-10.2,28.1-18,42.8-25.9c14.7-7.9,28.9-16.8,43.3-25.3c1-0.6,1.9-1.3,2.9-2c10.7-7.6,10.5-18.4,5-27.6
			c-2.7-4.6-6.7-8.1-10.4-11.9c-2-2-4-4-5.8-6.1c-6.2-7.6-6.8-14.6-1.9-23.2c2.1-3.7,4.9-7,7.9-10.1c1.2-1.2,2.5-2.3,4-3.7
			c-1.4-0.7-2.2-0.1-3,0.1c-11,3.6-21.5,8.3-30.8,15.4c-3.8,2.9-6.7,6.4-8.4,10.8c-0.9,2.4-0.7,4.6,0.8,6.7
			c2.4,3.3,4.9,6.6,6.7,10.2c2.7,5.3,3.6,10.7-0.3,15.9c-2.1,2.8-5.1,4.5-8.3,5.4c-11.9,3.6-23.7,7.6-35.8,10.6
			c-13.6,3.4-27.2,7.2-40.8,11c-10,2.8-20,5.1-30,7.9c-24.8,7-49.9,13-74.5,20.7c-14.2,4.4-28.1,9.8-42.2,14.4
			c-32.6,10.5-64.4,23.4-95.4,37.9c-32.3,15.1-62.9,33-88.9,58c-12.2,11.8-23,24.8-33.5,38c-12.1,15.3-21.4,32.4-29.9,49.9
			c-7.3,15.2-8,30.9-1.9,46.8c1.2,3.1,3.1,5.7,5.1,8.4c1.3,1.8,3,2.8,5.2,3.2c5.6,1.1,10.9,2.9,14.2,8.1c1.1,1.8,3,2.8,4.9,3.8
			c4,1.9,7.2,4.8,9.9,8.4c0.5,0.7,0.9,1.4,1.6,1.9c5.1,3.5,7.8,8.7,10.1,14.2c2.7,6.7,7.3,11.1,14.5,12.7c3.5,0.8,6.7,2.4,9.6,4.4
			c1.3,0.9,2.3,0.9,3.7,0.1c11.2-6.5,27.3-2.5,34.3,8.4c0.8,1.3,1.6,2.6,2.3,4c1.8,3.6,4.3,6.4,7.9,8.3c8.9,4.8,15.9,11.5,20.2,20.7
			c3.3,7.1,4.5,14.4,0,21.6C302,585.1,300.8,586.4,299.7,587.7z M861.9,504.5c0.4,2.1,1.3,3.2,2,4.3c4,5.8,4.3,11.6,0.4,17.6
			c-5.2,8-7.1,16.8-6.8,26.4c0.2,6.2,2.8,11,6.6,15.3c2.7,3.1,6.4,4.5,10.7,4.5c8.1,0.1,15.9-1.6,23.7-3.4c4.4-1,8.9-1.4,13.3-2.8
			c15.4-4.7,29.3-12.5,43.7-19.5c6-2.9,12.3-4.6,19.2-3.8c7.2,0.9,14.5,1.6,21.7,1.7c5.2,0.1,10.8-1.1,13.2-6.4
			c3.4-7.3,5-15.2,3.6-23.3c-0.4-2-0.9-4.1-2.7-5.1c-6-3.3-11-8.1-18.9-7.9c-8.3,0.2-16.2-3.2-23.2-7.9c-3.4-2.3-6.9-3.4-11-3.3
			c-4.9,0.1-9.8,0.6-14.7,0.9c-7.6,0.5-15,3-22.7,2.6c-0.7,0-1.2,0.3-1.6,0.8c-4.4,5.4-10.5,7.1-17,7c-9.1-0.1-17.6,2.1-25.9,5.7
			c-1.7,0.7-3.5,0.9-5.3,0.9C867.1,508.5,864.6,506.8,861.9,504.5z M133.1,635.8c2.3,0.2,5.5-0.7,8.4-2.5c3.8-2.3,7.7-4.6,11.8-6.2
			c1.2-0.5,1.7-1.2,1.7-2.5c-0.1-4.3,0.3-8.6-0.1-12.8c-0.9-7.5-0.5-14.8,1.4-22.2c1.1-4.6,0.4-8.7-3.8-11.9
			c-6.7-5.1-8.7-12-6.8-20.2c0.3-1.3,1.5-2.9,0.4-3.8c-1.2-0.9-2.7,0.4-4,0.9c-1,0.4-2,0.9-3,1.4c-2.4,1.1-4.8,2.3-7.5,2.4
			c-10.4,0.4-20.5-0.5-29.7-6.2c-3.2-2-6.4-2.1-9.7,0.3c-3.1,2.2-5.3,5.2-7.1,8.5c-3.9,7.4-7,15-8,23.3c-0.5,4.6-2.8,8.3-6.4,11.3
			c-3.1,2.5-6.7,4.4-9.9,6.7c-2.6,1.8-4.7,4-5.6,7.1c-2,6.5-3.4,13.2-3.3,20.1c0.1,8.4,6.8,12.3,14.1,8.1c1.9-1.1,3.6-2.5,5.4-3.7
			c13.6-8.9,27.3-13.8,42.4-3C119,635,125.5,635.5,133.1,635.8z M233.3,530c0.3-1.7-0.8-3.6-3.4-4.6c-3-1.2-6-2.7-9.1-3.7
			c-8-2.4-13.5-7.4-16.1-15.3c-3.2-9.4-10.2-15.5-17.9-20.8c-3.2-2.2-6.1-4.4-8.7-7.2c-4.3-4.5-9.9-5.7-15.7-4.2
			c-4.9,1.3-9.5,3.5-14.1,5.8c-6,3-9.7,7.8-10.3,14.4c-0.8,7.9-4.8,13.3-11.7,16.9c-0.8,0.4-1.6,0.9-2.3,1.4
			c-10.3,7.3-16.2,17.4-19,29.5c-1,4.1-0.4,5.2,3.6,6.7c10.2,3.8,20.3,5.5,30.8,0.3c7.8-3.9,16-4.6,23.5,1.6
			c2.9,2.4,6.6,2.4,10.1,1.6c1.5-0.3,3-0.9,4.4-1.5c7.3-3.1,14.9-4.7,22.6-5.9c6.8-1,13.4-0.5,19.7,2.5c1.5,0.7,3,1.4,4.6,1.6
			c1.9,0.3,3.4-0.3,4.3-2.1C231.1,542,232.8,536.6,233.3,530z M841.8,550.3c2.5,0,5.1-0.1,7.6,0c1.2,0,1.7-0.3,1.7-1.5
			c0.2-2.4,0.6-4.7,0.5-7.1c-0.2-5.9,2.2-10.9,5.4-15.4c4.7-6.6,5.2-9,0.7-15.9c-2-3.1-2.8-6.3-2.3-9.9c0.7-4.9-2-9.6-6.8-11.2
			c-2.5-0.9-5.1-1.5-7.2-3.2c-3.5-2.7-7.2-4.8-11.3-6.5c-4.1-1.7-6.4-5-6.7-9.5c-0.2-4.7-0.2-9.5,0.9-14.1c1.2-5.3,3-10.3,7.6-13.8
			c0.7-0.6,2.1-0.9,1.7-2.1c-0.4-1.1-1.7-1.3-2.8-1.4c-0.6-0.1-1.3-0.1-1.9-0.1c-11-0.6-21.1,1.9-30.2,8.2c-1.5,1-3.1,2.3-4.9,2.2
			c-4.3-0.4-6.1,2.4-8,5.4c-1.2,1.9-2.5,3.8-3.7,5.7c-3.5,5.9-4.9,12.1-4,19.1c0.9,6.9,1.7,13.9,1,20.9c-0.4,3.8-0.1,4.3,3.6,5.5
			c3.9,1.3,8,2,11.7,3.8c11.4,5.5,22.5,11.5,22.5,26.7c0,0.4,0.2,0.9,0.3,1.3c0.7,3.1,2.3,5.4,5.1,7.4
			C828.3,549.2,834.6,551.1,841.8,550.3z M876.3,446.1c2.7-0.1,5,0.8,7.3,1.9c4.4,2.1,9,3.8,13.8,5.2c2.9,0.8,5.3,0.3,7.5-1.9
			c5.1-5.2,6.3-11.7,6.7-18.5c0.1-1.4-0.9-1.8-2-2.3c-5.7-2.3-8.2-6.9-8.8-12.7c-0.2-2-0.2-4-0.2-6c-0.1-3.4-1.5-6-4.4-7.6
			c-4.8-2.8-9.6-5.5-15.4-5.7c-5-0.2-8.4-3-9.7-7.8c-1-3.4-3.2-5.2-6.5-5.8c-4-0.7-8.1-1.4-12.1-2.1c-3.2-0.5-6-1.6-7.8-4.4
			c-1.3-2-3-2.6-5.1-2.2c-3,0.5-6,1.4-9.1,1.2c-1.2-0.1-2,0.8-2.7,1.6c-7.1,9.2-13.2,18.8-12.3,31.1c0.3,4.6-1.4,8.3-4.5,11.6
			c-2.5,2.6-5.2,4.8-7.9,7c-2.8,2.2-5.6,4.4-7.8,7.2c-1,1.2-2.9,2.9-1.9,4.1c1.2,1.4,3.5,0.7,5.2-0.4c8.8-5.5,18.5-7.4,28.8-7.5
			c7.6-0.1,12.7,2.8,15.7,9.7c1.3,2.9,3.5,4.6,6.7,4.9c1.7,0.2,3.4,0.3,5.2,0.4C862,447.5,869.2,447.8,876.3,446.1z M161.3,617.5
			c0,2.2,0,4.4,0,6.5c0,1.4,0.6,2.4,2,2.5c6.4,0.5,12.9,1.7,19.1-0.8c6-2.5,12.3-4.4,17.8-8.2c1.2-0.8,2.6-1.6,4-1.7
			c7.3-0.8,13.3-4.3,18.9-8.7c2.5-2,5.8-3.1,8.5-4.8c4.5-2.8,5.4-6.8,2.9-11.5c-1.7-3.1-4.1-5.6-7-7.5c-3.4-2.3-4.9-5.5-4.9-9.5
			c0-2.6,0.1-5.1,0.6-7.6c0.6-2.6,0.9-5.2,0.7-7.8c-0.1-1.1-0.1-2.4-1.3-2.8c-5.1-1.8-9.9-4.7-15.6-4.5c-9.5,0.3-18.7,2.3-27.5,5.9
			c-7.9,3.2-15.3,3.2-22.3-2.3c-2.4-1.9-3.6-1.3-4.6,1.6c-2.6,7.8-1.7,11.9,4.6,17.2c4.3,3.6,6.2,7.9,5.8,13.4c-0.1,2-0.5,4-0.9,5.9
			c-1.2,4.8-1.8,9.7-1.2,14.6C161.2,610.8,161.4,614.1,161.3,617.5z M917.9,434.7c-0.7,7.8-2.6,16.2-10,22.4
			c-2.5,2.1-5.2,3.1-8.5,2.9c-2.8-0.2-3.2,0.3-2.6,3c0.2,1.1,0.7,2.3,1.2,3.3c1.4,2.6,3.2,5,4.2,7.7c1.9,5.2,5.3,8.6,10.3,10.5
			c2.3,0.9,4.5,2,6.9,2.4c2.6,0.5,5.3,1.2,8.1,0.7c9.6-1.7,19.2-2.8,29-3.1c5.9-0.2,11.1,1.3,15.9,4.6c5.5,3.8,11.7,5.7,18.3,6.7
			c3.8,0.6,4.1,0.1,3.7-3.7c-1-8.5-5.2-15.8-8.8-23.3c-1.1-2.4-3-4-5.2-5.4c-7.5-4.7-14.8-9.9-21.8-15.4c-3.4-2.7-6.9-5.3-10.5-7.8
			c-8.9-5.9-17.5-12.1-23.5-21.3c-1.2-1.8-2.8-3.3-4.6-4.6c-2.6-1.8-4.9-0.7-7,0.8c-2.4,1.7-3.9,5-3.2,7.1c0.4,1.4,1.4,2.2,2.8,2.8
			C917.2,426.9,918,428.2,917.9,434.7z M251.7,524c-9.1,0.5-12.1,1.5-12.5,10c-0.3,6.6-2.4,13-6.6,18.2c-2,2.5-2.9,4.6-2.6,7.7
			c0.4,4.1-1.2,8.1-1.4,12.2c-0.1,3,0.9,5.1,3.3,6.9c5.5,4.1,9.7,9.1,10,16.4c0.1,1.7,1,1.7,2.2,1.2c2.8-1.1,5.6-2.1,8.3-3.4
			c4.8-2.3,9.7-2.8,14.9-2.1c3.2,0.4,6.3,0.1,9.5-0.2c5.1-0.5,9.3-3.5,14-5.2c7.6-2.7,10.3-7.8,8-15.6c-2.5-8.9-7.5-16.2-15.5-20.9
			c-6.7-3.9-12-8.7-15.6-15.8C264.4,526.8,258.1,524.1,251.7,524z M432.7,195.2c-0.6,4.2,2.3,8,3.4,12.4c0.6,2.1,1.5,2,3.2,1.5
			c5.7-1.6,10.9-4.6,16.5-6.2c14.2-4,28.4-8,42.7-12c2.3-0.6,3.6-1.8,4.4-3.9c2.2-6.1,2-12.1,0.2-18.2c-0.6-2-1.8-3.5-3.5-4.8
			c-4-3.1-8.4-4.8-13.5-5.3c-7.9-0.7-11.2-4.1-12.5-11.9c-0.2-1.2-0.3-2.3-0.5-3.5c-1.1-5.2-4.1-7.6-9.4-7.7
			c-8.1-0.1-18.3,4.7-21.2,14.9c-1.5,5.4-3.3,10.8-5.2,16.1c-1.5,4.1-2.6,8.3-2.9,12.7c-0.2,2.8,0.3,5.6-0.8,8.4
			C433,189.8,432.8,192.2,432.7,195.2z M797.4,518.4c0-0.3,0.1-0.5,0.1-0.8c-2.2-1.6-4.7-2.4-7.3-3.3c-3.9-1.2-7.9-2-11.7-3.7
			c-3.4-1.5-6-3.9-5.6-7.9c0.8-7.6-0.4-15.1-0.4-22.6c0-7.4,0-7.4-7.3-7.4c-10.7,0-19.6,3.1-25.2,13.4c-2.5,4.6-6.7,8-12.7,8.3
			c-3.2,0.2-6.3,0.9-9.4,1.3c-1.3,0.2-2.7,0.3-3.5,1.3c-2.5,3.4-5.4,6.6-6.5,10.6c-1.4,5.1-1.9,10.4-1.7,15.6
			c0.2,6.1,5.3,11.1,10.5,9.9c7.9-1.9,15.9-2.5,23.9-3.6c6.5-0.9,12.5-0.4,18.1,2.9c2,1.2,3.1,0.8,4.6-0.7
			c6.6-6.7,14.2-11.1,23.9-11.8C790.6,519.8,794,518.9,797.4,518.4z M528.1,463.1c1.3,0,2.2-0.1,3.1,0c4.9,0.3,8.1-1.9,9.9-6.4
			c1.5-3.7,2.1-7.5,1.6-11.5c-0.5-4.5-1.2-9-1.8-13.5c-0.8-5.3-1.3-10.6,0.7-15.9c1.3-3.3,0.3-4.6-3.3-4.3
			c-5.2,0.5-10.3,0.3-15.5,0.4c-3,0.1-5.3-1-6.9-3.6c-2.2-3.5-3.1-3.7-6.7-1.7c-1.2,0.7-2.1,1.7-2.8,2.9c-2.1,3.7-3.7,7.6-3.9,11.8
			c-0.1,2-0.9,2.8-2.6,3.6c-6.8,2.9-13.7,5.8-18.7,11.7c-2.6,3.1-5.5,6.1-5.3,10.6c0.1,2.3,0.8,3.8,3.2,4.3c2.1,0.4,3.9,1.4,5.6,2.7
			c7.3,6,16.4,8.7,24.6,13.2c1.4,0.8,3,0.7,4.4-0.3C518,463.9,522.9,462.5,528.1,463.1z M574.2,454.2c4.2-0.4,8.3,0.7,12.2,3
			c4,2.4,8.2,4.1,13,4.5c3.7,0.2,6.1-1.5,6.4-5.3c0.1-1.1,0.1-2.2,0-3.3c-0.4-5.2,0.4-10.1,2.1-15c1.3-3.8,2.6-7.6,3-11.6
			c0.5-5-1.7-8.6-6.5-9.9c-5.3-1.4-8.2-4.7-9.1-10c-0.3-2-0.9-3.9-2-5.6c-1.5-2.3-3.7-2.2-6.1-1.9c-2.3,0.3-2.5,1.9-2.8,3.7
			c-0.4,2.8-0.7,5.6-1.7,8.2c-2.1,5.4-6.7,8.1-12.2,6.7c-3.5-0.9-7-1.1-10.5-1.1c-2.5,0-5.1-0.2-7.6-0.8c-4.9-1.1-5.2-0.9-6.4,4.1
			c-0.4,1.8-0.5,3.6-0.3,5.4c0.4,3.4,0.9,6.8,1.4,10.2c1.1,7.1,2.4,14.2,0.1,21.3c-0.4,1.3,0.2,1.5,1.2,1.8c3.3,0.9,6.3-0.2,9.3-1.2
			C563,455.7,568.2,454,574.2,454.2z M830,465.7c-0.1,7-0.1,7.1,6.5,9.8c1.8,0.8,3.6,1.7,5.2,3c2.9,2.4,6.2,4.1,9.8,5.2
			c3.5,1,6.2,3.2,7.7,6.4c1.8,3.8,4.6,6.7,7.3,9.8c2.4,2.7,4.2,2.9,7.5,1.5c8.3-3.5,16.7-6.1,25.8-5.8c3.2,0.1,6.4-0.3,9.3-1.6
			c1.2-0.5,3-1,3-2.4c0-1.3-1.9-1.5-3-1.9c-5.9-2-9.9-5.9-12.2-11.7c-1-2.4-2.3-4.7-3.7-7c-2.2-3.5-3.5-7.2-3.1-11.3
			c0.1-1.5-0.5-2.3-1.9-2.8c-2.4-0.9-4.8-1.8-7-3c-2.6-1.3-5.2-1.7-7.9-1.1c-7.8,1.7-15.6,0.7-23.3,0.4c-3.7-0.1-7.1-1.3-9.8-4.2
			c-2.7-2.8-3.7-2.7-6.1,0.4c-1,1.3-1.7,2.8-2.3,4.3C830.5,457.7,830,461.6,830,465.7z M292.8,624.5c2.2,0.1,4.5,0,6.5-1.1
			c4.9-2.8,9.6-5.9,13.7-9.8c5.7-5.2,3.5-14-4-16.3c-4.5-1.4-9.3-2-13.6-3.8c-3.8-1.5-7-1.1-10.5,0.5c-6.3,3-12.9,4.2-19.9,2.5
			c-2.4-0.6-4.8-0.1-7.2,0.8c-5.7,2.2-11.2,5.3-17.3,6.4c-0.8,0.1-1.5,0.6-2.1,1.2c-2.9,2.4-6.2,4.2-9.5,5.8c-2.5,1.3-5,2.7-7,4.6
			c-3,2.8-6.4,4.8-10.6,5.1c-2.2,0.2-2.3,1.4-1.4,3c1.5,2.9,4.1,4,7,4.6c4.9,0.9,9.8,0.2,14.5-1.2c7-2,13.7-4.9,20.8-6.4
			c9.8-2.2,19.6-3,29.1,1.6C284.8,623.9,288.7,624.6,292.8,624.5z M612.2,452.5c0.5,1.5-0.9,3.8,0.8,5.3c1.2,1.1,1.9,2.4,2.4,3.8
			c1.3,3.5,1.8,3.7,5.5,2.8c3.4-0.8,6.7-1.8,10-2.4c3.5-0.7,7-0.6,9.6,2.3c1.7,1.9,3.3,1.8,5.3,1c8.8-3.4,13.9-9.4,14-19.3
			c0-4-1-7.1-4.2-9.5c-3.1-2.4-6.2-4.8-9.7-6.5c-2.8-1.4-4.4-3.7-5.1-6.7c-0.4-1.8-0.3-3.6-0.4-5.4c-0.1-4-0.4-4.2-4.2-4.4
			c-0.5,0-1.1,0-1.6-0.2c-5.3-1.6-10,0.4-14.5,2.9c-2.5,1.3-4.5,3-3.1,6.4c0.5,1.3,0.2,2.9,0.1,4.3c-0.3,4.7-1.9,9-3.3,13.4
			C612.7,444.2,611.8,448.1,612.2,452.5z M520.1,396.3c0,8,3.7,11,11.3,8.6c4.8-1.5,9-0.4,13,2.1c6.3,3.9,13.1,5.3,20.3,4.8
			c2.2-0.1,4.3-0.2,6.5,0.3c2.1,0.5,4.4,0.1,5.3-2.2c1.4-3.8,2.7-7.8,1.7-12c-0.8-3.6,0.3-6.4,2.7-8.9c0.9-1,2-1.9,2.9-2.9
			c2.1-2.4,2.2-3.9,0.3-6.6c-2.8-4-6.6-5.6-11.5-5.2c-5.9,0.6-10.7,3.3-15.4,6.5c-6.1,4.1-12.5,6-19.9-0.4c-2.9-2.5-5.7-2.4-8.7-0.1
			C523.3,384.4,520.1,389.5,520.1,396.3z M543.9,162.1c-0.1-1.8-0.1-3.6-0.3-5.3c-0.4-3.7-2.2-6.4-5.6-7.7
			c-6.3-2.5-12.8-4.5-19.8-4.4c-2.8,0.1-5.6,0.5-8.2,1.6c-3.7,1.5-6,4.4-7.1,8.1c-0.7,2-0.5,3.8,1.5,5.3c2.3,1.7,3.9,4.1,4.7,6.8
			c1.7,5.6,2.4,11.4,1.2,17.2c-0.6,3-0.6,3,2.3,2.3c11-2.8,22-5.5,33-8.3c3.6-0.9,4.4-2.6,1.7-5.4
			C544.3,169.4,543.3,166,543.9,162.1z M585.7,392.7c5.9-0.6,10.6,0.2,13.3,5.4c1.3,2.6,1.9,2,3.1,0c1.9-3.2,5.8-3.4,7.6-0.5
			c0.9,1.4,0.6,3,0.4,4.5c-0.1,0.9-0.5,2,1,2c1.9,0,3.3,0.7,3.5,2.6c0.2,1.9-1.1,2.9-2.6,3.8c-0.6,0.4-2.2,0.5-1.3,1.8
			c0.7,1,1.7,1.9,3.2,0.7c6.5-5.3,14.1-7,22.2-6.4c2.7,0.2,4-1.1,4.7-3.4c1.7-5.6-2.1-11.8-8-13.1c-3.6-0.8-7.2-1-10.8-1
			c-9.3,0.1-9.6-0.1-11.8-8.9c-0.9-3.7-4.7-7.8-7.7-8c-4.1-0.3-7.9,0.8-11.3,3.2c-1.4,1-1.8,1.9-1,3.6c1.5,3.3,1.1,6.6-1.1,9.5
			C588.2,389.7,587.1,390.9,585.7,392.7z M812.2,549.7c0.2,0,0.7,0.1,1.1-0.1c0.9-0.3,2.2-0.4,2.5-1.4c0.3-0.8-0.9-1.2-1.5-1.8
			c-1.9-1.9-3.1-4.2-4-6.7c-1.1-3.2-2.3-6.3-3.4-9.5c-1.1-3.2-3.3-4.5-6.6-4.5c-2.8,0-5.6,0.3-8.3,1s-5.4,1.9-8.2,1.7
			c-8.2-0.4-13.5,4.3-18.2,10.1c-1.7,2.1-1.4,3.1,1.1,4.4c1.9,1,3.9,1.5,6.1,1.1c3.4-0.7,6.7,0,9.8,1.5c1.8,0.9,3.7,1.6,5.7,1.5
			c6.3-0.4,12.5,0.3,18.6,1.9C808.6,549.3,810.3,549.4,812.2,549.7z"/>
		<path d="M720.8,228c3.2-1.5,6-3.5,9.4-1.2c0.8,0.5,1.9,0.7,2.5-0.1c1.5-1.7,2.2-0.3,3.5,0.3c7.4,3.7,12.9,9.9,18.9,15.4
			c7.2,6.6,13.7,14,20,21.5c0.1,0.1,0.1,0.1,0.2,0.2c1.4,4,4.6,5.6,8.4,6.8c3.8,1.3,5.5,4.8,7.5,8c0.7,1.2,1,2.7,2.7,4
			c0.5-3.3,1.3-6.2,2.6-8.9c0.7-1.7,1.5-3.3,2.4-4.9c1-1.6,2.5-2.5,4.4-1.5c1.9,1,2,2.8,1.2,4.5c-1.2,2.5-2.4,5.1-3.2,7.8
			c-0.2,0.5-0.4,1,0,1.6c0.7,0.3,1.2-0.2,1.7-0.5c1.9-1.1,3.7-2.3,5.5-3.5c1.9-1.2,3.8-2.1,5.6,0c1.3,1.6,0.6,3.5-2,5.4
			c-1.5,1-3,2.1-4.6,3c-1.3,0.8-1.6,1.3-0.2,2.5c5.3,4.5,9.6,9.9,12.1,16.5c0.2,0.5,0.5,1,0.9,1.3c4.9,3.3,12.2,1.2,14.7-4.2
			c1.9-4.1,3.8-8.2,6.7-11.8c5.7-7.3,17.9-8.6,24.8-1.2c1,1.1,2.1,3,3.6,2.7c1.7-0.4,0.8-2.6,1.3-4c0.9-2.5,1.8-5,3.3-7.2
			c1.1-1.6,2.6-2.4,4.4-1.4c1.8,1,1.9,2.7,1.1,4.5c-0.4,1.1-1.4,1.9-1.2,3.4c2.5-0.7,5.2-3.9,7.5-0.5c2.3,3.6-2,4.4-3.9,6.8
			c4.4,0.3,8.1,1.6,11.7,3.2c9.9,4.4,15.1,11.7,14.7,22.9c-0.2,5.6,0,11.3-1,16.8c-1.2,6.2-4.6,10-10.8,11c-8.3,1.3-16.7,1.2-25,1.1
			c-2.5,0-4.8-1.2-6.9-2.4c-2.8-1.6-5.7-1.7-8.6-0.6c-5.7,2.1-11.4,4.1-17.1,6.4c-10.4,4.3-20.9,4.8-30-3c-3.2-2.8-5.8-3.9-10-2.5
			c-2.2,0.8-4.9,0.3-7.3,0.3c-2.9,0-5.6,0.7-8.1,2c-1.6,0.8-3.1,1.5-2.7,3.8c0.1,0.6-0.4,1.5-0.8,1.9c-5.2,5.4-10.5,10-19.1,9.8
			c-9.1-0.2-17.9-0.7-26.3-4.6c-3.5-1.6-7.1-1.4-10.9-0.8c-5.4,0.8-10.3,2.8-15.3,4.9c-6.5,2.7-13,3.4-20.1,1.5
			c-8.8-2.4-17.8-1.9-26.8-0.4c-6.8,1.1-13.8,1.3-20.6,1.4c-6.8,0.1-10.6-3.6-10-10.4c0.7-8.5,1.4-17,4.5-25.1
			c1.5-3.9,4.3-6.3,8.2-7.3c2.6-0.6,3.6-1.9,3.6-4.6c0-11.4,5.9-19.5,14.8-25.8c2.5-1.8,5.2-2.9,8.4-3c1.4,0,2.1-0.4,1.2-1.9
			c-3.2-5.5-1.6-10.5,2.2-14.8c6-6.7,12.9-12.6,20-18c5.6-4.2,11-8.7,16.4-13.1c1.6-1.3,1.7-2.2-0.4-2.9c-2.2-0.7-4.3-1.5-6.4-2.4
			c-2-0.8-3.4-2.1-2.5-4.4c0.8-2.2,2.7-2.3,4.6-1.7c2.4,0.8,4.8,1.7,7.2,2.6c1.6,0.6,2,0.1,1.5-1.5c-0.5-1.5-1-2.9-1.4-4.4
			c-0.5-1.9-0.2-3.5,1.7-4.3c1.9-0.8,3.3,0.2,4.3,1.9C719.9,226,720.3,227,720.8,228z M733.3,322.8c0.1,1.4,0,2.7,0.1,4.1
			c0.2,3.4,1.2,4.4,4.7,3.9c1.7-0.2,3.4-0.7,5.1-1.1c5.1-1.1,9.5-0.3,13,3.9c2.7,3.1,6.1,5.4,9.2,8.1c4.9,4.2,9.3,4.6,15,1.5
			c3-1.6,6-3.2,9.5-3c6.1,0.3,11.8-1.1,17.7-2.6c3.2-0.9,3.6-3.3,4.3-5.6c0.7-2.1-1.4-2.7-2.6-3.6c-0.3-0.3-0.8-0.5-1.1-0.8
			c-3.9-2.8-4.7-6.2-2.4-10.4c1.2-2.2,2.9-3.9,4.5-5.8c1.6-1.9,3.7-4.1,2.1-6.7c-3.9-6.4-7.8-13.1-16.7-13.5
			c-3.9-0.2-6.7-2.6-8.5-6.1c-0.9-1.8-1.9-3.6-3-5.2c-3.1-4.6-7.6-5.7-12.6-3.4c-2,0.9-4,1.8-6.1,2.4c-4.9,1.3-8.6,4.1-10.9,8.4
			c-3.4,6.4-8.6,11.2-14,15.8c-4.2,3.5-6.4,7.8-6.8,13.1C733.6,318.4,733.5,320.6,733.3,322.8z M882,342c5-0.3,9-0.5,13-0.9
			c4.6-0.5,6.1-2.2,6.8-6.7c1-6.1,0.8-12.1,0.6-18.2c-0.1-5.2-2.6-9-6.9-11.7c-5.4-3.4-11.1-5.2-17.6-4.7
			c-6.3,0.5-11.8-1.3-16.1-6.2c-2.3-2.7-5.4-3.4-8.9-2.9s-5.6,2.7-7.6,5.3c-2.5,3.4-3.7,7.5-5.7,11.1c-2,3.7-4.9,6.3-9.2,6.9
			c-2.4,0.3-4.8,0.4-7-0.3c-4.2-1.4-6.9,0.5-9.6,3.3c-3.6,3.7-3.6,4.3,0.6,7.4c4.2,3,5,5.4,3.3,10.3c-0.5,1.6-1.2,3.2-1.8,4.9
			c-0.2,0.6-0.7,1.3-0.2,1.8c2.2,2.2,3.6,5.3,7.1,6c4.8,0.8,9.5,0.7,13.9-1.3c5.8-2.7,11.8-4.6,17.8-6.8c4.5-1.6,8.9-1.5,13.1,1
			c2.6,1.5,5.3,2.1,8.3,2C878.4,341.9,880.7,342,882,342z M677.3,282.3c0,1.4,0.6,2.5,1.4,3.5c2.9,3.5,5.9,6.8,10,9.1
			c3.1,1.7,5.5,1.9,8.4-0.5c4.1-3.4,8.7-6.4,14.1-6.5c9.4-0.2,19-0.8,27.2,5.5c1.4,1.1,2.6,0.8,3.9-0.3c2.4-2,4-4.4,5.5-7
			c3.8-6.6,8.8-11.5,16.5-13.3c1.4-0.3,2.7-1,4.1-1.6c2.7-1.2,2.7-1.6,1-3.9c-3-4-7-7.2-10.1-11c-7-8.6-16-15.1-23.9-22.7
			c-0.7-0.7-1.6-1.1-2.5-1.6c-0.7-0.3-1.8-0.5-2,0.1c-0.9,2.5-3.8,3-5.1,5c-1.3,1.9-2.8,3.6-4.5,5.1c-7.3,6.2-14.6,12.6-22.4,18.3
			c-6.4,4.7-12.1,10.1-17.8,15.6C679.1,277.6,677.4,279.6,677.3,282.3z M774.2,352.4c-0.5-0.8-1-0.9-1.4-0.9
			c-4.7-0.1-8.5-2.2-11.9-5.3c-3.5-3.1-7.3-6-10.5-9.5c-1.2-1.3-2.7-1.8-4.4-1.7c-2.7,0.2-5.4,0.5-8,1.5c-1.2,0.5-2.3,0.6-3.4,0.4
			c-4.3-0.6-7.1-3.7-7.4-8.8c-0.4-6.1-0.1-12.2,1.4-18.1c0.7-2.7,1.9-5,3.4-7.4c0.9-1.4,3.7-2,2.5-4.2c-0.8-1.5-2.9-2.1-4.6-2.8
			c-0.3-0.1-0.7-0.3-1-0.3c-10.2-1.7-20.3-3.3-28.8,4.8c-1.7,1.6-3.7,2.6-6,3c-2.8,0.5-3.3,1.8-1.4,4c1.3,1.6,2.9,3,4.3,4.5
			c5.5,6,7.3,12.7,4.1,20.6c-1.8,4.3-3.1,8.7-3.8,13.3c-0.6,4.1,0.1,7.9,2.6,11.4c2,2.9,2.6,3.1,5.8,1.6c6.2-2.8,12.6-5.2,19.4-6.1
			c3.6-0.5,7-0.4,10.5,0.7c4.1,1.2,7.8,3.4,12,4.2c5.9,1,11.8,0.4,17.7,0.4C769.1,357.9,771.4,354.8,774.2,352.4z M692.3,357.7
			c-3.4-7.5-1.7-14.8,0.6-22.1c0.6-1.9,1.2-3.8,2-5.7c2.1-4.9,1.1-9.2-2.4-13.1c-1.8-2-3.8-3.9-5.6-6c-1.9-2.1-2.6-4.6-2-7.3
			c0.5-2,0.6-3.6-1.7-4.4c-1.8-0.6-2.7-3-4.8-2.7c-1.8,0.3-3.4,0.1-5.1,0c-2-0.1-4,0-5.8,1.2c-7.7,5-13,11.5-13.1,21.2
			c-0.1,6.4-1.7,8.5-7.9,10.4c-2.4,0.7-3.8,2.1-4.7,4.4c-2.6,7-2.8,14.4-3.8,21.7c-0.4,3.2,0.7,4.3,4.1,4.2
			c5.5-0.2,11.2-0.1,16.6-1.1C669.8,356.4,680.9,357.7,692.3,357.7z M103.1,206.5c2.9-4.1,6.1-6.9,9.2-9.8c3.1-2.8,6.1-5.7,10-7.4
			c1-0.5,1.4-1.3,1.7-2.3c4.1-14.9,16.7-23,31.9-20.6c1.2,0.2,2.3,0.3,3.5,0.6c4.6,1,8.8,0.8,12.5-2.7c1.7-1.6,3.9-2.4,6.2-2.4
			c5.5,0,10.9,0.2,16.2,1.9c8.1,2.5,12.9,8.2,14.9,16.3c1.2,5,2.6,10,3.3,15.5c1.8-1.3,2.7-2.9,3.9-4.2c1.5-1.6,3-3.2,5.3-1.6
			c1.7,1.2,1.4,3-0.5,5.5c-1.4,1.8-2.7,3.5-4.3,5.6c1.9,0.4,3.1-0.3,4.4-0.4c1.7-0.2,3.2,0.3,3.6,2.1c0.5,1.8-0.6,2.9-2.2,3.6
			c-1.2,0.5-2.4,0.8-3.7,1.3c1.3,1.8,2.8,3.1,4.5,4.1c2.7,1.6,4.9,3.7,7.3,5.7c2.2,1.8,2.9,4.3,2,7.1c-2,6.1-6.4,9.4-12.6,10.2
			c-10.3,1.3-20.7,1.4-31,0.9c-2.1-0.1-3.2,0.2-4.4,2.3c-3.4,5.9-9.1,8.5-15.7,8.9c-9.3,0.4-18.7,0.4-28.1,0.9
			c-5.5,0.3-10.8,1-16.1,2.6c-7.4,2.1-14.8,1.8-22.1-0.3c-7.3-2.1-9.2-6.1-6.6-13.2c0.5-1.3,1-2.6,0.4-4c-1.9-4.3-1.5-8.5,0.2-12.7
			c0.9-2.2,0.1-2.8-2-2.6c-1.4,0.1-2.9,0.1-4.3-0.1c-2-0.4-3.7-1.3-3.9-3.6c-0.2-2.1,1.3-3.3,3-4.1c1-0.5,2.1-0.8,3.1-0.9
			c1.9-0.1,2.5-1.1,2.5-2.8c0-1.7,0.1-3.5,0.4-5.2c0.2-1.5,1.1-2.7,2.8-2.9c1.8-0.2,2.9,0.9,3.4,2.6
			C102.3,202,102.6,203.8,103.1,206.5z M199.7,230.1c5.5-0.3,12-0.6,18.6-1.1c2.8-0.2,5.4-1,7.3-3.2c1.8-2.1,1.8-3.4-0.3-5.1
			c-3.3-2.6-6.4-5.6-10-7.4c-6.1-3.1-8.7-7.8-9.1-14.4c-0.3-5.5-1.2-11-3.1-16.3c-1.4-3.9-3-7.8-6.7-9.9c-7.8-4.4-15.9-6.8-24.2-0.8
			c-3.3,2.4-7,2.9-10.9,2.1c-2.8-0.5-5.6-0.9-8.3-1.5c-9.8-1.8-17.3,4.6-21.3,11.6c-3.1,5.3,0.5,10.9,6.6,11.1
			c2.8,0.1,5.7-0.3,8.4,0.1c12.2,1.8,16.1,5.5,15.9,15.3c-0.1,6.1,2,10,6.7,13.1c0.8,0.5,1.6,1.2,2.4,1.9c2.5,2.1,5.4,3.3,8.7,3.5
			C186.5,229.4,192.6,229.8,199.7,230.1z M179.9,235c-3.3-0.5-6-1.2-8.4-2.6c-2.5-1.5-4.6-3.6-6.9-5.3c-5-3.5-7.3-8.2-7.5-14.3
			c-0.3-7.8-2.7-10.1-10.6-10.9c-3.9-0.4-7.8-0.8-11.7-1.2c-3-0.3-5.7-1.6-7.6-3.9c-1.6-2-2.9-1.7-4.6-0.5
			c-10.1,7.1-17.3,16.2-20.9,28.1c-0.4,1.3-0.7,2.7-0.3,4c1.2,3.9,0.9,7.7-0.6,11.4c-0.7,1.8-0.1,3.2,1.7,3.9
			c1.1,0.4,2.2,0.9,3.4,1.1c6.3,1.3,12.6,1.3,18.8-0.7c3.8-1.2,7.7-2,11.7-2.2c9.9-0.5,19.8-1.1,29.7-1
			C171.3,241.1,176,239.7,179.9,235z M381.9,470.2c0.2-5.3,2-10.5,4.5-15.5c1.8-3.7,2.2-7.5,1.1-11.4c-1.5-5.1-2.3-10.1,1.3-14.5
			c4.5-5.5,10-9.5,17.5-9.9c5.2-0.3,10.4-0.8,15.2,1.7c1.2,0.7,1.6-0.2,1.9-1.2c0.7-2.2,1.3-4.4,2-6.5c0.7-2,1.8-3.7,4.4-3.1
			c2,0.5,2.6,2.4,1.7,5.2c-0.6,2-1.2,4-1.8,6c-0.5,1.6,0,2.1,1.6,1.4c1.8-0.7,3.5-1.5,5.3-2.1c1.9-0.6,3.7-0.3,4.4,1.9
			c0.7,2-0.5,3.3-2.3,4c-1.5,0.7-3.7,0.8-4.2,2.1c-0.5,1.2,1.6,2.4,2.2,3.8c2.4,5.2,3.3,10.9,5.1,16.4c2.6,7.8,6.2,15.3,9.6,22.8
			c1.7,3.9,3.2,7.7,2.3,12.1c-0.7,3.4-3,5.5-6.5,5.3c-4.2-0.2-8.1-1.8-12.2-2.7c-5.4-1.3-10.6-3-16.1-4c-5.7-1.1-11,0.4-16.3,1.8
			c-3.4,0.9-6.7,1.5-10.2,0.7C385.4,483,381.3,477.6,381.9,470.2z M409.9,424.7c-4.5-0.1-6.7,0.6-11.5,3.7
			c-4.9,3.1-6.3,5.8-4.6,11.2c2,6.3,0.9,11.9-1.6,17.7c-1.7,3.9-3.1,8-3.5,12.2c-0.6,5.5,2.4,9.4,7.4,9.8c1.8,0.1,3.4-0.4,5-1.1
			c8.8-4.2,17.8-4.3,27-1.6c5.2,1.5,10.5,2.8,15.6,4.6c2.8,1,3.7,0.2,3.1-2.8c-0.1-0.5-0.3-1.1-0.5-1.6c-1.7-4.2-3.2-8.5-5.4-12.5
			c-3.9-7.3-5.5-15.6-8.9-23.1C427.7,431.7,421,425.2,409.9,424.7z M919.7,373.6c-0.1-10.8,3.9-20,11.4-27.7
			c2.5-2.6,3.8-5.7,4.5-9.1c0.7-3,1.1-6.1,2.6-8.9c1.8-3.4,4.2-5.9,8.3-6.3c2.3-0.2,2.9-1.1,2-3.4c-0.7-1.6-0.9-3.3-0.6-5.1
			c0.2-1.6,1.1-2.7,2.8-2.9c1.8-0.2,2.9,0.9,3.4,2.5c0.5,1.5,0,4.1,1.4,4.4c1.6,0.4,2.2-2.3,3.5-3.3c0.1-0.1,0.1-0.1,0.2-0.2
			c1.4-1.7,3-2.8,5.2-1.3c1.7,1.2,1.5,3.2-0.2,5.5c-1,1.3-2,2.6-3,3.9c-1,1.2-0.8,2.1,0.6,2.8c2.3,1.3,3.7,3.4,5,5.7
			c1.4,2.6,3.4,4.4,6.1,5.6c2.3,1,4.5,2.3,6.7,3.7c3.1,2.1,4.4,5.1,4.8,8.7c0.3,2.7,0.8,5.4,1.2,8.1c0.3,1.6,0.9,2.9,2.1,4
			c4.9,4.7,5.7,10.6,4.8,16.8c-0.7,5.2-4.9,6.8-9,7.8c-6.1,1.5-12.3,0.7-18.2-1.3c-3.7-1.2-7.2-3.1-11.1-3.6
			c-5.1-0.7-10,0.1-14.8,1.4c-3.4,0.9-6.8,1.3-10.1,2c-2.3,0.5-4.5-0.2-6.7-0.9c-1.9-0.6-2.5-2.3-2.6-4.1
			C919.6,376.9,919.7,375.3,919.7,373.6z M926,369.8c0.1,6.7,1.6,7.9,6.9,6.4c2.9-0.8,5.9-0.8,8.9-1.3c9.2-1.6,18.3-1.2,26.8,3.1
			c1.8,0.9,3.8,1.3,5.8,1.5c2.7,0.3,5.3-0.4,7.7-1.4c4.3-1.8,4.8-8.2,0.8-12c-3.2-3-4.6-6.6-4.7-10.9c0-1.3-0.1-2.5-0.3-3.8
			c-0.6-3.6-1.6-6.8-5.9-7.7c-2.1-0.4-3.7-2-4.9-3.7c-3-3.9-6.4-7.4-9.9-10.8c-3.3-3.2-8.4-3-11.2,0.7c-2.8,3.7-4.9,7.8-5.3,12.4
			c-0.5,5.3-3.1,9.1-7.1,12C927.8,358.5,926.7,364.6,926,369.8z M680.1,462c-1.5,0-2.9,0.1-4.4,0c-7.9-0.5-11.6-7.3-7.7-14.4
			c0.5-0.9,1-1.8,1.7-2.4c4.7-4.3,9.3-8.8,15.9-9.8c1.3-0.2,1.8-0.9,2-2.2c0.2-1.4,0.6-2.7,1.4-3.8c1-1.4,2.4-2.1,4-1.3
			c1.7,0.7,2.1,2.1,1.7,3.9c-0.1,0.3-0.2,0.5-0.2,0.8c-0.2,0.7-0.9,1.6,0,2.2c0.7,0.4,1.3-0.4,1.9-0.7c1.1-0.5,2.1-1.1,3.2-1.4
			c1.6-0.5,3.1-0.1,4,1.5c0.8,1.6,0.4,3.2-1.1,4c-2,1.1-1.6,2.1-0.1,3.2c2.5,2,2.6,4.5,1.9,7.4c-1.6,6.1-5.1,10-11.3,11.6
			C688.8,461.7,684.6,462.5,680.1,462z M689.5,441.2c-5.8,0.4-11.1,2.1-14.4,7.3c-3.2,5.1-2.4,6.5,3.5,7.4
			c5.6,0.9,10.8,0.5,15.6-2.7c2.5-1.6,4.5-5.4,3.4-7.1C695.8,443.2,693.5,440.7,689.5,441.2z M938.3,506c0-2.4,0.6-4.2,2.8-4.4
			c2.3-0.3,3.2,1.3,3.6,3.2c0.9,4.4,2.9,8.2,7.1,10.4c1.6,0.8,2.4,2.3,1.6,4.1c-0.8,1.8-2.5,2-4.2,1.5c-2.9-0.9-5-2.9-6.7-5.3
			C940.3,512.5,938.7,509.2,938.3,506z M906.8,520.2c-0.1,4.9-7.1,11.6-11.4,11.4c-1.4,0-2.5-0.6-2.9-2c-0.5-1.5-0.1-2.9,1.3-3.5
			c3.3-1.6,5.8-3.9,7.4-7.3c0.6-1.3,2.1-1.7,3.6-1.2C906.2,518.2,906.8,519.4,906.8,520.2z M117.8,576.5c-0.3,4.9-3.3,9.6-8.6,12.9
			c-1.5,0.9-3.2,1.4-5,1.1c-1.5-0.2-2.5-1.1-2.7-2.7c-0.2-1.4,0.5-2.6,1.8-3c5.7-1.6,7.8-5.6,7.9-11.2c0-2.1,1.2-3.4,3.4-3.4
			C116.9,570.3,117.8,572,117.8,576.5z M125,607.9c0-2.5,0.2-4.9,1-7.3c0.6-1.9,1.7-3.6,3.4-4.8c1.5-1,3.1-1.2,4.4,0.3
			c1.2,1.3,1.2,2.9,0,4.2c-2.7,2.9-2.4,6.5-2.4,10c0,1.2,0.7,2.2,1.3,3.2c1,1.4,1.2,2.9-0.2,4.2c-1.5,1.4-3,1-4.4-0.2
			C125.1,615,124.9,611.5,125,607.9z M174.9,510.6c-0.3-0.1-0.7-0.1-1.1-0.3c-5.6-2.8-9.8-6.9-11.2-13.2c-0.5-2,0-3.7,2.2-4.3
			c2-0.6,3.4,0.5,4,2.4c1.2,4.2,3.8,7.2,7.4,9.4c0.9,0.6,1.7,1.4,1.9,2.6C178.3,508.9,177,510.5,174.9,510.6z M182.5,531.7
			c-0.1-5.6,7.2-11.5,12.3-10.4c1.5,0.3,2.5,1.2,2.6,2.7c0.1,1.5-0.6,2.9-2.1,3.1c-3.5,0.6-5.6,2.5-7,5.7c-0.6,1.4-2.1,2-3.7,1.5
			C183.2,533.8,182.6,532.7,182.5,531.7z M804.9,492.3c0.1,4.1-1.2,7.9-3.5,11.3c-1.2,1.7-2.8,2.9-4.8,1.6c-2.1-1.3-1.7-3.2-0.6-5
			c2.7-4.2,2.9-8.7,1.4-13.4c-0.1-0.2-0.1-0.3-0.2-0.5c-0.7-2.8,0-4.7,2-5.2c1.9-0.5,3.5,0.7,4.4,3.4
			C804.5,487.1,805,489.7,804.9,492.3z M836,505.6c2.6,0,4.4,2.7,2.8,4.6c-3.1,3.8-2.6,8.1-2.7,12.4c0,1,0,2-0.1,3
			c-0.2,1.5-1.1,2.5-2.7,2.6c-1.6,0.1-2.9-0.6-3.1-2.1c-0.7-5.9-1.4-11.9,1.7-17.5C832.8,507,834.2,505.8,836,505.6z M802.3,464.1
			c0.1-2.5,0.7-4.2,2.9-4.4c2.1-0.2,3.2,1.1,3.5,3c0.5,3.4,2.3,6.1,5.2,8c1.7,1.2,2.9,2.7,1.7,4.8c-0.9,1.7-3.1,1.9-5.3,0.5
			C805.7,473.1,803,469,802.3,464.1z M863.7,420.6c-0.8,5-3.7,9.3-8.5,12.3c-1.5,0.9-3.2,0.9-4.4-0.7c-1.2-1.7-0.6-3.3,0.9-4.5
			c2.9-2.2,4.9-5,5.6-8.7c0.4-1.9,1.6-3.1,3.7-2.8C862.8,416.3,863.8,417.9,863.7,420.6z M889.8,416c-1.3,3.2,0.3,5.7,2.5,8.3
			c1.1,1.2,0.9,2.7-0.3,3.9c-1.1,1.1-2.4,1-3.8,0.3c-4.3-2.3-6.7-9.5-4.7-13.9c0.8-1.6,1.9-2.7,3.9-2.3
			C889.1,412.8,889.8,414.1,889.8,416z M199.2,577.4c-5.7-0.5-10.8-2-13.8-7.4c-1.1-1.9-1.6-3.9-1.2-6c0.4-1.7,1.4-2.8,3.2-2.7
			c1.7,0,2.6,1.1,3,2.7c1.3,5.1,2.6,6.3,7.8,7.1c0.5,0.1,1.1,0.1,1.6,0.2c2,0.3,3.7,1,3.5,3.3C203.1,577,201.2,577.4,199.2,577.4z
			 M194.3,602.5c-2.3,0.1-4.1-0.3-4.5-2.7c-0.3-1.9,1.2-3.4,3.8-3.7c4.1-0.5,7.4,1,10.1,4.1c1.3,1.4,1.6,3.1,0.1,4.6
			c-1.4,1.4-3,1-4.4-0.2C197.8,603.3,196.2,602.2,194.3,602.5z M951,462.8c4.1-0.1,7.7,1.3,10.8,3.8c1.6,1.3,2.7,2.9,1.3,4.9
			c-1.4,2-3.3,1.5-5,0.2c-2.4-1.8-5.1-2.6-8.2-2.4c-0.8,0.1-1.6,0-2.4-0.1c-1.6-0.3-2.6-1.3-2.6-3c0-1.6,0.8-2.6,2.3-3
			C948.4,462.9,949.7,462.9,951,462.8z M261.6,557.4c-4.7-0.2-9.4-1.8-12.1-7c-0.8-1.5-1.1-3.1,0.2-4.6c1.4-1.6,3.9-1.3,5,0.8
			c1.7,3.3,4.5,4.5,8,4.6c3.3,0.1,4.8,1.2,4.7,3.2C267.3,556.5,265.7,557.4,261.6,557.4z M469.4,169.3c-4.5,0-11-4.9-12.2-9.2
			c-0.5-1.6-0.1-2.9,1.3-3.8c1.3-0.8,2.7-0.5,3.7,0.6c0.7,0.8,1.3,1.7,2,2.6c1.5,2,3.3,3.6,6,3.9c1.8,0.2,3.2,1.2,3,3.2
			C473,168.7,471.3,169.3,469.4,169.3z M472.5,189.3c0,1.2-0.3,3.4-2.9,3.5c-2.5,0.1-3.1-1.8-3.3-3.8c-0.2-2.5-1.3-4.4-3.4-5.9
			c-1.7-1.2-2.7-2.9-1.2-4.9c1.4-1.9,3.4-1.5,5.1-0.3C470.5,180.4,472.4,183.9,472.5,189.3z M758,488.2c0,1.2-0.3,1.9-0.8,2.6
			c-2.7,3.9-5.4,7.7-8.2,11.6c-0.3,0.4-0.6,0.7-0.9,1c-2,2.1-4,2.5-5.5,1.1s-1.2-3.1,0.6-5.5c2.9-3.7,5.6-7.6,8.4-11.4
			c0.9-1.3,2-2.4,3.8-2.2C757.2,485.7,758,486.8,758,488.2z M511.1,449.1c-3.7-0.1-6.5-1.5-8.4-4.5c-0.9-1.6-1.1-3.2,0.5-4.4
			c1.6-1.2,3.2-0.8,4.3,0.7c1.4,2,3.2,2.5,5.4,2.1c2.1-0.4,4.3-0.3,4.6,2.4c0.3,2.7-1.9,3.1-4,3.5C512.7,449,511.8,449,511.1,449.1z
			 M585.4,445.9c0-2.7,0.5-5.4,1.3-8c0.5-1.6,1.3-3,2.6-4s2.7-1.2,4-0.2s1.7,2.5,0.9,3.9c-2.1,3.4-2.4,7.1-2.4,11
			c0,2.1-0.6,3.9-3.1,4c-2.3,0-3-1.7-3.3-3.6C585.4,447.9,585.4,446.9,585.4,445.9z M876.4,472.4c-4.9-0.4-9.5-2.1-12.7-6.5
			c-1.5-2.1-1.2-4.2,0.5-5.2c1.6-0.9,3.1-0.6,4.2,0.8c2.3,3.1,5.5,4.3,9.1,4.8c2,0.3,3.5,1.4,3.1,3.7
			C880.2,472,878.5,472.5,876.4,472.4z M292.8,611.6c-4.4-0.1-8.1-4.7-7.3-8.7c0.3-1.5,1.1-2.5,2.7-2.7c1.5-0.2,2.8,0.5,3.2,2
			c0.5,1.9,1.4,3.2,3.4,3.7c1.5,0.4,2.1,1.8,1.7,3.3C296,611.2,294.4,611.6,292.8,611.6z M642.8,442.6c-0.3,3.9-2.3,7.5-5.5,10.3
			c-1.4,1.3-3.1,1.7-4.6,0.2s-1-3.2,0.2-4.6c1.8-2,3.2-4.1,3.4-6.9c0.2-3,1.4-4.4,3.5-4.2C641.7,437.5,642.9,439.3,642.8,442.6z
			 M533.2,170.8c-1.3-0.1-2.5-0.7-3.5-1.4c-3.1-2.3-5-5.4-6.1-9.1c-0.6-1.8-0.2-3.5,1.8-4.3c2-0.7,3.4,0.3,4.1,2.1
			c1.2,3,2.7,5.7,5.6,7.4c1.2,0.7,1.6,2,1.1,3.4C535.7,170.2,534.6,170.8,533.2,170.8z"/>
		<path d="M775.3,306.2c0,5.1-3.3,10.2-7.3,11.8c-1.9,0.8-3.9,1-5-1.2c-1-2,0.1-3.4,1.8-4.5c3-1.7,4.5-4.2,3.5-7.7
			c-0.2-0.7-0.2-1.4-0.1-2.2c0.2-1.7,1.1-2.9,2.9-3.1c1.7-0.2,2.8,0.7,3.3,2.3C774.9,303.5,775.1,305.3,775.3,306.2z M864.9,316.2
			c-3.9-0.1-9.4-5-9.9-8.9c-0.2-1.5,0.2-2.7,1.6-3.4c1.5-0.7,3-0.5,3.9,0.9c1.7,2.7,3.6,4.8,6.8,5.9c1.4,0.5,1.7,2.1,1.2,3.5
			C867.8,315.8,866.5,316.2,864.9,316.2z M848.1,322.8c-0.1,3.7-1.7,6.6-4.5,8.8c-1.6,1.2-3.4,1.7-4.9,0c-1.4-1.6-0.9-3.2,0.5-4.6
			c1.5-1.5,2.5-3,2.2-5.3c-0.3-2.1,0.3-3.9,2.7-4.3c1.9-0.3,3.4,1.1,3.8,3.7C848,321.7,848.1,322.3,848.1,322.8z M725.7,266.9
			c-0.4,4.9-2.1,9.3-4.8,13.4c-1,1.6-2.6,2.4-4.4,1.4s-2.1-2.7-1.2-4.5c2-3.8,3.6-7.7,4.2-12c0.2-1.8,1.5-2.9,3.5-2.7
			C724.8,262.8,725.8,264.4,725.7,266.9z M744.4,255.8c0,2.5-2.1,3.9-4.4,3.1c-4.4-1.5-7.2-9.2-5-13.2c0.7-1.2,1.7-1.9,3.1-1.7
			c1.4,0.2,2.6,1,2.6,2.4c0,3.3,0.7,6.2,3.4,8.5C744.4,255,744.4,255.6,744.4,255.8z M671.5,332.7c1.9,0,3,0.7,3.5,2.1
			c0.5,1.5,0.1,2.9-1.2,3.6c-4.3,2.2-6.6,6-8.6,10.2c-0.8,1.7-2.3,2.7-4.3,1.8c-1.7-0.7-2.2-2.3-1.7-3.9c1.9-5.4,4.9-10.1,10-13.1
			C670,333.1,670.9,332.9,671.5,332.7z M670,316.8c0.1-1.8,0.1-3.6,0.7-5.4c0.6-1.7,1.8-2.7,3.7-2.4c1.8,0.4,2.6,1.7,2.5,3.4
			c-0.2,2.9-0.9,5.9,1,8.6c0.6,0.9,0,2.1-0.8,2.9c-1.1,1-2.3,1-3.6,0.5C670,323,669.9,319.9,670,316.8z M190.4,210.5
			c0-2.2,0.1-3.7,0.7-5.2c0.7-1.8,1.9-3,3.9-2.5c2.1,0.5,2.6,2.1,2.3,4c-0.2,1.3-0.4,2.7-0.4,4.1c-0.1,1.4,0.6,2.6,1.6,3.7
			c1.2,1.4,1.5,3,0,4.4c-1.4,1.4-3,1-4.5,0C191.1,216.6,190.5,213.3,190.4,210.5z M191.4,193.1c-4-0.7-8.5-1.7-12-5.1
			c-1.6-1.5-2.5-3.4-0.9-5.2c1.6-1.9,3.2-0.6,4.7,0.5c2.8,2.1,5.7,4.2,9.4,4.5c1.7,0.1,3.3,1,2.9,3.2
			C195.2,192.8,193.7,193.2,191.4,193.1z M150.3,228.7c-0.3-0.1-0.9-0.1-1.3-0.4c-3-1.9-5.7-4.2-7.5-7.4c-0.8-1.5-1.1-3.1,0.6-4.1
			c1.6-1,3-0.1,3.9,1.4c1.4,2.4,3.6,4,5.8,5.7c1.1,0.8,1.6,2,1.1,3.4C152.5,228.2,151.6,228.7,150.3,228.7z M131.6,211.9
			c0,2.2-5.2,8.6-7.3,8.9c-1.1,0.2-2-0.2-2.6-1.1c-0.6-0.9-0.6-2,0.1-2.8c1.8-2.3,3.6-4.5,5.5-6.7c0.7-0.8,1.7-1,2.7-0.6
			C131.1,209.9,131.5,210.8,131.6,211.9z M418.9,450.7c-3.5,0.1-9.6-4.1-10.8-7.4c-0.5-1.5-0.3-2.9,1-3.9c1.4-0.9,3-0.8,3.9,0.4
			c1.9,2.5,4.4,4,7.1,5.2c1.4,0.6,2,1.9,1.6,3.4C421.5,450,420.4,450.7,418.9,450.7z M951.6,351.4c0.2-2.1-0.2-4.1-0.9-6.1
			s-0.7-3.8,1.6-4.8c1.8-0.8,3.6,0.3,4.6,2.7c1.2,2.8,1.5,5.8,1.2,8.8c-0.3,2.9-1.8,4.6-3.8,4.5
			C952.1,356.3,951.3,354.7,951.6,351.4z"/>
	</g>
</g>
<g id="hand">
	<g transform="translate(45 81)">
		<path class="st0" d="M7.4,278.8c-1.8,7.1-2.4,15.6-1.8,25.6c0.9,15,4.3,39.7,4.3,45.7s-1.8,37.1,0,44.7c1.2,5,1.8,8.4,1.8,10.2
			l54-43.4l81.6-53l54.2-26.6l71.5-25.3l88.9-15.6h55.8l40.9,8l19,10.9l31.3,52.9h15.8v-8.5l-9.4-44.3l3.4-6.3l19.4-12.7l7.3,2
			l16.6,30.4l-1.8,35l6.9,8.3l10.5-10l32.9-17.1l5.4-22.5l-3.4-30.7l-22.1-35.3l-26.5-25l-42-18.6l-44.4-15.1l-62.9-8.8h-46.6
			l-54.4,5l-76.9,18.9l-117.6,43.5l-41.8,20l-70,55.2V278.8z"/>
		<polygon class="st0" points="517.6,325.8 509.5,334.5 511.3,345.9 527.5,343.1 539.6,345.9 552,349.3 565.4,351.7 570.3,348.5 
			571,340.6 550.9,332.3 		"/>
		<path class="st1" d="M564.6,342.7c-0.6-0.1-1.5,0.1-2.3-0.2c-8.9-3.7-19-2.6-27.8-7c-3.1-1.6-7.6-0.3-11.4-0.3
			c-1.9,0-3.8,0.3-5.6-0.1c-4-0.9-5.4-4.8-2.9-8c2.4-3,5.3-5.6,7.9-8.5c1.6-1.8,3.2-3.7,4.5-5.7s1.7-4.6,4.4-5.7
			c0.5-0.2,0.8-1.2,0.9-1.9c0.7-4,2.6-7.2,6.1-9.2c1-0.6,2.9-0.9,3.9-0.4c3.2,1.8,5.8,4.2,6.6,8.1c0.1,0.5,0.5,1.4,0.6,1.4
			c2.4-0.3,3.2,2,4.9,2.8c1.8,0.8,2.3,2,2.4,3.6c0.2,2.8,0.2,5.6,0.2,8.4c0,2.4,0.8,3.6,3.4,3.3c0.9-0.1,1.9,0.4,2.8,0.8
			c1.4,0.5,3,0.9,4,1.8c1.5,1.4,3.2,3.1,3.8,5c0.8,2.6,1.1,5.6,0.9,8.3c-0.3,2.8-3,3-5.3,3.4C565.8,342.7,565.3,342.6,564.6,342.7z
			 M510.8,305.8c0.4-0.4,1-1.8,1.7-1.8c0.9,0,2.4,0.8,2.6,1.5c1.3,3.7,2.4,7.4,3.3,11.2c0.2,0.7-0.5,1.9-1.2,2.4
			c-0.4,0.3-1.9,0-2.3-0.5c-1.1-1.3-2.1-2.7-2.6-4.2C511.6,311.8,511.3,309.1,510.8,305.8z M598.9,294.6c0.8-4.1,2.5-7.2,5.6-9.3
			c0.6-0.4,1.9-0.5,2.5-0.2c0.6,0.3,1.1,1.7,0.9,2.2c-1.5,3-3.1,5.9-4.9,8.6c-0.4,0.6-2,0.8-2.9,0.5
			C599.5,296.3,599.2,295.1,598.9,294.6z M585.9,303.5c1.9-3.2,3.4-6.2,5.3-9c0.3-0.5,1.8-0.3,2.8-0.4c0.1,1,0.4,2.1,0.1,2.9
			c-0.9,2.5-2,5-3.3,7.4c-0.4,0.8-1.7,2.1-2.1,1.9C587.8,305.9,587.1,304.8,585.9,303.5z M565.4,313.4c1.2-2.7,2-5,3.2-7.2
			c0.8-1.4,2.4-2.1,3.6-0.8c0.5,0.5,0.1,2.2-0.2,3.2c-0.5,1.8-1.1,3.6-2,5.2c-0.5,1-1.7,1.6-2.6,2.4
			C566.8,315.3,566.2,314.4,565.4,313.4z"/>
		<path d="M521.7,306.4c-0.3-2.2-0.5-4.5-1-6.7c-2.7-12.3-5.3-24.7-8.3-37c-1-4-0.2-7.6,2.8-9.9c6.4-4.9,13-9.5,19.9-13.7
			c4-2.4,8.3-1.3,11.8,2c0.7,0.7,1.5,1.4,2,2.2c4.5,7.9,9.1,15.7,13.2,23.8c3.1,6.3,3,13.4,2.5,20.3c-0.3,3.8-0.4,7.6-0.6,11.4
			c-0.1,1.3,0,2.7,0,4.6c3.6-4.1,7.7-3.4,12-2.1c7-16.1,11.3-32.4,4.4-49.5c-3.8-9.6-9.1-18.4-17.1-25.3c-2.8-2.4-3.4-4.1-2-5.6
			c1.4-1.5,3.2-1.1,5.8,1.4c10.8,10.3,18.5,22.4,21.2,37.3c2.1,11.5-0.1,22.6-3.8,33.5c-0.5,1.3-0.9,2.7-1.2,4.1
			c5.5-9.5,7.5-8.8,13.4-7.3c0.3-0.8,0.7-1.6,1-2.4c4.1-13.5,3.9-27-0.5-40.5c-3.5-10.7-8.7-20.3-16-28.9c-1.2-1.4-1.2-2.9,0.1-4.1
			c1.4-1.3,2.7-0.7,3.8,0.5c6.5,7.9,12.8,15.8,15.8,25.8c2.4,7.7,5.1,15.4,5.2,23.6c0.1,4.5-0.6,9-1,13.6c-0.1,1.1-0.2,2.1-0.4,3.3
			c1.6,0.2,3.1,0.4,5.2,0.7c0.9-4.8,1.9-9.5,2.6-14.3c1.7-12.2-1.3-23.5-6-34.7c-6.3-14.9-16.1-27.3-26.3-39.5
			c-5.7-6.8-13.5-11-20.8-15.6c-7.8-4.9-15.9-9.5-24.4-13c-23.8-9.8-48.1-18.4-73.6-22.1c-39.3-5.7-78.6-8.8-118.4-4.7
			c-24.8,2.6-49,7.7-73,13.8c-33.4,8.6-66.1,19.2-98.1,32.2c-20,8.2-40.2,16-60.2,24.1c-23.4,9.4-44.8,22-63.8,38.7
			c-7.4,6.6-15.5,12.4-23,18.8c-4.6,3.9-8.6,8.3-13,12.4c-2.6,2.4-5.1,4.9-7.9,7.1c-0.7,0.6-2.2,0.1-3.4,0.1
			c0.1-1.1-0.3-2.7,0.4-3.4c6-6.1,11.9-12.6,18.5-18.1c14-11.7,28.5-22.9,42.7-34.3c8.3-6.6,17.3-12,27-16.2
			c14.8-6.5,29.7-12.7,44.7-18.9c4.5-1.9,9.2-3,13.7-4.9c6.8-2.8,13.4-6.1,20.2-8.9c10.4-4.2,20.9-8.6,31.5-12.2
			c20.8-6.9,41.5-13.9,62.6-19.6c19.5-5.3,39.2-9.8,59.1-13c25-4,50.4-5.9,75.8-4.4c8.9,0.5,17.8,0.7,26.7,1.6
			c23.6,2.3,47,5.9,69.6,13.2c10.5,3.4,21,7,31.5,10.6c4.7,1.6,9.5,3.1,14.1,5.1c7.3,3.2,14.5,6.6,21.6,10.2
			c12.9,6.6,23.2,16.2,31.5,28c5.3,7.5,10.2,15.2,15.3,22.8c1.1,1.7,2.8,3.1,3.8,4.8c8.1,13.9,8.7,28.8,5.4,44.1
			c-1,4.7-1.5,9.5-3,14c-1.3,4.1-3.5,7.9-5.5,11.8c-1.7,3.5-4.8,5-8.5,4.7c-1.6-0.1-2.3,0.5-2.9,1.7c-2.4,4.6-5.3,8.7-10.7,10.2
			c-3.1,0.8-6,1.4-8.5-1.4c-2.9,3.8-5.7,7.5-8.7,11.4c1.2,0.8,2.5,1.7,3.8,2.5c3.8,2.4,6.1,5.8,5.8,10.4c-0.5,7.4-1.8,14.6-9.5,18.3
			c-1.7,0.8-4.2,1.3-6,0.8c-11.4-2.9-22.8-6.2-34.1-9.2c-2.5-0.7-5.2-0.9-7.6,0.8c-0.9,0.6-1.9,1.1-2.8,1.6
			c-6.3,3.2-13.1-0.4-13.6-7.5c-0.4-6.1,1.2-11.5,6.2-15.6c0.6-0.5,1.2-1.1,1.6-1.5c-8.3-14.8-16.3-29.5-24.7-44.1
			c-3.2-5.6-7-10.9-10.7-16.1c-1.2-1.7-3.1-3-4.8-4.4c-6.8-5.1-14.2-8.8-22.8-9.5c-1.3-0.1-2.6-0.3-3.7-0.7c-13-4.7-26.4-5.5-40-5.6
			c-5.8,0-11.7,0.1-17.4-0.3c-12.3-0.9-24.3,0.7-36.4,2.1c-31.9,3.7-63.2,10.2-93.9,19.2c-13.9,4.1-27.4,9.7-41.1,14.5
			c-11.8,4.1-22.9,9.8-34.3,14.5c-12.2,5-23.7,11.5-35,18.1c-16.1,9.4-31.9,19.3-47.2,29.8c-21.6,14.8-42.7,30.2-63.7,45.9
			c-7.7,5.7-14.3,12.9-21.4,19.4c-0.5,0.4-0.9,0.9-1.3,1.4c-1.5,1.4-3.2,2-4.8,0.5c-1.6-1.6-1.2-3.4,0.2-4.9c2.4-2.6,5-5,7.5-7.5
			c12.7-12.4,27.3-22.3,41.7-32.5C77.7,350.5,97,337,116.6,324c11.7-7.8,24-14.6,36.3-21.6c7.8-4.5,15.6-9,23.8-12.5
			c16.4-7.1,32.8-14.3,49.7-20.3c22.2-7.9,44.5-15.8,68-19.7c12.5-2.1,24.7-5.4,37.2-7.4c12.3-1.9,24.7-3,37.1-4.2
			c5.1-0.5,10.3-0.4,15.5-0.3c9.7,0.1,19.4,0.3,29.2,0.6c16.8,0.6,33.2,3.4,49.2,8.8c11.9,4,20.5,11.8,26.6,22.5
			c5.4,9.5,10.9,19.1,16.2,28.7c1,1.7,1.8,2.3,4,1.8C516.7,299,518.7,300.2,521.7,306.4z M527.7,302.5c1-1.3,1.6-2.1,2.2-2.8
			c1.6-1.6,3-3.4,4.8-4.7c1.4-1,1.6-1.8,1.3-3.3c-0.5-2.7-0.7-5.4-0.7-8.1c0-1.8,1.2-3.3,3.3-3.3c1.9,0,2.8,1.4,3.2,3.1
			c0.2,0.9,0.4,1.9,0.6,3.3c1.5-1.8,2.7-3.2,3.9-4.5c1.4-1.5,3.2-2.5,5-0.8c1.8,1.6,1,3.4-0.2,5.1c-1.5,2-2.9,4-4.3,6
			c-0.8,1.1-0.6,1.8,0.4,2.7c1.3,1.3,2.8,2.8,3.3,4.5c1,3,3.1,4.5,6.1,6.2c0.5-3.4,1.1-6.4,1.4-9.5c0.9-9.2,2.5-18.7-1.7-27.4
			c-3.6-7.5-8.2-14.5-12.5-21.6c-0.6-1-1.7-2-2.8-2.5c-1-0.5-2.6-0.8-3.4-0.3c-5,2.8-9.8,5.9-14.7,8.9c-4.6,2.7-5.1,6.5-3.9,11.4
			c2.8,11.2,5.1,22.5,7.6,33.7C527.2,299.6,527.4,300.7,527.7,302.5z M569.2,335.5c-0.3-0.6-0.9-2.1-1.8-3.1
			c-1.5-1.6-3.2-3.2-5.1-4.4c-3.7-2.3-5.1-5.6-5.6-9.7c-0.6-4.7-2.8-8.2-7.2-10.5c-1.5-0.8-2.5-2.7-3.6-4.2c-0.7-1-1-2.4-1.7-3.4
			c-1.5-2.3-3.5-2.8-5.5-1c-1.8,1.7-3.3,3.8-4.8,5.8c-1.7,2.2-3.2,4.6-4.8,6.9c-0.9,1.3-1.8,2.6-2.6,4c-1.4,2.5-2.3,5.4-4,7.6
			c-2.8,3.7-6.3,7-9.2,10.7c-1.2,1.6-1.9,3.9-2,5.9c-0.1,3.6,1.4,4.2,4.5,2.6c7.9-4.1,15.8-4.1,23.7,0.1c2.1,1.1,4.2,2.4,6.5,2.8
			c5.8,1,11.7,1.3,17.3,3.4c2.5,0.9,4.5-0.7,4.9-3.3C568.4,342.5,568.7,339.5,569.2,335.5z M516.7,320c1.7-4.2,0.7-8-0.8-11.7
			c-1.8-4.5-3.2-4.9-8-2.6C510.2,310.9,512.2,316.1,516.7,320z M564,318.2c0.3,0.1,0.7,0.1,1,0.2c4-3.5,7.8-7.2,9.2-12.6
			c-3.9-2.1-5.5-1.7-7.4,1.8c-1.1,2.1-2.2,4.4-3,6.7C563.5,315.4,563.9,316.8,564,318.2z M586.8,306.2c6-2.3,6.7-7.5,8.6-12.9
			c-1.8,0.3-3.7,0-4.3,0.7C588.2,297.2,586.2,300.9,586.8,306.2z M608,285.5c-3.6-0.2-7.4,5.6-7.1,10.4
			C604.7,296.3,607.7,292,608,285.5z"/>
		<path d="M550.9,323c-0.7,1-1.1,2.2-1.9,2.5c-0.9,0.4-2.6,0.5-3.2-0.1c-2.8-2.6-5.9-5.1-7-9.1c-0.5-2-0.4-3.9,1.8-4.8
			c2.3-0.8,3.4,0.6,4.4,2.5c1.2,2.1,2.7,4,4,6C549.6,320.9,550.2,321.8,550.9,323z"/>
	</g>
</g>
</svg>
