<?xml version="1.0" encoding="utf-8"?>
<!-- Generator: Adobe Illustrator 18.0.0, SVG Export Plug-In . SVG Version: 6.00 Build 0)  -->
<!DOCTYPE svg PUBLIC "-//W3C//DTD SVG 1.1//EN" "http://www.w3.org/Graphics/SVG/1.1/DTD/svg11.dtd">
<svg version="1.1" xmlns="http://www.w3.org/2000/svg" xmlns:xlink="http://www.w3.org/1999/xlink" x="0px" y="0px"
	 viewBox="0 0 801.1 258" enable-background="new 0 0 801.1 258" xml:space="preserve">

<style>
	#title {
		filter:url(#dropshadow)
	}
</style>
<filter id="dropshadow" height="130%">
  <feGaussianBlur in="SourceAlpha" stdDeviation="8"/> <!-- stdDeviation is how much to blur -->
  <feOffset dx="2" dy="4" result="offsetblur"/> <!-- how much to offset -->
  <feComponentTransfer>
    <feFuncA type="linear" slope="0.2"/> <!-- slope is the opacity of the shadow -->
  </feComponentTransfer>
  <feMerge> 
    <feMergeNode/> <!-- this contains the offset blurred image -->
    <feMergeNode in="SourceGraphic"/> <!-- this contains the element that the filter is applied to -->
  </feMerge>
</filter>
<g id="title">
	<g>
		<path fill="#ffffff" d="M284.3,82.8c1,0.1,1.6-0.8,2.3-1.3c5.6-3.6,11.2-2.3,14.7,3.5c2.7,4.6,3.7,9.8,4.7,15
			c2.7,14.8,3.6,29.8,3.8,44.8c0.2,13.8,0.9,27.6-1.6,41.3c-1,5.2-1.8,10.4-3.2,15.5c-0.5,1.6-1,3.1-1.7,4.6
			c-1.9,3.7-5.3,5.2-8.5,3.8c-3.1-1.3-5.2-6.1-3.6-9.3c1.9-3.7,2.1-7.7,2.4-11.6c0.8-10.1,1.4-20.3,2.1-30.6
			c-1.3,0.1-1.3,1.1-1.6,1.7c-2.5,5.2-5.6,10-8.9,14.6c-0.9,1.3-1.9,2.5-2.9,3.6c-2.1,2.2-4.6,2.7-6.9,1.6c-2.2-1.1-3.4-3.6-2.9-6.5
			c0.4-1.9,0.9-3.7,1.6-5.5c2.4-6.6,5.5-12.9,9.1-18.9c0.5-0.8,1-1.7,1.5-2.6c-1.2-0.6-2.1,0.1-3,0.4c-5.3,2-10.6,3.8-15.7,6.3
			c-1.9,0.9-3.8,1-5.2-0.8c-1.3-1.8-1-3.7,0.3-5.3c2.2-2.7,5.2-4.3,8.2-5.8c1.4-0.7,1.6-1.3,0.5-2.5c-1.5-1.8-1.8-4.1-2.1-6.4
			c-2.4-17.5,0.3-34.6,4.2-51.6c1.4-5.9,3.1-11.8,5.6-17.3c1.2-2.8,2.7-5.3,4.8-7.6c1.2-1.3,2.5-2.3,4.3-2.7c1.4-0.3,2.7-0.2,3.7,1
			c0.9,1.1,0.7,2.4,0.1,3.6c-3.7,7.1-4.9,15-6.2,22.8C284.2,81.3,283.9,82,284.3,82.8z M296.3,110.9c-0.1-2.4-0.2-4.6-0.3-6.8
			c-0.4-4.8-0.7-9.6-2.4-14.2c-1.1-2.8-2-3.1-4.3-1.2c-4.8,4-7.4,9.1-6.9,15.5c0.1,1.5,0.6,1.6,1.9,1.2c1.7-0.5,3.3-0.9,5.1-0.8
			c2,0.2,3.7,1,4.5,3c0.7,1.8,0.3,3.6-1.1,5c-1.4,1.5-3.1,2.1-5.2,1.3c-2.3-0.9-4.1,0.6-5.4,2.1c-1.3,1.4-0.2,3.1,1.7,3.1
			c1.4,0,2.7,0,4.1-0.1c2.8-0.2,6.5,1.5,8-0.2C297.6,117.3,296.3,113.6,296.3,110.9z M296.4,130.2
			C296.4,130.2,296.4,130.2,296.4,130.2c0-0.4,0-0.7,0-1.1c0-3.3,0-3.3-3.1-2.6c-3,0.7-6,1.5-9,2.2c-2.3,0.5-3.5,1.5-3.6,4.1
			c-0.3,4.2-0.5,4.1,3.5,3c3.3-0.9,6.5-2.7,10-1.9c1.9,0.4,2.3-0.2,2.2-1.8C296.4,131.5,296.4,130.8,296.4,130.2z"/>
		<path fill="#ffffff" d="M479.9,184.6c-2.7,3.3-5,6.3-7.4,9.2c-0.9,1.1-1.6,2.2-2.6,3.1c-1.9,1.7-4.1,2.1-6.3,0.7
			c-2.2-1.4-2.7-3.6-1.9-6c0.6-2.1,2-3.9,3.3-5.6c8.1-10.6,16.9-20.4,26.5-29.7c0.6-0.6,1.2-1.1,1.7-1.7c0.1-0.1,0-0.3,0.1-0.5
			c-0.9-0.6-1.7-0.1-2.6,0.1c-4,0.9-7.9,1.9-11.9,2.8c-1.9,0.4-3.8,0.2-4.5-2c-0.7-2.2,0.7-3.4,2.5-4.2c4-1.7,8.1-3.3,12.3-4.6
			c1.2-0.4,2.3-0.7,1.9-2.3c-0.4-1.8-1.7-0.8-2.7-0.7c-4.1,0.5-8.3,1.1-12.4,1.7c-1.5,0.2-3.1,0.2-3.7-1.5c-0.6-1.7,0.8-2.6,2.1-3.4
			c4.4-2.5,9.3-4,14.2-5.6c1.9-0.6,3.1-4.4,1.8-6c-0.6-0.7-1.3-0.3-2-0.3c-3,0.1-6,0.5-9,0.2c-1.7-0.2-3.4-0.4-3.8-2.5
			c-0.4-2,1-3,2.5-3.8c3-1.6,6.1-2.8,9.4-3.6c2.4-0.6,4-1.5,3.8-4.2c0-0.4,0.1-0.7,0.2-1.1c0.2-1.1,0.8-1.9,2-1.9
			c1.3-0.1,2.2,0.7,2.2,1.9c0.1,3,1.7,3.3,4.1,2.6c0.9-0.3,2-0.3,3-0.4c1.3-0.1,2.2-0.5,2.5-2c0.4-1.6,1.3-2.9,3.2-2.9
			c1.7,0,2.7,1.1,3,2.7c0.3,1.4,1.2,1.3,2.2,1.3c3.3,0.1,6.5,0.3,9.8,0.5c1.4,0.1,2.7,0.3,3.9,1c1.9,1,2.9,2.5,2.5,4.7
			c-0.7,3.6-6.6,6.1-9.7,4.2c-2-1.3-4,0.4-6.1,0.2c-2.8-0.2-3.4,1.5-3.7,3.8c-0.2,1.6,0.3,1.9,1.7,1.8c3-0.3,6-0.5,9-0.7
			c1.4-0.1,2.9-0.3,4.3-0.2c1.5,0.1,2.5,1,2.8,2.5c0.3,1.6-0.5,2.8-1.9,3.2c-1.8,0.6-3.7,0.9-5.6,1.3c-3.5,0.7-6.9,1.4-10.4,2.1
			c-0.8,0.2-2.1,0.1-1.9,1.4c0.2,1,1.2,0.3,1.8,0.3c2.1,0,3.8,0.7,4.8,2.6c1,2,0.7,3.9-0.6,5.6c-0.7,0.9-1.6,1.8-2.5,2.5
			c-7.9,7-15.2,14.6-22.7,22.1c-1.9,1.9-3.1,3.9-3,6.7c0.1,2.4-0.5,4.9-0.1,7.3c0.3,2.2,1.5,2.9,3.4,1.9c1.9-0.9,3.7-1.9,5.5-3
			c3.9-2.6,7.7-5.5,11.6-8.1c1.8-1.2,2.4-2.3,1.2-4.4c-1.1-1.9-1.9-4.1-2.6-6.3c-1.5-5.3,1-9,6.4-9.6c4.4-0.5,8.9-0.7,13.3-1
			c0.8-0.1,1.7,0,2.4,0.2c2.4,0.5,4.2,1.9,4.6,4.4c0.4,2.5-0.8,4.3-3,5.3c-2.5,1.3-4.9,2.8-7.3,4.3c-1.4,0.9-1.5,1.7-0.7,3.1
			c8.4,15.5,16.7,31.1,26,46c0.7,1.1,1.3,2.2,1.7,3.4c0.7,2.1,0.4,4-1.4,5.4c-1.9,1.5-3.9,1.2-5.8-0.2c-0.7-0.5-1.4-1.2-2-1.9
			c-6.8-7.8-13.2-16-17.8-25.4c-3.3-6.7-6.9-13.2-10.2-19.9c-0.9-1.8-1.6-2-3.1-0.7c-4.1,3.3-8.2,6.6-12.4,9.8
			c-1.9,1.4-3.8,2.8-6.1,3.6c-4.4,1.6-7.8-0.1-9.2-4.5C480.5,188.4,480.3,186.8,479.9,184.6z M496.6,130.3c0.2,0.7-0.8,2,1,2.1
			c3.4,0.3,5.1-0.9,5.2-3.8c0-0.9,0.5-2-1.3-2C497.8,126.5,496.8,127.2,496.6,130.3z M500.8,142.2c0-1.3-0.7-1.2-1.3-1
			c-1.2,0.4-3.1-0.3-3.3,1.9c-0.1,1,0.5,1.2,1.4,1C498.9,143.7,500.7,144.1,500.8,142.2z"/>
		<path fill="#ffffff" d="M698.5,70.6c-1.1-0.2-1.9,0.4-2.8,0.9c-6.1,3.1-11.2,7.3-15.2,12.9c-1.2,1.7-2.4,3.5-3.6,5.1
			c-2.2,2.8-5.1,3.6-7.6,2.2c-2.6-1.5-3.3-4.6-1.6-7.9c4.7-9.2,10.5-17.6,17.7-25c1.1-1.2,2.4-2.2,3.8-3.1c1.9-1.3,4.1-2.4,6.3-0.7
			c2.2,1.7,0.4,3.5-0.5,5.5c1.9-0.4,3.6-0.9,5.3-1.2c7.1-1.1,11.9,3.2,11.6,10.4c-0.2,4.2-1.7,8-3.6,11.6
			c-3.1,5.9-6.7,11.4-10.6,16.8c-1.5,2-1,2.7,1.1,3.6c11,4.8,22,9.6,32.5,15.3c6.8,3.7,13.2,7.9,18.6,13.7c1.2,1.3,2.5,2.7,3.3,4.3
			c1.3,2.6,0.9,5.5-0.9,7.4c-1.8,1.9-4.6,2.3-7.3,0.8c-3.2-1.8-6.3-3.7-9.2-5.8c-14.2-10.3-30.2-17.4-45.9-25
			c-1.4-0.7-2.1-0.2-2.9,0.9c-8.8,11.5-18.4,22.3-28.3,32.8c-1.4,1.4-2.8,2.9-4.6,3.9c-2.9,1.5-6.1,1.2-8.4-0.9
			c-2.2-2-3-5.3-1.6-8.3c0.6-1.4,1.5-2.7,2.4-3.9c8-10.5,16-20.9,24.1-31.3c1.3-1.6,1.1-2.4-0.7-3.1c-1.3-0.5-2.6-1.3-3.9-1.9
			c-1.3-0.6-2.4-1.4-2.3-3c0.1-1.7,1.2-2.6,2.6-3.2c2.5-1.1,5.3-1.4,7.8-0.5c4.9,1.7,7.6-0.5,10.4-4.1c4.4-5.6,9.3-10.9,13.3-16.9
			C698.1,71.9,698.8,71.4,698.5,70.6z"/>
		<path fill="#ffffff" d="M135.2,169.1c2,0.1,3.9,0.2,5.9,0.4c2.4,0.3,4.5,1.1,4.9,3.9c0.3,2.1-1.5,4-4.6,4.4
			c-7.3,0.9-14.6,1.8-21.9,2.4c-2.2,0.2-3.3,1-3.6,3.2c-0.2,1.5-0.7,3-1.1,4.5c-0.6,1.9,0.2,2.3,1.9,2c5.6-1,11.4-1.2,17.1-1.8
			c1.9-0.2,2.8-0.8,3.2-2.8c0.8-4.4,4.1-5.9,8.2-4.1c2.7,1.2,4.8,3.3,6.4,5.8c5.3,8.4,6.7,17.6,5,27.2c-0.8,4.5-3.9,7.2-7.9,7.3
			c-4,0.1-7-2.1-8.3-6.5c-1.5-5-2.7-10-3.1-15.2c-0.1-2.2-0.8-3-3.2-2.4c-7.9,2.1-16.4,2.7-23.8,5.7c-7,2.9-13.7,1.5-20.5,2.1
			c-1.7,0.1-3.5,0.1-5.2,0c-0.9,0-1.8-0.1-2.7-0.4c-1.6-0.4-2.9-1.3-3-3.1c-0.1-1.7,1-2.7,2.4-3.3c4-1.7,8.3-2.7,12.5-3.9
			c1.7-0.5,3.3-0.9,5-1.3c7-1.7,7.9-2.9,8.2-10.1c0.1-2-1.1-1.7-2.3-1.6c-5.2,0.3-10.3,1.2-15.4,2c-1.6,0.2-3.3,0.3-4.9-0.2
			c-1.9-0.6-3.2-1.7-3.7-3.6c-1.8-7.2-3.3-14.5-3.4-22c0-1.4,0.2-2.7,0.8-4c0.8-1.7,2.1-2.5,4-2.3c1.7,0.2,2.8,1.2,3.1,2.9
			c0.3,1.8,0.7,3.6,1,5.4c0.2,1.3,0.8,1.6,1.8,0.6c6.2-6,13.6-9.6,21.8-11.8c1.3-0.4,1.6-1.3,1.8-2.4c0.4-2.2,0.8-4.5,1.4-6.7
			c0.5-1.9,1.1-3.9,3.6-3.7c2.5,0.2,2.7,2.4,2.9,4.3c0.2,1.4,0.3,2.9,0.3,4.3c0,1.8,0.8,2.3,2.5,2.2c4.2-0.2,8.4,0,12.4,1.1
			c1.7,0.5,3.5,1,5.1,1.8c6.2,3,7.1,8.8,2.3,13.8C140.1,165.5,137.5,166.8,135.2,169.1z M91.6,171.9c2.9-0.5,5.9-0.9,8.8-1.4
			c8.4-1.4,8.4-1.4,9.2-9.8c0-0.1,0-0.2,0-0.3c0.3-1.8-0.2-2.4-2.1-1.7c-5.8,2.3-10.9,5.5-14.8,10.3
			C92.2,169.8,91.4,170.5,91.6,171.9z M119.6,161.4c0,0.5-0.1,1.5-0.2,2.5c-0.1,1,0.3,1.7,1.4,1.3c4.4-1.7,8.7-3.6,12.2-6.8
			c1.3-1.1,1.1-2-0.6-2.4c-2.3-0.6-4.6-0.8-7-0.7C119.8,155.2,119.8,155.2,119.6,161.4z"/>
		<path fill="#ffffff" d="M162.3,105.9c2.1,0,4.2-0.1,6.3,0c1.6,0.1,3.2,0.8,3.2,2.7c0,1.8-1.5,2.3-2.9,2.7
			c-3.8,0.9-7.6,1.9-11.4,2.7c-2.1,0.5-3,1.5-3.1,3.7c-0.2,4.6-0.8,9.2-1.3,13.8c-0.3,2.9-1.5,5.2-4.3,6.4c-4.8,2-9.7-1.1-9.8-6.3
			c0-2.7,0.3-5.4,0.4-8.2c0.2-3.5,0.2-3.5-3.1-2.6c-4.1,1.2-8.2,2.4-12.4,3.1c-1.8,0.3-3.6,0.5-5.4,0c-1.7-0.5-3-1.4-3.2-3.3
			c-0.2-1.7,0.7-2.9,2.1-3.8c0.6-0.4,1.3-0.7,1.9-1c6-2.7,12-5.2,18.4-6.8c2.1-0.6,3.1-1.6,3.4-3.8c0.8-5.5,0.9-5.5-4.5-4.8
			c-3,0.4-6,0.6-9,0c-7.3-1.4-10.4-6.8-7.7-13.7c1.5-3.9,3.7-7.5,5.9-11c3-4.6,6.1-9.3,9.1-13.9c0.5-0.8,0.9-1.4-0.1-2.3
			c-3.2-2.9-2.9-5.5,0.9-7.7c5.3-3.2,11.3-3.8,17.3-4.3c3.3-0.3,6.5-0.3,9.8,0.5c5.5,1.3,8.8,5.3,9.1,10.9c0.1,1.6,0,3.3-0.5,4.9
			c-2.7,8.4-7.8,14.9-15.8,18.9c-3.4,1.7-6.8,1.8-10.1-0.4c-1.5-1-2.7-2.3-2.3-4.3c0.4-2.1,2.1-2.7,3.9-2.7c2.7,0,4.3-1.4,5.7-3.6
			c2.7-4.2,4.7-8.6,5.7-13.5c0.6-2.6,0-3.4-2.7-3.5c-1.5,0-3.1,0.2-4.6,0.4c-3.5,0.6-3.5,0.6-2.7,4c0.7,3.1-0.5,6-2,8.6
			c-3.3,5.9-6.9,11.7-10.3,17.6c-0.7,1.2-2.4,2.5-1.7,3.7c0.7,1.2,2.7,0.3,4.1,0.3c3.1-0.1,6.3,0.3,8.7-2.7c1.1-1.4,3.3-1.3,4.7,0
			c1.5,1.4,3,1.4,4.8,1.2c1.7-0.2,3.4-0.2,5.2-0.2c1.9,0,3.8,0.5,4.2,2.7c0.4,2.3-1.3,3.2-3.1,3.8c-2,0.6-4,1.2-6,1.7
			c-1.6,0.4-2.4,1.1-2.2,2.8c0.2,1.6,0.2,3.3,0.2,4.9c-0.1,2,0.8,2.6,2.7,2.4C159.2,105.9,160.8,105.9,162.3,105.9
			C162.3,105.9,162.3,105.9,162.3,105.9z"/>
		<path fill="#ffffff" d="M677.4,186.1c-0.4,2-0.6,3.4-0.9,4.7c-0.6,2.2-2,3.7-4.3,4c-2.3,0.3-4.1-0.8-5.2-2.7
			c-1.4-2.4-1.9-5.1-2.1-7.8c-1-12.4-0.5-24.7,0.6-37c0.1-1.4,0.6-2.9,1-4.2c0.6-1.8,1.8-3.2,4-3.2c2.1,0,3.3,1.4,3.9,3.3
			c0.6,2.1,1,4.2,1.4,6.4c0.2,1,0.3,1.9,0.5,3c1.3-0.2,1.7-1.3,2.4-1.9c3.8-3.7,8-6.6,13.2-7.8c9.8-2.3,17.5,4.4,16.9,14.4
			c-0.3,4.4-1.6,8.6-3.8,12.4c-1,1.7-1.1,2.5,1.3,2.5c7,0.2,13.9,1.5,20.8,2.7c1.9,0.3,3.7,0.9,5.4,1.9c3.2,2,4.9,5.5,4.2,9.1
			c-0.7,3.8-3.1,6-6.8,7c-2.5,0.7-5.1,0.2-7.6-0.3c-8.7-1.8-17.5-2.4-26.3-2.2c-2.1,0-4.2,0.2-6.2,0.7
			C684.8,192.2,680.6,191.4,677.4,186.1z M678,179c2.1-2.8,4.5-4.8,6.6-7c3.8-4,7.1-8.2,8.9-13.5c0.3-0.9,1-2,0.1-2.8
			c-0.8-0.7-1.9,0.1-2.8,0.5c-2.2,1-4.1,2.3-5.9,3.9C679.6,165.1,676.1,170.8,678,179z"/>
		<path fill="#ffffff" d="M74.7,45.7c1.2,0.7,2,0.2,2.9,0.2c1.7-0.1,3.4-0.4,5.2-0.4c7.1,0,10.8,5.1,8.9,11.9
			c-0.6,2.2-1.7,4.2-2.9,6.2c-0.7,1.2-0.7,1.9,0.9,2.3c5.4,1.1,8.9,4.6,10.8,9.5c5.4,14.2,6.4,28.6,0.5,43.1
			c-1.1,2.7-2.6,5.2-5.2,6.9c-4.7,3.1-10.8,1-12.1-4.1c-0.4-1.6-0.6-3.4,0.8-4.3c2.6-1.6,2.6-4.1,3.1-6.6c1-5.6,1-5.5-4.5-4
			c-3,0.8-6,1.5-9,2.2c-1.5,0.3-3.1,0.4-4.6,0c-1.6-0.4-2.9-1.3-3.3-3c-0.4-1.7,0.4-3,1.8-4c2.4-1.7,4.5-3.7,5.3-6.7
			c0.4-1.7,0-2.3-1.7-1.6c-1.4,0.5-2.9,1.2-4.5,1.2c-1.6,0-2.9-0.4-3.7-1.9c-0.7-1.4-0.4-2.7,0.5-3.8c1.9-2.7,4.6-4.4,7.6-5.6
			c1.4-0.6,2.3-1.4,2.8-3c1.3-3.7,4.5-4.4,7.4-1.8c0.6,0.5,1.1,0.9,1.9,0.8c2.3-0.5,4.7-0.7,6.9,0.4c1,0.5,1.3-0.3,1.2-1.1
			c-0.1-2.7-0.1-5.6-2.8-7.3c-2.5-1.5-5-1.4-7.3,0.5c-0.8,0.6-1.8,1.2-2.8,1c-5.1-1.4-8.4,2-12,4.3c-0.7,0.4-1.2,1.1-1.9,1.6
			c-0.9,0.6-1.8,0.9-2.7,0c-0.8-0.8-0.6-1.7-0.2-2.5c0.6-1.3,1.6-2.4,2.7-3.4c2.6-2.3,5.6-4.3,9-5c5.6-1.2,7.3-5.5,8.9-10
			c1.3-3.5,0-4.8-3.7-4.3c-6.3,0.8-12.2,2.9-17.7,6c-1.6,0.9-3.2,1.8-5,2c-4.5,0.4-7.3-3-6-7.3c0.5-1.5,1.2-3,2.1-4.4
			c3.6-5.6,8.1-10.2,13.2-14.5c2.4-2,5.2-3.3,8.5-2.9c4.6,0.5,6.6,4.2,4.3,8.2C77.3,42.2,76,43.8,74.7,45.7z M91.2,87.9
			c0.5-2.1-0.1-2.5-2.3-1.5c-2.3,1.1-4.8,1.7-7.2,2.5c-1.1,0.4-1.9,0.9-2.5,2c-1,2.1-2.1,4.2-3.1,6.3c-0.2,0.5-0.7,1-0.2,1.5
			c0.5,0.5,1,0.1,1.5-0.1c3-1.2,6-2.7,9.1-3.5c3.3-0.8,4.5-2.6,4.4-5.7C91.1,89,91.1,88.6,91.2,87.9z"/>
		<path fill="#ffffff" d="M617.8,165.4c5-2.6,9.5-5,14-7.3c2-1,4.3-2.4,6.2-0.1c1.9,2.3-0.1,4.3-1.4,6c-2.7,3.6-6.1,6.5-9.5,9.3
			c-7.8,6.2-16.2,11.4-25,15.9c-1.7,0.9-3.5,1.6-5.3,2c-8.1,1.9-15-2-17.5-9.9c-0.7-2.1-1-4.2-1.2-6.4c-0.6-9,0.1-18,1.9-26.8
			c0.4-2.3,1.4-4.3,3-6c1.1-1.2,2.4-1.8,3.9-1.2c1.5,0.6,1.8,1.8,1.9,3.3c0.7,9.9,2.2,19.7,3.5,29.5c0.5,3.6,1,3.7,4.5,2.6
			c0.2-0.1,0.4-0.1,0.5-0.2c2.4-1.1,5.2-1.7,7.1-3.3c2.2-1.8,0.4-4.7,0.4-7.1c-0.2-14.3,1.7-28.4,4.1-42.5c0.5-2.7,1.1-5.4,2.9-7.5
			c1.9-2.4,4-2.1,5.1,0.8c1.4,3.4,1.6,7.1,1.9,10.7c0.2,2.2,0.3,4.4,0.3,6.5c0,1.4,0.5,1.6,1.8,1.2c3.8-1.1,7.7-2.1,11.6-2.9
			c3.5-0.8,6.1,0.4,7,3.1c1,2.6-0.3,5.3-3.4,6.9c-5,2.5-9.9,5.3-15.5,6.5c-0.8,0.2-1.6,0.4-1.7,1.4
			C618.4,154.9,618.1,159.9,617.8,165.4z"/>
		<path fill="#ffffff" d="M327.8,95.8c-1.8,0-3.6,0.1-5.4-0.2c-1.6-0.3-2.7-1-3.2-2.6c-0.5-1.5,0-2.9,1.1-4c1.6-1.6,3.5-2.6,5.5-3.4
			c5.1-2.1,10.5-3.4,16-4.3c2.1-0.4,3.3-1,3.2-3.4c-0.1-1.6,0.2-3.3,0.8-4.8c0.6-1.3,1.5-2.3,3-2.4c1.6-0.1,2.5,0.9,3,2.3
			c0.4,1.1,1,2.3,1,3.4c0,3.2,1.6,3.9,4.5,3.7c2.5-0.2,5.1,0.1,7.6,0.7c2.9,0.7,4.7,2.8,4.7,5.3c0,2.9-1.7,4.5-4.3,5.3
			c-2.4,0.7-4.8,1.3-7.2,1.5c-2.8,0.2-3.7,1.2-3.5,4.2c0.7,10,0.9,20-1,29.9c-1.4,7.1-3.7,13.9-7.1,20.2c-1.1,2-2.4,3.9-4.4,5.1
			c-3.3,1.9-7.2,1-9.1-2c-2-3.1-1.3-7,1.8-9.1c1.1-0.7,1.6-1.6,2-2.8c5.2-13.5,7.2-27.5,7.7-41.9c0.1-1.7-0.6-2-2.1-1.9
			C337.4,95,332.6,95.4,327.8,95.8z"/>
		<path fill="#ffffff" d="M410.6,161c2.3-4,5.2-7.4,8.9-10.2c9.2-6.9,17.2-3.9,19.3,7.4c0.9,4.8,0.6,9.6-0.6,14.3
			c-0.4,1.9,0,2.5,1.9,2.9c4.6,1,7.5,4.3,7.7,8.4c0.2,4.1-2.6,7.7-7.1,9.2c-1,0.3-2.1,0.6-3.2,0.6c-3.2,0.2-6.2,1-9.2,2.3
			c-4.1,1.9-7.6,1.3-9.9-1.5c-2.3-2.8-2.3-6.6,0.5-10.3c4.1-5.3,7.2-11.1,8.4-17.8c0.5-2.7,0.8-5.4,0.4-8.1c-0.2-1.7-1-2.3-2.6-1.6
			c-5.7,2.6-9.4,7-11.8,12.6c-0.4,1.1,0,2.1,0.2,3.2c0.7,3.7,1.5,7.5,2.2,11.2c0.2,1.1,0.2,2.4,0,3.5c-0.2,2.5-1.3,4.4-4,4.8
			c-2.7,0.4-4.3-1.1-5.4-3.3c-0.6-1.2-1-2.5-1.3-3.9c-1.1-5.6-1.6-11.3-1.6-17.1c0-1.5,0.1-3.1,0.4-4.6
			C404.8,159,407.2,158.2,410.6,161z"/>
		<path fill="#ffffff" d="M597.4,78.1c1.4-0.4,1.9-1.4,2.6-2c3.6-3.3,7.7-5.8,12.5-6.9c10.2-2.4,17.8,4.2,16.8,14.6
			c-0.5,5.6-2.8,10.3-6.6,14.3c-0.6,0.6-1.1,1.2-1.6,1.8c0,0,0,0.2,0.1,0.5c2.3,0,4.6,0,6.9,0c1.3,0,2.7,0.3,2.9,1.9
			c0.3,1.6-0.9,2.4-2.2,2.7c-7.3,1.6-14.5,3.2-21.8,4.7c-2,0.4-3.9-0.3-4.7-2.4c-0.8-2.1,0.1-3.7,1.7-5c1.1-0.9,2.2-1.6,3.3-2.4
			c2.8-1.9,5.4-4.1,7.5-6.7c2.3-2.8,4-5.8,4.4-9.5c0.3-3.5-1-4.6-4.3-3.6c-3.8,1.2-7,3.4-10,6c-4.4,3.9-7.3,8.5-6.3,14.8
			c0.3,1.7,0.1,3.4,0,5.2c-0.2,2.2-1.3,3.8-3.6,4.2c-2.4,0.5-4.1-0.6-5.1-2.7c-1.1-2-1.6-4.3-2-6.5c-1.9-9.5-2.6-19.1-0.4-28.6
			c0.5-2,1.1-3.8,2.6-5.3c1.2-1.2,2.7-2,4.4-1.3c1.7,0.6,2.2,2,2.4,3.6C596.9,72.3,597.2,75.1,597.4,78.1z"/>
		<path fill="#ffffff" d="M501.1,67.1c-8.1,0-16.2,0-24.3,0c-1.6,0-3.3-0.2-4.9-0.4c-1.6-0.2-2.9-1.1-3.4-2.8
			c-0.5-1.7,0.1-3.2,1.4-4.4c1.7-1.6,3.8-2.5,5.9-3.3c3.2-1.2,6.6-2.1,10-2.6c2-0.3,2.6-1.2,2.7-3c0.1-3.1-0.2-6.2,0.6-9.2
			c0.3-1,0.5-2,0.9-2.8c1.1-2.2,3.4-3.2,5.5-2.3c2.1,0.9,2.9,3,1.8,5.5c-1.1,2.6-1.2,5.5-1.9,8.2c-0.4,1.7,0.2,2,1.8,1.9
			c3.7-0.3,7.4-0.6,11.1-0.8c8.6-0.4,17.1-0.2,25.5,1.3c4.8,0.9,7.2,3,7.2,6.2c0,3.2-2.3,5.1-7.4,5.8c-8.6,1.2-17.2,1.4-25.8,1.9
			c-2.3,0.1-4.5,0.2-6.8,0.4C501.1,66.7,501.1,66.9,501.1,67.1z"/>
		<path fill="#ffffff" d="M225.5,158.4c2-2.6,4.1-5,6.8-7c4.5-3.3,9.1-4.1,12.1-1.8c4,3.1,3.9,7.4,2.6,11.7
			c-0.8,2.7-0.4,3.4,2.4,3.8c3.4,0.4,5.5,2.7,5.9,5.5c0.5,3.3-1,5.7-3.8,7.2c-5.9,3.2-12.4,4.1-18.8,4.9c-2,0.3-3.8-1-5.2-2.4
			c-0.7,0.9-0.2,1.7-0.3,2.5c-0.3,2.3-1.3,4-3.8,4.3c-2.2,0.3-4.1-1.2-4.6-3.7c-0.5-2.4-0.7-4.8-1.1-7.3c-1-7.3-1.5-14.6-0.3-22
			c0.2-1.3,0.5-2.5,1.2-3.6c0.9-1.4,2.3-2.1,4-1.7c1.7,0.5,2.1,1.8,2.1,3.4c0,2,0,3.9,0,5.9C225,158.3,225.2,158.4,225.5,158.4z
			 M227.7,172.3c2-1.7,4-3,6.1-4.2c3.9-2.3,6.2-5.8,7.5-10c0.4-1.3,0.9-2.8-0.4-3.8c-1.2-0.8-2.5,0.2-3.4,1
			C231.9,159.6,229.1,165.6,227.7,172.3z"/>
		<path fill="#ffffff" d="M425.6,71.2c4.6-0.6,8.6-1.2,12.7-1.7c4.8-0.5,9.6-0.6,14.4,0.2c2.8,0.5,5,1.7,5.7,4.7
			c0.5,2.6-0.6,4.7-3.6,6.4c-2.6,1.5-5.2,3.2-8.3,1.3c-0.4-0.2-1.1,0-1.6,0c-14.3,1.8-28.6,3.7-43,5.5c-1.3,0.2-2.7,0.3-4.1,0.2
			c-1.8-0.1-3.4-0.8-4-2.7c-0.5-1.9,0.3-3.4,1.8-4.5c1.2-0.8,2.5-1.5,3.8-2.1c6.4-3,13.1-4.7,20-6.1c1.4-0.3,1.9-0.8,2.4-2.6
			c1.8-5.8,0.4-11.3-0.4-16.9c-0.4-3,1.2-5.2,3.7-5.4c2.5-0.2,4.7,1.9,4.7,4.9C429.7,58.8,429.6,65.2,425.6,71.2z"/>
		<path fill="#ffffff" d="M235.7,67.3c6-1,11.5-1.8,16.9-2.7c2.4-0.4,4.7-0.6,6.9,0.7c1.8,1.1,2.8,2.6,2.5,4.8
			c-0.3,2.2-1.8,3.4-3.8,3.6c-12.2,1.4-23.6,5.9-35.3,9c-3.9,1-7.7,2.3-11.6,2.8c-1.2,0.1-2.4,0.2-3.5,0c-2.9-0.5-3.9-3.3-2.1-5.6
			c1-1.3,2.4-2.2,3.8-3.1c5.4-3.5,11.5-5.5,17.5-7.4c1.6-0.5,2.3-1.2,2.6-3.1c0.7-4.8,0-9.4-0.8-14.1c-0.2-1.2-0.6-2.5-0.6-3.7
			c0-2.8,1.8-4.9,4.3-5.1c2.5-0.2,4.8,1.5,5,4.3C237.7,54.1,239,60.6,235.7,67.3z"/>
		<path fill="#ffffff" d="M490.5,102.8c1.2,0.4,2.2,0.7,3.2,1.1c1.2,0.5,2,1.4,1.8,2.7c-0.1,1.2-0.9,2.1-2,2.3
			c-4.3,0.9-8.5,2-12.8,2.3c-2.4,0.1-4.5-0.9-5.6-3.1c-0.6-1.1-0.9-1.5-2.4-1c-3,1.2-5.8-0.7-5.9-4c-0.2-6.3-0.1-12.5,0.9-18.7
			c0.1-0.8,0.4-1.6,0.8-2.3c0.6-1.1,1.5-1.8,2.8-1.8c1.3,0.1,2.2,0.8,2.6,2c0.3,0.7,0.4,1.4,0.7,2.1c1.3-0.3,2-1.4,2.9-2.1
			c4.5-3.3,9.7-3.8,13.5-1.3c3.9,2.6,5.4,7.6,4,13.2C494.1,97.4,492.4,100,490.5,102.8z M476.9,99.5c3.2-2.3,6.4-4.6,7.8-8.4
			c0.2-0.5,0.5-1.1,0-1.5c-0.5-0.4-1,0-1.5,0.3C479.9,92.2,477.9,95.5,476.9,99.5z"/>
		<path fill="#ffffff" d="M59.5,99c1.2,9-0.3,18-0.5,26.9c0,2-0.7,3.6-3,4c-2.4,0.3-3.9-1-4.4-3.1c-1.6-6.6-4.1-13-4.3-19.9
			C47,98.9,47.5,91,49.1,83.3c0.3-1.3,0.7-2.6,1.3-3.8c1-2,2.6-3.1,4.9-2.8c2.2,0.3,3.3,1.8,3.7,3.9c0.3,1.4,0.5,2.9,0.5,4.3
			C59.5,89.6,59.5,94.3,59.5,99z"/>
		<path fill="#ffffff" d="M512,82.6c0.8-1,1.4-1.7,2-2.3c2.4-2.6,5.4-3.7,8.9-2.7c3.4,1,5.3,3.7,6.1,7.1c0.5,2.4,0.5,4.9-0.3,7.3
			c-0.4,1.3-0.6,2.2,1.1,2.6c1.9,0.5,3.1,1.9,2.9,4.1c-0.2,2.1-1.6,3.2-3.6,3.6c-5.5,1.1-11.1,1.9-16.8,1.4
			c-2.8-0.3-4.3-2.3-4.7-4.6c-0.9-5.6-1.1-11.2,0.3-16.8c0.3-1.2,0.4-2.7,2.1-2.8C511.1,79.4,511.5,80.1,512,82.6z M512.6,95.6
			c4.2-0.5,6.2-3.8,9.1-5.6c1.8-1.1,1.7-5,0.2-6.1c-2.3-1.8-3.7,0.2-4.9,1.6C514.5,88.2,513.1,91.6,512.6,95.6z"/>
		<path fill="#ffffff" d="M220.5,133.4c-2.9-0.1-5.2-0.9-6.1-3.6c-0.9-2.7,0.2-4.8,2.4-6.4c2.8-2.1,5.9-3.5,9.2-4.7
			c5.2-1.8,10.6-3.1,16.1-3.9c3.6-0.5,6.4,0.9,7,3.6c0.7,2.7-0.9,5-4.4,6.2c-4.6,1.6-9.1,3.7-13.6,5.6
			C227.7,131.8,224.1,133.1,220.5,133.4z"/>
		<path fill="#ffffff" d="M219.8,113.5c-2.8-0.2-5.1-0.9-6-3.6c-0.9-2.7,0.3-4.8,2.4-6.4c3.3-2.5,7.1-4.1,11-5.3
			c4.3-1.4,8.9-2,13.3-2.7c2.5-0.4,4.8,0,5.9,2.7c0.9,2.2,0,4.4-3,6c-6.9,3.6-13.5,7.9-21.5,9C221.3,113.3,220.5,113.4,219.8,113.5z
			"/>
		<path fill="#ffffff" d="M411.7,135.8c-2.1-0.1-4-0.6-4.7-2.9c-0.7-2.3,0.3-4,2.3-5c8.4-4.3,17.2-7.4,26.5-8.9
			c2.7-0.4,4.9,1.2,5.5,3.5c0.6,2.3-0.4,4.7-2.9,5.5c-8.4,2.8-16.9,5.6-25.5,7.7C412.4,135.8,412,135.7,411.7,135.8z"/>
		<path fill="#ffffff" d="M412.1,115.1c-2-0.1-3.8-0.4-4.6-2.4c-0.8-2.1,0.4-3.7,2-4.9c5.5-3.9,11.9-5.2,18.5-5.7
			c2.2-0.2,4.4-0.4,6.5,0.1c2,0.4,3.3,1.7,3.2,3.8c0,2-1.3,3.5-3.1,3.5c-4.6,0.1-8.5,2.5-12.8,3.6
			C418.6,113.9,415.4,114.8,412.1,115.1z"/>
		<path fill="#ffffff" d="M325.2,103.3c4.7,0.1,12.3,5.5,13.7,9.7c0.7,2.2,0.5,4.3-1.1,6.1c-1.6,1.9-3.9,2.7-6.2,1.9
			c-4.5-1.7-8.7-4.2-11.4-8.4c-1.3-2-1.6-4.3-0.2-6.4C321.3,104,323.3,103.4,325.2,103.3z"/>
	</g>
</g>
<g id="_xFFFD__x9C__x96_撅_xFFFD__7_xA0_影像_1_">
</g>
<g id="_xFFFD__x9C__x96_撅_xFFFD__8_xA0_影像_1_">
</g>
<g id="_xFFFD__x9C__x96_撅_xFFFD__9_xA0_影像_1_">
</g>
<g id="_xFFFD__x9C__x96_撅_xFFFD__10_xA0_影像_1_">
</g>
<g id="_xFFFD__x9C__x96_撅_xFFFD__11_xA0_影像_1_">
</g>
<g id="_xFFFD__x9C__x96_撅_xFFFD__12_xA0_影像_1_">
</g>
<g id="_xFFFD__x9C__x96_撅_xFFFD__13_xA0_影像_1_">
</g>
<g id="_xFFFD__x9C__x96_撅_xFFFD__14_xA0_影像_1_">
</g>
<g id="_xFFFD__x9C__x96_撅_xFFFD__15_xA0_影像_1_">
</g>
<g id="_xFFFD__x9C__x96_撅_xFFFD__16_xA0_影像_1_">
</g>
<g id="_xFFFD__x9C__x96_撅_xFFFD__17_xA0_影像_1_">
</g>
</svg>
