<?xml version="1.0" encoding="utf-8"?>
<!-- Generator: Adobe Illustrator 18.0.0, SVG Export Plug-In . SVG Version: 6.00 Build 0)  -->
<!DOCTYPE svg PUBLIC "-//W3C//DTD SVG 1.1//EN" "http://www.w3.org/Graphics/SVG/1.1/DTD/svg11.dtd">
<svg version="1.1" xmlns="http://www.w3.org/2000/svg" xmlns:xlink="http://www.w3.org/1999/xlink" x="0px" y="0px"
	 viewBox="0 0 1158.1 261" enable-background="new 0 0 1158.1 261" xml:space="preserve">

<style>
	#title {
		filter:url(#dropshadow)
	}
</style>
<filter id="dropshadow" height="130%">
  <feGaussianBlur in="SourceAlpha" stdDeviation="8"/> <!-- stdDeviation is how much to blur -->
  <feOffset dx="2" dy="4" result="offsetblur"/> <!-- how much to offset -->
  <feComponentTransfer>
    <feFuncA type="linear" slope="0.2"/> <!-- slope is the opacity of the shadow -->
  </feComponentTransfer>
  <feMerge> 
    <feMergeNode/> <!-- this contains the offset blurred image -->
    <feMergeNode in="SourceGraphic"/> <!-- this contains the element that the filter is applied to -->
  </feMerge>
</filter>
<g id="title">
	<g>
		<path fill="#ffffff" d="M812.3,134.3c-0.9,12.7-2,25.8-4.2,38.8c-1.2,6.8-4.1,12.8-8.1,18.2c-1.1,1.5-2.3,2.8-3.9,3.8
			c-6.2,4-13.3,0.5-13.6-6.8c-0.3-6.3,1-12.5,1.7-18.7c0.3-3.1,0.9-6.1,1.3-9.2c0.1-0.7,0.5-1.6-0.2-2c-0.7-0.4-1.4,0.2-2,0.5
			c-3.5,1.8-6.9,3.7-10.5,5.3c-11,4.9-22.4,7.4-34.5,6.3c-6-0.6-11.6-2.1-16.7-5.5c-8.2-5.5-12.1-13.1-10.8-23.1
			c0.9-7.3,3.9-13.8,8.4-19.6c3.3-4.2,7.6-6.4,13.1-5.9c2,0.2,3.8,0.8,4.3,3.1c0.5,2.1-0.8,3.5-2.5,4.4c-2.3,1.3-3.6,3.3-4.4,5.7
			c-1.2,3.7-1.8,7.6-1.9,11.5c-0.1,4.4,1.3,6.6,5.5,8c5.5,1.9,11.1,1.4,16.7,0.7c1.6-0.2,1.6-1.4,1.7-2.6c0.7-7.4,1.1-14.9,2.2-22.2
			c1.6-10.2,3.8-20.4,6.3-30.4c0.7-2.9,1.6-5.8,3.2-8.4c1.4-2.2,3.3-3.5,5.9-2.9c2.5,0.5,3.4,2.5,3.8,4.8c1.2,7.2,0.3,14.3-0.4,21.5
			c-1.1,11.3-3.4,22.4-5.9,33.5c-0.8,3.6-0.7,3.8,2.8,2.9c5.1-1.2,10.2-2.7,15.3-3.8c2.4-0.6,3.7-1.7,4-4.3
			c0.6-4.5,1.7-8.9,3.3-13.2c1.1-2.9,2.5-5.7,5-7.7c5.8-4.8,13.4-2.2,14.9,5.1C813,126,812.5,129.9,812.3,134.3z"/>
		<path fill="#ffffff" d="M931.1,106.3c10.8,0,21.6,0.4,32.4,2c1.9,0.3,3.8,0.6,5.5,1.5c2.6,1.4,4.2,3.4,4.2,6.5
			c0,3-1.7,5.2-4.3,6.4c-2.7,1.2-5.5,1.8-8.4,2.2c-21.8,2.6-43.7,2.9-65.5,4.8c-5.4,0.5-10.9,1.1-16.3,1.5c-2.6,0.2-5.3,0.2-7.8-0.6
			c-3.8-1.2-6.3-4.1-6.5-7.6c-0.2-3.5,1.8-6.6,5.6-8.2c5.2-2.1,10.8-3.2,16.3-4.5c5.7-1.4,9.5-4.7,11.2-10.4c0.6-2,0.3-2.7-1.9-2.1
			c-1.3,0.4-2.7,0.5-4,0.6c-2.5,0-4.7-0.7-5.9-3.2c-1.2-2.6-0.3-4.8,1.5-6.7c2.4-2.6,5.6-3.9,8.9-5.2c5.1-2,6.2-3.8,6-9.2
			c-0.1-2.1-1.5-1.4-2.5-1.4c-8,0.6-15.9,2-23.8,3.1c-2.2,0.3-4.5,0.6-6.8,0.5c-3.8-0.1-5.4-3.2-3.6-6.5c1.6-2.8,4.3-4.4,7.1-5.8
			c9-4.4,18.5-7,28.4-8.5c3.5-0.5,5.5-1.7,5.7-5.3c0-0.4,0.2-0.7,0.3-1c1.3-4.3,4-6.6,7.5-6.3c3.5,0.3,5.8,2.8,6.2,7.4
			c0.2,2.1,1.1,2.5,2.9,2.3c6-0.6,12-0.4,18,0.1c1.7,0.1,3.4,0.4,5,1.1c2.4,1.1,4.1,2.8,4.2,5.5c0.2,2.7-1.2,4.7-3.4,6.1
			c-1.8,1.1-3.8,1.6-5.9,2.1c-6.5,1.5-13,2.9-19.6,3.3c-2.2,0.1-3.1,1-3.4,3.2c-0.7,5.4-0.8,5.3,4.8,5.7c2.6,0.2,5.3,0.3,7.9,0.8
			c3.2,0.6,5,2.7,4.9,5.3c-0.1,2.5-1.8,4.3-5.1,4.8c-4.8,0.7-9.5,1.7-14.1,2.9c-1.6,0.4-2.5,1.2-2.9,2.8c-0.8,3.1-1.9,6.1-3.6,8.8
			c-1.2,1.9-0.5,2.3,1.4,2.2C918,106.9,924.6,106.6,931.1,106.3z"/>
		<path fill="#ffffff" d="M888.6,153.1c1-2,1.7-3.5,2.5-5c3.5-6.6,8.5-11.7,15.5-14.8c10.1-4.5,19.6-1.1,24.5,8.8
			c3.2,6.4,4.4,13.3,4.4,20.3c0,16.4-3,32.2-10.4,46.9c-1.5,2.9-3,5.8-5.4,8.1c-4.7,4.5-10.8,3.9-14.4-1.6c-2.1-3.2-3.3-6.7-4-10.4
			c-0.4-2.2-0.1-4.3,2.3-5.2c2.4-0.9,4,0.4,5.3,2.2c0.8,1.1,1.3,3.2,2.5,2.9c1.5-0.3,1.5-2.5,1.9-3.9c1.5-4.9,1.5-4.8-3.4-4.7
			c-6.4,0.1-12.7,0.5-19.1-0.4c-1.9-0.2-2.2,0.6-2.2,2.1c-0.2,5.2-0.5,10.3-0.8,15.5c-0.3,4.5-0.9,8.9-2,13.2
			c-0.9,3.4-2.6,5-5.2,5.1c-2.7,0-4.6-1.7-5.5-5.1c-1-4.1-1.4-8.3-1.4-12.4c-0.4-19.3,0.6-38.5,3.3-57.6c0.2-1.6,0.6-3.2,1.2-4.7
			c0.8-2.1,2.2-3.6,4.6-3.8c2.3-0.2,3.8,1.1,4.8,3C887.8,151.9,888.1,152.3,888.6,153.1z M890.5,165.6c2.6-2.3,5.5-3.8,8.7-5
			c5.7-2,11.4-2.9,17.4-2c2.2,0.3,2.8-0.4,2.5-2.4c-0.3-2.8-0.7-5.6-1.6-8.3c-1.4-4.2-3.3-5.3-7.4-3.7
			C900.1,148.1,894.3,156,890.5,165.6z M890,171.8c-0.3,0.1-0.6,0.2-0.9,0.4c0,3.5,0.1,7,0,10.6c-0.1,2.3,0.5,2.5,2.6,1.7
			c6.6-2.5,13.4-4,20.5-4.1c5.8-0.1,5.7,0,6-5.8c0.1-1.8-0.4-2.6-2.3-2c-5.7,1.7-11.7,1.5-17.6,1.9
			C895.2,174.6,892.2,174.4,890,171.8z"/>
		<path fill="#ffffff" d="M673.6,181.5c0.4,10.1-3,21.4-7,32.6c-1,2.9-2.7,5.6-5.1,7.6c-3.6,3-8.2,3.6-12.2,1.5
			c-4-2.1-6.7-7-6.3-11.3c0.3-2.8,1.6-4.9,4.4-5.6c1.5-0.4,2.4-1.1,2.6-2.7c1.3-12.7,2.7-25.5,1.4-38.3c-0.6-5.9-2.8-7.9-8.7-8.7
			c-4.3-0.6-8.5-0.1-12.8,0.6c-17.4,2.9-33.2,9.9-48,19.2c-0.6,0.4-1.2,0.9-1.8,1.2c-5.8,3.5-8.9,8-7,15.3c1.1,4.2,0.5,8.7-0.5,13
			c-0.8,3.5-2.7,5.4-5.5,5.5c-2.7,0.1-4.8-1.4-6-4.7c-0.6-1.5-1-3.1-1.3-4.7c-1.4-9.5-0.8-19,1.1-28.4c0.3-1.6,0.9-3.1,1.9-4.5
			c1.6-2.1,3.8-2.6,5.9-1.1c1.1,0.8,1.7,0.9,2.7-0.1c7-7.5,15.7-12.6,25-16.8c12.7-5.8,25.9-10,40-11c5.1-0.4,10.2,0,15.2,1.2
			c9.7,2.4,16.1,8.4,19.2,17.9C673.1,165.9,673.6,172.7,673.6,181.5z"/>
		<path fill="#ffffff" d="M138.9,155.8c4.8,0.1,9.4,1.4,13.7,3.3c2.1,0.9,3.5,0.5,5-1.1c3.7-4,7.4-8,11.8-11.3
			c3.1-2.3,6.4-4.1,10.5-3.8c3.8,0.3,4.9,1.6,3.9,5.3c-1.8,6.9-5.5,12.8-9.2,18.8c-2.1,3.3-2.2,3.4,1,5.8c7,5.2,12.4,12,17.7,18.8
			c2.2,2.8,2.9,6,2.1,9.5c-1.7,6.5-8.6,9-14.8,5.1c-6.8-4.2-13.7-8.3-19.9-13.3c-3.1-2.5-3.3-2.5-5.8,0.6
			c-8.8,10.8-19.1,19.9-29.6,28.9c-0.7,0.6-1.4,1.1-2.2,1.6c-3.4,2-6.9,1.8-9.4-0.5c-2.4-2.2-3.1-5.9-1.6-9.3c0.4-1,1-1.9,1.7-2.8
			c7.7-10.4,15-21,23.7-30.6c2.2-2.5,2.1-2.5-0.7-4.5c-1.8-1.3-3.6-2.5-5.2-3.9c-3.2-2.6-4.9-5.9-3.5-10.1c1.4-4.2,4.8-5.7,8.8-6.2
			C137.4,155.8,138.2,155.8,138.9,155.8z"/>
		<path fill="#ffffff" d="M474.7,172.3c-4-0.1-8.1-0.1-12.3,0.2c-2.1,0.1-4.2,0.3-6.3,0.1c-5-0.5-8.8-3-10.4-7.9
			c-1.7-5-0.3-9.4,3.7-12.8c2.8-2.4,6.1-4.3,9.1-6.5c7.2-5.1,12.3-11.8,14.8-20.3c0.8-2.7,1.2-5.5,1-8.3c-0.4-6.1-2.5-7.9-8.5-7.5
			c-7.5,0.5-14.3,3.3-20.9,6.6c-1.1,0.5-2.1,1.2-3.1,1.6c-3.5,1.5-6.5-0.7-6.4-4.4c0.1-1.8,0.7-3.4,1.7-4.8c1.3-2,2.9-3.8,4.7-5.2
			c7.9-6.1,16.7-10,26.6-10.9c11.5-1,20.7,4.9,24.6,15.8c3.4,9.4,2.5,18.8-1,28c-1.3,3.4-3,6.6-5,9.6c-1,1.5-0.8,2.1,1,2.6
			c4.4,1.1,8.8,2.5,12.6,5c6.3,4.2,7,12.3,1.5,16.9c-1.8,1.5-3.9,2.3-6.2,2.6c-4.1,0.6-8.2,0.4-12.2,0.2
			C480.7,172.8,477.8,172.6,474.7,172.3z"/>
		<path fill="#ffffff" d="M49.9,110.7c1.5-0.4,1.6-1.5,2.2-2.3c3.8-5.8,9.1-9.6,15.6-11.8c8.9-2.9,16.9,0.4,21.2,8.7
			c4.7,9.3,4.7,18.9,1.1,28.5c-1.1,2.9-2.5,5.6-3.9,8.4c-1,2-1.7,3.9-2.1,6.1c-0.6,3.7-3.2,6.3-6.2,7.9c-5.1,2.6-9.3,6.3-13.8,9.7
			c-1.4,1.1-2.8,2.1-4.4,2.7c-5.3,2-10.1-1.4-9.9-7.1c0.1-3.3,1.8-5.8,4.2-7.9c2.6-2.3,5.7-3.8,9.1-4.8c1.6-0.5,2.4-1.2,2.1-3.1
			c-0.4-2.6,0.2-5.1,1.2-7.5c2.6-6.7,3.4-13.7,4.2-20.8c0.1-0.9,0.6-2.2-0.5-2.8c-1-0.6-1.9,0.3-2.8,0.7c-2.7,1.4-5.1,3.2-7.4,5.1
			c-2.3,2-4.8,2.9-7.7,1.1c-1.3-0.8-1.7-0.2-1.6,1c0.6,9.9-1.5,19.5-1.8,29.3c-0.1,1.9-0.1,3.8-0.7,5.7c-0.7,2.2-2.1,3.6-4.4,4
			c-2.3,0.4-4.1-0.5-5.5-2.3c-1.1-1.3-1.6-2.8-2-4.4c-4.4-16.2-4.7-32.6-2.1-49.2c0.5-2.9,1.1-5.7,2.6-8.3c1.3-2.2,3.2-3.8,5.9-3.7
			c2.8,0.2,4.3,2,5.4,4.4c1,2.4,1.4,4.9,1.7,7.4C49.5,107.3,49.7,109,49.9,110.7z"/>
		<path fill="#ffffff" d="M145.5,69.5c0,2.6,0,5.3,0,7.9c0,2.2,0.9,2.6,2.9,2.1c8.2-1.9,16.5-2.8,24.7-4.2c1.2-0.2,2.5-0.4,3.8-0.3
			c3.7,0.1,6.5,1.8,8,5.2c1.5,3.5,0.8,6.8-1.6,9.7c-1.3,1.5-2.9,2.4-4.6,3.3c-19.2,9.2-39.4,15.3-60.1,20.1c-2.6,0.6-5.2,1-7.8,0.8
			c-7.7-0.6-11.5-8.3-7.2-14.8c1.8-2.8,4.5-4.7,7.3-6.4c5.3-3.2,11-5.6,16.9-7.5c2.1-0.7,2.8-1.8,2.6-4c-0.3-5.6-0.5-11.2-1.6-16.8
			c-0.5-2.6-0.6-5.2,0.2-7.8c1-3.2,3.1-5.4,6.5-5.8c3.4-0.5,6,1.1,7.8,3.9c2,3,2.2,6.5,2.2,10c0,1.5,0,3.1,0,4.6
			C145.3,69.5,145.4,69.5,145.5,69.5z"/>
		<path fill="#ffffff" d="M622.2,81.9c-16.7-0.4-33.2,0.9-49.7,3.5c-0.5,0.1-1.1,0.2-1.6,0.2c-5.3,0.8-8.5-0.5-10-4
			c-1.5-3.5,0.1-7.4,4.3-10.5c3.9-2.9,8.4-4.6,13.1-6c6.4-2,13-3.3,19.7-4c2.2-0.2,3-1.1,2.9-3.3c-0.1-2.6,0-5.3,0.9-7.8
			c0.9-2.4,2.3-4.3,4.8-5.2c4.2-1.6,7.6,1,7.1,5.4c-0.2,2.3-0.6,4.5-1.1,6.7c-0.6,2.2,0.2,2.7,2.3,2.5c8.6-0.6,17.2-1.1,25.8-1.6
			c4.9-0.3,9.6,0,14.2,1.7c4.5,1.7,7.7,4.5,8,9.6c0.3,4.4-2.5,8.1-7.5,10.3c-4.7,2-9.6,2.4-14.7,2.4
			C634.5,81.9,628.4,81.9,622.2,81.9z"/>
		<path fill="#ffffff" d="M1125,174.2c-0.1,3.1-2.1,5.7-5.8,6.7c-5.1,1.4-10.2,2.5-15.4,3.7c-6.1,1.4-12.2,2.8-18.4,4
			c-2.3,0.4-3,1.4-3,3.6c0.3,11.3-2.2,22-6.6,32.3c-0.4,1-0.9,2-1.6,2.9c-1.2,1.5-2.8,2-4.6,1.6c-1.8-0.4-2.8-1.5-3.4-3.2
			c-0.4-1.2-0.4-2.5-0.3-3.8c0.5-8.9,0.9-17.8,2.5-26.6c0.6-3.4,0.5-3.5-2.9-2.8c-10.6,2.2-21.2,4.4-31.8,6.5
			c-1.8,0.4-3.6,0.5-5.4,0.5c-1.8,0-3.5-0.6-4.2-2.4c-0.8-1.9-0.2-3.6,1.1-5c2.2-2.4,5-3.9,7.9-5.3c9.9-4.8,20.4-8.3,30.9-11.6
			c0.2-0.1,0.3-0.1,0.5-0.1c5-0.5,8.1-2.7,8.2-8.3c0-2.2,1.4-4,4-4c2.5-0.1,3.7,1.6,4.5,3.7c1.5,4,1.5,4,5.7,3.4
			c9.6-1.4,19.3-2,29-2.7c1.6-0.1,3.3,0,4.8,0.6C1123.4,169,1125.1,171.4,1125,174.2z"/>
		<path fill="#ffffff" d="M1038.1,93.8c-3.4,3.6-6.6,6.6-9.3,10c-4.8,5.8-9.9,11.4-12.8,18.5c-1.2,2.9-4.9,4.1-7.6,2.9
			c-2.7-1.2-3.7-4.3-2.5-7.4c0.8-1.9,2-3.4,3.3-5c6-7.4,13-14,20.3-20.1c0.7-0.5,2.3-1.2,1.4-2.1c-0.9-0.8-2.3-2.3-4-0.8
			c-1.3,1.1-2.8,2-4.3,2.8c-1.8,0.9-3.6,0.7-5-0.7c-1.6-1.6-1.5-3.4-0.6-5.3c0.8-1.8,2.3-3.1,3.9-4.1c1.9-1.1,3.8-2.1,5.7-3.2
			c2.7-1.5,5.4-2.3,8.2-0.5c2.8,1.8,2.6,4.5,1.9,7.6c1.6-0.2,2.3-1,2.4-2.2c0.4-6.7,1.3-13.4,0-20.1c-0.9-4.4-2.1-5.2-6.4-3.9
			c-2,0.6-3.9,1.4-5.6,2.7c-1.7,1.3-3.5,1.6-5.2,0.2c-1.8-1.5-1.8-3.4-1-5.5c0.1-0.3,0.2-0.5,0.4-0.7c6.6-11.4,24.8-11.7,31.4-0.5
			c5,8.4,5.6,17.8,5,27.2c-0.6,8.1-3.1,15.9-5.8,23.5c-2,5.7-7.2,8.2-12.1,6.4c-4.5-1.7-5.9-5.8-3.5-9.9
			C1037.8,100.8,1038.4,97.9,1038.1,93.8z"/>
		<path fill="#ffffff" d="M1040.7,142.4c-1.6-0.2-3.1-0.4-4.5-1.1c-3.7-1.7-4.6-5.9-1.9-9.1c1.7-2.1,4-3.3,6.5-4.4
			c6.9-3.1,13.9-6,21.2-7.8c2.6-0.6,3.8-2.1,4.2-4.6c0.5-3,0.3-6,0-9c-0.2-1.4-0.4-2.9,0.1-4.3c0.8-2.7,3.4-4.3,6.1-3.8
			c2.6,0.5,4.1,2.7,3.7,5.8c-0.5,3.4-1.1,6.8-1.9,10.2c-0.6,2.3,0,2.6,2.2,2.2c10.8-1.8,21.7-3.2,32.8-2.9c2.4,0.1,4.7,0.1,7,0.8
			c3,1,5.1,2.8,5.5,6.1c0.4,3.4-1.3,5.8-4.2,7.3c-3.8,1.9-7.9,2.9-12.2,3.8c-14.8,2.9-29.7,4.9-44.6,7.7
			C1054,140.3,1047.4,141.3,1040.7,142.4z"/>
		<path fill="#ffffff" d="M293.2,164.4c-7.3,0.5-12.5,1.1-17.8,0.7c-2-0.1-4-0.3-5.8-1.2c-4-2-4.6-6.7-1.3-9.7
			c1.3-1.2,2.9-1.9,4.5-2.5c20.9-7.5,42.1-13.3,64.5-13.3c2.2,0,4.4-0.1,6.5-0.1c5.9,0,9.9,3,10.5,7.8c0.7,5-2.4,8.9-8.2,10.5
			c-12.7,3.5-25.7,5.7-38.9,6.6C301.8,163.7,296.5,164.2,293.2,164.4z"/>
		<path fill="#ffffff" d="M1117.7,65.7c-0.2,10.2-1.9,19.9-8.2,28.3c-1.7,2.3-3.5,4.5-5.8,6.1c-7,5-14.8,1.5-15.7-7.1
			c-0.4-3.7-0.5-3.8-4.1-2.5c-1.5,0.5-2.9,1.2-4.4,1.5c-2.7,0.6-4.9-0.6-5.5-2.8c-0.7-2.3,0.5-4.8,3.3-5.4c5.1-1,10.3-2.9,15.1,1
			c0.8,0.6,1.2,0.2,1.4-0.5c1-4,2.5-7.8,2.6-11.9c0.1-2.1-0.6-3.1-2.9-2.1c-2.3,0.9-4.6,1.6-7.1,1.9c-2.1,0.3-4.1-0.1-5.2-2.1
			c-1.2-2.1-0.6-4.1,0.7-5.8c2.1-2.7,5.1-3.6,8.3-4.1c2-0.3,4-0.3,6-0.2c0.9,0,2.3,0.8,2.7-0.4c0.5-1.6,0.5-3.5-0.4-5
			c-0.7-1.2-2-0.4-3-0.2c-0.4,0.1-0.9,0.3-1.3,0.4c-2.2,0.6-4.2,0.6-5.6-1.4c-1.4-2.1-0.9-4.2,0.4-6.1c5-7.5,16.3-8.4,22.6-1.8
			c3.2,3.4,4.7,7.7,5.5,12.3C1117.6,60.3,1117.8,63,1117.7,65.7z"/>
		<path fill="#ffffff" d="M631.2,183.6c0,3-0.9,5.7-2.5,8.3c-1.6,2.6-1.6,2.6,1.5,3.4c1.1,0.3,2.1,0.6,3.1,0.9
			c3.3,1.3,5.1,3.5,5,6.4c-0.1,3.3-2.1,5.1-4.9,6.2c-2.9,1.1-6,1.7-9,2c-6.6,0.5-13.2,1.3-19.7,2.5c-1.8,0.3-3.6,0.4-5.4-0.2
			c-5.2-1.6-6.9-7.5-3.1-11.5c1.1-1.1,1.3-1.9,0.9-3.5c-1.4-6.7-1.1-14,3.8-18.5c5.1-4.6,11.6-8.9,19.5-7.9
			C626.9,172.6,631.1,177.4,631.2,183.6z M609.2,194.1c2.9-1.9,4.9-4.3,6.4-7.2c0.5-1,0-1.3-1-1.1
			C611.4,186.5,608.9,190.1,609.2,194.1z"/>
		<path fill="#ffffff" d="M91.5,171.6c0-2.7,1-5,2.6-7c10.4-13.2,19.8-27.2,31-39.7c2-2.2,4-4.5,6.1-6.6c1.3-1.3,2.7-2.4,4.2-3.5
			c3.2-2.2,6-2.4,7.8-0.7c2.5,2.3,1.6,4.9,0.6,7.5c-5.8,15.2-14.5,28.6-25.8,40.3c-4.5,4.6-9,9.2-13.1,14.2
			c-2.5,3.1-5.8,3.9-8.7,2.8C93.4,177.9,91.5,175,91.5,171.6z"/>
		<path fill="#ffffff" d="M629.5,117.9c2.3-0.1,4.6-0.2,6.7,1c2.2,1.2,3.4,3,3.1,5.6c-0.3,2.4-1.9,3.9-4.1,4.1
			c-11.2,1.3-22.1,4.4-33.2,6c-4.2,0.6-7.2-1.9-10.6-3.6c-0.5-0.3-1-1.2-1-1.8c-0.7-6.3-1.8-12.6,0-18.9c1-3.6,2.2-7.1,6.9-7.1
			c0.7,0,1.4-0.7,2.2-1.1c4.7-2.7,9.8-4.5,15.2-4.6c10.1-0.1,15.5,7.9,11.7,17.2c-1.4,3.5-1.4,3.5,2.4,3.3
			C629,118,629.2,117.9,629.5,117.9z M611.5,110.7c-3.6,0.4-7.1,1.4-10.6,2.5c-0.5,0.2-1.1,0.4-1.2,1c-0.4,1.9-0.7,3.7-1,5.6
			c-0.1,0.7,0.3,0.9,1,0.9c3.9,0.2,11.6-4.7,13.1-8.2C613.5,110.9,612.9,110.5,611.5,110.7z"/>
		<path fill="#ffffff" d="M410,130.6c0-7.2-0.3-14.9,0.7-22.6c0.2-1.8,0.5-3.6,1.3-5.3c0.8-1.6,1.9-2.9,3.9-2.9c2.1,0,3,1.5,3.5,3.2
			c1.5,4.6,2.3,9.3,3.1,14.1c2.7,16.9,5.7,33.7,7.6,50.6c0.4,3.2,0.5,6.5,0.5,9.8c0,4-2.1,6.8-5.4,7.6c-3.4,0.8-6.8-0.8-8.5-4.4
			c-3-6.3-4-13.2-4.9-20C410.7,150.9,410.2,141,410,130.6z"/>
		<path fill="#ffffff" d="M190.2,119.9c4.7,0.2,10.5,2.1,16.1,4.6c3.7,1.6,5.5,5.3,5,9.2c-0.5,4.1-2.8,6.9-6.7,8.1
			c-2.7,0.9-5.3,0.6-7.3-1.6c-1.2-1.4-2.6-1.8-4.3-1.9c-2.7-0.2-5.4-0.6-8-1.4c-2.6-0.9-5.1-2-7.1-3.9c-3.7-3.5-3.3-7.7,0.9-10.5
			C181.9,120.4,185.3,119.8,190.2,119.9z"/>
		<path fill="#ffffff" d="M1106.2,158.8c-2.8,0.1-6,0.8-9.3,0.4c-8.3-1.1-11.3-7.2-7-14.3c2.6-4.2,5.8-7.9,9.8-10.9
			c2.8-2.1,5.8-2.1,8-0.2c2.1,1.8,2.4,4.5,0.7,7.7c-0.8,1.4-1.6,2.9-2.6,4.2c-1.4,1.8-0.6,2.3,1.2,2.4c1.5,0.1,3.1,0.3,4.6,0.7
			c2,0.5,3.5,1.7,3.8,3.8c0.4,2.3-0.8,3.8-2.7,4.9C1110.8,158.6,1108.8,159.1,1106.2,158.8z"/>
		<path fill="#ffffff" d="M1049.2,144.1c3.8-0.1,6.2,2.8,5.2,6.5c-0.9,3.3-2.7,6.2-4.5,9c-3.1,4.7-6.5,9.2-9.4,14.1
			c-1.8,3.1-5.4,4.1-8.3,2.6c-2.9-1.4-4.2-4.9-2.5-8.2c3.6-7.1,7.5-14.1,12.7-20.3C1044.2,145.6,1046.4,144.2,1049.2,144.1z"/>
		<path fill="#ffffff" d="M1064,162.2c-0.2,0-0.7-0.1-1.1-0.2c-4.5-1.2-8.7-10.6-6.5-14.8c1.8-3.5,6.7-3.5,9-0.1
			c0.9,1.3,1.2,2.8,1.3,4.4c0,1,0.2,2,1.2,2.5c2,1.1,3,2.6,2.2,4.9C1069.3,161,1066.7,162.3,1064,162.2z"/>
	</g>
</g>
<g id="_xFFFD__x9C__x96_撅_xFFFD__10_xA0_影像_1_">
</g>
<g id="_xFFFD__x9C__x96_撅_xFFFD__11_xA0_影像_1_">
</g>
<g id="_xFFFD__x9C__x96_撅_xFFFD__12_xA0_影像_1_">
</g>
<g id="_xFFFD__x9C__x96_撅_xFFFD__13_xA0_影像_1_">
</g>
<g id="_xFFFD__x9C__x96_撅_xFFFD__14_xA0_影像_1_">
</g>
<g id="_xFFFD__x9C__x96_撅_xFFFD__15_xA0_影像_1_">
</g>
<g id="_xFFFD__x9C__x96_撅_xFFFD__16_xA0_影像_1_">
</g>
<g id="_xFFFD__x9C__x96_撅_xFFFD__17_xA0_影像_1_">
</g>
</svg>
