<?xml version="1.0" encoding="utf-8"?>
<!-- Generator: Adobe Illustrator 18.0.0, SVG Export Plug-In . SVG Version: 6.00 Build 0)  -->
<!DOCTYPE svg PUBLIC "-//W3C//DTD SVG 1.1//EN" "http://www.w3.org/Graphics/SVG/1.1/DTD/svg11.dtd">
<svg version="1.1" xmlns="http://www.w3.org/2000/svg" xmlns:xlink="http://www.w3.org/1999/xlink" x="0px" y="0px"
	 viewBox="0 0 1134.1 237" enable-background="new 0 0 1134.1 237" xml:space="preserve">

<style>
	#title {
		filter:url(#dropshadow)
	}
</style>
<filter id="dropshadow" height="130%">
  <feGaussianBlur in="SourceAlpha" stdDeviation="8"/> <!-- stdDeviation is how much to blur -->
  <feOffset dx="2" dy="4" result="offsetblur"/> <!-- how much to offset -->
  <feComponentTransfer>
    <feFuncA type="linear" slope="0.2"/> <!-- slope is the opacity of the shadow -->
  </feComponentTransfer>
  <feMerge> 
    <feMergeNode/> <!-- this contains the offset blurred image -->
    <feMergeNode in="SourceGraphic"/> <!-- this contains the element that the filter is applied to -->
  </feMerge>
</filter>
<g id="title">
	<g>
		<path fill="#ffffff" d="M753.2,65.3c0,2.1,0.1,4.2,0,6.3c-0.1,3.6-0.1,3.6,3.6,3.2c2.1-0.2,4.2-0.5,6.2-0.5c4,0,7.3,1.5,9.1,5.3
			c1.8,3.9,1,7.5-1.7,10.7c-4.8,5.6-10.7,9.8-17.9,12c-2.5,0.7-3.6,2-3.9,4.5c-0.3,2.7-1,5.4-1.6,8c-0.4,1.8-0.1,2.7,2,2.1
			c8.3-2.1,16.7-3.7,25.1-5.2c0.5-0.1,1.2-0.2,1.5-0.5c2.9-3.2,6.6-1.9,10-1.6c2.6,0.2,4.7,1.4,5.6,4.1c0.8,2.7,0.1,5-1.9,7
			c-2,2-4.5,3-7.1,4c-10.5,4.2-21.3,7.4-32.2,10.2c-0.6,0.2-1.2,0.3-1.8,0.5c-0.7,0.2-1.6,0.2-1.8,1c-0.2,0.8,0.6,1.2,1.2,1.7
			c0.8,0.7,1.7,1.4,2.5,2.1c9,6.9,16.9,14.8,24.5,23.2c6.1,6.8,10.7,14.4,14.6,22.6c0.9,1.9,1.6,3.9,1.6,6
			c-0.2,5.8-5.7,9.1-10.9,6.4c-2.1-1.1-3.8-2.8-5.5-4.4c-10.2-9-18.4-19.8-27.5-29.8c-2.7-3-5.3-6-8-8.9c-1.9-2-2.1-2-3.1,0.7
			c-2.2,6.1-4.5,12.1-7.1,18c-4.3,10-10.2,19.1-16.1,28.1c-0.5,0.8-1.1,1.4-1.8,2.1c-2.3,2-5.2,2.4-7.5,1c-2.3-1.4-3.4-4.3-2.8-7.1
			c0.5-2.1,1.8-3.8,2.6-5.7c6.9-15.6,14.3-31,19.9-47.2c0.3-1,1.3-2.1,0.3-3c-0.8-0.7-1.9,0-2.8,0.3c-7.2,1.9-14.4,3.9-21.6,5.8
			c-1.2,0.3-2.5,0.6-3.7,0.8c-2.3,0.4-5,1-6.2-1.8c-1.2-2.7,0.7-4.5,2.5-6c3.8-3.3,8-5.9,12.5-8.2c7.5-3.8,15.2-7,23.1-9.7
			c2.2-0.7,3.3-1.9,3.8-4.1c0.8-3.7,1.8-7.4,2.8-11.1c0.5-1.9-0.1-2.7-2.1-2.7c-5.1,0-10.1-0.7-14.9-2.9
			c-10.7-4.8-14.5-14.5-9.8-25.2c1.7-3.8,3.7-7.3,6.4-10.4c1.2-1.4,2.5-2.7,4.1-3.5c2.5-1.3,5.3-1,7.1,0.8c1.9,1.8,2.4,4.5,1.1,7
			c-1.3,2.5-2.7,4.9-3.7,7.6c-1,2.8-0.6,3.3,2.2,3.2c4.6-0.1,9-1.1,13.4-2.3c1.9-0.5,2.2-1.9,2.4-3.5c1.4-8.5,2.2-17.1,3-25.7
			c0.1-1.3,0.3-2.5,0.6-3.8c0.4-1.5,1.4-2.6,3-2.8c1.6-0.2,2.8,0.5,3.8,1.7c1,1.3,1.4,2.7,1.7,4.3C753.2,54.9,753.5,60.1,753.2,65.3
			z"/>
		<path fill="#ffffff" d="M863.1,130.1c-1.1-0.7-2,0-2.9,0.2c-4.2,1-8.3,2-12.6,2.2c-4.4,0.2-7.2-1.3-8.2-4.3
			c-1.1-3.1,0.3-6.3,3.8-8.8c3.1-2.2,6.7-3.7,10.3-5c3.8-1.4,7.7-2.7,11.6-3.9c1.7-0.5,2.6-1.4,2.6-3.3c0-2.6,0.1-5.3,0.3-7.9
			c0.1-1.8-0.7-2.4-2.4-2.2c-4.9,0.5-9.8,1-14.7,0.9c-3.3-0.1-6.8-0.2-8.3-3.9c-1.5-3.8,0.2-6.9,2.8-9.6c4.5-4.6,10.2-7.2,16.1-8.7
			c5.3-1.3,9-3.4,9.7-9.3c0.2-1.9,1.4-3.7,2.9-5.2c1.2-1.2,2.6-1.8,4.2-1.3c1.7,0.5,2.4,1.8,2.6,3.5c0.2,1.7,0.4,3.4,0.5,5.2
			c0.1,0.7,0,1.5,0.8,1.9c1.1,0.7,7.4-0.3,8.2-1.4c1.6-2.2,3.7-2.5,6.1-1.8c1.7,0.5,3.3,1,4.9,1.7c3.3,1.4,5.7,3.6,6,7.4
			c0.3,3.8-1.4,6.8-4.5,8.7c-6.7,4.2-13.7,8-21.6,9.5c-2.5,0.5-3.6,1.6-3.8,4.1c-0.1,2.2-0.6,4.3-0.9,6.5c-0.2,1.6,0.4,2.3,2,1.8
			c6.6-2,13.5-2,20.3-1.7c1.6,0.1,3.3,0.1,4.9,0.6c4.1,1.2,5.4,5.8,2.4,8.8c-2.5,2.5-5.4,4.6-9.3,4.5c-1.9,0-3.4,1.3-5.1,1.8
			c-16.3,4.9-21.6,18.7-26.7,32.7c-1,2.9-0.1,4.1,3,4.4c4.8,0.5,9.5-0.1,14.1-1.2c4.6-1.2,8.9-3,13.3-5c1.8-0.8,2.6-2,2.5-4
			c-0.1-2.7,0-5.5,0.5-8.2c0.7-3.6,2.8-5.9,5.7-6.1c2.8-0.2,5.1,1.6,6.3,5c0.5,1.4,0.9,2.8,1.1,4.2c2.4,17,3.5,34.2,2.8,51.4
			c-0.1,3.6-0.8,7.2-1.9,10.7c-1.2,3.8-3.8,5.9-6.9,5.9c-3.2-0.1-5.7-2.3-6.7-6.1c-1.2-4.7-1.6-9.5-1.6-14.3
			c0-6.7,0.1-13.5,0.2-20.2c0-3.2-0.2-3.3-2.9-2c-3.8,1.9-7.7,3.8-11.6,5.5c-5.7,2.5-11.6,3.8-17.8,2.7
			c-11.2-1.9-17.6-11.3-15.1-22.4c1.8-8,6.2-14.6,11.3-20.9C861.8,132.1,862.9,131.4,863.1,130.1z"/>
		<path fill="#ffffff" d="M626,89.7c-0.1,5-2,10.8-4.6,16.5c-1.7,3.6-3.4,7.2-5.4,10.7c-1.1,2-0.9,3.2,0.8,4.7
			c9.4,8.3,17.2,17.9,24.6,28c1.1,1.5,2.3,3.1,2.8,5c0.8,3.1,0,6.1-2.3,7.9c-2.5,1.9-5.2,1.9-7.9,0.5c-2.4-1.3-4.4-3.2-6.4-5
			c-7.2-6.5-14.5-13-21.1-20.1c-2.3-2.5-2.3-2.4-4.5,0.2c-8.7,10.4-18.6,19.4-29.2,27.7c-1.1,0.9-2.4,1.6-3.7,2.2
			c-4,1.8-8.1,0.7-10.2-2.5c-2.1-3.2-1.8-7.6,1.3-10.4c4.1-3.8,7.4-8.2,11-12.4c5.9-6.9,11-14.5,16.3-21.8c1.2-1.7,1.2-2.9-0.1-4.6
			c-4.1-5-7.7-10.4-9.8-16.6c-0.4-1.2-1.1-1.6-2.4-1.6c-3.7-0.1-5.5-2.6-4.5-6.2c0.6-2.2,2-4.1,3.6-5.7c9.1-9.1,20.2-14.2,32.8-15.7
			C618.6,69,626.1,76.4,626,89.7z M603.2,86.7c-4.5,0.7-9.4,2.4-14.1,4.6c-1.3,0.6-1.2,1.4-0.4,2.4c2.6,2.8,5.2,5.6,7.8,8.4
			c0.9,0.9,1.7,1,2.4-0.2c2.4-4.3,4.7-8.6,6.4-13.2C605.9,87.2,605.5,86.5,603.2,86.7z"/>
		<path fill="#ffffff" d="M140,174.5c-3.5,4.4-8.3,7-12.7,10.1c-0.6,0.4-1.2,0.9-1.8,1.2c-2.5,1.5-4.9,1.3-6.5-0.5
			c-1.5-1.8-1.6-4.3,0.3-6.5c4.4-5,8.2-10.4,13-15c2-1.9,3.9-4,5.9-6.1c0.5-0.5,1.2-0.9,1-1.9c-1.8-0.3-3.5,0.6-5.2,0.8
			c-2.2,0.3-4.2,0.3-5.8-1.5c-1-1.1-1.5-0.8-1.7,0.5c-0.3,1.3-0.7,2.5-1.9,3.1c-1.7,0.9-3.7,0-4.1-2.2c-1.4-6.2-1.7-12.5,0.4-18.6
			c1.2-3.7,3.5-4.6,7-2.8c1,0.5,1.4,0,1.8-0.5c3-3.8,6.7-6.9,11-9.3c1-0.6,1.2-1.5,1.3-2.5c0-1.9,0-3.8,0.2-5.7
			c0.2-2-0.5-2.6-2.5-2.2c-4.5,0.8-8.9,1.6-13.4,2.3c-3.4,0.5-6.9,0.7-10.3,0.5c-2.4-0.2-4.5-1.1-5.2-3.7c-0.7-2.6,0.5-4.6,2.6-6.1
			c3-2.1,6.3-3.2,9.8-4.1c5.7-1.5,11.6-2.4,17.4-3.1c1.9-0.2,2.7-0.9,2.8-2.8c0.2-2.8,0.6-5.6,1-8.4c0.3-1.7,0.6-3.7,2.9-3.6
			c2.5,0.1,2.5,2.2,2.7,4c0.2,2.4,0.4,4.7,0.4,7.1c0,2,0.6,2.8,2.7,2.5c2.9-0.4,5.8-0.6,8.7-0.7c3.7-0.1,6.1,1.7,6.4,4.6
			c0.4,2.8-1.3,5.1-4.7,6.1c-3.4,1-6.8,1.8-10.3,2.5c-2,0.4-2.7,1.3-2.6,3.3c0.1,5.4,0,5.4,5.3,5.2c8.5-0.3,13.4,4.4,13.6,13
			c0.1,3-1.2,6,0.9,8.9c1,1.3-0.4,3-1.9,3.7c-1.2,0.6-2.2,1.2-2.8,2.4c-2.7,5.1-7.1,7.4-12.8,7c-0.5,0-1.1-0.3-1.4,0.4
			c-0.1,0.6,0.4,0.8,0.8,0.9c7.3,2.8,12.9,8,18.6,13.1c1.1,1,2,2.2,2.6,3.5c0.8,1.7,1,3.4-0.3,4.9c-1.3,1.5-3,1.5-4.8,0.9
			c-2.9-1-5.5-2.9-8.1-4.4c-2.3-1.3-4.5-2.7-6.8-4.1c-2.5-1.5-2.6-1.4-2.8,1.4c-0.3,6.4-1.2,12.7-2.5,18.9c-0.5,2.1-1,4.3-2.1,6.2
			c-0.9,1.6-2.2,2.7-4.2,2.4c-2-0.2-3.1-1.6-3.4-3.4c-0.5-2.6-0.8-5.2-1.1-7.8c-0.1-1-0.1-2.4,0.9-2.7c2.8-1,2.3-3.3,2.4-5.4
			c0-1.9,0-3.7,0-5.6C140.5,174.8,140.3,174.7,140,174.5z M129.4,148c3.3-1.6,5.9-2.8,8.5-4.1c0.5-0.2,1.1-0.4,0.9-1.1
			c-0.2-0.9-4.5-2.5-5.1-1.8C132.1,142.8,130.5,144.8,129.4,148z M150.9,131.7c0.1,0.3-0.6,1.5,0.6,1.9c0.6,0.2,3.9-3.8,4-4.6
			c0.1-1-0.7-0.9-1.3-0.8C152.3,128.4,150.4,128.5,150.9,131.7z M154.4,141.6c4.7,0.3,5.8-1,4.6-5.3
			C157.5,138,156.1,139.6,154.4,141.6z M141.6,136.5c-0.3-0.8,0.6-2.2-0.8-2.2c-1.2,0.1-2.4,1.1-2.4,2.5c0,1.2,1.1,2.2,2.1,2.2
			C142.1,139,141.2,137.3,141.6,136.5z"/>
		<path fill="#ffffff" d="M263.7,101.7c-2.3,2.5-4.3,4.7-4.7,8.4c-0.4,4.5-3.2,8.3-6.8,11.1c-2.8,2.1-6.5,0.4-7.3-3.2
			c-0.5-2-0.2-4,0.3-5.9c4.8-17.1,10.7-33.8,20.3-48.9c1.6-2.5,3.1-4.9,5.2-7c2.5-2.5,5.3-3.2,7.6-2c2.2,1.1,3.2,3.6,2.6,7.2
			c-1.2,6.9-4.2,13.3-7,19.7c-0.4,0.9-0.8,1.8-1.3,2.7c-1.1,1.9-1.7,3.3,1.4,3.9c2.2,0.4,3.2,2.5,3.9,4.6c1,3.1,1.2,6.2,1.3,9.4
			c0.6,21.8,0.8,43.6-0.6,65.4c-0.4,7-0.9,14-1.4,20.9c-0.1,0.9-0.2,1.8-0.3,2.7c-0.7,3.4-2.9,5.6-6,5.8c-2.9,0.1-5.4-1.7-6.5-4.9
			c-0.4-1.3-0.7-2.6-0.8-4c-3.3-28.1-4.3-56.1-0.1-84.2C263.7,102.8,263.7,102.2,263.7,101.7z"/>
		<path fill="#ffffff" d="M345.1,82.2c2.4,0,4.9-0.2,7.3,0c3.7,0.3,6,2.8,5.7,6c-0.3,3.2-2.9,5.5-6.5,5.2c-3.9-0.3-7.3,1.3-10.9,2.3
			c-1.1,0.3-1.4,1-1.1,2.1c1.2,4.5,1.2,9.2,1,13.8c-0.1,1.7,0.7,2.2,2.3,2.2c3.8,0,7.6,0,11.4,0.1c3.3,0.1,5,1.4,5.3,3.6
			c0.3,2.2-1,4-4.1,5c-4.5,1.5-9,2.9-13.6,4.1c-2.2,0.6-3.1,1.8-3.3,4c-0.4,3.5-1.2,7-2.4,10.3c-0.8,2.2-0.2,2.7,2,2.3
			c9.4-1.8,18.9-2.3,28.5-1.9c1.3,0,2.6,0.1,3.8,0.5c2.6,0.7,4.2,2.5,4.6,5.2c0.4,2.7-0.6,4.8-2.8,6.4c-1.4,1-3,1.3-4.5,1.8
			c-10.8,3.4-22,4-33,5.4c-4.7,0.6-9.4,1.2-14.1,1.7c-2,0.2-4,0.2-5.9-0.5c-2.6-0.9-4.3-2.7-4.6-5.5c-0.4-2.9,0.9-5.2,3.4-6.6
			c1.3-0.7,2.6-1.2,4-1.6c3.9-1.1,6.4-3.7,7.6-7.5c0.8-2.8,1.4-5.6,2.1-8.5c0.4-1.6-0.2-2.1-1.8-1.9c-2.5,0.4-5,0.7-7.6,0.8
			c-2.2,0.1-4.3-0.4-5.2-2.7c-1-2.4,0.3-4.2,2-5.7c3.7-3.2,8.3-4.9,12.8-6.5c1.9-0.6,2.8-1.6,3-3.6c0.4-3.9,0.9-7.8,1.5-11.6
			c0.4-2.5-0.4-2.7-2.6-2.2c-3.5,0.9-7.1,1.5-10.7,2.2c-1.3,0.2-2.7,0.3-4.1,0.2c-2.1-0.2-3.8-1.2-4.6-3.3c-0.8-2.1-0.1-3.9,1.3-5.5
			c2-2.1,4.6-3.2,7.1-4.4c0.9-0.4,1.8-0.8,2.8-1.2c5.1-2,5.1-2,4.9-7.6c-0.1-3.4-0.4-6.9,0.3-10.3c0.8-3.5,2.8-5.5,5.5-5.5
			c2.5,0.1,4.4,2.1,5.2,5.5c0.8,3.8-0.1,7.4-0.7,11.1c-0.4,2.2,0,3.3,2.5,3c2-0.2,4,0,6,0C345.1,82.5,345.1,82.4,345.1,82.2z"/>
		<path fill="#ffffff" d="M207.4,119c0.2,10.9-0.2,27.7-2.5,44.4c-0.5,3.6-1,7.2-2,10.7c-0.5,1.7-1.1,3.3-2,4.8
			c-1.5,2.3-3.5,3.8-6.4,3.3c-2.6-0.4-4.2-2.1-4.9-4.5c-0.7-2.6-0.5-5.2,1.8-6.9c1.4-1.1,1.5-2.3,1.6-3.8
			c1.4-19.2,0.9-38.5,1.1-57.8c0.1-6.5-0.1-13.1-0.1-19.6c0-2-0.4-2.8-2.4-1.4c-1.8,1.3-4,1.7-6.1,2.2c-2.7,0.6-5.6,1-8.2,2
			c-3.8,1.5-7.2,1.2-10.8-0.3c-2.2-0.9-3.2-2.7-3.4-4.9c-1.1-10.6-1.1-21.2,1-31.8c0.4-2.1,0.9-4.1,2.1-5.9c1-1.5,2.3-2.3,4.2-1.9
			c1.8,0.4,2.4,1.7,2.7,3.4c0.3,1.5-0.5,3.7,0.8,4.3c1.3,0.6,2.4-1.5,3.7-2.3c2.9-1.9,6-3.5,9.3-4.5c7-2.1,12.4,0.4,15.3,7.2
			c2.3,5.3,2.8,10.9,3.3,16.5C206.8,85.8,207.2,99.5,207.4,119z M193.5,78.3c0.1,0,0.1,0,0.2,0c-0.5-4.6-0.9-9.2-1.4-13.8
			c-0.1-1.1-0.4-2.1-0.7-3.2c-0.4-1.5-0.8-2.9-2.9-2.2c-5.1,1.8-9,5.1-11.6,9.8c-0.7,1.2-0.2,1.7,1.1,1.5c2.5-0.3,5.1-0.5,7.6-0.7
			c1.4-0.1,2.7-0.2,4,0.4c1.2,0.5,2,1.3,1.9,2.7c-0.1,1.3-1,1.9-2.2,2c-4.4,0.5-8.4,2.5-12.7,3.1c-3.5,0.5-3.8,2.2-4.1,5
			c-0.2,2.5,0.5,3,2.8,2.5c4.5-0.8,8.8-2.1,13.4-2.3c1.5-0.1,3.5,1,4.3-0.3C194.1,81.7,193.5,79.8,193.5,78.3z"/>
		<path fill="#ffffff" d="M36.8,178c0-2.3,0.6-3.8,2.7-4.2c1.4-0.3,1.7-1.1,1.7-2.3c0.4-8.9-0.5-17.8-0.4-26.7
			c0-1.7-0.8-1.5-1.9-0.8c-2.5,1.8-5.1,3.5-7.9,4.8c-1.9,0.9-3.8,1.4-5.5-0.3c-1.6-1.6-1.5-3.6-0.7-5.6c1.2-2.8,3.2-5.1,5.6-6.9
			c2.6-2,5.3-3.9,8-5.7c1.4-0.9,2.1-2,2.1-3.8c-0.1-8-0.1-16-0.1-24c0-2-0.5-2.6-2.5-1.7c-1.7,0.7-3.4,1.3-5.2,1.7
			c-2.1,0.5-4,0.1-5.4-1.7c-1.4-1.9-1.3-3.9-0.2-5.9c1.6-2.8,3.9-5.1,6.8-6.1c6.2-2.4,8.6-6.7,8.6-13.1c0-2.6,1-5.2,1.6-7.7
			c0.4-1.5,1.1-2.9,2.4-3.9c2.6-2.2,5.8-1.1,6.3,2.3c0.5,3.6,0.8,7.2,1,10.9c0.1,1.9,0.7,2.4,2.5,1.6c2.9-1.3,6-2.2,9.1-2.7
			c2-0.3,3.9-0.1,5,1.8c1.1,1.8,0.8,3.7-0.2,5.4c-1,1.8-2.6,3-4.4,3.9c-3.1,1.5-6.3,2.9-9.4,4.3c-1.6,0.7-2.4,1.7-2.3,3.5
			c0.2,7.5,0.4,15.1,0.5,22.6c0,1.9,0.6,2.3,2.2,1.3c4.7-2.9,9.7-5.4,13.7-9.3c1.6-1.5,3.4-2.4,5.4-0.9c1.9,1.4,1.7,3.5,1,5.4
			c-1.5,3.9-4.1,7-7.6,9.4c-3.9,2.7-7.8,5.3-11.9,7.8c-1.8,1.1-2.4,2.3-2.4,4.4c0.1,11.4,0.9,22.9-0.5,34.3
			c-0.6,4.8-1.5,9.5-2.9,14.1c-0.5,1.7-1.1,3.3-2.2,4.7c-2.9,3.8-7.9,3.4-10-0.9C38,184.6,37.5,181.1,36.8,178z"/>
		<path fill="#ffffff" d="M450.5,166.5c0.9-2.3,0.7-4.1,0.8-5.8c0.2-18.4,0.4-36.7,0.6-55.1c0.1-11.6,0.7-23.3,1.9-34.8
			c0.3-2.4,0.7-4.9,1.6-7.2c1.4-3.2,4-4.9,6.9-4.7c3,0.2,5.3,2.3,6.1,5.7c0.8,3.4,0.9,6.9,1,10.3c1.1,29.4,2,58.9,0.2,88.3
			c-0.4,7-1.8,13.7-4.3,20.2c-1,2.5-2.1,4.8-4.1,6.7c-3.9,3.5-9.1,2.9-12-1.4c-0.7-1.1-1.4-2.4-1.8-3.7c-2.2-6.9-4.3-13.9-6.4-20.8
			c-0.2-0.6-0.3-1.2-0.3-1.9c-0.1-1.8,0.4-3.3,2.2-4c1.8-0.7,3.2,0.2,4.2,1.7C448.2,162,449.2,164,450.5,166.5z"/>
		<path fill="#ffffff" d="M1037,99.4c0-3.3,0.9-6.3,2.4-9.1c3.5-6.7,8.1-12.7,13.5-18c1.7-1.7,3.6-3,5.9-3.8
			c3.4-1.1,6.7-0.3,8.7,2.1c2,2.5,2,5.7-0.1,8.8c-2.8,4.1-5.7,8.2-8,12.7c-2,4-2,4,1,7.3c10.7,11.6,18.4,24.7,21.4,40.4
			c1.9,9.4,4.2,18.8,4.9,28.4c0.4,4.8,0,9.6-1.4,14.3c-0.4,1.4-0.9,2.8-1.8,3.9c-2.4,3.2-6.6,2.9-8.5-0.7c-0.8-1.5-1-3.1-1.3-4.7
			c-1.3-7.5-2.9-15-5.2-22.3c-4.8-14.9-13.3-27.8-22.3-40.4c-2.1-2.9-4.4-5.8-6.3-8.9C1038.2,106.4,1037,103,1037,99.4z"/>
		<path fill="#ffffff" d="M83.6,121.1C84,105,84,89.1,86.6,73.3c0.4-2.6,0.9-5.2,2-7.6c1-2.3,2.6-4.1,5.3-3.9c2.8,0.2,4,2.3,4.5,4.8
			c0.3,1.9,0.5,3.8,0.5,5.7c0.1,1.5,0.4,2.1,2.1,1.6c3.3-0.9,6.7-2.7,10.3-0.7c0.9,0.5,0.9-0.6,1-1.2c0.1-4.6,0.3-9.3-0.3-13.9
			c-0.3-2-1.4-2.6-3.3-1.9c-2.5,0.9-4.5,2.4-5.7,4.8c-0.6,1.2-1.4,2.3-2.9,1.8c-1.6-0.6-1.6-2.1-1.3-3.5c1-6.2,8.7-11.6,14.9-10.5
			c3.4,0.6,5.5,2.9,6.9,6c2.5,5.4,2.3,11.2,1.8,16.9c-0.5,5.5-1.6,11-2.9,16.4c-0.3,1.4-1.1,2.5-2,3.5c-4.8,5.6-10.4,10.4-16.8,14.2
			c-1.7,1-2.4,2.1-2.4,4.1c-0.1,15.4-0.2,30.9-0.4,46.3c-0.1,4.8-0.4,9.6-0.6,14.4c-0.1,2.2-0.6,4.2-2.5,5.5c-2.6,1.8-6,0.6-7.4-2.5
			c-0.8-1.9-0.7-3.9-1-5.9C84.3,152.2,83.9,136.5,83.6,121.1z M99,89.1c-0.2,0-0.3,0-0.5,0c0,2.6,0,5.3,0,7.9c0,0.7-0.1,2.2,1.1,1.4
			c3.2-2,6.6-3.9,8.9-7c3.1-4.1,3-9.1,3.5-14c0.2-1.7-0.3-1.8-2-1.4c-3.2,0.8-5.8,3.2-9.2,3.1c-1.5,0-1.9,0.5-1.9,1.8
			C99.1,83.7,99,86.4,99,89.1z"/>
		<path fill="#ffffff" d="M1027.6,95.5c-0.2,11.8-1.2,23.6-3.4,35.2c-1.7,8.9-4.7,17.3-8.8,25.4c-2.1,4.1-4.7,7.6-9.9,7.1
			c-5.1-0.5-6.9-4.4-8.2-8.7c-1.1-3.4-2.2-6.7-3.3-10.1c-0.3-0.9-0.6-1.7-0.8-2.6c-0.4-2-0.2-3.9,1.7-5c1.9-1.2,3.6-0.4,5.2,0.9
			c1,0.8,1.8,2.8,3,2.4c1.4-0.5,0.9-2.6,1.1-3.9c3.3-21.9,5.6-44,6.9-66.1c0.1-2.5,0.5-5.1,0.9-7.6c0.7-3.9,2.7-6.1,5.4-6.3
			c2.8-0.2,5,1.6,6.3,5.4c2.1,5.9,2.6,12.1,3.1,18.2C1027.4,84.9,1027.7,90.2,1027.6,95.5z"/>
		<path fill="#ffffff" d="M475.1,111.1c0-3,1-5.5,2.3-7.8c1.7-2.8,3.7-5.4,5.9-7.8c4.5-5.1,8.9-10.3,13.4-15.4
			c1.1-1.2,2.2-2.4,3.4-3.5c2.1-1.8,4.5-2.4,7.1-0.9c2.5,1.5,3.1,3.9,2.6,6.6c-0.3,2.3-1.3,4.3-2.4,6.4c-3.2,6.4-6.9,12.6-11.3,18.3
			c-1.6,2.2-1.5,3.2,0.8,4.9c13.3,9.9,25.2,21.1,33.4,35.8c0.7,1.2,1.3,2.4,1.7,3.7c0.5,1.5,0.1,2.9-1.3,3.9c-1.3,1-2.8,0.9-4.1,0
			c-0.9-0.6-1.7-1.3-2.5-2.1c-2.5-2.5-4.9-5.1-7.5-7.6c-8.1-8-17-14.7-27.4-19.5c-3.1-1.4-6.1-2.8-8.8-4.9
			C477.2,118.6,475.2,115.2,475.1,111.1z"/>
		<path fill="#ffffff" d="M985.4,83.8c7.2,0,11.5,4.1,11.7,10.4c0.1,3.3-0.7,6.5-2,9.5c-3.3,8.1-7.6,15.7-11.9,23.3
			c-3.1,5.4-7.6,9.7-12.5,13.5c-3,2.3-5.8,2.6-8,1.1c-2.3-1.6-3.2-4.6-2.3-8.1c1.4-5,3.7-9.4,6.5-13.7c3.4-5.3,6.8-10.6,10.1-15.9
			c0.5-0.8,1.6-1.7,0.8-2.6c-0.7-0.8-1.7,0.1-2.5,0.4c-2.2,0.8-4.3,1.1-6.1-0.8c-1.7-1.8-1.9-4-1.2-6.4c0.7-2.2,2-3.9,3.7-5.3
			C975.9,85.8,980.8,84.2,985.4,83.8z"/>
		<path fill="#ffffff" d="M443.2,112.1c-0.2,5.8-1.6,11.3-3.4,16.8c-3.5,10.9-8.4,21.1-15.6,30.1c-0.6,0.8-1.2,1.6-2,2.3
			c-2.2,2.2-5.1,2.6-7.5,1.4c-2.4-1.3-3.7-4-3.3-6.9c0.2-1.4,0.7-2.8,1.2-4.2c3.7-10.2,8.7-19.8,13-29.7c1.2-2.8,2.3-5.5,3.4-8.3
			c0.3-0.6,0.8-1.4,0.2-2.1c-0.7-0.8-1.5-0.2-2.3,0c-4.2,1.3-8.1,3.1-12.1,4.9c-1.6,0.7-3.3,1.7-4.7-0.1c-1.5-1.9-0.4-3.6,0.8-5.2
			c2.3-2.7,5.2-4.5,8.3-6.1c2.9-1.6,5.9-2.8,9-3.9C437.6,98,443.4,102.3,443.2,112.1z"/>
	</g>
</g>
<g id="_xFFFD__x9C__x96_撅_xFFFD__12_xA0_影像_1_">
</g>
<g id="_xFFFD__x9C__x96_撅_xFFFD__13_xA0_影像_1_">
</g>
<g id="_xFFFD__x9C__x96_撅_xFFFD__14_xA0_影像_1_">
</g>
<g id="_xFFFD__x9C__x96_撅_xFFFD__15_xA0_影像_1_">
</g>
<g id="_xFFFD__x9C__x96_撅_xFFFD__16_xA0_影像_1_">
</g>
<g id="_xFFFD__x9C__x96_撅_xFFFD__17_xA0_影像_1_">
</g>
</svg>
