<?xml version="1.0" encoding="utf-8"?>
<!-- Generator: Adobe Illustrator 18.0.0, SVG Export Plug-In . SVG Version: 6.00 Build 0)  -->
<!DOCTYPE svg PUBLIC "-//W3C//DTD SVG 1.1//EN" "http://www.w3.org/Graphics/SVG/1.1/DTD/svg11.dtd">
<svg version="1.1" xmlns="http://www.w3.org/2000/svg" xmlns:xlink="http://www.w3.org/1999/xlink" x="0px" y="0px"
	 viewBox="0 0 1449.1 252" enable-background="new 0 0 1449.1 252" xml:space="preserve">
<style>
	#title {
		filter:url(#dropshadow)
	}
</style>
<filter id="dropshadow" height="130%">
  <feGaussianBlur in="SourceAlpha" stdDeviation="8"/> <!-- stdDeviation is how much to blur -->
  <feOffset dx="2" dy="4" result="offsetblur"/> <!-- how much to offset -->
  <feComponentTransfer>
    <feFuncA type="linear" slope="0.2"/> <!-- slope is the opacity of the shadow -->
  </feComponentTransfer>
  <feMerge> 
    <feMergeNode/> <!-- this contains the offset blurred image -->
    <feMergeNode in="SourceGraphic"/> <!-- this contains the element that the filter is applied to -->
  </feMerge>
</filter>
<g id="title">
	<g>
		<path fill="#ffffff" d="M129,137c3.1-0.4,6.2-0.8,9.3-1.2c9.5-1.3,18.9-2.7,28.4-3.3c2.1-0.1,4.2-0.3,6.2,0.4
			c2.8,0.8,4.8,2.5,5.3,5.6c0.4,2.9-0.9,5.3-3.4,6.6c-3.9,2.1-7.8,4.5-12.6,2.6c-1-0.4-2.3,0-3.5,0.1c-35.4,3.7-70.2,11.2-105,18
			c-5.8,1.1-11.6,2.2-17.4,3.3c-2,0.4-4,0.6-6,0.4c-2-0.2-3.7-1.1-4.2-3.2c-0.5-2.1,0.6-3.6,2.3-4.5c2.1-1.2,4.4-2.2,6.7-3.1
			c8.6-3.4,17.6-5.9,26.6-8.1c18.9-4.6,37.9-8.6,57.1-11.8c1.9-0.3,4.2-0.1,2.6-3.4c-0.6-1.3,0.5-2.6,1.5-3.6
			c5.3-5.3,7.6-12,9.1-19.2c0.5-2.4-0.2-2.9-2.5-2.4c-2.2,0.5-4.5,0.9-6.7,1c-2.2,0.2-2.9,1.2-2.8,3.4c0.1,2.8,0.1,5.6,0.1,8.5
			c0,1.9-0.4,3.8-1.3,5.5c-1.1,2-2.8,3.2-5.1,3c-2.3-0.2-3.6-1.6-4.3-3.6c-1.2-3.1-0.8-6.3-0.9-9.4c-0.1-6,0.1-5.1-5.2-4.5
			c-2.5,0.3-5,0.8-7.6,1c-2.7,0.2-3.8,1.2-3.7,4c0.2,3.9,0,7.8-0.2,11.7c-0.1,3.5-1.5,5.4-3.9,5.7c-2.5,0.3-4.3-1.2-5.4-4.4
			c-1.3-4-2.1-8.1-2.9-12.2c-0.3-1.7-1-2.3-2.8-2c-4.3,0.8-8.6,1.5-12.9,2.2c-1.7,0.3-2.2,1.1-2,2.8c0.4,3.6,0.6,7.2,0.9,10.9
			c0.2,2.1,0.5,4,1.8,5.8c1.9,2.6,0.2,8.4-2.7,9.9c-2.7,1.5-6.1,0.2-7.8-3.4c-3.1-6.2-4.8-13-6.2-19.7c-0.5-2.5-1.4-3.1-3.8-2.5
			c-4.3,1-8.8,1.6-13.2,2.3c-1.1,0.2-2.2,0.3-3.3,0.2c-2-0.1-3.8-0.8-4.5-2.9c-0.7-2.3,0.5-3.9,2.4-5c5.4-3.2,11.2-5.6,17.2-7.4
			c2.3-0.7,3.2-1.7,3-4.2c-0.4-3.8-0.3-7.6,0.1-11.4c0.1-1.6,0.4-3.1,1.2-4.4c0.9-1.6,2.3-2.6,4.2-2.6c2,0,3.2,1.2,3.9,2.9
			c1.6,3.9,2.6,8,3.4,12.1c0.4,2.1,1.1,2.8,3.3,2.2c4.2-1.2,8.5-2.1,12.7-3c1.7-0.4,2.4-1.1,2.4-2.9c-0.1-3,0-6,1-8.9
			c0.9-3,2.9-4.8,5.5-4.9c3-0.2,5,1.4,6.2,4c1.1,2.2,1.6,4.6,2,7.1c0.2,1.5,0.9,2,2.4,1.7c3.7-0.7,7.3-1.4,11-2
			c1.5-0.2,2.2-0.9,2.2-2.5c0-1.5,0.1-3.1,0.5-4.6c0.6-2.4,2-4.1,4.6-4.5c2.5-0.4,4.5,0.6,5.8,2.7c0.6,1,1.3,2.1,1.4,3.2
			c0.3,3.1,2,3.3,4.5,2.8c2.9-0.5,5.8-0.8,8.7-1c1.7-0.1,2.7-0.7,2.9-2.5c0.1-0.5,0.3-1.1,0.5-1.6c0.9-2.3,2.2-4,4.8-4.2
			c2.7-0.2,4.6,1.2,5.6,3.6c0.8,2,1.8,2.9,4.2,2.9c4.2,0.1,7.4,3,7.9,6.6c0.5,3.7-1.8,6.9-5.9,8.4c-0.2,0.1-0.3,0.2-0.5,0.2
			c-5.4,0.1-7.2,3.4-8.6,8.1c-2.7,8.8-6.9,16.8-14.8,22.4C128.8,136.5,128.9,136.7,129,137z"/>
		<path fill="#ffffff" d="M415.4,96.5c-7.1,2-13.6,3.8-20.1,5.5c-1,0.3-1.3,1.2-1.7,2c-0.9,2.3-1.8,4.6-2.8,6.8
			c-1.9,4.1-5.2,5.8-8.7,4.6c-3.7-1.4-5.7-5.7-4.2-9.7c1.6-4.3,3.5-8.6,5.5-12.8c4.3-9.2,9.8-17.6,15.2-26.1c1.6-2.6,7.5-3.9,10-2.2
			c2,1.3,2.2,3.2,1.8,5.3c-0.7,3.8-2.2,7.3-3.6,10.8c-0.2,0.5-0.4,1-0.5,1.5c1,0.7,1.8,0.1,2.6-0.1c10.1-2.9,20.5-3.8,30.7-6
			c1.5-0.3,3.1-0.4,4.6,0c2.2,0.4,3.9,1.5,4.6,3.7c0.6,2.3-0.2,4.1-1.9,5.6c-3,2.6-6.5,3.9-10.4,4.3c-0.7,0.1-1.5,0-2.2,0.1
			c-2.2,0.2-4.3,0.7-6.3,1.7c-2.6,1.3-1.2,3.9-1.4,5.9c-0.8,6.3-2.2,12.5-3.9,18.7c-0.8,3-0.8,3.2,2.1,2.5c4.6-1.1,9.4-0.9,13.8-2.9
			c0.6-0.3,1.5-0.1,2.1,0c2.4,0.6,4.8,0.7,7.3,0.5c2.5-0.2,4.7,0.5,5.7,3.2c0.8,2.2-0.2,4.7-2.9,6.1c-5.7,2.9-11.3,5.9-17.5,7.6
			c-1.1,0.3-2.3,0.7-3.4,1.1c-1.1,0.3-1.7,0.9-0.5,1.8c7.2,5.3,12.5,12.4,18.3,19c2.5,2.8,5.3,5.5,8.9,7c2.1,0.9,3.1,2.8,3.1,5
			c0,2.7-1.2,4.7-3.4,6.1c-2.4,1.5-5.1,1.4-7.6,0.5c-1.4-0.5-2.9-1.2-4.1-2.1c-10.8-8.9-22.6-17.1-29.1-30.1
			c-0.1-0.1-0.3-0.2-0.5-0.4c-0.9,0.5-1,1.6-1.3,2.4c-3.1,8.4-6.2,16.9-9.2,25.4c-3.5,9.9-8.8,18.7-15.3,26.9
			c-1.8,2.3-4.1,3-6.2,2.1c-2.2-1-3.3-3.4-2.5-6.2c0.4-1.8,1.1-3.5,1.8-5.1c3.9-9.6,7.4-19.3,11.7-28.8c1.6-3.7,2.8-7.5,3.8-11.4
			c0.2-0.8,1-1.8,0.2-2.5c-0.6-0.6-1.5,0.1-2.3,0.3c-6.6,1.6-13.2,3.4-19.8,5c-1.5,0.4-3,0.5-4.6,0.6c-1.9,0.1-3.6-0.5-4.5-2.4
			c-0.9-1.9-0.3-3.6,0.9-5.1c1.7-2.2,4.1-3.6,6.5-4.9c8.7-4.9,17.9-8.8,27.4-12c2.2-0.7,3.4-1.9,4.1-4.2
			C408.3,112.7,411.3,104.7,415.4,96.5z"/>
		<path fill="#ffffff" d="M1025.3,130.6c5.5,5.6,10.5,10.7,15.5,15.8c8.2,8.3,14.2,18.1,20.1,28c1.3,2.2,2.1,4.6,1.8,7.3
			c-0.2,1.3-0.7,2.5-2.2,2.9c-1.4,0.4-2.5-0.2-3.3-1.3c-6.2-7.8-13.2-15-19.8-22.5c-4.4-5.1-8.1-10.7-13.3-15.1
			c-0.5-0.5-0.9-1.1-1.8-1.2c-0.7,1-0.4,2.1-0.3,3.1c0.3,11.3-0.7,22.5-2.8,33.6c-0.8,4.1-2.5,7.5-6,10c-3.1,2.2-6.2,1-6.9-2.8
			c-0.3-1.7-0.5-3.4-0.8-5.1c-0.3-1.7-0.2-3.1,1.7-3.7c0.7-0.2,0.9-0.8,1-1.5c1.4-11.7,1.8-23.5,1.2-35.4c-1.2,0.1-1.2,1.1-1.6,1.7
			c-5.3,9-11.3,17.6-17.8,25.8c-3.2,4-6.6,7.8-10.6,11c-2.7,2.2-5.1,4.6-7.1,7.5c-1.1,1.6-2.6,3-4.8,1.9c-2.1-1.1-2-3.1-1.4-5
			c2.1-6.8,5.5-13,9.9-18.4c8.4-10.4,15.9-21.5,23.6-32.4c0.3-0.4,0.6-0.7,0.4-1.5c-5.1,0.7-10.3,1.3-15.5,2
			c-5.3,0.7-10.6,1.3-16,1.9c-1.3,0.1-2.5,0.1-3.8,0c-1.7-0.1-3.3-0.7-3.8-2.6c-0.5-2,0.6-3.3,2.3-4.2c2.8-1.6,5.8-2.7,8.7-3.8
			c11.3-4,23-6.8,34.9-8.7c2.3-0.4,3.3-1,3.2-3.5c-0.1-3.3,0-6.6,0.4-9.8c0.3-2.6-0.6-3-3-2.9c-5.9,0.3-11.8,0.5-17.7,0.1
			c-1.3-0.1-2.5-0.2-3.8-0.4c-2.7-0.4-4.5-1.7-4.8-4.7c-0.3-3,0.9-5,3.9-6.1c3.9-1.4,7.9-2,12-2.6c4-0.6,8.1-1.2,12.2-1.5
			c1.8-0.2,2.4-0.8,2.6-2.6c0.5-5.5,1-11,2.2-16.5c0.4-2,0.5-4.9,3.6-4.6c2.9,0.3,2.8,2.9,2.9,5.1c0.1,5,0.4,10,0.3,15
			c0,2.6,1,3.1,3.3,3.3c5.2,0.4,10.3,1,15.4,1.7c4.3,0.6,6.5,2.5,6.5,5c0,2.5-2,4.2-6.2,5c-5.3,1-10.6,1.8-15.9,2.5
			c-1.9,0.3-2.4,1-2.3,2.8c0.2,3.4,0.2,6.9,0.2,10.4c0,1.8,0.6,2.3,2.4,2.2c6.7-0.6,13.4-0.9,20.1-1c2.7,0,5.3-1.8,8.2-0.6
			c2.5,1.1,4.7,2.2,4.9,5.2c0.1,2.9-1.6,4.8-4.2,5.7c-6,2.2-12.2,3.5-18.6,4.2C1031.6,129.9,1028.8,130.2,1025.3,130.6z"/>
		<path fill="#ffffff" d="M1385.4,133.5c0.3,0.2,0.5,0.4,0.8,0.6c1.9,0.8,3.4,2,2.9,4.3c-0.4,2.3-2.3,3.1-4.3,3.6
			c-1,0.3-2.5-0.5-2.8,1c-0.3,1.8-0.5,3.6,0.1,5.4c0.3,0.8,1.2,0.6,1.9,0.7c6.8,0.5,13.6,1.1,20.4,1.6c1.8,0.1,3.6,0.4,5.1,1.6
			c1,0.8,1.5,1.9,1.3,3.1c-0.2,1.2-1.3,1.4-2.3,1.6c-6.6,1.1-13.3,2-19.9,3.1c-8.2,1.4-7.8,0.4-8.5,9.6c-1,14.9-3.4,29.6-6.1,44.3
			c-0.8,4-3.1,7.5-4.9,11.2c-0.9,1.7-2.8,1.9-4.5,2c-1.8,0-1.9-1.6-2.4-2.9c-0.4-1.2-0.8-2.4-0.6-3.7c1-11,2-22.1,3-33.1
			c0.6-5.9,1.7-11.7,3-17.5c0.8-3.5-0.1-4.5-3.7-3.9c-5.7,1-11.5,1.8-17,3.7c-3.8,1.3-7.7,0.9-11.6,0c-1.8-0.4-3.2-1.4-3.6-3.4
			c-0.4-2,0.7-3.3,2.2-4.3c8.6-6.3,18.6-8.9,28.8-11.2c0.9-0.2,1.8-0.3,2.7-0.5c4.6-0.7,4.8-1,4.6-5.8c0-1.5-0.6-1.9-2-1.7
			c-1.2,0.2-2.3,0.3-3.5,0.3c-1.2,0-2.4-0.5-2.8-1.8c-0.5-1.4,0.2-2.5,1.3-3.3c1.7-1.3,3.6-2.1,5.6-2.7c1.5-0.4,2.3-1.3,2.3-2.9
			c0-1.2,0.2-2.4,0.3-3.5c0.3-3.3,0-3.7-3.3-4.3c-2.8-0.5-3.8-3.1-2-5.3c0.9-1.1,2.1-1.7,3.3-2.3c1.1-0.5,2.4-0.9,3.5-1.6
			c1.4-0.8,2.1-2.7,1.5-3.8c-0.8-1.3-2.1,0.2-2.9,0.8c-7.9,5.2-13.3,12-14.5,21.7c-0.2,1.5-0.4,2.9-1.3,4.1c-0.9,1.2-1.1,2.4-1,3.8
			c0.2,1.5,0.1,3.1-0.4,4.6c-0.9,2.4-2.6,3.9-5.2,4.3c-2.7,0.4-4.8-0.7-6.3-2.9c-0.9-1.3-1.3-2.8-1.5-4.4c-1.1-11.3-0.9-22.5,2-33.6
			c0.7-2.8,1.9-5.5,3.1-8.1c0.8-1.7,2-2.9,3.9-2.8c2,0.1,3.2,1.3,3.8,3c0.6,1.6,0.9,3.3,1.4,5c0.3,1-0.2,2.5,1,2.9
			c1,0.3,1.5-1.1,2.2-1.8c5.6-5.9,12.2-10,20.2-11.7c1.3-0.3,2.7-0.5,4-0.6c11.7-1.2,19.7,6.9,18.4,18.6
			c-0.9,8.6-6.2,13.8-13.4,17.6C1387,132.4,1385.9,132.4,1385.4,133.5z M1389.9,113.5c0.1-3.6-0.7-4.3-5-4.9
			c-3.7-0.5-4.2,0.1-3.4,3.7c0.2,0.9,0.6,1.4,1.6,1.5c1.8,0.3,3.5,0.8,4.9,2c0.9,0.8,1.5,0.4,1.7-0.6
			C1389.8,114.5,1389.8,113.8,1389.9,113.5z M1381.1,124.8c0.6,0.8-0.6,2.7,0.8,2.9c1.2,0.2,2.1-1.4,2.7-2.7c0.5-1,0.9-2-0.2-2.9
			c-0.8-0.6-1.5-1.4-2.6-0.8C1380.3,122,1381.3,123.4,1381.1,124.8z"/>
		<path fill="#ffffff" d="M1176.2,167c2.2-0.1,4.4-0.3,6.7,0.1c5.7,1,8.3,3.6,8.8,9.3c0.1,1.5,0.6,1.3,1.7,0.9
			c1.5-0.6,2.2-1.6,2.4-3.2c0.4-3.4,0.8-6.9,1.7-10.2c0.4-1.3,0.8-2.6,1.6-3.7c0.8-1.1,1.9-1.8,3.3-1.5c1.4,0.3,2.2,1.3,2.4,2.7
			c0.4,2.9,0.7,5.8,0.9,8.7c0.1,1.5,0.4,2.4,2.2,2c1.2-0.2,2.2,0.2,2.6,1.5c0.4,1.4-0.4,2.4-1.6,2.8c-2.6,0.8-3,2.6-3,5
			c0.1,7.5-1.1,14.9-4,21.8c-0.9,2.1-1.8,4.2-3.4,5.9c-2.9,3-7.1,2.6-9.2-1c-1.6-2.7-2.4-5.7-3-8.7c-0.2-1.2,0-2.4,1.1-3.2
			c1.1-0.8,2.3-0.7,3.3,0.2c1,0.8,1.6,0.7,1.8-0.7c0.5-3.6,0.9-7.2,1.4-11.4c-3.9,2.1-7.4,4-10.4,6.6c-2.9,2.5-5.8,4.6-9.8,4.5
			c-1.2,0-2.4,0.3-3.2-0.9c-0.7-1.2-0.3-2.2,0.4-3.3c2.1-3.2,4.1-6.4,6.2-9.6c1-1.6,1.4-2.6-1.1-3c-3.4-0.6-5.9-2.4-5.9-6.3
			c-1.1-0.2-1.6,0.7-2.2,1.1c-6.5,5.4-13,10.8-19.5,16.3c-0.6,0.5-1.2,1.1-1.9,1.5c-1.8,1.3-3.8,1.7-5.4-0.1c-1.6-1.8-1-3.7,0.5-5.4
			c0.6-0.6,1.2-1.2,1.8-1.7c14.3-11.9,27.4-25,42-36.5c0.4-0.3,0.9-0.6,1.7-1.1c-1.6-0.8-2.5-0.4-3.4-0.2c-5.2,0.9-10.4,1.8-15.7,2
			c-1.9,0.1-3.8,0.1-5.7-0.5c-3.8-1.4-4.5-5.4-1.5-8c1-0.8,2.1-1.4,3.3-1.9c4.8-2.2,9.7-4.1,14.8-5.5c2.1-0.6,3-1.3,2.8-3.7
			c-0.3-2.5,0-5.1,0.1-7.6c0.1-1.6-0.5-2.1-2.1-2c-2.4,0.1-4.7,0.2-7.1,0c-3.1-0.2-5.2-2-5.6-4.4c-0.4-2.4,0.9-4.4,4.2-5.6
			c3.1-1.1,6.2-2,9.4-2.8c1.6-0.4,2.5-1.1,2.9-2.8c0.4-2.2,1.3-4.2,2.7-5.9c1.3-1.7,3.1-2.3,5.1-1.3c1.9,1,1.9,2.6,1.4,4.5
			c-0.9,3-0.8,3.1,2.4,2.6c0.3,0,0.5-0.1,0.8-0.1c3.5,0,6.2-1.1,6.3-5.2c0-0.6,0.4-1.2,0.7-1.8c0.9-1.6,2.1-2.8,4.1-2.6
			c2.1,0.3,3.4,1.9,3.3,3.7c-0.2,3.8,1.9,3.9,4.7,3.7c3.4-0.3,6.9-0.3,10.4-0.3c3.7,0,5.8,1.5,6.2,4.1c0.5,2.7-1.1,5-4.5,6.2
			c-5.6,1.9-11.3,3.5-17.2,4.4c-1.6,0.2-2.5,0.8-2.7,2.4c-0.3,2-1.4,3.7-2.4,5.4c-0.4,0.7-1.1,1.5-0.7,2.2c0.5,0.9,1.5,0.2,2.2,0.1
			c7-0.8,14.1-1.6,21.1-2.4c1.4-0.2,2.9-0.1,4.3,0c2.4,0.3,4.1,1.6,4.6,4c0.5,2.4-0.6,4.3-2.6,5.5c-0.7,0.4-1.4,0.8-2.2,1
			c-10.1,3.2-20.1,7-30.6,8.7c-1.8,0.3-3.5,0.4-4.1,2.8c-0.3,1.1-1.8,1.9-2.8,2.9c-5.7,5.8-11.3,11.8-17.4,17.3
			C1176.5,166,1176.1,166.3,1176.2,167z M1192.1,123.3C1192.1,123.3,1192.1,123.3,1192.1,123.3c0,1.1-0.1,2.2,0,3.2
			c0,0.7-0.5,1.8,0.6,2.1c1,0.2,1.6-0.7,1.9-1.6c0.8-2,1.6-4,2.3-6.1c1.2-3.7,0.8-4.1-3-3.3c-1.3,0.2-1.9,0.8-1.8,2.1
			C1192.1,120.9,1192.1,122.1,1192.1,123.3z"/>
		<path fill="#ffffff" d="M875.5,121c-5.6-3.9-5.1-8.7-3.6-13.8c2.2-7.4,4.1-14.9,6.8-22.1c0.7-1.8,1.3-3.6,2.6-5.1
			c1.9-2.3,4.3-3.3,7.3-2.5c2.9,0.7,4.4,2.8,4.9,5.6c0.2,1.2,0.2,2.5,0.2,3.8c0,3.1,0,3.1,2.7,1.9c2.6-1.2,5.2-2.1,8-2.6
			c8.5-1.5,15.8,1.8,20.3,9.1c4.1,6.7,5.5,14.2,5.1,22c-0.5,11.1-4.1,21.2-10.2,30.4c-5,7.5-10.6,14.5-17.1,20.8
			c-3.2,3.1-6.5,5.8-10.8,7.2c-4.1,1.4-8.1,1.1-11.5-1.9c-2.5-2.2-3.5-5.5-2.4-8.1c1.2-2.9,3.6-3.6,6.5-3.1c1.1,0.2,1.9-0.5,2.6-1.2
			c4.8-4.5,8.2-9.9,11.5-15.5c0.7-1.3,0.4-2-0.8-2.6c-2.3-1.2-4.6-2.1-7.1-2.8c-6.4-1.9-12.9-3.1-18.9-6.1c-0.8-0.4-1.6-0.8-2.4-1.2
			c-2.2-1.2-4.5-2.4-4.3-5.4c0.3-3.2,2.7-4.6,5.3-5.5C871.7,121.7,873.3,121.5,875.5,121z M882.4,121.8c7.3,2.7,14,6,20.5,9.8
			c1.5,0.9,1.9-0.1,2.3-1.2c1.2-3.4,2.1-7,2.9-10.5c0.9-4.2,1.3-8.4,0.1-12.7c-0.8-2.9-1.4-3.3-4.2-2.2c-5.7,2.2-10.6,5.7-14.5,10.3
			C887.3,117.6,885.6,120.2,882.4,121.8z"/>
		<path fill="#ffffff" d="M329.9,184.7c-2.5-0.1-4.2-1.6-5.9-3.1c-16.7-16-33.6-31.9-49.1-49.2c-2.7-3-5.8-5.7-9-8.3
			c-1.6-1.3-2.2-0.9-3.2,0.8c-6,11.1-11.4,22.5-17,33.8c-2,4-4.3,7.8-6.2,11.8c-2.1,4.4-5.6,7.4-9.8,9.5c-2.9,1.5-6.1,1.7-9.3,1.5
			c-2.6-0.2-4.3-2.5-4-5.3c0.1-1.4,0.6-2.9,1.1-4.2c3.3-9.2,7.2-18,12.3-26.4c13-21.3,26.6-42.3,41.7-62.3c2.5-3.3,5-6.5,8-9.3
			c1.8-1.7,3.8-3.1,6.2-3.9c1.3-0.5,2.7-0.5,3.8,0.7c1,1.1,0.8,2.4,0.2,3.6c-1.3,2.6-2.6,5.2-3.9,7.8c-5.5,10.2-10.9,20.3-16.5,30.4
			c-0.9,1.7-1,2.5,1.1,3.3c3.7,1.3,7.1,3.2,10.2,5.7c13.2,10.5,26,21.3,38.3,32.8c5.7,5.4,10.3,11.7,14.4,18.4
			c1,1.6,1.9,3.3,2.2,5.2C336.2,181.7,333.5,184.8,329.9,184.7z"/>
		<path fill="#ffffff" d="M649.8,180.4c-1-0.6-2-0.1-2.9,0.1c-5.9,1.2-11.8,2.1-17.8,2.8c-0.7,0.1-1.4,0.1-2.2,0.2
			c-1.9,0.1-3.5-0.4-4.3-2.3c-0.8-1.8-0.2-3.4,1-4.8c2.4-2.7,5.7-4.2,9-5.6c13.6-5.5,27.7-9.4,42-12.5c5.2-1.1,10.3-2.1,15.6-2
			c1.1,0,2.2,0,3.3,0.2c3.1,0.5,5.2,2.2,5.7,4.7c0.5,2.5-0.7,4.8-3.6,6.4c-3.2,1.8-6.5,3.3-10.1,4.1c-4.5,1-9,2.2-13.6,3
			c-2.5,0.4-3.2,1.6-2.7,3.9c0.3,1.2,0.4,2.5,0.5,3.8c0.9,6.4,2.3,8.1,8.6,9c10.8,1.7,21.6,1.8,32.3-0.1
			c13.8-2.4,20.9-11.8,24.7-24.4c1.8-6.1,2.2-12.5,2.6-18.9c0.2-3.4,0.4-6.9,0.7-10.3c0.3-3.1,1.8-5,4.2-5.3
			c2.5-0.4,4.8,1.1,5.6,4.2c5.1,21.6,3.8,40.6-14.2,57.7c-6.6,6.3-14.9,8.9-23.8,9.8c-10.8,1.2-21.6,0.7-32.3-1.3
			c-2.8-0.5-5.5-1.4-8-2.6c-3.9-2-6.7-4.9-8-9.2c-0.2-0.6-0.1-1.7-0.9-1.8c-0.9-0.1-1.1,0.9-1.4,1.4c-2.7,4.3-5.4,8.6-8.5,12.7
			c-2.4,3.2-5.1,5.9-8.5,7.9c-0.8,0.5-1.6,0.9-2.4,1.2c-2.1,0.7-4.2,0.6-5.8-1c-1.7-1.7-1.8-3.7-1-5.8c1.3-3.3,2.9-6.5,5-9.3
			c3.3-4.5,6.5-9,9.8-13.5C649,182.2,649.9,181.5,649.8,180.4z"/>
		<path fill="#ffffff" d="M840.8,119.9c-0.3,10.3-2.1,20.2-7.6,29.2c-1,1.7-2.1,3.4-3.6,4.8c-3.7,3.4-8.4,3.3-11.4-0.7
			c-1.6-2-2.7-1.9-4.3-0.4c-1.8,1.6-3.7,3.2-5.7,4.7c-2.7,2.1-5.6,2.1-7.3,0c-1.5-2-0.9-4.8,1.8-6.9c2.3-1.9,5-3.3,7.6-4.7
			c1.6-0.9,3.4-1.7,4.6-3.3c0.6-0.9,1.7-1,2.7-1.1c2.2-0.1,3.9-1.4,5.7-2.5c0.9-0.5,1.5-1.5,1.1-2.3c-0.8-1.8-1.8-3.5-1.4-5.7
			c0.2-1-1.4-0.7-2.3-0.5c-3.8,0.7-7.3,2.3-10.9,3.5c-3.8,1.3-6.1,0.9-7.1-1.4c-1-2.3,0.4-4.9,3.9-6.5c5.4-2.5,11.1-2.7,16.8-1.8
			c1.9,0.3,2.5-0.1,2.5-1.9c0.1-4.3,0.6-8.5-0.5-12.8c-0.9-3.8-2.3-4.8-6.1-4c-6.8,1.4-12.5,4.6-17.2,9.8c-0.7,0.7-0.7,1.7-0.7,2.6
			c0.1,10-1.4,19.9-3,29.8c-0.5,2.9-0.5,5.7,0.4,8.6c1,3.2,0.7,6.5-0.3,9.7c-1.4,4.7-7.1,5.7-10.5,2.1c-1.4-1.5-2.1-3.4-2.6-5.3
			c-1.7-7.3-3.3-14.5-4.6-21.9c-1.9-10.9,0.5-21.5,2.4-32.2c1.4-8,3.3-15.8,6.3-23.4c0.9-2.4,1.9-4.7,3.6-6.7c2.2-2.6,5.3-3.5,8-2.5
			c2.6,1,4.2,3.6,3.8,7.2c-0.4,4.6-1.2,9.2-1.7,13.8c-0.1,0.9-0.8,2.2,0.2,2.8c0.9,0.5,1.6-0.6,2.3-1.1c5.1-3,10.5-5.1,16.5-5.1
			c7.2-0.1,12.3,3.2,15.3,9.8C840.3,108.6,840.7,114.2,840.8,119.9z"/>
		<path fill="#ffffff" d="M556,112.9c0.1-10.9,0.4-21.8,2.8-32.5c0.4-2,0.9-3.9,1.9-5.7c1.2-2.1,2.8-3.7,5.4-3.4
			c2.7,0.3,3.7,2.4,4.1,4.8c1,5.4,1.4,10.8,2,16.2c0.1,1-0.3,2.3,0.6,2.8c1.1,0.6,1.6-0.8,2.4-1.4c3.7-2.8,7.8-4.7,12.3-5.6
			c8.8-1.7,15.9,2.2,19.4,10.4c2.4,5.7,2.9,11.8,2.4,17.9c-0.7,8.1-2.7,15.9-5.2,23.6c-0.5,1.6-1.1,3.1-2.2,4.4
			c-1.5,1.8-3.7,3.3-5.7,2.3c-4.2-2.2-6.4,0.6-8.9,2.6c-1.7,1.4-3.1,3.1-4.6,4.6c-3,3-5.8,3.3-9.1,0.6c-0.9-0.7-1.4-1.1-2,0.2
			c-1.3,2.7-3.5,4-6.4,3.5c-3.2-0.5-4.7-2.9-5.3-5.9c-1.7-9.6-3.9-19.1-3.7-28.9C556.1,120,556,116.5,556,112.9z M573.2,121.4
			c0.4,0.1,0.7,0.3,1.1,0.4c3.5-4.2,8.5-5.1,13.3-6.2c1.1-0.3,2.1-0.5,3.2-0.7c1.3-0.2,1.9-0.9,1.9-2.2c0-2.8,0-5.6-0.6-8.4
			c-0.7-3.1-1.7-3.7-4.8-3.6c-5,0.2-9.1,3-13.5,4.7c-0.6,0.2-0.6,0.9-0.6,1.4C573.2,111.6,573.2,116.5,573.2,121.4z M572.9,146.7
			c6.2-4.6,11.7-9.2,17.8-13c0.9-0.6,1.3-1.5,1.3-2.5c0.1-1.5,0.2-3.1,0.4-4.6c0.3-2.5-0.8-2.6-2.7-1.7c-1.9,1-3.9,2-5.9,2.8
			c-2.9,1.1-5.8,2.3-8.8,0.2c-1-0.7-1.3,0.1-1.3,0.9C574,134.6,572.9,140.4,572.9,146.7z"/>
		<path fill="#ffffff" d="M478.8,100.1c0.6-0.9,0.8-1.2,1.1-1.6c6-10.3,15.2-14.5,26.7-13.9c10.8,0.6,17.6,8.1,17.9,18.9
			c0.1,4.4-0.9,8.7-2.3,12.8c-1.8,5.3-4.1,10.3-7.3,14.9c-1.3,1.9-1.4,2.8,1.2,3c3.5,0.4,6.7,1.6,9.8,3.3c6,3.3,6.7,10.3,1.4,14.6
			c-3.5,2.9-7.8,4.1-12.2,3.7c-7.6-0.6-15.1-2-22.7-3.2c-0.4-0.1-0.7-0.2-1-0.3c-3.9-1.3-6.7-3.7-7.2-8c-0.5-4.2,1.6-7.2,5.2-9.1
			c9.9-5.3,15.5-13.9,19-24.3c0.7-2.1,1.2-4.2,1.2-6.4c0-3.8-1.4-5.5-5.2-6c-9.2-1.3-17.5,3.8-20.5,12.6c-2.8,8.1-2.7,16.4-2.6,24.8
			c0,1.7,0.2,3.5,0,5.2c-0.2,2.6-1.5,4.5-4.1,5.2c-2.7,0.7-4.8-0.3-6.5-2.4c-1.4-1.8-2-3.9-2.4-6c-2.4-13.1-2.1-26.2-0.9-39.4
			c0.2-1.8,0.7-3.6,1.7-5.2c1-1.6,2.4-2.5,4.3-2.4c1.8,0.2,3.1,1.2,3.6,2.9C477.6,95.7,478.1,97.7,478.8,100.1z"/>
		<path fill="#ffffff" d="M1311.3,126.5c-0.4,10.1-3.5,19.5-7.7,28.5c-3.2,7-7.1,13.7-12.7,19.2c-1.8,1.7-3.6,3.3-6,4.1
			c-3.2,1.1-6.7,0-7.5-3c-2.1-7.5-4-15.1-2.3-23.1c0.1-0.5,0.3-1.1,0.5-1.6c0.5-1.2,1.3-2,2.6-2c1.4,0,2.3,0.7,2.7,1.9
			c0.5,1.4,0.9,2.8,1.2,4.2c0.4,1.7,0.7,3.4,1.1,5.1c0.2,0.7,0.3,1.5,1.2,1.6c0.8,0.1,1-0.7,1.3-1.2c5.6-11,10.9-22,13.1-34.2
			c0.7-3.7,0.3-4.1-3.4-3.5c-3.8,0.6-7.5,1.6-11.2,2.3c-4.4,0.7-8.1-1.1-9.9-4.6c-1.3-2.5-1.2-5.1-0.6-7.7c1.5-6.4,4-12.5,7.4-18.1
			c0.7-1.2,1-2.1,0.2-3.4c-1.1-1.7-0.7-3.6,0.7-5c3.5-3.5,7.1-6.7,12.1-8c3.3-0.8,8.2-7.8,8.3-11.1c0-1.9-1.4-1.9-2.7-1.9
			c-4.1-0.1-8.2,0.7-12,2c-2,0.7-3.9,1.5-5.4-0.6c-1.5-2.2-0.4-4.3,1.3-5.9c6-5.7,13.2-7.8,21.3-7.1c7.9,0.6,13,5.7,13.7,13.4
			c0.3,3.1-0.4,6-1.7,8.8c-2.2,4.7-4.7,9.2-7.6,13.5c-0.9,1.3-2.1,2-3.5,2.4c-3.9,1.1-7.7,2.9-11.8,3.4c-2,0.3-3.1,1.3-3.6,3.2
			c-0.8,2.9-1.6,5.8-2.5,8.6c-0.6,2,0.2,2.4,2,2.1c2.5-0.4,5-0.8,7.6-1.1c6.1-0.5,10.1,2,12.2,7.8
			C1310.9,119,1311.3,122.7,1311.3,126.5z"/>
		<path fill="#ffffff" d="M1131.2,77.1c-1.3,17.1-5.3,33.7-10.3,50.1c-0.8,2.7-0.7,3.9,2.3,4.8c3.6,1.1,6.5,3.6,9.2,6.3
			c5.1,4.9,9.7,10.4,14.4,15.7c0.5,0.5,0.9,1.2,1.3,1.8c0.9,1.5,1.3,3.1,0.1,4.6c-1.2,1.5-2.8,1.5-4.5,1c-2.4-0.7-4.5-2-6.4-3.5
			c-6.6-5.1-13.1-10.4-18.2-17.1c-1.5-1.9-2-1.4-2.8,0.5c-4.3,11.2-9.6,22-15.1,32.6c-0.9,1.8-1.8,3.6-3.3,5c-1.7,1.6-3.7,2-5.8,0.8
			c-2-1.2-2.5-3.1-1.9-5.2c0.7-2.3,1.6-4.5,2.5-6.6c7.1-17.1,12.5-34.7,18.1-52.3c0.6-1.8,0.7-2.8-1.7-3c-3.3-0.4-5.6-2.6-7.4-5.1
			c-3.5-4.8-5.6-10.2-6.8-15.9c-0.3-1.3-0.2-2.5,0-3.8c0.6-3,2.4-5,4.9-5.6c2.7-0.6,5.3,0.6,7,3.2c1.6,2.4,2,5.2,2.5,8
			c0.5,2.9,0.9,5.7,1.5,8.6c0.1,0.8,0.4,1.6,0.8,2.3c0.3,0.7,0.7,1.7,1.7,1.5c0.9-0.1,0.8-1.1,1-1.8c2.6-9.5,5.2-18.9,7.8-28.4
			c0.6-2,1.2-4,1.9-6c0.6-1.6,1.8-2.8,3.7-2.6c2,0.2,3,1.6,3.4,3.4C1131.3,72.5,1131.2,74.8,1131.2,77.1z"/>
		<path fill="#ffffff" d="M66,51.6c1.3,0.6,2.3-0.1,3.3-0.4c19.5-5.4,39.3-9.2,59.5-10.8c4.9-0.4,9.8,0,14.7,0.4
			c0.9,0.1,1.8,0.3,2.7,0.5c3,0.9,5.2,2.7,5.6,6c0.4,2.9-1.3,5.6-4.5,7.1c-1.7,0.8-3.6,1.3-5.4,1.8c-5.9,1.6-11.9,2.4-18,2.9
			c-23.1,1.8-46.1,4.7-68.9,9.4c-1.9,0.4-3.7,0.9-5.3,2c-1.7,1.2-3.7,1.9-5.5,0.2c-1.7-1.6-1.2-3.7-0.2-5.3
			c2.7-4.2,5.7-8.2,7.9-12.7c2-4.1,4.3-8,7-11.7c0.9-1.3,1.9-2.7,3.4-3.5c2.2-1.3,4.5-1.6,6.6,0.1c2.2,1.7,2.4,4.1,1.3,6.4
			C69,46.6,67.4,49.1,66,51.6z"/>
		<path fill="#ffffff" d="M644.7,108.1c-0.7,2.1,0.3,2.5,2.4,2.1c5.2-0.9,10.4-1.7,15.6-2.5c2.1-0.3,4.2-0.5,6.2-0.1
			c2.1,0.4,3.5,1.5,4,3.6c0.5,2-0.3,3.6-1.8,4.8c-1.4,1.2-3.1,1.9-4.8,2.6c-6.9,2.6-13.7,5.2-20.7,7.6c-2.2,0.7-3,1.8-3.1,4
			c-0.3,5.4-0.4,5.3,4.6,3.2c5.4-2.2,10.8-4.2,16.2-6.3c1.7-0.7,3.4-0.7,4.7,0.9c1.3,1.6,1,3.2,0,4.8c-1.9,3.2-4.7,5.7-8,7.2
			c-9.5,4.3-18.9,8.9-27.9,14.3c-1.5,0.9-3.1,1.4-4.8,1.9c-2.6,0.7-5,0.4-6.5-2.1c-1.5-2.4-0.7-4.7,1-6.8c2-2.4,4.6-4.1,7.3-5.6
			c2.6-1.5,4.7-8.2,3.5-10.9c-0.5-1.1-1.3-0.8-2.1-0.6c-2.4,0.5-4.9,0.7-7.3,0.5c-2.5-0.2-4.6-1.2-5.4-3.8c-0.8-2.5,0.3-4.5,2.1-6
			c3.2-2.8,7-4.5,10.9-6c1.9-0.7,2.7-1.7,2.9-3.7c0.3-3.3,1.5-6.2,4.9-7.6C642.4,102.1,645,104.1,644.7,108.1z"/>
		<path fill="#ffffff" d="M663.6,91.8c-2.3,0-4.5-0.4-6.6-1.4c-4.2-2-6.5-6.1-5.7-10.7c0.4-2.3,1.1-4.6,1.8-6.9
			c0.7-2.5,1.3-4.6-1-6.9c-2.2-2.3-1.2-6.4,1.9-8.9c2.3-1.9,3.9-3.9,4.6-6.8c0.4-1.7,1.6-3.1,3.1-4.1c3-2,7.6-1.1,8.6,2.2
			c0.7,2.4,2.1,2.5,4,2.4c3.7-0.1,7.5-0.1,11.2,0c1.4,0,2.9,0.2,4.3,0.5c2.5,0.5,4.5,1.7,4.7,4.5c0.2,2.8-1.6,4.3-4,5.1
			c-6.9,2.2-13.9,4.4-20.8,6.5c-2.1,0.7-5.1,5.8-4.5,7.9c0.3,1.2,1.3,0.7,2,0.6c3.9-0.6,7.9-1.4,11.8-2c2-0.3,4-0.5,6-0.1
			c2.4,0.6,4.2,1.8,4.8,4.3c0.6,2.5-0.4,4.5-2.4,6c-2.6,1.9-5.3,3.6-8.6,3.9c-1.4,0.1-2.6,0.7-3.9,1.2
			C671.3,90.8,667.6,91.8,663.6,91.8z"/>
		<path fill="#ffffff" d="M1214.4,68.3c0.4-5.2-2.1-8.6-6.8-8.8c-7.4-0.3-14.4,1.6-21.2,4.3c-1.2,0.5-1.5,1.4-1.5,2.6
			c-0.1,4.4-0.2,8.7-0.3,13.1c-0.1,4.8-1.4,7.1-4.2,7.6c-2.9,0.4-4.8-1.5-6.5-6.1c-2-5.5-1.2-11.1-0.9-16.7c0.2-3.7,0.8-7.4,1.9-11
			c0.6-2,1.6-3.8,4-3.9c2.4-0.1,3.6,1.6,4.1,3.6c0.6,2.3,1.3,2,3.1,1c8-4.5,16.5-6.8,25.6-5.1c8,1.4,12.6,7.2,12.6,15.4
			c0,4.6-0.9,9.1-3.5,12.9c-2.2,3.2-5.2,4.7-9.2,3.9c-1.6-0.3-3.1-1-3.1-2.9c0-1.8,1.3-2.3,2.9-2.7c2.5-0.6,2.8-1.1,2.9-3.5
			c-7.3,1.4-14.4,4-21.7,5.2c-0.6,0.1-1.3,0.1-1.9,0.1c-1.8,0-3.5-0.5-4-2.6c-0.5-2,0.6-3.4,2.1-4.3c3.3-2.1,7.1-2.8,10.9-3.1
			c2.3-0.2,4.7-0.3,7.1-0.4C1209.5,66.7,1212.1,66.4,1214.4,68.3z"/>
		<path fill="#ffffff" d="M1378.4,69.8c0.1-5.7,0.9-11.2,3.3-16.4c1.7-3.5,3.8-6.5,8.5-5.7c1,0.2,1.7-0.6,2.4-1.1
			c5.3-3.1,10.9-3.8,16.8-1.9c6.9,2.3,10.9,8.3,10.1,15.5c-0.3,2.6-0.9,5.2-1.5,7.7c-0.4,1.7-0.9,3.3-0.7,5.1
			c0.2,1.8-0.7,3.1-2.1,4.2c-1.2,1-2.6,1.7-4.1,2c-5.2,1-10.5,2.2-15.8,2.5c-2.7,0.1-5.4-0.2-8.2,0.6c-3.3,1-6.6-1.6-7.9-5.2
			C1378.2,74.7,1378.4,72.2,1378.4,69.8z M1408.1,63.6c-0.3-1.4-0.5-2.9-0.9-4.3c-0.5-2-1.2-3.9-3.9-3.8c-2.9,0.2-6.2,2.3-6.6,4.3
			c-0.5,2.4-0.8,4.8-1.3,7.2c-0.3,1.7,0.3,2.1,1.9,1.8c2.3-0.5,4.6-1.2,6.9-1.3C1407.3,67.6,1408.3,66.3,1408.1,63.6z"/>
		<path fill="#ffffff" d="M1329.4,70.9c0.2-4.7,0.9-9.4,2.8-13.8c2.2-5.1,6.6-7.5,11.2-3.6c1.7,1.5,3.1,1.4,4.9-0.1
			c3.4-2.7,7.2-4.6,11.7-4.7c7.8-0.2,13.2,5.7,12.4,13.5c-0.4,3.5-1.7,6.7-3.5,9.6c-1.5,2.4-3.6,4.3-4,7.3c-0.1,0.9-1,1.6-1.8,1.9
			c-5.3,2.1-10.3,5.3-16.4,3.1c-0.9-0.3-1.7-0.1-2.5,0.5c-4.2,2.8-8.8,2-11.6-2.2C1330.1,79.1,1329.2,75.1,1329.4,70.9z M1347,68.1
			c0,0.6-0.1,1.3-0.1,1.9c-0.3,5.6-0.3,5.6,5.3,4.6c0.8-0.1,2,0.1,2.4-0.9c1.5-4.5,4-8.8,4.5-13.7c0.2-2.2-1-3.2-3.2-2.9
			c-1.6,0.2-2.9,0.9-4.1,1.9c-0.6,0.5-1.4,1.4-2,1.4c-3.7-0.4-2.9,2-2.9,4.1C1347,65.7,1347,66.9,1347,68.1z"/>
		<path fill="#ffffff" d="M180.6,202.4c-0.2,5.2-1.9,9.3-6.6,11.3c-4.7,2.1-8.9,0.6-12.6-2.6c-2.7-2.3-4.5-5.3-5.6-8.6
			c-2.8-8-5.8-15.8-9.6-23.4c-1.8-3.5-1.2-7.1,1.4-10.2c1.6-2,3.8-2.7,6.3-1.9c1.6,0.5,3,1.2,4.4,2.2c9.7,6.7,16.5,15.8,20.9,26.6
			c0.5,1.2,0.8,2.4,1,3.7C180.5,200.5,180.5,201.6,180.6,202.4z"/>
		<path fill="#ffffff" d="M673.9,151.8c-2.4-0.1-4.7-0.6-5.7-3.2c-1-2.6,0.1-4.6,1.9-6.4c2.7-2.5,6-3.7,9.5-4.5
			c2.1-0.5,3.1-1.5,3.5-3.6c0.6-2.9,1.4-5.8,2.1-8.8c0.4-1.7,0.2-2.6-1.8-1.6c-0.2,0.1-0.3,0.1-0.5,0.2c-3.7,1.4-6.2,1.1-7.7-1
			c-1.6-2.1-1.3-5.4,1-8.3c2.5-3.3,6-5.2,9.8-6.7c2.2-0.9,3.8-2.1,5.1-4.1c2.8-4.5,6.1-5.1,10.6-2.3c0.5,0.3,1.2,0.4,1.8,0.6
			c3.5,0.9,4.7,3.9,2.7,6.9c-0.6,0.9-1.3,1.9-2.2,2.3c-3,1.5-4.2,4.1-5,7.1c-1.1,4.2-2.4,8.4-3.7,12.5c-0.6,1.9-0.6,2.8,1.8,2.9
			c2.3,0.1,3.8,1.6,4.3,3.9c0.4,2.2-0.3,4.4-2.3,5.1c-8.1,2.8-15.6,7.4-24.2,8.9C674.6,151.8,674.3,151.8,673.9,151.8z"/>
		<path fill="#ffffff" d="M83.1,172.6c3.8,0,6.5,1.9,7.6,6.1c1.3,4.6,2.1,9.4,3.2,14.1c0.9,3.8,1.6,7.6,3.1,11.3
			c0.8,2-0.1,2.9-1.8,3.5c-2.9,1-5.6,0.5-8-1.2c-1.9-1.3-3.3-3.1-4.4-5.2c-2.1-4.1-4.2-8.3-6.1-12.5c-1.4-2.9-1.8-6.1-1.3-9.3
			C76.1,175.4,79.2,172.7,83.1,172.6z"/>
		<path fill="#ffffff" d="M28.9,212c0.2-0.6,0.3-1.7,0.7-2.7c3.3-9.5,8.4-17.9,15.4-25.1c1.4-1.4,2.9-2.8,4.8-3.5
			c1.7-0.6,3.3-0.4,4.6,0.8c1.3,1.2,1.6,2.8,1.1,4.5c-3.4,10.1-8,19.6-15.3,27.7c-1.5,1.7-3.4,2.8-5.5,3.4
			C31.4,217.9,28.8,215.8,28.9,212z"/>
		<path fill="#ffffff" d="M1227,139.8c10.6,0.5,19.9,3.5,28.1,9.5c3,2.2,4,5.1,2.8,7.8c-1.1,2.5-4.1,4.1-7.2,3.7
			c-0.9-0.1-1.9-0.2-2.5-0.9c-1.7-2.2-4.3-2.5-6.7-3.2c-6.5-1.9-12.6-4.6-18.8-7.2c-2.3-1-4.6-2.2-4.2-5.3c0.2-2.2,2.4-3.7,5.7-4.2
			C1225.3,139.8,1226.4,139.8,1227,139.8z"/>
		<path fill="#ffffff" d="M1232.3,157.7c1.2,0,2.4,0.2,3,1.5c0.6,1.3,0,2.3-0.8,3.2c-2.3,2.5-3.9,5.4-5,8.6
			c-0.6,1.8-0.3,3.1,1.2,4.3c2.8,2.2,5.5,4.4,8.2,6.7c1.5,1.2,2.7,2.7,3,4.7c0.4,2.9-1.6,5.1-4.3,4.4c-5.5-1.5-11.1-2.8-16-6
			c-5.4-3.6-6.7-8.3-3.9-14.1c2.3-4.7,5.7-8.6,10-11.6C1229.1,158.5,1230.6,157.8,1232.3,157.7z"/>
		<path fill="#ffffff" d="M113.3,172.6c3,0.1,5.8,1.6,7.4,4.6c3.5,6.3,6.1,13,8.1,19.9c0.6,2-0.3,3.3-2.2,4c-1.8,0.7-3.6,0.5-5.3,0
			c-3-0.9-5.3-2.7-7.3-5.1c-3-3.6-5.6-7.7-7.8-11.8C103.2,178.5,106.7,172.6,113.3,172.6z"/>
		<path fill="#ffffff" d="M1150.7,87.8c-0.2,0.7-0.3,2-0.8,3.3c-1.6,3.9-3.3,7.9-5.1,11.7c-1.3,2.8-3.3,4.8-6.5,5.2
			c-1.9,0.2-3.7-0.3-4.7-2c-1-1.7-0.5-3.3,0.5-4.8c2.3-3.4,3.9-7.2,5.1-11.1c0.6-1.8,1.1-3.7,1.9-5.4c1.4-3.1,3.7-4.4,6.1-3.7
			C1149.6,81.7,1150.9,84,1150.7,87.8z"/>
		<path fill="#ffffff" d="M1213.4,86.9c-0.1,1.8-0.7,3.1-2.2,4c-1.3,0.8-2.6,0.8-3.8-0.4c-1-1-2.1-0.8-3.3-0.7
			c-4.1,0.3-8.1,1.3-12,2.3c-1.8,0.4-3.6,0.8-5.4,0.7c-1.9-0.1-3.4-0.8-4-2.7c-0.5-2,0.4-3.5,2.1-4.6c1.8-1.1,3.8-1.7,5.9-2.1
			c5.2-0.9,10.4-1.3,15.7-1.3c1.6,0,3.1,0.3,4.5,1C1212.4,83.9,1213.4,85.2,1213.4,86.9z"/>
	</g>
</g>
<g id="_xFFFD__x9C__x96_撅_xFFFD__17_xA0_影像_1_">
</g>
</svg>
